<svg xmlns="http://www.w3.org/2000/svg" width="834px" height="1087px" viewBox="0 0 834 1087">
  <path d="M704.6425,473.7992 C723.5095,491.0792 750.3875,487.2862 769.5915,467.0662 C788.7965,446.8452 784.9455,415.2082 762.6735,402.1332 C740.4025,389.0572 715.8435,389.5222 697.7245,408.8662 C679.6055,428.2102 685.7755,456.5202 704.6425,473.7992 M489.5785,243.2932 C514.0975,203.6482 563.6325,211.4442 597.2625,231.9482 C630.8925,252.4522 635.1735,306.7732 608.5555,339.6442 C581.9365,372.5162 535.2475,378.8272 500.8705,350.9882 C466.4935,323.1512 465.0575,282.9382 489.5785,243.2932" fill="#F24B88" style="mix-blend-mode: multiply;"></path>
  <path d="M669.3798,465.1713 C729.2338,513.6393 729.2688,593.1933 689.9928,661.3113 C650.7188,729.4283 584.0628,792.1313 537.5608,849.5603 C491.0578,906.9883 405.1178,921.7483 341.4298,870.1753 C277.7428,818.6023 267.8268,726.3993 320.8158,674.0353 C373.8048,621.6713 416.5618,542.7173 473.2488,485.7853 C529.9368,428.8553 609.5258,416.7023 669.3798,465.1713" fill="#8DF2E0" style="mix-blend-mode: multiply;"></path>
  <path d="M368.8104,450.0775 C394.2954,473.4175 430.5994,468.2955 456.5404,440.9825 C482.4814,413.6695 477.2794,370.9355 447.1964,353.2735 C417.1134,335.6125 383.9404,336.2395 359.4654,362.3685 C334.9914,388.4975 343.3254,426.7365 368.8104,450.0775 M232.3454,618.4915 C228.0834,625.7315 231.1364,634.1055 238.9424,638.8935 C246.7474,643.6815 256.6454,640.2845 259.3244,632.2385 C262.0024,624.1925 260.1774,616.3365 252.7274,611.8365 C245.2774,607.3375 236.6064,611.2515 232.3454,618.4915 M236.1244,531.3655 C254.2434,512.0215 278.8024,511.5565 301.0734,524.6335 C323.3454,537.7085 327.1964,569.3455 307.9914,589.5655 C288.7874,609.7865 261.9094,613.5785 243.0424,596.2995 C224.1744,579.0195 218.0044,550.7105 236.1244,531.3655" fill="#F2CEE9" style="mix-blend-mode: multiply;"></path>
  <path d="M444.8632,261.4662 C451.3812,265.0352 459.4512,265.3462 464.2372,259.4352 C469.0232,253.5252 468.1092,244.8512 462.1952,240.0622 C456.2822,235.2732 448.0492,237.5532 442.8222,242.0932 C437.5942,246.6322 438.3462,257.8972 444.8632,261.4662 M585.6962,116.7112 C638.5172,70.8702 721.7552,47.8972 781.6082,96.3642 C841.4622,144.8332 850.7892,232.5302 802.4402,292.2372 C754.0922,351.9422 672.4712,348.7312 606.5282,312.5822 C540.5842,276.4342 532.8752,162.5522 585.6962,116.7112" fill="#F4F4F4" style="mix-blend-mode: multiply;"></path>
  <path d="M619.6376,749.4437 C638.5046,766.7227 665.3826,762.9307 684.5866,742.7107 C703.7916,722.4897 699.9416,690.8527 677.6696,677.7777 C655.3986,664.7017 630.8396,665.1667 612.7196,684.5107 C594.6006,703.8547 600.7706,732.1647 619.6376,749.4437 M667.5836,790.3487 C673.7796,796.0227 682.6046,794.7767 688.9096,788.1367 C695.2156,781.4987 693.9516,771.1097 686.6386,766.8157 C679.3256,762.5227 671.2616,762.6747 665.3126,769.0267 C659.3626,775.3797 661.3886,784.6737 667.5836,790.3487 M267.0126,969.8737 C289.1146,942.5817 325.3356,939.9017 356.6366,960.6287 C387.9376,981.3547 391.4916,1025.4887 366.2266,1050.2197 C340.9626,1074.9517 299.8816,1097.7647 277.3596,1079.5267 C254.8376,1061.2887 244.9116,997.1667 267.0126,969.8737 M380.2086,32.9417 C440.0626,81.4107 449.2896,169.2267 400.8226,229.0817 C352.3556,288.9367 288.3696,353.6607 248.3886,417.3307 C208.4086,481.0017 106.2226,493.6487 52.2596,437.9457 C-1.7044,382.2437 -22.4044,308.5537 31.6446,241.8057 C85.6946,175.0567 130.9666,119.1437 184.0776,53.5557 C237.1896,-12.0313 320.3546,-15.5263 380.2086,32.9417" fill="#EDF24B" style="mix-blend-mode: multiply;"></path>
</svg>