<svg xmlns="http://www.w3.org/2000/svg" viewBox="0 0 24 24">
  <path fill="#EDF24B" d="M23.16,7.19c1.72,4.16,0.87,10.25-3.14,13.5c-3.99,3.25-11.13,3.64-15.39,0.46C0.34,17.98-1.05,11.22,0.8,6.84s6.98-6.32,11.67-6.18C17.18,0.8,21.44,3.03,23.16,7.19z"/>
  <path fill="#8DF2E0" d="M22.25,10.7c1.04,4.58-0.44,8.58-3.41,10.79c-2.97,2.21-7.42,2.62-11.27,0.27S0.49,14.35,1.66,9.58c1.17-4.77,6.8-9.24,11.4-8.91C17.65,1,21.21,6.14,22.25,10.7z"/>
  <path fill="#F24B88" d="M20.94,7.74c1.21,3.3,0.32,7.69-3.13,10.69s-9.48,4.6-12.58,2.33C2.1,18.47,1.89,12.32,3.68,8.23c1.79-4.11,5.61-6.13,9.17-6.06C16.42,2.26,19.71,4.46,20.94,7.74z"/>
  <path fill="#FFFFFF" d="M21.02,14.65c-0.02-0.01-0.03-0.02-0.05-0.03c-0.3-0.17-0.37-0.55-0.11-0.78c0.25-0.23,0.68-0.17,0.86,0.1l0.03,0.04C22.03,14.4,21.47,14.9,21.02,14.65z M18.39,5.33C13.14,4.73,7.79,6.48,2.8,7.7C2.71,7.69,2.62,7.71,2.53,7.75L2.4,7.81C1.93,8.03,2.26,8.75,2.76,8.59c2.35-0.75,4.71-1.32,7.1-1.72c0.05,3.79,0.37,7.91,1.52,11.56c0.13,0.41,0.81,0.52,1.04,0.12c0.92-1.61,1.84-3.22,2.84-4.8c0.13-0.21,0.28-0.42,0.44-0.65c0.09,0.12,0.19,0.23,0.29,0.34c0.33,0.34,0.79,1.23,1.23,1.89c-0.57,0.24-1.04,0.52-1.2,1.13c-0.05,0.2-0.01,0.45,0.17,0.58c0.63,0.46,1.71,0.28,2.15-0.38c0.46-0.71,0.29-1.37,0-2.09c-0.22-0.53-1.37-1.58-1.88-2.54c0.47-0.69,0.88-1.41,1-2.11c0.06-0.38-0.24-0.7-0.69-0.61c-0.83,0.16-1.76,1.23-1.71,2c0.03,0.54,0.04,0.73,0.14,0.98c-0.48,0.66-0.99,1.28-1.28,1.72c-0.62,0.96-1.24,1.91-1.83,2.88c-0.87-3.24-1.19-6.84-1.18-10.13c0.01-0.02,0.02-0.04,0.03-0.07c2.44-0.36,4.92-0.55,7.44-0.61C18.95,6.08,18.92,5.39,18.39,5.33z"/>
</svg>
