<svg xmlns="http://www.w3.org/2000/svg" width="257px" height="257px" viewBox="0 0 257 257">

<g transform="translate(24.093750, 30.117188)">
	<path d="M201.5,56.8c14.9,36.2,7.6,89.1-27.4,117.4c-34.7,28.3-96.8,31.6-133.9,4C2.9,150.6-9.1,91.8,7,53.8S67.7-1.1,108.5,0.1C149.5,1.2,186.6,20.7,201.5,56.8z" fill="#EDF24B"></path>
	<path d="M192.8,87.3c9,39.8-3.9,74.6-29.7,93.8s-64.5,22.8-98,2.3S3.4,119.1,13.6,77.6S72.8-2.7,112.8,0.1C152.7,3,183.7,47.7,192.8,87.3z" fill="#8DF2E0"></path>
	<path d="M179.7,61.6c10.5,28.7,2.8,66.9-27.2,93s-82.4,40-109.5,20.2c-27.2-19.9-29-73.4-13.4-108.9c15.6-35.7,48.8-53.3,79.8-52.7C140.4,14,169.1,33.1,179.7,61.6z" fill="#F24B88"></path>
	<path d="M45.3,51c31.5-7.8,63.9-14.1,95.9-10.5c4.6,0.5,4.9,6.5,0,6.6c-22,0.5-43.5,2.2-64.8,5.3c-0.1,0.2-0.2,0.4-0.3,0.6c-0.1,28.5,2.8,59.9,10.3,88c5.1-8.4,10.5-16.7,15.9-25c2.5-3.8,6.9-9.2,11.1-15c-0.9-2.2-1-3.9-1.2-8.6c-0.4-6.7,7.7-15.9,14.9-17.4c3.9-0.8,6.5,2,6,5.3c-1,6.1-4.6,12.4-8.7,18.4c4.4,8.4,14.4,17.5,16.3,22.1c2.6,6.2,4.1,12,0,18.2c-3.8,5.8-13.2,7.3-18.7,3.3c-1.6-1.2-1.9-3.4-1.5-5.1c1.3-5.3,5.4-7.7,10.4-9.8c-3.8-5.8-7.8-13.5-10.7-16.4c-0.8-1-1.7-2-2.5-3c-1.4,1.9-2.7,3.8-3.8,5.6c-8.7,13.7-16.7,27.7-24.7,41.7c-2,3.5-7.9,2.5-9-1.1c-9.9-31.7-12.7-67.5-13.2-100.5c-20.8,3.5-41.3,8.4-61.7,15C0.7,70.3-2.1,64,2,62.1c0.4-0.2,0.7-0.3,1.1-0.5c0.8-0.4,1.6-0.5,2.4-0.4c8.7-2.1,17.5-4.4,26.4-6.7l2.7-0.7c0.4-0.1,0.9-0.2,1.3-0.3l2.7-0.7c0.4-0.1,0.9-0.2,1.3-0.3l2.7-0.7l0,0L45.3,51z M162.6,114.6c2.2-2,5.9-1.5,7.5,0.9c0.1,0.1,0.2,0.2,0.2,0.4c2.4,3.6-2.4,7.9-6.4,5.7c-0.1-0.1-0.3-0.1-0.4-0.2C160.9,119.9,160.4,116.6,162.6,114.6z" fill="#FFFFFF"></path>
</g>

</svg>