<svg xmlns="http://www.w3.org/2000/svg" viewBox="0 0 24 24">
  <path d="M18.8429164,15.1711075 L18.7959164,15.1451075 C18.4949164,14.9761075 18.4299164,14.5901075 18.6859164,14.3581075 C18.9399164,14.1251075 19.3639164,14.1851075 19.5489164,14.4591075 L19.5769164,14.5011075 C19.8579164,14.9181075 19.2999164,15.4271075 18.8429164,15.1711075 M23.1579164,7.62510751 C21.5499164,3.67310751 17.7049164,1.43610751 13.3559164,1.05710751 C13.2279164,1.04010751 13.0989164,1.02610751 12.9689164,1.01710751 C12.8039164,1.00510751 12.6389164,0.99910751 12.4719164,1 L12.3029164,1.00310751 C7.66091641,0.91810751 2.63091641,2.89510751 0.80091641,7.27310751 C0.68291641,7.55710751 0.57791641,7.85110751 0.48591641,8.15310751 C0.53191641,8.14510751 0.57991641,8.12310751 0.62391641,8.12710751 C5.61591641,6.89010751 10.9659164,5.11810751 16.2189164,5.72110751 C16.7459164,5.78210751 16.7799164,6.48110751 16.2189164,6.49310751 C13.6919164,6.54710751 11.2159164,6.74410751 8.77491641,7.10810751 C8.76591641,7.13110751 8.75591641,7.15410751 8.74291641,7.17610751 C8.73691641,10.5021075 9.05991641,14.1571075 9.92591641,17.4401075 C10.5119164,16.4561075 11.1349164,15.4921075 11.7509164,14.5221075 C12.0349164,14.0721075 12.5459164,13.4451075 13.0269164,12.7761075 C12.9199164,12.5151075 12.9169164,12.3241075 12.8849164,11.7791075 C12.8389164,11.0041075 13.7699164,9.92110751 14.5969164,9.75410751 C15.0439164,9.66410751 15.3459164,9.99310751 15.2819164,10.3761075 C15.1629164,11.0911075 14.7499164,11.8191075 14.2809164,12.5181075 C14.7869164,13.4941075 15.9409164,14.5581075 16.1599164,15.0971075 C16.4579164,15.8241075 16.6269164,16.4941075 16.1639164,17.2151075 C15.7309164,17.8881075 14.6439164,18.0691075 14.0169164,17.6011075 C13.8319164,17.4621075 13.7959164,17.2081075 13.8449164,17.0101075 C13.9969164,16.3911075 14.4679164,16.1071075 15.0419164,15.8631075 C14.9619164,15.7401075 14.8809164,15.6111075 14.8009164,15.4791075 L14.5609164,15.0771075 C14.2839164,14.6111075 14.0209164,14.1681075 13.8079164,13.9471075 C13.7109164,13.8331075 13.6149164,13.7181075 13.5219164,13.6021075 C13.3639164,13.8261075 13.2139164,14.0461075 13.0809164,14.2581075 C12.0839164,15.8571075 11.1609164,17.4841075 10.2409164,19.1201075 C10.0109164,19.5281075 9.32991641,19.4081075 9.20291641,18.9971075 C8.06191641,15.3011075 7.73791641,11.1291075 7.68691641,7.28210751 C5.29591641,7.69010751 2.93591641,8.26310751 0.58991641,9.02610751 C0.46791641,9.06610751 0.35791641,9.05210751 0.26491641,9.00810751 C-0.66408359,13.3371075 0.86491641,18.9531075 4.62091641,21.7781075 C6.76991641,23.4021075 9.65091641,24.1091075 12.4909164,23.9861075 C14.5529164,24.0931075 16.5409164,23.5621075 18.1679164,22.5231075 C18.8339164,22.1771075 19.4549164,21.7721075 20.0149164,21.3101075 C24.0269164,18.0101075 24.8749164,11.8411075 23.1579164,7.62510751" fill="#000000"></path>
</svg>