<svg xmlns="http://www.w3.org/2000/svg" xmlns:xlink="http://www.w3.org/1999/xlink">


  <!-- Logo -->
  <symbol id="trevor-saint">
    <path fill="#EDF24B" d="M81.7 23.04c6.06 14.67 3.06 36.12-11.09 47.6-14.09 11.48-39.27 12.84-54.31 1.63-15.1-11.2-20-35.04-13.47-50.45S27.46-.45 44 .02C60.61.5 75.65 8.38 81.7 23.04z"/><path fill="#8DF2E0" d="M78.16 35.4c3.67 16.15-1.56 30.26-12.03 38.06s-26.16 9.23-39.75.95-25-26.12-20.86-42.94S29.51-1.09 45.75.06C61.93 1.21 74.5 19.33 78.16 35.4z"/><path fill="#F24B88" d="M72.87 24.98C77.12 36.62 74 52.1 61.83 62.68c-12.16 10.58-33.43 16.2-44.39 8.2C6.41 62.81 5.68 41.12 11.99 26.7 18.3 12.22 31.79 5.08 44.35 5.34c12.57.33 24.2 8.07 28.52 19.64z"/><path fill="#FFF" d="M65.92 46.46c.9-.81 2.39-.6 3.05.35.03.05.07.1.1.15.99 1.45-.98 3.22-2.59 2.33-.05-.03-.11-.06-.17-.09-1.06-.59-1.29-1.93-.39-2.74zM2.2 24.79c17.61-4.3 36.48-10.46 55.02-8.37 1.86.21 1.98 2.64 0 2.68-8.91.19-17.65.87-26.26 2.14-.03.08-.07.16-.11.23-.02 11.57 1.12 24.28 4.17 35.7 2.07-3.42 4.27-6.77 6.44-10.15 1-1.56 2.81-3.74 4.5-6.07-.38-.91-.39-1.57-.5-3.47-.16-2.7 3.12-6.46 6.04-7.04 1.58-.31 2.64.83 2.42 2.16-.42 2.49-1.88 5.02-3.53 7.45 1.78 3.4 5.85 7.09 6.63 8.97 1.05 2.53 1.65 4.86.01 7.37-1.53 2.34-5.36 2.97-7.57 1.34-.65-.48-.78-1.37-.61-2.06.54-2.15 2.2-3.14 4.22-3.99-1.55-2.34-3.18-5.46-4.35-6.66-.34-.4-.68-.8-1.01-1.2-.56.78-1.09 1.55-1.55 2.28-3.52 5.56-6.77 11.22-10.02 16.91-.81 1.42-3.22 1-3.66-.43-4.03-12.86-5.17-27.37-5.35-40.75-8.43 1.42-16.76 3.41-25.04 6.06-1.79.57-2.94-1.95-1.28-2.73l.45-.21c.32-.14.64-.19.94-.16z"/>
  </symbol>


  <!-- Social icons -->
  <symbol id="facebook">
    <path d="M9.96 22v-9.12H7V9.32h2.95V6.7c0-3.04 1.79-4.7 4.4-4.7 1.25 0 2.33.1 2.64.14v3.18h-1.81c-1.42 0-1.7.7-1.7 1.73v2.27h3.39l-.44 3.55h-2.95V22H9.96z"/>
  </symbol>


  <symbol id="pinterest">
    <path d="M19.86 8.73c0 2.21-.62 4.23-1.74 5.68-1.16 1.49-2.8 2.31-4.62 2.31-.97 0-1.96-.4-2.58-1-.2.8-.53 2.1-.63 2.44-.12.42-1.26 4.16-2.54 3.82-1.14-.31-.45-4.14-.34-4.63.2-.83 1.24-5.25 1.41-5.99-.11-.25-.34-.92-.34-1.8 0-1.8 1.09-3.22 2.48-3.22 1.09 0 1.83.8 1.83 2 0 .7-.27 1.58-.56 2.5-.16.51-.32 1.03-.44 1.54-.11.45-.02.87.24 1.21.28.35.72.55 1.21.55 1.13 0 1.87-.87 2.29-1.6.6-1.05.94-2.48.94-4.02 0-2.44-1.66-3.96-4.33-3.96-3.37 0-5.18 2.59-5.18 5.03 0 .82.21 1.45.66 1.99.25.29.34.49.23.91-.05.21-.18.7-.23.9-.09.35-.35.56-.68.56-.1 0-.21-.02-.31-.06-1.56-.64-2.49-2.34-2.49-4.57 0-1.77.76-3.56 2.1-4.91C7.32 3.3 9.27 2 12.46 2c2.08 0 3.99.73 5.36 2.05 1.3 1.24 2.04 2.95 2.04 4.68z"/>
  </symbol>


  <symbol id="twitter">
    <path d="M8.28 20.13c-2.31 0-4.47-.68-6.28-1.83a8.268 8.268 0 006.08-1.7 4.103 4.103 0 01-3.83-2.85c.25.05.5.07.77.07.38 0 .74-.05 1.08-.14a4.127 4.127 0 01-3.3-4.03v-.06c.55.3 1.18.49 1.86.51a4.104 4.104 0 01-1.82-3.42c0-.75.2-1.46.55-2.06 2.02 2.48 5.05 4.12 8.46 4.29-.06-.3-.1-.62-.1-.94 0-2.26 1.84-4.11 4.11-4.11 1.18 0 2.24.5 2.99 1.3.94-.18 1.82-.52 2.61-.99-.31.96-.96 1.77-1.81 2.27.83-.1 1.62-.32 2.36-.65-.55.82-1.25 1.55-2.05 2.13.01.18.01.35.01.53-.01 5.42-4.14 11.68-11.69 11.68"/>
  </symbol>


  <symbol id="linkedin">
    <path d="M6.82 4.67c0 1.24-.93 2.23-2.43 2.23h-.02C2.93 6.9 2 5.91 2 4.67c0-1.27.96-2.23 2.43-2.23 1.46 0 2.36.97 2.39 2.23zM2.25 21.56h4.29V8.66H2.25v12.9zm14.81-13.2c-2.27 0-3.29 1.25-3.86 2.13v.04h-.03c.01-.01.02-.03.03-.04V8.66H8.91c.06 1.21 0 12.9 0 12.9h4.29v-7.2c0-.39.03-.77.14-1.05.31-.77 1.02-1.57 2.2-1.57 1.55 0 2.17 1.19 2.17 2.92v6.9H22v-7.39c0-3.97-2.12-5.81-4.94-5.81z"/>
  </symbol>


  <symbol id="instagram">
    <path d="M17.34 5.46c.66 0 1.2.54 1.2 1.2 0 .66-.54 1.2-1.2 1.2-.66 0-1.2-.54-1.2-1.2 0-.66.54-1.2 1.2-1.2zM12 8.67c-1.84 0-3.33 1.49-3.33 3.33s1.49 3.33 3.33 3.33 3.33-1.49 3.33-3.33S13.84 8.67 12 8.67zm0-1.81c2.84 0 5.14 2.3 5.14 5.14s-2.3 5.14-5.14 5.14-5.14-2.3-5.14-5.14S9.16 6.86 12 6.86zm.56-3.06h-1.11c-2.17 0-2.51.01-3.49.06-.98.04-1.51.21-1.86.34-.46.19-.8.4-1.15.75-.35.35-.56.69-.75 1.15-.13.35-.3.88-.34 1.86-.04.98-.06 1.32-.06 3.48v1.11c0 2.17.01 2.51.06 3.49.04.97.21 1.5.34 1.86.18.47.4.8.75 1.15.35.35.69.56 1.15.75.35.14.88.3 1.86.34.94.04 1.29.06 3.23.06h1.61c1.94 0 2.3-.02 3.23-.06.97-.04 1.5-.21 1.86-.34.47-.18.8-.4 1.15-.75.35-.35.57-.68.75-1.15.14-.35.3-.88.34-1.86.04-.94.06-1.29.06-3.23V11.2c0-1.94-.02-2.3-.06-3.23-.04-.97-.21-1.5-.34-1.86-.18-.47-.4-.8-.75-1.15-.34-.36-.68-.57-1.14-.76-.35-.14-.88-.3-1.86-.34-.98-.04-1.32-.06-3.48-.06zm.47-1.8c1.8 0 2.18.02 3.1.06 1.06.05 1.79.22 2.43.46.66.26 1.22.6 1.77 1.15.56.56.9 1.11 1.15 1.77.25.64.42 1.36.46 2.43.04 1 .06 1.36.06 3.58v1.09c0 2.22-.01 2.59-.06 3.58-.05 1.06-.22 1.79-.46 2.43-.26.66-.6 1.22-1.15 1.77-.56.56-1.11.9-1.77 1.15-.64.25-1.36.42-2.43.46-1 .05-1.36.07-3.58.07h-1.09c-2.22 0-2.59-.01-3.58-.06-1.06-.05-1.79-.22-2.43-.46-.66-.26-1.22-.6-1.77-1.15-.56-.56-.9-1.11-1.15-1.77-.25-.64-.42-1.36-.46-2.43-.05-.92-.07-1.3-.07-3.1v-2.06c0-1.8.02-2.18.06-3.1.05-1.06.22-1.79.46-2.43.26-.66.6-1.22 1.15-1.77.56-.56 1.11-.9 1.77-1.15.64-.25 1.36-.42 2.43-.46.92-.04 1.3-.06 3.1-.06h2.06z"/>
  </symbol>


  <!-- UI icons -->
  <symbol id="chevron-left">
    <path d="M15 6.7a.996.996 0 00-1.41 0L9 11.3a.996.996 0 000 1.41l4.59 4.59A.996.996 0 1015 15.89L11.12 12 15 8.11c.39-.39.38-1.02 0-1.41z"/>
  </symbol>


  <symbol id="check-circle">
    <path d="M8.79 16.31L5.2 12.72a.996.996 0 111.41-1.41l2.89 2.88 6.88-6.88a.996.996 0 111.41 1.41l-7.59 7.59a.996.996 0 01-1.41 0zM11.5 2.02c-5.52 0-10 4.48-10 10s4.48 10 10 10 10-4.48 10-10-4.48-10-10-10z"/>
  </symbol>


  <symbol id="expand-more">
    <path d="M17.29 9c.39.39.39 1.02 0 1.41L12.7 15a.996.996 0 01-1.41 0L6.7 10.41c-.38-.39-.38-1.02 0-1.41s1.02-.39 1.41 0l3.88 3.88L15.88 9c.38-.39 1.02-.38 1.41 0z"/>
  </symbol>


  <symbol id="expand-less">
    <path d="M6.71 15a.996.996 0 010-1.41L11.3 9a.996.996 0 011.41 0l4.59 4.59A.996.996 0 1115.89 15l-3.88-3.88L8.12 15c-.39.39-1.02.38-1.41 0z"/>
  </symbol>


  <symbol id="arrow-back">
    <path d="M20.29 12.02c0 .55-.45 1-1 1H6.12L9 15.91a.996.996 0 11-1.41 1.41L3 12.73a.996.996 0 010-1.41l4.59-4.59A.996.996 0 119 8.14l-2.88 2.88h13.17c.55 0 1 .45 1 1z"/>
  </symbol>


  <symbol id="arrow-forward">
    <path d="M3.71 11.02h13.17L14 8.14a.996.996 0 111.41-1.41L20 11.32c.39.39.39 1.02 0 1.41l-4.59 4.59A.996.996 0 1114 15.91l2.88-2.89H3.71c-.55 0-1-.45-1-1s.45-1 1-1z"/>
  </symbol>


  <symbol id="launch">
    <path d="M14,4c0,0.55,0.45,1,1,1h2.59l-9.13,9.13c-0.39,0.39-0.39,1.02,0,1.41s1.02,0.39,1.41,0L19,6.41V9c0,0.55,0.45,1,1,1s1-0.45,1-1V3h-6C14.45,3,14,3.45,14,4z M18,19H6c-0.55,0-1-0.45-1-1V6c0-0.55,0.45-1,1-1h5c0.55,0,1-0.45,1-1s-0.45-1-1-1H5C3.89,3,3,3.9,3,5v14c0,1.1,0.9,2,2,2h14c1.1,0,2-0.9,2-2v-6c0-0.55-0.45-1-1-1s-1,0.45-1,1v5C19,18.55,18.55,19,18,19z"/>
  </symbol>


</svg>
