<svg xmlns="http://www.w3.org/2000/svg" width="25" height="25"><path fill="#fafafa" d="M12.5.09c6.82 0 12.34 5.7 12.34 12.73 0 5.62-3.53 10.39-8.43 12.07-.63.12-.85-.27-.85-.61 0-.42.02-1.79.02-3.49 0-1.19-.39-1.96-.84-2.36 2.75-.31 5.63-1.39 5.63-6.28 0-1.39-.48-2.52-1.27-3.41.13-.32.55-1.62-.12-3.37 0 0-1.03-.34-3.39 1.3-.99-.28-2.04-.42-3.09-.43-1.05.01-2.11.15-3.09.43-2.36-1.65-3.39-1.3-3.39-1.3-.67 1.75-.25 3.04-.12 3.36-.79.89-1.27 2.03-1.27 3.41 0 4.88 2.88 5.97 5.62 6.29-.35.32-.67.88-.78 1.7-.7.32-2.49.89-3.59-1.06 0 0-.65-1.22-1.89-1.31 0 0-1.21-.02-.08.77 0 0 .81.39 1.37 1.86 0 0 .72 2.47 4.16 1.71.01 1.06.02 1.86.02 2.16 0 .34-.23.73-.84.61C3.72 23.19.18 18.42.18 12.79.16 5.79 5.68.09 12.5.09"/></svg>