<svg xmlns="http://www.w3.org/2000/svg" width="25" height="25"><path fill="#fafafa" d="M20.67 5.84c0 .83-.67 1.5-1.5 1.5s-1.5-.67-1.5-1.5.67-1.5 1.5-1.5c.83.01 1.5.68 1.5 1.5zm-8.17.26c3.54 0 6.42 2.87 6.42 6.4 0 3.54-2.87 6.4-6.42 6.4-3.54 0-6.42-2.87-6.42-6.4 0-3.54 2.88-6.4 6.42-6.4zm0 10.56c2.3 0 4.17-1.86 4.17-4.16S14.8 8.34 12.5 8.34 8.33 10.2 8.33 12.5s1.87 4.16 4.17 4.16zm0-14.38c-3.34 0-3.73.01-5.05.07-1.22.05-1.88.26-2.32.43-.58.23-1 .5-1.44.93-.43.44-.7.85-.93 1.43-.17.44-.37 1.1-.43 2.32-.06 1.32-.07 1.71-.07 5.04s.01 3.72.07 5.04c.06 1.22.26 1.88.43 2.32.23.58.5 1 .93 1.43.44.44.85.71 1.44.93.44.17 1.1.37 2.32.43 1.32.06 1.71.07 5.05.07s3.73-.01 5.05-.07c1.22-.06 1.88-.26 2.32-.43.58-.23 1-.5 1.44-.93.44-.44.71-.85.93-1.43.17-.44.37-1.1.43-2.32.06-1.32.07-1.71.07-5.04s-.01-3.72-.07-5.04c-.06-1.22-.26-1.88-.43-2.32-.23-.58-.5-1-.93-1.43-.44-.44-.86-.71-1.44-.93-.44-.17-1.1-.37-2.32-.43-1.32-.06-1.71-.07-5.05-.07zm0-2.25c3.39 0 3.82.01 5.15.08 1.33.06 2.24.27 3.03.58.83.31 1.52.74 2.22 1.43.69.69 1.12 1.39 1.44 2.21.31.79.52 1.7.58 3.03.06 1.33.08 1.75.08 5.14 0 3.39-.01 3.81-.08 5.14-.06 1.33-.27 2.23-.58 3.03-.32.82-.75 1.52-1.44 2.21s-1.39 1.12-2.21 1.44c-.79.31-1.7.52-3.03.58-1.33.06-1.76.07-5.15.07-3.39 0-3.82-.01-5.15-.07-1.33-.06-2.24-.27-3.03-.58-.84-.32-1.53-.75-2.23-1.44a6.155 6.155 0 0 1-1.44-2.21c-.31-.79-.52-1.7-.58-3.03C.02 16.31 0 15.89 0 12.5s.01-3.81.08-5.14c.06-1.33.27-2.23.58-3.03.32-.82.75-1.51 1.44-2.21C2.8 1.43 3.49 1 4.31.68 5.1.37 6.01.16 7.34.1 8.68.04 9.11.03 12.5.03z"/></svg>