<svg xmlns="http://www.w3.org/2000/svg" width="25" height="25" viewBox="0 0 25 25">
<path fill="#fafafa" d="M12.5,0.09c6.82,0,12.34,5.7,12.34,12.73c0,5.62-3.53,10.39-8.43,12.07c-0.63,0.12-0.85-0.27-0.85-0.61
c0-0.42,0.02-1.79,0.02-3.49c0-1.19-0.39-1.96-0.84-2.36c2.75-0.31,5.63-1.39,5.63-6.28c0-1.39-0.48-2.52-1.27-3.41
c0.13-0.32,0.55-1.62-0.12-3.37c0,0-1.03-0.34-3.39,1.3c-0.99-0.28-2.04-0.42-3.09-0.43c-1.05,0.01-2.11,0.15-3.09,0.43
c-2.36-1.65-3.39-1.3-3.39-1.3C5.35,7.12,5.77,8.41,5.9,8.73c-0.79,0.89-1.27,2.03-1.27,3.41c0,4.88,2.88,5.97,5.62,6.29
c-0.35,0.32-0.67,0.88-0.78,1.7c-0.7,0.32-2.49,0.89-3.59-1.06c0,0-0.65-1.22-1.89-1.31c0,0-1.21-0.02-0.08,0.77
c0,0,0.81,0.39,1.37,1.86c0,0,0.72,2.47,4.16,1.71c0.01,1.06,0.02,1.86,0.02,2.16c0,0.34-0.23,0.73-0.84,0.61
c-4.9-1.68-8.44-6.45-8.44-12.08C0.16,5.79,5.68,0.09,12.5,0.09"/>
</svg>
