<svg xmlns="http://www.w3.org/2000/svg" width="25" height="25" viewBox="0 0 25 25">
<path fill="#fafafa" d="M20.67,5.84c0,0.83-0.67,1.5-1.5,1.5c-0.83,0-1.5-0.67-1.5-1.5c0-0.83,0.67-1.5,1.5-1.5
C20,4.35,20.67,5.02,20.67,5.84z M12.5,6.1c3.54,0,6.42,2.87,6.42,6.4c0,3.54-2.87,6.4-6.42,6.4c-3.54,0-6.42-2.87-6.42-6.4
C6.08,8.96,8.96,6.1,12.5,6.1z M12.5,16.66c2.3,0,4.17-1.86,4.17-4.16S14.8,8.34,12.5,8.34c-2.3,0-4.17,1.86-4.17,4.16
S10.2,16.66,12.5,16.66z M12.5,2.28c-3.34,0-3.73,0.01-5.05,0.07C6.23,2.4,5.57,2.61,5.13,2.78c-0.58,0.23-1,0.5-1.44,0.93
C3.26,4.15,2.99,4.56,2.76,5.14c-0.17,0.44-0.37,1.1-0.43,2.32C2.27,8.78,2.26,9.17,2.26,12.5c0,3.33,0.01,3.72,0.07,5.04
c0.06,1.22,0.26,1.88,0.43,2.32c0.23,0.58,0.5,1,0.93,1.43c0.44,0.44,0.85,0.71,1.44,0.93c0.44,0.17,1.1,0.37,2.32,0.43
c1.32,0.06,1.71,0.07,5.05,0.07c3.34,0,3.73-0.01,5.05-0.07c1.22-0.06,1.88-0.26,2.32-0.43c0.58-0.23,1-0.5,1.44-0.93
c0.44-0.44,0.71-0.85,0.93-1.43c0.17-0.44,0.37-1.1,0.43-2.32c0.06-1.32,0.07-1.71,0.07-5.04c0-3.33-0.01-3.72-0.07-5.04
c-0.06-1.22-0.26-1.88-0.43-2.32c-0.23-0.58-0.5-1-0.93-1.43C20.87,3.27,20.45,3,19.87,2.78c-0.44-0.17-1.1-0.37-2.32-0.43
C16.23,2.29,15.84,2.28,12.5,2.28z M12.5,0.03c3.39,0,3.82,0.01,5.15,0.08c1.33,0.06,2.24,0.27,3.03,0.58
C21.51,1,22.2,1.43,22.9,2.12c0.69,0.69,1.12,1.39,1.44,2.21c0.31,0.79,0.52,1.7,0.58,3.03C24.98,8.69,25,9.11,25,12.5
c0,3.39-0.01,3.81-0.08,5.14c-0.06,1.33-0.27,2.23-0.58,3.03c-0.32,0.82-0.75,1.52-1.44,2.21c-0.69,0.69-1.39,1.12-2.21,1.44
c-0.79,0.31-1.7,0.52-3.03,0.58c-1.33,0.06-1.76,0.07-5.15,0.07c-3.39,0-3.82-0.01-5.15-0.07c-1.33-0.06-2.24-0.27-3.03-0.58
C3.49,24,2.8,23.57,2.1,22.88c-0.69-0.69-1.12-1.39-1.44-2.21c-0.31-0.79-0.52-1.7-0.58-3.03C0.02,16.31,0,15.89,0,12.5
s0.01-3.81,0.08-5.14c0.06-1.33,0.27-2.23,0.58-3.03C0.98,3.51,1.41,2.82,2.1,2.12C2.8,1.43,3.49,1,4.31,0.68
c0.79-0.31,1.7-0.52,3.03-0.58C8.68,0.04,9.11,0.03,12.5,0.03z"/>
</svg>