<svg xmlns="http://www.w3.org/2000/svg" width="25" height="25" viewBox="0 0 25 25">
<path fill="#fafafa" d="M23.15,0H1.85C0.83,0,0,0.81,0,1.8V23.2c0,1,0.83,1.8,1.85,1.8h21.3c1.02,0,1.85-0.81,1.85-1.8V1.8
C25,0.81,24.17,0,23.15,0z M7.41,21.3H3.71V9.37h3.71V21.3z M5.56,7.74c-1.19,0-2.15-0.96-2.15-2.15c0-1.19,0.96-2.15,2.15-2.15
c1.19,0,2.15,0.96,2.15,2.15C7.71,6.78,6.75,7.74,5.56,7.74z M21.3,21.3H17.6v-5.8c0-1.38-0.03-3.16-1.93-3.16
c-1.93,0-2.23,1.51-2.23,3.06v5.9H9.74V9.37h3.56V11h0.05c0.49-0.94,1.7-1.93,3.51-1.93c3.75,0,4.45,2.47,4.45,5.68V21.3z"/>
</svg>
