<svg xmlns="http://www.w3.org/2000/svg" width="25" height="25" viewBox="0 0 25 25">
<path fill="#fafafa" d="M12.51,0C19.42,0,25.02,5.59,25,12.51C25,19.41,19.4,25,12.49,25c-1.3,0-2.53-0.2-3.71-0.56
c0.51-0.83,1.28-2.19,1.55-3.28c0.15-0.59,0.78-2.97,0.78-2.97c0.4,0.78,1.6,1.44,2.86,1.44c3.77,0,6.49-3.46,6.49-7.77
c0-4.13-3.38-7.22-7.71-7.22c-5.41,0-8.27,3.62-8.27,7.56c0,1.84,0.98,4.11,2.54,4.84c0.24,0.11,0.37,0.06,0.42-0.16
c0.04-0.17,0.26-1.03,0.35-1.42c0.03-0.12,0.02-0.24-0.08-0.36c-0.51-0.63-0.93-1.78-0.93-2.85c0-2.75,2.09-5.42,5.65-5.42
c3.08,0,5.23,2.09,5.23,5.08c0,3.37-1.71,5.72-3.93,5.72c-1.23,0-2.15-1.02-1.85-2.26c0.36-1.49,1.04-3.09,1.04-4.16
c0-0.96-0.51-1.76-1.59-1.76c-1.26,0-2.27,1.3-2.27,3.03c0,1.1,0.37,1.85,0.37,1.85s-1.24,5.23-1.46,6.21
c-0.25,1.08-0.15,2.6-0.04,3.59C3.29,22.31,0,17.78,0,12.49C0,5.59,5.6,0,12.51,0"/>
</svg>
