<svg height="25" viewBox="0 0 25 25" width="25" xmlns="http://www.w3.org/2000/svg"><path d="m12.51 0c6.91 0 12.51 5.59 12.49 12.51 0 6.9-5.6 12.49-12.51 12.49-1.3 0-2.53-.2-3.71-.56.51-.83 1.28-2.19 1.55-3.28.15-.59.78-2.97.78-2.97.4.78 1.6 1.44 2.86 1.44 3.77 0 6.49-3.46 6.49-7.77 0-4.13-3.38-7.22-7.71-7.22-5.41 0-8.27 3.62-8.27 7.56 0 1.84.98 4.11 2.54 4.84.24.11.37.06.42-.16.04-.17.26-1.03.35-1.42.03-.12.02-.24-.08-.36-.51-.63-.93-1.78-.93-2.85 0-2.75 2.09-5.42 5.65-5.42 3.08 0 5.23 2.09 5.23 5.08 0 3.37-1.71 5.72-3.93 5.72-1.23 0-2.15-1.02-1.85-2.26.36-1.49 1.04-3.09 1.04-4.16 0-.96-.51-1.76-1.59-1.76-1.26 0-2.27 1.3-2.27 3.03 0 1.1.37 1.85.37 1.85s-1.24 5.23-1.46 6.21c-.25 1.08-.15 2.6-.04 3.59-4.64-1.82-7.93-6.35-7.93-11.64 0-6.9 5.6-12.49 12.51-12.49" fill="#fafafa"/></svg>