<svg xmlns="http://www.w3.org/2000/svg" width="25" height="25" viewBox="0 0 25 25">
<path fill="#fafafa" d="M7.86,22.83c9.43,0,14.59-7.98,14.59-14.9c0-0.23,0-0.45-0.01-0.68c1-0.74,1.87-1.66,2.56-2.71
c-0.92,0.42-1.91,0.7-2.95,0.82c1.06-0.65,1.87-1.67,2.26-2.9c-0.99,0.6-2.09,1.04-3.26,1.27c-0.94-1.02-2.27-1.65-3.74-1.65
c-2.83,0-5.13,2.35-5.13,5.24c0,0.41,0.05,0.81,0.13,1.19C8.05,8.3,4.27,6.21,1.74,3.04C1.3,3.82,1.05,4.72,1.05,5.68
c0,1.82,0.91,3.42,2.28,4.36C2.49,10.01,1.7,9.77,1,9.38C1,9.4,1,9.42,1,9.45c0,2.54,1.77,4.66,4.11,5.14
c-0.43,0.12-0.88,0.18-1.35,0.18c-0.33,0-0.65-0.03-0.96-0.09c0.65,2.08,2.55,3.6,4.79,3.64c-1.76,1.41-3.97,2.24-6.37,2.24
c-0.41,0-0.82-0.02-1.22-0.07C2.27,21.97,4.97,22.83,7.86,22.83"/>
</svg>