<svg height="25" viewBox="0 0 25 25" width="25" xmlns="http://www.w3.org/2000/svg"><path d="m7.86 22.83c9.43 0 14.59-7.98 14.59-14.9 0-.23 0-.45-.01-.68 1-.74 1.87-1.66 2.56-2.71-.92.42-1.91.7-2.95.82 1.06-.65 1.87-1.67 2.26-2.9-.99.6-2.09 1.04-3.26 1.27-.94-1.02-2.27-1.65-3.74-1.65-2.83 0-5.13 2.35-5.13 5.24 0 .41.05.81.13 1.19-4.26-.21-8.04-2.3-10.57-5.47-.44.78-.69 1.68-.69 2.64 0 1.82.91 3.42 2.28 4.36-.84-.03-1.63-.27-2.33-.66v.07c0 2.54 1.77 4.66 4.11 5.14-.43.12-.88.18-1.35.18-.33 0-.65-.03-.96-.09.65 2.08 2.55 3.6 4.79 3.64-1.76 1.41-3.97 2.24-6.37 2.24-.41 0-.82-.02-1.22-.07 2.27 1.48 4.97 2.34 7.86 2.34" fill="#fafafa"/></svg>