<svg width="59" height="40" viewBox="0 0 59 40" xmlns="http://www.w3.org/2000/svg">
  <path d="m30.93 10.05c-1.27 0-2.43.72-3.48 2.1-1.49 1.93-2.54 4.64-3.15 8.07l-.11.44.44-.06c2.76-.5 4.75-1.33 6.03-2.43 1.71-1.55 2.6-3.37 2.6-5.31 0-.88-.22-1.55-.66-2.05-.45-.48-1-.76-1.67-.76zm1.83-1.49c1.93 0 3.48.44 4.53 1.33 1.05.88 1.55 1.99 1.55 3.32 0 1.11-.44 2.21-1.27 3.37-.88 1.11-2.32 2.16-4.26 2.98-1.99.83-5.09 1.66-9.12 2.32l-.22.06-.11 1.66c0 1.66.44 2.98 1.33 3.87.88.94 2.05 1.38 3.48 1.38 1.22 0 2.38-.28 3.54-.83 1.11-.55 2.43-1.55 3.98-3.04.22.17.77.55.99.94-1.71 1.77-3.43 3.04-5.09 3.81-1.71.77-3.59 1.16-5.58 1.16-2.82 0-5.03-.72-6.63-2.27-1.55-1.55-2.38-3.65-2.38-6.25 0-2.38.72-4.64 2.05-6.8 1.38-2.16 3.26-3.87 5.58-5.14 2.38-1.26 4.92-1.87 7.63-1.87zm-4.98-7.96c14.76-2.38 27.75 2.49 30.13 11.77 1.49 5.97-1.66 12.38-7.79 17.58l4.7 2.76-17.58 4.53c.17-.06.39-.17.61-.28l-.22.1c-.07.03-.15.06-.22.08l-.22.1c9.4-4.31 14.87-13.76 12.55-22.77-2.33-9.01-11.62-14.65-21.96-13.87zm-6.68 2.15c-9.4 4.32-14.87 13.77-12.55 22.78s11.61 14.65 21.94 13.87c-14.76 2.38-27.75-2.49-30.12-11.77-1.49-5.97 1.66-12.38 7.79-17.58l-4.7-2.76 17.58-4.53c-.17.06-.39.17-.61.28l.22-.09c.07-.03.15-.06.22-.08z" fill="currentColor"></path>
</svg>