<svg width="142" height="40" viewBox="0 0 142 40" xmlns="http://www.w3.org/2000/svg">
  <path d="m56.02 10.04c.88.18 1.51.96 1.51 1.86.01.51-.19.99-.55 1.34-.63.64-1.62.74-2.36.24s-1.03-1.47-.69-2.31c.34-.83 1.21-1.31 2.09-1.13zm78.6 8.78c-.93-.02-1.84.32-2.54.93-.74.66-1.26 1.53-1.48 2.51l8.16-.02c-.06-.82-.43-1.6-1.11-2.33-.68-.75-1.69-1.11-3.03-1.09zm-58.88 0c-.93-.02-1.84.32-2.54.93-.74.66-1.26 1.53-1.48 2.51l8.17-.02c-.06-.82-.43-1.6-1.11-2.33-.68-.75-1.69-1.11-3.04-1.09zm-69.15-18.34 4.24 7.95-9.87 17.69 3.94-25.35c.06-.39.36-.69.74-.76.38-.06.77.13.95.47zm100.48 23.55c-1.28 0-2.25.28-2.9.85-.61.47-.97 1.2-.98 1.98-.01.68.33 1.31.9 1.66.6.41 1.3.62 2.02.61v-.01c1.11 0 2.18-.44 2.98-1.23.85-.73 1.34-1.8 1.35-2.93-.75-.61-1.87-.93-3.37-.93zm-15.25-5.23c-1.2 0-2.35.51-3.17 1.4-.87.93-1.31 2.19-1.31 3.76s.44 2.83 1.32 3.77c.81.91 1.96 1.42 3.17 1.4l-.01-.01c1.2.01 2.36-.51 3.16-1.42.88-.94 1.32-2.19 1.32-3.75s-.44-2.81-1.32-3.75c-.81-.88-1.96-1.4-3.16-1.4zm-77.35-13.18c.34 0 .64.19.8.49l3.03 5.8-17.94 18.06 13.31-23.86c.16-.3.47-.49.8-.49zm54.38 11.21-1.01 2.51c-.45-.15-.93-.22-1.41-.21-.97.01-1.89.42-2.54 1.15-.74.77-1.11 1.78-1.11 3.02v7.82h-2.64v-14.29h2.53v2.33h.11c.31-.82.89-1.51 1.65-1.93.73-.47 1.57-.74 2.43-.76.68-.01 1.36.11 1.99.36zm-11.87 0v14.29h-2.64v-14.29zm-4.97-6.59v2.57h-9.37v6.86h8.45v2.51h-8.45v8.96h-2.64v-20.9zm82.67 6.12c2.1 0 3.77.69 5.01 2.07 1.25 1.38 1.88 3.23 1.88 5.54l-.03.5h-11.13c.08 1.44.55 2.58 1.42 3.42.82.81 1.92 1.26 3.07 1.25 1.9 0 3.18-.82 3.85-2.45l2.36.99c-.48 1.13-1.27 2.1-2.27 2.78-1.05.74-2.35 1.11-3.88 1.11-2.13 0-3.86-.72-5.19-2.16s-2-3.26-2-5.46c-.04-1.97.65-3.89 1.94-5.37 1.25-1.45 3.07-2.27 4.97-2.22zm-14.05 0c1.17-.02 2.32.28 3.33.86.96.55 1.7 1.42 2.1 2.47l-2.3.95c-.52-1.26-1.59-1.9-3.22-1.9-.69-.02-1.38.15-1.98.5-.49.26-.8.78-.8 1.34 0 .82.62 1.37 1.87 1.66l2.79.67c1.32.3 2.3.84 2.93 1.6.61.71.95 1.62.95 2.57.01 1.26-.56 2.45-1.55 3.21-1.03.86-2.37 1.29-3.99 1.29-1.57 0-2.87-.39-3.89-1.17-1-.75-1.77-1.76-2.24-2.92l2.36-.99c.75 1.79 2.02 2.68 3.82 2.68.71.03 1.42-.16 2.02-.55.5-.31.8-.87.79-1.46 0-.93-.64-1.56-1.93-1.9l-2.84-.7c-.94-.25-1.81-.7-2.56-1.33-.8-.63-1.25-1.61-1.21-2.64 0-1.26.55-2.29 1.65-3.08 1.13-.79 2.5-1.2 3.9-1.16zm-13.94-.01c1.8 0 3.29.53 4.49 1.6 1.2 1.06 1.79 2.57 1.78 4.52v8.65h-2.54v-1.98h-.11c-1.06 1.63-2.6 2.44-4.63 2.44-1.5 0-2.75-.44-3.75-1.31-1-.88-1.51-2.03-1.51-3.47 0-1.56.59-2.78 1.78-3.66s2.65-1.33 4.4-1.33c1.55 0 2.82.29 3.82.88v-.41c.04-.96-.35-1.89-1.06-2.52-.72-.63-1.66-.97-2.61-.94-.73-.01-1.45.18-2.08.55-.59.33-1.05.87-1.28 1.52l-2.41-1.05c.33-.86.97-1.65 1.93-2.39.94-.74 2.21-1.1 3.78-1.1zm-19.22-6.11v6.59l-.11 1.98h.11c.47-.75 1.13-1.35 1.91-1.75.89-.47 1.88-.71 2.88-.7 1.82 0 3.39.73 4.71 2.19s1.98 3.27 1.98 5.43-.66 3.97-1.98 5.43-2.89 2.18-4.71 2.18c-1 .02-1.99-.21-2.88-.68-.78-.4-1.44-1-1.91-1.75h-.11v1.98h-2.53v-20.9zm-11.66 6.12c2.09 0 3.76.69 5.01 2.07 1.26 1.38 1.88 3.23 1.88 5.54l-.03.5h-11.12c.08 1.44.55 2.58 1.42 3.42.82.81 1.92 1.26 3.06 1.25 1.9 0 3.18-.82 3.85-2.45l2.36.99c-.48 1.13-1.27 2.1-2.27 2.78-1.06.74-2.35 1.11-3.88 1.11-2.13 0-3.86-.72-5.19-2.16s-2-3.25-2-5.44c-.04-1.97.65-3.89 1.94-5.37 1.24-1.46 3.06-2.29 4.97-2.24zm-52.15-7.91c.24-.24.59-.33.91-.22.32.1.56.38.62.71l3.75 23.33-13.21 7.38c-.82.46-1.82.46-2.65 0l-13.08-7.38z" fill="currentColor"></path>
</svg>