<svg xmlns="http://www.w3.org/2000/svg" width="154px" height="32px" viewBox="0 0 154 32">
	<path d="M18.9,0c0.2,0,0.5,0.1,0.7,0.2c0.2,0.1,0.4,0.3,0.5,0.5l0,0l7,12.2c0,0,0,0.1,0,0.1c0,0,0,0.1,0,0.1c0,0,0,0.1-0.1,0.1c0,0-0.1,0-0.1,0c-7.1,0-15.6,5.8-25.3,17.3c9.5-6.3,16.6-9.8,21.7-10.5c4.3-0.6,7.5,0.3,9.6,2.7c1.9,2.2,2.1,6.4-0.3,8.8c0,0-0.1,0-0.1,0c0,0-0.1,0-0.1,0c0,0,0,0,0,0c-0.8-0.6-5.4-3.4-12.9-3.4C14.3,28.1,6,29.8,0.2,32c0,0-0.1,0-0.1,0c0,0,0,0-0.1,0c0,0,0,0,0,0c0,0,0-0.1,0-0.1c0,0,0-0.1,0-0.1l0,0L2.8,27c1.6-2.8,3.8-6.7,6-10.5l0.4-0.7c4.2-7.4,8.3-14.7,8.6-15.1c0.1-0.2,0.3-0.4,0.5-0.5C18.4,0.1,18.7,0,18.9,0z M91.4,18.1c4,0,6.5,3.3,6.5,6.9v0c0,0.3,0,0.6-0.1,0.8H86.3c0.4,2.7,2.4,4.3,5.2,4.3c2.1,0,3.5-1,4.2-2.2l1.5,0.9c-1.1,1.8-3.1,3-5.8,3c-4.2,0-7-2.9-7-6.9C84.5,21.1,87.3,18.1,91.4,18.1z M141.5,18c1.1,0,2.1,0.2,3,0.7c0.9,0.5,1.7,1.2,2.3,2.2v-2.6l1.7,0v13.2h-1.7v-2.6c-0.6,0.9-1.3,1.6-2.3,2.2c-0.9,0.5-2,0.8-3,0.7c-1.8,0-3.6-0.7-4.9-2c-1.3-1.3-2-3-2-4.9c0-1.8,0.7-3.6,2-4.9S139.7,18,141.5,18z M72.4,13.1l1.7,0v18.4h-1.7v-2.6c-0.6,0.9-1.3,1.6-2.3,2.2c-0.9,0.5-2,0.8-3,0.7c-1.8,0-3.6-0.7-4.9-2c-1.3-1.3-2-3-2-4.9c0-1.8,0.7-3.6,2-4.9c1.3-1.3,3-2,4.9-2c1.1,0,2.1,0.2,3,0.7c0.9,0.5,1.7,1.2,2.3,2.2V13.1z M52.2,13.1l7.1,18.4h-1.9L55.6,27h-8.7l-1.7,4.5h-2l7.1-18.4H52.2z M106.9,18c3.2,0,5.2,2.1,5.2,5.4v8.1h-1.7v-8.1c0-2.3-1.3-3.7-3.6-3.7c-2.3,0-4.3,1.4-4.3,4.9v6.9h-1.7V18.4h1.7v2C103.5,18.8,105,18,106.9,18z M121.6,18c3.2,0,5.2,2.1,5.2,5.4v8.1H125v-8.1c0-2.3-1.3-3.7-3.6-3.7c-2.3,0-4.3,1.4-4.3,4.9v6.9h-1.7V18.4h1.7v2C118.2,18.8,119.7,18,121.6,18z M154,12.3v19.2h-1.7V12.3H154z M131.9,18.4v13.2h-1.8V18.4H131.9z M83.8,18.1v1.7c-2.1,0-4.2,1.1-4.2,4.4v7.3h-1.7V18.4h1.7v2.2C80.5,18.7,82.1,18.1,83.8,18.1z M66.2,19.9c-1,0.2-1.9,0.7-2.6,1.4C62.9,22,62.4,23,62.2,24c-0.2,1-0.1,2,0.3,3c0.4,0.9,1.1,1.8,1.9,2.3c0.9,0.6,1.9,0.9,2.9,0.9c0.7,0,1.4-0.1,2-0.4c0.6-0.3,1.2-0.6,1.7-1.1c0.5-0.5,0.9-1.1,1.1-1.7c0.3-0.6,0.4-1.3,0.4-2c0-1-0.3-2-0.9-2.9c-0.6-0.8-1.4-1.5-2.3-1.9C68.3,19.8,67.2,19.7,66.2,19.9z M140.6,19.9c-1,0.2-1.9,0.7-2.6,1.4c-0.7,0.7-1.2,1.7-1.4,2.7c-0.2,1-0.1,2,0.3,3c0.4,0.9,1.1,1.8,1.9,2.3c0.9,0.6,1.9,0.9,2.9,0.9c0.7,0,1.4-0.1,2-0.4c0.6-0.3,1.2-0.6,1.7-1.1c0.5-0.5,0.9-1.1,1.1-1.7c0.3-0.6,0.4-1.3,0.4-2c0-1-0.3-2-0.9-2.9c-0.6-0.8-1.4-1.5-2.3-1.9C142.7,19.8,141.6,19.7,140.6,19.9z M51.3,15.4l-3.7,9.9H55L51.3,15.4z M91.4,19.7c-2.8,0-4.7,1.8-5.1,4.4h9.8C95.8,21.2,93.7,19.7,91.4,19.7z M131.2,13.1c0.2,0,0.5,0.2,0.6,0.3c0.2,0.2,0.3,0.4,0.3,0.6s0,0.5-0.1,0.7c-0.1,0.2-0.3,0.4-0.5,0.6c-0.2,0.1-0.5,0.2-0.7,0.2c-0.3,0-0.7-0.1-0.9-0.4c-0.2-0.2-0.4-0.6-0.4-0.9h0c0-0.3,0.1-0.5,0.2-0.7c0.1-0.2,0.3-0.4,0.6-0.5C130.7,13,131,13,131.2,13.1z" fill="currentColor"></path>
</svg>