<svg xmlns="http://www.w3.org/2000/svg" width="67px" height="32px" viewBox="0 0 67 32"><path d="m32.63 28.38c.04-.86.28-1.72.72-2.57l.04-.1c-.24 0-.57-.04-1.1-.04-.57 0-.95 0-1.19.04-.28 0-.48.05-.62.05-.28 0-.52-.14-.76-.38 0-.05-.05-.05-.1-.1l-.24-.34-7.48-10-.28-.38c-.1-.14-.24-.19-.34-.19-.19 0-.24.14-.24.43v6.62c0 1.38.14 2.28.43 2.76.29.43.96.76 2.01 1 .19.05.33.14.38.24 0 .04 0 .1.04.14 0 .24-.1.38-.34.34-.14 0-.38-.05-.76-.1-.28-.04-3.96-.19-4.34-.24h-1.76c-1.28 0-2.1.05-2.43.1-.19.04-.34.1-.43.1-.24 0-.33-.14-.38-.38 0-.19.1-.34.34-.38l.43-.15c.48-.09.72-.52.72-1.24 0-.66-.28-1.9-.86-3.81l-.72-2.38c-.19-.67-.33-1.05-.47-1.14-.1-.1-.43-.15-.96-.15h-5.04c-.66 0-1.1.05-1.28.24-.14.15-.38.63-.66 1.44l-.91 2.66c-.43 1.19-.62 2.1-.62 2.72 0 .57.1 1 .34 1.24s.66.48 1.28.66c.24.05.38.19.43.38v.05c0 .19-.14.28-.38.28h-.48l-1.34-.1c-.43 0-.95-.04-1.52-.04-.28 0-.48 0-.62.04-.48.1-.72.1-.76.1-.24 0-.38-.1-.38-.34v-.04c0-.19.1-.34.24-.38l.52-.19c.19-.04.43-.38.76-.85.34-.53.57-1.05.76-1.62l.43-1.19 2.52-7.29 4.63-13.33c.1-.38.24-.52.38-.52s.28.19.38.52l4 13.33 1.96 6.57.34 1c.43 1.48.81 2.38 1.1 2.72.09.1.23.24.38.34.04-.1.14-.24.19-.38.24-.62.34-1.72.34-3.24v-15.49c0-1.28-.1-2.19-.34-2.72-.24-.52-.62-.86-1.24-1l-.66-.19c-.24-.05-.38-.19-.38-.38 0-.24.14-.38.38-.38.14 0 .28 0 .52.04.48.1 1.19.1 2.24.1h.52l1.05-.05h.71c.38-.04.62-.09.67-.09.24 0 .33.09.33.33 0 .14-.09.29-.33.43-.57.33-.96.72-1.1 1.14-.14.43-.24 1.24-.24 2.48v7.1c0 .24.04.38.14.38l.24-.19.19-.23 5.96-6.95c.9-1.05 1.38-1.91 1.38-2.57 0-.57-.34-.9-1-1.04-.43-.1-.62-.24-.62-.43 0-.24.14-.38.43-.38.1 0 .24 0 .38.04.38.05.81.05 1.34.05l1.28.04h1.05c.57 0 .95 0 1.14-.04.24-.05.33-.1.43-.1.24 0 .38.1.43.34 0 .19-.24.33-.67.48-.86.28-2.43 1.81-4.81 4.57l-4.77 5.63c-.19.23-.28.43-.33.57 0 .19.09.43.33.76l.57.81 6.68 9.03c.76 1.04 1.62 1.71 2.52 1.95l.48.14c.33-.47.66-.81 1.04-1-2.66-2.66-4-6.04-4.1-10.14v-.48c0-3.43.76-6.33 2.29-8.71 1.81-2.86 4.33-4.29 7.57-4.29 2.91 0 5.25 1.19 7.05 3.57 1.81 2.38 2.72 5.48 2.72 9.24v.67c-.04 2.19-.48 4.19-1.24 6-.86 2-2 3.57-3.48 4.67-.48.33-.96.62-1.52.85-.57.24-1.14.48-1.81.62.96.62 1.57 1.1 1.96 1.39l1.28 1.09.19.19.86.72c.81.66 1.48 1 2 1 .76 0 1.48-.19 2.05-.62.19-.1.29-.19.38-.19.14 0 .24.1.24.24 0 .43-.43.9-1.33 1.38-.91.47-1.77.71-2.58.71-1.1 0-2.43-.57-3.96-1.72-1-.76-1.72-1.28-2.1-1.57-.14-.09-.24-.19-.28-.23l-2.34-1.62c-1.38-.95-2.38-1.43-3.05-1.43-.57 0-1.1.28-1.57.9-.48.57-.76 1.34-.86 2.15 0 .09 0 .14-.04.23-.05.29-.19.43-.29.43-.19 0-.28-.1-.33-.28.01-.15.05-.34.05-.48zm-20.43-15.14-2.2-7.14-.1-.39c-.08-.38-.23-.57-.38-.57-.04 0-.14.1-.24.34l-2.71 7.8c-.1.29-.15.48-.19.62v.05c0 .33.24.48.62.48h.38 4.19c.48 0 .72-.15.72-.43.05-.29-.05-.53-.09-.76zm20.81.61c.28 3.48 1.34 6.29 3.14 8.38 1.62 1.91 3.43 2.86 5.39 2.86 2.05 0 3.72-.95 4.96-2.81s1.9-4.33 1.9-7.33v-1.1c-.14-3.28-1-6.1-2.48-8.43-1.66-2.62-3.72-3.95-6.1-3.95-2.05 0-3.67.95-4.96 2.86-1.24 1.91-1.9 4.39-1.9 7.48-.04.14.01 1.76.05 2.04zm18.82 0 4.63-13.33c.09-.38.24-.52.38-.52s.28.19.38.52l4 13.33 1.96 6.57.33 1c.43 1.48.81 2.38 1.1 2.72.28.33.86.62 1.76.86.29.09.43.24.43.43s-.14.28-.38.28c-.1 0-.24 0-.53-.04-.47-.04-1.33-.1-2.57-.1-1.29 0-2.1.05-2.43.1-.19.04-.33.1-.43.1-.24 0-.34-.14-.34-.38 0-.19.1-.34.34-.38l.43-.15c.48-.09.72-.52.72-1.24 0-.66-.28-1.9-.86-3.81l-.72-2.38c-.19-.67-.33-1.05-.47-1.14-.1-.1-.43-.15-.96-.15h-5.05c-.66 0-1.1.05-1.28.24-.14.14-.38.62-.66 1.43l-.91 2.66c-.43 1.19-.62 2.1-.62 2.72 0 .57.1 1 .34 1.24s.66.48 1.28.66c.24.05.38.19.43.38v.05c0 .19-.1.28-.38.28h-.48l-1.34-.1c-.43 0-.96-.04-1.52-.04-.28 0-.48 0-.62.04-.48.1-.72.1-.76.1-.24 0-.38-.1-.38-.34v-.04c0-.19.09-.34.24-.38l.52-.19c.19-.04.43-.38.76-.85.34-.53.57-1.05.76-1.62l.43-1.19zm6.91-.61-2.19-7.14-.09-.39c-.1-.38-.24-.57-.34-.57-.04 0-.14.1-.24.34l-2.72 7.8c-.1.29-.14.48-.19.62v.05c0 .33.24.48.62.48h.38 4.19c.48 0 .72-.15.72-.43 0-.29-.09-.53-.14-.76z" fill="currentColor"></path></svg>