<svg xmlns="http://www.w3.org/2000/svg" width="67" height="32" viewBox="0 0 67 32">
<path d="M32.63,28.38c0.04-0.86,0.28-1.72,0.72-2.57l0.04-0.1c-0.24,0-0.57-0.04-1.1-0.04c-0.57,0-0.95,0-1.19,0.04
	c-0.28,0-0.48,0.05-0.62,0.05c-0.28,0-0.52-0.14-0.76-0.38c0-0.05-0.05-0.05-0.1-0.1l-0.24-0.34l-7.48-10l-0.28-0.38
	c-0.1-0.14-0.24-0.19-0.34-0.19c-0.19,0-0.24,0.14-0.24,0.43v6.62c0,1.38,0.14,2.28,0.43,2.76c0.29,0.43,0.96,0.76,2.01,1
	c0.19,0.05,0.33,0.14,0.38,0.24c0,0.04,0,0.1,0.04,0.14c0,0.24-0.1,0.38-0.34,0.34c-0.14,0-0.38-0.05-0.76-0.1
	c-0.28-0.04-3.96-0.19-4.34-0.24h-1.76c-1.28,0-2.1,0.05-2.43,0.1c-0.19,0.04-0.34,0.1-0.43,0.1c-0.24,0-0.33-0.14-0.38-0.38
	c0-0.19,0.1-0.34,0.34-0.38l0.43-0.15c0.48-0.09,0.72-0.52,0.72-1.24c0-0.66-0.28-1.9-0.86-3.81l-0.72-2.38
	c-0.19-0.67-0.33-1.05-0.47-1.14c-0.1-0.1-0.43-0.15-0.96-0.15H6.9c-0.66,0-1.1,0.05-1.28,0.24C5.48,16.52,5.24,17,4.96,17.81
	l-0.91,2.66c-0.43,1.19-0.62,2.1-0.62,2.72c0,0.57,0.1,1,0.34,1.24s0.66,0.48,1.28,0.66c0.24,0.05,0.38,0.19,0.43,0.38v0.05
	c0,0.19-0.14,0.28-0.38,0.28H4.62l-1.34-0.1c-0.43,0-0.95-0.04-1.52-0.04c-0.28,0-0.48,0-0.62,0.04c-0.48,0.1-0.72,0.1-0.76,0.1
	c-0.24,0-0.38-0.1-0.38-0.34v-0.04c0-0.19,0.1-0.34,0.24-0.38l0.52-0.19c0.19-0.04,0.43-0.38,0.76-0.85
	c0.34-0.53,0.57-1.05,0.76-1.62l0.43-1.19l2.52-7.29L9.86,0.57c0.1-0.38,0.24-0.52,0.38-0.52c0.14,0,0.28,0.19,0.38,0.52l4,13.33
	l1.96,6.57l0.34,1c0.43,1.48,0.81,2.38,1.1,2.72c0.09,0.1,0.23,0.24,0.38,0.34c0.04-0.1,0.14-0.24,0.19-0.38
	c0.24-0.62,0.34-1.72,0.34-3.24V5.42c0-1.28-0.1-2.19-0.34-2.72c-0.24-0.52-0.62-0.86-1.24-1l-0.66-0.19
	c-0.24-0.05-0.38-0.19-0.38-0.38c0-0.24,0.14-0.38,0.38-0.38c0.14,0,0.28,0,0.52,0.04c0.48,0.1,1.19,0.1,2.24,0.1h0.52l1.05-0.05
	h0.71c0.38-0.04,0.62-0.09,0.67-0.09c0.24,0,0.33,0.09,0.33,0.33c0,0.14-0.09,0.29-0.33,0.43c-0.57,0.33-0.96,0.72-1.1,1.14
	c-0.14,0.43-0.24,1.24-0.24,2.48v7.1c0,0.24,0.04,0.38,0.14,0.38l0.24-0.19l0.19-0.23l5.96-6.95c0.9-1.05,1.38-1.91,1.38-2.57
	c0-0.57-0.34-0.9-1-1.04c-0.43-0.1-0.62-0.24-0.62-0.43c0-0.24,0.14-0.38,0.43-0.38c0.1,0,0.24,0,0.38,0.04
	c0.38,0.05,0.81,0.05,1.34,0.05l1.28,0.04h1.05c0.57,0,0.95,0,1.14-0.04c0.24-0.05,0.33-0.1,0.43-0.1c0.24,0,0.38,0.1,0.43,0.34
	c0,0.19-0.24,0.33-0.67,0.48c-0.86,0.28-2.43,1.81-4.81,4.57l-4.77,5.63c-0.19,0.23-0.28,0.43-0.33,0.57c0,0.19,0.09,0.43,0.33,0.76
	l0.57,0.81L30.83,23c0.76,1.04,1.62,1.71,2.52,1.95l0.48,0.14c0.33-0.47,0.66-0.81,1.04-1c-2.66-2.66-4-6.04-4.1-10.14v-0.48
	c0-3.43,0.76-6.33,2.29-8.71c1.81-2.86,4.33-4.29,7.57-4.29c2.91,0,5.25,1.19,7.05,3.57c1.81,2.38,2.72,5.48,2.72,9.24v0.67
	c-0.04,2.19-0.48,4.19-1.24,6c-0.86,2-2,3.57-3.48,4.67c-0.48,0.33-0.96,0.62-1.52,0.85c-0.57,0.24-1.14,0.48-1.81,0.62
	c0.96,0.62,1.57,1.1,1.96,1.39l1.28,1.09l0.19,0.19l0.86,0.72c0.81,0.66,1.48,1,2,1c0.76,0,1.48-0.19,2.05-0.62
	c0.19-0.1,0.29-0.19,0.38-0.19c0.14,0,0.24,0.1,0.24,0.24c0,0.43-0.43,0.9-1.33,1.38C49.07,31.76,48.21,32,47.4,32
	c-1.1,0-2.43-0.57-3.96-1.72c-1-0.76-1.72-1.28-2.1-1.57c-0.14-0.09-0.24-0.19-0.28-0.23l-2.34-1.62c-1.38-0.95-2.38-1.43-3.05-1.43
	c-0.57,0-1.1,0.28-1.57,0.9c-0.48,0.57-0.76,1.34-0.86,2.15c0,0.09,0,0.14-0.04,0.23c-0.05,0.29-0.19,0.43-0.29,0.43
	c-0.19,0-0.28-0.1-0.33-0.28C32.59,28.71,32.63,28.52,32.63,28.38z M12.2,13.24L10,6.1L9.9,5.71C9.82,5.33,9.67,5.14,9.52,5.14
	c-0.04,0-0.14,0.1-0.24,0.34l-2.71,7.8c-0.1,0.29-0.15,0.48-0.19,0.62v0.05c0,0.33,0.24,0.48,0.62,0.48h0.38h4.19
	c0.48,0,0.72-0.15,0.72-0.43C12.34,13.71,12.24,13.47,12.2,13.24z M33.01,13.85c0.28,3.48,1.34,6.29,3.14,8.38
	c1.62,1.91,3.43,2.86,5.39,2.86c2.05,0,3.72-0.95,4.96-2.81c1.24-1.86,1.9-4.33,1.9-7.33v-1.1c-0.14-3.28-1-6.1-2.48-8.43
	c-1.66-2.62-3.72-3.95-6.1-3.95c-2.05,0-3.67,0.95-4.96,2.86c-1.24,1.91-1.9,4.39-1.9,7.48C32.92,11.95,32.97,13.57,33.01,13.85z
	 M51.83,13.85l4.63-13.33C56.55,0.14,56.7,0,56.84,0c0.14,0,0.28,0.19,0.38,0.52l4,13.33l1.96,6.57l0.33,1
	c0.43,1.48,0.81,2.38,1.1,2.72c0.28,0.33,0.86,0.62,1.76,0.86c0.29,0.09,0.43,0.24,0.43,0.43c0,0.19-0.14,0.28-0.38,0.28
	c-0.1,0-0.24,0-0.53-0.04c-0.47-0.04-1.33-0.1-2.57-0.1c-1.29,0-2.1,0.05-2.43,0.1c-0.19,0.04-0.33,0.1-0.43,0.1
	c-0.24,0-0.34-0.14-0.34-0.38c0-0.19,0.1-0.34,0.34-0.38l0.43-0.15c0.48-0.09,0.72-0.52,0.72-1.24c0-0.66-0.28-1.9-0.86-3.81
	l-0.72-2.38c-0.19-0.67-0.33-1.05-0.47-1.14c-0.1-0.1-0.43-0.15-0.96-0.15h-5.05c-0.66,0-1.1,0.05-1.28,0.24
	c-0.14,0.14-0.38,0.62-0.66,1.43l-0.91,2.66c-0.43,1.19-0.62,2.1-0.62,2.72c0,0.57,0.1,1,0.34,1.24s0.66,0.48,1.28,0.66
	c0.24,0.05,0.38,0.19,0.43,0.38v0.05c0,0.19-0.1,0.28-0.38,0.28h-0.48l-1.34-0.1c-0.43,0-0.96-0.04-1.52-0.04
	c-0.28,0-0.48,0-0.62,0.04c-0.48,0.1-0.72,0.1-0.76,0.1c-0.24,0-0.38-0.1-0.38-0.34v-0.04c0-0.19,0.09-0.34,0.24-0.38l0.52-0.19
	c0.19-0.04,0.43-0.38,0.76-0.85c0.34-0.53,0.57-1.05,0.76-1.62l0.43-1.19L51.83,13.85z M58.74,13.24L56.55,6.1l-0.09-0.39
	c-0.1-0.38-0.24-0.57-0.34-0.57c-0.04,0-0.14,0.1-0.24,0.34l-2.72,7.8c-0.1,0.29-0.14,0.48-0.19,0.62v0.05
	c0,0.33,0.24,0.48,0.62,0.48h0.38h4.19c0.48,0,0.72-0.15,0.72-0.43C58.88,13.71,58.79,13.47,58.74,13.24z"/>
</svg>
