<svg xmlns="http://www.w3.org/2000/svg" width="98" height="20" viewBox="0 0 98 20">
<path fill="#25222C" d="M79.38,0.06H64.5v2.78h5.43V19.9h3.69V2.84h4.78L79.38,0.06z M44.84,9.98h-1.97V2.93h1.97
	c2.66,0,3.41,1.22,3.41,3.51C48.24,8.73,47.49,9.98,44.84,9.98z M45.24,0.06h-6.06V19.9h3.69v-7.35h2.37c4.88,0,6.97-2.99,6.97-6.11
	C52.21,3.32,50.12,0.06,45.24,0.06z M56.54,19.9h3.69V0.06h-3.69V19.9z M9.43,2.54c-1.84,0-3.37,0.84-4.31,2.32
	C4.37,6.03,4,7.65,4,9.95c0,2.37,0.28,3.71,0.84,4.8c0.94,1.84,2.72,2.74,4.81,2.74c0.81,0,2.69-0.12,4.96-0.87L13.6,19.4
	c-1.43,0.37-2.91,0.6-4.29,0.6c-2.87,0-5.15-0.98-6.84-2.79C0.84,15.45,0,13.1,0,10.31c0-2.32,0.47-4.25,1.44-5.87
	C3.06,1.68,6.03,0,9.4,0c2.09,0,4.1,0.56,5.38,1.51l-0.9,2.48C12.72,3.24,11.15,2.54,9.43,2.54z M23.36,12.38l2.71-7.42l2.7,7.42
	H23.36z M28.29,0.06h-3.76L17.49,19.9h3.33l1.58-4.83h7.33l1.59,4.83h4.01L28.29,0.06z M85.17,12.38l2.71-7.42l2.7,7.42H85.17z
	 M90.11,0.06h-3.76L79.31,19.9h3.33l1.58-4.81h7.33l1.59,4.81h4.01L90.11,0.06z"/>
</svg>
