<svg height="20" viewBox="0 0 98 20" width="98" xmlns="http://www.w3.org/2000/svg"><path d="m79.38.06h-14.88v2.78h5.43v17.06h3.69v-17.06h4.78zm-34.54 9.92h-1.97v-7.05h1.97c2.66 0 3.41 1.22 3.41 3.51-.01 2.29-.76 3.54-3.41 3.54zm.4-9.92h-6.06v19.84h3.69v-7.35h2.37c4.88 0 6.97-2.99 6.97-6.11s-2.09-6.38-6.97-6.38zm11.3 19.84h3.69v-19.84h-3.69zm-47.11-17.36c-1.84 0-3.37.84-4.31 2.32-.75 1.17-1.12 2.79-1.12 5.09 0 2.37.28 3.71.84 4.8.94 1.84 2.72 2.74 4.81 2.74.81 0 2.69-.12 4.96-.87l-1.01 2.78c-1.43.37-2.91.6-4.29.6-2.87 0-5.15-.98-6.84-2.79-1.63-1.76-2.47-4.11-2.47-6.9 0-2.32.47-4.25 1.44-5.87 1.62-2.76 4.59-4.44 7.96-4.44 2.09 0 4.1.56 5.38 1.51l-.9 2.48c-1.16-.75-2.73-1.45-4.45-1.45zm13.93 9.84 2.71-7.42 2.7 7.42zm4.93-12.32h-3.76l-7.04 19.84h3.33l1.58-4.83h7.33l1.59 4.83h4.01zm56.88 12.32 2.71-7.42 2.7 7.42zm4.94-12.32h-3.76l-7.04 19.84h3.33l1.58-4.81h7.33l1.59 4.81h4.01z" fill="#25222c"/></svg>