<svg xmlns="http://www.w3.org/2000/svg" width="117" height="24" viewBox="0 0 117 24">
<path d="M95.25,0.08H77.4v3.33h6.51v20.47h4.42V3.41h5.74L95.25,0.08z M53.8,11.98h-2.36V3.52h2.36
	c3.19,0,4.09,1.46,4.09,4.21C57.89,10.48,56.99,11.98,53.8,11.98z M54.29,0.08h-7.27v23.8h4.42v-8.82h2.85
	c5.85,0,8.36-3.59,8.36-7.33C62.65,3.99,60.14,0.08,54.29,0.08z M67.85,23.88h4.42V0.08h-4.42V23.88z M11.32,3.05
	c-2.21,0-4.05,1.01-5.17,2.78c-0.9,1.41-1.35,3.35-1.35,6.1c0,2.85,0.34,4.46,1.01,5.77c1.12,2.21,3.26,3.28,5.77,3.28
	c0.98,0,3.23-0.15,5.96-1.04l-1.22,3.34C14.6,23.73,12.83,24,11.17,24c-3.45,0-6.18-1.17-8.21-3.35C1.01,18.54,0,15.72,0,12.37
	c0-2.78,0.56-5.09,1.72-7.04C3.67,2.01,7.23,0,11.28,0c2.51,0,4.91,0.67,6.45,1.81l-1.08,2.98C15.26,3.88,13.39,3.05,11.32,3.05z
	 M28.03,14.86l3.25-8.91l3.24,8.91H28.03z M33.95,0.08h-4.52l-8.44,23.8h3.99l1.89-5.79h8.8l1.91,5.79h4.82L33.95,0.08z
	 M102.21,14.86l3.25-8.91l3.24,8.91H102.21z M108.13,0.08h-4.52l-8.44,23.8h3.99l1.89-5.77h8.79l1.91,5.77h4.82L108.13,0.08z"/>
</svg>
