<svg xmlns="http://www.w3.org/2000/svg" width="131px" height="24px" viewBox="0 0 131 24">
  <path d="m9.63 3.41c-2.64 0-4.9.94-6.79 2.86-1.9 1.89-2.84 4.17-2.84 6.84s.94 4.94 2.84 6.86c1.87 1.88 4.14 2.82 6.79 2.82 2.67 0 4.93-.94 6.8-2.82 1.9-1.91 2.84-4.19 2.84-6.86s-.94-4.94-2.84-6.84c-1.87-1.92-4.13-2.86-6.8-2.86zm4.76 7.69c-.14 2.62-.92 4.74-2.4 6.35-1.42 1.57-3.2 2.35-5.27 2.35-1.33 0-2.45-.47-3.39-1.41-1.01-1.02-1.5-2.31-1.5-3.88 0-1.85.67-3.31 2.04-4.39 1.48-1.18 3.67-1.74 6.51-1.74l4.14.17zm15.68 5.14c1.3 0 2.36-.25 3.2-.8l-.06 1.85c-1.26.55-2.57.83-3.95.83-3.46 0-5.18-2.04-5.18-6.12 0-1.93.61-3.39 1.83-4.39.94-.75 2.06-1.15 3.35-1.15 1.56 0 2.84.24 3.82.71v1.93c-.81-.49-1.83-.75-3-.75-.9 0-1.65.27-2.26.75-.78.66-1.17 1.65-1.17 2.97 0 1.49.37 2.59 1.08 3.29.56.6 1.34.88 2.34.88zm10.97-9.72c-3.78 0-5.65 1.88-5.65 5.65 0 4 1.9 6.03 5.68 6.03 3.76 0 5.63-2.02 5.63-6.04.01-3.76-1.88-5.64-5.66-5.64zm2.3 8.81c-.5.78-1.28 1.18-2.29 1.18-.98 0-1.75-.39-2.26-1.18-.5-.75-.75-1.84-.75-3.18 0-1.21.23-2.15.72-2.86.53-.75 1.31-1.13 2.32-1.13s1.76.39 2.31 1.16c.47.67.69 1.62.69 2.83-.01 1.38-.26 2.43-.74 3.18zm14.99-4.97v7.59h-2.59l.05-5.96c0-2.28-.78-3.44-2.34-3.44-.78 0-1.44.3-1.98.86-.59.63-.87 1.44-.87 2.43v6.1h-2.65v-11.19h2.54l.11 1.73c.78-1.35 2-2.04 3.67-2.04 2.72 0 4.06 1.32 4.06 3.92zm7.32 5.92c1.3 0 2.36-.27 3.17-.82l-.03 1.87c-1.26.55-2.58.83-3.95.83-3.43 0-5.15-2.04-5.15-6.12 0-1.93.59-3.4 1.79-4.39.97-.75 2.08-1.15 3.35-1.15 1.56 0 2.84.24 3.79.71v1.93c-.8-.5-1.79-.75-2.97-.75-.91 0-1.65.25-2.26.75-.75.66-1.14 1.65-1.14 2.95 0 1.49.34 2.59 1.05 3.29.6.61 1.38.9 2.35.9zm16.28-5.86v7.58h-2.54v-6.17c0-1.13-.19-1.95-.55-2.46-.39-.5-1-.75-1.79-.75-.81 0-1.48.28-2.01.88-.51.61-.78 1.36-.78 2.34v6.16h-2.66v-17.76h2.65v8.27c.69-1.33 1.87-2.01 3.62-2.01 2.7 0 4.06 1.3 4.06 3.92zm12.09-.55c0-1.29-.47-2.18-1.37-2.73-.73-.41-1.78-.63-3.15-.63-1.56 0-2.92.31-4.06.94v1.88c1.28-.78 2.47-1.18 3.59-1.18.83 0 1.44.14 1.79.39.39.3.58.82.58 1.55v.96l-2.01-.05c-1.64 0-2.89.39-3.76 1.15-.76.69-1.16 1.57-1.16 2.7 0 .99.31 1.8.94 2.43.61.58 1.33.86 2.22.86 1.01 0 1.87-.34 2.54-.99l.7-.85.53-.75.08 2.46h2.57c-.03-.95-.06-3.66-.03-8.14zm-2.68 3.38c-.01.96-.33 1.77-.87 2.37-.55.61-1.2.89-1.98.89-.5 0-.94-.19-1.28-.52-.39-.39-.56-.86-.56-1.47 0-.67.25-1.22.78-1.65.55-.44 1.34-.64 2.42-.64l1.56.08zm14.51-2.89v7.59h-2.59l.05-5.96c0-2.28-.78-3.44-2.34-3.44-.78 0-1.44.3-1.98.86-.59.63-.87 1.44-.87 2.43v6.1h-2.65v-11.19h2.53l.11 1.73c.78-1.35 2-2.04 3.67-2.04 2.73 0 4.07 1.32 4.07 3.92zm6.82-3.34c-1.51 0-2.76.47-3.75 1.41-1.05 1.02-1.56 2.46-1.56 4.27 0 1.69.39 3.03 1.17 3.94.73.86 1.69 1.29 2.86 1.29 1 0 1.86-.34 2.57-1.02.53-.5.84-.94.92-1.36v2.57c0 .96-.26 1.77-.76 2.43-.59.75-1.45 1.11-2.57 1.11-1.53 0-2.65-.31-3.36-.91v2.24c.81.5 2.17.77 4.12.77 1.53 0 2.75-.39 3.67-1.21 1.01-.86 1.5-2.16 1.5-3.89v-11.48l-2.23.11zm2.21 5.62c0 1.02-.26 1.91-.76 2.62-.51.67-1.14 1.02-1.87 1.02-1.5 0-2.26-1.13-2.26-3.37 0-1.29.37-2.31 1.08-3.11.64-.78 1.42-1.18 2.34-1.18.62 0 1.11.08 1.48.2v3.82zm9.85-6.12c-3.76 0-5.63 1.88-5.63 5.65 0 4 1.89 6.03 5.66 6.03 3.78 0 5.65-2.02 5.65-6.04 0-3.76-1.9-5.64-5.68-5.64zm2.3 8.81c-.5.78-1.28 1.18-2.29 1.18-.98 0-1.73-.39-2.26-1.18-.48-.75-.75-1.84-.75-3.18 0-1.21.23-2.15.73-2.86.52-.75 1.29-1.13 2.31-1.13 1.01 0 1.76.39 2.31 1.16.47.67.7 1.62.7 2.83-.01 1.38-.26 2.43-.75 3.18z" fill="currentColor"></path>
</svg>