<svg xmlns="http://www.w3.org/2000/svg" width="131" height="24" viewBox="0 0 131 24">
<path fill="#25222C" d="M9.63,3.41c-2.64,0-4.9,0.94-6.79,2.86C0.94,8.16,0,10.44,0,13.11c0,2.67,0.94,4.94,2.84,6.86
c1.87,1.88,4.14,2.82,6.79,2.82c2.67,0,4.93-0.94,6.8-2.82c1.9-1.91,2.84-4.19,2.84-6.86c0-2.67-0.94-4.94-2.84-6.84
C14.56,4.35,12.3,3.41,9.63,3.41z M14.39,11.1c-0.14,2.62-0.92,4.74-2.4,6.35c-1.42,1.57-3.2,2.35-5.27,2.35
c-1.33,0-2.45-0.47-3.39-1.41c-1.01-1.02-1.5-2.31-1.5-3.88c0-1.85,0.67-3.31,2.04-4.39c1.48-1.18,3.67-1.74,6.51-1.74l4.14,0.17
L14.39,11.1z M30.07,16.24c1.3,0,2.36-0.25,3.2-0.8l-0.06,1.85c-1.26,0.55-2.57,0.83-3.95,0.83c-3.46,0-5.18-2.04-5.18-6.12
c0-1.93,0.61-3.39,1.83-4.39c0.94-0.75,2.06-1.15,3.35-1.15c1.56,0,2.84,0.24,3.82,0.71V9.1c-0.81-0.49-1.83-0.75-3-0.75
c-0.9,0-1.65,0.27-2.26,0.75c-0.78,0.66-1.17,1.65-1.17,2.97c0,1.49,0.37,2.59,1.08,3.29C28.29,15.96,29.07,16.24,30.07,16.24z
M41.04,6.52c-3.78,0-5.65,1.88-5.65,5.65c0,4,1.9,6.03,5.68,6.03c3.76,0,5.63-2.02,5.63-6.04C46.71,8.4,44.82,6.52,41.04,6.52z
M43.34,15.33c-0.5,0.78-1.28,1.18-2.29,1.18c-0.98,0-1.75-0.39-2.26-1.18c-0.5-0.75-0.75-1.84-0.75-3.18
c0-1.21,0.23-2.15,0.72-2.86c0.53-0.75,1.31-1.13,2.32-1.13c1.01,0,1.76,0.39,2.31,1.16c0.47,0.67,0.69,1.62,0.69,2.83
C44.07,13.53,43.82,14.58,43.34,15.33z M58.33,10.36v7.59h-2.59l0.05-5.96c0-2.28-0.78-3.44-2.34-3.44c-0.78,0-1.44,0.3-1.98,0.86
c-0.59,0.63-0.87,1.44-0.87,2.43v6.1h-2.65V6.75h2.54l0.11,1.73c0.78-1.35,2-2.04,3.67-2.04C56.99,6.44,58.33,7.76,58.33,10.36z
M65.65,16.28c1.3,0,2.36-0.27,3.17-0.82l-0.03,1.87c-1.26,0.55-2.58,0.83-3.95,0.83c-3.43,0-5.15-2.04-5.15-6.12
c0-1.93,0.59-3.4,1.79-4.39c0.97-0.75,2.08-1.15,3.35-1.15c1.56,0,2.84,0.24,3.79,0.71v1.93c-0.8-0.5-1.79-0.75-2.97-0.75
c-0.91,0-1.65,0.25-2.26,0.75c-0.75,0.66-1.14,1.65-1.14,2.95c0,1.49,0.34,2.59,1.05,3.29C63.9,15.99,64.68,16.28,65.65,16.28z
M81.93,10.42V18h-2.54v-6.17c0-1.13-0.19-1.95-0.55-2.46c-0.39-0.5-1-0.75-1.79-0.75c-0.81,0-1.48,0.28-2.01,0.88
c-0.51,0.61-0.78,1.36-0.78,2.34V18H71.6V0.24h2.65v8.27c0.69-1.33,1.87-2.01,3.62-2.01C80.57,6.5,81.93,7.8,81.93,10.42z
M94.02,9.87c0-1.29-0.47-2.18-1.37-2.73c-0.73-0.41-1.78-0.63-3.15-0.63c-1.56,0-2.92,0.31-4.06,0.94v1.88
c1.28-0.78,2.47-1.18,3.59-1.18c0.83,0,1.44,0.14,1.79,0.39c0.39,0.3,0.58,0.82,0.58,1.55v0.96l-2.01-0.05
c-1.64,0-2.89,0.39-3.76,1.15c-0.76,0.69-1.16,1.57-1.16,2.7c0,0.99,0.31,1.8,0.94,2.43c0.61,0.58,1.33,0.86,2.22,0.86
c1.01,0,1.87-0.34,2.54-0.99l0.7-0.85l0.53-0.75l0.08,2.46h2.57C94.02,17.06,93.99,14.35,94.02,9.87z M91.34,13.25
c-0.01,0.96-0.33,1.77-0.87,2.37c-0.55,0.61-1.2,0.89-1.98,0.89c-0.5,0-0.94-0.19-1.28-0.52c-0.39-0.39-0.56-0.86-0.56-1.47
c0-0.67,0.25-1.22,0.78-1.65c0.55-0.44,1.34-0.64,2.42-0.64l1.56,0.08L91.34,13.25z M105.85,10.36v7.59h-2.59l0.05-5.96
c0-2.28-0.78-3.44-2.34-3.44c-0.78,0-1.44,0.3-1.98,0.86c-0.59,0.63-0.87,1.44-0.87,2.43v6.1h-2.65V6.75H98l0.11,1.73
c0.78-1.35,2-2.04,3.67-2.04C104.51,6.44,105.85,7.76,105.85,10.36z M112.67,7.02c-1.51,0-2.76,0.47-3.75,1.41
c-1.05,1.02-1.56,2.46-1.56,4.27c0,1.69,0.39,3.03,1.17,3.94c0.73,0.86,1.69,1.29,2.86,1.29c1,0,1.86-0.34,2.57-1.02
c0.53-0.5,0.84-0.94,0.92-1.36v2.57c0,0.96-0.26,1.77-0.76,2.43c-0.59,0.75-1.45,1.11-2.57,1.11c-1.53,0-2.65-0.31-3.36-0.91v2.24
c0.81,0.5,2.17,0.77,4.12,0.77c1.53,0,2.75-0.39,3.67-1.21c1.01-0.86,1.5-2.16,1.5-3.89V7.18l-2.23,0.11L112.67,7.02z M114.88,12.64
c0,1.02-0.26,1.91-0.76,2.62c-0.51,0.67-1.14,1.02-1.87,1.02c-1.5,0-2.26-1.13-2.26-3.37c0-1.29,0.37-2.31,1.08-3.11
c0.64-0.78,1.42-1.18,2.34-1.18c0.62,0,1.11,0.08,1.48,0.2V12.64z M124.73,6.52c-3.76,0-5.63,1.88-5.63,5.65
c0,4,1.89,6.03,5.66,6.03c3.78,0,5.65-2.02,5.65-6.04C130.41,8.4,128.51,6.52,124.73,6.52z M127.03,15.33
c-0.5,0.78-1.28,1.18-2.29,1.18c-0.98,0-1.73-0.39-2.26-1.18c-0.48-0.75-0.75-1.84-0.75-3.18c0-1.21,0.23-2.15,0.73-2.86
c0.52-0.75,1.29-1.13,2.31-1.13c1.01,0,1.76,0.39,2.31,1.16c0.47,0.67,0.7,1.62,0.7,2.83C127.77,13.53,127.52,14.58,127.03,15.33z"
/>
</svg>
