<svg width="51" height="56" viewBox="0 0 51 56" xmlns="http://www.w3.org/2000/svg">
  <path d="m48.27.56c-.09.09-.17.17-.24.26-.26.33-.42.73.01.8.37.05.86 0 1.1.16.22.14.42.29.51.34l.1-.12c-.24-.5-.68-1.15-.86-1.38-.24-.31-.36-.33-.62-.06zm-3.73 1.58c.04.01.14.04.22.1.13.1.14.24-.03.3-.42.2-1.11.56-1.55.73-.08.04-.18.06-.14-.1.07-.27 1.13-1.03 1.5-1.03zm-35.14-.01c.22.46.24 1.19-.07 1.53-.11-.46-.08-.88.02-1.33zm19.17.3c-.07.22-.9 1.15-1.2 1.28-.03-.17-.09-.48.03-.59.3-.25.81-.51 1.17-.69zm-16.52.49c.34.12.94.3 1.28.43.22.1.29.3.33.6-.05.01-.12.06-.16.04-.46-.26-1.12-.61-1.54-.89-.03-.03-.04-.09-.07-.14l.11-.04zm13.95-2.31c-.56.48-1.06 1.33-1.06 2.09 0 .12.01.33.09.36.08.04.34-.21.46-.35.16-.18.27-.37.42-.55h.09l-.04.18c-.09.44-.35.8-.67 1.11-.17.16-.21.4-.09.52.24.21.5.03.67-.14.35-.39.57-.88.77-1.34.25-.59.2-1.32-.09-1.8-.14-.21-.37-.23-.55-.08zm11.6 1.87c-.09.09-.17.17-.24.26-.26.33-.24.43.16.63.27.12.57.21.78.39.2.17.5.52.59.57l.09-.35c-.03-.42-.42-1.21-.6-1.45-.23-.3-.51-.32-.78-.05zm-30.56-.27c-.38.05-.76.1-1.12.24-.35.11-.43.46-.18.71.39.38.77.76 1.18 1.08.34.28.73.34 1.11.26.18-.04.33-.16.33-.31 0-.12-.04-.21-.13-.31-.07-.06-.21-.14-.3-.18l-.97-.36c-.01-.05 0-.17.01-.2l.55.08c.26.06.39.03.48-.18.14-.38.06-.73-.34-.81-.21-.04-.43-.05-.62-.02zm15.18 2.21c.21 0 .47.03.67.08.07.04.1.08.14.14-.03.06-.08.14-.15.16-.3.12-.99.12-1.28-.05-.05-.05-.12-.13-.14-.18l.2-.1c.05-.03.49-.05.56-.05zm-16.73-4.17c-.66.35-1.44 1.35-.84 2.19.03.05-.01.21-.05.3-.06-.05-.16-.13-.21-.2-.37-.45-.79-.74-1.21-1.13-.1-.1-.39-.27-.55-.31-.08.15-.15.48-.08 1.13.08.64.25 1.29.73 2.18.12.21.24.33.41.47.11.11.34.22.51.22.06-.14.08-.36.04-.52-.1-.42-.25-.83-.39-1.24l-.13-.36.09-.03.51.6c.21.39.33.76.43 1.07.09.31.22.31.42.17.17-.13.31-.34.3-.61-.01-.19-.05-.38-.12-.55-.17-.68-.05-1.25.55-1.68.2-.15.34-.37.27-.62-.09-.34-.17-.66-.3-.98-.05-.14-.24-.18-.38-.1zm11.11 4.33-.16.14c-.34.25-.7.43-1.03.64-.1-.01-.26-.04-.34-.07-.03-.05-.04-.13-.01-.2.17-.12.34-.2.56-.31.21-.1.5-.22.73-.29.07 0 .18.03.25.09zm31.64-2.63c-.94.09-2.21.94-2.7 2.02-.04.09 0 .29.05.31.1.04.37.01.48-.03.07-.01.1-.1.14-.17.31-.55.82-.89 1.42-1.15.05-.03.12-.01.18-.03.01.06 0 .14-.04.21s-.12.13-.18.18c-.2.14-.41.27-.6.43-.21.2-.25.17-.43.39-.05.07-.05.21-.01.26.04.07.18.09.26.08l.33-.08c0 .21.25.61.37.73.13.13.27.27.48.35.47-.09.85-.22 1.02-.29.76-.29 1.25-.77 1.42-1.59.05-.22-.08-.34-.31-.4-.12-.04-.37-.09-.5-.13-.48-.14-.57.06-.76.52-.14.35-.29.76-.67 1.06-.12.09-.51-.2-.61-.27.73-.43 1.21-1.14 1.58-1.97.08-.16 0-.31-.17-.37-.22-.06-.47-.09-.75-.06zm-17.7 4.15c.08.01.14.04.21.08.29.44.4.86.52 1.33 0 .03-.01.04-.01.1-.06-.04-.1-.05-.13-.08-.33-.33-.57-.69-.69-1.16-.04-.11-.03-.2.1-.27zm17.76-.27c-.1.01-.26.29-.4.29-.12 0-.57.01-.71.04-.1.03-.16.27-.1.31.13.09.21.16.31.2.42.04.6.04 1.07.12.08.01.17.05.24.13-.04.04-.09.1-.17.12-.6.08-1 .13-1.51-.17-.08-.05-.16-.13-.24-.16-.17-.07-.24.05-.18.21.09.3.34.55.78.73.36.16.71.35 1.08.34.56-.01.97-.05 1.42-.13.25-.04.5-.18.53-.3.04-.12-.01-.39-.14-.56-.09-.1-.24-.24-.34-.34-.52-.55-.86-.9-1.64-.83zm-42.52 1.6-.14.32c-.52 0-.86-.14-1.38-.09-.38.03-.75.2-1.11.34-.06.03-.15.07-.16.12 0 .05.12.13.17.16.2.09.33.14.51.13 1.08-.09 2.3-.21 3.38-.31.06-.08.12-.16.18-.3-.03-.05-.2-.14-.35-.17zm38.56-.02c.08.03.16.07.21.1l1.02.76c.03.03.06.08.09.13.03.06.04.12.04.17-.06 0-.17-.01-.22-.03-.44-.22-.9-.39-1.19-.82-.05-.08-.07-.14-.08-.21 0-.02.09-.07.13-.1zm-27.28-.44.1.16c.03.43-.05.97-.29 1.36-.03.05-.09.09-.16.14-.03-.08-.1-.14-.09-.2.09-.43.21-.97.31-1.4.03-.02.09-.05.13-.06zm1.87.37c.01.55-.01.89-.08 1.44l-.12.17c-.04-.05-.1-.1-.13-.17-.08-.18-.08-.38-.1-.56-.05-.44-.03-.68.24-.94.1-.13.19-.06.19.06zm17.2.86c.59.14 1.14.3 1.72.46.08.03.12.05.24.21-.07.07-.13.12-.22.14-.61-.13-1.21-.35-1.83-.64-.05-.03-.1-.09-.13-.14.06-.03.17-.05.22-.03zm-27.67-1.01c.06.04.13.09.16.14.13.27.24.57.36.82l.35.69c.03.08.04.14.05.24l-.05.03c-.08-.06-.15-.13-.21-.21-.24-.37-.5-.73-.72-1.11-.07-.13-.16-.27-.16-.38 0-.05.14-.15.22-.22zm16.51.18c.03 0 .07.09.11.18-.18.34-.34.67-.56.95-.17.24-.43.39-.67.59-.05.03-.13.03-.2.03.01-.07 0-.16.04-.21.24-.36.46-.72.71-1.06.1-.14.22-.3.33-.42.04-.06.15-.06.24-.06zm-6.98.68.37.89c.06.17-.01.25-.31.26-.2-.08-.47-.2-.72-.31-.04-.03-.06-.16-.03-.21.16-.24.33-.46.5-.67.07-.09.15-.07.19.04zm13.34-3.93c.27 0 .4.05.44.3.03.18.04.37.04.95-.01.26-.1.42-.34.33-.5-.21-.8-.74-1.34-.93-.2-.06-.33.12-.35.3-.09.56-.17 1.06-.17 1.27 0 .71.34 1.12.72 1.5l.1.1c.12.1.12.17-.01.24l-1.12.63c-.19.1-.37.21-.56.31-.16.1-.35.13-.52 0-.17-.14-.22-.33-.17-.51.2-.85.34-1.72.56-2.56.34-1.31.91-1.76 1.87-1.88.33-.05.59-.05.85-.05zm-18.99 3.06c.03.05.06.14.08.2l.3 1.42c.03.12.01.27 0 .39 0 .04-.04.09-.07.13-.04-.04-.12-.05-.13-.09-.06-.26-.14-.5-.2-.74-.06-.3-.1-.59-.16-.89-.02-.16-.02-.33.18-.42zm7.54.83c.24.05.46.1.68.18.3.12.74.94.61 1.23-.13.26-.36.3-.66.31-.21-.05-.51-.11-.77-.24-.09-.03-.14-.24-.14-.34.03-.31-.05-.63 0-.94.02-.17.11-.23.28-.2zm-14.63.55c-.12.47-.15.77-.13 1.03.01.34.17.61.48.76.93.44 1.91.51 2.91.46.04 0 .13-.07.13-.09-.01-.06-.04-.16-.09-.2-.05-.05-.13-.05-.22-.09-.44-.14-.91-.27-1.37-.44-.1-.03-.21-.1-.29-.17-.12-.16-.06-.33.12-.36.16-.01.33.01.48.08.27.13.51.31.78.47.09.05.2.14.3 0 .08-.13.16-.25-.01-.38l-.65-.51c-.56-.44-1.4-.65-2.44-.56zm21.52-.25c.13.05.16.2.1.35-.29.86-.64 1.75-.93 2.6-.09.31-.13.33-.43.22l-1.45-.51c-.36-.12-.56-.38-.56-.77 0-.22.4-.57.63-.54.04.01.08.04.12.09.04.14.07.3.09.47.03.18.08.35.18.35.46.03.99-.29 1.24-.68.27-.42.47-.9.69-1.36.06-.1.18-.28.32-.22zm-15.45.71c.31.29.59.53.89.77-.09.8-.22 1.5-.53 2.19-.05.12-.16.27-.3.42-.13-.18-.21-.42-.24-.5l-.57-1.49c-.05-.12-.09-.29-.1-.37.21-.26.47-.65.59-.97.04-.13.13-.16.26-.05zm7.8 2.31c.04.03.06.09.1.18-.06.13-.08.26-.17.36-.24.27-.5.55-.76.82-.05.04-.14.03-.22.04-.01-.08-.04-.17-.01-.21.12-.21.26-.42.4-.6.14-.2.31-.38.47-.56.05-.03.14-.06.19-.03zm-14.47.61c.09.08.17.14.18.22.09.48-.05 1.04-.09 1.5-.04.01-.09.01-.13.01-.05-.26-.12-.63-.14-.89-.03-.2-.03-.39 0-.59.02-.08.09-.16.18-.25zm2.86.15.08.05c.01.01.02.02.03.03.26.26.51.53.74.8.2.2.35.43.43.72-.29-.07-.6-.17-.82-.29-.44-.23-.86-.7-.8-1.14.05-.21.17-.26.34-.17zm24.01-2.42c-.48.46-.78.86-.97 1.53-.16.59-.13 1.24.03 1.84.04.18.14.39.35.33.17-.05.25-.21.25-.34 0-.55.05-1.07.33-1.42.12-.16.18-.2.25-.24.08.13.05.29.05.31-.08.4-.14.81-.24 1.21-.05.27-.05.42.09.67.16.25.29.27.39.1.5-.8 1.03-1.94 1.03-2.48 0-.64-.51-.82-.73-1.37-.2-.53-.4-.53-.83-.14zm15.13.72c.04.1.33.4.44.65.14.3.29.6.29.86 0 .13-.04.27-.08.35-.2-.1-.3-.34-.34-.46-.09-.27-.1-.44-.2-.6-.08-.14-.17-.18-.22-.18-.12 0-.17.05-.18.22-.04.63.11 1.57.86 2.17.12.1.38.29.51.34.25.09.31.03.39-.2.16-.48.3-1.03.3-1.59 0-.33-.04-.56-.13-.85-.2-.61-.69-1.02-1.29-1.07-.32-.01-.48.06-.35.36zm-36.65 2.62c.05.26.01.68-.01.85s-.1.29-.18.37c-.06.06-.1.09-.17.12-.07-.12-.1-.29-.13-.47.12-.3.26-.65.34-.88.06-.01.11-.01.15.01zm32.02.5c.17.08.39.27.53.38.2.16.4.34.57.52.05.05.03.2 0 .3-.06-.03-.14-.04-.2-.08-.35-.22-.68-.47-1-.69-.04-.04-.05-.29-.08-.34.05-.04.11-.08.18-.09zm-37.32-2.93c-.2 0-.64.52-.78.95-.17.43-.21.82-.2 1.1.03.67.24 1.27.64 1.89.09.13.26.38.5.13.2-.22.34-.38.53-.61.24-.29.41-.7.39-1.1-.03-.59-.17-1.08-.35-1.57-.21-.5-.52-.79-.73-.79zm4.35 3.91-.1.38-.4-.17c-.29.05-.52.18-.85.22-.12.01-.25.01-.31 0-.12-.01-.26-.08-.3-.13.05-.1.24-.21.51-.26.15-.03.85-.09 1.45-.04zm25.65-3.1c-.01.08-.01.22.04.3.17.29.57.55.74.82.04.05.04.14.04.22-.08 0-.16-.01-.22-.05-.17-.1-.46-.31-.6-.43-.27-.22-.47-.44-.65-.67-.2-.22-.33-.22-.47.03-.37.59-.55 1.16-.63 1.88-.1.85.29 1.65 1.04 2.01.33.14.56.1.72-.2.17-.31.29-.57.39-.91.05-.17.05-.25-.08-.4-.2-.24-.33-.39-.52-.59-.12-.12-.2-.18-.26-.21-.05.07-.08.14-.08.22.01.27.05.55.06.82 0 .07-.01.17-.05.24-.17-.08-.25-.2-.3-.35-.06-.18-.09-.35-.1-.61 0-.16.01-.4.1-.65.04-.12.1-.26.18-.38.13.04.3.12.41.21.25.59.8 1.24 1.48 1.59.22.12.44.16.61.17.06-.26.18-.69.18-1.18 0-.38-.12-.78-.47-1.14-.3-.3-.71-.63-1.04-.8-.25-.11-.43-.01-.52.06zm-10.71.64c.5.05.93.27 1.37.51.06.05.12.2.13.3.03.2.01.43.01.71.01.76-.08 1.5-.25 2.26-.04.1-.13.2-.22.31-.1-.1-.21-.17-.26-.29-.39-.95-.72-1.93-.93-2.98-.04-.17-.09-.37-.12-.54-.02-.21.07-.29.27-.28zm-3.21 2.14c.05.08.1.16-.04.39-.24.36-.3.74-.46 1.25-.04.1-.1.22-.16.3-.05.05-.13.07-.2.1-.01-.07-.05-.14-.04-.2.07-.29.17-.56.26-.85.06-.22.13-.46.21-.69.08-.16.22-.26.43-.3zm21.04 1.1.3.12c.18.4.35.78.51 1.25 0 .21-.04.41-.1.6l-.05.03c-.01-.07-.05-.17-.17-.43s-.41-.74-.64-1.24c-.03-.06-.06-.14-.08-.22s.15-.13.23-.11zm-21.56-5.06c.24.03.47.09.67.2.37.16.73.37 1.1.56.2.12.34.29.35.53.01.29-.17.47-.44.37-.35-.16-.67-.27-1.23-.43-.21-.05-.42.06-.46.26-.08.48.33.51.29.64-.1.34-.65.44-.73.76-.06.29-.06.47.2.42.27-.06.55-.14.78-.26.43-.22.64-.33 1.11-.52.46-.2.69-.13.76.38.18 1.23.42 2.42.59 3.6.02.14.04.34.05.49.04.51-.05.64-.71.47-.22-.05-.44-.12-.67-.18-.33-.09-.56-.21-.77-.46-.26-.3-.59-.3-.88-.01-.08.07-.13.17-.22.24-.05.05-.13.08-.21.12-.04-.08-.08-.17-.05-.25.06-.3.25-.52.53-.67.2-.1.44-.17.65-.23.6-.24.9-.6.9-1.31 0-.4.12-.81.12-1.23 0-.3-.1-.39-.39-.3-.5.2-.97.39-1.46.6-.17.07-.27.17-.35.33-.13.26-.22.53-.35.8l-.1.13c-.04-.04-.09-.07-.13-.12l-.35-.52c-.13-.2-.27-.39-.42-.57-.22-.26-.22-.34.03-.53l.81-.71c.41-.38.56-.88.6-1.44v-.77c-.03-.34.04-.43.38-.39zm23.95 5.38c-.09.04-.22.1-.29.17.01.06.08.2.2.27.39 0 .72.08.82.12.47.17.68.38.77.55.08.16.09.24.09.31-.27.08-.56.03-.78-.16-.16-.12-.31-.24-.52-.33-.26-.12-.6-.13-.87-.07.03.27.29.61.51.78.55.44.93.53 1.34.56.35.03.64 0 .82-.08.13-.05.18-.24.17-.39l-.01-.26c-.02-.43-.06-.86-.46-1.23-.53-.48-1.28-.47-1.79-.24zm-27.97.88c.53.12 1.04.24 1.57.38.17.04.17.17.06.29-.34.35-.7.65-1.17.86l-.2.06c-.05-.06-.16-.12-.18-.21-.12-.38-.24-.77-.33-1.16-.03-.15.1-.24.25-.22zm32.17-16.47c.78 0 1.58 1.42 1.74 1.96.1.39-.53.72-.1.72.37 0 .71.06.71.38 0 .55-.16 1.11-.44 1.51-.29.4-.6.84-1.01 1.11l.03.14c.68.51 1.42.87 1.42 1.64 0 .4-.12.69-.35.9-.18.16-.33.31-.31.55.03.54.06.84.03 1.36-.03.35-1.1.42-1.24.57.26.86-.05 2.25-.3 2.66.08.16.14.27.22.4 1.08.76 1.23 1.45 1.38 2.05-.3.29-.8.53-.97.53-.69 0-2.25-.52-2.56-.57-.12.22-.05.42.1.86.14.39.4.67.4 1.03 0 .17-.03.46-.52.53-.74.12-1.57-.16-2.34-.64-.14-.08-.26-.17-.41-.24-.24-.13-.53-.04-.61.24l-.16.52c-.09.29-.24.31-.63.24-1.11-.24-1.63-1.44-1.63-2.49 0-.01.05-.1.09-.16.05.04.16.08.17.13.04.2.08.4.14.6.09.29.16.56.33.84.21.41.47.63.91.68.09 0 .21-.17.31-.35.24-.5.46-.84.38-1.42-.03-.2-.09-.48-.24-.67-.07-.09-.18-.16-.31-.27.06-.09.16-.2.24-.17.5.18.86.17 1.16.01.2-.1.29-.24.42-.41.42-.1 1.11-.26 1.68-.34.78 0 1.49.1 2.08.36l-.04.13c-.21-.04-1.08-.09-1.32-.09-.2 0-.72 0-.73.27 0 .08.1.22.22.3.64.43 2.43.51 3.16.39.01-.18-.01-.38-.06-.53-.18-.54-.84-1.01-1.44-1.2-.61-.2-1.42-.13-1.95-.07l-.12-.33c.21-.94.18-1.81.05-2.51-.08-.39-.18-.57-.39-.89-.12-.17-.26-.16-.42-.03-.1.09-.21.2-.39.43-.6.74-.57 1.23-.47 2.34.06.05.14.1.34.1s.29-.09.31-.35l.1-.9c.01-.08.03-.14.05-.2.09.03.25.13.26.2.01.1.01.21 0 .33-.05.65-.22 1.06-.29 1.37.04.06.46.25.39.42-.05.13-.7.3-1.15.34-.25-.34-.51-.65-1.08-.89-.26-.1-.55-.2-.33-.36l.34-.14c.61-.25.42-.6.39-1.2-.03-.22-.12-.29-.33-.27-.3.01-.51.04-.76.17-.18.09-.27.18-.42.33-.26.25-.46.56-.72.8-.06.07-.2.04-.3.04.01-.08.05-.16.08-.25.17-.46.33-.93.5-1.4.06-.18.14-.35.34-.31.94.22 1.91.04 2.57-.63.27-.3.27-.44-.08-.69-.6-.46-1.27-.65-2.02-.44-.17.05-.27.14-.41.29-.08.09-.14.25-.12.3.04.07.13.07.22.05.22-.04.46-.06.7-.09.08 0 .17-.01.24-.01.08.01.14.09.21.13l-.21.1-.48.13c-.35.09-.72.18-1.06.29-.17.05-.25.01-.27-.17-.05-.31.03-.56.27-.77.4-.35.73-.76.82-1.31.05-.3-.2-.74-.33-1.01-.01-.06.01-.12.03-.17.34.08.82.31 1.11.52.22.95.81 1.62 1.72 1.91.31.1.63.22.95.31.3.09.52.01.51-.31l-.01-.43c.26-.12.56-.21.63-.2.5.07 1 .31 1.53.48.09.04.18.1.2.21-.08.05-.2.08-.27.05-.38-.07-.76-.17-1.12-.26-.24-.05-.43.05-.47.27.16.29.87.61 1.15.72.38.14 1.83.31 1.81-.08-.01-.39-.06-.77-.17-1.16-.09-.33-.38-.51-.68-.59-.57-.16-1-.22-1.77-.22h-.17c-.16 0-.43.09-.71.22-.01-.14-.04-.27-.06-.42-.14-.59-.42-.73-.86-.88.03-.17.03-.29.03-.47.39-.22.86-.59 1.04-.9-.16-.14-.44-.22-.59-.27-.59-.21-.65-.44-1.06-.61-.37-.16-.65-.22-.94-.24-.3-.01-.71.07-.78.18-.05.08-.01.2.17.33.26.2.81.35 1.08.54.04.03.08.08.1.1-.05.03-.09.05-.13.05-.37-.04-.72-.1-1.07-.3-.2-.1-.26-.2-.4-.25-.27-.09-.31-.01-.48.29-.13.22.03.34.21.44.63.35 1.1.55 1.89.64.08.08.1.24.13.4-.38-.04-.6-.07-.95-.12-.12-.01-.48-.12-.59-.17-.52-.25-.8-.43-1.32-.67-.27-.13-.55-.22-.83-.33-.14-.07-.2-.16-.04-.25.78-.47 1.54-1.06 2.34-1.49.12-.07.3-.04.44-.01.38.08.51.2.9.31.22.08.44.14.48-.06.12-.57.3-1.01.47-1.25.35-.54.85-.81 1.5-1.23.28-.78 1.09-1.63 1.37-1.63zm-39.55 18.22c-.01.09-.04.13-.18.2-.21.06-.47.1-.73.12-.35.01-.67-.03-.86-.06-.18-.03-.29-.06-.31-.1.05-.08.13-.13.2-.14l1.65-.24c.18-.04.26.06.23.22zm28.46-.17c-.12.07-.21.14-.17.27l.08.21c.21-.04.43-.05.64-.04.29.09.76.2 1.06.25.07.01.16-.07.21-.13.01-.01-.04-.06-.07-.12-.29-.24-.72-.39-1.16-.41zm-34.04-1.87c-.21.09-.3.3-.34.65-.03.24-.01.57.01.9.04.46.12.93.22 1.37.05.26.16.29.34.1l.41-.39c.35-.35.65-.69.95-1.08.26-.34.3-.67.2-.99-.08-.27-.27-.38-.47-.38-.22 0-.3.17-.35.34-.09.27-.18.47-.27.67-.07.15-.2.37-.26.44-.01 0-.04-.01-.06-.03 0-.12.05-.35.06-.44.07-.31.14-.57.18-.85.01-.13.01-.27-.01-.38-.14-.02-.46 0-.61.07zm25.74 2.81c-.13.08-.25.22-.24.29.01.1.13.2.2.3.1-.05.2-.17.24-.27.02-.07-.11-.17-.2-.32zm1.12.71c-.09.06-.2.16-.27.25-.13.18-.05.37.16.51.17.13.37.12.48-.05.1-.13.2-.22.25-.43-.04-.13-.14-.26-.26-.33-.1-.06-.26-.03-.36.05zm-2.36.13c.18-.01.38.16.38.42 0 .2-.12.31-.3.31-.25 0-.43-.16-.43-.38-.01-.17.16-.35.35-.35zm8.96-.09c-.05.01-.14.05-.2.09-.08.1-.55.72-.51.77.04.06.21.06.55.13.12-.25.22-.48.31-.72.02-.05-.06-.18-.15-.27zm-7.49.56c-.24 0-.42.14-.44.35 0 .18.2.34.4.34.22-.01.39-.17.41-.37 0-.21-.13-.32-.37-.32zm-19.13-1.09c-.16.08-.22.25-.25.38-.05.25-.12.42-.17.55-.05.1-.13.25-.24.33-.04-.12-.06-.39-.05-.51.01-.2.09-.46.22-.74-.31 0-.86.39-.95.67-.01.04-.01.09-.01.13.01.43.1.85.34 1.23.14.22.26.27.48.12.37-.26.76-.52 1.07-.85.25-.25.44-.56.61-.86.1-.21-.12-.27-.33-.38-.27-.14-.57-.14-.72-.07zm18.19 1.91c-.21 0-.34.13-.34.31s.18.35.39.35c.16-.01.3-.17.3-.35.02-.17-.14-.31-.35-.31zm-6.29-.6c-.08.29-.22.57-.23.88 0 .2.09.4.25.55.09-.06.16-.2.16-.26.04-.37.06-.74.06-1.12.03-.17-.19-.21-.24-.05zm7.55.64c-.29 0-.54.22-.54.46.01.25.34.52.63.52.26 0 .44-.18.44-.43.01-.33-.21-.55-.53-.55zm7.91-2.4c-.26.04-.43.25-.59.6.01.06.04.16.09.17.14.05.42.1.46.13.05.04.22.22.26.37-.04.12-.2.25-.39.29-.26.05-.27.26-.22.53.04.26.13.48.34.76.18-.1.26-.14.39-.29.16-.16.2-.31.18-.51-.04-.56.27-.98.67-1.36l.09.05c-.07.33-.24.56-.27.89-.08.67-.3 1.23-.97 1.67.05.09.2.12.33.12.26 0 .43-.1.54-.21.27-.25.5-.55.6-.93l.1-.33c.01 0 .08.01.09.03l.04.3c0 .13-.01.24-.03.44-.01.1-.01.25.01.35.16-.06.24-.16.33-.26.25-.57.36-1.43.13-1.97-.18-.44-.47-.63-.91-.67-.16-.01-.3-.04-.51-.07zm-34.15 2.78c-.24.13-.43.26-.56.4-.21.22-.17.37-.01.48.18.13.43.27.76.35.04-.2.09-.51.14-.71.1-.16.29-.27.46-.35.35-.17.76-.2 1.27-.24.04-.01.12.06.12.1s-.05.12-.09.13c-.12.05-.25.09-.35.12-.07.01-.24.05-.24.13 0 .15.14.2.38.18.27-.01.56-.05.89-.1.21-.05.44-.1.46-.37.01-.24-.27-.37-.46-.42-.71-.19-1.87-.15-2.77.3zm25.32.52c-.21 0-.35.13-.35.31 0 .21.22.42.44.41.18 0 .3-.14.3-.33 0-.23-.14-.39-.39-.39zm-24.07.17c-.18.01-.37.18-.43.44-.04.26.12.44.4.5.59.13 1.14.24 1.68.24.21 0 .24-.03.25-.2.01-.16.01-.3.01-.46v-.51c-.16 0-.36.04-.52.08-.31.08-.47.1-.77.08-.16-.01-.45-.13-.62-.17zm12.55-.03c.02.25.17.63.17.94 0 .18-.01.27-.06.4-.13.34-.51.51-.82.51-.37 0-.57-.08-.69-.44-.06-.21-.13-.85-.17-1.08-.08-.08-.2-.12-.38-.17-.09-.03-.1-.09-.12-.17.13-.07.37-.13.53-.16.38-.06.38-.04.44.31.05.4.12.82.2 1.23.01.13.09.26.29.26.16 0 .26-.1.26-.29 0-.31.01-.68 0-1-.06-.08-.18-.25-.3-.37-.14-.17-.16-.22.05-.3.49-.19.53-.31.6.33zm13.26-1.39c-.22.24.06.74.6 1.04-.12.34-.1.85.43 1.15l-.07.09c-.38-.04-.77-.38-.74-.99-.2.27-.43.52-.64.63.01.21.53.51.89.65.21.27.35.4.61.71.16-.41.35-.74.42-.97-.03-.61-.13-1.15-.31-1.42-.29-.33-.75-.61-1.19-.89zm-11.33.83c.03.18.03.29.01.47 0 .06-.03.27-.07.39-.06-.01-.1-.01-.16-.04-.17-.27-.39-.39-.57-.36-.17.03-.26.16-.13.3.09.1.2.17.31.25.17.1.37.18.53.29.41.22.38.52.33.74-.06.27-.26.47-.59.47-.21 0-.41-.05-.64-.2-.05.03-.12.09-.25.22-.05.05-.14.13-.22.16l-.14-.09.24-.56c.08-.22.17-.25.38-.1l.2.16c.16.13.37.24.56.14.18-.09.08-.34-.1-.44-.29-.17-.5-.22-.84-.43-.21-.13-.3-.31-.3-.57 0-.22.16-.48.43-.51.1-.03.24-.03.39-.03.18 0 .3-.03.42-.18.09-.13.18-.19.21-.08zm-4.51.88c0 .04.01.08-.01.1-.29.21-.26.3-.22.57.04.26.04.55.05.77.04.1.1.25.18.34.17-.05.37-.18.37-.24l.04-.56c.05-.06.13-.12.18-.16.05.05.08.09.1.14.09.21.13.34.21.57-.05.09-.16.17-.25.24-.29.2-.81.31-1.18.55-.17.12-.09-.3-.1-.46l-.18-.98c-.03-.16-.18-.39-.31-.53-.1-.12.2-.17.34-.21.18-.07.4-.13.57-.18.05 0 .18.03.21.04zm-2.18 1.16c-.25.03-.32.12-.3.39.01.18.16.69.21.99.03.16.07.27.29.25.3-.04.4-.17.36-.4-.04-.27-.1-.55-.16-.82-.04-.28-.16-.42-.4-.41zm.5-.31c.09 0 .38.12.42.2.09.44.13.83.17 1.32-.06.21-.14.42-.48.6-.18.09-.48.22-.82.22-.16 0-.27-.04-.3-.18-.09-.48-.2-.94-.27-1.41-.01-.12.09-.27.18-.35.29-.3.7-.38 1.1-.4zm5.94 1.74c-.48-.01-.91.1-1.34.25-.01.01-.01.01-.01.03-.03.29.17 1.03.3 1.2l1.23-.29c.33-.09.51-.43.48-.74-.04-.24-.17-.37-.42-.42-.08-.01-.16-.03-.24-.03zm17.78-3.85c-.12.05-.21.13-.12.29.09.13.08.24 0 .37-.12.24-.21.5-.34.77-.05.18-.06.31-.08.53l-.13 3.13c0 .03-.01.07 0 .09.01.05.04.12.09.16.05-.04.1-.08.13-.12.07-.17.12-.34.16-.52.09-.51.24-.52.26-1.03.04-.52.04-1.06.03-1.58.05-.04.12 0 .14.01.01.35.05.61.1.97.01.08.05.18.08.24.05-.03.14-.08.17-.12l.13-.64c.3-.9.08-1.62-.3-2.44-.06-.16-.17-.18-.32-.11zm-33.87 2.81c.61.14.71.13.82.42.12.26.24.71.42 1.02.04-.01.09-.04.12-.07.03-.29.01-.71.03-.9.01-.16.08-.24.25-.24.13 0 .46.01.59.04.01.03.01.05.01.09 0 .08-.11.1-.13.12-.29.1-.3.13-.43.94l-.14.93c-.01.06-.04.21-.08.3-.08.01-.22 0-.25-.06-.2-.5-.46-1.02-.72-1.46l-.08-.01c-.04.1-.06.24-.09.36-.01.03-.02.08-.02.13v.07c-.03.22.04.56.22.74l.08.08-.04.14c-.17.01-.68-.06-.86-.12-.12-.04.22-.22.25-.43.06-.43.17-1.15.17-1.66 0-.09-.21-.18-.21-.26-.01-.07.05-.14.09-.17zm19.61-.99c-.03.16.09.42.17.48.39.38.78.7 1.19 1.03.26.2.54.35.86.44.5.13.9.42 1.2.81.09.13.18.26.29.39.21.26.48.44.85.5.06.01.14 0 .21 0-.05-.22-.05-.25-.21-.4-.67-.61-1.37-1.16-2.13-1.67-.46-.3-.9-.63-1.33-.95-.2-.14-.35-.22-.55-.37-.13-.08-.36-.24-.55-.26zm-16.95 2.43c-.07.64-.05.64-.05 1.08 0 .25.12.25.34.26.2.01.26-.17.3-.41l.13-.89c.04-.29.05-.46-.12-.48-.33-.03-.58.16-.6.44zm5.59-1.62.13.34c.04.1.09.24.1.36.01.09.01.16-.01.21-.01.03-.06.01-.12-.01-.27-.12-.57-.3-.82-.13-.09.06-.05.22.07.27l.77.31c.34.13.43.29.37.71-.07.39-.35.55-.69.64-.14.04-.29.05-.48.04-.03.12.01.26-.08.31-.06.04-.08.03-.14.05-.04-.08-.1-.26-.13-.34-.01-.05-.13-.41-.13-.61 0-.08.03-.09.05-.12.12.04.22.2.39.37.21.06.57.13.63.06.1-.13.14-.21.14-.26 0-.09-.12-.17-.22-.22-.27-.14-.42-.2-.71-.31-.26-.1-.3-.34-.3-.56 0-.24.12-.48.5-.61.12-.04.33-.09.44-.12.03-.08.05-.34.05-.39.05-.02.17-.03.19.01zm-5.59.86c.38.04.68.1.95.17.1.07.31.38.33.42.05.17.05.35.05.52-.1.44-.24.82-.3 1.04-.04.18-.12.33-.4.31-.24-.01-.51-.04-.78-.12-.29-.08-.36-.18-.38-.29-.09-.52-.04-1.24.09-1.74.02-.06.32-.25.44-.31zm3.56-.28c-.06.14-.12.25-.14.46-.04.29-.09.55-.1.82.04.42.13.83.16 1.19 0 .03-.05.06-.1.09-.08-.03-.16-.08-.21-.13-.35-.35-.6-.68-1.04-1.11-.04.05-.07.14-.07.2.08.27.2.57.38.83.12.16.14.21-.14.31-.16.05-.42.12-.6.09-.01-.1.11-.24.12-.3.03-.14.03-.34.03-.48.01-.38-.06-.99-.06-1.36l.21-.13c.06-.03.12.01.2.08.18.18.57.61.76.78.01 0 .04-.04.05-.05v-.27c0-.2-.04-.34-.09-.55-.07-.24-.24-.41-.05-.42zm10.9 1.18c-.03.13-.09.44-.1.59-.01.16-.03.29-.05.39-.25-.05-.6-.06-.93-.03-.31.04-.93.22-.93.6 0 .35.52.4.85.4.42 0 .76-.04 1.19-.3.4-.25.57-1.1.47-1.51-.03-.13-.08-.22-.14-.29-.14-.12-.28-.08-.36.15zm-3.09-4.76c-.94.14-1.68.37-2.56.78-.88.43-1.75.91-2.4 1.3-1.14.71-2.44 1.03-3.55 1.03-.84 0-1.38-.03-2.22-.12-1.14-.12-2.26-.31-3.26-.9-.22-.12-.35-.08-.44.16-.05.13-.1.27-.2.64-.18.74-.39 1.76-.25 2.74.07.52.29.94.78 1.14.72.3 1.67.47 2.47.48.95.03 2-.05 3.12-.26 1.62-.3 3.58-1.02 5.04-1.76.98-.5 1.97-.9 3.05-1.16 1.15-.27 2.18-.38 3.39-.09.5.12.6.12.53-.25-.04-.24-.1-.47-.14-.72-.12-.84-.09-1.62-.41-2.34-.06-.16-.21-.3-.46-.43-.24-.13-.55-.21-.8-.24-.54-.1-1.17-.08-1.69 0zm10.47 6.4c-.05.04-.04.17-.04.27.06.65.13 1.42.21 2.08.05.55.12.99.21 1.54.04.25.16.31.38.2.34-.16.67-.33.99-.51.3-.17.48-.34.39-1.03-.13-1.03-.91-1.76-1.5-2.27-.21-.17-.33-.25-.42-.27-.08-.03-.16-.04-.22-.01zm7.19 1.91c-.41.22-.74.53-1.11.82-.04.04-.06.17-.04.18.08.05.17.1.24.08.18-.07.38-.16.55-.25.12-.05.22-.13.34-.18 0 .07-.01.12-.04.16-.31.35-.55.77-.98 1-.05.01-.08.1-.07.16.03.07.09.14.14.14.13-.01.39-.16.48-.22.26-.21.38-.34.64-.56.09.13.14.24.01.35-.06.08-.14.13-.22.2-.14.14-.33.27-.48.43-.05.05-.05.11-.03.14.03.04.1.07.13.05.18-.03.35-.1.5-.2.17-.12.33-.27.48-.44.01.03.1.12.09.13-.13.2-.29.39-.46.62.03.04.12.08.2.05.09-.01.26-.09.34-.16.16-.12.27-.34.27-.51l-.09-1.91c0-.05-.08-.16-.12-.16-.25.01-.56-.04-.77.08zm-12.1-3.68c.16.05.27.16.31.26.04.18.08.37.09.54.05.5.01.98-.01 1.46-.08.94-.16 1.81-.13 2.74.01.14.04.33.09.46.12.29.05.59-.17.91l-.14-.06c-.1-.39-.37-.93-.48-1.34-.01-.08 0-.14.1-.16.17-.04.29-.14.3-.27.01-.17.01-.37-.01-.54-.08-.22-.16-.43-.18-.63-.01-.08-.03-.16 0-.22.13-.46.22-.93.18-1.4-.04-.55-.03-1.07.01-1.61 0-.05.02-.09.04-.14zm3.47 9.79c-.33.12-.46.2-.78.33-.14.05-.2.12-.05.22l.37.27c.34-.2.43-.34.73-.52.12-.08.1-.09.04-.21-.08-.13-.14-.13-.31-.09zm-7.79.44c-.12-.04-.44-.12-.52-.06-.04.03-.13.14-.24.33l.16.08c.1.05.2.1.29.13l.13.05c.01-.06.07-.18.13-.29l.04-.07c.01-.03.01-.06.02-.09zm21.5-13.54c-.26.04-.51.06-.77.12-.57.12-.57.2-.63.36-.27 1.02-.46 1.48-.64 1.91-.08.18-.17.34-.35.42-.25.12-.2.25-.26.48-.1.47-.17.44-.37.9-.16.4-.33.64-.55.87-.03 0-.1.01-.13 0l-.04-.65c-.05-.43-.14-.34-.21-.78-.01-.13-.01-.27-.01-.41.04-.26.09-.5.12-.76.04-.39.09-1.07.09-1.46-.04-.03-.08-.08-.13-.12-.06.05-.09.1-.12.17-.08.3-.22.77-.27 1.08-.09.72.06 1.41 0 2.13-.06.64-.18 1.24-.1 1.89l.03.37c.24-.03.22-.05.55-.18.44-.17.76-.24 1.2-.63.31-.27.26-.81.38-1.24.14-.54.35-.72.56-.81.05-.01.12.01.18.03-.13.3-.2.46-.31.77-.1.27-.21.72.09.77l.22.04c.01.05.01.13-.03.17-.29.27-.51.6-1.8.97-.14.04-.47.43-.48.59-.03.2-.03.43.01.77.13 1.28.77 2.49 1.49 3.68.6 1.02 1.04 1.79 1.71 2.45.3.27.63.48 1.14.25.27-.13.61-.34.69-.42.05-.05.06-.14.05-.22-.29.04-.89.12-1.24.13-.1 0-.22-.01-.34-.04.05-.1.09-.14.14-.17.43-.22.89-.42 1.2-.67.17-.13.14-.26.09-.38-.59.26-1.14.38-1.76.48-.04 0-.06-.04-.09-.06.48-.37 1.12-.65 1.48-.97.24-.2.06-.25-.01-.33-.51.18-1.02.34-1.55.5-.05.01-.17-.01-.25-.03v-.06c.05-.04.13-.12.2-.14.5-.24 1.11-.67 1.49-.98l-.03-.13-.17-.01c-.42.06-1.33.2-1.83.25l-.16-.04c-.01-.04-.01-.09 0-.13.39-.18.71-.39.99-.69.1-.12.08-.22.05-.27-.08.04-.24.09-.34.13-.38.09-.44.09-.99.13l-.03-.05c.01-.05.04-.09.08-.16.38-.14.46-.27.67-.4.13-.08.4-.27.47-.38.03-.04.01-.14-.01-.17-.46.14-.76.22-1.16.27-.06 0-.14-.01-.21-.04.04-.09.05-.16.1-.18.55-.27.83-.39 1.21-.63.12-.08.22-.25.27-.34l-.04-.05-.21.06c-.64.25-.95.3-1.14.34-.08-.01-.13-.06-.21-.13.05-.07.1-.13.16-.16.72-.27 1.23-.52 1.58-.74.38-.22.74-.55.9-.68.21-.18.39-.38.47-.53l-.06-.1c-.72.48-1.03.71-1.31.87-.53.33-1.08.55-1.42.67-.05 0-.12-.03-.16-.05.01-.04.04-.1.06-.14.09-.09.35-.38.56-.67.63-.29 1.06-.44 1.53-.74.44-.27.63-.43.77-.57.05-.05.08-.2.04-.3-.44.21-1.12.59-1.72.81l-.1-.05c.03-.1.08-.2.14-.3.41-.26.98-.68 1.44-1.18.01-.06.04-.14 0-.21l-.27.13c-.23.12-.64.26-.91.35l-.05-.05c.03-.12.05-.21.1-.31.55-.46.81-.76 1.08-1.15.05-.08.05-.16 0-.3-.31.22-.74.35-1.08.48l-.1-.03c-.01-.12 0-.09.04-.18.4-.36.74-.65.99-1.07.03-.04.01-.16-.03-.24-.34.12-.59.21-.95.3-.04 0-.08-.01-.12-.03.01-.12 0-.14.04-.24.25-.21.5-.5.72-.84.06-.09.05-.17.01-.24-.17.04-.5.09-.65.1-.06.01-.16-.06-.2-.14.08-.05.18-.13.24-.16l.38-.27c.04-.04.08-.1.1-.17-.08-.01-.15-.05-.2-.04zm1.51 14.33-1.62.53c.38.43 1.48.08 1.62-.53zm-14.99.23c-.27 0-.51.13-.5.27.01.16.22.35.39.35s.27-.18.27-.42c0-.16.01-.2-.16-.2zm14.98.52-.38.35c-.26.06-.5.12-.78.16-.05.05-.09.09-.13.16.05.06.09.1.14.12.34 0 .68-.01.94-.09.08-.06.13-.12.16-.17.04-.07.12-.3.14-.5zm-32.73-1.1c-.05.04-.13.09-.16.14-.14.39-.29.78-.4 1.2-.04.1-.04.25 0 .37l.41 1.15.21.57c.04.08.14.13.21.18.05-.08.13-.16.14-.22l.12-1.64v-.01c-.13-.55-.27-1.08-.42-1.62 0-.05-.09-.13-.11-.12zm2.93 1.78c-.29.16-.56.39-.8.71-.17.33-.36.63-.53.94-.06.16-.17.51-.21.74l.1.1c.21-.08.73-.52.77-.56.44-.44.55-.85.8-1.72.01-.03.04-.1.04-.1zm17.81-20.22c-.56.09-1.27.3-1.96.53-.38.13-.43.43-.22.78.06.08.12.18.17.26.09.14.05.25-.08.33l-.18.13c-.21.16-.24.34-.11.57.04.08.09.14.16.21.16.14.16.26.01.43-.18.2-.24.43-.14.72.06.2.22 1.33.22 1.55-.01.59.1 1.18.06 1.72-.03.4.18.76.56 1.19.42.47.73.89 1.29 1.44.68.64 1.04 1.41 1.11 2.34.03.44.24.6.65.82.89.25 1.19.74 1.29 1.42.18 1.2-.41 2.36-1.49 2.26-.55-.05-.82-.39-.82-.68 0-.3.16-.61.42-.71.04-.01.2 0 .24.01.03.06.03.14.03.18 0 .08-.1.13-.14.29-.03.1-.03.31.08.44.12.14.31.2.52.13.25-.08.42-.29.53-.51.5-.9.24-1.97-.72-2.21-.3-.08-.74-.13-1.02.04-.6.37-1.11.57-1.61 1.03-.08.06-.12.18-.12.29.01.89.03 1.51.08 2.39.06 1.33.18 2.64.34 3.56.06.38.16.59.21.72.05.12.16.21.24.31.1-.08.18-.16.29-.26.16-.25.29-.5.44-.73l.12-.04c.05.04.14.09.14.14l-.05.6c-.01.22-.03.44.01.65.03.12.16.22.25.3.06-.09.14-.2.2-.3.05-.13.06-.24.1-.39.08-.08.13-.1.22-.12.05.06.08.16.08.21-.01.29 0 .55.03.71.01.1.12.13.21.16l.16-.24c.09-.18.18-.34.29-.48.09-.12.35-.37.55-.52.07-.05.2-.08.29-.06.01.1.01.21-.03.29-.22.43-.34.68-.43 1-.07.24-.12.39-.13.47.04.01.18-.01.25-.03.05-.01.13-.04.16-.17.03-.1.05-.14.06-.2.04-.09.12-.14.2-.2.09.05.17.12.21.21.07.13.08.31.18.43.07.08.1.1.21.17.05 0 .12-.03.18-.1.06-.09.13-.4.21-.51.1.01.17.05.25.14.07.08.09.25.18.33.1.08.9.1 1.04.09 0-.12-.03-.43-.03-.47-.01-.93 0-1.67.06-2.58.06-.97.17-1.96.22-2.81.04-.69.13-1.76.18-2.6l.17-.02c.07.13.21.78.21 1.02 0 .53-.04 1.02-.1 1.85-.09 1.08.03 2.18-.12 3.25-.06.52-.2 1.34-.16 2.06.01.29.05.37.22.41.52.12.88.17 1.14.17.81 0 1.33-.36 1.27-.81-.04-.24-.13-.51-.2-.89-.14-.93-.16-1.25-.18-2.13l.21-.01c.3 1.23.55 1.83.64 2.47.1.57 0 1.57.12 2.08 1.34.14 2.95.01 3.45-.09.12-1.1.09-2.23-.39-2.65-.21-.18-.81-.64-1.07-.81-.63-.43-1.18-1.19-1.44-1.59-.57-.91-.73-1.2-1.24-2.09-.47-.82-.78-1.53-1.11-2.01-.21-.33-.38-.52-.47-.61-.42-.13-.77-.17-1.21-.22-.57-.06-.95-.13-1.28-.48-.27-.29-.39-.51-.22-.89.09-.2-.03-.34-.18-.51-.16-.21-.12-.43.09-.59.39-.38.94-.76 1.51-.89.04 0 .08-.01.1-.03-.03-.12-.06-.34-.1-.46-.26.04-.55.12-1.07.12-.73 0-1.38-.3-1.65-1.25-.1-.34-.54-1.3-.65-1.74-.08-.26.01-.59.13-.95-.22-.29-.42-.6-.61-.86-.39-.17-.86-.34-1.18-.72-.13-.16-.2-.17-.31-.09-.1.08-.13.2-.27.33-.14.12-.43.13-.71.01-.26-.1-.39-.38-.38-.64.03-.35.2-.65.04-.8-.27-.29-.52-.61-.2-.84.09-.08.29-.06.41-.13.35-.21.51-.57.42-.98-.07-.29-.22-.42-.51-.44-.42-.03-.6-.24-.6-.51 0-.35.31-.5.59-.43.12.03.27.08.36.17.03.13.09.31.2.3.47-.05.83-.55.83-1.01 0-.12-.1-.2-.4-.14zm5.67 24.1c-.39.31-.78.47-1.28.56-.1.01-.24.04-.33.12-.06.05-.09.2-.06.26 0 .08.13.17.18.17.43.03.77.03 1.18-.01.42-.03.83-.14 1.28-.25.17.06.4.14.61.21.31.09.56.14.83.09.22-.04.35-.25.33-.47-.01-.2-.1-.35-.35-.42-.54-.12-1.08-.2-1.59-.38-.3-.09-.54-.08-.8.12zm-14.74.52c.06.05.17.22.12.33-.03.1-.14.24-.26.27-.77.26-1.58.47-2.43.5-.86.04-1.7-.03-2.53-.12-.18-.01-.35 0-.51 0-.04 0-.3-.01-.46-.03-.1-.01-.38-.06-.44-.09.04-.06.05-.12.12-.13.1-.01.35-.01.38 0 .5.14.95-.22 1.42-.29.1-.01.22-.03.34-.01.31.01.61.03.95-.06.14-.05.33.01.48.08.54.25 1.04.38 1.57.07.27-.18.55-.35.83-.5.12-.07.31-.07.42-.02zm-13.43.86c-.06 0-.17.2-.27.21-.34.03-.47.05-.47.21 0 .2.1.3.27.25.46-.14.72-.16 1.21-.08.04 0 .1 0 .12-.01.09-.09.16-.18.23-.27-.08-.06-.14-.16-.23-.18-.29-.08-.56-.13-.86-.13zm32.59-.49c-.34.26-.43.4-.82.69-.13.08-.53.25-.68.46-.12.14-.12.33.2.4.25.06.56.12.7.13.44 0 .76-.08 1.06-.27.22-.14.44-.34.69-.43.17-.06.39-.09.57-.13.2-.04.39-.24.41-.39 0-.22-.18-.25-.33-.3-.42-.13-.91-.12-1.34-.22-.14-.03-.34-.03-.46.06zm-17.2-10.51c.04.1.12.35.09.46-.16.6-.04 1.07.26 1.62l.56 1.45c.13.14.25.03.38.17.48.98 1.03 2.43 1.76 3.05.6.5 1.24 1.37 1.81 1.89.33.3.56 1.04.98 1.19.3.1.29.26.25.53-.05.33.08.39.21.39.2-.03.39-.08.6-.09.17-.01.3.12.29.27 0 .06-.16.18-.27.18-.22.03-.44-.01-.67-.01-.08.01-.16.05-.24.08.03.09.05.18.12.24.37.2.63.22.99.3.06 0 .12.05.2.08-.03.06-.1.21-.17.24-.12.03-.27.03-.4 0-.33-.07-.63-.21-.93-.34-.1-.04-.18-.16-.27-.22-.08-.04-.17-.05-.26-.08 0 .1-.04.2-.03.29.01.08.08.14.1.21.03.06.08.2.05.24s-.24.17-.3.13c-.26-.12-.47-.42-.72-.56-.31-.2-.6-.2-.9.01s-.57.39-.86.56c-.37.24-.74.61-1.18.61-.24 0-.82-.37-1.08-.44-.5-.16-.65-.17-1.17-.29-.43-.1-.82.07-1.27.21-.55.17-1.14.24-1.72.34-.34.06-.72 0-1.07-.01-.52-.01-1.03-.07-1.55-.05-.34 0-.72.07-1.04.17-.16.05-.33.08-.47.08-.24 0-.46-.07-.68-.21-.24-.14-.47-.2-.74-.14-.25.05-.73.14-.93-.04-.25-.25-.83-.74-1.16-.68-1.04.18-1.54.77-2.56.5-.72-.18-1.19-.35-1.89-.12-.17.06-.63-.04-.81-.01-.26.04-.35-.01-.31-.27l.03-.14c.04-.27-.22-.47-.48-.38-.3.06-.47.36-.74.5-.5.24-.97.17-1.5-.04-.36-.16-.74-.09-1.1.09-.22.12-.59.65-.83.65-.09 0-.22-.14-.26-.26v-.26c.09-.2.43-.46.57-.53.64-.3 1.29-.38 2-.26.31.05.65.09.95-.04.24-.11.48-.12.71-.24.39-.21.73-.39 1.18-.24.33-.14.5-.25.67-.5.08-.39-.06-.81.04-1.19.09-.35.24-.78.35-1.12.07-.17.18-.16.3-.14.31.47.69.9.51 1.33-.13.3.55.51.43.81-.11.22-.05.36.17.39.1.01.13.01.18.01.2 0 .21-.13.2-.38-.04-1.03-.2-1.96-.65-2.9-.1-.22-.18-.44-.29-.67-.23-.41-.19-.85-.03-1.29l.3-.89c.16-.42.51-.78.9-.94.05-.01.2.05.24.12.64.9.88 2 .56 3.08-.09.33-.16.67-.22 1.02-.01.08.01.17.03.26.07-.05.14-.1.2-.17.31-.48.64-.94.89-1.45.25-.5.65-.69 1.16-.8.55-.1.71-.04.56.5-.09.31-.18.63-.29.91-.16.5-.47.9-.93 1.12-.2.1-.47.33-.67.44-.07.04-.14.1-.21.17-.1.14-.13.13-.01.27.1.13.26.05.39-.03.26-.2.51-.34.77-.51.25-.17.52-.34.8-.46.2-.09.26-.01.25.21-.03.27-.07.63-.33.72-.29.1-.68.14-.93.27-.17.1-.33.22-.44.36-.17.26-.17.44-.31.72-.03.07 0 .17.01.26.08-.03.17-.03.24-.06.34-.25.52-.52.86-.78.27-.21.33-.18.43.14.04.1.12.2.22.29.11-.06.22-.13.3-.24.08-.09.14-.24.18-.35.08-.25.48-1.33.72-1.62.06 0 .16.05.21.08.09.21-.03.9-.01 1.04.01.42.14.51.53.31.29-.14.56-.3.85-.46.05-.04.12-.08.17-.08.09 0 .2.04.25.09.03.03 0 .14-.03.2-.1.14-.25.26-.34.42-.05.09-.04.24-.05.35.09 0 .21.01.3-.03.24-.06.46-.17.68-.27.31-.13.63-.09.97.01.33.1.65.18.97.27.25.06.53-.05.76-.16.48-.24.89-.39 1.38-.53.68-.18 1.21-.56 1.72-.99.12-.12.29-.18.42-.3.1-.09.2-.5.21-.63.08-.35-.05-1.17.01-1.54.04-.09.12-.29.17-.38 0 0 .13.04.16.04.04.13.1.34.1.44-.03.63-.04 2.02-.1 2.64 0 .14-.25.37-.39.42-1.1.4-2.21.82-3.32 1.15-.51.13-1.06.05-1.58.06-.42 0-.84-.06-1.24-.04-.33.03-.78.33-1.12.38-.91.14-1.7.08-2.6.25-.83.16-1.63.38-2.43.6-.21.07-.33.12-.5.25-.06.05-.08.14-.1.21l.13.07c.04.02.09.03.13.03.2-.03.37.04.57.01.5-.08.98-.13 1.49-.18.1 0 .25.08.34.14.25.17.5.22.77.16.3-.07.56.01.82.21.46.37.57.38 1.1.09.41-.22.85-.22 1.29-.2.53.04 1.08.08 1.62.16.4.05.81.16 1.21.21.74.08 1.37-.12 1.85-.72.25-.33.5-.64.7-.95.16-.22.34-.36.6-.36.56-.01 1.14-.14 1.7-.1.31.03.46.31.46.5-.01.18-.09.3-.3.29-.43-.03-.85-.05-1.27-.1-.43-.04-.78.09-1.04.42-.14.16-.11.26.1.31.09.01.2.05.3.07.22.03.33.13.39.34.04.13.31.26.77.29.59.04.89.04 1.4-.13.21-.06.35-.31.5-.5.34-.48.56-.6 1.16-.48.42.08.71-.36 1.07-.34.44.04.25-.59.08-.89-.16-.29-.31-.53-.6-.87-.6-.44-1.08-1.33-1.61-1.98-.39-.48-.85-.67-1.19-1.25-.22-.38-.56-1.01-.77-1.42-.14-.27-.39-.76-.56-1.02-.16-.26-.33-.53-.54-.76-.29-.29-.89-.09-1.19.06-.08.04-.25.12-.35.25.86.73.9 1.74.6 2.48-.09.24-.17.22-.42.13-.22-.08-.47-.18-.68-.27-.14-.08-.27-.04-.43.05-.65.39-1.45.93-1.58.8-.26-.26-.68-1.06-.65-1.45.01-.28.09-.52.18-.7l.06-.1-.28-.16c-.19-.12-.37-.24-.54-.38l-.01-.29c.55-.53 1.28-1.03 1.85-1.03.42 0 .93.21.91.67-.01.05-.07.18-.09.22-.04 0-.08-.01-.1-.03-.16-.34-.41-.53-.82-.46-.38.08-.72.27-.97.55-.16.17.18.27.39.39.14.08.38.21.46.29l-.04.1-.02.04-.02.11c-.13.57-.48 1.63-.23 1.68.74.13 1.75-.9 1.85-2.36-.03-.53.27-.78.85-.98.68-.27 1-.57.89-1.32-.05-.37.16-.26.37-.56.07-.13.16-.22.21-.27zm15.14-32.23c.42 0 .74.09 1.12.22.29.1.33.14.25.43-.09.29-.17.56-.25.85-.09.38-.03.43.31.63.3.17.53.3.72.52.14 0 .31-.07.38-.13.36-.74 1-1.48 1.62-1.83.27-.16.35-.14.46.13.16.4.27.78.35 1.21.03.12.04.31.06.46.08-.07.24-.27.31-.37.18-.2.34-.42.63-.68.43-.39.81-.65 1.46-.76.51-.08 1.23.03 1.7.17.31.09.06.4-.12.65-.08.13-.16.23-.25.36-.08.13-.14.14-.25.03-.16-.18-.31-.51-.47-.67-.29-.29-.8-.12-1.15.09-.72.42-1.29 1.03-1.7 1.74-.25.4-1.1 1.49-1.49 1.76-.05.03-.13.01-.2.03l.03-.18c.37-.57.97-1.62 1.03-3.25-.17-.04-.38-.01-.6.13-.21.13-.44.37-.6.63-.6.98-.76 1.97-.83 2.77-.03.25-.03.44-.25.56-.37.21-.51.3-.88.47-.09.01-.14 0-.22-.01.18-.77.05-1.31-.39-2.04-.08-.14-.18-.21-.34-.16-.09.05-.18.12-.38.27-.67.6-1.03 1.48-1.03 2.53 0 .18.18.18.3.09.16-.13.24-.24.33-.4.22-.36.41-.76.61-1.12.04-.08.14-.14.22-.17.04.08.04.18.03.26l-.16.71c-.06.29-.42.73-.71.95-.05.09-.1.25.08.26.74.04 1.19-.05 1.84-.39.68-.35 1.12-.64 1.42-.6.21.03 1.23.33 1.32.39-.05.11-.13.14-.2.21-.1.09-.6.37-.82.55-.35.29-.47.42-.4 1.01.04.26.08.51.14.76.03.08.09.2.14.21.08 0 .17-.07.22-.13.29-.35.56-.73.85-1.08.04-.04.12-.08.17-.1.01.07.03.13.01.18-.06.42-.29.74-.55 1.06l-.18.22c-.22.33-.24.38-.01.69.27.39.31.82.22 1.24-.06.3-.16.76-.22 1.2l-.77.4c-.42.25-.61.37-.8.52-.3.26-.35.47-.35.54s.06.1.2.17c.12.07.22.1.34.14.39.12 1.11-.03 1.24-.44.04-.09.09-.27.09-.44.13.03.25.03.29.14.14.43.27.73.55 1.02-.04.12-.09.21-.21.39-.17.27-.31.51-.55.46-.08-.01-.18-.04-.29-.04-.17 0-.35 0-.33.31.04.41.09.59 0 1-.05.22-.12.47-.34.46-.56-.04-.91-.44-1.45-.43-.46.01-.77-.07-1-.18-.29-.14-.48-.3-.61-.38-.59.09-1.61.27-2.27.39-.85.14-1.42.24-2.45.44-.59.12-1.24.25-1.83.38-.21.05-.2.18-.24.39-.1.48-.29.95-.37 1.44-.01.08.09.17.14.25.05-.05.13-.09.18-.16.12-.17.2-.37.33-.52.22-.25.82.01.93.34.08.21-.2.3-.17.52.01.2.29.38.29.63 0 .21-.08.35-.12.47.82.52 1.02.97 1.04 1.65.03.21.03.31.14.43.12.12.3.29.38.39.38.44.73 1.15.99 1.23.13.04.47.06.72.04l.05.14c-.08.2-.31.44-.52.51-.6.2-.9-.71-1.23-1.21-.17-.26-.34-.51-.51-.68-.26.29-.69 1.45-.67 2 .01.22.2.59.24.71.13.33.33.74.67 1.31.21.34.6.46.98.6.33.12.56.17.9.08.17-.04.24-.05.31-.12l-.01-.67c.03-.76.14-1.42.24-2.17.08-.56.09-.8.13-1.33 0-.29.21-.76.56-1.01.38-.26.53-.61.51-1.06-.01-.14.03-.3.09-.43.12-.25-.12-.25-.35-.29-.26-.04-.33-.14-.2-.38.25-.41.6-.76.87-1.15.18-.29.26-.48.33-.65-.06-.34-.04-.85.3-.86.38-.04.86-.05 1.2 0 .37.08.95.35 1.08.5.04.07.05.18.05.26 0 .09.2.16.57.53.29.27.57 1.03.08 2.21.25.14.24.38.21.64-.01.22.05.26.26.34.26.09.4.25.63.8.2.51.76 1.89 1.1 5.26-.06 1.06-.25 1.84-.46 2.7.22 1.62.48 3.6.68 6.33.17 2.57.21 3.89.26 4.95.46.04.6.13.69-.25.03-.12.05-.25.09-.36.04-.08.09-.13.16-.18.09.04.14.09.2.16l.27.82c.06.24.13.39.22.61.04.07.13.16.18.18.08-.01.13-.03.18-.08.04-.1.07-.25.08-.35.03-.27.03-.48.03-.72 0-.12.06-.2.12-.26.09.03.17.08.21.14.14.31.27.65.41.95.05.13.12.24.2.33.08 0 .16-.03.17-.1.05-.27.06-.76.05-1.14-.07-.22-.16-.46-.2-.65-.01-.07.04-.17.09-.22.05.01.12.05.17.09.46.51.88 1.07 1.29 1.7.05.05.09.14.14.17.09.04.18.04.26.04.05-.06.09-.18.08-.26-.01-.1-.14-.24-.14-.44 0-.03.03-.1.09-.22.14.03.27.08.33.16.18.2.3.35.41.52.12.2.16.29.25.46.08.07.16.1.26.13.06-.09.09-.22.08-.31-.01-.1-.14-.35-.17-.46l.08-.08c.13.03.27.1.37.21.08.08.17.24.29.42.16.25.42.46.99.54.01.05.04.12.04.17-.08.05-.21.12-.56.18-.6.12-1.36.13-2.19.04-.55-.06-1.1.05-1.61.35-.34.2-.71.17-1.11.16-.78-.04-1.58-.04-2.38-.05-1.4-.03-1.95.16-3.34.3-.54.05-.71.08-1.04.08-.61 0-1.88-.31-1.88-.71 0-.27.16-.5.16-.64 0-.17-.04-.22-.2-.26-.14-.03-.29-.05-.43-.07-.76-.04-1.5-.01-2.22.13-.4.08-.82.17-1.23.24-1.03.16-1.58-.01-2.11-.44-.37-.29-.51-.42-.76-.8-.44-.65-1.27-1.33-2.09-1.98-.88-.71-1.98-1.97-2.68-2.85-.16-.18-.43-1.07-.52-1.33-.06-.18-.21-.72-.13-1.15.1-.09.24-.2.34-.21.25-.04.63-.06.99-.21.12-.05.27-.16.34-.26.03-.05.03-.09.03-.14-.05-.04-.12-.08-.17-.06-.31.05-.73.05-1.03 0-.18-.03-.39-.1-.47-.2.1-.13.18-.22.29-.29.59-.12 1.04-.25 1.37-.52 0-.07-.01-.13-.04-.17-.38-.03-.68-.03-1.11-.13-.13-.03-.31-.14-.42-.25.12-.14.17-.2.31-.26.21-.07.34-.13.53-.24l.15-.09c.24-.14.44-.26.51-.38 0-.05 0-.1-.01-.18-.39-.01-.87-.04-1.33-.14-.06-.04-.13-.09-.16-.12.05-.12.08-.16.17-.25.31-.08.89-.13 1.2-.24.09-.06.13-.13.17-.22-.05-.06-.1-.12-.21-.17-.35-.01-.78-.05-1.14-.13-.08-.03-.14-.12-.2-.22.08-.06.16-.13.24-.14l1-.21c.09-.04.22-.14.27-.24-.05-.1-.17-.22-.27-.24-.3-.04-.51-.1-.82-.16-.06-.01-.18-.07-.26-.1l-.06-.1c.09-.06.2-.13.26-.14.18-.04.44-.12.64-.17.17-.05.35-.12.38-.25.01-.05 0-.1-.01-.13-.27-.08-.82-.03-1.07-.11-.09-.03-.17-.12-.22-.24l.24-.13c.3-.07.63-.2.86-.33.05-.08.08-.16.1-.22-.05-.04-.13-.08-.18-.09-.31-.09-.5-.16-.81-.27-.06-.06-.1-.16-.13-.22.04-.05.13-.13.2-.14l.46-.12c-.06-.16-.14-.34-.22-.46-.05-.08-.07-.09-.16-.16-.27-.16-.64-.31-.93-.5-.52-.33-1.07-.64-1.49-1.06-.5-.5-.98-1.07-1.1-1.8-.08-.43-.09-.9-.01-1.33.05-.33.24-.68.42-.99.06-.12.12-.22.05-.31-.26-.34-.48-.57-.82-.88-.14-.13-.34-.22-.51-.27-.53-.14-1.02-.17-1.33-.24-.38-.09-.64-.12-.82-.09-.14.13-.3.34-.4.6.09.35.26.9.27 1.34.38.04.83.17 1.3.44.38.24.47.37.61.84.33 1.04.42 2.39.64 3.82.21 1.36-.51 2.49-1.89 2.55-.31.01-.61.01-.95-.09-.29-.09-.52-.25-.61-.53-.13-.39-.27-.8-.39-1.19-.09-.31-.2-.68-.27-.85-.98.25-2.01.57-3.07 1.08-.91.44-1.67.86-2.64 1.25-1.85.76-3.89 1.23-5.72 1.23-.97 0-2.04-.2-2.78-.5-.67-.26-.9-.54-1.06-1.37-.09-.43-.12-1.29-.03-2.15.08-.71.2-1.19.68-2.51.21-.57.48-.85.93-1.07.33-.16.78-.3 1.14-.38.47-.1.8-.13 1.28-.1.29.01.67.07.93.17.52.2.6.63.63 1.15 0 .3.01.61-.01.91-.03.25-.01.34-.01.44.67.09 2.05.05 2.7-.09.55-.12.77-.21 1.76-.67.68-.3 1.61-1 2.68-1.56.55-.29.86-.64.91-1.06.01-.09.01-.2-.04-.27-.06-.01-.21-.01-.29.01-.3.25-.71.63-1.07.88-.1.01-.4.04-.53.08-.04-.03-.09-.09-.06-.12.34-.22.72-.43.97-.73.16-.18.08-.34-.22-.38-.34-.05-.74.09-1.06.36-.53.46-.78 1.46-.84 2.1-.12.1-.16.1-.27.16-.1-.44-.13-.97.01-1.41.05-.2.13-.35.27-.67.05-.13.01-.34-.17-.4-.12-.04-.17-.01-.22.1-.26.76-.72 1.08-1.36 1.55-.07.05-.64.36-.8.46-.27-.13-.46-.3-.71-.61-.26-.33-.63-.87-.85-1.2-.1-.14-.25-.2-.42-.18-.35.03-.89.06-1.32-.04-.48-.12-.77-.33-1.07-.74-.25-.34-.37-.41-.68-.1-.26.24-.51.48-.77.73-.08.08-.17.14-.27.21-.2.12-.33.08-.4-.16-.25-.71-.34-1.45-.34-2.21 0-.31.03-.78.04-1.1-.22-.2-.42-.33-.67-.44-.69-.33-1.21-.81-1.75-1.34-.1-.11-.16-.24-.16-.34 0-.08.05-.25.3-.39.31-.18.81-.27 1.28-.29.42-.01.97.18 1.38.14.33-.03.43-.27.38-.73-.12-1 .21-1.66.82-2.27.44-.47.41-.98.3-1.55-.05-.26-.12-.33-.38-.3-.69.16-.67.17-.8.78-.08.39-.22.8-.44 1.12-.27.45-.65.83-.97 1.22-.12.16-.25.16-.42.05-.99-.61-1.37-1.84-.9-2.9.12-.3.29-.63.47-.8l.08.04c.01.05 0 .12-.01.17l-.22.66c-.26.76-.22 1.48.29 2.13.05.05.1.13.17.16.06.04.2.05.24.01.33-.33.65-.63.94-.98.34-.39.44-.88.34-1.37-.03-.2-.05-.38-.09-.57-.02-.08-.07-.17-.12-.19-.04-.02-.12.03-.19.1-.31.31-.45.56-.6 1.15-.02.08-.07.14-.15.21-.04-.08-.08-.22-.07-.3.08-.54.21-.99.54-1.33.22-.24.17-.37-.04-.43-.76-.21-1.4-.42-1.97-1.13-.11-.13-.16-.26-.16-.38 0-.14.08-.26.25-.38.66-.45 1.33-.92 1.98-1.06.26-.06.41-.07.54-.08-.3-.94-.61-2.05-.8-3.08 0-.21.16-.78.24-.95.14-.01.33-.01.59.08.3.1.59.3.86.47.27.15.35.15.52-.1.31-.44.66-.84 1.12-1.07.16-.08.26-.13.37-.13.16 0 .27.09.42.31.24.42.46.89.7 1.32.26.45.53.47.94.18.44-.3.85-.59 1.25-.93.39-.3.49-.3.91-.01.38.26.78.74.99 1.16.04.08.91-.39.94-.6.04-.38.14-.65.29-.95.19-.38.45-.48.68-.48.22 0 .63.25.94.44.22.13.44.26.67.38.34.2.37.2.57-.13.24-.37.44-.43.93-.43.97 0 1.84.24 2.51 1.03.12.16.24.17.38.03.27-.27.53-.38 1.03-.38h.9c.2 0 .33.01.51-.25.24-.35.52-.69.92-.69.63 0 1.45.89 1.87 1.64l-.22.1c-.2-.18-.3-.27-.61-.48s-.64-.39-1.03-.55c-.38-.16-.55 0-.5.39.05.47.17.94.29 1.4.13.43.51.81.93.99l.03.16c-.07-.01-.16-.04-.26-.05-.3-.04-.55-.05-.82.03-.52.13-1 .36-1.48.56-.25.12-.25.18-.05.36.26.25.51.54.81.74.85.64 1.68.51 2.62.16l.44-.16c.39-.06.81.09 1.14.39l.94.85c.3.29.36.54.18.9-.31.6-.65 1.21-.99 1.8-.04.07-.13.18-.22.22-.12-.09-.22-.3-.1-.5l.17-.25c.31-.46.52-.98.6-1.51.08-.48-.18-.72-.64-.59l-.39.14c-.17.07-.24 0-.27-.17-.05-.16-.13-.25-.18-.4-.1-.26-.26-.35-.48-.18-.41.26-.69.51-.93.9-.3.5-.39 1.1-.39 1.71 0 .12 0 .24.03.33.01.08.08.14.13.2.06-.03.13-.08.18-.17.12-.31.2-.61.25-.95.03-.18.05-.51.12-.68.04-.09.18-.05.26-.03.2.08.27.17.3.31-.39.5-.64 1.24-.9 1.91-.04.09-.21.21-.31.21-.12-.01-.29-.12-.33-.22-.16-.42-.43-.84-.55-1.25-.29-1.42-.38-1.5-.44-1.59-.6-.97-1.24-1.74-2.11-2.41-.06-.07-.1-.14-.16-.21.08-.04.14-.1.22-.13.27-.12.55-.22.83-.31.34-.13.59-.35.74-.68.1-.18.24-.37.34-.55.14-.26.13-.4-.06-.63-.38-.42-.84-.55-1.38-.43-.53.13-.86.51-1.03 1.02-.07.18-.08.38-.09.57 0 .29.09.34.33.2l1.02-.76.22-.12c-.2.44-.47.8-.86 1.04-.26.17-.52.31-.78.46-.22.16-.3.09-.36-.17-.07-.29-.04-.57-.04-.85.01-.94-.46-1.54-1.24-1.87l-.69-.29c-.13.09-.3.33-.26.6.06.5.08.88.17 1.45.04.18.06.34.13.51.12.26.4.37.71.42.17-.08.31-.33.08-.72-.08-.16-.18-.34-.34-.67-.04-.09-.08-.17-.1-.26-.01-.04-.03-.1 0-.14.04.01.08.01.17.1.44.47.78 1 1.02 1.67.09.26.01.37-.25.39-.57.05-1.16.09-1.72.21-.91.2-1.21.53-1.55 1.14-.14.26-.21.43-.22.59.33.03.69.01 1.21-.08.57-.11.89-.2 1.26-.42.25-.29.44-.57.81-.84.1-.08.34-.1.44-.05 1.07.54 1.87 1.21 2.4 2.36.04.1.14.21.2.3.03.04.05.09.04.13-.05.03-.11.06-.15.04-.21-.06-.43-.12-.63-.2-.08-.04-.14-.16-.18-.25l-.18-.53c-.1-.22-.16-.22-.38-.14-.12.04-.24.09-.42.17-.16.07-.24.09-.27-.08-.05-.26-.12-.52-.18-.77-.1-.29-.22-.34-.5-.21-.52.27-.91.68-1.18 1.2-.25.51-.34.86-.12 2.21.05.26.26.59.51.67l2.28.71c.05.03.08.05.12.08-.01.05-.04.1-.08.13-.29.2-.59.36-.87.55-.16.09-.24.04-.3-.09-.2-.42-.54-.68-.94-.86-.14-.07-.22-.04-.29.12-.1.25-.22.6-.31.86-.05.13-.12.18-.26.08-.65-.54-1.33-.56-2.13-.46-.39.05-.57.16-.48.55.16.65.48 1.07 1.02 1.45.18.13.5.31.97.51.12-.04.24-.13.29-.22.12-.17.08-.35-.09-.51-.31-.27-.98-.59-1.3-.89-.05-.07.12-.2.24-.25.08.03.2 0 .27.05.6.27 1.06.76 1.53 1.23.25.24.37.21.44-.13.09-.27.17-.67.25-.97.01-.04.05-.08.08-.12.04.04.09.07.1.1.05.23.13.53.13.8s-.1.52-.18.78c-.05.26-.25.4-.47.35-.57-.1-1.1.13-1.63.24-.24.07-.51.13-.76.16-.14 0-.43-.09-.59-.16-.04-.03-.05-.09-.08-.13.04-.03.21-.07.26-.07.26 0 .65 0 .86-.12-.06-.09-.18-.18-.27-.25-.56-.46-1.19.03-1.67.27-.27.14-.29.18-.17.47.17.43.48.6.91.6.25 0 .48.04.73.03.1 0 .25-.03.35-.08.33-.13.61-.29.91-.42.09-.03.21.03.31.05-.03.09-.05.21-.12.26l-.74.46c-.08.04-.17.07-.22.12-.1.08-.24.21-.22.26.05.1.16.21.29.25.34.1.69.16 1.03.24.54.1.77-.04.91-.57.08-.3.18-.57.31-.85.09-.18.2-.2.3-.01.37.68.76 1.34 1.15 2.01.06.14 0 .22-.14.2-.85-.09-1.68-.18-2.53-.31-.29-.04-.57-.22-.86-.35-.44-.2-.87-.38-1.37-.37-.43.01-.68.26-.53.68.2.59.42 1.19.65 1.78.17.4.56.55.99.59.2.03.13-.12.08-.21l-.71-1.51c-.03-.05-.03-.13-.05-.2l.05-.03c.05.05.1.09.13.14.38.57.78 1.12 1.14 1.71.06.1.1.29.05.37s-.24.13-.37.12c-.89-.09-1.7-.39-2.53-.72-.09-.04-.22-.22-.2-.3.01-.04.13-.08.22-.06l.31.06c.2.04.29-.05.21-.21-.06-.13-.18-.29-.43-.39-.29-.14-.72-.34-1.27-.46-.26-.05-.43.06-.38.3.06.3.21.57.36.89.04.09.04.21.01.3-.16-.01-.35.04-1.01-.24-.61-.26-.66-.43-.67-1.12v-.14c0-.17 0-.51.04-.67.07-.22.09-.27.29-.24.68.14 1.37.33 2.05.65.2.09.39.26.6.34.17.07.26 0 .24-.18-.03-.24-.14-.42-.38-.52-.72-.3-1.44-.64-2.15-.93-.18-.08-.24-.16-.14-.34.29-.47.44-1.02.31-1.62 0-.04.05-.1.1-.16.08.01.17.06.22.13.07.08.09.17.1.27.05.51.39.86.73 1.2.67.71.67.71 1.62.47.12-.01.21-.1.31-.17-.09-.08-.18-.2-.3-.25-.17-.09-.36-.14-.56-.22-.63-.24-.81-.68-.6-1.34.22-.6.42-1.21.59-1.83.07-.29.08-.6.1-.9 0-.18.13-.18.24-.2.46-.03.93-.05 1.37-.09.35-.03.74-.43.89-.67l.46-.74c-.12-.12-.27-.18-.41-.21-.18-.04-.31 0-.53.06.1-.34.25-.67.25-.99 0-.21-.05-.46-.14-.68-.09-.21-.24-.25-.41-.12-.34.29-.61.61-.72 1.07-.09.38-.17.76-.21.97-.06.26-.04.39 0 .47.09-.04.2-.12.26-.17.11-.11.27-.21.42-.25.09-.03.24-.01.31.05-.1.12-.25.18-.35.27-.21.17-.43.33-.67.43-.25.1-.35-.04-.3-.29.05-.24.12-.47.14-.69.05-.38-.04-.73-.13-1.1-.14-.5-.24-.84-.47-1.32-.1-.21-.24-.46-.38-.64-.12-.16-.31-.1-.57.21-.42.51-.53.94-.74 1.81l-.05.17-.3.27-.13-.16c.12-.4.24-.64.24-.97 0-.39-.17-.67-.43-.89-.32.25-.62.51-.7.65-.19.33-.2.66.02 1 .34.58.29 1.17.18 1.86l-.09-.03c-.06-.51-.12-.9-.25-1.33-.06-.27-.25-.51-.4-.75-.15-.22-.28-.7-.16-.89.18-.3.73-.46.94-.74.22-.33.12-.47.39-.77.17-.2.52-.61.78-.47.8.39 1.63.48 2.52.36.38-.05.46-.04.56-.42.08-.31.13-.11.44-.21.54-.18.81-.65.81-1.23 0-.31.03-.64-.01-.97-.03-.27-.13-.55-.22-.8-.06-.17-.18-.13-.26-.01-.22.29-.59.86-.78 1.18-.12.18-.21.36-.31.56-.05.14-.12.18-.25.04s-.3-.29-.47-.4c-.29-.18-.31-.76-.2-1.12.12.06.21.21.29.39.1.25.16.52.35.61.25.13.51-.39.47-.76 0-.04-.03-.17-.08-.26-.3-.5-.94-.9-1.33-.9-.46 0-.74.56-.56 1.1.05.14.11.25.18.38-1.08.56-1.37.93-1.8 1.42-.05.07-.1.24-.05.33.21.38.13.51-.29.74-.18.1-.43.2-.63.26-.02.02-.07-.02-.12-.03.01-.04.03-.08.05-.1.26-.59.55-1.15.8-1.74.26-.64-.31-1.24-.84-1.44-.34-.13-.61-.05-.84.25-.64.85-.63 1.8.03 2.73l.06.08c.01.01.02.03.02.04.12.17.08.25-.12.26-.45.03-.91.08-1.38.11-.58.04-1.05.29-1.4.74-.1.16-.25.2-.39.09-.36-.22-.67-.16-1.04.06-.41.25-.85.38-1.32.52-.13.04-.28.05-.41.05-.06 0-.14-.05-.2-.1.04-.05.09-.13.22-.17.24-.08.5-.13.76-.2.12-.02.23-.05.27-.09.05-.06.09-.21.12-.27-.07-.09-.2-.2-.29-.21-.36-.04-.63-.03-.95 0-.83.08-1.44.47-1.96.96-.25.25-.27.5 0 .69.61.45 1.26.88 2.09.67.27-.08.54-.25.75-.43s.39-.4.56-.6c.31-.34.71-.73 1.07-.31.54.61.64 1.25 1.52 1.15.33-.04.47-.16.56-.47l.07-.38c.02-.25-.11-.37-.34-.28-.16.05-.3.14-.46.18-.09.03-.18-.01-.29-.03.01-.09.03-.21.09-.26.16-.1.34-.2.52-.27.65-.17 1.28-.3 1.92-.43.07-.01.14-.01.21 0l-.06.17c-.24.54-.55.71-.98.81-.05.06-.16.19-.24.42-.27.88-.11 1.79.47 2.42.21.24.47.43.74.6.46.26.57.69.74 1.16.1.29.22.57.35.86-.37.27-.68.57-.89.95-.09.08-.16.05-.21-.05l-.25-.63c-.24-.55-.61-.9-1.23-.95-.22-.01-.44-.05-.65-.08-.25-.03-.42.09-.51.38-.24.74-.2 1.44.47 2.13.09.09.3.3.52.39-.12.03-.24.06-.35.1-.35.12-.59.2-.89.39-.18.12-.44.31-.64.59.04.16.29.37.6.5.8.33 1.59.29 2.34.04.43-.16.46-.05.53.26l.22.98c.05.24-.08.36-.3.29-1.2-.35-2.62-.93-3.66-1.62-.39-.17-.81-.3-1.36-.41-.16.09-.29.21-.43.18-.33-.05-.99-.33-1.29-.46-.06-.04-.12-.09-.14-.14.05-.05.14-.08.18-.08.41 0 1.14.17 1.51.17.08 0 .22-.07.3-.13-.03-.07-.09-.16-.16-.2-.89-.69-1.88-.53-2.87-.36-.35.07-.38.24-.17.51.56.67 1.19 1.2 2.08 1.31.57.06 1.06 0 1.7-.05 1.02.65 2.04 1.23 3.21 1.61.01.04.01.1.03.17-.47.05-.89.08-1.29.14-.38.05-.76.13-1.12.21-.38.08-.46.31-.25.67.31.51.81.74 1.38.89.41.12.82.09 1.21-.08.48-.22.78-.61 1.24-.86.26-.14.69.01.95.09.41.13.8.3 1.2.36.67.12 1.33.17 2 .21.72.05 1.41.1 2.17.09.21 0 .44-.04.71-.05-.18.34-.31.68-.43 1.02-.08.21-.01.26.21.25.31-.01.63-.2.76-.44.03-.24.03-.46.08-.71.03-.13.07-.31.16-.33.05-.01.43.05.39.16-.08.21-.14.42-.24.63l-.17.42c.14.03.29.05.44.05.6 0 .7-.09.68-.71-.01-.17-.04-.34-.08-.51-.08-.46.01-.77.41-.98.39-.2.78-.13 1.18-.09 1.21.13 2.52.88 3.32 1.5.48.38.06.91.06 1.65 0 .46-.09.93-.08 1.16.01.38.17.57.31.68.42.33.89.65 1.33.94.46.3.68.48 1.23.67.12.04.27.04.38.03.03-.12.03-.37-.03-.56-.26-.17-.63-.26-1.04-.4-.08-.03-.16-.13-.21-.22.09-.08.22-.17.31-.18l.68-.14c.05-.01.14-.09.18-.14-.04-.06-.09-.14-.14-.16-.29-.08-.65-.14-.89-.21-.09-.03-.13-.1-.2-.18.1-.08.21-.14.33-.17l.71-.09c.05-.01.13-.05.18-.12-.03-.07-.07-.16-.12-.18-.14-.07-.86-.33-.94-.41-.06-.06-.08-.16-.1-.26.1-.05.24-.09.33-.08.25.01.34.01.59.01.08 0 .17-.05.24-.12-.04-.08-.09-.13-.16-.18-.27-.17-.38-.3-.69-.44-.16-.08-.22-.17-.25-.35.1-.03.26-.04.39-.01.21.05.33.12.55.16.06.01.18-.01.25-.03 0-.07-.01-.13-.06-.18-.08-.08-.2-.13-.3-.21-.16-.1-.43-.36-.59-.5-.05-.04-.03-.17-.04-.22.07 0 .12 0 .18.01.21.04.52.13.69.16.06.01.16.03.22.01-.01-.08-.03-.17-.08-.22-.2-.18-.39-.29-.57-.5-.05-.07-.04-.18-.03-.27l.27.05.34.08c.1.03.18.03.26.03.03-.05.04-.09.04-.16-.06-.18-.13-.35-.22-.53 0-.07-.03-.14 0-.2.05-.01.13-.01.18-.01.21.08.53.26.77.31.09.03.2 0 .31-.04-.04-.12-.12-.2-.17-.29l-.2-.3c-.03-.05 0-.13.04-.2.06.01.13.03.22.06.22.13.52.24.84.37.14.06.24 0 .27-.07.03-.08-.24-.34-.22-.46.01-.07.03-.08.06-.13.14.04.42.14.61.2l.63.1c.06-.01.09-.03.14-.05.08-.03-.01-.24-.14-.48.08-.03.2-.03.26 0 .22.09.46.24.76.26.38.04.77-.05 1.08-.1 1.36-.24 2.45-.29 3.76-.71.52-.17 1.15-.43 1.63-.67l.16.04c.38.97 1.18 1.25 1.98 1.34.24.03.5.04.74.05.24 0 .29-.07.22-.3-.2-.8-.61-1.49-1.21-2.06l-.52-.33c-.24-.24-.21-.51.04-.69.42-.29.98-.56 1.4-.82.61-.39.82-.99.78-1.63-.01-.18-.05-.3-.22-.43-.12.04-.25.13-.31.22-.14.24-.25.5-.36.74-.04.07-.07.16-.12.2-.12.06-.24.09-.34.13-.03-.1-.09-.21-.06-.31.04-.16.12-.3.21-.43.2-.27.44-.55.77-.9.04-.05.05-.14.08-.21-.08-.03-.16-.09-.24-.08-.35.08-.73.21-.99.51-.3.36-.34.47-.59.88-.35.56-.64 1.33-.8 1.98-.07.27-.17.36-.26.63-.12.38-.1.47.22.71.48.31 1.11.6 1.57.93.05.05.08.14.12.21-.07.01-.14.06-.22.06-.51-.01-.94-.21-1.31-.59-.18-.2-.33-.31-.53-.34-.47.12-1.12.31-1.62.38-.27.05-.5.17-.64.43-.1.22-.3.26-.53.18-.34-.1-.69-.22-1.04-.3-.48-.13-.99-.04-1.48.07-.08.03-.17.05-.27.05-.24.04-.29-.01-.22-.25.07-.29.16-.56.21-.85.01-.12.03-.3-.08-.36-.12.05-.29.08-.34.16-.18.27-.33.56-.5.86-.12.24-.16.24-.4.13-.27-.12-.65-.33-.99-.6-.24-.38-.48-.69-.61-1.02-.04-.09.09-.16.21-.16.26.21.57.47.81.71.16.17.21.34.31.57.03.05.29.04.33-.05s.08-.22.12-.4c.08-.35.03-.84-.29-1.15-.39-.39-.65-.47-1.19-.84-.67-.46-.76-.43-1 .01-.2.36-.33.77-.33 1.23.18 1.07.43 1.5 1.72 2.17-.01.05-.04.1-.1.17-.08.08-.13.12-.27.12-.46-.01-1.1-.03-1.59-.06-.14-.01-.24-.05-.26-.13-.42-1.59-.2-3.25.57-4.72.08-.14.18-.27.31-.34.27-.14.69-.33.97-.44.16-.06.23-.01.3.14.12.42.16.72.2 1.07.01.22.03.44.12.48.21.09.39-.08.5-.26.39-.64.5-1.36.21-2.13-.03-.07.04-.21.12-.25.89-.37 1.72-.73 2.62-1.08.51-.03 1.15.03 2.05.17.16.03.47.29.8.47-.42.21-1.02.65-1.44 1.06-.12.12-.26.27-.16.61.34-.03.52-.12.78-.2.41-.12.65-.17.98-.17.08 0 .18.01.26.03-.01.1-.05.21-.12.27-.12.1-.3.08-.43.16s-.26.22-.18.38c.06.11.25.22.37.21.42-.03.81-.08 1.24-.21.2-.16.93-1.12.51-1.21-.24-.05-.74-.09-.97-.2.04-.14.14-.26.26-.3.24.04.5.1.85.14.33.01 1.32.05 1.72-.11.24-.09.31-.18.24-.33-.37-.67-.87-1.19-1.61-1.4-.31-.09-.69-.03-1.02-.03l-2.82-.03c-.06 0-.13-.05-.2-.09l.1-.08c.02-.01.03-.02.05-.03.27-.16.57-.29.84-.47.41-.27.65-.67.77-1.16.03-.08.03-.18 0-.27-.26-.97-.8-1.66-1.88-1.79l-.55-.09c-.2-.01-.27.08-.27.26 0 .34.01.52 0 .88 0 .18.09.24.29.26.5.08 1.02.24 1.49.43.29.12.34.29 0 .59-.17.13-.48.34-.8.56-.13.08-.2.01-.21-.12-.03-.21-.03-.43-.05-.64-.01-.07-.06-.14-.12-.2-.21.04-.35.18-.42.35-.1.27-.17.53-.22.81-.06.35-.27.57-.6.69-.16.05-.3-.01-.27-.16.03-.18.06-.35.12-.52.25-.61.38-1.14.33-1.72-.05-.41-.08-.8-.09-1.2-.01-.18.09-.34.27-.39.47-.18.91-.36 1.41-.52.17-.07.31.01.44.17.33.39.65.78.99 1.18.26.29.34.27.56-.04.21-.3.43-.57.77-.76.17-.09.17-.25-.03-.33-.38-.14-.76-.22-1.15-.35-.09-.03-.18-.03-.27-.07-.07-.03-.14-.1-.14-.16 0-.05.08-.13.14-.16.55-.2 1.08-.4 1.62-.6.1-.03.22-.08.33-.13.17-.08.26-.22.24-.4-.01-.24-.08-.44-.12-.67-.04-.21-.17-.37-.39-.39-.41-.05-.84-.03-1.21.18-.29.16-.53.34-.78.59-.13.13-.18.34-.14.48.1.01.2.01.27-.01.42-.12.69-.25.94-.39.16-.17.27-.35.37-.35.05 0 .14.22.17.3-.08.1-.17.21-.86.51-.42.2-1.33.56-2.01.81-.93.34-1.37.4-1.83.51-.05 0-.1 0-.13-.04-.03-.01-.01-.08.01-.13.25-.43.52-.89.8-1.33.02-.06.11-.09.23-.08 0 .08.01.17-.01.24-.08.18-.19.35-.29.53-.01.05-.03.14-.01.16.04.04.12.07.17.05.57-.13 1.07-.73 1.08-1.31 0-.22-.1-.3-.33-.29-.34.03-.71.05-1.03.14-.61.16-.98.59-1.18 1.15-.09.26-.14.52-.2.8-.05.29-.3.39-.55.54-.43.26-.65.21-1.02.27-.3.05-.5.1-.68.16-.08.03-.16.04-.24.05 0-.1-.03-.2 0-.26.21-.33.39-.65.61-.95.3-.46.22-.71-.27-.89-.77-.25-1.63.04-2.09.74-.26.42-.46.91-.64 1.37-.12.27 0 .44.29.5.44.08.98-.08 1.38-.2-.03.13-.04.64-.08.74-.08.18-.17.37-.27.56-.16.29-.34.38-.65.24-.47-.22-.93-.47-1.37-.74-.52-.31-1.03-.52-1.62-.52-.06 0-.13-.01-.18-.03-.18-.04-.2-.1-.08-.22.14-.16.16-.3.06-.48l-.6-1.12c-.13-.24-.27-.55-.29-.65.14-.03.69.16.71.26.05.34.08.51.18.85.07.22.22.42.37.59.06.08.22.16.3.12.09-.03.18-.17.2-.27.04-.33-.39-.85.17-2.06.25-.54 1-1.47 1.5-1.47.26 0 .47.12.63.5.09.18.16.6.24.77.06.18.16.26.34.25.48-.07 1.14-.35 1.67-.42.34-.05.6.8.77 1.1.26.46.38.85.68.37.26-.44.53-.89.81-1.32.12-.17.3-.31.48-.42.68-.38 1.53-.46 2.21-.38.24.03.3.12.25.35-.04.14-.05.29-.09.43-.03.09.01.14.05.16.05.01.14 0 .24-.07.1-.06.27-.21.37-.3l.25-.27c.45-.51.89-.76 1.79-.76zm9.68 49.86h-.51v2.6h.67c.98 0 1.43-.52 1.43-1.3.01-.64-.29-1.3-1.59-1.3zm-4.58-.86v1.85h-.45l-.17-1h-2.21v2.48h1.62l.13-.73h.43v1.93h-.42l-.13-.72h-1.62v1.96c0 .43.02.49.05.52s.1.05.68.05h.81c.53 0 .76-.03.87-.15.13-.13.27-.46.44-1.18h.45l-.19 1.82h-3.63c-.61 0-1.27.02-1.74.03v-.42l1.13-.09v-5.49l-1.13-.1v-.42c.61.02 1.05.03 1.39.03h3.15l.1-.37zm-37.04 0v1.85h-.45l-.17-1h-2.21v2.48h1.62l.13-.73h.42v1.93h-.42l-.13-.72h-1.62v1.96c0 .43.02.49.05.52s.1.05.68.05h.79c.53 0 .78-.03.89-.15.13-.13.27-.46.44-1.18h.45l-.19 1.82h-3.63c-.61 0-1.27.02-1.74.03v-.42l1.13-.09v-5.49l-1.13-.1v-.42c.61.02 1.05.03 1.32.03h3.22l.1-.37zm18.74 0v1.85h-.45l-.17-1h-2.21v2.48h1.62l.13-.73h.42v1.93h-.42l-.13-.72h-1.62v1.96c0 .43.02.49.05.52s.1.05.68.05h.92c.53 0 .78-.03.89-.15.13-.13.27-.46.44-1.18h.45l-.19 1.82h-3.76c-.61 0-1.27.02-1.74.03v-.42l1.13-.09v-5.49l-1.13-.1v-.42c.6.02 1.05.03 1.39.03h3.15l.1-.37zm20.11.33c.6.02 1.05.03 1.39.03h1.59c1.38 0 2.58.48 2.58 1.73 0 .88-.65 1.38-1.46 1.62.64.98 1.27 1.87 2.02 2.64l.69.08v.42l-1.84-.03c-.7-.93-1.39-1.91-2-2.9h-.7v2.41l1.07.1v.42c-.49-.01-.84-.03-1.25-.03h-.75c-.42 0-.84.02-1.32.03v-.42l1.13-.1v-5.49l-1.13-.1v-.41zm-8.36 0v.42l-1.13.1v5.49l1.13.1v.42c-.49-.01-.9-.03-1.32-.03h-.75c-.42 0-.83.02-1.32.03v-.42l1.13-.1v-5.48l-1.11-.1v-.43c.6.02 1.02.03 1.29.03h.75c.28.01.73-.01 1.33-.03zm-25.28 0v.42l-1.13.1v4.96c0 .31 0 .42.06.47.03.04.37.05.77.05h.33c.6 0 .79-.06.88-.15.13-.13.29-.47.48-1.42h.45l-.14 2.06h-3.4c-.66 0-1.2.02-1.68.03v-.42l1.13-.1v-5.49l-1.13-.1v-.42c.61.02 1.05.03 1.32.03h.75c.25.02.7 0 1.31-.02zm21.13 0v.42l-.75.1-2.11 6.04h-.84l-2.1-6.04-.8-.1v-.43l1.43.03 1.62-.03v.42l-1.04.1 1.59 4.82 1.58-4.82-1.04-.1v-.42l1.34.03zm-14.41-.35v1.9h-.43c-.04-.28-.1-.56-.17-.84-.28-.2-.67-.31-1.03-.31-.63 0-1.09.29-1.09.93 0 1.44 3.08 1.45 3.08 3.51 0 1.12-.9 1.77-2.09 1.77-.63 0-1.21-.19-1.62-.45l-.12.51h-.43v-2.17h.43c.04.3.11.68.18.95.37.4.97.67 1.5.67.7 0 1.09-.4 1.09-1.03 0-1.48-3.08-1.49-3.08-3.51 0-1.07.88-1.67 2-1.67.45 0 .88.09 1.21.22l.13-.49h.44z" fill="currentColor"></path>
</svg>