<svg xmlns="http://www.w3.org/2000/svg" width="51" height="56" viewBox="0 0 51 56">
<path fill="#25222C" d="M48.27,0.56c-0.09,0.09-0.17,0.17-0.24,0.26c-0.26,0.33-0.42,0.73,0.01,0.8c0.37,0.05,0.86,0,1.1,0.16
	c0.22,0.14,0.42,0.29,0.51,0.34L49.75,2c-0.24-0.5-0.68-1.15-0.86-1.38C48.65,0.31,48.53,0.29,48.27,0.56z M44.54,2.14
	c0.04,0.01,0.14,0.04,0.22,0.1c0.13,0.1,0.14,0.24-0.03,0.3c-0.42,0.2-1.11,0.56-1.55,0.73C43.1,3.31,43,3.33,43.04,3.17
	C43.11,2.9,44.17,2.14,44.54,2.14z M9.4,2.13c0.22,0.46,0.24,1.19-0.07,1.53C9.22,3.2,9.25,2.78,9.35,2.33L9.4,2.13z M28.57,2.43
	c-0.07,0.22-0.9,1.15-1.2,1.28c-0.03-0.17-0.09-0.48,0.03-0.59C27.7,2.87,28.21,2.61,28.57,2.43z M12.05,2.92
	c0.34,0.12,0.94,0.3,1.28,0.43c0.22,0.1,0.29,0.3,0.33,0.6c-0.05,0.01-0.12,0.06-0.16,0.04c-0.46-0.26-1.12-0.61-1.54-0.89
	c-0.03-0.03-0.04-0.09-0.07-0.14L12,2.92C12.01,2.92,12.03,2.92,12.05,2.92z M26,0.61c-0.56,0.48-1.06,1.33-1.06,2.09
	c0,0.12,0.01,0.33,0.09,0.36c0.08,0.04,0.34-0.21,0.46-0.35c0.16-0.18,0.27-0.37,0.42-0.55H26l-0.04,0.18
	c-0.09,0.44-0.35,0.8-0.67,1.11c-0.17,0.16-0.21,0.4-0.09,0.52c0.24,0.21,0.5,0.03,0.67-0.14c0.35-0.39,0.57-0.88,0.77-1.34
	c0.25-0.59,0.2-1.32-0.09-1.8C26.41,0.48,26.18,0.46,26,0.61z M37.6,2.48c-0.09,0.09-0.17,0.17-0.24,0.26
	c-0.26,0.33-0.24,0.43,0.16,0.63c0.27,0.12,0.57,0.21,0.78,0.39c0.2,0.17,0.5,0.52,0.59,0.57l0.09-0.35
	c-0.03-0.42-0.42-1.21-0.6-1.45C38.15,2.23,37.87,2.21,37.6,2.48z M7.04,2.21c-0.38,0.05-0.76,0.1-1.12,0.24
	C5.57,2.56,5.49,2.91,5.74,3.16c0.39,0.38,0.77,0.76,1.18,1.08C7.26,4.52,7.65,4.58,8.03,4.5c0.18-0.04,0.33-0.16,0.33-0.31
	c0-0.12-0.04-0.21-0.13-0.31c-0.07-0.06-0.21-0.14-0.3-0.18L6.96,3.34c-0.01-0.05,0-0.17,0.01-0.2l0.55,0.08
	C7.78,3.28,7.91,3.25,8,3.04c0.14-0.38,0.06-0.73-0.34-0.81C7.45,2.19,7.23,2.18,7.04,2.21z M22.22,4.42c0.21,0,0.47,0.03,0.67,0.08
	c0.07,0.04,0.1,0.08,0.14,0.14C23,4.7,22.95,4.78,22.88,4.8c-0.3,0.12-0.99,0.12-1.28-0.05c-0.05-0.05-0.12-0.13-0.14-0.18l0.2-0.1
	C21.71,4.44,22.15,4.42,22.22,4.42z M5.49,0.25C4.83,0.6,4.05,1.6,4.65,2.44c0.03,0.05-0.01,0.21-0.05,0.3
	c-0.06-0.05-0.16-0.13-0.21-0.2C4.02,2.09,3.6,1.8,3.18,1.41c-0.1-0.1-0.39-0.27-0.55-0.31C2.55,1.25,2.48,1.58,2.55,2.23
	c0.08,0.64,0.25,1.29,0.73,2.18c0.12,0.21,0.24,0.33,0.41,0.47C3.8,4.99,4.03,5.1,4.2,5.1c0.06-0.14,0.08-0.36,0.04-0.52
	C4.14,4.16,3.99,3.75,3.85,3.34L3.72,2.98l0.09-0.03l0.51,0.6c0.21,0.39,0.33,0.76,0.43,1.07c0.09,0.31,0.22,0.31,0.42,0.17
	c0.17-0.13,0.31-0.34,0.3-0.61C5.46,3.99,5.42,3.8,5.35,3.63C5.18,2.95,5.3,2.38,5.9,1.95C6.1,1.8,6.24,1.58,6.17,1.33
	C6.08,0.99,6,0.67,5.87,0.35C5.82,0.21,5.63,0.17,5.49,0.25z M16.6,4.58l-0.16,0.14c-0.34,0.25-0.7,0.43-1.03,0.64
	c-0.1-0.01-0.26-0.04-0.34-0.07c-0.03-0.05-0.04-0.13-0.01-0.2c0.17-0.12,0.34-0.2,0.56-0.31c0.21-0.1,0.5-0.22,0.73-0.29
	C16.42,4.49,16.53,4.52,16.6,4.58z M48.24,1.95c-0.94,0.09-2.21,0.94-2.7,2.02c-0.04,0.09,0,0.29,0.05,0.31
	c0.1,0.04,0.37,0.01,0.48-0.03c0.07-0.01,0.1-0.1,0.14-0.17c0.31-0.55,0.82-0.89,1.42-1.15c0.05-0.03,0.12-0.01,0.18-0.03
	c0.01,0.06,0,0.14-0.04,0.21c-0.04,0.07-0.12,0.13-0.18,0.18c-0.2,0.14-0.41,0.27-0.6,0.43c-0.21,0.2-0.25,0.17-0.43,0.39
	c-0.05,0.07-0.05,0.21-0.01,0.26c0.04,0.07,0.18,0.09,0.26,0.08l0.33-0.08c0,0.21,0.25,0.61,0.37,0.73
	c0.13,0.13,0.27,0.27,0.48,0.35c0.47-0.09,0.85-0.22,1.02-0.29c0.76-0.29,1.25-0.77,1.42-1.59c0.05-0.22-0.08-0.34-0.31-0.4
	c-0.12-0.04-0.37-0.09-0.5-0.13c-0.48-0.14-0.57,0.06-0.76,0.52c-0.14,0.35-0.29,0.76-0.67,1.06c-0.12,0.09-0.51-0.2-0.61-0.27
	c0.73-0.43,1.21-1.14,1.58-1.97c0.08-0.16,0-0.31-0.17-0.37C48.77,1.95,48.52,1.92,48.24,1.95z M30.54,6.1
	c0.08,0.01,0.14,0.04,0.21,0.08c0.29,0.44,0.4,0.86,0.52,1.33c0,0.03-0.01,0.04-0.01,0.1c-0.06-0.04-0.1-0.05-0.13-0.08
	c-0.33-0.33-0.57-0.69-0.69-1.16C30.4,6.26,30.41,6.17,30.54,6.1z M48.3,5.83c-0.1,0.01-0.26,0.29-0.4,0.29
	c-0.12,0-0.57,0.01-0.71,0.04c-0.1,0.03-0.16,0.27-0.1,0.31c0.13,0.09,0.21,0.16,0.31,0.2c0.42,0.04,0.6,0.04,1.07,0.12
	c0.08,0.01,0.17,0.05,0.24,0.13c-0.04,0.04-0.09,0.1-0.17,0.12c-0.6,0.08-1,0.13-1.51-0.17c-0.08-0.05-0.16-0.13-0.24-0.16
	c-0.17-0.07-0.24,0.05-0.18,0.21c0.09,0.3,0.34,0.55,0.78,0.73C47.75,7.81,48.1,8,48.47,7.99c0.56-0.01,0.97-0.05,1.42-0.13
	c0.25-0.04,0.5-0.18,0.53-0.3c0.04-0.12-0.01-0.39-0.14-0.56c-0.09-0.1-0.24-0.24-0.34-0.34C49.42,6.11,49.08,5.76,48.3,5.83z
	 M5.78,7.43L5.64,7.75c-0.52,0-0.86-0.14-1.38-0.09C3.88,7.69,3.51,7.86,3.15,8C3.09,8.03,3,8.07,2.99,8.12
	c0,0.05,0.12,0.13,0.17,0.16c0.2,0.09,0.33,0.14,0.51,0.13c1.08-0.09,2.3-0.21,3.38-0.31c0.06-0.08,0.12-0.16,0.18-0.3
	c-0.03-0.05-0.2-0.14-0.35-0.17L5.78,7.43z M44.34,7.41c0.08,0.03,0.16,0.07,0.21,0.1l1.02,0.76c0.03,0.03,0.06,0.08,0.09,0.13
	c0.03,0.06,0.04,0.12,0.04,0.17c-0.06,0-0.17-0.01-0.22-0.03c-0.44-0.22-0.9-0.39-1.19-0.82c-0.05-0.08-0.07-0.14-0.08-0.21
	C44.21,7.49,44.3,7.44,44.34,7.41z M17.06,6.97l0.1,0.16c0.03,0.43-0.05,0.97-0.29,1.36c-0.03,0.05-0.09,0.09-0.16,0.14
	c-0.03-0.08-0.1-0.14-0.09-0.2c0.09-0.43,0.21-0.97,0.31-1.4C16.96,7.01,17.02,6.98,17.06,6.97z M18.93,7.34
	c0.01,0.55-0.01,0.89-0.08,1.44l-0.12,0.17c-0.04-0.05-0.1-0.1-0.13-0.17c-0.08-0.18-0.08-0.38-0.1-0.56
	c-0.05-0.44-0.03-0.68,0.24-0.94C18.84,7.15,18.93,7.22,18.93,7.34z M36.13,8.2c0.59,0.14,1.14,0.3,1.72,0.46
	c0.08,0.03,0.12,0.05,0.24,0.21c-0.07,0.07-0.13,0.12-0.22,0.14c-0.61-0.13-1.21-0.35-1.83-0.64c-0.05-0.03-0.1-0.09-0.13-0.14
	C35.97,8.2,36.08,8.18,36.13,8.2z M8.46,7.19c0.06,0.04,0.13,0.09,0.16,0.14C8.75,7.6,8.86,7.9,8.98,8.15l0.35,0.69
	c0.03,0.08,0.04,0.14,0.05,0.24L9.33,9.11C9.25,9.05,9.18,8.98,9.12,8.9c-0.24-0.37-0.5-0.73-0.72-1.11
	C8.33,7.66,8.24,7.52,8.24,7.41C8.24,7.36,8.38,7.26,8.46,7.19z M24.97,7.37c0.03,0,0.07,0.09,0.11,0.18
	c-0.18,0.34-0.34,0.67-0.56,0.95c-0.17,0.24-0.43,0.39-0.67,0.59c-0.05,0.03-0.13,0.03-0.2,0.03c0.01-0.07,0-0.16,0.04-0.21
	c0.24-0.36,0.46-0.72,0.71-1.06c0.1-0.14,0.22-0.3,0.33-0.42C24.77,7.37,24.88,7.37,24.97,7.37z M17.99,8.05l0.37,0.89
	c0.06,0.17-0.01,0.25-0.31,0.26c-0.2-0.08-0.47-0.2-0.72-0.31c-0.04-0.03-0.06-0.16-0.03-0.21c0.16-0.24,0.33-0.46,0.5-0.67
	C17.87,7.92,17.95,7.94,17.99,8.05z M31.33,4.12c0.27,0,0.4,0.05,0.44,0.3c0.03,0.18,0.04,0.37,0.04,0.95
	c-0.01,0.26-0.1,0.42-0.34,0.33c-0.5-0.21-0.8-0.74-1.34-0.93c-0.2-0.06-0.33,0.12-0.35,0.3c-0.09,0.56-0.17,1.06-0.17,1.27
	c0,0.71,0.34,1.12,0.72,1.5l0.1,0.1c0.12,0.1,0.12,0.17-0.01,0.24l-1.12,0.63c-0.19,0.1-0.37,0.21-0.56,0.31
	c-0.16,0.1-0.35,0.13-0.52,0c-0.17-0.14-0.22-0.33-0.17-0.51c0.2-0.85,0.34-1.72,0.56-2.56c0.34-1.31,0.91-1.76,1.87-1.88
	C30.81,4.12,31.07,4.12,31.33,4.12z M12.34,7.18c0.03,0.05,0.06,0.14,0.08,0.2l0.3,1.42c0.03,0.12,0.01,0.27,0,0.39
	c0,0.04-0.04,0.09-0.07,0.13c-0.04-0.04-0.12-0.05-0.13-0.09c-0.06-0.26-0.14-0.5-0.2-0.74c-0.06-0.3-0.1-0.59-0.16-0.89
	C12.14,7.44,12.14,7.27,12.34,7.18z M19.88,8.01c0.24,0.05,0.46,0.1,0.68,0.18c0.3,0.12,0.74,0.94,0.61,1.23
	c-0.13,0.26-0.36,0.3-0.66,0.31C20.3,9.68,20,9.62,19.74,9.49c-0.09-0.03-0.14-0.24-0.14-0.34c0.03-0.31-0.05-0.63,0-0.94
	C19.62,8.04,19.71,7.98,19.88,8.01z M5.25,8.56C5.13,9.03,5.1,9.33,5.12,9.59c0.01,0.34,0.17,0.61,0.48,0.76
	c0.93,0.44,1.91,0.51,2.91,0.46c0.04,0,0.13-0.07,0.13-0.09c-0.01-0.06-0.04-0.16-0.09-0.2c-0.05-0.05-0.13-0.05-0.22-0.09
	c-0.44-0.14-0.91-0.27-1.37-0.44c-0.1-0.03-0.21-0.1-0.29-0.17C6.55,9.66,6.61,9.49,6.79,9.46c0.16-0.01,0.33,0.01,0.48,0.08
	c0.27,0.13,0.51,0.31,0.78,0.47c0.09,0.05,0.2,0.14,0.3,0c0.08-0.13,0.16-0.25-0.01-0.38L7.69,9.12C7.13,8.68,6.29,8.47,5.25,8.56z
	 M26.77,8.31c0.13,0.05,0.16,0.2,0.1,0.35c-0.29,0.86-0.64,1.75-0.93,2.6c-0.09,0.31-0.13,0.33-0.43,0.22l-1.45-0.51
	c-0.36-0.12-0.56-0.38-0.56-0.77c0-0.22,0.4-0.57,0.63-0.54c0.04,0.01,0.08,0.04,0.12,0.09c0.04,0.14,0.07,0.3,0.09,0.47
	c0.03,0.18,0.08,0.35,0.18,0.35c0.46,0.03,0.99-0.29,1.24-0.68c0.27-0.42,0.47-0.9,0.69-1.36C26.51,8.43,26.63,8.25,26.77,8.31z
	 M11.32,9.02c0.31,0.29,0.59,0.53,0.89,0.77c-0.09,0.8-0.22,1.5-0.53,2.19c-0.05,0.12-0.16,0.27-0.3,0.42
	c-0.13-0.18-0.21-0.42-0.24-0.5l-0.57-1.49c-0.05-0.12-0.09-0.29-0.1-0.37c0.21-0.26,0.47-0.65,0.59-0.97
	C11.1,8.94,11.19,8.91,11.32,9.02z M19.12,11.33c0.04,0.03,0.06,0.09,0.1,0.18c-0.06,0.13-0.08,0.26-0.17,0.36
	c-0.24,0.27-0.5,0.55-0.76,0.82c-0.05,0.04-0.14,0.03-0.22,0.04c-0.01-0.08-0.04-0.17-0.01-0.21c0.12-0.21,0.26-0.42,0.4-0.6
	c0.14-0.2,0.31-0.38,0.47-0.56C18.98,11.33,19.07,11.3,19.12,11.33z M4.65,11.94c0.09,0.08,0.17,0.14,0.18,0.22
	c0.09,0.48-0.05,1.04-0.09,1.5c-0.04,0.01-0.09,0.01-0.13,0.01c-0.05-0.26-0.12-0.63-0.14-0.89c-0.03-0.2-0.03-0.39,0-0.59
	C4.49,12.11,4.56,12.03,4.65,11.94z M7.51,12.09l0.08,0.05c0.01,0.01,0.02,0.02,0.03,0.03c0.26,0.26,0.51,0.53,0.74,0.8
	c0.2,0.2,0.35,0.43,0.43,0.72c-0.29-0.07-0.6-0.17-0.82-0.29c-0.44-0.23-0.86-0.7-0.8-1.14C7.22,12.05,7.34,12,7.51,12.09z
	 M31.52,9.67c-0.48,0.46-0.78,0.86-0.97,1.53c-0.16,0.59-0.13,1.24,0.03,1.84c0.04,0.18,0.14,0.39,0.35,0.33
	c0.17-0.05,0.25-0.21,0.25-0.34c0-0.55,0.05-1.07,0.33-1.42c0.12-0.16,0.18-0.2,0.25-0.24c0.08,0.13,0.05,0.29,0.05,0.31
	c-0.08,0.4-0.14,0.81-0.24,1.21c-0.05,0.27-0.05,0.42,0.09,0.67c0.16,0.25,0.29,0.27,0.39,0.1c0.5-0.8,1.03-1.94,1.03-2.48
	c0-0.64-0.51-0.82-0.73-1.37C32.15,9.28,31.95,9.28,31.52,9.67z M46.65,10.39c0.04,0.1,0.33,0.4,0.44,0.65
	c0.14,0.3,0.29,0.6,0.29,0.86c0,0.13-0.04,0.27-0.08,0.35c-0.2-0.1-0.3-0.34-0.34-0.46c-0.09-0.27-0.1-0.44-0.2-0.6
	c-0.08-0.14-0.17-0.18-0.22-0.18c-0.12,0-0.17,0.05-0.18,0.22c-0.04,0.63,0.11,1.57,0.86,2.17c0.12,0.1,0.38,0.29,0.51,0.34
	c0.25,0.09,0.31,0.03,0.39-0.2c0.16-0.48,0.3-1.03,0.3-1.59c0-0.33-0.04-0.56-0.13-0.85c-0.2-0.61-0.69-1.02-1.29-1.07
	C46.68,10.02,46.52,10.09,46.65,10.39z M10,13.01c0.05,0.26,0.01,0.68-0.01,0.85s-0.1,0.29-0.18,0.37c-0.06,0.06-0.1,0.09-0.17,0.12
	c-0.07-0.12-0.1-0.29-0.13-0.47c0.12-0.3,0.26-0.65,0.34-0.88C9.91,12.99,9.96,12.99,10,13.01z M42.02,13.51
	c0.17,0.08,0.39,0.27,0.53,0.38c0.2,0.16,0.4,0.34,0.57,0.52c0.05,0.05,0.03,0.2,0,0.3c-0.06-0.03-0.14-0.04-0.2-0.08
	c-0.35-0.22-0.68-0.47-1-0.69c-0.04-0.04-0.05-0.29-0.08-0.34C41.89,13.56,41.95,13.52,42.02,13.51z M4.7,10.58
	c-0.2,0-0.64,0.52-0.78,0.95c-0.17,0.43-0.21,0.82-0.2,1.1c0.03,0.67,0.24,1.27,0.64,1.89c0.09,0.13,0.26,0.38,0.5,0.13
	c0.2-0.22,0.34-0.38,0.53-0.61c0.24-0.29,0.41-0.7,0.39-1.1c-0.03-0.59-0.17-1.08-0.35-1.57C5.22,10.87,4.91,10.58,4.7,10.58z
	 M9.05,14.49l-0.1,0.38L8.55,14.7c-0.29,0.05-0.52,0.18-0.85,0.22c-0.12,0.01-0.25,0.01-0.31,0c-0.12-0.01-0.26-0.08-0.3-0.13
	c0.05-0.1,0.24-0.21,0.51-0.26C7.75,14.5,8.45,14.44,9.05,14.49z M34.7,11.39c-0.01,0.08-0.01,0.22,0.04,0.3
	c0.17,0.29,0.57,0.55,0.74,0.82c0.04,0.05,0.04,0.14,0.04,0.22c-0.08,0-0.16-0.01-0.22-0.05c-0.17-0.1-0.46-0.31-0.6-0.43
	c-0.27-0.22-0.47-0.44-0.65-0.67c-0.2-0.22-0.33-0.22-0.47,0.03c-0.37,0.59-0.55,1.16-0.63,1.88c-0.1,0.85,0.29,1.65,1.04,2.01
	c0.33,0.14,0.56,0.1,0.72-0.2c0.17-0.31,0.29-0.57,0.39-0.91c0.05-0.17,0.05-0.25-0.08-0.4c-0.2-0.24-0.33-0.39-0.52-0.59
	c-0.12-0.12-0.2-0.18-0.26-0.21c-0.05,0.07-0.08,0.14-0.08,0.22c0.01,0.27,0.05,0.55,0.06,0.82c0,0.07-0.01,0.17-0.05,0.24
	c-0.17-0.08-0.25-0.2-0.3-0.35c-0.06-0.18-0.09-0.35-0.1-0.61c0-0.16,0.01-0.4,0.1-0.65c0.04-0.12,0.1-0.26,0.18-0.38
	c0.13,0.04,0.3,0.12,0.41,0.21c0.25,0.59,0.8,1.24,1.48,1.59c0.22,0.12,0.44,0.16,0.61,0.17c0.06-0.26,0.18-0.69,0.18-1.18
	c0-0.38-0.12-0.78-0.47-1.14c-0.3-0.3-0.71-0.63-1.04-0.8C34.97,11.22,34.79,11.32,34.7,11.39z M23.99,12.03
	c0.5,0.05,0.93,0.27,1.37,0.51c0.06,0.05,0.12,0.2,0.13,0.3c0.03,0.2,0.01,0.43,0.01,0.71c0.01,0.76-0.08,1.5-0.25,2.26
	c-0.04,0.1-0.13,0.2-0.22,0.31c-0.1-0.1-0.21-0.17-0.26-0.29c-0.39-0.95-0.72-1.93-0.93-2.98c-0.04-0.17-0.09-0.37-0.12-0.54
	C23.7,12.1,23.79,12.02,23.99,12.03z M20.78,14.17c0.05,0.08,0.1,0.16-0.04,0.39c-0.24,0.36-0.3,0.74-0.46,1.25
	c-0.04,0.1-0.1,0.22-0.16,0.3c-0.05,0.05-0.13,0.07-0.2,0.1c-0.01-0.07-0.05-0.14-0.04-0.2c0.07-0.29,0.17-0.56,0.26-0.85
	c0.06-0.22,0.13-0.46,0.21-0.69C20.43,14.31,20.57,14.21,20.78,14.17z M41.82,15.27l0.3,0.12c0.18,0.4,0.35,0.78,0.51,1.25
	c0,0.21-0.04,0.41-0.1,0.6l-0.05,0.03c-0.01-0.07-0.05-0.17-0.17-0.43c-0.12-0.26-0.41-0.74-0.64-1.24
	c-0.03-0.06-0.06-0.14-0.08-0.22C41.57,15.3,41.74,15.25,41.82,15.27z M20.26,10.21c0.24,0.03,0.47,0.09,0.67,0.2
	c0.37,0.16,0.73,0.37,1.1,0.56c0.2,0.12,0.34,0.29,0.35,0.53c0.01,0.29-0.17,0.47-0.44,0.37c-0.35-0.16-0.67-0.27-1.23-0.43
	c-0.21-0.05-0.42,0.06-0.46,0.26c-0.08,0.48,0.33,0.51,0.29,0.64c-0.1,0.34-0.65,0.44-0.73,0.76c-0.06,0.29-0.06,0.47,0.2,0.42
	c0.27-0.06,0.55-0.14,0.78-0.26c0.43-0.22,0.64-0.33,1.11-0.52c0.46-0.2,0.69-0.13,0.76,0.38c0.18,1.23,0.42,2.42,0.59,3.6
	c0.02,0.14,0.04,0.34,0.05,0.49c0.04,0.51-0.05,0.64-0.71,0.47c-0.22-0.05-0.44-0.12-0.67-0.18c-0.33-0.09-0.56-0.21-0.77-0.46
	c-0.26-0.3-0.59-0.3-0.88-0.01c-0.08,0.07-0.13,0.17-0.22,0.24c-0.05,0.05-0.13,0.08-0.21,0.12c-0.04-0.08-0.08-0.17-0.05-0.25
	c0.06-0.3,0.25-0.52,0.53-0.67c0.2-0.1,0.44-0.17,0.65-0.23c0.6-0.24,0.9-0.6,0.9-1.31c0-0.4,0.12-0.81,0.12-1.23
	c0-0.3-0.1-0.39-0.39-0.3c-0.5,0.2-0.97,0.39-1.46,0.6c-0.17,0.07-0.27,0.17-0.35,0.33c-0.13,0.26-0.22,0.53-0.35,0.8l-0.1,0.13
	c-0.04-0.04-0.09-0.07-0.13-0.12l-0.35-0.52c-0.13-0.2-0.27-0.39-0.42-0.57c-0.22-0.26-0.22-0.34,0.03-0.53l0.81-0.71
	c0.41-0.38,0.56-0.88,0.6-1.44V10.6C19.85,10.26,19.92,10.17,20.26,10.21z M44.21,15.59c-0.09,0.04-0.22,0.1-0.29,0.17
	c0.01,0.06,0.08,0.2,0.2,0.27c0.39,0,0.72,0.08,0.82,0.12c0.47,0.17,0.68,0.38,0.77,0.55c0.08,0.16,0.09,0.24,0.09,0.31
	c-0.27,0.08-0.56,0.03-0.78-0.16c-0.16-0.12-0.31-0.24-0.52-0.33c-0.26-0.12-0.6-0.13-0.87-0.07c0.03,0.27,0.29,0.61,0.51,0.78
	c0.55,0.44,0.93,0.53,1.34,0.56c0.35,0.03,0.64,0,0.82-0.08c0.13-0.05,0.18-0.24,0.17-0.39l-0.01-0.26
	c-0.02-0.43-0.06-0.86-0.46-1.23C45.47,15.35,44.72,15.36,44.21,15.59z M16.24,16.47c0.53,0.12,1.04,0.24,1.57,0.38
	c0.17,0.04,0.17,0.17,0.06,0.29c-0.34,0.35-0.7,0.65-1.17,0.86l-0.2,0.06c-0.05-0.06-0.16-0.12-0.18-0.21
	c-0.12-0.38-0.24-0.77-0.33-1.16C15.96,16.54,16.09,16.45,16.24,16.47z M48.41,0c0.78,0,1.58,1.42,1.74,1.96
	c0.1,0.39-0.53,0.72-0.1,0.72c0.37,0,0.71,0.06,0.71,0.38c0,0.55-0.16,1.11-0.44,1.51c-0.29,0.4-0.6,0.84-1.01,1.11l0.03,0.14
	c0.68,0.51,1.42,0.87,1.42,1.64c0,0.4-0.12,0.69-0.35,0.9c-0.18,0.16-0.33,0.31-0.31,0.55c0.03,0.54,0.06,0.84,0.03,1.36
	c-0.03,0.35-1.1,0.42-1.24,0.57c0.26,0.86-0.05,2.25-0.3,2.66c0.08,0.16,0.14,0.27,0.22,0.4c1.08,0.76,1.23,1.45,1.38,2.05
	c-0.3,0.29-0.8,0.53-0.97,0.53c-0.69,0-2.25-0.52-2.56-0.57c-0.12,0.22-0.05,0.42,0.1,0.86c0.14,0.39,0.4,0.67,0.4,1.03
	c0,0.17-0.03,0.46-0.52,0.53c-0.74,0.12-1.57-0.16-2.34-0.64c-0.14-0.08-0.26-0.17-0.41-0.24c-0.24-0.13-0.53-0.04-0.61,0.24
	l-0.16,0.52c-0.09,0.29-0.24,0.31-0.63,0.24c-1.11-0.24-1.63-1.44-1.63-2.49c0-0.01,0.05-0.1,0.09-0.16
	c0.05,0.04,0.16,0.08,0.17,0.13c0.04,0.2,0.08,0.4,0.14,0.6c0.09,0.29,0.16,0.56,0.33,0.84c0.21,0.41,0.47,0.63,0.91,0.68
	c0.09,0,0.21-0.17,0.31-0.35c0.24-0.5,0.46-0.84,0.38-1.42c-0.03-0.2-0.09-0.48-0.24-0.67c-0.07-0.09-0.18-0.16-0.31-0.27
	c0.06-0.09,0.16-0.2,0.24-0.17c0.5,0.18,0.86,0.17,1.16,0.01c0.2-0.1,0.29-0.24,0.42-0.41c0.42-0.1,1.11-0.26,1.68-0.34
	c0.78,0,1.49,0.1,2.08,0.36l-0.04,0.13c-0.21-0.04-1.08-0.09-1.32-0.09c-0.2,0-0.72,0-0.73,0.27c0,0.08,0.1,0.22,0.22,0.3
	c0.64,0.43,2.43,0.51,3.16,0.39c0.01-0.18-0.01-0.38-0.06-0.53c-0.18-0.54-0.84-1.01-1.44-1.2c-0.61-0.2-1.42-0.13-1.95-0.07
	l-0.12-0.33c0.21-0.94,0.18-1.81,0.05-2.51c-0.08-0.39-0.18-0.57-0.39-0.89c-0.12-0.17-0.26-0.16-0.42-0.03
	c-0.1,0.09-0.21,0.2-0.39,0.43c-0.6,0.74-0.57,1.23-0.47,2.34c0.06,0.05,0.14,0.1,0.34,0.1c0.2,0,0.29-0.09,0.31-0.35l0.1-0.9
	c0.01-0.08,0.03-0.14,0.05-0.2c0.09,0.03,0.25,0.13,0.26,0.2c0.01,0.1,0.01,0.21,0,0.33c-0.05,0.65-0.22,1.06-0.29,1.37
	c0.04,0.06,0.46,0.25,0.39,0.42c-0.05,0.13-0.7,0.3-1.15,0.34c-0.25-0.34-0.51-0.65-1.08-0.89c-0.26-0.1-0.55-0.2-0.33-0.36
	l0.34-0.14c0.61-0.25,0.42-0.6,0.39-1.2c-0.03-0.22-0.12-0.29-0.33-0.27c-0.3,0.01-0.51,0.04-0.76,0.17
	c-0.18,0.09-0.27,0.18-0.42,0.33c-0.26,0.25-0.46,0.56-0.72,0.8c-0.06,0.07-0.2,0.04-0.3,0.04c0.01-0.08,0.05-0.16,0.08-0.25
	c0.17-0.46,0.33-0.93,0.5-1.4c0.06-0.18,0.14-0.35,0.34-0.31c0.94,0.22,1.91,0.04,2.57-0.63c0.27-0.3,0.27-0.44-0.08-0.69
	c-0.6-0.46-1.27-0.65-2.02-0.44c-0.17,0.05-0.27,0.14-0.41,0.29c-0.08,0.09-0.14,0.25-0.12,0.3c0.04,0.07,0.13,0.07,0.22,0.05
	c0.22-0.04,0.46-0.06,0.7-0.09c0.08,0,0.17-0.01,0.24-0.01c0.08,0.01,0.14,0.09,0.21,0.13l-0.21,0.1l-0.48,0.13
	c-0.35,0.09-0.72,0.18-1.06,0.29c-0.17,0.05-0.25,0.01-0.27-0.17c-0.05-0.31,0.03-0.56,0.27-0.77c0.4-0.35,0.73-0.76,0.82-1.31
	c0.05-0.3-0.2-0.74-0.33-1.01c-0.01-0.06,0.01-0.12,0.03-0.17c0.34,0.08,0.82,0.31,1.11,0.52c0.22,0.95,0.81,1.62,1.72,1.91
	c0.31,0.1,0.63,0.22,0.95,0.31c0.3,0.09,0.52,0.01,0.51-0.31l-0.01-0.43c0.26-0.12,0.56-0.21,0.63-0.2c0.5,0.07,1,0.31,1.53,0.48
	c0.09,0.04,0.18,0.1,0.2,0.21c-0.08,0.05-0.2,0.08-0.27,0.05c-0.38-0.07-0.76-0.17-1.12-0.26c-0.24-0.05-0.43,0.05-0.47,0.27
	c0.16,0.29,0.87,0.61,1.15,0.72c0.38,0.14,1.83,0.31,1.81-0.08c-0.01-0.39-0.06-0.77-0.17-1.16c-0.09-0.33-0.38-0.51-0.68-0.59
	c-0.57-0.16-1-0.22-1.77-0.22h-0.17c-0.16,0-0.43,0.09-0.71,0.22c-0.01-0.14-0.04-0.27-0.06-0.42c-0.14-0.59-0.42-0.73-0.86-0.88
	c0.03-0.17,0.03-0.29,0.03-0.47c0.39-0.22,0.86-0.59,1.04-0.9c-0.16-0.14-0.44-0.22-0.59-0.27c-0.59-0.21-0.65-0.44-1.06-0.61
	c-0.37-0.16-0.65-0.22-0.94-0.24c-0.3-0.01-0.71,0.07-0.78,0.18c-0.05,0.08-0.01,0.2,0.17,0.33c0.26,0.2,0.81,0.35,1.08,0.54
	c0.04,0.03,0.08,0.08,0.1,0.1c-0.05,0.03-0.09,0.05-0.13,0.05c-0.37-0.04-0.72-0.1-1.07-0.3c-0.2-0.1-0.26-0.2-0.4-0.25
	c-0.27-0.09-0.31-0.01-0.48,0.29c-0.13,0.22,0.03,0.34,0.21,0.44c0.63,0.35,1.1,0.55,1.89,0.64c0.08,0.08,0.1,0.24,0.13,0.4
	c-0.38-0.04-0.6-0.07-0.95-0.12c-0.12-0.01-0.48-0.12-0.59-0.17c-0.52-0.25-0.8-0.43-1.32-0.67c-0.27-0.13-0.55-0.22-0.83-0.33
	c-0.14-0.07-0.2-0.16-0.04-0.25c0.78-0.47,1.54-1.06,2.34-1.49c0.12-0.07,0.3-0.04,0.44-0.01c0.38,0.08,0.51,0.2,0.9,0.31
	c0.22,0.08,0.44,0.14,0.48-0.06c0.12-0.57,0.3-1.01,0.47-1.25c0.35-0.54,0.85-0.81,1.5-1.23C47.32,0.85,48.13,0,48.41,0z
	 M8.86,18.22c-0.01,0.09-0.04,0.13-0.18,0.2c-0.21,0.06-0.47,0.1-0.73,0.12c-0.35,0.01-0.67-0.03-0.86-0.06
	c-0.18-0.03-0.29-0.06-0.31-0.1c0.05-0.08,0.13-0.13,0.2-0.14L8.63,18C8.81,17.96,8.89,18.06,8.86,18.22z M37.32,18.05
	c-0.12,0.07-0.21,0.14-0.17,0.27l0.08,0.21c0.21-0.04,0.43-0.05,0.64-0.04c0.29,0.09,0.76,0.2,1.06,0.25
	c0.07,0.01,0.16-0.07,0.21-0.13c0.01-0.01-0.04-0.06-0.07-0.12c-0.29-0.24-0.72-0.39-1.16-0.41L37.32,18.05z M3.28,16.18
	c-0.21,0.09-0.3,0.3-0.34,0.65c-0.03,0.24-0.01,0.57,0.01,0.9c0.04,0.46,0.12,0.93,0.22,1.37c0.05,0.26,0.16,0.29,0.34,0.1
	l0.41-0.39c0.35-0.35,0.65-0.69,0.95-1.08c0.26-0.34,0.3-0.67,0.2-0.99c-0.08-0.27-0.27-0.38-0.47-0.38c-0.22,0-0.3,0.17-0.35,0.34
	c-0.09,0.27-0.18,0.47-0.27,0.67c-0.07,0.15-0.2,0.37-0.26,0.44c-0.01,0-0.04-0.01-0.06-0.03c0-0.12,0.05-0.35,0.06-0.44
	c0.07-0.31,0.14-0.57,0.18-0.85c0.01-0.13,0.01-0.27-0.01-0.38C3.75,16.09,3.43,16.11,3.28,16.18z M29.02,18.99
	c-0.13,0.08-0.25,0.22-0.24,0.29c0.01,0.1,0.13,0.2,0.2,0.3c0.1-0.05,0.2-0.17,0.24-0.27C29.24,19.24,29.11,19.14,29.02,18.99z
	 M30.14,19.7c-0.09,0.06-0.2,0.16-0.27,0.25c-0.13,0.18-0.05,0.37,0.16,0.51c0.17,0.13,0.37,0.12,0.48-0.05
	c0.1-0.13,0.2-0.22,0.25-0.43c-0.04-0.13-0.14-0.26-0.26-0.33C30.4,19.59,30.24,19.62,30.14,19.7z M27.78,19.83
	c0.18-0.01,0.38,0.16,0.38,0.42c0,0.2-0.12,0.31-0.3,0.31c-0.25,0-0.43-0.16-0.43-0.38C27.42,20.01,27.59,19.83,27.78,19.83z
	 M36.74,19.74c-0.05,0.01-0.14,0.05-0.2,0.09c-0.08,0.1-0.55,0.72-0.51,0.77c0.04,0.06,0.21,0.06,0.55,0.13
	c0.12-0.25,0.22-0.48,0.31-0.72C36.91,19.96,36.83,19.83,36.74,19.74z M29.25,20.3c-0.24,0-0.42,0.14-0.44,0.35
	c0,0.18,0.2,0.34,0.4,0.34c0.22-0.01,0.39-0.17,0.41-0.37C29.62,20.41,29.49,20.3,29.25,20.3z M10.12,19.21
	c-0.16,0.08-0.22,0.25-0.25,0.38c-0.05,0.25-0.12,0.42-0.17,0.55c-0.05,0.1-0.13,0.25-0.24,0.33c-0.04-0.12-0.06-0.39-0.05-0.51
	c0.01-0.2,0.09-0.46,0.22-0.74c-0.31,0-0.86,0.39-0.95,0.67c-0.01,0.04-0.01,0.09-0.01,0.13c0.01,0.43,0.1,0.85,0.34,1.23
	c0.14,0.22,0.26,0.27,0.48,0.12c0.37-0.26,0.76-0.52,1.07-0.85c0.25-0.25,0.44-0.56,0.61-0.86c0.1-0.21-0.12-0.27-0.33-0.38
	C10.57,19.14,10.27,19.14,10.12,19.21z M28.31,21.12c-0.21,0-0.34,0.13-0.34,0.31c0,0.18,0.18,0.35,0.39,0.35
	c0.16-0.01,0.3-0.17,0.3-0.35C28.68,21.26,28.52,21.12,28.31,21.12z M22.02,20.52c-0.08,0.29-0.22,0.57-0.23,0.88
	c0,0.2,0.09,0.4,0.25,0.55c0.09-0.06,0.16-0.2,0.16-0.26c0.04-0.37,0.06-0.74,0.06-1.12C22.29,20.4,22.07,20.36,22.02,20.52z
	 M29.57,21.16c-0.29,0-0.54,0.22-0.54,0.46c0.01,0.25,0.34,0.52,0.63,0.52c0.26,0,0.44-0.18,0.44-0.43
	C30.11,21.38,29.89,21.16,29.57,21.16z M37.48,18.76c-0.26,0.04-0.43,0.25-0.59,0.6c0.01,0.06,0.04,0.16,0.09,0.17
	c0.14,0.05,0.42,0.1,0.46,0.13c0.05,0.04,0.22,0.22,0.26,0.37c-0.04,0.12-0.2,0.25-0.39,0.29c-0.26,0.05-0.27,0.26-0.22,0.53
	c0.04,0.26,0.13,0.48,0.34,0.76c0.18-0.1,0.26-0.14,0.39-0.29c0.16-0.16,0.2-0.31,0.18-0.51c-0.04-0.56,0.27-0.98,0.67-1.36
	l0.09,0.05c-0.07,0.33-0.24,0.56-0.27,0.89c-0.08,0.67-0.3,1.23-0.97,1.67c0.05,0.09,0.2,0.12,0.33,0.12c0.26,0,0.43-0.1,0.54-0.21
	c0.27-0.25,0.5-0.55,0.6-0.93l0.1-0.33c0.01,0,0.08,0.01,0.09,0.03l0.04,0.3c0,0.13-0.01,0.24-0.03,0.44
	c-0.01,0.1-0.01,0.25,0.01,0.35c0.16-0.06,0.24-0.16,0.33-0.26c0.25-0.57,0.36-1.43,0.13-1.97c-0.18-0.44-0.47-0.63-0.91-0.67
	c-0.16-0.01-0.3-0.04-0.51-0.07L37.48,18.76z M3.33,21.54c-0.24,0.13-0.43,0.26-0.56,0.4c-0.21,0.22-0.17,0.37-0.01,0.48
	c0.18,0.13,0.43,0.27,0.76,0.35c0.04-0.2,0.09-0.51,0.14-0.71c0.1-0.16,0.29-0.27,0.46-0.35c0.35-0.17,0.76-0.2,1.27-0.24
	c0.04-0.01,0.12,0.06,0.12,0.1c0,0.04-0.05,0.12-0.09,0.13c-0.12,0.05-0.25,0.09-0.35,0.12c-0.07,0.01-0.24,0.05-0.24,0.13
	c0,0.15,0.14,0.2,0.38,0.18c0.27-0.01,0.56-0.05,0.89-0.1c0.21-0.05,0.44-0.1,0.46-0.37c0.01-0.24-0.27-0.37-0.46-0.42
	C5.39,21.05,4.23,21.09,3.33,21.54z M28.65,22.06c-0.21,0-0.35,0.13-0.35,0.31c0,0.21,0.22,0.42,0.44,0.41c0.18,0,0.3-0.14,0.3-0.33
	C29.04,22.22,28.9,22.06,28.65,22.06z M4.58,22.23c-0.18,0.01-0.37,0.18-0.43,0.44c-0.04,0.26,0.12,0.44,0.4,0.5
	c0.59,0.13,1.14,0.24,1.68,0.24c0.21,0,0.24-0.03,0.25-0.2c0.01-0.16,0.01-0.3,0.01-0.46v-0.51c-0.16,0-0.36,0.04-0.52,0.08
	c-0.31,0.08-0.47,0.1-0.77,0.08C5.04,22.39,4.75,22.27,4.58,22.23z M17.13,22.2c0.02,0.25,0.17,0.63,0.17,0.94
	c0,0.18-0.01,0.27-0.06,0.4c-0.13,0.34-0.51,0.51-0.82,0.51c-0.37,0-0.57-0.08-0.69-0.44c-0.06-0.21-0.13-0.85-0.17-1.08
	c-0.08-0.08-0.2-0.12-0.38-0.17c-0.09-0.03-0.1-0.09-0.12-0.17c0.13-0.07,0.37-0.13,0.53-0.16c0.38-0.06,0.38-0.04,0.44,0.31
	c0.05,0.4,0.12,0.82,0.2,1.23c0.01,0.13,0.09,0.26,0.29,0.26c0.16,0,0.26-0.1,0.26-0.29c0-0.31,0.01-0.68,0-1
	c-0.06-0.08-0.18-0.25-0.3-0.37c-0.14-0.17-0.16-0.22,0.05-0.3C17.02,21.68,17.06,21.56,17.13,22.2z M30.39,20.81
	c-0.22,0.24,0.06,0.74,0.6,1.04c-0.12,0.34-0.1,0.85,0.43,1.15l-0.07,0.09c-0.38-0.04-0.77-0.38-0.74-0.99
	c-0.2,0.27-0.43,0.52-0.64,0.63c0.01,0.21,0.53,0.51,0.89,0.65c0.21,0.27,0.35,0.4,0.61,0.71c0.16-0.41,0.35-0.74,0.42-0.97
	c-0.03-0.61-0.13-1.15-0.31-1.42C31.29,21.37,30.83,21.09,30.39,20.81z M19.06,21.64c0.03,0.18,0.03,0.29,0.01,0.47
	c0,0.06-0.03,0.27-0.07,0.39c-0.06-0.01-0.1-0.01-0.16-0.04c-0.17-0.27-0.39-0.39-0.57-0.36c-0.17,0.03-0.26,0.16-0.13,0.3
	c0.09,0.1,0.2,0.17,0.31,0.25c0.17,0.1,0.37,0.18,0.53,0.29c0.41,0.22,0.38,0.52,0.33,0.74c-0.06,0.27-0.26,0.47-0.59,0.47
	c-0.21,0-0.41-0.05-0.64-0.2c-0.05,0.03-0.12,0.09-0.25,0.22c-0.05,0.05-0.14,0.13-0.22,0.16l-0.14-0.09l0.24-0.56
	c0.08-0.22,0.17-0.25,0.38-0.1l0.2,0.16c0.16,0.13,0.37,0.24,0.56,0.14c0.18-0.09,0.08-0.34-0.1-0.44c-0.29-0.17-0.5-0.22-0.84-0.43
	c-0.21-0.13-0.3-0.31-0.3-0.57c0-0.22,0.16-0.48,0.43-0.51c0.1-0.03,0.24-0.03,0.39-0.03c0.18,0,0.3-0.03,0.42-0.18
	C18.94,21.59,19.03,21.53,19.06,21.64z M14.55,22.52c0,0.04,0.01,0.08-0.01,0.1c-0.29,0.21-0.26,0.3-0.22,0.57
	c0.04,0.26,0.04,0.55,0.05,0.77c0.04,0.1,0.1,0.25,0.18,0.34c0.17-0.05,0.37-0.18,0.37-0.24l0.04-0.56
	c0.05-0.06,0.13-0.12,0.18-0.16c0.05,0.05,0.08,0.09,0.1,0.14c0.09,0.21,0.13,0.34,0.21,0.57c-0.05,0.09-0.16,0.17-0.25,0.24
	c-0.29,0.2-0.81,0.31-1.18,0.55c-0.17,0.12-0.09-0.3-0.1-0.46l-0.18-0.98c-0.03-0.16-0.18-0.39-0.31-0.53
	c-0.1-0.12,0.2-0.17,0.34-0.21c0.18-0.07,0.4-0.13,0.57-0.18C14.39,22.48,14.52,22.51,14.55,22.52z M12.37,23.68
	c-0.25,0.03-0.32,0.12-0.3,0.39c0.01,0.18,0.16,0.69,0.21,0.99c0.03,0.16,0.07,0.27,0.29,0.25c0.3-0.04,0.4-0.17,0.36-0.4
	c-0.04-0.27-0.1-0.55-0.16-0.82C12.73,23.81,12.61,23.67,12.37,23.68z M12.87,23.37c0.09,0,0.38,0.12,0.42,0.2
	c0.09,0.44,0.13,0.83,0.17,1.32c-0.06,0.21-0.14,0.42-0.48,0.6c-0.18,0.09-0.48,0.22-0.82,0.22c-0.16,0-0.27-0.04-0.3-0.18
	c-0.09-0.48-0.2-0.94-0.27-1.41c-0.01-0.12,0.09-0.27,0.18-0.35C12.06,23.47,12.47,23.39,12.87,23.37z M18.81,25.11
	c-0.48-0.01-0.91,0.1-1.34,0.25c-0.01,0.01-0.01,0.01-0.01,0.03c-0.03,0.29,0.17,1.03,0.3,1.2l1.23-0.29
	c0.33-0.09,0.51-0.43,0.48-0.74c-0.04-0.24-0.17-0.37-0.42-0.42C18.97,25.13,18.89,25.11,18.81,25.11z M36.59,21.26
	c-0.12,0.05-0.21,0.13-0.12,0.29c0.09,0.13,0.08,0.24,0,0.37c-0.12,0.24-0.21,0.5-0.34,0.77c-0.05,0.18-0.06,0.31-0.08,0.53
	l-0.13,3.13c0,0.03-0.01,0.07,0,0.09c0.01,0.05,0.04,0.12,0.09,0.16c0.05-0.04,0.1-0.08,0.13-0.12c0.07-0.17,0.12-0.34,0.16-0.52
	c0.09-0.51,0.24-0.52,0.26-1.03c0.04-0.52,0.04-1.06,0.03-1.58c0.05-0.04,0.12,0,0.14,0.01c0.01,0.35,0.05,0.61,0.1,0.97
	c0.01,0.08,0.05,0.18,0.08,0.24c0.05-0.03,0.14-0.08,0.17-0.12l0.13-0.64c0.3-0.9,0.08-1.62-0.3-2.44
	C36.85,21.21,36.74,21.19,36.59,21.26z M2.72,24.07c0.61,0.14,0.71,0.13,0.82,0.42c0.12,0.26,0.24,0.71,0.42,1.02
	c0.04-0.01,0.09-0.04,0.12-0.07c0.03-0.29,0.01-0.71,0.03-0.9c0.01-0.16,0.08-0.24,0.25-0.24c0.13,0,0.46,0.01,0.59,0.04
	c0.01,0.03,0.01,0.05,0.01,0.09c0,0.08-0.11,0.1-0.13,0.12c-0.29,0.1-0.3,0.13-0.43,0.94l-0.14,0.93c-0.01,0.06-0.04,0.21-0.08,0.3
	c-0.08,0.01-0.22,0-0.25-0.06c-0.2-0.5-0.46-1.02-0.72-1.46l-0.08-0.01c-0.04,0.1-0.06,0.24-0.09,0.36
	c-0.01,0.03-0.02,0.08-0.02,0.13l0,0.07c-0.03,0.22,0.04,0.56,0.22,0.74l0.08,0.08l-0.04,0.14c-0.17,0.01-0.68-0.06-0.86-0.12
	c-0.12-0.04,0.22-0.22,0.25-0.43c0.06-0.43,0.17-1.15,0.17-1.66c0-0.09-0.21-0.18-0.21-0.26C2.62,24.17,2.68,24.1,2.72,24.07z
	 M22.33,23.08c-0.03,0.16,0.09,0.42,0.17,0.48c0.39,0.38,0.78,0.7,1.19,1.03c0.26,0.2,0.54,0.35,0.86,0.44
	c0.5,0.13,0.9,0.42,1.2,0.81c0.09,0.13,0.18,0.26,0.29,0.39c0.21,0.26,0.48,0.44,0.85,0.5c0.06,0.01,0.14,0,0.21,0
	c-0.05-0.22-0.05-0.25-0.21-0.4c-0.67-0.61-1.37-1.16-2.13-1.67c-0.46-0.3-0.9-0.63-1.33-0.95c-0.2-0.14-0.35-0.22-0.55-0.37
	C22.75,23.26,22.52,23.1,22.33,23.08z M5.38,25.51c-0.07,0.64-0.05,0.64-0.05,1.08c0,0.25,0.12,0.25,0.34,0.26
	c0.2,0.01,0.26-0.17,0.3-0.41l0.13-0.89c0.04-0.29,0.05-0.46-0.12-0.48C5.65,25.04,5.4,25.23,5.38,25.51z M10.97,23.89l0.13,0.34
	c0.04,0.1,0.09,0.24,0.1,0.36c0.01,0.09,0.01,0.16-0.01,0.21c-0.01,0.03-0.06,0.01-0.12-0.01c-0.27-0.12-0.57-0.3-0.82-0.13
	c-0.09,0.06-0.05,0.22,0.07,0.27l0.77,0.31c0.34,0.13,0.43,0.29,0.37,0.71c-0.07,0.39-0.35,0.55-0.69,0.64
	c-0.14,0.04-0.29,0.05-0.48,0.04c-0.03,0.12,0.01,0.26-0.08,0.31c-0.06,0.04-0.08,0.03-0.14,0.05c-0.04-0.08-0.1-0.26-0.13-0.34
	c-0.01-0.05-0.13-0.41-0.13-0.61c0-0.08,0.03-0.09,0.05-0.12c0.12,0.04,0.22,0.2,0.39,0.37c0.21,0.06,0.57,0.13,0.63,0.06
	c0.1-0.13,0.14-0.21,0.14-0.26c0-0.09-0.12-0.17-0.22-0.22c-0.27-0.14-0.42-0.2-0.71-0.31c-0.26-0.1-0.3-0.34-0.3-0.56
	c0-0.24,0.12-0.48,0.5-0.61c0.12-0.04,0.33-0.09,0.44-0.12c0.03-0.08,0.05-0.34,0.05-0.39C10.83,23.86,10.95,23.85,10.97,23.89z
	 M5.38,24.75c0.38,0.04,0.68,0.1,0.95,0.17c0.1,0.07,0.31,0.38,0.33,0.42c0.05,0.17,0.05,0.35,0.05,0.52
	c-0.1,0.44-0.24,0.82-0.3,1.04c-0.04,0.18-0.12,0.33-0.4,0.31c-0.24-0.01-0.51-0.04-0.78-0.12c-0.29-0.08-0.36-0.18-0.38-0.29
	c-0.09-0.52-0.04-1.24,0.09-1.74C4.96,25,5.26,24.81,5.38,24.75z M8.94,24.47c-0.06,0.14-0.12,0.25-0.14,0.46
	c-0.04,0.29-0.09,0.55-0.1,0.82c0.04,0.42,0.13,0.83,0.16,1.19c0,0.03-0.05,0.06-0.1,0.09C8.68,27,8.6,26.95,8.55,26.9
	c-0.35-0.35-0.6-0.68-1.04-1.11c-0.04,0.05-0.07,0.14-0.07,0.2c0.08,0.27,0.2,0.57,0.38,0.83c0.12,0.16,0.14,0.21-0.14,0.31
	c-0.16,0.05-0.42,0.12-0.6,0.09c-0.01-0.1,0.11-0.24,0.12-0.3c0.03-0.14,0.03-0.34,0.03-0.48c0.01-0.38-0.06-0.99-0.06-1.36
	l0.21-0.13c0.06-0.03,0.12,0.01,0.2,0.08c0.18,0.18,0.57,0.61,0.76,0.78c0.01,0,0.04-0.04,0.05-0.05v-0.27
	c0-0.2-0.04-0.34-0.09-0.55c-0.07-0.24-0.24-0.41-0.05-0.42L8.94,24.47z M19.84,25.65c-0.03,0.13-0.09,0.44-0.1,0.59
	c-0.01,0.16-0.03,0.29-0.05,0.39c-0.25-0.05-0.6-0.06-0.93-0.03c-0.31,0.04-0.93,0.22-0.93,0.6c0,0.35,0.52,0.4,0.85,0.4
	c0.42,0,0.76-0.04,1.19-0.3c0.4-0.25,0.57-1.1,0.47-1.51c-0.03-0.13-0.08-0.22-0.14-0.29C20.06,25.38,19.92,25.42,19.84,25.65z
	 M16.75,20.89c-0.94,0.14-1.68,0.37-2.56,0.78c-0.88,0.43-1.75,0.91-2.4,1.3c-1.14,0.71-2.44,1.03-3.55,1.03
	c-0.84,0-1.38-0.03-2.22-0.12c-1.14-0.12-2.26-0.31-3.26-0.9c-0.22-0.12-0.35-0.08-0.44,0.16c-0.05,0.13-0.1,0.27-0.2,0.64
	c-0.18,0.74-0.39,1.76-0.25,2.74c0.07,0.52,0.29,0.94,0.78,1.14c0.72,0.3,1.67,0.47,2.47,0.48c0.95,0.03,2-0.05,3.12-0.26
	c1.62-0.3,3.58-1.02,5.04-1.76c0.98-0.5,1.97-0.9,3.05-1.16c1.15-0.27,2.18-0.38,3.39-0.09c0.5,0.12,0.6,0.12,0.53-0.25
	c-0.04-0.24-0.1-0.47-0.14-0.72c-0.12-0.84-0.09-1.62-0.41-2.34c-0.06-0.16-0.21-0.3-0.46-0.43C19,21,18.69,20.92,18.44,20.89
	C17.9,20.79,17.27,20.81,16.75,20.89z M27.22,27.29c-0.05,0.04-0.04,0.17-0.04,0.27c0.06,0.65,0.13,1.42,0.21,2.08
	c0.05,0.55,0.12,0.99,0.21,1.54c0.04,0.25,0.16,0.31,0.38,0.2c0.34-0.16,0.67-0.33,0.99-0.51c0.3-0.17,0.48-0.34,0.39-1.03
	c-0.13-1.03-0.91-1.76-1.5-2.27c-0.21-0.17-0.33-0.25-0.42-0.27C27.36,27.27,27.28,27.26,27.22,27.29z M34.41,29.2
	c-0.41,0.22-0.74,0.53-1.11,0.82c-0.04,0.04-0.06,0.17-0.04,0.18c0.08,0.05,0.17,0.1,0.24,0.08c0.18-0.07,0.38-0.16,0.55-0.25
	c0.12-0.05,0.22-0.13,0.34-0.18c0,0.07-0.01,0.12-0.04,0.16c-0.31,0.35-0.55,0.77-0.98,1c-0.05,0.01-0.08,0.1-0.07,0.16
	c0.03,0.07,0.09,0.14,0.14,0.14c0.13-0.01,0.39-0.16,0.48-0.22c0.26-0.21,0.38-0.34,0.64-0.56c0.09,0.13,0.14,0.24,0.01,0.35
	c-0.06,0.08-0.14,0.13-0.22,0.2c-0.14,0.14-0.33,0.27-0.48,0.43c-0.05,0.05-0.05,0.11-0.03,0.14c0.03,0.04,0.1,0.07,0.13,0.05
	c0.18-0.03,0.35-0.1,0.5-0.2c0.17-0.12,0.33-0.27,0.48-0.44c0.01,0.03,0.1,0.12,0.09,0.13c-0.13,0.2-0.29,0.39-0.46,0.62
	c0.03,0.04,0.12,0.08,0.2,0.05c0.09-0.01,0.26-0.09,0.34-0.16c0.16-0.12,0.27-0.34,0.27-0.51l-0.09-1.91c0-0.05-0.08-0.16-0.12-0.16
	C34.93,29.13,34.62,29.08,34.41,29.2z M22.31,25.52c0.16,0.05,0.27,0.16,0.31,0.26c0.04,0.18,0.08,0.37,0.09,0.54
	c0.05,0.5,0.01,0.98-0.01,1.46c-0.08,0.94-0.16,1.81-0.13,2.74c0.01,0.14,0.04,0.33,0.09,0.46c0.12,0.29,0.05,0.59-0.17,0.91
	l-0.14-0.06c-0.1-0.39-0.37-0.93-0.48-1.34c-0.01-0.08,0-0.14,0.1-0.16c0.17-0.04,0.29-0.14,0.3-0.27c0.01-0.17,0.01-0.37-0.01-0.54
	c-0.08-0.22-0.16-0.43-0.18-0.63c-0.01-0.08-0.03-0.16,0-0.22c0.13-0.46,0.22-0.93,0.18-1.4c-0.04-0.55-0.03-1.07,0.01-1.61
	C22.27,25.61,22.29,25.57,22.31,25.52z M25.78,35.31c-0.33,0.12-0.46,0.2-0.78,0.33c-0.14,0.05-0.2,0.12-0.05,0.22l0.37,0.27
	c0.34-0.2,0.43-0.34,0.73-0.52c0.12-0.08,0.1-0.09,0.04-0.21C26.01,35.27,25.95,35.27,25.78,35.31z M17.99,35.75
	c-0.12-0.04-0.44-0.12-0.52-0.06c-0.04,0.03-0.13,0.14-0.24,0.33l0,0l0,0l0,0l0.16,0.08c0.1,0.05,0.2,0.1,0.29,0.13l0.13,0.05
	c0.01-0.06,0.07-0.18,0.13-0.29l0.04-0.07c0.01-0.03,0.01-0.06,0.02-0.09L17.99,35.75z M39.49,22.21c-0.26,0.04-0.51,0.06-0.77,0.12
	c-0.57,0.12-0.57,0.2-0.63,0.36c-0.27,1.02-0.46,1.48-0.64,1.91c-0.08,0.18-0.17,0.34-0.35,0.42c-0.25,0.12-0.2,0.25-0.26,0.48
	c-0.1,0.47-0.17,0.44-0.37,0.9c-0.16,0.4-0.33,0.64-0.55,0.87c-0.03,0-0.1,0.01-0.13,0l-0.04-0.65c-0.05-0.43-0.14-0.34-0.21-0.78
	c-0.01-0.13-0.01-0.27-0.01-0.41c0.04-0.26,0.09-0.5,0.12-0.76c0.04-0.39,0.09-1.07,0.09-1.46c-0.04-0.03-0.08-0.08-0.13-0.12
	c-0.06,0.05-0.09,0.1-0.12,0.17c-0.08,0.3-0.22,0.77-0.27,1.08c-0.09,0.72,0.06,1.41,0,2.13c-0.06,0.64-0.18,1.24-0.1,1.89
	l0.03,0.37c0.24-0.03,0.22-0.05,0.55-0.18c0.44-0.17,0.76-0.24,1.2-0.63c0.31-0.27,0.26-0.81,0.38-1.24
	c0.14-0.54,0.35-0.72,0.56-0.81c0.05-0.01,0.12,0.01,0.18,0.03c-0.13,0.3-0.2,0.46-0.31,0.77c-0.1,0.27-0.21,0.72,0.09,0.77
	l0.22,0.04c0.01,0.05,0.01,0.13-0.03,0.17c-0.29,0.27-0.51,0.6-1.8,0.97c-0.14,0.04-0.47,0.43-0.48,0.59
	c-0.03,0.2-0.03,0.43,0.01,0.77c0.13,1.28,0.77,2.49,1.49,3.68c0.6,1.02,1.04,1.79,1.71,2.45c0.3,0.27,0.63,0.48,1.14,0.25
	c0.27-0.13,0.61-0.34,0.69-0.42c0.05-0.05,0.06-0.14,0.05-0.22c-0.29,0.04-0.89,0.12-1.24,0.13c-0.1,0-0.22-0.01-0.34-0.04
	c0.05-0.1,0.09-0.14,0.14-0.17c0.43-0.22,0.89-0.42,1.2-0.67c0.17-0.13,0.14-0.26,0.09-0.38c-0.59,0.26-1.14,0.38-1.76,0.48
	c-0.04,0-0.06-0.04-0.09-0.06c0.48-0.37,1.12-0.65,1.48-0.97c0.24-0.2,0.06-0.25-0.01-0.33c-0.51,0.18-1.02,0.34-1.55,0.5
	c-0.05,0.01-0.17-0.01-0.25-0.03v-0.06c0.05-0.04,0.13-0.12,0.2-0.14c0.5-0.24,1.11-0.67,1.49-0.98l-0.03-0.13l-0.17-0.01
	c-0.42,0.06-1.33,0.2-1.83,0.25l-0.16-0.04c-0.01-0.04-0.01-0.09,0-0.13c0.39-0.18,0.71-0.39,0.99-0.69
	c0.1-0.12,0.08-0.22,0.05-0.27c-0.08,0.04-0.24,0.09-0.34,0.13c-0.38,0.09-0.44,0.09-0.99,0.13l-0.03-0.05
	c0.01-0.05,0.04-0.09,0.08-0.16c0.38-0.14,0.46-0.27,0.67-0.4c0.13-0.08,0.4-0.27,0.47-0.38c0.03-0.04,0.01-0.14-0.01-0.17
	c-0.46,0.14-0.76,0.22-1.16,0.27c-0.06,0-0.14-0.01-0.21-0.04c0.04-0.09,0.05-0.16,0.1-0.18c0.55-0.27,0.83-0.39,1.21-0.63
	c0.12-0.08,0.22-0.25,0.27-0.34l-0.04-0.05l-0.21,0.06c-0.64,0.25-0.95,0.3-1.14,0.34c-0.08-0.01-0.13-0.06-0.21-0.13
	c0.05-0.07,0.1-0.13,0.16-0.16c0.72-0.27,1.23-0.52,1.58-0.74c0.38-0.22,0.74-0.55,0.9-0.68c0.21-0.18,0.39-0.38,0.47-0.53
	l-0.06-0.1c-0.72,0.48-1.03,0.71-1.31,0.87c-0.53,0.33-1.08,0.55-1.42,0.67c-0.05,0-0.12-0.03-0.16-0.05
	c0.01-0.04,0.04-0.1,0.06-0.14c0.09-0.09,0.35-0.38,0.56-0.67c0.63-0.29,1.06-0.44,1.53-0.74c0.44-0.27,0.63-0.43,0.77-0.57
	c0.05-0.05,0.08-0.2,0.04-0.3c-0.44,0.21-1.12,0.59-1.72,0.81L38.77,28c0.03-0.1,0.08-0.2,0.14-0.3c0.41-0.26,0.98-0.68,1.44-1.18
	c0.01-0.06,0.04-0.14,0-0.21l-0.27,0.13c-0.23,0.12-0.64,0.26-0.91,0.35l-0.05-0.05c0.03-0.12,0.05-0.21,0.1-0.31
	c0.55-0.46,0.81-0.76,1.08-1.15c0.05-0.08,0.05-0.16,0-0.3c-0.31,0.22-0.74,0.35-1.08,0.48l-0.1-0.03c-0.01-0.12,0-0.09,0.04-0.18
	c0.4-0.36,0.74-0.65,0.99-1.07c0.03-0.04,0.01-0.16-0.03-0.24c-0.34,0.12-0.59,0.21-0.95,0.3c-0.04,0-0.08-0.01-0.12-0.03
	c0.01-0.12,0-0.14,0.04-0.24c0.25-0.21,0.5-0.5,0.72-0.84c0.06-0.09,0.05-0.17,0.01-0.24c-0.17,0.04-0.5,0.09-0.65,0.1
	c-0.06,0.01-0.16-0.06-0.2-0.14c0.08-0.05,0.18-0.13,0.24-0.16l0.38-0.27c0.04-0.04,0.08-0.1,0.1-0.17
	C39.61,22.24,39.54,22.2,39.49,22.21z M41,36.54l-1.62,0.53C39.76,37.5,40.86,37.15,41,36.54z M26.01,36.77
	c-0.27,0-0.51,0.13-0.5,0.27c0.01,0.16,0.22,0.35,0.39,0.35c0.17,0,0.27-0.18,0.27-0.42C26.17,36.81,26.18,36.77,26.01,36.77z
	 M40.99,37.29l-0.38,0.35c-0.26,0.06-0.5,0.12-0.78,0.16c-0.05,0.05-0.09,0.09-0.13,0.16c0.05,0.06,0.09,0.1,0.14,0.12
	c0.34,0,0.68-0.01,0.94-0.09c0.08-0.06,0.13-0.12,0.16-0.17c0.04-0.07,0.12-0.3,0.14-0.5L40.99,37.29z M8.26,36.19
	c-0.05,0.04-0.13,0.09-0.16,0.14c-0.14,0.39-0.29,0.78-0.4,1.2c-0.04,0.1-0.04,0.25,0,0.37l0.41,1.15c0.07,0.19,0.14,0.38,0.21,0.57
	c0.04,0.08,0.14,0.13,0.21,0.18c0.05-0.08,0.13-0.16,0.14-0.22l0.12-1.64v-0.01c-0.13-0.55-0.27-1.08-0.42-1.62
	C8.37,36.26,8.28,36.18,8.26,36.19z M11.19,37.97c-0.29,0.16-0.56,0.39-0.8,0.71c-0.17,0.33-0.36,0.63-0.53,0.94
	c-0.06,0.16-0.17,0.51-0.21,0.74l0.1,0.1c0.21-0.08,0.73-0.52,0.77-0.56c0.44-0.44,0.55-0.85,0.8-1.72c0.01-0.03,0.04-0.1,0.04-0.1
	L11.19,37.97z M29,17.75c-0.56,0.09-1.27,0.3-1.96,0.53c-0.38,0.13-0.43,0.43-0.22,0.78c0.06,0.08,0.12,0.18,0.17,0.26
	c0.09,0.14,0.05,0.25-0.08,0.33l-0.18,0.13c-0.21,0.16-0.24,0.34-0.11,0.57c0.04,0.08,0.09,0.14,0.16,0.21
	c0.16,0.14,0.16,0.26,0.01,0.43c-0.18,0.2-0.24,0.43-0.14,0.72c0.06,0.2,0.22,1.33,0.22,1.55c-0.01,0.59,0.1,1.18,0.06,1.72
	c-0.03,0.4,0.18,0.76,0.56,1.19c0.42,0.47,0.73,0.89,1.29,1.44c0.68,0.64,1.04,1.41,1.11,2.34c0.03,0.44,0.24,0.6,0.65,0.82
	c0.89,0.25,1.19,0.74,1.29,1.42c0.18,1.2-0.41,2.36-1.49,2.26c-0.55-0.05-0.82-0.39-0.82-0.68c0-0.3,0.16-0.61,0.42-0.71
	c0.04-0.01,0.2,0,0.24,0.01c0.03,0.06,0.03,0.14,0.03,0.18c0,0.08-0.1,0.13-0.14,0.29c-0.03,0.1-0.03,0.31,0.08,0.44
	c0.12,0.14,0.31,0.2,0.52,0.13c0.25-0.08,0.42-0.29,0.53-0.51c0.5-0.9,0.24-1.97-0.72-2.21c-0.3-0.08-0.74-0.13-1.02,0.04
	c-0.6,0.37-1.11,0.57-1.61,1.03c-0.08,0.06-0.12,0.18-0.12,0.29c0.01,0.89,0.03,1.51,0.08,2.39c0.06,1.33,0.18,2.64,0.34,3.56
	c0.06,0.38,0.16,0.59,0.21,0.72c0.05,0.12,0.16,0.21,0.24,0.31c0.1-0.08,0.18-0.16,0.29-0.26c0.16-0.25,0.29-0.5,0.44-0.73
	l0.12-0.04c0.05,0.04,0.14,0.09,0.14,0.14l-0.05,0.6c-0.01,0.22-0.03,0.44,0.01,0.65c0.03,0.12,0.16,0.22,0.25,0.3
	c0.06-0.09,0.14-0.2,0.2-0.3c0.05-0.13,0.06-0.24,0.1-0.39c0.08-0.08,0.13-0.1,0.22-0.12c0.05,0.06,0.08,0.16,0.08,0.21
	c-0.01,0.29,0,0.55,0.03,0.71c0.01,0.1,0.12,0.13,0.21,0.16l0.16-0.24c0.09-0.18,0.18-0.34,0.29-0.48c0.09-0.12,0.35-0.37,0.55-0.52
	c0.07-0.05,0.2-0.08,0.29-0.06c0.01,0.1,0.01,0.21-0.03,0.29c-0.22,0.43-0.34,0.68-0.43,1c-0.07,0.24-0.12,0.39-0.13,0.47
	c0.04,0.01,0.18-0.01,0.25-0.03c0.05-0.01,0.13-0.04,0.16-0.17c0.03-0.1,0.05-0.14,0.06-0.2c0.04-0.09,0.12-0.14,0.2-0.2
	c0.09,0.05,0.17,0.12,0.21,0.21c0.07,0.13,0.08,0.31,0.18,0.43c0.07,0.08,0.1,0.1,0.21,0.17c0.05,0,0.12-0.03,0.18-0.1
	c0.06-0.09,0.13-0.4,0.21-0.51c0.1,0.01,0.17,0.05,0.25,0.14c0.07,0.08,0.09,0.25,0.18,0.33c0.1,0.08,0.9,0.1,1.04,0.09
	c0-0.12-0.03-0.43-0.03-0.47c-0.01-0.93,0-1.67,0.06-2.58c0.06-0.97,0.17-1.96,0.22-2.81c0.04-0.69,0.13-1.76,0.18-2.6l0.17-0.02
	c0.07,0.13,0.21,0.78,0.21,1.02c0,0.53-0.04,1.02-0.1,1.85c-0.09,1.08,0.03,2.18-0.12,3.25c-0.06,0.52-0.2,1.34-0.16,2.06
	c0.01,0.29,0.05,0.37,0.22,0.41c0.52,0.12,0.88,0.17,1.14,0.17c0.81,0,1.33-0.36,1.27-0.81c-0.04-0.24-0.13-0.51-0.2-0.89
	c-0.14-0.93-0.16-1.25-0.18-2.13l0.21-0.01c0.3,1.23,0.55,1.83,0.64,2.47c0.1,0.57,0,1.57,0.12,2.08c1.34,0.14,2.95,0.01,3.45-0.09
	c0.12-1.1,0.09-2.23-0.39-2.65c-0.21-0.18-0.81-0.64-1.07-0.81c-0.63-0.43-1.18-1.19-1.44-1.59c-0.57-0.91-0.73-1.2-1.24-2.09
	c-0.47-0.82-0.78-1.53-1.11-2.01c-0.21-0.33-0.38-0.52-0.47-0.61c-0.42-0.13-0.77-0.17-1.21-0.22c-0.57-0.06-0.95-0.13-1.28-0.48
	c-0.27-0.29-0.39-0.51-0.22-0.89c0.09-0.2-0.03-0.34-0.18-0.51c-0.16-0.21-0.12-0.43,0.09-0.59c0.39-0.38,0.94-0.76,1.51-0.89
	c0.04,0,0.08-0.01,0.1-0.03c-0.03-0.12-0.06-0.34-0.1-0.46c-0.26,0.04-0.55,0.12-1.07,0.12c-0.73,0-1.38-0.3-1.65-1.25
	c-0.1-0.34-0.54-1.3-0.65-1.74c-0.08-0.26,0.01-0.59,0.13-0.95c-0.22-0.29-0.42-0.6-0.61-0.86c-0.39-0.17-0.86-0.34-1.18-0.72
	c-0.13-0.16-0.2-0.17-0.31-0.09c-0.1,0.08-0.13,0.2-0.27,0.33c-0.14,0.12-0.43,0.13-0.71,0.01c-0.26-0.1-0.39-0.38-0.38-0.64
	c0.03-0.35,0.2-0.65,0.04-0.8c-0.27-0.29-0.52-0.61-0.2-0.84c0.09-0.08,0.29-0.06,0.41-0.13c0.35-0.21,0.51-0.57,0.42-0.98
	c-0.07-0.29-0.22-0.42-0.51-0.44c-0.42-0.03-0.6-0.24-0.6-0.51c0-0.35,0.31-0.5,0.59-0.43c0.12,0.03,0.27,0.08,0.36,0.17
	c0.03,0.13,0.09,0.31,0.2,0.3c0.47-0.05,0.83-0.55,0.83-1.01C29.4,17.77,29.3,17.69,29,17.75z M34.67,41.85
	c-0.39,0.31-0.78,0.47-1.28,0.56c-0.1,0.01-0.24,0.04-0.33,0.12c-0.06,0.05-0.09,0.2-0.06,0.26c0,0.08,0.13,0.17,0.18,0.17
	c0.43,0.03,0.77,0.03,1.18-0.01c0.42-0.03,0.83-0.14,1.28-0.25c0.17,0.06,0.4,0.14,0.61,0.21c0.31,0.09,0.56,0.14,0.83,0.09
	c0.22-0.04,0.35-0.25,0.33-0.47c-0.01-0.2-0.1-0.35-0.35-0.42c-0.54-0.12-1.08-0.2-1.59-0.38C35.17,41.64,34.93,41.65,34.67,41.85z
	 M19.93,42.37c0.06,0.05,0.17,0.22,0.12,0.33c-0.03,0.1-0.14,0.24-0.26,0.27c-0.77,0.26-1.58,0.47-2.43,0.5
	c-0.86,0.04-1.7-0.03-2.53-0.12c-0.18-0.01-0.35,0-0.51,0c-0.04,0-0.3-0.01-0.46-0.03c-0.1-0.01-0.38-0.06-0.44-0.09
	c0.04-0.06,0.05-0.12,0.12-0.13c0.1-0.01,0.35-0.01,0.38,0c0.5,0.14,0.95-0.22,1.42-0.29c0.1-0.01,0.22-0.03,0.34-0.01
	c0.31,0.01,0.61,0.03,0.95-0.06c0.14-0.05,0.33,0.01,0.48,0.08c0.54,0.25,1.04,0.38,1.57,0.07c0.27-0.18,0.55-0.35,0.83-0.5
	C19.63,42.32,19.82,42.32,19.93,42.37z M6.5,43.23c-0.06,0-0.17,0.2-0.27,0.21c-0.34,0.03-0.47,0.05-0.47,0.21
	c0,0.2,0.1,0.3,0.27,0.25c0.46-0.14,0.72-0.16,1.21-0.08c0.04,0,0.1,0,0.12-0.01c0.09-0.09,0.16-0.18,0.23-0.27
	c-0.08-0.06-0.14-0.16-0.23-0.18C7.07,43.28,6.8,43.23,6.5,43.23z M39.09,42.74c-0.34,0.26-0.43,0.4-0.82,0.69
	c-0.13,0.08-0.53,0.25-0.68,0.46c-0.12,0.14-0.12,0.33,0.2,0.4c0.25,0.06,0.56,0.12,0.7,0.13c0.44,0,0.76-0.08,1.06-0.27
	c0.22-0.14,0.44-0.34,0.69-0.43c0.17-0.06,0.39-0.09,0.57-0.13c0.2-0.04,0.39-0.24,0.41-0.39c0-0.22-0.18-0.25-0.33-0.3
	c-0.42-0.13-0.91-0.12-1.34-0.22C39.41,42.65,39.21,42.65,39.09,42.74z M21.89,32.23c0.04,0.1,0.12,0.35,0.09,0.46
	c-0.16,0.6-0.04,1.07,0.26,1.62l0.56,1.45c0.13,0.14,0.25,0.03,0.38,0.17c0.48,0.98,1.03,2.43,1.76,3.05
	c0.6,0.5,1.24,1.37,1.81,1.89c0.33,0.3,0.56,1.04,0.98,1.19c0.3,0.1,0.29,0.26,0.25,0.53c-0.05,0.33,0.08,0.39,0.21,0.39
	c0.2-0.03,0.39-0.08,0.6-0.09c0.17-0.01,0.3,0.12,0.29,0.27c0,0.06-0.16,0.18-0.27,0.18c-0.22,0.03-0.44-0.01-0.67-0.01
	c-0.08,0.01-0.16,0.05-0.24,0.08c0.03,0.09,0.05,0.18,0.12,0.24c0.37,0.2,0.63,0.22,0.99,0.3c0.06,0,0.12,0.05,0.2,0.08
	c-0.03,0.06-0.1,0.21-0.17,0.24c-0.12,0.03-0.27,0.03-0.4,0c-0.33-0.07-0.63-0.21-0.93-0.34c-0.1-0.04-0.18-0.16-0.27-0.22
	c-0.08-0.04-0.17-0.05-0.26-0.08c0,0.1-0.04,0.2-0.03,0.29c0.01,0.08,0.08,0.14,0.1,0.21c0.03,0.06,0.08,0.2,0.05,0.24
	c-0.03,0.04-0.24,0.17-0.3,0.13c-0.26-0.12-0.47-0.42-0.72-0.56c-0.31-0.2-0.6-0.2-0.9,0.01c-0.3,0.21-0.57,0.39-0.86,0.56
	c-0.37,0.24-0.74,0.61-1.18,0.61c-0.24,0-0.82-0.37-1.08-0.44c-0.5-0.16-0.65-0.17-1.17-0.29c-0.43-0.1-0.82,0.07-1.27,0.21
	c-0.55,0.17-1.14,0.24-1.72,0.34c-0.34,0.06-0.72,0-1.07-0.01c-0.52-0.01-1.03-0.07-1.55-0.05c-0.34,0-0.72,0.07-1.04,0.17
	c-0.16,0.05-0.33,0.08-0.47,0.08c-0.24,0-0.46-0.07-0.68-0.21c-0.24-0.14-0.47-0.2-0.74-0.14c-0.25,0.05-0.73,0.14-0.93-0.04
	c-0.25-0.25-0.83-0.74-1.16-0.68c-1.04,0.18-1.54,0.77-2.56,0.5c-0.72-0.18-1.19-0.35-1.89-0.12c-0.17,0.06-0.63-0.04-0.81-0.01
	c-0.26,0.04-0.35-0.01-0.31-0.27l0.03-0.14c0.04-0.27-0.22-0.47-0.48-0.38C4.14,43.7,3.97,44,3.7,44.14
	c-0.5,0.24-0.97,0.17-1.5-0.04c-0.36-0.16-0.74-0.09-1.1,0.09c-0.22,0.12-0.59,0.65-0.83,0.65c-0.09,0-0.22-0.14-0.26-0.26v-0.26
	c0.09-0.2,0.43-0.46,0.57-0.53c0.64-0.3,1.29-0.38,2-0.26c0.31,0.05,0.65,0.09,0.95-0.04c0.24-0.11,0.48-0.12,0.71-0.24
	c0.39-0.21,0.73-0.39,1.18-0.24c0.33-0.14,0.5-0.25,0.67-0.5c0.08-0.39-0.06-0.81,0.04-1.19c0.09-0.35,0.24-0.78,0.35-1.12
	c0.07-0.17,0.18-0.16,0.3-0.14c0.31,0.47,0.69,0.9,0.51,1.33c-0.13,0.3,0.55,0.51,0.43,0.81c-0.11,0.22-0.05,0.36,0.17,0.39
	c0.1,0.01,0.13,0.01,0.18,0.01c0.2,0,0.21-0.13,0.2-0.38c-0.04-1.03-0.2-1.96-0.65-2.9c-0.1-0.22-0.18-0.44-0.29-0.67
	C7.1,38.24,7.14,37.8,7.3,37.36l0.3-0.89c0.16-0.42,0.51-0.78,0.9-0.94c0.05-0.01,0.2,0.05,0.24,0.12c0.64,0.9,0.88,2,0.56,3.08
	c-0.09,0.33-0.16,0.67-0.22,1.02c-0.01,0.08,0.01,0.17,0.03,0.26c0.07-0.05,0.14-0.1,0.2-0.17c0.31-0.48,0.64-0.94,0.89-1.45
	c0.25-0.5,0.65-0.69,1.16-0.8c0.55-0.1,0.71-0.04,0.56,0.5c-0.09,0.31-0.18,0.63-0.29,0.91c-0.16,0.5-0.47,0.9-0.93,1.12
	c-0.2,0.1-0.47,0.33-0.67,0.44c-0.07,0.04-0.14,0.1-0.21,0.17c-0.1,0.14-0.13,0.13-0.01,0.27c0.1,0.13,0.26,0.05,0.39-0.03
	c0.26-0.2,0.51-0.34,0.77-0.51c0.25-0.17,0.52-0.34,0.8-0.46c0.2-0.09,0.26-0.01,0.25,0.21c-0.03,0.27-0.07,0.63-0.33,0.72
	c-0.29,0.1-0.68,0.14-0.93,0.27c-0.17,0.1-0.33,0.22-0.44,0.36c-0.17,0.26-0.17,0.44-0.31,0.72c-0.03,0.07,0,0.17,0.01,0.26
	c0.08-0.03,0.17-0.03,0.24-0.06c0.34-0.25,0.52-0.52,0.86-0.78c0.27-0.21,0.33-0.18,0.43,0.14c0.04,0.1,0.12,0.2,0.22,0.29
	c0.11-0.06,0.22-0.13,0.3-0.24c0.08-0.09,0.14-0.24,0.18-0.35c0.08-0.25,0.48-1.33,0.72-1.62c0.06,0,0.16,0.05,0.21,0.08
	c0.09,0.21-0.03,0.9-0.01,1.04c0.01,0.42,0.14,0.51,0.53,0.31c0.29-0.14,0.56-0.3,0.85-0.46c0.05-0.04,0.12-0.08,0.17-0.08
	c0.09,0,0.2,0.04,0.25,0.09c0.03,0.03,0,0.14-0.03,0.2c-0.1,0.14-0.25,0.26-0.34,0.42c-0.05,0.09-0.04,0.24-0.05,0.35
	c0.09,0,0.21,0.01,0.3-0.03c0.24-0.06,0.46-0.17,0.68-0.27c0.31-0.13,0.63-0.09,0.97,0.01c0.33,0.1,0.65,0.18,0.97,0.27
	c0.25,0.06,0.53-0.05,0.76-0.16c0.48-0.24,0.89-0.39,1.38-0.53c0.68-0.18,1.21-0.56,1.72-0.99c0.12-0.12,0.29-0.18,0.42-0.3
	c0.1-0.09,0.2-0.5,0.21-0.63c0.08-0.35-0.05-1.17,0.01-1.54c0.04-0.09,0.12-0.29,0.17-0.38c0,0,0.13,0.04,0.16,0.04
	c0.04,0.13,0.1,0.34,0.1,0.44c-0.03,0.63-0.04,2.02-0.1,2.64c0,0.14-0.25,0.37-0.39,0.42c-1.1,0.4-2.21,0.82-3.32,1.15
	c-0.51,0.13-1.06,0.05-1.58,0.06c-0.42,0-0.84-0.06-1.24-0.04c-0.33,0.03-0.78,0.33-1.12,0.38c-0.91,0.14-1.7,0.08-2.6,0.25
	c-0.83,0.16-1.63,0.38-2.43,0.6c-0.21,0.07-0.33,0.12-0.5,0.25c-0.06,0.05-0.08,0.14-0.1,0.21l0.13,0.07
	c0.04,0.02,0.09,0.03,0.13,0.03c0.2-0.03,0.37,0.04,0.57,0.01c0.5-0.08,0.98-0.13,1.49-0.18c0.1,0,0.25,0.08,0.34,0.14
	c0.25,0.17,0.5,0.22,0.77,0.16c0.3-0.07,0.56,0.01,0.82,0.21c0.46,0.37,0.57,0.38,1.1,0.09c0.41-0.22,0.85-0.22,1.29-0.2
	c0.53,0.04,1.08,0.08,1.62,0.16c0.4,0.05,0.81,0.16,1.21,0.21c0.74,0.08,1.37-0.12,1.85-0.72c0.25-0.33,0.5-0.64,0.7-0.95
	c0.16-0.22,0.34-0.36,0.6-0.36c0.56-0.01,1.14-0.14,1.7-0.1c0.31,0.03,0.46,0.31,0.46,0.5c-0.01,0.18-0.09,0.3-0.3,0.29
	c-0.43-0.03-0.85-0.05-1.27-0.1c-0.43-0.04-0.78,0.09-1.04,0.42c-0.14,0.16-0.11,0.26,0.1,0.31c0.09,0.01,0.2,0.05,0.3,0.07
	c0.22,0.03,0.33,0.13,0.39,0.34c0.04,0.13,0.31,0.26,0.77,0.29c0.59,0.04,0.89,0.04,1.4-0.13c0.21-0.06,0.35-0.31,0.5-0.5
	c0.34-0.48,0.56-0.6,1.16-0.48c0.42,0.08,0.71-0.36,1.07-0.34c0.44,0.04,0.25-0.59,0.08-0.89c-0.16-0.29-0.31-0.53-0.6-0.87
	c-0.6-0.44-1.08-1.33-1.61-1.98c-0.39-0.48-0.85-0.67-1.19-1.25c-0.22-0.38-0.56-1.01-0.77-1.42c-0.14-0.27-0.39-0.76-0.56-1.02
	c-0.16-0.26-0.33-0.53-0.54-0.76c-0.29-0.29-0.89-0.09-1.19,0.06c-0.08,0.04-0.25,0.12-0.35,0.25c0.86,0.73,0.9,1.74,0.6,2.48
	c-0.09,0.24-0.17,0.22-0.42,0.13c-0.22-0.08-0.47-0.18-0.68-0.27c-0.14-0.08-0.27-0.04-0.43,0.05c-0.65,0.39-1.45,0.93-1.58,0.8
	c-0.26-0.26-0.68-1.06-0.65-1.45c0.01-0.28,0.09-0.52,0.18-0.7l0.06-0.1l0,0l0,0l-0.28-0.16c-0.19-0.12-0.37-0.24-0.54-0.38
	l-0.01-0.29c0.55-0.53,1.28-1.03,1.85-1.03c0.42,0,0.93,0.21,0.91,0.67c-0.01,0.05-0.07,0.18-0.09,0.22c-0.04,0-0.08-0.01-0.1-0.03
	c-0.16-0.34-0.41-0.53-0.82-0.46c-0.38,0.08-0.72,0.27-0.97,0.55c-0.16,0.17,0.18,0.27,0.39,0.39c0.14,0.08,0.38,0.21,0.46,0.29
	l-0.04,0.1l-0.02,0.04l-0.02,0.11c-0.13,0.57-0.48,1.63-0.23,1.68c0.74,0.13,1.75-0.9,1.85-2.36c-0.03-0.53,0.27-0.78,0.85-0.98
	c0.68-0.27,1-0.57,0.89-1.32c-0.05-0.37,0.16-0.26,0.37-0.56C21.75,32.37,21.84,32.28,21.89,32.23z M37.03,0
	c0.42,0,0.74,0.09,1.12,0.22c0.29,0.1,0.33,0.14,0.25,0.43c-0.09,0.29-0.17,0.56-0.25,0.85c-0.09,0.38-0.03,0.43,0.31,0.63
	c0.3,0.17,0.53,0.3,0.72,0.52c0.14,0,0.31-0.07,0.38-0.13c0.36-0.74,1-1.48,1.62-1.83c0.27-0.16,0.35-0.14,0.46,0.13
	c0.16,0.4,0.27,0.78,0.35,1.21c0.03,0.12,0.04,0.31,0.06,0.46c0.08-0.07,0.24-0.27,0.31-0.37c0.18-0.2,0.34-0.42,0.63-0.68
	c0.43-0.39,0.81-0.65,1.46-0.76c0.51-0.08,1.23,0.03,1.7,0.17c0.31,0.09,0.06,0.4-0.12,0.65c-0.08,0.13-0.16,0.23-0.25,0.36
	c-0.08,0.13-0.14,0.14-0.25,0.03c-0.16-0.18-0.31-0.51-0.47-0.67c-0.29-0.29-0.8-0.12-1.15,0.09c-0.72,0.42-1.29,1.03-1.7,1.74
	c-0.25,0.4-1.1,1.49-1.49,1.76c-0.05,0.03-0.13,0.01-0.2,0.03l0.03-0.18c0.37-0.57,0.97-1.62,1.03-3.25
	c-0.17-0.04-0.38-0.01-0.6,0.13c-0.21,0.13-0.44,0.37-0.6,0.63c-0.6,0.98-0.76,1.97-0.83,2.77c-0.03,0.25-0.03,0.44-0.25,0.56
	c-0.37,0.21-0.51,0.3-0.88,0.47c-0.09,0.01-0.14,0-0.22-0.01c0.18-0.77,0.05-1.31-0.39-2.04c-0.08-0.14-0.18-0.21-0.34-0.16
	c-0.09,0.05-0.18,0.12-0.38,0.27c-0.67,0.6-1.03,1.48-1.03,2.53c0,0.18,0.18,0.18,0.3,0.09c0.16-0.13,0.24-0.24,0.33-0.4
	c0.22-0.36,0.41-0.76,0.61-1.12c0.04-0.08,0.14-0.14,0.22-0.17c0.04,0.08,0.04,0.18,0.03,0.26l-0.16,0.71
	c-0.06,0.29-0.42,0.73-0.71,0.95c-0.05,0.09-0.1,0.25,0.08,0.26c0.74,0.04,1.19-0.05,1.84-0.39c0.68-0.35,1.12-0.64,1.42-0.6
	c0.21,0.03,1.23,0.33,1.32,0.39c-0.05,0.11-0.13,0.14-0.2,0.21c-0.1,0.09-0.6,0.37-0.82,0.55c-0.35,0.29-0.47,0.42-0.4,1.01
	c0.04,0.26,0.08,0.51,0.14,0.76c0.03,0.08,0.09,0.2,0.14,0.21c0.08,0,0.17-0.07,0.22-0.13c0.29-0.35,0.56-0.73,0.85-1.08
	c0.04-0.04,0.12-0.08,0.17-0.1c0.01,0.07,0.03,0.13,0.01,0.18c-0.06,0.42-0.29,0.74-0.55,1.06l-0.18,0.22
	c-0.22,0.33-0.24,0.38-0.01,0.69c0.27,0.39,0.31,0.82,0.22,1.24c-0.06,0.3-0.16,0.76-0.22,1.2l-0.77,0.4
	c-0.42,0.25-0.61,0.37-0.8,0.52c-0.3,0.26-0.35,0.47-0.35,0.54c0,0.07,0.06,0.1,0.2,0.17c0.12,0.07,0.22,0.1,0.34,0.14
	c0.39,0.12,1.11-0.03,1.24-0.44c0.04-0.09,0.09-0.27,0.09-0.44c0.13,0.03,0.25,0.03,0.29,0.14c0.14,0.43,0.27,0.73,0.55,1.02
	c-0.04,0.12-0.09,0.21-0.21,0.39c-0.17,0.27-0.31,0.51-0.55,0.46c-0.08-0.01-0.18-0.04-0.29-0.04c-0.17,0-0.35,0-0.33,0.31
	c0.04,0.41,0.09,0.59,0,1c-0.05,0.22-0.12,0.47-0.34,0.46c-0.56-0.04-0.91-0.44-1.45-0.43c-0.46,0.01-0.77-0.07-1-0.18
	c-0.29-0.14-0.48-0.3-0.61-0.38c-0.59,0.09-1.61,0.27-2.27,0.39c-0.85,0.14-1.42,0.24-2.45,0.44c-0.59,0.12-1.24,0.25-1.83,0.38
	c-0.21,0.05-0.2,0.18-0.24,0.39c-0.1,0.48-0.29,0.95-0.37,1.44c-0.01,0.08,0.09,0.17,0.14,0.25c0.05-0.05,0.13-0.09,0.18-0.16
	c0.12-0.17,0.2-0.37,0.33-0.52c0.22-0.25,0.82,0.01,0.93,0.34c0.08,0.21-0.2,0.3-0.17,0.52c0.01,0.2,0.29,0.38,0.29,0.63
	c0,0.21-0.08,0.35-0.12,0.47c0.82,0.52,1.02,0.97,1.04,1.65c0.03,0.21,0.03,0.31,0.14,0.43c0.12,0.12,0.3,0.29,0.38,0.39
	c0.38,0.44,0.73,1.15,0.99,1.23c0.13,0.04,0.47,0.06,0.72,0.04l0.05,0.14c-0.08,0.2-0.31,0.44-0.52,0.51
	c-0.6,0.2-0.9-0.71-1.23-1.21c-0.17-0.26-0.34-0.51-0.51-0.68c-0.26,0.29-0.69,1.45-0.67,2c0.01,0.22,0.2,0.59,0.24,0.71
	c0.13,0.33,0.33,0.74,0.67,1.31c0.21,0.34,0.6,0.46,0.98,0.6c0.33,0.12,0.56,0.17,0.9,0.08c0.17-0.04,0.24-0.05,0.31-0.12
	l-0.01-0.67c0.03-0.76,0.14-1.42,0.24-2.17c0.08-0.56,0.09-0.8,0.13-1.33c0-0.29,0.21-0.76,0.56-1.01c0.38-0.26,0.53-0.61,0.51-1.06
	c-0.01-0.14,0.03-0.3,0.09-0.43c0.12-0.25-0.12-0.25-0.35-0.29c-0.26-0.04-0.33-0.14-0.2-0.38c0.25-0.41,0.6-0.76,0.87-1.15
	c0.18-0.29,0.26-0.48,0.33-0.65c-0.06-0.34-0.04-0.85,0.3-0.86c0.38-0.04,0.86-0.05,1.2,0c0.37,0.08,0.95,0.35,1.08,0.5
	c0.04,0.07,0.05,0.18,0.05,0.26c0,0.09,0.2,0.16,0.57,0.53c0.29,0.27,0.57,1.03,0.08,2.21c0.25,0.14,0.24,0.38,0.21,0.64
	c-0.01,0.22,0.05,0.26,0.26,0.34c0.26,0.09,0.4,0.25,0.63,0.8c0.2,0.51,0.76,1.89,1.1,5.26c-0.06,1.06-0.25,1.84-0.46,2.7
	c0.22,1.62,0.48,3.6,0.68,6.33c0.17,2.57,0.21,3.89,0.26,4.95c0.46,0.04,0.6,0.13,0.69-0.25c0.03-0.12,0.05-0.25,0.09-0.36
	c0.04-0.08,0.09-0.13,0.16-0.18c0.09,0.04,0.14,0.09,0.2,0.16l0.27,0.82c0.06,0.24,0.13,0.39,0.22,0.61
	c0.04,0.07,0.13,0.16,0.18,0.18c0.08-0.01,0.13-0.03,0.18-0.08c0.04-0.1,0.07-0.25,0.08-0.35c0.03-0.27,0.03-0.48,0.03-0.72
	c0-0.12,0.06-0.2,0.12-0.26c0.09,0.03,0.17,0.08,0.21,0.14c0.14,0.31,0.27,0.65,0.41,0.95c0.05,0.13,0.12,0.24,0.2,0.33
	c0.08,0,0.16-0.03,0.17-0.1c0.05-0.27,0.06-0.76,0.05-1.14c-0.07-0.22-0.16-0.46-0.2-0.65c-0.01-0.07,0.04-0.17,0.09-0.22
	c0.05,0.01,0.12,0.05,0.17,0.09c0.46,0.51,0.88,1.07,1.29,1.7c0.05,0.05,0.09,0.14,0.14,0.17c0.09,0.04,0.18,0.04,0.26,0.04
	c0.05-0.06,0.09-0.18,0.08-0.26c-0.01-0.1-0.14-0.24-0.14-0.44c0-0.03,0.03-0.1,0.09-0.22c0.14,0.03,0.27,0.08,0.33,0.16
	c0.18,0.2,0.3,0.35,0.41,0.52c0.12,0.2,0.16,0.29,0.25,0.46c0.08,0.07,0.16,0.1,0.26,0.13c0.06-0.09,0.09-0.22,0.08-0.31
	c-0.01-0.1-0.14-0.35-0.17-0.46l0.08-0.08c0.13,0.03,0.27,0.1,0.37,0.21c0.08,0.08,0.17,0.24,0.29,0.42
	c0.16,0.25,0.42,0.46,0.99,0.54c0.01,0.05,0.04,0.12,0.04,0.17c-0.08,0.05-0.21,0.12-0.56,0.18c-0.6,0.12-1.36,0.13-2.19,0.04
	c-0.55-0.06-1.1,0.05-1.61,0.35c-0.34,0.2-0.71,0.17-1.11,0.16c-0.78-0.04-1.58-0.04-2.38-0.05c-1.4-0.03-1.95,0.16-3.34,0.3
	c-0.54,0.05-0.71,0.08-1.04,0.08c-0.61,0-1.88-0.31-1.88-0.71c0-0.27,0.16-0.5,0.16-0.64c0-0.17-0.04-0.22-0.2-0.26
	c-0.14-0.03-0.29-0.05-0.43-0.07c-0.76-0.04-1.5-0.01-2.22,0.13c-0.4,0.08-0.82,0.17-1.23,0.24c-1.03,0.16-1.58-0.01-2.11-0.44
	c-0.37-0.29-0.51-0.42-0.76-0.8c-0.44-0.65-1.27-1.33-2.09-1.98c-0.88-0.71-1.98-1.97-2.68-2.85c-0.16-0.18-0.43-1.07-0.52-1.33
	c-0.06-0.18-0.21-0.72-0.13-1.15c0.1-0.09,0.24-0.2,0.34-0.21c0.25-0.04,0.63-0.06,0.99-0.21c0.12-0.05,0.27-0.16,0.34-0.26
	c0.03-0.05,0.03-0.09,0.03-0.14c-0.05-0.04-0.12-0.08-0.17-0.06c-0.31,0.05-0.73,0.05-1.03,0c-0.18-0.03-0.39-0.1-0.47-0.2
	c0.1-0.13,0.18-0.22,0.29-0.29c0.59-0.12,1.04-0.25,1.37-0.52c0-0.07-0.01-0.13-0.04-0.17c-0.38-0.03-0.68-0.03-1.11-0.13
	c-0.13-0.03-0.31-0.14-0.42-0.25c0.12-0.14,0.17-0.2,0.31-0.26c0.21-0.07,0.34-0.13,0.53-0.24l0.15-0.09
	c0.24-0.14,0.44-0.26,0.51-0.38c0-0.05,0-0.1-0.01-0.18c-0.39-0.01-0.87-0.04-1.33-0.14c-0.06-0.04-0.13-0.09-0.16-0.12
	c0.05-0.12,0.08-0.16,0.17-0.25c0.31-0.08,0.89-0.13,1.2-0.24c0.09-0.06,0.13-0.13,0.17-0.22c-0.05-0.06-0.1-0.12-0.21-0.17
	c-0.35-0.01-0.78-0.05-1.14-0.13c-0.08-0.03-0.14-0.12-0.2-0.22c0.08-0.06,0.16-0.13,0.24-0.14l1-0.21
	c0.09-0.04,0.22-0.14,0.27-0.24c-0.05-0.1-0.17-0.22-0.27-0.24c-0.3-0.04-0.51-0.1-0.82-0.16c-0.06-0.01-0.18-0.07-0.26-0.1
	l-0.06-0.1c0.09-0.06,0.2-0.13,0.26-0.14c0.18-0.04,0.44-0.12,0.64-0.17c0.17-0.05,0.35-0.12,0.38-0.25c0.01-0.05,0-0.1-0.01-0.13
	c-0.27-0.08-0.82-0.03-1.07-0.11c-0.09-0.03-0.17-0.12-0.22-0.24l0.24-0.13c0.3-0.07,0.63-0.2,0.86-0.33
	c0.05-0.08,0.08-0.16,0.1-0.22c-0.05-0.04-0.13-0.08-0.18-0.09c-0.31-0.09-0.5-0.16-0.81-0.27c-0.06-0.06-0.1-0.16-0.13-0.22
	c0.04-0.05,0.13-0.13,0.2-0.14l0.46-0.12c-0.06-0.16-0.14-0.34-0.22-0.46c-0.05-0.08-0.07-0.09-0.16-0.16
	c-0.27-0.16-0.64-0.31-0.93-0.5c-0.52-0.33-1.07-0.64-1.49-1.06c-0.5-0.5-0.98-1.07-1.1-1.8c-0.08-0.43-0.09-0.9-0.01-1.33
	c0.05-0.33,0.24-0.68,0.42-0.99c0.06-0.12,0.12-0.22,0.05-0.31c-0.26-0.34-0.48-0.57-0.82-0.88c-0.14-0.13-0.34-0.22-0.51-0.27
	c-0.53-0.14-1.02-0.17-1.33-0.24c-0.38-0.09-0.64-0.12-0.82-0.09c-0.14,0.13-0.3,0.34-0.4,0.6c0.09,0.35,0.26,0.9,0.27,1.34
	c0.38,0.04,0.83,0.17,1.3,0.44c0.38,0.24,0.47,0.37,0.61,0.84c0.33,1.04,0.42,2.39,0.64,3.82c0.21,1.36-0.51,2.49-1.89,2.55
	c-0.31,0.01-0.61,0.01-0.95-0.09c-0.29-0.09-0.52-0.25-0.61-0.53c-0.13-0.39-0.27-0.8-0.39-1.19c-0.09-0.31-0.2-0.68-0.27-0.85
	c-0.98,0.25-2.01,0.57-3.07,1.08c-0.91,0.44-1.67,0.86-2.64,1.25c-1.85,0.76-3.89,1.23-5.72,1.23c-0.97,0-2.04-0.2-2.78-0.5
	c-0.67-0.26-0.9-0.54-1.06-1.37c-0.09-0.43-0.12-1.29-0.03-2.15c0.08-0.71,0.2-1.19,0.68-2.51c0.21-0.57,0.48-0.85,0.93-1.07
	c0.33-0.16,0.78-0.3,1.14-0.38c0.47-0.1,0.8-0.13,1.28-0.1c0.29,0.01,0.67,0.07,0.93,0.17c0.52,0.2,0.6,0.63,0.63,1.15
	c0,0.3,0.01,0.61-0.01,0.91c-0.03,0.25-0.01,0.34-0.01,0.44c0.67,0.09,2.05,0.05,2.7-0.09c0.55-0.12,0.77-0.21,1.76-0.67
	c0.68-0.3,1.61-1,2.68-1.56c0.55-0.29,0.86-0.64,0.91-1.06c0.01-0.09,0.01-0.2-0.04-0.27c-0.06-0.01-0.21-0.01-0.29,0.01
	c-0.3,0.25-0.71,0.63-1.07,0.88c-0.1,0.01-0.4,0.04-0.53,0.08c-0.04-0.03-0.09-0.09-0.06-0.12c0.34-0.22,0.72-0.43,0.97-0.73
	c0.16-0.18,0.08-0.34-0.22-0.38c-0.34-0.05-0.74,0.09-1.06,0.36c-0.53,0.46-0.78,1.46-0.84,2.1c-0.12,0.1-0.16,0.1-0.27,0.16
	c-0.1-0.44-0.13-0.97,0.01-1.41c0.05-0.2,0.13-0.35,0.27-0.67c0.05-0.13,0.01-0.34-0.17-0.4c-0.12-0.04-0.17-0.01-0.22,0.1
	c-0.26,0.76-0.72,1.08-1.36,1.55c-0.07,0.05-0.64,0.36-0.8,0.46c-0.27-0.13-0.46-0.3-0.71-0.61c-0.26-0.33-0.63-0.87-0.85-1.2
	c-0.1-0.14-0.25-0.2-0.42-0.18c-0.35,0.03-0.89,0.06-1.32-0.04c-0.48-0.12-0.77-0.33-1.07-0.74c-0.25-0.34-0.37-0.41-0.68-0.1
	c-0.26,0.24-0.51,0.48-0.77,0.73c-0.08,0.08-0.17,0.14-0.27,0.21c-0.2,0.12-0.33,0.08-0.4-0.16c-0.25-0.71-0.34-1.45-0.34-2.21
	c0-0.31,0.03-0.78,0.04-1.1c-0.22-0.2-0.42-0.33-0.67-0.44c-0.69-0.33-1.21-0.81-1.75-1.34C0.06,14.5,0,14.37,0,14.27
	c0-0.08,0.05-0.25,0.3-0.39c0.31-0.18,0.81-0.27,1.28-0.29c0.42-0.01,0.97,0.18,1.38,0.14c0.33-0.03,0.43-0.27,0.38-0.73
	C3.22,12,3.55,11.34,4.16,10.73c0.44-0.47,0.41-0.98,0.3-1.55c-0.05-0.26-0.12-0.33-0.38-0.3c-0.69,0.16-0.67,0.17-0.8,0.78
	c-0.08,0.39-0.22,0.8-0.44,1.12C2.57,11.23,2.19,11.61,1.87,12c-0.12,0.16-0.25,0.16-0.42,0.05c-0.99-0.61-1.37-1.84-0.9-2.9
	c0.12-0.3,0.29-0.63,0.47-0.8L1.1,8.39c0.01,0.05,0,0.12-0.01,0.17L0.87,9.22c-0.26,0.76-0.22,1.48,0.29,2.13
	c0.05,0.05,0.1,0.13,0.17,0.16c0.06,0.04,0.2,0.05,0.24,0.01c0.33-0.33,0.65-0.63,0.94-0.98c0.34-0.39,0.44-0.88,0.34-1.37
	c-0.03-0.2-0.05-0.38-0.09-0.57C2.74,8.52,2.69,8.43,2.64,8.41C2.6,8.39,2.52,8.44,2.45,8.51C2.14,8.82,2,9.07,1.85,9.66
	C1.83,9.74,1.78,9.8,1.7,9.87c-0.04-0.08-0.08-0.22-0.07-0.3c0.08-0.54,0.21-0.99,0.54-1.33C2.39,8,2.34,7.87,2.13,7.81
	C1.37,7.6,0.73,7.39,0.16,6.68C0.05,6.55,0,6.42,0,6.3c0-0.14,0.08-0.26,0.25-0.38C0.91,5.47,1.58,5,2.23,4.86
	C2.49,4.8,2.64,4.79,2.77,4.78c-0.3-0.94-0.61-2.05-0.8-3.08c0-0.21,0.16-0.78,0.24-0.95c0.14-0.01,0.33-0.01,0.59,0.08
	c0.3,0.1,0.59,0.3,0.86,0.47C3.93,1.45,4.01,1.45,4.18,1.2C4.49,0.76,4.84,0.36,5.3,0.13C5.46,0.05,5.56,0,5.67,0
	c0.16,0,0.27,0.09,0.42,0.31C6.33,0.73,6.55,1.2,6.79,1.63C7.05,2.08,7.32,2.1,7.73,1.81c0.44-0.3,0.85-0.59,1.25-0.93
	c0.39-0.3,0.49-0.3,0.91-0.01c0.38,0.26,0.78,0.74,0.99,1.16c0.04,0.08,0.91-0.39,0.94-0.6c0.04-0.38,0.14-0.65,0.29-0.95
	C12.3,0.1,12.56,0,12.79,0c0.22,0,0.63,0.25,0.94,0.44c0.22,0.13,0.44,0.26,0.67,0.38c0.34,0.2,0.37,0.2,0.57-0.13
	c0.24-0.37,0.44-0.43,0.93-0.43c0.97,0,1.84,0.24,2.51,1.03c0.12,0.16,0.24,0.17,0.38,0.03c0.27-0.27,0.53-0.38,1.03-0.38h0.9
	c0.2,0,0.33,0.01,0.51-0.25C21.47,0.34,21.75,0,22.15,0c0.63,0,1.45,0.89,1.87,1.64l-0.22,0.1c-0.2-0.18-0.3-0.27-0.61-0.48
	c-0.31-0.21-0.64-0.39-1.03-0.55c-0.38-0.16-0.55,0-0.5,0.39c0.05,0.47,0.17,0.94,0.29,1.4c0.13,0.43,0.51,0.81,0.93,0.99l0.03,0.16
	c-0.07-0.01-0.16-0.04-0.26-0.05c-0.3-0.04-0.55-0.05-0.82,0.03c-0.52,0.13-1,0.36-1.48,0.56C20.1,4.31,20.1,4.37,20.3,4.55
	c0.26,0.25,0.51,0.54,0.81,0.74c0.85,0.64,1.68,0.51,2.62,0.16l0.44-0.16c0.39-0.06,0.81,0.09,1.14,0.39l0.94,0.85
	c0.3,0.29,0.36,0.54,0.18,0.9c-0.31,0.6-0.65,1.21-0.99,1.8c-0.04,0.07-0.13,0.18-0.22,0.22c-0.12-0.09-0.22-0.3-0.1-0.5l0.17-0.25
	c0.31-0.46,0.52-0.98,0.6-1.51c0.08-0.48-0.18-0.72-0.64-0.59l-0.39,0.14c-0.17,0.07-0.24,0-0.27-0.17
	c-0.05-0.16-0.13-0.25-0.18-0.4c-0.1-0.26-0.26-0.35-0.48-0.18C23.52,6.25,23.24,6.5,23,6.89c-0.3,0.5-0.39,1.1-0.39,1.71
	c0,0.12,0,0.24,0.03,0.33c0.01,0.08,0.08,0.14,0.13,0.2c0.06-0.03,0.13-0.08,0.18-0.17c0.12-0.31,0.2-0.61,0.25-0.95
	c0.03-0.18,0.05-0.51,0.12-0.68c0.04-0.09,0.18-0.05,0.26-0.03c0.2,0.08,0.27,0.17,0.3,0.31c-0.39,0.5-0.64,1.24-0.9,1.91
	c-0.04,0.09-0.21,0.21-0.31,0.21c-0.12-0.01-0.29-0.12-0.33-0.22c-0.16-0.42-0.43-0.84-0.55-1.25c-0.29-1.42-0.38-1.5-0.44-1.59
	c-0.6-0.97-1.24-1.74-2.11-2.41c-0.06-0.07-0.1-0.14-0.16-0.21c0.08-0.04,0.14-0.1,0.22-0.13c0.27-0.12,0.55-0.22,0.83-0.31
	c0.34-0.13,0.59-0.35,0.74-0.68c0.1-0.18,0.24-0.37,0.34-0.55c0.14-0.26,0.13-0.4-0.06-0.63c-0.38-0.42-0.84-0.55-1.38-0.43
	c-0.53,0.13-0.86,0.51-1.03,1.02c-0.07,0.18-0.08,0.38-0.09,0.57c0,0.29,0.09,0.34,0.33,0.2L20,2.35l0.22-0.12
	c-0.2,0.44-0.47,0.8-0.86,1.04c-0.26,0.17-0.52,0.31-0.78,0.46c-0.22,0.16-0.3,0.09-0.36-0.17c-0.07-0.29-0.04-0.57-0.04-0.85
	c0.01-0.94-0.46-1.54-1.24-1.87l-0.69-0.29c-0.13,0.09-0.3,0.33-0.26,0.6c0.06,0.5,0.08,0.88,0.17,1.45
	c0.04,0.18,0.06,0.34,0.13,0.51c0.12,0.26,0.4,0.37,0.71,0.42c0.17-0.08,0.31-0.33,0.08-0.72c-0.08-0.16-0.18-0.34-0.34-0.67
	c-0.04-0.09-0.08-0.17-0.1-0.26c-0.01-0.04-0.03-0.1,0-0.14c0.04,0.01,0.08,0.01,0.17,0.1c0.44,0.47,0.78,1,1.02,1.67
	c0.09,0.26,0.01,0.37-0.25,0.39c-0.57,0.05-1.16,0.09-1.72,0.21c-0.91,0.2-1.21,0.53-1.55,1.14c-0.14,0.26-0.21,0.43-0.22,0.59
	c0.33,0.03,0.69,0.01,1.21-0.08c0.57-0.11,0.89-0.2,1.26-0.42c0.25-0.29,0.44-0.57,0.81-0.84c0.1-0.08,0.34-0.1,0.44-0.05
	c1.07,0.54,1.87,1.21,2.4,2.36c0.04,0.1,0.14,0.21,0.2,0.3c0.03,0.04,0.05,0.09,0.04,0.13C20.4,7.27,20.34,7.3,20.3,7.28
	c-0.21-0.06-0.43-0.12-0.63-0.2c-0.08-0.04-0.14-0.16-0.18-0.25L19.31,6.3c-0.1-0.22-0.16-0.22-0.38-0.14
	c-0.12,0.04-0.24,0.09-0.42,0.17c-0.16,0.07-0.24,0.09-0.27-0.08c-0.05-0.26-0.12-0.52-0.18-0.77c-0.1-0.29-0.22-0.34-0.5-0.21
	c-0.52,0.27-0.91,0.68-1.18,1.2c-0.25,0.51-0.34,0.86-0.12,2.21c0.05,0.26,0.26,0.59,0.51,0.67l2.28,0.71
	c0.05,0.03,0.08,0.05,0.12,0.08c-0.01,0.05-0.04,0.1-0.08,0.13c-0.29,0.2-0.59,0.36-0.87,0.55c-0.16,0.09-0.24,0.04-0.3-0.09
	c-0.2-0.42-0.54-0.68-0.94-0.86c-0.14-0.07-0.22-0.04-0.29,0.12c-0.1,0.25-0.22,0.6-0.31,0.86c-0.05,0.13-0.12,0.18-0.26,0.08
	c-0.65-0.54-1.33-0.56-2.13-0.46c-0.39,0.05-0.57,0.16-0.48,0.55c0.16,0.65,0.48,1.07,1.02,1.45c0.18,0.13,0.5,0.31,0.97,0.51
	c0.12-0.04,0.24-0.13,0.29-0.22c0.12-0.17,0.08-0.35-0.09-0.51c-0.31-0.27-0.98-0.59-1.3-0.89c-0.05-0.07,0.12-0.2,0.24-0.25
	c0.08,0.03,0.2,0,0.27,0.05c0.6,0.27,1.06,0.76,1.53,1.23c0.25,0.24,0.37,0.21,0.44-0.13c0.09-0.27,0.17-0.67,0.25-0.97
	c0.01-0.04,0.05-0.08,0.08-0.12c0.04,0.04,0.09,0.07,0.1,0.1c0.05,0.23,0.13,0.53,0.13,0.8c0,0.27-0.1,0.52-0.18,0.78
	c-0.05,0.26-0.25,0.4-0.47,0.35c-0.57-0.1-1.1,0.13-1.63,0.24c-0.24,0.07-0.51,0.13-0.76,0.16c-0.14,0-0.43-0.09-0.59-0.16
	c-0.04-0.03-0.05-0.09-0.08-0.13c0.04-0.03,0.21-0.07,0.26-0.07c0.26,0,0.65,0,0.86-0.12c-0.06-0.09-0.18-0.18-0.27-0.25
	c-0.56-0.46-1.19,0.03-1.67,0.27c-0.27,0.14-0.29,0.18-0.17,0.47c0.17,0.43,0.48,0.6,0.91,0.6c0.25,0,0.48,0.04,0.73,0.03
	c0.1,0,0.25-0.03,0.35-0.08c0.33-0.13,0.61-0.29,0.91-0.42c0.09-0.03,0.21,0.03,0.31,0.05c-0.03,0.09-0.05,0.21-0.12,0.26
	l-0.74,0.46c-0.08,0.04-0.17,0.07-0.22,0.12c-0.1,0.08-0.24,0.21-0.22,0.26c0.05,0.1,0.16,0.21,0.29,0.25
	c0.34,0.1,0.69,0.16,1.03,0.24c0.54,0.1,0.77-0.04,0.91-0.57c0.08-0.3,0.18-0.57,0.31-0.85c0.09-0.18,0.2-0.2,0.3-0.01
	c0.37,0.68,0.76,1.34,1.15,2.01c0.06,0.14,0,0.22-0.14,0.2c-0.85-0.09-1.68-0.18-2.53-0.31c-0.29-0.04-0.57-0.22-0.86-0.35
	c-0.44-0.2-0.87-0.38-1.37-0.37c-0.43,0.01-0.68,0.26-0.53,0.68c0.2,0.59,0.42,1.19,0.65,1.78c0.17,0.4,0.56,0.55,0.99,0.59
	c0.2,0.03,0.13-0.12,0.08-0.21l-0.71-1.51c-0.03-0.05-0.03-0.13-0.05-0.2l0.05-0.03c0.05,0.05,0.1,0.09,0.13,0.14
	c0.38,0.57,0.78,1.12,1.14,1.71c0.06,0.1,0.1,0.29,0.05,0.37c-0.05,0.08-0.24,0.13-0.37,0.12c-0.89-0.09-1.7-0.39-2.53-0.72
	c-0.09-0.04-0.22-0.22-0.2-0.3c0.01-0.04,0.13-0.08,0.22-0.06l0.31,0.06c0.2,0.04,0.29-0.05,0.21-0.21
	c-0.06-0.13-0.18-0.29-0.43-0.39c-0.29-0.14-0.72-0.34-1.27-0.46c-0.26-0.05-0.43,0.06-0.38,0.3c0.06,0.3,0.21,0.57,0.36,0.89
	c0.04,0.09,0.04,0.21,0.01,0.3c-0.16-0.01-0.35,0.04-1.01-0.24c-0.61-0.26-0.66-0.43-0.67-1.12l0-0.14c0-0.17,0-0.51,0.04-0.67
	c0.07-0.22,0.09-0.27,0.29-0.24c0.68,0.14,1.37,0.33,2.05,0.65c0.2,0.09,0.39,0.26,0.6,0.34c0.17,0.07,0.26,0,0.24-0.18
	c-0.03-0.24-0.14-0.42-0.38-0.52c-0.72-0.3-1.44-0.64-2.15-0.93c-0.18-0.08-0.24-0.16-0.14-0.34c0.29-0.47,0.44-1.02,0.31-1.62
	c0-0.04,0.05-0.1,0.1-0.16c0.08,0.01,0.17,0.06,0.22,0.13c0.07,0.08,0.09,0.17,0.1,0.27c0.05,0.51,0.39,0.86,0.73,1.2
	c0.67,0.71,0.67,0.71,1.62,0.47c0.12-0.01,0.21-0.1,0.31-0.17c-0.09-0.08-0.18-0.2-0.3-0.25c-0.17-0.09-0.36-0.14-0.56-0.22
	c-0.63-0.24-0.81-0.68-0.6-1.34c0.22-0.6,0.42-1.21,0.59-1.83c0.07-0.29,0.08-0.6,0.1-0.9c0-0.18,0.13-0.18,0.24-0.2
	c0.46-0.03,0.93-0.05,1.37-0.09c0.35-0.03,0.74-0.43,0.89-0.67l0.46-0.74c-0.12-0.12-0.27-0.18-0.41-0.21
	c-0.18-0.04-0.31,0-0.53,0.06c0.1-0.34,0.25-0.67,0.25-0.99c0-0.21-0.05-0.46-0.14-0.68c-0.09-0.21-0.24-0.25-0.41-0.12
	c-0.34,0.29-0.61,0.61-0.72,1.07c-0.09,0.38-0.17,0.76-0.21,0.97c-0.06,0.26-0.04,0.39,0,0.47c0.09-0.04,0.2-0.12,0.26-0.17
	c0.11-0.11,0.27-0.21,0.42-0.25c0.09-0.03,0.24-0.01,0.31,0.05c-0.1,0.12-0.25,0.18-0.35,0.27c-0.21,0.17-0.43,0.33-0.67,0.43
	c-0.25,0.1-0.35-0.04-0.3-0.29c0.05-0.24,0.12-0.47,0.14-0.69c0.05-0.38-0.04-0.73-0.13-1.1c-0.14-0.5-0.24-0.84-0.47-1.32
	c-0.1-0.21-0.24-0.46-0.38-0.64c-0.12-0.16-0.31-0.1-0.57,0.21c-0.42,0.51-0.53,0.94-0.74,1.81l-0.05,0.17l-0.3,0.27l-0.13-0.16
	c0.12-0.4,0.24-0.64,0.24-0.97c0-0.39-0.17-0.67-0.43-0.89C10.28,6.02,9.98,6.28,9.9,6.42C9.71,6.75,9.7,7.08,9.92,7.42
	C10.26,8,10.21,8.59,10.1,9.28l-0.09-0.03c-0.06-0.51-0.12-0.9-0.25-1.33C9.7,7.65,9.51,7.41,9.36,7.17
	C9.21,6.95,9.08,6.47,9.2,6.28c0.18-0.3,0.73-0.46,0.94-0.74c0.22-0.33,0.12-0.47,0.39-0.77c0.17-0.2,0.52-0.61,0.78-0.47
	c0.8,0.39,1.63,0.48,2.52,0.36c0.38-0.05,0.46-0.04,0.56-0.42c0.08-0.31,0.13-0.11,0.44-0.21c0.54-0.18,0.81-0.65,0.81-1.23
	c0-0.31,0.03-0.64-0.01-0.97c-0.03-0.27-0.13-0.55-0.22-0.8c-0.06-0.17-0.18-0.13-0.26-0.01c-0.22,0.29-0.59,0.86-0.78,1.18
	c-0.12,0.18-0.21,0.36-0.31,0.56c-0.05,0.14-0.12,0.18-0.25,0.04c-0.13-0.14-0.3-0.29-0.47-0.4c-0.29-0.18-0.31-0.76-0.2-1.12
	c0.12,0.06,0.21,0.21,0.29,0.39c0.1,0.25,0.16,0.52,0.35,0.61c0.25,0.13,0.51-0.39,0.47-0.76c0-0.04-0.03-0.17-0.08-0.26
	c-0.3-0.5-0.94-0.9-1.33-0.9c-0.46,0-0.74,0.56-0.56,1.1c0.05,0.14,0.11,0.25,0.18,0.38c-1.08,0.56-1.37,0.93-1.8,1.42
	c-0.05,0.07-0.1,0.24-0.05,0.33c0.21,0.38,0.13,0.51-0.29,0.74c-0.18,0.1-0.43,0.2-0.63,0.26C9.67,4.61,9.62,4.57,9.57,4.56
	c0.01-0.04,0.03-0.08,0.05-0.1c0.26-0.59,0.55-1.15,0.8-1.74c0.26-0.64-0.31-1.24-0.84-1.44C9.24,1.15,8.97,1.23,8.74,1.53
	c-0.64,0.85-0.63,1.8,0.03,2.73l0.06,0.08c0.01,0.01,0.02,0.03,0.02,0.04c0.12,0.17,0.08,0.25-0.12,0.26
	C8.28,4.67,7.82,4.72,7.35,4.75C6.77,4.79,6.3,5.04,5.95,5.49c-0.1,0.16-0.25,0.2-0.39,0.09C5.2,5.36,4.89,5.42,4.52,5.64
	C4.11,5.89,3.67,6.02,3.2,6.16C3.07,6.2,2.92,6.21,2.79,6.21c-0.06,0-0.14-0.05-0.2-0.1c0.04-0.05,0.09-0.13,0.22-0.17
	c0.24-0.08,0.5-0.13,0.76-0.2C3.69,5.72,3.8,5.69,3.84,5.65c0.05-0.06,0.09-0.21,0.12-0.27c-0.07-0.09-0.2-0.2-0.29-0.21
	c-0.36-0.04-0.63-0.03-0.95,0C1.89,5.25,1.28,5.64,0.76,6.13c-0.25,0.25-0.27,0.5,0,0.69C1.37,7.27,2.02,7.7,2.85,7.49
	C3.12,7.41,3.39,7.24,3.6,7.06c0.21-0.18,0.39-0.4,0.56-0.6c0.31-0.34,0.71-0.73,1.07-0.31C5.77,6.76,5.87,7.4,6.75,7.3
	c0.33-0.04,0.47-0.16,0.56-0.47l0.07-0.38C7.4,6.2,7.27,6.08,7.04,6.17c-0.16,0.05-0.3,0.14-0.46,0.18C6.49,6.38,6.4,6.34,6.29,6.32
	C6.3,6.23,6.32,6.11,6.38,6.06c0.16-0.1,0.34-0.2,0.52-0.27c0.65-0.17,1.28-0.3,1.92-0.43c0.07-0.01,0.14-0.01,0.21,0L8.97,5.53
	C8.73,6.07,8.42,6.24,7.99,6.34C7.94,6.4,7.83,6.53,7.75,6.76C7.48,7.64,7.64,8.55,8.22,9.18c0.21,0.24,0.47,0.43,0.74,0.6
	c0.46,0.26,0.57,0.69,0.74,1.16c0.1,0.29,0.22,0.57,0.35,0.86c-0.37,0.27-0.68,0.57-0.89,0.95c-0.09,0.08-0.16,0.05-0.21-0.05
	l-0.25-0.63c-0.24-0.55-0.61-0.9-1.23-0.95c-0.22-0.01-0.44-0.05-0.65-0.08c-0.25-0.03-0.42,0.09-0.51,0.38
	c-0.24,0.74-0.2,1.44,0.47,2.13c0.09,0.09,0.3,0.3,0.52,0.39c-0.12,0.03-0.24,0.06-0.35,0.1c-0.35,0.12-0.59,0.2-0.89,0.39
	c-0.18,0.12-0.44,0.31-0.64,0.59c0.04,0.16,0.29,0.37,0.6,0.5c0.8,0.33,1.59,0.29,2.34,0.04c0.43-0.16,0.46-0.05,0.53,0.26
	l0.22,0.98c0.05,0.24-0.08,0.36-0.3,0.29c-1.2-0.35-2.62-0.93-3.66-1.62c-0.39-0.17-0.81-0.3-1.36-0.41
	c-0.16,0.09-0.29,0.21-0.43,0.18c-0.33-0.05-0.99-0.33-1.29-0.46c-0.06-0.04-0.12-0.09-0.14-0.14c0.05-0.05,0.14-0.08,0.18-0.08
	c0.41,0,1.14,0.17,1.51,0.17c0.08,0,0.22-0.07,0.3-0.13c-0.03-0.07-0.09-0.16-0.16-0.2c-0.89-0.69-1.88-0.53-2.87-0.36
	c-0.35,0.07-0.38,0.24-0.17,0.51c0.56,0.67,1.19,1.2,2.08,1.31c0.57,0.06,1.06,0,1.7-0.05c1.02,0.65,2.04,1.23,3.21,1.61
	c0.01,0.04,0.01,0.1,0.03,0.17c-0.47,0.05-0.89,0.08-1.29,0.14c-0.38,0.05-0.76,0.13-1.12,0.21c-0.38,0.08-0.46,0.31-0.25,0.67
	c0.31,0.51,0.81,0.74,1.38,0.89c0.41,0.12,0.82,0.09,1.21-0.08c0.48-0.22,0.78-0.61,1.24-0.86c0.26-0.14,0.69,0.01,0.95,0.09
	c0.41,0.13,0.8,0.3,1.2,0.36c0.67,0.12,1.33,0.17,2,0.21c0.72,0.05,1.41,0.1,2.17,0.09c0.21,0,0.44-0.04,0.71-0.05
	c-0.18,0.34-0.31,0.68-0.43,1.02c-0.08,0.21-0.01,0.26,0.21,0.25c0.31-0.01,0.63-0.2,0.76-0.44c0.03-0.24,0.03-0.46,0.08-0.71
	c0.03-0.13,0.07-0.31,0.16-0.33c0.05-0.01,0.43,0.05,0.39,0.16c-0.08,0.21-0.14,0.42-0.24,0.63l-0.17,0.42
	c0.14,0.03,0.29,0.05,0.44,0.05c0.6,0,0.7-0.09,0.68-0.71c-0.01-0.17-0.04-0.34-0.08-0.51c-0.08-0.46,0.01-0.77,0.41-0.98
	c0.39-0.2,0.78-0.13,1.18-0.09c1.21,0.13,2.52,0.88,3.32,1.5c0.48,0.38,0.06,0.91,0.06,1.65c0,0.46-0.09,0.93-0.08,1.16
	c0.01,0.38,0.17,0.57,0.31,0.68c0.42,0.33,0.89,0.65,1.33,0.94c0.46,0.3,0.68,0.48,1.23,0.67c0.12,0.04,0.27,0.04,0.38,0.03
	c0.03-0.12,0.03-0.37-0.03-0.56c-0.26-0.17-0.63-0.26-1.04-0.4c-0.08-0.03-0.16-0.13-0.21-0.22c0.09-0.08,0.22-0.17,0.31-0.18
	l0.68-0.14c0.05-0.01,0.14-0.09,0.18-0.14c-0.04-0.06-0.09-0.14-0.14-0.16c-0.29-0.08-0.65-0.14-0.89-0.21
	c-0.09-0.03-0.13-0.1-0.2-0.18c0.1-0.08,0.21-0.14,0.33-0.17l0.71-0.09c0.05-0.01,0.13-0.05,0.18-0.12
	c-0.03-0.07-0.07-0.16-0.12-0.18c-0.14-0.07-0.86-0.33-0.94-0.41c-0.06-0.06-0.08-0.16-0.1-0.26c0.1-0.05,0.24-0.09,0.33-0.08
	c0.25,0.01,0.34,0.01,0.59,0.01c0.08,0,0.17-0.05,0.24-0.12c-0.04-0.08-0.09-0.13-0.16-0.18c-0.27-0.17-0.38-0.3-0.69-0.44
	c-0.16-0.08-0.22-0.17-0.25-0.35c0.1-0.03,0.26-0.04,0.39-0.01c0.21,0.05,0.33,0.12,0.55,0.16c0.06,0.01,0.18-0.01,0.25-0.03
	c0-0.07-0.01-0.13-0.06-0.18c-0.08-0.08-0.2-0.13-0.3-0.21c-0.16-0.1-0.43-0.36-0.59-0.5c-0.05-0.04-0.03-0.17-0.04-0.22
	c0.07,0,0.12,0,0.18,0.01c0.21,0.04,0.52,0.13,0.69,0.16c0.06,0.01,0.16,0.03,0.22,0.01c-0.01-0.08-0.03-0.17-0.08-0.22
	c-0.2-0.18-0.39-0.29-0.57-0.5c-0.05-0.07-0.04-0.18-0.03-0.27l0.27,0.05l0.34,0.08c0.1,0.03,0.18,0.03,0.26,0.03
	c0.03-0.05,0.04-0.09,0.04-0.16c-0.06-0.18-0.13-0.35-0.22-0.53c0-0.07-0.03-0.14,0-0.2c0.05-0.01,0.13-0.01,0.18-0.01
	c0.21,0.08,0.53,0.26,0.77,0.31c0.09,0.03,0.2,0,0.31-0.04c-0.04-0.12-0.12-0.2-0.17-0.29l-0.2-0.3c-0.03-0.05,0-0.13,0.04-0.2
	c0.06,0.01,0.13,0.03,0.22,0.06c0.22,0.13,0.52,0.24,0.84,0.37c0.14,0.06,0.24,0,0.27-0.07c0.03-0.08-0.24-0.34-0.22-0.46
	c0.01-0.07,0.03-0.08,0.06-0.13c0.14,0.04,0.42,0.14,0.61,0.2l0.63,0.1c0.06-0.01,0.09-0.03,0.14-0.05
	c0.08-0.03-0.01-0.24-0.14-0.48c0.08-0.03,0.2-0.03,0.26,0c0.22,0.09,0.46,0.24,0.76,0.26c0.38,0.04,0.77-0.05,1.08-0.1
	c1.36-0.24,2.45-0.29,3.76-0.71c0.52-0.17,1.15-0.43,1.63-0.67l0.16,0.04c0.38,0.97,1.18,1.25,1.98,1.34
	c0.24,0.03,0.5,0.04,0.74,0.05c0.24,0,0.29-0.07,0.22-0.3c-0.2-0.8-0.61-1.49-1.21-2.06l-0.52-0.33c-0.24-0.24-0.21-0.51,0.04-0.69
	c0.42-0.29,0.98-0.56,1.4-0.82c0.61-0.39,0.82-0.99,0.78-1.63c-0.01-0.18-0.05-0.3-0.22-0.43c-0.12,0.04-0.25,0.13-0.31,0.22
	c-0.14,0.24-0.25,0.5-0.36,0.74c-0.04,0.07-0.07,0.16-0.12,0.2c-0.12,0.06-0.24,0.09-0.34,0.13c-0.03-0.1-0.09-0.21-0.06-0.31
	c0.04-0.16,0.12-0.3,0.21-0.43c0.2-0.27,0.44-0.55,0.77-0.9c0.04-0.05,0.05-0.14,0.08-0.21c-0.08-0.03-0.16-0.09-0.24-0.08
	c-0.35,0.08-0.73,0.21-0.99,0.51c-0.3,0.36-0.34,0.47-0.59,0.88c-0.35,0.56-0.64,1.33-0.8,1.98c-0.07,0.27-0.17,0.36-0.26,0.63
	c-0.12,0.38-0.1,0.47,0.22,0.71c0.48,0.31,1.11,0.6,1.57,0.93c0.05,0.05,0.08,0.14,0.12,0.21c-0.07,0.01-0.14,0.06-0.22,0.06
	c-0.51-0.01-0.94-0.21-1.31-0.59c-0.18-0.2-0.33-0.31-0.53-0.34c-0.47,0.12-1.12,0.31-1.62,0.38c-0.27,0.05-0.5,0.17-0.64,0.43
	c-0.1,0.22-0.3,0.26-0.53,0.18c-0.34-0.1-0.69-0.22-1.04-0.3c-0.48-0.13-0.99-0.04-1.48,0.07c-0.08,0.03-0.17,0.05-0.27,0.05
	c-0.24,0.04-0.29-0.01-0.22-0.25c0.07-0.29,0.16-0.56,0.21-0.85c0.01-0.12,0.03-0.3-0.08-0.36c-0.12,0.05-0.29,0.08-0.34,0.16
	c-0.18,0.27-0.33,0.56-0.5,0.86c-0.12,0.24-0.16,0.24-0.4,0.13c-0.27-0.12-0.65-0.33-0.99-0.6c-0.24-0.38-0.48-0.69-0.61-1.02
	c-0.04-0.09,0.09-0.16,0.21-0.16c0.26,0.21,0.57,0.47,0.81,0.71c0.16,0.17,0.21,0.34,0.31,0.57c0.03,0.05,0.29,0.04,0.33-0.05
	c0.04-0.09,0.08-0.22,0.12-0.4c0.08-0.35,0.03-0.84-0.29-1.15c-0.39-0.39-0.65-0.47-1.19-0.84c-0.67-0.46-0.76-0.43-1,0.01
	c-0.2,0.36-0.33,0.77-0.33,1.23c0.18,1.07,0.43,1.5,1.72,2.17c-0.01,0.05-0.04,0.1-0.1,0.17c-0.08,0.08-0.13,0.12-0.27,0.12
	c-0.46-0.01-1.1-0.03-1.59-0.06c-0.14-0.01-0.24-0.05-0.26-0.13c-0.42-1.59-0.2-3.25,0.57-4.72c0.08-0.14,0.18-0.27,0.31-0.34
	c0.27-0.14,0.69-0.33,0.97-0.44c0.16-0.06,0.23-0.01,0.3,0.14c0.12,0.42,0.16,0.72,0.2,1.07c0.01,0.22,0.03,0.44,0.12,0.48
	c0.21,0.09,0.39-0.08,0.5-0.26c0.39-0.64,0.5-1.36,0.21-2.13c-0.03-0.07,0.04-0.21,0.12-0.25c0.89-0.37,1.72-0.73,2.62-1.08
	c0.51-0.03,1.15,0.03,2.05,0.17c0.16,0.03,0.47,0.29,0.8,0.47c-0.42,0.21-1.02,0.65-1.44,1.06c-0.12,0.12-0.26,0.27-0.16,0.61
	c0.34-0.03,0.52-0.12,0.78-0.2c0.41-0.12,0.65-0.17,0.98-0.17c0.08,0,0.18,0.01,0.26,0.03c-0.01,0.1-0.05,0.21-0.12,0.27
	c-0.12,0.1-0.3,0.08-0.43,0.16c-0.13,0.08-0.26,0.22-0.18,0.38c0.06,0.11,0.25,0.22,0.37,0.21c0.42-0.03,0.81-0.08,1.24-0.21
	c0.2-0.16,0.93-1.12,0.51-1.21c-0.24-0.05-0.74-0.09-0.97-0.2c0.04-0.14,0.14-0.26,0.26-0.3c0.24,0.04,0.5,0.1,0.85,0.14
	C38.01,9.6,39,9.64,39.4,9.48c0.24-0.09,0.31-0.18,0.24-0.33c-0.37-0.67-0.87-1.19-1.61-1.4c-0.31-0.09-0.69-0.03-1.02-0.03
	l-2.82-0.03c-0.06,0-0.13-0.05-0.2-0.09l0.1-0.08c0.02-0.01,0.03-0.02,0.05-0.03c0.27-0.16,0.57-0.29,0.84-0.47
	c0.41-0.27,0.65-0.67,0.77-1.16c0.03-0.08,0.03-0.18,0-0.27c-0.26-0.97-0.8-1.66-1.88-1.79l-0.55-0.09
	c-0.2-0.01-0.27,0.08-0.27,0.26c0,0.34,0.01,0.52,0,0.88c0,0.18,0.09,0.24,0.29,0.26c0.5,0.08,1.02,0.24,1.49,0.43
	c0.29,0.12,0.34,0.29,0,0.59c-0.17,0.13-0.48,0.34-0.8,0.56c-0.13,0.08-0.2,0.01-0.21-0.12c-0.03-0.21-0.03-0.43-0.05-0.64
	c-0.01-0.07-0.06-0.14-0.12-0.2c-0.21,0.04-0.35,0.18-0.42,0.35c-0.1,0.27-0.17,0.53-0.22,0.81c-0.06,0.35-0.27,0.57-0.6,0.69
	c-0.16,0.05-0.3-0.01-0.27-0.16c0.03-0.18,0.06-0.35,0.12-0.52c0.25-0.61,0.38-1.14,0.33-1.72c-0.05-0.41-0.08-0.8-0.09-1.2
	c-0.01-0.18,0.09-0.34,0.27-0.39c0.47-0.18,0.91-0.36,1.41-0.52c0.17-0.07,0.31,0.01,0.44,0.17c0.33,0.39,0.65,0.78,0.99,1.18
	c0.26,0.29,0.34,0.27,0.56-0.04c0.21-0.3,0.43-0.57,0.77-0.76c0.17-0.09,0.17-0.25-0.03-0.33c-0.38-0.14-0.76-0.22-1.15-0.35
	c-0.09-0.03-0.18-0.03-0.27-0.07c-0.07-0.03-0.14-0.1-0.14-0.16c0-0.05,0.08-0.13,0.14-0.16c0.55-0.2,1.08-0.4,1.62-0.6
	c0.1-0.03,0.22-0.08,0.33-0.13c0.17-0.08,0.26-0.22,0.24-0.4c-0.01-0.24-0.08-0.44-0.12-0.67c-0.04-0.21-0.17-0.37-0.39-0.39
	c-0.41-0.05-0.84-0.03-1.21,0.18c-0.29,0.16-0.53,0.34-0.78,0.59c-0.13,0.13-0.18,0.34-0.14,0.48c0.1,0.01,0.2,0.01,0.27-0.01
	c0.42-0.12,0.69-0.25,0.94-0.39c0.16-0.17,0.27-0.35,0.37-0.35c0.05,0,0.14,0.22,0.17,0.3c-0.08,0.1-0.17,0.21-0.86,0.51
	c-0.42,0.2-1.33,0.56-2.01,0.81c-0.93,0.34-1.37,0.4-1.83,0.51c-0.05,0-0.1,0-0.13-0.04c-0.03-0.01-0.01-0.08,0.01-0.13
	c0.25-0.43,0.52-0.89,0.8-1.33C32.79,1.43,32.88,1.4,33,1.41c0,0.08,0.01,0.17-0.01,0.24C32.91,1.83,32.8,2,32.7,2.18
	c-0.01,0.05-0.03,0.14-0.01,0.16c0.04,0.04,0.12,0.07,0.17,0.05c0.57-0.13,1.07-0.73,1.08-1.31c0-0.22-0.1-0.3-0.33-0.29
	c-0.34,0.03-0.71,0.05-1.03,0.14c-0.61,0.16-0.98,0.59-1.18,1.15c-0.09,0.26-0.14,0.52-0.2,0.8c-0.05,0.29-0.3,0.39-0.55,0.54
	c-0.43,0.26-0.65,0.21-1.02,0.27c-0.3,0.05-0.5,0.1-0.68,0.16c-0.08,0.03-0.16,0.04-0.24,0.05c0-0.1-0.03-0.2,0-0.26
	c0.21-0.33,0.39-0.65,0.61-0.95c0.3-0.46,0.22-0.71-0.27-0.89c-0.77-0.25-1.63,0.04-2.09,0.74c-0.26,0.42-0.46,0.91-0.64,1.37
	c-0.12,0.27,0,0.44,0.29,0.5c0.44,0.08,0.98-0.08,1.38-0.2c-0.03,0.13-0.04,0.64-0.08,0.74c-0.08,0.18-0.17,0.37-0.27,0.56
	c-0.16,0.29-0.34,0.38-0.65,0.24c-0.47-0.22-0.93-0.47-1.37-0.74c-0.52-0.31-1.03-0.52-1.62-0.52c-0.06,0-0.13-0.01-0.18-0.03
	c-0.18-0.04-0.2-0.1-0.08-0.22c0.14-0.16,0.16-0.3,0.06-0.48l-0.6-1.12c-0.13-0.24-0.27-0.55-0.29-0.65
	c0.14-0.03,0.69,0.16,0.71,0.26c0.05,0.34,0.08,0.51,0.18,0.85c0.07,0.22,0.22,0.42,0.37,0.59c0.06,0.08,0.22,0.16,0.3,0.12
	c0.09-0.03,0.18-0.17,0.2-0.27c0.04-0.33-0.39-0.85,0.17-2.06c0.25-0.54,1-1.47,1.5-1.47c0.26,0,0.47,0.12,0.63,0.5
	c0.09,0.18,0.16,0.6,0.24,0.77c0.06,0.18,0.16,0.26,0.34,0.25c0.48-0.07,1.14-0.35,1.67-0.42c0.34-0.05,0.6,0.8,0.77,1.1
	c0.26,0.46,0.38,0.85,0.68,0.37c0.26-0.44,0.53-0.89,0.81-1.32c0.12-0.17,0.3-0.31,0.48-0.42c0.68-0.38,1.53-0.46,2.21-0.38
	c0.24,0.03,0.3,0.12,0.25,0.35c-0.04,0.14-0.05,0.29-0.09,0.43c-0.03,0.09,0.01,0.14,0.05,0.16c0.05,0.01,0.14,0,0.24-0.07
	c0.1-0.06,0.27-0.21,0.37-0.3l0.25-0.27C35.69,0.25,36.13,0,37.03,0z M46.71,49.86H46.2v2.6h0.67c0.98,0,1.43-0.52,1.43-1.3
	C48.31,50.52,48.01,49.86,46.71,49.86z M42.13,49v1.85h-0.45l-0.17-1h-2.21v2.48h1.62l0.13-0.73h0.43v1.93h-0.42l-0.13-0.72h-1.62
	v1.96c0,0.43,0.02,0.49,0.05,0.52c0.03,0.03,0.1,0.05,0.68,0.05l0.81,0c0.53,0,0.76-0.03,0.87-0.15c0.13-0.13,0.27-0.46,0.44-1.18
	h0.45l-0.19,1.82h-3.63c-0.61,0-1.27,0.02-1.74,0.03v-0.42l1.13-0.09v-5.49l-1.13-0.1v-0.42c0.61,0.02,1.05,0.03,1.39,0.03h3.15
	l0.1-0.37H42.13z M5.09,49v1.85H4.64l-0.17-1H2.26v2.48h1.62l0.13-0.73h0.42v1.93H4.01l-0.13-0.72H2.26v1.96
	c0,0.43,0.02,0.49,0.05,0.52c0.03,0.03,0.1,0.05,0.68,0.05l0.79,0c0.53,0,0.78-0.03,0.89-0.15c0.13-0.13,0.27-0.46,0.44-1.18h0.45
	l-0.19,1.82H1.74c-0.61,0-1.27,0.02-1.74,0.03v-0.42l1.13-0.09v-5.49L0,49.76v-0.42c0.61,0.02,1.05,0.03,1.32,0.03h3.22L4.64,49
	H5.09z M23.83,49v1.85h-0.45l-0.17-1h-2.21v2.48h1.62l0.13-0.73h0.42v1.93h-0.42l-0.13-0.72h-1.62v1.96c0,0.43,0.02,0.49,0.05,0.52
	c0.03,0.03,0.1,0.05,0.68,0.05l0.92,0c0.53,0,0.78-0.03,0.89-0.15c0.13-0.13,0.27-0.46,0.44-1.18h0.45l-0.19,1.82h-3.76
	c-0.61,0-1.27,0.02-1.74,0.03v-0.42l1.13-0.09v-5.49l-1.13-0.1v-0.42c0.6,0.02,1.05,0.03,1.39,0.03h3.15l0.1-0.37H23.83z
	 M43.94,49.33c0.6,0.02,1.05,0.03,1.39,0.03h1.59c1.38,0,2.58,0.48,2.58,1.73c0,0.88-0.65,1.38-1.46,1.62
	c0.64,0.98,1.27,1.87,2.02,2.64l0.69,0.08v0.42l-1.84-0.03c-0.7-0.93-1.39-1.91-2-2.9h-0.7v2.41l1.07,0.1v0.42
	c-0.49-0.01-0.84-0.03-1.25-0.03h-0.75c-0.42,0-0.84,0.02-1.32,0.03v-0.42l1.13-0.1v-5.49l-1.13-0.1V49.33z M35.58,49.33v0.42
	l-1.13,0.1v5.49l1.13,0.1v0.42c-0.49-0.01-0.9-0.03-1.32-0.03h-0.75c-0.42,0-0.83,0.02-1.32,0.03v-0.42l1.13-0.1v-5.48l-1.11-0.1
	v-0.43c0.6,0.02,1.02,0.03,1.29,0.03h0.75C34.53,49.37,34.98,49.35,35.58,49.33z M10.3,49.33v0.42l-1.13,0.1v4.96
	c0,0.31,0,0.42,0.06,0.47c0.03,0.04,0.37,0.05,0.77,0.05h0.33c0.6,0,0.79-0.06,0.88-0.15c0.13-0.13,0.29-0.47,0.48-1.42h0.45
	l-0.14,2.06h-3.4c-0.66,0-1.2,0.02-1.68,0.03v-0.42l1.13-0.1v-5.49l-1.13-0.1v-0.42c0.61,0.02,1.05,0.03,1.32,0.03h0.75
	C9.24,49.37,9.69,49.35,10.3,49.33z M31.43,49.33v0.42l-0.75,0.1l-2.11,6.04h-0.84l-2.1-6.04l-0.8-0.1v-0.43l1.43,0.03l1.62-0.03
	v0.42l-1.04,0.1l1.59,4.82l1.58-4.82l-1.04-0.1v-0.42l1.34,0.03L31.43,49.33z M17.02,48.98v1.9h-0.43c-0.04-0.28-0.1-0.56-0.17-0.84
	c-0.28-0.2-0.67-0.31-1.03-0.31c-0.63,0-1.09,0.29-1.09,0.93c0,1.44,3.08,1.45,3.08,3.51c0,1.12-0.9,1.77-2.09,1.77
	c-0.63,0-1.21-0.19-1.62-0.45L13.55,56h-0.43v-2.17h0.43c0.04,0.3,0.11,0.68,0.18,0.95c0.37,0.4,0.97,0.67,1.5,0.67
	c0.7,0,1.09-0.4,1.09-1.03c0-1.48-3.08-1.49-3.08-3.51c0-1.07,0.88-1.67,2-1.67c0.45,0,0.88,0.09,1.21,0.22l0.13-0.49H17.02z"/>
</svg>
