<svg xmlns="http://www.w3.org/2000/svg" width="149" height="24" viewBox="0 0 149 24">
<path fill="#25222C" d="M5.26,5.4c0.32-0.88,1.39-1.32,2.28-0.94c0.88,0.32,1.26,1.39,0.94,2.26C8.17,7.61,7.1,8.04,6.21,7.67
	C5.39,7.29,4.94,6.29,5.26,5.4z M3.35,13.44c0.39-0.88-0.06-1.95-0.94-2.26c-0.89-0.37-1.97,0.07-2.28,0.94
	c-0.38,0.89,0.13,1.89,0.95,2.26C1.96,14.76,3.04,14.33,3.35,13.44z M2.28,9.99c0.88,0.37,1.97-0.06,2.28-0.94
	C4.94,8.17,4.5,7.1,3.61,6.79C2.73,6.41,1.65,6.85,1.33,7.72C1.01,8.61,1.39,9.61,2.28,9.99z M10.71,9.04
	C11.6,9.43,12.68,8.98,13,8.11c0.31-0.89-0.07-1.95-0.95-2.26c-0.89-0.37-1.97,0.06-2.28,0.94C9.38,7.67,9.82,8.67,10.71,9.04z
	 M26.94,7.67c0.82-0.37,1.26-1.38,0.95-2.26c-0.32-0.88-1.4-1.32-2.28-0.94c-0.89,0.32-1.27,1.39-0.95,2.26
	C24.97,7.61,26.05,8.04,26.94,7.67z M15.78,4.77l-1.26,3.84C14.45,8.8,14.39,9,14.39,9.2c0,1,0.76,2.03,1.78,2.03h0.06h0.26h0.25
	h0.07c1.01,0,1.77-0.96,1.77-2.03c0-0.26-0.06-0.42-0.13-0.61l-1.26-3.83c0.19-0.06,0.08-0.11,0.15-0.24l2.04,1.14V2.39l-2.04,0.69
	c-0.07-0.06-0.04-0.19-0.17-0.25L18.13,0h-1.65h-1.59l0.88,2.83c-0.06,0.06-0.14,0.12-0.2,0.25l-2.17-0.69v3.27l2.17-1.13
	C15.64,4.59,15.66,4.71,15.78,4.77z M30.93,9.99c0.82-0.37,1.27-1.38,0.95-2.26c-0.32-0.88-1.4-1.25-2.28-0.94
	c-0.88,0.32-1.27,1.38-0.95,2.25C28.97,9.93,30.05,10.36,30.93,9.99z M22.44,9.04c0.88-0.37,1.33-1.38,0.94-2.25
	C23.07,5.9,22,5.53,21.11,5.85c-0.89,0.31-1.27,1.38-0.95,2.26C20.48,8.98,21.55,9.43,22.44,9.04z M29.41,17.34
	c-0.45-0.37-0.76-1.07-1.08-2.14l-1.14,3.83c0.71-0.5,1.27-0.75,1.91-0.75c-1.08,2.32-2.47,2.95-3.43,2.82
	c-1.07-0.19-1.58-1.13-1.46-2.01c0.26-1.13,1.46-1.45,2.04-0.13c1.07-2.14-0.71-2.82-1.97-2.19c1.84-1.83,2.03-3.39,0.57-5.28
	c-2.03,1.58-2.09,3.08-1.14,5.16c-1.2-1.32-3.04-0.63-2.34,1.56c0.82-1.32,2.03-0.5,1.84,0.76c-0.13,1.06-1.58,2.01-3.42,1.82
	c-2.6-0.25-2.73-2.01-2.79-3.39c0.64-0.12,1.77,0.5,2.72,1.82l0.38-4.07c-1.01,1.06-2.03,1.27-3.1,1.27
	c0.38-1.07,2.03-2.94,2.03-2.94h-2.34h-2.73c0,0,1.65,1.87,2.04,2.94c-1.08-0.07-2.04-0.23-3.11-1.3l0.38,4.09
	c0.95-1.38,2.1-1.93,2.73-1.81c-0.07,1.45-0.26,3.27-2.79,3.4c-1.84,0.19-3.24-0.69-3.43-1.82c-0.19-1.26,0.95-2.08,1.84-0.76
	c0.69-2.14-1.14-2.88-2.34-1.56c0.88-2.14,0.88-3.64-1.14-5.16c-1.46,1.95-1.27,3.45,0.58,5.28c-1.14-0.7-2.98,0.06-1.97,2.19
	c0.57-1.38,1.77-1,2.03,0.13c0.19,0.82-0.38,1.82-1.46,2.01C6.4,21.29,5,20.66,3.86,18.28c0.64,0,1.14,0.32,1.91,0.75L4.63,15.2
	c-0.32,1.06-0.7,1.82-1.08,2.14c-0.25-0.76-0.25-1.32,0-2.51l-2.4,0.82C2.41,17.4,3.61,19.79,4.63,24
	c3.74-0.44,7.74-0.76,11.92-0.76c4.25,0,8.24,0.31,11.79,0.76c1.01-4.21,2.22-6.66,3.49-8.35l-2.4-0.82
	C29.66,16.02,29.73,16.58,29.41,17.34z M124.39,15.96c0,0.69-0.07,1.32-0.26,1.88c-0.25,0.57-0.48,0.94-0.8,1.32
	c-0.38,0.37-0.74,0.63-1.32,0.76c-0.51,0.19-1.01,0.25-1.64,0.25c-0.64,0-1.39-0.06-1.89-0.25s-0.95-0.44-1.33-0.76
	c-0.39-0.37-0.6-0.75-0.73-1.32c-0.26-0.56-0.22-1.13-0.22-1.88V3.74h-4.47v12.84c0,1.07,0.33,2.08,0.78,3.02
	c0.44,0.88,1.02,1.69,1.78,2.26c0.7,0.62,1.63,1.12,2.64,1.44c0.94,0.38,2.1,0.57,3.32,0.57c1.2,0,2.28-0.19,3.3-0.57
	c0.95-0.37,1.91-0.82,2.61-1.44c0.69-0.63,1.46-1.39,1.9-2.26c0.44-0.89,0.81-1.95,0.81-3.02V3.74h-4.47V15.96z M141.49,11.43
	l6.97-7.69h-5.01l-7.15,8.45V3.74h-3.72v19.46h3.72V17.4l2.59-2.99l5.31,8.8h4.76L141.49,11.43z M30.74,11.18
	c-0.89,0.31-1.27,1.39-0.95,2.26c0.32,0.89,1.39,1.32,2.28,0.94c0.88-0.37,1.33-1.38,0.95-2.26C32.71,11.25,31.63,10.87,30.74,11.18
	z M107.82,19.6c-0.25-0.26-0.51-0.44-0.75-0.57c-0.32-0.12-0.64-0.19-0.95-0.19c-0.32,0-0.69,0.07-0.95,0.19
	c-0.32,0.13-0.63,0.32-0.82,0.57c-0.19,0.25-0.44,0.5-0.57,0.75c-0.13,0.32-0.19,0.63-0.19,0.94c0,0.32,0.06,0.63,0.19,0.94
	c0.13,0.32,0.32,0.63,0.57,0.75c0.26,0.26,0.51,0.44,0.82,0.57c0.32,0.13,0.71,0.19,0.95,0.19c0.38,0,0.69-0.06,0.95-0.19
	c0.25-0.13,0.64-0.31,0.75-0.57c0.13-0.25,0.45-0.5,0.58-0.75c0.13-0.32,0.19-0.69,0.19-0.94c0-0.37-0.06-0.69-0.19-0.94
	C108.27,20.03,108.08,19.79,107.82,19.6z M53.63,15.72h5.21c0,0.44-0.14,0.87-0.33,1.36c-0.13,0.51-0.48,0.94-0.73,1.39
	c-0.38,0.44-0.84,0.75-1.48,1.06c-0.64,0.32-1.34,0.44-2.22,0.44c-0.95,0-1.78-0.19-2.42-0.56c-0.69-0.38-1.26-0.82-1.71-1.45
	c-0.45-0.63-0.77-1.32-0.95-2.08c-0.19-0.69-0.25-1.51-0.19-2.45c0-0.82,0.13-1.69,0.32-2.45c0.25-0.75,0.57-1.51,0.95-2.07
	c0.44-0.63,0.94-1.07,1.71-1.45c0.69-0.37,1.52-0.57,2.4-0.57c0.64,0,1.14,0.07,1.65,0.26c0.52,0.19,0.89,0.37,1.27,0.63
	c0.38,0.25,0.7,0.63,1.01,0.94c0.32,0.3,0.58,0.75,0.7,1.19l3.56-2.01C62,7.22,61.61,6.6,61.04,5.97C60.47,5.4,59.9,4.9,59.14,4.53
	c-0.69-0.44-1.52-0.69-2.34-0.88c-0.82-0.26-1.78-0.31-2.72-0.31c-1.46,0-2.79,0.25-3.99,0.75c-1.21,0.57-2.15,1.26-3.05,2.14
	c-0.88,0.89-1.46,2.01-1.97,3.27c-0.44,1.26-0.7,2.58-0.7,4.02c0,1.44,0.19,2.75,0.64,4.01c0.45,1.26,0.95,2.32,1.78,3.27
	c0.76,0.88,1.77,1.69,2.91,2.14c1.14,0.57,2.41,0.76,3.93,0.76c0.64,0,1.2-0.07,1.78-0.19c0.57-0.13,1.07-0.31,1.52-0.57
	c0.51-0.25,0.77-0.5,1.15-0.82c0.38-0.31,0.76-0.69,0.76-1.06v2.16h3.72V12.73h-8.94V15.72z M94.77,18.72h-0.13L90.77,3.74h-4.56
	l5.7,19.46h5.39L103,3.74h-4.43L94.77,18.72z M83.93,9.49c0.45,1.26,0.69,2.58,0.69,4.02c0,1.44-0.25,2.75-0.69,4.01
	c-0.45,1.26-1.01,2.39-1.9,3.27c-0.89,0.88-1.84,1.57-3.05,2.14c-1.14,0.5-2.47,0.76-3.99,0.76c-1.46,0-2.79-0.19-3.99-0.76
	c-1.2-0.44-2.22-1.26-3.04-2.14c-0.82-0.94-1.46-2.01-1.91-3.27c-0.45-1.26-0.69-2.58-0.69-4.01c0-1.45,0.25-2.77,0.69-4.02
	c0.45-1.26,1.01-2.38,1.91-3.27c0.88-0.88,1.84-1.56,3.04-2.14c1.14-0.43,2.47-0.75,3.99-0.75c1.46,0,2.79,0.19,3.99,0.75
	c1.21,0.5,2.22,1.26,3.05,2.14C82.85,7.16,83.48,8.23,83.93,9.49z M80.44,13.51c0-0.89-0.19-1.82-0.44-2.58
	c-0.26-0.82-0.57-1.45-1.08-2.08c-0.51-0.63-1.09-1.06-1.71-1.38c-0.64-0.32-1.47-0.5-2.29-0.5c-0.82,0-1.61,0.19-2.3,0.5
	c-0.69,0.37-1.36,0.82-1.74,1.38c-0.39,0.57-0.83,1.32-1.09,2.08c-0.25,0.76-0.51,1.63-0.51,2.58v0.12c0,0.89,0.26,1.83,0.51,2.58
	c0.26,0.82,0.71,1.45,1.16,2.08c0.51,0.63,1.02,1.06,1.71,1.38c0.7,0.37,1.46,0.5,2.29,0.5c0.82,0,1.59-0.19,2.29-0.5
	c0.7-0.37,1.22-0.75,1.72-1.38c0.38-0.57,0.79-1.32,1.05-2.08c0.26-0.75,0.44-1.63,0.44-2.58V13.51z"/>
</svg>
