<svg xmlns="http://www.w3.org/2000/svg" width="149px" height="24px" viewBox="0 0 149 24"><path d="m5.26 5.4c.32-.88 1.39-1.32 2.28-.94.88.32 1.26 1.39.94 2.26-.31.89-1.38 1.32-2.27.95-.82-.38-1.27-1.38-.95-2.27zm-1.91 8.04c.39-.88-.06-1.95-.94-2.26-.89-.37-1.97.07-2.28.94-.38.89.13 1.89.95 2.26.88.38 1.96-.05 2.27-.94zm-1.07-3.45c.88.37 1.97-.06 2.28-.94.38-.88-.06-1.95-.95-2.26-.88-.38-1.96.06-2.28.93-.32.89.06 1.89.95 2.27zm8.43-.95c.89.39 1.97-.06 2.29-.93.31-.89-.07-1.95-.95-2.26-.89-.37-1.97.06-2.28.94-.39.88.05 1.88.94 2.25zm16.23-1.37c.82-.37 1.26-1.38.95-2.26-.32-.88-1.4-1.32-2.28-.94-.89.32-1.27 1.39-.95 2.26.31.88 1.39 1.31 2.28.94zm-11.16-2.9-1.26 3.84c-.07.19-.13.39-.13.59 0 1 .76 2.03 1.78 2.03h.06.26.25.07c1.01 0 1.77-.96 1.77-2.03 0-.26-.06-.42-.13-.61l-1.26-3.83c.19-.06.08-.11.15-.24l2.04 1.14v-3.27l-2.04.69c-.07-.06-.04-.19-.17-.25l.96-2.83h-1.65-1.59l.88 2.83c-.06.06-.14.12-.2.25l-2.17-.69v3.27l2.17-1.13c.07.06.09.18.21.24zm15.15 5.22c.82-.37 1.27-1.38.95-2.26s-1.4-1.25-2.28-.94c-.88.32-1.27 1.38-.95 2.25.32.89 1.4 1.32 2.28.95zm-8.49-.95c.88-.37 1.33-1.38.94-2.25-.31-.89-1.38-1.26-2.27-.94-.89.31-1.27 1.38-.95 2.26.32.87 1.39 1.32 2.28.93zm6.97 8.3c-.45-.37-.76-1.07-1.08-2.14l-1.14 3.83c.71-.5 1.27-.75 1.91-.75-1.08 2.32-2.47 2.95-3.43 2.82-1.07-.19-1.58-1.13-1.46-2.01.26-1.13 1.46-1.45 2.04-.13 1.07-2.14-.71-2.82-1.97-2.19 1.84-1.83 2.03-3.39.57-5.28-2.03 1.58-2.09 3.08-1.14 5.16-1.2-1.32-3.04-.63-2.34 1.56.82-1.32 2.03-.5 1.84.76-.13 1.06-1.58 2.01-3.42 1.82-2.6-.25-2.73-2.01-2.79-3.39.64-.12 1.77.5 2.72 1.82l.38-4.07c-1.01 1.06-2.03 1.27-3.1 1.27.38-1.07 2.03-2.94 2.03-2.94h-2.34-2.73s1.65 1.87 2.04 2.94c-1.08-.07-2.04-.23-3.11-1.3l.38 4.09c.95-1.38 2.1-1.93 2.73-1.81-.07 1.45-.26 3.27-2.79 3.4-1.84.19-3.24-.69-3.43-1.82-.19-1.26.95-2.08 1.84-.76.69-2.14-1.14-2.88-2.34-1.56.88-2.14.88-3.64-1.14-5.16-1.46 1.95-1.27 3.45.58 5.28-1.14-.7-2.98.06-1.97 2.19.57-1.38 1.77-1 2.03.13.19.82-.38 1.82-1.46 2.01-.92.18-2.32-.45-3.46-2.83.64 0 1.14.32 1.91.75l-1.14-3.83c-.32 1.06-.7 1.82-1.08 2.14-.25-.76-.25-1.32 0-2.51l-2.4.82c1.26 1.75 2.46 4.14 3.48 8.35 3.74-.44 7.74-.76 11.92-.76 4.25 0 8.24.31 11.79.76 1.01-4.21 2.22-6.66 3.49-8.35l-2.4-.82c.23 1.19.3 1.75-.02 2.51zm94.98-1.38c0 .69-.07 1.32-.26 1.88-.25.57-.48.94-.8 1.32-.38.37-.74.63-1.32.76-.51.19-1.01.25-1.64.25-.64 0-1.39-.06-1.89-.25s-.95-.44-1.33-.76c-.39-.37-.6-.75-.73-1.32-.26-.56-.22-1.13-.22-1.88v-12.22h-4.47v12.84c0 1.07.33 2.08.78 3.02.44.88 1.02 1.69 1.78 2.26.7.62 1.63 1.12 2.64 1.44.94.38 2.1.57 3.32.57 1.2 0 2.28-.19 3.3-.57.95-.37 1.91-.82 2.61-1.44.69-.63 1.46-1.39 1.9-2.26.44-.89.81-1.95.81-3.02v-12.84h-4.47v12.22zm17.1-4.53 6.97-7.69h-5.01l-7.15 8.45v-8.45h-3.72v19.46h3.72v-5.8l2.59-2.99 5.31 8.8h4.76zm-110.75-.25c-.89.31-1.27 1.39-.95 2.26.32.89 1.39 1.32 2.28.94.88-.37 1.33-1.38.95-2.26-.31-.87-1.39-1.25-2.28-.94zm77.08 8.42c-.25-.26-.51-.44-.75-.57-.32-.12-.64-.19-.95-.19-.32 0-.69.07-.95.19-.32.13-.63.32-.82.57s-.44.5-.57.75c-.13.32-.19.63-.19.94 0 .32.06.63.19.94.13.32.32.63.57.75.26.26.51.44.82.57.32.13.71.19.95.19.38 0 .69-.06.95-.19.25-.13.64-.31.75-.57.13-.25.45-.5.58-.75.13-.32.19-.69.19-.94 0-.37-.06-.69-.19-.94-.13-.32-.32-.56-.58-.75zm-54.19-3.88h5.21c0 .44-.14.87-.33 1.36-.13.51-.48.94-.73 1.39-.38.44-.84.75-1.48 1.06-.64.32-1.34.44-2.22.44-.95 0-1.78-.19-2.42-.56-.69-.38-1.26-.82-1.71-1.45s-.77-1.32-.95-2.08c-.19-.69-.25-1.51-.19-2.45 0-.82.13-1.69.32-2.45.25-.75.57-1.51.95-2.07.44-.63.94-1.07 1.71-1.45.69-.37 1.52-.57 2.4-.57.64 0 1.14.07 1.65.26.52.19.89.37 1.27.63.38.25.7.63 1.01.94.32.3.58.75.7 1.19l3.56-2.01c-.38-.68-.77-1.3-1.34-1.93-.57-.57-1.14-1.07-1.9-1.44-.69-.44-1.52-.69-2.34-.88-.82-.26-1.78-.31-2.72-.31-1.46 0-2.79.25-3.99.75-1.21.57-2.15 1.26-3.05 2.14-.88.89-1.46 2.01-1.97 3.27-.44 1.26-.7 2.58-.7 4.02s.19 2.75.64 4.01.95 2.32 1.78 3.27c.76.88 1.77 1.69 2.91 2.14 1.14.57 2.41.76 3.93.76.64 0 1.2-.07 1.78-.19.57-.13 1.07-.31 1.52-.57.51-.25.77-.5 1.15-.82.38-.31.76-.69.76-1.06v2.16h3.72v-10.49h-8.94v2.99zm41.14 3h-.13l-3.87-14.98h-4.56l5.7 19.46h5.39l5.7-19.46h-4.43zm-10.84-9.23c.45 1.26.69 2.58.69 4.02s-.25 2.75-.69 4.01c-.45 1.26-1.01 2.39-1.9 3.27s-1.84 1.57-3.05 2.14c-1.14.5-2.47.76-3.99.76-1.46 0-2.79-.19-3.99-.76-1.2-.44-2.22-1.26-3.04-2.14-.82-.94-1.46-2.01-1.91-3.27s-.69-2.58-.69-4.01c0-1.45.25-2.77.69-4.02.45-1.26 1.01-2.38 1.91-3.27.88-.88 1.84-1.56 3.04-2.14 1.14-.43 2.47-.75 3.99-.75 1.46 0 2.79.19 3.99.75 1.21.5 2.22 1.26 3.05 2.14.82.94 1.45 2.01 1.9 3.27zm-3.49 4.02c0-.89-.19-1.82-.44-2.58-.26-.82-.57-1.45-1.08-2.08s-1.09-1.06-1.71-1.38c-.64-.32-1.47-.5-2.29-.5s-1.61.19-2.3.5c-.69.37-1.36.82-1.74 1.38-.39.57-.83 1.32-1.09 2.08-.25.76-.51 1.63-.51 2.58v.12c0 .89.26 1.83.51 2.58.26.82.71 1.45 1.16 2.08.51.63 1.02 1.06 1.71 1.38.7.37 1.46.5 2.29.5.82 0 1.59-.19 2.29-.5.7-.37 1.22-.75 1.72-1.38.38-.57.79-1.32 1.05-2.08.26-.75.44-1.63.44-2.58v-.12z" fill="currentColor"></path></svg>