<svg height="56" viewBox="0 0 121 56" width="121" xmlns="http://www.w3.org/2000/svg"><path d="m7.72 27.96h1.49v4.83h5.89v-4.83h1.49v11.24h-1.49v-5.15h-5.89v5.15h-1.49zm10.92 11.24h1.41v-9.35h.03l3.49 9.35h1.27l3.49-9.35h.03v9.35h1.41v-11.24h-2.04l-3.53 9.44-3.52-9.44h-2.04zm27-7.86c-.35-2.39-2.27-3.65-4.61-3.65-3.44 0-5.29 2.66-5.29 5.92 0 3.27 1.69 5.86 5.17 5.86 2.82 0 4.56-1.7 4.84-4.5h-1.49c-.14 1.86-1.27 3.24-3.23 3.24-2.68 0-3.8-2.14-3.8-4.71 0-2.35 1.13-4.55 3.79-4.55 1.55 0 2.82.8 3.13 2.39zm4.89-.47c-2.57 0-3.93 1.87-3.93 4.27 0 2.38 1.36 4.25 3.93 4.25s3.93-1.87 3.93-4.25c0-2.4-1.36-4.27-3.93-4.27zm0 7.33c-1.39 0-2.52-1.1-2.52-3.07 0-1.98 1.13-3.09 2.52-3.09s2.52 1.1 2.52 3.09c0 1.97-1.13 3.07-2.52 3.07zm11.8-7.14h-1.33v4.6c0 1.46-.78 2.55-2.4 2.55-1.02 0-1.64-.65-1.64-1.64v-5.51h-1.33v5.35c0 1.75.66 2.98 2.79 2.98 1.16 0 2.07-.47 2.63-1.48h.03v1.29h1.25zm1.6 8.14h1.33v-3.62c0-2.06.78-3.29 2.93-3.29v-1.42c-1.44-.05-2.33.6-2.98 1.91h-.03v-1.72h-1.25zm7.3-10.58h-1.33v2.44h-1.38v1.18h1.38v5.18c0 1.49.55 1.78 1.93 1.78h1.02v-1.18h-.61c-.83 0-1-.11-1-.72v-5.05h1.61v-1.18h-1.61v-2.45zm2.19 8.01c.08 2.01 1.61 2.75 3.43 2.75 1.65 0 3.45-.63 3.45-2.57 0-1.57-1.32-2.01-2.65-2.31-1.24-.3-2.65-.46-2.65-1.42 0-.82.92-1.04 1.72-1.04.88 0 1.79.33 1.88 1.37h1.33c-.11-1.98-1.53-2.55-3.32-2.55-1.41 0-3.02.68-3.02 2.31 0 1.56 1.33 2 2.65 2.3 1.33.3 2.65.47 2.65 1.51 0 1.02-1.13 1.21-1.96 1.21-1.1 0-2.13-.38-2.18-1.57h-1.33zm19.75 2.57h1.74l-2.18-2.53c.47-.99.64-1.45.75-2.77h-1.27c-.03.6-.16 1.2-.36 1.75l-2.02-2.47c1.08-.61 2.1-1.58 2.1-2.91 0-1.53-1.32-2.3-2.71-2.3-1.61 0-2.52 1.09-2.52 2.31 0 1.15.61 1.75 1.24 2.65-1.43.76-2.62 1.64-2.62 3.4 0 .91.47 3.07 3.49 3.07 1.22 0 2.49-.53 3.16-1.59zm-1.93-2.33c-.55.82-1.36 1.34-2.38 1.34-1.08 0-2.13-.77-2.13-1.9 0-1.34.89-1.94 1.94-2.53zm-.64-6.54c0 .95-.85 1.54-1.49 1.95-.49-.61-1.08-1.27-1.08-1.95 0-.82.66-1.2 1.28-1.2.8.01 1.29.56 1.29 1.2zm-80.35 25.4h1.49v-9.98h3.73v-1.26h-8.94v1.26h3.73v9.98zm4.55 0h1.33v-3.62c0-2.06.78-3.29 2.93-3.29v-1.42c-1.44-.05-2.33.6-2.98 1.9h-.03v-1.72h-1.25zm5.03-9.6h1.33v-1.64h-1.33zm0 9.6h1.33v-8.14h-1.33zm2.98 0h1.33v-1.09h.03c.6.96 1.79 1.28 2.62 1.28 2.47 0 3.7-1.94 3.7-4.23 0-2.3-1.24-4.28-3.73-4.28-1.11 0-2.15.39-2.58 1.29h-.03v-4.2h-1.33v11.23zm3.76-7.14c1.72 0 2.51 1.48 2.51 3.01 0 1.59-.61 3.15-2.43 3.15-1.83 0-2.55-1.48-2.55-3.08 0-1.54.69-3.08 2.47-3.08zm11.82-1h-1.33v4.6c0 1.46-.78 2.55-2.4 2.55-1.02 0-1.64-.65-1.64-1.64v-5.51h-1.33v5.35c0 1.75.66 2.98 2.79 2.98 1.16 0 2.07-.47 2.63-1.48h.03v1.29h1.25zm1.61 8.14h1.33v-4.6c0-1.46.78-2.55 2.4-2.55 1.02 0 1.64.64 1.64 1.64v5.51h1.33v-5.35c0-1.75-.66-2.97-2.79-2.97-1.16 0-2.07.47-2.63 1.48h-.03v-1.29h-1.25zm15.49-1.07c-.17.06-.3.08-.41.08-.42 0-.42-.28-.42-.91v-4.19c0-1.9-1.58-2.24-3.04-2.24-1.8 0-3.35.71-3.43 2.72h1.33c.06-1.2.89-1.54 2.02-1.54.84 0 1.8.19 1.8 1.35 0 1.01-1.25.91-2.73 1.2-1.38.27-2.74.66-2.74 2.5 0 1.62 1.21 2.28 2.68 2.28 1.13 0 2.11-.39 2.85-1.26 0 .88.44 1.26 1.13 1.26.42 0 .72-.08.96-.22zm-2.16-1.76c0 .74-.72 1.84-2.47 1.84-.81 0-1.57-.31-1.57-1.2 0-.99.75-1.31 1.63-1.47.89-.16 1.89-.17 2.41-.55zm3.14 2.83h1.33v-11.24h-1.33zm2.5-2.56c.08 2.01 1.61 2.76 3.43 2.76 1.64 0 3.45-.63 3.45-2.57 0-1.57-1.32-2.01-2.65-2.31-1.24-.3-2.65-.46-2.65-1.42 0-.82.92-1.04 1.72-1.04.88 0 1.79.33 1.88 1.37h1.33c-.11-1.98-1.53-2.55-3.32-2.55-1.41 0-3.02.68-3.02 2.31 0 1.56 1.33 2 2.65 2.3 1.33.3 2.65.47 2.65 1.51 0 1.02-1.13 1.21-1.96 1.21-1.1 0-2.13-.38-2.18-1.57zm20.48-5.39c-.09-2.47-1.83-3.56-4.12-3.56-2.04 0-4.06 1.01-4.06 3.29 0 2.06 1.8 2.58 3.59 2.98 1.79.39 3.57.66 3.57 2.2 0 1.62-1.49 2.05-2.83 2.05-1.69 0-3.26-.82-3.26-2.71h-1.41c0 2.74 2.11 3.97 4.62 3.97 2.03 0 4.37-.96 4.37-3.35 0-2.2-1.79-2.83-3.57-3.24-1.8-.41-3.59-.61-3.59-2 0-1.46 1.25-1.92 2.51-1.92 1.53 0 2.6.69 2.77 2.3h1.41zm7.31 5.37c-.23 1.06-1 1.59-2.1 1.59-1.77 0-2.57-1.26-2.52-2.68h6.06c.08-1.97-.8-4.66-3.66-4.66-2.21 0-3.8 1.79-3.8 4.23.08 2.49 1.3 4.28 3.88 4.28 1.82 0 3.1-.98 3.46-2.77h-1.32zm-4.62-2.27c.09-1.24.92-2.3 2.32-2.3 1.32 0 2.27 1.02 2.33 2.3zm7.13 4.85h1.33v-3.62c0-2.06.78-3.29 2.93-3.29v-1.42c-1.44-.05-2.33.6-2.98 1.9h-.03v-1.72h-1.25zm12.02-8.14h-1.39l-2.21 6.78h-.03l-2.27-6.78h-1.49l3.01 8.14h1.43zm.88-1.46h1.33v-1.64h-1.33zm0 9.6h1.33v-8.14h-1.33zm9.9-5.52c-.19-1.94-1.66-2.8-3.49-2.8-2.57 0-3.82 1.92-3.82 4.36 0 2.42 1.31 4.16 3.79 4.16 2.04 0 3.27-1.18 3.57-3.16h-1.36c-.17 1.23-.94 1.98-2.22 1.98-1.69 0-2.36-1.48-2.36-2.98 0-1.65.6-3.18 2.52-3.18 1.1 0 1.8.6 2 1.62zm6.81 2.94c-.23 1.06-1 1.59-2.1 1.59-1.77 0-2.57-1.26-2.52-2.68h6.06c.08-1.97-.8-4.66-3.66-4.66-2.21 0-3.81 1.79-3.81 4.23.08 2.49 1.3 4.28 3.88 4.28 1.82 0 3.1-.98 3.46-2.77h-1.31zm-4.62-2.27c.09-1.24.92-2.3 2.32-2.3 1.32 0 2.27 1.02 2.33 2.3zm-96.08-47.21c-.13.25-.24.39-.22.58s.22.32.31.52c.09-.22.23-.39.21-.56-.02-.18-.25-.41-.3-.54zm3.28 0c-.04.13-.28.36-.3.53s.13.34.21.56c.09-.19.29-.33.31-.52.02-.18-.09-.32-.22-.57zm-5.16-.14c.12 0 .22-.1.22-.22s-.1-.22-.22-.22-.22.1-.22.22c-.01.12.09.22.22.22zm.14.32c0-.12-.1-.22-.22-.22s-.22.1-.22.22.1.22.22.22.22-.1.22-.22zm.11.54c0-.12-.1-.22-.22-.22s-.22.1-.22.22.1.22.22.22.22-.1.22-.22zm.97-1.92c.12 0 .22-.1.22-.22s-.1-.22-.22-.22-.22.1-.22.22.1.22.22.22zm-.55.17c.12 0 .22-.1.22-.22s-.1-.22-.22-.22-.22.1-.22.22.1.22.22.22zm-.43.38c.12 0 .22-.1.22-.22s-.1-.22-.22-.22-.22.1-.22.22.09.22.22.22zm1.56-.5c.12 0 .22-.1.22-.22s-.1-.22-.22-.22-.22.1-.22.22.1.22.22.22zm.55.16c.12 0 .22-.1.22-.22s-.1-.22-.22-.22-.22.1-.22.22.1.22.22.22zm.52.25c.12 0 .22-.1.22-.22s-.1-.22-.22-.22-.22.1-.22.22.1.22.22.22zm3.95.38c0 .12.1.22.22.22s.22-.1.22-.22-.1-.22-.22-.22c-.12-.01-.22.09-.22.22zm.3.32c-.12 0-.22.1-.22.22s.1.22.22.22.22-.1.22-.22-.1-.22-.22-.22zm-.11.54c-.12 0-.22.1-.22.22s.1.22.22.22.22-.1.22-.22-.1-.22-.22-.22zm-1.19-1.7c.12 0 .22-.1.22-.22s-.1-.22-.22-.22-.22.1-.22.22.1.22.22.22zm.55.17c.12 0 .22-.1.22-.22s-.1-.22-.22-.22-.22.1-.22.22.1.22.22.22zm.43.38c.12 0 .22-.1.22-.22s-.1-.22-.22-.22-.22.1-.22.22.1.22.22.22zm-1.56-.5c.12 0 .22-.1.22-.22s-.1-.22-.22-.22-.22.1-.22.22.1.22.22.22zm-.55.16c.12 0 .22-.1.22-.22s-.1-.22-.22-.22-.22.1-.22.22.1.22.22.22zm-.74.02c0 .12.1.22.22.22s.22-.1.22-.22-.1-.22-.22-.22-.22.1-.22.22zm-.81 1.21h.25v-.96c-.09-.01-.17-.04-.25-.08zm.76-1.03c-.08.04-.16.07-.25.08v.96h.25zm-.52-1.06v-.56c-.28.06-.5.28-.55.57h.55zm.29 0h.54c-.05-.28-.26-.51-.54-.57zm-.83.28c.07.31.35.55.68.55s.61-.23.68-.55zm1.06-.93c-.16-.13-.28-.3-.3-.49.18.03.38.16.5.32v-.77c-.12.16-.32.29-.5.32.02-.19.13-.35.29-.55h-.74c.16.2.27.36.29.55-.18-.03-.38-.16-.5-.32v.77c.12-.16.32-.29.5-.32-.02.19-.14.37-.3.49zm.02 15.99c.15 0 .27-.12.27-.27s-.12-.27-.27-.27-.27.12-.27.27.12.27.27.27zm-1.31-.4c.17 0 .3-.14.3-.3 0-.17-.13-.3-.3-.3-.16 0-.3.13-.3.3.01.16.14.3.3.3zm-.45-1.34c.04.03.09.07.12.09-.01-.09-.06-.19-.13-.27-.09-.11-.22-.17-.34-.17-.27 0-.57.3-.65.39l-.02.03-.04-.01c-.07-.02-.14-.03-.22-.04.03.06.06.13.1.19l.02.03-.02.03c-.14.21-.21.43-.21.59 0 .11.12.33.31.42.13.06.25.06.38-.02-.07-.04-.16-.09-.22-.13l-.03-.02c-.06-.03-.12-.07-.14-.15 0-.02-.01-.03-.01-.05 0-.07.03-.15.09-.26.01-.02.02-.04.04-.06.01-.01.02-.03.03-.04l.03-.05.05.03c.1.06.2.09.27.07.03-.01.06-.03.07-.06.04-.07.02-.2-.12-.31l-.05-.04.08-.09c.05-.06.1-.12.16-.17.12-.11.23-.11.37 0zm2.56 1.06c.43.11.95.21 1.29.16-.01.01-.03.03-.05.05-.12.12-.29.24-.47.35-.44.28-.89.44-1.23.44-.39 0-.9-.08-1.42-.23-.46-.13-.9-.3-1.24-.48-.18.13-.38.16-.57.07-.23-.11-.38-.37-.38-.54 0-.03 0-.06 0-.09-.16-.14-.31-.29-.45-.45-.43-.49-.77-1.06-1-1.69-.11-.3-.19-.6-.26-.91.39.14.57 0 .68-.13.04.01.05.12.04.17.44-.01.69-.31.73-.53.04.27.11.54.2.79.16.45.39.85.68 1.2.1.12.21.23.32.33.07-.02.14-.04.21-.04.16 0 .32.08.44.22s.18.32.16.47v.01c.79.35 1.62.65 2.32.83zm-.2 2.84c.06-.11.09-.22.09-.3 0-.14-.11-.33-.33-.33-.38 0-.29.52-.47.52-.08 0-.14-.05-.14-.13 0-.15.26-.29.26-.5s-.19-.39-.41-.56c-.21.17-.4.35-.4.56s.26.35.26.5c0 .08-.06.13-.14.13-.18 0-.09-.52-.47-.52-.22 0-.33.19-.33.33 0 .08.03.19.09.3.05-.09.12-.15.19-.15.28 0 .17.76.51.76.15 0 .23-.1.23-.2 0-.11-.07-.14-.07-.22s.07-.12.14-.12.14.03.14.12-.07.12-.07.22c0 .11.08.2.23.2.34 0 .23-.76.51-.76.06 0 .13.06.18.15zm-.99 1.06c.1 0 .19-.08.19-.19 0-.1-.08-.19-.19-.19s-.19.08-.19.19.09.19.19.19zm.75-1.83c.29 0 .47.25.47.48 0 .22-.13.42-.24.54-.06-.14-.11-.24-.18-.24-.15 0-.07.73-.5.75.01.04.02.07.02.12 0 .18-.15.33-.33.33s-.33-.15-.33-.33c0-.04.01-.08.02-.12-.43-.02-.36-.75-.51-.75-.07 0-.12.1-.18.24-.11-.13-.24-.32-.24-.54 0-.23.18-.48.47-.48.05 0 .1.01.15.02v-1.03c.43.11.86.17 1.22.19v.84c.07-.02.11-.02.16-.02zm9.81 1.01c-.02-.04-.06-.07-.11-.05-.98.28-2.19-.53-3.36-1.31-.99-.66-1.92-1.29-2.72-1.29-.3 0-.56.06-.78.19-.28.15-.49.4-.62.73-.14.33-.28.55-.39.73-.14.22-.23.37-.23.57 0 .16.07.3.2.44.11.12.28.23.51.35.05.03.1.05.15.07.19.1.31.16.34.27-.39.17-.89.31-1.45.41-.64.11-1.34.17-2.09.17-.74 0-1.44-.06-2.09-.17-.57-.1-1.07-.24-1.46-.42.02-.16.14-.23.35-.33.05-.02.1-.05.15-.08.19-.1.38-.21.5-.32.14-.12.2-.25.2-.41 0-.19-.1-.35-.23-.57-.11-.18-.25-.4-.39-.73-.13-.33-.34-.57-.62-.72-.22-.12-.49-.19-.78-.19-.8 0-1.73.62-2.72 1.29-1.17.79-2.39 1.6-3.37 1.31-.04-.01-.09.01-.11.06-.01.04.01.09.05.11.3.13.56.34.81.54.35.28.69.54 1.05.54.35 0 .72-.11 1.17-.35.39-.21.8-.49 1.2-.76.77-.53 1.57-1.08 2.33-1.14-.08.08-.16.15-.23.22-.22.2-.42.37-.42.73 0 .28.09.48.23.75.04.08.08.17.13.27.08.19.12.34.17.55.02.09.05.19.08.31.05.18.14.52.69.8.64.33 1.75.5 3.3.5s2.66-.17 3.3-.5c.56-.28.65-.62.69-.8.03-.12.06-.22.08-.31.05-.21.09-.36.17-.55.06-.14.12-.25.17-.35.12-.22.21-.39.21-.64 0-.35-.2-.54-.44-.75-.08-.07-.15-.14-.24-.23.76.06 1.56.61 2.33 1.14.39.27.8.55 1.2.76.45.24.83.35 1.18.35.37 0 .7-.26 1.05-.54.25-.2.52-.4.81-.54.04-.02.06-.07.05-.11zm-7.38-7.63c-.01-.49-.09-.96-.25-1.4-.16-.45-.39-.85-.69-1.2-.29-.35-.63-.62-1.01-.8-.35-.18-.72-.27-1.1-.29v3.69zm-3.18-5.23c1.04 0 1.76.31 2.17.59.24-.14.35-.28.35-.45 0-.59-1.67-.65-2.52-.65s-2.52.05-2.52.65c0 .17.1.31.35.45.41-.28 1.13-.59 2.17-.59zm-.06 1.53c-.41.01-.8.1-1.18.29s-.72.46-1.01.8c-.29.35-.52.75-.68 1.2-.16.44-.24.92-.25 1.4h3.12zm4.74 3.46c.01.13 0 .17 0 .3 0 .72-.12 1.41-.37 2.07-.24.63-.57 1.2-1 1.69-.21.24-.43.45-.67.63-.06.05-.33.13-1.4-.14-.14-.03-.21-.06-.36-.1.02-.14.03-.21.07-.31.04-.12.1-.22.15-.28.06-.03.06-.07.12-.1.38-.19.72-.46 1.01-.8.29-.35.52-.75.69-1.2.15-.43.23-.88.25-1.35h-3.05v3.41c.24.01.7.06.7.06-.11.14-.16.28-.19.5-.35-.11-.69-.24-1.05-.39.11-.13.24-.16.36-.17v-3.41h-3.12c-.01-.14-.08-.36-.12-.42-.15-.19-.21-.3-.22-.59 0-.15-.1-.35-.25-.55-.09-.11-.46-.52-.55-.61.24-.63.57-1.2 1-1.68.28-.32.6-.6.95-.83-.19-.12-.37-.3-.37-.59 0-.17.07-.3.19-.41-.2-.63-.55-1.39-.85-1.73l.63-.27c-.17.25-.18.55-.14.72.17-.11.31-.27.36-.48.03.19.14.5.23.69-.18-.09-.33-.13-.52-.05.11.14.38.36.79.26.22-.04.44-.16.43-.34-.01-.1-.08-.22-.22-.21s-.14.22-.1.32c-.18-.1-.37-.63-.09-.71.22-.06.42.24.5.48.04-.28.16-.55.38-.54.29.02.2.56.09.69-.02-.19-.12-.29-.21-.28-.08 0-.18.06-.16.23s.26.28.54.28c.26 0 .73-.08.78-.6-.17.03-.44.16-.55.33.04-.31.04-.53 0-.86.14.2.37.31.54.33-.05-.22-.24-.45-.46-.59h1.14c-.22.14-.41.37-.46.59.17-.03.41-.13.55-.34-.04.32-.04.54 0 .86-.12-.17-.39-.3-.56-.34.04.52.51.6.78.6.28 0 .52-.11.54-.28s-.09-.23-.16-.23c-.08.01-.19.11-.2.3-.1-.14-.19-.67.09-.69.22-.02.34.25.38.54.07-.23.28-.54.5-.48.28.08.09.61-.09.71.04-.09.03-.3-.1-.32-.14-.01-.22.11-.22.21-.01.17.21.29.44.35.41.1.68-.12.79-.27-.18-.08-.33-.04-.51.05.1-.18.2-.49.23-.69.05.21.19.36.35.48.04-.17.02-.46-.14-.71l.63.27c-.3.33-.65 1.09-.84 1.72.12.11.19.25.19.42 0 .29-.19.47-.37.59.34.23.66.5.95.83.23.26.41.49.59.8-.03.03-.06.07-.09.11-.04.06-.14.17-.18.21-.05.07-.1.15-.1.25 0 .08.03.18.09.29.08.13.56 1.09.68 1.33.08.2.25.36.36.44zm-2.85-1.95c-.18-.22-.38-.41-.6-.56-.19-.13-.38-.22-.59-.29.02.03.03.07.03.13-.05 0-.09-.02-.11-.05v.9c.05-.01.09.02.1.05s.01.07-.04.1c.04 0 .09.02.13.06-.04.04-.09.06-.13.06.04.04.05.07.04.1s-.05.06-.1.05v1.06c.03-.03.08-.05.13-.05 0 .06-.02.1-.05.13h.65c-.01-.05.02-.09.05-.1s.07-.01.1.04c0-.04.02-.09.06-.13.04.04.06.09.06.13.04-.04.07-.05.1-.04s.06.05.05.1h.76c-.03-.03-.06-.08-.06-.14.05 0 .08.01.11.03-.07-.44-.23-.87-.46-1.24-.03.01-.06.01-.08 0-.03-.02-.05-.05-.03-.1-.04.02-.08.04-.14.03.01-.06.04-.1.07-.13-.06 0-.08-.03-.09-.06 0-.02.01-.06.04-.08zm.86 1.58c.1 0 .14.09.12.13-.01.03-.04.05-.1.05.03.03.05.08.06.14-.06 0-.1-.02-.14-.05.01.05-.02.09-.05.1-.04.02-.13-.02-.14-.11.04.05.11.03.11-.03h-1c.02.06.01.13-.05.2-.06-.07-.07-.14-.05-.2h-.9c0 .06.08.07.11.03 0 .1-.09.14-.13.12-.03-.01-.05-.04-.05-.1-.03.03-.08.05-.14.05 0-.06.02-.11.05-.14-.05 0-.08-.02-.1-.05-.02-.05.02-.13.12-.13-.05.04-.03.12.03.11v-1.3c-.06.02-.13.01-.2-.05.07-.06.14-.07.2-.05v-1.2c-.06 0-.08.07-.03.11-.1-.01-.13-.1-.11-.14.02-.02.04-.04.08-.04-.03-.04-.05-.08-.04-.15.06.01.11.04.14.07.01-.05.03-.07.06-.08.05-.02.13.03.12.13-.03-.05-.11-.04-.11.02.25.07.5.18.73.34.24.17.47.37.66.62.02.03.05.06.07.09.04-.05.1-.1.2-.09-.01.09-.07.14-.13.16 0 0-.01.01-.01.01.32.46.52 1 .59 1.55.07 0 .09-.08.03-.12zm-.53-.33c.04-.02.07-.05.08-.08-.04.01-.08-.01-.09-.01.03-.02.07 0 .03-.06s-.06-.06-.1-.02-.28-.01-.28-.19c.02.03.05.05.08.07.01 0 .02.01.03.01s.02 0 .03.01c.02.01.05.01.07.01h.01v-.01c.05-.01.09-.04.09-.09.01-.1-.09-.15-.19-.23-.04-.03-.07-.07-.1-.09-.04-.07-.01-.14-.1-.27-.01-.03-.01-.07-.03-.12-.05.08-.07.25.06.39.1.11.32.22.31.32 0 .02-.02.04-.06.05-.01 0-.02 0-.03 0s-.01 0-.02-.01c-.01 0-.03-.01-.05-.02s-.05-.03-.08-.06c-.09-.08-.17-.21-.22-.28-.1-.13-.05-.25-.04-.36.07-.1-.04-.3-.11-.35 0 0 .01-.04 0-.1-.01.01-.05.01-.06.01-.02-.04-.03-.05-.05-.05-.04-.01-.04-.03-.05-.05-.03.02-.03.05-.06.05-.04 0-.05 0-.06.01-.03.02-.04.03-.08.03s-.04.02-.04.05c0 .02 0 .05.03.06 0 0 .01 0 .01.01l.03.04.05-.05c.02-.02.07-.02.08.02.01.02.01.03-.02.04-.04 0-.05 0-.09.01-.02 0-.02.03-.02.05s.03.04.08.02c.05-.01.13-.02.13.02 0 .11-.12.1-.15.23-.03-.02-.06-.04-.08-.07s-.05-.07-.09-.11c-.03-.03-.06-.06-.09-.08-.04-.03-.04-.05-.04-.09s.02-.07.02-.11c0 0-.01-.02-.01-.03-.01-.02-.04-.04-.06-.04.01.01.02.02.02.04-.01.01-.02.02-.02.02-.01.01-.01.02 0 .04v.01.02c-.01-.03-.02-.07-.05-.07 0 0-.01 0-.02 0 0 0 0 0 0-.01 0-.03-.03-.05-.06-.02.01 0 .02 0 .03.01 0 .01-.01.03-.01.03 0 .03.02.04.05.04h.01v.01c-.05-.02-.07 0-.07.02v.02c-.02.01-.02.04.01.06 0-.01 0-.03.01-.03h.01c0 .01.01.01.01.01s.01 0 .03-.01h.01s.01.01.01.01v.01c-.03.03-.03.06.01.07-.02.03-.08.02-.07-.03-.04.07.03.12.09.09 0 .02 0 .07.01.07 0 0 0-.01.01-.01v.01c0 .02.01.04.03.04 0-.01 0-.02.01-.02.01.02.02.03.03.05.03.05.09.18.21.24-.06.04-.11.09-.15.15-.04.03-.09.07-.12.05-.01-.01-.02-.02-.04-.04-.02-.01-.03-.01-.04-.01 0 0-.01 0-.02.01-.02-.01-.06 0-.07.02.01 0 .03-.01.05.01v.02c0 .02.01.03.08.03 0 0 .01 0 .01.01-.01.01-.02.02-.04.01-.03-.01-.04-.03-.07 0 0 0-.01.01-.01.02 0 0 0 0-.01 0-.03.01-.05.06-.02.08 0-.01 0-.03.02-.04 0 .01.01.01.01.02.02.03.04.05.09-.02 0-.01.01 0 0 0 0 .03-.03.08.01.08h.02v.01c.01.04.06.05.08.04-.01-.01-.03-.02-.04-.04h.02c.02-.02 0-.06.01-.07 0-.01.01 0 .01 0 .01.01.03.04.06.03.02-.01.02-.03.03-.04.05-.02.09-.03.12-.02-.01-.02.02-.06.07-.07s.07 0 .08.02c0-.02.02-.05.05-.08-.01.19.25.19.31.3-.08-.03-.16-.05-.21-.04-.06.01-.17.07-.19.14-.01.06.05.16.11.21-.07.01-.1-.01-.17.01 0 0 0 0-.01 0-.06.01-.07-.1-.14-.07 0 0-.02.01-.02.01-.03 0-.06.03-.06.06.01-.01.02-.02.04-.03v.01c0 .01 0 .02.03.02.02 0 .02-.01.03-.01 0 0 .01 0 .01.01 0 .03-.09-.02-.07.06 0 0 .01.02.01.02 0 .02.01.04.05.03-.01-.01-.02-.02-.02-.03h.02c.01 0 .01 0 .01-.01s.01 0 .01.01c0 0-.01.01-.01.02 0 0 0 .02.01.02 0 .03.04.05.07.03-.01 0-.04-.01-.04-.02.01 0 .02-.01.02-.01s.01-.02.01-.02 0-.01.01-.01h.02c.01 0 .01 0 .01.01.01.01.03.03.05.02s.02-.01.02-.02c.01.01.02.01.03.02-.01-.03.01-.05.07-.01l.04-.03s.06.02.08 0c.04-.03.02-.03.02-.06-.03-.06-.04-.05-.05-.11-.02-.1.11-.15.19-.13.02.06.1.22.24.27.09.03.12-.07.15-.05.01 0 .01.01.02.03 0 .04 0 .08-.01.1s-.06 0-.09 0c-.02 0-.03.01-.03.01-.03 0-.06.03-.06.06.01-.01.03-.02.05-.03v.01c0 .04.05.05.07.02h.01c-.02.02-.06.05-.03.07 0 0 .01.01.02.01 0 .03.01.05.03.05-.01-.01-.01-.02 0-.05h.02c.02 0 .01-.05.04-.06 0 0 .01 0 0 0-.01.03-.01.06.01.07h.02c.01.02.03.04.07.02-.01 0-.03-.01-.03-.02.01-.01.02-.02.02-.02.02-.06-.03-.06-.03-.08 0-.03.06-.01.06-.07v-.01c.03-.01.06-.03.06-.05-.02-.04-.06-.05-.06-.06zm-2.84 1.71c.02-.15 0-.19-.08-.19-.09 0-.27.09-.49.18l.46.67c.03-.18.05-.34.07-.43 0-.02 0-.03.01-.04h-.03c-.06 0-.11-.04-.1-.11 0-.07.07-.09.12-.09zm-.18 1.17c.02-.11.04-.22.05-.34l-.55-.79c-.07.03-.15.05-.24.07zm-.07.47c.01-.09.03-.19.05-.31l-.83-1.2c-.05.01-.11.01-.16.01-.03 0-.06 0-.1 0zm-1.18-1.49c-.08.86.53 1.41 1.14 1.65zm1.7-.13c.05 0 .1.04.1.1 0 .07-.06.09-.12.09h-.04l-.04 1.66.05.01-.01.15c-.01.05-.07.06-.12.05.03.26-.19.32-.29.32-.11 0-.21-.08-.21-.21 0-.11.1-.15.16-.15s.1.03.09.08c-.01.04-.12.01-.12.07 0 .04.04.07.09.07.08 0 .13-.04.13-.14 0-.15-.14-.17-.28-.14-.94-.28-1.47-1.2-1.4-1.92-.02-.01-.04-.02-.06-.03l.06-.14c-.02.03-.05.04-.09.04-.07 0-.12-.05-.12-.12 0-.06.05-.12.12-.12.06 0 .12.05.12.12v.01l.06-.14c.15.09.39.19.59.19.47 0 .81-.23.99-.23.2 0 .31.14.3.32v.05zm-.83-3.49c-.01.01-.01.04.01.05s.04-.01.04-.02.01-.02 0-.03-.01-.02 0-.03.02-.01.03 0c-.01-.01-.01-.02 0-.02s.01.02.02.02 0-.01 0-.02 0-.01-.01-.01l-.06-.03c-.01 0-.01-.01-.02 0 0 0-.01.01-.01.01 0 .01.02-.01.03 0s0 .01-.01.01c.01.01.03.02.02.03 0 .01-.01.02-.02.01-.01 0-.02.01-.02.03zm.06-.15c-.01 0-.05-.02-.06-.04.02.03 0 .03.02.05.01.02.04 0 .04-.01zm.05.02c0 .02 0 .05.03.05.02 0 .01-.01.05-.02-.03-.01-.07-.02-.08-.03zm.52.29c-.01 0-.01.01 0 0 .11.02.14.05.19.04.03-.01.04.02.04.02 0 .03.04.01.05 0 0 .03-.01.04-.01.05v.01c.01.02 0 .05.03.04-.01.02-.02.01-.03.01.01.01.02.02.02.03 0 .05-.05.03-.05.06 0 .02.04.02.03.07 0 0-.01.01-.01.02s.02.02.02.02c-.03.01-.05 0-.05-.01-.01 0-.01 0-.02 0-.02-.01-.02-.03-.01-.05-.02.01-.01.05-.03.05h-.01c-.01.02-.01.03 0 .04-.02 0-.03-.02-.03-.04-.01 0-.01-.01-.01-.01-.03-.01.01-.04.02-.05 0 0 0-.01-.01 0-.02.02-.05.01-.06-.02v-.04c-.02 0-.03.01-.04.02 0-.02.02-.04.05-.05 0 0 .01-.01.03-.01.03 0 .06.02.07 0s0-.02 0-.07c0-.01-.01-.02-.02-.02s-.06-.02-.1.01c-.04.02.04.04-.04.04-.05 0-.08-.01-.12-.03.02.03 0 .05.02.06.03.02.04.08.03.09s-.05.02-.09.01c-.01 0-.02 0-.02 0-.03.01 0 .04-.04.06-.02.01-.04 0-.05-.02 0 0 0 0-.01 0h-.01s0 0-.01 0c0 .01 0 .02-.01.02 0 0-.01 0-.01.01s.02.01.03.02c-.03.02-.07 0-.06-.02 0 0-.01-.02-.01-.02 0-.01 0-.01 0-.01s0 0-.01 0c0 .01-.01.01-.01.01s-.01 0-.02 0c0 .01.01.02.02.02-.03.01-.05-.01-.05-.03 0 0-.01-.02-.01-.02-.01-.06.06-.03.06-.05 0 0 0-.01-.01-.01s-.01 0-.02 0c-.02 0-.02-.01-.02-.02v-.01c-.02 0-.03.01-.04.02-.01-.02.03-.05.05-.05 0 0 .01-.01.02-.01.06-.02.06.1.12.06.01 0 .03-.01.05-.01 0 0 .01 0 0-.01s-.05-.02-.06-.03c-.04-.01-.04-.08-.02-.11-.02.01-.05.03-.07.03-.24-.01-.05.07-.17.09-.02.01-.08.07-.13.06.01-.01 0-.03 0-.04-.01.02-.04.03-.06.03-.02.01-.03.02-.03.03 0 .03-.05.05-.06.05.01-.01.02-.02.02-.03 0 0 0-.01-.01 0-.05.03-.1 0-.1.08-.02-.02-.01-.05-.02-.05 0 0-.01.01-.01.02-.01-.01-.01-.02 0-.03-.03.01-.05.01-.07 0 0-.01-.01-.01-.01-.02-.01.04-.04.05-.05.06.02-.02.02-.04.01-.06 0 .01-.02.02-.02.02 0-.02 0-.03-.02-.04 0 .02-.01.04-.04.05-.03 0-.04-.03-.04-.04 0 0 0-.01-.01 0s0 .04-.03.06c0 0-.01 0-.02 0 0 .02.01.04.02.05-.02 0-.05-.02-.05-.05-.01 0-.01-.01-.01-.01-.03-.02.01-.04.02-.07-.06.04-.07.02-.07-.01 0 0 0-.01-.01-.02-.02 0-.03.02-.03.02-.02-.03.02-.06.05-.06h.01c.01 0 .01-.01.02-.01.03-.02.03.01.05.03.01.01.02.01.03 0v-.01c-.05-.02-.06-.04-.05-.05 0 0 .01-.01.01-.02-.04-.03-.05-.03-.06-.03.01-.01.04-.01.06.01h.02c.01 0 .02.01.03.02.01.02.01.03.02.04.03.04.11 0 .15-.01.02-.01.1 0 .11 0 0 0 .09-.02.14-.04-.03-.04-.05-.08-.06-.08s-.01.01-.01.02c-.02 0-.02-.02-.02-.03v-.01c-.01 0-.01.01-.01.01-.01 0-.01-.01-.02-.02 0 0 0 0-.01 0-.06.03-.12-.02-.07-.07-.01.05.06.06.07.01v-.01c-.04-.01-.04-.03 0-.06 0 0 0 0 0-.01-.01 0-.01-.01-.01-.01h-.01c-.02.01-.02.01-.03.01 0 0-.01 0-.01-.01h-.01c-.01 0-.01.02-.01.03-.03-.02-.02-.04 0-.05 0-.01 0-.02 0-.02 0-.02.03-.03.07-.02v-.01s0 0-.01 0c-.03 0-.04-.01-.04-.03 0 0 .01-.02.01-.02 0-.01-.01-.01-.02-.01.04-.03.06-.01.06.01h.02c.02 0 .03.03.03.06 0 0 0 .01 0 0s0-.01 0-.01 0 0 0-.01c-.01-.01 0-.02 0-.03 0 0 .01-.01.02-.01 0-.02-.01-.02-.01-.03.02 0 .04.01.05.03v.03c0 .03-.02.06-.03.09-.01.04-.01.05.03.07.02.01.04.03.05.04 0-.03.01-.09.03-.14 0 0-.01-.01-.02-.02.02 0 .03-.04.05-.07-.01 0-.01-.01-.02-.02.02.01.05-.05.07-.05-.01-.03 0-.05.01-.07.02 0 .03.01.04.02 0-.02.02-.02.03-.01 0 0 .03-.01.03 0 .01 0 .03 0 .05.02.03.01.05.03.06.04s.01.03.01.03c.01.01.02.02.01.03.02 0 .03.01.05.02 0 .02-.02.04-.04.05.03.04-.05.11-.05.15.24-.06.33.03.46.03.17 0 .28-.04.28-.1 0-.17-.62-.01-.62-.24 0-.04.02-.07.06-.09 0-.01 0-.03.01-.04.07-.08.19-.09.24-.16 0 .03-.02.1-.08.13.11-.01.15-.22.42-.18-.22.04-.23.26-.53.28h-.01c-.05-.02-.07 0-.07.02 0 .15.61 0 .61.25 0 .07-.11.14-.33.14zm-1.01 1.18s.01 0 0 0zm-.18-.38c-.01.01-.01.04.01.06.02.01.04-.01.05-.02.01-.02.01-.03 0-.04s-.01-.02-.01-.03c.01-.02.02-.01.04 0-.01-.02-.01-.03 0-.03s.01.03.02.02c.01 0 0-.02.01-.02 0-.01-.01-.01-.01-.02l-.07-.03c-.01 0-.02-.01-.02 0s-.02.01-.01.02c0 .01.02-.01.03 0s0 .02-.02.02c.02.01.03.02.02.04 0 .01-.01.02-.03.02.01-.02 0-.01-.01.01zm.09-.18c-.01 0-.05-.03-.07-.04.02.04 0 .04.02.06.01.02.04 0 .05-.02zm.05.03c0 .02.01.06.03.06.03 0 .01-.02.05-.02-.02-.01-.07-.03-.08-.04zm1.36.19c0 .08-.21.12-.36.12.13.01.17.02.24.02.04-.01.04.02.04.02.01.04.05.02.06 0 0 .03 0 .05-.02.06v.01c.01.02-.01.06.03.05-.01.02-.02.02-.04.02.02.01.02.02.02.03 0 .05-.05.04-.05.06s.05.02.03.08c0 0-.01.02-.02.02 0 .01.02.02.03.02-.03.02-.05 0-.06-.02-.01 0-.02 0-.02 0-.02-.01-.02-.04-.01-.06-.02.01-.01.06-.04.06 0 0-.01 0-.02 0-.01.02-.01.03 0 .04-.02 0-.04-.02-.03-.05-.01 0-.02-.01-.02-.01-.03-.01.01-.05.03-.06 0-.01 0-.01-.01-.01-.02.02-.06.01-.06-.02v-.01c-.02 0-.04.02-.05.02 0-.03.03-.05.05-.06 0 0 .01-.02.03-.01.03 0 .07.02.08 0s0-.03.01-.08c0-.02-.01-.02-.02-.02-.02 0-.07-.02-.12.01s-.07.04-.17.04c-.05 0-.09-.02-.14-.03.02.03 0 .06.02.07.04.02.05.09.04.11s-.06.02-.1.01c-.01 0-.02 0-.03 0-.04.01 0 .05-.05.07-.03.01-.05-.01-.05-.02 0 0 0-.01-.01 0-.01 0-.01 0-.02 0 0 0-.01 0-.01.01s0 .02-.01.03c0 0-.01 0-.02.01 0 .01.03.02.04.02-.04.03-.08 0-.07-.03 0 0-.01-.02-.01-.02 0-.01 0-.01 0-.02 0 0 0 0-.01-.01 0 .01-.01.01-.01.01s-.01 0-.02 0c0 .01.01.02.02.03-.04.01-.06-.01-.05-.03 0 0-.01-.02-.01-.02-.02-.07.07-.03.07-.06 0-.01 0-.01-.01-.01s-.01.01-.03.01-.03-.01-.03-.02v-.02c-.02 0-.04.02-.05.02-.01-.03.03-.06.06-.06 0 0 .02-.01.02-.01.07-.03.07.12.14.07.01 0 .04-.01.06-.01 0 0 .01 0 0-.01-.01-.02-.05-.03-.07-.03-.04-.01-.04-.09-.02-.13-.02.01-.05.04-.07.03-.31-.05-.18.14-.37.12-.01 0-.04 0-.06 0-.02.04-.12.14-.19.13.01-.01.02-.02.03-.03 0-.01 0-.01-.01 0-.06.04-.11 0-.12.1-.02-.02-.01-.06-.02-.06 0 0-.02.01-.02.02-.01-.01-.01-.02 0-.04 0 0 0-.01-.01 0-.04.01-.06.01-.08 0 0-.01-.01-.02-.01-.02-.01.04-.05.06-.06.06.02-.02.02-.05.01-.07-.01.01-.02.02-.03.03 0-.02-.01-.03-.02-.04 0 .02-.01.05-.05.05s-.05-.03-.05-.05c0 0 0-.01-.01 0-.02.01 0 .05-.04.06 0 0-.01 0-.02 0 0 .03.01.05.02.06-.02 0-.06-.03-.05-.07-.01-.01-.01-.01-.02-.01-.03-.02.01-.05.03-.08-.07.04-.08.02-.09-.01 0 0 0-.01-.01-.02-.02 0-.03.02-.04.03-.02-.03.03-.07.05-.06h.01c.01 0 .02-.01.02-.01.03-.02.03.01.06.03.01.01.03.01.03 0 .01 0 0-.01 0-.01-.06-.02-.07-.05-.06-.06 0 0 .01-.01.01-.02-.01-.02-.03-.02-.04-.03.01-.01.05-.01.07.01h.02c.01 0 .02.01.03.03s.01.03.02.05c.03.04.13.01.17-.02.03-.01.14-.01.15-.01s-.03-.05-.02-.09c-.03.03-.05-.02-.1-.04-.05-.03-.07-.08-.09-.08-.01 0-.01.01-.01.02-.02 0-.03-.02-.03-.04v-.01c-.01 0-.02.01-.01.01-.01 0-.02-.01-.02-.02 0 0 0 0-.01 0-.06.04-.14-.02-.09-.09-.01.06.07.07.08.01 0 0 0-.01-.01-.01-.04-.01-.05-.04-.01-.07v-.01s-.01-.01-.01-.01h-.01c-.02.01-.02.01-.03.01 0 0-.01-.01-.01-.01h-.01c-.01 0-.01.02-.01.03-.03-.02-.03-.05-.01-.06 0-.01 0-.02 0-.02 0-.02.02-.05.07-.03h.01v-.01s0-.01-.01-.01c-.03 0-.05-.01-.05-.04 0 0 0-.02.01-.03-.01-.01-.02-.01-.03-.01.03-.04.07-.01.06.02h.02c.02 0 .03.04.04.07 0 0 0 .01 0 0s0-.01 0-.02v-.01c-.01-.01-.01-.03 0-.04 0 0 .01-.01.02-.02 0-.02-.01-.03-.02-.04.02 0 .05.01.06.04 0 .01.01.03.01.03 0 .03-.02.07-.02.11s0 .07.04.09.07.06.09.08l.03.01c-.01 0-.01 0-.02 0 .01 0 .01.01.02.01h.01l.05.02c0-.02 0-.06.01-.08-.01 0-.02-.01-.04-.03.03 0 .04-.05.06-.09-.01 0-.02-.01-.02-.03.02.01.05-.06.08-.06-.01-.03 0-.05.01-.08.02 0 .04.01.05.02 0-.02.02-.02.04-.01 0 0 .03-.01.04-.01s.03 0 .07.02c.03.01.05.03.06.04.01 0 .01.03.01.04.01.01.02.03.01.04.02 0 .04.01.05.02 0 .02-.02.04-.04.06.03.03-.02.1-.05.14.29-.06.77.03.93.03.1 0 .29-.01.29-.07 0-.04-.04-.05-.22-.05s-.77.13-.77-.09c0-.1.12-.1.28-.1.01 0 .01-.01.02-.01.11-.07.3.02.4-.04-.01.04-.05.07-.17.07.21.05.38-.11.58.04-.17-.05-.5.1-.78.02-.02-.01-.04-.01-.05-.02-.12-.01-.21-.01-.21.05 0 .12.49.04.71.04.24-.01.32.04.32.11zm-1.74.93c-.01.01-.01.04.01.05s.04-.01.05-.02.01-.03 0-.03c-.01-.01-.01-.02-.01-.03.01-.01.02-.01.04 0-.01-.02-.01-.03 0-.02.01 0 .01.02.02.02s0-.01 0-.02 0-.01-.01-.02l-.07-.03c-.01 0-.01-.01-.02 0 0 0-.02.01-.01.02 0 .01.02-.01.03 0s0 .01-.01.02c.01.01.03.02.02.03s-.01.02-.03.02c0-.02-.01-.01-.01.01zm.07-.17c-.01 0-.05-.03-.07-.04.02.03 0 .04.02.06.02.01.04 0 .05-.02zm.05.03c0 .02 0 .05.03.05.02 0 .02-.01.05-.02-.02-.01-.07-.03-.08-.03zm1.52.17c0 .08-.22.1-.34.11.12.01.16.02.23.02.04-.01.04.02.04.02 0 .04.04.02.06 0 0 .03 0 .05-.02.06v.01c.01.02-.01.05.03.05-.01.02-.02.01-.04.02.02.01.02.02.02.03 0 .05-.05.04-.05.06s.04.02.03.07c0 0-.01.01-.01.02s.02.02.03.02c-.03.01-.05 0-.06-.02-.01 0-.01 0-.02 0-.02-.01-.02-.04-.01-.06-.02.01-.01.06-.03.06 0 0-.01 0-.02 0-.01.02-.01.03 0 .04-.02 0-.03-.02-.03-.05-.01 0-.02-.01-.02-.01-.03-.01 0-.05.02-.06 0 0 0-.01-.01 0-.02.02-.06.01-.06-.02v-.01c-.02 0-.03.02-.04.02 0-.03.02-.05.05-.05 0 0 .01-.02.03-.01.03 0 .07.02.08 0s-.01-.03 0-.07c0-.02-.01-.02-.02-.02s-.07-.02-.12.01c-.04.03-.07.04-.16.04-.05 0-.09-.02-.13-.03.02.03 0 .06.02.07.04.02.04.08.03.1s-.06.02-.1.01c-.01 0-.02 0-.03 0-.04.01 0 .05-.04.06-.02.01-.05 0-.05-.02 0 0 0-.01-.01 0 0 0-.01 0-.02 0 0 0-.01 0-.01.01s0 .02-.01.03c0 0-.01 0-.02.01 0 .01.03.02.04.02-.04.03-.07 0-.07-.03 0 0-.01-.02-.01-.02 0-.01 0-.01 0-.01s0 0 0-.01c0 .01-.01.01-.01.01h-.02c0 .01.01.02.02.02-.04.01-.05-.01-.05-.03 0-.01-.01-.02-.01-.02-.01-.07.07-.03.07-.06 0 0 0-.01-.01-.01s-.01.01-.03.01-.03-.01-.02-.02v-.01c-.02 0-.03.02-.04.02-.01-.03.03-.06.06-.06 0 0 .01-.01.02-.01.06-.03.07.11.13.07.01-.01.03-.01.06-.01 0 0 .01 0 0-.01s-.05-.03-.07-.03c-.04-.01-.04-.07-.02-.11-.02.02-.02.02-.04.02-.4-.04-.2.15-.54.11-.02-.01-.02.04-.08.04-.01 0-.02 0-.03.01v.03l-.09.04s0 0 .01-.01c-.03.02-.06.03-.08.03.01-.01.02-.02.03-.03 0-.01 0-.01-.01 0-.06.04-.17-.01-.17.08-.02-.02-.01-.06-.02-.06s-.01.01-.02.02c-.01-.01-.01-.02 0-.04-.04.01-.06.01-.07 0 0-.01-.01-.01-.01-.02-.01.04-.05.06-.06.06.02-.02.02-.05.01-.06-.01.01-.02.02-.03.02 0-.02-.01-.03-.02-.04 0 .02-.01.05-.05.05s-.04-.03-.05-.05c0 0 0-.01-.01 0-.02.01 0 .05-.03.06 0 0-.01 0-.02 0 0 .03.01.05.02.06-.02 0-.06-.03-.05-.06-.01-.01-.01-.01-.01-.01-.03-.02.01-.05.03-.07-.06.04-.08.02-.08-.01 0 0 0-.01 0-.02-.02 0-.03.02-.03.03-.02-.03.02-.07.05-.06h.01c.01 0 .02-.01.02-.01.03-.02.03.01.05.03.01.01.03.01.03 0v-.01c-.06-.02-.06-.04-.06-.05 0 0 .01-.01.01-.02-.01-.02-.03-.02-.04-.02.01-.01.05-.01.07.01h.02c.01 0 .02.01.03.03s.01.03.02.05c.03.04.12.01.16-.02.03-.01.16-.01.17-.01s-.02-.05-.02-.09c-.01-.01-.02-.01-.02-.02-.01.02-.03.02-.05.02-.08-.05-.13-.13-.14-.13s-.01.01-.01.02c-.02 0-.03-.02-.03-.04v-.01c-.01 0-.01.01-.01.01-.01 0-.02-.01-.02-.02 0 0 0 0-.01 0-.06.03-.13-.02-.09-.08 0 .06.07.07.08.01v-.01c-.04-.01-.05-.04-.02-.07 0 0 0 0 0-.01 0 0-.01-.01-.01-.01h-.01c-.01.01-.02.01-.03.01 0 0-.01-.01-.01-.01-.01 0-.01.02-.01.03-.03-.02-.03-.04-.01-.06v-.02c0-.02.02-.04.07-.02 0 0 .01 0 0 0v-.01s0 0-.01 0c-.03 0-.05-.01-.05-.04 0 0 0-.02.01-.03 0-.01-.02-.01-.02-.01.03-.03.06-.01.06.02v.01h.02c.02 0 .04.04.04.07 0 0 0 .01 0 0s0-.01 0-.02v-.01c-.01-.01-.01-.03 0-.04 0 0 .01-.01.02-.02 0-.02-.01-.03-.02-.04.02-.01.05.01.05.04 0 .01.01.03.01.03 0 .03-.02.07-.02.1 0 .04 0 .06.04.09.06.03.08.09.11.09.01 0 .02 0 .04.01h.03l.02.01c0-.02 0-.04.01-.06-.01 0-.01-.01-.02-.02.02 0 .03-.05.05-.08-.01 0-.01-.01-.02-.03.02.01.05-.06.07-.06-.01-.03 0-.05.01-.07.02 0 .04.01.05.02 0-.02.02-.02.04-.01 0 0 .03-.01.04-.01s.03 0 .06.02c.03.01.05.03.06.04 0 .01.01.03.01.04.01.01.02.02.01.04.02 0 .03.01.05.02 0 .02-.02.04-.04.05.03.04-.04.11-.05.15.27-.08.95.01 1.11.01.1 0 .27-.01.27-.06 0-.03-.04-.05-.21-.05-.18 0-.9.12-.9-.09 0-.12.24-.09.44-.09 0-.01.01-.01.02-.01.11-.07.37.03.46-.03-.01.03-.13.06-.25.06.2.04.4-.11.55.03-.19-.07-.47.12-.74.04-.02-.01-.04-.02-.05-.03-.16 0-.37-.03-.37.04 0 .12.64.04.85.04.17-.08.24-.04.24.03zm1.33 1.36c-.01.01-.01.04.01.05s.04-.01.05-.02c0-.02.01-.03 0-.03-.01-.01-.01-.02 0-.03.01-.02.02-.01.04 0-.01-.02-.01-.03 0-.02.01 0 .01.02.02.02s0-.02 0-.02c0-.01-.01-.01-.01-.02l-.07-.03c-.01 0-.01 0-.02 0 0 .01-.02.01-.01.02 0 .01.02-.01.03 0s0 .01-.01.02c.01.01.03.02.02.03 0 .02-.01.02-.03.02-.01-.02-.01-.01-.02.01zm.08-.17c-.01 0-.05-.03-.07-.04.02.03 0 .04.02.06.02.01.04 0 .05-.02zm.05.03c0 .02 0 .05.03.05.02 0 .01-.01.05-.02-.02-.01-.07-.03-.08-.03zm1.5.38c0 .02-.01.05.03.05-.01.02-.02.02-.04.02.02.01.02.02.02.03 0 .05-.05.04-.05.06s.04.02.02.07c0 0-.01.01-.02.02 0 .01.02.02.02.02-.03.01-.05 0-.06-.02-.01 0-.01 0-.02 0-.02-.01-.01-.04 0-.06-.03.01-.02.06-.04.06h-.02c-.01.02-.01.03-.01.04-.02 0-.03-.02-.03-.05-.01 0-.01-.01-.01-.01-.03-.01.01-.04.03-.06 0 0 0-.01-.01 0-.02.02-.06.01-.06-.02v-.01c-.02 0-.04.02-.05.02 0-.03.03-.05.05-.05 0 0 .02-.01.03-.01.03 0 .07.02.08 0s0-.03.01-.08c0-.02 0-.02-.02-.02s-.07-.02-.12.01-.08.04-.17.04c-.05 0-.09-.02-.13-.03.02.03 0 .06.02.07.04.02.04.08.03.1s-.06.02-.09.01c-.01 0-.02 0-.03 0-.04.01 0 .05-.04.06-.02.01-.04-.01-.05-.02 0 0 0-.01-.01 0-.01 0-.01 0-.02 0 0 0-.01 0-.01.01s0 .02-.01.02c0 0-.01 0-.02.01 0 .01.03.02.04.02-.04.03-.07 0-.07-.03 0 0-.01-.02-.01-.02 0-.01 0-.01 0-.01s0 0-.01-.01c0 .01-.01.01-.01.01s-.01 0-.02 0c0 .01.01.02.02.03-.04.01-.05-.01-.05-.03 0 0-.01-.02-.01-.02-.01-.07.07-.03.07-.05 0-.01 0-.01-.01-.01s-.01.01-.02.01c-.02 0-.03-.01-.03-.02v-.01c-.02 0-.03.02-.04.02-.01-.03.03-.06.06-.06 0 0 .01-.01.02-.02.07-.02.07.11.13.07.01 0 .03-.01.06-.01 0 0 .01 0 0-.01s-.05-.03-.07-.03c-.04-.01-.04-.09-.02-.13-.02.02-.03.04-.05.04-.4-.04-.2.15-.54.11-.02 0-.02.05-.07.04-.03.01-.06.01-.06.02 0 .03-.08.09-.11.07.01-.01.02-.02.03-.03 0-.01 0-.01-.01 0-.06.04-.11 0-.12.09-.02-.02-.01-.06-.02-.06 0 0-.01.02-.01.02-.01-.01-.01-.02 0-.04-.04.01-.06.01-.07 0 0-.01-.01-.01-.01-.02-.01.04-.05.06-.06.06.02-.02.02-.05.02-.06-.01.01-.02.02-.03.03 0-.02 0-.03-.02-.04 0 .02-.01.05-.05.05s-.04-.03-.05-.05c0 0 0-.01-.01 0-.02.01 0 .05-.03.06 0 0-.01 0-.02-.01 0 .03.01.04.02.05-.02 0-.06-.03-.05-.06 0 0 0 0 0-.01 0 0-.01-.01-.01-.01-.03-.02.01-.05.02-.07-.06.04-.08.02-.08-.01 0 0 0-.01-.01-.02-.02 0-.03.02-.03.03-.02-.03.02-.07.05-.06h.01c.01 0 .02-.01.02-.01.03-.02.03.01.06.03.01.01.02.01.03 0v-.01c-.06-.02-.06-.04-.06-.05 0 0 .01-.01.01-.02-.01-.02-.03-.02-.04-.02.01-.01.05-.01.06.01h.02c.01 0 .02.01.03.03s.01.03.02.05c.03.04.12 0 .16-.02.03-.01.11 0 .12 0s-.04-.04-.03-.08l-.01.01c-.02-.01-.03-.02-.03-.04-.02.01-.05.02-.05.03-.09-.05-.12-.13-.14-.13-.01 0-.01.01-.01.02-.02 0-.03-.02-.03-.04v-.01c-.01 0-.01.01-.01.01-.01 0-.02-.01-.02-.02 0 0 0 0-.01 0-.06.03-.13-.02-.09-.08 0 .06.07.07.08.01 0 0 0-.01-.01-.01-.04-.01-.05-.04-.02-.07v-.01c-.01 0-.01-.01-.01-.01-.01 0-.01 0-.01 0-.02.01-.02.01-.03.01 0 0-.01-.01-.01-.01s0 0-.01 0-.01.02-.01.03c-.03-.02-.03-.04-.01-.06v-.02c0-.02.02-.04.07-.02 0 0 .01 0 0 0v-.01s0-.01-.01-.01c-.03 0-.05-.01-.05-.04 0 0 0-.02.01-.03 0-.01-.02-.01-.03-.01.03-.03.06-.01.06.02h.02c.02 0 .04.04.05.07 0 0 0 .01 0 0s0-.01 0-.02c0 0 0 0 0-.01-.01-.01-.01-.03 0-.04 0 0 .01-.01.02-.02 0-.02-.01-.03-.02-.04.02 0 .05.01.05.04 0 .01.01.03.01.03 0 .03-.01.06-.01.1s0 .06.04.09c.06.03.08.08.11.09.01 0 .02 0 .03.01h.03l.04.01c0-.02 0-.04.01-.06-.01 0-.02-.01-.04-.03.02 0 .03-.05.05-.08-.01 0-.01-.01-.02-.03.02.01.05-.06.07-.06-.01-.03 0-.05.01-.07.02 0 .04.01.05.02 0-.02.02-.02.03-.02 0 0 .03-.01.04 0 .01 0 .03 0 .06.02s.05.03.06.04c.01 0 .01.03.01.04.04 0 .05.01.04.02.02 0 .04.01.05.02 0 .02-.02.04-.04.05.03.04-.04.11-.05.15.27-.08.95.01 1.11.01.1 0 .27-.01.27-.06 0-.03-.04-.05-.21-.05s-.9.12-.9-.09c0-.12.24-.09.44-.09 0 0 .01-.01.02-.01.11-.07.37.03.46-.03-.01.03-.13.06-.25.06.2.04.33-.09.55-.01-.16-.05-.47.15-.73.08-.02-.01-.04-.02-.05-.03-.16 0-.37-.04-.37.04 0 .12.64.04.84.04.21 0 .28.04.28.1 0 .08-.22.09-.34.1-.01 0-.01.01 0 .01.12.01.18.02.24.02.04-.01.04.02.04.02 0 .04.05.02.06 0-.01.03-.02.05-.03.06-.01 0-.01 0 0 0zm-1.51.59c.02 0 .01-.01.05-.02-.02-.01-.07-.02-.08-.03 0 .02.01.05.03.05zm-.03.05c.01 0 0-.01 0-.02s0-.01-.01-.02l-.06-.03c-.01 0-.01 0-.02 0s-.01.01-.01.02.02-.01.03 0 0 .01-.01.02c.01.01.03.02.02.03 0 .01-.01.02-.03.02-.01 0-.01.01-.02.02s-.01.04.01.05.04-.01.05-.02c0-.01.01-.02 0-.03s-.01-.02-.01-.03c.01-.02.02-.01.04 0-.01-.01-.01-.02 0-.02.01-.01.01.01.02.01zm-.04-.12c-.01 0-.05-.03-.07-.04.02.03 0 .04.02.05.02.02.04 0 .05-.01zm.64.01c-.1-.01-.19-.01-.19.04 0 .11.45.04.64.04.2 0 .21.04.21.1 0 .07-.23.09-.35.1-.01 0-.01.01 0 .01.11.01.2.02.26.02.04-.01.03.02.03.02 0 .03.04.01.06 0 0 .03-.01.04-.03.05v.01c0 .02-.02.05.02.05-.01.02-.02.02-.04.02.01.01.01.02.01.03-.01.05-.06.03-.06.06 0 .02.04.02.01.07 0 0-.01.01-.02.02 0 .01.01.02.02.02-.03.01-.05 0-.05-.02-.01 0-.01 0-.01 0-.02-.01-.01-.03.01-.06-.03.01-.03.05-.05.05 0 0-.01 0-.02 0-.01.02-.02.03-.01.04-.01 0-.02-.02-.02-.04-.01 0-.01-.01-.02-.01-.02-.01.02-.04.04-.06.01 0 0-.01-.01 0-.02.02-.06.01-.05-.02v-.01c-.02 0-.04.02-.05.02 0-.02.04-.05.06-.05 0 0 .02-.01.03-.01.03 0 .06.02.08 0 .01-.02 0-.02.02-.07.01-.01 0-.02-.01-.02s-.06-.02-.11.01-.09.04-.18.04c-.05 0-.09-.01-.12-.03.02.03 0 .06.02.07.04.02.04.08.03.1-.01.01-.06.02-.09.01-.01 0-.02 0-.03 0-.03 0 0 .04-.04.06-.02.01-.04 0-.05-.02 0 0 0-.01-.01 0 0 0-.01 0-.02 0 0 0-.01 0-.01.01s0 .02-.01.02c0 0-.01 0-.02.01 0 .01.02.02.03.02-.04.02-.07 0-.07-.03 0 0-.01-.02-.01-.02v-.01s0-.01-.01-.01c0 .01 0 .01-.01.01 0 0-.01 0-.02 0 0 .01.01.02.02.02-.03.01-.05-.01-.05-.03 0 0-.01-.02-.01-.02-.01-.06.06-.03.06-.05 0-.01 0-.01-.01-.01s-.01.01-.02.01c-.02 0-.03-.01-.02-.02v-.01c-.02 0-.03.01-.04.02-.01-.03.03-.06.05-.06 0 0 .01-.01.02-.01.06-.02.07.1.12.06.01-.01.03-.01.05-.01 0 0 .01 0 0-.01s-.05-.02-.07-.03c-.04-.01-.04-.08-.02-.12-.02.01-.05.03-.07.03-.28-.05-.15.11-.32.1-.02 0-.02.04-.07.04.01-.01.01-.02.01-.03 0 .01-.01.01-.02.02-.02.04-.08.13-.14.09.01-.01.02-.02.02-.03-.06.04-.13.01-.13.1-.02-.02-.01-.06-.02-.06 0 0-.01.01-.01.02-.01-.01-.01-.02 0-.04-.03.01-.06 0-.07 0s-.01-.01-.01-.02c-.01.04-.04.06-.06.06.02-.02.02-.04.01-.06-.01.01-.02.02-.02.03 0-.02 0-.03-.02-.04 0 .02-.01.05-.05.05s-.04-.03-.04-.04c0 0 0-.01-.01 0-.02.01 0 .05-.03.06 0 0-.01 0-.02 0 0 .02.01.04.02.05-.02 0-.06-.02-.05-.06 0 0 0 0 0-.01-.01 0-.01-.01-.01-.01-.03-.02.01-.04.02-.07 0 0 0-.01-.01 0-.06.04-.07.02-.08-.01 0 0 0-.01 0-.02-.02 0-.03.02-.03.03-.02-.03.02-.06.05-.06h.01c.01 0 .02-.01.02-.01.03-.02.03.01.05.03.01.01.02.01.03 0v-.01c-.06-.02-.06-.04-.05-.05 0 0 0-.01.01-.02-.01-.02-.02-.02-.04-.02.01-.01.05-.01.06.01h.02c.01 0 .02.01.03.02.01.02.01.03.02.05.03.04.12 0 .15-.02.03-.01.1-.01.11-.01s0-.06 0-.1l-.05.01c-.01-.01-.02-.01-.03-.03-.07-.04-.07-.01-.08-.01s-.01.01-.01.02c-.02 0-.03-.02-.03-.04v-.01c-.01 0-.01.01-.01.01-.01 0-.02-.01-.02-.02-.06.03-.13-.02-.09-.08 0 .06.07.07.07.01 0-.01 0-.01-.01-.01-.04 0-.04-.04-.01-.06v-.01s-.01-.01-.01-.01h-.01c-.01.01-.02.01-.03.01 0 0-.01-.01-.01-.01s0 0-.01 0-.01.02-.01.03c-.03-.02-.02-.04-.01-.05 0-.01 0-.02 0-.02 0-.02.02-.04.06-.02 0 0 .01 0 0 0v-.01s0 0-.01 0c-.03 0-.05-.01-.05-.04 0 0 0-.02.01-.03 0-.01-.02-.01-.02-.01.03-.03.06-.01.06.02h.02c.02 0 .03.04.04.06 0 0 0 .01.01 0 0-.01 0-.01 0-.02v-.01c-.01-.01-.01-.02 0-.03 0 0 .01-.01.01-.02 0-.02-.01-.03-.02-.03.02-.01.05.01.05.03 0 .01.01.03.01.03 0 .03-.01.06-.01.1s0 .06.04.08c.05.03.07.03.1.03h.01l.02.01c0-.02.01-.05.01-.07 0 0-.01-.01-.02-.02.02 0 .03-.04.05-.08-.01 0-.01-.01-.02-.03.02.01.05-.05.07-.06-.01-.03 0-.05.01-.07.02 0 .03.01.05.02 0-.02.02-.02.03-.02 0 0 .03-.01.04 0 .01 0 .03 0 .06.02.03.01.05.03.06.04.01 0 .01.03.01.03.01.01.02.02.01.04.02 0 .03.01.05.02 0 .02-.02.04-.04.05.03.03-.02.09-.04.13.26-.05.7.02.84.02.09 0 .28-.01.28-.06 0-.03.02-.05-.15-.05s-.69.12-.69-.08c0-.09.11-.09.25-.09 0 0 .01-.01.02-.01.1-.06.35.03.44-.03 0 .03-.12.06-.24.06.19.04.32-.08.52-.01-.15-.04-.44.15-.7.07.03-.02.02-.04.01-.05zm-.8 1.07c-.01.01-.01.03.01.05.02.01.04-.01.04-.02s.01-.02 0-.03-.01-.02-.01-.03c.01-.01.02-.01.03 0-.01-.01-.01-.02 0-.02s.01.02.02.02 0-.01 0-.02 0-.01-.01-.02l-.06-.03c-.01 0-.01 0-.02 0 0 0-.01.01-.01.02 0 0 .02-.01.02 0 .01.01 0 .01-.01.02.01.01.03.01.02.03 0 .01-.01.01-.02.01.01 0 .01.01 0 .02zm.07-.15c-.01 0-.05-.02-.07-.04.02.03 0 .04.02.05.02.02.04.01.05-.01zm.05.02c0 .02 0 .05.03.05.02 0 .01-.01.05-.02-.03 0-.08-.02-.08-.03zm.47-.02c-.05.02-.09.04-.09.07 0 .11.66-.05.66.1 0 .07-.14.13-.36.13-.01 0-.04 0-.06 0 0 .05.07.05.11.1.02.02.01.05-.03.06-.03.01.02.04.04.04-.02.02-.03.03-.05.02h-.01c-.01.02-.04.03-.01.05-.02.01-.02 0-.03-.01.01.01 0 .03-.01.03-.03.03-.05-.01-.07.01-.02.01.01.04-.03.06h-.02v.03c-.03-.01-.03-.03-.03-.05 0 0-.01-.01-.01-.02-.01-.02.01-.03.03-.04-.02-.01-.05.03-.06.01 0 0-.01-.01-.01-.01-.02.01-.02.01-.03.02-.01-.01 0-.04.01-.05 0-.01 0-.01 0-.02-.01-.03.03-.02.05-.02-.01-.01-.01-.01-.01-.02v-.01c-.02-.01-.03 0-.04 0 .01-.02.04-.03.06-.02 0 0 .02-.01.03 0s.03.03.04.04c.02-.01.01-.02.05-.04.01-.01.01-.02 0-.03s-.06-.04-.1-.05c-.02.03-.17.01-.21 0 .1.06.05.18.07.19.03.02.04.08.03.09-.01.02-.03.01-.06 0-.01 0-.02 0-.02 0-.03.01 0 .04-.04.06-.01.03-.03.02-.03 0 0 0 0-.01-.01-.01h-.02v.01c0 .01 0 .02-.01.02 0 0-.01 0-.02.01 0 .01.02.01.03.02-.03.02-.07 0-.06-.02v-.02c0-.01 0-.01 0-.01s0 0-.01 0c0 .01-.01.01-.01.01s-.01 0-.02 0c0 .01.01.02.02.02-.03.01-.05-.01-.05-.03 0 0-.01-.02-.01-.02-.01-.06.06-.03.06-.05 0 0 0-.01-.01-.01s-.01 0-.02 0c-.02 0-.02-.01-.02-.02v-.01c-.02 0-.03.01-.04.02-.01-.03.03-.05.05-.05 0 0 .01-.01.02-.01.06-.02.06.1.12.06.01-.01.03-.01.05-.01 0 0 .01 0 0-.01s-.06-.05-.06-.09c0-.03.01-.08.02-.1-.07 0-.1.05-.17.06-.01 0-.02 0-.02 0-.01.1-.05.13-.05.14 0 .03-.06.06-.08.06.01-.01.02-.02.02-.03s0-.01-.01 0c-.05.03-.1 0-.1.08-.02-.02-.01-.05-.02-.05 0 0-.01.01-.01.02-.01-.01-.01-.02 0-.03 0 0 0-.01-.01 0-.03.01-.05.01-.06 0 0-.01 0-.01-.01-.02-.01.04-.04.05-.05.05.02-.02.02-.04.01-.06-.01.01-.02.02-.02.02 0-.02-.01-.03-.02-.03 0 .02-.01.04-.04.05-.03 0-.04-.03-.04-.04 0 0 0-.01-.01 0-.02.01 0 .04-.03.05 0 0-.01 0-.02 0 0 .02.01.04.02.05-.02 0-.05-.02-.05-.05 0 0 0 0 0-.01-.01 0-.01-.01-.01-.01-.03-.02.01-.04.02-.07 0 0 0-.01-.01 0-.06.04-.07.02-.07-.01 0 0 0-.01-.01-.02-.02 0-.03.02-.03.03-.02-.03.02-.06.04-.06h.01c.01 0 .02-.01.02-.01.03-.01.03.01.05.03.01.01.02.01.03 0v-.01c-.05-.02-.06-.04-.05-.05 0 0 0-.01.01-.02-.01-.02-.02-.02-.03-.02.01-.01.05-.01.06.01h.02c.01 0 .02.01.03.02.01.02.01.03.02.04.01.02.04.02.06.01v.01-.01c.03 0 .07-.02.08-.03.02-.01.12 0 .13 0s-.01-.03-.03-.06c-.04 0-.08-.02-.09-.07-.08-.04-.06-.13-.07-.13s-.01.01-.01.02c-.02 0-.02-.02-.02-.04v-.01c-.01 0-.01.01-.01.01-.01 0-.02-.01-.02-.02-.05.03-.12-.02-.08-.08 0 .05.07.06.07.01 0 0 0-.01-.01-.01-.04-.01-.04-.03-.01-.06 0 0 0 0 0-.01 0 0-.01-.01-.01-.01s0 0-.01 0c-.02.01-.02.01-.03.01 0 0-.01-.01-.01-.01s0 0-.01 0-.01.02-.01.03c-.03-.02-.02-.04-.01-.05v-.02c0-.02.02-.04.06-.02v-.01s0 0-.01 0c-.03 0-.04-.01-.04-.03v-.02c0-.01-.02-.01-.02-.01.03-.03.05-.01.05.01h.02c.02 0 .03.03.04.06 0 0 0 .01 0 0s0-.01 0-.01v-.01c-.01-.01-.01-.02 0-.03 0 0 .01-.01.01-.02 0-.02-.01-.03-.02-.03.02 0 .04.01.05.03 0 .01.01.03.01.03 0 .03-.01.06-.01.09 0 .04 0 .06.04.08s.1.12.14.16c-.01-.05 0-.11.01-.16-.01 0-.01-.01-.02-.02.02 0 .03-.04.05-.08-.01 0-.01-.01-.02-.02.02.01.04-.05.07-.05-.01-.03 0-.05.01-.07.02 0 .03.01.04.02 0-.01.02-.01.03-.01 0 0 .03-.01.03-.01.01 0 .03 0 .06.02.03.01.05.03.05.04.01 0 .01.03.01.03.01.01.02.02.01.03.01 0 .03.01.04.02 0 .02-.01.04-.04.05.03.03-.03.1-.05.15.28-.07.51.01.64.01.17 0 .3-.04.3-.09 0-.06-.65.08-.65-.09 0-.06.07-.1.14-.12l.02-.02c.1-.06.35.03.44-.02-.01.03-.13.05-.24.05.19.04.32-.08.52-.01-.16-.04-.45.15-.7.08-.04.02-.05 0-.06-.01zm-10.65-11.52c0-.09-.07-.16-.16-.16s-.16.07-.16.16.07.16.16.16.16-.07.16-.16zm-.06-.43c0-.09-.07-.16-.16-.16s-.16.07-.16.16.07.16.16.16.16-.07.16-.16zm.09-.19c.09 0 .16-.07.16-.16s-.07-.16-.16-.16-.16.07-.16.16.08.16.16.16zm.43-.03c.09 0 .16-.07.16-.16s-.07-.16-.16-.16-.16.07-.16.16.07.16.16.16zm1.81-.29c.06.06.16.06.23 0 .06-.06.06-.16 0-.23-.06-.06-.16-.06-.23 0-.06.06-.06.16 0 .23zm-.04-.34c.06-.06.06-.16 0-.23-.06-.06-.16-.06-.23 0-.06.06-.06.16 0 .23.07.06.17.06.23 0zm-.42-.07c.06-.06.06-.16 0-.23-.06-.06-.16-.06-.23 0-.06.06-.06.16 0 .23.07.06.17.06.23 0zm-.36.27c.06-.06.06-.16 0-.23-.06-.06-.16-.06-.23 0-.06.06-.06.16 0 .23.07.06.17.06.23 0zm-1.02-.23.13.28.16-.19c.01 0 .01 0 .02.01.01.09.02.26.02.35 0 .11.09.21.2.21s.2-.09.2-.21c0-.08-.04-.15-.11-.18-.08-.06-.17-.14-.22-.21 0-.01.01-.02.01-.03l.27.02-.1-.28-.2.17h-.01l-.01-.3-.28.11.19.22c-.01.01-.01.01-.01.02zm1.85.5c.06.1.08.14.09.22-.05-.02-.1-.07-.17-.15l.03.37c.04-.07.08-.11.13-.13-.01.24-.11.34-.19.36-.1.02-.18-.05-.19-.12-.02-.11.07-.18.17-.08.02-.22-.16-.22-.24-.13.09-.22.06-.36-.14-.48-.12.2-.07.34.08.49-.15-.08-.28.05-.15.22.03-.14.15-.11.18 0 .02.1-.07.22-.23.27-.23.07-.3-.08-.36-.2.05-.03.17-.02.3.06l-.11-.36c-.05.13-.13.18-.22.22-.01-.11.07-.32.07-.32l-.42.19s.2.1.27.18c-.09.03-.18.05-.31-.01l.18.34c.04-.15.11-.24.17-.25.05.13.1.29-.12.4-.15.08-.3.05-.35-.04-.06-.1.01-.21.13-.13-.02-.21-.2-.21-.26-.05 0-.22-.05-.35-.28-.41-.06.22.02.35.23.44-.12-.01-.25.11-.09.26 0-.14.11-.15.18-.06.04.06.03.16-.05.22-.07.05-.21.04-.39-.12.05-.02.11-.01.19 0l-.23-.29c.01.1.01.18-.01.22-.05-.06-.07-.11-.09-.22l-.18.16c.17.1.37.27.6.6.25-.16.7-.37.97-.49.28-.11.75-.27 1.04-.34-.06-.4-.03-.66.02-.85zm.5 2.12c.18-.14.03-.29.25-.63-.24.15-.59.29-.9.42.14.23.43.39.65.21zm-.05 2.33c.31-.13.28-.43.2-.59s-.15-.3-.24-.3c-.17 0-.27-.04-.32-.2-.06-.19.13-.26.31-.36-.18-.06-.27-.14-.16-.22.12-.09.29.08.34 0 .04-.08-.09-.15-.14-.2-.07-.07-.15-.05-.26-.02l-.83.32c-.1.05-.17.08-.17.19 0 .08-.05.22.04.25.08.03.09-.22.24-.24.13-.02.12.11.03.27.2-.05.39-.13.47.04.07.15.04.25-.09.37-.07.07-.02.21.04.38.03.18.26.44.54.31zm-1.58-1.68c.28-.03.39-.35.33-.61-.31.12-.66.26-.94.32.4.09.39.31.61.29zm4.63 7.43c-.08.21.1.26.1.42 0 .21-.18.31-.38.35.14-.29.02-.45-.22-.49.05.55-.37.63-.55.54.17-.03.24-.3.15-.53-.07.19-.27.33-.45.33-.17 0-.3-.13-.36-.27.2.13.36-.02.36-.12s-.2-.16-.2-.31c0-.37.4-.22.4-.55 0-.13-.07-.19-.16-.19-.08 0-.21.04-.25.26-.2-.18 0-.59-.09-.86.02.43-.27.41-.39.58-.15-.15 0-.45-.14-.8-.05.4-.2.34-.25.57-.4-.2-1.11-.13-1.35.14.68.53 1.48.81 1.48 1.63 0 .63-.98.88-.98 1.28 0 .41 1.02 1.35 1.54 1.35.17 0 .25-.21.39-.22s.26 0 .39.01.23.13.22.24c.24.03.54.39.24.7-.05-.17-.21-.4-.51-.24.12.27.01.54-.34.64.11-.18.13-.42-.08-.42s-.03.14-.42.14-.35.02-.51-.21c-.16-.22-.27-.31-.36-.28s-.13.26.02.34c-.82 0-.48-.86-.91-1.07.02.27.03.47 0 .6-.31-.24-.49-.57-.55-.77-.05-.21-.01-.4-.21-.5-.06-.03-.14-.1-.12-.21.02-.09.07-.06.21-.13.18-.08.4-.25.4-.69 0-.33-.06-.79-.62-1.11.04.7.03 1.3-.29 1.84-.41.69-1.1 1.12-1.49 1.29s-.95.3-.95.82c0 .97.43 1.54.86 1.54.27 0 .21-.32.61-.32.18 0 .37.07.41.2.22-.04.46.08.46.29s-.09.33-.26.36c.13-.27-.2-.34-.3-.28s.03.16.03.32-.05.32-.34.39c.06-.1.06-.24-.11-.24-.18 0-.24.29-.46.29-.36 0-.46-.16-.8-.09-.24.05-.24.19-.15.26-.46.07-.36-.47-.25-.58s.18-.18.03-.28-.38 0-.43.24c-.37-.72.14-.69-.02-1.5-.09.34-.3.6-.45.69.06-.18-.1-.52-.1-.8 0-.62.38-.82.38-1.02 0-.13-.14-.27.01-.4.08-.07.26.07.37.07.49 0 .85-.63.92-1.34.09-.84.42-1.41.77-2.05.01-.1.03-.2.05-.3-.34.43-.64 1.09-1.12 1.47.06.54-.98 1.16-1.58.68.19.01.57-.07.68-.38-.09 0-.17-.02-.25-.05-.36.2-.94-.05-.92-.46.15.17.32.21.49.13-.12-.17-.2-.4-.2-.66 0-1.57 2.43-2.65 2.43-3.93 0-.41-.25-.62-.53-.62-.15 0-.31.04-.49.15.12.11.2.24.2.41 0 1.45-2.31 1.31-2.52 2.26-.11-1.2 1.34-.93 1.47-1.94-.3.44-.82.77-1.12.6.75.01.52-1.55 1.39-1.55.09 0 .19.02.29.06.23-.2.51-.31.75-.31.35 0 .9.26.9.94 0 1.53-2.45 2.52-2.45 3.95 0 .48.28.71.66.71.85 0 1.4-1.54 2.33-2.8.58-.84.97-2.53 1.36-3.33-.45.32-.51 1.2-1.06 1.26.29-.25.08-1.01.27-1.56.07-.2.1-.4.04-.61-.33.36-.19 1.55-.73 1.7.19-.24-.02-.63-.02-1 0-.68.35-.79.38-1.42-.32.13-.21 1.02-.85 1 .45-.45-.01-.93.5-1.44-.31-.14-.51-.38-.51-.63.2-.16.44-.21.65-.23-.1-.15.03-.3.17-.42.05.06.11.19.19.13.13-.09.57-.36.95-.51s.88-.28 1.03-.31c.09-.02.05-.14.04-.23.18-.01.39 0 .42.2.16-.13.38-.2.6-.21.13.27.15.49.04.86.31.02.48.29.77.23-.25.34-.55.2-.84.16.84.26.99 1.09 1.46 1.14-.49.39-.82-.3-1.25-.29 1.11.56 1.12 1.24 1.43 1.25-.34.31-.61-.1-1.06-.2.88.58.94 1.06.87 1.46.19.18.17.41.18.69.15-.1.4-.14.56-.19-.06.06-.12.12-.17.19-.45.5-.76.99-1.01 1.64-.19-.19-.39-.38-.5-.48-.18-.17-.35-.13-.42-.12.29.33 1.24 1.35 1.52 1.67.28.33.25.56.29.81.04.22.35.41.29.58zm15.77 3.96c0 .28.23.51.51.51s.51-.23.51-.51-.23-.51-.51-.51c-.28-.01-.51.22-.51.51zm-.17 0c0-.38.31-.69.69-.69s.69.31.69.69-.31.69-.69.69-.69-.31-.69-.69zm-2.26 1.25c.2.04.38-.05.4-.2 0-.01 0-.02 0-.03 0-.13-.13-.26-.31-.29-.11-.02-.22 0-.31.06-.04.03-.09.07-.1.14-.01.13.13.28.32.32zm-.31-.62c.12-.08.28-.11.44-.09.29.05.5.29.45.53-.02.12-.1.22-.22.29-.11.06-.25.08-.39.05-.14-.02-.26-.09-.35-.19s-.13-.22-.1-.35c.02-.08.08-.17.17-.24zm-3.83-9.3c0 .04.01.08.04.11.08.1.26.09.39-.01.08-.06.13-.15.14-.23 0-.04 0-.09-.04-.14s-.09-.07-.13-.07c-.08-.01-.18.02-.26.08-.08.07-.14.17-.14.26zm.04-.4c.12-.09.26-.13.39-.12.1.01.19.06.24.14.06.07.08.17.07.27-.02.13-.09.26-.21.35-.21.17-.5.16-.64-.02-.13-.17-.06-.45.15-.62zm3.25 9.34c.07 0 .12-.03.16-.07.07-.07.11-.18.11-.29 0-.2-.11-.37-.26-.37-.07 0-.12.04-.16.07-.07.07-.11.17-.11.29s.04.23.1.3c.04.03.09.07.16.07zm-.27-.79c.08-.08.18-.12.28-.12.12 0 .23.07.32.17.08.1.12.24.12.38 0 .16-.06.31-.17.42-.08.08-.18.12-.28.12s-.2-.05-.28-.13c-.1-.1-.15-.25-.15-.41v-.01c0-.16.06-.32.16-.42zm-3.23-4.91c.1.05.22.06.31.03.04-.02.1-.05.13-.11s.02-.13 0-.17c-.03-.09-.11-.18-.21-.23s-.22-.06-.31-.03c-.04.01-.1.05-.13.11-.06.14.03.32.21.4zm-.13-.67c.14-.05.3-.03.44.04.15.07.26.19.31.33.04.11.03.22-.01.31s-.13.16-.23.2c-.14.05-.3.04-.45-.04-.27-.13-.4-.41-.29-.63.04-.1.12-.18.23-.21zm4.98 3.15c.11-.16.1-.36-.02-.45s-.32-.03-.43.13-.1.36.02.45c.13.08.32.03.43-.13zm-.81 1.28c.11-.16.1-.36-.02-.45-.13-.09-.32-.03-.43.13s-.1.36.02.45c.13.09.32.03.43-.13zm.07-5.39c.21-.23.63-.69.63-.69l-.26-.21c.02.1 0 .24-.03.37-.06-.05-.13-.15-.12-.26l-.21.27c.06 0 .2.02.26.09-.19.18-.35.09-.46.02-.18-.12-.26-.22-.21-.31.06-.11.26-.07.28.1.15-.07.18-.19.13-.29-.04-.08-.14-.1-.25-.06.24-.12.36-.33.3-.59-.27.05-.38.2-.45.47-.01-.11-.08-.21-.16-.21-.11-.01-.2.07-.2.24.16-.06.28.11.21.21s-.2.08-.37-.02c-.2-.12-.22-.3-.12-.48.05.05.1.15.09.28l.23-.38c-.05.02-.15.04-.26 0 .06-.07.17-.19.32-.2l-.45-.26c.06.14.02.29-.01.38-.09-.07-.12-.17-.13-.23l-.21.39c.11-.07.22-.08.29-.06-.11.18-.27.25-.48.13-.18-.1-.26-.2-.2-.31s.25-.1.29.08c.14-.08.17-.2.11-.29-.05-.07-.16-.08-.27-.04.19-.19.27-.36.18-.62-.25.08-.37.28-.35.55-.03-.1-.1-.18-.19-.18-.11 0-.2.09-.18.25.16-.07.29.08.22.19-.05.09-.18.07-.37-.03-.11-.06-.27-.15-.21-.41.09.02.18.13.2.18l.13-.32c-.09.06-.21.05-.28.02.1-.09.21-.18.3-.21l-.31-.11s-.18.6-.28.89zm.52 2.19c0 .1.04.21.12.29s.18.14.28.14c.05 0 .11-.01.16-.06s.06-.11.07-.16c0-.1-.04-.21-.12-.29s-.18-.14-.28-.14c-.05 0-.11.01-.16.06-.06.05-.07.11-.07.16zm1.23 5.69c-.01.04-.01.11.03.17.08.12.28.13.45.02.09-.06.16-.16.18-.25.01-.04.01-.11-.03-.17s-.1-.08-.14-.09c-.1-.02-.21.01-.3.07-.1.06-.17.16-.19.25zm-5.86-8.58c.01-.1-.02-.19-.08-.25-.02-.03-.07-.06-.12-.07-.06 0-.11.03-.13.05-.06.06-.1.14-.11.24v.02c0 .16.09.29.2.29.06 0 .1-.03.13-.05.06-.04.1-.13.11-.23zm1.81-3.74c.23-.14.52-.21.85-.24-.2-.06-.35-.23-.51-.23-.34 0-.24.28-.34.47zm5.29 4.68c.05 1.19 1.53.92 1.31 1.8-.03-.59-2.01-.53-2.06-1.75-.01-.25.06-.46.19-.59-.08-.06-.18-.1-.32-.1-.35 0-.85.37-.85.94 0 1.55 2.05 1.75 2.05 3.45 0 .35-.13.67-.39.87.18.02.42-.08.54-.22-.17.65-.85.68-1.06.41-.03 0-.06 0-.09 0-.06 0-.11 0-.16-.01.13.27.34.53.64.49-.6.49-1.34-.17-1.23-.84-.18-.2-.3-.45-.38-.63-.07-.15-.17-.07-.16.1.02.53-.4 1.03-.4 1.42s.4.76.53.76.23-.15.32-.11.08.16.06.44c-.01.19.02.65.05 1.14.04-.13.13-.25.25-.33.14-.09.29-.12.44-.09.11.02.2.08.25.17.04.06.06.14.06.21 0 .03 0 .06-.01.09-.03.14-.12.28-.26.37-.12.08-.25.11-.38.1-.14-.01-.25-.07-.31-.18-.01-.02-.02-.04-.03-.06.01.15.01.3.02.44 0 .36-.09.51-.25.59-.01-.05-.12-.16-.25-.16-.11 0-.19.08-.19.15 0 .16.19.14.19.39s-.56.56-.91.5c.05-.12.13-.52.24-.79-.11.06-.2.23-.29.48-.1.3-.23.29-.36.21.12-.13.38-.74.65-.93.27-.2.41-.27.48-.73s-.01-.74-.02-1.14c-.01-.54-.24-.42-.4-.42-.37 0-1.72-.88-1.72-1.78 0-.09.01-.18.02-.28-.62-.01-.96.17-.96.74 0 .2.02.39.17.51.13.11.19.2-.03.3-.24.11-2.14.9-2.14.9-.24.09-.27-.01-.37-.13s-.21-.17-.33-.09c-.13.08.09.17.09.31 0 .13-.06.46-.93.4l.21-.35c.06-.12.09-.2.04-.21s-.1.08-.17.19l-.25.33c-.14.01-.28-.02-.28-.02.33-.33.52-.51.7-.69s.4-.27.78-.33c.45-.07 1.93-.27 1.93-.75 0-.56-.62-.52-.62-1.26 0-.65.28-1.34 2.04-1.31-.15-.42-.6-.74-1.03-.84-.88-.22-1.14-.83-1.21-1.47-.25-.01-.49-.02-.68-.04-.55-.03-.82-.2-.95-.09-.05.05-.1.12-.02.25s.26.46.41.68c.11.01.28.03.3.17s-.08.16-.11.23c-.02.07.03.13.1.13s.11-.06.1-.11c.07-.06.26-.06.44-.01.14.15.36.41.43.65-.21-.09-.51-.19-.62-.19s-.09.04.01.07c.09.03.33.12.4.2l-.02.24c-.05-.06-.48-.3-.73-.41-.25-.1-.4-.15-.54-.47-.13-.32-.52-1.03-.68-1.3-.11-.19-.07-.26-.02-.32s.1-.14.14-.2c.1-.16.13-.13.29-.11.15.01.5.02.66-.04.04-.01.07-.03.11-.04-.36-.4-.8-.97-.84-1.05-.07-.1-.16-.15-.23-.15s-.14.01-.2.06c-.02.02-.06.04-.09.07-.03-.04-.07-.08-.1-.12-.06-.07-.13-.14-.19-.21.14-.11.26-.2.3-.24.09-.08.14-.14.22-.14h.24c.12 0 .18.03.23.1.13.15.35.31.53.45.02.01.04.03.06.05.01-.02.03-.04.05-.05.08-.07.17-.1.26-.1.09.01.18.05.25.13.09.1.13.24.12.38 0 .05-.01.1-.03.15.14.12.26.23.39.36.06-.49.31-.97.63-1.39l-.05-.03s.03-.09.03-.09c.07-.22.19-.61.24-.79.02-.07.03-.1.03-.1l.04-.12.54.21c.02-.02.03-.03.05-.05.47-.45 1.61-.76 1.61-1.41 0-.16-.05-.36-.22-.49.08.1.09.24.07.38-.02.16-.27.54-.73.54-.25 0-.42-.24-.51-.24-.05 0-.12.04-.19.1.02.34-.12.52-.26.55.05-.14.01-.38-.03-.35s-.09.07-.1.27c-.01.19-.18.45-.44.48.05-.08.14-.4.08-.44-.05-.05-.14.09-.21.09s-.12-.07-.13-.14-.14 0-.17-.07.16-.2.32-.26c.17-.07.42-.18.38-.27-.07-.17-.57.1-.79.23-.33.2-.19-.07-.23-.18-.13-.29-.01-.32.13-.45.19-.17.56-.43.99-.65 0-.14.09-.26.2-.3.18-.07.35-.14.52-.2l-2.31-2.91c-.05-.05-.05-.1-.03-.13s.07-.01.14.07l2.69 2.65c.06-.18.12-.4.06-.64.32.16.61.48.66.79.83-.01 1.05.51 1.3.33.04.13-.1.26-.34.31.95.25.7.95 1.25 1.02-.09.1-.21.14-.41.07.6.88 0 1.45.46 1.86-.17.05-.42-.1-.59-.38.18.72-.09 1.12.04 1.42-.2.06-.35-.12-.42-.41-.04.16-.09.3-.15.44l.22.18-.08.06-.02.02c-.36.39-.53.58-.61.67l-.06.07s-.07-.04-.08-.04c-.23.29-.42.53-.42.81 0 .31.41.88.86 1.47-.02-.06-.03-.12-.03-.18v-.02c0-.11.05-.21.12-.28s.18-.11.29-.11c.14 0 .29.07.4.19s.17.26.17.4v.02c0 .11-.05.21-.12.28s-.18.11-.29.11-.21-.04-.31-.11c.32.42.62.81.76 1.11.29.61.57 1 .92 1 .39 0 .73-.28.73-.75 0-1.58-2.06-1.74-2.06-3.52 0-.83.71-1.23 1.13-1.23.28 0 .47.07.64.25.05-.01.1-.02.16-.02.98 0 .36 1.31 1.12 1.39-.36.17-.81-.06-1.03-.68zm-32.46 46.75h1.31v-56h-1.31z" fill="#25222c"/></svg>