<svg xmlns="http://www.w3.org/2000/svg" width="121" height="56" viewBox="0 0 121 56">
<path fill="#25222C" d="M7.72,27.96h1.49v4.83h5.89v-4.83h1.49V39.2h-1.49v-5.15H9.21v5.15H7.72V27.96z M18.64,39.2h1.41v-9.35h0.03
	l3.49,9.35h1.27l3.49-9.35h0.03v9.35h1.41V27.96h-2.04L24.2,37.4l-3.52-9.44h-2.04V39.2z M45.64,31.34
	c-0.35-2.39-2.27-3.65-4.61-3.65c-3.44,0-5.29,2.66-5.29,5.92c0,3.27,1.69,5.86,5.17,5.86c2.82,0,4.56-1.7,4.84-4.5h-1.49
	c-0.14,1.86-1.27,3.24-3.23,3.24c-2.68,0-3.8-2.14-3.8-4.71c0-2.35,1.13-4.55,3.79-4.55c1.55,0,2.82,0.8,3.13,2.39H45.64z
	 M50.53,30.87c-2.57,0-3.93,1.87-3.93,4.27c0,2.38,1.36,4.25,3.93,4.25c2.57,0,3.93-1.87,3.93-4.25
	C54.46,32.74,53.1,30.87,50.53,30.87z M50.53,38.2c-1.39,0-2.52-1.1-2.52-3.07c0-1.98,1.13-3.09,2.52-3.09
	c1.39,0,2.52,1.1,2.52,3.09C53.05,37.1,51.92,38.2,50.53,38.2z M62.33,31.06H61v4.6c0,1.46-0.78,2.55-2.4,2.55
	c-1.02,0-1.64-0.65-1.64-1.64v-5.51h-1.33v5.35c0,1.75,0.66,2.98,2.79,2.98c1.16,0,2.07-0.47,2.63-1.48h0.03v1.29h1.25V31.06z
	 M63.93,39.2h1.33v-3.62c0-2.06,0.78-3.29,2.93-3.29v-1.42c-1.44-0.05-2.33,0.6-2.98,1.91h-0.03v-1.72h-1.25V39.2z M71.23,28.62
	H69.9v2.44h-1.38v1.18h1.38v5.18c0,1.49,0.55,1.78,1.93,1.78h1.02v-1.18h-0.61c-0.83,0-1-0.11-1-0.72v-5.05h1.61v-1.18h-1.61V28.62z
	 M73.42,36.63c0.08,2.01,1.61,2.75,3.43,2.75c1.65,0,3.45-0.63,3.45-2.57c0-1.57-1.32-2.01-2.65-2.31c-1.24-0.3-2.65-0.46-2.65-1.42
	c0-0.82,0.92-1.04,1.72-1.04c0.88,0,1.79,0.33,1.88,1.37h1.33c-0.11-1.98-1.53-2.55-3.32-2.55c-1.41,0-3.02,0.68-3.02,2.31
	c0,1.56,1.33,2,2.65,2.3c1.33,0.3,2.65,0.47,2.65,1.51c0,1.02-1.13,1.21-1.96,1.21c-1.1,0-2.13-0.38-2.18-1.57H73.42z M93.17,39.2
	h1.74l-2.18-2.53c0.47-0.99,0.64-1.45,0.75-2.77h-1.27c-0.03,0.6-0.16,1.2-0.36,1.75l-2.02-2.47c1.08-0.61,2.1-1.58,2.1-2.91
	c0-1.53-1.32-2.3-2.71-2.3c-1.61,0-2.52,1.09-2.52,2.31c0,1.15,0.61,1.75,1.24,2.65c-1.43,0.76-2.62,1.64-2.62,3.4
	c0,0.91,0.47,3.07,3.49,3.07c1.22,0,2.49-0.53,3.16-1.59L93.17,39.2z M91.24,36.87c-0.55,0.82-1.36,1.34-2.38,1.34
	c-1.08,0-2.13-0.77-2.13-1.9c0-1.34,0.89-1.94,1.94-2.53L91.24,36.87z M90.6,30.33c0,0.95-0.85,1.54-1.49,1.95
	c-0.49-0.61-1.08-1.27-1.08-1.95c0-0.82,0.66-1.2,1.28-1.2C90.11,29.14,90.6,29.69,90.6,30.33z M10.25,55.73h1.49v-9.98h3.73v-1.26
	H6.53v1.26h3.73V55.73z M14.8,55.73h1.33v-3.62c0-2.06,0.78-3.29,2.93-3.29v-1.42c-1.44-0.05-2.33,0.6-2.98,1.9h-0.03v-1.72H14.8
	V55.73z M19.83,46.13h1.33v-1.64h-1.33V46.13z M19.83,55.73h1.33v-8.14h-1.33V55.73z M22.81,55.73h1.33v-1.09h0.03
	c0.6,0.96,1.79,1.28,2.62,1.28c2.47,0,3.7-1.94,3.7-4.23c0-2.3-1.24-4.28-3.73-4.28c-1.11,0-2.15,0.39-2.58,1.29h-0.03v-4.2h-1.33
	V55.73z M26.57,48.59c1.72,0,2.51,1.48,2.51,3.01c0,1.59-0.61,3.15-2.43,3.15c-1.83,0-2.55-1.48-2.55-3.08
	C24.1,50.13,24.79,48.59,26.57,48.59z M38.39,47.59h-1.33v4.6c0,1.46-0.78,2.55-2.4,2.55c-1.02,0-1.64-0.65-1.64-1.64v-5.51h-1.33
	v5.35c0,1.75,0.66,2.98,2.79,2.98c1.16,0,2.07-0.47,2.63-1.48h0.03v1.29h1.25V47.59z M40,55.73h1.33v-4.6c0-1.46,0.78-2.55,2.4-2.55
	c1.02,0,1.64,0.64,1.64,1.64v5.51h1.33v-5.35c0-1.75-0.66-2.97-2.79-2.97c-1.16,0-2.07,0.47-2.63,1.48h-0.03v-1.29H40V55.73z
	 M55.49,54.66c-0.17,0.06-0.3,0.08-0.41,0.08c-0.42,0-0.42-0.28-0.42-0.91v-4.19c0-1.9-1.58-2.24-3.04-2.24
	c-1.8,0-3.35,0.71-3.43,2.72h1.33c0.06-1.2,0.89-1.54,2.02-1.54c0.84,0,1.8,0.19,1.8,1.35c0,1.01-1.25,0.91-2.73,1.2
	c-1.38,0.27-2.74,0.66-2.74,2.5c0,1.62,1.21,2.28,2.68,2.28c1.13,0,2.11-0.39,2.85-1.26c0,0.88,0.44,1.26,1.13,1.26
	c0.42,0,0.72-0.08,0.96-0.22V54.66z M53.33,52.9c0,0.74-0.72,1.84-2.47,1.84c-0.81,0-1.57-0.31-1.57-1.2c0-0.99,0.75-1.31,1.63-1.47
	c0.89-0.16,1.89-0.17,2.41-0.55V52.9z M56.47,55.73h1.33V44.49h-1.33V55.73z M58.97,53.17c0.08,2.01,1.61,2.76,3.43,2.76
	c1.64,0,3.45-0.63,3.45-2.57c0-1.57-1.32-2.01-2.65-2.31c-1.24-0.3-2.65-0.46-2.65-1.42c0-0.82,0.92-1.04,1.72-1.04
	c0.88,0,1.79,0.33,1.88,1.37h1.33c-0.11-1.98-1.53-2.55-3.32-2.55c-1.41,0-3.02,0.68-3.02,2.31c0,1.56,1.33,2,2.65,2.3
	c1.33,0.3,2.65,0.47,2.65,1.51c0,1.02-1.13,1.21-1.96,1.21c-1.1,0-2.13-0.38-2.18-1.57H58.97z M79.45,47.78
	c-0.09-2.47-1.83-3.56-4.12-3.56c-2.04,0-4.06,1.01-4.06,3.29c0,2.06,1.8,2.58,3.59,2.98c1.79,0.39,3.57,0.66,3.57,2.2
	c0,1.62-1.49,2.05-2.83,2.05c-1.69,0-3.26-0.82-3.26-2.71h-1.41c0,2.74,2.11,3.97,4.62,3.97c2.03,0,4.37-0.96,4.37-3.35
	c0-2.2-1.79-2.83-3.57-3.24c-1.8-0.41-3.59-0.61-3.59-2c0-1.46,1.25-1.92,2.51-1.92c1.53,0,2.6,0.69,2.77,2.3H79.45z M86.76,53.15
	c-0.23,1.06-1,1.59-2.1,1.59c-1.77,0-2.57-1.26-2.52-2.68h6.06c0.08-1.97-0.8-4.66-3.66-4.66c-2.21,0-3.8,1.79-3.8,4.23
	c0.08,2.49,1.3,4.28,3.88,4.28c1.82,0,3.1-0.98,3.46-2.77H86.76z M82.14,50.88c0.09-1.24,0.92-2.3,2.32-2.3
	c1.32,0,2.27,1.02,2.33,2.3H82.14z M89.27,55.73h1.33v-3.62c0-2.06,0.78-3.29,2.93-3.29v-1.42c-1.44-0.05-2.33,0.6-2.98,1.9h-0.03
	v-1.72h-1.25V55.73z M101.29,47.59H99.9l-2.21,6.78h-0.03l-2.27-6.78H93.9l3.01,8.14h1.43L101.29,47.59z M102.17,46.13h1.33v-1.64
	h-1.33V46.13z M102.17,55.73h1.33v-8.14h-1.33V55.73z M112.07,50.21c-0.19-1.94-1.66-2.8-3.49-2.8c-2.57,0-3.82,1.92-3.82,4.36
	c0,2.42,1.31,4.16,3.79,4.16c2.04,0,3.27-1.18,3.57-3.16h-1.36c-0.17,1.23-0.94,1.98-2.22,1.98c-1.69,0-2.36-1.48-2.36-2.98
	c0-1.65,0.6-3.18,2.52-3.18c1.1,0,1.8,0.6,2,1.62H112.07z M118.88,53.15c-0.23,1.06-1,1.59-2.1,1.59c-1.77,0-2.57-1.26-2.52-2.68
	h6.06c0.08-1.97-0.8-4.66-3.66-4.66c-2.21,0-3.81,1.79-3.81,4.23c0.08,2.49,1.3,4.28,3.88,4.28c1.82,0,3.1-0.98,3.46-2.77H118.88z
	 M114.26,50.88c0.09-1.24,0.92-2.3,2.32-2.3c1.32,0,2.27,1.02,2.33,2.3H114.26z M18.18,3.67c-0.13,0.25-0.24,0.39-0.22,0.58
	c0.02,0.19,0.22,0.32,0.31,0.52c0.09-0.22,0.23-0.39,0.21-0.56C18.46,4.03,18.23,3.8,18.18,3.67z M21.46,3.67
	c-0.04,0.13-0.28,0.36-0.3,0.53c-0.02,0.17,0.13,0.34,0.21,0.56c0.09-0.19,0.29-0.33,0.31-0.52C21.7,4.06,21.59,3.92,21.46,3.67z
	 M16.3,3.53c0.12,0,0.22-0.1,0.22-0.22c0-0.12-0.1-0.22-0.22-0.22c-0.12,0-0.22,0.1-0.22,0.22C16.07,3.43,16.17,3.53,16.3,3.53z
	 M16.44,3.85c0-0.12-0.1-0.22-0.22-0.22C16.1,3.63,16,3.73,16,3.85c0,0.12,0.1,0.22,0.22,0.22C16.34,4.07,16.44,3.97,16.44,3.85z
	 M16.55,4.39c0-0.12-0.1-0.22-0.22-0.22c-0.12,0-0.22,0.1-0.22,0.22c0,0.12,0.1,0.22,0.22,0.22C16.45,4.61,16.55,4.51,16.55,4.39z
	 M17.52,2.47c0.12,0,0.22-0.1,0.22-0.22c0-0.12-0.1-0.22-0.22-0.22c-0.12,0-0.22,0.1-0.22,0.22C17.3,2.37,17.4,2.47,17.52,2.47z
	 M16.97,2.64c0.12,0,0.22-0.1,0.22-0.22c0-0.12-0.1-0.22-0.22-0.22s-0.22,0.1-0.22,0.22C16.75,2.54,16.85,2.64,16.97,2.64z
	 M16.54,3.02c0.12,0,0.22-0.1,0.22-0.22c0-0.12-0.1-0.22-0.22-0.22s-0.22,0.1-0.22,0.22C16.32,2.92,16.41,3.02,16.54,3.02z
	 M18.1,2.52c0.12,0,0.22-0.1,0.22-0.22s-0.1-0.22-0.22-0.22c-0.12,0-0.22,0.1-0.22,0.22S17.98,2.52,18.1,2.52z M18.65,2.68
	c0.12,0,0.22-0.1,0.22-0.22c0-0.12-0.1-0.22-0.22-0.22c-0.12,0-0.22,0.1-0.22,0.22C18.43,2.58,18.53,2.68,18.65,2.68z M19.17,2.93
	c0.12,0,0.22-0.1,0.22-0.22c0-0.12-0.1-0.22-0.22-0.22c-0.12,0-0.22,0.1-0.22,0.22C18.95,2.83,19.05,2.93,19.17,2.93z M23.12,3.31
	c0,0.12,0.1,0.22,0.22,0.22c0.12,0,0.22-0.1,0.22-0.22c0-0.12-0.1-0.22-0.22-0.22C23.22,3.08,23.12,3.18,23.12,3.31z M23.42,3.63
	c-0.12,0-0.22,0.1-0.22,0.22c0,0.12,0.1,0.22,0.22,0.22c0.12,0,0.22-0.1,0.22-0.22C23.64,3.73,23.54,3.63,23.42,3.63z M23.31,4.17
	c-0.12,0-0.22,0.1-0.22,0.22c0,0.12,0.1,0.22,0.22,0.22c0.12,0,0.22-0.1,0.22-0.22C23.53,4.27,23.43,4.17,23.31,4.17z M22.12,2.47
	c0.12,0,0.22-0.1,0.22-0.22c0-0.12-0.1-0.22-0.22-0.22c-0.12,0-0.22,0.1-0.22,0.22C21.9,2.37,22,2.47,22.12,2.47z M22.67,2.64
	c0.12,0,0.22-0.1,0.22-0.22c0-0.12-0.1-0.22-0.22-0.22c-0.12,0-0.22,0.1-0.22,0.22C22.45,2.54,22.55,2.64,22.67,2.64z M23.1,3.02
	c0.12,0,0.22-0.1,0.22-0.22c0-0.12-0.1-0.22-0.22-0.22c-0.12,0-0.22,0.1-0.22,0.22C22.88,2.92,22.98,3.02,23.1,3.02z M21.54,2.52
	c0.12,0,0.22-0.1,0.22-0.22s-0.1-0.22-0.22-0.22s-0.22,0.1-0.22,0.22S21.42,2.52,21.54,2.52z M20.99,2.68c0.12,0,0.22-0.1,0.22-0.22
	c0-0.12-0.1-0.22-0.22-0.22c-0.12,0-0.22,0.1-0.22,0.22C20.77,2.58,20.87,2.68,20.99,2.68z M20.25,2.7c0,0.12,0.1,0.22,0.22,0.22
	s0.22-0.1,0.22-0.22c0-0.12-0.1-0.22-0.22-0.22S20.25,2.58,20.25,2.7z M19.44,3.91h0.25V2.95c-0.09-0.01-0.17-0.04-0.25-0.08V3.91z
	 M20.2,2.88c-0.08,0.04-0.16,0.07-0.25,0.08v0.96h0.25V2.88z M19.68,1.82V1.26c-0.28,0.06-0.5,0.28-0.55,0.57H19.68z M19.97,1.82
	h0.54c-0.05-0.28-0.26-0.51-0.54-0.57V1.82z M19.14,2.1c0.07,0.31,0.35,0.55,0.68,0.55c0.33,0,0.61-0.23,0.68-0.55H19.14z
	 M20.2,1.17c-0.16-0.13-0.28-0.3-0.3-0.49c0.18,0.03,0.38,0.16,0.5,0.32V0.23c-0.12,0.16-0.32,0.29-0.5,0.32
	C19.92,0.36,20.03,0.2,20.19,0h-0.74c0.16,0.2,0.27,0.36,0.29,0.55c-0.18-0.03-0.38-0.16-0.5-0.32V1c0.12-0.16,0.32-0.29,0.5-0.32
	c-0.02,0.19-0.14,0.37-0.3,0.49H20.2z M20.22,17.16c0.15,0,0.27-0.12,0.27-0.27c0-0.15-0.12-0.27-0.27-0.27s-0.27,0.12-0.27,0.27
	C19.95,17.04,20.07,17.16,20.22,17.16z M18.91,16.76c0.17,0,0.3-0.14,0.3-0.3c0-0.17-0.13-0.3-0.3-0.3c-0.16,0-0.3,0.13-0.3,0.3
	C18.62,16.62,18.75,16.76,18.91,16.76z M18.46,15.42c0.04,0.03,0.09,0.07,0.12,0.09c-0.01-0.09-0.06-0.19-0.13-0.27
	c-0.09-0.11-0.22-0.17-0.34-0.17c-0.27,0-0.57,0.3-0.65,0.39l-0.02,0.03l-0.04-0.01c-0.07-0.02-0.14-0.03-0.22-0.04
	c0.03,0.06,0.06,0.13,0.1,0.19l0.02,0.03l-0.02,0.03c-0.14,0.21-0.21,0.43-0.21,0.59c0,0.11,0.12,0.33,0.31,0.42
	c0.13,0.06,0.25,0.06,0.38-0.02c-0.07-0.04-0.16-0.09-0.22-0.13l-0.03-0.02c-0.06-0.03-0.12-0.07-0.14-0.15
	c0-0.02-0.01-0.03-0.01-0.05c0-0.07,0.03-0.15,0.09-0.26c0.01-0.02,0.02-0.04,0.04-0.06c0.01-0.01,0.02-0.03,0.03-0.04l0.03-0.05
	l0.05,0.03c0.1,0.06,0.2,0.09,0.27,0.07c0.03-0.01,0.06-0.03,0.07-0.06c0.04-0.07,0.02-0.2-0.12-0.31l-0.05-0.04l0.08-0.09
	c0.05-0.06,0.1-0.12,0.16-0.17c0.12-0.11,0.23-0.11,0.37,0L18.46,15.42z M21.02,16.48c0.43,0.11,0.95,0.21,1.29,0.16
	c-0.01,0.01-0.03,0.03-0.05,0.05c-0.12,0.12-0.29,0.24-0.47,0.35c-0.44,0.28-0.89,0.44-1.23,0.44c-0.39,0-0.9-0.08-1.42-0.23
	c-0.46-0.13-0.9-0.3-1.24-0.48c-0.18,0.13-0.38,0.16-0.57,0.07c-0.23-0.11-0.38-0.37-0.38-0.54c0-0.03,0-0.06,0-0.09
	c-0.16-0.14-0.31-0.29-0.45-0.45c-0.43-0.49-0.77-1.06-1-1.69c-0.11-0.3-0.19-0.6-0.26-0.91c0.39,0.14,0.57,0,0.68-0.13
	c0.04,0.01,0.05,0.12,0.04,0.17c0.44-0.01,0.69-0.31,0.73-0.53c0.04,0.27,0.11,0.54,0.2,0.79c0.16,0.45,0.39,0.85,0.68,1.2
	c0.1,0.12,0.21,0.23,0.32,0.33c0.07-0.02,0.14-0.04,0.21-0.04c0.16,0,0.32,0.08,0.44,0.22c0.12,0.14,0.18,0.32,0.16,0.47l0,0.01
	C19.49,16,20.32,16.3,21.02,16.48z M20.82,19.32c0.06-0.11,0.09-0.22,0.09-0.3c0-0.14-0.11-0.33-0.33-0.33
	c-0.38,0-0.29,0.52-0.47,0.52c-0.08,0-0.14-0.05-0.14-0.13c0-0.15,0.26-0.29,0.26-0.5c0-0.21-0.19-0.39-0.41-0.56
	c-0.21,0.17-0.4,0.35-0.4,0.56c0,0.21,0.26,0.35,0.26,0.5c0,0.08-0.06,0.13-0.14,0.13c-0.18,0-0.09-0.52-0.47-0.52
	c-0.22,0-0.33,0.19-0.33,0.33c0,0.08,0.03,0.19,0.09,0.3c0.05-0.09,0.12-0.15,0.19-0.15c0.28,0,0.17,0.76,0.51,0.76
	c0.15,0,0.23-0.1,0.23-0.2c0-0.11-0.07-0.14-0.07-0.22c0-0.08,0.07-0.12,0.14-0.12s0.14,0.03,0.14,0.12c0,0.09-0.07,0.12-0.07,0.22
	c0,0.11,0.08,0.2,0.23,0.2c0.34,0,0.23-0.76,0.51-0.76C20.7,19.17,20.77,19.23,20.82,19.32z M19.83,20.38c0.1,0,0.19-0.08,0.19-0.19
	c0-0.1-0.08-0.19-0.19-0.19s-0.19,0.08-0.19,0.19C19.64,20.3,19.73,20.38,19.83,20.38z M20.58,18.55c0.29,0,0.47,0.25,0.47,0.48
	c0,0.22-0.13,0.42-0.24,0.54c-0.06-0.14-0.11-0.24-0.18-0.24c-0.15,0-0.07,0.73-0.5,0.75c0.01,0.04,0.02,0.07,0.02,0.12
	c0,0.18-0.15,0.33-0.33,0.33c-0.18,0-0.33-0.15-0.33-0.33c0-0.04,0.01-0.08,0.02-0.12c-0.43-0.02-0.36-0.75-0.51-0.75
	c-0.07,0-0.12,0.1-0.18,0.24c-0.11-0.13-0.24-0.32-0.24-0.54c0-0.23,0.18-0.48,0.47-0.48c0.05,0,0.1,0.01,0.15,0.02v-1.03
	c0.43,0.11,0.86,0.17,1.22,0.19v0.84C20.49,18.55,20.53,18.55,20.58,18.55z M30.39,19.56c-0.02-0.04-0.06-0.07-0.11-0.05
	c-0.98,0.28-2.19-0.53-3.36-1.31c-0.99-0.66-1.92-1.29-2.72-1.29c-0.3,0-0.56,0.06-0.78,0.19c-0.28,0.15-0.49,0.4-0.62,0.73
	c-0.14,0.33-0.28,0.55-0.39,0.73c-0.14,0.22-0.23,0.37-0.23,0.57c0,0.16,0.07,0.3,0.2,0.44c0.11,0.12,0.28,0.23,0.51,0.35
	c0.05,0.03,0.1,0.05,0.15,0.07c0.19,0.1,0.31,0.16,0.34,0.27c-0.39,0.17-0.89,0.31-1.45,0.41c-0.64,0.11-1.34,0.17-2.09,0.17
	c-0.74,0-1.44-0.06-2.09-0.17c-0.57-0.1-1.07-0.24-1.46-0.42c0.02-0.16,0.14-0.23,0.35-0.33c0.05-0.02,0.1-0.05,0.15-0.08
	c0.19-0.1,0.38-0.21,0.5-0.32c0.14-0.12,0.2-0.25,0.2-0.41c0-0.19-0.1-0.35-0.23-0.57c-0.11-0.18-0.25-0.4-0.39-0.73
	c-0.13-0.33-0.34-0.57-0.62-0.72c-0.22-0.12-0.49-0.19-0.78-0.19c-0.8,0-1.73,0.62-2.72,1.29c-1.17,0.79-2.39,1.6-3.37,1.31
	c-0.04-0.01-0.09,0.01-0.11,0.06c-0.01,0.04,0.01,0.09,0.05,0.11c0.3,0.13,0.56,0.34,0.81,0.54c0.35,0.28,0.69,0.54,1.05,0.54
	c0.35,0,0.72-0.11,1.17-0.35c0.39-0.21,0.8-0.49,1.2-0.76c0.77-0.53,1.57-1.08,2.33-1.14c-0.08,0.08-0.16,0.15-0.23,0.22
	c-0.22,0.2-0.42,0.37-0.42,0.73c0,0.28,0.09,0.48,0.23,0.75c0.04,0.08,0.08,0.17,0.13,0.27c0.08,0.19,0.12,0.34,0.17,0.55
	c0.02,0.09,0.05,0.19,0.08,0.31c0.05,0.18,0.14,0.52,0.69,0.8c0.64,0.33,1.75,0.5,3.3,0.5c1.55,0,2.66-0.17,3.3-0.5
	c0.56-0.28,0.65-0.62,0.69-0.8c0.03-0.12,0.06-0.22,0.08-0.31c0.05-0.21,0.09-0.36,0.17-0.55c0.06-0.14,0.12-0.25,0.17-0.35
	c0.12-0.22,0.21-0.39,0.21-0.64c0-0.35-0.2-0.54-0.44-0.75c-0.08-0.07-0.15-0.14-0.24-0.23c0.76,0.06,1.56,0.61,2.33,1.14
	c0.39,0.27,0.8,0.55,1.2,0.76c0.45,0.24,0.83,0.35,1.18,0.35c0.37,0,0.7-0.26,1.05-0.54c0.25-0.2,0.52-0.4,0.81-0.54
	C30.38,19.65,30.4,19.6,30.39,19.56z M23.01,11.93c-0.01-0.49-0.09-0.96-0.25-1.4c-0.16-0.45-0.39-0.85-0.69-1.2
	c-0.29-0.35-0.63-0.62-1.01-0.8c-0.35-0.18-0.72-0.27-1.1-0.29v3.69H23.01z M19.83,6.7c1.04,0,1.76,0.31,2.17,0.59
	c0.24-0.14,0.35-0.28,0.35-0.45c0-0.59-1.67-0.65-2.52-0.65h0c-0.85,0-2.52,0.05-2.52,0.65c0,0.17,0.1,0.31,0.35,0.45
	C18.07,7.01,18.79,6.7,19.83,6.7z M19.77,8.23c-0.41,0.01-0.8,0.1-1.18,0.29c-0.38,0.19-0.72,0.46-1.01,0.8
	c-0.29,0.35-0.52,0.75-0.68,1.2c-0.16,0.44-0.24,0.92-0.25,1.4h3.12V8.23z M24.51,11.69c0.01,0.13,0,0.17,0,0.3
	c0,0.72-0.12,1.41-0.37,2.07c-0.24,0.63-0.57,1.2-1,1.69c-0.21,0.24-0.43,0.45-0.67,0.63l0,0c-0.06,0.05-0.33,0.13-1.4-0.14
	c-0.14-0.03-0.21-0.06-0.36-0.1c0.02-0.14,0.03-0.21,0.07-0.31c0.04-0.12,0.1-0.22,0.15-0.28c0.06-0.03,0.06-0.07,0.12-0.1
	c0.38-0.19,0.72-0.46,1.01-0.8c0.29-0.35,0.52-0.75,0.69-1.2c0.15-0.43,0.23-0.88,0.25-1.35h-3.05v3.41c0.24,0.01,0.7,0.06,0.7,0.06
	c-0.11,0.14-0.16,0.28-0.19,0.5c-0.35-0.11-0.69-0.24-1.05-0.39c0.11-0.13,0.24-0.16,0.36-0.17v-3.41h-3.12
	c-0.01-0.14-0.08-0.36-0.12-0.42c-0.15-0.19-0.21-0.3-0.22-0.59c0-0.15-0.1-0.35-0.25-0.55c-0.09-0.11-0.46-0.52-0.55-0.61
	c0.24-0.63,0.57-1.2,1-1.68c0.28-0.32,0.6-0.6,0.95-0.83c-0.19-0.12-0.37-0.3-0.37-0.59c0-0.17,0.07-0.3,0.19-0.41
	c-0.2-0.63-0.55-1.39-0.85-1.73l0.63-0.27c-0.17,0.25-0.18,0.55-0.14,0.72c0.17-0.11,0.31-0.27,0.36-0.48
	c0.03,0.19,0.14,0.5,0.23,0.69c-0.18-0.09-0.33-0.13-0.52-0.05c0.11,0.14,0.38,0.36,0.79,0.26C18,5.52,18.22,5.4,18.21,5.22
	C18.2,5.12,18.13,5,17.99,5.01c-0.14,0.01-0.14,0.22-0.1,0.32c-0.18-0.1-0.37-0.63-0.09-0.71c0.22-0.06,0.42,0.24,0.5,0.48
	c0.04-0.28,0.16-0.55,0.38-0.54c0.29,0.02,0.2,0.56,0.09,0.69c-0.02-0.19-0.12-0.29-0.21-0.28c-0.08,0-0.18,0.06-0.16,0.23
	c0.02,0.17,0.26,0.28,0.54,0.28c0.26,0,0.73-0.08,0.78-0.6c-0.17,0.03-0.44,0.16-0.55,0.33c0.04-0.31,0.04-0.53,0-0.86
	c0.14,0.2,0.37,0.31,0.54,0.33c-0.05-0.22-0.24-0.45-0.46-0.59h1.14c-0.22,0.14-0.41,0.37-0.46,0.59c0.17-0.03,0.41-0.13,0.55-0.34
	c-0.04,0.32-0.04,0.54,0,0.86c-0.12-0.17-0.39-0.3-0.56-0.34c0.04,0.52,0.51,0.6,0.78,0.6c0.28,0,0.52-0.11,0.54-0.28
	c0.02-0.17-0.09-0.23-0.16-0.23C21,4.96,20.89,5.06,20.88,5.25c-0.1-0.14-0.19-0.67,0.09-0.69c0.22-0.02,0.34,0.25,0.38,0.54
	c0.07-0.23,0.28-0.54,0.5-0.48c0.28,0.08,0.09,0.61-0.09,0.71c0.04-0.09,0.03-0.3-0.1-0.32C21.52,5,21.44,5.12,21.44,5.22
	c-0.01,0.17,0.21,0.29,0.44,0.35c0.41,0.1,0.68-0.12,0.79-0.27c-0.18-0.08-0.33-0.04-0.51,0.05c0.1-0.18,0.2-0.49,0.23-0.69
	c0.05,0.21,0.19,0.36,0.35,0.48c0.04-0.17,0.02-0.46-0.14-0.71l0.63,0.27c-0.3,0.33-0.65,1.09-0.84,1.72
	c0.12,0.11,0.19,0.25,0.19,0.42c0,0.29-0.19,0.47-0.37,0.59c0.34,0.23,0.66,0.5,0.95,0.83c0.23,0.26,0.41,0.49,0.59,0.8
	c-0.03,0.03-0.06,0.07-0.09,0.11c-0.04,0.06-0.14,0.17-0.18,0.21c-0.05,0.07-0.1,0.15-0.1,0.25c0,0.08,0.03,0.18,0.09,0.29
	c0.08,0.13,0.56,1.09,0.68,1.33C24.23,11.45,24.4,11.61,24.51,11.69z M21.66,9.74c-0.18-0.22-0.38-0.41-0.6-0.56
	c-0.19-0.13-0.38-0.22-0.59-0.29c0.02,0.03,0.03,0.07,0.03,0.13c-0.05,0-0.09-0.02-0.11-0.05v0.9c0.05-0.01,0.09,0.02,0.1,0.05
	c0.01,0.03,0.01,0.07-0.04,0.1c0.04,0,0.09,0.02,0.13,0.06c-0.04,0.04-0.09,0.06-0.13,0.06c0.04,0.04,0.05,0.07,0.04,0.1
	c-0.01,0.03-0.05,0.06-0.1,0.05v1.06c0.03-0.03,0.08-0.05,0.13-0.05c0,0.06-0.02,0.1-0.05,0.13h0.65c-0.01-0.05,0.02-0.09,0.05-0.1
	c0.03-0.01,0.07-0.01,0.1,0.04c0-0.04,0.02-0.09,0.06-0.13c0.04,0.04,0.06,0.09,0.06,0.13c0.04-0.04,0.07-0.05,0.1-0.04
	c0.03,0.01,0.06,0.05,0.05,0.1h0.76c-0.03-0.03-0.06-0.08-0.06-0.14c0.05,0,0.08,0.01,0.11,0.03c-0.07-0.44-0.23-0.87-0.46-1.24
	c-0.03,0.01-0.06,0.01-0.08,0c-0.03-0.02-0.05-0.05-0.03-0.1c-0.04,0.02-0.08,0.04-0.14,0.03c0.01-0.06,0.04-0.1,0.07-0.13
	c-0.06,0-0.08-0.03-0.09-0.06C21.62,9.8,21.63,9.76,21.66,9.74z M22.52,11.32c0.1,0,0.14,0.09,0.12,0.13
	c-0.01,0.03-0.04,0.05-0.1,0.05c0.03,0.03,0.05,0.08,0.06,0.14c-0.06,0-0.1-0.02-0.14-0.05c0.01,0.05-0.02,0.09-0.05,0.1
	c-0.04,0.02-0.13-0.02-0.14-0.11c0.04,0.05,0.11,0.03,0.11-0.03h-1c0.02,0.06,0.01,0.13-0.05,0.2c-0.06-0.07-0.07-0.14-0.05-0.2
	h-0.9c0,0.06,0.08,0.07,0.11,0.03c0,0.1-0.09,0.14-0.13,0.12c-0.03-0.01-0.05-0.04-0.05-0.1c-0.03,0.03-0.08,0.05-0.14,0.05
	c0-0.06,0.02-0.11,0.05-0.14c-0.05,0-0.08-0.02-0.1-0.05c-0.02-0.05,0.02-0.13,0.12-0.13c-0.05,0.04-0.03,0.12,0.03,0.11v-1.3
	c-0.06,0.02-0.13,0.01-0.2-0.05c0.07-0.06,0.14-0.07,0.2-0.05v-1.2c-0.06,0-0.08,0.07-0.03,0.11c-0.1-0.01-0.13-0.1-0.11-0.14
	c0.02-0.02,0.04-0.04,0.08-0.04c-0.03-0.04-0.05-0.08-0.04-0.15c0.06,0.01,0.11,0.04,0.14,0.07c0.01-0.05,0.03-0.07,0.06-0.08
	c0.05-0.02,0.13,0.03,0.12,0.13c-0.03-0.05-0.11-0.04-0.11,0.02c0.25,0.07,0.5,0.18,0.73,0.34c0.24,0.17,0.47,0.37,0.66,0.62
	c0.02,0.03,0.05,0.06,0.07,0.09c0.04-0.05,0.1-0.1,0.2-0.09c-0.01,0.09-0.07,0.14-0.13,0.16c0,0-0.01,0.01-0.01,0.01
	c0.32,0.46,0.52,1,0.59,1.55C22.56,11.44,22.58,11.36,22.52,11.32z M21.99,10.99c0.04-0.02,0.07-0.05,0.08-0.08
	c-0.04,0.01-0.08-0.01-0.09-0.01c0.03-0.02,0.07,0,0.03-0.06c-0.04-0.06-0.06-0.06-0.1-0.02c-0.04,0.04-0.28-0.01-0.28-0.19
	c0.02,0.03,0.05,0.05,0.08,0.07c0.01,0,0.02,0.01,0.03,0.01c0.01,0,0.02,0,0.03,0.01c0.02,0.01,0.05,0.01,0.07,0.01
	c0,0,0.01,0,0.01,0v-0.01c0.05-0.01,0.09-0.04,0.09-0.09c0.01-0.1-0.09-0.15-0.19-0.23c-0.04-0.03-0.07-0.07-0.1-0.09
	c-0.04-0.07-0.01-0.14-0.1-0.27c-0.01-0.03-0.01-0.07-0.03-0.12c-0.05,0.08-0.07,0.25,0.06,0.39c0.1,0.11,0.32,0.22,0.31,0.32
	c0,0.02-0.02,0.04-0.06,0.05c-0.01,0-0.02,0-0.03,0c-0.01,0-0.01,0-0.02-0.01c-0.01,0-0.03-0.01-0.05-0.02
	c-0.02-0.01-0.05-0.03-0.08-0.06c-0.09-0.08-0.17-0.21-0.22-0.28c-0.1-0.13-0.05-0.25-0.04-0.36c0.07-0.1-0.04-0.3-0.11-0.35
	c0,0,0.01-0.04,0-0.1c-0.01,0.01-0.05,0.01-0.06,0.01c-0.02-0.04-0.03-0.05-0.05-0.05c-0.04-0.01-0.04-0.03-0.05-0.05
	c-0.03,0.02-0.03,0.05-0.06,0.05c-0.04,0-0.05,0-0.06,0.01c-0.03,0.02-0.04,0.03-0.08,0.03c-0.04,0-0.04,0.02-0.04,0.05
	c0,0.02,0,0.05,0.03,0.06c0,0,0.01,0,0.01,0.01l0.03,0.04L21,9.61c0.02-0.02,0.07-0.02,0.08,0.02c0.01,0.02,0.01,0.03-0.02,0.04
	c-0.04,0-0.05,0-0.09,0.01c-0.02,0-0.02,0.03-0.02,0.05c0,0.02,0.03,0.04,0.08,0.02c0.05-0.01,0.13-0.02,0.13,0.02
	c0,0.11-0.12,0.1-0.15,0.23c-0.03-0.02-0.06-0.04-0.08-0.07c-0.02-0.03-0.05-0.07-0.09-0.11c-0.03-0.03-0.06-0.06-0.09-0.08
	c-0.04-0.03-0.04-0.05-0.04-0.09c0-0.04,0.02-0.07,0.02-0.11c0,0-0.01-0.02-0.01-0.03c-0.01-0.02-0.04-0.04-0.06-0.04
	c0.01,0.01,0.02,0.02,0.02,0.04c-0.01,0.01-0.02,0.02-0.02,0.02c-0.01,0.01-0.01,0.02,0,0.04c0,0,0,0,0,0.01c0,0,0,0.01,0,0.02
	c0,0.01,0,0,0,0c-0.01-0.03-0.02-0.07-0.05-0.07c0,0-0.01,0-0.02,0c0,0,0,0,0-0.01c0-0.03-0.03-0.05-0.06-0.02
	c0.01,0,0.02,0,0.03,0.01c0,0.01-0.01,0.03-0.01,0.03c0,0.03,0.02,0.04,0.05,0.04c0,0,0.01,0,0.01,0c0,0,0,0.01,0,0.01c0,0,0,0,0,0
	c-0.05-0.02-0.07,0-0.07,0.02c0,0,0,0.01,0,0.02c-0.02,0.01-0.02,0.04,0.01,0.06c0-0.01,0-0.03,0.01-0.03c0,0,0.01,0,0.01,0
	c0,0.01,0.01,0.01,0.01,0.01c0,0,0.01,0,0.03-0.01c0,0,0.01,0,0.01,0c0,0,0.01,0.01,0.01,0.01c0,0,0,0,0,0.01
	c-0.03,0.03-0.03,0.06,0.01,0.07c-0.02,0.03-0.08,0.02-0.07-0.03c-0.04,0.07,0.03,0.12,0.09,0.09c0,0.02,0,0.07,0.01,0.07
	c0,0,0-0.01,0.01-0.01c0,0,0,0,0,0.01c0,0.02,0.01,0.04,0.03,0.04c0-0.01,0-0.02,0.01-0.02c0.01,0.02,0.02,0.03,0.03,0.05
	c0.03,0.05,0.09,0.18,0.21,0.24c-0.06,0.04-0.11,0.09-0.15,0.15c-0.04,0.03-0.09,0.07-0.12,0.05c-0.01-0.01-0.02-0.02-0.04-0.04
	c-0.02-0.01-0.03-0.01-0.04-0.01c0,0-0.01,0-0.02,0.01c-0.02-0.01-0.06,0-0.07,0.02c0.01,0,0.03-0.01,0.05,0.01
	c0,0.01,0,0.02,0,0.02c0,0.02,0.01,0.03,0.08,0.03c0,0,0.01,0,0.01,0.01c-0.01,0.01-0.02,0.02-0.04,0.01
	c-0.03-0.01-0.04-0.03-0.07,0c0,0-0.01,0.01-0.01,0.02c0,0,0,0-0.01,0c-0.03,0.01-0.05,0.06-0.02,0.08c0-0.01,0-0.03,0.02-0.04
	c0,0.01,0.01,0.01,0.01,0.02c0.02,0.03,0.04,0.05,0.09-0.02c0-0.01,0.01,0,0,0c0,0.03-0.03,0.08,0.01,0.08c0,0,0.01,0,0.02,0
	c0,0,0,0,0,0.01c0.01,0.04,0.06,0.05,0.08,0.04c-0.01-0.01-0.03-0.02-0.04-0.04c0.01,0,0.02,0,0.02,0c0.02-0.02,0-0.06,0.01-0.07
	c0-0.01,0.01,0,0.01,0c0.01,0.01,0.03,0.04,0.06,0.03c0.02-0.01,0.02-0.03,0.03-0.04c0.05-0.02,0.09-0.03,0.12-0.02
	c-0.01-0.02,0.02-0.06,0.07-0.07c0.05-0.01,0.07,0,0.08,0.02c0-0.02,0.02-0.05,0.05-0.08c-0.01,0.19,0.25,0.19,0.31,0.3
	c-0.08-0.03-0.16-0.05-0.21-0.04c-0.06,0.01-0.17,0.07-0.19,0.14c-0.01,0.06,0.05,0.16,0.11,0.21c-0.07,0.01-0.1-0.01-0.17,0.01
	c0,0,0,0-0.01,0c-0.06,0.01-0.07-0.1-0.14-0.07c0,0-0.02,0.01-0.02,0.01h0c-0.03,0-0.06,0.03-0.06,0.06
	c0.01-0.01,0.02-0.02,0.04-0.03c0,0.01,0,0.01,0,0.01c0,0.01,0,0.02,0.03,0.02c0.02,0,0.02-0.01,0.03-0.01c0,0,0.01,0,0.01,0.01
	c0,0.03-0.09-0.02-0.07,0.06c0,0,0.01,0.02,0.01,0.02c0,0.02,0.01,0.04,0.05,0.03c-0.01-0.01-0.02-0.02-0.02-0.03
	c0.01,0,0.01,0,0.02,0c0.01,0,0.01,0,0.01-0.01c0,0,0,0,0,0c0,0,0.01,0,0.01,0.01c0,0-0.01,0.01-0.01,0.02c0,0,0,0.02,0.01,0.02
	c0,0.03,0.04,0.05,0.07,0.03c-0.01,0-0.04-0.01-0.04-0.02c0.01,0,0.02-0.01,0.02-0.01c0,0,0.01-0.02,0.01-0.02s0-0.01,0.01-0.01
	c0.01,0,0.01,0,0.02,0c0.01,0,0.01,0,0.01,0.01c0.01,0.01,0.03,0.03,0.05,0.02c0.02-0.01,0.02-0.01,0.02-0.02
	c0.01,0.01,0.02,0.01,0.03,0.02c-0.01-0.03,0.01-0.05,0.07-0.01l0.04-0.03c0,0,0.06,0.02,0.08,0c0.04-0.03,0.02-0.03,0.02-0.06
	c-0.03-0.06-0.04-0.05-0.05-0.11c-0.02-0.1,0.11-0.15,0.19-0.13c0.02,0.06,0.1,0.22,0.24,0.27c0.09,0.03,0.12-0.07,0.15-0.05
	c0.01,0,0.01,0.01,0.02,0.03c0,0.04,0,0.08-0.01,0.1c-0.01,0.02-0.06,0-0.09,0c-0.02,0-0.03,0.01-0.03,0.01
	c-0.03,0-0.06,0.03-0.06,0.06c0.01-0.01,0.03-0.02,0.05-0.03c0,0,0,0.01,0,0.01c0,0.04,0.05,0.05,0.07,0.02c0,0,0.01,0,0.01,0
	c-0.02,0.02-0.06,0.05-0.03,0.07c0,0,0.01,0.01,0.02,0.01c0,0.03,0.01,0.05,0.03,0.05c-0.01-0.01-0.01-0.02,0-0.05h0.02
	c0.02,0,0.01-0.05,0.04-0.06c0,0,0.01,0,0,0c-0.01,0.03-0.01,0.06,0.01,0.07c0,0,0.01,0,0.02,0c0.01,0.02,0.03,0.04,0.07,0.02
	c-0.01,0-0.03-0.01-0.03-0.02c0.01-0.01,0.02-0.02,0.02-0.02c0.02-0.06-0.03-0.06-0.03-0.08c0-0.03,0.06-0.01,0.06-0.07
	c0,0,0-0.01,0-0.01c0.03-0.01,0.06-0.03,0.06-0.05C22.03,11.01,21.99,11,21.99,10.99L21.99,10.99z M19.15,12.7
	c0.02-0.15,0-0.19-0.08-0.19c-0.09,0-0.27,0.09-0.49,0.18l0.46,0.67c0.03-0.18,0.05-0.34,0.07-0.43c0-0.02,0-0.03,0.01-0.04l-0.03,0
	c-0.06,0-0.11-0.04-0.1-0.11c0-0.07,0.07-0.09,0.12-0.09L19.15,12.7z M18.97,13.87c0.02-0.11,0.04-0.22,0.05-0.34l-0.55-0.79
	c-0.07,0.03-0.15,0.05-0.24,0.07L18.97,13.87z M18.9,14.34c0.01-0.09,0.03-0.19,0.05-0.31l-0.83-1.2c-0.05,0.01-0.11,0.01-0.16,0.01
	c-0.03,0-0.06,0-0.1,0L18.9,14.34z M17.72,12.85c-0.08,0.86,0.53,1.41,1.14,1.65L17.72,12.85z M19.42,12.72c0.05,0,0.1,0.04,0.1,0.1
	c0,0.07-0.06,0.09-0.12,0.09l-0.04,0l-0.04,1.66l0.05,0.01l-0.01,0.15c-0.01,0.05-0.07,0.06-0.12,0.05
	c0.03,0.26-0.19,0.32-0.29,0.32c-0.11,0-0.21-0.08-0.21-0.21c0-0.11,0.1-0.15,0.16-0.15c0.06,0,0.1,0.03,0.09,0.08
	c-0.01,0.04-0.12,0.01-0.12,0.07c0,0.04,0.04,0.07,0.09,0.07c0.08,0,0.13-0.04,0.13-0.14c0-0.15-0.14-0.17-0.28-0.14
	c-0.94-0.28-1.47-1.2-1.4-1.92c-0.02-0.01-0.04-0.02-0.06-0.03l0.06-0.14c-0.02,0.03-0.05,0.04-0.09,0.04
	c-0.07,0-0.12-0.05-0.12-0.12c0-0.06,0.05-0.12,0.12-0.12c0.06,0,0.12,0.05,0.12,0.12c0,0.01,0,0.01,0,0.01l0.06-0.14
	c0.15,0.09,0.39,0.19,0.59,0.19c0.47,0,0.81-0.23,0.99-0.23c0.2,0,0.31,0.14,0.3,0.32l0,0.05L19.42,12.72z M18.59,9.23
	c-0.01,0.01-0.01,0.04,0.01,0.05c0.02,0.01,0.04-0.01,0.04-0.02c0-0.01,0.01-0.02,0-0.03c-0.01-0.01-0.01-0.02,0-0.03
	c0.01-0.01,0.02-0.01,0.03,0c-0.01-0.01-0.01-0.02,0-0.02c0.01,0,0.01,0.02,0.02,0.02c0.01,0,0-0.01,0-0.02c0-0.01,0-0.01-0.01-0.01
	l-0.06-0.03c-0.01,0-0.01-0.01-0.02,0c0,0-0.01,0.01-0.01,0.01c0,0.01,0.02-0.01,0.03,0c0.01,0.01,0,0.01-0.01,0.01
	c0.01,0.01,0.03,0.02,0.02,0.03c0,0.01-0.01,0.02-0.02,0.01C18.6,9.2,18.59,9.21,18.59,9.23z M18.65,9.08
	c-0.01,0-0.05-0.02-0.06-0.04c0.02,0.03,0,0.03,0.02,0.05C18.62,9.11,18.65,9.09,18.65,9.08z M18.7,9.1c0,0.02,0,0.05,0.03,0.05
	c0.02,0,0.01-0.01,0.05-0.02C18.75,9.12,18.71,9.11,18.7,9.1z M18.54,9.14C18.54,9.14,18.54,9.14,18.54,9.14
	C18.54,9.14,18.54,9.14,18.54,9.14z M19.22,9.39C19.21,9.39,19.21,9.4,19.22,9.39c0.11,0.02,0.14,0.05,0.19,0.04
	c0.03-0.01,0.04,0.02,0.04,0.02c0,0.03,0.04,0.01,0.05,0c0,0.03-0.01,0.04-0.01,0.05c0,0,0,0,0,0.01c0.01,0.02,0,0.05,0.03,0.04
	c-0.01,0.02-0.02,0.01-0.03,0.01h0c0,0,0,0,0,0c0.01,0.01,0.02,0.02,0.02,0.03c0,0.05-0.05,0.03-0.05,0.06
	c0,0.02,0.04,0.02,0.03,0.07c0,0-0.01,0.01-0.01,0.02c0,0.01,0.02,0.02,0.02,0.02c-0.03,0.01-0.05,0-0.05-0.01
	c-0.01,0-0.01,0-0.02,0c-0.02-0.01-0.02-0.03-0.01-0.05c0,0,0,0,0,0c-0.02,0.01-0.01,0.05-0.03,0.05h-0.01
	c-0.01,0.02-0.01,0.03,0,0.04c-0.02,0-0.03-0.02-0.03-0.04c-0.01,0-0.01-0.01-0.01-0.01c-0.03-0.01,0.01-0.04,0.02-0.05
	c0,0,0-0.01-0.01,0c-0.02,0.02-0.05,0.01-0.06-0.02V9.63c-0.02,0-0.03,0.01-0.04,0.02c0-0.02,0.02-0.04,0.05-0.05
	c0,0,0.01-0.01,0.03-0.01c0.03,0,0.06,0.02,0.07,0c0.01-0.02,0-0.02,0-0.07c0-0.01-0.01-0.02-0.02-0.02c-0.01,0-0.06-0.02-0.1,0.01
	c-0.04,0.02,0.04,0.04-0.04,0.04c-0.05,0-0.08-0.01-0.12-0.03c0.02,0.03,0,0.05,0.02,0.06c0.03,0.02,0.04,0.08,0.03,0.09
	c-0.01,0.01-0.05,0.02-0.09,0.01c-0.01,0-0.02,0-0.02,0c-0.03,0.01,0,0.04-0.04,0.06c-0.02,0.01-0.04,0-0.05-0.02c0,0,0,0-0.01,0
	c0,0-0.01,0-0.01,0c0,0,0,0-0.01,0c0,0.01,0,0.02-0.01,0.02c0,0-0.01,0-0.01,0.01c0,0.01,0.02,0.01,0.03,0.02
	c-0.03,0.02-0.07,0-0.06-0.02c0,0-0.01-0.02-0.01-0.02c0-0.01,0-0.01,0-0.01c0,0,0,0-0.01,0c0,0,0,0,0,0c0,0.01-0.01,0.01-0.01,0.01
	c0,0-0.01,0-0.02,0c0,0.01,0.01,0.02,0.02,0.02c-0.03,0.01-0.05-0.01-0.05-0.03c0,0-0.01-0.02-0.01-0.02
	c-0.01-0.06,0.06-0.03,0.06-0.05c0,0,0-0.01-0.01-0.01c-0.01,0-0.01,0-0.02,0c-0.02,0-0.02-0.01-0.02-0.02c0,0,0-0.01,0-0.01
	c-0.02,0-0.03,0.01-0.04,0.02c-0.01-0.02,0.03-0.05,0.05-0.05c0,0,0.01-0.01,0.02-0.01c0.06-0.02,0.06,0.1,0.12,0.06
	c0.01,0,0.03-0.01,0.05-0.01c0,0,0.01,0,0-0.01c-0.01-0.01-0.05-0.02-0.06-0.03c-0.04-0.01-0.04-0.08-0.02-0.11
	c-0.02,0.01-0.05,0.03-0.07,0.03c-0.24-0.01-0.05,0.07-0.17,0.09c-0.02,0.01-0.08,0.07-0.13,0.06c0.01-0.01,0-0.03,0-0.04
	c-0.01,0.02-0.04,0.03-0.06,0.03c-0.02,0.01-0.03,0.02-0.03,0.03c0,0.03-0.05,0.05-0.06,0.05c0.01-0.01,0.02-0.02,0.02-0.03
	c0,0,0-0.01-0.01,0c-0.05,0.03-0.1,0-0.1,0.08c-0.02-0.02-0.01-0.05-0.02-0.05c0,0-0.01,0.01-0.01,0.02c-0.01-0.01-0.01-0.02,0-0.03
	c0,0,0,0,0,0c-0.03,0.01-0.05,0.01-0.07,0c0,0,0,0,0,0c0-0.01-0.01-0.01-0.01-0.02c-0.01,0.04-0.04,0.05-0.05,0.06
	c0.02-0.02,0.02-0.04,0.01-0.06c0,0.01-0.02,0.02-0.02,0.02c0-0.02,0-0.03-0.02-0.04c0,0,0,0,0,0c0,0.02-0.01,0.04-0.04,0.05
	c-0.03,0-0.04-0.03-0.04-0.04c0,0,0-0.01-0.01,0c-0.01,0.01,0,0.04-0.03,0.06c0,0-0.01,0-0.02,0c0,0.02,0.01,0.04,0.02,0.05
	c-0.02,0-0.05-0.02-0.05-0.05c0,0,0,0,0,0c-0.01,0-0.01-0.01-0.01-0.01c-0.03-0.02,0.01-0.04,0.02-0.07c0,0,0-0.01,0,0
	c-0.06,0.04-0.07,0.02-0.07-0.01c0,0,0-0.01-0.01-0.02c-0.02,0-0.03,0.02-0.03,0.02c-0.02-0.03,0.02-0.06,0.05-0.06c0,0,0,0,0.01,0
	c0.01,0,0.01-0.01,0.02-0.01c0.03-0.02,0.03,0.01,0.05,0.03c0.01,0.01,0.02,0.01,0.03,0c0,0,0-0.01,0-0.01
	c-0.05-0.02-0.06-0.04-0.05-0.05c0,0,0.01-0.01,0.01-0.02C17.94,9.5,17.93,9.5,17.92,9.5c0.01-0.01,0.04-0.01,0.06,0.01
	c0.01,0,0.02,0,0.02,0c0.01,0,0.02,0.01,0.03,0.02c0.01,0.02,0.01,0.03,0.02,0.04c0.03,0.04,0.11,0,0.15-0.01
	c0.02-0.01,0.1,0,0.11,0c0,0,0.09-0.02,0.14-0.04c-0.03-0.04-0.05-0.08-0.06-0.08c-0.01,0-0.01,0.01-0.01,0.02
	c-0.02,0-0.02-0.02-0.02-0.03c0,0,0-0.01,0-0.01c-0.01,0-0.01,0.01-0.01,0.01c-0.01,0-0.01-0.01-0.02-0.02c0,0,0,0-0.01,0
	c-0.06,0.03-0.12-0.02-0.07-0.07c-0.01,0.05,0.06,0.06,0.07,0.01c0,0,0-0.01,0-0.01c-0.04-0.01-0.04-0.03,0-0.06c0,0,0,0,0-0.01
	c-0.01,0-0.01-0.01-0.01-0.01c0,0-0.01,0-0.01,0c-0.02,0.01-0.02,0.01-0.03,0.01c0,0-0.01,0-0.01-0.01c0,0-0.01,0-0.01,0
	c-0.01,0-0.01,0.02-0.01,0.03c-0.03-0.02-0.02-0.04,0-0.05c0-0.01,0-0.02,0-0.02c0-0.02,0.03-0.03,0.07-0.02c0,0,0,0,0,0
	c0,0,0-0.01,0-0.01c0,0,0,0-0.01,0c-0.03,0-0.04-0.01-0.04-0.03c0,0,0.01-0.02,0.01-0.02c0-0.01-0.01-0.01-0.02-0.01
	c0.04-0.03,0.06-0.01,0.06,0.01c0,0,0,0,0,0c0,0,0.01,0,0.02,0c0.02,0,0.03,0.03,0.03,0.06c0,0,0,0.01,0,0c0-0.01,0-0.01,0-0.01
	c0,0,0,0,0-0.01c-0.01-0.01,0-0.02,0-0.03c0,0,0.01-0.01,0.02-0.01c0-0.02-0.01-0.02-0.01-0.03c0.02,0,0.04,0.01,0.05,0.03
	c0,0.01,0,0.03,0,0.03c0,0.03-0.02,0.06-0.03,0.09c-0.01,0.04-0.01,0.05,0.03,0.07c0.02,0.01,0.04,0.03,0.05,0.04h0
	c0-0.03,0.01-0.09,0.03-0.14c0,0-0.01-0.01-0.02-0.02c0.02,0,0.03-0.04,0.05-0.07c-0.01,0-0.01-0.01-0.02-0.02
	c0.02,0.01,0.05-0.05,0.07-0.05c-0.01-0.03,0-0.05,0.01-0.07c0.02,0,0.03,0.01,0.04,0.02c0-0.02,0.02-0.02,0.03-0.01
	c0,0,0.03-0.01,0.03,0c0.01,0,0.03,0,0.05,0.02c0.03,0.01,0.05,0.03,0.06,0.04c0.01,0.01,0.01,0.03,0.01,0.03
	c0.01,0.01,0.02,0.02,0.01,0.03c0.02,0,0.03,0.01,0.05,0.02c0,0.02-0.02,0.04-0.04,0.05c0.03,0.04-0.05,0.11-0.05,0.15
	c0.24-0.06,0.33,0.03,0.46,0.03c0.17,0,0.28-0.04,0.28-0.1c0-0.17-0.62-0.01-0.62-0.24c0-0.04,0.02-0.07,0.06-0.09
	c0-0.01,0-0.03,0.01-0.04c0.07-0.08,0.19-0.09,0.24-0.16c0,0.03-0.02,0.1-0.08,0.13c0.11-0.01,0.15-0.22,0.42-0.18
	c-0.22,0.04-0.23,0.26-0.53,0.28h-0.01C18.96,8.96,18.94,8.98,18.94,9c0,0.15,0.61,0,0.61,0.25C19.55,9.32,19.44,9.39,19.22,9.39z
	 M18.21,10.57C18.21,10.57,18.22,10.57,18.21,10.57C18.21,10.57,18.21,10.57,18.21,10.57z M18.03,10.19
	c-0.01,0.01-0.01,0.04,0.01,0.06c0.02,0.01,0.04-0.01,0.05-0.02c0.01-0.02,0.01-0.03,0-0.04c-0.01-0.01-0.01-0.02-0.01-0.03
	c0.01-0.02,0.02-0.01,0.04,0c-0.01-0.02-0.01-0.03,0-0.03c0.01,0,0.01,0.03,0.02,0.02c0.01,0,0-0.02,0.01-0.02
	c0-0.01-0.01-0.01-0.01-0.02l-0.07-0.03c-0.01,0-0.02-0.01-0.02,0c0,0.01-0.02,0.01-0.01,0.02c0,0.01,0.02-0.01,0.03,0
	c0.01,0.01,0,0.02-0.02,0.02c0.02,0.01,0.03,0.02,0.02,0.04c0,0.01-0.01,0.02-0.03,0.02C18.05,10.16,18.04,10.17,18.03,10.19z
	 M18.12,10.01c-0.01,0-0.05-0.03-0.07-0.04c0.02,0.04,0,0.04,0.02,0.06C18.08,10.05,18.11,10.03,18.12,10.01z M18.17,10.04
	c0,0.02,0.01,0.06,0.03,0.06c0.03,0,0.01-0.02,0.05-0.02C18.23,10.07,18.18,10.05,18.17,10.04z M17.82,10.35
	C17.82,10.35,17.82,10.35,17.82,10.35C17.82,10.35,17.82,10.35,17.82,10.35z M19.53,10.23c0,0.08-0.21,0.12-0.36,0.12
	c0.13,0.01,0.17,0.02,0.24,0.02c0.04-0.01,0.04,0.02,0.04,0.02c0.01,0.04,0.05,0.02,0.06,0c0,0.03,0,0.05-0.02,0.06c0,0,0,0,0,0.01
	c0.01,0.02-0.01,0.06,0.03,0.05c-0.01,0.02-0.02,0.02-0.04,0.02l0,0c0,0,0,0,0,0c0.02,0.01,0.02,0.02,0.02,0.03
	c0,0.05-0.05,0.04-0.05,0.06c0,0.02,0.05,0.02,0.03,0.08c0,0-0.01,0.02-0.02,0.02c0,0.01,0.02,0.02,0.03,0.02
	c-0.03,0.02-0.05,0-0.06-0.02c-0.01,0-0.02,0-0.02,0c-0.02-0.01-0.02-0.04-0.01-0.06c0,0,0,0,0,0c-0.02,0.01-0.01,0.06-0.04,0.06
	c0,0-0.01,0-0.02,0c-0.01,0.02-0.01,0.03,0,0.04c-0.02,0-0.04-0.02-0.03-0.05c-0.01,0-0.02-0.01-0.02-0.01
	c-0.03-0.01,0.01-0.05,0.03-0.06c0-0.01,0-0.01-0.01-0.01c-0.02,0.02-0.06,0.01-0.06-0.02c0,0,0-0.01,0-0.01
	c-0.02,0-0.04,0.02-0.05,0.02c0-0.03,0.03-0.05,0.05-0.06c0,0,0.01-0.02,0.03-0.01c0.03,0,0.07,0.02,0.08,0
	c0.01-0.02,0-0.03,0.01-0.08c0-0.02-0.01-0.02-0.02-0.02c-0.02,0-0.07-0.02-0.12,0.01c-0.05,0.03-0.07,0.04-0.17,0.04
	c-0.05,0-0.09-0.02-0.14-0.03c0.02,0.03,0,0.06,0.02,0.07c0.04,0.02,0.05,0.09,0.04,0.11c-0.01,0.02-0.06,0.02-0.1,0.01
	c-0.01,0-0.02,0-0.03,0c-0.04,0.01,0,0.05-0.05,0.07c-0.03,0.01-0.05-0.01-0.05-0.02c0,0,0-0.01-0.01,0c-0.01,0-0.01,0-0.02,0
	c0,0-0.01,0-0.01,0.01c0,0.01,0,0.02-0.01,0.03c0,0-0.01,0-0.02,0.01c0,0.01,0.03,0.02,0.04,0.02c-0.04,0.03-0.08,0-0.07-0.03
	c0,0-0.01-0.02-0.01-0.02c0-0.01,0-0.01,0-0.02c0,0,0,0-0.01-0.01c0,0,0,0,0,0c0,0.01-0.01,0.01-0.01,0.01c0,0-0.01,0-0.02,0
	c0,0.01,0.01,0.02,0.02,0.03c-0.04,0.01-0.06-0.01-0.05-0.03c0,0-0.01-0.02-0.01-0.02c-0.02-0.07,0.07-0.03,0.07-0.06
	c0-0.01,0-0.01-0.01-0.01c-0.01,0-0.01,0.01-0.03,0.01c-0.02,0-0.03-0.01-0.03-0.02v-0.02c-0.02,0-0.04,0.02-0.05,0.02
	c-0.01-0.03,0.03-0.06,0.06-0.06c0,0,0.02-0.01,0.02-0.01c0.07-0.03,0.07,0.12,0.14,0.07c0.01,0,0.04-0.01,0.06-0.01
	c0,0,0.01,0,0-0.01c-0.01-0.02-0.05-0.03-0.07-0.03c-0.04-0.01-0.04-0.09-0.02-0.13c-0.02,0.01-0.05,0.04-0.07,0.03
	c-0.31-0.05-0.18,0.14-0.37,0.12c-0.01,0-0.04,0-0.06,0c-0.02,0.04-0.12,0.14-0.19,0.13c0.01-0.01,0.02-0.02,0.03-0.03
	c0-0.01,0-0.01-0.01,0c-0.06,0.04-0.11,0-0.12,0.1c-0.02-0.02-0.01-0.06-0.02-0.06c0,0-0.02,0.01-0.02,0.02
	c-0.01-0.01-0.01-0.02,0-0.04c0,0,0-0.01-0.01,0c-0.04,0.01-0.06,0.01-0.08,0c0,0,0,0,0,0c0-0.01-0.01-0.02-0.01-0.02
	c-0.01,0.04-0.05,0.06-0.06,0.06c0.02-0.02,0.02-0.05,0.01-0.07c-0.01,0.01-0.02,0.02-0.03,0.03c0-0.02-0.01-0.03-0.02-0.04
	c0,0,0,0,0,0c0,0.02-0.01,0.05-0.05,0.05c-0.04,0-0.05-0.03-0.05-0.05c0,0,0-0.01-0.01,0c-0.02,0.01,0,0.05-0.04,0.06
	c0,0-0.01,0-0.02,0c0,0.03,0.01,0.05,0.02,0.06c-0.02,0-0.06-0.03-0.05-0.07c0,0,0,0,0,0c-0.01-0.01-0.01-0.01-0.02-0.01
	c-0.03-0.02,0.01-0.05,0.03-0.08c0,0,0-0.01,0,0c-0.07,0.04-0.08,0.02-0.09-0.01c0,0,0-0.01-0.01-0.02c-0.02,0-0.03,0.02-0.04,0.03
	c-0.02-0.03,0.03-0.07,0.05-0.06c0,0,0,0,0.01,0c0.01,0,0.02-0.01,0.02-0.01c0.03-0.02,0.03,0.01,0.06,0.03
	c0.01,0.01,0.03,0.01,0.03,0c0.01,0,0-0.01,0-0.01c-0.06-0.02-0.07-0.05-0.06-0.06c0,0,0.01-0.01,0.01-0.02
	c-0.01-0.02-0.03-0.02-0.04-0.03c0.01-0.01,0.05-0.01,0.07,0.01c0.01,0,0.02,0,0.02,0c0.01,0,0.02,0.01,0.03,0.03
	c0.01,0.02,0.01,0.03,0.02,0.05c0.03,0.04,0.13,0.01,0.17-0.02c0.03-0.01,0.14-0.01,0.15-0.01c0.01,0-0.03-0.05-0.02-0.09
	c-0.03,0.03-0.05-0.02-0.1-0.04c-0.05-0.03-0.07-0.08-0.09-0.08c-0.01,0-0.01,0.01-0.01,0.02c-0.02,0-0.03-0.02-0.03-0.04
	c0,0,0-0.01,0-0.01c-0.01,0-0.02,0.01-0.01,0.01c-0.01,0-0.02-0.01-0.02-0.02c0,0,0,0-0.01,0c-0.06,0.04-0.14-0.02-0.09-0.09
	c-0.01,0.06,0.07,0.07,0.08,0.01c0,0,0-0.01-0.01-0.01c-0.04-0.01-0.05-0.04-0.01-0.07c0,0,0-0.01,0-0.01c0,0-0.01-0.01-0.01-0.01
	c0,0-0.01,0-0.01,0c-0.02,0.01-0.02,0.01-0.03,0.01c0,0-0.01-0.01-0.01-0.01c0,0-0.01,0-0.01,0c-0.01,0-0.01,0.02-0.01,0.03
	c-0.03-0.02-0.03-0.05-0.01-0.06c0-0.01,0-0.02,0-0.02c0-0.02,0.02-0.05,0.07-0.03c0,0,0.01,0,0.01,0c0,0,0-0.01,0-0.01
	c0,0,0-0.01-0.01-0.01c-0.03,0-0.05-0.01-0.05-0.04c0,0,0-0.02,0.01-0.03c-0.01-0.01-0.02-0.01-0.03-0.01
	c0.03-0.04,0.07-0.01,0.06,0.02c0,0,0,0,0,0c0,0,0.02,0,0.02,0c0.02,0,0.03,0.04,0.04,0.07c0,0,0,0.01,0,0c0-0.01,0-0.01,0-0.02
	c0,0,0-0.01,0-0.01c-0.01-0.01-0.01-0.03,0-0.04c0,0,0.01-0.01,0.02-0.02c0-0.02-0.01-0.03-0.02-0.04c0.02,0,0.05,0.01,0.06,0.04
	c0,0.01,0.01,0.03,0.01,0.03c0,0.03-0.02,0.07-0.02,0.11c0,0.04,0,0.07,0.04,0.09c0.04,0.02,0.07,0.06,0.09,0.08l0.03,0.01
	c-0.01,0-0.01,0-0.02,0c0.01,0,0.01,0.01,0.02,0.01c0,0,0.01,0,0.01,0l0.05,0.02c0-0.02,0-0.06,0.01-0.08
	c-0.01,0-0.02-0.01-0.04-0.03c0.03,0,0.04-0.05,0.06-0.09c-0.01,0-0.02-0.01-0.02-0.03c0.02,0.01,0.05-0.06,0.08-0.06
	c-0.01-0.03,0-0.05,0.01-0.08c0.02,0,0.04,0.01,0.05,0.02c0-0.02,0.02-0.02,0.04-0.01c0,0,0.03-0.01,0.04-0.01
	c0.01,0,0.03,0,0.07,0.02c0.03,0.01,0.05,0.03,0.06,0.04c0.01,0,0.01,0.03,0.01,0.04c0.01,0.01,0.02,0.03,0.01,0.04
	c0.02,0,0.04,0.01,0.05,0.02c0,0.02-0.02,0.04-0.04,0.06c0.03,0.03-0.02,0.1-0.05,0.14c0.29-0.06,0.77,0.03,0.93,0.03
	c0.1,0,0.29-0.01,0.29-0.07c0-0.04-0.04-0.05-0.22-0.05c-0.18,0-0.77,0.13-0.77-0.09c0-0.1,0.12-0.1,0.28-0.1
	c0.01,0,0.01-0.01,0.02-0.01c0.11-0.07,0.3,0.02,0.4-0.04c-0.01,0.04-0.05,0.07-0.17,0.07c0.21,0.05,0.38-0.11,0.58,0.04
	c-0.17-0.05-0.5,0.1-0.78,0.02c-0.02-0.01-0.04-0.01-0.05-0.02c-0.12-0.01-0.21-0.01-0.21,0.05c0,0.12,0.49,0.04,0.71,0.04
	C19.45,10.11,19.53,10.16,19.53,10.23z M17.79,11.16c-0.01,0.01-0.01,0.04,0.01,0.05c0.02,0.01,0.04-0.01,0.05-0.02
	c0.01-0.01,0.01-0.03,0-0.03c-0.01-0.01-0.01-0.02-0.01-0.03c0.01-0.01,0.02-0.01,0.04,0c-0.01-0.02-0.01-0.03,0-0.02
	c0.01,0,0.01,0.02,0.02,0.02c0.01,0,0-0.01,0-0.02c0-0.01,0-0.01-0.01-0.02l-0.07-0.03c-0.01,0-0.01-0.01-0.02,0
	c0,0-0.02,0.01-0.01,0.02c0,0.01,0.02-0.01,0.03,0c0.01,0.01,0,0.01-0.01,0.02c0.01,0.01,0.03,0.02,0.02,0.03
	c-0.01,0.01-0.01,0.02-0.03,0.02C17.8,11.13,17.79,11.14,17.79,11.16z M17.86,10.99c-0.01,0-0.05-0.03-0.07-0.04
	c0.02,0.03,0,0.04,0.02,0.06C17.83,11.02,17.85,11.01,17.86,10.99z M17.91,11.02c0,0.02,0,0.05,0.03,0.05
	c0.02,0,0.02-0.01,0.05-0.02C17.97,11.04,17.92,11.02,17.91,11.02z M19.43,11.19c0,0.08-0.22,0.1-0.34,0.11
	c0.12,0.01,0.16,0.02,0.23,0.02c0.04-0.01,0.04,0.02,0.04,0.02c0,0.04,0.04,0.02,0.06,0c0,0.03,0,0.05-0.02,0.06c0,0,0,0,0,0.01
	c0.01,0.02-0.01,0.05,0.03,0.05c-0.01,0.02-0.02,0.01-0.04,0.02v0c0,0,0,0,0,0c0.02,0.01,0.02,0.02,0.02,0.03
	c0,0.05-0.05,0.04-0.05,0.06c0,0.02,0.04,0.02,0.03,0.07c0,0-0.01,0.01-0.01,0.02c0,0.01,0.02,0.02,0.03,0.02
	c-0.03,0.01-0.05,0-0.06-0.02c-0.01,0-0.01,0-0.02,0c-0.02-0.01-0.02-0.04-0.01-0.06c0,0,0,0,0,0c-0.02,0.01-0.01,0.06-0.03,0.06
	c0,0-0.01,0-0.02,0c-0.01,0.02-0.01,0.03,0,0.04c-0.02,0-0.03-0.02-0.03-0.05c-0.01,0-0.02-0.01-0.02-0.01
	c-0.03-0.01,0-0.05,0.02-0.06c0,0,0-0.01-0.01,0c-0.02,0.02-0.06,0.01-0.06-0.02c0,0,0-0.01,0-0.01c-0.02,0-0.03,0.02-0.04,0.02
	c0-0.03,0.02-0.05,0.05-0.05c0,0,0.01-0.02,0.03-0.01c0.03,0,0.07,0.02,0.08,0c0.01-0.02-0.01-0.03,0-0.07
	c0-0.02-0.01-0.02-0.02-0.02c-0.01,0-0.07-0.02-0.12,0.01c-0.04,0.03-0.07,0.04-0.16,0.04c-0.05,0-0.09-0.02-0.13-0.03
	c0.02,0.03,0,0.06,0.02,0.07c0.04,0.02,0.04,0.08,0.03,0.1c-0.01,0.02-0.06,0.02-0.1,0.01c-0.01,0-0.02,0-0.03,0
	c-0.04,0.01,0,0.05-0.04,0.06c-0.02,0.01-0.05,0-0.05-0.02c0,0,0-0.01-0.01,0c0,0-0.01,0-0.02,0c0,0-0.01,0-0.01,0.01
	c0,0.01,0,0.02-0.01,0.03c0,0-0.01,0-0.02,0.01c0,0.01,0.03,0.02,0.04,0.02c-0.04,0.03-0.07,0-0.07-0.03c0,0-0.01-0.02-0.01-0.02
	c0-0.01,0-0.01,0-0.01c0,0,0,0,0-0.01c0,0,0,0,0,0c0,0.01-0.01,0.01-0.01,0.01h-0.02c0,0.01,0.01,0.02,0.02,0.02
	c-0.04,0.01-0.05-0.01-0.05-0.03c0-0.01-0.01-0.02-0.01-0.02c-0.01-0.07,0.07-0.03,0.07-0.06c0,0,0-0.01-0.01-0.01
	c-0.01,0-0.01,0.01-0.03,0.01c-0.02,0-0.03-0.01-0.02-0.02v-0.01c-0.02,0-0.03,0.02-0.04,0.02c-0.01-0.03,0.03-0.06,0.06-0.06
	c0,0,0.01-0.01,0.02-0.01c0.06-0.03,0.07,0.11,0.13,0.07c0.01-0.01,0.03-0.01,0.06-0.01c0,0,0.01,0,0-0.01
	c-0.01-0.01-0.05-0.03-0.07-0.03c-0.04-0.01-0.04-0.07-0.02-0.11c-0.02,0.02-0.02,0.02-0.04,0.02c-0.4-0.04-0.2,0.15-0.54,0.11
	c-0.02-0.01-0.02,0.04-0.08,0.04c0,0,0,0,0,0c-0.01,0-0.02,0-0.03,0.01c0,0.01,0,0.02,0,0.03l-0.09,0.04c0,0,0,0,0.01-0.01
	c-0.03,0.02-0.06,0.03-0.08,0.03c0.01-0.01,0.02-0.02,0.03-0.03c0-0.01,0-0.01-0.01,0c-0.06,0.04-0.17-0.01-0.17,0.08
	c-0.02-0.02-0.01-0.06-0.02-0.06c-0.01,0-0.01,0.01-0.02,0.02c-0.01-0.01-0.01-0.02,0-0.04c0,0,0,0,0,0c-0.04,0.01-0.06,0.01-0.07,0
	c0,0,0,0,0,0c0-0.01-0.01-0.01-0.01-0.02c-0.01,0.04-0.05,0.06-0.06,0.06c0.02-0.02,0.02-0.05,0.01-0.06
	c-0.01,0.01-0.02,0.02-0.03,0.02c0-0.02-0.01-0.03-0.02-0.04c0,0,0,0,0,0c0,0.02-0.01,0.05-0.05,0.05c-0.04,0-0.04-0.03-0.05-0.05
	c0,0,0-0.01-0.01,0c-0.02,0.01,0,0.05-0.03,0.06c0,0-0.01,0-0.02,0c0,0.03,0.01,0.05,0.02,0.06c-0.02,0-0.06-0.03-0.05-0.06
	c0,0,0,0,0,0c-0.01-0.01-0.01-0.01-0.01-0.01c-0.03-0.02,0.01-0.05,0.03-0.07c0,0,0-0.01,0,0c-0.06,0.04-0.08,0.02-0.08-0.01
	c0,0,0-0.01,0-0.02c-0.02,0-0.03,0.02-0.03,0.03c-0.02-0.03,0.02-0.07,0.05-0.06c0,0,0,0,0.01,0c0.01,0,0.02-0.01,0.02-0.01
	c0.03-0.02,0.03,0.01,0.05,0.03c0.01,0.01,0.03,0.01,0.03,0c0,0,0-0.01,0-0.01c-0.06-0.02-0.06-0.04-0.06-0.05
	c0,0,0.01-0.01,0.01-0.02c-0.01-0.02-0.03-0.02-0.04-0.02c0.01-0.01,0.05-0.01,0.07,0.01c0.01,0,0.02,0,0.02,0
	c0.01,0,0.02,0.01,0.03,0.03c0.01,0.02,0.01,0.03,0.02,0.05c0.03,0.04,0.12,0.01,0.16-0.02c0.03-0.01,0.16-0.01,0.17-0.01
	c0.01,0-0.02-0.05-0.02-0.09c-0.01-0.01-0.02-0.01-0.02-0.02c-0.01,0.02-0.03,0.02-0.05,0.02c-0.08-0.05-0.13-0.13-0.14-0.13
	c-0.01,0-0.01,0.01-0.01,0.02c-0.02,0-0.03-0.02-0.03-0.04c0,0,0-0.01,0-0.01c-0.01,0-0.01,0.01-0.01,0.01
	c-0.01,0-0.02-0.01-0.02-0.02c0,0,0,0-0.01,0c-0.06,0.03-0.13-0.02-0.09-0.08c0,0.06,0.07,0.07,0.08,0.01c0,0,0-0.01,0-0.01
	c-0.04-0.01-0.05-0.04-0.02-0.07c0,0,0,0,0-0.01c0,0-0.01-0.01-0.01-0.01c0,0-0.01,0-0.01,0c-0.01,0.01-0.02,0.01-0.03,0.01
	c0,0-0.01-0.01-0.01-0.01c0,0,0,0,0,0c-0.01,0-0.01,0.02-0.01,0.03c-0.03-0.02-0.03-0.04-0.01-0.06c0,0,0-0.02,0-0.02
	c0-0.02,0.02-0.04,0.07-0.02c0,0,0.01,0,0,0c0,0,0-0.01,0-0.01c0,0,0,0-0.01,0c-0.03,0-0.05-0.01-0.05-0.04c0,0,0-0.02,0.01-0.03
	c0-0.01-0.02-0.01-0.02-0.01c0.03-0.03,0.06-0.01,0.06,0.02c0,0,0,0,0,0.01c0,0,0.01,0,0.02,0c0.02,0,0.04,0.04,0.04,0.07
	c0,0,0,0.01,0,0c0-0.01,0-0.01,0-0.02c0,0,0-0.01,0-0.01c-0.01-0.01-0.01-0.03,0-0.04c0,0,0.01-0.01,0.02-0.02
	c0-0.02-0.01-0.03-0.02-0.04c0.02-0.01,0.05,0.01,0.05,0.04c0,0.01,0.01,0.03,0.01,0.03c0,0.03-0.02,0.07-0.02,0.1
	c0,0.04,0,0.06,0.04,0.09c0.06,0.03,0.08,0.09,0.11,0.09c0.01,0,0.02,0,0.04,0.01c0,0,0.02,0,0.03,0l0.02,0.01
	c0-0.02,0-0.04,0.01-0.06c-0.01,0-0.01-0.01-0.02-0.02c0.02,0,0.03-0.05,0.05-0.08c-0.01,0-0.01-0.01-0.02-0.03
	c0.02,0.01,0.05-0.06,0.07-0.06c-0.01-0.03,0-0.05,0.01-0.07c0.02,0,0.04,0.01,0.05,0.02c0-0.02,0.02-0.02,0.04-0.01
	c0,0,0.03-0.01,0.04-0.01c0.01,0,0.03,0,0.06,0.02c0.03,0.01,0.05,0.03,0.06,0.04c0,0.01,0.01,0.03,0.01,0.04
	c0.01,0.01,0.02,0.02,0.01,0.04c0.02,0,0.03,0.01,0.05,0.02c0,0.02-0.02,0.04-0.04,0.05c0.03,0.04-0.04,0.11-0.05,0.15
	c0.27-0.08,0.95,0.01,1.11,0.01c0.1,0,0.27-0.01,0.27-0.06c0-0.03-0.04-0.05-0.21-0.05c-0.18,0-0.9,0.12-0.9-0.09
	c0-0.12,0.24-0.09,0.44-0.09c0-0.01,0.01-0.01,0.02-0.01c0.11-0.07,0.37,0.03,0.46-0.03c-0.01,0.03-0.13,0.06-0.25,0.06
	c0.2,0.04,0.4-0.11,0.55,0.03c-0.19-0.07-0.47,0.12-0.74,0.04c-0.02-0.01-0.04-0.02-0.05-0.03c-0.16,0-0.37-0.03-0.37,0.04
	c0,0.12,0.64,0.04,0.85,0.04C19.36,11.08,19.43,11.12,19.43,11.19z M21.03,12.87L21.03,12.87C21.03,12.87,21.03,12.87,21.03,12.87z
	 M20.72,12.38C20.72,12.38,20.72,12.38,20.72,12.38C20.72,12.38,20.72,12.38,20.72,12.38z M20.7,12.45L20.7,12.45L20.7,12.45z
	 M20.76,12.55c-0.01,0.01-0.01,0.04,0.01,0.05c0.02,0.01,0.04-0.01,0.05-0.02c0-0.02,0.01-0.03,0-0.03c-0.01-0.01-0.01-0.02,0-0.03
	c0.01-0.02,0.02-0.01,0.04,0c-0.01-0.02-0.01-0.03,0-0.02c0.01,0,0.01,0.02,0.02,0.02c0.01,0,0-0.02,0-0.02
	c0-0.01-0.01-0.01-0.01-0.02l-0.07-0.03c-0.01,0-0.01,0-0.02,0c0,0.01-0.02,0.01-0.01,0.02c0,0.01,0.02-0.01,0.03,0
	c0.01,0.01,0,0.01-0.01,0.02c0.01,0.01,0.03,0.02,0.02,0.03c0,0.02-0.01,0.02-0.03,0.02C20.77,12.52,20.77,12.53,20.76,12.55z
	 M20.84,12.38c-0.01,0-0.05-0.03-0.07-0.04c0.02,0.03,0,0.04,0.02,0.06C20.81,12.41,20.83,12.4,20.84,12.38z M20.89,12.41
	c0,0.02,0,0.05,0.03,0.05c0.02,0,0.01-0.01,0.05-0.02C20.95,12.43,20.9,12.41,20.89,12.41z M22.39,12.79c0,0.02-0.01,0.05,0.03,0.05
	c-0.01,0.02-0.02,0.02-0.04,0.02h0c0,0,0,0,0,0c0.02,0.01,0.02,0.02,0.02,0.03c0,0.05-0.05,0.04-0.05,0.06
	c0,0.02,0.04,0.02,0.02,0.07c0,0-0.01,0.01-0.02,0.02c0,0.01,0.02,0.02,0.02,0.02c-0.03,0.01-0.05,0-0.06-0.02
	c-0.01,0-0.01,0-0.02,0c-0.02-0.01-0.01-0.04,0-0.06c0,0,0,0,0,0c-0.03,0.01-0.02,0.06-0.04,0.06h-0.02
	c-0.01,0.02-0.01,0.03-0.01,0.04c-0.02,0-0.03-0.02-0.03-0.05c-0.01,0-0.01-0.01-0.01-0.01c-0.03-0.01,0.01-0.04,0.03-0.06
	c0,0,0-0.01-0.01,0c-0.02,0.02-0.06,0.01-0.06-0.02v-0.01c-0.02,0-0.04,0.02-0.05,0.02c0-0.03,0.03-0.05,0.05-0.05
	c0,0,0.02-0.01,0.03-0.01c0.03,0,0.07,0.02,0.08,0c0.01-0.02,0-0.03,0.01-0.08c0-0.02,0-0.02-0.02-0.02c-0.02,0-0.07-0.02-0.12,0.01
	c-0.05,0.03-0.08,0.04-0.17,0.04c-0.05,0-0.09-0.02-0.13-0.03c0.02,0.03,0,0.06,0.02,0.07c0.04,0.02,0.04,0.08,0.03,0.1
	c-0.01,0.02-0.06,0.02-0.09,0.01c-0.01,0-0.02,0-0.03,0c-0.04,0.01,0,0.05-0.04,0.06c-0.02,0.01-0.04-0.01-0.05-0.02
	c0,0,0-0.01-0.01,0c-0.01,0-0.01,0-0.02,0c0,0-0.01,0-0.01,0.01c0,0.01,0,0.02-0.01,0.02c0,0-0.01,0-0.02,0.01
	c0,0.01,0.03,0.02,0.04,0.02c-0.04,0.03-0.07,0-0.07-0.03c0,0-0.01-0.02-0.01-0.02c0-0.01,0-0.01,0-0.01c0,0,0,0-0.01-0.01
	c0,0,0,0,0,0c0,0.01-0.01,0.01-0.01,0.01c0,0-0.01,0-0.02,0c0,0.01,0.01,0.02,0.02,0.03c-0.04,0.01-0.05-0.01-0.05-0.03
	c0,0-0.01-0.02-0.01-0.02c-0.01-0.07,0.07-0.03,0.07-0.05c0-0.01,0-0.01-0.01-0.01c-0.01,0-0.01,0.01-0.02,0.01
	c-0.02,0-0.03-0.01-0.03-0.02v-0.01c-0.02,0-0.03,0.02-0.04,0.02c-0.01-0.03,0.03-0.06,0.06-0.06c0,0,0.01-0.01,0.02-0.02
	c0.07-0.02,0.07,0.11,0.13,0.07c0.01,0,0.03-0.01,0.06-0.01c0,0,0.01,0,0-0.01c-0.01-0.01-0.05-0.03-0.07-0.03
	c-0.04-0.01-0.04-0.09-0.02-0.13c-0.02,0.02-0.03,0.04-0.05,0.04c-0.4-0.04-0.2,0.15-0.54,0.11c-0.02,0-0.02,0.05-0.07,0.04
	c-0.03,0.01-0.06,0.01-0.06,0.02c0,0.03-0.08,0.09-0.11,0.07c0.01-0.01,0.02-0.02,0.03-0.03c0-0.01,0-0.01-0.01,0
	c-0.06,0.04-0.11,0-0.12,0.09c-0.02-0.02-0.01-0.06-0.02-0.06c0,0-0.01,0.02-0.01,0.02c-0.01-0.01-0.01-0.02,0-0.04c0,0,0,0,0,0
	c-0.04,0.01-0.06,0.01-0.07,0c0,0,0,0,0,0c0-0.01-0.01-0.01-0.01-0.02c-0.01,0.04-0.05,0.06-0.06,0.06
	c0.02-0.02,0.02-0.05,0.02-0.06c-0.01,0.01-0.02,0.02-0.03,0.03c0-0.02,0-0.03-0.02-0.04c0,0,0,0,0,0c0,0.02-0.01,0.05-0.05,0.05
	c-0.04,0-0.04-0.03-0.05-0.05c0,0,0-0.01-0.01,0c-0.02,0.01,0,0.05-0.03,0.06c0,0-0.01,0-0.02-0.01c0,0.03,0.01,0.04,0.02,0.05
	c-0.02,0-0.06-0.03-0.05-0.06c0,0,0,0,0-0.01c0,0-0.01-0.01-0.01-0.01c-0.03-0.02,0.01-0.05,0.02-0.07c0,0,0-0.01,0,0
	c-0.06,0.04-0.08,0.02-0.08-0.01c0,0,0-0.01-0.01-0.02c-0.02,0-0.03,0.02-0.03,0.03c-0.02-0.03,0.02-0.07,0.05-0.06c0,0,0,0,0.01,0
	c0.01,0,0.02-0.01,0.02-0.01c0.03-0.02,0.03,0.01,0.06,0.03c0.01,0.01,0.02,0.01,0.03,0c0,0,0-0.01,0-0.01
	c-0.06-0.02-0.06-0.04-0.06-0.05c0,0,0.01-0.01,0.01-0.02c-0.01-0.02-0.03-0.02-0.04-0.02c0.01-0.01,0.05-0.01,0.06,0.01
	c0.01,0,0.02,0,0.02,0c0.01,0,0.02,0.01,0.03,0.03c0.01,0.02,0.01,0.03,0.02,0.05c0.03,0.04,0.12,0,0.16-0.02
	c0.03-0.01,0.11,0,0.12,0c0.01,0-0.04-0.04-0.03-0.08l-0.01,0.01c-0.02-0.01-0.03-0.02-0.03-0.04c-0.02,0.01-0.05,0.02-0.05,0.03
	c-0.09-0.05-0.12-0.13-0.14-0.13c-0.01,0-0.01,0.01-0.01,0.02c-0.02,0-0.03-0.02-0.03-0.04c0,0,0-0.01,0-0.01
	c-0.01,0-0.01,0.01-0.01,0.01c-0.01,0-0.02-0.01-0.02-0.02c0,0,0,0-0.01,0c-0.06,0.03-0.13-0.02-0.09-0.08
	c0,0.06,0.07,0.07,0.08,0.01c0,0,0-0.01-0.01-0.01c-0.04-0.01-0.05-0.04-0.02-0.07c0,0,0-0.01,0-0.01c-0.01,0-0.01-0.01-0.01-0.01
	c-0.01,0-0.01,0-0.01,0c-0.02,0.01-0.02,0.01-0.03,0.01c0,0-0.01-0.01-0.01-0.01c0,0,0,0-0.01,0c-0.01,0-0.01,0.02-0.01,0.03
	c-0.03-0.02-0.03-0.04-0.01-0.06c0,0,0-0.02,0-0.02c0-0.02,0.02-0.04,0.07-0.02c0,0,0.01,0,0,0c0,0,0-0.01,0-0.01
	c0,0,0-0.01-0.01-0.01c-0.03,0-0.05-0.01-0.05-0.04c0,0,0-0.02,0.01-0.03c0-0.01-0.02-0.01-0.03-0.01c0.03-0.03,0.06-0.01,0.06,0.02
	c0,0,0,0,0,0c0,0,0.02,0,0.02,0c0.02,0,0.04,0.04,0.05,0.07c0,0,0,0.01,0,0c0-0.01,0-0.01,0-0.02c0,0,0,0,0-0.01
	c-0.01-0.01-0.01-0.03,0-0.04c0,0,0.01-0.01,0.02-0.02c0-0.02-0.01-0.03-0.02-0.04c0.02,0,0.05,0.01,0.05,0.04
	c0,0.01,0.01,0.03,0.01,0.03c0,0.03-0.01,0.06-0.01,0.1c0,0.04,0,0.06,0.04,0.09c0.06,0.03,0.08,0.08,0.11,0.09
	c0.01,0,0.02,0,0.03,0.01c0,0,0.02,0,0.03,0l0.04,0.01c0-0.02,0-0.04,0.01-0.06c-0.01,0-0.02-0.01-0.04-0.03
	c0.02,0,0.03-0.05,0.05-0.08c-0.01,0-0.01-0.01-0.02-0.03c0.02,0.01,0.05-0.06,0.07-0.06c-0.01-0.03,0-0.05,0.01-0.07
	c0.02,0,0.04,0.01,0.05,0.02c0-0.02,0.02-0.02,0.03-0.02c0,0,0.03-0.01,0.04,0c0.01,0,0.03,0,0.06,0.02
	c0.03,0.02,0.05,0.03,0.06,0.04c0.01,0,0.01,0.03,0.01,0.04C21,12.38,21.01,12.39,21,12.4c0.02,0,0.04,0.01,0.05,0.02
	c0,0.02-0.02,0.04-0.04,0.05c0.03,0.04-0.04,0.11-0.05,0.15c0.27-0.08,0.95,0.01,1.11,0.01c0.1,0,0.27-0.01,0.27-0.06
	c0-0.03-0.04-0.05-0.21-0.05c-0.17,0-0.9,0.12-0.9-0.09c0-0.12,0.24-0.09,0.44-0.09c0,0,0.01-0.01,0.02-0.01
	c0.11-0.07,0.37,0.03,0.46-0.03c-0.01,0.03-0.13,0.06-0.25,0.06c0.2,0.04,0.33-0.09,0.55-0.01c-0.16-0.05-0.47,0.15-0.73,0.08
	c-0.02-0.01-0.04-0.02-0.05-0.03c-0.16,0-0.37-0.04-0.37,0.04c0,0.12,0.64,0.04,0.84,0.04c0.21,0,0.28,0.04,0.28,0.1
	c0,0.08-0.22,0.09-0.34,0.1c-0.01,0-0.01,0.01,0,0.01c0.12,0.01,0.18,0.02,0.24,0.02c0.04-0.01,0.04,0.02,0.04,0.02
	c0,0.04,0.05,0.02,0.06,0C22.41,12.76,22.4,12.78,22.39,12.79C22.38,12.79,22.38,12.79,22.39,12.79z M20.88,13.38
	c0.02,0,0.01-0.01,0.05-0.02c-0.02-0.01-0.07-0.02-0.08-0.03C20.85,13.35,20.86,13.38,20.88,13.38z M20.85,13.43
	c0.01,0,0-0.01,0-0.02c0-0.01,0-0.01-0.01-0.02l-0.06-0.03c-0.01,0-0.01,0-0.02,0c-0.01,0-0.01,0.01-0.01,0.02
	c0,0.01,0.02-0.01,0.03,0c0.01,0.01,0,0.01-0.01,0.02c0.01,0.01,0.03,0.02,0.02,0.03c0,0.01-0.01,0.02-0.03,0.02
	c-0.01,0-0.01,0.01-0.02,0.02c-0.01,0.01-0.01,0.04,0.01,0.05c0.02,0.01,0.04-0.01,0.05-0.02c0-0.01,0.01-0.02,0-0.03
	c-0.01-0.01-0.01-0.02-0.01-0.03c0.01-0.02,0.02-0.01,0.04,0c-0.01-0.01-0.01-0.02,0-0.02C20.84,13.41,20.84,13.43,20.85,13.43z
	 M20.81,13.31c-0.01,0-0.05-0.03-0.07-0.04c0.02,0.03,0,0.04,0.02,0.05C20.78,13.34,20.8,13.32,20.81,13.31z M21.45,13.32
	c-0.1-0.01-0.19-0.01-0.19,0.04c0,0.11,0.45,0.04,0.64,0.04c0.2,0,0.21,0.04,0.21,0.1c0,0.07-0.23,0.09-0.35,0.1
	c-0.01,0-0.01,0.01,0,0.01c0.11,0.01,0.2,0.02,0.26,0.02c0.04-0.01,0.03,0.02,0.03,0.02c0,0.03,0.04,0.01,0.06,0
	c0,0.03-0.01,0.04-0.03,0.05c0,0,0,0.01,0,0.01c0,0.02-0.02,0.05,0.02,0.05c-0.01,0.02-0.02,0.02-0.04,0.02h0c0,0,0,0,0,0
	c0.01,0.01,0.01,0.02,0.01,0.03c-0.01,0.05-0.06,0.03-0.06,0.06c0,0.02,0.04,0.02,0.01,0.07c0,0-0.01,0.01-0.02,0.02
	c0,0.01,0.01,0.02,0.02,0.02c-0.03,0.01-0.05,0-0.05-0.02c-0.01,0-0.01,0-0.01,0c-0.02-0.01-0.01-0.03,0.01-0.06c0,0,0,0,0,0
	c-0.03,0.01-0.03,0.05-0.05,0.05c0,0-0.01,0-0.02,0c-0.01,0.02-0.02,0.03-0.01,0.04c-0.01,0-0.02-0.02-0.02-0.04
	c-0.01,0-0.01-0.01-0.02-0.01c-0.02-0.01,0.02-0.04,0.04-0.06c0.01,0,0-0.01-0.01,0c-0.02,0.02-0.06,0.01-0.05-0.02
	c0,0,0-0.01,0-0.01c-0.02,0-0.04,0.02-0.05,0.02c0-0.02,0.04-0.05,0.06-0.05c0,0,0.02-0.01,0.03-0.01c0.03,0,0.06,0.02,0.08,0
	c0.01-0.02,0-0.02,0.02-0.07c0.01-0.01,0-0.02-0.01-0.02c-0.01,0-0.06-0.02-0.11,0.01c-0.05,0.03-0.09,0.04-0.18,0.04
	c-0.05,0-0.09-0.01-0.12-0.03c0.02,0.03,0,0.06,0.02,0.07c0.04,0.02,0.04,0.08,0.03,0.1c-0.01,0.01-0.06,0.02-0.09,0.01
	c-0.01,0-0.02,0-0.03,0c-0.03,0,0,0.04-0.04,0.06c-0.02,0.01-0.04,0-0.05-0.02c0,0,0-0.01-0.01,0c0,0-0.01,0-0.02,0
	c0,0-0.01,0-0.01,0.01c0,0.01,0,0.02-0.01,0.02c0,0-0.01,0-0.02,0.01c0,0.01,0.02,0.02,0.03,0.02c-0.04,0.02-0.07,0-0.07-0.03
	c0,0-0.01-0.02-0.01-0.02c0,0,0-0.01,0-0.01c0,0,0-0.01-0.01-0.01c0,0,0,0,0,0c0,0.01,0,0.01-0.01,0.01c0,0-0.01,0-0.02,0
	c0,0.01,0.01,0.02,0.02,0.02c-0.03,0.01-0.05-0.01-0.05-0.03c0,0-0.01-0.02-0.01-0.02c-0.01-0.06,0.06-0.03,0.06-0.05
	c0-0.01,0-0.01-0.01-0.01c-0.01,0-0.01,0.01-0.02,0.01c-0.02,0-0.03-0.01-0.02-0.02c0,0,0-0.01,0-0.01c-0.02,0-0.03,0.01-0.04,0.02
	c-0.01-0.03,0.03-0.06,0.05-0.06c0,0,0.01-0.01,0.02-0.01c0.06-0.02,0.07,0.1,0.12,0.06c0.01-0.01,0.03-0.01,0.05-0.01
	c0,0,0.01,0,0-0.01c-0.01-0.01-0.05-0.02-0.07-0.03c-0.04-0.01-0.04-0.08-0.02-0.12c-0.02,0.01-0.05,0.03-0.07,0.03
	c-0.28-0.05-0.15,0.11-0.32,0.1c-0.02,0-0.02,0.04-0.07,0.04c0.01-0.01,0.01-0.02,0.01-0.03c0,0.01-0.01,0.01-0.02,0.02
	c-0.02,0.04-0.08,0.13-0.14,0.09c0.01-0.01,0.02-0.02,0.02-0.03c0,0,0-0.01,0,0c-0.06,0.04-0.13,0.01-0.13,0.1
	c-0.02-0.02-0.01-0.06-0.02-0.06c0,0-0.01,0.01-0.01,0.02c-0.01-0.01-0.01-0.02,0-0.04c0,0,0,0,0,0c-0.03,0.01-0.06,0-0.07,0
	c0,0,0,0,0,0c0,0-0.01-0.01-0.01-0.02c-0.01,0.04-0.04,0.06-0.06,0.06c0.02-0.02,0.02-0.04,0.01-0.06
	c-0.01,0.01-0.02,0.02-0.02,0.03c0-0.02,0-0.03-0.02-0.04c0,0-0.01,0,0,0c0,0.02-0.01,0.05-0.05,0.05c-0.04,0-0.04-0.03-0.04-0.04
	c0,0,0-0.01-0.01,0c-0.02,0.01,0,0.05-0.03,0.06c0,0-0.01,0-0.02,0c0,0.02,0.01,0.04,0.02,0.05c-0.02,0-0.06-0.02-0.05-0.06
	c0,0,0,0,0-0.01c-0.01,0-0.01-0.01-0.01-0.01c-0.03-0.02,0.01-0.04,0.02-0.07c0,0,0-0.01-0.01,0c-0.06,0.04-0.07,0.02-0.08-0.01
	c0,0,0-0.01,0-0.02c-0.02,0-0.03,0.02-0.03,0.03c-0.02-0.03,0.02-0.06,0.05-0.06c0,0,0,0,0.01,0c0.01,0,0.02-0.01,0.02-0.01
	c0.03-0.02,0.03,0.01,0.05,0.03c0.01,0.01,0.02,0.01,0.03,0c0,0,0-0.01,0-0.01c-0.06-0.02-0.06-0.04-0.05-0.05c0,0,0-0.01,0.01-0.02
	c-0.01-0.02-0.02-0.02-0.04-0.02c0.01-0.01,0.05-0.01,0.06,0.01h0.02c0.01,0,0.02,0.01,0.03,0.02c0.01,0.02,0.01,0.03,0.02,0.05
	c0.03,0.04,0.12,0,0.15-0.02c0.03-0.01,0.1-0.01,0.11-0.01c0.01,0,0-0.06,0-0.1l-0.05,0.01c-0.01-0.01-0.02-0.01-0.03-0.03
	c-0.07-0.04-0.07-0.01-0.08-0.01c-0.01,0-0.01,0.01-0.01,0.02c-0.02,0-0.03-0.02-0.03-0.04c0,0,0-0.01,0-0.01
	c-0.01,0-0.01,0.01-0.01,0.01c-0.01,0-0.02-0.01-0.02-0.02c0,0,0,0,0,0c-0.06,0.03-0.13-0.02-0.09-0.08c0,0.06,0.07,0.07,0.07,0.01
	c0-0.01,0-0.01-0.01-0.01c-0.04,0-0.04-0.04-0.01-0.06c0,0,0-0.01,0-0.01c0,0-0.01-0.01-0.01-0.01c0,0-0.01,0-0.01,0
	c-0.01,0.01-0.02,0.01-0.03,0.01c0,0-0.01-0.01-0.01-0.01c0,0,0,0-0.01,0c-0.01,0-0.01,0.02-0.01,0.03
	c-0.03-0.02-0.02-0.04-0.01-0.05c0-0.01,0-0.02,0-0.02c0-0.02,0.02-0.04,0.06-0.02c0,0,0.01,0,0,0c0,0,0-0.01,0-0.01c0,0,0,0-0.01,0
	c-0.03,0-0.05-0.01-0.05-0.04c0,0,0-0.02,0.01-0.03c0-0.01-0.02-0.01-0.02-0.01c0.03-0.03,0.06-0.01,0.06,0.02c0,0,0,0,0,0
	c0,0,0.01,0,0.02,0c0.02,0,0.03,0.04,0.04,0.06c0,0,0,0.01,0.01,0c0-0.01,0-0.01,0-0.02c0,0,0-0.01,0-0.01
	c-0.01-0.01-0.01-0.02,0-0.03c0,0,0.01-0.01,0.01-0.02c0-0.02-0.01-0.03-0.02-0.03c0.02-0.01,0.05,0.01,0.05,0.03
	c0,0.01,0.01,0.03,0.01,0.03c0,0.03-0.01,0.06-0.01,0.1c0,0.04,0,0.06,0.04,0.08c0.05,0.03,0.07,0.03,0.1,0.03c0,0,0.01,0,0.01,0
	l0.02,0.01c0-0.02,0.01-0.05,0.01-0.07c0,0-0.01-0.01-0.02-0.02c0.02,0,0.03-0.04,0.05-0.08c-0.01,0-0.01-0.01-0.02-0.03
	c0.02,0.01,0.05-0.05,0.07-0.06c-0.01-0.03,0-0.05,0.01-0.07c0.02,0,0.03,0.01,0.05,0.02c0-0.02,0.02-0.02,0.03-0.02
	c0,0,0.03-0.01,0.04,0c0.01,0,0.03,0,0.06,0.02c0.03,0.01,0.05,0.03,0.06,0.04c0.01,0,0.01,0.03,0.01,0.03
	c0.01,0.01,0.02,0.02,0.01,0.04c0.02,0,0.03,0.01,0.05,0.02c0,0.02-0.02,0.04-0.04,0.05c0.03,0.03-0.02,0.09-0.04,0.13
	c0.26-0.05,0.7,0.02,0.84,0.02c0.09,0,0.28-0.01,0.28-0.06c0-0.03,0.02-0.05-0.15-0.05s-0.69,0.12-0.69-0.08
	c0-0.09,0.11-0.09,0.25-0.09c0,0,0.01-0.01,0.02-0.01c0.1-0.06,0.35,0.03,0.44-0.03c0,0.03-0.12,0.06-0.24,0.06
	c0.19,0.04,0.32-0.08,0.52-0.01c-0.15-0.04-0.44,0.15-0.7,0.07C21.47,13.35,21.46,13.33,21.45,13.32z M20.65,14.39
	c-0.01,0.01-0.01,0.03,0.01,0.05c0.02,0.01,0.04-0.01,0.04-0.02c0-0.01,0.01-0.02,0-0.03c-0.01-0.01-0.01-0.02-0.01-0.03
	c0.01-0.01,0.02-0.01,0.03,0c-0.01-0.01-0.01-0.02,0-0.02c0.01,0,0.01,0.02,0.02,0.02c0.01,0,0-0.01,0-0.02c0-0.01,0-0.01-0.01-0.02
	l-0.06-0.03c-0.01,0-0.01,0-0.02,0c0,0-0.01,0.01-0.01,0.02c0,0,0.02-0.01,0.02,0c0.01,0.01,0,0.01-0.01,0.02
	c0.01,0.01,0.03,0.01,0.02,0.03c0,0.01-0.01,0.01-0.02,0.01C20.66,14.37,20.66,14.38,20.65,14.39z M20.72,14.24
	c-0.01,0-0.05-0.02-0.07-0.04c0.02,0.03,0,0.04,0.02,0.05C20.69,14.27,20.71,14.26,20.72,14.24z M20.77,14.26
	c0,0.02,0,0.05,0.03,0.05c0.02,0,0.01-0.01,0.05-0.02C20.82,14.29,20.77,14.27,20.77,14.26z M21.24,14.24
	c-0.05,0.02-0.09,0.04-0.09,0.07c0,0.11,0.66-0.05,0.66,0.1c0,0.07-0.14,0.13-0.36,0.13c-0.01,0-0.04,0-0.06,0
	c0,0.05,0.07,0.05,0.11,0.1c0.02,0.02,0.01,0.05-0.03,0.06c-0.03,0.01,0.02,0.04,0.04,0.04c-0.02,0.02-0.03,0.03-0.05,0.02
	c0,0-0.01,0-0.01,0c-0.01,0.02-0.04,0.03-0.01,0.05c-0.02,0.01-0.02,0-0.03-0.01v0c0,0,0,0,0,0c0.01,0.01,0,0.03-0.01,0.03
	c-0.03,0.03-0.05-0.01-0.07,0.01c-0.02,0.01,0.01,0.04-0.03,0.06c0,0-0.02,0-0.02,0c0,0.01,0,0.02,0,0.03
	c-0.03-0.01-0.03-0.03-0.03-0.05c0,0-0.01-0.01-0.01-0.02c-0.01-0.02,0.01-0.03,0.03-0.04c0,0,0,0,0,0
	c-0.02-0.01-0.05,0.03-0.06,0.01c0,0-0.01-0.01-0.01-0.01c-0.02,0.01-0.02,0.01-0.03,0.02c-0.01-0.01,0-0.04,0.01-0.05
	c0-0.01,0-0.01,0-0.02c-0.01-0.03,0.03-0.02,0.05-0.02c0,0,0,0,0,0c0,0,0,0,0,0h0h0c-0.01-0.01-0.01-0.01-0.01-0.02
	c0,0,0-0.01,0-0.01c-0.02-0.01-0.03,0-0.04,0c0.01-0.02,0.04-0.03,0.06-0.02c0,0,0.02-0.01,0.03,0c0.01,0.01,0.03,0.03,0.04,0.04
	l0,0c0.02-0.01,0.01-0.02,0.05-0.04c0.01-0.01,0.01-0.02,0-0.03c-0.01-0.01-0.06-0.04-0.1-0.05c-0.02,0.03-0.17,0.01-0.21,0
	c0.1,0.06,0.05,0.18,0.07,0.19c0.03,0.02,0.04,0.08,0.03,0.09c-0.01,0.02-0.03,0.01-0.06,0c-0.01,0-0.02,0-0.02,0
	c-0.03,0.01,0,0.04-0.04,0.06C21.02,14.99,21,14.98,21,14.96c0,0,0-0.01-0.01-0.01h-0.02c0,0,0,0,0,0.01c0,0.01,0,0.02-0.01,0.02
	c0,0-0.01,0-0.02,0.01c0,0.01,0.02,0.01,0.03,0.02c-0.03,0.02-0.07,0-0.06-0.02c0,0,0-0.02,0-0.02c0-0.01,0-0.01,0-0.01
	c0,0,0,0-0.01,0c0,0,0,0,0,0c0,0.01-0.01,0.01-0.01,0.01c0,0-0.01,0-0.02,0c0,0.01,0.01,0.02,0.02,0.02
	c-0.03,0.01-0.05-0.01-0.05-0.03c0,0-0.01-0.02-0.01-0.02c-0.01-0.06,0.06-0.03,0.06-0.05c0,0,0-0.01-0.01-0.01
	c-0.01,0-0.01,0-0.02,0c-0.02,0-0.02-0.01-0.02-0.02v-0.01c-0.02,0-0.03,0.01-0.04,0.02c-0.01-0.03,0.03-0.05,0.05-0.05
	c0,0,0.01-0.01,0.02-0.01c0.06-0.02,0.06,0.1,0.12,0.06c0.01-0.01,0.03-0.01,0.05-0.01c0,0,0.01,0,0-0.01
	c-0.01-0.01-0.06-0.05-0.06-0.09c0-0.03,0.01-0.08,0.02-0.1c-0.07,0-0.1,0.05-0.17,0.06c-0.01,0-0.02,0-0.02,0
	c-0.01,0.1-0.05,0.13-0.05,0.14c0,0.03-0.06,0.06-0.08,0.06c0.01-0.01,0.02-0.02,0.02-0.03c0-0.01,0-0.01-0.01,0
	c-0.05,0.03-0.1,0-0.1,0.08c-0.02-0.02-0.01-0.05-0.02-0.05c0,0-0.01,0.01-0.01,0.02c-0.01-0.01-0.01-0.02,0-0.03c0,0,0-0.01-0.01,0
	c-0.03,0.01-0.05,0.01-0.06,0c0,0,0,0,0,0c0-0.01,0-0.01-0.01-0.02c-0.01,0.04-0.04,0.05-0.05,0.05c0.02-0.02,0.02-0.04,0.01-0.06
	c-0.01,0.01-0.02,0.02-0.02,0.02c0-0.02-0.01-0.03-0.02-0.03c0,0,0,0,0,0c0,0.02-0.01,0.04-0.04,0.05c-0.03,0-0.04-0.03-0.04-0.04
	c0,0,0-0.01-0.01,0c-0.02,0.01,0,0.04-0.03,0.05c0,0-0.01,0-0.02,0c0,0.02,0.01,0.04,0.02,0.05c-0.02,0-0.05-0.02-0.05-0.05
	c0,0,0,0,0-0.01c-0.01,0-0.01-0.01-0.01-0.01c-0.03-0.02,0.01-0.04,0.02-0.07c0,0,0-0.01-0.01,0c-0.06,0.04-0.07,0.02-0.07-0.01
	c0,0,0-0.01-0.01-0.02c-0.02,0-0.03,0.02-0.03,0.03c-0.02-0.03,0.02-0.06,0.04-0.06c0,0,0,0,0.01,0c0.01,0,0.02-0.01,0.02-0.01
	c0.03-0.01,0.03,0.01,0.05,0.03c0.01,0.01,0.02,0.01,0.03,0c0,0,0-0.01,0-0.01c-0.05-0.02-0.06-0.04-0.05-0.05c0,0,0-0.01,0.01-0.02
	c-0.01-0.02-0.02-0.02-0.03-0.02c0.01-0.01,0.05-0.01,0.06,0.01c0.01,0,0.02,0,0.02,0c0.01,0,0.02,0.01,0.03,0.02
	c0.01,0.02,0.01,0.03,0.02,0.04c0.01,0.02,0.04,0.02,0.06,0.01c0,0,0,0,0,0.01l0-0.01c0.03,0,0.07-0.02,0.08-0.03
	c0.02-0.01,0.12,0,0.13,0c0.01,0-0.01-0.03-0.03-0.06c-0.04,0-0.08-0.02-0.09-0.07c-0.08-0.04-0.06-0.13-0.07-0.13
	c-0.01,0-0.01,0.01-0.01,0.02c-0.02,0-0.02-0.02-0.02-0.04c0,0,0-0.01,0-0.01c-0.01,0-0.01,0.01-0.01,0.01
	c-0.01,0-0.02-0.01-0.02-0.02c0,0,0,0,0,0c-0.05,0.03-0.12-0.02-0.08-0.08c0,0.05,0.07,0.06,0.07,0.01c0,0,0-0.01-0.01-0.01
	c-0.04-0.01-0.04-0.03-0.01-0.06c0,0,0,0,0-0.01c0,0-0.01-0.01-0.01-0.01c0,0,0,0-0.01,0c-0.02,0.01-0.02,0.01-0.03,0.01
	c0,0-0.01-0.01-0.01-0.01c0,0,0,0-0.01,0c-0.01,0-0.01,0.02-0.01,0.03c-0.03-0.02-0.02-0.04-0.01-0.05c0,0,0-0.02,0-0.02
	c0-0.02,0.02-0.04,0.06-0.02c0,0,0,0,0,0c0,0,0-0.01,0-0.01c0,0,0,0-0.01,0c-0.03,0-0.04-0.01-0.04-0.03c0,0,0-0.02,0-0.02
	c0-0.01-0.02-0.01-0.02-0.01c0.03-0.03,0.05-0.01,0.05,0.01c0,0,0,0,0,0c0,0,0.01,0,0.02,0c0.02,0,0.03,0.03,0.04,0.06
	c0,0,0,0.01,0,0c0-0.01,0-0.01,0-0.01c0,0,0-0.01,0-0.01c-0.01-0.01-0.01-0.02,0-0.03c0,0,0.01-0.01,0.01-0.02
	c0-0.02-0.01-0.03-0.02-0.03c0.02,0,0.04,0.01,0.05,0.03c0,0.01,0.01,0.03,0.01,0.03c0,0.03-0.01,0.06-0.01,0.09
	c0,0.04,0,0.06,0.04,0.08c0.04,0.02,0.1,0.12,0.14,0.16c-0.01-0.05,0-0.11,0.01-0.16c-0.01,0-0.01-0.01-0.02-0.02
	c0.02,0,0.03-0.04,0.05-0.08c-0.01,0-0.01-0.01-0.02-0.02c0.02,0.01,0.04-0.05,0.07-0.05c-0.01-0.03,0-0.05,0.01-0.07
	c0.02,0,0.03,0.01,0.04,0.02c0-0.01,0.02-0.01,0.03-0.01c0,0,0.03-0.01,0.03-0.01c0.01,0,0.03,0,0.06,0.02
	c0.03,0.01,0.05,0.03,0.05,0.04c0.01,0,0.01,0.03,0.01,0.03c0.01,0.01,0.02,0.02,0.01,0.03c0.01,0,0.03,0.01,0.04,0.02
	c0,0.02-0.01,0.04-0.04,0.05c0.03,0.03-0.03,0.1-0.05,0.15v0c0.28-0.07,0.51,0.01,0.64,0.01c0.17,0,0.3-0.04,0.3-0.09
	c0-0.06-0.65,0.08-0.65-0.09c0-0.06,0.07-0.1,0.14-0.12c0.01-0.01,0.01-0.01,0.02-0.02c0.1-0.06,0.35,0.03,0.44-0.02
	c-0.01,0.03-0.13,0.05-0.24,0.05c0.19,0.04,0.32-0.08,0.52-0.01c-0.16-0.04-0.45,0.15-0.7,0.08C21.26,14.27,21.25,14.25,21.24,14.24
	z M10.59,2.72c0-0.09-0.07-0.16-0.16-0.16c-0.09,0-0.16,0.07-0.16,0.16c0,0.09,0.07,0.16,0.16,0.16
	C10.52,2.88,10.59,2.81,10.59,2.72z M10.53,2.29c0-0.09-0.07-0.16-0.16-0.16c-0.09,0-0.16,0.07-0.16,0.16
	c0,0.09,0.07,0.16,0.16,0.16C10.46,2.45,10.53,2.38,10.53,2.29z M10.62,2.1c0.09,0,0.16-0.07,0.16-0.16s-0.07-0.16-0.16-0.16
	c-0.09,0-0.16,0.07-0.16,0.16S10.54,2.1,10.62,2.1z M11.05,2.07c0.09,0,0.16-0.07,0.16-0.16c0-0.09-0.07-0.16-0.16-0.16
	c-0.09,0-0.16,0.07-0.16,0.16C10.89,2,10.96,2.07,11.05,2.07z M12.86,1.78c0.06,0.06,0.16,0.06,0.23,0c0.06-0.06,0.06-0.16,0-0.23
	c-0.06-0.06-0.16-0.06-0.23,0C12.8,1.61,12.8,1.71,12.86,1.78z M12.82,1.44c0.06-0.06,0.06-0.16,0-0.23c-0.06-0.06-0.16-0.06-0.23,0
	c-0.06,0.06-0.06,0.16,0,0.23C12.66,1.5,12.76,1.5,12.82,1.44z M12.4,1.37c0.06-0.06,0.06-0.16,0-0.23c-0.06-0.06-0.16-0.06-0.23,0
	c-0.06,0.06-0.06,0.16,0,0.23C12.24,1.43,12.34,1.43,12.4,1.37z M12.04,1.64c0.06-0.06,0.06-0.16,0-0.23
	c-0.06-0.06-0.16-0.06-0.23,0c-0.06,0.06-0.06,0.16,0,0.23C11.88,1.7,11.98,1.7,12.04,1.64z M11.02,1.41l0.13,0.28l0.16-0.19
	c0.01,0,0.01,0,0.02,0.01c0.01,0.09,0.02,0.26,0.02,0.35c0,0.11,0.09,0.21,0.2,0.21c0.11,0,0.2-0.09,0.2-0.21
	c0-0.08-0.04-0.15-0.11-0.18c-0.08-0.06-0.17-0.14-0.22-0.21c0-0.01,0.01-0.02,0.01-0.03l0.27,0.02L11.6,1.18l-0.2,0.17
	c0,0-0.01,0-0.01,0l-0.01-0.3l-0.28,0.11l0.19,0.22c-0.01,0.01-0.01,0.01-0.01,0.02L11.02,1.41z M12.87,1.91
	c0.06,0.1,0.08,0.14,0.09,0.22c-0.05-0.02-0.1-0.07-0.17-0.15l0.03,0.37c0.04-0.07,0.08-0.11,0.13-0.13
	c-0.01,0.24-0.11,0.34-0.19,0.36c-0.1,0.02-0.18-0.05-0.19-0.12c-0.02-0.11,0.07-0.18,0.17-0.08c0.02-0.22-0.16-0.22-0.24-0.13
	c0.09-0.22,0.06-0.36-0.14-0.48c-0.12,0.2-0.07,0.34,0.08,0.49c-0.15-0.08-0.28,0.05-0.15,0.22c0.03-0.14,0.15-0.11,0.18,0
	c0.02,0.1-0.07,0.22-0.23,0.27c-0.23,0.07-0.3-0.08-0.36-0.2c0.05-0.03,0.17-0.02,0.3,0.06l-0.11-0.36
	c-0.05,0.13-0.13,0.18-0.22,0.22c-0.01-0.11,0.07-0.32,0.07-0.32L11.5,2.34c0,0,0.2,0.1,0.27,0.18c-0.09,0.03-0.18,0.05-0.31-0.01
	l0.18,0.34c0.04-0.15,0.11-0.24,0.17-0.25c0.05,0.13,0.1,0.29-0.12,0.4c-0.15,0.08-0.3,0.05-0.35-0.04
	c-0.06-0.1,0.01-0.21,0.13-0.13c-0.02-0.21-0.2-0.21-0.26-0.05c0-0.22-0.05-0.35-0.28-0.41c-0.06,0.22,0.02,0.35,0.23,0.44
	c-0.12-0.01-0.25,0.11-0.09,0.26c0-0.14,0.11-0.15,0.18-0.06c0.04,0.06,0.03,0.16-0.05,0.22c-0.07,0.05-0.21,0.04-0.39-0.12
	c0.05-0.02,0.11-0.01,0.19,0l-0.23-0.29c0.01,0.1,0.01,0.18-0.01,0.22c-0.05-0.06-0.07-0.11-0.09-0.22l-0.18,0.16
	c0.17,0.1,0.37,0.27,0.6,0.6c0.25-0.16,0.7-0.37,0.97-0.49c0.28-0.11,0.75-0.27,1.04-0.34c-0.06-0.4-0.03-0.66,0.02-0.85L12.87,1.91
	z M13.37,4.03c0.18-0.14,0.03-0.29,0.25-0.63c-0.24,0.15-0.59,0.29-0.9,0.42C12.86,4.05,13.15,4.21,13.37,4.03z M13.32,6.36
	c0.31-0.13,0.28-0.43,0.2-0.59c-0.08-0.16-0.15-0.3-0.24-0.3c-0.17,0-0.27-0.04-0.32-0.2c-0.06-0.19,0.13-0.26,0.31-0.36
	C13.09,4.85,13,4.77,13.11,4.69c0.12-0.09,0.29,0.08,0.34,0c0.04-0.08-0.09-0.15-0.14-0.2c-0.07-0.07-0.15-0.05-0.26-0.02
	l-0.83,0.32c-0.1,0.05-0.17,0.08-0.17,0.19c0,0.08-0.05,0.22,0.04,0.25c0.08,0.03,0.09-0.22,0.24-0.24
	c0.13-0.02,0.12,0.11,0.03,0.27c0.2-0.05,0.39-0.13,0.47,0.04c0.07,0.15,0.04,0.25-0.09,0.37c-0.07,0.07-0.02,0.21,0.04,0.38
	C12.81,6.23,13.04,6.49,13.32,6.36z M11.74,4.68c0.28-0.03,0.39-0.35,0.33-0.61c-0.31,0.12-0.66,0.26-0.94,0.32
	C11.53,4.48,11.52,4.7,11.74,4.68z M16.37,12.11c-0.08,0.21,0.1,0.26,0.1,0.42c0,0.21-0.18,0.31-0.38,0.35
	c0.14-0.29,0.02-0.45-0.22-0.49c0.05,0.55-0.37,0.63-0.55,0.54c0.17-0.03,0.24-0.3,0.15-0.53c-0.07,0.19-0.27,0.33-0.45,0.33
	c-0.17,0-0.3-0.13-0.36-0.27c0.2,0.13,0.36-0.02,0.36-0.12c0-0.1-0.2-0.16-0.2-0.31c0-0.37,0.4-0.22,0.4-0.55
	c0-0.13-0.07-0.19-0.16-0.19c-0.08,0-0.21,0.04-0.25,0.26c-0.2-0.18,0-0.59-0.09-0.86c0.02,0.43-0.27,0.41-0.39,0.58
	c-0.15-0.15,0-0.45-0.14-0.8c-0.05,0.4-0.2,0.34-0.25,0.57c-0.4-0.2-1.11-0.13-1.35,0.14c0.68,0.53,1.48,0.81,1.48,1.63
	c0,0.63-0.98,0.88-0.98,1.28c0,0.41,1.02,1.35,1.54,1.35c0.17,0,0.25-0.21,0.39-0.22c0.14-0.01,0.26,0,0.39,0.01
	c0.13,0.01,0.23,0.13,0.22,0.24c0.24,0.03,0.54,0.39,0.24,0.7c-0.05-0.17-0.21-0.4-0.51-0.24c0.12,0.27,0.01,0.54-0.34,0.64
	c0.11-0.18,0.13-0.42-0.08-0.42c-0.21,0-0.03,0.14-0.42,0.14c-0.39,0-0.35,0.02-0.51-0.21c-0.16-0.22-0.27-0.31-0.36-0.28
	c-0.09,0.03-0.13,0.26,0.02,0.34c-0.82,0-0.48-0.86-0.91-1.07c0.02,0.27,0.03,0.47,0,0.6c-0.31-0.24-0.49-0.57-0.55-0.77
	c-0.05-0.21-0.01-0.4-0.21-0.5c-0.06-0.03-0.14-0.1-0.12-0.21c0.02-0.09,0.07-0.06,0.21-0.13c0.18-0.08,0.4-0.25,0.4-0.69
	c0-0.33-0.06-0.79-0.62-1.11c0.04,0.7,0.03,1.3-0.29,1.84c-0.41,0.69-1.1,1.12-1.49,1.29c-0.39,0.17-0.95,0.3-0.95,0.82
	c0,0.97,0.43,1.54,0.86,1.54c0.27,0,0.21-0.32,0.61-0.32c0.18,0,0.37,0.07,0.41,0.2c0.22-0.04,0.46,0.08,0.46,0.29
	c0,0.21-0.09,0.33-0.26,0.36c0.13-0.27-0.2-0.34-0.3-0.28c-0.1,0.06,0.03,0.16,0.03,0.32c0,0.16-0.05,0.32-0.34,0.39
	c0.06-0.1,0.06-0.24-0.11-0.24c-0.18,0-0.24,0.29-0.46,0.29c-0.36,0-0.46-0.16-0.8-0.09c-0.24,0.05-0.24,0.19-0.15,0.26
	C8.63,19,8.73,18.46,8.84,18.35c0.11-0.11,0.18-0.18,0.03-0.28c-0.15-0.1-0.38,0-0.43,0.24c-0.37-0.72,0.14-0.69-0.02-1.5
	c-0.09,0.34-0.3,0.6-0.45,0.69c0.06-0.18-0.1-0.52-0.1-0.8c0-0.62,0.38-0.82,0.38-1.02c0-0.13-0.14-0.27,0.01-0.4
	c0.08-0.07,0.26,0.07,0.37,0.07c0.49,0,0.85-0.63,0.92-1.34c0.09-0.84,0.42-1.41,0.77-2.05c0.01-0.1,0.03-0.2,0.05-0.3
	c-0.34,0.43-0.64,1.09-1.12,1.47c0.06,0.54-0.98,1.16-1.58,0.68c0.19,0.01,0.57-0.07,0.68-0.38c-0.09,0-0.17-0.02-0.25-0.05
	c-0.36,0.2-0.94-0.05-0.92-0.46c0.15,0.17,0.32,0.21,0.49,0.13c-0.12-0.17-0.2-0.4-0.2-0.66c0-1.57,2.43-2.65,2.43-3.93
	c0-0.41-0.25-0.62-0.53-0.62c-0.15,0-0.31,0.04-0.49,0.15c0.12,0.11,0.2,0.24,0.2,0.41c0,1.45-2.31,1.31-2.52,2.26
	C6.45,9.46,7.9,9.73,8.03,8.72c-0.3,0.44-0.82,0.77-1.12,0.6C7.66,9.33,7.43,7.77,8.3,7.77c0.09,0,0.19,0.02,0.29,0.06
	C8.82,7.63,9.1,7.52,9.34,7.52c0.35,0,0.9,0.26,0.9,0.94c0,1.53-2.45,2.52-2.45,3.95c0,0.48,0.28,0.71,0.66,0.71
	c0.85,0,1.4-1.54,2.33-2.8c0.58-0.84,0.97-2.53,1.36-3.33c-0.45,0.32-0.51,1.2-1.06,1.26c0.29-0.25,0.08-1.01,0.27-1.56
	c0.07-0.2,0.1-0.4,0.04-0.61c-0.33,0.36-0.19,1.55-0.73,1.7c0.19-0.24-0.02-0.63-0.02-1c0-0.68,0.35-0.79,0.38-1.42
	c-0.32,0.13-0.21,1.02-0.85,1c0.45-0.45-0.01-0.93,0.5-1.44c-0.31-0.14-0.51-0.38-0.51-0.63c0.2-0.16,0.44-0.21,0.65-0.23
	c-0.1-0.15,0.03-0.3,0.17-0.42c0.05,0.06,0.11,0.19,0.19,0.13c0.13-0.09,0.57-0.36,0.95-0.51c0.38-0.15,0.88-0.28,1.03-0.31
	c0.09-0.02,0.05-0.14,0.04-0.23c0.18-0.01,0.39,0,0.42,0.2c0.16-0.13,0.38-0.2,0.6-0.21c0.13,0.27,0.15,0.49,0.04,0.86
	c0.31,0.02,0.48,0.29,0.77,0.23c-0.25,0.34-0.55,0.2-0.84,0.16c0.84,0.26,0.99,1.09,1.46,1.14c-0.49,0.39-0.82-0.3-1.25-0.29
	c1.11,0.56,1.12,1.24,1.43,1.25c-0.34,0.31-0.61-0.1-1.06-0.2c0.88,0.58,0.94,1.06,0.87,1.46c0.19,0.18,0.17,0.41,0.18,0.69
	c0.15-0.1,0.4-0.14,0.56-0.19c-0.06,0.06-0.12,0.12-0.17,0.19c-0.45,0.5-0.76,0.99-1.01,1.64c-0.19-0.19-0.39-0.38-0.5-0.48
	c-0.18-0.17-0.35-0.13-0.42-0.12c0.29,0.33,1.24,1.35,1.52,1.67c0.28,0.33,0.25,0.56,0.29,0.81C16.12,11.75,16.43,11.94,16.37,12.11
	z M32.14,16.07c0,0.28,0.23,0.51,0.51,0.51c0.28,0,0.51-0.23,0.51-0.51c0-0.28-0.23-0.51-0.51-0.51
	C32.37,15.55,32.14,15.78,32.14,16.07z M31.97,16.07c0-0.38,0.31-0.69,0.69-0.69c0.38,0,0.69,0.31,0.69,0.69
	c0,0.38-0.31,0.69-0.69,0.69C32.28,16.76,31.97,16.45,31.97,16.07z M29.71,17.32c0.2,0.04,0.38-0.05,0.4-0.2c0-0.01,0-0.02,0-0.03
	c0-0.13-0.13-0.26-0.31-0.29c-0.11-0.02-0.22,0-0.31,0.06c-0.04,0.03-0.09,0.07-0.1,0.14C29.38,17.13,29.52,17.28,29.71,17.32z
	 M29.4,16.7c0.12-0.08,0.28-0.11,0.44-0.09c0.29,0.05,0.5,0.29,0.45,0.53c-0.02,0.12-0.1,0.22-0.22,0.29
	c-0.11,0.06-0.25,0.08-0.39,0.05c-0.14-0.02-0.26-0.09-0.35-0.19c-0.09-0.1-0.13-0.22-0.1-0.35C29.25,16.86,29.31,16.77,29.4,16.7z
	 M25.57,7.4c0,0.04,0.01,0.08,0.04,0.11c0.08,0.1,0.26,0.09,0.39-0.01c0.08-0.06,0.13-0.15,0.14-0.23c0-0.04,0-0.09-0.04-0.14
	c-0.04-0.05-0.09-0.07-0.13-0.07c-0.08-0.01-0.18,0.02-0.26,0.08C25.63,7.21,25.57,7.31,25.57,7.4z M25.61,7
	c0.12-0.09,0.26-0.13,0.39-0.12c0.1,0.01,0.19,0.06,0.24,0.14c0.06,0.07,0.08,0.17,0.07,0.27c-0.02,0.13-0.09,0.26-0.21,0.35
	c-0.21,0.17-0.5,0.16-0.64-0.02C25.33,7.45,25.4,7.17,25.61,7z M28.86,16.34c0.07,0,0.12-0.03,0.16-0.07
	c0.07-0.07,0.11-0.18,0.11-0.29c0-0.2-0.11-0.37-0.26-0.37c-0.07,0-0.12,0.04-0.16,0.07c-0.07,0.07-0.11,0.17-0.11,0.29
	c0,0.12,0.04,0.23,0.1,0.3C28.74,16.3,28.79,16.34,28.86,16.34L28.86,16.34z M28.59,15.55c0.08-0.08,0.18-0.12,0.28-0.12
	c0.12,0,0.23,0.07,0.32,0.17c0.08,0.1,0.12,0.24,0.12,0.38c0,0.16-0.06,0.31-0.17,0.42c-0.08,0.08-0.18,0.12-0.28,0.12
	c-0.1,0-0.2-0.05-0.28-0.13c-0.1-0.1-0.15-0.25-0.15-0.41v-0.01C28.43,15.81,28.49,15.65,28.59,15.55z M25.36,10.64
	c0.1,0.05,0.22,0.06,0.31,0.03c0.04-0.02,0.1-0.05,0.13-0.11c0.03-0.06,0.02-0.13,0-0.17c-0.03-0.09-0.11-0.18-0.21-0.23
	c-0.1-0.05-0.22-0.06-0.31-0.03c-0.04,0.01-0.1,0.05-0.13,0.11C25.09,10.38,25.18,10.56,25.36,10.64z M25.23,9.97
	c0.14-0.05,0.3-0.03,0.44,0.04c0.15,0.07,0.26,0.19,0.31,0.33c0.04,0.11,0.03,0.22-0.01,0.31c-0.04,0.09-0.13,0.16-0.23,0.2
	c-0.14,0.05-0.3,0.04-0.45-0.04c-0.27-0.13-0.4-0.41-0.29-0.63C25.04,10.08,25.12,10,25.23,9.97z M30.21,13.12
	c0.11-0.16,0.1-0.36-0.02-0.45c-0.12-0.09-0.32-0.03-0.43,0.13c-0.11,0.16-0.1,0.36,0.02,0.45C29.91,13.33,30.1,13.28,30.21,13.12z
	 M29.4,14.4c0.11-0.16,0.1-0.36-0.02-0.45c-0.13-0.09-0.32-0.03-0.43,0.13c-0.11,0.16-0.1,0.36,0.02,0.45
	C29.1,14.62,29.29,14.56,29.4,14.4z M29.47,9.01c0.21-0.23,0.63-0.69,0.63-0.69l-0.26-0.21c0.02,0.1,0,0.24-0.03,0.37
	c-0.06-0.05-0.13-0.15-0.12-0.26l-0.21,0.27c0.06,0,0.2,0.02,0.26,0.09c-0.19,0.18-0.35,0.09-0.46,0.02
	c-0.18-0.12-0.26-0.22-0.21-0.31c0.06-0.11,0.26-0.07,0.28,0.1c0.15-0.07,0.18-0.19,0.13-0.29c-0.04-0.08-0.14-0.1-0.25-0.06
	c0.24-0.12,0.36-0.33,0.3-0.59c-0.27,0.05-0.38,0.2-0.45,0.47C29.07,7.81,29,7.71,28.92,7.71c-0.11-0.01-0.2,0.07-0.2,0.24
	c0.16-0.06,0.28,0.11,0.21,0.21c-0.07,0.1-0.2,0.08-0.37-0.02c-0.2-0.12-0.22-0.3-0.12-0.48c0.05,0.05,0.1,0.15,0.09,0.28l0.23-0.38
	c-0.05,0.02-0.15,0.04-0.26,0c0.06-0.07,0.17-0.19,0.32-0.2l-0.45-0.26c0.06,0.14,0.02,0.29-0.01,0.38
	c-0.09-0.07-0.12-0.17-0.13-0.23l-0.21,0.39c0.11-0.07,0.22-0.08,0.29-0.06c-0.11,0.18-0.27,0.25-0.48,0.13
	c-0.18-0.1-0.26-0.2-0.2-0.31c0.06-0.11,0.25-0.1,0.29,0.08c0.14-0.08,0.17-0.2,0.11-0.29c-0.05-0.07-0.16-0.08-0.27-0.04
	c0.19-0.19,0.27-0.36,0.18-0.62c-0.25,0.08-0.37,0.28-0.35,0.55C27.56,6.98,27.49,6.9,27.4,6.9c-0.11,0-0.2,0.09-0.18,0.25
	c0.16-0.07,0.29,0.08,0.22,0.19c-0.05,0.09-0.18,0.07-0.37-0.03c-0.11-0.06-0.27-0.15-0.21-0.41c0.09,0.02,0.18,0.13,0.2,0.18
	l0.13-0.32c-0.09,0.06-0.21,0.05-0.28,0.02c0.1-0.09,0.21-0.18,0.3-0.21L26.9,6.46c0,0-0.18,0.6-0.28,0.89L29.47,9.01z M29.99,11.2
	c0,0.1,0.04,0.21,0.12,0.29c0.08,0.08,0.18,0.14,0.28,0.14c0.05,0,0.11-0.01,0.16-0.06v0c0.05-0.05,0.06-0.11,0.07-0.16
	c0-0.1-0.04-0.21-0.12-0.29c-0.08-0.08-0.18-0.14-0.28-0.14c-0.05,0-0.11,0.01-0.16,0.06C30,11.09,29.99,11.15,29.99,11.2z
	 M31.22,16.89c-0.01,0.04-0.01,0.11,0.03,0.17c0.08,0.12,0.28,0.13,0.45,0.02c0.09-0.06,0.16-0.16,0.18-0.25
	c0.01-0.04,0.01-0.11-0.03-0.17v0c-0.04-0.06-0.1-0.08-0.14-0.09c-0.1-0.02-0.21,0.01-0.3,0.07C31.31,16.7,31.24,16.8,31.22,16.89z
	 M25.36,8.31c0.01-0.1-0.02-0.19-0.08-0.25C25.26,8.03,25.21,8,25.16,7.99c-0.06,0-0.11,0.03-0.13,0.05
	c-0.06,0.06-0.1,0.14-0.11,0.24v0.02c0,0.16,0.09,0.29,0.2,0.29c0.06,0,0.1-0.03,0.13-0.05C25.31,8.5,25.35,8.41,25.36,8.31z
	 M27.17,4.57c0.23-0.14,0.52-0.21,0.85-0.24c-0.2-0.06-0.35-0.23-0.51-0.23C27.17,4.1,27.27,4.38,27.17,4.57z M32.46,9.25
	c0.05,1.19,1.53,0.92,1.31,1.8c-0.03-0.59-2.01-0.53-2.06-1.75c-0.01-0.25,0.06-0.46,0.19-0.59c-0.08-0.06-0.18-0.1-0.32-0.1
	c-0.35,0-0.85,0.37-0.85,0.94c0,1.55,2.05,1.75,2.05,3.45c0,0.35-0.13,0.67-0.39,0.87c0.18,0.02,0.42-0.08,0.54-0.22
	c-0.17,0.65-0.85,0.68-1.06,0.41c-0.03,0-0.06,0-0.09,0c-0.06,0-0.11,0-0.16-0.01c0.13,0.27,0.34,0.53,0.64,0.49
	c-0.6,0.49-1.34-0.17-1.23-0.84c-0.18-0.2-0.3-0.45-0.38-0.63c-0.07-0.15-0.17-0.07-0.16,0.1c0.02,0.53-0.4,1.03-0.4,1.42
	c0,0.39,0.4,0.76,0.53,0.76c0.13,0,0.23-0.15,0.32-0.11c0.09,0.04,0.08,0.16,0.06,0.44c-0.01,0.19,0.02,0.65,0.05,1.14
	c0.04-0.13,0.13-0.25,0.25-0.33c0.14-0.09,0.29-0.12,0.44-0.09c0.11,0.02,0.2,0.08,0.25,0.17c0.04,0.06,0.06,0.14,0.06,0.21
	c0,0.03,0,0.06-0.01,0.09c-0.03,0.14-0.12,0.28-0.26,0.37c-0.12,0.08-0.25,0.11-0.38,0.1c-0.14-0.01-0.25-0.07-0.31-0.18
	c-0.01-0.02-0.02-0.04-0.03-0.06c0.01,0.15,0.01,0.3,0.02,0.44c0,0.36-0.09,0.51-0.25,0.59c-0.01-0.05-0.12-0.16-0.25-0.16
	c-0.11,0-0.19,0.08-0.19,0.15c0,0.16,0.19,0.14,0.19,0.39c0,0.25-0.56,0.56-0.91,0.5c0.05-0.12,0.13-0.52,0.24-0.79
	c-0.11,0.06-0.2,0.23-0.29,0.48c-0.1,0.3-0.23,0.29-0.36,0.21c0.12-0.13,0.38-0.74,0.65-0.93c0.27-0.2,0.41-0.27,0.48-0.73
	c0.07-0.46-0.01-0.74-0.02-1.14c-0.01-0.54-0.24-0.42-0.4-0.42c-0.37,0-1.72-0.88-1.72-1.78c0-0.09,0.01-0.18,0.02-0.28
	c-0.62-0.01-0.96,0.17-0.96,0.74c0,0.2,0.02,0.39,0.17,0.51c0.13,0.11,0.19,0.2-0.03,0.3c-0.24,0.11-2.14,0.9-2.14,0.9
	c-0.24,0.09-0.27-0.01-0.37-0.13c-0.1-0.12-0.21-0.17-0.33-0.09c-0.13,0.08,0.09,0.17,0.09,0.31c0,0.13-0.06,0.46-0.93,0.4
	l0.21-0.35c0.06-0.12,0.09-0.2,0.04-0.21c-0.05-0.01-0.1,0.08-0.17,0.19l-0.25,0.33c-0.14,0.01-0.28-0.02-0.28-0.02
	c0.33-0.33,0.52-0.51,0.7-0.69c0.18-0.18,0.4-0.27,0.78-0.33c0.45-0.07,1.93-0.27,1.93-0.75c0-0.56-0.62-0.52-0.62-1.26
	c0-0.65,0.28-1.34,2.04-1.31c-0.15-0.42-0.6-0.74-1.03-0.84c-0.88-0.22-1.14-0.83-1.21-1.47c-0.25-0.01-0.49-0.02-0.68-0.04
	c-0.55-0.03-0.82-0.2-0.95-0.09c-0.05,0.05-0.1,0.12-0.02,0.25c0.08,0.13,0.26,0.46,0.41,0.68c0.11,0.01,0.28,0.03,0.3,0.17
	c0.02,0.14-0.08,0.16-0.11,0.23c-0.02,0.07,0.03,0.13,0.1,0.13c0.07,0,0.11-0.06,0.1-0.11c0.07-0.06,0.26-0.06,0.44-0.01
	c0.14,0.15,0.36,0.41,0.43,0.65c-0.21-0.09-0.51-0.19-0.62-0.19c-0.11,0-0.09,0.04,0.01,0.07c0.09,0.03,0.33,0.12,0.4,0.2
	l-0.02,0.24c-0.05-0.06-0.48-0.3-0.73-0.41c-0.25-0.1-0.4-0.15-0.54-0.47c-0.13-0.32-0.52-1.03-0.68-1.3
	c-0.11-0.19-0.07-0.26-0.02-0.32c0.05-0.06,0.1-0.14,0.14-0.2c0.1-0.16,0.13-0.13,0.29-0.11c0.15,0.01,0.5,0.02,0.66-0.04
	c0.04-0.01,0.07-0.03,0.11-0.04c-0.36-0.4-0.8-0.97-0.84-1.05c-0.07-0.1-0.16-0.15-0.23-0.15c-0.07,0-0.14,0.01-0.2,0.06
	c-0.02,0.02-0.06,0.04-0.09,0.07C23.54,8.04,23.5,8,23.47,7.96c-0.06-0.07-0.13-0.14-0.19-0.21c0.14-0.11,0.26-0.2,0.3-0.24
	c0.09-0.08,0.14-0.14,0.22-0.14c0.08,0,0.19,0,0.24,0c0.12,0,0.18,0.03,0.23,0.1c0.13,0.15,0.35,0.31,0.53,0.45
	c0.02,0.01,0.04,0.03,0.06,0.05c0.01-0.02,0.03-0.04,0.05-0.05c0.08-0.07,0.17-0.1,0.26-0.1c0.09,0.01,0.18,0.05,0.25,0.13
	c0.09,0.1,0.13,0.24,0.12,0.38c0,0.05-0.01,0.1-0.03,0.15c0.14,0.12,0.26,0.23,0.39,0.36c0.06-0.49,0.31-0.97,0.63-1.39l-0.05-0.03
	c0,0,0.03-0.09,0.03-0.09c0.07-0.22,0.19-0.61,0.24-0.79c0.02-0.07,0.03-0.1,0.03-0.1l0.04-0.12l0.54,0.21
	c0.02-0.02,0.03-0.03,0.05-0.05c0.47-0.45,1.61-0.76,1.61-1.41c0-0.16-0.05-0.36-0.22-0.49c0.08,0.1,0.09,0.24,0.07,0.38
	C28.85,5.12,28.6,5.5,28.14,5.5c-0.25,0-0.42-0.24-0.51-0.24c-0.05,0-0.12,0.04-0.19,0.1c0.02,0.34-0.12,0.52-0.26,0.55
	c0.05-0.14,0.01-0.38-0.03-0.35c-0.04,0.03-0.09,0.07-0.1,0.27c-0.01,0.19-0.18,0.45-0.44,0.48c0.05-0.08,0.14-0.4,0.08-0.44
	c-0.05-0.05-0.14,0.09-0.21,0.09s-0.12-0.07-0.13-0.14c-0.01-0.07-0.14,0-0.17-0.07c-0.03-0.07,0.16-0.2,0.32-0.26
	c0.17-0.07,0.42-0.18,0.38-0.27c-0.07-0.17-0.57,0.1-0.79,0.23c-0.33,0.2-0.19-0.07-0.23-0.18c-0.13-0.29-0.01-0.32,0.13-0.45
	c0.19-0.17,0.56-0.43,0.99-0.65c0-0.14,0.09-0.26,0.2-0.3c0.18-0.07,0.35-0.14,0.52-0.2l-2.31-2.91c-0.05-0.05-0.05-0.1-0.03-0.13
	c0.02-0.03,0.07-0.01,0.14,0.07l2.69,2.65c0.06-0.18,0.12-0.4,0.06-0.64c0.32,0.16,0.61,0.48,0.66,0.79
	c0.83-0.01,1.05,0.51,1.3,0.33c0.04,0.13-0.1,0.26-0.34,0.31c0.95,0.25,0.7,0.95,1.25,1.02c-0.09,0.1-0.21,0.14-0.41,0.07
	c0.6,0.88,0,1.45,0.46,1.86c-0.17,0.05-0.42-0.1-0.59-0.38c0.18,0.72-0.09,1.12,0.04,1.42c-0.2,0.06-0.35-0.12-0.42-0.41
	c-0.04,0.16-0.09,0.3-0.15,0.44l0.22,0.18L30.19,8.4l0,0l-0.02,0.02C29.81,8.81,29.64,9,29.56,9.09L29.5,9.16
	c0,0-0.07-0.04-0.08-0.04c-0.23,0.29-0.42,0.53-0.42,0.81c0,0.31,0.41,0.88,0.86,1.47c-0.02-0.06-0.03-0.12-0.03-0.18v-0.02
	c0-0.11,0.05-0.21,0.12-0.28c0.07-0.07,0.18-0.11,0.29-0.11c0.14,0,0.29,0.07,0.4,0.19c0.11,0.12,0.17,0.26,0.17,0.4v0.02
	c0,0.11-0.05,0.21-0.12,0.28c-0.07,0.07-0.18,0.11-0.29,0.11c-0.11,0-0.21-0.04-0.31-0.11c0.32,0.42,0.62,0.81,0.76,1.11
	c0.29,0.61,0.57,1,0.92,1c0.39,0,0.73-0.28,0.73-0.75c0-1.58-2.06-1.74-2.06-3.52c0-0.83,0.71-1.23,1.13-1.23
	c0.28,0,0.47,0.07,0.64,0.25c0.05-0.01,0.1-0.02,0.16-0.02c0.98,0,0.36,1.31,1.12,1.39C33.13,10.1,32.68,9.87,32.46,9.25z M0,56
	h1.31V0H0V56z"/>
</svg>
