<svg xmlns="http://www.w3.org/2000/svg" width="138" height="20" viewBox="0 0 138 20">
<path fill="#25222C" d="M36.97,16.38V10.5c0-3.88-2.89-4.56-4.91-4.56c-1.83,0-3.19,0.56-4.55,1.81l0.95,1.19
	c0.95-0.81,1.96-1.43,3.49-1.43c1.3,0,2.54,1.06,2.66,2.68l-3.2,1c-2.78,0.81-4.73,2.31-4.73,4.63c0,2.5,1.54,4.12,3.78,4.12
	c1.24,0,2.36-0.81,3.32-1.75l0.82-0.81c0,0.87,0.06,1.68,0.35,2.25h2.6C37.09,18.69,36.97,17.38,36.97,16.38z M31.06,18.13
	c-0.95,0-1.89-0.88-1.89-2.25c0-1.68,1.07-2.69,3.19-3.31l2.25-0.75C34.91,16,32.77,18.13,31.06,18.13z M116.31,12.57
	c0,4.12-3.2,7.43-7.1,7.43c-3.9,0-7.1-3.31-7.1-7.43c0-4.13,3.2-7.44,7.1-7.44C113.18,5.18,116.31,8.5,116.31,12.57z M55.84,19.69
	h2.36V6.31h-2.36V19.69z M5.09,12l5.56,6.82l-2.36,1.13l-5.86-7.57H2.36v7.32H0V0h2.36v11.68h0.47l5.21-5.69l1.77,1L5.09,12z
	 M58.57,1.87c0,0.69-0.35,1.63-1.54,1.63s-1.47-0.87-1.54-1.63c0-0.69,0.59-1.44,1.54-1.44C58.04,0.43,58.57,1.19,58.57,1.87z
	 M137.55,16.19c0,2.25-2.19,3.75-4.62,3.75c-1.47,0-3.19-0.69-4.08-1.69l1.19-1.37c0.77,0.75,1.77,1.31,2.84,1.31
	c1.12,0,2.25-0.56,2.25-1.87c0-1.57-1.36-2.19-2.6-3.13c-1.48-1.12-2.85-2-2.85-3.81c0-2.13,2.08-3.44,4.38-3.44
	c1.3,0,2.54,0.56,3.25,1.25l-0.89,1.24c-0.95-0.63-1.71-0.87-2.43-0.87c-0.82,0-1.95,0.37-1.95,1.5c0,1.13,1.24,1.68,2.72,2.81
	C136.48,13.18,137.55,14.31,137.55,16.19z M88.68,11v8.69h-2.36v-8.13c0-2.5-1.07-3.81-3.2-3.81c-1.89,0-3.61,1.31-3.61,3.88v8.06
	h-2.37V6.31h2.37l-0.06,1.63c1.24-1.31,3.14-2,4.56-2C87.09,5.94,88.68,7.62,88.68,11z"/>
</svg>
