<svg xmlns="http://www.w3.org/2000/svg" width="166" height="24" viewBox="0 0 166 24">
<path d="M44.37,19.65V12.6c0-4.65-3.47-5.48-5.89-5.48c-2.19,0-3.83,0.67-5.46,2.17l1.13,1.42
	C35.28,9.74,36.49,9,38.34,9c1.56,0,3.05,1.27,3.19,3.22l-3.84,1.2c-3.34,0.98-5.67,2.77-5.67,5.56c0,3,1.85,4.95,4.54,4.95
	c1.49,0,2.84-0.98,3.98-2.1l0.99-0.98c0,1.05,0.07,2.02,0.42,2.7h3.13C44.51,22.43,44.37,20.85,44.37,19.65z M37.27,21.76
	c-1.13,0-2.27-1.06-2.27-2.7c0-2.02,1.28-3.23,3.83-3.97l2.7-0.9C41.89,19.2,39.33,21.76,37.27,21.76z M139.58,15.08
	c0,4.95-3.84,8.92-8.52,8.92c-4.68,0-8.52-3.97-8.52-8.92c0-4.96,3.84-8.93,8.52-8.93C135.82,6.22,139.58,10.2,139.58,15.08z
	 M67.01,23.62h2.84V7.57h-2.84V23.62z M6.11,14.4l6.67,8.18l-2.84,1.35l-7.03-9.09H2.84v8.78H0V0h2.84v14.02H3.4l6.25-6.83l2.12,1.2
	L6.11,14.4z M70.28,2.24c0,0.82-0.42,1.95-1.85,1.95c-1.42,0-1.77-1.05-1.85-1.95c0-0.82,0.71-1.73,1.85-1.73
	C69.65,0.52,70.28,1.42,70.28,2.24z M165.06,19.43c0,2.7-2.62,4.5-5.54,4.5c-1.77,0-3.83-0.82-4.89-2.03l1.42-1.65
	c0.92,0.9,2.12,1.57,3.4,1.57c1.35,0,2.7-0.67,2.7-2.24c0-1.88-1.64-2.63-3.13-3.76c-1.78-1.34-3.41-2.4-3.41-4.57
	c0-2.55,2.49-4.13,5.26-4.13c1.56,0,3.05,0.67,3.9,1.5l-1.07,1.49c-1.13-0.75-2.06-1.05-2.91-1.05c-0.99,0-2.34,0.45-2.34,1.8
	c0,1.35,1.49,2.02,3.26,3.37C163.78,15.82,165.06,17.17,165.06,19.43z M106.42,13.2v10.43h-2.84v-9.76c0-3-1.28-4.57-3.84-4.57
	c-2.27,0-4.33,1.57-4.33,4.65v9.67h-2.85V7.57h2.85l-0.08,1.95c1.49-1.57,3.77-2.4,5.47-2.4C104.51,7.12,106.42,9.14,106.42,13.2z"/>
</svg>
