<svg xmlns="http://www.w3.org/2000/svg" width="138px" height="20px" viewBox="0 0 138 20">
  <path d="m36.97 16.38v-5.88c0-3.88-2.89-4.56-4.91-4.56-1.83 0-3.19.56-4.55 1.81l.95 1.19c.95-.81 1.96-1.43 3.49-1.43 1.3 0 2.54 1.06 2.66 2.68l-3.2 1c-2.78.81-4.73 2.31-4.73 4.63 0 2.5 1.54 4.12 3.78 4.12 1.24 0 2.36-.81 3.32-1.75l.82-.81c0 .87.06 1.68.35 2.25h2.6c-.46-.94-.58-2.25-.58-3.25zm-5.91 1.75c-.95 0-1.89-.88-1.89-2.25 0-1.68 1.07-2.69 3.19-3.31l2.25-.75c.3 4.18-1.84 6.31-3.55 6.31zm85.25-5.56c0 4.12-3.2 7.43-7.1 7.43s-7.1-3.31-7.1-7.43c0-4.13 3.2-7.44 7.1-7.44 3.97.05 7.1 3.37 7.1 7.44zm-60.47 7.12h2.36v-13.38h-2.36zm-50.75-7.69 5.56 6.82-2.36 1.13-5.86-7.57h-.07v7.32h-2.36v-19.7h2.36v11.68h.47l5.21-5.69 1.77 1zm53.48-10.13c0 .69-.35 1.63-1.54 1.63s-1.47-.87-1.54-1.63c0-.69.59-1.44 1.54-1.44 1.01 0 1.54.76 1.54 1.44zm78.98 14.32c0 2.25-2.19 3.75-4.62 3.75-1.47 0-3.19-.69-4.08-1.69l1.19-1.37c.77.75 1.77 1.31 2.84 1.31 1.12 0 2.25-.56 2.25-1.87 0-1.57-1.36-2.19-2.6-3.13-1.48-1.12-2.85-2-2.85-3.81 0-2.13 2.08-3.44 4.38-3.44 1.3 0 2.54.56 3.25 1.25l-.89 1.24c-.95-.63-1.71-.87-2.43-.87-.82 0-1.95.37-1.95 1.5s1.24 1.68 2.72 2.81c1.72 1.31 2.79 2.44 2.79 4.32zm-48.87-5.19v8.69h-2.36v-8.13c0-2.5-1.07-3.81-3.2-3.81-1.89 0-3.61 1.31-3.61 3.88v8.06h-2.37v-13.38h2.37l-.06 1.63c1.24-1.31 3.14-2 4.56-2 3.08 0 4.67 1.68 4.67 5.06z" fill="currentColor"></path>
</svg>