<svg xmlns="http://www.w3.org/2000/svg" width="147" height="24" viewBox="0 0 147 24">
<path d="M142.63,9.61h-0.39v1.97h0.39c0.41,0,0.73-0.08,0.94-0.25c0.22-0.17,0.33-0.41,0.33-0.73
	c0-0.32-0.11-0.56-0.33-0.73C143.36,9.7,143.04,9.61,142.63,9.61z M99.5,9.69h-0.69v1.99h0.69c0.76,0,1.15-0.33,1.15-0.99
	C100.65,10.02,100.27,9.69,99.5,9.69z M107.99,9.8c-0.3,0-0.59,0.05-0.86,0.16c-0.27,0.11-0.51,0.26-0.72,0.46
	c-0.21,0.2-0.37,0.43-0.49,0.7c-0.12,0.27-0.18,0.56-0.18,0.88c0,0.32,0.06,0.61,0.18,0.88c0.12,0.27,0.28,0.5,0.49,0.7
	c0.21,0.2,0.44,0.35,0.72,0.46c0.27,0.11,0.56,0.16,0.86,0.16c0.3,0,0.59-0.05,0.86-0.16c0.27-0.11,0.51-0.26,0.72-0.46
	c0.21-0.2,0.37-0.43,0.49-0.7c0.12-0.27,0.18-0.56,0.18-0.88c0-0.32-0.06-0.61-0.18-0.88c-0.12-0.27-0.28-0.5-0.49-0.7
	c-0.21-0.2-0.45-0.35-0.72-0.46C108.58,9.86,108.29,9.8,107.99,9.8z M128.33,9.77h-0.48v4.46h0.48c0.36,0,0.68-0.06,0.97-0.17
	c0.28-0.11,0.52-0.27,0.72-0.47c0.19-0.2,0.34-0.43,0.45-0.7c0.1-0.27,0.15-0.57,0.15-0.89c0-0.32-0.05-0.61-0.16-0.89
	c-0.11-0.27-0.26-0.51-0.45-0.71c-0.19-0.2-0.43-0.35-0.72-0.47C129,9.83,128.68,9.77,128.33,9.77z M143.4,8.02
	c0.45,0,0.83,0.07,1.17,0.2c0.33,0.13,0.61,0.31,0.82,0.53c0.22,0.23,0.38,0.49,0.49,0.78c0.11,0.3,0.16,0.61,0.16,0.95
	c0,0.61-0.15,1.1-0.44,1.47c-0.29,0.38-0.73,0.63-1.3,0.77l2.51,3.27h-2.59l-1.98-3.06v3.06h-2.08V8.02H143.4z M138.67,8.02v1.75
	h-2.47v1.33h2.33v1.75h-2.33v1.37h2.47v1.75h-4.55V8.02H138.67z M128.85,8.02c0.54,0,1.06,0.11,1.53,0.33
	c0.48,0.22,0.89,0.51,1.25,0.87c0.36,0.36,0.64,0.79,0.84,1.27c0.2,0.48,0.31,0.99,0.31,1.52c0,0.52-0.1,1.02-0.3,1.51
	c-0.2,0.48-0.48,0.91-0.84,1.27c-0.36,0.37-0.77,0.66-1.25,0.88c-0.48,0.22-0.99,0.33-1.54,0.33h-3.08V8.02H128.85z M114.95,8.02
	l1.38,5.15l1.7-5.15h1.66l1.7,5.15l1.38-5.15h2.18l-2.39,7.97h-2.12l-1.57-4.62l-1.57,4.62h-2.12l-2.39-7.97H114.95z M100.04,8.02
	c0.9,0,1.59,0.23,2.06,0.7c0.48,0.47,0.72,1.12,0.72,1.97c0,0.85-0.24,1.5-0.72,1.97c-0.48,0.47-1.17,0.7-2.06,0.7h-1.23v2.64h-2.08
	V8.02H100.04z M107.99,7.79c0.64,0,1.24,0.11,1.78,0.32c0.54,0.21,1.01,0.51,1.41,0.89c0.39,0.38,0.7,0.83,0.92,1.34
	c0.22,0.51,0.33,1.06,0.33,1.65c0,0.59-0.11,1.14-0.33,1.65c-0.22,0.51-0.53,0.96-0.92,1.34c-0.39,0.38-0.86,0.68-1.41,0.89
	c-0.54,0.21-1.14,0.32-1.78,0.32c-0.65,0-1.25-0.11-1.79-0.32c-0.54-0.21-1.01-0.51-1.4-0.89c-0.39-0.38-0.69-0.83-0.91-1.34
	c-0.22-0.51-0.33-1.06-0.33-1.65c0-0.59,0.11-1.14,0.33-1.65c0.22-0.51,0.52-0.96,0.91-1.34c0.39-0.38,0.85-0.68,1.4-0.89
	C106.74,7.9,107.34,7.79,107.99,7.79z M50.97,6.87c-0.74,0-1.42,0.13-2.06,0.4c-0.63,0.26-1.18,0.63-1.64,1.1
	c-0.46,0.47-0.82,1.01-1.08,1.61c-0.27,0.6-0.4,1.26-0.4,1.96c0,0.73,0.13,1.42,0.4,2.05c0.27,0.63,0.63,1.18,1.08,1.65
	c0.46,0.47,1,0.84,1.64,1.1c0.63,0.26,1.32,0.4,2.06,0.4c0.71,0,1.38-0.13,2.01-0.4c0.63-0.26,1.18-0.63,1.64-1.1
	c0.46-0.47,0.82-1.01,1.11-1.63c0.28-0.62,0.42-1.28,0.42-1.98c0-0.7-0.14-1.37-0.42-2c-0.28-0.63-0.65-1.18-1.11-1.65
	c-0.46-0.47-1-0.84-1.64-1.1C52.35,7,51.68,6.87,50.97,6.87z M74.36,0.7l5.97,6.03L86.3,0.7h10.43L85.55,12l11.19,11.3H86.3
	l-5.97-6.03l-5.97,6.03H63.93L75.11,12L63.93,0.7H74.36z M48.85,0c2.83,0,5.17,0.98,7.03,2.95V0.7h8.05V23.3h-8.05v-2.51
	C54.17,22.93,51.86,24,48.94,24c-1.65,0-3.17-0.3-4.55-0.9c-1.39-0.6-2.59-1.45-3.63-2.53c-1.02-1.07-1.81-2.33-2.39-3.78v6.51h-8
	V9.75c0-1.98-1.61-3.59-3.6-3.59c-1.99,0-3.6,1.61-3.6,3.59V23.3h-8V9.72c0-1.97-1.6-3.57-3.58-3.57C9.61,6.16,8,7.75,8,9.72V23.3H0
	V0.7h8v2.77c2.18-2.08,4.63-3.13,7.34-3.13c3.36,0,5.92,1.41,7.69,4.23c1.8-2.85,4.36-4.27,7.69-4.27c1.06,0,2.06,0.15,3.01,0.46
	c0.94,0.31,1.75,0.79,2.43,1.45c0.68,0.66,1.22,1.52,1.61,2.58c0.28,0.74,0.46,1.6,0.54,2.56l0.01-0.03
	c0.56-1.45,1.34-2.72,2.34-3.81c1-1.09,2.2-1.94,3.58-2.58C45.64,0.32,47.17,0,48.85,0z"/>
</svg>
