<svg xmlns="http://www.w3.org/2000/svg" width="147px" height="24px" viewBox="0 0 147 24"><path d="m142.63 9.61h-.39v1.97h.39c.41 0 .73-.08.94-.25.22-.17.33-.41.33-.73s-.11-.56-.33-.73c-.21-.17-.53-.26-.94-.26zm-43.13.08h-.69v1.99h.69c.76 0 1.15-.33 1.15-.99 0-.67-.38-1-1.15-1zm8.49.11c-.3 0-.59.05-.86.16s-.51.26-.72.46-.37.43-.49.7-.18.56-.18.88.06.61.18.88.28.5.49.7.44.35.72.46c.27.11.56.16.86.16s.59-.05.86-.16.51-.26.72-.46.37-.43.49-.7.18-.56.18-.88-.06-.61-.18-.88-.28-.5-.49-.7-.45-.35-.72-.46c-.27-.1-.56-.16-.86-.16zm20.34-.03h-.48v4.46h.48c.36 0 .68-.06.97-.17.28-.11.52-.27.72-.47.19-.2.34-.43.45-.7.1-.27.15-.57.15-.89s-.05-.61-.16-.89c-.11-.27-.26-.51-.45-.71s-.43-.35-.72-.47c-.29-.1-.61-.16-.96-.16zm15.07-1.75c.45 0 .83.07 1.17.2.33.13.61.31.82.53.22.23.38.49.49.78.11.3.16.61.16.95 0 .61-.15 1.1-.44 1.47-.29.38-.73.63-1.3.77l2.51 3.27h-2.59l-1.98-3.06v3.06h-2.08v-7.97zm-4.73 0v1.75h-2.47v1.33h2.33v1.75h-2.33v1.37h2.47v1.75h-4.55v-7.95zm-9.82 0c.54 0 1.06.11 1.53.33.48.22.89.51 1.25.87s.64.79.84 1.27.31.99.31 1.52c0 .52-.1 1.02-.3 1.51-.2.48-.48.91-.84 1.27-.36.37-.77.66-1.25.88s-.99.33-1.54.33h-3.08v-7.98zm-13.9 0 1.38 5.15 1.7-5.15h1.66l1.7 5.15 1.38-5.15h2.18l-2.39 7.97h-2.12l-1.57-4.62-1.57 4.62h-2.12l-2.39-7.97zm-14.91 0c.9 0 1.59.23 2.06.7.48.47.72 1.12.72 1.97s-.24 1.5-.72 1.97-1.17.7-2.06.7h-1.23v2.64h-2.08v-7.98zm7.95-.23c.64 0 1.24.11 1.78.32s1.01.51 1.41.89c.39.38.7.83.92 1.34s.33 1.06.33 1.65-.11 1.14-.33 1.65-.53.96-.92 1.34-.86.68-1.41.89c-.54.21-1.14.32-1.78.32-.65 0-1.25-.11-1.79-.32s-1.01-.51-1.4-.89-.69-.83-.91-1.34-.33-1.06-.33-1.65.11-1.14.33-1.65.52-.96.91-1.34.85-.68 1.4-.89c.54-.21 1.14-.32 1.79-.32zm-57.02-.92c-.74 0-1.42.13-2.06.4-.63.26-1.18.63-1.64 1.1s-.82 1.01-1.08 1.61c-.27.6-.4 1.26-.4 1.96 0 .73.13 1.42.4 2.05s.63 1.18 1.08 1.65c.46.47 1 .84 1.64 1.1.63.26 1.32.4 2.06.4.71 0 1.38-.13 2.01-.4.63-.26 1.18-.63 1.64-1.1s.82-1.01 1.11-1.63c.28-.62.42-1.28.42-1.98s-.14-1.37-.42-2-.65-1.18-1.11-1.65-1-.84-1.64-1.1c-.63-.28-1.3-.41-2.01-.41zm23.39-6.17 5.97 6.03 5.97-6.03h10.43l-11.18 11.3 11.19 11.3h-10.44l-5.97-6.03-5.97 6.03h-10.43l11.18-11.3-11.18-11.3zm-25.51-.7c2.83 0 5.17.98 7.03 2.95v-2.25h8.05v22.6h-8.05v-2.51c-1.71 2.14-4.02 3.21-6.94 3.21-1.65 0-3.17-.3-4.55-.9-1.39-.6-2.59-1.45-3.63-2.53-1.02-1.07-1.81-2.33-2.39-3.78v6.51h-8v-13.55c0-1.98-1.61-3.59-3.6-3.59s-3.6 1.61-3.6 3.59v13.55h-8v-13.58c0-1.97-1.6-3.57-3.58-3.57-1.98.01-3.59 1.6-3.59 3.57v13.58h-8v-22.6h8v2.77c2.18-2.08 4.63-3.13 7.34-3.13 3.36 0 5.92 1.41 7.69 4.23 1.8-2.85 4.36-4.27 7.69-4.27 1.06 0 2.06.15 3.01.46.94.31 1.75.79 2.43 1.45s1.22 1.52 1.61 2.58c.28.74.46 1.6.54 2.56l.01-.03c.56-1.45 1.34-2.72 2.34-3.81s2.2-1.94 3.58-2.58c1.4-.61 2.93-.93 4.61-.93z" fill="currentColor"></path></svg>