<svg xmlns="http://www.w3.org/2000/svg" width="39px" height="56px" viewBox="0 0 39 56"><path d="M26.4,17.2l0.8-3.8c-0.2,0-0.3-0.1-0.4-0.3c-0.3,0.4-1.1,1-1.7,1c0,0,0,0-0.1,0 c-0.2,0-0.4-0.1-0.5-0.2c0.1-0.2,0.1-0.5,0-0.6l0,0c0,0,0,0,0,0c0,0.1,0,0.2-0.1,0.2c0,0,0,0-0.1,0c-0.1,0-0.1,0-0.2-0.1 S24,13.4,24,13.3s0-0.1,0-0.1l0.1,0h0c0.1,0,0.1-0.1,0.1-0.1c0-0.1,0-0.2-0.1-0.2l-0.1,0c0,0,0-0.1,0.1-0.2c0.1-0.1,0.2-0.2,0.3-0.2 c0,0,0,0,0,0c0.1,0,0.1,0,0.2,0.1c0,0.1,0.1,0.1,0.1,0.3c0,0,0,0.1,0,0.1c0,0,0,0,0.1,0s0.2,0,0.3-0.1c0.1-0.1,0.2-0.2,0.2-0.3 c0,0,0-0.1,0-0.1c0.1-0.3,0-0.6-0.2-0.8c-0.1-0.1-0.2-0.1-0.4-0.1c-0.1,0-0.3,0.1-0.4,0.1C24.2,11.8,24,12,24,12.2v0 c0,0.1-0.1,0.2-0.1,0.3c0,0.1,0,0.1,0,0.2h-0.1c0-0.1,0-0.1,0-0.2c0-0.1,0.1-0.2,0.1-0.3c0.1-0.3,0.2-0.5,0.3-0.7 c0.1-0.1,0.1-0.3,0.1-0.5c0-0.2,0-0.3-0.1-0.5c-0.1-0.2-0.4-1.1-0.4-1.1s-0.6,0.7-0.6,0.9c-0.1,0.1-0.1,0.3-0.2,0.4 c0,0.2,0,0.4,0,0.6c0.1,0.3,0.1,0.6,0.1,0.9c0,0.1,0,0.3,0,0.4c0,0.1,0,0.1,0,0.2h-0.1c0-0.1,0-0.1,0-0.2c0-0.1,0-0.3,0-0.4v0 c0-0.3-0.1-0.5-0.2-0.7c-0.1-0.1-0.2-0.3-0.3-0.3c-0.1,0-0.1,0-0.2,0s-0.1,0-0.2,0c-0.2,0.1-0.4,0.4-0.4,0.7c0,0,0,0.1,0,0.1 c0,0.1,0.1,0.3,0.1,0.4s0.2,0.2,0.3,0.2c0,0,0,0,0,0c0,0,0-0.1,0-0.1c0-0.1,0.1-0.1,0.1-0.2c0,0,0.1,0,0.1,0s0.1,0,0.1,0 c0.1,0.1,0.2,0.2,0.3,0.4c0,0.1,0,0.1,0,0.2l-0.1,0h0c-0.1,0-0.1,0.1-0.1,0.1c0,0.1,0,0.2,0.1,0.2l0.1,0c0,0,0,0.1,0,0.1 c0,0.1-0.1,0.1-0.1,0.2s-0.1,0-0.1,0c-0.1,0-0.1,0-0.1-0.1c-0.1-0.1-0.1-0.1,0-0.3c0,0,0,0,0,0h0c-0.2,0.1-0.3,0.3-0.1,0.6 c-0.1,0-0.3,0.1-0.5,0.1c-0.1,0-0.2,0-0.3,0c-1-0.1-1.5-1-1.7-1.5c0,0-0.1,0-0.1,0s-0.1,0-0.2,0c-0.1,0-0.2,0-0.3-0.1 c-0.2,0.5-0.7,1.4-1.7,1.5c-0.1,0-0.2,0-0.3,0c-0.2,0-0.3,0-0.5-0.1c0.2-0.3,0.1-0.5-0.1-0.6h0c0,0,0,0,0,0c0,0.1,0,0.2,0,0.3 c0,0-0.1,0.1-0.1,0.1s-0.1,0-0.1,0s-0.1-0.1-0.1-0.2c0-0.1,0-0.1,0-0.1l0.1,0c0.1,0,0.1-0.1,0.1-0.2c0-0.1-0.1-0.1-0.1-0.1h0l-0.1,0 c0,0,0-0.1,0-0.2c0-0.1,0.1-0.3,0.3-0.4c0,0,0.1,0,0.1,0s0.1,0,0.1,0c0.1,0,0.1,0.1,0.1,0.2c0,0,0,0.1,0,0.1c0.1,0,0.3-0.1,0.3-0.2 c0-0.1,0.1-0.3,0.1-0.4c0,0,0-0.1,0-0.1c0-0.3-0.2-0.6-0.4-0.7c-0.1,0-0.1,0-0.2,0s-0.1,0-0.2,0c-0.1,0.1-0.3,0.2-0.3,0.3 c-0.1,0.2-0.2,0.5-0.2,0.7v0c0,0.1,0,0.3,0,0.4c0,0.1,0,0.1,0,0.2h-0.1c0-0.1,0-0.1,0-0.2c0-0.1,0-0.3,0-0.4c0-0.3,0.1-0.6,0.1-0.9 c0-0.2,0-0.4,0-0.6c0-0.2-0.1-0.3-0.2-0.4C15.5,10,15,9.3,15,9.3s-0.3,0.9-0.4,1.1c0,0.1-0.1,0.3-0.1,0.5c0,0.2,0.1,0.4,0.1,0.5 c0.1,0.3,0.3,0.5,0.3,0.7c0,0.1,0.1,0.2,0.1,0.3c0,0.1,0,0.1,0,0.2h-0.1c0,0,0-0.1,0-0.2c0-0.1-0.1-0.2-0.1-0.3v0 c-0.1-0.2-0.2-0.4-0.4-0.6c-0.1-0.1-0.3-0.1-0.4-0.1s-0.3,0.1-0.4,0.1c-0.2,0.2-0.3,0.5-0.2,0.8c0,0,0,0.1,0,0.1 c0,0.1,0.1,0.2,0.2,0.3c0.1,0,0.2,0.1,0.3,0.1c0,0,0.1,0,0.1,0c0,0,0-0.1,0-0.1c0-0.1,0-0.2,0.1-0.3c0-0.1,0.1-0.1,0.2-0.1 c0,0,0,0,0,0c0.1,0,0.3,0.1,0.3,0.2c0,0.1,0.1,0.1,0.1,0.2l-0.1,0c-0.1,0-0.1,0.1-0.1,0.2c0,0.1,0.1,0.1,0.1,0.1c0,0,0,0,0,0l0.1,0 c0,0,0,0.1,0,0.1s0,0.2-0.1,0.2c0,0.1-0.1,0.1-0.2,0.1c0,0,0,0-0.1,0c-0.1,0-0.1-0.1-0.1-0.2c0,0,0,0,0,0c0,0,0,0,0,0 c-0.1,0.1-0.1,0.4,0,0.6c-0.1,0.1-0.3,0.1-0.5,0.2c0,0,0,0-0.1,0c-0.6,0-1.4-0.7-1.7-1c-0.1,0.1-0.3,0.2-0.4,0.3l0.8,3.8 c2.2-0.9,4.6-1.3,7-1.3C21.8,15.9,24.2,16.3,26.4,17.2z M19.4,16.4c-2.4,0-4.7,0.4-6.9,1.3c0,0-0.1,0-0.1,0s-0.1,0-0.1,0 c-0.3,0.2-0.5,0.6-0.3,1c0.1,0.3,0.4,0.5,0.7,0.5c0.1,0,0.2,0,0.3-0.1c2.1-0.9,4.2-1.3,6.5-1.3c2.2,0,4.4,0.4,6.5,1.3 c0.1,0,0.2,0.1,0.3,0.1c0.3,0,0.6-0.2,0.7-0.5c0.1-0.4,0-0.7-0.3-1c0,0-0.1,0-0.1,0s-0.1,0-0.1,0C24.1,16.8,21.8,16.4,19.4,16.4z M4.1,28.6c0.9-2,2-3.7,3.6-5.3c1.5-1.5,3.3-2.7,5.3-3.6c2-0.9,4.2-1.3,6.4-1.3c2.2,0,4.4,0.4,6.4,1.3c2,0.9,3.7,2,5.3,3.6 c1.5,1.5,2.7,3.3,3.6,5.3c0.9,2,1.3,4.2,1.3,6.4c0,2.2-0.4,4.4-1.3,6.4c-0.9,2-2,3.7-3.6,5.3c-1.5,1.5-3.3,2.7-5.3,3.6 c-2,0.9-4.2,1.3-6.4,1.3c-2.2,0-4.4-0.4-6.4-1.3c-2-0.9-3.7-2-5.3-3.6c-1.5-1.5-2.7-3.3-3.6-5.3c-0.9-2-1.3-4.2-1.3-6.4 C2.8,32.7,3.3,30.6,4.1,28.6z M19.4,18.9c-7.6,0-13.9,5.2-15.6,12.3c0,0,0,0.1,0,0.1v0c0,0,0,0.1,0,0.1c-0.3,1.1-0.4,2.3-0.4,3.5 c0,8.9,7.2,16.1,16.1,16.1c8.9,0,16.1-7.2,16.1-16.1C35.4,26.1,28.3,18.9,19.4,18.9z M18.6,54c0,1.1,0.8,2,0.8,2s0.8-0.9,0.8-2 c0-1.1-0.8-2-0.8-2S18.6,53,18.6,54z M16.6,52.3c-1,0.5-1.3,1.7-1.3,1.7s1.2,0.3,2.1-0.2c1-0.5,1.3-1.7,1.3-1.7S17.6,51.7,16.6,52.3 z M16.3,51.8c0,0-1.1-0.5-2.1-0.1c-1,0.4-1.6,1.4-1.6,1.4s1.1,0.5,2.1,0.1C15.8,52.9,16.3,51.8,16.3,51.8z M13.9,51.2 c0,0-1-0.6-2.1-0.4C10.7,51,10,52,10,52s1,0.6,2.1,0.4C13.2,52.2,13.9,51.2,13.9,51.2z M11.6,50.2c0,0-0.9-0.8-2-0.7 c-1.1,0.1-1.9,0.9-1.9,0.9s0.9,0.8,2,0.7S11.6,50.2,11.6,50.2z M7.6,47.9c-1.1-0.1-2,0.7-2,0.7s0.8,0.9,1.9,1c1.1,0.1,2-0.7,2-0.7 S8.7,48,7.6,47.9z M7.5,47.3c0,0-0.7-1-1.7-1.3c-1.1-0.3-2.1,0.4-2.1,0.4s0.7,1,1.7,1.3C6.5,47.9,7.5,47.3,7.5,47.3z M5.9,45.5 c0,0-0.5-1.1-1.5-1.5c-1-0.4-2.1,0-2.1,0s0.5,1.1,1.5,1.5C4.8,45.9,5.9,45.5,5.9,45.5z M4.5,43.4c0,0-0.4-1.1-1.3-1.7 c-1-0.6-2.1-0.3-2.1-0.3s0.4,1.1,1.3,1.7C3.3,43.7,4.5,43.4,4.5,43.4z M1.4,40.6c0.9,0.7,2.1,0.6,2.1,0.6s-0.2-1.2-1-1.8 c-0.9-0.7-2.1-0.6-2.1-0.6S0.5,39.9,1.4,40.6z M2.7,38.8c0,0,0-1.2-0.8-2c-0.7-0.8-2-0.9-2-0.9s0,1.2,0.8,2 C1.5,38.7,2.7,38.8,2.7,38.8z M2.3,36.3c0,0,0.1-1.2-0.5-2.1S0,33.1,0,33.1s-0.1,1.2,0.5,2.1C1.2,36.1,2.3,36.3,2.3,36.3z M2.3,33.8 c0,0,0.3-1.1-0.1-2.1c-0.5-1-1.6-1.4-1.6-1.4s-0.3,1.1,0.1,2.1C1.2,33.4,2.3,33.8,2.3,33.8z M2.7,31.4c0,0,0.5-1.1,0.1-2.1 c-0.3-1-1.4-1.6-1.4-1.6s-0.5,1.1-0.1,2.1C1.6,30.8,2.7,31.4,2.7,31.4z M3.4,29c0,0,0.7-1,0.4-2.1c-0.2-1.1-1.1-1.8-1.1-1.8 s-0.7,1-0.4,2.1C2.4,28.3,3.4,29,3.4,29z M4.4,26.7c0,0,0.8-0.9,0.7-2c0-1.1-0.9-1.9-0.9-1.9s-0.8,0.9-0.7,2 C3.6,25.9,4.4,26.7,4.4,26.7z M6.8,22.8c0.1-1.1-0.6-2-0.6-2s-0.9,0.8-1,1.8c-0.1,1.1,0.6,2,0.6,2S6.7,23.9,6.8,22.8z M8.7,21.1 C9,20,8.4,19,8.4,19s-1,0.6-1.3,1.7c-0.3,1,0.3,2.1,0.3,2.1S8.4,22.1,8.7,21.1z M10.8,19.7c0.4-1,0-2.1,0-2.1S9.8,18,9.4,19 c-0.4,1,0,2.1,0,2.1S10.4,20.7,10.8,19.7z M22.1,52.3C21.2,51.7,20,52,20,52s0.4,1.1,1.3,1.7c1,0.5,2.1,0.2,2.1,0.2 S23.1,52.8,22.1,52.3z M24.6,51.7c-1-0.4-2.1,0.1-2.1,0.1s0.6,1.1,1.6,1.4c1,0.4,2.1-0.1,2.1-0.1S25.6,52.1,24.6,51.7z M27,50.7 c-1.1-0.2-2.1,0.4-2.1,0.4s0.7,1,1.7,1.2c1.1,0.2,2.1-0.4,2.1-0.4S28,51,27,50.7z M29.2,49.5c-1.1-0.1-2,0.7-2,0.7s0.8,0.9,1.9,0.9 c1.1,0.1,2-0.7,2-0.7S30.3,49.6,29.2,49.5z M31.2,47.9c-1.1,0.1-1.9,1-1.9,1s1,0.7,2,0.7c1.1-0.1,1.9-1,1.9-1S32.3,47.8,31.2,47.9z M33,46.1c-1.1,0.3-1.7,1.3-1.7,1.3s1,0.6,2.1,0.4c1.1-0.3,1.7-1.3,1.7-1.3S34,45.8,33,46.1z M34.4,44c-1,0.4-1.5,1.5-1.5,1.5 s1.1,0.4,2.1,0c1-0.4,1.5-1.5,1.5-1.5S35.4,43.6,34.4,44z M35.5,41.7c-1,0.6-1.3,1.7-1.3,1.7s1.2,0.3,2.1-0.3c1-0.6,1.3-1.7,1.3-1.7 S36.5,41.2,35.5,41.7z M36.4,39.3c-0.9,0.7-1,1.8-1,1.8s1.2,0.1,2.1-0.6c0.9-0.7,1-1.8,1-1.8S37.2,38.6,36.4,39.3z M36.8,36.8 c-0.7,0.8-0.8,2-0.8,2s1.2-0.1,2-0.9c0.7-0.8,0.8-2,0.8-2S37.6,36,36.8,36.8z M36.9,34.2c-0.6,0.9-0.5,2.1-0.5,2.1s1.2-0.3,1.8-1.1 c0.6-0.9,0.5-2.1,0.5-2.1S37.5,33.3,36.9,34.2z M36.6,31.7c-0.5,1-0.1,2.1-0.1,2.1s1.1-0.4,1.6-1.4c0.5-1,0.1-2.1,0.1-2.1 S37.1,30.7,36.6,31.7z M36.1,31.4c0,0,1.1-0.6,1.4-1.6c0.3-1-0.1-2.1-0.1-2.1s-1.1,0.6-1.4,1.6C35.6,30.3,36.1,31.4,36.1,31.4z M35.4,29c0,0,1-0.7,1.1-1.8c0.2-1.1-0.4-2.1-0.4-2.1s-1,0.7-1.1,1.8C34.7,28,35.4,29,35.4,29z M34.4,26.7c0,0,0.9-0.9,0.9-1.9 c0-1.1-0.7-2-0.7-2s-0.9,0.9-0.9,1.9C33.5,25.8,34.4,26.7,34.4,26.7z M33,24.6c0,0,0.7-1,0.6-2c-0.1-1.1-1-1.8-1-1.8s-0.7,1-0.6,2 C32.1,23.9,33,24.6,33,24.6z M31.4,22.8c0,0,0.6-1.1,0.3-2.1c-0.3-1-1.3-1.7-1.3-1.7s-0.6,1.1-0.3,2.1S31.4,22.8,31.4,22.8z M27.9,17.5c0,0-0.4,1.1,0,2.1c0.4,1,1.5,1.5,1.5,1.5s0.4-1.1,0-2.1C29,18.1,27.9,17.5,27.9,17.5z M26.9,40.6c0.2,0.5,0.5,1,0.6,1.9 c0.1,0.9-0.1,1.6-0.1,1.6s-0.5-0.4-1.3-0.7c0,0,0,0,0,0h0h0h0h0h0c0,0,0,0.2-0.1,0.4c0,0.2-0.1,0.4-0.1,0.6 c-0.1,0.3-0.1,0.5-0.3,0.8c0,0,0,0,0,0c-0.1,0.2-0.2,0.4-0.3,0.6c0,0.1-0.1,0.1-0.1,0.2c-0.1,0.1-0.1,0.2-0.2,0.3c0,0,0,0.1-0.1,0.1 c-0.1,0.1-0.1,0.1-0.2,0.2c0,0-0.1,0.1-0.1,0.1c-0.3,0.3-0.8,0.7-1.4,1.1c-0.7,0.5-1.5,1-2.1,1.5c-0.9,0.7-1.3,1.1-1.3,1.1 s-0.4-0.5-1.3-1.1c-0.6-0.5-1.4-1-2.1-1.5c-0.6-0.4-1.1-0.9-1.4-1.1c-0.1-0.1-0.2-0.1-0.3-0.3l0,0c-0.9-1.1-1.2-2.9-1.3-3.1h0h0h0h0 c0,0,0,0,0,0c0,0,0,0,0,0c-0.8,0.3-1.3,0.7-1.3,0.7s-0.2-0.7-0.1-1.6c0.1-0.9,0.4-1.4,0.6-1.9c0.2-0.5,0.4-1,0.4-1s0.8,0.5,1.1,0.7 c0.4,0.2,1,0.6,1.4,1.1c0.4,0.5,0.8,1.3,0.8,1.3s-0.1,0-0.4,0c-0.2,0-0.6,0-0.9,0.1h0c0,0-0.1,0-0.2,0h0h0c0,0,0.1,1.3,1.2,2.4 c0.1,0.1,0.1,0.1,0.2,0.2c0.3,0.2,0.6,0.5,0.8,0.6c0.2,0.1,0.4,0.3,0.6,0.3c0.1,0,0.1,0,0.2,0c0.9,0,1.6-0.7,1.6-1.4v-5.3 c0.2,0,0.4,0,0.7,0c0.2,0,0.5,0,0.7,0v5.3c0,0.8,0.7,1.4,1.6,1.4c0.1,0,0.1,0,0.2,0c0.2-0.1,0.4-0.2,0.6-0.3c0.3-0.2,0.8-0.6,1-0.9 c1.1-1.2,1.2-2.4,1.2-2.4h0h0c-0.1,0-0.1,0-0.2,0c0,0,0,0,0,0c-0.4-0.1-0.7-0.1-0.9-0.1c-0.3,0-0.4,0-0.4,0s0.4-0.8,0.8-1.3 c0.4-0.5,1.1-0.9,1.4-1.1c0.4-0.2,1.1-0.7,1.1-0.7S26.7,40.2,26.9,40.6z M12.9,43.3C12.9,43.3,13,43.3,12.9,43.3 C13,43.3,13,43.3,12.9,43.3z M13,43.3C13,43.3,13,43.3,13,43.3C13,43.3,13,43.3,13,43.3z M25.7,43.3L25.7,43.3 C25.8,43.3,25.8,43.3,25.7,43.3C25.8,43.3,25.7,43.3,25.7,43.3z M25.8,43.3C25.8,43.3,25.8,43.3,25.8,43.3 C25.8,43.3,25.8,43.3,25.8,43.3C25.8,43.3,25.8,43.3,25.8,43.3C25.8,43.3,25.8,43.3,25.8,43.3z M16.8,26.6l-5.1-0.8v-1.2h7v-0.4 c-1-0.3-1.7-1.2-1.7-2.3c0-1.3,1-2.3,2.3-2.3c1.3,0,2.3,1,2.3,2.3c0,1-0.7,2-1.7,2.3v0.4h7v1.2L22,26.6h-1.9v3 c-0.2,0.1-0.4,0.2-0.7,0.4c-0.2-0.1-0.5-0.2-0.7-0.4v-3H16.8z M18.4,23.1c0.1,0.1,0.2,0.2,0.3,0.2c0-0.4,0.3-0.7,0.7-0.7 c0.4,0,0.7,0.3,0.7,0.7c0.1-0.1,0.2-0.1,0.3-0.2c0.3-0.3,0.4-0.6,0.4-1c0-0.4-0.1-0.7-0.4-1c-0.3-0.3-0.6-0.4-1-0.4 c-0.4,0-0.7,0.1-1,0.4c-0.3,0.3-0.4,0.6-0.4,1C18,22.5,18.1,22.8,18.4,23.1z M19.9,30.3c0.1,0,0.1,0.1,0.2,0.1 c0.6,0.3,1.1,0.6,1.7,0.9c0.5-0.2,1-0.5,1.6-0.7c2.6-1.4,4.5-2.5,4.7-2.6c0.5-0.3,1.2-0.7,1.6-1.1c0.2-0.2,0.5-0.4,0.7-0.7 c0.2-0.3,0.4-0.4,0.4-0.5l0.3-0.3l-0.4,0c0,0-0.3,0-0.6,0.1c-0.3,0-0.7,0.1-1,0.2c-0.6,0.2-1.3,0.5-1.8,0.7 c-0.2,0.1-3.5,1.8-7.2,3.7C20,30.2,20,30.3,19.9,30.3z M11.9,39c0.1,0,0.3,0,0.4-0.1c0.2-0.1,0.3-0.3,0.4-0.4c0.1-0.2,0-0.4-0.1-0.6 c-0.1-0.3-0.4-0.4-0.7-0.4c-0.1,0-0.1,0-0.2,0l-0.1-0.3l0-0.1c0.4-0.2,1.6-0.9,3.2-1.8c-0.5-0.1-1-0.2-1.5-0.3 c-0.5-0.1-0.9-0.4-1.3-0.6l-1.3,0.7c-0.1,0-0.1,0.1-0.1,0.1l-0.2-0.4c0.1-0.1,0.2-0.2,0.2-0.4c0.1-0.2,0-0.4-0.1-0.6 c-0.1-0.3-0.4-0.4-0.7-0.4c-0.1,0-0.3,0-0.4,0.1C9.2,33.7,9.1,33.8,9,34c-0.1,0.2,0,0.4,0.1,0.6l0.6,1.1c0,0-0.1,0-0.1,0 c-0.1,0-0.1,0-0.2,0.1c-0.1,0-0.1,0.1-0.2,0.1c0,0,0,0,0,0.1c0,0-0.1,0-0.1,0C9,36,9,36,8.9,36.1c-0.1,0-0.1,0.1-0.2,0.1 c0,0,0,0,0,0.1c0,0-0.1,0-0.1,0c-0.1,0-0.1,0-0.2,0.1c-0.1,0-0.1,0.1-0.2,0.1c0,0,0,0,0,0.1c0,0-0.1,0-0.1,0c-0.1,0-0.1,0-0.2,0.1 c-0.1,0-0.1,0.1-0.2,0.1c0,0,0,0,0,0.1c0,0-0.1,0-0.1,0c-0.1,0-0.1,0-0.2,0.1c-0.1,0-0.1,0.1-0.2,0.1l0,0c0,0-0.1,0-0.1,0 c-0.1,0-0.1,0-0.2,0.1c-0.1,0-0.1,0.1-0.2,0.1l0,0c0,0-0.1,0-0.1,0c-0.1,0-0.1,0-0.2,0.1c-0.1,0-0.1,0.1-0.2,0.1l0,0 c0,0-0.1,0-0.1,0c-0.1,0-0.1,0-0.2,0.1c0,0-0.1,0.1-0.1,0.1c0,0,0,0-0.1,0h0c-0.3,0-0.5,0.1-0.7,0.3c-0.2,0.2-0.3,0.5-0.3,0.7 c0,0.6,0.5,1,1,1c0,0,0,0,0.1,0c0.3,0,0.6-0.2,0.8-0.5c0.1,0,0.1-0.1,0.1-0.1h0c0,0,0,0,0.1,0s0.1,0,0.1,0c0,0,0.1,0,0.1-0.1 C6.9,39.1,7,39.1,7,39h0c0,0,0.1,0,0.1,0c0,0,0.1,0,0.1,0s0.1,0,0.1-0.1c0.1,0,0.1-0.1,0.1-0.1h0c0,0,0,0,0.1,0s0.1,0,0.1,0 s0.1,0,0.1-0.1C8,38.6,8,38.5,8,38.5h0c0,0,0,0,0.1,0s0.1,0,0.1,0s0.1,0,0.1,0c0.1,0,0.1-0.1,0.1-0.1h0c0,0,0,0,0.1,0s0.1,0,0.1,0 s0.1,0,0.1-0.1C9,38.1,9,38.1,9.1,38h0c0,0,0,0,0.1,0s0.1,0,0.1,0s0.1,0,0.1,0c0.1,0,0.1-0.1,0.1-0.1h0c0,0,0,0,0.1,0s0.1,0,0.1,0 s0.1,0,0.1,0c0.1,0,0.1-0.1,0.1-0.1h0c0,0,0,0,0.1,0s0.1,0,0.2,0c0,0,0,0,0.1,0l0.3,0.5l0.3,0.6C11.4,38.8,11.6,39,11.9,39z M8.3,26.2c0.2,0.2,0.5,0.5,0.7,0.7c0.4,0.4,1.1,0.8,1.6,1.1c0.1,0.1,1.8,1,4,2.2c1.1,0.2,2,0.5,2.8,0.9c0.1,0,0.2,0.1,0.3,0.1 c0.1,0,0.2,0.1,0.3,0.1c0.3,0.1,0.5,0.3,0.7,0.5c0.2,0.2,0.4,0.3,0.5,0.4c0.1,0,0.3,0,0.4,0c0.2,0,0.4,0,0.5,0.1 c0.2-0.1,0.6-0.4,1.1-0.7c-0.4-0.2-0.8-0.4-1.1-0.6c-0.2-0.1-0.5-0.2-0.7-0.4c-0.1,0-0.2-0.1-0.3-0.1c-0.1,0-0.2-0.1-0.3-0.1 c-0.1,0-0.1-0.1-0.2-0.1c-3.7-1.9-7-3.6-7.2-3.7c-0.5-0.3-1.3-0.6-1.8-0.7c-0.3-0.1-0.7-0.2-1-0.2c-0.3-0.1-0.6-0.1-0.6-0.1l-0.4,0 l0.3,0.3C7.9,25.7,8.1,25.9,8.3,26.2z M33.3,38L33.3,38c-0.1,0-0.1,0-0.1,0c0,0-0.1-0.1-0.1-0.1c0,0-0.1-0.1-0.2-0.1 c0,0-0.1,0-0.1,0c0,0,0,0,0,0c0-0.1-0.1-0.1-0.2-0.1c-0.1,0-0.1-0.1-0.2-0.1c0,0-0.1,0-0.1,0l0,0c0-0.1-0.1-0.1-0.2-0.1 c-0.1,0-0.1-0.1-0.2-0.1c0,0-0.1,0-0.1,0c0,0,0,0,0,0c0-0.1-0.1-0.1-0.2-0.1c-0.1,0-0.1-0.1-0.2-0.1c0,0-0.1,0-0.1,0c0,0,0,0,0-0.1 c0-0.1-0.1-0.1-0.2-0.1c-0.1,0-0.1-0.1-0.2-0.1c0,0-0.1,0-0.1,0c0,0,0,0,0-0.1c0-0.1-0.1-0.1-0.2-0.1c-0.1,0-0.1-0.1-0.2-0.1 c0,0-0.1,0-0.1,0c0,0,0,0,0-0.1c0-0.1-0.1-0.1-0.2-0.1c-0.1,0-0.1-0.1-0.2-0.1c0,0-0.1,0-0.1,0c0,0,0,0,0-0.1c0-0.1-0.1-0.1-0.2-0.1 c-0.1,0-0.1-0.1-0.2-0.1c0,0-0.1,0-0.1,0l0.6-1.1c0.1-0.2,0.1-0.4,0-0.6c-0.1-0.2-0.2-0.4-0.4-0.4c-0.1-0.1-0.2-0.1-0.4-0.1 c-0.3,0-0.6,0.1-0.7,0.4c-0.1,0.2-0.1,0.4-0.1,0.6c0,0.1,0.1,0.3,0.2,0.4l-0.2,0.4c0,0-0.1,0-0.1-0.1l-1.7-0.9 c-0.4,0.3-0.8,0.5-1.5,0.7c0,0,0,0.1,0,0.2c0,0.2,0,0.4-0.3,0.6c1.3,0.7,2.1,1.2,2.5,1.4l-0.1,0.1l-0.1,0.3c-0.1,0-0.1,0-0.2,0 c-0.3,0-0.6,0.1-0.7,0.4c-0.1,0.2-0.1,0.4-0.1,0.6c0.1,0.2,0.2,0.4,0.4,0.4c0.1,0.1,0.3,0.1,0.4,0.1c0.3,0,0.6-0.1,0.7-0.4l0.3-0.6 l0.3-0.5c0,0,0,0,0.1,0c0.1,0,0.1,0,0.1,0s0,0,0.1,0h0c0,0.1,0.1,0.1,0.1,0.1c0,0,0.1,0,0.1,0c0.1,0,0.1,0,0.1,0s0,0,0.1,0h0 c0,0.1,0.1,0.1,0.1,0.1c0,0,0.1,0,0.1,0c0.1,0,0.1,0,0.1,0s0,0,0.1,0h0c0,0.1,0.1,0.1,0.1,0.1c0,0,0.1,0,0.1,0.1c0.1,0,0.1,0,0.1,0 s0,0,0.1,0h0c0,0.1,0.1,0.1,0.1,0.1c0,0,0.1,0,0.1,0c0,0,0.1,0,0.1,0s0,0,0.1,0h0c0,0.1,0.1,0.1,0.1,0.1s0.1,0,0.1,0.1 c0,0,0.1,0,0.1,0s0,0,0.1,0h0c0,0.1,0.1,0.1,0.1,0.1c0,0,0.1,0,0.1,0.1c0,0,0.1,0,0.1,0s0.1,0,0.1,0h0c0,0.1,0.1,0.1,0.1,0.1 c0,0,0.1,0,0.1,0.1c0,0,0.1,0,0.1,0s0.1,0,0.1,0h0c0,0.1,0.1,0.1,0.1,0.1c0.2,0.3,0.5,0.5,0.8,0.5c0,0,0,0,0.1,0c0.6,0,1-0.4,1-1 c0-0.3-0.1-0.6-0.3-0.7C33.9,38.1,33.6,38,33.3,38z M11.9,33.8c0.1,0,0.2,0.1,0.3,0.1c0.1,0,0.2,0.1,0.3,0.1 c0.3,0.1,0.6,0.3,0.9,0.4c0.8,0.3,1.6,0.3,2.1,0.4c0.1,0,0.1,0,0.2,0c0.1,0,0.2,0,0.3,0c0.2,0,0.4,0,0.6,0c0.2,0,0.3,0,0.3,0 l0.2,1.1l-1.6,2.2c0,0,0.6,1.1,3.2,1.3c0.2,0,0.4,0,0.7,0c0.3,0,0.5,0,0.7,0c2.6-0.2,3.1-1.3,3.1-1.3l-2-1.8l0.4-1 c-0.1,0-0.1,0-0.2,0c-0.2,0-0.4,0-0.5,0.1c0,0-0.1,0-0.1,0h0h0l-0.1,0c0,0,0.1,0,0.1-0.1c0.1,0,0.1-0.1,0.3-0.1 c0.3-0.1,0.5-0.2,0.7-0.2c0,0,0.1,0,0.1,0c0.1,0,0.2,0.1,0.3,0.1c0.1,0.1,0.3,0.1,0.5,0.1c0,0,0,0,0.1,0c0.1,0,0.3,0,0.3,0 c0.1,0,0.1,0,0.5,0c0,0,0.1,0,0.1,0c0.6,0,0.6,0.3,0.6,0.3c0.1,0,0.1-0.1,0.1-0.1c0.2-0.2,0.2-0.3,0.2-0.5c0-0.1-0.1-0.1-0.1-0.2 s-0.1-0.1-0.2-0.2S24,34.4,24,34.4c0.1-0.4-1.1-0.6-1.7-0.7c-0.3-0.1-1.1-0.4-1.7-0.7c-0.2-0.1-0.3-0.1-0.4-0.2h0 c-0.1,0-0.1-0.1-0.1-0.1c0,0-0.1,0-0.1,0c-0.1,0-0.3-0.1-0.4-0.1c-0.1,0-0.2,0-0.3,0c-0.2,0-0.3,0.1-0.3,0.1s-0.1-0.1-0.3-0.4 c0,0-0.1-0.1-0.1-0.1c-0.2-0.2-0.6-0.5-1.1-0.7c-0.1,0-0.2-0.1-0.3-0.1c-0.1,0-0.2-0.1-0.3-0.1c-0.1-0.1-0.3-0.1-0.5-0.2 c-0.3-0.1-0.7-0.2-1.1-0.3c-0.3-0.1-0.5-0.1-0.8-0.2c-0.6-0.1-1.3-0.2-2.1-0.3c-0.7-0.1-1.4-0.1-2.1-0.1c-4.2,0-6.3,1.1-6.3,1.1 s2.1,0.3,4.3,0.9C10,32.6,10.9,33.3,11.9,33.8z M26.8,30.2c-1.1,0.1-2.3,0.4-3.3,0.7c-0.4,0.2-0.9,0.4-1.3,0.5 c-0.1,0-0.2,0.1-0.3,0.1c-0.1,0-0.2,0.1-0.3,0.1c-0.7,0.4-1.2,0.7-1.5,0.9l0.1,0c0,0,0,0,0,0c0.2,0.1,1.5,0.5,2,0.6 c0.1,0,0.1,0,0.2,0c0.8,0.2,1.5,0.3,1.7,0.7c0,0,0,0.1,0,0.1c0.1,0.1,0.2,0.1,0.3,0.2c0.6-0.1,0.9-0.3,1.3-0.5 c0.1,0,0.1-0.1,0.2-0.1c0.1,0,0.1-0.1,0.2-0.1c0.4-0.4,0.9-0.7,1.7-1.1c2.5-1,6.6-1.5,6.6-1.5s-3.7-0.9-7-0.9 C27.4,30.2,27.1,30.2,26.8,30.2z M20.2,1.5c0,0.1,0,0.3-0.1,0.4c0.3,0.1,0.6,0.3,0.9,0.6V0.6c-0.3,0.2-0.5,0.4-0.9,0.6 C20.2,1.3,20.2,1.4,20.2,1.5z M19.4,0.7c0.1,0,0.3,0,0.4,0.1C20,0.5,20.2,0.3,20.4,0h-1.9c0.2,0.3,0.4,0.5,0.6,0.9 C19.1,0.8,19.3,0.7,19.4,0.7z M18.6,1.5c0-0.1,0-0.3,0.1-0.4c-0.3-0.1-0.6-0.3-0.9-0.6v1.9c0.3-0.2,0.5-0.4,0.9-0.6 C18.7,1.8,18.6,1.7,18.6,1.5z M20.3,3c-0.2-0.3-0.4-0.5-0.6-0.9c-0.1,0.1-0.3,0.1-0.4,0.1c-0.1,0-0.3,0-0.4-0.1 c-0.1,0.3-0.3,0.6-0.6,0.9H20.3z M19.1,2c0.1,0.1,0.2,0.1,0.3,0.1c0.1,0,0.2,0,0.3-0.1c0.1,0,0.1-0.1,0.1-0.1C20,1.7,20,1.6,20,1.5 c0-0.1,0-0.2-0.1-0.3c0-0.1-0.1-0.1-0.1-0.1c-0.1-0.1-0.2-0.1-0.3-0.1c-0.1,0-0.2,0-0.3,0.1c-0.1,0-0.1,0.1-0.1,0.1 c-0.1,0.1-0.1,0.2-0.1,0.3c0,0.1,0,0.2,0.1,0.3C19,1.9,19,2,19.1,2z M19.1,6.7c0.1,0.1,0.2,0.1,0.3,0.1c0.1,0,0.2,0,0.3-0.1 c0.1,0,0.1-0.1,0.1-0.1C20,6.5,20,6.4,20,6.3s0-0.2-0.1-0.3c0-0.1-0.1-0.1-0.1-0.1c-0.1-0.1-0.2-0.1-0.3-0.1c-0.1,0-0.2,0-0.3,0.1 c-0.1,0-0.1,0.1-0.1,0.1c-0.1,0.1-0.1,0.2-0.1,0.3s0,0.2,0.1,0.3C19,6.6,19,6.7,19.1,6.7z M19.1,8c0.1,0.1,0.2,0.1,0.3,0.1 c0.1,0,0.2,0,0.3-0.1c0.1,0,0.1-0.1,0.1-0.1C20,7.7,20,7.6,20,7.5s0-0.2-0.1-0.3c0-0.1-0.1-0.1-0.1-0.1c-0.1-0.1-0.2-0.1-0.3-0.1 c-0.1,0-0.2,0-0.3,0.1C19,7,19,7.1,18.9,7.1c-0.1,0.1-0.1,0.2-0.1,0.3s0,0.2,0.1,0.3C19,7.9,19,7.9,19.1,8z M19.1,9.2 c0.1,0.1,0.2,0.1,0.3,0.1c0.1,0,0.2,0,0.3-0.1c0.1,0,0.1-0.1,0.1-0.1C20,9,20,8.8,20,8.7c0-0.1,0-0.2-0.1-0.3c0-0.1-0.1-0.1-0.1-0.1 c-0.1-0.1-0.2-0.1-0.3-0.1c-0.1,0-0.2,0-0.3,0.1c-0.1,0-0.1,0.1-0.1,0.1c-0.1,0.1-0.1,0.2-0.1,0.3c0,0.1,0,0.2,0.1,0.3 C19,9.1,19,9.2,19.1,9.2z M11.1,13.1c0.1,0.1,0.2,0.1,0.3,0.1s0.2,0,0.3-0.1c0.1,0,0.1-0.1,0.1-0.1c0.1-0.1,0.1-0.2,0.1-0.3 s0-0.2-0.1-0.3c0-0.1-0.1-0.1-0.1-0.1c-0.1-0.1-0.2-0.1-0.3-0.1s-0.2,0-0.3,0.1c-0.1,0-0.1,0.1-0.1,0.1c-0.1,0.1-0.1,0.2-0.1,0.3 s0,0.2,0.1,0.3C11,13.1,11.1,13.1,11.1,13.1z M19.1,11.8c0.1,0.1,0.2,0.1,0.3,0.1c0.1,0,0.2,0,0.3-0.1c0.1,0,0.1-0.1,0.1-0.1 c0.1-0.1,0.1-0.2,0.1-0.3s0-0.2-0.1-0.3c0-0.1-0.1-0.1-0.1-0.1c-0.1-0.1-0.2-0.1-0.3-0.1c-0.1,0-0.2,0-0.3,0.1 c-0.1,0-0.1,0.1-0.1,0.1c-0.1,0.1-0.1,0.2-0.1,0.3s0,0.2,0.1,0.3C19,11.7,19,11.7,19.1,11.8z M19.4,5.6c0.7,0,1.3-0.6,1.3-1.3 c0-0.7-0.6-1.3-1.3-1.3c-0.7,0-1.3,0.6-1.3,1.3C18.2,5,18.7,5.6,19.4,5.6z M11.7,10.3c0-0.1-0.1-0.3-0.1-0.4 c-0.5-1.3-0.9-2.6,0.2-3.6c0.5-0.4,1.1-0.7,1.8-0.7c0.4,0,1,0.1,1.6,0.3c1.1,0.4,2,0.6,3.4,0.6V6c-1.3,0-2.1-0.2-3.2-0.6 c-0.6-0.2-1.3-0.4-1.8-0.4c-0.7,0-1.6,0.3-2.1,0.8c-1.7,1.5-0.6,3.7-0.3,4.6L11.7,10.3z M17.5,12.5c0.3-0.3,0.9-0.6,1.2-0.7 c0-0.1-0.1-0.1-0.1-0.3c0-0.2,0-0.4,0.1-0.6c-0.3-0.1-0.9-0.5-1.2-0.8V12.5z M21.3,12.5v-2.4c-0.3,0.3-0.9,0.7-1.2,0.8 c0,0.1,0.1,0.1,0.1,0.3c0,0.2,0,0.4-0.1,0.6C20.5,11.9,21,12.2,21.3,12.5z M19,10.6c0.1,0,0.1-0.1,0.3-0.1c0,0,0.1,0,0.2,0 c0.1,0,0.3,0,0.4,0.1c0.1-0.3,0.5-0.9,0.8-1.2h-2.4C18.5,9.7,18.9,10.3,19,10.6z M11.3,11.9c0,0,0.1,0,0.1,0c0.1,0,0.2,0,0.3,0 c0.1-0.4,0.4-1.2,0.7-1.6l-1.5,0.5L11.3,11.9z M13.4,13.4l-0.5-2.3c-0.1,0.3-0.6,0.8-0.9,1c0.1,0.1,0.1,0.2,0.2,0.4 c0,0.1,0,0.3,0,0.4C12.6,13,13.2,13.2,13.4,13.4z M17.2,4.7c-0.1,0.1-0.2,0.1-0.2,0.3c0,0.1,0,0.2,0,0.3c0,0.1,0,0.1,0.1,0.2 c0.1,0.1,0.1,0.2,0.3,0.2s0.2,0,0.3,0c0.1,0,0.1,0,0.2-0.1C17.9,5.6,18,5.5,18,5.4c0-0.1,0-0.2,0-0.3c0-0.1,0-0.1-0.1-0.2 c-0.1-0.1-0.1-0.2-0.3-0.2c-0.1,0-0.2,0-0.3,0S17.2,4.6,17.2,4.7z M16,4.3c-0.1,0-0.2,0.1-0.3,0.2c-0.1,0.1-0.1,0.2-0.1,0.3 c0,0.1,0,0.1,0,0.2c0,0.1,0.1,0.2,0.2,0.3c0.1,0.1,0.2,0.1,0.3,0.1c0.1,0,0.1,0,0.2,0c0.1,0,0.2-0.1,0.3-0.2 c0.1-0.1,0.1-0.2,0.1-0.3c0-0.1,0-0.1,0-0.2c0-0.1-0.1-0.2-0.2-0.3c-0.1-0.1-0.2-0.1-0.3-0.1C16.2,4.2,16.1,4.2,16,4.3z M14.6,3.7 c-0.1,0-0.2,0.1-0.3,0.2c-0.1,0.1-0.1,0.2-0.1,0.3c0,0.1,0,0.1,0,0.2c0,0.1,0.1,0.2,0.2,0.3c0.1,0.1,0.2,0.1,0.3,0.1 c0.1,0,0.1,0,0.2,0c0.1,0,0.2-0.1,0.3-0.2c0.1-0.1,0.1-0.2,0.1-0.3c0-0.1,0-0.1,0-0.2c0-0.1-0.1-0.2-0.2-0.3 c-0.1-0.1-0.2-0.1-0.3-0.1C14.8,3.7,14.7,3.7,14.6,3.7z M13,3.7c-0.1,0.1-0.1,0.2-0.2,0.3s0,0.2,0,0.3c0,0.1,0.1,0.1,0.1,0.2 c0.1,0.1,0.2,0.1,0.3,0.2c0.1,0,0.2,0,0.3,0c0.1,0,0.1-0.1,0.2-0.1c0.1-0.1,0.1-0.2,0.2-0.3s0-0.2,0-0.3c0-0.1-0.1-0.1-0.1-0.2 c-0.1-0.1-0.2-0.1-0.3-0.2s-0.2,0-0.3,0C13.2,3.6,13.1,3.7,13,3.7z M11.6,4.1c-0.1,0.1-0.1,0.2-0.1,0.3c0,0.1,0,0.2,0.1,0.3 c0,0.1,0.1,0.1,0.1,0.1c0.1,0.1,0.2,0.1,0.3,0.1c0.1,0,0.2,0,0.3-0.1c0.1,0,0.1-0.1,0.1-0.1c0.1-0.1,0.1-0.2,0.1-0.3 c0-0.1,0-0.2-0.1-0.3c0-0.1-0.1-0.1-0.1-0.1c-0.1-0.1-0.2-0.1-0.3-0.1c-0.1,0-0.2,0-0.3,0.1C11.7,4,11.6,4.1,11.6,4.1z M10.2,5.1 c0,0.1,0,0.2,0,0.3c0,0.1,0.1,0.2,0.2,0.3c0.1,0,0.1,0.1,0.2,0.1c0.1,0,0.2,0,0.3,0s0.2-0.1,0.3-0.2c0-0.1,0.1-0.1,0.1-0.2 c0-0.1,0-0.2,0-0.3c0-0.1-0.1-0.2-0.2-0.3c-0.1,0-0.1-0.1-0.2-0.1c-0.1,0-0.2,0-0.3,0c-0.1,0-0.2,0.1-0.3,0.2 C10.2,5,10.2,5,10.2,5.1z M9.3,6.4c0,0.1,0.1,0.2,0.1,0.3c0.1,0.1,0.2,0.1,0.3,0.2c0.1,0,0.1,0,0.2,0c0.1,0,0.2-0.1,0.3-0.1 c0.1-0.1,0.1-0.2,0.2-0.3c0-0.1,0-0.1,0-0.2c0-0.1-0.1-0.2-0.1-0.3c-0.1-0.1-0.2-0.1-0.3-0.2c-0.1,0-0.1,0-0.2,0 c-0.1,0-0.2,0.1-0.3,0.1C9.4,6,9.4,6.1,9.3,6.2C9.3,6.3,9.3,6.4,9.3,6.4z M9,8c0.1,0.1,0.1,0.2,0.3,0.2c0.1,0,0.2,0.1,0.3,0 c0.1,0,0.1,0,0.2-0.1C9.9,8.1,10,8,10.1,7.9c0-0.1,0.1-0.2,0-0.3c0-0.1,0-0.1-0.1-0.2C9.9,7.2,9.9,7.2,9.8,7.1s-0.2-0.1-0.3,0 c-0.1,0-0.1,0-0.2,0.1C9.1,7.2,9,7.3,9,7.4c0,0.1-0.1,0.2,0,0.3C9,7.8,9,7.9,9,8z M9.4,9.5c0.1,0.1,0.2,0.1,0.3,0.1 c0.1,0,0.2,0,0.3-0.1c0.1,0,0.1-0.1,0.2-0.1c0.1-0.1,0.1-0.2,0.1-0.3c0-0.1,0-0.2-0.1-0.3c0-0.1-0.1-0.1-0.1-0.2 C10,8.5,9.9,8.5,9.8,8.5c-0.1,0-0.2,0-0.3,0.1c-0.1,0-0.1,0.1-0.2,0.1C9.2,8.8,9.1,8.9,9.1,9c0,0.1,0,0.2,0.1,0.3 C9.2,9.5,9.3,9.5,9.4,9.5z M9.8,10.9C9.9,10.9,10,11,10.1,11s0.2,0,0.3-0.1c0.1,0,0.1-0.1,0.1-0.1c0.1-0.1,0.1-0.2,0.1-0.3 c0-0.1,0-0.2-0.1-0.3c0-0.1-0.1-0.1-0.1-0.1c-0.1-0.1-0.2-0.1-0.3-0.1s-0.2,0-0.3,0.1c-0.1,0-0.1,0.1-0.1,0.1 c-0.1,0.1-0.1,0.2-0.1,0.3c0,0.1,0,0.2,0.1,0.3C9.7,10.8,9.8,10.8,9.8,10.9z M27.7,13.1c0.1,0,0.1-0.1,0.1-0.1 c0.1-0.1,0.1-0.2,0.1-0.3s0-0.2-0.1-0.3c0-0.1-0.1-0.1-0.1-0.1c-0.1-0.1-0.2-0.1-0.3-0.1s-0.2,0-0.3,0.1c-0.1,0-0.1,0.1-0.1,0.1 c-0.1,0.1-0.1,0.2-0.1,0.3s0,0.2,0.1,0.3c0,0.1,0.1,0.1,0.1,0.1c0.1,0.1,0.2,0.1,0.3,0.1S27.6,13.2,27.7,13.1z M27.7,10.5 c0.3-1,1.5-3.1-0.3-4.6c-0.6-0.5-1.4-0.8-2.1-0.8c-0.5,0-1.2,0.2-1.8,0.4C22.4,5.8,21.6,6,20.3,6v0.6c1.4,0,2.2-0.3,3.4-0.6 c0.6-0.2,1.2-0.3,1.6-0.3c0.5,0,1.3,0.3,1.7,0.7c1.1,1,0.7,2.2,0.2,3.6c-0.1,0.1-0.1,0.3-0.1,0.4L27.7,10.5z M28,10.8l-1.5-0.5 c0.2,0.4,0.6,1.2,0.7,1.6c0.1,0,0.2,0,0.3,0c0,0,0.1,0,0.1,0L28,10.8z M25.4,13.4c0.3-0.2,0.9-0.4,1.2-0.5c0-0.1-0.1-0.3,0-0.4 c0-0.1,0.1-0.3,0.2-0.4c-0.3-0.2-0.7-0.7-0.9-1L25.4,13.4z M21.7,4.7c-0.1,0-0.1-0.1-0.2-0.1c-0.1,0-0.2,0-0.3,0 c-0.1,0-0.2,0.1-0.3,0.2c0,0.1-0.1,0.1-0.1,0.2c0,0.1,0,0.2,0,0.3c0,0.1,0.1,0.2,0.2,0.3c0.1,0,0.1,0.1,0.2,0.1c0.1,0,0.2,0,0.3,0 s0.2-0.1,0.3-0.2c0-0.1,0.1-0.1,0.1-0.2c0-0.1,0-0.2,0-0.3S21.8,4.7,21.7,4.7z M22.8,4.3c-0.1,0-0.1,0-0.2,0c-0.1,0-0.2,0.1-0.3,0.1 c-0.1,0.1-0.1,0.2-0.2,0.3c0,0.1,0,0.1,0,0.2c0,0.1,0.1,0.2,0.1,0.3c0.1,0.1,0.2,0.1,0.3,0.2c0.1,0,0.1,0,0.2,0 c0.1,0,0.2-0.1,0.3-0.1c0.1-0.1,0.1-0.2,0.2-0.3c0-0.1,0-0.1,0-0.2c0-0.1-0.1-0.2-0.1-0.3C23,4.3,22.9,4.3,22.8,4.3z M24.2,3.7 c-0.1,0-0.1,0-0.2,0c-0.1,0-0.2,0-0.3,0.1c-0.1,0.1-0.2,0.1-0.2,0.3c0,0.1,0,0.1,0,0.2c0,0.1,0,0.2,0.1,0.3c0.1,0.1,0.1,0.2,0.3,0.2 c0.1,0,0.1,0,0.2,0c0.1,0,0.2,0,0.3-0.1c0.1-0.1,0.2-0.1,0.2-0.3c0-0.1,0-0.1,0-0.2c0-0.1,0-0.2-0.1-0.3C24.4,3.9,24.3,3.8,24.2,3.7 z M25.8,3.7c-0.1,0-0.1-0.1-0.2-0.1c-0.1,0-0.2,0-0.3,0S25,3.7,25,3.8c0,0.1-0.1,0.1-0.1,0.2c0,0.1,0,0.2,0,0.3S25,4.5,25,4.6 c0.1,0,0.1,0.1,0.2,0.1c0.1,0,0.2,0,0.3,0c0.1,0,0.2-0.1,0.3-0.2c0-0.1,0.1-0.1,0.1-0.2c0-0.1,0-0.2,0-0.3 C25.9,3.9,25.9,3.8,25.8,3.7z M27.3,4.1c0-0.1-0.1-0.1-0.1-0.1c-0.1-0.1-0.2-0.1-0.3-0.1s-0.2,0-0.3,0.1c-0.1,0-0.1,0.1-0.1,0.1 c-0.1,0.1-0.1,0.2-0.1,0.3c0,0.1,0,0.2,0.1,0.3c0,0.1,0.1,0.1,0.1,0.1c0.1,0.1,0.2,0.1,0.3,0.1S27,5,27.1,5c0.1,0,0.1-0.1,0.1-0.1 c0.1-0.1,0.1-0.2,0.1-0.3C27.3,4.4,27.3,4.3,27.3,4.1z M28.6,5.1c0-0.1,0-0.1-0.1-0.2c-0.1-0.1-0.1-0.2-0.3-0.2s-0.2-0.1-0.3,0 c-0.1,0-0.1,0-0.2,0.1c-0.1,0.1-0.2,0.1-0.2,0.3s-0.1,0.2,0,0.3c0,0.1,0,0.1,0.1,0.2c0.1,0.1,0.1,0.2,0.3,0.2s0.2,0.1,0.3,0 c0.1,0,0.1,0,0.2-0.1c0.1-0.1,0.2-0.1,0.2-0.3C28.6,5.3,28.6,5.2,28.6,5.1z M29.5,6.4c0-0.1,0-0.1,0-0.2c0-0.1-0.1-0.2-0.2-0.3 c-0.1-0.1-0.2-0.1-0.3-0.1c-0.1,0-0.1,0-0.2,0c-0.1,0-0.2,0.1-0.3,0.2c-0.1,0.1-0.1,0.2-0.1,0.3c0,0.1,0,0.1,0,0.2 c0,0.1,0.1,0.2,0.2,0.3c0.1,0.1,0.2,0.1,0.3,0.1c0.1,0,0.1,0,0.2,0c0.1,0,0.2-0.1,0.3-0.2C29.4,6.7,29.5,6.5,29.5,6.4z M29.8,8 c0-0.1,0.1-0.1,0.1-0.2c0-0.1,0-0.2,0-0.3s-0.1-0.2-0.2-0.3c-0.1,0-0.1-0.1-0.2-0.1c-0.1,0-0.2,0-0.3,0s-0.2,0.1-0.3,0.2 c0,0.1-0.1,0.1-0.1,0.2c0,0.1,0,0.2,0,0.3c0,0.1,0.1,0.2,0.2,0.3c0.1,0,0.1,0.1,0.2,0.1c0.1,0,0.2,0,0.3,0C29.6,8.2,29.7,8.1,29.8,8 z M29.5,9.5c0.1,0,0.1-0.1,0.1-0.2c0.1-0.1,0.1-0.2,0.1-0.3s0-0.2-0.1-0.3c0-0.1-0.1-0.1-0.2-0.1c-0.1-0.1-0.2-0.1-0.3-0.1 s-0.2,0-0.3,0.1c-0.1,0-0.1,0.1-0.1,0.2c-0.1,0.1-0.1,0.2-0.1,0.3s0,0.2,0.1,0.3c0,0.1,0.1,0.1,0.2,0.1c0.1,0.1,0.2,0.1,0.3,0.1 S29.4,9.6,29.5,9.5z M29,10.9c0.1,0,0.1-0.1,0.1-0.1c0.1-0.1,0.1-0.2,0.1-0.3c0-0.1,0-0.2-0.1-0.3c0-0.1-0.1-0.1-0.1-0.1 c-0.1-0.1-0.2-0.1-0.3-0.1s-0.2,0-0.3,0.1c-0.1,0-0.1,0.1-0.1,0.1c-0.1,0.1-0.1,0.2-0.1,0.3c0,0.1,0,0.2,0.1,0.3 c0,0.1,0.1,0.1,0.1,0.1c0.1,0.1,0.2,0.1,0.3,0.1C28.8,11,28.9,10.9,29,10.9z" fill="currentColor"></path> </svg>