<svg height="56" viewBox="0 0 72 56" width="72" xmlns="http://www.w3.org/2000/svg"><path d="m0 56h1.33v-56h-1.33zm43.67-23.76h-1.39v-1.18h1.39v-2.44h1.34v2.44h1.63v1.18h-1.63v5.05c0 .61.17.72 1.01.72h.62v1.18h-1.03c-1.39 0-1.94-.28-1.94-1.78zm5.29 3.34c0-2.06.79-3.29 2.96-3.29v-1.42c-1.45-.05-2.36.6-3 1.9h-.03v-1.72h-1.27v8.14h1.34zm-10.35 2.62c-1.11 0-2.15-.38-2.2-1.57h-1.34c.08 2.02 1.63 2.76 3.46 2.76 1.66 0 3.48-.63 3.48-2.57 0-1.57-1.33-2.01-2.67-2.31-1.25-.3-2.67-.46-2.67-1.42 0-.82.93-1.04 1.74-1.04.88 0 1.8.33 1.9 1.37h1.34c-.11-1.98-1.55-2.55-3.35-2.55-1.42 0-3.05.68-3.05 2.31 0 1.56 1.34 2 2.67 2.3 1.34.3 2.67.47 2.67 1.51 0 1.03-1.14 1.21-1.98 1.21zm-13.14-3.6c0-1.46.79-2.55 2.42-2.55 1.03 0 1.66.65 1.66 1.64v5.51h1.34v-5.35c0-1.75-.66-2.98-2.81-2.98-1.17 0-2.09.47-2.66 1.48h-.03v-1.29h-1.26v8.14h1.34zm4.04 18.11c0 1.24-.43 2.03-1.8 2.03-1.47 0-1.82-.93-1.82-2.24v-.47h-1.5v.69c0 2.11 1.19 3.27 3.29 3.27 2.53 0 3.34-1.54 3.34-3.07v-8.44h-1.5v8.23zm-8.37-23.12h1.34v-1.64h-1.34zm0 9.61h1.34v-8.14h-1.34zm11.41-9.61h1.34v-1.64h-1.34zm-15.7 16.79v1.21h-1.37v1.18h1.37v6.96h1.34v-6.96h1.58v-1.18h-1.58v-1.13c0-.71.38-.91 1.03-.91.24 0 .52.03.76.11v-1.17c-.25-.08-.62-.13-.87-.13-1.47.01-2.26.7-2.26 2.02zm36.55-.25h1.34v-1.64h-1.34zm18.31 5.93h-6.11c-.05 1.42.76 2.68 2.55 2.68 1.11 0 1.88-.54 2.12-1.59h1.33c-.36 1.8-1.66 2.77-3.49 2.77-2.61 0-3.84-1.79-3.92-4.28 0-2.44 1.61-4.23 3.84-4.23 2.88-.01 3.76 2.69 3.68 4.65zm-1.42-1.18c-.06-1.28-1.03-2.3-2.36-2.3-1.41 0-2.24 1.05-2.34 2.3zm-16.89 4.85h1.34v-8.14h-1.34zm6.42-.99c-1.71 0-2.39-1.48-2.39-2.98 0-1.65.6-3.18 2.54-3.18 1.11 0 1.82.6 2.02 1.62h1.39c-.19-1.94-1.68-2.8-3.52-2.8-2.59 0-3.86 1.92-3.86 4.36 0 2.42 1.33 4.16 3.82 4.16 2.05 0 3.3-1.18 3.6-3.16h-1.37c-.16 1.23-.94 1.98-2.23 1.98zm-27.27-15.54h1.34v-8.14h-1.34zm5.7 12.99c0 1.46-.79 2.55-2.42 2.55-1.03 0-1.66-.65-1.66-1.64v-5.51h-1.34v5.35c0 1.75.66 2.97 2.81 2.97 1.17 0 2.09-.47 2.66-1.48h.03v1.29h1.26v-8.14h-1.34zm12.46-7.04h-1.34v2.44h-1.39v1.18h1.39v5.18c0 1.5.55 1.78 1.94 1.78h1.03v-1.18h-.62c-.84 0-1.01-.11-1.01-.72v-5.05h1.63v-1.18h-1.63zm-5.68 5.89c-1.25-.3-2.67-.46-2.67-1.42 0-.82.93-1.04 1.74-1.04.88 0 1.8.33 1.9 1.37h1.34c-.11-1.98-1.55-2.55-3.35-2.55-1.42 0-3.05.68-3.05 2.31 0 1.56 1.34 2 2.67 2.3 1.34.3 2.67.47 2.67 1.51 0 1.02-1.14 1.21-1.98 1.21-1.11 0-2.15-.38-2.2-1.57h-1.34c.08 2.02 1.63 2.76 3.46 2.76 1.66 0 3.48-.63 3.48-2.57 0-1.57-1.33-2.01-2.67-2.31zm14.87-19.98h-1.42l-2.29 6.66h-.03l-2.39-6.66h-1.52l3.24 8.09-.55 1.39c-.25.47-.55.74-1.11.74-.27 0-.54-.11-.79-.19v1.23c.3.11.62.14.93.14 1.2 0 1.75-.58 2.37-2.17zm-44.67 20.61c0 2.38-1.37 4.25-3.97 4.25-2.59 0-3.97-1.87-3.97-4.25 0-2.39 1.38-4.27 3.97-4.27s3.97 1.88 3.97 4.27zm-1.43 0c0-1.98-1.14-3.08-2.54-3.08-1.41 0-2.54 1.1-2.54 3.08 0 1.97 1.14 3.07 2.54 3.07 1.41 0 2.54-1.1 2.54-3.07zm5.43-12.47v-11.24h-2.05l-3.58 9.44-3.56-9.44h-2.05v11.24h1.42v-9.35h.03l3.52 9.35h1.28l3.52-9.35h.03v9.35zm3.59-36.78c0-.12.1-.22.22-.22s.22.1.22.22-.1.22-.22.22-.22-.1-.22-.22zm.69.89c0 .12.1.22.22.22s.22-.1.22-.22-.1-.22-.22-.22c-.12-.01-.22.09-.22.22zm-1.02-.84c.12 0 .22-.1.22-.22s-.1-.22-.22-.22-.22.1-.22.22.1.22.22.22zm.99.55c.12 0 .22-.1.22-.22s-.1-.22-.22-.22-.22.1-.22.22.1.22.22.22zm-5.63-.55c.12 0 .22-.1.22-.22s-.1-.22-.22-.22-.22.1-.22.22.1.22.22.22zm-.25 2.2c.03.19.14.5.23.69-.19-.09-.33-.13-.52-.05.11.14.38.36.8.26.23-.05.45-.17.44-.35-.01-.1-.08-.23-.22-.21-.14.01-.15.22-.1.32-.18-.1-.37-.63-.09-.71.22-.06.43.24.5.48.04-.28.16-.55.38-.54.29.02.2.56.1.69-.02-.19-.12-.29-.21-.28-.08.01-.18.06-.16.23s.26.28.54.28c.27 0 .74-.08.78-.6-.17.03-.44.16-.55.33.04-.31.04-.53 0-.86.14.2.38.31.55.33-.05-.22-.24-.45-.46-.59h1.15c-.22.14-.41.37-.46.59.17-.03.41-.13.55-.34-.04.32-.04.55 0 .86-.12-.17-.39-.3-.56-.34.04.52.52.6.78.6.28 0 .52-.1.54-.28.02-.17-.09-.23-.16-.23-.09-.01-.19.09-.21.28-.1-.14-.2-.67.09-.69.23-.01.34.25.38.54.07-.23.28-.54.5-.48.28.08.1.61-.09.71.04-.09.04-.3-.1-.32-.13.01-.21.13-.22.23-.01.17.22.29.44.35.42.1.69-.12.8-.27-.19-.08-.33-.04-.52.05.1-.19.2-.49.23-.69.05.21.19.36.35.48.04-.17.02-.46-.14-.71l.63.27c-.3.33-.66 1.09-.85 1.72.13.11.2.25.2.42 0 .29-.19.47-.38.59.35.23.67.5.96.82.23.26.42.5.6.8-.03.03-.06.07-.09.11-.03.07-.14.17-.18.22-.05.07-.1.15-.1.25 0 .09.03.18.1.29.08.13.57 1.09.68 1.33.09.19.27.36.38.44.01.13 0 .17 0 .3 0 .72-.12 1.41-.37 2.07-.24.63-.58 1.2-1.01 1.69-.21.24-.44.45-.68.63-.06.05-.33.13-1.41-.14-.14-.03-.22-.06-.36-.1.02-.14.03-.21.07-.31.04-.12.1-.22.15-.28.06-.03.06-.07.12-.1.38-.19.73-.46 1.02-.8.3-.34.53-.75.69-1.2.16-.43.24-.88.25-1.35h-3.08v3.41c.25.01.7.06.7.06-.11.14-.16.27-.19.5-.35-.11-.69-.24-1.06-.38.11-.13.24-.16.36-.17v-3.41h-3.15c-.01-.14-.08-.36-.12-.42-.15-.19-.21-.3-.22-.59 0-.15-.1-.35-.26-.55-.09-.11-.47-.52-.56-.61.24-.63.58-1.2 1.01-1.68.29-.32.61-.6.96-.82-.19-.12-.38-.3-.38-.59 0-.17.07-.3.19-.41-.2-.63-.55-1.39-.85-1.73l.63-.27c-.17.25-.18.55-.14.72.19-.12.33-.28.38-.49zm2.52 3.56c-.41.01-.81.1-1.19.29s-.73.46-1.02.8c-.3.35-.53.75-.69 1.2-.16.44-.24.92-.25 1.4h3.15zm2.32 1.1c-.3-.34-.64-.61-1.02-.8-.35-.17-.73-.27-1.12-.28v3.69h3.08c-.01-.49-.09-.96-.25-1.4-.16-.46-.39-.87-.69-1.21zm-4.81-2.49c0 .17.1.31.35.45.42-.28 1.14-.59 2.19-.59s1.77.31 2.19.59c.24-.14.35-.28.35-.45 0-.59-1.69-.65-2.54-.65-.85 0-2.54.05-2.54.65zm4.28-4.32c.12 0 .22-.1.22-.22s-.1-.22-.22-.22-.22.1-.22.22c-.01.12.09.22.22.22zm-2.92.16c.12 0 .22-.1.22-.22s-.1-.22-.22-.22-.22.1-.22.22.1.22.22.22zm4.48 1.71c0 .12.1.22.22.22s.23-.1.23-.22-.1-.22-.23-.22c-.12 0-.22.1-.22.22zm-5.03-1.87c.12 0 .22-.1.22-.22s-.1-.22-.22-.22-.22.1-.22.22c-.01.12.09.22.22.22zm5.14 1.33c0 .12.1.22.22.22s.22-.1.22-.22-.1-.22-.22-.22-.22.1-.22.22zm-2.05.35c-.02.17.13.34.21.56.1-.19.3-.32.31-.52.02-.19-.09-.33-.22-.58-.04.14-.28.37-.3.54zm.91 6.72c-.05.02-.08 0-.09-.01.03-.02.07 0 .03-.06-.03-.06-.06-.06-.1-.02s-.28-.01-.28-.19c.02.03.05.05.08.07.01.01.02.01.03.01s.02 0 .03.01c.02.01.05.01.07.01h.01v-.01c.05-.01.09-.04.1-.1.01-.1-.09-.15-.19-.24-.04-.03-.07-.06-.1-.09-.04-.07-.01-.14-.1-.27-.01-.03-.01-.07-.03-.12-.05.09-.07.25.06.39.1.11.32.22.31.31 0 .02-.02.04-.06.05-.01 0-.02 0-.03 0s-.01 0-.02-.01c-.02 0-.03-.01-.05-.02s-.05-.03-.08-.06c-.09-.09-.17-.21-.23-.28-.1-.13-.06-.25-.04-.36.07-.1-.04-.3-.11-.35 0 0 .02-.05 0-.1-.01.01-.05.01-.06.01-.02-.04-.03-.04-.05-.05-.04-.01-.04-.03-.05-.05-.03.02-.03.04-.06.05-.04 0-.05 0-.06.01-.03.02-.04.03-.08.03s-.04.02-.04.05c0 .02 0 .05.03.06 0 0 .01 0 .01.01l.03.04.02-.04c.02-.02.07-.02.08.02.01.03.01.03-.02.04-.04 0-.05 0-.09.01-.02 0-.02.03-.02.05s.03.04.08.02c.05-.01.13-.02.13.02 0 .11-.12.1-.15.23-.03-.02-.06-.04-.08-.07s-.05-.07-.09-.11c-.03-.03-.06-.06-.09-.08-.04-.03-.04-.05-.04-.09s.02-.07.02-.11c0 0-.01-.02-.01-.03-.01-.02-.04-.04-.06-.04.01.01.02.02.02.04-.01.01-.02.02-.02.02-.01.01-.01.02 0 .04v.01.02c0 .01 0 0-.01 0 .01-.03 0-.07-.02-.07 0 0-.01 0-.02 0 0-.03-.03-.05-.07-.02.01 0 .02 0 .03.01 0 .01-.01.03-.01.03 0 .03.02.04.05.04 0 0 .01 0 .01.01v.01c-.05-.02-.07 0-.07.02v.02c-.02.01-.02.04.01.06 0-.01 0-.03.01-.03h.01c0 .01.01.01.01.01s.01 0 .03-.01h.01s.01.01.02.01v.01c-.03.03-.02.06.01.07-.02.03-.08.02-.07-.03-.04.07.03.12.09.09 0 .02 0 .07.01.07 0 0 0-.01.01-.01v.01c0 .01.01.04.03.04 0-.01 0-.02.01-.02.01.02.02.03.03.05.03.05.09.18.22.24-.07.04-.11.09-.15.15-.04.04-.09.07-.12.05-.01-.01-.02-.02-.04-.04-.02-.01-.03-.01-.04-.01 0 0-.01 0-.02.01-.02-.01-.06 0-.07.02.01 0 .03-.01.05.01v.02c0 .02.01.03.08.03 0 0 .01 0 .01.01-.01.01-.02.02-.03.01-.03-.01-.05-.03-.07 0 0 0-.01.01-.01.02 0 0 0 0-.01 0-.03.01-.05.06-.02.08 0-.01 0-.03.02-.04 0 .01.01.01.01.01.02.03.04.05.09-.02.01-.01.01 0 .01 0 0 .03-.03.08.01.08h.02v.01c.01.04.06.05.08.04-.01-.01-.03-.02-.04-.04h.02c.02-.02 0-.06.01-.07 0-.01.01 0 .01 0 .01.01.03.04.06.03.02-.01.02-.03.03-.04.05-.02.09-.03.12-.02-.01-.02.02-.06.07-.07s.07 0 .08.02c0-.02.02-.05.05-.08-.01.19.25.19.31.3-.08-.03-.17-.05-.21-.04-.06.01-.17.07-.19.14-.01.06.05.16.11.21-.07.01-.1-.01-.17.01h-.01c-.06.01-.07-.1-.14-.07 0 0-.02.01-.02.01-.03 0-.06.03-.06.06.01-.01.02-.02.04-.03v.01c0 .01 0 .02.03.02.02 0 .02-.01.03-.01 0 0 .01 0 .01.01 0 .03-.09-.02-.07.06 0 0 .01.01.01.02 0 .02.02.04.05.03-.01 0-.02-.02-.02-.03h.02s.01 0 .01-.01.01 0 .01.01c0 0-.01.01-.01.02 0 0 0 .02.01.02 0 .03.03.05.07.03-.01 0-.03-.01-.04-.02.01 0 .02-.01.02-.01.01 0 .01-.01.01-.03 0-.01 0-.01.01-.01h.02c.01 0 .01 0 .01.01.01.02.03.03.05.02.02 0 .02-.01.02-.02.01.01.02.01.03.02-.01-.03.01-.05.07-.01l.04-.03s.06.02.08 0c.04-.03.02-.03.02-.06-.03-.06-.04-.05-.05-.11-.02-.1.11-.15.19-.13.02.06.1.22.24.27.09.03.12-.07.15-.05.01 0 .01.01.02.03-.01.04 0 .08-.01.1s-.06 0-.09 0c-.02 0-.03.01-.03.01-.03 0-.06.03-.06.06.01-.01.03-.02.05-.03v.01c0 .04.05.05.07.03 0-.01.01 0 .01 0-.02.02-.06.05-.03.07 0 0 .01.01.02.01 0 .02.02.05.04.05-.01-.01-.01-.02 0-.04h.02c.02 0 .01-.05.04-.06h.01c-.01.03-.01.06.01.07h.02c.01.02.03.04.07.02-.01 0-.03-.01-.03-.02.01-.01.02-.02.02-.02.02-.06-.03-.06-.03-.08 0-.03.06-.01.06-.07v-.01c.03-.01.06-.03.06-.05-.03 0-.07-.01-.07-.01.01-.08.04-.1.05-.13zm-3.8.12c0 .12.65.04.86.04s.28.04.28.1c0 .08-.22.1-.34.11.12.01.16.02.23.02.04-.01.04.02.04.02 0 .04.05.01.06 0 0 .03-.01.05-.02.06v.01c.01.02-.01.05.03.05-.01.02-.02.01-.04.01.02.01.02.02.02.03 0 .05-.05.04-.05.06s.04.02.03.07c0 0-.01.02-.01.02 0 .01.02.02.03.02-.03.01-.05 0-.06-.02-.01 0-.02 0-.02 0-.02-.01-.02-.04-.01-.06-.02.01-.01.06-.04.05 0 0-.01 0-.02 0-.01.02-.01.03 0 .04-.02 0-.03-.02-.03-.04-.01 0-.02-.01-.02-.01-.03-.01.01-.04.03-.06 0 0 0-.01-.01 0-.02.02-.06.01-.06-.02v-.01c-.02 0-.03.02-.04.02 0-.03.03-.05.05-.05 0 0 .01-.02.03-.01.03 0 .07.02.08 0s-.01-.03.01-.08c0-.02-.01-.02-.02-.02s-.07-.02-.12.01c-.04.03-.07.04-.16.04-.05 0-.09-.02-.13-.03.02.03 0 .06.02.07.04.02.04.08.03.1s-.06.02-.1.01c-.01 0-.02 0-.03 0-.04.01 0 .05-.04.06-.03.01-.05-.01-.05-.02 0 0 0-.01-.01-.01 0 0-.01 0-.02 0 0 0-.01 0-.01.01s0 .02-.01.03c0 0-.01 0-.02.01 0 .01.03.02.04.02-.04.03-.07 0-.07-.03 0 0-.01-.02-.01-.02 0-.01 0-.01 0-.01s0 0-.01-.01c0 .01-.01.01-.01.01s-.01 0-.02 0c0 .01.01.02.02.02-.04.01-.05-.01-.05-.03 0-.01-.01-.02-.01-.02-.02-.07.07-.03.07-.06 0 0 0-.01-.01-.01s-.01.01-.03.01-.03-.01-.02-.02v-.01c-.02 0-.03.02-.04.03-.01-.03.03-.06.06-.06 0 0 .01-.01.02-.01.07-.03.07.11.13.07.01-.01.03-.01.06-.01 0 0 .01 0 0-.01s-.05-.03-.07-.03c-.04-.01-.04-.07-.02-.11-.02.02-.02.03-.04.02-.4-.04-.21.15-.55.11-.02 0-.02.05-.08.04-.01 0-.02 0-.03.01 0 .01 0 .02-.01.03l-.09.04s0-.01.01-.01c-.02.02-.06.03-.08.03.01-.01.02-.02.03-.03 0-.01 0-.01-.01 0-.06.04-.17-.01-.18.08-.02-.02-.01-.06-.02-.06s-.02.01-.02.02c-.01-.01-.01-.02 0-.04-.04.01-.06.01-.07 0 0-.01-.01-.01-.01-.02-.01.04-.05.06-.06.06.02-.02.02-.05.02-.06-.01.01-.02.02-.03.03 0-.02-.01-.03-.02-.04 0 .02-.01.05-.05.05s-.04-.03-.05-.04c0 0 0-.01-.01 0-.02.01 0 .05-.03.06 0 0-.01 0-.02-.01 0 .03.01.05.02.06-.02 0-.06-.03-.05-.06-.01-.01-.01-.01-.01-.01-.03-.02.01-.05.03-.07 0 0 0-.01-.01 0-.06.04-.08.02-.08-.01 0 0 0-.01-.01-.02-.02 0-.03.02-.03.03-.02-.03.02-.07.05-.06h.01c.01 0 .02-.01.02-.01.03-.02.03.01.05.03.01.01.03.01.03 0 .01 0 0-.01 0-.01-.06-.02-.07-.04-.06-.06 0 0 .01-.01.01-.02-.01-.02-.03-.02-.04-.03.02-.01.05-.01.07.01h.02c.01 0 .02.01.03.03s.01.03.02.05c.03.04.12.01.16-.02.03-.01.16-.01.17-.01s-.02-.05-.02-.09c-.01-.01-.02-.01-.02-.02-.01.02-.03.02-.05.02-.08-.05-.13-.13-.14-.13s-.01.01-.01.02c-.02 0-.03-.02-.03-.04v-.01c-.01 0-.01.01-.01.01-.01 0-.02-.01-.02-.02 0 0 0 0-.01 0-.06.03-.13-.02-.09-.08 0 .06.07.07.08.01 0-.01 0-.01-.01-.01-.04-.01-.05-.04-.02-.07v-.01c-.01 0-.01-.01-.01-.01-.01 0-.01 0-.01 0-.01.01-.02.01-.03.01 0 0-.01-.01-.01-.01-.01 0-.01.02-.01.03-.03-.02-.03-.04-.01-.06v-.02c0-.02.02-.04.07-.02 0 0 .01 0 0 0v-.01s0-.01-.01-.01c-.03 0-.05-.01-.05-.04 0 0 0-.02.01-.03-.01-.01-.02-.01-.02-.01.03-.03.06-.01.06.02v.01h.02c.02 0 .04.04.05.07 0 0 0 .01 0 0s0-.01 0-.02c0 0 0 0 0-.01-.01-.01-.01-.03 0-.04 0 0 .01-.01.02-.02 0-.02-.01-.03-.02-.04.02 0 .05.01.05.04 0 .01.01.03.01.03 0 .03-.02.07-.02.1 0 .04 0 .06.04.09.06.03.08.09.11.09h.03.03l.02.01c0-.02 0-.04.01-.06-.01 0-.01-.01-.02-.02.02 0 .03-.05.05-.08-.01 0-.01-.01-.02-.03.02.01.05-.06.07-.06-.01-.03 0-.05.01-.07.02 0 .04.01.05.02 0-.02.02-.02.04-.01 0 0 .03-.01.04-.01s.03 0 .06.02c.03.01.05.03.06.04 0 .01.01.03.01.04.01.01.02.03.01.04.02 0 .04.01.05.02 0 .02-.02.04-.05.05.03.04-.03.11-.05.15.27-.08.96.01 1.12.01.1 0 .27-.01.27-.06 0-.03-.04-.05-.21-.05-.18 0-.91.12-.91-.09 0-.12.24-.09.44-.09 0-.01.01-.01.02-.01.11-.07.37.03.47-.03-.01.03-.13.06-.25.06.2.04.4-.11.55.03-.19-.06-.48.12-.74.04-.03-.01-.04-.02-.05-.03-.15-.02-.37-.05-.37.02zm-.52-.09c.02.03 0 .04.02.06s.04 0 .05-.02c-.01 0-.05-.03-.07-.04zm.12.14c0-.01-.01-.01-.01-.02l-.07-.03c-.01 0-.01-.01-.02 0 0 0-.02.01-.01.02 0 .01.02-.01.03 0s0 .01-.02.02c.01.01.03.02.02.03s-.01.02-.03.02c-.01 0-.01.01-.02.03-.01.01-.01.04.01.05s.04-.01.05-.02.01-.03 0-.03c-.01-.01-.01-.02-.01-.03.01-.01.02-.01.04 0-.01-.02-.01-.03 0-.02.01 0 .01.02.02.02.02-.02.02-.03.02-.04zm.09-.04c-.03-.01-.07-.03-.08-.03 0 .02 0 .05.03.05.02 0 .01-.01.05-.02zm1.99-9.79v.57h.55c-.05-.29-.27-.51-.55-.57zm1.03 1.42c.12 0 .22-.1.22-.22s-.1-.22-.22-.22-.22.1-.22.22.1.22.22.22zm-.8 1.23v-1.03c-.08.04-.16.06-.25.08v.95zm-1.69 6.16c0 .12.5.04.72.04s.3.04.3.11c0 .08-.21.12-.36.12.13.01.17.03.24.02.04-.01.04.02.04.02.01.04.05.02.06 0 0 .03 0 .05-.02.06v.01c0 .02-.01.05.03.05-.01.02-.02.02-.04.02.02.01.02.02.02.03 0 .05-.05.04-.05.06s.05.02.03.08c0 0-.01.02-.02.02 0 .01.02.02.03.02-.03.02-.05 0-.06-.02-.01 0-.02 0-.02 0-.02-.01-.02-.04-.01-.06-.03.01-.01.06-.04.06 0 0-.01 0-.02 0-.01.03-.01.03 0 .04-.02 0-.03-.03-.03-.05-.01 0-.02-.01-.02-.01-.03-.01.01-.05.03-.06.01-.01 0-.01-.01-.01-.02.02-.06.01-.07-.02v-.01c-.02 0-.04.02-.05.02 0-.03.03-.05.05-.06 0 0 .01-.01.03-.01.03 0 .07.02.08 0s-.01-.03.01-.08c0-.02-.01-.02-.02-.03-.02 0-.07-.02-.12.01s-.07.04-.17.04c-.05 0-.1-.02-.14-.03.02.03 0 .06.02.07.04.02.05.09.03.11-.01.02-.06.02-.1.01-.01 0-.02 0-.03 0-.04.01 0 .05-.04.07-.03.01-.05-.01-.05-.02 0 0 0-.01-.01 0-.01 0-.01 0-.02 0 0 0-.01 0-.01.01s0 .02-.01.03c0 0-.01.01-.02.01 0 .01.03.02.04.02-.04.03-.08 0-.07-.03 0 0-.01-.02-.01-.02 0-.01 0-.01 0-.02 0 0 0-.01-.01-.01 0 .01-.01.01-.01.01s-.01 0-.02 0c0 .01.01.02.02.03-.04.01-.06-.01-.05-.03 0-.01-.01-.02-.01-.02-.02-.07.07-.03.07-.06 0-.01 0-.01-.01-.01s-.01.01-.03.01-.03-.01-.03-.02c0 0 0-.01 0-.02-.02 0-.04.02-.05.02-.01-.03.03-.06.06-.06 0 0 .02-.01.02-.01.07-.03.07.12.14.07.01 0 .03-.01.06-.01 0 0 .01 0 0-.01-.01-.02-.05-.03-.07-.03-.04-.01-.04-.09-.02-.13-.02.01-.06.04-.08.03-.31-.05-.18.14-.37.12-.01 0-.04 0-.06.01 0 0 0 .01-.01.01-.03.05-.12.13-.18.12.02-.01.02-.02.03-.03 0-.01 0-.01-.01 0-.06.04-.11 0-.12.1-.02-.02-.01-.06-.02-.06 0 0-.02.01-.02.02-.01-.01-.01-.02 0-.04 0 0 0-.01-.01 0-.04.01-.06.01-.08 0 0-.01-.01-.02-.01-.02-.01.04-.05.06-.06.06.02-.02.02-.05.02-.07-.01.01-.02.02-.03.03 0-.02-.01-.03-.02-.04 0 .02-.02.05-.05.05-.04 0-.05-.03-.05-.05 0 0 0-.01-.01 0-.02.01 0 .05-.04.06 0 0-.01 0-.02 0 0 .03.01.05.02.06-.02 0-.06-.03-.06-.06 0 0 0 0 0-.01-.01 0-.01-.01-.02-.01-.03-.02.01-.05.03-.08-.07.04-.08.02-.09-.01 0 0 0-.01-.01-.02-.02 0-.03.02-.04.03-.02-.03.02-.07.05-.06h.01c.01 0 .02-.01.02-.01.03-.02.03.01.06.03.01.01.03.01.03 0 .01 0 0-.01 0-.01-.07-.02-.07-.04-.06-.06 0 0 .01-.01.01-.02-.01-.02-.03-.02-.04-.03.01-.01.05-.01.07.01h.02c.01 0 .02.01.03.03s.01.04.02.05c.03.04.13 0 .17-.02.03-.01.14-.01.15-.01s-.03-.05-.03-.09c-.03.03-.06-.02-.1-.04-.05-.03-.08-.08-.09-.08s-.01.01-.01.02c-.02 0-.03-.02-.03-.04v-.01c.05.01.05.02.05.02-.01 0-.02-.01-.02-.02 0 0 0-.01-.01 0-.06.04-.14-.02-.09-.09-.01.06.07.07.08.01 0 0 0-.01-.01-.01-.04-.01-.05-.04-.01-.07v-.01s-.01-.01-.01-.01h-.01c-.02.01-.02.01-.03.01 0 0-.01-.01-.01-.01h-.01c-.01 0-.01.02-.01.03-.03-.02-.03-.05-.01-.06 0-.01 0-.02 0-.02 0-.02.02-.05.07-.02h.01v-.01s0-.01-.01-.01c-.03 0-.05-.01-.05-.04 0 0 0-.02.01-.03-.01-.01-.02-.01-.03-.01.03-.03.07-.01.06.02h.02c.02 0 .03.04.04.07 0 0 0 .01 0 0s0-.01 0-.02v-.01c-.01-.01-.01-.03 0-.04 0 0 .01-.01.02-.02 0-.02-.01-.03-.02-.04.02 0 .05.01.06.04 0 .01.01.03.01.03 0 .03-.02.07-.02.11s0 .07.04.09.07.06.1.08l.03.01c-.01 0-.01 0-.02 0 .01 0 .01.01.02.01h.01l.05.02c0-.02 0-.06.01-.08-.01 0-.02-.01-.04-.03.03 0 .03-.05.06-.09-.01 0-.02-.01-.03-.03.03.01.05-.06.08-.06-.01-.03 0-.05.01-.08.02 0 .04.01.05.02 0-.02.02-.02.04-.01 0 0 .03-.01.04-.01s.03 0 .07.02c.03.01.05.03.06.04.01 0 .01.03.01.04.01.01.02.02.01.04.02 0 .04.01.05.03 0 .02-.02.04-.05.06.03.03-.02.1-.05.14.29-.06.78.03.94.03.1 0 .29-.01.29-.07 0-.04-.04-.05-.22-.05-.19 0-.78.13-.78-.09 0-.1.13-.1.28-.1.01 0 .01-.01.02-.01.12-.07.3.02.4-.04-.01.03-.05.07-.18.07.22.05.38-.11.59.04-.17-.05-.51.1-.79.02-.03-.01-.04-.02-.05-.03-.11-.02-.21-.03-.21.03zm-.48-.1c.02.04 0 .04.02.06s.04 0 .05-.02c-.01 0-.05-.03-.07-.04zm.12.15c0-.01-.01-.01-.02-.02l-.07-.03c-.01 0-.02-.01-.02 0 0 0-.02.01-.01.02 0 .01.02-.01.03 0s0 .02-.02.02c.02.01.03.02.02.04 0 .01-.01.02-.03.02-.01 0-.01.01-.02.03-.01.01-.01.04.02.05.02.01.04-.01.05-.02.01-.02.01-.03.01-.04-.01-.01-.01-.02-.01-.03.01-.02.02-.01.04 0-.01-.02-.01-.03 0-.03s.01.03.02.02.01-.02.01-.03zm.09-.05c-.02-.01-.08-.03-.09-.03 0 .02.01.06.03.06.03 0 .02-.02.06-.03zm1.9 10.01c.01.03.02.07.02.12 0 .18-.15.33-.33.33-.19 0-.34-.15-.34-.33 0-.04.01-.08.02-.12-.43-.02-.36-.75-.51-.75-.07 0-.12.11-.18.24-.11-.13-.24-.32-.24-.54 0-.23.18-.48.48-.48.05 0 .1.01.15.02v-1.03c.43.11.86.17 1.23.18v.84c.04-.01.09-.02.14-.02.3 0 .48.25.48.48 0 .22-.13.42-.24.54-.07-.14-.11-.24-.18-.24-.14.01-.07.74-.5.76zm-.12.11c0-.1-.08-.19-.19-.19-.1 0-.19.08-.19.19 0 .1.08.19.19.19.1 0 .19-.08.19-.19zm.62-1.02c.06 0 .14.05.19.15.06-.11.09-.22.09-.3 0-.14-.11-.33-.33-.33-.38 0-.29.52-.48.52-.08 0-.14-.05-.14-.13 0-.15.27-.29.27-.5s-.2-.39-.41-.56c-.21.17-.41.35-.41.56s.27.35.27.5c0 .08-.06.13-.14.13-.18 0-.09-.52-.48-.52-.22 0-.33.19-.33.33 0 .08.03.19.09.3.05-.09.12-.15.19-.15.29 0 .18.75.52.75.15 0 .23-.09.23-.2 0-.1-.07-.14-.07-.22 0-.09.07-.12.14-.12s.14.03.14.12-.07.12-.07.22c0 .11.08.2.23.2.33.01.22-.75.5-.75zm-.95-15.26v-.96c-.09-.01-.17-.04-.25-.08v1.03h.25zm-1.14 5.06c.02 0 .03.01.04.02 0-.02.02-.02.03-.01 0 0 .03-.01.03 0 .01 0 .03 0 .06.01s.05.03.06.04.01.03.01.03c.01.01.02.02.01.03.02 0 .03.01.05.02 0 .02-.02.04-.04.05.03.04-.05.11-.05.15.24-.06.33.03.46.03.17 0 .28-.04.28-.1 0-.17-.63-.01-.63-.25 0-.04.03-.06.07-.09 0-.01 0-.03.01-.04.07-.08.19-.09.24-.16.01.03-.02.1-.08.13.11-.01.15-.22.42-.18-.22.04-.23.26-.54.28h-.01c-.02.03-.04.05-.04.07 0 .15.62 0 .62.25 0 .07-.11.14-.34.14-.01 0-.01.01 0 .01.11.01.14.04.19.03.03-.01.04.02.04.02 0 .03.04.01.05 0 0 .03 0 .04-.02.05v.01c.01.02 0 .05.03.04-.01.02-.02.01-.03.01.02.01.02.02.02.03 0 .05-.05.03-.05.05s.04.02.03.07c0 0-.01.01-.01.02s.02.02.02.02c-.03.01-.05 0-.05-.01-.01 0-.02 0-.02 0-.02-.01-.02-.03-.01-.05-.02.01-.01.05-.03.05 0 0-.01 0-.02 0-.01.02-.01.03 0 .04-.02 0-.03-.02-.03-.04-.01 0-.01-.01-.02-.01-.03-.01 0-.04.02-.05 0 0 0-.01-.01 0-.02.02-.05.01-.06-.02 0 0 0 0 0-.01-.02 0-.03.01-.04.02 0-.02.02-.04.05-.05 0 0 .01-.01.03-.01s.06.02.07 0 0-.02.01-.07c0-.01-.01-.02-.02-.02s-.06-.02-.1.01c-.04.02.04.04-.04.04-.05 0-.08-.01-.12-.03.02.03 0 .05.02.06.03.02.04.08.03.09s-.06.02-.09.01c-.01 0-.02 0-.02 0-.03.01 0 .04-.04.06-.02.01-.04 0-.05-.02 0 0 0 0-.01 0 0 0-.01 0-.02 0 0 0-.01 0-.01.01s0 .02-.01.02c0 0-.01 0-.02.01 0 .01.02.02.03.02-.03.02-.07 0-.06-.02 0 0-.01-.02-.01-.02 0-.01 0-.01 0-.01s0 0-.01-.01c0 .01-.01.01-.01.01s-.01 0-.02 0c0 .01.01.02.02.02-.03.01-.05-.01-.05-.03 0 0-.01-.02-.01-.02-.01-.06.06-.03.06-.05 0 0 0-.01-.01-.01s-.01 0-.02 0c-.02 0-.02-.01-.02-.02v-.01c-.02 0-.03.01-.04.02-.01-.02.03-.05.05-.05 0 0 .01-.01.02-.01.06-.02.06.1.12.06.01 0 .03-.01.05-.01 0 0 0 0 0-.01-.01-.01-.05-.02-.06-.03-.04-.01-.04-.08-.02-.11-.02.01-.05.03-.07.03-.24-.01-.05.07-.17.09-.02.01-.08.07-.13.06.01-.01 0-.03 0-.04-.01.02-.04.03-.06.03-.02.01-.03.02-.03.03 0 .03-.04.05-.06.05.01-.01.02-.02.02-.03s0-.01-.01 0c-.05.03-.1 0-.1.08-.02-.02-.01-.05-.02-.05 0 0-.01.01-.01.02-.01-.01-.01-.02 0-.03-.03.01-.05.01-.07 0 0-.01-.01-.01-.01-.02-.01.04-.04.05-.05.06.02-.02.02-.04.01-.06 0 .01-.02.02-.02.02 0-.02 0-.03-.02-.04 0 .02-.01.04-.04.05-.03 0-.04-.03-.04-.04 0 0 0-.01-.01 0-.02.01 0 .04-.03.05 0 0-.01 0-.02 0 0 .03.01.04.02.05-.02 0-.05-.02-.05-.05 0 0 0 0 0-.01-.01 0-.01-.01-.01-.01-.03-.02.01-.04.02-.07-.06.04-.07.02-.07-.01 0 0 0-.01-.01-.02-.02 0-.03.02-.03.02-.02-.03.02-.06.04-.06h.01c.01 0 .02-.01.02-.01.03-.02.03.01.05.03.01.01.02.01.03 0v-.01c-.05-.02-.06-.04-.05-.05 0 0 .01-.01.01-.02 0-.03-.01-.03-.02-.03.01-.01.05-.01.06.01h.02c.01 0 .02.01.03.02.01.02.01.03.02.04.03.04.11 0 .15-.01.02-.01.1-.01.11-.01s.09-.02.14-.04c-.03-.04-.05-.08-.06-.08s-.01.01-.01.02c-.02 0-.02-.02-.02-.03v-.01c-.01 0-.02.01-.01.01-.01 0-.01-.01-.02-.02 0 0 0 0-.01 0-.06.03-.12-.02-.07-.07-.01.05.06.06.07.01v-.01c-.04-.01-.04-.03-.01-.06v-.01c-.01 0-.01-.01-.01-.01h-.01c-.02.01-.02.01-.03.01 0 0-.01-.01-.01-.01h-.01c-.01 0-.01.02-.01.03-.03-.02-.02-.04 0-.05 0-.01 0-.02 0-.02 0-.02.03-.04.07-.02 0 0 .01 0 0 0v-.01s0 0-.01 0c-.03 0-.04-.01-.04-.03 0 0 0-.02.01-.02 0-.01-.02-.01-.02-.01.04-.03.06-.01.06.01h.02c.02 0 .03.03.03.06 0 0 0 .01 0 0s0-.01 0-.01 0 0 0-.01c-.01-.01 0-.02 0-.03 0 0 .01-.01.02-.01 0-.02-.01-.03-.02-.03.02 0 .04.01.05.03v.03c0 .03-.02.06-.03.09-.01.04-.01.05.03.07.02.01.04.03.05.04 0-.03.01-.09.03-.14-.01 0-.01-.01-.02-.02.02 0 .03-.04.05-.07-.01 0-.01-.01-.02-.02.02.01.05-.05.07-.05-.01-.05 0-.06.01-.09zm.14.13c0 .02 0 .05.03.05.02 0 .01-.01.05-.02-.03-.01-.07-.02-.08-.03zm-.11-.06c.02.03 0 .04.02.05s.04 0 .05-.01c-.02-.01-.05-.03-.07-.04zm-.01.19c-.01.01-.01.04.01.05s.04-.01.04-.02.01-.02 0-.03-.01-.02 0-.03.02-.01.03 0c-.01-.01-.01-.02 0-.02s.01.02.02.02 0-.01 0-.02-.01-.01-.01-.01l-.06-.03c-.01 0-.01-.01-.02 0 0 0-.02.01-.01.01 0 .01.02-.01.03 0s0 .01-.01.02c.01.01.03.02.02.03 0 .01-.01.02-.02.01 0-.01-.01 0-.02.02zm1.69-6.53c0 .12.1.22.22.22s.22-.1.22-.22-.1-.22-.22-.22-.22.1-.22.22zm-.58-1.44c-.28.06-.5.28-.55.57h.55zm-.52 1.67c.12 0 .22-.1.22-.22s-.1-.22-.22-.22-.22.1-.22.22.1.22.22.22zm.27-1.76h.77c-.16-.12-.28-.31-.31-.49.18.03.39.16.51.32v-.77c-.12.16-.33.29-.51.32.02-.19.14-.36.29-.55h-.73c.16.19.27.36.29.55-.18-.03-.39-.16-.51-.32v.77c.12-.16.33-.29.51-.32-.02.18-.14.36-.31.49zm3.09 10.27c.07.01.09-.08.03-.11.1 0 .14.09.12.13-.01.03-.04.05-.1.05.03.03.05.08.06.14-.06 0-.11-.02-.14-.05.01.05-.02.09-.05.1-.04.02-.13-.02-.14-.11.04.05.12.03.11-.03h-1.01c.02.06.01.13-.05.2-.06-.07-.07-.14-.05-.2h-.91c0 .06.08.07.11.03 0 .1-.09.14-.13.12-.03-.01-.05-.04-.05-.1-.03.03-.08.05-.14.05 0-.06.02-.11.05-.14-.06 0-.08-.02-.1-.05-.02-.05.02-.13.12-.13-.05.04-.03.12.03.11v-1.3c-.06.02-.13.01-.2-.05.07-.06.14-.07.2-.05v-1.2c-.06 0-.08.07-.03.11-.1-.01-.13-.1-.11-.14.02-.02.04-.04.08-.04-.03-.04-.05-.08-.04-.15.06.01.11.04.14.07.01-.04.03-.07.06-.08.05-.02.13.03.12.13-.03-.05-.11-.04-.11.02.26.07.51.18.74.34.25.17.47.37.67.62.02.03.05.06.07.09.04-.05.1-.1.2-.09-.02.09-.07.14-.13.16 0 0-.01.01-.01.01.31.44.52.98.59 1.54zm-.25-.14c.05 0 .09.01.12.03-.07-.44-.23-.87-.46-1.24-.03.01-.06.01-.08 0-.03-.02-.05-.05-.03-.1-.04.02-.08.04-.14.03.01-.06.04-.1.07-.13-.06 0-.08-.03-.09-.06s0-.06.03-.09c-.18-.22-.39-.41-.61-.56-.19-.13-.39-.22-.59-.29.02.03.03.08.03.13-.06-.01-.1-.02-.13-.05v.9c.05-.01.1.02.11.05s.01.07-.04.1c.05 0 .09.02.14.06-.04.04-.09.06-.14.06.04.04.05.07.04.1s-.06.06-.11.05v1.06c.03-.03.08-.05.13-.05 0 .06-.02.1-.05.13h.66c0-.05.02-.09.05-.1s.07-.01.1.04c0-.04.02-.09.06-.13.04.04.06.09.06.13.04-.04.07-.05.1-.04s.06.05.05.1h.77c-.02-.02-.04-.07-.05-.13zm-4.32-7.05c.02.19.22.33.31.52.09-.22.23-.39.21-.56s-.26-.4-.3-.53c-.13.24-.24.38-.22.57zm2.56-2.15h-1.37c.07.31.35.55.69.55s.61-.24.68-.55zm-10.17.46c-.09 0-.16.07-.16.16s.07.16.16.16.16-.07.16-.16-.07-.16-.16-.16zm21.77 14.01c.04.06.06.14.06.21 0 .03 0 .06-.01.09-.03.14-.12.28-.26.37-.12.08-.25.11-.38.1-.14-.01-.25-.07-.32-.18-.01-.02-.02-.04-.03-.06.01.15.01.3.02.44.01.36-.09.51-.25.59-.01-.05-.12-.16-.26-.16-.11 0-.2.08-.2.15 0 .16.2.14.2.39s-.57.56-.92.5c.05-.12.13-.52.24-.79-.11.06-.2.23-.29.48-.1.3-.24.29-.36.21.12-.13.38-.74.66-.93s.41-.27.48-.73-.01-.74-.02-1.14c-.01-.54-.24-.42-.4-.42-.37 0-1.74-.88-1.74-1.78 0-.09.01-.18.02-.28-.62-.01-.97.17-.97.74 0 .2.02.39.17.51.13.11.19.2-.03.3-.24.11-2.16.9-2.16.9-.24.09-.28-.01-.38-.13s-.21-.18-.33-.09c-.13.08.09.18.09.31s-.06.46-.94.4l.21-.35c.06-.12.09-.2.04-.21s-.1.08-.18.19l-.25.33c-.14.01-.28-.02-.28-.02.33-.33.52-.51.7-.69s.4-.27.79-.32c.45-.07 1.95-.27 1.95-.75 0-.56-.63-.52-.63-1.26 0-.65.28-1.34 2.06-1.31-.15-.42-.6-.74-1.04-.84-.89-.22-1.15-.83-1.22-1.47-.25-.01-.49-.02-.68-.04-.55-.04-.83-.2-.96-.09-.06.05-.1.12-.02.25s.26.46.41.68c.11.01.28.03.3.17s-.08.16-.11.23c-.02.06.03.13.1.13s.11-.06.1-.11c.07-.06.26-.06.44-.01.14.15.37.41.43.65-.21-.09-.52-.2-.63-.2s-.09.04.01.07c.09.03.33.12.41.2l-.02.25c-.05-.06-.48-.3-.74-.41-.25-.1-.41-.15-.54-.47s-.53-1.03-.69-1.3c-.11-.19-.07-.26-.02-.32s.1-.14.14-.2c.11-.17.14-.13.29-.11.16.01.51.03.66-.04.04-.01.07-.03.12-.04-.36-.4-.8-.97-.85-1.05-.07-.1-.17-.15-.24-.15s-.14.01-.2.06c.02.01-.01.03-.05.06-.03-.04-.07-.08-.1-.12-.06-.07-.13-.14-.2-.21.14-.11.27-.2.31-.24.09-.08.14-.14.22-.14s.19.01.24.01c.12 0 .18.03.24.1.13.15.36.31.53.45.02.01.04.03.06.05.01-.02.03-.04.05-.05.08-.07.17-.1.26-.1.09.01.18.05.25.13.09.1.13.24.12.38 0 .05-.01.1-.03.15.14.12.27.23.4.36.06-.49.32-.97.64-1.39l-.05-.05s.03-.09.03-.09c.07-.22.19-.61.24-.79.02-.07.03-.1.03-.1l.04-.12.54.21c.02-.02.03-.03.05-.05.47-.45 1.63-.76 1.63-1.41 0-.15-.05-.36-.22-.49.08.1.09.24.07.38-.03.17-.28.55-.74.55-.25 0-.43-.24-.52-.24-.05 0-.13.04-.2.1.02.34-.12.52-.26.55.05-.14.01-.38-.03-.35s-.09.07-.1.27c-.01.19-.18.44-.44.48.05-.08.14-.4.08-.44-.06-.05-.14.09-.21.09s-.12-.07-.13-.15c-.01-.07-.14 0-.17-.06-.03-.07.16-.2.33-.26s.42-.18.38-.27c-.07-.17-.58.1-.8.23-.34.2-.19-.07-.24-.18-.13-.29-.01-.32.13-.45.19-.17.57-.44 1-.65 0-.14.09-.26.2-.3.18-.07.35-.14.53-.2l-2.33-2.91c-.05-.05-.05-.1-.03-.13s.07-.01.15.06l2.71 2.65c.06-.18.12-.4.06-.64.33.16.62.48.67.79.83-.01 1.06.51 1.31.33.04.13-.1.26-.34.31.96.25.71.94 1.26 1.02-.09.1-.22.14-.41.07.6.88 0 1.45.46 1.86-.18.05-.42-.1-.59-.38.18.72-.09 1.12.04 1.42-.2.06-.35-.13-.42-.41-.05.14-.1.29-.16.42l.22.18-.08.09-.02.02c-.36.39-.54.58-.62.67l-.06.07s-.07-.04-.08-.05c-.24.29-.43.53-.43.81 0 .31.42.89.86 1.47-.02-.06-.03-.12-.03-.18v-.01c0-.11.05-.21.12-.28s.18-.11.29-.1c.15 0 .29.07.41.19.11.12.17.26.17.4v.02c0 .11-.05.21-.12.28-.08.07-.18.11-.29.1-.11 0-.21-.04-.31-.11.32.42.62.81.76 1.11.29.61.58 1 .93 1 .39 0 .74-.29.74-.75 0-1.58-2.08-1.74-2.08-3.52 0-.83.72-1.23 1.14-1.23.28 0 .47.07.64.25.05-.01.1-.02.16-.02.99 0 .37 1.31 1.13 1.39-.34.16-.79-.06-1.02-.68.05 1.19 1.55.92 1.32 1.8-.03-.59-2.03-.53-2.09-1.75-.01-.25.06-.46.19-.59-.08-.06-.19-.1-.32-.1-.35 0-.85.37-.85.94 0 1.55 2.07 1.75 2.07 3.45 0 .35-.13.67-.39.87.18.02.42-.08.54-.22-.18.65-.85.68-1.07.41-.03 0-.06 0-.09 0-.06 0-.11 0-.16-.01.13.27.34.53.64.49-.61.48-1.35-.17-1.24-.84-.18-.2-.3-.45-.38-.63-.07-.15-.17-.06-.16.1.02.53-.4 1.03-.4 1.42s.4.76.54.76c.13 0 .24-.15.33-.11s.08.16.06.44c-.01.19.02.65.05 1.14.04-.13.13-.25.25-.34.14-.09.3-.12.44-.09.11.03.2.09.25.18zm-4.01-12.24c-.2-.06-.35-.23-.52-.23-.34 0-.24.28-.34.47.24-.14.53-.21.86-.24zm-2.69 3.98c.01-.1-.02-.19-.08-.25-.02-.03-.07-.06-.12-.07-.06 0-.11.03-.13.05-.06.06-.1.14-.11.24v.02c0 .16.09.29.21.3.06 0 .1-.03.13-.05.06-.05.1-.14.1-.24zm4.68 2.89c0 .1.04.21.12.29s.18.14.28.14c.04 0 .11-.01.16-.06.05-.05.06-.11.07-.16 0-.1-.04-.21-.12-.29s-.19-.13-.28-.14c-.05 0-.11.01-.16.06-.06.05-.07.11-.07.16zm-.53-2.19c.21-.23.64-.69.64-.69l-.27-.21c.02.1 0 .24-.03.37-.06-.04-.13-.15-.12-.26l-.21.27c.06 0 .2.02.26.09-.19.18-.35.09-.46.02-.18-.12-.26-.22-.21-.31.06-.11.26-.07.28.1.15-.07.18-.19.13-.29-.04-.07-.15-.1-.25-.06.24-.13.36-.33.3-.59-.27.05-.39.2-.45.47-.02-.11-.08-.21-.17-.21-.11-.01-.21.08-.2.24.17-.06.28.11.21.21s-.2.08-.38-.02c-.2-.12-.23-.3-.13-.48.05.05.1.15.1.28l.23-.38c-.05.02-.16.04-.27 0 .06-.07.17-.19.32-.2l-.43-.25c.06.14.02.29-.01.38-.09-.08-.12-.17-.13-.23l-.21.39c.11-.07.23-.08.29-.06-.11.18-.27.25-.48.13-.18-.1-.26-.2-.21-.31.06-.11.26-.1.29.08.15-.08.17-.2.11-.29-.05-.07-.17-.08-.27-.04.2-.19.27-.36.18-.62-.25.07-.37.28-.36.54-.02-.11-.09-.19-.18-.19-.11 0-.2.09-.18.25.16-.07.29.08.23.19-.05.09-.18.07-.37-.03-.12-.06-.28-.15-.21-.41.09.02.18.13.21.18l.13-.32c-.09.06-.22.05-.28.02.1-.09.21-.18.3-.21l-.32-.12s-.18.59-.28.89zm-.09 4.94c-.13-.09-.32-.03-.43.13s-.1.36.02.45c.13.09.32.03.43-.13.12-.16.11-.36-.02-.45zm.84-.84c.11-.16.11-.36-.02-.45s-.32-.03-.43.13-.1.36.02.45.32.04.43-.13zm1.66 3.56c-.04-.06-.1-.08-.15-.09-.1-.02-.21 0-.31.07-.1.06-.17.16-.18.25-.01.04-.01.11.03.17.08.12.28.13.45.02.1-.06.17-.16.18-.25.01-.05.02-.12-.02-.17zm-6.45-9.04c-.13-.18-.07-.46.15-.63.12-.09.26-.13.4-.12.1.01.19.06.25.14.06.07.08.17.07.27-.02.13-.09.26-.21.35-.23.17-.52.16-.66-.01zm.11-.23c0 .04.01.08.04.11.08.1.26.09.39-.01.08-.06.13-.15.14-.23 0-.04 0-.1-.03-.14-.04-.05-.09-.06-.13-.07-.08-.01-.18.02-.26.08-.1.07-.15.17-.15.26zm.4 2.93c.04.11.03.22-.01.31s-.13.16-.23.2c-.14.05-.3.04-.45-.04-.27-.13-.4-.41-.3-.63.04-.09.13-.16.23-.2.14-.05.3-.03.45.04.15.06.26.18.31.32zm-.16.06c-.03-.09-.11-.18-.22-.22-.11-.05-.22-.06-.31-.03-.04.01-.1.05-.13.11-.06.13.03.31.21.4.11.05.22.06.31.03.04-.02.1-.05.13-.11.03-.08.02-.14.01-.18zm-1.94 10.62c.05-.21.09-.36.17-.55.06-.14.12-.25.18-.35.12-.22.21-.39.21-.64 0-.35-.21-.54-.44-.75-.08-.07-.16-.14-.24-.22.77.06 1.57.61 2.35 1.14.4.27.81.55 1.21.76.46.24.84.35 1.19.35.37 0 .71-.26 1.06-.54.26-.2.52-.4.82-.54.04-.02.06-.07.05-.11-.02-.04-.06-.07-.11-.05-.99.29-2.21-.53-3.4-1.31-1-.66-1.94-1.29-2.74-1.29-.3 0-.56.06-.79.19-.28.15-.49.4-.63.73s-.28.55-.39.73c-.14.22-.24.37-.24.57 0 .16.07.3.21.44.11.11.28.23.52.35.05.03.1.05.15.07.2.09.32.16.34.27-.39.17-.9.31-1.47.41-.65.11-1.36.17-2.11.17s-1.46-.06-2.11-.17c-.57-.1-1.08-.24-1.47-.41.02-.16.14-.23.35-.33.05-.02.1-.05.15-.08.2-.1.38-.21.51-.32.14-.12.2-.25.2-.41 0-.19-.1-.35-.23-.57-.12-.18-.26-.4-.39-.73-.14-.33-.35-.57-.63-.72-.23-.12-.49-.19-.79-.19-.81 0-1.75.62-2.75 1.29-1.18.79-2.41 1.6-3.4 1.31-.05-.01-.09.01-.11.06-.02.04.01.09.05.11.3.13.57.34.82.54.36.28.69.54 1.06.54.35 0 .73-.11 1.18-.35.4-.21.81-.49 1.21-.76.78-.53 1.59-1.08 2.35-1.14-.08.08-.16.15-.23.22-.23.2-.42.37-.42.73 0 .28.1.48.23.75.04.08.08.17.13.27.09.19.12.34.17.55.02.09.05.19.08.31.05.18.14.52.7.8.65.33 1.77.5 3.33.5s2.68-.17 3.33-.5c.56-.28.65-.62.7-.8.04-.14.06-.24.08-.33zm5.5-3.71c-.09-.1-.13-.22-.11-.35.02-.1.08-.19.17-.26.12-.08.28-.11.44-.09.29.05.5.29.45.53-.02.12-.1.22-.22.29-.11.06-.25.08-.39.05-.13 0-.26-.07-.34-.17zm.06-.31c-.03.14.11.29.31.33.2.03.38-.05.41-.2 0-.01 0-.02 0-.03 0-.13-.13-.26-.31-.29-.11-.02-.23 0-.31.06-.04.01-.08.06-.1.13zm-.21-1.38c.08.1.12.24.12.38 0 .16-.07.31-.17.42-.08.08-.18.12-.29.12-.1 0-.2-.05-.28-.13-.1-.1-.15-.25-.15-.41v-.01c0-.16.07-.31.17-.41.08-.08.18-.12.29-.12.12-.01.23.05.31.16zm-.06.37c0-.2-.11-.37-.26-.37-.07 0-.13.04-.16.07-.07.07-.11.17-.12.29 0 .11.04.22.1.29.03.03.08.07.15.07.07 0 .13-.03.16-.07.08-.06.13-.16.13-.28zm-7.4 1.05c-.45.28-.9.44-1.25.44-.4 0-.91-.08-1.44-.23-.47-.13-.91-.3-1.25-.48-.18.13-.39.16-.57.06-.23-.11-.39-.37-.39-.54 0-.03 0-.06.01-.09-.16-.14-.31-.29-.45-.45-.43-.49-.78-1.06-1.01-1.69-.11-.29-.2-.6-.26-.91.4.14.57 0 .69-.13.04.01.05.13.04.17.44-.01.7-.31.73-.53.04.27.11.54.2.79.16.45.39.85.69 1.2.1.12.21.23.32.33.07-.03.14-.04.21-.04.16 0 .32.08.44.22s.18.32.16.47v.01c.78.35 1.62.65 2.33.83.43.11.96.21 1.3.16-.02.01-.03.03-.05.05-.11.12-.28.25-.45.36zm-3.24-1.52c-.01-.09-.06-.19-.13-.27-.1-.11-.22-.17-.35-.17-.28 0-.57.3-.66.39l-.03.03-.04-.01c-.07-.02-.14-.03-.22-.04.03.06.06.13.1.19l.02.03-.02.03c-.14.22-.21.43-.21.59 0 .11.12.33.32.42.13.06.26.06.38-.02-.07-.04-.16-.09-.22-.13l-.03-.02c-.06-.03-.12-.07-.14-.15 0-.02-.01-.03-.01-.05 0-.07.03-.15.09-.26.01-.02.03-.04.04-.06.01-.01.02-.03.03-.04l.03-.05.05.03c.1.06.2.09.28.07.03-.01.06-.03.07-.06.04-.07.02-.2-.12-.31l-.05-.04.08-.09c.05-.06.1-.12.16-.17.12-.11.24-.11.37 0l.07.06c.05.04.1.08.14.1zm.63.95c0-.17-.13-.3-.3-.3s-.3.13-.3.3.14.3.3.3.3-.14.3-.3zm1.29.43c0-.15-.12-.27-.28-.27-.15 0-.28.12-.28.27s.12.28.28.28c.16-.01.28-.13.28-.28zm11.58-.82c0-.38.31-.69.7-.69.38 0 .69.31.69.69s-.31.69-.69.69c-.39 0-.7-.31-.7-.69zm.18 0c0 .28.23.52.52.52.28 0 .51-.23.51-.52 0-.28-.23-.51-.51-.51-.29-.01-.52.22-.52.51zm-16-12.54c.12 0 .22-.1.22-.22s-.1-.22-.22-.22-.22.1-.22.22.1.22.22.22zm.25-.51c.12 0 .22-.1.22-.22s-.1-.22-.22-.22-.22.1-.22.22c-.01.12.09.22.22.22zm.44-.38c.12 0 .22-.1.22-.22s-.1-.22-.22-.22-.22.1-.22.22c-.01.12.09.22.22.22zm-4.15-.86c.06.06.17.06.23 0s.06-.16 0-.23c-.06-.06-.17-.06-.23 0-.07.06-.07.16 0 .23zm3.39 2.29c.12 0 .22-.1.22-.22s-.1-.22-.22-.22-.22.1-.22.22c-.01.12.09.22.22.22zm4.5 10.85c.01-.01.02-.02.02-.03s0-.01-.01 0c-.05.03-.1 0-.11.08-.02-.02-.01-.05-.02-.05s-.01.01-.01.02c-.01-.01-.01-.02 0-.03 0 0 0-.01-.01 0-.03.01-.05.01-.07 0 0-.01-.01-.01-.01-.02-.01.04-.04.05-.05.06.02-.02.02-.04.01-.06-.01.01-.02.02-.02.02.01-.02 0-.03-.02-.03 0 .02-.01.04-.04.05-.03 0-.04-.03-.04-.04 0 0 0-.01-.01 0-.02.01 0 .04-.03.06 0 0-.01 0-.02 0 0 .02.01.04.02.05-.02 0-.05-.02-.05-.05 0 0 0 0 0-.01-.01 0-.01-.01-.01-.01-.03-.02.01-.04.02-.07-.06.04-.07.02-.07-.01 0 0 0-.01-.01-.02-.02 0-.03.02-.03.03-.02-.03.02-.06.04-.06h.01c.01 0 .02-.01.02-.01.03-.01.03.01.05.03.01.01.02.01.03 0 .01 0 0-.01 0-.01-.05-.02-.06-.04-.05-.05 0 0 .01-.01.01-.02-.01-.02-.02-.02-.03-.02.01-.01.05-.01.06.01h.02c.01 0 .02.01.03.02.01.02.01.03.02.04.01.02.04.02.06.01v.01l.01-.01c.03 0 .07-.02.08-.03.02-.01.12 0 .13 0s-.01-.03-.03-.06c-.04 0-.08-.02-.09-.07-.08-.04-.07-.13-.08-.13s-.01.01-.01.02c-.02 0-.02-.02-.03-.03v-.01c-.01 0-.01.01-.01.01-.01 0-.02-.01-.02-.02 0 0 0-.01-.01 0-.05.03-.12-.02-.08-.08 0 .05.07.06.07.01 0 0 0-.01-.01-.01-.04-.01-.04-.03-.01-.06 0 0 0 0 0-.01 0 0-.01-.01-.01-.01s0 0-.01 0c-.02.01-.02.01-.03.01 0 0-.01-.01-.01-.01s0 0-.01 0-.01.02-.01.03c-.03-.02-.02-.04-.01-.05v-.02c0-.02.02-.04.06-.02v-.01s0 0-.01 0c-.03 0-.05-.01-.04-.03 0 0 0-.02 0-.03s-.02-.01-.02-.01c.03-.03.06-.01.06.01h.02c.02 0 .03.03.04.06 0 0 0 .01 0 0s0-.01 0-.01 0 0 0-.01c-.01-.01-.01-.02 0-.03 0 0 .01-.01.01-.02 0-.02-.01-.03-.02-.03.02 0 .04.01.05.03 0 .01.01.03.01.03 0 .03-.01.06-.01.09 0 .04 0 .06.04.08s.1.12.14.16c-.01-.05 0-.11.01-.16-.01 0-.01-.01-.02-.02.02 0 .03-.04.05-.08-.01 0-.01-.01-.02-.02.02.01.04-.05.07-.05-.01-.03 0-.05.01-.07.02 0 .03.01.04.02 0-.01.02-.01.03-.01 0 0 .03-.01.03-.01.01 0 .03 0 .06.02.03.01.05.03.05.04.01 0 .01.03.01.03.01.01.02.02.01.03.02 0 .03.01.05.02 0 .02-.02.04-.04.05.03.03-.03.1-.05.15.28-.07.51.01.64.01.17 0 .3-.04.3-.09 0-.06-.66.08-.66-.09 0-.06.07-.1.15-.12.01-.01.01-.01.02-.02.11-.06.35.03.44-.02-.01.03-.13.05-.24.05.19.04.32-.08.53-.01-.16-.04-.45.15-.71.08-.03-.01-.04-.02-.05-.03-.05.02-.09.04-.09.07 0 .11.66-.05.67.1 0 .07-.14.13-.36.13-.01 0-.04 0-.06 0 0 .05.07.05.11.1.02.02.01.05-.03.06-.03.01.02.04.04.04-.02.02-.03.03-.05.02h-.01c-.01.02-.04.03-.01.05-.02.01-.03 0-.03-.01.01.01 0 .03-.01.03-.03.03-.05-.01-.07.01-.02.01.01.04-.03.06h-.02v.03c-.03-.01-.03-.03-.03-.05 0 0-.01-.01-.01-.01-.01-.02.01-.03.03-.04-.02-.01-.05.03-.06.01 0 0-.01-.01-.01-.01-.02.01-.02.01-.03.02-.01-.01-.01-.04.01-.05 0-.01 0-.01 0-.02-.01-.03.03-.02.05-.02 0 0 0 0 0-.01-.01-.01-.01-.01-.01-.02v-.01c-.02-.01-.03 0-.04 0 .01-.02.04-.03.06-.03 0 0 .02-.01.03 0s.03.03.04.04c.02-.01.01-.02.05-.04.01-.01.01-.02 0-.03s-.06-.04-.1-.05c-.02.04-.17.01-.22 0 .1.06.05.18.07.19.03.02.04.08.03.09-.01.02-.03.01-.06 0-.01 0-.02 0-.03 0-.03.01 0 .04-.04.06-.02.01-.04 0-.05-.02 0 0 0-.01-.01-.01s-.01 0-.02 0c0 0-.01 0-.01.01s0 .02-.01.02c0 0-.01 0-.02.01 0 .01.02.01.03.02-.03.02-.07 0-.06-.02 0 0-.01-.02-.01-.02 0-.01 0-.01 0-.01s0 0-.01-.01c0 .01-.01.01-.01.01h-.01c0 .01.01.02.02.02-.03.01-.05-.01-.05-.03 0-.01-.01-.02-.01-.02-.01-.06.06-.03.06-.05 0 0 0-.01-.01-.01s-.01.01-.02.01c-.02 0-.02-.01-.02-.02v-.01c-.02 0-.03.01-.04.02-.01-.03.03-.05.05-.05 0 0 .01-.01.02-.01.06-.02.06.1.12.06.01 0 .03-.01.05-.01 0 0 .01 0 0-.01s-.06-.05-.06-.09c0-.03.01-.08.02-.1-.07 0-.1.05-.17.06-.01 0-.02 0-.02 0-.01.1-.05.13-.05.14.04.06-.02.09-.04.09zm.09-.66c0 .02.01.05.03.05s.01-.01.05-.02c-.03 0-.08-.02-.08-.03zm-.11-.06c.02.03 0 .04.02.05.02.02.04 0 .05-.01-.02 0-.06-.02-.07-.04zm.05.22c.01-.01.01-.02 0-.03s-.01-.02-.01-.03c.01-.01.02-.01.03 0-.01-.01-.01-.02 0-.02s.01.02.02.02 0-.01 0-.02 0-.01-.01-.02l-.06-.03c-.01 0-.01 0-.02 0 0 0-.01.01-.01.02 0 0 .02-.01.02 0 .01.01 0 .01-.01.02.01.01.03.01.02.03 0 .01-.01.01-.02.01s-.01.01-.02.02c0 .01 0 .04.02.05s.04-.01.05-.02zm-3.31-1.9v.01l.06-.14c.15.09.39.19.6.19.48 0 .82-.23 1-.23.2 0 .31.14.3.32v.05h.05c.05.01.1.04.1.1s-.06.09-.12.09h-.04l-.04 1.65.05.01-.01.15c-.01.05-.07.06-.12.05.03.26-.19.32-.3.32s-.22-.08-.22-.21c0-.11.1-.15.17-.15s.1.03.09.08c-.01.04-.12.01-.12.07 0 .04.04.07.09.07.08 0 .13-.04.13-.14 0-.15-.14-.17-.28-.14-.95-.28-1.48-1.2-1.41-1.92-.02-.01-.04-.02-.06-.03l.06-.14c-.02.03-.06.04-.09.04-.07 0-.12-.05-.12-.12 0-.06.05-.12.12-.12.05.02.11.07.11.14zm1.17.17.47.67c.03-.18.05-.34.07-.43 0-.02 0-.03.01-.04h-.03c-.06 0-.11-.04-.1-.11s.07-.09.12-.09h.04c.02-.15 0-.19-.08-.19-.11.01-.29.11-.5.19zm-.36.12.74 1.06c.02-.11.04-.23.05-.34l-.56-.79c-.06.03-.14.05-.23.07zm-.38.03 1.05 1.5c.01-.09.03-.19.05-.31l-.84-1.2c-.05.01-.11.01-.16.01-.03 0-.07 0-.1 0zm-.14.01c-.08.86.53 1.41 1.15 1.65zm-4.94-11.41c.06-.06.06-.16 0-.23-.06-.06-.17-.06-.23 0s-.06.16 0 .23c.07.06.17.06.23 0zm7.57 11.45c.01.01.03.01.03 0 .01 0 0-.01 0-.01-.06-.02-.07-.04-.06-.06 0 0 .01-.01.01-.02-.01-.02-.02-.02-.04-.03.01-.01.05-.01.07.01h.02c.01 0 .02.01.03.03s.01.03.02.05c.03.04.13 0 .16-.02.03-.01.11 0 .12 0s-.04-.04-.03-.08l-.01.01c-.02-.01-.03-.02-.03-.04-.02.01-.05.02-.05.03-.09-.05-.12-.13-.14-.13-.01 0-.01.01-.01.02-.02 0-.03-.02-.03-.04v-.01c-.01 0-.01.01-.01.01-.01 0-.02-.01-.02-.02 0 0 0 0-.01 0-.06.03-.13-.02-.09-.09 0 .06.08.07.08.01 0-.01 0-.01-.01-.01-.04-.01-.05-.04-.02-.07v-.01c-.01 0-.01-.01-.01-.01-.01 0-.01 0-.01 0-.02.01-.02.01-.03.01 0 0-.01-.01-.01-.01s0 0-.01 0-.01.02-.01.03c-.03-.02-.03-.04-.01-.06v-.02c0-.02.02-.04.07-.02 0 0 .01 0 0 0v-.01s0-.01-.01-.01c-.03 0-.05-.01-.05-.04 0 0 0-.02.01-.03 0-.01-.02-.01-.03-.01.03-.03.06-.01.06.02h.02c.02 0 .04.04.04.07 0 0 0 .01 0 0s0-.01 0-.02c0 0 0 0 0-.01-.01-.01-.01-.03 0-.04 0 0 .01-.01.02-.02 0-.02-.01-.03-.02-.04.02-.01.05.01.06.04 0 .01.01.03.01.03 0 .03-.02.06-.02.1s0 .06.04.09c.06.03.08.09.11.09.01 0 .03 0 .03.01h.03l.04.01c0-.02 0-.04 0-.06-.01 0-.02-.01-.03-.03.02 0 .03-.05.05-.08-.01 0-.02-.01-.02-.03.02.01.05-.05.08-.06-.01-.03 0-.05.01-.07.02 0 .04.01.05.02 0-.02.02-.02.03-.02 0 0 .03-.01.04 0 .01 0 .03 0 .06.02s.05.03.06.04c.01 0 .01.03.02.04s.02.02.01.04c.02 0 .04.01.05.02 0 .02-.02.04-.04.05.03.04-.04.11-.05.15.27-.08.96.01 1.12.01.1 0 .27-.01.27-.06 0-.03-.04-.05-.22-.05s-.91.12-.91-.09c0-.12.24-.09.44-.09.01-.01.01-.01.02-.01.11-.07.37.03.46-.03-.01.03-.13.06-.25.06.2.04.34-.09.55-.01-.16-.05-.47.15-.74.08-.02-.01-.04-.02-.05-.03-.16-.01-.38-.04-.38.04 0 .12.64.04.85.04s.28.04.28.1c0 .08-.22.09-.34.1-.01 0-.01.01 0 .01.12.01.18.02.25.02.04-.01.04.02.04.02 0 .04.05.02.06 0 0 .03-.01.05-.02.06v.01c0 .02-.01.05.03.05-.01.02-.02.02-.04.02.02.01.02.02.02.03 0 .05-.05.04-.05.06s.04.02.02.07c0 0-.01.01-.02.02 0 .01.02.02.02.02-.03.01-.05 0-.06-.02-.01 0-.02 0-.02 0-.02-.01-.01-.04 0-.06-.03.01-.02.06-.04.05h.01c-.01.02-.01.03-.01.04-.02 0-.03-.02-.03-.04-.01 0-.01-.01-.02-.01-.03-.01.01-.04.03-.06 0 0 0-.01-.01 0-.02.02-.06.01-.06-.02v-.01c-.02 0-.04.02-.05.02 0-.03.03-.05.06-.05 0 0 .02-.01.03-.01.03 0 .07.02.08 0s0-.03.01-.08c0-.02-.01-.02-.02-.02-.02 0-.07-.02-.12.01s-.08.04-.17.04c-.05 0-.09-.02-.13-.03.02.03 0 .06.02.07.04.02.04.08.03.1s-.06.02-.1.01c-.01 0-.02 0-.03 0-.04.01 0 .05-.04.06-.02.01-.04-.01-.05-.02 0 0 0-.01-.01 0-.01 0-.01 0-.02 0 0 0-.01 0-.01.01s0 .02-.01.03c0 0-.01 0-.02.01 0 .01.03.02.04.02-.04.03-.07 0-.07-.03 0 0-.01-.02-.01-.02 0-.01 0-.01 0-.01s0 0-.01-.01c0 .01-.01.01-.01.01s-.01 0-.02 0c0 .01.01.02.02.03-.04.01-.05-.01-.05-.03 0 0-.01-.02-.01-.02-.02-.07.07-.03.07-.06 0 0 0-.01-.01-.01s-.01.01-.03.01-.03-.01-.02-.02v-.01c-.02 0-.03.02-.04.03-.01-.03.03-.06.06-.06 0 0 .02-.01.02-.01.07-.02.07.11.13.07.01-.01.03-.01.06-.01 0 0 .01 0 0-.01s-.05-.03-.07-.03c-.04-.01-.04-.09-.02-.13-.02.02-.03.04-.05.04-.4-.04-.21.15-.55.11-.02 0-.02.04-.08.04-.03.01-.06.01-.06.02 0 .03-.08.09-.11.07.01-.01.02-.02.03-.03 0-.01 0-.01-.01 0-.06.04-.11 0-.12.09-.02-.02-.01-.06-.02-.06 0 0-.01.02-.02.02-.01-.01-.01-.02 0-.04-.04.01-.06.01-.07 0 0-.01-.01-.01-.01-.02-.01.04-.04.06-.06.06.02-.02.02-.05.02-.06-.01.01-.02.02-.03.03 0-.02-.01-.03-.02-.04 0 .02-.01.05-.05.05s-.04-.03-.05-.04c0 0 0-.01-.01 0-.02.01 0 .05-.03.06 0 0-.01 0-.02 0 0 .03.01.04.02.05-.02 0-.06-.03-.05-.06 0 0 0 0 0-.01-.01 0-.01-.01-.01-.01-.03-.02.01-.05.02-.07-.07.04-.08.02-.08-.01 0 0 0-.01-.01-.02-.02 0-.03.02-.03.03-.02-.03.02-.07.05-.06h.01c.01 0 .02-.01.02-.01.06-.06.06-.03.08-.01zm.57-.48c0 .02.01.05.03.05s.01-.01.05-.02c-.02-.01-.07-.03-.08-.03zm-.12-.07c.02.03 0 .04.02.06s.04 0 .05-.02c-.01 0-.05-.03-.07-.04zm.01.26c.02.01.04-.01.05-.02 0-.02.01-.03 0-.03-.01-.01-.01-.02-.01-.03.01-.02.02-.01.04 0-.01-.02-.01-.03 0-.02.01 0 .01.02.02.02s0-.02 0-.02c0-.01 0-.01-.01-.02l-.07-.03c-.01 0-.02 0-.02 0 0 .01-.02.01-.01.02 0 .01.02-.01.03 0s0 .01-.02.02c.02.01.03.02.02.03-.01.02-.01.02-.03.02-.01 0-.01.01-.02.03 0-.01 0 .02.03.03zm-.59 1.17c.02 0 .03 0 .03-.01.03-.02.03.01.05.03.01.01.02.01.03 0v-.01c-.06-.02-.06-.04-.05-.05 0 0 0-.01.01-.02-.01-.02-.02-.02-.04-.02.01-.01.05-.01.06.01h.02c.01 0 .02.01.03.02.01.02.01.03.02.05.03.04.12 0 .16-.02.03-.01.1 0 .12 0 .01 0 0-.06 0-.1l-.05.01c-.01-.01-.02-.01-.03-.03-.07-.04-.07-.01-.08-.01s-.01.01-.01.02c-.02 0-.03-.02-.03-.04v-.01c-.01 0-.01.01-.01.01-.01 0-.02-.01-.02-.02 0 0 0 0-.01 0-.06.03-.13-.02-.09-.08 0 .06.07.07.07.01 0 0 0-.01-.01-.01-.04-.01-.04-.04-.01-.07 0 0 0 0 0-.01 0 0-.01-.01-.01-.01h-.01c-.02.01-.02.01-.03.01 0 0-.01-.01-.01-.01s0 0-.01 0-.01.02-.01.03c-.03-.02-.02-.04-.01-.05 0-.01 0-.02 0-.02 0-.02.02-.04.07-.02 0 0 .01 0 0 0v-.01s0-.01-.01-.01c-.03 0-.05-.01-.05-.04 0 0 0-.02.01-.03-.01-.01-.02-.01-.02-.01.03-.03.06-.01.06.02h.02c.02 0 .03.04.04.06 0 0 0 .01 0 0s0-.01 0-.02v-.01c-.01-.01-.01-.02 0-.04 0 0 .01-.01.02-.02 0-.02-.01-.03-.02-.03.02-.01.05.01.05.03 0 .01.01.03.01.03 0 .03-.01.06-.01.1s0 .06.04.08c.05.03.07.03.1.03h.01l.02.01c0-.02.01-.05.01-.07-.01 0-.01-.01-.02-.02.02 0 .03-.04.05-.08-.01 0-.01-.01-.02-.03.02.01.05-.05.07-.06-.01-.03 0-.05.01-.07.02 0 .03.01.05.02 0-.02.02-.02.03-.02 0 0 .03-.01.04 0 .01 0 .03 0 .06.02.03.01.05.03.06.04.01 0 .01.03.01.03.01.01.02.02.01.03.02 0 .03.01.05.02 0 .02-.02.04-.04.05.03.03-.02.09-.04.13.27-.05.7.02.85.02.09 0 .29-.01.29-.06 0-.03.02-.05-.15-.05s-.7.12-.7-.08c0-.09.12-.09.26-.09 0 0 .01-.01.02-.01.11-.06.35.03.44-.03-.01.03-.13.06-.24.06.2.04.32-.08.53-.01-.15-.04-.45.15-.71.07-.03-.01-.04-.02-.05-.03-.11-.01-.19-.01-.19.04 0 .11.45.04.65.04s.21.04.21.1c0 .07-.23.09-.35.1-.01 0-.01.01 0 .01.11.01.2.02.26.02.04-.01.03.02.03.02 0 .03.04.01.06 0 0 .03-.01.04-.03.05v.01c0 .02-.02.05.02.05-.01.02-.03.02-.04.02.01.01.01.02.01.03-.01.05-.06.03-.06.06-.01.02.04.02.01.07 0 0-.01.01-.02.02 0 .01.01.02.02.02-.03.01-.05 0-.05-.02-.01 0-.02 0-.02 0-.02-.01-.01-.03.01-.06-.03.01-.03.05-.05.05 0 0-.01 0-.02 0-.02.02-.02.03-.01.04-.02 0-.03-.02-.02-.04-.01 0-.01-.01-.02-.01-.02-.01.02-.04.04-.06.01-.01 0-.01-.01-.01-.03.02-.06.01-.05-.02v-.01c-.02 0-.04.02-.05.02 0-.03.04-.05.06-.05 0 0 .02-.01.03-.01.03 0 .06.02.08 0s0-.02.02-.07c.01-.02 0-.02-.01-.02s-.06-.02-.11.01-.09.04-.18.04c-.05 0-.09-.01-.12-.03.02.03 0 .06.02.07.04.02.04.08.03.1-.01.01-.06.01-.09.01-.01 0-.02 0-.03 0-.03.01 0 .04-.04.06-.02.01-.04 0-.05-.02 0 0 0-.01-.01 0-.01 0-.01 0-.02 0h-.01c0 .01 0 .02-.01.02 0 0-.01 0-.02.01 0 .01.02.02.03.02-.04.02-.07 0-.07-.03 0 0-.01-.02-.01-.02 0-.01 0-.01 0-.01s0-.01-.01-.01c0 .01-.01.01-.01.01s-.01 0-.02 0c0 .01.01.02.02.02-.03.01-.05-.01-.05-.03-.01 0-.01-.02-.01-.02-.01-.07.06-.03.06-.05 0-.01 0-.01-.01-.01s-.01.01-.03.01-.02-.01-.02-.02v-.01c-.02 0-.03.01-.04.02-.01-.03.03-.06.05-.06 0 0 .01-.01.02-.01.06-.03.07.1.12.06.01-.01.03-.01.05-.01 0 0 .01 0 0-.01s-.05-.02-.07-.03c-.04-.01-.04-.08-.02-.12-.02.01-.05.03-.07.03-.28-.05-.15.11-.32.1-.02 0-.02.04-.07.04.02-.01.01-.02.01-.03 0 .01-.01.01-.02.02-.02.04-.08.13-.14.09.01-.01.02-.02.02-.03s0-.01-.01 0c-.06.04-.13.01-.13.1-.02-.02-.01-.06-.02-.06 0 0-.01.01-.01.02-.01-.01-.01-.02 0-.04-.03.01-.06.01-.07 0 0-.01-.01-.01-.01-.02-.01.04-.04.05-.06.06.02-.02.02-.04.01-.06-.01.01-.02.02-.02.03 0-.02-.01-.03-.02-.04 0 .02-.01.05-.05.05s-.04-.03-.04-.04c0 0 0-.01-.01 0-.02.01 0 .05-.03.06 0 0-.01 0-.02 0 0 .02.01.04.02.05-.02 0-.06-.02-.05-.06 0 0 0 0 0-.01-.01 0-.01-.01-.01-.01-.03-.02.01-.05.02-.07 0 0 0-.01-.01 0-.06.04-.07.02-.08-.01 0 0 0-.01-.01-.02-.02 0-.03.02-.03.03.04 0 .07-.03.1-.03zm.67-.44c0 .02 0 .05.03.05.02 0 .02-.01.05-.02-.03-.01-.07-.02-.08-.03zm-.12-.06c.02.03 0 .04.02.05.02.02.04 0 .05-.01-.01-.01-.05-.03-.07-.04zm.01.24c.02.01.04-.01.05-.02s.01-.03 0-.03c-.01-.01-.01-.02 0-.03.01-.02.02-.01.04 0-.01-.01-.01-.03 0-.02.01 0 .01.02.02.02s0-.01 0-.02 0-.01-.01-.02l-.06-.03c-.01-.01-.01-.01-.02 0-.01 0-.01.01-.01.02s.02-.01.03 0 0 .01-.02.02c.01.01.03.02.02.03 0 .01-.01.02-.03.02-.01 0-.01.01-.02.02s-.02.03.01.04zm-4.46-9.34c-.12 0-.22.1-.22.22s.1.22.22.22.22-.1.22-.22-.1-.22-.22-.22zm-6.01-1.72c.09 0 .16-.07.16-.16s-.07-.16-.16-.16-.16.07-.16.16.07.16.16.16zm2.09-.18c-.15-.08-.28.05-.15.22.03-.14.15-.11.18 0 .03.1-.07.22-.23.27-.23.07-.31-.08-.36-.2.05-.03.17-.02.3.06l-.11-.37c-.05.13-.13.18-.22.22-.01-.11.07-.32.07-.32l-.44.18s.21.1.28.18c-.09.03-.18.05-.31-.01l.18.34c.04-.15.11-.24.17-.25.05.13.1.29-.12.4-.15.08-.3.05-.36-.04-.06-.1.01-.21.13-.13-.02-.21-.2-.21-.26-.05 0-.22-.05-.35-.28-.41-.06.22.02.35.24.44-.12-.01-.26.11-.09.26 0-.14.11-.15.18-.06.04.06.03.17-.05.22-.07.05-.21.04-.39-.12.05-.02.11-.01.19 0l-.24-.29c.01.1.01.18-.01.22-.05-.06-.07-.11-.09-.22l-.18.16c.17.1.37.27.61.6.25-.16.7-.37.98-.49.28-.11.75-.27 1.04-.33-.06-.4-.03-.66.02-.85l-.24.01c.06.1.08.14.09.22-.05-.02-.1-.07-.17-.15l.03.37c.04-.07.08-.11.13-.13-.01.24-.11.34-.19.36-.1.02-.18-.05-.19-.12-.02-.11.07-.18.17-.08.02-.22-.16-.22-.24-.13.09-.22.06-.36-.14-.48-.13.21-.08.34.07.5zm-5.94 8.41c-.12-1.22 1.35-.95 1.48-1.96-.3.44-.83.77-1.13.6.76.02.53-1.55 1.4-1.55.09 0 .19.02.29.06.24-.19.52-.31.76-.31.35 0 .91.26.91.94 0 1.53-2.47 2.52-2.47 3.95 0 .48.29.71.67.71.86 0 1.41-1.54 2.35-2.8.58-.85.98-2.53 1.37-3.33-.45.32-.52 1.2-1.07 1.26.29-.25.08-1.01.27-1.56.07-.2.1-.4.04-.61-.34.36-.19 1.55-.73 1.7.19-.24-.02-.63-.02-1 0-.68.35-.79.39-1.42-.33.12-.21 1.02-.86 1 .46-.45-.01-.93.51-1.44-.31-.14-.52-.38-.52-.63.2-.16.44-.22.66-.24-.1-.15.03-.3.17-.42.05.06.12.18.19.13.13-.09.57-.36.96-.51s.89-.28 1.04-.31c.1-.02.05-.14.04-.23.19-.01.4 0 .42.2.16-.13.39-.2.61-.21.13.27.15.49.04.86.31.02.49.29.78.22-.25.34-.55.2-.85.16.84.26 1 1.09 1.47 1.14-.5.39-.83-.3-1.26-.29 1.12.56 1.13 1.24 1.44 1.25-.35.31-.62-.1-1.07-.2.89.59.95 1.06.88 1.46.19.18.17.41.18.69.15-.1.4-.14.57-.19-.06.06-.12.12-.18.19-.45.5-.77.99-1.02 1.64-.19-.19-.4-.38-.5-.48-.18-.17-.35-.13-.42-.12.29.33 1.25 1.35 1.53 1.67.28.33.25.56.29.81s.35.44.29.61c-.08.21.1.26.1.42 0 .21-.18.31-.38.35.14-.29.02-.45-.22-.49.05.55-.38.63-.56.54.17-.03.24-.3.15-.53-.08.19-.27.33-.45.33-.17 0-.3-.13-.37-.27.2.13.36-.02.36-.13 0-.1-.2-.16-.2-.31 0-.37.41-.22.41-.55 0-.13-.07-.19-.16-.19-.08 0-.22.04-.25.26-.2-.18 0-.59-.09-.86.02.43-.28.41-.39.58-.15-.15 0-.45-.14-.8-.05.4-.2.34-.25.57-.4-.2-1.12-.13-1.36.14.68.53 1.5.81 1.5 1.64 0 .63-.99.88-.99 1.28 0 .41 1.03 1.35 1.55 1.35.17 0 .25-.21.39-.22s.26 0 .39.01.23.13.23.24c.24.03.54.39.24.69-.05-.17-.21-.4-.52-.24.12.27.01.54-.34.64.11-.18.13-.41-.08-.41s-.03.13-.42.13-.35.02-.51-.21c-.16-.22-.27-.31-.36-.28s-.13.26.02.34c-.83 0-.49-.86-.92-1.07.02.27.03.47 0 .6-.31-.24-.5-.57-.55-.77-.06-.21-.01-.4-.22-.5-.07-.03-.14-.1-.12-.21.02-.09.07-.06.22-.13.18-.08.4-.25.4-.69 0-.33-.07-.79-.62-1.11.04.7.03 1.3-.29 1.84-.41.69-1.11 1.12-1.5 1.29-.4.17-.95.3-.95.82 0 .96.43 1.54.87 1.54.28 0 .21-.32.62-.32.18 0 .37.07.41.2.22-.04.46.08.46.29s-.09.33-.26.36c.13-.27-.2-.34-.3-.28s.03.16.03.32-.05.32-.34.39c.06-.1.06-.24-.12-.24s-.24.29-.47.29c-.36 0-.46-.16-.81-.09-.25.05-.24.19-.15.25-.5.03-.4-.51-.29-.62s.18-.18.03-.28-.39 0-.43.24c-.37-.72.15-.69-.02-1.5-.09.34-.3.6-.46.69.06-.18-.1-.52-.1-.8 0-.62.39-.82.39-1.02 0-.13-.15-.27.01-.4.08-.07.26.07.37.07.5 0 .85-.63.93-1.34.09-.84.42-1.41.77-2.05.01-.1.03-.2.05-.3-.35.43-.65 1.09-1.13 1.47.06.53-.99 1.15-1.59.68.2.01.57-.08.68-.38-.09-.01-.17-.02-.25-.05-.37.2-.95-.05-.93-.46.15.17.33.21.5.13-.13-.17-.2-.4-.2-.66 0-1.57 2.46-2.65 2.46-3.94 0-.41-.26-.62-.53-.62-.15 0-.32.04-.49.15.12.11.2.24.2.41-.02 1.52-2.36 1.38-2.56 2.34zm6.22-6.86c.13.23.43.39.66.21.18-.14.03-.29.25-.63-.25.15-.6.29-.91.42zm-.66.25c-.31.12-.67.26-.95.32.4.1.39.31.62.29.28-.03.39-.35.33-.61zm.24.92c.13-.02.12.1.03.27.2-.05.39-.13.48.04.08.15.04.25-.09.37-.07.07-.02.21.03.38.06.17.28.43.57.3.31-.13.28-.43.2-.59s-.15-.3-.24-.3c-.18 0-.27-.04-.32-.2-.06-.19.13-.26.31-.36-.19-.06-.28-.14-.17-.22.12-.09.3.08.34 0s-.09-.15-.15-.2c-.07-.07-.15-.05-.26-.02l-.84.32c-.11.05-.17.08-.17.19 0 .08-.05.22.04.25.09.04.09-.21.24-.23zm-1.7-2.89c.09 0 .16-.07.16-.16s-.07-.16-.16-.16-.16.07-.16.16.07.16.16.16zm1.43-.46c.06-.06.06-.16 0-.23-.06-.06-.17-.06-.23 0s-.06.16 0 .23c.06.06.17.06.23 0zm-1 .43c.09 0 .16-.07.16-.16s-.07-.16-.16-.16-.16.07-.16.16.07.16.16.16zm1.36-.7c.06-.06.06-.16 0-.23-.06-.06-.17-.06-.23 0s-.06.16 0 .23c.07.06.17.06.23 0zm-1.39.05.13.28.16-.19c.01 0 .01 0 .02.01.01.09.02.26.02.35 0 .11.09.2.2.2s.21-.09.21-.2c0-.08-.04-.15-.11-.18-.08-.06-.17-.14-.23-.21 0-.01.01-.02.01-.03l.27.02-.11-.29-.2.17s-.01 0-.01-.01l-.02-.3-.28.11.19.22c-.01.01-.01.01-.01.02z" fill="#25222c"/></svg>