<svg xmlns="http://www.w3.org/2000/svg" width="72" height="56" viewBox="0 0 72 56">
<path fill="#25222C" d="M0,56h1.33V0H0V56z M43.67,32.24h-1.39v-1.18h1.39v-2.44h1.34v2.44h1.63v1.18h-1.63v5.05
c0,0.61,0.17,0.72,1.01,0.72h0.62v1.18h-1.03c-1.39,0-1.94-0.28-1.94-1.78V32.24z M48.96,35.58c0-2.06,0.79-3.29,2.96-3.29v-1.42
c-1.45-0.05-2.36,0.6-3,1.9h-0.03v-1.72h-1.27v8.14h1.34V35.58z M38.61,38.2c-1.11,0-2.15-0.38-2.2-1.57h-1.34
c0.08,2.02,1.63,2.76,3.46,2.76c1.66,0,3.48-0.63,3.48-2.57c0-1.57-1.33-2.01-2.67-2.31c-1.25-0.3-2.67-0.46-2.67-1.42
c0-0.82,0.93-1.04,1.74-1.04c0.88,0,1.8,0.33,1.9,1.37h1.34c-0.11-1.98-1.55-2.55-3.35-2.55c-1.42,0-3.05,0.68-3.05,2.31
c0,1.56,1.34,2,2.67,2.3c1.34,0.3,2.67,0.47,2.67,1.51C40.59,38.02,39.45,38.2,38.61,38.2z M25.47,34.6c0-1.46,0.79-2.55,2.42-2.55
c1.03,0,1.66,0.65,1.66,1.64v5.51h1.34v-5.35c0-1.75-0.66-2.98-2.81-2.98c-1.17,0-2.09,0.47-2.66,1.48h-0.03v-1.29h-1.26v8.14h1.34
V34.6z M29.51,52.71c0,1.24-0.43,2.03-1.8,2.03c-1.47,0-1.82-0.93-1.82-2.24v-0.47h-1.5v0.69c0,2.11,1.19,3.27,3.29,3.27
c2.53,0,3.34-1.54,3.34-3.07v-8.44h-1.5V52.71z M21.14,29.59h1.34v-1.64h-1.34V29.59z M21.14,39.2h1.34v-8.14h-1.34V39.2z
M32.55,29.59h1.34v-1.64h-1.34V29.59z M16.85,46.38v1.21h-1.37v1.18h1.37v6.96h1.34v-6.96h1.58v-1.18h-1.58v-1.13
c0-0.71,0.38-0.91,1.03-0.91c0.24,0,0.52,0.03,0.76,0.11v-1.17c-0.25-0.08-0.62-0.13-0.87-0.13C17.64,44.37,16.85,45.06,16.85,46.38
z M53.4,46.13h1.34v-1.64H53.4V46.13z M71.71,52.06H65.6c-0.05,1.42,0.76,2.68,2.55,2.68c1.11,0,1.88-0.54,2.12-1.59h1.33
c-0.36,1.8-1.66,2.77-3.49,2.77c-2.61,0-3.84-1.79-3.92-4.28c0-2.44,1.61-4.23,3.84-4.23C70.91,47.4,71.79,50.1,71.71,52.06z
M70.29,50.88c-0.06-1.28-1.03-2.3-2.36-2.3c-1.41,0-2.24,1.05-2.34,2.3H70.29z M53.4,55.73h1.34v-8.14H53.4V55.73z M59.82,54.74
c-1.71,0-2.39-1.48-2.39-2.98c0-1.65,0.6-3.18,2.54-3.18c1.11,0,1.82,0.6,2.02,1.62h1.39c-0.19-1.94-1.68-2.8-3.52-2.8
c-2.59,0-3.86,1.92-3.86,4.36c0,2.42,1.33,4.16,3.82,4.16c2.05,0,3.3-1.18,3.6-3.16h-1.37C61.89,53.99,61.11,54.74,59.82,54.74z
M32.55,39.2h1.34v-8.14h-1.34V39.2z M38.25,52.19c0,1.46-0.79,2.55-2.42,2.55c-1.03,0-1.66-0.65-1.66-1.64v-5.51h-1.34v5.35
c0,1.75,0.66,2.97,2.81,2.97c1.17,0,2.09-0.47,2.66-1.48h0.03v1.29h1.26v-8.14h-1.34V52.19z M50.71,45.15h-1.34v2.44h-1.39v1.18
h1.39v5.18c0,1.5,0.55,1.78,1.94,1.78h1.03v-1.18h-0.62c-0.84,0-1.01-0.11-1.01-0.72v-5.05h1.63v-1.18h-1.63V45.15z M45.03,51.04
c-1.25-0.3-2.67-0.46-2.67-1.42c0-0.82,0.93-1.04,1.74-1.04c0.88,0,1.8,0.33,1.9,1.37h1.34c-0.11-1.98-1.55-2.55-3.35-2.55
c-1.42,0-3.05,0.68-3.05,2.31c0,1.56,1.34,2,2.67,2.3c1.34,0.3,2.67,0.47,2.67,1.51c0,1.02-1.14,1.21-1.98,1.21
c-1.11,0-2.15-0.38-2.2-1.57h-1.34c0.08,2.02,1.63,2.76,3.46,2.76c1.66,0,3.48-0.63,3.48-2.57C47.7,51.78,46.37,51.34,45.03,51.04z
M59.9,31.06h-1.42l-2.29,6.66h-0.03l-2.39-6.66h-1.52l3.24,8.09l-0.55,1.39c-0.25,0.47-0.55,0.74-1.11,0.74
c-0.27,0-0.54-0.11-0.79-0.19v1.23c0.3,0.11,0.62,0.14,0.93,0.14c1.2,0,1.75-0.58,2.37-2.17L59.9,31.06z M15.23,51.67
c0,2.38-1.37,4.25-3.97,4.25c-2.59,0-3.97-1.87-3.97-4.25c0-2.39,1.38-4.27,3.97-4.27C13.85,47.4,15.23,49.28,15.23,51.67z
M13.8,51.67c0-1.98-1.14-3.08-2.54-3.08c-1.41,0-2.54,1.1-2.54,3.08c0,1.97,1.14,3.07,2.54,3.07C12.67,54.74,13.8,53.64,13.8,51.67
z M19.23,39.2V27.96h-2.05L13.6,37.4l-3.56-9.44H7.99V39.2h1.42v-9.35h0.03l3.52,9.35h1.28l3.52-9.35h0.03v9.35H19.23z M22.82,2.42
c0-0.12,0.1-0.22,0.22-0.22c0.12,0,0.22,0.1,0.22,0.22c0,0.12-0.1,0.22-0.22,0.22C22.92,2.64,22.82,2.54,22.82,2.42z M23.51,3.31
c0,0.12,0.1,0.22,0.22,0.22c0.12,0,0.22-0.1,0.22-0.22c0-0.12-0.1-0.22-0.22-0.22C23.61,3.08,23.51,3.18,23.51,3.31z M22.49,2.47
c0.12,0,0.22-0.1,0.22-0.22c0-0.12-0.1-0.22-0.22-0.22c-0.12,0-0.22,0.1-0.22,0.22C22.27,2.37,22.37,2.47,22.49,2.47z M23.48,3.02
c0.12,0,0.22-0.1,0.22-0.22c0-0.12-0.1-0.22-0.22-0.22c-0.12,0-0.22,0.1-0.22,0.22C23.26,2.92,23.36,3.02,23.48,3.02z M17.85,2.47
c0.12,0,0.22-0.1,0.22-0.22c0-0.12-0.1-0.22-0.22-0.22c-0.12,0-0.22,0.1-0.22,0.22C17.63,2.37,17.73,2.47,17.85,2.47z M17.6,4.67
c0.03,0.19,0.14,0.5,0.23,0.69c-0.19-0.09-0.33-0.13-0.52-0.05c0.11,0.14,0.38,0.36,0.8,0.26c0.23-0.05,0.45-0.17,0.44-0.35
c-0.01-0.1-0.08-0.23-0.22-0.21c-0.14,0.01-0.15,0.22-0.1,0.32c-0.18-0.1-0.37-0.63-0.09-0.71c0.22-0.06,0.43,0.24,0.5,0.48
c0.04-0.28,0.16-0.55,0.38-0.54c0.29,0.02,0.2,0.56,0.1,0.69c-0.02-0.19-0.12-0.29-0.21-0.28c-0.08,0.01-0.18,0.06-0.16,0.23
c0.02,0.17,0.26,0.28,0.54,0.28c0.27,0,0.74-0.08,0.78-0.6c-0.17,0.03-0.44,0.16-0.55,0.33c0.04-0.31,0.04-0.53,0-0.86
c0.14,0.2,0.38,0.31,0.55,0.33c-0.05-0.22-0.24-0.45-0.46-0.59h1.15c-0.22,0.14-0.41,0.37-0.46,0.59c0.17-0.03,0.41-0.13,0.55-0.34
c-0.04,0.32-0.04,0.55,0,0.86c-0.12-0.17-0.39-0.3-0.56-0.34c0.04,0.52,0.52,0.6,0.78,0.6c0.28,0,0.52-0.1,0.54-0.28
c0.02-0.17-0.09-0.23-0.16-0.23c-0.09-0.01-0.19,0.09-0.21,0.28c-0.1-0.14-0.2-0.67,0.09-0.69c0.23-0.01,0.34,0.25,0.38,0.54
c0.07-0.23,0.28-0.54,0.5-0.48c0.28,0.08,0.1,0.61-0.09,0.71c0.04-0.09,0.04-0.3-0.1-0.32C21.89,5,21.81,5.12,21.8,5.22
c-0.01,0.17,0.22,0.29,0.44,0.35c0.42,0.1,0.69-0.12,0.8-0.27c-0.19-0.08-0.33-0.04-0.52,0.05c0.1-0.19,0.2-0.49,0.23-0.69
c0.05,0.21,0.19,0.36,0.35,0.48c0.04-0.17,0.02-0.46-0.14-0.71l0.63,0.27c-0.3,0.33-0.66,1.09-0.85,1.72
c0.13,0.11,0.2,0.25,0.2,0.42c0,0.29-0.19,0.47-0.38,0.59c0.35,0.23,0.67,0.5,0.96,0.82c0.23,0.26,0.42,0.5,0.6,0.8
c-0.03,0.03-0.06,0.07-0.09,0.11C24,9.23,23.89,9.33,23.85,9.38c-0.05,0.07-0.1,0.15-0.1,0.25c0,0.09,0.03,0.18,0.1,0.29
c0.08,0.13,0.57,1.09,0.68,1.33c0.09,0.19,0.27,0.36,0.38,0.44c0.01,0.13,0,0.17,0,0.3c0,0.72-0.12,1.41-0.37,2.07
c-0.24,0.63-0.58,1.2-1.01,1.69c-0.21,0.24-0.44,0.45-0.68,0.63l0,0c-0.06,0.05-0.33,0.13-1.41-0.14c-0.14-0.03-0.22-0.06-0.36-0.1
c0.02-0.14,0.03-0.21,0.07-0.31c0.04-0.12,0.1-0.22,0.15-0.28c0.06-0.03,0.06-0.07,0.12-0.1c0.38-0.19,0.73-0.46,1.02-0.8
c0.3-0.34,0.53-0.75,0.69-1.2c0.16-0.43,0.24-0.88,0.25-1.35h-3.08v3.41c0.25,0.01,0.7,0.06,0.7,0.06c-0.11,0.14-0.16,0.27-0.19,0.5
c-0.35-0.11-0.69-0.24-1.06-0.38c0.11-0.13,0.24-0.16,0.36-0.17v-3.41h-3.15c-0.01-0.14-0.08-0.36-0.12-0.42
c-0.15-0.19-0.21-0.3-0.22-0.59c0-0.15-0.1-0.35-0.26-0.55c-0.09-0.11-0.47-0.52-0.56-0.61c0.24-0.63,0.58-1.2,1.01-1.68
c0.29-0.32,0.61-0.6,0.96-0.82c-0.19-0.12-0.38-0.3-0.38-0.59c0-0.17,0.07-0.3,0.19-0.41c-0.2-0.63-0.55-1.39-0.85-1.73l0.63-0.27
c-0.17,0.25-0.18,0.55-0.14,0.72C17.41,5.04,17.55,4.88,17.6,4.67z M20.12,8.23c-0.41,0.01-0.81,0.1-1.19,0.29
c-0.38,0.19-0.73,0.46-1.02,0.8c-0.3,0.35-0.53,0.75-0.69,1.2c-0.16,0.44-0.24,0.92-0.25,1.4h3.15V8.23z M22.44,9.33
c-0.3-0.34-0.64-0.61-1.02-0.8c-0.35-0.17-0.73-0.27-1.12-0.28v3.69h3.08c-0.01-0.49-0.09-0.96-0.25-1.4
C22.97,10.08,22.74,9.67,22.44,9.33z M17.63,6.84c0,0.17,0.1,0.31,0.35,0.45c0.42-0.28,1.14-0.59,2.19-0.59
c1.05,0,1.77,0.31,2.19,0.59c0.24-0.14,0.35-0.28,0.35-0.45c0-0.59-1.69-0.65-2.54-0.65h0h0C19.32,6.19,17.63,6.24,17.63,6.84z
M21.91,2.52c0.12,0,0.22-0.1,0.22-0.22c0-0.12-0.1-0.22-0.22-0.22s-0.22,0.1-0.22,0.22C21.68,2.42,21.78,2.52,21.91,2.52z
M18.99,2.68c0.12,0,0.22-0.1,0.22-0.22c0-0.12-0.1-0.22-0.22-0.22c-0.12,0-0.22,0.1-0.22,0.22C18.77,2.58,18.87,2.68,18.99,2.68z
M23.47,4.39c0,0.12,0.1,0.22,0.22,0.22c0.12,0,0.23-0.1,0.23-0.22c0-0.12-0.1-0.22-0.23-0.22C23.57,4.17,23.47,4.27,23.47,4.39z
M18.44,2.52c0.12,0,0.22-0.1,0.22-0.22c0-0.12-0.1-0.22-0.22-0.22c-0.12,0-0.22,0.1-0.22,0.22C18.21,2.42,18.31,2.52,18.44,2.52z
M23.58,3.85c0,0.12,0.1,0.22,0.22,0.22c0.12,0,0.22-0.1,0.22-0.22c0-0.12-0.1-0.22-0.22-0.22C23.68,3.63,23.58,3.73,23.58,3.85z
M21.53,4.2c-0.02,0.17,0.13,0.34,0.21,0.56c0.1-0.19,0.3-0.32,0.31-0.52c0.02-0.19-0.09-0.33-0.22-0.58
C21.79,3.8,21.55,4.03,21.53,4.2z M22.44,10.92c-0.05,0.02-0.08,0-0.09-0.01c0.03-0.02,0.07,0,0.03-0.06
c-0.03-0.06-0.06-0.06-0.1-0.02c-0.04,0.04-0.28-0.01-0.28-0.19c0.02,0.03,0.05,0.05,0.08,0.07c0.01,0.01,0.02,0.01,0.03,0.01
c0.01,0,0.02,0,0.03,0.01c0.02,0.01,0.05,0.01,0.07,0.01c0,0,0.01,0,0.01,0v-0.01c0.05-0.01,0.09-0.04,0.1-0.1
c0.01-0.1-0.09-0.15-0.19-0.24c-0.04-0.03-0.07-0.06-0.1-0.09c-0.04-0.07-0.01-0.14-0.1-0.27c-0.01-0.03-0.01-0.07-0.03-0.12
c-0.05,0.09-0.07,0.25,0.06,0.39c0.1,0.11,0.32,0.22,0.31,0.31c0,0.02-0.02,0.04-0.06,0.05c-0.01,0-0.02,0-0.03,0
c-0.01,0-0.01,0-0.02-0.01c-0.02,0-0.03-0.01-0.05-0.02c-0.02-0.01-0.05-0.03-0.08-0.06c-0.09-0.09-0.17-0.21-0.23-0.28
c-0.1-0.13-0.06-0.25-0.04-0.36c0.07-0.1-0.04-0.3-0.11-0.35c0,0,0.02-0.05,0-0.1c-0.01,0.01-0.05,0.01-0.06,0.01
c-0.02-0.04-0.03-0.04-0.05-0.05c-0.04-0.01-0.04-0.03-0.05-0.05c-0.03,0.02-0.03,0.04-0.06,0.05c-0.04,0-0.05,0-0.06,0.01
c-0.03,0.02-0.04,0.03-0.08,0.03c-0.04,0-0.04,0.02-0.04,0.05c0,0.02,0,0.05,0.03,0.06c0,0,0.01,0,0.01,0.01l0.03,0.04l0.02-0.04
c0.02-0.02,0.07-0.02,0.08,0.02c0.01,0.03,0.01,0.03-0.02,0.04c-0.04,0-0.05,0-0.09,0.01c-0.02,0-0.02,0.03-0.02,0.05
c0,0.02,0.03,0.04,0.08,0.02c0.05-0.01,0.13-0.02,0.13,0.02c0,0.11-0.12,0.1-0.15,0.23c-0.03-0.02-0.06-0.04-0.08-0.07
c-0.02-0.03-0.05-0.07-0.09-0.11c-0.03-0.03-0.06-0.06-0.09-0.08c-0.04-0.03-0.04-0.05-0.04-0.09c0-0.04,0.02-0.07,0.02-0.11
c0,0-0.01-0.02-0.01-0.03c-0.01-0.02-0.04-0.04-0.06-0.04c0.01,0.01,0.02,0.02,0.02,0.04c-0.01,0.01-0.02,0.02-0.02,0.02
c-0.01,0.01-0.01,0.02,0,0.04c0,0,0,0,0,0.01c0,0.01,0,0.01,0,0.02c0,0.01,0,0-0.01,0C21,9.56,20.99,9.52,20.97,9.52
c0,0-0.01,0-0.02,0c0,0,0,0,0,0c0-0.03-0.03-0.05-0.07-0.02c0.01,0,0.02,0,0.03,0.01c0,0.01-0.01,0.03-0.01,0.03
c0,0.03,0.02,0.04,0.05,0.04c0,0,0.01,0,0.01,0.01c0,0,0,0.01,0,0.01c0,0,0,0,0,0c-0.05-0.02-0.07,0-0.07,0.02c0,0,0,0.01,0,0.02
c-0.02,0.01-0.02,0.04,0.01,0.06c0-0.01,0-0.03,0.01-0.03c0,0,0.01,0,0.01,0c0,0.01,0.01,0.01,0.01,0.01c0,0,0.01,0,0.03-0.01
c0,0,0.01,0,0.01,0c0,0,0.01,0.01,0.02,0.01c0,0,0,0.01,0,0.01C20.96,9.72,20.97,9.75,21,9.76c-0.02,0.03-0.08,0.02-0.07-0.03
c-0.04,0.07,0.03,0.12,0.09,0.09c0,0.02,0,0.07,0.01,0.07c0,0,0-0.01,0.01-0.01c0,0,0,0,0,0.01c0,0.01,0.01,0.04,0.03,0.04
c0-0.01,0-0.02,0.01-0.02c0.01,0.02,0.02,0.03,0.03,0.05c0.03,0.05,0.09,0.18,0.22,0.24c-0.07,0.04-0.11,0.09-0.15,0.15
c-0.04,0.04-0.09,0.07-0.12,0.05c-0.01-0.01-0.02-0.02-0.04-0.04c-0.02-0.01-0.03-0.01-0.04-0.01c0,0-0.01,0-0.02,0.01
c-0.02-0.01-0.06,0-0.07,0.02c0.01,0,0.03-0.01,0.05,0.01c0,0.01,0,0.02,0,0.02c0,0.02,0.01,0.03,0.08,0.03c0,0,0.01,0,0.01,0.01
c-0.01,0.01-0.02,0.02-0.03,0.01c-0.03-0.01-0.05-0.03-0.07,0c0,0-0.01,0.01-0.01,0.02c0,0,0,0-0.01,0
c-0.03,0.01-0.05,0.06-0.02,0.08c0-0.01,0-0.03,0.02-0.04c0,0.01,0.01,0.01,0.01,0.01c0.02,0.03,0.04,0.05,0.09-0.02
c0.01-0.01,0.01,0,0.01,0c0,0.03-0.03,0.08,0.01,0.08c0,0,0.01,0,0.02,0c0,0,0,0,0,0.01c0.01,0.04,0.06,0.05,0.08,0.04
c-0.01-0.01-0.03-0.02-0.04-0.04c0.01,0,0.02,0,0.02,0c0.02-0.02,0-0.06,0.01-0.07c0-0.01,0.01,0,0.01,0
c0.01,0.01,0.03,0.04,0.06,0.03c0.02-0.01,0.02-0.03,0.03-0.04c0.05-0.02,0.09-0.03,0.12-0.02c-0.01-0.02,0.02-0.06,0.07-0.07
c0.05-0.01,0.07,0,0.08,0.02c0-0.02,0.02-0.05,0.05-0.08c-0.01,0.19,0.25,0.19,0.31,0.3c-0.08-0.03-0.17-0.05-0.21-0.04
c-0.06,0.01-0.17,0.07-0.19,0.14c-0.01,0.06,0.05,0.16,0.11,0.21c-0.07,0.01-0.1-0.01-0.17,0.01c0,0-0.01,0-0.01,0
c-0.06,0.01-0.07-0.1-0.14-0.07c0,0-0.02,0.01-0.02,0.01h0c-0.03,0-0.06,0.03-0.06,0.06c0.01-0.01,0.02-0.02,0.04-0.03
c0,0.01,0,0.01,0,0.01c0,0.01,0,0.02,0.03,0.02c0.02,0,0.02-0.01,0.03-0.01c0,0,0.01,0,0.01,0.01c0,0.03-0.09-0.02-0.07,0.06
c0,0,0.01,0.01,0.01,0.02c0,0.02,0.02,0.04,0.05,0.03c-0.01,0-0.02-0.02-0.02-0.03c0.01,0,0.02,0,0.02,0c0,0,0.01,0,0.01-0.01
c0,0,0,0,0,0c0,0,0.01,0,0.01,0.01c0,0-0.01,0.01-0.01,0.02c0,0,0,0.02,0.01,0.02c0,0.03,0.03,0.05,0.07,0.03
c-0.01,0-0.03-0.01-0.04-0.02c0.01,0,0.02-0.01,0.02-0.01c0.01,0,0.01-0.01,0.01-0.03c0-0.01,0-0.01,0.01-0.01c0.01,0,0.01,0,0.02,0
c0.01,0,0.01,0,0.01,0.01c0.01,0.02,0.03,0.03,0.05,0.02c0.02,0,0.02-0.01,0.02-0.02c0.01,0.01,0.02,0.01,0.03,0.02
c-0.01-0.03,0.01-0.05,0.07-0.01l0.04-0.03c0,0,0.06,0.02,0.08,0c0.04-0.03,0.02-0.03,0.02-0.06c-0.03-0.06-0.04-0.05-0.05-0.11
c-0.02-0.1,0.11-0.15,0.19-0.13c0.02,0.06,0.1,0.22,0.24,0.27c0.09,0.03,0.12-0.07,0.15-0.05c0.01,0,0.01,0.01,0.02,0.03
c-0.01,0.04,0,0.08-0.01,0.1c-0.01,0.02-0.06,0-0.09,0c-0.02,0-0.03,0.01-0.03,0.01c-0.03,0-0.06,0.03-0.06,0.06
c0.01-0.01,0.03-0.02,0.05-0.03c0,0,0,0.01,0,0.01c0,0.04,0.05,0.05,0.07,0.03c0-0.01,0.01,0,0.01,0c-0.02,0.02-0.06,0.05-0.03,0.07
c0,0,0.01,0.01,0.02,0.01c0,0.02,0.02,0.05,0.04,0.05c-0.01-0.01-0.01-0.02,0-0.04c0.01,0,0.02,0,0.02,0c0.02,0,0.01-0.05,0.04-0.06
c0,0,0.01,0,0.01,0c-0.01,0.03-0.01,0.06,0.01,0.07c0,0,0.01,0,0.02,0c0.01,0.02,0.03,0.04,0.07,0.02c-0.01,0-0.03-0.01-0.03-0.02
c0.01-0.01,0.02-0.02,0.02-0.02c0.02-0.06-0.03-0.06-0.03-0.08c0-0.03,0.06-0.01,0.06-0.07c0,0,0-0.01,0-0.01
c0.03-0.01,0.06-0.03,0.06-0.05c-0.03,0-0.07-0.01-0.07-0.01v0C22.4,10.97,22.43,10.95,22.44,10.92z M18.64,11.04
c0,0.12,0.65,0.04,0.86,0.04c0.21,0,0.28,0.04,0.28,0.1c0,0.08-0.22,0.1-0.34,0.11c0.12,0.01,0.16,0.02,0.23,0.02
c0.04-0.01,0.04,0.02,0.04,0.02c0,0.04,0.05,0.01,0.06,0c0,0.03-0.01,0.05-0.02,0.06c0,0,0,0,0,0.01c0.01,0.02-0.01,0.05,0.03,0.05
c-0.01,0.02-0.02,0.01-0.04,0.01c0,0,0,0,0,0c0.02,0.01,0.02,0.02,0.02,0.03c0,0.05-0.05,0.04-0.05,0.06c0,0.02,0.04,0.02,0.03,0.07
c0,0-0.01,0.02-0.01,0.02c0,0.01,0.02,0.02,0.03,0.02c-0.03,0.01-0.05,0-0.06-0.02c-0.01,0-0.02,0-0.02,0
c-0.02-0.01-0.02-0.04-0.01-0.06c0,0,0,0,0,0c-0.02,0.01-0.01,0.06-0.04,0.05c0,0-0.01,0-0.02,0c-0.01,0.02-0.01,0.03,0,0.04
c-0.02,0-0.03-0.02-0.03-0.04c-0.01,0-0.02-0.01-0.02-0.01c-0.03-0.01,0.01-0.04,0.03-0.06c0,0,0-0.01-0.01,0
c-0.02,0.02-0.06,0.01-0.06-0.02c0,0,0-0.01,0-0.01c-0.02,0-0.03,0.02-0.04,0.02c0-0.03,0.03-0.05,0.05-0.05
c0,0,0.01-0.02,0.03-0.01c0.03,0,0.07,0.02,0.08,0c0.01-0.02-0.01-0.03,0.01-0.08c0-0.02-0.01-0.02-0.02-0.02
c-0.01,0-0.07-0.02-0.12,0.01c-0.04,0.03-0.07,0.04-0.16,0.04c-0.05,0-0.09-0.02-0.13-0.03c0.02,0.03,0,0.06,0.02,0.07
c0.04,0.02,0.04,0.08,0.03,0.1c-0.01,0.02-0.06,0.02-0.1,0.01c-0.01,0-0.02,0-0.03,0c-0.04,0.01,0,0.05-0.04,0.06
c-0.03,0.01-0.05-0.01-0.05-0.02c0,0,0-0.01-0.01-0.01c0,0-0.01,0-0.02,0c0,0-0.01,0-0.01,0.01c0,0.01,0,0.02-0.01,0.03
c0,0-0.01,0-0.02,0.01c0,0.01,0.03,0.02,0.04,0.02c-0.04,0.03-0.07,0-0.07-0.03c0,0-0.01-0.02-0.01-0.02c0-0.01,0-0.01,0-0.01
c0,0,0,0-0.01-0.01c0,0,0,0,0,0c0,0.01-0.01,0.01-0.01,0.01c0,0-0.01,0-0.02,0c0,0.01,0.01,0.02,0.02,0.02
c-0.04,0.01-0.05-0.01-0.05-0.03c0-0.01-0.01-0.02-0.01-0.02c-0.02-0.07,0.07-0.03,0.07-0.06c0,0,0-0.01-0.01-0.01
c-0.01,0-0.01,0.01-0.03,0.01c-0.02,0-0.03-0.01-0.02-0.02c0,0,0-0.01,0-0.01c-0.02,0-0.03,0.02-0.04,0.03
c-0.01-0.03,0.03-0.06,0.06-0.06c0,0,0.01-0.01,0.02-0.01c0.07-0.03,0.07,0.11,0.13,0.07c0.01-0.01,0.03-0.01,0.06-0.01
c0,0,0.01,0,0-0.01c-0.01-0.01-0.05-0.03-0.07-0.03c-0.04-0.01-0.04-0.07-0.02-0.11c-0.02,0.02-0.02,0.03-0.04,0.02
c-0.4-0.04-0.21,0.15-0.55,0.11c-0.02,0-0.02,0.05-0.08,0.04c0,0,0,0,0,0c-0.01,0-0.02,0-0.03,0.01c0,0.01,0,0.02-0.01,0.03
l-0.09,0.04c0,0,0-0.01,0.01-0.01c-0.02,0.02-0.06,0.03-0.08,0.03c0.01-0.01,0.02-0.02,0.03-0.03c0-0.01,0-0.01-0.01,0
c-0.06,0.04-0.17-0.01-0.18,0.08c-0.02-0.02-0.01-0.06-0.02-0.06c-0.01,0-0.02,0.01-0.02,0.02c-0.01-0.01-0.01-0.02,0-0.04
c0,0,0,0,0,0c-0.04,0.01-0.06,0.01-0.07,0c0,0,0,0,0,0c0-0.01-0.01-0.01-0.01-0.02c-0.01,0.04-0.05,0.06-0.06,0.06
c0.02-0.02,0.02-0.05,0.02-0.06c-0.01,0.01-0.02,0.02-0.03,0.03c0-0.02-0.01-0.03-0.02-0.04c0,0,0,0,0,0c0,0.02-0.01,0.05-0.05,0.05
c-0.04,0-0.04-0.03-0.05-0.04c0,0,0-0.01-0.01,0c-0.02,0.01,0,0.05-0.03,0.06c0,0-0.01,0-0.02-0.01c0,0.03,0.01,0.05,0.02,0.06
c-0.02,0-0.06-0.03-0.05-0.06c0,0,0,0,0,0c-0.01-0.01-0.01-0.01-0.01-0.01c-0.03-0.02,0.01-0.05,0.03-0.07c0,0,0-0.01-0.01,0
c-0.06,0.04-0.08,0.02-0.08-0.01c0,0,0-0.01-0.01-0.02c-0.02,0-0.03,0.02-0.03,0.03c-0.02-0.03,0.02-0.07,0.05-0.06
c0,0,0.01,0,0.01,0c0.01,0,0.02-0.01,0.02-0.01c0.03-0.02,0.03,0.01,0.05,0.03c0.01,0.01,0.03,0.01,0.03,0c0.01,0,0-0.01,0-0.01
c-0.06-0.02-0.07-0.04-0.06-0.06c0,0,0.01-0.01,0.01-0.02c-0.01-0.02-0.03-0.02-0.04-0.03c0.02-0.01,0.05-0.01,0.07,0.01
c0.01,0,0.02,0,0.02,0c0.01,0,0.02,0.01,0.03,0.03c0.01,0.02,0.01,0.03,0.02,0.05c0.03,0.04,0.12,0.01,0.16-0.02
c0.03-0.01,0.16-0.01,0.17-0.01c0.01,0-0.02-0.05-0.02-0.09c-0.01-0.01-0.02-0.01-0.02-0.02c-0.01,0.02-0.03,0.02-0.05,0.02
c-0.08-0.05-0.13-0.13-0.14-0.13c-0.01,0-0.01,0.01-0.01,0.02c-0.02,0-0.03-0.02-0.03-0.04c0,0,0-0.01,0-0.01
c-0.01,0-0.01,0.01-0.01,0.01c-0.01,0-0.02-0.01-0.02-0.02c0,0,0,0-0.01,0c-0.06,0.03-0.13-0.02-0.09-0.08
c0,0.06,0.07,0.07,0.08,0.01c0-0.01,0-0.01-0.01-0.01c-0.04-0.01-0.05-0.04-0.02-0.07c0,0,0-0.01,0-0.01
c-0.01,0-0.01-0.01-0.01-0.01c-0.01,0-0.01,0-0.01,0c-0.01,0.01-0.02,0.01-0.03,0.01c0,0-0.01-0.01-0.01-0.01c0,0,0,0,0,0
c-0.01,0-0.01,0.02-0.01,0.03c-0.03-0.02-0.03-0.04-0.01-0.06c0,0,0-0.02,0-0.02c0-0.02,0.02-0.04,0.07-0.02c0,0,0.01,0,0,0
c0,0,0-0.01,0-0.01c0,0,0-0.01-0.01-0.01c-0.03,0-0.05-0.01-0.05-0.04c0,0,0-0.02,0.01-0.03c-0.01-0.01-0.02-0.01-0.02-0.01
c0.03-0.03,0.06-0.01,0.06,0.02c0,0,0,0,0,0.01c0,0,0.01,0,0.02,0c0.02,0,0.04,0.04,0.05,0.07c0,0,0,0.01,0,0c0-0.01,0-0.01,0-0.02
c0,0,0,0,0-0.01c-0.01-0.01-0.01-0.03,0-0.04c0,0,0.01-0.01,0.02-0.02c0-0.02-0.01-0.03-0.02-0.04c0.02,0,0.05,0.01,0.05,0.04
c0,0.01,0.01,0.03,0.01,0.03c0,0.03-0.02,0.07-0.02,0.1c0,0.04,0,0.06,0.04,0.09c0.06,0.03,0.08,0.09,0.11,0.09
c0.01,0,0.02,0,0.03,0c0,0,0.02,0,0.03,0l0.02,0.01c0-0.02,0-0.04,0.01-0.06c-0.01,0-0.01-0.01-0.02-0.02
c0.02,0,0.03-0.05,0.05-0.08c-0.01,0-0.01-0.01-0.02-0.03c0.02,0.01,0.05-0.06,0.07-0.06c-0.01-0.03,0-0.05,0.01-0.07
c0.02,0,0.04,0.01,0.05,0.02c0-0.02,0.02-0.02,0.04-0.01c0,0,0.03-0.01,0.04-0.01c0.01,0,0.03,0,0.06,0.02
c0.03,0.01,0.05,0.03,0.06,0.04c0,0.01,0.01,0.03,0.01,0.04c0.01,0.01,0.02,0.03,0.01,0.04c0.02,0,0.04,0.01,0.05,0.02
c0,0.02-0.02,0.04-0.05,0.05c0.03,0.04-0.03,0.11-0.05,0.15c0.27-0.08,0.96,0.01,1.12,0.01c0.1,0,0.27-0.01,0.27-0.06
c0-0.03-0.04-0.05-0.21-0.05c-0.18,0-0.91,0.12-0.91-0.09c0-0.12,0.24-0.09,0.44-0.09c0-0.01,0.01-0.01,0.02-0.01
c0.11-0.07,0.37,0.03,0.47-0.03c-0.01,0.03-0.13,0.06-0.25,0.06c0.2,0.04,0.4-0.11,0.55,0.03c-0.19-0.06-0.48,0.12-0.74,0.04
c-0.03-0.01-0.04-0.02-0.05-0.03C18.86,11,18.64,10.97,18.64,11.04z M18.12,10.95c0.02,0.03,0,0.04,0.02,0.06
c0.02,0.02,0.04,0,0.05-0.02C18.18,10.99,18.14,10.96,18.12,10.95z M18.24,11.09c0-0.01-0.01-0.01-0.01-0.02l-0.07-0.03
c-0.01,0-0.01-0.01-0.02,0c0,0-0.02,0.01-0.01,0.02c0,0.01,0.02-0.01,0.03,0c0.01,0.01,0,0.01-0.02,0.02
c0.01,0.01,0.03,0.02,0.02,0.03c-0.01,0.01-0.01,0.02-0.03,0.02c-0.01,0-0.01,0.01-0.02,0.03c-0.01,0.01-0.01,0.04,0.01,0.05
c0.02,0.01,0.04-0.01,0.05-0.02c0.01-0.01,0.01-0.03,0-0.03c-0.01-0.01-0.01-0.02-0.01-0.03c0.01-0.01,0.02-0.01,0.04,0
c-0.01-0.02-0.01-0.03,0-0.02c0.01,0,0.01,0.02,0.02,0.02C18.24,11.11,18.24,11.1,18.24,11.09z M18.33,11.05
c-0.03-0.01-0.07-0.03-0.08-0.03c0,0.02,0,0.05,0.03,0.05C18.3,11.07,18.29,11.06,18.33,11.05z M20.32,1.26v0.57h0.55
C20.82,1.54,20.6,1.32,20.32,1.26z M21.35,2.68c0.12,0,0.22-0.1,0.22-0.22c0-0.12-0.1-0.22-0.22-0.22c-0.12,0-0.22,0.1-0.22,0.22
C21.13,2.58,21.23,2.68,21.35,2.68z M20.55,3.91V2.88c-0.08,0.04-0.16,0.06-0.25,0.08v0.95H20.55z M18.86,10.07
c0,0.12,0.5,0.04,0.72,0.04c0.22,0,0.3,0.04,0.3,0.11c0,0.08-0.21,0.12-0.36,0.12c0.13,0.01,0.17,0.03,0.24,0.02
c0.04-0.01,0.04,0.02,0.04,0.02c0.01,0.04,0.05,0.02,0.06,0c0,0.03,0,0.05-0.02,0.06c0,0,0,0.01,0,0.01c0,0.02-0.01,0.05,0.03,0.05
c-0.01,0.02-0.02,0.02-0.04,0.02l0,0c0,0,0,0,0,0c0.02,0.01,0.02,0.02,0.02,0.03c0,0.05-0.05,0.04-0.05,0.06
c0,0.02,0.05,0.02,0.03,0.08c0,0-0.01,0.02-0.02,0.02c0,0.01,0.02,0.02,0.03,0.02c-0.03,0.02-0.05,0-0.06-0.02
c-0.01,0-0.02,0-0.02,0c-0.02-0.01-0.02-0.04-0.01-0.06c0,0,0,0,0,0c-0.03,0.01-0.01,0.06-0.04,0.06c0,0-0.01,0-0.02,0
c-0.01,0.03-0.01,0.03,0,0.04c-0.02,0-0.03-0.03-0.03-0.05c-0.01,0-0.02-0.01-0.02-0.01c-0.03-0.01,0.01-0.05,0.03-0.06
c0.01-0.01,0-0.01-0.01-0.01c-0.02,0.02-0.06,0.01-0.07-0.02c0,0,0-0.01,0-0.01c-0.02,0-0.04,0.02-0.05,0.02
c0-0.03,0.03-0.05,0.05-0.06c0,0,0.01-0.01,0.03-0.01c0.03,0,0.07,0.02,0.08,0c0.01-0.02-0.01-0.03,0.01-0.08
c0-0.02-0.01-0.02-0.02-0.03c-0.02,0-0.07-0.02-0.12,0.01c-0.05,0.03-0.07,0.04-0.17,0.04c-0.05,0-0.1-0.02-0.14-0.03
c0.02,0.03,0,0.06,0.02,0.07c0.04,0.02,0.05,0.09,0.03,0.11c-0.01,0.02-0.06,0.02-0.1,0.01c-0.01,0-0.02,0-0.03,0
c-0.04,0.01,0,0.05-0.04,0.07c-0.03,0.01-0.05-0.01-0.05-0.02c0,0,0-0.01-0.01,0c-0.01,0-0.01,0-0.02,0c0,0-0.01,0-0.01,0.01
c0,0.01,0,0.02-0.01,0.03c0,0-0.01,0.01-0.02,0.01c0,0.01,0.03,0.02,0.04,0.02c-0.04,0.03-0.08,0-0.07-0.03c0,0-0.01-0.02-0.01-0.02
c0-0.01,0-0.01,0-0.02c0,0,0-0.01-0.01-0.01c0,0,0,0,0,0c0,0.01-0.01,0.01-0.01,0.01c0,0-0.01,0-0.02,0c0,0.01,0.01,0.02,0.02,0.03
c-0.04,0.01-0.06-0.01-0.05-0.03c0-0.01-0.01-0.02-0.01-0.02c-0.02-0.07,0.07-0.03,0.07-0.06c0-0.01,0-0.01-0.01-0.01
c-0.01,0-0.01,0.01-0.03,0.01c-0.02,0-0.03-0.01-0.03-0.02c0,0,0-0.01,0-0.02c-0.02,0-0.04,0.02-0.05,0.02
c-0.01-0.03,0.03-0.06,0.06-0.06c0,0,0.02-0.01,0.02-0.01c0.07-0.03,0.07,0.12,0.14,0.07c0.01,0,0.03-0.01,0.06-0.01
c0,0,0.01,0,0-0.01c-0.01-0.02-0.05-0.03-0.07-0.03c-0.04-0.01-0.04-0.09-0.02-0.13c-0.02,0.01-0.06,0.04-0.08,0.03
c-0.31-0.05-0.18,0.14-0.37,0.12c-0.01,0-0.04,0-0.06,0.01c0,0,0,0.01-0.01,0.01c0,0,0,0,0,0c0,0,0,0,0,0
c-0.03,0.05-0.12,0.13-0.18,0.12c0.02-0.01,0.02-0.02,0.03-0.03c0-0.01,0-0.01-0.01,0c-0.06,0.04-0.11,0-0.12,0.1
c-0.02-0.02-0.01-0.06-0.02-0.06c0,0-0.02,0.01-0.02,0.02c-0.01-0.01-0.01-0.02,0-0.04c0,0,0-0.01-0.01,0
c-0.04,0.01-0.06,0.01-0.08,0c0,0,0,0,0,0c0-0.01-0.01-0.02-0.01-0.02c-0.01,0.04-0.05,0.06-0.06,0.06
c0.02-0.02,0.02-0.05,0.02-0.07c-0.01,0.01-0.02,0.02-0.03,0.03c0-0.02-0.01-0.03-0.02-0.04c0,0,0,0,0,0c0,0.02-0.02,0.05-0.05,0.05
c-0.04,0-0.05-0.03-0.05-0.05c0,0,0-0.01-0.01,0c-0.02,0.01,0,0.05-0.04,0.06c0,0-0.01,0-0.02,0c0,0.03,0.01,0.05,0.02,0.06
c-0.02,0-0.06-0.03-0.06-0.06c0,0,0,0,0-0.01c-0.01,0-0.01-0.01-0.02-0.01c-0.03-0.02,0.01-0.05,0.03-0.08c0,0,0-0.01,0,0
c-0.07,0.04-0.08,0.02-0.09-0.01c0,0,0-0.01-0.01-0.02c-0.02,0-0.03,0.02-0.04,0.03c-0.02-0.03,0.02-0.07,0.05-0.06c0,0,0,0,0.01,0
c0.01,0,0.02-0.01,0.02-0.01c0.03-0.02,0.03,0.01,0.06,0.03c0.01,0.01,0.03,0.01,0.03,0c0.01,0,0-0.01,0-0.01
c-0.07-0.02-0.07-0.04-0.06-0.06c0,0,0.01-0.01,0.01-0.02c-0.01-0.02-0.03-0.02-0.04-0.03c0.01-0.01,0.05-0.01,0.07,0.01
c0.01,0,0.02,0,0.02,0c0.01,0,0.02,0.01,0.03,0.03c0.01,0.02,0.01,0.04,0.02,0.05c0.03,0.04,0.13,0,0.17-0.02
c0.03-0.01,0.14-0.01,0.15-0.01c0.01,0-0.03-0.05-0.03-0.09c-0.03,0.03-0.06-0.02-0.1-0.04c-0.05-0.03-0.08-0.08-0.09-0.08
c-0.01,0-0.01,0.01-0.01,0.02c-0.02,0-0.03-0.02-0.03-0.04c0,0,0-0.01,0-0.01C18,10.28,18,10.29,18,10.29
c-0.01,0-0.02-0.01-0.02-0.02c0,0,0-0.01-0.01,0c-0.06,0.04-0.14-0.02-0.09-0.09c-0.01,0.06,0.07,0.07,0.08,0.01
c0,0,0-0.01-0.01-0.01c-0.04-0.01-0.05-0.04-0.01-0.07c0,0,0-0.01,0-0.01c0,0-0.01-0.01-0.01-0.01c0,0-0.01,0-0.01,0
c-0.02,0.01-0.02,0.01-0.03,0.01c0,0-0.01-0.01-0.01-0.01c0,0-0.01,0-0.01,0c-0.01,0-0.01,0.02-0.01,0.03
c-0.03-0.02-0.03-0.05-0.01-0.06c0-0.01,0-0.02,0-0.02c0-0.02,0.02-0.05,0.07-0.02c0,0,0.01,0,0.01,0c0,0,0-0.01,0-0.01
c0,0,0-0.01-0.01-0.01c-0.03,0-0.05-0.01-0.05-0.04c0,0,0-0.02,0.01-0.03c-0.01-0.01-0.02-0.01-0.03-0.01
c0.03-0.03,0.07-0.01,0.06,0.02c0,0,0,0,0,0c0,0,0.02,0,0.02,0c0.02,0,0.03,0.04,0.04,0.07c0,0,0,0.01,0,0c0-0.01,0-0.01,0-0.02
c0,0,0-0.01,0-0.01c-0.01-0.01-0.01-0.03,0-0.04c0,0,0.01-0.01,0.02-0.02c0-0.02-0.01-0.03-0.02-0.04c0.02,0,0.05,0.01,0.06,0.04
c0,0.01,0.01,0.03,0.01,0.03c0,0.03-0.02,0.07-0.02,0.11c0,0.04,0,0.07,0.04,0.09c0.04,0.02,0.07,0.06,0.1,0.08l0.03,0.01
c-0.01,0-0.01,0-0.02,0c0.01,0,0.01,0.01,0.02,0.01c0,0,0.01,0,0.01,0l0.05,0.02c0-0.02,0-0.06,0.01-0.08
c-0.01,0-0.02-0.01-0.04-0.03c0.03,0,0.03-0.05,0.06-0.09c-0.01,0-0.02-0.01-0.03-0.03c0.03,0.01,0.05-0.06,0.08-0.06
c-0.01-0.03,0-0.05,0.01-0.08c0.02,0,0.04,0.01,0.05,0.02c0-0.02,0.02-0.02,0.04-0.01c0,0,0.03-0.01,0.04-0.01
c0.01,0,0.03,0,0.07,0.02c0.03,0.01,0.05,0.03,0.06,0.04c0.01,0,0.01,0.03,0.01,0.04c0.01,0.01,0.02,0.02,0.01,0.04
c0.02,0,0.04,0.01,0.05,0.03c0,0.02-0.02,0.04-0.05,0.06c0.03,0.03-0.02,0.1-0.05,0.14c0.29-0.06,0.78,0.03,0.94,0.03
c0.1,0,0.29-0.01,0.29-0.07c0-0.04-0.04-0.05-0.22-0.05c-0.19,0-0.78,0.13-0.78-0.09c0-0.1,0.13-0.1,0.28-0.1
c0.01,0,0.01-0.01,0.02-0.01c0.12-0.07,0.3,0.02,0.4-0.04c-0.01,0.03-0.05,0.07-0.18,0.07c0.22,0.05,0.38-0.11,0.59,0.04
c-0.17-0.05-0.51,0.1-0.79,0.02c-0.03-0.01-0.04-0.02-0.05-0.03C18.96,10.02,18.86,10.01,18.86,10.07z M18.38,9.97
c0.02,0.04,0,0.04,0.02,0.06c0.02,0.02,0.04,0,0.05-0.02C18.44,10.01,18.4,9.98,18.38,9.97z M18.5,10.12c0-0.01-0.01-0.01-0.02-0.02
l-0.07-0.03c-0.01,0-0.02-0.01-0.02,0c0,0-0.02,0.01-0.01,0.02c0,0.01,0.02-0.01,0.03,0c0.01,0.01,0,0.02-0.02,0.02
c0.02,0.01,0.03,0.02,0.02,0.04c0,0.01-0.01,0.02-0.03,0.02c-0.01,0-0.01,0.01-0.02,0.03c-0.01,0.01-0.01,0.04,0.02,0.05
c0.02,0.01,0.04-0.01,0.05-0.02c0.01-0.02,0.01-0.03,0.01-0.04c-0.01-0.01-0.01-0.02-0.01-0.03c0.01-0.02,0.02-0.01,0.04,0
c-0.01-0.02-0.01-0.03,0-0.03c0.01,0,0.01,0.03,0.02,0.02C18.5,10.14,18.5,10.13,18.5,10.12z M18.59,10.07
c-0.02-0.01-0.08-0.03-0.09-0.03c0,0.02,0.01,0.06,0.03,0.06C18.56,10.1,18.55,10.08,18.59,10.07z M20.49,20.08
c0.01,0.03,0.02,0.07,0.02,0.12c0,0.18-0.15,0.33-0.33,0.33c-0.19,0-0.34-0.15-0.34-0.33c0-0.04,0.01-0.08,0.02-0.12
c-0.43-0.02-0.36-0.75-0.51-0.75c-0.07,0-0.12,0.11-0.18,0.24c-0.11-0.13-0.24-0.32-0.24-0.54c0-0.23,0.18-0.48,0.48-0.48
c0.05,0,0.1,0.01,0.15,0.02v-1.03c0.43,0.11,0.86,0.17,1.23,0.18v0.84c0.04-0.01,0.09-0.02,0.14-0.02c0.3,0,0.48,0.25,0.48,0.48
c0,0.22-0.13,0.42-0.24,0.54c-0.07-0.14-0.11-0.24-0.18-0.24C20.85,19.33,20.92,20.06,20.49,20.08z M20.37,20.19
c0-0.1-0.08-0.19-0.19-0.19c-0.1,0-0.19,0.08-0.19,0.19c0,0.1,0.08,0.19,0.19,0.19C20.28,20.38,20.37,20.3,20.37,20.19z
M20.99,19.17c0.06,0,0.14,0.05,0.19,0.15c0.06-0.11,0.09-0.22,0.09-0.3c0-0.14-0.11-0.33-0.33-0.33c-0.38,0-0.29,0.52-0.48,0.52
c-0.08,0-0.14-0.05-0.14-0.13c0-0.15,0.27-0.29,0.27-0.5c0-0.21-0.2-0.39-0.41-0.56c-0.21,0.17-0.41,0.35-0.41,0.56
c0,0.21,0.27,0.35,0.27,0.5c0,0.08-0.06,0.13-0.14,0.13c-0.18,0-0.09-0.52-0.48-0.52c-0.22,0-0.33,0.19-0.33,0.33
c0,0.08,0.03,0.19,0.09,0.3c0.05-0.09,0.12-0.15,0.19-0.15c0.29,0,0.18,0.75,0.52,0.75c0.15,0,0.23-0.09,0.23-0.2
c0-0.1-0.07-0.14-0.07-0.22c0-0.09,0.07-0.12,0.14-0.12c0.07,0,0.14,0.03,0.14,0.12c0,0.09-0.07,0.12-0.07,0.22
c0,0.11,0.08,0.2,0.23,0.2C20.82,19.93,20.71,19.17,20.99,19.17z M20.04,3.91V2.95c-0.09-0.01-0.17-0.04-0.25-0.08v1.03H20.04z
M18.9,8.97c0.02,0,0.03,0.01,0.04,0.02c0-0.02,0.02-0.02,0.03-0.01c0,0,0.03-0.01,0.03,0c0.01,0,0.03,0,0.06,0.01
c0.03,0.01,0.05,0.03,0.06,0.04c0.01,0.01,0.01,0.03,0.01,0.03c0.01,0.01,0.02,0.02,0.01,0.03c0.02,0,0.03,0.01,0.05,0.02
c0,0.02-0.02,0.04-0.04,0.05c0.03,0.04-0.05,0.11-0.05,0.15c0.24-0.06,0.33,0.03,0.46,0.03c0.17,0,0.28-0.04,0.28-0.1
c0-0.17-0.63-0.01-0.63-0.25c0-0.04,0.03-0.06,0.07-0.09c0-0.01,0-0.03,0.01-0.04c0.07-0.08,0.19-0.09,0.24-0.16
c0.01,0.03-0.02,0.1-0.08,0.13c0.11-0.01,0.15-0.22,0.42-0.18c-0.22,0.04-0.23,0.26-0.54,0.28h-0.01C19.3,8.96,19.28,8.98,19.28,9
c0,0.15,0.62,0,0.62,0.25c0,0.07-0.11,0.14-0.34,0.14c-0.01,0-0.01,0.01,0,0.01c0.11,0.01,0.14,0.04,0.19,0.03
c0.03-0.01,0.04,0.02,0.04,0.02c0,0.03,0.04,0.01,0.05,0c0,0.03,0,0.04-0.02,0.05c0,0,0,0.01,0,0.01c0.01,0.02,0,0.05,0.03,0.04
c-0.01,0.02-0.02,0.01-0.03,0.01h0c0,0,0,0,0,0c0.02,0.01,0.02,0.02,0.02,0.03c0,0.05-0.05,0.03-0.05,0.05
c0,0.02,0.04,0.02,0.03,0.07c0,0-0.01,0.01-0.01,0.02c0,0.01,0.02,0.02,0.02,0.02c-0.03,0.01-0.05,0-0.05-0.01
c-0.01,0-0.02,0-0.02,0c-0.02-0.01-0.02-0.03-0.01-0.05c0,0,0,0,0,0c-0.02,0.01-0.01,0.05-0.03,0.05c0,0-0.01,0-0.02,0
c-0.01,0.02-0.01,0.03,0,0.04c-0.02,0-0.03-0.02-0.03-0.04c-0.01,0-0.01-0.01-0.02-0.01c-0.03-0.01,0-0.04,0.02-0.05
c0,0,0-0.01-0.01,0c-0.02,0.02-0.05,0.01-0.06-0.02c0,0,0,0,0-0.01c-0.02,0-0.03,0.01-0.04,0.02c0-0.02,0.02-0.04,0.05-0.05
c0,0,0.01-0.01,0.03-0.01c0.02,0,0.06,0.02,0.07,0c0.01-0.02,0-0.02,0.01-0.07c0-0.01-0.01-0.02-0.02-0.02
c-0.01,0-0.06-0.02-0.1,0.01c-0.04,0.02,0.04,0.04-0.04,0.04c-0.05,0-0.08-0.01-0.12-0.03c0.02,0.03,0,0.05,0.02,0.06
c0.03,0.02,0.04,0.08,0.03,0.09c-0.01,0.01-0.06,0.02-0.09,0.01c-0.01,0-0.02,0-0.02,0c-0.03,0.01,0,0.04-0.04,0.06
c-0.02,0.01-0.04,0-0.05-0.02c0,0,0,0-0.01,0c0,0-0.01,0-0.02,0c0,0-0.01,0-0.01,0.01c0,0.01,0,0.02-0.01,0.02c0,0-0.01,0-0.02,0.01
c0,0.01,0.02,0.02,0.03,0.02c-0.03,0.02-0.07,0-0.06-0.02c0,0-0.01-0.02-0.01-0.02c0-0.01,0-0.01,0-0.01c0,0,0,0-0.01-0.01
c0,0,0,0,0,0c0,0.01-0.01,0.01-0.01,0.01c0,0-0.01,0-0.02,0c0,0.01,0.01,0.02,0.02,0.02c-0.03,0.01-0.05-0.01-0.05-0.03
c0,0-0.01-0.02-0.01-0.02c-0.01-0.06,0.06-0.03,0.06-0.05c0,0,0-0.01-0.01-0.01c-0.01,0-0.01,0-0.02,0c-0.02,0-0.02-0.01-0.02-0.02
c0,0,0-0.01,0-0.01c-0.02,0-0.03,0.01-0.04,0.02c-0.01-0.02,0.03-0.05,0.05-0.05c0,0,0.01-0.01,0.02-0.01
c0.06-0.02,0.06,0.1,0.12,0.06c0.01,0,0.03-0.01,0.05-0.01c0,0,0,0,0-0.01c-0.01-0.01-0.05-0.02-0.06-0.03
c-0.04-0.01-0.04-0.08-0.02-0.11c-0.02,0.01-0.05,0.03-0.07,0.03c-0.24-0.01-0.05,0.07-0.17,0.09c-0.02,0.01-0.08,0.07-0.13,0.06
c0.01-0.01,0-0.03,0-0.04c-0.01,0.02-0.04,0.03-0.06,0.03c-0.02,0.01-0.03,0.02-0.03,0.03c0,0.03-0.04,0.05-0.06,0.05
c0.01-0.01,0.02-0.02,0.02-0.03c0-0.01,0-0.01-0.01,0c-0.05,0.03-0.1,0-0.1,0.08c-0.02-0.02-0.01-0.05-0.02-0.05
c0,0-0.01,0.01-0.01,0.02c-0.01-0.01-0.01-0.02,0-0.03c0,0,0,0,0,0c-0.03,0.01-0.05,0.01-0.07,0c0,0,0,0,0,0
c0-0.01-0.01-0.01-0.01-0.02c-0.01,0.04-0.04,0.05-0.05,0.06c0.02-0.02,0.02-0.04,0.01-0.06c0,0.01-0.02,0.02-0.02,0.02
c0-0.02,0-0.03-0.02-0.04c0,0,0,0,0,0c0,0.02-0.01,0.04-0.04,0.05c-0.03,0-0.04-0.03-0.04-0.04c0,0,0-0.01-0.01,0
c-0.02,0.01,0,0.04-0.03,0.05c0,0-0.01,0-0.02,0c0,0.03,0.01,0.04,0.02,0.05c-0.02,0-0.05-0.02-0.05-0.05c0,0,0,0,0-0.01
c-0.01,0-0.01-0.01-0.01-0.01c-0.03-0.02,0.01-0.04,0.02-0.07c0,0,0-0.01,0,0c-0.06,0.04-0.07,0.02-0.07-0.01c0,0,0-0.01-0.01-0.02
c-0.02,0-0.03,0.02-0.03,0.02c-0.02-0.03,0.02-0.06,0.04-0.06c0,0,0,0,0.01,0c0.01,0,0.02-0.01,0.02-0.01
c0.03-0.02,0.03,0.01,0.05,0.03c0.01,0.01,0.02,0.01,0.03,0c0,0,0-0.01,0-0.01c-0.05-0.02-0.06-0.04-0.05-0.05
c0,0,0.01-0.01,0.01-0.02C18.27,9.5,18.26,9.5,18.25,9.5c0.01-0.01,0.05-0.01,0.06,0.01c0.01,0,0.02,0,0.02,0
c0.01,0,0.02,0.01,0.03,0.02c0.01,0.02,0.01,0.03,0.02,0.04c0.03,0.04,0.11,0,0.15-0.01c0.02-0.01,0.1-0.01,0.11-0.01
c0.01,0,0.09-0.02,0.14-0.04c-0.03-0.04-0.05-0.08-0.06-0.08c-0.01,0-0.01,0.01-0.01,0.02c-0.02,0-0.02-0.02-0.02-0.03
c0,0,0-0.01,0-0.01c-0.01,0-0.02,0.01-0.01,0.01c-0.01,0-0.01-0.01-0.02-0.02c0,0,0,0-0.01,0c-0.06,0.03-0.12-0.02-0.07-0.07
c-0.01,0.05,0.06,0.06,0.07,0.01c0,0,0-0.01,0-0.01c-0.04-0.01-0.04-0.03-0.01-0.06c0,0,0-0.01,0-0.01c-0.01,0-0.01-0.01-0.01-0.01
c0,0-0.01,0-0.01,0c-0.02,0.01-0.02,0.01-0.03,0.01c0,0-0.01-0.01-0.01-0.01c0,0-0.01,0-0.01,0c-0.01,0-0.01,0.02-0.01,0.03
c-0.03-0.02-0.02-0.04,0-0.05c0-0.01,0-0.02,0-0.02c0-0.02,0.03-0.04,0.07-0.02c0,0,0.01,0,0,0c0,0,0-0.01,0-0.01c0,0,0,0-0.01,0
c-0.03,0-0.04-0.01-0.04-0.03c0,0,0-0.02,0.01-0.02c0-0.01-0.02-0.01-0.02-0.01c0.04-0.03,0.06-0.01,0.06,0.01c0,0,0,0,0,0
c0,0,0.01,0,0.02,0c0.02,0,0.03,0.03,0.03,0.06c0,0,0,0.01,0,0c0-0.01,0-0.01,0-0.01c0,0,0,0,0-0.01c-0.01-0.01,0-0.02,0-0.03
c0,0,0.01-0.01,0.02-0.01c0-0.02-0.01-0.03-0.02-0.03c0.02,0,0.04,0.01,0.05,0.03c0,0.01,0,0.02,0,0.03c0,0.03-0.02,0.06-0.03,0.09
c-0.01,0.04-0.01,0.05,0.03,0.07c0.02,0.01,0.04,0.03,0.05,0.04h0c0-0.03,0.01-0.09,0.03-0.14c-0.01,0-0.01-0.01-0.02-0.02
c0.02,0,0.03-0.04,0.05-0.07c-0.01,0-0.01-0.01-0.02-0.02c0.02,0.01,0.05-0.05,0.07-0.05C18.88,9.01,18.89,9,18.9,8.97z M19.04,9.1
c0,0.02,0,0.05,0.03,0.05c0.02,0,0.01-0.01,0.05-0.02C19.09,9.12,19.05,9.11,19.04,9.1z M18.93,9.04c0.02,0.03,0,0.04,0.02,0.05
c0.02,0.01,0.04,0,0.05-0.01C18.98,9.07,18.95,9.05,18.93,9.04z M18.92,9.23c-0.01,0.01-0.01,0.04,0.01,0.05
c0.02,0.01,0.04-0.01,0.04-0.02c0-0.01,0.01-0.02,0-0.03c-0.01-0.01-0.01-0.02,0-0.03c0.01-0.01,0.02-0.01,0.03,0
c-0.01-0.01-0.01-0.02,0-0.02c0.01,0,0.01,0.02,0.02,0.02c0.01,0,0-0.01,0-0.02c0-0.01-0.01-0.01-0.01-0.01l-0.06-0.03
c-0.01,0-0.01-0.01-0.02,0c0,0-0.02,0.01-0.01,0.01c0,0.01,0.02-0.01,0.03,0c0.01,0.01,0,0.01-0.01,0.02
c0.01,0.01,0.03,0.02,0.02,0.03c0,0.01-0.01,0.02-0.02,0.01C18.94,9.2,18.93,9.21,18.92,9.23z M20.61,2.7c0,0.12,0.1,0.22,0.22,0.22
s0.22-0.1,0.22-0.22c0-0.12-0.1-0.22-0.22-0.22S20.61,2.58,20.61,2.7z M20.03,1.26c-0.28,0.06-0.5,0.28-0.55,0.57h0.55V1.26z
M19.51,2.93c0.12,0,0.22-0.1,0.22-0.22c0-0.12-0.1-0.22-0.22-0.22c-0.12,0-0.22,0.1-0.22,0.22C19.29,2.83,19.39,2.93,19.51,2.93z
M19.78,1.17h0.77c-0.16-0.12-0.28-0.31-0.31-0.49c0.18,0.03,0.39,0.16,0.51,0.32V0.23c-0.12,0.16-0.33,0.29-0.51,0.32
c0.02-0.19,0.14-0.36,0.29-0.55H19.8c0.16,0.19,0.27,0.36,0.29,0.55c-0.18-0.03-0.39-0.16-0.51-0.32V1
c0.12-0.16,0.33-0.29,0.51-0.32C20.07,0.86,19.95,1.04,19.78,1.17z M22.87,11.44c0.07,0.01,0.09-0.08,0.03-0.11
c0.1,0,0.14,0.09,0.12,0.13c-0.01,0.03-0.04,0.05-0.1,0.05c0.03,0.03,0.05,0.08,0.06,0.14c-0.06,0-0.11-0.02-0.14-0.05
c0.01,0.05-0.02,0.09-0.05,0.1c-0.04,0.02-0.13-0.02-0.14-0.11c0.04,0.05,0.12,0.03,0.11-0.03h-1.01c0.02,0.06,0.01,0.13-0.05,0.2
c-0.06-0.07-0.07-0.14-0.05-0.2h-0.91c0,0.06,0.08,0.07,0.11,0.03c0,0.1-0.09,0.14-0.13,0.12c-0.03-0.01-0.05-0.04-0.05-0.1
c-0.03,0.03-0.08,0.05-0.14,0.05c0-0.06,0.02-0.11,0.05-0.14c-0.06,0-0.08-0.02-0.1-0.05c-0.02-0.05,0.02-0.13,0.12-0.13
c-0.05,0.04-0.03,0.12,0.03,0.11v-1.3c-0.06,0.02-0.13,0.01-0.2-0.05c0.07-0.06,0.14-0.07,0.2-0.05v-1.2
c-0.06,0-0.08,0.07-0.03,0.11c-0.1-0.01-0.13-0.1-0.11-0.14c0.02-0.02,0.04-0.04,0.08-0.04c-0.03-0.04-0.05-0.08-0.04-0.15
c0.06,0.01,0.11,0.04,0.14,0.07c0.01-0.04,0.03-0.07,0.06-0.08c0.05-0.02,0.13,0.03,0.12,0.13c-0.03-0.05-0.11-0.04-0.11,0.02
c0.26,0.07,0.51,0.18,0.74,0.34c0.25,0.17,0.47,0.37,0.67,0.62c0.02,0.03,0.05,0.06,0.07,0.09c0.04-0.05,0.1-0.1,0.2-0.09
c-0.02,0.09-0.07,0.14-0.13,0.16c0,0-0.01,0.01-0.01,0.01C22.59,10.34,22.8,10.88,22.87,11.44z M22.62,11.3
c0.05,0,0.09,0.01,0.12,0.03c-0.07-0.44-0.23-0.87-0.46-1.24c-0.03,0.01-0.06,0.01-0.08,0c-0.03-0.02-0.05-0.05-0.03-0.1
c-0.04,0.02-0.08,0.04-0.14,0.03c0.01-0.06,0.04-0.1,0.07-0.13c-0.06,0-0.08-0.03-0.09-0.06c-0.01-0.03,0-0.06,0.03-0.09
c-0.18-0.22-0.39-0.41-0.61-0.56c-0.19-0.13-0.39-0.22-0.59-0.29c0.02,0.03,0.03,0.08,0.03,0.13C20.81,9.01,20.77,9,20.74,8.97v0.9
c0.05-0.01,0.1,0.02,0.11,0.05c0.01,0.03,0.01,0.07-0.04,0.1c0.05,0,0.09,0.02,0.14,0.06c-0.04,0.04-0.09,0.06-0.14,0.06
c0.04,0.04,0.05,0.07,0.04,0.1c-0.01,0.03-0.06,0.06-0.11,0.05v1.06c0.03-0.03,0.08-0.05,0.13-0.05c0,0.06-0.02,0.1-0.05,0.13h0.66
c0-0.05,0.02-0.09,0.05-0.1c0.03-0.01,0.07-0.01,0.1,0.04c0-0.04,0.02-0.09,0.06-0.13c0.04,0.04,0.06,0.09,0.06,0.13
c0.04-0.04,0.07-0.05,0.1-0.04c0.03,0.01,0.06,0.05,0.05,0.1h0.77C22.65,11.41,22.63,11.36,22.62,11.3z M18.3,4.25
c0.02,0.19,0.22,0.33,0.31,0.52c0.09-0.22,0.23-0.39,0.21-0.56c-0.02-0.17-0.26-0.4-0.3-0.53C18.39,3.92,18.28,4.06,18.3,4.25z
M20.86,2.1h-1.37c0.07,0.31,0.35,0.55,0.69,0.55S20.79,2.41,20.86,2.1z M10.69,2.56c-0.09,0-0.16,0.07-0.16,0.16
c0,0.09,0.07,0.16,0.16,0.16c0.09,0,0.16-0.07,0.16-0.16C10.85,2.63,10.78,2.56,10.69,2.56z M32.46,16.57
c0.04,0.06,0.06,0.14,0.06,0.21c0,0.03,0,0.06-0.01,0.09c-0.03,0.14-0.12,0.28-0.26,0.37c-0.12,0.08-0.25,0.11-0.38,0.1
c-0.14-0.01-0.25-0.07-0.32-0.18c-0.01-0.02-0.02-0.04-0.03-0.06c0.01,0.15,0.01,0.3,0.02,0.44c0.01,0.36-0.09,0.51-0.25,0.59
c-0.01-0.05-0.12-0.16-0.26-0.16c-0.11,0-0.2,0.08-0.2,0.15c0,0.16,0.2,0.14,0.2,0.39c0,0.25-0.57,0.56-0.92,0.5
c0.05-0.12,0.13-0.52,0.24-0.79c-0.11,0.06-0.2,0.23-0.29,0.48c-0.1,0.3-0.24,0.29-0.36,0.21c0.12-0.13,0.38-0.74,0.66-0.93
c0.28-0.19,0.41-0.27,0.48-0.73c0.07-0.46-0.01-0.74-0.02-1.14c-0.01-0.54-0.24-0.42-0.4-0.42c-0.37,0-1.74-0.88-1.74-1.78
c0-0.09,0.01-0.18,0.02-0.28c-0.62-0.01-0.97,0.17-0.97,0.74c0,0.2,0.02,0.39,0.17,0.51c0.13,0.11,0.19,0.2-0.03,0.3
c-0.24,0.11-2.16,0.9-2.16,0.9c-0.24,0.09-0.28-0.01-0.38-0.13c-0.1-0.12-0.21-0.18-0.33-0.09c-0.13,0.08,0.09,0.18,0.09,0.31
c0,0.13-0.06,0.46-0.94,0.4l0.21-0.35c0.06-0.12,0.09-0.2,0.04-0.21c-0.05-0.01-0.1,0.08-0.18,0.19l-0.25,0.33
c-0.14,0.01-0.28-0.02-0.28-0.02c0.33-0.33,0.52-0.51,0.7-0.69c0.18-0.18,0.4-0.27,0.79-0.32c0.45-0.07,1.95-0.27,1.95-0.75
c0-0.56-0.63-0.52-0.63-1.26c0-0.65,0.28-1.34,2.06-1.31c-0.15-0.42-0.6-0.74-1.04-0.84c-0.89-0.22-1.15-0.83-1.22-1.47
c-0.25-0.01-0.49-0.02-0.68-0.04c-0.55-0.04-0.83-0.2-0.96-0.09c-0.06,0.05-0.1,0.12-0.02,0.25c0.08,0.13,0.26,0.46,0.41,0.68
c0.11,0.01,0.28,0.03,0.3,0.17c0.02,0.14-0.08,0.16-0.11,0.23c-0.02,0.06,0.03,0.13,0.1,0.13c0.07,0,0.11-0.06,0.1-0.11
c0.07-0.06,0.26-0.06,0.44-0.01c0.14,0.15,0.37,0.41,0.43,0.65c-0.21-0.09-0.52-0.2-0.63-0.2c-0.11,0-0.09,0.04,0.01,0.07
c0.09,0.03,0.33,0.12,0.41,0.2l-0.02,0.25c-0.05-0.06-0.48-0.3-0.74-0.41c-0.25-0.1-0.41-0.15-0.54-0.47
c-0.13-0.32-0.53-1.03-0.69-1.3c-0.11-0.19-0.07-0.26-0.02-0.32c0.05-0.06,0.1-0.14,0.14-0.2c0.11-0.17,0.14-0.13,0.29-0.11
c0.16,0.01,0.51,0.03,0.66-0.04c0.04-0.01,0.07-0.03,0.12-0.04c-0.36-0.4-0.8-0.97-0.85-1.05c-0.07-0.1-0.17-0.15-0.24-0.15
c-0.07,0-0.14,0.01-0.2,0.06C24.03,8.03,24,8.05,23.96,8.08c-0.03-0.04-0.07-0.08-0.1-0.12c-0.06-0.07-0.13-0.14-0.2-0.21
c0.14-0.11,0.27-0.2,0.31-0.24c0.09-0.08,0.14-0.14,0.22-0.14c0.08,0,0.19,0.01,0.24,0.01c0.12,0,0.18,0.03,0.24,0.1
c0.13,0.15,0.36,0.31,0.53,0.45c0.02,0.01,0.04,0.03,0.06,0.05c0.01-0.02,0.03-0.04,0.05-0.05c0.08-0.07,0.17-0.1,0.26-0.1
c0.09,0.01,0.18,0.05,0.25,0.13c0.09,0.1,0.13,0.24,0.12,0.38c0,0.05-0.01,0.1-0.03,0.15c0.14,0.12,0.27,0.23,0.4,0.36
c0.06-0.49,0.32-0.97,0.64-1.39L26.9,7.41c0,0,0.03-0.09,0.03-0.09C27,7.1,27.12,6.71,27.17,6.53c0.02-0.07,0.03-0.1,0.03-0.1
l0.04-0.12l0.54,0.21c0.02-0.02,0.03-0.03,0.05-0.05c0.47-0.45,1.63-0.76,1.63-1.41c0-0.15-0.05-0.36-0.22-0.49
c0.08,0.1,0.09,0.24,0.07,0.38c-0.03,0.17-0.28,0.55-0.74,0.55c-0.25,0-0.43-0.24-0.52-0.24c-0.05,0-0.13,0.04-0.2,0.1
c0.02,0.34-0.12,0.52-0.26,0.55c0.05-0.14,0.01-0.38-0.03-0.35c-0.04,0.03-0.09,0.07-0.1,0.27c-0.01,0.19-0.18,0.44-0.44,0.48
c0.05-0.08,0.14-0.4,0.08-0.44c-0.06-0.05-0.14,0.09-0.21,0.09c-0.07,0-0.12-0.07-0.13-0.15c-0.01-0.07-0.14,0-0.17-0.06
c-0.03-0.07,0.16-0.2,0.33-0.26c0.17-0.06,0.42-0.18,0.38-0.27c-0.07-0.17-0.58,0.1-0.8,0.23c-0.34,0.2-0.19-0.07-0.24-0.18
c-0.13-0.29-0.01-0.32,0.13-0.45c0.19-0.17,0.57-0.44,1-0.65c0-0.14,0.09-0.26,0.2-0.3c0.18-0.07,0.35-0.14,0.53-0.2l-2.33-2.91
c-0.05-0.05-0.05-0.1-0.03-0.13c0.02-0.03,0.07-0.01,0.15,0.06l2.71,2.65c0.06-0.18,0.12-0.4,0.06-0.64
c0.33,0.16,0.62,0.48,0.67,0.79c0.83-0.01,1.06,0.51,1.31,0.33c0.04,0.13-0.1,0.26-0.34,0.31c0.96,0.25,0.71,0.94,1.26,1.02
c-0.09,0.1-0.22,0.14-0.41,0.07c0.6,0.88,0,1.45,0.46,1.86c-0.18,0.05-0.42-0.1-0.59-0.38c0.18,0.72-0.09,1.12,0.04,1.42
c-0.2,0.06-0.35-0.13-0.42-0.41C30.61,7.85,30.56,8,30.5,8.13l0.22,0.18L30.64,8.4l0,0l-0.02,0.02C30.26,8.81,30.08,9,30,9.09
l-0.06,0.07c0,0-0.07-0.04-0.08-0.05c-0.24,0.29-0.43,0.53-0.43,0.81c0,0.31,0.42,0.89,0.86,1.47c-0.02-0.06-0.03-0.12-0.03-0.18
v-0.01c0-0.11,0.05-0.21,0.12-0.28c0.07-0.07,0.18-0.11,0.29-0.1c0.15,0,0.29,0.07,0.41,0.19c0.11,0.12,0.17,0.26,0.17,0.4v0.02
c0,0.11-0.05,0.21-0.12,0.28c-0.08,0.07-0.18,0.11-0.29,0.1c-0.11,0-0.21-0.04-0.31-0.11c0.32,0.42,0.62,0.81,0.76,1.11
c0.29,0.61,0.58,1,0.93,1c0.39,0,0.74-0.29,0.74-0.75c0-1.58-2.08-1.74-2.08-3.52c0-0.83,0.72-1.23,1.14-1.23
c0.28,0,0.47,0.07,0.64,0.25c0.05-0.01,0.1-0.02,0.16-0.02c0.99,0,0.37,1.31,1.13,1.39c-0.34,0.16-0.79-0.06-1.02-0.68
c0.05,1.19,1.55,0.92,1.32,1.8c-0.03-0.59-2.03-0.53-2.09-1.75c-0.01-0.25,0.06-0.46,0.19-0.59c-0.08-0.06-0.19-0.1-0.32-0.1
c-0.35,0-0.85,0.37-0.85,0.94c0,1.55,2.07,1.75,2.07,3.45c0,0.35-0.13,0.67-0.39,0.87c0.18,0.02,0.42-0.08,0.54-0.22
c-0.18,0.65-0.85,0.68-1.07,0.41c-0.03,0-0.06,0-0.09,0c-0.06,0-0.11,0-0.16-0.01c0.13,0.27,0.34,0.53,0.64,0.49
c-0.61,0.48-1.35-0.17-1.24-0.84c-0.18-0.2-0.3-0.45-0.38-0.63c-0.07-0.15-0.17-0.06-0.16,0.1c0.02,0.53-0.4,1.03-0.4,1.42
c0,0.39,0.4,0.76,0.54,0.76c0.13,0,0.24-0.15,0.33-0.11c0.09,0.04,0.08,0.16,0.06,0.44c-0.01,0.19,0.02,0.65,0.05,1.14
c0.04-0.13,0.13-0.25,0.25-0.34c0.14-0.09,0.3-0.12,0.44-0.09C32.32,16.42,32.41,16.48,32.46,16.57z M28.45,4.33
c-0.2-0.06-0.35-0.23-0.52-0.23c-0.34,0-0.24,0.28-0.34,0.47C27.83,4.43,28.12,4.36,28.45,4.33z M25.76,8.31
c0.01-0.1-0.02-0.19-0.08-0.25C25.66,8.03,25.61,8,25.56,7.99c-0.06,0-0.11,0.03-0.13,0.05c-0.06,0.06-0.1,0.14-0.11,0.24
c0,0.01,0,0.02,0,0.02c0,0.16,0.09,0.29,0.21,0.3c0.06,0,0.1-0.03,0.13-0.05C25.72,8.5,25.76,8.41,25.76,8.31z M30.44,11.2
c0,0.1,0.04,0.21,0.12,0.29c0.08,0.08,0.18,0.14,0.28,0.14c0.04,0,0.11-0.01,0.16-0.06l0,0c0.05-0.05,0.06-0.11,0.07-0.16
c0-0.1-0.04-0.21-0.12-0.29c-0.08-0.08-0.19-0.13-0.28-0.14c-0.05,0-0.11,0.01-0.16,0.06C30.45,11.09,30.44,11.15,30.44,11.2z
M29.91,9.01c0.21-0.23,0.64-0.69,0.64-0.69l-0.27-0.21c0.02,0.1,0,0.24-0.03,0.37c-0.06-0.04-0.13-0.15-0.12-0.26l-0.21,0.27
c0.06,0,0.2,0.02,0.26,0.09c-0.19,0.18-0.35,0.09-0.46,0.02c-0.18-0.12-0.26-0.22-0.21-0.31c0.06-0.11,0.26-0.07,0.28,0.1
c0.15-0.07,0.18-0.19,0.13-0.29c-0.04-0.07-0.15-0.1-0.25-0.06c0.24-0.13,0.36-0.33,0.3-0.59c-0.27,0.05-0.39,0.2-0.45,0.47
c-0.02-0.11-0.08-0.21-0.17-0.21c-0.11-0.01-0.21,0.08-0.2,0.24c0.17-0.06,0.28,0.11,0.21,0.21c-0.07,0.1-0.2,0.08-0.38-0.02
c-0.2-0.12-0.23-0.3-0.13-0.48c0.05,0.05,0.1,0.15,0.1,0.28l0.23-0.38c-0.05,0.02-0.16,0.04-0.27,0c0.06-0.07,0.17-0.19,0.32-0.2
L28.8,7.11c0.06,0.14,0.02,0.29-0.01,0.38c-0.09-0.08-0.12-0.17-0.13-0.23l-0.21,0.39c0.11-0.07,0.23-0.08,0.29-0.06
c-0.11,0.18-0.27,0.25-0.48,0.13c-0.18-0.1-0.26-0.2-0.21-0.31c0.06-0.11,0.26-0.1,0.29,0.08c0.15-0.08,0.17-0.2,0.11-0.29
c-0.05-0.07-0.17-0.08-0.27-0.04c0.2-0.19,0.27-0.36,0.18-0.62C28.11,6.61,27.99,6.82,28,7.08c-0.02-0.11-0.09-0.19-0.18-0.19
c-0.11,0-0.2,0.09-0.18,0.25c0.16-0.07,0.29,0.08,0.23,0.19c-0.05,0.09-0.18,0.07-0.37-0.03c-0.12-0.06-0.28-0.15-0.21-0.41
c0.09,0.02,0.18,0.13,0.21,0.18l0.13-0.32c-0.09,0.06-0.22,0.05-0.28,0.02c0.1-0.09,0.21-0.18,0.3-0.21l-0.32-0.12
c0,0-0.18,0.59-0.28,0.89L29.91,9.01z M29.82,13.95c-0.13-0.09-0.32-0.03-0.43,0.13c-0.11,0.16-0.1,0.36,0.02,0.45
c0.13,0.09,0.32,0.03,0.43-0.13C29.96,14.24,29.95,14.04,29.82,13.95z M30.66,13.11c0.11-0.16,0.11-0.36-0.02-0.45
c-0.13-0.09-0.32-0.03-0.43,0.13c-0.11,0.16-0.1,0.36,0.02,0.45C30.35,13.33,30.55,13.28,30.66,13.11z M32.32,16.67L32.32,16.67
c-0.04-0.06-0.1-0.08-0.15-0.09c-0.1-0.02-0.21,0-0.31,0.07c-0.1,0.06-0.17,0.16-0.18,0.25c-0.01,0.04-0.01,0.11,0.03,0.17
c0.08,0.12,0.28,0.13,0.45,0.02c0.1-0.06,0.17-0.16,0.18-0.25C32.35,16.79,32.36,16.72,32.32,16.67z M25.87,7.63
C25.74,7.45,25.8,7.17,26.02,7c0.12-0.09,0.26-0.13,0.4-0.12c0.1,0.01,0.19,0.06,0.25,0.14c0.06,0.07,0.08,0.17,0.07,0.27
c-0.02,0.13-0.09,0.26-0.21,0.35C26.3,7.81,26.01,7.8,25.87,7.63L25.87,7.63z M25.98,7.4c0,0.04,0.01,0.08,0.04,0.11
c0.08,0.1,0.26,0.09,0.39-0.01c0.08-0.06,0.13-0.15,0.14-0.23c0-0.04,0-0.1-0.03-0.14c-0.04-0.05-0.09-0.06-0.13-0.07
c-0.08-0.01-0.18,0.02-0.26,0.08C26.03,7.21,25.98,7.31,25.98,7.4z M26.38,10.33c0.04,0.11,0.03,0.22-0.01,0.31
c-0.04,0.09-0.13,0.16-0.23,0.2c-0.14,0.05-0.3,0.04-0.45-0.04c-0.27-0.13-0.4-0.41-0.3-0.63c0.04-0.09,0.13-0.16,0.23-0.2
c0.14-0.05,0.3-0.03,0.45,0.04C26.22,10.07,26.33,10.19,26.38,10.33z M26.22,10.39c-0.03-0.09-0.11-0.18-0.22-0.22
c-0.11-0.05-0.22-0.06-0.31-0.03c-0.04,0.01-0.1,0.05-0.13,0.11c-0.06,0.13,0.03,0.31,0.21,0.4c0.11,0.05,0.22,0.06,0.31,0.03
c0.04-0.02,0.1-0.05,0.13-0.11C26.24,10.49,26.23,10.43,26.22,10.39z M24.28,21.01c0.05-0.21,0.09-0.36,0.17-0.55
c0.06-0.14,0.12-0.25,0.18-0.35c0.12-0.22,0.21-0.39,0.21-0.64c0-0.35-0.21-0.54-0.44-0.75c-0.08-0.07-0.16-0.14-0.24-0.22
c0.77,0.06,1.57,0.61,2.35,1.14c0.4,0.27,0.81,0.55,1.21,0.76c0.46,0.24,0.84,0.35,1.19,0.35c0.37,0,0.71-0.26,1.06-0.54
c0.26-0.2,0.52-0.4,0.82-0.54c0.04-0.02,0.06-0.07,0.05-0.11c-0.02-0.04-0.06-0.07-0.11-0.05c-0.99,0.29-2.21-0.53-3.4-1.31
c-1-0.66-1.94-1.29-2.74-1.29c-0.3,0-0.56,0.06-0.79,0.19c-0.28,0.15-0.49,0.4-0.63,0.73c-0.14,0.33-0.28,0.55-0.39,0.73
c-0.14,0.22-0.24,0.37-0.24,0.57c0,0.16,0.07,0.3,0.21,0.44c0.11,0.11,0.28,0.23,0.52,0.35c0.05,0.03,0.1,0.05,0.15,0.07
c0.2,0.09,0.32,0.16,0.34,0.27c-0.39,0.17-0.9,0.31-1.47,0.41c-0.65,0.11-1.36,0.17-2.11,0.17c-0.75,0-1.46-0.06-2.11-0.17
c-0.57-0.1-1.08-0.24-1.47-0.41c0.02-0.16,0.14-0.23,0.35-0.33c0.05-0.02,0.1-0.05,0.15-0.08c0.2-0.1,0.38-0.21,0.51-0.32
c0.14-0.12,0.2-0.25,0.2-0.41c0-0.19-0.1-0.35-0.23-0.57c-0.12-0.18-0.26-0.4-0.39-0.73c-0.14-0.33-0.35-0.57-0.63-0.72
c-0.23-0.12-0.49-0.19-0.79-0.19c-0.81,0-1.75,0.62-2.75,1.29c-1.18,0.79-2.41,1.6-3.4,1.31c-0.05-0.01-0.09,0.01-0.11,0.06
c-0.02,0.04,0.01,0.09,0.05,0.11c0.3,0.13,0.57,0.34,0.82,0.54c0.36,0.28,0.69,0.54,1.06,0.54c0.35,0,0.73-0.11,1.18-0.35
c0.4-0.21,0.81-0.49,1.21-0.76c0.78-0.53,1.59-1.08,2.35-1.14c-0.08,0.08-0.16,0.15-0.23,0.22c-0.23,0.2-0.42,0.37-0.42,0.73
c0,0.28,0.1,0.48,0.23,0.75c0.04,0.08,0.08,0.17,0.13,0.27c0.09,0.19,0.12,0.34,0.17,0.55c0.02,0.09,0.05,0.19,0.08,0.31
c0.05,0.18,0.14,0.52,0.7,0.8c0.65,0.33,1.77,0.5,3.33,0.5c1.56,0,2.68-0.17,3.33-0.5c0.56-0.28,0.65-0.62,0.7-0.8
C24.24,21.2,24.26,21.1,24.28,21.01z M29.78,17.3c-0.09-0.1-0.13-0.22-0.11-0.35c0.02-0.1,0.08-0.19,0.17-0.26
c0.12-0.08,0.28-0.11,0.44-0.09c0.29,0.05,0.5,0.29,0.45,0.53c-0.02,0.12-0.1,0.22-0.22,0.29c-0.11,0.06-0.25,0.08-0.39,0.05
C29.99,17.47,29.86,17.4,29.78,17.3z M29.84,16.99c-0.03,0.14,0.11,0.29,0.31,0.33c0.2,0.03,0.38-0.05,0.41-0.2
c0-0.01,0-0.02,0-0.03c0-0.13-0.13-0.26-0.31-0.29c-0.11-0.02-0.23,0-0.31,0.06C29.9,16.87,29.86,16.92,29.84,16.99z M29.63,15.61
c0.08,0.1,0.12,0.24,0.12,0.38c0,0.16-0.07,0.31-0.17,0.42c-0.08,0.08-0.18,0.12-0.29,0.12c-0.1,0-0.2-0.05-0.28-0.13
c-0.1-0.1-0.15-0.25-0.15-0.41v-0.01c0-0.16,0.07-0.31,0.17-0.41c0.08-0.08,0.18-0.12,0.29-0.12C29.44,15.44,29.55,15.5,29.63,15.61
z M29.57,15.98c0-0.2-0.11-0.37-0.26-0.37c-0.07,0-0.13,0.04-0.16,0.07c-0.07,0.07-0.11,0.17-0.12,0.29c0,0.11,0.04,0.22,0.1,0.29
c0.03,0.03,0.08,0.07,0.15,0.07h0c0.07,0,0.13-0.03,0.16-0.07C29.52,16.2,29.57,16.1,29.57,15.98z M22.17,17.03
c-0.45,0.28-0.9,0.44-1.25,0.44c-0.4,0-0.91-0.08-1.44-0.23c-0.47-0.13-0.91-0.3-1.25-0.48c-0.18,0.13-0.39,0.16-0.57,0.06
c-0.23-0.11-0.39-0.37-0.39-0.54c0-0.03,0-0.06,0.01-0.09c-0.16-0.14-0.31-0.29-0.45-0.45c-0.43-0.49-0.78-1.06-1.01-1.69
c-0.11-0.29-0.2-0.6-0.26-0.91c0.4,0.14,0.57,0,0.69-0.13c0.04,0.01,0.05,0.13,0.04,0.17c0.44-0.01,0.7-0.31,0.73-0.53
c0.04,0.27,0.11,0.54,0.2,0.79c0.16,0.45,0.39,0.85,0.69,1.2c0.1,0.12,0.21,0.23,0.32,0.33c0.07-0.03,0.14-0.04,0.21-0.04
c0.16,0,0.32,0.08,0.44,0.22c0.12,0.14,0.18,0.32,0.16,0.47l0,0.01c0.78,0.35,1.62,0.65,2.33,0.83c0.43,0.11,0.96,0.21,1.3,0.16
c-0.02,0.01-0.03,0.03-0.05,0.05C22.51,16.79,22.34,16.92,22.17,17.03z M18.93,15.51c-0.01-0.09-0.06-0.19-0.13-0.27
c-0.1-0.11-0.22-0.17-0.35-0.17c-0.28,0-0.57,0.3-0.66,0.39l-0.03,0.03l-0.04-0.01c-0.07-0.02-0.14-0.03-0.22-0.04
c0.03,0.06,0.06,0.13,0.1,0.19l0.02,0.03l-0.02,0.03c-0.14,0.22-0.21,0.43-0.21,0.59c0,0.11,0.12,0.33,0.32,0.42
c0.13,0.06,0.26,0.06,0.38-0.02c-0.07-0.04-0.16-0.09-0.22-0.13l-0.03-0.02c-0.06-0.03-0.12-0.07-0.14-0.15
c0-0.02-0.01-0.03-0.01-0.05c0-0.07,0.03-0.15,0.09-0.26c0.01-0.02,0.03-0.04,0.04-0.06c0.01-0.01,0.02-0.03,0.03-0.04l0.03-0.05
l0.05,0.03c0.1,0.06,0.2,0.09,0.28,0.07c0.03-0.01,0.06-0.03,0.07-0.06c0.04-0.07,0.02-0.2-0.12-0.31l-0.05-0.04l0.08-0.09
c0.05-0.06,0.1-0.12,0.16-0.17c0.12-0.11,0.24-0.11,0.37,0l0.07,0.06C18.84,15.45,18.89,15.49,18.93,15.51z M19.56,16.46
c0-0.17-0.13-0.3-0.3-0.3c-0.17,0-0.3,0.13-0.3,0.3c0,0.17,0.14,0.3,0.3,0.3C19.42,16.76,19.56,16.62,19.56,16.46z M20.85,16.89
c0-0.15-0.12-0.27-0.28-0.27c-0.15,0-0.28,0.12-0.28,0.27s0.12,0.28,0.28,0.28C20.73,17.16,20.85,17.04,20.85,16.89z M32.43,16.07
c0-0.38,0.31-0.69,0.7-0.69c0.38,0,0.69,0.31,0.69,0.69c0,0.38-0.31,0.69-0.69,0.69C32.74,16.76,32.43,16.45,32.43,16.07z
M32.61,16.07c0,0.28,0.23,0.52,0.52,0.52c0.28,0,0.51-0.23,0.51-0.52c0-0.28-0.23-0.51-0.51-0.51
C32.84,15.55,32.61,15.78,32.61,16.07z M16.61,3.53c0.12,0,0.22-0.1,0.22-0.22c0-0.12-0.1-0.22-0.22-0.22
c-0.12,0-0.22,0.1-0.22,0.22C16.39,3.43,16.49,3.53,16.61,3.53z M16.86,3.02c0.12,0,0.22-0.1,0.22-0.22c0-0.12-0.1-0.22-0.22-0.22
s-0.22,0.1-0.22,0.22C16.63,2.92,16.73,3.02,16.86,3.02z M17.3,2.64c0.12,0,0.22-0.1,0.22-0.22c0-0.12-0.1-0.22-0.22-0.22
c-0.12,0-0.22,0.1-0.22,0.22C17.07,2.54,17.17,2.64,17.3,2.64z M13.15,1.78c0.06,0.06,0.17,0.06,0.23,0c0.06-0.06,0.06-0.16,0-0.23
c-0.06-0.06-0.17-0.06-0.23,0C13.08,1.61,13.08,1.71,13.15,1.78z M16.54,4.07c0.12,0,0.22-0.1,0.22-0.22c0-0.12-0.1-0.22-0.22-0.22
c-0.12,0-0.22,0.1-0.22,0.22C16.31,3.97,16.41,4.07,16.54,4.07z M21.04,14.92c0.01-0.01,0.02-0.02,0.02-0.03c0-0.01,0-0.01-0.01,0
c-0.05,0.03-0.1,0-0.11,0.08c-0.02-0.02-0.01-0.05-0.02-0.05c-0.01,0-0.01,0.01-0.01,0.02c-0.01-0.01-0.01-0.02,0-0.03
c0,0,0-0.01-0.01,0c-0.03,0.01-0.05,0.01-0.07,0c0,0,0,0,0,0c0-0.01-0.01-0.01-0.01-0.02c-0.01,0.04-0.04,0.05-0.05,0.06
c0.02-0.02,0.02-0.04,0.01-0.06c-0.01,0.01-0.02,0.02-0.02,0.02c0.01-0.02,0-0.03-0.02-0.03c0,0,0,0,0,0c0,0.02-0.01,0.04-0.04,0.05
c-0.03,0-0.04-0.03-0.04-0.04c0,0,0-0.01-0.01,0c-0.02,0.01,0,0.04-0.03,0.06c0,0-0.01,0-0.02,0c0,0.02,0.01,0.04,0.02,0.05
c-0.02,0-0.05-0.02-0.05-0.05c0,0,0,0,0-0.01c-0.01,0-0.01-0.01-0.01-0.01c-0.03-0.02,0.01-0.04,0.02-0.07c0,0,0-0.01,0,0
c-0.06,0.04-0.07,0.02-0.07-0.01c0,0,0-0.01-0.01-0.02c-0.02,0-0.03,0.02-0.03,0.03c-0.02-0.03,0.02-0.06,0.04-0.06c0,0,0,0,0.01,0
c0.01,0,0.02-0.01,0.02-0.01c0.03-0.01,0.03,0.01,0.05,0.03c0.01,0.01,0.02,0.01,0.03,0c0.01,0,0-0.01,0-0.01
c-0.05-0.02-0.06-0.04-0.05-0.05c0,0,0.01-0.01,0.01-0.02c-0.01-0.02-0.02-0.02-0.03-0.02c0.01-0.01,0.05-0.01,0.06,0.01
c0.01,0,0.02,0,0.02,0c0.01,0,0.02,0.01,0.03,0.02c0.01,0.02,0.01,0.03,0.02,0.04c0.01,0.02,0.04,0.02,0.06,0.01c0,0,0,0,0,0.01
l0.01-0.01c0.03,0,0.07-0.02,0.08-0.03c0.02-0.01,0.12,0,0.13,0c0.01,0-0.01-0.03-0.03-0.06c-0.04,0-0.08-0.02-0.09-0.07
c-0.08-0.04-0.07-0.13-0.08-0.13c-0.01,0-0.01,0.01-0.01,0.02c-0.02,0-0.02-0.02-0.03-0.03c0,0,0-0.01,0-0.01
c-0.01,0-0.01,0.01-0.01,0.01c-0.01,0-0.02-0.01-0.02-0.02c0,0,0-0.01-0.01,0c-0.05,0.03-0.12-0.02-0.08-0.08
c0,0.05,0.07,0.06,0.07,0.01c0,0,0-0.01-0.01-0.01c-0.04-0.01-0.04-0.03-0.01-0.06c0,0,0,0,0-0.01c0,0-0.01-0.01-0.01-0.01
c0,0,0,0-0.01,0c-0.02,0.01-0.02,0.01-0.03,0.01c0,0-0.01-0.01-0.01-0.01c0,0,0,0-0.01,0c-0.01,0-0.01,0.02-0.01,0.03
c-0.03-0.02-0.02-0.04-0.01-0.05c0,0,0-0.02,0-0.02c0-0.02,0.02-0.04,0.06-0.02c0,0,0,0,0,0c0,0,0-0.01,0-0.01c0,0,0,0-0.01,0
c-0.03,0-0.05-0.01-0.04-0.03c0,0,0-0.02,0-0.03c0-0.01-0.02-0.01-0.02-0.01c0.03-0.03,0.06-0.01,0.06,0.01c0,0,0,0,0,0
c0,0,0.01,0,0.02,0c0.02,0,0.03,0.03,0.04,0.06c0,0,0,0.01,0,0c0-0.01,0-0.01,0-0.01c0,0,0,0,0-0.01c-0.01-0.01-0.01-0.02,0-0.03
c0,0,0.01-0.01,0.01-0.02c0-0.02-0.01-0.03-0.02-0.03c0.02,0,0.04,0.01,0.05,0.03c0,0.01,0.01,0.03,0.01,0.03
c0,0.03-0.01,0.06-0.01,0.09c0,0.04,0,0.06,0.04,0.08c0.04,0.02,0.1,0.12,0.14,0.16c-0.01-0.05,0-0.11,0.01-0.16
c-0.01,0-0.01-0.01-0.02-0.02c0.02,0,0.03-0.04,0.05-0.08c-0.01,0-0.01-0.01-0.02-0.02c0.02,0.01,0.04-0.05,0.07-0.05
c-0.01-0.03,0-0.05,0.01-0.07c0.02,0,0.03,0.01,0.04,0.02c0-0.01,0.02-0.01,0.03-0.01c0,0,0.03-0.01,0.03-0.01
c0.01,0,0.03,0,0.06,0.02c0.03,0.01,0.05,0.03,0.05,0.04c0.01,0,0.01,0.03,0.01,0.03c0.01,0.01,0.02,0.02,0.01,0.03
c0.02,0,0.03,0.01,0.05,0.02c0,0.02-0.02,0.04-0.04,0.05c0.03,0.03-0.03,0.1-0.05,0.15v0c0.28-0.07,0.51,0.01,0.64,0.01
c0.17,0,0.3-0.04,0.3-0.09c0-0.06-0.66,0.08-0.66-0.09c0-0.06,0.07-0.1,0.15-0.12c0.01-0.01,0.01-0.01,0.02-0.02
c0.11-0.06,0.35,0.03,0.44-0.02c-0.01,0.03-0.13,0.05-0.24,0.05c0.19,0.04,0.32-0.08,0.53-0.01c-0.16-0.04-0.45,0.15-0.71,0.08
c-0.03-0.01-0.04-0.02-0.05-0.03c-0.05,0.02-0.09,0.04-0.09,0.07c0,0.11,0.66-0.05,0.67,0.1c0,0.07-0.14,0.13-0.36,0.13
c-0.01,0-0.04,0-0.06,0c0,0.05,0.07,0.05,0.11,0.1c0.02,0.02,0.01,0.05-0.03,0.06c-0.03,0.01,0.02,0.04,0.04,0.04
c-0.02,0.02-0.03,0.03-0.05,0.02c0,0-0.01,0-0.01,0c-0.01,0.02-0.04,0.03-0.01,0.05c-0.02,0.01-0.03,0-0.03-0.01v0c0,0,0,0,0,0
c0.01,0.01,0,0.03-0.01,0.03c-0.03,0.03-0.05-0.01-0.07,0.01c-0.02,0.01,0.01,0.04-0.03,0.06c0,0-0.02,0-0.02,0
c0,0.01,0,0.03,0,0.03c-0.03-0.01-0.03-0.03-0.03-0.05c0,0-0.01-0.01-0.01-0.01c-0.01-0.02,0.01-0.03,0.03-0.04c0,0,0,0,0,0
c-0.02-0.01-0.05,0.03-0.06,0.01c0,0-0.01-0.01-0.01-0.01c-0.02,0.01-0.02,0.01-0.03,0.02c-0.01-0.01-0.01-0.04,0.01-0.05
c0-0.01,0-0.01,0-0.02c-0.01-0.03,0.03-0.02,0.05-0.02c0,0,0,0,0-0.01c0,0,0,0,0,0c-0.01-0.01-0.01-0.01-0.01-0.02
c0,0,0-0.01,0-0.01c-0.02-0.01-0.03,0-0.04,0c0.01-0.02,0.04-0.03,0.06-0.03c0,0,0.02-0.01,0.03,0c0.01,0.01,0.03,0.03,0.04,0.04
l0,0c0.02-0.01,0.01-0.02,0.05-0.04c0.01-0.01,0.01-0.02,0-0.03c-0.01-0.01-0.06-0.04-0.1-0.05c-0.02,0.04-0.17,0.01-0.22,0
c0.1,0.06,0.05,0.18,0.07,0.19c0.03,0.02,0.04,0.08,0.03,0.09c-0.01,0.02-0.03,0.01-0.06,0c-0.01,0-0.02,0-0.03,0
c-0.03,0.01,0,0.04-0.04,0.06c-0.02,0.01-0.04,0-0.05-0.02c0,0,0-0.01-0.01-0.01c-0.01,0-0.01,0-0.02,0c0,0-0.01,0-0.01,0.01
c0,0.01,0,0.02-0.01,0.02c0,0-0.01,0-0.02,0.01c0,0.01,0.02,0.01,0.03,0.02c-0.03,0.02-0.07,0-0.06-0.02c0,0-0.01-0.02-0.01-0.02
c0-0.01,0-0.01,0-0.01c0,0,0,0-0.01-0.01c0,0,0,0,0,0c0,0.01-0.01,0.01-0.01,0.01c0,0-0.01,0-0.01,0c0,0.01,0.01,0.02,0.02,0.02
c-0.03,0.01-0.05-0.01-0.05-0.03c0-0.01-0.01-0.02-0.01-0.02c-0.01-0.06,0.06-0.03,0.06-0.05c0,0,0-0.01-0.01-0.01
c-0.01,0-0.01,0.01-0.02,0.01c-0.02,0-0.02-0.01-0.02-0.02v-0.01c-0.02,0-0.03,0.01-0.04,0.02c-0.01-0.03,0.03-0.05,0.05-0.05
c0,0,0.01-0.01,0.02-0.01c0.06-0.02,0.06,0.1,0.12,0.06c0.01,0,0.03-0.01,0.05-0.01c0,0,0.01,0,0-0.01
c-0.01-0.01-0.06-0.05-0.06-0.09c0-0.03,0.01-0.08,0.02-0.1c-0.07,0-0.1,0.05-0.17,0.06c-0.01,0-0.02,0-0.02,0
c-0.01,0.1-0.05,0.13-0.05,0.14C21.12,14.89,21.06,14.92,21.04,14.92z M21.13,14.26c0,0.02,0.01,0.05,0.03,0.05
c0.02,0,0.01-0.01,0.05-0.02C21.18,14.29,21.13,14.27,21.13,14.26z M21.02,14.2c0.02,0.03,0,0.04,0.02,0.05
c0.02,0.02,0.04,0,0.05-0.01C21.07,14.24,21.03,14.22,21.02,14.2z M21.07,14.42c0.01-0.01,0.01-0.02,0-0.03
c-0.01-0.01-0.01-0.02-0.01-0.03c0.01-0.01,0.02-0.01,0.03,0c-0.01-0.01-0.01-0.02,0-0.02c0.01,0,0.01,0.02,0.02,0.02
c0.01,0,0-0.01,0-0.02c0-0.01,0-0.01-0.01-0.02l-0.06-0.03c-0.01,0-0.01,0-0.02,0c0,0-0.01,0.01-0.01,0.02c0,0,0.02-0.01,0.02,0
c0.01,0.01,0,0.01-0.01,0.02c0.01,0.01,0.03,0.01,0.02,0.03c0,0.01-0.01,0.01-0.02,0.01c-0.01,0-0.01,0.01-0.02,0.02
C21,14.4,21,14.43,21.02,14.44C21.04,14.45,21.06,14.43,21.07,14.42z M17.76,12.52c0,0.01,0,0.01,0,0.01l0.06-0.14
c0.15,0.09,0.39,0.19,0.6,0.19c0.48,0,0.82-0.23,1-0.23c0.2,0,0.31,0.14,0.3,0.32l0,0.05l0.05,0c0.05,0.01,0.1,0.04,0.1,0.1
c0,0.06-0.06,0.09-0.12,0.09l-0.04,0l-0.04,1.65l0.05,0.01l-0.01,0.15c-0.01,0.05-0.07,0.06-0.12,0.05c0.03,0.26-0.19,0.32-0.3,0.32
c-0.11,0-0.22-0.08-0.22-0.21c0-0.11,0.1-0.15,0.17-0.15c0.07,0,0.1,0.03,0.09,0.08c-0.01,0.04-0.12,0.01-0.12,0.07
c0,0.04,0.04,0.07,0.09,0.07c0.08,0,0.13-0.04,0.13-0.14c0-0.15-0.14-0.17-0.28-0.14c-0.95-0.28-1.48-1.2-1.41-1.92
c-0.02-0.01-0.04-0.02-0.06-0.03l0.06-0.14c-0.02,0.03-0.06,0.04-0.09,0.04c-0.07,0-0.12-0.05-0.12-0.12c0-0.06,0.05-0.12,0.12-0.12
C17.7,12.4,17.76,12.45,17.76,12.52z M18.93,12.69l0.47,0.67c0.03-0.18,0.05-0.34,0.07-0.43c0-0.02,0-0.03,0.01-0.04l-0.03,0
c-0.06,0-0.11-0.04-0.1-0.11c0.01-0.07,0.07-0.09,0.12-0.09l0.04,0c0.02-0.15,0-0.19-0.08-0.19C19.32,12.51,19.14,12.61,18.93,12.69
z M18.57,12.81l0.74,1.06c0.02-0.11,0.04-0.23,0.05-0.34l-0.56-0.79C18.74,12.77,18.66,12.79,18.57,12.81z M18.19,12.84l1.05,1.5
c0.01-0.09,0.03-0.19,0.05-0.31l-0.84-1.2c-0.05,0.01-0.11,0.01-0.16,0.01C18.26,12.84,18.22,12.84,18.19,12.84z M18.05,12.85
c-0.08,0.86,0.53,1.41,1.15,1.65L18.05,12.85z M13.11,1.44c0.06-0.06,0.06-0.16,0-0.23c-0.06-0.06-0.17-0.06-0.23,0
c-0.06,0.06-0.06,0.16,0,0.23C12.95,1.5,13.05,1.5,13.11,1.44z M20.68,12.89c0.01,0.01,0.03,0.01,0.03,0c0.01,0,0-0.01,0-0.01
c-0.06-0.02-0.07-0.04-0.06-0.06c0,0,0.01-0.01,0.01-0.02c-0.01-0.02-0.02-0.02-0.04-0.03c0.01-0.01,0.05-0.01,0.07,0.01
c0.01,0,0.02,0,0.02,0c0.01,0,0.02,0.01,0.03,0.03c0.01,0.02,0.01,0.03,0.02,0.05c0.03,0.04,0.13,0,0.16-0.02
c0.03-0.01,0.11,0,0.12,0c0.01,0-0.04-0.04-0.03-0.08L21,12.77c-0.02-0.01-0.03-0.02-0.03-0.04c-0.02,0.01-0.05,0.02-0.05,0.03
c-0.09-0.05-0.12-0.13-0.14-0.13c-0.01,0-0.01,0.01-0.01,0.02c-0.02,0-0.03-0.02-0.03-0.04c0,0,0-0.01,0-0.01
c-0.01,0-0.01,0.01-0.01,0.01c-0.01,0-0.02-0.01-0.02-0.02c0,0,0,0-0.01,0c-0.06,0.03-0.13-0.02-0.09-0.09
c0,0.06,0.08,0.07,0.08,0.01c0-0.01,0-0.01-0.01-0.01c-0.04-0.01-0.05-0.04-0.02-0.07c0,0,0-0.01,0-0.01
c-0.01,0-0.01-0.01-0.01-0.01c-0.01,0-0.01,0-0.01,0c-0.02,0.01-0.02,0.01-0.03,0.01c0,0-0.01-0.01-0.01-0.01c0,0,0,0-0.01,0
c-0.01,0-0.01,0.02-0.01,0.03c-0.03-0.02-0.03-0.04-0.01-0.06c0,0,0-0.02,0-0.02c0-0.02,0.02-0.04,0.07-0.02c0,0,0.01,0,0,0
c0,0,0-0.01,0-0.01c0,0,0-0.01-0.01-0.01c-0.03,0-0.05-0.01-0.05-0.04c0,0,0-0.02,0.01-0.03c0-0.01-0.02-0.01-0.03-0.01
c0.03-0.03,0.06-0.01,0.06,0.02c0,0,0,0,0,0c0,0,0.02,0,0.02,0c0.02,0,0.04,0.04,0.04,0.07c0,0,0,0.01,0,0c0-0.01,0-0.01,0-0.02
c0,0,0,0,0-0.01c-0.01-0.01-0.01-0.03,0-0.04c0,0,0.01-0.01,0.02-0.02c0-0.02-0.01-0.03-0.02-0.04c0.02-0.01,0.05,0.01,0.06,0.04
c0,0.01,0.01,0.03,0.01,0.03c0,0.03-0.02,0.06-0.02,0.1c0,0.04,0,0.06,0.04,0.09c0.06,0.03,0.08,0.09,0.11,0.09
c0.01,0,0.03,0,0.03,0.01c0,0,0.02,0,0.03,0l0.04,0.01c0-0.02,0-0.04,0-0.06c-0.01,0-0.02-0.01-0.03-0.03
c0.02,0,0.03-0.05,0.05-0.08c-0.01,0-0.02-0.01-0.02-0.03c0.02,0.01,0.05-0.05,0.08-0.06c-0.01-0.03,0-0.05,0.01-0.07
c0.02,0,0.04,0.01,0.05,0.02c0-0.02,0.02-0.02,0.03-0.02c0,0,0.03-0.01,0.04,0c0.01,0,0.03,0,0.06,0.02
c0.03,0.02,0.05,0.03,0.06,0.04c0.01,0,0.01,0.03,0.02,0.04c0.01,0.01,0.02,0.02,0.01,0.04c0.02,0,0.04,0.01,0.05,0.02
c0,0.02-0.02,0.04-0.04,0.05c0.03,0.04-0.04,0.11-0.05,0.15c0.27-0.08,0.96,0.01,1.12,0.01c0.1,0,0.27-0.01,0.27-0.06
c0-0.03-0.04-0.05-0.22-0.05c-0.18,0-0.91,0.12-0.91-0.09c0-0.12,0.24-0.09,0.44-0.09c0.01-0.01,0.01-0.01,0.02-0.01
c0.11-0.07,0.37,0.03,0.46-0.03c-0.01,0.03-0.13,0.06-0.25,0.06c0.2,0.04,0.34-0.09,0.55-0.01c-0.16-0.05-0.47,0.15-0.74,0.08
c-0.02-0.01-0.04-0.02-0.05-0.03c-0.16-0.01-0.38-0.04-0.38,0.04c0,0.12,0.64,0.04,0.85,0.04c0.21,0,0.28,0.04,0.28,0.1
c0,0.08-0.22,0.09-0.34,0.1c-0.01,0-0.01,0.01,0,0.01c0.12,0.01,0.18,0.02,0.25,0.02c0.04-0.01,0.04,0.02,0.04,0.02
c0,0.04,0.05,0.02,0.06,0c0,0.03-0.01,0.05-0.02,0.06c0,0,0,0,0,0.01c0,0.02-0.01,0.05,0.03,0.05c-0.01,0.02-0.02,0.02-0.04,0.02h0
c0,0,0,0,0,0c0.02,0.01,0.02,0.02,0.02,0.03c0,0.05-0.05,0.04-0.05,0.06c0,0.02,0.04,0.02,0.02,0.07c0,0-0.01,0.01-0.02,0.02
c0,0.01,0.02,0.02,0.02,0.02c-0.03,0.01-0.05,0-0.06-0.02c-0.01,0-0.02,0-0.02,0c-0.02-0.01-0.01-0.04,0-0.06c0,0,0,0,0,0
c-0.03,0.01-0.02,0.06-0.04,0.05H22.6c-0.01,0.02-0.01,0.03-0.01,0.04c-0.02,0-0.03-0.02-0.03-0.04c-0.01,0-0.01-0.01-0.02-0.01
c-0.03-0.01,0.01-0.04,0.03-0.06c0,0,0-0.01-0.01,0c-0.02,0.02-0.06,0.01-0.06-0.02v-0.01c-0.02,0-0.04,0.02-0.05,0.02
c0-0.03,0.03-0.05,0.06-0.05c0,0,0.02-0.01,0.03-0.01c0.03,0,0.07,0.02,0.08,0c0.01-0.02,0-0.03,0.01-0.08
c0-0.02-0.01-0.02-0.02-0.02c-0.02,0-0.07-0.02-0.12,0.01c-0.05,0.03-0.08,0.04-0.17,0.04c-0.05,0-0.09-0.02-0.13-0.03
c0.02,0.03,0,0.06,0.02,0.07c0.04,0.02,0.04,0.08,0.03,0.1c-0.01,0.02-0.06,0.02-0.1,0.01c-0.01,0-0.02,0-0.03,0
c-0.04,0.01,0,0.05-0.04,0.06c-0.02,0.01-0.04-0.01-0.05-0.02c0,0,0-0.01-0.01,0c-0.01,0-0.01,0-0.02,0c0,0-0.01,0-0.01,0.01
c0,0.01,0,0.02-0.01,0.03c0,0-0.01,0-0.02,0.01c0,0.01,0.03,0.02,0.04,0.02c-0.04,0.03-0.07,0-0.07-0.03c0,0-0.01-0.02-0.01-0.02
c0-0.01,0-0.01,0-0.01c0,0,0,0-0.01-0.01c0,0,0,0,0,0c0,0.01-0.01,0.01-0.01,0.01c0,0-0.01,0-0.02,0c0,0.01,0.01,0.02,0.02,0.03
c-0.04,0.01-0.05-0.01-0.05-0.03c0,0-0.01-0.02-0.01-0.02c-0.02-0.07,0.07-0.03,0.07-0.06c0,0,0-0.01-0.01-0.01
c-0.01,0-0.01,0.01-0.03,0.01c-0.02,0-0.03-0.01-0.02-0.02v-0.01c-0.02,0-0.03,0.02-0.04,0.03c-0.01-0.03,0.03-0.06,0.06-0.06
c0,0,0.02-0.01,0.02-0.01c0.07-0.02,0.07,0.11,0.13,0.07c0.01-0.01,0.03-0.01,0.06-0.01c0,0,0.01,0,0-0.01
c-0.01-0.01-0.05-0.03-0.07-0.03c-0.04-0.01-0.04-0.09-0.02-0.13c-0.02,0.02-0.03,0.04-0.05,0.04c-0.4-0.04-0.21,0.15-0.55,0.11
c-0.02,0-0.02,0.04-0.08,0.04c-0.03,0.01-0.06,0.01-0.06,0.02c0,0.03-0.08,0.09-0.11,0.07c0.01-0.01,0.02-0.02,0.03-0.03
c0-0.01,0-0.01-0.01,0c-0.06,0.04-0.11,0-0.12,0.09c-0.02-0.02-0.01-0.06-0.02-0.06c0,0-0.01,0.02-0.02,0.02
c-0.01-0.01-0.01-0.02,0-0.04c0,0,0,0,0,0c-0.04,0.01-0.06,0.01-0.07,0c0,0,0,0,0,0c0-0.01-0.01-0.01-0.01-0.02
c-0.01,0.04-0.04,0.06-0.06,0.06c0.02-0.02,0.02-0.05,0.02-0.06c-0.01,0.01-0.02,0.02-0.03,0.03c0-0.02-0.01-0.03-0.02-0.04
c0,0,0,0,0,0c0,0.02-0.01,0.05-0.05,0.05c-0.04,0-0.04-0.03-0.05-0.04c0,0,0-0.01-0.01,0c-0.02,0.01,0,0.05-0.03,0.06
c0,0-0.01,0-0.02,0c0,0.03,0.01,0.04,0.02,0.05c-0.02,0-0.06-0.03-0.05-0.06c0,0,0,0,0-0.01c-0.01,0-0.01-0.01-0.01-0.01
c-0.03-0.02,0.01-0.05,0.02-0.07c0,0,0-0.01,0,0c-0.07,0.04-0.08,0.02-0.08-0.01c0,0,0-0.01-0.01-0.02c-0.02,0-0.03,0.02-0.03,0.03
c-0.02-0.03,0.02-0.07,0.05-0.06c0,0,0,0,0.01,0c0.01,0,0.02-0.01,0.02-0.01C20.66,12.84,20.66,12.87,20.68,12.89z M21.25,12.41
c0,0.02,0.01,0.05,0.03,0.05c0.02,0,0.01-0.01,0.05-0.02C21.31,12.43,21.26,12.41,21.25,12.41z M21.13,12.34
c0.02,0.03,0,0.04,0.02,0.06c0.02,0.02,0.04,0,0.05-0.02C21.19,12.38,21.15,12.35,21.13,12.34z M21.14,12.6
c0.02,0.01,0.04-0.01,0.05-0.02c0-0.02,0.01-0.03,0-0.03c-0.01-0.01-0.01-0.02-0.01-0.03c0.01-0.02,0.02-0.01,0.04,0
c-0.01-0.02-0.01-0.03,0-0.02c0.01,0,0.01,0.02,0.02,0.02c0.01,0,0-0.02,0-0.02c0-0.01,0-0.01-0.01-0.02l-0.07-0.03
c-0.01,0-0.02,0-0.02,0c0,0.01-0.02,0.01-0.01,0.02c0,0.01,0.02-0.01,0.03,0c0.01,0.01,0,0.01-0.02,0.02
c0.02,0.01,0.03,0.02,0.02,0.03c-0.01,0.02-0.01,0.02-0.03,0.02c-0.01,0-0.01,0.01-0.02,0.03C21.11,12.56,21.11,12.59,21.14,12.6z
M20.55,13.77C20.55,13.77,20.55,13.77,20.55,13.77c0.02,0,0.03,0,0.03-0.01c0.03-0.02,0.03,0.01,0.05,0.03
c0.01,0.01,0.02,0.01,0.03,0c0,0,0-0.01,0-0.01c-0.06-0.02-0.06-0.04-0.05-0.05c0,0,0-0.01,0.01-0.02
c-0.01-0.02-0.02-0.02-0.04-0.02c0.01-0.01,0.05-0.01,0.06,0.01h0.02c0.01,0,0.02,0.01,0.03,0.02c0.01,0.02,0.01,0.03,0.02,0.05
c0.03,0.04,0.12,0,0.16-0.02c0.03-0.01,0.1,0,0.12,0c0.01,0,0-0.06,0-0.1l-0.05,0.01c-0.01-0.01-0.02-0.01-0.03-0.03
c-0.07-0.04-0.07-0.01-0.08-0.01c-0.01,0-0.01,0.01-0.01,0.02c-0.02,0-0.03-0.02-0.03-0.04c0,0,0-0.01,0-0.01
c-0.01,0-0.01,0.01-0.01,0.01c-0.01,0-0.02-0.01-0.02-0.02c0,0,0,0-0.01,0c-0.06,0.03-0.13-0.02-0.09-0.08
c0,0.06,0.07,0.07,0.07,0.01c0,0,0-0.01-0.01-0.01c-0.04-0.01-0.04-0.04-0.01-0.07c0,0,0,0,0-0.01c0,0-0.01-0.01-0.01-0.01
c0,0-0.01,0-0.01,0c-0.02,0.01-0.02,0.01-0.03,0.01c0,0-0.01-0.01-0.01-0.01c0,0,0,0-0.01,0c-0.01,0-0.01,0.02-0.01,0.03
c-0.03-0.02-0.02-0.04-0.01-0.05c0-0.01,0-0.02,0-0.02c0-0.02,0.02-0.04,0.07-0.02c0,0,0.01,0,0,0c0,0,0-0.01,0-0.01
c0,0,0-0.01-0.01-0.01c-0.03,0-0.05-0.01-0.05-0.04c0,0,0-0.02,0.01-0.03c-0.01-0.01-0.02-0.01-0.02-0.01
c0.03-0.03,0.06-0.01,0.06,0.02c0,0,0,0,0,0c0,0,0.01,0,0.02,0c0.02,0,0.03,0.04,0.04,0.06c0,0,0,0.01,0,0c0-0.01,0-0.01,0-0.02
c0,0,0-0.01,0-0.01c-0.01-0.01-0.01-0.02,0-0.04c0,0,0.01-0.01,0.02-0.02c0-0.02-0.01-0.03-0.02-0.03c0.02-0.01,0.05,0.01,0.05,0.03
c0,0.01,0.01,0.03,0.01,0.03c0,0.03-0.01,0.06-0.01,0.1c0,0.04,0,0.06,0.04,0.08c0.05,0.03,0.07,0.03,0.1,0.03c0,0,0.01,0,0.01,0
l0.02,0.01c0-0.02,0.01-0.05,0.01-0.07c-0.01,0-0.01-0.01-0.02-0.02c0.02,0,0.03-0.04,0.05-0.08c-0.01,0-0.01-0.01-0.02-0.03
c0.02,0.01,0.05-0.05,0.07-0.06c-0.01-0.03,0-0.05,0.01-0.07c0.02,0,0.03,0.01,0.05,0.02c0-0.02,0.02-0.02,0.03-0.02
c0,0,0.03-0.01,0.04,0c0.01,0,0.03,0,0.06,0.02c0.03,0.01,0.05,0.03,0.06,0.04c0.01,0,0.01,0.03,0.01,0.03
c0.01,0.01,0.02,0.02,0.01,0.03c0.02,0,0.03,0.01,0.05,0.02c0,0.02-0.02,0.04-0.04,0.05c0.03,0.03-0.02,0.09-0.04,0.13
c0.27-0.05,0.7,0.02,0.85,0.02c0.09,0,0.29-0.01,0.29-0.06c0-0.03,0.02-0.05-0.15-0.05c-0.17,0-0.7,0.12-0.7-0.08
c0-0.09,0.12-0.09,0.26-0.09c0,0,0.01-0.01,0.02-0.01c0.11-0.06,0.35,0.03,0.44-0.03c-0.01,0.03-0.13,0.06-0.24,0.06
c0.2,0.04,0.32-0.08,0.53-0.01c-0.15-0.04-0.45,0.15-0.71,0.07c-0.03-0.01-0.04-0.02-0.05-0.03c-0.11-0.01-0.19-0.01-0.19,0.04
c0,0.11,0.45,0.04,0.65,0.04c0.2,0,0.21,0.04,0.21,0.1c0,0.07-0.23,0.09-0.35,0.1c-0.01,0-0.01,0.01,0,0.01
c0.11,0.01,0.2,0.02,0.26,0.02c0.04-0.01,0.03,0.02,0.03,0.02c0,0.03,0.04,0.01,0.06,0c0,0.03-0.01,0.04-0.03,0.05
c0,0,0,0.01,0,0.01c0,0.02-0.02,0.05,0.02,0.05c-0.01,0.02-0.03,0.02-0.04,0.02h0c0,0,0,0,0,0c0.01,0.01,0.01,0.02,0.01,0.03
c-0.01,0.05-0.06,0.03-0.06,0.06c-0.01,0.02,0.04,0.02,0.01,0.07c0,0-0.01,0.01-0.02,0.02c0,0.01,0.01,0.02,0.02,0.02
c-0.03,0.01-0.05,0-0.05-0.02c-0.01,0-0.02,0-0.02,0c-0.02-0.01-0.01-0.03,0.01-0.06c0,0,0,0,0,0c-0.03,0.01-0.03,0.05-0.05,0.05
c0,0-0.01,0-0.02,0c-0.02,0.02-0.02,0.03-0.01,0.04c-0.02,0-0.03-0.02-0.02-0.04c-0.01,0-0.01-0.01-0.02-0.01
c-0.02-0.01,0.02-0.04,0.04-0.06c0.01-0.01,0-0.01-0.01-0.01c-0.03,0.02-0.06,0.01-0.05-0.02c0,0,0-0.01,0-0.01
c-0.02,0-0.04,0.02-0.05,0.02c0-0.03,0.04-0.05,0.06-0.05c0,0,0.02-0.01,0.03-0.01c0.03,0,0.06,0.02,0.08,0
c0.02-0.02,0-0.02,0.02-0.07c0.01-0.02,0-0.02-0.01-0.02c-0.01,0-0.06-0.02-0.11,0.01c-0.05,0.03-0.09,0.04-0.18,0.04
c-0.05,0-0.09-0.01-0.12-0.03c0.02,0.03,0,0.06,0.02,0.07c0.04,0.02,0.04,0.08,0.03,0.1c-0.01,0.01-0.06,0.01-0.09,0.01
c-0.01,0-0.02,0-0.03,0c-0.03,0.01,0,0.04-0.04,0.06c-0.02,0.01-0.04,0-0.05-0.02c0,0,0-0.01-0.01,0c-0.01,0-0.01,0-0.02,0
c0,0-0.01,0-0.01,0c0,0.01,0,0.02-0.01,0.02c0,0-0.01,0-0.02,0.01c0,0.01,0.02,0.02,0.03,0.02c-0.04,0.02-0.07,0-0.07-0.03
c0,0-0.01-0.02-0.01-0.02c0-0.01,0-0.01,0-0.01c0,0,0-0.01-0.01-0.01c0,0,0,0,0,0c0,0.01-0.01,0.01-0.01,0.01c0,0-0.01,0-0.02,0
c0,0.01,0.01,0.02,0.02,0.02c-0.03,0.01-0.05-0.01-0.05-0.03c-0.01,0-0.01-0.02-0.01-0.02c-0.01-0.07,0.06-0.03,0.06-0.05
c0-0.01,0-0.01-0.01-0.01c-0.01,0-0.01,0.01-0.03,0.01c-0.02,0-0.02-0.01-0.02-0.02c0,0,0-0.01,0-0.01c-0.02,0-0.03,0.01-0.04,0.02
c-0.01-0.03,0.03-0.06,0.05-0.06c0,0,0.01-0.01,0.02-0.01c0.06-0.03,0.07,0.1,0.12,0.06c0.01-0.01,0.03-0.01,0.05-0.01
c0,0,0.01,0,0-0.01c-0.01-0.01-0.05-0.02-0.07-0.03c-0.04-0.01-0.04-0.08-0.02-0.12c-0.02,0.01-0.05,0.03-0.07,0.03
c-0.28-0.05-0.15,0.11-0.32,0.1c-0.02,0-0.02,0.04-0.07,0.04c0.02-0.01,0.01-0.02,0.01-0.03c0,0.01-0.01,0.01-0.02,0.02
c-0.02,0.04-0.08,0.13-0.14,0.09c0.01-0.01,0.02-0.02,0.02-0.03c0-0.01,0-0.01-0.01,0c-0.06,0.04-0.13,0.01-0.13,0.1
c-0.02-0.02-0.01-0.06-0.02-0.06c0,0-0.01,0.01-0.01,0.02c-0.01-0.01-0.01-0.02,0-0.04c0,0,0,0,0,0c-0.03,0.01-0.06,0.01-0.07,0
c0,0,0,0,0,0c0-0.01-0.01-0.01-0.01-0.02c-0.01,0.04-0.04,0.05-0.06,0.06c0.02-0.02,0.02-0.04,0.01-0.06
c-0.01,0.01-0.02,0.02-0.02,0.03c0-0.02-0.01-0.03-0.02-0.04c0,0-0.01,0,0,0c0,0.02-0.01,0.05-0.05,0.05
c-0.04,0-0.04-0.03-0.04-0.04c0,0,0-0.01-0.01,0c-0.02,0.01,0,0.05-0.03,0.06c0,0-0.01,0-0.02,0c0,0.02,0.01,0.04,0.02,0.05
c-0.02,0-0.06-0.02-0.05-0.06c0,0,0,0,0-0.01c-0.01,0-0.01-0.01-0.01-0.01c-0.03-0.02,0.01-0.05,0.02-0.07c0,0,0-0.01-0.01,0
c-0.06,0.04-0.07,0.02-0.08-0.01c0,0,0-0.01-0.01-0.02c-0.02,0-0.03,0.02-0.03,0.03C20.49,13.8,20.52,13.77,20.55,13.77z
M21.22,13.33c0,0.02,0,0.05,0.03,0.05c0.02,0,0.02-0.01,0.05-0.02C21.27,13.35,21.23,13.34,21.22,13.33z M21.1,13.27
c0.02,0.03,0,0.04,0.02,0.05c0.02,0.02,0.04,0,0.05-0.01C21.16,13.3,21.12,13.28,21.1,13.27z M21.11,13.51
c0.02,0.01,0.04-0.01,0.05-0.02c0.01-0.01,0.01-0.03,0-0.03c-0.01-0.01-0.01-0.02,0-0.03c0.01-0.02,0.02-0.01,0.04,0
c-0.01-0.01-0.01-0.03,0-0.02c0.01,0,0.01,0.02,0.02,0.02c0.01,0,0-0.01,0-0.02c0-0.01,0-0.01-0.01-0.02l-0.06-0.03
c-0.01-0.01-0.01-0.01-0.02,0c-0.01,0-0.01,0.01-0.01,0.02c0,0.01,0.02-0.01,0.03,0c0.01,0.01,0,0.01-0.02,0.02
c0.01,0.01,0.03,0.02,0.02,0.03c0,0.01-0.01,0.02-0.03,0.02c-0.01,0-0.01,0.01-0.02,0.02C21.09,13.48,21.08,13.5,21.11,13.51z
M16.65,4.17c-0.12,0-0.22,0.1-0.22,0.22c0,0.12,0.1,0.22,0.22,0.22c0.12,0,0.22-0.1,0.22-0.22C16.87,4.27,16.77,4.17,16.65,4.17z
M10.64,2.45c0.09,0,0.16-0.07,0.16-0.16s-0.07-0.16-0.16-0.16c-0.09,0-0.16,0.07-0.16,0.16S10.55,2.45,10.64,2.45z M12.73,2.27
c-0.15-0.08-0.28,0.05-0.15,0.22c0.03-0.14,0.15-0.11,0.18,0c0.03,0.1-0.07,0.22-0.23,0.27c-0.23,0.07-0.31-0.08-0.36-0.2
c0.05-0.03,0.17-0.02,0.3,0.06l-0.11-0.37c-0.05,0.13-0.13,0.18-0.22,0.22c-0.01-0.11,0.07-0.32,0.07-0.32l-0.44,0.18
c0,0,0.21,0.1,0.28,0.18c-0.09,0.03-0.18,0.05-0.31-0.01l0.18,0.34c0.04-0.15,0.11-0.24,0.17-0.25c0.05,0.13,0.1,0.29-0.12,0.4
c-0.15,0.08-0.3,0.05-0.36-0.04c-0.06-0.1,0.01-0.21,0.13-0.13c-0.02-0.21-0.2-0.21-0.26-0.05c0-0.22-0.05-0.35-0.28-0.41
c-0.06,0.22,0.02,0.35,0.24,0.44c-0.12-0.01-0.26,0.11-0.09,0.26c0-0.14,0.11-0.15,0.18-0.06c0.04,0.06,0.03,0.17-0.05,0.22
c-0.07,0.05-0.21,0.04-0.39-0.12c0.05-0.02,0.11-0.01,0.19,0l-0.24-0.29c0.01,0.1,0.01,0.18-0.01,0.22
c-0.05-0.06-0.07-0.11-0.09-0.22l-0.18,0.16c0.17,0.1,0.37,0.27,0.61,0.6c0.25-0.16,0.7-0.37,0.98-0.49
c0.28-0.11,0.75-0.27,1.04-0.33c-0.06-0.4-0.03-0.66,0.02-0.85l-0.24,0.01c0.06,0.1,0.08,0.14,0.09,0.22
c-0.05-0.02-0.1-0.07-0.17-0.15l0.03,0.37c0.04-0.07,0.08-0.11,0.13-0.13c-0.01,0.24-0.11,0.34-0.19,0.36
c-0.1,0.02-0.18-0.05-0.19-0.12c-0.02-0.11,0.07-0.18,0.17-0.08c0.02-0.22-0.16-0.22-0.24-0.13c0.09-0.22,0.06-0.36-0.14-0.48
C12.53,1.98,12.58,2.11,12.73,2.27z M6.79,10.68C6.67,9.46,8.14,9.73,8.27,8.72c-0.3,0.44-0.83,0.77-1.13,0.6
c0.76,0.02,0.53-1.55,1.4-1.55c0.09,0,0.19,0.02,0.29,0.06c0.24-0.19,0.52-0.31,0.76-0.31c0.35,0,0.91,0.26,0.91,0.94
c0,1.53-2.47,2.52-2.47,3.95c0,0.48,0.29,0.71,0.67,0.71c0.86,0,1.41-1.54,2.35-2.8c0.58-0.85,0.98-2.53,1.37-3.33
c-0.45,0.32-0.52,1.2-1.07,1.26c0.29-0.25,0.08-1.01,0.27-1.56c0.07-0.2,0.1-0.4,0.04-0.61c-0.34,0.36-0.19,1.55-0.73,1.7
c0.19-0.24-0.02-0.63-0.02-1c0-0.68,0.35-0.79,0.39-1.42c-0.33,0.12-0.21,1.02-0.86,1c0.46-0.45-0.01-0.93,0.51-1.44
c-0.31-0.14-0.52-0.38-0.52-0.63c0.2-0.16,0.44-0.22,0.66-0.24c-0.1-0.15,0.03-0.3,0.17-0.42c0.05,0.06,0.12,0.18,0.19,0.13
c0.13-0.09,0.57-0.36,0.96-0.51c0.39-0.15,0.89-0.28,1.04-0.31c0.1-0.02,0.05-0.14,0.04-0.23c0.19-0.01,0.4,0,0.42,0.2
c0.16-0.13,0.39-0.2,0.61-0.21c0.13,0.27,0.15,0.49,0.04,0.86c0.31,0.02,0.49,0.29,0.78,0.22c-0.25,0.34-0.55,0.2-0.85,0.16
c0.84,0.26,1,1.09,1.47,1.14c-0.5,0.39-0.83-0.3-1.26-0.29c1.12,0.56,1.13,1.24,1.44,1.25c-0.35,0.31-0.62-0.1-1.07-0.2
c0.89,0.59,0.95,1.06,0.88,1.46c0.19,0.18,0.17,0.41,0.18,0.69c0.15-0.1,0.4-0.14,0.57-0.19c-0.06,0.06-0.12,0.12-0.18,0.19
c-0.45,0.5-0.77,0.99-1.02,1.64c-0.19-0.19-0.4-0.38-0.5-0.48c-0.18-0.17-0.35-0.13-0.42-0.12c0.29,0.33,1.25,1.35,1.53,1.67
c0.28,0.33,0.25,0.56,0.29,0.81c0.04,0.25,0.35,0.44,0.29,0.61c-0.08,0.21,0.1,0.26,0.1,0.42c0,0.21-0.18,0.31-0.38,0.35
c0.14-0.29,0.02-0.45-0.22-0.49c0.05,0.55-0.38,0.63-0.56,0.54c0.17-0.03,0.24-0.3,0.15-0.53c-0.08,0.19-0.27,0.33-0.45,0.33
c-0.17,0-0.3-0.13-0.37-0.27c0.2,0.13,0.36-0.02,0.36-0.13c0-0.1-0.2-0.16-0.2-0.31c0-0.37,0.41-0.22,0.41-0.55
c0-0.13-0.07-0.19-0.16-0.19c-0.08,0-0.22,0.04-0.25,0.26c-0.2-0.18,0-0.59-0.09-0.86c0.02,0.43-0.28,0.41-0.39,0.58
c-0.15-0.15,0-0.45-0.14-0.8c-0.05,0.4-0.2,0.34-0.25,0.57c-0.4-0.2-1.12-0.13-1.36,0.14c0.68,0.53,1.5,0.81,1.5,1.64
c0,0.63-0.99,0.88-0.99,1.28c0,0.41,1.03,1.35,1.55,1.35c0.17,0,0.25-0.21,0.39-0.22c0.14-0.01,0.26,0,0.39,0.01
s0.23,0.13,0.23,0.24c0.24,0.03,0.54,0.39,0.24,0.69c-0.05-0.17-0.21-0.4-0.52-0.24c0.12,0.27,0.01,0.54-0.34,0.64
c0.11-0.18,0.13-0.41-0.08-0.41c-0.21,0-0.03,0.13-0.42,0.13c-0.39,0-0.35,0.02-0.51-0.21c-0.16-0.22-0.27-0.31-0.36-0.28
c-0.09,0.03-0.13,0.26,0.02,0.34c-0.83,0-0.49-0.86-0.92-1.07c0.02,0.27,0.03,0.47,0,0.6c-0.31-0.24-0.5-0.57-0.55-0.77
c-0.06-0.21-0.01-0.4-0.22-0.5c-0.07-0.03-0.14-0.1-0.12-0.21c0.02-0.09,0.07-0.06,0.22-0.13c0.18-0.08,0.4-0.25,0.4-0.69
c0-0.33-0.07-0.79-0.62-1.11c0.04,0.7,0.03,1.3-0.29,1.84c-0.41,0.69-1.11,1.12-1.5,1.29c-0.4,0.17-0.95,0.3-0.95,0.82
c0,0.96,0.43,1.54,0.87,1.54c0.28,0,0.21-0.32,0.62-0.32c0.18,0,0.37,0.07,0.41,0.2c0.22-0.04,0.46,0.08,0.46,0.29
c0,0.21-0.09,0.33-0.26,0.36c0.13-0.27-0.2-0.34-0.3-0.28c-0.1,0.06,0.03,0.16,0.03,0.32c0,0.16-0.05,0.32-0.34,0.39
c0.06-0.1,0.06-0.24-0.12-0.24c-0.18,0-0.24,0.29-0.47,0.29c-0.36,0-0.46-0.16-0.81-0.09c-0.25,0.05-0.24,0.19-0.15,0.25
c-0.5,0.03-0.4-0.51-0.29-0.62c0.11-0.11,0.18-0.18,0.03-0.28c-0.15-0.1-0.39,0-0.43,0.24c-0.37-0.72,0.15-0.69-0.02-1.5
c-0.09,0.34-0.3,0.6-0.46,0.69c0.06-0.18-0.1-0.52-0.1-0.8c0-0.62,0.39-0.82,0.39-1.02c0-0.13-0.15-0.27,0.01-0.4
c0.08-0.07,0.26,0.07,0.37,0.07c0.5,0,0.85-0.63,0.93-1.34c0.09-0.84,0.42-1.41,0.77-2.05c0.01-0.1,0.03-0.2,0.05-0.3
c-0.35,0.43-0.65,1.09-1.13,1.47c0.06,0.53-0.99,1.15-1.59,0.68c0.2,0.01,0.57-0.08,0.68-0.38c-0.09-0.01-0.17-0.02-0.25-0.05
c-0.37,0.2-0.95-0.05-0.93-0.46c0.15,0.17,0.33,0.21,0.5,0.13c-0.13-0.17-0.2-0.4-0.2-0.66c0-1.57,2.46-2.65,2.46-3.94
c0-0.41-0.26-0.62-0.53-0.62c-0.15,0-0.32,0.04-0.49,0.15c0.12,0.11,0.2,0.24,0.2,0.41C9.33,9.86,6.99,9.72,6.79,10.68z M13.01,3.82
c0.13,0.23,0.43,0.39,0.66,0.21c0.18-0.14,0.03-0.29,0.25-0.63C13.67,3.55,13.32,3.69,13.01,3.82z M12.35,4.07
c-0.31,0.12-0.67,0.26-0.95,0.32c0.4,0.1,0.39,0.31,0.62,0.29C12.3,4.65,12.41,4.33,12.35,4.07z M12.59,4.99
c0.13-0.02,0.12,0.1,0.03,0.27c0.2-0.05,0.39-0.13,0.48,0.04c0.08,0.15,0.04,0.25-0.09,0.37c-0.07,0.07-0.02,0.21,0.03,0.38
c0.06,0.17,0.28,0.43,0.57,0.3c0.31-0.13,0.28-0.43,0.2-0.59c-0.08-0.16-0.15-0.3-0.24-0.3c-0.18,0-0.27-0.04-0.32-0.2
c-0.06-0.19,0.13-0.26,0.31-0.36c-0.19-0.06-0.28-0.14-0.17-0.22c0.12-0.09,0.3,0.08,0.34,0c0.04-0.08-0.09-0.15-0.15-0.2
c-0.07-0.07-0.15-0.05-0.26-0.02l-0.84,0.32c-0.11,0.05-0.17,0.08-0.17,0.19c0,0.08-0.05,0.22,0.04,0.25
C12.44,5.26,12.44,5.01,12.59,4.99z M10.89,2.1c0.09,0,0.16-0.07,0.16-0.16c0-0.09-0.07-0.16-0.16-0.16c-0.09,0-0.16,0.07-0.16,0.16
C10.73,2.03,10.8,2.1,10.89,2.1z M12.32,1.64c0.06-0.06,0.06-0.16,0-0.23c-0.06-0.06-0.17-0.06-0.23,0c-0.06,0.06-0.06,0.16,0,0.23
C12.15,1.7,12.26,1.7,12.32,1.64z M11.32,2.07c0.09,0,0.16-0.07,0.16-0.16c0-0.09-0.07-0.16-0.16-0.16c-0.09,0-0.16,0.07-0.16,0.16
C11.16,2,11.23,2.07,11.32,2.07z M12.68,1.37c0.06-0.06,0.06-0.16,0-0.23c-0.06-0.06-0.17-0.06-0.23,0c-0.06,0.06-0.06,0.16,0,0.23
C12.52,1.43,12.62,1.43,12.68,1.37z M11.29,1.42l0.13,0.28l0.16-0.19c0.01,0,0.01,0,0.02,0.01c0.01,0.09,0.02,0.26,0.02,0.35
c0,0.11,0.09,0.2,0.2,0.2s0.21-0.09,0.21-0.2c0-0.08-0.04-0.15-0.11-0.18c-0.08-0.06-0.17-0.14-0.23-0.21
c0-0.01,0.01-0.02,0.01-0.03l0.27,0.02l-0.11-0.29l-0.2,0.17c0,0-0.01,0-0.01-0.01l-0.02-0.3l-0.28,0.11l0.19,0.22
c-0.01,0.01-0.01,0.01-0.01,0.02L11.29,1.42z"/>
</svg>
