<svg xmlns="http://www.w3.org/2000/svg" width="101" height="24" viewBox="0 0 101 24">
<path fill="#25222C" d="M26.83,22.03L26.83,22.03V11.02c0-1.96-2.21-3.54-4.93-3.54c-2.24,0-4.14,1.08-4.74,2.55
c-0.6-1.47-2.49-2.55-4.73-2.55c-2.04,0-3.79,0.89-4.54,2.15V7.87H1.58H0.39H0v0.39h0.39c0.65,0,1.18,0.53,1.18,1.18v0v12.59v0
c0,0.65-0.53,1.18-1.18,1.18H0v0.39h0.39h1.18h0.79h4.34h1.18h1.18v-0.39c-0.65,0-1.18-0.53-1.18-1.18V11.02
c0-0.87,0.71-1.57,1.58-1.57c0.87,0,1.58,0.71,1.58,1.57v11.02c0,0.65-0.53,1.18-1.18,1.18v0.39h1.18h0.79h4.73h0.79h1.18v-0.39
c-0.65,0-1.18-0.53-1.18-1.18v0V11.02c0-0.87,0.71-1.57,1.58-1.57c0.87,0,1.58,0.71,1.58,1.57h0v11.02c0,0.65-0.53,1.18-1.18,1.18
v0.39h1.18h0.79h4.73h0.79h1.18h0.39v-0.39h-0.39C27.36,23.21,26.83,22.68,26.83,22.03z M64.71,22.03L64.71,22.03l0-14.16h-6.31
h-1.18h-4.34h0v-6.3h-0.39c0,3.48-2.83,6.3-6.31,6.3h0.4h-1.97v0.39h1.97v12.2h0c0,1.96,2.21,3.54,4.93,3.54
c2.72,0,4.93-1.59,4.93-3.54V17.7h-0.39v2.75c0,0.87-0.71,1.57-1.58,1.57c-0.87,0-1.58-0.7-1.58-1.57V8.26h4.34
c0.65,0,1.18,0.53,1.18,1.18l0,0v12.59l0,0c0,0.65-0.53,1.18-1.18,1.18h-0.4v0.39h0.4h1.18h0.79h4.73h0.79h1.18h0.39v-0.39h-0.39
C65.23,23.21,64.71,22.68,64.71,22.03z M74.96,22.03L74.96,22.03V1.57h-6.31h-1.18v0.39c0.65,0,1.18,0.53,1.18,1.18v0v18.89v0
c0,0.65-0.53,1.18-1.18,1.18h-0.39v0.39h0.39h1.18h0.79h4.73h0.79h1.18h0.4v-0.39h-0.4C75.49,23.21,74.96,22.68,74.96,22.03z
M36.69,7.48c-4.58,0-8.28,3.7-8.28,8.26c0,4.56,3.71,8.26,8.28,8.26c4.58,0,8.29-3.7,8.29-8.26C44.98,11.18,41.27,7.48,36.69,7.48z
M36.69,23.61c-1.18,0-1.97-1.18-1.97-7.87c0-6.69,0.79-7.87,1.97-7.87c1.18,0,1.97,1.18,1.97,7.87
C38.67,22.43,37.88,23.61,36.69,23.61z M84.83,7.48c-4.58,0-8.29,3.7-8.29,8.26c0,4.56,3.71,8.26,8.29,8.26
c4.58,0,8.29-3.7,8.29-8.26C93.11,11.18,89.4,7.48,84.83,7.48z M84.83,23.61c-1.18,0-1.97-1.18-1.97-7.87
c0-6.69,0.79-7.87,1.97-7.87c1.18,0,1.97,1.18,1.97,7.87C86.8,22.43,86.01,23.61,84.83,23.61z M96.66,16.92
c-1.96,0-3.55,1.59-3.55,3.54c0,1.96,1.59,3.54,3.55,3.54c1.96,0,3.55-1.59,3.55-3.54C100.21,18.5,98.62,16.92,96.66,16.92z
M61.55,7.08c1.96,0,3.55-1.59,3.55-3.54C65.1,1.59,63.51,0,61.55,0S58,1.59,58,3.54C58,5.5,59.59,7.08,61.55,7.08z"/>
</svg>
