<svg xmlns="http://www.w3.org/2000/svg" width="161" height="32" viewBox="0 0 161 32">
<path d="M60.39,2.51c0.43,0,0.78,0.35,0.78,0.77s-0.35,0.75-0.78,0.75s-0.78-0.33-0.78-0.75
	C59.61,2.85,59.96,2.51,60.39,2.51z M72.88,6.25c-1.37,0-2.53,1.07-2.51,3.44l4.81-0.66C75.18,7.06,74.24,6.25,72.88,6.25z
	 M43.37,3.98c-2.24,0-3.04,2.45-3.04,4.7c0,2.22,0.72,4.65,3.04,4.65c2.33,0,3.02-2.44,3.02-4.65C46.4,6.43,45.61,3.98,43.37,3.98z
	 M90.51,6.28c-1.85,0-2.38,1.87-2.38,3.62c0,1.74,0.58,3.54,2.38,3.54c1.85,0,2.38-1.79,2.38-3.54C92.9,8.15,92.36,6.28,90.51,6.28z
	 M99.79,5.46l-0.32,0.98c-0.78-0.2-1.92-0.17-2.46,0.16v7.53h-1.24v-8.1c0.9-0.38,1.79-0.58,3.38-0.58
	C99.37,5.44,99.66,5.44,99.79,5.46z M85.73,1.77c0.13,0,0.29,0.02,0.29,0.02v0.79h-0.14c-0.85,0-1.62,0.55-1.62,1.71v1.37h1.76v0.75
	h-1.76v7.72h-1.23V6.4h-1.26V5.65h1.26V4.42C83.03,2.88,83.94,1.77,85.73,1.77z M58.08,1.77c0.13,0,0.29,0.02,0.29,0.02v0.79h-0.14
	c-0.85,0-1.62,0.55-1.62,1.71v1.37h1.76v0.75H56.6v7.72h-1.23V6.4h-1.26V5.65h1.26V4.42C55.37,2.88,56.28,1.77,58.08,1.77z M53,1.77
	c0.13,0,0.29,0.02,0.29,0.02v0.79h-0.14c-0.85,0-1.62,0.55-1.62,1.71v1.37h1.76v0.75h-1.76v7.72H50.3V6.4h-1.26V5.65h1.26V4.42
	C50.3,2.88,51.21,1.77,53,1.77z M61.01,5.65v8.47h-1.24V5.65H61.01z M66.35,5.44c1.03,0,1.7,0.28,2.07,0.58L68.1,6.77
	c-0.28-0.2-0.8-0.45-1.48-0.45c-1.72,0-2.6,1.49-2.6,3.5c0,2.07,1.01,3.55,2.56,3.55c0.64,0,1.16-0.22,1.5-0.46l0.33,0.82
	c-0.36,0.31-1.08,0.59-2.11,0.59c-2.01,0-3.56-1.73-3.56-4.45C62.75,7.11,64.29,5.44,66.35,5.44z M43.37,3.1
	c3.04,0,4.38,2.55,4.38,5.61c0,3.1-1.34,5.61-4.38,5.61s-4.39-2.51-4.39-5.61C38.98,5.65,40.34,3.1,43.37,3.1z M90.51,5.44
	c2.5,0,3.63,1.95,3.63,4.45s-1.13,4.43-3.63,4.43s-3.64-1.93-3.64-4.43S88.01,5.44,90.51,5.44z M72.92,5.44
	c2.15,0,3.47,1.32,3.47,4.15l-5.97,0.8c0.16,2,1.26,3,2.98,3c1.04,0,1.84-0.27,2.3-0.52l0.36,0.86c-0.53,0.3-1.53,0.58-2.75,0.58
	c-2.38,0-4.07-1.41-4.07-4.46C69.24,6.95,70.8,5.44,72.92,5.44z M27.95,0.32C19.28,1.56,12.88,4.38,8.14,8.44
	c-2.4,2.05-4.36,4.4-6,6.99C0.98,12.44,0.29,9.2,0.02,5.87c0-0.61,0-1.11,0-1.46V3.94c0-3.46,2.65-3.62,2.91-3.63L27.95,0.32z
	 M0,11.8c0.39,1.59,0.89,3.15,1.51,4.64C0.97,17.38,0.48,18.33,0,19.33C0,17.15,0,14.39,0,11.8z M145.37,19.44
	c0.58,0,1.06,0.43,1.06,0.94c0,0.52-0.48,0.94-1.06,0.94s-1.06-0.42-1.06-0.94C144.32,19.88,144.79,19.44,145.37,19.44z
	 M64.39,19.44c0.58,0,1.06,0.43,1.06,0.94c0,0.52-0.48,0.94-1.06,0.94c-0.58,0-1.06-0.42-1.06-0.94
	C63.34,19.88,63.81,19.44,64.39,19.44z M129.28,19.44c0.58,0,1.06,0.43,1.06,0.94c0,0.52-0.48,0.94-1.06,0.94s-1.05-0.42-1.05-0.94
	C128.23,19.88,128.7,19.44,129.28,19.44z M70.74,23.74c-1.56,0-2.02,1.63-2.02,3.28s0.49,3.22,2.02,3.22c1.56,0,2.02-1.57,2.02-3.22
	C72.76,25.38,72.3,23.74,70.74,23.74z M89.79,26.58c-2.1,0.22-3.5,0.61-3.5,2.25c0,1.15,0.81,1.63,2.08,1.63
	c0.59,0,1.1-0.13,1.42-0.28V26.58z M54.45,26.58c-2.1,0.22-3.5,0.61-3.5,2.25c0,1.15,0.81,1.63,2.08,1.63c0.59,0,1.1-0.13,1.42-0.28
	C54.45,30.18,54.45,26.58,54.45,26.58z M119.34,26.58c-2.1,0.22-3.5,0.61-3.5,2.25c0,1.15,0.81,1.63,2.08,1.63
	c0.59,0,1.1-0.13,1.42-0.28V26.58z M146.28,22.79v8.47h-1.82v-8.47C144.46,22.79,146.28,22.79,146.28,22.79z M79.45,22.58
	c2.21,0,3.69,0.75,3.69,2.61v6.08h-1.82v-6.05c0-1.08-0.93-1.49-1.97-1.49c-0.56,0-1.11,0.11-1.46,0.25v7.29h-1.81v-8.08
	C76.88,22.85,78.12,22.58,79.45,22.58z M65.3,22.79v8.47h-1.82v-8.47C63.48,22.79,65.3,22.79,65.3,22.79z M95.17,18.92v12.34h-1.81
	V18.92H95.17z M130.19,22.79v8.47h-1.82v-8.47C128.37,22.79,130.19,22.79,130.19,22.79z M40.96,20.45l4.55,6.96
	c0.4,0.61,0.63,1.12,0.63,1.12h0.03c0,0-0.06-0.61-0.06-1.26v-6.82h1.59v10.81h-1.55l-4.8-7.4c-0.36-0.55-0.62-1.1-0.62-1.1H40.7
	c0,0,0.04,0.63,0.04,1.29v7.21h-1.58V20.45H40.96z M125.31,20.38v2.4h1.65v1.1h-1.65v5.17c0,0.66,0.39,1.18,1.16,1.18
	c0.17,0,0.32-0.03,0.49-0.08v1.11c-0.17,0.08-0.53,0.17-1,0.17c-1.78,0-2.46-1.15-2.46-2.29v-5.26h-1.18v-1.1h1.18v-1.9
	L125.31,20.38z M141.4,20.38v2.4h1.65v1.1h-1.65v5.17c0,0.66,0.39,1.18,1.16,1.18c0.17,0,0.32-0.03,0.49-0.08v1.11
	c-0.17,0.08-0.53,0.17-1,0.17c-1.78,0-2.46-1.15-2.46-2.29v-5.26h-1.18v-1.1h1.18v-1.9L141.4,20.38z M60.42,20.38v2.4h1.65v1.1
	h-1.65v5.17c0,0.66,0.39,1.18,1.16,1.18c0.17,0,0.32-0.03,0.49-0.08v1.11c-0.17,0.08-0.53,0.17-1,0.17c-1.78,0-2.46-1.15-2.46-2.29
	v-5.26h-1.19v-1.1h1.19v-1.9L60.42,20.38z M111.49,20.38v2.4h1.65v1.1h-1.65v5.17c0,0.66,0.39,1.18,1.15,1.18
	c0.18,0,0.32-0.03,0.49-0.08v1.11c-0.17,0.08-0.54,0.17-1,0.17c-1.78,0-2.46-1.15-2.46-2.29v-5.26h-1.18v-1.1h1.18v-1.9
	L111.49,20.38z M117.72,22.58c1.88,0,3.32,0.77,3.32,2.94v5.36c-0.72,0.36-1.87,0.61-3.27,0.61c-2.49,0-3.66-0.99-3.66-2.61
	c0-2.28,2.39-2.89,5.22-3.14v-0.49c0-1.16-0.79-1.51-1.95-1.51c-0.82,0-1.76,0.24-2.3,0.49l-0.42-1.04
	C115.26,22.94,116.37,22.58,117.72,22.58z M88.17,22.58c1.88,0,3.32,0.77,3.32,2.94v5.36c-0.72,0.36-1.86,0.61-3.26,0.61
	c-2.49,0-3.66-0.99-3.66-2.61c0-2.28,2.38-2.89,5.22-3.14v-0.49c0-1.16-0.79-1.51-1.95-1.51c-0.82,0-1.76,0.24-2.3,0.49l-0.42-1.04
	C85.71,22.94,86.83,22.58,88.17,22.58z M70.74,22.58c2.59,0,3.86,1.93,3.86,4.46s-1.27,4.45-3.86,4.45c-2.59,0-3.87-1.92-3.87-4.45
	C66.87,24.51,68.15,22.58,70.74,22.58z M151.53,22.58c1.06,0,1.76,0.3,2.17,0.61l-0.4,1.02c-0.26-0.19-0.72-0.41-1.33-0.41
	c-1.47,0-2.24,1.27-2.24,3.17c0,1.94,0.88,3.21,2.21,3.21c0.58,0,1.01-0.21,1.33-0.42l0.45,1.12c-0.37,0.31-1.11,0.61-2.19,0.61
	c-2.08,0-3.67-1.7-3.67-4.46C147.84,24.22,149.48,22.58,151.53,22.58z M104.65,20.24c1.17,0,2.1,0.31,2.6,0.61l-0.46,1.18
	c-0.39-0.24-1.14-0.5-1.89-0.5c-1.17,0-1.94,0.71-1.94,1.71c0,2.33,4.59,1.32,4.59,4.9c0,1.92-1.57,3.35-3.79,3.35
	c-1.3,0-2.36-0.28-2.95-0.61l0.51-1.32c0.43,0.25,1.24,0.52,2.08,0.52c1.26,0,2.15-0.74,2.15-1.81c0-2.37-4.5-1.46-4.5-4.83
	C101.06,21.72,102.45,20.24,104.65,20.24z M134.82,22.58c1.04,0,1.81,0.27,2.38,0.61l-0.48,1.05c-0.27-0.19-0.84-0.49-1.55-0.49
	c-0.94,0-1.52,0.57-1.52,1.21c0,1.89,3.79,1.05,3.79,3.88c0,1.35-1.29,2.64-3.31,2.64c-1.05,0-2.05-0.3-2.56-0.61l0.48-1.16
	c0.36,0.25,1.08,0.5,1.85,0.5c0.92,0,1.66-0.6,1.66-1.32c0-2.01-3.71-1.07-3.71-3.83C131.85,23.79,132.98,22.58,134.82,22.58z
	 M157.76,22.58c1.04,0,1.81,0.27,2.38,0.61l-0.48,1.05c-0.27-0.19-0.84-0.49-1.55-0.49c-0.94,0-1.52,0.57-1.52,1.21
	c0,1.89,3.79,1.05,3.79,3.88c0,1.35-1.29,2.64-3.31,2.64c-1.06,0-2.05-0.3-2.56-0.61l0.48-1.16c0.36,0.25,1.08,0.5,1.85,0.5
	c0.92,0,1.66-0.6,1.66-1.32c0-2.01-3.71-1.07-3.71-3.83C154.8,23.79,155.92,22.58,157.76,22.58z M52.83,22.58
	c1.88,0,3.32,0.77,3.32,2.94v5.36c-0.72,0.36-1.86,0.61-3.27,0.61c-2.49,0-3.66-0.99-3.66-2.61c0-2.28,2.38-2.89,5.22-3.14v-0.49
	c0-1.16-0.79-1.51-1.95-1.51c-0.82,0-1.76,0.24-2.3,0.49l-0.42-1.04C50.37,22.94,51.49,22.58,52.83,22.58z M2.77,19.04
	c0.84,1.53,1.81,2.97,2.95,4.31c3.3,3.87,7.93,6.82,14.12,8.3L0.01,31.62v-6.11C0.8,23.22,1.7,21.06,2.77,19.04z M31.38,2.27v25.38
	c0,3.78-3.1,4-3.64,4.01h-0.08h-1.18C14.37,30.88,7.12,25.44,3.31,18.06c1.69-2.97,3.76-5.6,6.36-7.83
	c4.85-4.15,11.63-6.98,21.55-7.93C31.28,2.3,31.33,2.28,31.38,2.27z"/>
</svg>
