<svg xmlns="http://www.w3.org/2000/svg" width="125" height="40" viewBox="0 0 125 40">
<path fill="#25222C" d="M69.38,21.31h11.88v15.61c0,1.72-1.33,3.08-3.06,3.08H57.62c-1.72,0-3.12-1.36-3.12-3.08V21.31h11.88v14.11
	c0,0.85,0.65,1.54,1.5,1.54c0.85,0,1.5-0.69,1.5-1.54V21.31z M25.25,40H37v-6.98h15v-3.61H37v-4.61h15v-3.37H25.25V40z M113.12,40
	H125V21.31h-11.88V40z M98.75,34.88l0.01,0.4c0,0.86-0.68,1.55-1.54,1.55c-0.86,0-1.57-0.69-1.57-1.55l-0.02-0.49v-4.76H83.75v6.61
	c0,0-0.26,3.36,4.01,3.36h19.14c0,0,3.72,0.01,3.72-4.05V21.31H98.75V34.88z M109.38,11.62v4.11h4.25v-0.75h-3.25v-3.37H109.38z
	 M102.88,9.75h-2V0.53h1.5l6.5,5.43c0.22,0.18,0.42,0.36,0.59,0.52c0.17,0.16,0.33,0.32,0.47,0.49c-0.03-0.52-0.05-0.88-0.06-1.1
	c-0.01-0.21,0.01-0.38,0.01-0.5V0.53h1.88v9.22h-1.46l-6.77-5.68c-0.16-0.15-0.3-0.28-0.43-0.39c-0.12-0.12-0.23-0.23-0.33-0.36
	c0.03,0.28,0.06,0.55,0.07,0.8c0.01,0.25,0.04,0.47,0.04,0.66V9.75z M35.12,12.85v-0.48H32v2.62h3.12v-0.87H33.5v-0.75h2.62v1.42
	c0,0.37-0.1,0.62-0.25,0.76c-0.15,0.14-0.46,0.2-0.87,0.2h-2.96c-0.42,0-0.69-0.06-0.83-0.2C31.06,15.4,31,15.15,31,14.78v-2.15
	c0-0.37,0.06-0.65,0.21-0.78c0.15-0.13,0.42-0.23,0.83-0.23H35c0.41,0,0.72,0.09,0.87,0.22c0.15,0.13,0.25,0.39,0.25,0.74v0.11
	L35.12,12.85z M38,15.73h1v-4.11h-1V15.73z M28.25,2.15h4.78c0.37,0,0.63,0.05,0.76,0.16C33.93,2.41,34,2.6,34,2.86v1.11
	c0,0.27-0.07,0.49-0.21,0.6c-0.14,0.11-0.39,0.19-0.76,0.19h-4.78V2.15z M28.25,6.26h1.98l3.72,3.49h3.08l-4.25-3.49h1.2
	c0.73,0,1.23-0.13,1.56-0.42C35.87,5.56,36,5.11,36,4.49V2.33c0-0.62-0.13-1.09-0.46-1.37c-0.33-0.28-0.83-0.43-1.56-0.43h-7.85
	v9.22h2.12V6.26z M115.38,12.37h-2v-0.75h4.88v0.75h-1.88v3.37h-1V12.37z M95.25,15.73v-2.79l-1.8,2.3h-0.19L91.38,13v2.73h-0.75
	v-4.11h0.78l2,2.42l1.99-2.42h0.85v4.11H95.25z M89,15.73h-4.5v-4.11h4.38v0.75H85.5v0.87h2v0.75h-2v1H89V15.73z M72.12,8h7V2.15h-7
	V8z M79,0.53c0.9,0,1.48,0.17,1.8,0.47c0.31,0.31,0.45,0.89,0.45,1.73v4.84c0,0.84-0.14,1.42-0.45,1.72C80.48,9.6,79.9,9.75,79,9.75
	h-6.78c-0.9,0-1.53-0.15-1.85-0.46c-0.31-0.3-0.5-0.88-0.5-1.72V2.73c0-0.84,0.19-1.42,0.5-1.73c0.32-0.31,0.95-0.47,1.85-0.47H79z
	 M66.78,11.62l1.46,1.52l1.48-1.52h1.17l-2.26,2.27v1.84h-1v-1.82l-2.19-2.29H66.78z M72.88,14.5v0.48h3v-1h-2.69
	c-0.42,0-0.69-0.04-0.84-0.17c-0.15-0.14-0.22-0.36-0.22-0.73v-0.46c0-0.37,0.07-0.64,0.22-0.78c0.15-0.14,0.43-0.23,0.84-0.23h2.43
	c0.41,0,0.73,0.09,0.88,0.22c0.15,0.13,0.26,0.38,0.26,0.71v0.1l-0.88,0.18v-0.47H73v0.87h2.67c0.42,0,0.71,0.07,0.85,0.21
	c0.15,0.13,0.22,0.4,0.22,0.77v0.56c0,0.37-0.08,0.62-0.23,0.76c-0.15,0.14-0.43,0.2-0.85,0.2h-2.66c-0.42,0-0.74-0.06-0.89-0.2
	c-0.15-0.13-0.25-0.38-0.25-0.76v-0.11L72.88,14.5z M98.34,15.53c-0.15-0.13-0.22-0.38-0.22-0.76v-0.11L99,14.5v0.48h3v-1h-2.64
	c-0.42,0-0.72-0.04-0.87-0.17c-0.15-0.14-0.24-0.36-0.24-0.73v-0.46c0-0.37,0.09-0.64,0.24-0.78c0.15-0.14,0.45-0.23,0.87-0.23h2.43
	c0.41,0,0.7,0.09,0.85,0.22c0.15,0.13,0.24,0.38,0.24,0.71v0.1L102,12.83v-0.47h-2.88v0.87h2.72c0.42,0,0.68,0.07,0.83,0.21
	c0.15,0.13,0.2,0.4,0.2,0.77v0.56c0,0.37-0.06,0.62-0.21,0.76c-0.15,0.14-0.41,0.2-0.82,0.2h-2.66
	C98.77,15.73,98.49,15.67,98.34,15.53z M38.92,9.75h1.79l2.03-2.89l2.2-3.13C45,3.64,45.1,3.59,45.21,3.59
	c0.11,0,0.2,0.05,0.26,0.13l2.2,3.13l2.03,2.89h1.79h0.34h0.21l-2.9-5.05l-2.59-4.51C46.49,0.07,46.37,0,46.22,0
	c-0.15,0-0.29,0.07-0.39,0.19l-0.2,0.25l-0.07-0.1c-0.08-0.12-0.21-0.19-0.36-0.19c-0.15,0-0.27,0.07-0.36,0.19l-0.07,0.1l-0.2-0.25
	C44.49,0.07,44.35,0,44.2,0c-0.15,0-0.28,0.07-0.35,0.19L41.27,4.7l-2.9,5.05h0.21H38.92z M45.81,0.68
	c0.09-0.12,0.22-0.28,0.36-0.28c0.14,0,0.25,0.16,0.32,0.28l2.36,4.28l1.01,1.82l-1.33-2L45.8,0.69L45.81,0.68z M41.57,4.96
	l2.36-4.28C44,0.56,44.11,0.4,44.25,0.4c0.14,0,0.27,0.16,0.36,0.28l0.01,0.01l-2.72,4.08l-1.33,2L41.57,4.96z M45.12,11.62H46v4.11
	h-0.67l-3.45-2.74v2.74H41v-4.11h0.64l3.48,2.75V11.62z M86.26,9.29c-0.32-0.3-0.51-0.88-0.51-1.72V0.53H88V8h6.12V0.53h2.12v7.05
	c0,0.84-0.18,1.42-0.49,1.72c-0.32,0.31-0.94,0.46-1.84,0.46H88.1C87.21,9.75,86.57,9.6,86.26,9.29z M52.79,11.84
	c0.15,0.13,0.21,0.39,0.21,0.74v0.11l-1,0.16v-0.48h-3.12v2.62H52v-0.87h-1.62v-0.75H53v1.42c0,0.37-0.06,0.62-0.21,0.76
	c-0.15,0.14-0.42,0.2-0.83,0.2H49c-0.42,0-0.73-0.06-0.87-0.2c-0.15-0.13-0.25-0.38-0.25-0.76v-2.15c0-0.37,0.1-0.65,0.25-0.78
	c0.15-0.13,0.46-0.23,0.87-0.23h2.96C52.37,11.62,52.64,11.71,52.79,11.84z M60.25,14.5v0.48h3v-1h-2.59
	c-0.42,0-0.68-0.04-0.83-0.17c-0.15-0.14-0.2-0.36-0.2-0.73v-0.46c0-0.37,0.05-0.64,0.2-0.78c0.15-0.14,0.41-0.23,0.83-0.23h2.43
	c0.41,0,0.68,0.09,0.83,0.22c0.15,0.13,0.21,0.38,0.21,0.71v0.1l-0.88,0.18v-0.47H60.5v0.87h2.65c0.42,0,0.72,0.07,0.86,0.21
	c0.15,0.13,0.24,0.4,0.24,0.77v0.56c0,0.37-0.09,0.62-0.24,0.76c-0.15,0.14-0.45,0.2-0.86,0.2h-2.66c-0.42,0-0.73-0.06-0.88-0.2
	c-0.15-0.13-0.24-0.38-0.24-0.76v-0.11L60.25,14.5z M78.12,11.62h5v0.75h-2v3.37h-1v-3.37h-2V11.62z M55.25,9.75h-1.62V0.53h1.68
	l4.34,5.56l4.25-5.56h1.73v9.22h-2V4.07c0-0.11,0.01-0.25,0.02-0.42c0.01-0.17,0.04-0.36,0.06-0.56c-0.12,0.24-0.22,0.43-0.3,0.58
	c-0.09,0.15-0.17,0.28-0.24,0.38L59.7,8.63h-0.43l-3.48-4.6c-0.13-0.18-0.24-0.33-0.33-0.49c-0.09-0.15-0.17-0.3-0.23-0.45
	c0.02,0.19,0.02,0.37,0.03,0.52c0.01,0.16-0.01,0.31-0.01,0.45V9.75z M125,0.53v1.62h-4.25v7.6h-2.12v-7.6h-4.25V0.53H125z
	 M124.99,13.69c0-0.65-0.21-1.17-0.64-1.52c-0.42-0.35-1.03-0.55-1.82-0.55h-2.79v4.11h2.54c0.91,0,1.59-0.16,2.03-0.51
	C124.77,14.88,124.99,14.37,124.99,13.69z M123.55,14.68c-0.28,0.2-0.77,0.31-1.47,0.31h-1.32v-2.62h1.8c0.48,0,0.84,0.12,1.07,0.32
	c0.23,0.21,0.35,0.53,0.35,0.95C123.97,14.12,123.83,14.47,123.55,14.68z M28.23,14.86l0.52,0.87h1.12l-2.47-4.11h-0.96l-2.43,4.11
	h1l0.52-0.87H28.23z M26.88,12.41l0.95,1.7h-1.88L26.88,12.41z M11.12,9.75L11.12,9.75h1.79l2.03-2.89l2.2-3.13
	c0.06-0.09,0.15-0.13,0.26-0.13c0.11,0,0.2,0.05,0.26,0.13l2.2,3.13l2.03,2.89h1.79h0.34h0.21v0l-2.9-5.05l-2.59-4.51
	C18.7,0.07,18.57,0,18.42,0c-0.15,0-0.29,0.07-0.39,0.19l-0.2,0.25l-0.07-0.1c-0.08-0.12-0.21-0.19-0.36-0.19
	c-0.15,0-0.27,0.07-0.36,0.19l-0.07,0.1l-0.2-0.25C16.69,0.07,16.56,0,16.4,0c-0.15,0-0.28,0.07-0.35,0.19L13.47,4.7l-2.9,5.05h0.21
	H11.12z M18.01,0.68c0.09-0.12,0.22-0.28,0.36-0.28c0.14,0,0.25,0.16,0.32,0.28l2.36,4.28l1.01,1.82l-1.33-2L18,0.69L18.01,0.68z
	 M13.77,4.96l2.36-4.28c0.07-0.12,0.18-0.28,0.32-0.28s0.27,0.16,0.36,0.28l0.01,0.01L14.1,4.78l-1.33,2L13.77,4.96z M20.63,13.52
	l3.15,2.21H22.2l-2.57-1.83v1.83h-1v-4.11h1v1.69l2.39-1.69h1.44L20.63,13.52z M2.12,6.13h5.76c0.73,0,1.28-0.13,1.61-0.41
	C9.82,5.44,10,5.01,10,4.39V2.33c0-0.62-0.18-1.09-0.51-1.37C9.16,0.68,8.62,0.53,7.89,0.53H0v9.22h2.12V6.13z M2.12,2.15h4.81
	c0.37,0,0.61,0.05,0.75,0.16C7.82,2.41,7.88,2.6,7.88,2.86v0.99c0,0.27-0.05,0.49-0.19,0.6C7.55,4.56,7.31,4.64,6.94,4.64H2.12V2.15
	z M7.57,11.62l-2.43,4.11h1l0.52-0.87h2.71l0.52,0.87H11l-2.47-4.11H7.57z M7.08,14.11L8,12.41l0.95,1.7H7.08z M15.75,13.17v-0.8
	h-2.62v2.62h2.62V14.1l1,0.2v0.48c0,0.37-0.05,0.62-0.2,0.75c-0.15,0.14-0.41,0.2-0.83,0.2h-2.56c-0.41,0-0.68-0.06-0.83-0.2
	c-0.15-0.13-0.21-0.38-0.21-0.76v-2.15c0-0.37,0.06-0.65,0.21-0.78c0.15-0.13,0.42-0.23,0.83-0.23h2.56c0.42,0,0.68,0.09,0.83,0.23
	c0.15,0.14,0.2,0.41,0.2,0.78v0.4L15.75,13.17z M3.75,13.12c0,0.12-0.03,0.22-0.1,0.27c-0.06,0.05-0.19,0.09-0.36,0.09H1v-1.12h2.29
	c0.17,0,0.29,0.03,0.36,0.08c0.06,0.05,0.1,0.14,0.1,0.25V13.12z M3.72,11.62H0v4.11h1v-1.62h2.72c0.34,0,0.56-0.04,0.71-0.17
	c0.15-0.12,0.2-0.31,0.2-0.59v-0.9c0-0.28-0.05-0.51-0.2-0.63C4.28,11.7,4.06,11.62,3.72,11.62z M8.89,26.38l-3.8,5.64
	c0,0,3.19-5.52,3.28-5.65C8.46,26.24,8.74,26.07,8.89,26.38z M10.56,26.38c-0.09-0.14-0.37-0.3-0.52,0l3.8,5.65
	C13.84,32.03,10.64,26.51,10.56,26.38z M2.7,30.79c0-3.69,3-6.68,6.7-6.68c3.71,0,6.71,2.99,6.71,6.68c0,3.69-3,6.68-6.71,6.68
	C5.7,37.47,2.7,34.48,2.7,30.79z M3.66,34.14h11.53l-4.44-7.95c-0.49-0.48-0.88-0.01-0.88-0.01s-0.12-0.23-0.42-0.23
	c-0.24,0-0.41,0.24-0.41,0.24c-0.5-0.56-0.92,0.08-0.92,0.08L3.66,34.14z M9.38,22.13c-0.31,0-0.63,0.02-0.88,0.05v1.45
	c-0.62,0.08-1.24,0.24-1.82,0.47l-0.77-1.24c-0.6,0.26-1.16,0.59-1.67,0.97l0.78,1.22c-0.51,0.39-0.97,0.84-1.36,1.35l-1.25-0.74
	c-0.38,0.51-0.7,1.07-0.96,1.66l1.23,0.7l0.05,0c-0.24,0.57-0.41,1.18-0.49,1.82l-1.46-0.01c-0.04,0.32-0.05,0.66-0.05,0.99
	c0,0.32,0.02,0.59,0.05,0.97h1.46c0.08,0.62,0.24,1.2,0.47,1.76l-1.26,0.69c0.26,0.6,0.59,1.17,0.98,1.69l1.25-0.72
	c0.38,0.49,0.82,0.93,1.31,1.31l-0.71,1.21c0.53,0.39,1.1,0.72,1.7,0.99l0.69-1.22c0.58,0.24,1.21,0.4,1.84,0.48v1.38
	c0.25,0.03,0.57,0.05,0.89,0.05c0.35,0,0.74-0.02,0.99-0.06v-1.38c0.62-0.09,1.26-0.26,1.83-0.5l0.7,1.19
	c0.6-0.26,1.15-0.56,1.67-0.94l-0.72-1.21c0.51-0.39,0.96-0.85,1.34-1.36l1.23,0.72c0.38-0.51,0.69-1.01,0.94-1.59l-1.26-0.73
	c0.24-0.58,0.4-1.19,0.48-1.83l1.46,0c0.03-0.29,0.05-0.59,0.05-0.89c0-0.34-0.02-0.63-0.06-1.01h-1.46
	c-0.09-0.62-0.25-1.22-0.49-1.78l1.27-0.72c-0.26-0.61-0.58-1.12-0.97-1.64l-1.26,0.74c-0.38-0.48-0.81-0.91-1.29-1.29l0.73-1.26
	c-0.52-0.39-1.09-0.71-1.65-0.96l-0.7,1.3c-0.6-0.25-1.25-0.48-1.92-0.48h0.08v-1.49C10.12,22.14,9.71,22.13,9.38,22.13z
	 M18.75,21.31V40H0V21.31H18.75z"/>
</svg>
