<svg width="95" height="40" viewBox="0 0 95 40" xmlns="http://www.w3.org/2000/svg">
  <path d="m39.46 9.85h1.01c.58 0 1.22.06 1.67.49.29.27.48.72.48 1.26 0 .56-.21 1.01-.48 1.28-.49.47-1.2.48-1.61.48h-1.07zm7.11 10.64h2.29v-3.51c0-.74.05-1.67.56-2.33.55-.71 1.57-1.05 2.34-.76l-.03-2.12c-.25-.1-.46-.14-.75-.14-.45 0-.84.08-1.23.37-.37.27-.68.72-.89 1.2v-1.36h-2.29zm14.36-4.13c0-1.07-.18-2.42-1.16-3.51-1.01-1.12-2.34-1.3-3.26-1.3s-2.15.19-3.15 1.24c-.83.89-1.25 2.17-1.25 3.41 0 1.43.52 2.58 1.23 3.33.96 1.01 2.04 1.24 3.28 1.24.92 0 1.8-.14 2.59-.64.34-.22.8-.6 1.17-1.23l-1.37-1.49c-.75 1-1.28 1.25-2.36 1.25-.4 0-.96-.08-1.36-.54-.33-.39-.5-1.01-.5-1.47h6.13v-.29zm-6.04-1.38c.07-.39.26-.7.46-.93.26-.27.66-.56 1.34-.56.53 0 .96.19 1.25.49.39.39.51.93.53 1.01h-3.58zm7.12 5.51h2.53v-4.42c0-.29.02-1.26.49-1.76.25-.25.55-.35.88-.35.26 0 .58.06.84.35.39.43.4 1.1.4 1.69v4.5h2.53v-4.3c0-.56.05-1.24.39-1.71.21-.31.56-.52.98-.52.37 0 .7.17.91.47.33.47.33 1.24.33 1.69v4.38h2.53v-5.47c0-.62-.05-1.78-.81-2.58-.47-.5-1.25-.81-2.2-.81-.62 0-1.12.12-1.67.48-.51.35-.81.76-1 1.1-.21-.52-.54-.95-.95-1.2-.53-.35-1.14-.39-1.48-.39-.6 0-1.55.14-2.2 1.22v-1.01h-2.53v8.64zm14.17 0h2.27v-8.64h-2.27zm-70.15-16.94c1.08 1.43 1.88 2.91 2.13 4.48 3.72-2.31 8.33-2.83 13.78-1.57-.04-1.54.34-3.12 1.07-4.74l-2.73 2.81-.15-4.53-3.38 4.07-2.45-3.89-.99 2.96-.23 1.6-4.52-3.04.65 3.78zm19.91 16.13 1.48-1.16c1.04 1.67.88 3.54.18 5.48l-1.73-2.18zm-5.46 6.35c1.44-.32 2.58-.88 3.59-1.85l1.77-.1c1.9.79.34 4.97-1.5 5.23.28-.8.32-1.65.12-2.55-.81.89-1.78 1.41-2.94 1.47zm2.3-7.55c.51.55 1.13.9 1.79 1.16l-.03 2.01c-1.22 1.33-2.6 2.33-4.19 2.83-.37.12-.8.03-.99-.31l-1.72-3.04c-.12-.21.09-.51.34-.64l3.69-2.01c.36-.19.85-.29 1.11 0zm-11.34-7.95c-3.19-2.03-3.99-.16-3.22 4.27-1.27-.59-1.82-2.14-1.64-4.66-2.25 1.77-3.97 3.78-4.97 6.1l1.87.26c-1.97 2.45-3.31 5.18-3.48 8.39 1.01.1 2.02-.39 2.89-1.11-.79 3.86-.46 7.64 1.04 11.02 2.09-1.66 3.74-3.61 4.99-5.82.97 3.06 1.06 6.2-.26 9.47 4.53 2.27 9.06 2.14 13.59-1.02.35.7.5 1.48.55 2.32 3.43-2.25 5.63-5.45 6.09-9.96.65-.04 1.03.49 1.3 1.24 2-5.69.97-10.84-2.37-15.57-.01.37-.09.68-.26.93-.52-.36-.87-.82-1.12-1.34.92-.08-.23-2.88-1.17-.84l-1.72-1.04c.83 1.29 1.96 2.44 3.3 3.63-1.67-.28-3.15-.2-4.47.21-.56-1-1.34-1.81-2.29-2.47.06-.61.32-1.16.65-1.7-.55.46-1.12.85-1.78.86-2.03-1.44-3.46-1.19-5.01.01.86 1.06 2.42 1.22 4.67 1.08 1.04.63 1.87 1.42 2.46 2.39l-.18.21-.83-.26-4.84-.03c-1.11-.28-1.98-.84-2.29-2.08l-.4.06.21-.9-1.64-.15 2.9-2-.99-.31c.46-1.01 4.03-2.83 5.25-2.33.9.37 2.45 1.16 3.51 2.1.31-.57.48-1.24.52-2.01 1.54.9 3.01 2.13 4.45 3.45-.5-1.07-.94-2.16-.92-3.4-1.61-1.13-3.29-1.96-5.07-2.39.32.58.28 1.18.18 1.72-.54-.95-1.67-1.7-2.66-2.1-3.56-.08-6.19.57-8.99 1.79 1.15.23 1.83.92 2.15 1.98zm65.87-2.84c.7 0 1.27.57 1.27 1.26 0 .7-.57 1.26-1.27 1.26s-1.27-.57-1.27-1.26c0-.7.57-1.26 1.27-1.26zm12.04 12.8h2.29v-3.51c0-.74.05-1.67.56-2.33.55-.71 1.57-1.05 2.34-.76l-.03-2.12c-.25-.1-.46-.14-.75-.14-.45 0-.84.08-1.23.37-.37.27-.68.72-.89 1.2v-1.36h-2.29zm-.91-4.13c0-1.07-.18-2.42-1.16-3.51-1.01-1.12-2.34-1.3-3.26-1.3s-2.15.19-3.15 1.24c-.83.89-1.25 2.17-1.25 3.41 0 1.43.51 2.58 1.23 3.33.96 1.01 2.04 1.24 3.28 1.24.92 0 1.8-.14 2.59-.64.34-.22.8-.6 1.17-1.23l-1.37-1.49c-.75 1-1.28 1.25-2.36 1.25-.41 0-.96-.08-1.36-.54-.33-.39-.5-1.01-.5-1.47h6.13v-.29zm-6.04-1.38c.07-.39.26-.7.46-.93.26-.27.66-.56 1.34-.56.53 0 .96.19 1.25.49.39.39.51.93.53 1.01h-3.58zm-45.92 6.77v13.06h8.36v-2.55h-5.32v-10.51zm23.53 6.46c.49 0 1.1.2 1.52.61.4.39.63.98.63 1.61 0 .74-.31 1.29-.67 1.64-.37.37-.87.61-1.43.61-.65 0-1.24-.27-1.62-.69-.25-.27-.57-.78-.57-1.57 0-.78.34-1.29.63-1.59.37-.36.92-.62 1.51-.62zm2.31-1.15c-.78-1.1-1.94-1.27-2.66-1.27-1.18 0-2.21.43-2.95 1.19-.78.8-1.31 2.06-1.31 3.52 0 1.16.34 2.29 1.24 3.27.93 1.02 1.96 1.33 3.18 1.33.7 0 1.77-.18 2.51-1.35v1.06h2.51v-8.73h-2.51v.98zm8.19 1.09c.51 0 1.13.17 1.54.55.38.35.67.92.67 1.61 0 .65-.26 1.26-.69 1.66-.29.28-.79.57-1.54.57-.67 0-1.21-.22-1.6-.63-.4-.41-.61-1-.61-1.57 0-.53.24-1.22.67-1.63.35-.33.92-.56 1.56-.56zm2.3-1.05c-.32-.47-1.03-1.31-2.63-1.31-1.64 0-2.67.7-3.21 1.25-.75.76-1.31 2-1.31 3.49 0 1.51.57 2.57 1.29 3.29.81.8 1.86 1.23 3.23 1.23 1.62 0 2.29-.76 2.63-1.31v1c0 2.47-4.19 2.63-5.37.72l-1.44 2c3.26 2.77 9.16 1.93 9.16-3.18v-8.2h-2.35zm3.61-1.02v5.27c0 .96.14 1.84.88 2.62.92.98 2.25 1.14 3.24 1.14.95 0 2.31-.16 3.23-1.14.81-.86.9-1.8.9-2.8v-5.09h-2.59v4.82c0 .43-.05 1.02-.43 1.41-.23.23-.61.41-1.1.41-.58 0-.9-.24-1.08-.41-.41-.41-.45-1.02-.45-1.41v-4.82zm-22.04 4.31c0-1.07-.18-2.42-1.16-3.51-1.01-1.12-2.34-1.3-3.26-1.3s-2.15.19-3.15 1.24c-.83.89-1.25 2.17-1.25 3.41 0 1.43.51 2.58 1.23 3.33.96 1.01 2.04 1.24 3.28 1.24.92 0 1.8-.14 2.59-.64.34-.22.8-.6 1.17-1.23l-1.37-1.49c-.75 1-1.28 1.25-2.36 1.25-.4 0-.96-.08-1.36-.54-.33-.39-.5-1.01-.5-1.47h6.13v-.29zm-6.04-1.37c.07-.39.26-.7.46-.93.26-.27.66-.56 1.34-.56.53 0 .96.19 1.25.48.39.39.51.93.53 1.01zm46.21 1.37c0-1.07-.18-2.42-1.16-3.51-1.01-1.12-2.34-1.3-3.26-1.3s-2.15.19-3.15 1.24c-.83.89-1.25 2.17-1.25 3.41 0 1.43.51 2.58 1.23 3.33.96 1.01 2.04 1.24 3.28 1.24.92 0 1.8-.14 2.59-.64.34-.22.8-.6 1.17-1.23l-1.37-1.49c-.75 1-1.28 1.25-2.36 1.25-.4 0-.96-.08-1.36-.54-.33-.39-.5-1.01-.5-1.47h6.13v-.29zm-6.04-1.37c.07-.39.26-.7.46-.93.26-.27.66-.56 1.34-.56.53 0 .96.19 1.25.48.39.39.51.93.53 1.01zm-52.04-21.62v12.93h2.99v-4.53h1.82c.91 0 2.27-.1 3.3-1.14.49-.5 1.11-1.42 1.11-3.04 0-.89-.16-2.17-1.26-3.14-1.03-.92-2.27-1.08-3.4-1.08z" fill="currentColor"></path>
</svg>