<svg xmlns="http://www.w3.org/2000/svg" width="95" height="40" viewBox="0 0 95 40">
<path fill="#25222C" d="M39.46,9.85h1.01c0.58,0,1.22,0.06,1.67,0.49c0.29,0.27,0.48,0.72,0.48,1.26c0,0.56-0.21,1.01-0.48,1.28
	c-0.49,0.47-1.2,0.48-1.61,0.48h-1.07V9.85z M46.57,20.49h2.29v-3.51c0-0.74,0.05-1.67,0.56-2.33c0.55-0.71,1.57-1.05,2.34-0.76
	l-0.03-2.12c-0.25-0.1-0.46-0.14-0.75-0.14c-0.45,0-0.84,0.08-1.23,0.37c-0.37,0.27-0.68,0.72-0.89,1.2v-1.36h-2.29V20.49z
	 M60.93,16.36c0-1.07-0.18-2.42-1.16-3.51c-1.01-1.12-2.34-1.3-3.26-1.3s-2.15,0.19-3.15,1.24c-0.83,0.89-1.25,2.17-1.25,3.41
	c0,1.43,0.52,2.58,1.23,3.33c0.96,1.01,2.04,1.24,3.28,1.24c0.92,0,1.8-0.14,2.59-0.64c0.34-0.22,0.8-0.6,1.17-1.23l-1.37-1.49
	c-0.75,1-1.28,1.25-2.36,1.25c-0.4,0-0.96-0.08-1.36-0.54c-0.33-0.39-0.5-1.01-0.5-1.47h6.13V16.36z M54.89,14.98
	c0.07-0.39,0.26-0.7,0.46-0.93c0.26-0.27,0.66-0.56,1.34-0.56c0.53,0,0.96,0.19,1.25,0.49c0.39,0.39,0.51,0.93,0.53,1.01H54.89z
	 M62.01,20.49h2.53v-4.42c0-0.29,0.02-1.26,0.49-1.76c0.25-0.25,0.55-0.35,0.88-0.35c0.26,0,0.58,0.06,0.84,0.35
	c0.39,0.43,0.4,1.1,0.4,1.69v4.5h2.53v-4.3c0-0.56,0.05-1.24,0.39-1.71c0.21-0.31,0.56-0.52,0.98-0.52c0.37,0,0.7,0.17,0.91,0.47
	c0.33,0.47,0.33,1.24,0.33,1.69v4.38h2.53v-5.47c0-0.62-0.05-1.78-0.81-2.58c-0.47-0.5-1.25-0.81-2.2-0.81
	c-0.62,0-1.12,0.12-1.67,0.48c-0.51,0.35-0.81,0.76-1,1.1c-0.21-0.52-0.54-0.95-0.95-1.2c-0.53-0.35-1.14-0.39-1.48-0.39
	c-0.6,0-1.55,0.14-2.2,1.22v-1.01h-2.53V20.49z M76.18,20.49h2.27v-8.64h-2.27V20.49z M6.03,3.55c1.08,1.43,1.88,2.91,2.13,4.48
	c3.72-2.31,8.33-2.83,13.78-1.57c-0.04-1.54,0.34-3.12,1.07-4.74l-2.73,2.81L20.13,0l-3.38,4.07L14.3,0.18l-0.99,2.96l-0.23,1.6
	L8.56,1.7l0.65,3.78L6.03,3.55z M25.94,19.68l1.48-1.16c1.04,1.67,0.88,3.54,0.18,5.48l-1.73-2.18L25.94,19.68z M20.48,26.03
	c1.44-0.32,2.58-0.88,3.59-1.85l1.77-0.1c1.9,0.79,0.34,4.97-1.5,5.23c0.28-0.8,0.32-1.65,0.12-2.55c-0.81,0.89-1.78,1.41-2.94,1.47
	L20.48,26.03z M22.78,18.48c0.51,0.55,1.13,0.9,1.79,1.16l-0.03,2.01c-1.22,1.33-2.6,2.33-4.19,2.83c-0.37,0.12-0.8,0.03-0.99-0.31
	l-1.72-3.04c-0.12-0.21,0.09-0.51,0.34-0.64l3.69-2.01C22.03,18.29,22.52,18.19,22.78,18.48z M11.44,10.53
	C8.25,8.5,7.45,10.37,8.22,14.8c-1.27-0.59-1.82-2.14-1.64-4.66c-2.25,1.77-3.97,3.78-4.97,6.1l1.87,0.26
	C1.51,18.95,0.17,21.68,0,24.89c1.01,0.1,2.02-0.39,2.89-1.11C2.1,27.64,2.43,31.42,3.93,34.8c2.09-1.66,3.74-3.61,4.99-5.82
	c0.97,3.06,1.06,6.2-0.26,9.47c4.53,2.27,9.06,2.14,13.59-1.02c0.35,0.7,0.5,1.48,0.55,2.32c3.43-2.25,5.63-5.45,6.09-9.96
	c0.65-0.04,1.03,0.49,1.3,1.24c2-5.69,0.97-10.84-2.37-15.57c-0.01,0.37-0.09,0.68-0.26,0.93c-0.52-0.36-0.87-0.82-1.12-1.34
	c0.92-0.08-0.23-2.88-1.17-0.84l-1.72-1.04c0.83,1.29,1.96,2.44,3.3,3.63c-1.67-0.28-3.15-0.2-4.47,0.21
	c-0.56-1-1.34-1.81-2.29-2.47c0.06-0.61,0.32-1.16,0.65-1.7c-0.55,0.46-1.12,0.85-1.78,0.86c-2.03-1.44-3.46-1.19-5.01,0.01
	c0.86,1.06,2.42,1.22,4.67,1.08c1.04,0.63,1.87,1.42,2.46,2.39l-0.18,0.21l-0.83-0.26l-4.84-0.03c-1.11-0.28-1.98-0.84-2.29-2.08
	l-0.4,0.06l0.21-0.9l-1.64-0.15l2.9-2l-0.99-0.31c0.46-1.01,4.03-2.83,5.25-2.33c0.9,0.37,2.45,1.16,3.51,2.1
	c0.31-0.57,0.48-1.24,0.52-2.01c1.54,0.9,3.01,2.13,4.45,3.45c-0.5-1.07-0.94-2.16-0.92-3.4c-1.61-1.13-3.29-1.96-5.07-2.39
	c0.32,0.58,0.28,1.18,0.18,1.72c-0.54-0.95-1.67-1.7-2.66-2.1c-3.56-0.08-6.19,0.57-8.99,1.79C10.44,8.78,11.12,9.47,11.44,10.53z
	 M77.31,7.69c0.7,0,1.27,0.57,1.27,1.26c0,0.7-0.57,1.26-1.27,1.26s-1.27-0.57-1.27-1.26C76.04,8.25,76.61,7.69,77.31,7.69z
	 M89.35,20.49h2.29v-3.51c0-0.74,0.05-1.67,0.56-2.33c0.55-0.71,1.57-1.05,2.34-0.76l-0.03-2.12c-0.25-0.1-0.46-0.14-0.75-0.14
	c-0.45,0-0.84,0.08-1.23,0.37c-0.37,0.27-0.68,0.72-0.89,1.2v-1.36h-2.29V20.49z M88.44,16.36c0-1.07-0.18-2.42-1.16-3.51
	c-1.01-1.12-2.34-1.3-3.26-1.3c-0.92,0-2.15,0.19-3.15,1.24c-0.83,0.89-1.25,2.17-1.25,3.41c0,1.43,0.51,2.58,1.23,3.33
	c0.96,1.01,2.04,1.24,3.28,1.24c0.92,0,1.8-0.14,2.59-0.64c0.34-0.22,0.8-0.6,1.17-1.23l-1.37-1.49c-0.75,1-1.28,1.25-2.36,1.25
	c-0.41,0-0.96-0.08-1.36-0.54c-0.33-0.39-0.5-1.01-0.5-1.47h6.13V16.36z M82.4,14.98c0.07-0.39,0.26-0.7,0.46-0.93
	c0.26-0.27,0.66-0.56,1.34-0.56c0.53,0,0.96,0.19,1.25,0.49c0.39,0.39,0.51,0.93,0.53,1.01H82.4z M36.48,21.75v13.06h8.36v-2.55
	h-5.32V21.75H36.48z M60.01,28.21c0.49,0,1.1,0.2,1.52,0.61c0.4,0.39,0.63,0.98,0.63,1.61c0,0.74-0.31,1.29-0.67,1.64
	c-0.37,0.37-0.87,0.61-1.43,0.61c-0.65,0-1.24-0.27-1.62-0.69c-0.25-0.27-0.57-0.78-0.57-1.57c0-0.78,0.34-1.29,0.63-1.59
	C58.87,28.47,59.42,28.21,60.01,28.21z M62.32,27.06c-0.78-1.1-1.94-1.27-2.66-1.27c-1.18,0-2.21,0.43-2.95,1.19
	c-0.78,0.8-1.31,2.06-1.31,3.52c0,1.16,0.34,2.29,1.24,3.27c0.93,1.02,1.96,1.33,3.18,1.33c0.7,0,1.77-0.18,2.51-1.35v1.06h2.51
	v-8.73h-2.51V27.06z M70.51,28.15c0.51,0,1.13,0.17,1.54,0.55c0.38,0.35,0.67,0.92,0.67,1.61c0,0.65-0.26,1.26-0.69,1.66
	c-0.29,0.28-0.79,0.57-1.54,0.57c-0.67,0-1.21-0.22-1.6-0.63c-0.4-0.41-0.61-1-0.61-1.57c0-0.53,0.24-1.22,0.67-1.63
	C69.3,28.38,69.87,28.15,70.51,28.15z M72.81,27.1c-0.32-0.47-1.03-1.31-2.63-1.31c-1.64,0-2.67,0.7-3.21,1.25
	c-0.75,0.76-1.31,2-1.31,3.49c0,1.51,0.57,2.57,1.29,3.29c0.81,0.8,1.86,1.23,3.23,1.23c1.62,0,2.29-0.76,2.63-1.31v1
	c0,2.47-4.19,2.63-5.37,0.72l-1.44,2c3.26,2.77,9.16,1.93,9.16-3.18v-8.2h-2.35V27.1z M76.42,26.08v5.27c0,0.96,0.14,1.84,0.88,2.62
	c0.92,0.98,2.25,1.14,3.24,1.14c0.95,0,2.31-0.16,3.23-1.14c0.81-0.86,0.9-1.8,0.9-2.8v-5.09h-2.59v4.82c0,0.43-0.05,1.02-0.43,1.41
	c-0.23,0.23-0.61,0.41-1.1,0.41c-0.58,0-0.9-0.24-1.08-0.41c-0.41-0.41-0.45-1.02-0.45-1.41v-4.82H76.42z M54.38,30.39
	c0-1.07-0.18-2.42-1.16-3.51c-1.01-1.12-2.34-1.3-3.26-1.3c-0.92,0-2.15,0.19-3.15,1.24c-0.83,0.89-1.25,2.17-1.25,3.41
	c0,1.43,0.51,2.58,1.23,3.33c0.96,1.01,2.04,1.24,3.28,1.24c0.92,0,1.8-0.14,2.59-0.64c0.34-0.22,0.8-0.6,1.17-1.23l-1.37-1.49
	c-0.75,1-1.28,1.25-2.36,1.25c-0.4,0-0.96-0.08-1.36-0.54c-0.33-0.39-0.5-1.01-0.5-1.47h6.13V30.39z M48.34,29.02
	c0.07-0.39,0.26-0.7,0.46-0.93c0.26-0.27,0.66-0.56,1.34-0.56c0.53,0,0.96,0.19,1.25,0.48c0.39,0.39,0.51,0.93,0.53,1.01H48.34z
	 M94.55,30.39c0-1.07-0.18-2.42-1.16-3.51c-1.01-1.12-2.34-1.3-3.26-1.3c-0.92,0-2.15,0.19-3.15,1.24
	c-0.83,0.89-1.25,2.17-1.25,3.41c0,1.43,0.51,2.58,1.23,3.33c0.96,1.01,2.04,1.24,3.28,1.24c0.92,0,1.8-0.14,2.59-0.64
	c0.34-0.22,0.8-0.6,1.17-1.23l-1.37-1.49c-0.75,1-1.28,1.25-2.36,1.25c-0.4,0-0.96-0.08-1.36-0.54c-0.33-0.39-0.5-1.01-0.5-1.47
	h6.13V30.39z M88.51,29.02c0.07-0.39,0.26-0.7,0.46-0.93c0.26-0.27,0.66-0.56,1.34-0.56c0.53,0,0.96,0.19,1.25,0.48
	c0.39,0.39,0.51,0.93,0.53,1.01H88.51z M36.47,7.4v12.93h2.99V15.8h1.82c0.91,0,2.27-0.1,3.3-1.14c0.49-0.5,1.11-1.42,1.11-3.04
	c0-0.89-0.16-2.17-1.26-3.14C43.4,7.56,42.16,7.4,41.03,7.4H36.47z"/>
</svg>
