<svg xmlns="http://www.w3.org/2000/svg" width="108" height="56" viewBox="0 0 108 56">
<path fill="#25222C" d="M17.55,3.48c-0.12,0.23-0.23,0.37-0.21,0.55c0.02,0.18,0.21,0.31,0.3,0.49c0.08-0.21,0.22-0.37,0.2-0.53
C17.82,3.82,17.6,3.6,17.55,3.48z M20.69,3.48c-0.04,0.12-0.27,0.34-0.29,0.5c-0.02,0.17,0.12,0.32,0.2,0.53
c0.09-0.18,0.28-0.31,0.3-0.49C20.92,3.85,20.82,3.71,20.69,3.48z M15.75,3.34c0.12,0,0.21-0.09,0.21-0.21
c0-0.12-0.09-0.21-0.21-0.21c-0.12,0-0.21,0.09-0.21,0.21C15.54,3.25,15.63,3.34,15.75,3.34z M15.89,3.65c0-0.12-0.1-0.21-0.21-0.21
s-0.21,0.09-0.21,0.21c0,0.12,0.09,0.21,0.21,0.21S15.89,3.76,15.89,3.65z M15.99,4.16c0-0.12-0.09-0.21-0.21-0.21
c-0.12,0-0.21,0.09-0.21,0.21c0,0.12,0.1,0.21,0.21,0.21C15.9,4.37,15.99,4.28,15.99,4.16z M16.92,2.34c0.12,0,0.21-0.09,0.21-0.21
c0-0.12-0.1-0.21-0.21-0.21c-0.12,0-0.21,0.09-0.21,0.21C16.71,2.24,16.81,2.34,16.92,2.34z M16.39,2.5c0.12,0,0.21-0.09,0.21-0.21
c0-0.12-0.1-0.21-0.21-0.21c-0.12,0-0.21,0.09-0.21,0.21C16.18,2.41,16.28,2.5,16.39,2.5z M15.98,2.86c0.12,0,0.21-0.09,0.21-0.21
c0-0.12-0.09-0.21-0.21-0.21s-0.21,0.09-0.21,0.21C15.77,2.77,15.86,2.86,15.98,2.86z M17.48,2.39c0.12,0,0.21-0.09,0.21-0.21
c0-0.12-0.09-0.21-0.21-0.21c-0.12,0-0.21,0.09-0.21,0.21C17.26,2.29,17.36,2.39,17.48,2.39z M18,2.54c0.12,0,0.21-0.1,0.21-0.21
c0-0.12-0.09-0.21-0.21-0.21c-0.12,0-0.21,0.09-0.21,0.21C17.79,2.44,17.88,2.54,18,2.54z M18.5,2.77c0.12,0,0.21-0.09,0.21-0.21
c0-0.12-0.09-0.21-0.21-0.21s-0.21,0.09-0.21,0.21C18.29,2.68,18.38,2.77,18.5,2.77z M22.28,3.13c0,0.12,0.1,0.21,0.21,0.21
c0.12,0,0.21-0.09,0.21-0.21c0-0.12-0.09-0.21-0.21-0.21C22.38,2.92,22.28,3.02,22.28,3.13z M22.56,3.43
c-0.12,0-0.21,0.09-0.21,0.21c0,0.12,0.09,0.21,0.21,0.21c0.12,0,0.21-0.09,0.21-0.21C22.78,3.53,22.68,3.43,22.56,3.43z
M22.46,3.95c-0.12,0-0.21,0.1-0.21,0.21c0,0.12,0.09,0.21,0.21,0.21c0.12,0,0.21-0.09,0.21-0.21C22.67,4.04,22.58,3.95,22.46,3.95z
M21.32,2.34c0.12,0,0.21-0.09,0.21-0.21c0-0.12-0.1-0.21-0.21-0.21c-0.12,0-0.21,0.09-0.21,0.21C21.11,2.24,21.2,2.34,21.32,2.34z
M21.85,2.5c0.12,0,0.21-0.09,0.21-0.21c0-0.12-0.1-0.21-0.21-0.21c-0.12,0-0.21,0.09-0.21,0.21C21.64,2.41,21.73,2.5,21.85,2.5z
M22.26,2.86c0.12,0,0.21-0.09,0.21-0.21c0-0.12-0.09-0.21-0.21-0.21c-0.12,0-0.21,0.09-0.21,0.21C22.05,2.77,22.14,2.86,22.26,2.86
z M20.77,2.39c0.12,0,0.21-0.09,0.21-0.21c0-0.12-0.09-0.21-0.21-0.21c-0.12,0-0.21,0.09-0.21,0.21
C20.55,2.29,20.65,2.39,20.77,2.39z M20.24,2.54c0.12,0,0.21-0.1,0.21-0.21c0-0.12-0.09-0.21-0.21-0.21c-0.12,0-0.21,0.09-0.21,0.21
C20.03,2.44,20.12,2.54,20.24,2.54z M19.53,2.56c0,0.12,0.09,0.21,0.21,0.21c0.12,0,0.21-0.09,0.21-0.21c0-0.12-0.09-0.21-0.21-0.21
C19.63,2.35,19.53,2.44,19.53,2.56z M18.76,3.7H19V2.8c-0.08-0.01-0.16-0.04-0.24-0.07V3.7z M19.48,2.73
c-0.07,0.03-0.15,0.06-0.24,0.07v0.9h0.24V2.73z M18.98,1.73V1.19c-0.27,0.05-0.47,0.27-0.52,0.54H18.98z M19.26,1.73h0.52
c-0.05-0.27-0.25-0.48-0.52-0.54V1.73z M18.47,1.99c0.07,0.3,0.33,0.52,0.65,0.52c0.32,0,0.58-0.22,0.65-0.52H18.47z M19.49,1.11
c-0.15-0.12-0.27-0.29-0.29-0.47c0.17,0.03,0.37,0.16,0.48,0.31V0.22c-0.12,0.15-0.31,0.28-0.48,0.31c0.02-0.18,0.13-0.34,0.28-0.52
h-0.71c0.15,0.18,0.26,0.34,0.28,0.52c-0.17-0.03-0.37-0.15-0.48-0.31v0.73c0.11-0.15,0.31-0.27,0.48-0.31
c-0.02,0.18-0.14,0.35-0.29,0.47H19.49z M19.5,16.26c0.14,0,0.26-0.12,0.26-0.26c0-0.14-0.12-0.26-0.26-0.26
c-0.14,0-0.26,0.12-0.26,0.26C19.24,16.14,19.36,16.26,19.5,16.26z M18.25,15.87c0.16,0,0.29-0.13,0.29-0.28
c0-0.16-0.13-0.28-0.29-0.28c-0.16,0-0.29,0.13-0.29,0.28C17.97,15.75,18.1,15.87,18.25,15.87z M17.82,14.61
c0.04,0.03,0.08,0.06,0.12,0.09c-0.01-0.09-0.05-0.18-0.12-0.25c-0.09-0.1-0.21-0.16-0.33-0.16c-0.26,0-0.54,0.28-0.62,0.37
l-0.02,0.03l-0.03-0.01c-0.07-0.02-0.14-0.03-0.21-0.04c0.02,0.06,0.05,0.12,0.09,0.18l0.02,0.03l-0.02,0.03
c-0.13,0.2-0.2,0.4-0.2,0.56c0,0.1,0.12,0.31,0.3,0.4c0.12,0.06,0.24,0.05,0.36-0.02c-0.06-0.04-0.15-0.09-0.21-0.13l-0.03-0.02
c-0.05-0.03-0.11-0.06-0.13-0.14c0-0.02-0.01-0.03-0.01-0.05c0-0.06,0.03-0.14,0.09-0.24c0.01-0.02,0.02-0.04,0.04-0.05
c0.01-0.01,0.02-0.02,0.03-0.04l0.03-0.05L17,15.13c0.1,0.06,0.19,0.08,0.26,0.07c0.03-0.01,0.05-0.03,0.07-0.05
c0.04-0.07,0.02-0.19-0.12-0.3l-0.05-0.04l0.07-0.08c0.05-0.06,0.1-0.11,0.15-0.16c0.12-0.1,0.22-0.1,0.35,0L17.82,14.61z
M20.27,15.61c0.41,0.1,0.91,0.19,1.24,0.15c-0.01,0.01-0.03,0.03-0.05,0.04c-0.12,0.11-0.28,0.23-0.45,0.34
c-0.43,0.26-0.85,0.42-1.18,0.42c-0.38,0-0.86-0.08-1.36-0.22c-0.44-0.12-0.86-0.28-1.18-0.46c-0.17,0.13-0.37,0.15-0.54,0.06
c-0.22-0.1-0.37-0.35-0.37-0.51c0-0.03,0-0.06,0.01-0.09c-0.15-0.13-0.29-0.27-0.43-0.43c-0.41-0.46-0.73-1-0.96-1.6
c-0.1-0.28-0.19-0.57-0.24-0.86c0.38,0.13,0.54,0,0.65-0.12c0.04,0.01,0.04,0.12,0.04,0.16c0.42-0.01,0.66-0.29,0.7-0.51
c0.04,0.26,0.1,0.51,0.19,0.75c0.15,0.42,0.37,0.81,0.65,1.13c0.1,0.11,0.2,0.22,0.31,0.31c0.07-0.02,0.13-0.04,0.2-0.04
c0.15,0,0.31,0.07,0.42,0.21c0.12,0.13,0.17,0.3,0.15,0.45l0,0.01C18.8,15.16,19.6,15.44,20.27,15.61z M20.08,18.3
c0.05-0.1,0.08-0.2,0.08-0.28c0-0.13-0.1-0.31-0.31-0.31c-0.36,0-0.28,0.49-0.45,0.49c-0.08,0-0.13-0.05-0.13-0.12
c0-0.14,0.25-0.27,0.25-0.48c0-0.2-0.19-0.37-0.39-0.53c-0.2,0.16-0.39,0.33-0.39,0.53c0,0.2,0.25,0.33,0.25,0.48
c0,0.07-0.06,0.12-0.13,0.12c-0.17,0-0.09-0.49-0.45-0.49c-0.21,0-0.31,0.18-0.31,0.31c0,0.08,0.03,0.18,0.09,0.28
c0.05-0.09,0.12-0.14,0.18-0.14c0.27,0,0.17,0.72,0.49,0.72c0.14,0,0.22-0.09,0.22-0.19c0-0.1-0.07-0.13-0.07-0.21
c0-0.08,0.06-0.11,0.13-0.11c0.07,0,0.13,0.03,0.13,0.11c0,0.08-0.07,0.11-0.07,0.21c0,0.1,0.08,0.19,0.22,0.19
c0.32,0,0.22-0.72,0.49-0.72C19.96,18.16,20.03,18.22,20.08,18.3z M19.13,19.31c0.1,0,0.18-0.08,0.18-0.18
c0-0.1-0.08-0.18-0.18-0.18c-0.1,0-0.18,0.08-0.18,0.18C18.95,19.23,19.03,19.31,19.13,19.31z M19.85,17.57
c0.28,0,0.45,0.23,0.45,0.45c0,0.2-0.12,0.39-0.23,0.51c-0.06-0.13-0.1-0.22-0.17-0.22c-0.14,0-0.07,0.69-0.48,0.71
c0.01,0.03,0.02,0.07,0.02,0.11c0,0.17-0.14,0.32-0.32,0.32c-0.18,0-0.32-0.14-0.32-0.32c0-0.04,0.01-0.08,0.02-0.11
c-0.41-0.02-0.34-0.71-0.48-0.71c-0.07,0-0.12,0.1-0.17,0.22c-0.1-0.12-0.23-0.31-0.23-0.51c0-0.22,0.17-0.45,0.45-0.45
c0.05,0,0.1,0.01,0.14,0.02v-0.97c0.41,0.11,0.82,0.16,1.17,0.17v0.8C19.76,17.58,19.8,17.57,19.85,17.57z M29.23,18.53
c-0.02-0.04-0.06-0.06-0.1-0.05c-0.94,0.27-2.1-0.5-3.22-1.24c-0.94-0.63-1.84-1.22-2.6-1.22c-0.28,0-0.53,0.06-0.75,0.18
c-0.27,0.15-0.47,0.38-0.59,0.69c-0.13,0.31-0.27,0.52-0.37,0.69c-0.13,0.21-0.22,0.35-0.22,0.54c0,0.15,0.06,0.29,0.19,0.42
c0.11,0.11,0.26,0.21,0.49,0.33c0.05,0.02,0.1,0.05,0.14,0.07c0.19,0.09,0.3,0.15,0.32,0.26c-0.37,0.16-0.85,0.3-1.39,0.39
c-0.61,0.11-1.29,0.16-2,0.16c-0.71,0-1.38-0.05-2-0.16c-0.55-0.09-1.02-0.23-1.4-0.39c0.02-0.16,0.13-0.22,0.33-0.31
c0.05-0.02,0.1-0.05,0.15-0.07c0.19-0.1,0.36-0.19,0.48-0.3c0.13-0.12,0.19-0.24,0.19-0.39c0-0.18-0.09-0.33-0.22-0.54
c-0.11-0.17-0.24-0.38-0.37-0.69c-0.13-0.31-0.33-0.54-0.6-0.69c-0.22-0.12-0.47-0.18-0.75-0.18c-0.77,0-1.66,0.59-2.6,1.22
c-1.12,0.74-2.28,1.52-3.22,1.24c-0.04-0.01-0.09,0.01-0.1,0.05c-0.02,0.04,0,0.09,0.05,0.11c0.28,0.13,0.54,0.32,0.78,0.51
c0.34,0.26,0.66,0.51,1.01,0.51c0.33,0,0.69-0.11,1.12-0.33c0.38-0.2,0.77-0.46,1.14-0.72c0.74-0.5,1.5-1.02,2.23-1.08
c-0.08,0.08-0.15,0.14-0.22,0.21c-0.21,0.19-0.4,0.35-0.4,0.69c0,0.26,0.09,0.45,0.22,0.71c0.04,0.07,0.08,0.16,0.12,0.26
c0.08,0.18,0.12,0.32,0.16,0.52c0.02,0.09,0.04,0.18,0.07,0.29c0.05,0.17,0.13,0.49,0.66,0.76c0.62,0.31,1.68,0.47,3.16,0.47
c1.48,0,2.54-0.16,3.16-0.47c0.53-0.27,0.62-0.59,0.66-0.76c0.03-0.11,0.05-0.21,0.08-0.29c0.05-0.2,0.08-0.34,0.16-0.52
c0.06-0.13,0.11-0.24,0.17-0.33c0.11-0.21,0.2-0.37,0.2-0.61c0-0.33-0.19-0.51-0.42-0.71c-0.07-0.06-0.15-0.13-0.23-0.21
c0.73,0.06,1.49,0.58,2.23,1.08c0.38,0.26,0.77,0.52,1.15,0.72c0.43,0.23,0.79,0.33,1.12,0.33c0.35,0,0.67-0.25,1.01-0.51
c0.24-0.19,0.49-0.38,0.78-0.51C29.23,18.62,29.25,18.57,29.23,18.53z M22.17,11.3c-0.01-0.46-0.09-0.91-0.24-1.33
c-0.15-0.42-0.38-0.81-0.65-1.13C21,8.51,20.67,8.25,20.31,8.07c-0.34-0.16-0.69-0.25-1.06-0.27v3.49H22.17z M19.13,6.35
c0.99,0,1.68,0.29,2.08,0.56c0.23-0.14,0.33-0.27,0.33-0.43c0-0.56-1.6-0.61-2.41-0.61h0h0c-0.81,0-2.41,0.05-2.41,0.61
c0,0.16,0.1,0.29,0.33,0.43C17.45,6.64,18.13,6.35,19.13,6.35z M19.07,7.8c-0.39,0.01-0.77,0.1-1.13,0.27
c-0.36,0.18-0.69,0.43-0.97,0.76c-0.28,0.33-0.5,0.71-0.65,1.13c-0.15,0.42-0.23,0.87-0.24,1.33h2.99V7.8z M23.61,11.08
c0.01,0.12,0,0.16,0,0.29c0,0.68-0.12,1.34-0.35,1.96c-0.23,0.6-0.55,1.14-0.96,1.6c-0.2,0.22-0.41,0.43-0.64,0.6l0,0
c-0.06,0.04-0.31,0.12-1.34-0.14c-0.13-0.03-0.2-0.05-0.34-0.1c0.02-0.13,0.03-0.2,0.07-0.29c0.04-0.11,0.09-0.21,0.14-0.26
c0.06-0.02,0.06-0.07,0.12-0.09c0.36-0.18,0.69-0.43,0.97-0.76c0.28-0.33,0.5-0.71,0.65-1.13c0.15-0.41,0.22-0.84,0.24-1.28h-2.92
v3.23c0.23,0.01,0.67,0.06,0.67,0.06c-0.11,0.13-0.15,0.26-0.18,0.47c-0.33-0.1-0.66-0.23-1-0.36c0.1-0.12,0.23-0.15,0.34-0.16
v-3.23h-2.98c-0.01-0.13-0.07-0.34-0.12-0.4c-0.15-0.18-0.2-0.29-0.21-0.56c0-0.15-0.09-0.33-0.24-0.52
c-0.09-0.11-0.44-0.5-0.53-0.58c0.23-0.6,0.55-1.13,0.96-1.59c0.27-0.3,0.58-0.57,0.91-0.78c-0.18-0.11-0.36-0.28-0.36-0.56
c0-0.16,0.06-0.29,0.18-0.39c-0.19-0.6-0.52-1.32-0.81-1.64l0.6-0.25c-0.16,0.24-0.17,0.52-0.13,0.68c0.16-0.11,0.3-0.26,0.34-0.46
c0.03,0.18,0.13,0.47,0.22,0.65c-0.18-0.08-0.32-0.12-0.5-0.04c0.1,0.14,0.36,0.34,0.75,0.25c0.21-0.05,0.43-0.16,0.42-0.33
c-0.01-0.1-0.08-0.22-0.21-0.2c-0.13,0.01-0.14,0.21-0.1,0.3c-0.17-0.1-0.35-0.6-0.08-0.67c0.21-0.06,0.4,0.23,0.47,0.45
c0.04-0.27,0.15-0.52,0.36-0.51c0.28,0.02,0.19,0.53,0.09,0.66C18.1,4.79,18,4.7,17.92,4.71c-0.07,0-0.17,0.06-0.15,0.22
c0.02,0.16,0.25,0.26,0.52,0.26c0.25,0,0.7-0.08,0.74-0.56c-0.17,0.03-0.42,0.16-0.52,0.32c0.03-0.3,0.03-0.51,0-0.81
c0.13,0.19,0.36,0.29,0.52,0.32c-0.05-0.21-0.23-0.43-0.44-0.56h1.09c-0.21,0.13-0.39,0.35-0.44,0.56c0.16-0.03,0.39-0.13,0.53-0.32
c-0.03,0.31-0.03,0.52,0,0.81c-0.11-0.16-0.37-0.29-0.53-0.32c0.04,0.49,0.49,0.57,0.74,0.57c0.27,0,0.5-0.1,0.52-0.26
c0.02-0.16-0.08-0.21-0.15-0.22c-0.08-0.01-0.18,0.09-0.2,0.27c-0.1-0.13-0.19-0.64,0.09-0.66c0.21-0.01,0.32,0.24,0.36,0.51
c0.07-0.22,0.26-0.51,0.47-0.45c0.27,0.07,0.09,0.58-0.08,0.67c0.04-0.09,0.03-0.29-0.1-0.3c-0.13-0.01-0.21,0.11-0.21,0.2
c-0.01,0.16,0.2,0.28,0.42,0.33c0.4,0.09,0.65-0.12,0.76-0.25c-0.18-0.07-0.32-0.04-0.49,0.05c0.09-0.18,0.19-0.47,0.22-0.65
c0.04,0.2,0.18,0.34,0.33,0.45c0.03-0.16,0.02-0.44-0.13-0.67l0.6,0.25c-0.29,0.32-0.62,1.03-0.81,1.63
c0.12,0.1,0.19,0.23,0.19,0.39c0,0.28-0.18,0.44-0.36,0.56c0.33,0.22,0.63,0.48,0.91,0.78c0.22,0.25,0.4,0.47,0.56,0.76
c-0.03,0.03-0.05,0.06-0.08,0.11c-0.04,0.06-0.14,0.16-0.18,0.2c-0.05,0.07-0.1,0.15-0.1,0.24c0,0.08,0.03,0.17,0.09,0.27
c0.07,0.12,0.54,1.03,0.65,1.26C23.34,10.84,23.51,11,23.61,11.08z M20.88,9.22c-0.17-0.21-0.37-0.39-0.58-0.53
c-0.18-0.12-0.37-0.21-0.56-0.27c0.02,0.03,0.03,0.07,0.03,0.12c-0.04-0.01-0.08-0.02-0.11-0.04v0.85c0.05-0.01,0.09,0.02,0.1,0.05
c0.01,0.03,0.01,0.07-0.03,0.1c0.04,0,0.09,0.02,0.13,0.06c-0.04,0.04-0.09,0.06-0.13,0.06c0.04,0.03,0.04,0.07,0.03,0.1
c-0.01,0.03-0.05,0.05-0.1,0.05v1c0.03-0.03,0.07-0.04,0.13-0.05c0,0.05-0.02,0.09-0.04,0.12h0.62c-0.01-0.05,0.02-0.09,0.05-0.1
c0.03-0.01,0.07-0.01,0.1,0.03c0-0.04,0.02-0.09,0.06-0.13c0.04,0.04,0.06,0.09,0.06,0.13c0.03-0.04,0.07-0.05,0.1-0.03
c0.03,0.01,0.05,0.05,0.05,0.1h0.73c-0.03-0.03-0.06-0.07-0.06-0.13c0.04,0,0.08,0.01,0.11,0.03c-0.06-0.42-0.22-0.82-0.44-1.18
c-0.03,0.01-0.06,0.01-0.08,0C21.01,9.54,21,9.5,21.01,9.45c-0.03,0.02-0.08,0.04-0.14,0.03c0.01-0.05,0.04-0.09,0.07-0.12
c-0.05,0-0.08-0.03-0.09-0.06C20.84,9.28,20.85,9.25,20.88,9.22z M21.71,10.73c0.09,0,0.13,0.08,0.11,0.12
c-0.01,0.03-0.04,0.05-0.09,0.05c0.03,0.03,0.05,0.07,0.05,0.13c-0.06,0-0.1-0.02-0.13-0.05c0.01,0.05-0.01,0.08-0.04,0.09
c-0.04,0.02-0.13-0.01-0.13-0.11c0.03,0.05,0.11,0.03,0.1-0.03h-0.96c0.02,0.05,0.01,0.13-0.05,0.19c-0.06-0.06-0.07-0.13-0.05-0.19
h-0.86c0,0.06,0.07,0.07,0.11,0.02c0,0.09-0.08,0.13-0.13,0.11c-0.03-0.01-0.05-0.04-0.05-0.09c-0.03,0.03-0.07,0.05-0.13,0.05
c0-0.06,0.02-0.1,0.05-0.13c-0.05,0-0.08-0.02-0.09-0.04c-0.02-0.04,0.02-0.13,0.11-0.13c-0.05,0.03-0.03,0.11,0.03,0.11V9.6
c-0.06,0.02-0.13,0.01-0.19-0.05c0.06-0.06,0.13-0.07,0.19-0.05V8.37c-0.06,0-0.07,0.07-0.03,0.1c-0.09-0.01-0.13-0.09-0.1-0.14
c0.01-0.02,0.04-0.04,0.08-0.04c-0.03-0.03-0.04-0.08-0.04-0.14c0.06,0.01,0.1,0.03,0.13,0.07c0.01-0.04,0.03-0.06,0.05-0.07
c0.05-0.02,0.13,0.03,0.12,0.12c-0.03-0.05-0.1-0.04-0.11,0.02c0.24,0.06,0.48,0.17,0.7,0.32c0.23,0.16,0.45,0.35,0.63,0.59
c0.02,0.03,0.04,0.05,0.06,0.08c0.03-0.05,0.1-0.09,0.19-0.08c-0.01,0.08-0.07,0.13-0.12,0.15c0,0-0.01,0.01-0.01,0.01
c0.3,0.43,0.5,0.95,0.56,1.47C21.74,10.84,21.76,10.76,21.71,10.73z M21.2,10.41c0.04-0.02,0.07-0.04,0.08-0.07
c-0.04,0.01-0.07-0.01-0.08-0.01c0.03-0.02,0.06,0,0.03-0.05c-0.03-0.05-0.06-0.06-0.09-0.02c-0.04,0.04-0.27-0.01-0.27-0.18
c0.02,0.03,0.05,0.05,0.08,0.07c0.01,0.01,0.02,0.01,0.03,0.01c0.01,0,0.02,0,0.03,0.01c0.02,0.01,0.05,0.01,0.07,0.01
c0,0,0.01,0,0.01,0v-0.01c0.05-0.01,0.09-0.04,0.09-0.09c0.01-0.09-0.08-0.14-0.18-0.22c-0.04-0.03-0.07-0.06-0.09-0.09
c-0.03-0.07-0.01-0.13-0.1-0.26c0-0.03-0.01-0.06-0.03-0.11c-0.05,0.08-0.07,0.24,0.05,0.37c0.1,0.11,0.3,0.21,0.3,0.3
c0,0.02-0.02,0.04-0.05,0.05c-0.01,0-0.02,0-0.03,0c-0.01,0-0.01,0-0.02-0.01c-0.01,0-0.03-0.01-0.04-0.02
c-0.02-0.01-0.05-0.03-0.07-0.06c-0.09-0.08-0.16-0.2-0.21-0.26c-0.1-0.12-0.05-0.24-0.04-0.34c0.07-0.09-0.04-0.28-0.11-0.33
c0,0,0.01-0.04,0-0.1c-0.01,0.01-0.04,0.01-0.06,0.01c-0.02-0.04-0.02-0.04-0.05-0.05c-0.04-0.01-0.04-0.03-0.05-0.05
c-0.02,0.02-0.03,0.04-0.06,0.04c-0.03,0-0.05,0-0.06,0.01C20.24,8.99,20.23,9,20.2,8.99c-0.04,0-0.04,0.02-0.03,0.05
c0,0.02,0,0.05,0.03,0.05c0,0,0.01,0,0.01,0.01l0.03,0.04l0.02-0.04c0.02-0.02,0.07-0.02,0.08,0.02c0.01,0.03,0.01,0.03-0.02,0.04
c-0.03,0-0.05,0-0.08,0.01c-0.02,0-0.02,0.03-0.02,0.05c0,0.02,0.03,0.03,0.07,0.02c0.05-0.01,0.13-0.02,0.13,0.02
c0,0.1-0.12,0.1-0.14,0.22c-0.03-0.02-0.06-0.04-0.07-0.07c-0.02-0.03-0.05-0.07-0.09-0.11c-0.02-0.02-0.06-0.05-0.09-0.07
c-0.04-0.03-0.04-0.04-0.04-0.09c0-0.04,0.02-0.07,0.01-0.1c0,0-0.01-0.02-0.01-0.03c-0.01-0.02-0.04-0.04-0.06-0.04
c0.01,0.01,0.02,0.02,0.02,0.04c-0.01,0.01-0.02,0.02-0.02,0.02c-0.01,0.01-0.01,0.02,0,0.04c0,0,0,0,0,0.01c0,0,0,0.01,0,0.02
c0,0.01,0,0-0.01,0c-0.01-0.03-0.02-0.06-0.05-0.07c0,0-0.01,0-0.02,0c0,0,0,0,0-0.01c0-0.03-0.03-0.05-0.06-0.02
c0.01,0,0.02,0,0.03,0.01c0,0.01-0.01,0.03-0.01,0.03c0,0.03,0.02,0.04,0.05,0.04c0,0,0.01,0,0.01,0c0,0,0,0.01,0,0.01c0,0,0,0,0,0
c-0.05-0.02-0.07,0-0.07,0.02c0,0,0,0.01,0,0.02c-0.02,0.01-0.02,0.04,0.01,0.06c0-0.01,0-0.02,0.01-0.03c0,0,0.01,0,0.01,0
c0,0.01,0.01,0.01,0.01,0.01c0,0,0.01,0,0.03-0.01c0,0,0.01,0,0.01,0c0,0,0.01,0.01,0.01,0.01c0,0,0,0.01,0,0.01
c-0.03,0.03-0.02,0.06,0.01,0.07c-0.02,0.03-0.07,0.02-0.07-0.03c-0.04,0.07,0.03,0.11,0.08,0.09c0,0.02,0,0.07,0.01,0.07
c0,0,0-0.01,0.01-0.01c0,0,0,0,0,0.01c0,0.01,0.01,0.03,0.03,0.04c0-0.01,0-0.02,0.01-0.02C19.99,9.4,20,9.41,20.01,9.43
c0.03,0.05,0.08,0.17,0.2,0.22c-0.06,0.04-0.11,0.09-0.14,0.14c-0.03,0.03-0.09,0.07-0.12,0.05c-0.01-0.01-0.02-0.02-0.04-0.04
c-0.01-0.01-0.03-0.01-0.04-0.01c0,0-0.01,0-0.02,0.01c-0.02-0.01-0.05,0-0.06,0.02c0.01,0,0.03-0.01,0.04,0.01
c0,0.01,0,0.02,0,0.02c0,0.01,0.01,0.03,0.07,0.03c0,0,0.01,0,0.01,0.01c-0.01,0.01-0.02,0.01-0.03,0.01
c-0.03-0.01-0.04-0.03-0.06,0c0,0-0.01,0.01-0.01,0.02c0,0,0,0-0.01,0c-0.03,0.01-0.05,0.06-0.02,0.08c0-0.01,0-0.03,0.02-0.04
c0,0.01,0.01,0.01,0.01,0.01c0.02,0.03,0.04,0.04,0.08-0.02c0-0.01,0.01,0,0.01,0c0,0.03-0.03,0.07,0.01,0.08c0,0,0.01,0,0.02,0
v0.01c0.01,0.03,0.06,0.04,0.07,0.03c-0.01-0.01-0.03-0.02-0.04-0.04c0.01,0,0.02,0,0.02,0c0.02-0.02,0-0.05,0.01-0.07
c0-0.01,0.01,0,0.01,0c0.01,0.01,0.03,0.04,0.06,0.02c0.02-0.01,0.02-0.03,0.03-0.04c0.04-0.02,0.08-0.03,0.11-0.02
c-0.01-0.02,0.02-0.05,0.07-0.07c0.05-0.01,0.07,0,0.08,0.01c0-0.02,0.02-0.05,0.05-0.08c0,0.18,0.24,0.18,0.3,0.29
c-0.07-0.03-0.16-0.05-0.2-0.04c-0.06,0.01-0.16,0.07-0.18,0.13c-0.01,0.06,0.05,0.16,0.11,0.19c-0.07,0.01-0.1-0.01-0.16,0.01
c0,0-0.01,0-0.01,0c-0.06,0.01-0.06-0.09-0.13-0.07c0,0-0.01,0.01-0.02,0.01h0c-0.03,0-0.06,0.03-0.05,0.06
c0.01-0.01,0.02-0.02,0.04-0.02c0,0.01,0,0.01,0,0.01c0,0.01,0,0.02,0.02,0.02c0.01,0,0.02-0.01,0.03-0.01c0,0,0.01,0,0.01,0.01
c0,0.03-0.08-0.01-0.07,0.06c0,0,0.01,0.01,0.01,0.02c0,0.02,0.01,0.04,0.05,0.03c-0.01,0-0.02-0.01-0.02-0.03c0.01,0,0.01,0,0.02,0
c0,0,0.01,0,0.01-0.01c0,0,0,0,0,0c0,0,0.01,0,0.01,0.01c0,0,0,0.01,0,0.02c0,0,0,0.02,0.01,0.02c0,0.03,0.03,0.05,0.07,0.03
c-0.01,0-0.03-0.01-0.04-0.02c0.01,0,0.02-0.01,0.02-0.01c0.01,0,0.01-0.01,0.01-0.02c0-0.01,0-0.01,0.01-0.01c0,0,0.01,0,0.02,0
c0.01,0,0.01,0,0.01,0.01c0.01,0.01,0.03,0.03,0.05,0.02c0.02,0,0.02-0.01,0.02-0.02c0.01,0.01,0.02,0.01,0.03,0.02
c-0.01-0.03,0.01-0.05,0.07-0.01l0.04-0.03c0,0,0.05,0.02,0.08,0c0.03-0.03,0.02-0.03,0.02-0.06c-0.02-0.05-0.04-0.05-0.05-0.1
c-0.02-0.09,0.11-0.14,0.18-0.13c0.01,0.06,0.1,0.21,0.23,0.25c0.08,0.03,0.12-0.06,0.15-0.05c0.01,0,0.01,0.01,0.01,0.03
c-0.01,0.04,0,0.08-0.01,0.1c-0.01,0.02-0.05,0-0.09,0c-0.02,0-0.03,0.01-0.03,0.01c-0.03,0-0.06,0.03-0.05,0.06
c0.01-0.01,0.03-0.02,0.05-0.02c0,0,0,0.01,0,0.01c0,0.04,0.04,0.05,0.07,0.02c0,0,0.01,0,0.01,0c-0.02,0.01-0.06,0.05-0.03,0.06
c0,0,0.01,0.01,0.02,0.01c0,0.02,0.01,0.04,0.03,0.05c-0.01-0.01-0.01-0.02,0-0.04c0.01,0,0.02,0,0.02,0c0.02,0,0.01-0.04,0.04-0.06
c0,0,0.01,0,0,0c-0.01,0.03-0.01,0.06,0.01,0.06c0,0,0.01,0,0.02,0c0.01,0.02,0.03,0.03,0.06,0.02c-0.01,0-0.03-0.01-0.03-0.02
c0.01-0.01,0.02-0.02,0.02-0.02c0.02-0.05-0.03-0.05-0.03-0.08c0-0.03,0.05-0.01,0.05-0.06c0,0,0-0.01,0-0.01
c0.03-0.01,0.05-0.03,0.05-0.05C21.23,10.43,21.2,10.42,21.2,10.41L21.2,10.41z M18.48,12.03c0.02-0.14,0-0.18-0.07-0.18
c-0.09,0-0.26,0.09-0.47,0.17l0.45,0.63c0.03-0.17,0.05-0.32,0.06-0.41c0-0.01,0-0.03,0.01-0.04l-0.03,0c-0.06,0-0.1-0.04-0.1-0.1
c0-0.06,0.06-0.08,0.11-0.08L18.48,12.03z M18.31,13.14c0.02-0.1,0.03-0.21,0.05-0.32l-0.53-0.75c-0.07,0.03-0.15,0.05-0.23,0.07
L18.31,13.14z M18.24,13.59c0.01-0.08,0.03-0.18,0.05-0.29l-0.8-1.14c-0.05,0.01-0.1,0.01-0.15,0.01c-0.03,0-0.06,0-0.09,0
L18.24,13.59z M17.11,12.17c-0.07,0.82,0.51,1.34,1.09,1.56L17.11,12.17z M18.74,12.05c0.05,0,0.1,0.03,0.09,0.1
c0,0.06-0.05,0.09-0.11,0.08l-0.04,0l-0.04,1.57l0.05,0.01l-0.01,0.14C18.67,13.99,18.62,14,18.57,14c0.03,0.24-0.18,0.3-0.28,0.3
c-0.11,0-0.2-0.07-0.2-0.2c0-0.1,0.09-0.14,0.16-0.14c0.06,0,0.1,0.02,0.08,0.08c-0.01,0.04-0.12,0.01-0.12,0.07
c0,0.04,0.03,0.07,0.09,0.07c0.08,0,0.13-0.04,0.13-0.13c0-0.14-0.14-0.16-0.27-0.13c-0.9-0.27-1.41-1.14-1.34-1.82
c-0.02-0.01-0.04-0.02-0.06-0.02l0.06-0.13c-0.02,0.03-0.05,0.04-0.09,0.04c-0.06,0-0.11-0.05-0.11-0.11c0-0.06,0.05-0.11,0.11-0.11
c0.06,0,0.11,0.05,0.11,0.11c0,0,0,0.01,0,0.01l0.06-0.13c0.14,0.08,0.37,0.18,0.57,0.18c0.45,0,0.78-0.22,0.95-0.22
c0.19,0,0.29,0.13,0.29,0.3l0,0.05L18.74,12.05z M17.94,8.74c-0.01,0.01-0.01,0.04,0.01,0.05c0.02,0.01,0.04-0.01,0.04-0.02
c0-0.01,0.01-0.02,0-0.03c-0.01-0.01-0.01-0.02,0-0.03c0.01-0.01,0.02-0.01,0.03,0c-0.01-0.01-0.01-0.02,0-0.02
c0.01,0,0.01,0.02,0.02,0.02c0.01,0,0-0.01,0-0.02c0-0.01,0-0.01-0.01-0.01l-0.06-0.03c-0.01,0-0.01-0.01-0.02,0
c0,0-0.01,0.01-0.01,0.01c0,0.01,0.02-0.01,0.02,0c0.01,0.01,0,0.01-0.01,0.01c0.01,0.01,0.02,0.01,0.02,0.03
c0,0.01-0.01,0.01-0.02,0.01C17.95,8.72,17.94,8.73,17.94,8.74z M18.05,8.62c0,0.02,0,0.04,0.02,0.05c0.02,0,0.01-0.01,0.04-0.02
C18.1,8.64,18.06,8.63,18.05,8.62z M18.55,8.9C18.53,8.9,18.54,8.9,18.55,8.9c0.1,0.02,0.13,0.04,0.18,0.04
c0.03-0.01,0.03,0.02,0.03,0.02c0,0.03,0.04,0.01,0.05,0c0,0.03,0,0.04-0.01,0.05c0,0,0,0,0,0.01c0,0.02,0,0.05,0.03,0.04
c-0.01,0.02-0.02,0.01-0.03,0.01h0c0,0,0,0,0,0c0.01,0.01,0.02,0.02,0.02,0.03c0,0.04-0.04,0.03-0.04,0.05
c0,0.02,0.04,0.02,0.02,0.06c0,0-0.01,0.01-0.01,0.02c0,0.01,0.02,0.01,0.02,0.02c-0.03,0.01-0.04,0-0.05-0.01
c-0.01,0-0.01,0-0.01,0c-0.02-0.01-0.01-0.03-0.01-0.05c0,0,0,0,0,0c-0.02,0.01-0.01,0.05-0.03,0.05h-0.01
c-0.01,0.02-0.01,0.03,0,0.04c-0.01,0-0.03-0.02-0.03-0.04c-0.01,0-0.01-0.01-0.01-0.01c-0.02-0.01,0.01-0.04,0.02-0.05
c0,0,0-0.01-0.01,0c-0.02,0.02-0.05,0.01-0.05-0.02c0,0,0-0.01,0-0.01c-0.02,0-0.03,0.01-0.04,0.02c0-0.02,0.02-0.04,0.04-0.05
c0,0,0.01-0.01,0.03-0.01c0.02,0,0.06,0.01,0.07,0c0.01-0.02,0-0.02,0.01-0.07C18.71,9,18.7,9,18.69,9c-0.01,0-0.06-0.02-0.1,0.01
c-0.04,0.02,0.04,0.03-0.04,0.03c-0.05,0-0.08-0.01-0.11-0.03c0.02,0.03,0,0.05,0.02,0.06c0.03,0.02,0.04,0.07,0.03,0.09
c-0.01,0.01-0.05,0.01-0.08,0.01c-0.01,0-0.02,0-0.02,0c-0.03,0.01,0,0.04-0.04,0.05c-0.02,0.01-0.04,0-0.04-0.02c0,0,0,0-0.01,0
c0,0-0.01,0-0.01,0c0,0-0.01,0-0.01,0.01c0,0.01,0,0.02-0.01,0.02c0,0-0.01,0-0.01,0.01c0,0.01,0.02,0.01,0.03,0.02
c-0.03,0.02-0.06,0-0.06-0.02c0,0-0.01-0.02-0.01-0.02c0-0.01,0.01-0.01,0.01-0.01c0,0,0,0-0.01-0.01c0,0,0,0,0,0
c0,0.01-0.01,0.01-0.01,0.01c0,0-0.01,0-0.01,0c0,0.01,0.01,0.02,0.01,0.02c-0.03,0.01-0.05-0.01-0.04-0.03c0,0-0.01-0.02-0.01-0.02
c-0.01-0.06,0.06-0.02,0.06-0.05c0,0,0-0.01-0.01-0.01c-0.01,0-0.01,0-0.02,0c-0.02,0-0.02-0.01-0.02-0.02c0,0,0-0.01,0-0.01
c-0.02,0-0.03,0.01-0.04,0.02c0-0.02,0.03-0.05,0.05-0.05c0,0,0.01-0.01,0.01-0.01c0.06-0.02,0.06,0.09,0.11,0.06
c0.01,0,0.03-0.01,0.05-0.01c0,0,0,0,0-0.01c-0.01-0.01-0.04-0.02-0.06-0.02C18.25,9.07,18.25,9,18.27,8.96
c-0.01,0.01-0.05,0.03-0.07,0.02c-0.23-0.01-0.05,0.07-0.16,0.09c-0.02,0.01-0.07,0.06-0.13,0.06c0.01-0.01,0-0.03,0-0.04
c-0.01,0.02-0.04,0.03-0.06,0.03c-0.02,0.01-0.03,0.02-0.03,0.03c0,0.03-0.04,0.05-0.06,0.05c0.01-0.01,0.02-0.02,0.02-0.03
c0,0,0-0.01-0.01,0c-0.05,0.03-0.09,0-0.1,0.08c-0.02-0.02-0.01-0.05-0.02-0.05c0,0-0.01,0.01-0.01,0.02
c-0.01-0.01-0.01-0.02,0-0.03c0,0,0,0,0,0c-0.03,0.01-0.05,0.01-0.06,0c0,0,0,0,0,0c0-0.01-0.01-0.01-0.01-0.02
c-0.01,0.03-0.04,0.05-0.05,0.05c0.02-0.02,0.02-0.04,0.01-0.05c0,0.01-0.02,0.02-0.02,0.02c0-0.02,0-0.03-0.02-0.03c0,0,0,0,0,0
c0,0.01-0.01,0.04-0.04,0.04c-0.03,0-0.04-0.03-0.04-0.04c0,0,0-0.01-0.01,0c-0.01,0.01,0,0.04-0.03,0.05c0,0-0.01,0-0.02,0
c0,0.02,0.01,0.04,0.02,0.05c-0.02,0-0.05-0.02-0.05-0.05c0,0,0,0,0-0.01c-0.01,0-0.01-0.01-0.01-0.01
c-0.03-0.02,0.01-0.04,0.02-0.06c0,0,0-0.01,0,0c-0.05,0.04-0.07,0.02-0.07-0.01c0,0,0-0.01-0.01-0.02c-0.02,0-0.02,0.02-0.03,0.02
c-0.02-0.03,0.02-0.05,0.04-0.05c0,0,0,0,0.01,0c0.01,0,0.01-0.01,0.02-0.01c0.03-0.02,0.03,0.01,0.05,0.03
c0.01,0.01,0.02,0.01,0.03,0c0,0,0-0.01,0-0.01c-0.05-0.02-0.06-0.04-0.05-0.05c0,0,0-0.01,0.01-0.02C17.32,9,17.31,9,17.3,9
c0.01-0.01,0.04-0.01,0.06,0.01c0.01,0,0.02,0,0.02,0c0.01,0,0.02,0.01,0.03,0.02c0.01,0.02,0.01,0.03,0.02,0.04
c0.02,0.04,0.11,0,0.14-0.01c0.02-0.01,0.09-0.01,0.1-0.01c0,0,0.09-0.02,0.13-0.04c-0.03-0.03-0.05-0.07-0.05-0.07
c-0.01,0-0.01,0.01-0.01,0.02c-0.02,0-0.02-0.02-0.02-0.03c0,0,0-0.01,0-0.01c-0.01,0-0.01,0.01-0.01,0.01
c-0.01,0-0.01-0.01-0.01-0.02c0,0,0,0-0.01,0c-0.06,0.03-0.12-0.02-0.07-0.07c-0.01,0.05,0.06,0.06,0.07,0.01c0,0,0-0.01,0-0.01
c-0.04-0.01-0.04-0.03,0-0.06c0,0,0-0.01,0-0.01c-0.01,0-0.01,0-0.01-0.01c0,0-0.01,0-0.01,0c-0.02,0.01-0.02,0.01-0.03,0.01
c0,0-0.01-0.01-0.01-0.01c0,0,0,0-0.01,0c-0.01,0-0.01,0.02-0.01,0.02c-0.03-0.02-0.02-0.04,0-0.04c0-0.01,0-0.02,0-0.02
c0-0.02,0.02-0.03,0.07-0.02c0,0,0,0,0,0c0,0,0-0.01,0-0.01c0,0,0,0-0.01,0c-0.03,0-0.04-0.01-0.04-0.03c0,0,0-0.02,0.01-0.02
c0-0.01-0.01-0.01-0.02-0.01c0.03-0.03,0.06-0.01,0.05,0.01c0,0,0,0,0,0c0,0,0.01,0,0.02,0c0.02,0,0.03,0.03,0.03,0.05c0,0,0,0,0,0
c0-0.01,0-0.01,0-0.01c0,0,0,0,0-0.01c-0.01-0.01,0-0.02,0-0.03c0,0,0.01-0.01,0.02-0.01c0-0.02-0.01-0.03-0.01-0.03
c0.02,0,0.04,0.01,0.05,0.03c0,0.01,0,0.02,0,0.03c0,0.03-0.02,0.05-0.03,0.08c-0.01,0.03-0.01,0.05,0.03,0.07
c0.02,0.01,0.03,0.02,0.05,0.04h0c0-0.03,0.01-0.09,0.03-0.13c0-0.01-0.01-0.01-0.02-0.02c0.02,0,0.03-0.04,0.04-0.07
c-0.01,0-0.01-0.01-0.02-0.02c0.02,0,0.04-0.05,0.06-0.05c-0.01-0.03,0-0.04,0.01-0.06c0.02,0,0.03,0.01,0.04,0.02
c0-0.02,0.02-0.02,0.03-0.01c0,0,0.03-0.01,0.03,0c0.01,0,0.03,0,0.05,0.01c0.03,0.01,0.04,0.03,0.05,0.03
c0.01,0.01,0.01,0.03,0.01,0.03c0.01,0.01,0.02,0.02,0.01,0.03c0.01,0,0.03,0.01,0.04,0.02c0,0.02-0.02,0.04-0.04,0.04
c0.03,0.04-0.05,0.11-0.05,0.15c0.23-0.06,0.32,0.03,0.44,0.03c0.16,0,0.27-0.04,0.27-0.09c0-0.16-0.59-0.01-0.59-0.23
c0-0.03,0.02-0.06,0.06-0.09c0-0.01,0-0.03,0.01-0.04c0.06-0.08,0.18-0.09,0.23-0.15c0.01,0.03-0.02,0.09-0.07,0.12
c0.11-0.01,0.14-0.21,0.4-0.17c-0.21,0.04-0.21,0.24-0.51,0.27h-0.01c-0.03,0.02-0.04,0.04-0.04,0.06c0,0.14,0.59,0,0.59,0.23
C18.86,8.83,18.76,8.9,18.55,8.9z M17.41,9.65c-0.01,0.01-0.01,0.04,0.01,0.05c0.02,0.01,0.04-0.01,0.05-0.02s0.01-0.03,0-0.03
c-0.01-0.01-0.01-0.02-0.01-0.03c0.01-0.01,0.02-0.01,0.04,0c-0.01-0.01-0.01-0.03,0-0.03c0.01,0,0.01,0.03,0.02,0.02
c0.01,0,0-0.01,0.01-0.02c0-0.01-0.01-0.01-0.01-0.02l-0.07-0.03c-0.01,0-0.01-0.01-0.02,0c0,0-0.02,0.01-0.01,0.02
c0,0.01,0.02-0.01,0.03,0c0.01,0.01,0,0.01-0.02,0.02c0.01,0.01,0.03,0.02,0.02,0.03c0,0.01-0.01,0.02-0.03,0.01
C17.43,9.63,17.42,9.64,17.41,9.65z M17.49,9.48c-0.01,0-0.05-0.03-0.07-0.04c0.02,0.03,0,0.04,0.02,0.06
C17.46,9.52,17.48,9.5,17.49,9.48z M17.54,9.51c0,0.02,0.01,0.05,0.03,0.05c0.02,0,0.01-0.01,0.05-0.02
C17.6,9.54,17.55,9.52,17.54,9.51z M18.84,9.69c0,0.08-0.2,0.11-0.34,0.11c0.12,0.01,0.16,0.02,0.23,0.02
c0.04-0.01,0.04,0.02,0.04,0.02c0.01,0.03,0.05,0.02,0.06,0c0,0.03,0,0.05-0.02,0.05c0,0,0,0,0,0.01c0.01,0.02-0.01,0.05,0.03,0.05
c-0.01,0.02-0.02,0.02-0.04,0.02h0c0,0,0,0,0,0c0.02,0.01,0.02,0.02,0.02,0.03c0,0.05-0.05,0.03-0.05,0.06
c0,0.02,0.04,0.02,0.03,0.07c0,0-0.01,0.02-0.01,0.02c0,0.01,0.02,0.02,0.02,0.02c-0.03,0.01-0.05,0-0.06-0.02
c-0.01,0-0.02,0-0.02,0c-0.02-0.01-0.02-0.04-0.01-0.06c0,0,0,0,0,0c-0.02,0.01-0.01,0.06-0.03,0.05c0,0-0.01,0-0.02,0
c-0.01,0.02-0.01,0.03,0,0.04c-0.02,0-0.03-0.02-0.03-0.04c-0.01,0-0.02-0.01-0.02-0.01c-0.03-0.01,0.01-0.04,0.03-0.06
c0-0.01,0-0.01-0.01-0.01c-0.02,0.02-0.06,0.01-0.06-0.02c0,0,0-0.01,0-0.01c-0.02,0-0.04,0.02-0.04,0.02
c0-0.03,0.03-0.05,0.05-0.05c0,0,0.01-0.01,0.03-0.01c0.03,0,0.07,0.02,0.08,0c0.01-0.02-0.01-0.03,0.01-0.08
c0-0.02-0.01-0.02-0.02-0.02c-0.01,0-0.07-0.02-0.12,0.01c-0.04,0.03-0.07,0.04-0.16,0.04c-0.05,0-0.09-0.02-0.13-0.03
c0.02,0.03,0,0.06,0.02,0.07c0.04,0.02,0.04,0.08,0.03,0.1c-0.01,0.02-0.06,0.02-0.1,0.01c-0.01,0-0.02,0-0.03,0
c-0.03,0.01,0,0.05-0.04,0.06c-0.02,0.01-0.04-0.01-0.05-0.02c0,0,0-0.01-0.01,0c-0.01,0-0.01,0-0.02,0c0,0-0.01,0-0.01,0.01
c0,0.01,0,0.02-0.01,0.03c0,0-0.01,0.01-0.02,0.01c0,0.01,0.03,0.02,0.04,0.02c-0.04,0.03-0.07,0-0.07-0.03c0,0-0.01-0.02-0.01-0.02
c0-0.01,0-0.01,0-0.01c0,0,0-0.01-0.01-0.01c0,0,0,0,0,0c0,0.01,0,0.01-0.01,0.01c0,0-0.01,0-0.02,0c0,0.01,0.01,0.02,0.02,0.02
c-0.04,0.01-0.05-0.01-0.05-0.03c0,0-0.01-0.02-0.01-0.02C17.91,10.03,18,10.07,18,10.04c0-0.01,0-0.01-0.01-0.01
c-0.01,0-0.01,0.01-0.03,0.01c-0.02,0-0.03-0.01-0.02-0.02v-0.01c-0.02,0-0.03,0.01-0.04,0.02c-0.01-0.03,0.03-0.06,0.06-0.06
c0,0,0.01-0.01,0.02-0.01c0.07-0.03,0.07,0.11,0.13,0.07c0.01,0,0.03-0.01,0.06-0.01c0,0,0.01,0,0-0.01
c-0.01-0.01-0.05-0.03-0.07-0.03c-0.04-0.01-0.04-0.09-0.02-0.12C18.06,9.87,18.02,9.89,18,9.89c-0.29-0.05-0.17,0.13-0.35,0.11
c-0.01,0-0.04,0-0.06,0.01c-0.01,0.04-0.12,0.14-0.18,0.12c0.01-0.01,0.02-0.02,0.02-0.03c0,0,0-0.01,0,0
c-0.06,0.04-0.11,0-0.12,0.09c-0.02-0.02-0.01-0.06-0.02-0.06c0,0-0.01,0.01-0.01,0.02c-0.01-0.01-0.01-0.02,0-0.04c0,0,0-0.01,0,0
c-0.04,0.01-0.06,0.01-0.07,0c0,0,0,0,0,0c0-0.01-0.01-0.01-0.01-0.02c-0.01,0.04-0.05,0.06-0.06,0.06
c0.02-0.02,0.02-0.04,0.01-0.06c-0.01,0.01-0.02,0.02-0.03,0.03c0-0.02-0.01-0.03-0.02-0.04c0,0,0,0,0,0c0,0.02-0.01,0.05-0.05,0.05
C17,10.13,17,10.1,17,10.08c0,0,0-0.01-0.01,0c-0.02,0.01,0,0.05-0.03,0.06c0,0-0.01,0-0.02,0c0,0.03,0.01,0.04,0.02,0.05
c-0.02,0-0.06-0.03-0.05-0.06c0,0,0,0,0-0.01c-0.01-0.01-0.01-0.01-0.01-0.01c-0.03-0.02,0.01-0.05,0.02-0.07c0,0,0-0.01,0,0
c-0.06,0.04-0.08,0.02-0.08-0.01c0,0,0-0.01-0.01-0.02c-0.02,0-0.03,0.02-0.03,0.03c-0.02-0.03,0.02-0.06,0.05-0.06c0,0,0,0,0.01,0
c0.01,0,0.02-0.01,0.02-0.01c0.03-0.02,0.03,0.01,0.06,0.03c0.01,0.01,0.02,0.01,0.03,0c0.01,0,0-0.01,0-0.01
c-0.06-0.02-0.07-0.04-0.06-0.05c0,0,0.01-0.01,0.01-0.02c-0.01-0.02-0.03-0.02-0.04-0.03c0.01-0.01,0.05-0.01,0.07,0.01
c0.01,0,0.02,0,0.02,0c0.01,0,0.02,0.01,0.03,0.03C17,9.94,16.99,9.95,17,9.97c0.03,0.04,0.12,0,0.16-0.02c0.03-0.01,0.13,0,0.15,0
c0.01,0-0.03-0.05-0.02-0.09c-0.03,0.03-0.05-0.02-0.09-0.03c-0.05-0.03-0.07-0.07-0.08-0.07c-0.01,0-0.01,0.01-0.01,0.02
c-0.02,0-0.03-0.02-0.03-0.04c0,0,0-0.01,0-0.01c-0.01,0-0.01,0.01-0.01,0.01c-0.01,0-0.02-0.01-0.02-0.02c0,0,0,0-0.01,0
c-0.06,0.03-0.13-0.02-0.09-0.08c-0.01,0.06,0.07,0.07,0.08,0.01c0-0.01,0-0.01-0.01-0.01c-0.04-0.01-0.04-0.04-0.01-0.07
c0,0,0-0.01,0-0.01c0,0-0.01-0.01-0.01-0.01c0,0-0.01,0-0.01,0c-0.02,0.01-0.02,0.01-0.03,0.01c0,0-0.01-0.01-0.01-0.01
c0,0,0,0-0.01,0c-0.01,0-0.01,0.02-0.01,0.03c-0.03-0.02-0.02-0.04-0.01-0.06c0,0,0-0.02,0-0.02c0-0.02,0.02-0.04,0.07-0.02
c0,0,0.01,0,0.01,0c0,0,0-0.01,0-0.01c0,0,0,0-0.01,0c-0.03,0-0.05-0.01-0.05-0.04c0,0,0-0.02,0.01-0.03c0-0.01-0.02-0.01-0.02-0.01
c0.03-0.03,0.06-0.01,0.06,0.02c0,0,0,0,0,0c0,0,0.02,0,0.02,0c0.02,0,0.03,0.04,0.04,0.06c0,0,0,0.01,0,0c0-0.01,0-0.01,0-0.02
c0,0,0,0,0-0.01c-0.01-0.01-0.01-0.03,0-0.04c0,0,0.01-0.01,0.02-0.02c0-0.02-0.01-0.03-0.02-0.04c0.02,0,0.05,0.01,0.05,0.04
c0,0.01,0.01,0.03,0.01,0.03c0,0.03-0.02,0.07-0.02,0.1c0,0.04,0,0.06,0.04,0.09c0.04,0.02,0.07,0.06,0.09,0.08l0.03,0.01
c-0.01,0-0.01,0-0.02,0c0.01,0,0.01,0.01,0.02,0.01c0,0,0.01,0,0.01,0l0.04,0.02c0-0.02,0-0.05,0.01-0.08
c-0.01,0-0.02-0.01-0.04-0.03c0.02,0,0.03-0.04,0.05-0.08c-0.01,0-0.01-0.01-0.02-0.03c0.02,0.01,0.05-0.05,0.07-0.06
c-0.01-0.03,0-0.05,0.01-0.07c0.02,0,0.03,0.01,0.05,0.02c0-0.02,0.02-0.02,0.04-0.02c0,0,0.03-0.01,0.04-0.01
c0.01,0,0.03,0,0.06,0.02c0.03,0.01,0.05,0.03,0.06,0.04c0.01,0,0.01,0.03,0.01,0.04c0.01,0.01,0.02,0.02,0.01,0.04
c0.02,0,0.04,0.01,0.05,0.02c0,0.02-0.02,0.04-0.04,0.05c0.03,0.03-0.02,0.09-0.05,0.14c0.28-0.05,0.74,0.02,0.89,0.02
c0.1,0,0.27-0.01,0.27-0.06c0-0.03-0.04-0.05-0.21-0.05c-0.18,0-0.73,0.12-0.73-0.09c0-0.1,0.12-0.1,0.27-0.09
c0,0,0.01-0.01,0.02-0.01c0.11-0.07,0.29,0.02,0.38-0.04c-0.01,0.03-0.05,0.07-0.17,0.07c0.2,0.04,0.36-0.11,0.56,0.04
c-0.16-0.05-0.48,0.09-0.75,0.02c-0.02-0.01-0.04-0.01-0.04-0.02c-0.11-0.01-0.2-0.01-0.2,0.05c0,0.12,0.47,0.04,0.68,0.04
C18.77,9.58,18.84,9.62,18.84,9.69z M17.17,10.57c-0.01,0.01-0.01,0.04,0.01,0.05c0.02,0.01,0.04-0.01,0.04-0.02
c0-0.01,0.01-0.03,0-0.03c-0.01-0.01-0.01-0.02,0-0.03c0.01-0.01,0.02-0.01,0.04,0c0-0.01,0-0.03,0-0.02c0.01,0,0.01,0.02,0.02,0.02
c0.01,0,0-0.01,0-0.02c0-0.01,0-0.01-0.01-0.02l-0.06-0.03c-0.01,0-0.01-0.01-0.02,0c0,0-0.02,0.01-0.01,0.02
c0,0.01,0.02-0.01,0.03,0c0.01,0.01,0,0.01-0.01,0.02c0.01,0.01,0.03,0.02,0.02,0.03c0,0.01-0.01,0.02-0.03,0.02
C17.19,10.55,17.18,10.56,17.17,10.57z M17.25,10.41c-0.01,0-0.05-0.02-0.07-0.04c0.02,0.03,0,0.04,0.02,0.05
C17.22,10.44,17.24,10.43,17.25,10.41z M17.29,10.44c0,0.02,0,0.05,0.03,0.05c0.02,0,0.02-0.01,0.05-0.02
C17.35,10.46,17.3,10.44,17.29,10.44z M18.75,10.6c0,0.07-0.21,0.1-0.32,0.11c0.11,0.01,0.16,0.02,0.22,0.02
c0.04-0.01,0.04,0.02,0.04,0.02c0,0.03,0.04,0.01,0.05,0c0,0.03,0,0.04-0.02,0.05c0,0,0,0,0,0.01c0.01,0.02-0.01,0.05,0.03,0.05
c-0.01,0.02-0.02,0.01-0.04,0.01v0c0,0,0,0,0,0c0.02,0.01,0.02,0.02,0.02,0.03c0,0.05-0.05,0.03-0.05,0.06
c0,0.02,0.04,0.02,0.03,0.07c0,0-0.01,0.01-0.01,0.02c0,0.01,0.02,0.02,0.03,0.02c-0.03,0.01-0.05,0-0.06-0.02
c-0.01,0-0.01,0-0.02,0c-0.02-0.01-0.02-0.03-0.01-0.06c0,0,0,0,0,0c-0.02,0.01-0.01,0.05-0.03,0.05h-0.02
c-0.01,0.02-0.01,0.03,0,0.04c-0.02,0-0.03-0.02-0.03-0.04c-0.01,0-0.01-0.01-0.02-0.01c-0.03-0.01,0.01-0.04,0.02-0.06
c0,0,0-0.01-0.01,0c-0.02,0.02-0.05,0.01-0.06-0.02c0,0,0-0.01,0-0.01c-0.02,0-0.03,0.02-0.04,0.02c0-0.03,0.03-0.05,0.05-0.05
c0,0,0.01-0.01,0.03-0.01c0.03,0,0.07,0.02,0.07,0c0.01-0.02-0.01-0.03,0-0.07c0-0.02-0.01-0.02-0.02-0.02
c-0.01,0-0.06-0.02-0.11,0.01c-0.04,0.02-0.06,0.04-0.15,0.04c-0.05,0-0.09-0.02-0.12-0.03c0.02,0.03,0,0.05,0.02,0.07
c0.04,0.02,0.04,0.08,0.03,0.1c-0.01,0.01-0.06,0.02-0.09,0.01c-0.01,0-0.02,0-0.02,0c-0.03,0.01,0,0.04-0.04,0.06
c-0.02,0.01-0.04,0-0.05-0.02c0,0,0-0.01-0.01-0.01c0,0-0.01,0-0.01,0c0,0-0.01,0-0.01,0.01c0,0.01,0,0.02-0.01,0.02
c0,0-0.01,0-0.02,0.01c0,0.01,0.02,0.02,0.03,0.02c-0.03,0.02-0.07,0-0.07-0.02c0,0-0.01-0.02-0.01-0.02c0-0.01,0-0.01,0-0.01
c0,0,0,0-0.01-0.01c0,0,0,0,0,0c0,0.01-0.01,0.01-0.01,0.01h-0.02c0,0.01,0.01,0.02,0.02,0.02c-0.04,0.01-0.05-0.01-0.05-0.03
c0-0.01-0.01-0.02-0.01-0.02c-0.01-0.07,0.06-0.03,0.06-0.05c0,0,0-0.01-0.01-0.01c-0.01,0-0.01,0.01-0.03,0.01
c-0.02,0-0.03-0.01-0.02-0.02c0,0,0-0.01,0-0.01c-0.02,0-0.03,0.02-0.04,0.02c-0.01-0.03,0.03-0.05,0.05-0.05
c0,0,0.01-0.01,0.02-0.01c0.06-0.02,0.06,0.1,0.12,0.06c0.01,0,0.03-0.01,0.05-0.01c0,0,0.01,0,0-0.01
c-0.01-0.01-0.05-0.03-0.07-0.03C18,10.87,18,10.81,18.02,10.77c-0.02,0.01-0.02,0.02-0.04,0.02c-0.38-0.04-0.19,0.15-0.52,0.1
c-0.02,0-0.02,0.04-0.07,0.04c0,0,0,0,0,0c-0.01,0-0.02,0-0.03,0.01c0,0.01,0,0.02-0.01,0.03L17.26,11c0,0,0,0,0.01-0.01
c-0.02,0.02-0.05,0.03-0.07,0.03c0.01-0.01,0.02-0.02,0.03-0.03c0,0,0-0.01-0.01,0c-0.06,0.04-0.16-0.01-0.17,0.08
c-0.02-0.02-0.01-0.05-0.02-0.05c-0.01,0-0.01,0.01-0.01,0.02c-0.01-0.01-0.01-0.02,0-0.04c0,0,0,0,0,0C16.97,11,16.95,11,16.94,11
c0,0,0,0,0,0c0-0.01-0.01-0.01-0.01-0.02c-0.01,0.04-0.04,0.05-0.06,0.06c0.02-0.02,0.02-0.04,0.01-0.06
C16.87,10.99,16.86,11,16.85,11c0-0.02,0-0.03-0.02-0.04c0,0,0,0,0,0c0,0.02-0.01,0.05-0.05,0.05c-0.04,0-0.04-0.03-0.04-0.04
c0,0,0-0.01-0.01,0c-0.02,0.01,0,0.05-0.03,0.06c0,0-0.01,0-0.02,0c0,0.03,0.01,0.04,0.02,0.05c-0.02,0-0.06-0.02-0.05-0.06
c0,0,0,0,0,0c-0.01,0-0.01-0.01-0.01-0.01c-0.03-0.02,0.01-0.05,0.02-0.07c0,0,0-0.01,0,0c-0.06,0.04-0.07,0.02-0.08-0.01
c0,0,0-0.01,0-0.02c-0.02,0-0.03,0.02-0.03,0.03c-0.02-0.03,0.02-0.06,0.05-0.06c0,0,0,0,0.01,0c0.01,0,0.02-0.01,0.02-0.01
c0.03-0.01,0.03,0.01,0.05,0.03c0.01,0.01,0.03,0.01,0.03,0c0,0,0-0.01,0-0.01c-0.06-0.02-0.06-0.04-0.06-0.05
c0,0,0.01-0.01,0.01-0.02c-0.01-0.02-0.02-0.02-0.04-0.02c0.01-0.01,0.05-0.01,0.06,0.01c0.01,0,0.02,0,0.02,0
c0.01,0,0.02,0.01,0.03,0.02c0.01,0.02,0.01,0.03,0.02,0.04c0.03,0.04,0.12,0.01,0.16-0.01c0.03-0.01,0.15-0.01,0.16-0.01
c0.01,0-0.02-0.05-0.02-0.08c-0.01-0.01-0.02-0.01-0.02-0.02c-0.01,0.02-0.03,0.02-0.05,0.02c-0.08-0.04-0.12-0.12-0.13-0.12
c-0.01,0-0.01,0.01-0.01,0.02c-0.02,0-0.03-0.02-0.03-0.04c0,0,0-0.01,0-0.01c-0.01,0-0.01,0.01-0.01,0.01
c-0.01,0-0.02-0.01-0.02-0.02c0,0,0,0-0.01,0c-0.05,0.03-0.13-0.02-0.09-0.08c0,0.06,0.07,0.07,0.07,0.01c0,0,0-0.01-0.01-0.01
c-0.04-0.01-0.05-0.04-0.02-0.07c0,0,0,0,0-0.01c0,0-0.01-0.01-0.01-0.01c0,0-0.01,0-0.01,0c-0.01,0.01-0.02,0.01-0.03,0.01
c0,0-0.01-0.01-0.01-0.01c0,0,0,0-0.01,0c-0.01,0-0.01,0.02-0.01,0.03c-0.03-0.02-0.03-0.04-0.01-0.05c0,0,0-0.02,0-0.02
c0-0.02,0.02-0.04,0.06-0.02c0,0,0.01,0,0,0c0,0,0-0.01,0-0.01c0,0,0,0-0.01,0c-0.03,0-0.05-0.01-0.05-0.04c0,0,0-0.02,0.01-0.03
c-0.01-0.01-0.02-0.01-0.02-0.01c0.03-0.03,0.06-0.01,0.06,0.01c0,0,0,0,0,0.01c0,0,0.01,0,0.02,0c0.02,0,0.03,0.04,0.04,0.06
c0,0,0,0.01,0,0c0-0.01,0-0.01,0-0.02c0,0,0,0,0-0.01c-0.01-0.01-0.01-0.03,0-0.03c0,0,0.01-0.01,0.01-0.02
c0-0.02-0.01-0.03-0.02-0.03c0.02,0,0.05,0.01,0.05,0.03c0,0.01,0.01,0.03,0.01,0.03c0,0.03-0.01,0.06-0.01,0.1
c0,0.04,0,0.06,0.04,0.08c0.05,0.03,0.08,0.08,0.11,0.08c0.01,0,0.02,0,0.03,0c0,0,0.02,0,0.03,0l0.02,0.01c0-0.02,0-0.04,0.01-0.06
c-0.01,0-0.01-0.01-0.02-0.02c0.02,0,0.03-0.04,0.05-0.08c-0.01,0-0.01-0.01-0.02-0.03c0.02,0.01,0.05-0.05,0.07-0.05
c-0.01-0.03,0-0.05,0.01-0.07c0.02,0,0.03,0.01,0.04,0.02c0-0.02,0.02-0.02,0.03-0.01c0,0,0.03-0.01,0.04,0c0.01,0,0.03,0,0.06,0.02
c0.03,0.01,0.05,0.03,0.06,0.04c0,0,0.01,0.03,0.01,0.03c0.01,0.01,0.02,0.02,0.01,0.03c0.02,0,0.03,0.01,0.05,0.02
c0,0.02-0.02,0.04-0.04,0.05c0.03,0.04-0.03,0.1-0.05,0.15c0.26-0.08,0.91,0.01,1.06,0.01c0.09,0,0.26-0.01,0.26-0.06
c0-0.03-0.03-0.05-0.2-0.05c-0.17,0-0.86,0.12-0.86-0.08c0-0.11,0.23-0.09,0.42-0.09c0-0.01,0.01-0.01,0.02-0.01
c0.1-0.07,0.35,0.03,0.44-0.03c-0.01,0.03-0.12,0.05-0.24,0.05c0.19,0.04,0.38-0.11,0.52,0.03c-0.18-0.06-0.45,0.11-0.71,0.04
c-0.02-0.01-0.04-0.02-0.04-0.03c-0.15,0-0.36-0.03-0.36,0.04c0,0.11,0.61,0.04,0.81,0.04C18.68,10.5,18.75,10.54,18.75,10.6z
M20.02,11.89c-0.01,0.01-0.01,0.04,0.01,0.05c0.02,0.01,0.04-0.01,0.04-0.02c0-0.02,0.01-0.03,0-0.03
c-0.01-0.01-0.01-0.02-0.01-0.03c0.01-0.02,0.02-0.01,0.04,0c-0.01-0.01-0.01-0.02,0-0.02c0.01,0,0.01,0.02,0.02,0.02
c0.01,0,0-0.01,0-0.02c0-0.01-0.01-0.01-0.01-0.02l-0.06-0.03c-0.01,0-0.01,0-0.02,0c0,0-0.02,0.01-0.01,0.02
c0,0.01,0.02-0.01,0.02,0c0.01,0.01,0,0.01-0.01,0.02c0.01,0.01,0.03,0.02,0.02,0.03c-0.01,0.01-0.01,0.02-0.03,0.02
C20.03,11.86,20.03,11.87,20.02,11.89z M20.14,11.75c0,0.02,0.01,0.05,0.03,0.05c0.02,0,0.01-0.01,0.05-0.02
C20.2,11.78,20.15,11.76,20.14,11.75z M21.57,12.12c0,0.02-0.01,0.05,0.03,0.05c-0.01,0.02-0.02,0.01-0.04,0.01h0c0,0,0,0,0,0
c0.02,0.01,0.02,0.02,0.02,0.03c0,0.05-0.05,0.03-0.05,0.06c0,0.02,0.04,0.02,0.02,0.07c0,0-0.01,0.01-0.02,0.02
c0,0.01,0.02,0.02,0.02,0.02c-0.03,0.01-0.05,0-0.05-0.02c-0.01,0-0.01,0-0.02,0c-0.02-0.01-0.01-0.03,0-0.06c0,0,0,0,0,0
c-0.02,0.01-0.02,0.05-0.04,0.05h-0.02c-0.01,0.02-0.01,0.03,0,0.04c-0.02,0-0.03-0.02-0.03-0.04c-0.01,0-0.01-0.01-0.01-0.01
c-0.03-0.01,0.01-0.04,0.03-0.06c0,0,0-0.01-0.01,0c-0.02,0.02-0.06,0.01-0.06-0.02v-0.01c-0.02,0-0.03,0.01-0.04,0.02
c0-0.03,0.03-0.05,0.05-0.05c0,0,0.01-0.01,0.03-0.01c0.03,0,0.07,0.02,0.08,0c0.01-0.02,0-0.03,0.01-0.07
c0-0.01-0.01-0.02-0.01-0.02c-0.01,0-0.06-0.02-0.11,0.01c-0.04,0.03-0.07,0.04-0.16,0.04c-0.05,0-0.09-0.02-0.12-0.03
c0.02,0.03,0,0.06,0.02,0.07c0.04,0.02,0.04,0.08,0.03,0.1c-0.01,0.02-0.06,0.02-0.09,0.01c-0.01,0-0.02,0-0.03,0
c-0.03,0.01,0,0.04-0.04,0.06c-0.02,0.01-0.04,0-0.05-0.02c0,0,0-0.01-0.01,0c-0.01,0-0.01,0-0.02,0c0,0-0.01,0-0.01,0.01
c0,0.01,0,0.02-0.01,0.02c0,0-0.01,0-0.02,0.01c0,0.01,0.03,0.02,0.04,0.02c-0.04,0.02-0.07,0-0.07-0.02c0,0-0.01-0.02-0.01-0.02
c0-0.01,0-0.01,0-0.01c0,0,0,0-0.01-0.01c0,0,0,0,0,0c0,0.01,0,0.01-0.01,0.01c0,0-0.01,0-0.01,0c0,0.01,0.01,0.02,0.02,0.02
c-0.03,0.01-0.05-0.01-0.05-0.03c0,0-0.01-0.02-0.01-0.02c-0.01-0.06,0.06-0.03,0.06-0.05c0,0,0-0.01-0.01-0.01
c-0.01,0-0.01,0.01-0.02,0.01c-0.02,0-0.03-0.01-0.02-0.02v-0.01c-0.02,0-0.03,0.01-0.04,0.02c-0.01-0.03,0.03-0.06,0.05-0.05
c0,0,0.01-0.01,0.02-0.01c0.06-0.02,0.06,0.1,0.12,0.07c0.01,0,0.03-0.01,0.05-0.01c0,0,0.01,0,0-0.01
c-0.01-0.01-0.05-0.02-0.07-0.03c-0.04-0.01-0.04-0.08-0.02-0.12c-0.01,0.01-0.02,0.04-0.04,0.04c-0.38-0.04-0.2,0.15-0.52,0.1
c-0.02,0-0.02,0.04-0.07,0.04c-0.03,0.01-0.06,0.01-0.06,0.02c0,0.03-0.08,0.08-0.1,0.07c0.01-0.01,0.02-0.02,0.03-0.03
c0-0.01,0-0.01-0.01,0c-0.06,0.04-0.1,0-0.11,0.09c-0.02-0.02-0.01-0.06-0.02-0.06c-0.01,0-0.01,0.01-0.01,0.02
c-0.01-0.01-0.01-0.02,0-0.04c0,0,0,0,0,0c-0.03,0.01-0.06,0.01-0.07,0c0,0,0,0,0,0c0-0.01-0.01-0.01-0.01-0.02
c-0.01,0.04-0.04,0.05-0.06,0.06c0.02-0.02,0.02-0.04,0.01-0.06c-0.01,0.01-0.02,0.02-0.03,0.03c0-0.02-0.01-0.03-0.02-0.04
c0,0,0,0,0,0c0,0.02-0.01,0.05-0.04,0.05c-0.04,0-0.04-0.03-0.04-0.04c0,0,0-0.01-0.01,0c-0.02,0.01,0,0.05-0.03,0.06
c0,0-0.01,0-0.02,0c0,0.02,0.01,0.04,0.02,0.05c-0.02,0-0.06-0.02-0.05-0.06c0,0,0,0,0-0.01c-0.01,0-0.01-0.01-0.01-0.01
c-0.03-0.02,0.01-0.04,0.02-0.07c0,0,0-0.01,0,0c-0.06,0.04-0.07,0.02-0.08-0.01c0,0,0-0.01,0-0.02c-0.02,0-0.03,0.02-0.03,0.03
c-0.02-0.03,0.02-0.06,0.05-0.06c0,0,0,0,0.01,0c0.01,0,0.02-0.01,0.02-0.01c0.03-0.02,0.03,0.01,0.05,0.03
c0.01,0.01,0.02,0.01,0.03,0c0,0,0-0.01,0-0.01c-0.06-0.02-0.06-0.04-0.05-0.05c0,0,0.01-0.01,0.01-0.02
c-0.01-0.02-0.02-0.02-0.03-0.02c0.01-0.01,0.05-0.01,0.06,0.01c0.01,0,0.02,0,0.02,0c0.01,0,0.02,0.01,0.03,0.02
c0.01,0.02,0.01,0.03,0.02,0.05c0.03,0.04,0.12,0,0.16-0.02c0.03-0.01,0.1,0,0.11,0c0.01,0-0.04-0.04-0.03-0.08l-0.01,0.01
c-0.01-0.01-0.02-0.02-0.03-0.04c-0.02,0.01-0.05,0.02-0.05,0.03c-0.08-0.04-0.12-0.13-0.13-0.13c-0.01,0-0.01,0.01-0.01,0.02
c-0.02,0-0.03-0.02-0.03-0.04c0,0,0-0.01,0-0.01c-0.01,0-0.01,0.01-0.01,0.01c-0.01,0-0.02-0.01-0.02-0.02c0,0,0,0-0.01,0
c-0.05,0.03-0.13-0.02-0.09-0.08c0,0.06,0.07,0.07,0.07,0.01c0,0,0-0.01-0.01-0.01c-0.04-0.01-0.05-0.04-0.01-0.07
c0,0,0-0.01,0-0.01c-0.01,0-0.01-0.01-0.01-0.01c-0.01,0-0.01,0-0.01,0c-0.02,0.01-0.02,0.01-0.03,0.01c0,0-0.01-0.01-0.01-0.01
c0,0,0,0-0.01,0c-0.01,0-0.01,0.02-0.01,0.03c-0.03-0.02-0.03-0.04-0.01-0.05c0,0,0-0.02,0-0.02c0-0.02,0.02-0.04,0.07-0.02
c0,0,0.01,0,0,0c0,0,0-0.01,0-0.01c0,0,0-0.01-0.01-0.01c-0.03,0-0.05-0.01-0.04-0.04c0,0,0-0.02,0.01-0.03
c0-0.01-0.02-0.01-0.02-0.01c0.03-0.03,0.06-0.01,0.06,0.01c0,0,0,0,0,0c0,0,0.01,0,0.02,0c0.02,0,0.03,0.04,0.04,0.06
c0,0,0,0.01,0,0c0-0.01,0-0.01,0-0.02c0,0,0,0,0-0.01c-0.01-0.01-0.01-0.03,0-0.04c0,0,0.01-0.01,0.02-0.02
c0-0.02-0.01-0.03-0.02-0.03c0.02,0,0.05,0.01,0.05,0.03c0,0.01,0.01,0.03,0.01,0.03c0,0.03-0.01,0.06-0.01,0.1
c0,0.04,0,0.06,0.04,0.08c0.05,0.03,0.08,0.08,0.11,0.08c0.01,0,0.02,0,0.03,0.01c0,0,0.02,0,0.03,0l0.03,0.01
c0-0.02,0-0.04,0.01-0.06c-0.01,0-0.02-0.01-0.03-0.03c0.02,0,0.03-0.04,0.05-0.08c-0.01,0-0.01-0.01-0.02-0.03
c0.02,0.01,0.05-0.05,0.07-0.05c-0.01-0.03,0-0.05,0.01-0.07c0.02,0,0.03,0.01,0.05,0.02c0-0.02,0.02-0.02,0.03-0.01
c0,0,0.03-0.01,0.04,0c0.01,0,0.03,0,0.06,0.02c0.03,0.01,0.05,0.03,0.06,0.04c0.01,0,0.01,0.03,0.01,0.03
c0.01,0.01,0.02,0.02,0.01,0.03c0.02,0,0.03,0.01,0.05,0.02c0,0.02-0.02,0.04-0.04,0.05c0.03,0.03-0.03,0.1-0.05,0.14
c0.26-0.08,0.91,0.01,1.06,0.01c0.09,0,0.26-0.01,0.26-0.06c0-0.03-0.04-0.05-0.2-0.05c-0.17,0-0.86,0.11-0.86-0.08
c0-0.11,0.23-0.09,0.42-0.09c0,0,0.01-0.01,0.02-0.01c0.1-0.07,0.35,0.03,0.44-0.03c-0.01,0.03-0.13,0.05-0.24,0.05
c0.19,0.04,0.32-0.08,0.52-0.01c-0.15-0.04-0.45,0.15-0.7,0.07c-0.02-0.01-0.04-0.02-0.04-0.03c-0.15,0-0.36-0.03-0.36,0.04
c0,0.11,0.61,0.04,0.81,0.04c0.2,0,0.27,0.04,0.27,0.1c0,0.07-0.21,0.09-0.32,0.1c-0.01,0-0.01,0.01,0,0.01
c0.11,0.01,0.17,0.02,0.23,0.02c0.04-0.01,0.04,0.02,0.04,0.02c0,0.03,0.04,0.01,0.06,0C21.6,12.09,21.59,12.11,21.57,12.12
C21.57,12.12,21.57,12.12,21.57,12.12z M20.14,12.68c0.02,0,0.01-0.01,0.05-0.02c-0.02-0.01-0.06-0.02-0.07-0.03
C20.11,12.65,20.12,12.68,20.14,12.68z M20.1,12.72c0.01,0,0-0.01,0-0.02c0-0.01,0-0.01-0.01-0.02l-0.06-0.03c-0.01,0-0.01,0-0.02,0
c0,0-0.01,0.01-0.01,0.01c0,0.01,0.01-0.01,0.02,0c0.01,0.01,0,0.01-0.01,0.02c0.01,0.01,0.03,0.02,0.02,0.03
c0,0.01-0.01,0.02-0.02,0.01c-0.01,0-0.01,0.01-0.02,0.02c-0.01,0.01-0.01,0.04,0.01,0.05s0.04-0.01,0.04-0.02
c0-0.01,0.01-0.02,0-0.03c-0.01-0.01-0.01-0.02-0.01-0.03c0.01-0.01,0.02-0.01,0.03,0c-0.01-0.01-0.01-0.02,0-0.02
C20.1,12.7,20.1,12.72,20.1,12.72z M20.68,12.62c-0.1-0.01-0.18-0.01-0.18,0.04c0,0.11,0.43,0.04,0.62,0.04
c0.19,0,0.2,0.04,0.2,0.09c0,0.07-0.22,0.09-0.33,0.09c-0.01,0-0.01,0.01,0,0.01c0.11,0.01,0.19,0.02,0.25,0.02
c0.04-0.01,0.03,0.01,0.03,0.02c0,0.03,0.04,0.01,0.05,0c0,0.03-0.01,0.04-0.03,0.05c0,0,0,0.01,0,0.01c0,0.02-0.02,0.05,0.02,0.04
c-0.01,0.02-0.02,0.02-0.04,0.02h0c0,0,0,0,0,0c0.01,0.01,0.01,0.02,0.01,0.03c-0.01,0.05-0.06,0.03-0.06,0.05
c0,0.02,0.03,0.02,0.01,0.07c0,0-0.01,0.01-0.02,0.02c0,0.01,0.01,0.01,0.02,0.02c-0.03,0.01-0.05,0-0.05-0.02
c-0.01,0-0.01,0-0.01,0c-0.02-0.01-0.01-0.03,0.01-0.05c0,0,0,0,0,0c-0.03,0.01-0.03,0.05-0.04,0.05c0,0-0.01,0-0.02,0
c-0.01,0.02-0.01,0.03-0.01,0.04c-0.01,0-0.02-0.02-0.02-0.04c-0.01,0-0.01-0.01-0.02-0.01c-0.02-0.01,0.02-0.04,0.04-0.05
c0.01-0.01,0-0.01-0.01-0.01c-0.02,0.02-0.06,0.01-0.05-0.02c0,0,0-0.01,0-0.01c-0.02,0-0.04,0.02-0.04,0.02
c0-0.02,0.04-0.04,0.06-0.05c0,0,0.01-0.01,0.03-0.01c0.03,0,0.06,0.02,0.07,0c0.01-0.02,0-0.02,0.02-0.07
c0.01-0.01,0-0.02-0.01-0.02c-0.01,0-0.06-0.02-0.11,0.01c-0.04,0.02-0.09,0.04-0.17,0.04c-0.05,0-0.09-0.01-0.12-0.03
c0.02,0.03,0,0.05,0.02,0.06c0.04,0.02,0.04,0.08,0.03,0.09c-0.01,0.01-0.06,0.01-0.09,0.01c-0.01,0-0.02,0-0.02,0
c-0.03,0.01,0,0.04-0.04,0.06c-0.02,0.01-0.04,0-0.05-0.02c0,0,0-0.01-0.01,0c0,0-0.01,0-0.01,0c0,0-0.01,0-0.01,0
c0,0.01,0,0.02-0.01,0.02c0,0-0.01,0-0.02,0.01c0,0.01,0.02,0.02,0.03,0.02c-0.03,0.02-0.07,0-0.06-0.02c0,0-0.01-0.02-0.01-0.02
c0-0.01,0-0.01,0-0.01c0,0,0-0.01-0.01-0.01c0,0,0,0,0,0c0,0.01,0,0.01-0.01,0.01c0,0-0.01,0-0.01,0c0,0.01,0.01,0.02,0.02,0.02
c-0.03,0.01-0.05-0.01-0.05-0.03c0,0-0.01-0.02-0.01-0.02c-0.01-0.06,0.06-0.03,0.06-0.05c0,0,0-0.01-0.01-0.01
c-0.01,0-0.01,0.01-0.02,0.01c-0.02,0-0.02-0.01-0.02-0.02c0,0,0-0.01,0-0.01c-0.02,0-0.03,0.01-0.04,0.02
c-0.01-0.02,0.03-0.05,0.05-0.05c0,0,0.01-0.01,0.02-0.01c0.06-0.02,0.06,0.1,0.12,0.06c0.01-0.01,0.03-0.01,0.05-0.01
c0,0,0.01,0,0-0.01c-0.01-0.01-0.05-0.02-0.06-0.03c-0.04-0.01-0.04-0.08-0.02-0.11c-0.01,0.01-0.05,0.03-0.06,0.03
c-0.27-0.05-0.14,0.11-0.3,0.09c-0.02,0-0.01,0.04-0.07,0.04c0.01-0.01,0.01-0.02,0.01-0.03c0,0.01-0.01,0.01-0.01,0.02
c-0.02,0.04-0.08,0.12-0.13,0.08c0.01-0.01,0.02-0.02,0.02-0.03c0-0.01,0-0.01-0.01,0c-0.05,0.03-0.12,0.01-0.13,0.1
c-0.02-0.02-0.01-0.05-0.02-0.05c0,0-0.01,0.01-0.01,0.02c-0.01-0.01-0.01-0.02,0-0.03c0,0,0,0,0,0c-0.03,0.01-0.06,0.01-0.06,0
c0,0,0,0,0,0c0-0.01-0.01-0.01-0.01-0.02c-0.01,0.04-0.04,0.05-0.05,0.06c0.02-0.02,0.02-0.04,0.01-0.06
c-0.01,0.01-0.02,0.02-0.02,0.03c0-0.02-0.01-0.03-0.02-0.04c0,0,0,0,0,0c0,0.02-0.01,0.04-0.04,0.05c-0.03,0-0.04-0.03-0.04-0.04
c0,0,0-0.01-0.01,0c-0.02,0.01,0,0.04-0.03,0.05c0,0-0.01,0-0.02,0c0,0.02,0.01,0.04,0.02,0.05c-0.02,0-0.05-0.02-0.05-0.05
c0,0,0,0,0-0.01c-0.01,0-0.01-0.01-0.01-0.01c-0.03-0.02,0.01-0.04,0.02-0.07c0,0,0-0.01,0,0c-0.06,0.04-0.07,0.02-0.08-0.01
c0,0,0-0.01,0-0.02c-0.02,0-0.03,0.02-0.03,0.03c-0.02-0.03,0.02-0.06,0.04-0.06c0,0,0,0,0.01,0c0.01,0,0.02-0.01,0.02-0.01
c0.03-0.01,0.03,0.01,0.05,0.03c0.01,0.01,0.02,0.01,0.03,0c0,0,0-0.01,0-0.01c-0.06-0.02-0.06-0.04-0.05-0.05c0,0,0-0.01,0.01-0.02
c-0.01-0.02-0.02-0.02-0.03-0.02c0.01-0.01,0.05-0.01,0.06,0.01h0.02c0.01,0,0.02,0.01,0.03,0.02c0.01,0.02,0.01,0.03,0.02,0.04
c0.03,0.04,0.11,0,0.15-0.01c0.03-0.01,0.1,0,0.11,0c0.01,0,0-0.06,0-0.09l-0.05,0.01c-0.01-0.01-0.02-0.01-0.02-0.02
c-0.07-0.04-0.06-0.01-0.07-0.01c-0.01,0-0.01,0.01-0.01,0.02c-0.02,0-0.03-0.02-0.03-0.03c0,0,0-0.01,0-0.01
c-0.01,0-0.01,0.01-0.01,0.01c-0.01,0-0.01-0.01-0.02-0.02c0,0,0,0-0.01,0c-0.05,0.03-0.12-0.02-0.08-0.08
c0,0.05,0.07,0.06,0.07,0.01c0,0,0-0.01-0.01-0.01c-0.04-0.01-0.04-0.03-0.01-0.06c0,0,0,0,0-0.01c0,0-0.01-0.01-0.01-0.01
c0,0-0.01,0-0.01,0c-0.01,0.01-0.02,0.01-0.02,0.01c0,0-0.01-0.01-0.01-0.01c0,0,0,0-0.01,0c-0.01,0-0.01,0.02-0.01,0.03
c-0.03-0.02-0.02-0.04-0.01-0.05c0-0.01,0-0.02,0-0.02c0-0.02,0.02-0.04,0.06-0.02c0,0,0.01,0,0,0c0,0,0-0.01,0-0.01
c0,0,0-0.01-0.01-0.01c-0.03,0-0.04-0.01-0.04-0.03c0,0,0-0.02,0.01-0.02c-0.01-0.01-0.02-0.01-0.02-0.01
c0.03-0.03,0.05-0.01,0.05,0.02c0,0,0,0,0,0c0,0,0.01,0,0.01,0c0.02,0,0.03,0.03,0.04,0.06c0,0,0,0.01,0,0c0-0.01,0-0.01,0-0.01
c0,0,0-0.01,0-0.01c-0.01-0.01-0.01-0.02,0-0.03c0,0,0.01-0.01,0.01-0.02c0-0.02-0.01-0.03-0.02-0.03c0.02-0.01,0.04,0.01,0.05,0.03
c0,0.01,0.01,0.03,0.01,0.03c0,0.03-0.01,0.06-0.01,0.09c0,0.04,0,0.06,0.04,0.08c0.05,0.03,0.07,0.03,0.1,0.03c0,0,0.01,0,0.01,0
l0.02,0.01c0-0.02,0.01-0.05,0.01-0.07c-0.01,0-0.01-0.01-0.02-0.02c0.02,0,0.03-0.04,0.05-0.08c-0.01,0-0.01-0.01-0.02-0.02
c0.02,0.01,0.04-0.05,0.07-0.05c-0.01-0.03,0-0.05,0.01-0.07c0.02,0,0.03,0.01,0.04,0.02c0-0.02,0.02-0.02,0.03-0.01
c0,0,0.03-0.01,0.03,0c0.01,0,0.03,0,0.06,0.02c0.03,0.01,0.05,0.03,0.06,0.04c0.01,0,0.01,0.03,0.01,0.03
c0.01,0.01,0.02,0.02,0.01,0.03c0.02,0,0.03,0.01,0.05,0.02c0,0.02-0.02,0.04-0.04,0.05c0.02,0.03-0.02,0.08-0.04,0.12
c0.25-0.05,0.67,0.02,0.8,0.02c0.09,0,0.27-0.01,0.27-0.06c0-0.03,0.02-0.05-0.14-0.05c-0.16,0-0.67,0.11-0.67-0.08
c0-0.09,0.11-0.09,0.24-0.08c0,0,0.01-0.01,0.01-0.01c0.1-0.06,0.34,0.03,0.42-0.03c-0.01,0.03-0.12,0.05-0.23,0.05
c0.18,0.04,0.31-0.08,0.5-0.01c-0.15-0.04-0.43,0.14-0.67,0.07C20.7,12.64,20.69,12.63,20.68,12.62z M19.92,13.63
c-0.01,0.01-0.01,0.03,0.01,0.04c0.02,0.01,0.04-0.01,0.04-0.02c0-0.01,0.01-0.02,0-0.03c-0.01-0.01-0.01-0.02,0-0.03
c0.01-0.01,0.02-0.01,0.03,0c-0.01-0.01-0.01-0.02,0-0.02c0.01,0,0.01,0.02,0.01,0.02c0.01,0,0-0.01,0-0.02c0-0.01,0-0.01-0.01-0.02
l-0.06-0.03c-0.01,0-0.01-0.01-0.02,0c0,0-0.01,0.01-0.01,0.02c0,0,0.02-0.01,0.02,0c0.01,0.01,0,0.01-0.01,0.02
c0.01,0.01,0.03,0.01,0.02,0.03c0,0.01-0.01,0.01-0.02,0.01C19.93,13.61,19.92,13.62,19.92,13.63z M20.03,13.51
c0,0.02,0,0.04,0.02,0.05c0.02,0,0.01-0.01,0.04-0.02C20.08,13.54,20.03,13.52,20.03,13.51z M20.48,13.49
c-0.05,0.02-0.09,0.04-0.09,0.07c0,0.1,0.63-0.05,0.64,0.09c0,0.07-0.13,0.13-0.34,0.12c-0.01,0-0.03,0-0.06,0
c0,0.05,0.07,0.05,0.1,0.09c0.02,0.02,0.01,0.04-0.03,0.06c-0.03,0.01,0.02,0.04,0.04,0.04c-0.02,0.02-0.03,0.03-0.04,0.02
c0,0,0,0-0.01,0c-0.01,0.02-0.04,0.03-0.01,0.05c-0.02,0.01-0.02,0-0.03-0.01v0c0,0,0,0,0,0c0.01,0.01,0,0.03-0.01,0.03
c-0.03,0.03-0.05-0.01-0.07,0c-0.01,0.01,0.01,0.04-0.03,0.06c0,0-0.01,0-0.02,0c0,0.01,0,0.02,0,0.03
c-0.03-0.01-0.03-0.03-0.02-0.05c0,0-0.01-0.01-0.01-0.01c-0.01-0.02,0.01-0.03,0.03-0.04c0,0,0,0,0,0
c-0.02-0.01-0.04,0.02-0.06,0.01c0,0-0.01-0.01-0.01-0.01c-0.02,0.01-0.02,0.01-0.03,0.02c-0.01-0.01,0-0.03,0.01-0.05
c0-0.01,0-0.01,0-0.02c-0.01-0.02,0.03-0.02,0.05-0.02c0,0,0,0,0-0.01c0,0,0,0,0,0h0h0c-0.01-0.01-0.01-0.01-0.01-0.02
c0,0,0-0.01,0-0.01c-0.02-0.01-0.03,0-0.04,0c0.01-0.02,0.04-0.03,0.06-0.02c0,0,0.01-0.01,0.03,0c0.01,0.01,0.02,0.03,0.04,0.04
l0,0c0.02-0.01,0.01-0.02,0.05-0.04c0.01-0.01,0.01-0.02,0-0.02c-0.01-0.01-0.05-0.04-0.09-0.05c-0.02,0.03-0.16,0.01-0.2,0
c0.09,0.05,0.05,0.17,0.06,0.18c0.03,0.02,0.04,0.07,0.03,0.09c-0.01,0.02-0.03,0.01-0.06,0c-0.01,0-0.02,0-0.02,0
c-0.03,0.01,0,0.04-0.04,0.05c-0.02,0.01-0.04,0-0.04-0.02c0,0,0-0.01-0.01-0.01c-0.01,0-0.01,0-0.01,0c0,0-0.01,0-0.01,0.01
c0,0.01,0,0.02-0.01,0.02c0,0-0.01,0-0.02,0.01c0,0.01,0.02,0.01,0.03,0.01c-0.03,0.02-0.06,0-0.06-0.02c0,0-0.01-0.02-0.01-0.02
c0-0.01,0-0.01,0-0.01c0,0,0,0-0.01-0.01c0,0,0,0,0,0c0,0.01-0.01,0.01-0.01,0.01c0,0-0.01,0-0.01,0c0,0.01,0.01,0.02,0.01,0.02
c-0.03,0.01-0.05-0.01-0.04-0.03c0,0-0.01-0.02-0.01-0.02c-0.01-0.06,0.06-0.03,0.06-0.05c0,0,0-0.01-0.01-0.01
c-0.01,0-0.01,0.01-0.02,0.01c-0.02,0-0.02-0.01-0.02-0.02v-0.01c-0.02,0-0.03,0.01-0.04,0.02c-0.01-0.02,0.02-0.05,0.05-0.05
c0,0,0.01-0.01,0.02-0.01c0.06-0.02,0.06,0.09,0.11,0.06c0.01,0,0.03-0.01,0.05-0.01c0,0,0.01,0,0-0.01
c-0.01-0.01-0.06-0.05-0.06-0.09c0-0.03,0.01-0.08,0.02-0.09c-0.07,0-0.1,0.05-0.16,0.06c-0.01,0-0.01,0-0.02,0
c-0.01,0.09-0.05,0.12-0.05,0.14c0,0.03-0.06,0.05-0.07,0.05c0.01-0.01,0.02-0.02,0.02-0.03c0-0.01,0-0.01-0.01,0
c-0.05,0.03-0.09,0-0.1,0.08c-0.02-0.02-0.01-0.05-0.02-0.05c0,0-0.01,0.01-0.01,0.02c-0.01-0.01-0.01-0.02,0-0.03c0,0,0,0-0.01,0
c-0.03,0.01-0.05,0.01-0.06,0c0,0,0,0,0,0c0-0.01,0-0.01-0.01-0.02c-0.01,0.03-0.04,0.05-0.05,0.05c0.02-0.02,0.02-0.04,0.01-0.05
c-0.01,0.01-0.02,0.02-0.02,0.02c0-0.02-0.01-0.03-0.01-0.03c0,0,0,0,0,0c0,0.02-0.01,0.04-0.04,0.04c-0.03,0-0.04-0.03-0.04-0.04
c0,0,0-0.01-0.01,0c-0.01,0.01,0,0.04-0.03,0.05c0,0-0.01,0-0.02,0c0,0.02,0.01,0.04,0.02,0.05c-0.02,0-0.05-0.02-0.05-0.05
c0,0,0,0,0-0.01c-0.01,0-0.01-0.01-0.01-0.01c-0.03-0.02,0.01-0.04,0.02-0.06c0,0,0-0.01,0,0c-0.05,0.04-0.07,0.02-0.07-0.01
c0,0,0-0.01-0.01-0.02c-0.02,0-0.03,0.02-0.03,0.03C19.4,14.03,19.43,14,19.45,14c0,0,0,0,0.01,0c0.01,0,0.01-0.01,0.02-0.01
c0.03-0.01,0.03,0.01,0.05,0.03c0.01,0.01,0.02,0.01,0.03,0c0,0,0-0.01,0-0.01c-0.05-0.02-0.06-0.04-0.05-0.05
c0,0,0.01-0.01,0.01-0.02c-0.01-0.02-0.02-0.02-0.03-0.02c0.01-0.01,0.04-0.01,0.06,0.01c0.01,0,0.02,0,0.02,0
c0.01,0,0.02,0.01,0.03,0.02c0.01,0.02,0.01,0.03,0.02,0.04c0.01,0.01,0.04,0.02,0.06,0.01c0,0,0,0,0,0.01l0-0.01
c0.03,0,0.06-0.02,0.08-0.03c0.02-0.01,0.11,0,0.12,0c0.01,0-0.01-0.03-0.02-0.06c-0.04,0-0.07-0.02-0.09-0.06
c-0.07-0.04-0.06-0.12-0.07-0.12c-0.01,0-0.01,0.01-0.01,0.02c-0.02,0-0.02-0.02-0.02-0.03c0,0,0-0.01,0-0.01
c-0.01,0-0.01,0.01-0.01,0.01c-0.01,0-0.01-0.01-0.02-0.02c0,0,0,0-0.01,0c-0.05,0.03-0.12-0.01-0.08-0.07
c0,0.05,0.06,0.06,0.07,0.01c0,0,0-0.01-0.01-0.01c-0.03-0.01-0.04-0.03-0.01-0.06c0,0,0,0,0-0.01c0,0-0.01-0.01-0.01-0.01
c0,0,0,0-0.01,0c-0.01,0.01-0.02,0.01-0.02,0.01c0,0-0.01-0.01-0.01-0.01c0,0,0,0-0.01,0c-0.01,0-0.01,0.02-0.01,0.03
c-0.03-0.02-0.02-0.04-0.01-0.05c0,0,0-0.02,0-0.02c0-0.02,0.02-0.04,0.06-0.02c0,0,0,0,0,0c0,0,0-0.01,0-0.01c0,0,0,0-0.01,0
c-0.02,0-0.04-0.01-0.04-0.03c0,0,0-0.02,0-0.02c0-0.01-0.01-0.01-0.02-0.01c0.03-0.03,0.05-0.01,0.05,0.01c0,0,0,0,0,0
c0,0,0.01,0,0.01,0c0.02,0,0.03,0.03,0.04,0.05c0,0,0,0.01,0,0c0-0.01,0-0.01,0-0.01c0,0,0,0,0-0.01c-0.01-0.01-0.01-0.02,0-0.03
c0,0,0.01-0.01,0.01-0.02c0-0.02-0.01-0.03-0.02-0.03c0.02,0,0.04,0.01,0.05,0.03c0,0.01,0.01,0.03,0.01,0.03
c0,0.03-0.01,0.06-0.01,0.09c0,0.04,0,0.05,0.04,0.07c0.04,0.02,0.1,0.11,0.13,0.15c-0.01-0.04,0-0.1,0.01-0.15
c-0.01,0-0.01-0.01-0.02-0.02c0.02,0,0.03-0.04,0.05-0.07c-0.01,0-0.01-0.01-0.02-0.02c0.02,0.01,0.04-0.05,0.06-0.05
c-0.01-0.03,0-0.04,0.01-0.07c0.01,0,0.03,0.01,0.04,0.02c0-0.01,0.02-0.01,0.03-0.01c0,0,0.03-0.01,0.03-0.01
c0.01,0,0.03,0,0.06,0.02c0.03,0.01,0.04,0.03,0.05,0.04c0.01,0,0.01,0.03,0.01,0.03c0.01,0.01,0.02,0.02,0.01,0.03
c0.01,0,0.03,0.01,0.04,0.02c0,0.02-0.01,0.04-0.04,0.04c0.03,0.03-0.03,0.1-0.05,0.14v0c0.27-0.07,0.48,0.01,0.61,0.01
c0.16,0,0.29-0.04,0.29-0.08c0-0.05-0.62,0.07-0.62-0.09c0-0.05,0.06-0.1,0.14-0.11c0.01-0.01,0.01-0.01,0.02-0.02
c0.1-0.06,0.34,0.03,0.42-0.02c-0.01,0.03-0.12,0.05-0.23,0.05c0.18,0.04,0.31-0.08,0.5-0.01c-0.15-0.04-0.43,0.14-0.67,0.07
C20.5,13.52,20.49,13.51,20.48,13.49z M10.29,2.57c0-0.08-0.07-0.15-0.15-0.15c-0.08,0-0.15,0.07-0.15,0.15
c0,0.08,0.07,0.15,0.15,0.15C10.22,2.73,10.29,2.66,10.29,2.57z M10.24,2.17c0-0.08-0.07-0.15-0.15-0.15
c-0.08,0-0.15,0.07-0.15,0.15c0,0.08,0.07,0.15,0.15,0.15C10.17,2.32,10.24,2.25,10.24,2.17z M10.32,1.99
c0.08,0,0.15-0.07,0.15-0.15c0-0.08-0.07-0.15-0.15-0.15c-0.08,0-0.15,0.07-0.15,0.15C10.17,1.92,10.24,1.99,10.32,1.99z
M10.73,1.96c0.08,0,0.15-0.07,0.15-0.15c0-0.08-0.07-0.15-0.15-0.15c-0.08,0-0.15,0.07-0.15,0.15C10.58,1.9,10.64,1.96,10.73,1.96z
M12.46,1.68c0.06,0.06,0.16,0.06,0.22,0c0.06-0.06,0.06-0.15,0-0.21c-0.06-0.06-0.16-0.06-0.22,0C12.4,1.53,12.4,1.62,12.46,1.68z
M12.43,1.36c0.06-0.06,0.06-0.16,0-0.21c-0.06-0.06-0.16-0.06-0.22,0c-0.06,0.06-0.06,0.15,0,0.21
C12.27,1.42,12.37,1.42,12.43,1.36z M12.02,1.29c0.06-0.06,0.06-0.15,0-0.21c-0.06-0.06-0.16-0.06-0.22,0
c-0.06,0.06-0.06,0.16,0,0.22C11.87,1.35,11.96,1.35,12.02,1.29z M11.68,1.55c0.06-0.06,0.06-0.15,0-0.21
c-0.06-0.06-0.16-0.06-0.22,0c-0.06,0.06-0.06,0.16,0,0.22C11.52,1.61,11.62,1.61,11.68,1.55z M10.7,1.34l0.12,0.27l0.15-0.18
c0.01,0,0.01,0,0.02,0.01c0.01,0.09,0.02,0.24,0.02,0.33c0,0.11,0.09,0.19,0.19,0.19c0.11,0,0.19-0.09,0.19-0.19
c0-0.07-0.04-0.14-0.1-0.17c-0.08-0.06-0.16-0.14-0.21-0.2c0-0.01,0.01-0.01,0.01-0.02l0.26,0.02l-0.1-0.27l-0.19,0.16
c0,0-0.01,0-0.01-0.01l-0.01-0.28l-0.27,0.1l0.18,0.21c0,0.01-0.01,0.01-0.01,0.02L10.7,1.34z M12.47,1.81
c0.06,0.09,0.08,0.14,0.09,0.21C12.51,2,12.46,1.96,12.4,1.88l0.03,0.35c0.04-0.06,0.08-0.11,0.13-0.13
c-0.01,0.23-0.11,0.33-0.18,0.34c-0.1,0.02-0.17-0.04-0.18-0.12c-0.02-0.1,0.07-0.17,0.16-0.08c0.02-0.21-0.16-0.21-0.23-0.12
c0.09-0.2,0.05-0.34-0.13-0.45C11.88,1.87,11.93,2,12.07,2.15c-0.14-0.07-0.27,0.05-0.14,0.2c0.03-0.14,0.15-0.11,0.17,0
c0.02,0.09-0.07,0.21-0.22,0.26c-0.22,0.07-0.29-0.07-0.34-0.19c0.05-0.03,0.16-0.02,0.28,0.06l-0.11-0.35
c-0.05,0.12-0.12,0.17-0.21,0.21c-0.01-0.1,0.07-0.3,0.07-0.3l-0.42,0.17c0,0,0.19,0.09,0.26,0.17c-0.09,0.03-0.17,0.05-0.3-0.01
l0.17,0.32c0.03-0.14,0.11-0.23,0.16-0.24c0.04,0.12,0.09,0.27-0.11,0.38C11.2,2.91,11.05,2.88,11,2.8c-0.06-0.1,0.01-0.2,0.12-0.12
c-0.02-0.2-0.19-0.2-0.24-0.05c0-0.21-0.05-0.33-0.27-0.39c-0.05,0.21,0.02,0.33,0.22,0.41c-0.12-0.01-0.24,0.1-0.08,0.24
c0-0.13,0.11-0.14,0.17-0.06C10.96,2.9,10.95,3,10.87,3.05c-0.07,0.04-0.2,0.04-0.37-0.12c0.05-0.02,0.11-0.01,0.18,0l-0.22-0.28
c0.01,0.1,0.01,0.17-0.01,0.21c-0.05-0.05-0.06-0.1-0.09-0.21l-0.17,0.15c0.16,0.1,0.35,0.25,0.58,0.56
c0.24-0.15,0.67-0.35,0.93-0.46c0.26-0.11,0.71-0.26,0.99-0.32c-0.06-0.38-0.03-0.62,0.02-0.8L12.47,1.81z M12.95,3.82
c0.17-0.13,0.03-0.28,0.24-0.6c-0.23,0.14-0.57,0.28-0.86,0.4C12.46,3.84,12.74,3.99,12.95,3.82z M12.91,6.03
c0.29-0.13,0.27-0.41,0.19-0.56c-0.07-0.15-0.14-0.28-0.23-0.28c-0.17,0-0.26-0.04-0.31-0.19c-0.06-0.18,0.13-0.24,0.3-0.34
c-0.18-0.05-0.26-0.13-0.16-0.2c0.12-0.09,0.28,0.08,0.32,0c0.04-0.08-0.09-0.14-0.14-0.19c-0.07-0.07-0.14-0.05-0.24-0.01
l-0.79,0.3c-0.1,0.04-0.16,0.08-0.17,0.18c0,0.07-0.05,0.21,0.04,0.24c0.08,0.03,0.08-0.21,0.23-0.22c0.12-0.01,0.11,0.1,0.03,0.26
c0.19-0.05,0.37-0.13,0.45,0.04c0.07,0.15,0.03,0.24-0.08,0.35c-0.06,0.06-0.02,0.2,0.03,0.36C12.42,5.91,12.63,6.15,12.91,6.03z
M11.39,4.43c0.27-0.02,0.37-0.33,0.32-0.57c-0.3,0.11-0.64,0.24-0.9,0.3C11.19,4.25,11.18,4.45,11.39,4.43z M15.82,11.47
c-0.07,0.2,0.09,0.24,0.09,0.4c0,0.2-0.17,0.29-0.36,0.34c0.13-0.27,0.02-0.43-0.21-0.47c0.05,0.52-0.36,0.6-0.53,0.51
c0.16-0.03,0.23-0.28,0.14-0.51c-0.07,0.18-0.25,0.31-0.43,0.31c-0.16,0-0.29-0.12-0.35-0.26c0.19,0.12,0.34-0.02,0.34-0.12
c0-0.1-0.19-0.15-0.19-0.3c0-0.35,0.39-0.21,0.39-0.52c0-0.12-0.07-0.18-0.15-0.18c-0.08,0-0.21,0.04-0.24,0.25
c-0.19-0.17,0-0.56-0.09-0.82c0.02,0.41-0.26,0.39-0.37,0.54c-0.14-0.14,0-0.42-0.14-0.75c-0.05,0.38-0.19,0.32-0.24,0.54
c-0.38-0.19-1.06-0.13-1.29,0.13c0.65,0.5,1.42,0.77,1.42,1.55c0,0.6-0.93,0.83-0.93,1.22c0,0.39,0.98,1.28,1.47,1.28
c0.16,0,0.24-0.2,0.37-0.2c0.13-0.01,0.25,0,0.37,0.01c0.12,0.01,0.22,0.12,0.21,0.23c0.23,0.02,0.52,0.37,0.23,0.66
c-0.04-0.16-0.2-0.38-0.49-0.23c0.11,0.26,0.01,0.51-0.32,0.61c0.11-0.17,0.12-0.39-0.08-0.39c-0.2,0-0.03,0.13-0.4,0.13
c-0.37,0-0.33,0.02-0.48-0.19c-0.15-0.21-0.26-0.3-0.34-0.26c-0.08,0.03-0.12,0.24,0.02,0.33c-0.79,0-0.46-0.81-0.87-1.01
c0.02,0.25,0.03,0.45,0,0.57c-0.3-0.23-0.47-0.54-0.53-0.73c-0.05-0.2-0.01-0.38-0.21-0.47c-0.06-0.03-0.13-0.09-0.11-0.2
c0.02-0.08,0.06-0.06,0.21-0.12c0.17-0.08,0.38-0.24,0.38-0.65c0-0.32-0.06-0.75-0.59-1.05c0.04,0.67,0.03,1.23-0.28,1.75
c-0.39,0.66-1.05,1.06-1.42,1.22c-0.37,0.16-0.9,0.28-0.9,0.77c0,0.91,0.41,1.46,0.83,1.46c0.26,0,0.2-0.3,0.59-0.3
c0.17,0,0.35,0.07,0.39,0.19c0.21-0.04,0.44,0.08,0.44,0.28c0,0.2-0.09,0.31-0.25,0.34c0.12-0.26-0.19-0.32-0.29-0.26
c-0.1,0.06,0.03,0.15,0.03,0.31c0,0.15-0.05,0.3-0.32,0.37c0.06-0.1,0.06-0.23-0.11-0.23c-0.17,0-0.23,0.28-0.44,0.28
c-0.34,0-0.44-0.15-0.76-0.08c-0.23,0.05-0.23,0.18-0.14,0.24C8.42,18,8.51,17.49,8.62,17.39c0.1-0.1,0.17-0.17,0.03-0.26
c-0.14-0.09-0.37,0-0.41,0.23c-0.35-0.69,0.14-0.65-0.02-1.42c-0.08,0.32-0.28,0.57-0.43,0.65c0.06-0.17-0.1-0.49-0.1-0.75
c0-0.58,0.37-0.77,0.37-0.96c0-0.12-0.14-0.26,0.01-0.38c0.08-0.07,0.25,0.07,0.35,0.07c0.47,0,0.81-0.6,0.88-1.27
c0.09-0.8,0.4-1.34,0.73-1.94c0.01-0.09,0.03-0.19,0.05-0.28c-0.33,0.41-0.62,1.03-1.07,1.4c0.05,0.51-0.94,1.09-1.51,0.65
c0.19,0.01,0.54-0.07,0.65-0.36c-0.08-0.01-0.16-0.02-0.24-0.05c-0.35,0.19-0.9-0.05-0.89-0.43c0.14,0.16,0.31,0.2,0.47,0.13
c-0.12-0.16-0.19-0.37-0.19-0.63c0-1.49,2.33-2.51,2.33-3.73c0-0.39-0.24-0.58-0.51-0.58c-0.15,0-0.3,0.04-0.47,0.15
c0.11,0.1,0.19,0.23,0.19,0.39c0,1.37-2.21,1.24-2.41,2.14c-0.11-1.15,1.28-0.9,1.4-1.86C7.55,8.67,7.05,8.98,6.77,8.82
c0.72,0.01,0.5-1.47,1.33-1.47c0.08,0,0.18,0.02,0.28,0.06C8.6,7.23,8.87,7.12,9.09,7.12c0.33,0,0.86,0.25,0.86,0.89
c0,1.45-2.34,2.38-2.34,3.74c0,0.45,0.27,0.67,0.63,0.67c0.82,0,1.34-1.46,2.23-2.65c0.55-0.8,0.93-2.4,1.3-3.15
c-0.43,0.31-0.49,1.14-1.01,1.19c0.28-0.23,0.08-0.95,0.26-1.48c0.07-0.19,0.1-0.38,0.04-0.57c-0.32,0.34-0.18,1.47-0.7,1.61
c0.18-0.23-0.02-0.6-0.02-0.94c0-0.64,0.33-0.75,0.37-1.35C10.4,5.2,10.5,6.05,9.89,6.03c0.43-0.43-0.01-0.88,0.48-1.37
C10.08,4.53,9.88,4.3,9.88,4.06c0.19-0.15,0.42-0.2,0.62-0.22c-0.09-0.14,0.03-0.29,0.16-0.4c0.04,0.06,0.11,0.18,0.18,0.12
c0.12-0.08,0.54-0.34,0.91-0.49c0.37-0.14,0.84-0.27,0.99-0.3c0.09-0.02,0.05-0.14,0.04-0.22c0.18-0.01,0.38,0,0.4,0.19
c0.15-0.13,0.37-0.19,0.58-0.2c0.12,0.26,0.15,0.47,0.03,0.81c0.3,0.02,0.46,0.28,0.74,0.21c-0.24,0.32-0.53,0.19-0.8,0.15
c0.8,0.24,0.95,1.03,1.39,1.08c-0.47,0.37-0.79-0.28-1.2-0.28C15,5.07,15,5.71,15.3,5.72c-0.33,0.3-0.58-0.09-1.01-0.19
c0.84,0.55,0.9,1.01,0.83,1.38c0.18,0.17,0.16,0.39,0.17,0.65c0.14-0.09,0.38-0.13,0.54-0.18c-0.06,0.06-0.11,0.12-0.17,0.18
c-0.43,0.48-0.73,0.94-0.97,1.55c-0.18-0.18-0.38-0.36-0.47-0.45c-0.17-0.16-0.33-0.12-0.4-0.12c0.27,0.31,1.19,1.28,1.45,1.59
c0.27,0.31,0.24,0.53,0.27,0.77C15.58,11.13,15.88,11.31,15.82,11.47z M30.91,15.22c0,0.27,0.22,0.49,0.49,0.49
c0.27,0,0.49-0.22,0.49-0.49c0-0.27-0.22-0.49-0.49-0.49C31.13,14.73,30.91,14.95,30.91,15.22z M30.74,15.22
c0-0.36,0.3-0.66,0.66-0.66c0.36,0,0.66,0.29,0.66,0.66c0,0.36-0.3,0.65-0.66,0.65C31.04,15.87,30.74,15.58,30.74,15.22z
M28.58,16.41c0.19,0.03,0.36-0.05,0.39-0.19c0-0.01,0-0.02,0-0.03c0-0.12-0.13-0.25-0.3-0.28c-0.11-0.02-0.21,0-0.29,0.05
c-0.04,0.03-0.08,0.07-0.09,0.14C28.26,16.23,28.4,16.37,28.58,16.41z M28.29,15.82c0.11-0.08,0.27-0.11,0.42-0.08
c0.28,0.05,0.47,0.28,0.43,0.51c-0.02,0.11-0.09,0.21-0.21,0.27c-0.11,0.06-0.24,0.07-0.37,0.05c-0.13-0.02-0.25-0.09-0.33-0.18
c-0.09-0.1-0.12-0.21-0.1-0.33C28.14,15.97,28.2,15.88,28.29,15.82z M24.63,7.01c0,0.04,0.01,0.08,0.03,0.11
c0.07,0.09,0.24,0.09,0.37-0.01c0.08-0.06,0.13-0.14,0.14-0.22c0-0.04,0-0.09-0.03-0.13c-0.04-0.05-0.09-0.06-0.12-0.07
c-0.08-0.01-0.17,0.02-0.25,0.08C24.68,6.83,24.63,6.93,24.63,7.01z M24.66,6.63c0.11-0.09,0.25-0.13,0.37-0.11
c0.1,0.01,0.18,0.06,0.23,0.13c0.06,0.07,0.08,0.16,0.07,0.26c-0.02,0.12-0.09,0.25-0.2,0.33c-0.21,0.16-0.48,0.15-0.61-0.02h0
C24.4,7.05,24.46,6.79,24.66,6.63z M27.77,15.48c0.07,0,0.12-0.03,0.15-0.06c0.07-0.06,0.11-0.17,0.11-0.27
c0-0.19-0.11-0.35-0.25-0.35c-0.07,0-0.12,0.03-0.15,0.07c-0.07,0.06-0.11,0.16-0.11,0.27c0,0.11,0.03,0.21,0.1,0.28
C27.65,15.44,27.7,15.48,27.77,15.48L27.77,15.48z M27.51,14.73c0.08-0.07,0.17-0.11,0.27-0.11c0.12,0,0.22,0.06,0.3,0.16
c0.07,0.1,0.11,0.22,0.11,0.36c0,0.15-0.06,0.3-0.16,0.39c-0.08,0.07-0.17,0.11-0.27,0.11c-0.1,0-0.19-0.04-0.27-0.12
c-0.09-0.1-0.15-0.24-0.15-0.39v-0.01C27.36,14.97,27.42,14.83,27.51,14.73z M24.42,10.08c0.1,0.05,0.21,0.06,0.3,0.03
c0.04-0.01,0.09-0.04,0.12-0.1c0.03-0.06,0.02-0.12,0-0.16c-0.03-0.09-0.11-0.17-0.21-0.21c-0.1-0.05-0.21-0.06-0.3-0.03
c-0.04,0.01-0.1,0.04-0.12,0.11C24.16,9.83,24.25,10,24.42,10.08z M24.29,9.44c0.13-0.05,0.29-0.03,0.42,0.03
c0.14,0.07,0.25,0.18,0.29,0.31c0.03,0.1,0.03,0.2-0.01,0.29c-0.04,0.09-0.12,0.16-0.22,0.19c-0.13,0.05-0.29,0.03-0.42-0.03
c-0.25-0.12-0.38-0.39-0.28-0.6C24.11,9.54,24.19,9.48,24.29,9.44z M29.06,12.42c0.11-0.15,0.1-0.34-0.02-0.43
c-0.12-0.08-0.3-0.03-0.41,0.12c-0.11,0.15-0.1,0.34,0.02,0.43C28.77,12.63,28.96,12.58,29.06,12.42z M28.29,13.64
c0.11-0.15,0.1-0.34-0.02-0.43c-0.12-0.08-0.3-0.03-0.41,0.12c-0.11,0.15-0.1,0.34,0.02,0.43C28,13.85,28.18,13.79,28.29,13.64z
M28.36,8.54c0.2-0.22,0.61-0.65,0.61-0.65l-0.25-0.2c0.01,0.09,0,0.22-0.03,0.35c-0.06-0.04-0.12-0.15-0.12-0.24l-0.2,0.25
c0.05,0,0.19,0.02,0.25,0.08c-0.18,0.17-0.33,0.09-0.44,0.02c-0.17-0.11-0.25-0.21-0.2-0.29c0.06-0.1,0.25-0.07,0.27,0.09
c0.14-0.07,0.17-0.18,0.12-0.27c-0.04-0.07-0.14-0.09-0.24-0.06c0.23-0.12,0.34-0.32,0.29-0.56c-0.26,0.05-0.37,0.19-0.43,0.44
c-0.02-0.1-0.08-0.2-0.16-0.2c-0.1-0.01-0.2,0.07-0.19,0.23c0.16-0.05,0.26,0.1,0.2,0.2c-0.06,0.1-0.19,0.08-0.36-0.02
c-0.19-0.11-0.21-0.28-0.12-0.45c0.05,0.05,0.09,0.15,0.09,0.27l0.22-0.36c-0.05,0.02-0.15,0.04-0.25,0
c0.06-0.07,0.16-0.18,0.31-0.19L27.3,6.73c0.06,0.13,0.02,0.28-0.01,0.36c-0.08-0.07-0.12-0.16-0.13-0.22l-0.2,0.37
c0.1-0.07,0.21-0.08,0.28-0.06c-0.1,0.17-0.26,0.23-0.46,0.12c-0.17-0.09-0.25-0.19-0.2-0.3c0.05-0.1,0.24-0.09,0.28,0.07
c0.14-0.07,0.16-0.19,0.1-0.28c-0.05-0.07-0.16-0.07-0.25-0.04c0.19-0.18,0.26-0.34,0.17-0.59c-0.24,0.07-0.35,0.27-0.34,0.52
c-0.02-0.1-0.09-0.18-0.17-0.18c-0.1,0-0.19,0.08-0.18,0.24c0.15-0.06,0.27,0.08,0.22,0.18c-0.05,0.08-0.17,0.07-0.35-0.03
c-0.11-0.06-0.26-0.15-0.2-0.39c0.08,0.02,0.17,0.13,0.2,0.17l0.12-0.3c-0.08,0.06-0.2,0.05-0.27,0.02c0.09-0.09,0.2-0.17,0.29-0.2
l-0.3-0.12c0,0-0.17,0.56-0.27,0.85L28.36,8.54z M28.85,10.61c0,0.09,0.04,0.19,0.11,0.27c0.07,0.08,0.18,0.13,0.27,0.13
c0.04,0,0.1-0.01,0.15-0.05l0,0c0.05-0.05,0.06-0.11,0.06-0.15c0-0.09-0.04-0.2-0.12-0.28c-0.07-0.08-0.18-0.13-0.27-0.13
c-0.04,0-0.11,0.01-0.15,0.05C28.86,10.51,28.85,10.57,28.85,10.61z M30.03,16.01c-0.01,0.04-0.01,0.1,0.03,0.16
c0.08,0.12,0.27,0.13,0.43,0.02c0.09-0.06,0.16-0.15,0.18-0.24c0.01-0.04,0.01-0.1-0.03-0.16v0c-0.04-0.06-0.1-0.08-0.14-0.09
c-0.09-0.02-0.2,0-0.29,0.07C30.11,15.83,30.05,15.92,30.03,16.01z M24.42,7.87c0.01-0.09-0.02-0.18-0.07-0.24
c-0.02-0.03-0.06-0.06-0.12-0.06c-0.06,0-0.1,0.02-0.13,0.05C24.04,7.67,24,7.76,24,7.85c0,0.01,0,0.01,0,0.02
c0,0.15,0.09,0.27,0.2,0.28c0.05,0,0.1-0.03,0.12-0.05C24.38,8.05,24.41,7.97,24.42,7.87z M26.16,4.33c0.22-0.13,0.5-0.2,0.81-0.22
c-0.19-0.06-0.33-0.22-0.49-0.22C26.16,3.89,26.25,4.15,26.16,4.33z M31.21,8.77c0.05,1.13,1.47,0.87,1.25,1.71
c-0.02-0.56-1.92-0.5-1.98-1.66c-0.01-0.24,0.06-0.43,0.18-0.56c-0.08-0.06-0.18-0.1-0.31-0.1c-0.33,0-0.81,0.35-0.81,0.89
c0,1.47,1.96,1.65,1.96,3.26c0,0.33-0.13,0.64-0.37,0.82c0.17,0.02,0.4-0.08,0.51-0.21c-0.17,0.62-0.81,0.64-1.01,0.39
c-0.03,0-0.06,0-0.09,0c-0.05,0-0.11,0-0.16-0.01c0.13,0.25,0.32,0.51,0.61,0.46c-0.58,0.46-1.28-0.16-1.17-0.79
c-0.17-0.19-0.29-0.42-0.36-0.6c-0.06-0.14-0.16-0.06-0.16,0.09c0.02,0.51-0.38,0.98-0.38,1.35c0,0.37,0.38,0.72,0.51,0.72
c0.13,0,0.22-0.15,0.31-0.11c0.09,0.04,0.08,0.15,0.06,0.42c-0.01,0.18,0.02,0.61,0.05,1.08c0.03-0.12,0.12-0.24,0.24-0.32
c0.13-0.08,0.28-0.12,0.42-0.09c0.1,0.02,0.19,0.08,0.24,0.16c0.04,0.06,0.06,0.13,0.06,0.2c0,0.03,0,0.06-0.01,0.08
c-0.03,0.13-0.12,0.26-0.25,0.35c-0.11,0.07-0.24,0.11-0.36,0.1c-0.13-0.01-0.24-0.07-0.3-0.17c-0.01-0.02-0.02-0.03-0.03-0.05
c0.01,0.14,0.01,0.28,0.01,0.41c0,0.34-0.09,0.48-0.23,0.56c-0.01-0.05-0.11-0.15-0.24-0.15c-0.1,0-0.19,0.08-0.19,0.15
c0,0.16,0.19,0.14,0.19,0.37c0,0.23-0.54,0.53-0.87,0.48c0.05-0.11,0.12-0.49,0.23-0.75c-0.1,0.06-0.19,0.22-0.28,0.45
c-0.1,0.28-0.22,0.27-0.34,0.2c0.11-0.12,0.36-0.7,0.62-0.89c0.26-0.18,0.39-0.25,0.46-0.69c0.07-0.44-0.01-0.7-0.02-1.08
c-0.01-0.51-0.22-0.4-0.38-0.4c-0.35,0-1.65-0.83-1.65-1.69c0-0.08,0.01-0.17,0.02-0.26c-0.59-0.01-0.92,0.16-0.92,0.71
c0,0.19,0.02,0.37,0.16,0.48c0.12,0.1,0.18,0.19-0.02,0.28c-0.23,0.1-2.05,0.85-2.05,0.85c-0.23,0.09-0.26-0.01-0.36-0.12
c-0.1-0.11-0.2-0.16-0.32-0.09c-0.12,0.08,0.09,0.17,0.09,0.29c0,0.13-0.06,0.43-0.89,0.38l0.2-0.33c0.06-0.11,0.09-0.19,0.04-0.2
c-0.05-0.01-0.1,0.08-0.17,0.18l-0.24,0.31c-0.13,0.01-0.27-0.02-0.27-0.02c0.32-0.31,0.49-0.48,0.67-0.66
c0.17-0.17,0.38-0.25,0.75-0.31c0.43-0.06,1.85-0.25,1.85-0.71c0-0.53-0.59-0.49-0.59-1.19c0-0.62,0.27-1.27,1.95-1.24
c-0.15-0.39-0.57-0.7-0.98-0.8c-0.85-0.21-1.09-0.78-1.16-1.39c-0.24-0.01-0.47-0.02-0.65-0.03c-0.52-0.03-0.78-0.19-0.91-0.09
c-0.05,0.04-0.1,0.11-0.02,0.24c0.08,0.13,0.25,0.43,0.39,0.65c0.1,0.01,0.27,0.03,0.29,0.16c0.02,0.13-0.08,0.15-0.1,0.22
c-0.02,0.06,0.02,0.12,0.09,0.12c0.07,0,0.11-0.06,0.1-0.11c0.07-0.05,0.25-0.05,0.42-0.01c0.13,0.14,0.35,0.39,0.41,0.62
c-0.2-0.08-0.49-0.19-0.59-0.19c-0.1,0-0.08,0.04,0.01,0.07c0.09,0.03,0.32,0.12,0.39,0.19l-0.02,0.23
c-0.05-0.05-0.46-0.29-0.7-0.39c-0.24-0.1-0.39-0.15-0.51-0.45c-0.13-0.3-0.5-0.98-0.65-1.23c-0.11-0.18-0.07-0.24-0.02-0.3
c0.05-0.06,0.1-0.13,0.14-0.19c0.1-0.16,0.13-0.12,0.28-0.11c0.15,0.01,0.48,0.02,0.63-0.04c0.03-0.01,0.07-0.03,0.11-0.04
c-0.34-0.38-0.76-0.92-0.81-0.99c-0.07-0.1-0.16-0.15-0.22-0.15c-0.07,0-0.14,0.01-0.19,0.05c-0.02,0.02-0.05,0.04-0.09,0.07
c-0.03-0.04-0.06-0.08-0.1-0.12c-0.06-0.07-0.12-0.13-0.19-0.2c0.13-0.1,0.25-0.19,0.29-0.23c0.09-0.08,0.13-0.13,0.21-0.13
c0.08,0,0.18,0,0.23,0c0.12,0,0.17,0.03,0.22,0.09c0.13,0.14,0.34,0.29,0.51,0.42c0.02,0.01,0.04,0.03,0.05,0.04
c0.01-0.02,0.03-0.03,0.04-0.05c0.07-0.06,0.16-0.1,0.25-0.09c0.09,0,0.17,0.05,0.24,0.12c0.08,0.09,0.12,0.22,0.12,0.36
c0,0.05-0.01,0.1-0.03,0.14c0.13,0.11,0.25,0.21,0.38,0.34c0.06-0.47,0.3-0.92,0.61-1.32L25.5,7.02c0,0,0.03-0.08,0.03-0.08
c0.07-0.21,0.18-0.58,0.23-0.75c0.02-0.07,0.03-0.09,0.03-0.1l0.03-0.11l0.51,0.2c0.02-0.02,0.03-0.03,0.05-0.05
c0.45-0.43,1.54-0.72,1.54-1.33c0-0.15-0.05-0.34-0.21-0.47c0.07,0.1,0.08,0.23,0.06,0.36c-0.03,0.16-0.27,0.52-0.71,0.52
c-0.24,0-0.4-0.23-0.49-0.23c-0.05,0-0.12,0.04-0.19,0.09c0.02,0.32-0.12,0.49-0.25,0.52c0.05-0.13,0.01-0.36-0.03-0.33
c-0.04,0.03-0.09,0.07-0.1,0.26c-0.01,0.18-0.17,0.42-0.42,0.45c0.05-0.08,0.13-0.38,0.08-0.42c-0.05-0.04-0.14,0.09-0.2,0.09
c-0.06,0-0.12-0.06-0.13-0.14c-0.01-0.07-0.14,0-0.16-0.06c-0.03-0.06,0.15-0.19,0.31-0.25c0.16-0.06,0.4-0.17,0.36-0.26
c-0.07-0.16-0.55,0.1-0.76,0.22c-0.32,0.19-0.18-0.07-0.22-0.17c-0.12-0.28-0.01-0.31,0.12-0.43c0.18-0.16,0.54-0.41,0.95-0.62
c0-0.14,0.08-0.25,0.19-0.28c0.17-0.06,0.33-0.13,0.5-0.19L24.45,0.7c-0.05-0.05-0.05-0.1-0.03-0.12c0.02-0.03,0.06-0.01,0.14,0.06
l2.57,2.51c0.06-0.17,0.11-0.38,0.06-0.6c0.31,0.15,0.58,0.46,0.63,0.75c0.79-0.01,1,0.48,1.24,0.31c0.03,0.12-0.1,0.25-0.33,0.29
c0.91,0.23,0.67,0.89,1.19,0.97c-0.08,0.09-0.2,0.13-0.39,0.07c0.57,0.83,0,1.37,0.44,1.76c-0.17,0.05-0.4-0.09-0.56-0.36
c0.17,0.69-0.09,1.06,0.04,1.34c-0.19,0.05-0.33-0.12-0.4-0.39c-0.04,0.15-0.09,0.29-0.14,0.41l0.21,0.17l-0.08,0.09l0,0l-0.02,0.02
c-0.34,0.36-0.51,0.54-0.59,0.63l-0.06,0.07c0,0-0.07-0.04-0.08-0.04c-0.22,0.28-0.41,0.51-0.41,0.77c0,0.3,0.4,0.84,0.82,1.39
c-0.02-0.06-0.03-0.11-0.03-0.17V10.6c0-0.1,0.04-0.2,0.12-0.27c0.07-0.07,0.17-0.1,0.27-0.1c0.14,0,0.28,0.07,0.39,0.18
c0.1,0.11,0.16,0.25,0.16,0.38v0.01c0,0.11-0.04,0.2-0.12,0.27c-0.07,0.07-0.17,0.1-0.27,0.1c-0.1,0-0.2-0.04-0.29-0.1
c0.3,0.39,0.59,0.77,0.72,1.05c0.28,0.58,0.55,0.95,0.88,0.95c0.37,0,0.7-0.27,0.7-0.71c0-1.49-1.97-1.64-1.97-3.33
c0-0.78,0.68-1.16,1.08-1.16c0.27,0,0.45,0.07,0.61,0.24C31,8.1,31.05,8.09,31.1,8.09c0.93,0,0.35,1.24,1.07,1.32
C31.85,9.56,31.42,9.35,31.21,8.77z M8.98,32.63h3.48c1.38,0,1.64,0.88,1.79,1.93c0.21,1.05-0.01,2.19,0.39,2.63h1.59
c-0.6-0.73-0.54-1.9-0.63-2.94c-0.1-1.05-0.36-1.96-1.6-2.2v-0.03c1.29-0.36,1.86-1.42,1.86-2.7c0-1.7-1.25-2.79-3.26-2.79H7.55
v10.66h1.42V32.63z M8.98,27.71h3.54c1.34,0,1.91,0.78,1.91,1.82c0,1.55-1.14,1.9-2.47,1.9H8.98V27.71z M34.8,36.16
c0,0.84,0.42,1.2,1.08,1.2c0.4,0,0.69-0.08,0.92-0.21v-0.99c-0.16,0.06-0.28,0.08-0.39,0.08C36,36.24,36,35.97,36,35.37V31.4
c0-1.81-1.51-2.12-2.91-2.12c-1.73,0-3.21,0.67-3.29,2.58h1.27c0.06-1.13,0.86-1.46,1.93-1.46c0.81,0,1.73,0.18,1.73,1.28
c0,0.96-1.2,0.87-2.61,1.13c-1.32,0.25-2.63,0.63-2.63,2.37c0,1.54,1.16,2.17,2.57,2.17C33.15,37.36,34.1,36.98,34.8,36.16z
M32.36,36.24c-0.78,0-1.5-0.3-1.5-1.13c0-0.94,0.72-1.24,1.56-1.39c0.86-0.15,1.82-0.16,2.31-0.52v1.3
C34.73,35.19,34.04,36.24,32.36,36.24z M46.5,32.82h3.27c2.13,0.01,3.29-1.18,3.29-3.15c0-1.97-1.16-3.15-3.29-3.15h-4.7v10.66h1.42
V32.82z M46.5,27.71h2.79c1.6,0,2.34,0.69,2.34,1.96c0,1.27-0.74,1.97-2.34,1.96H46.5V27.71z M60.04,35.37V31.4
c0-1.81-1.51-2.12-2.91-2.12c-1.72,0-3.21,0.67-3.28,2.58h1.27c0.06-1.13,0.85-1.46,1.93-1.46c0.81,0,1.73,0.18,1.73,1.28
c0,0.96-1.2,0.87-2.61,1.13c-1.32,0.25-2.62,0.63-2.62,2.37c0,1.54,1.16,2.17,2.57,2.17c1.08,0,2.02-0.37,2.73-1.2
c0,0.84,0.42,1.2,1.08,1.2c0.4,0,0.69-0.08,0.92-0.21v-0.99c-0.17,0.06-0.29,0.08-0.39,0.08C60.04,36.24,60.04,35.97,60.04,35.37z
M58.77,34.49c0,0.7-0.69,1.75-2.37,1.75c-0.78,0-1.5-0.3-1.5-1.13c0-0.94,0.72-1.24,1.56-1.39c0.85-0.15,1.81-0.16,2.31-0.52V34.49
z M84.28,29.28c-2.12,0-3.65,1.7-3.65,4.02c0.07,2.36,1.24,4.06,3.72,4.06c1.74,0,2.97-0.93,3.32-2.63h-1.26
c-0.22,1-0.96,1.51-2.01,1.51c-1.69,0-2.46-1.19-2.41-2.54h5.81C87.87,31.83,87.03,29.28,84.28,29.28z M81.99,32.58
c0.09-1.18,0.88-2.18,2.22-2.18c1.26,0,2.18,0.97,2.24,2.18H81.99z M10.46,42.2L6.28,52.86h1.47l1.2-3.21h4.53l1.17,3.21h1.57
L12.04,42.2H10.46z M9.4,48.46l1.82-4.97h0.03l1.78,4.97H9.4z M22.11,46.25H22.1c-0.47-0.85-1.33-1.28-2.31-1.28
c-2.68,0-3.59,2.25-3.59,4.08c0,2.1,1.16,3.91,3.47,3.91c0.98,0,2-0.46,2.42-1.4h0.03v0.51c0,1.73-0.66,2.93-2.33,2.93
c-0.84,0-1.95-0.33-2.01-1.25H16.5c0.07,1.69,1.76,2.27,3.21,2.27c2.45,0,3.6-1.28,3.6-3.79v-7.06h-1.2V46.25z M19.74,51.83
c-1.68,0-2.19-1.55-2.19-2.94c0-1.48,0.66-2.81,2.3-2.81c1.6,0,2.21,1.4,2.21,2.76C22.05,50.3,21.42,51.83,19.74,51.83z M28.1,44.97
c-2.12,0-3.64,1.7-3.64,4.02c0.07,2.36,1.24,4.06,3.72,4.06c1.74,0,2.97-0.93,3.31-2.63h-1.26c-0.22,1-0.96,1.51-2.01,1.51
c-1.69,0-2.46-1.19-2.42-2.54h5.81C31.69,47.52,30.85,44.97,28.1,44.97z M25.81,48.27c0.09-1.18,0.89-2.18,2.22-2.18
c1.26,0,2.18,0.97,2.24,2.18H25.81z M29.28,29.28v1.34c-2.06,0-2.81,1.17-2.81,3.12v3.43H25.2v-7.72h1.2v1.63h0.03
C27.04,29.85,27.9,29.24,29.28,29.28z M36.41,44.97c-1.11,0-1.98,0.45-2.52,1.4h-0.03v-1.22h-1.2v7.72h1.27V48.5
c0-1.39,0.75-2.42,2.3-2.42c0.98,0,1.57,0.61,1.57,1.55v5.23h1.28v-5.08C39.08,46.13,38.45,44.97,36.41,44.97z M43.85,51.92
c-1.62,0-2.27-1.4-2.27-2.82c0-1.57,0.57-3.02,2.42-3.02c1.05,0,1.73,0.57,1.92,1.54h1.32c-0.18-1.84-1.59-2.66-3.35-2.66
c-2.46,0-3.66,1.82-3.66,4.14c0,2.3,1.26,3.94,3.63,3.94c1.95,0,3.14-1.12,3.42-3h-1.3C45.81,51.21,45.08,51.92,43.85,51.92z
M104.69,32.73c-1.19-0.28-2.54-0.43-2.54-1.34c0-0.78,0.89-0.99,1.65-0.99c0.84,0,1.71,0.31,1.8,1.3h1.28
c-0.1-1.88-1.47-2.42-3.18-2.42c-1.35,0-2.89,0.64-2.89,2.19c0,1.48,1.27,1.9,2.53,2.18c1.28,0.28,2.53,0.45,2.53,1.43
c0,0.97-1.08,1.15-1.87,1.15c-1.05,0-2.04-0.36-2.08-1.49h-1.28c0.07,1.91,1.54,2.61,3.29,2.61c1.57,0,3.3-0.6,3.3-2.43
C107.22,33.43,105.96,33.01,104.69,32.73z M37.74,37.18h1.27V26.52h-1.27V37.18z M22.39,33.82c0,1.39-0.75,2.42-2.3,2.42
c-0.98,0-1.58-0.61-1.58-1.55v-5.23h-1.27v5.08c0,1.66,0.63,2.82,2.67,2.82c1.11,0,1.98-0.45,2.52-1.4h0.03v1.22h1.2v-7.72h-1.27
V33.82z M92.59,29.28c-1.11,0-1.98,0.45-2.52,1.4h-0.03v-1.22h-1.2v7.72h1.27v-4.36c0-1.39,0.75-2.42,2.3-2.42
c0.98,0,1.58,0.61,1.58,1.55v5.23h1.27V32.1C95.26,30.45,94.63,29.28,92.59,29.28z M51.14,51.46h-0.03l-2.27-6.31H47.4l3.08,7.67
l-0.52,1.32c-0.24,0.45-0.53,0.7-1.05,0.7c-0.25,0-0.51-0.11-0.75-0.18v1.17c0.28,0.1,0.59,0.13,0.89,0.13
c1.14,0,1.66-0.55,2.25-2.06l3.38-8.75h-1.35L51.14,51.46z M98.54,27.15h-1.27v2.31h-1.32v1.12h1.32v4.91
c0,1.42,0.52,1.69,1.85,1.69h0.97v-1.12H99.5c-0.8,0-0.96-0.1-0.96-0.69v-4.79h1.54v-1.12h-1.54V27.15z M64.33,35.78H64.3
l-2.27-6.32H60.6l3.07,7.67l-0.52,1.32c-0.24,0.45-0.53,0.7-1.05,0.7c-0.25,0-0.51-0.11-0.75-0.18v1.16
c0.28,0.1,0.59,0.13,0.89,0.13c1.14,0,1.67-0.55,2.25-2.06l3.38-8.75h-1.35L64.33,35.78z M76.92,29.28c-0.99,0-1.9,0.49-2.43,1.31
c-0.31-0.94-1.19-1.31-2.13-1.31c-1.07,0-1.93,0.45-2.51,1.31h-0.03v-1.13h-1.2v7.72h1.27v-4.81c0-0.58,0.56-1.97,2.07-1.97
c1.14,0,1.45,0.72,1.45,1.72v5.06h1.27v-4.81c0-1.19,0.8-1.97,2.03-1.97c1.25,0,1.5,0.76,1.5,1.72v5.06h1.27v-5.66
C79.5,29.92,78.46,29.28,76.92,29.28z M0,52.8h1.26V0H0V52.8z"/>
</svg>
