<svg width="126" height="48" viewBox="0 0 126 48" xmlns="http://www.w3.org/2000/svg">
  <path d="m5.51 39.8c-.05.05-.11.08-.18.08h-1.83v5.66c0 .07-.02.13-.08.18-.05.05-.11.08-.18.08h-.4c-.07 0-.13-.02-.18-.08-.05-.05-.08-.11-.08-.18v-5.66h-1.81c-.07 0-.13-.02-.18-.08-.05-.05-.08-.11-.08-.18v-.35c0-.07.02-.13.08-.18.05-.05.11-.08.18-.08h4.55c.07 0 .13.02.18.08.05.05.08.12.08.18v.35c0 .07-.03.13-.07.18zm4.43 3.03c.01.06.01.13.01.21v.5c0 .08 0 .14-.01.2-.03.32-.11.62-.21.88s-.26.5-.46.68c-.2.19-.43.34-.7.44-.27.11-.59.16-.93.16-.35 0-.66-.05-.93-.16-.26-.1-.5-.25-.7-.44s-.36-.42-.46-.68c-.11-.27-.18-.56-.21-.88-.01-.05-.02-.12-.02-.2-.01-.08-.01-.17-.01-.25 0-.09 0-.18.01-.25 0-.08.01-.15.02-.21.02-.32.09-.61.21-.88.11-.27.27-.5.46-.69.2-.19.43-.34.7-.44.27-.11.59-.16.93-.16.35 0 .66.05.93.16s.5.25.7.44.35.42.46.69c.12.26.19.56.21.88zm-.86.45c0-.16-.01-.3-.02-.41-.02-.18-.06-.37-.13-.54-.06-.17-.15-.31-.27-.43-.11-.12-.26-.22-.43-.29-.19-.07-.39-.11-.59-.11-.23 0-.43.04-.59.11-.17.07-.31.17-.43.29-.11.12-.21.27-.27.43-.07.17-.11.35-.13.54-.02.11-.02.25-.02.41s.01.29.02.4c.02.2.06.37.13.54.06.17.15.31.27.44.11.12.26.22.43.29s.37.11.59.11c.23 0 .43-.04.59-.11.17-.07.31-.17.43-.29.11-.12.21-.27.27-.44.07-.17.11-.35.13-.54.01-.11.02-.24.02-.4zm6.27-2.45c.05.05.08.12.08.18v4.72c0 .67-.19 1.21-.57 1.61s-.95.59-1.72.59c-.39 0-.72-.05-1-.14-.24-.08-.47-.2-.68-.35-.18-.15-.31-.3-.4-.46-.08-.17-.14-.33-.14-.48-.01-.07.02-.13.08-.18.05-.05.12-.08.19-.08h.29c.07 0 .13.02.18.05.05.04.09.11.14.21.02.04.05.09.09.16.05.07.11.14.21.2.09.07.22.12.37.18.15.04.34.07.58.07.21 0 .41-.02.59-.06s.34-.11.48-.21.24-.23.31-.39c.08-.16.11-.36.11-.59v-.61c-.13.18-.31.33-.56.46-.24.13-.56.2-.95.2-.3 0-.59-.05-.85-.16s-.49-.26-.69-.46-.35-.44-.46-.72-.18-.6-.21-.96c-.01-.1-.01-.21-.01-.32s0-.22.01-.32c.02-.36.08-.68.21-.96.11-.28.27-.53.46-.72.2-.2.42-.35.69-.46.26-.11.55-.16.85-.16.4 0 .72.07.96.21s.42.29.54.45v-.31c0-.07.02-.13.08-.18.05-.05.11-.08.18-.08h.36c.09-.01.15.02.2.07zm-.8 2.45c0-.14-.01-.25-.01-.35-.02-.46-.16-.81-.41-1.07-.26-.25-.59-.37-1-.37-.43 0-.76.14-1.01.41-.24.27-.38.64-.41 1.1-.01.18-.01.37 0 .54.02.46.16.84.41 1.1.24.27.58.41 1.01.41.41 0 .74-.13 1-.38s.4-.6.41-1.06c.01-.07.01-.2.01-.33zm6.27-1.18c.11.3.15.65.15 1.02v.27c0 .07-.02.13-.08.18-.05.05-.11.08-.18.08h-3.34v.06c.02.44.14.78.4 1.01.25.24.57.35.96.35.36 0 .62-.05.8-.15s.32-.21.43-.34c.05-.05.1-.09.14-.11s.1-.03.18-.03h.29c.07 0 .14.02.2.08.06.05.08.11.07.18-.02.11-.08.24-.17.38s-.22.27-.4.39c-.17.12-.39.22-.64.3-.26.08-.56.12-.9.12-.32 0-.62-.06-.88-.17s-.49-.27-.68-.46c-.2-.2-.35-.44-.46-.7-.11-.27-.19-.56-.21-.88-.03-.3-.03-.59 0-.89.02-.3.1-.58.21-.84s.27-.49.46-.68c.19-.2.41-.35.68-.46.26-.11.56-.17.88-.17.35 0 .66.05.94.17.27.11.51.27.7.49.2.23.35.49.45.8zm-.71.7c0-.4-.12-.71-.37-.94s-.58-.36-1-.36c-.19 0-.37.03-.53.09s-.3.15-.43.26c-.12.12-.22.26-.29.41-.07.16-.11.34-.11.53v.03h2.73zm4.58 2.17h-.52c-.17 0-.3-.02-.41-.06-.1-.04-.19-.1-.25-.18s-.1-.18-.12-.28c-.02-.11-.03-.22-.03-.34v-2.52h1.23c.07 0 .13-.02.18-.08.05-.05.08-.12.08-.18v-.31c0-.07-.02-.13-.08-.18-.05-.05-.11-.08-.18-.08h-1.23v-1.58c0-.07-.02-.13-.08-.18-.05-.05-.11-.08-.18-.08h-.36c-.07 0-.13.02-.18.08s-.08.11-.08.18v1.58h-.72c-.07 0-.13.02-.18.08-.05.05-.08.12-.08.18v.31c0 .07.02.13.08.18.05.05.11.08.18.08h.72v2.51c0 .55.13.97.38 1.26s.66.43 1.23.43h.61c.07 0 .13-.02.18-.08.05-.05.08-.11.08-.18v-.31c0-.07-.02-.13-.08-.18-.06-.04-.12-.07-.19-.07zm5.03-3.74c-.19-.19-.41-.33-.66-.43-.26-.1-.54-.15-.85-.15-.4 0-.72.07-.96.21s-.43.29-.55.45v-2.15c0-.07-.02-.13-.08-.18-.05-.05-.11-.08-.18-.08h-.36c-.07 0-.13.02-.18.08-.05.05-.08.11-.08.18v6.37c0 .07.02.13.08.18.05.05.11.08.18.08h.36c.07 0 .13-.02.18-.08.05-.05.08-.11.08-.18v-2.56c0-.5.12-.87.37-1.12s.58-.37.98-.37c.43 0 .76.12 1 .37.24.24.36.62.36 1.12v2.56c0 .07.02.13.08.18.05.05.11.08.18.08h.36c.07 0 .13-.02.18-.08.05-.05.08-.11.08-.18v-2.71c0-.34-.05-.64-.15-.91-.09-.26-.24-.49-.42-.68zm5.93.87c.11.3.15.65.15 1.02v.27c0 .07-.02.13-.08.18-.05.05-.11.08-.18.08h-3.34v.06c.02.44.14.78.4 1.01.25.24.57.35.96.35.36 0 .62-.05.8-.15s.32-.21.43-.34c.05-.05.1-.09.14-.11s.1-.03.18-.03h.29c.07 0 .14.02.2.08s.08.11.07.18c-.02.11-.08.24-.17.38s-.22.27-.4.39c-.17.12-.39.22-.64.3-.26.08-.56.12-.9.12-.32 0-.62-.06-.88-.17s-.49-.27-.68-.46c-.2-.2-.35-.44-.46-.7-.11-.27-.19-.56-.21-.88-.03-.3-.03-.59 0-.89.02-.3.1-.58.21-.84s.27-.49.46-.68c.19-.2.41-.35.68-.46.26-.11.56-.17.88-.17.35 0 .66.05.94.17.27.11.51.27.7.49.2.23.34.49.45.8zm-.72.7c0-.4-.12-.71-.37-.94s-.58-.36-1-.36c-.19 0-.37.03-.53.09s-.3.15-.43.26c-.12.12-.22.26-.29.41-.07.16-.11.34-.11.53v.03h2.73zm4.48-2.05h-.5c-.29 0-.53.04-.71.14-.18.09-.34.24-.46.43v-.3c0-.07-.02-.13-.08-.18-.05-.06-.12-.09-.19-.08h-.36c-.07 0-.13.02-.18.08-.05.05-.08.12-.08.18v4.53c0 .07.02.13.08.18.05.05.11.08.18.08h.36c.07 0 .13-.02.18-.08.05-.05.08-.11.08-.18v-2.85c0-.75.37-1.12 1.12-1.12h.56c.07 0 .13-.02.18-.08.05-.05.08-.11.08-.18v-.31c0-.07-.02-.13-.08-.18-.04-.05-.11-.08-.18-.08zm6.33-2.13h-.61c-.56 0-.97.14-1.23.41-.25.27-.38.69-.38 1.23v.49h-.82c-.07 0-.13.02-.18.08-.05.05-.08.12-.08.18v.31c0 .07.02.13.08.18.05.05.11.08.18.08h.82v3.95c0 .07.02.13.08.18.05.05.11.08.18.08h.36c.07 0 .13-.02.18-.08.05-.05.08-.11.08-.18v-3.95h1.23c.07 0 .13-.02.18-.08.05-.05.08-.12.08-.18v-.31c0-.07-.02-.13-.08-.18-.05-.05-.11-.08-.18-.08h-1.23v-.43c0-.12.02-.24.03-.34.03-.21.18-.38.37-.46.11-.04.24-.06.41-.06h.52c.07 0 .13-.02.18-.08.05-.05.08-.12.08-.18v-.31c0-.07-.02-.13-.08-.18-.04-.05-.1-.09-.17-.09zm5.28 4.21c.01.06.01.13.01.21v.5c0 .08 0 .14-.01.2-.03.32-.11.62-.21.88s-.26.5-.46.68c-.19.19-.43.34-.7.44-.27.11-.59.16-.93.16-.35 0-.66-.05-.93-.16-.26-.1-.5-.25-.7-.44s-.36-.42-.46-.68c-.11-.27-.18-.56-.21-.88-.01-.05-.02-.12-.02-.2-.01-.08-.01-.17-.01-.25 0-.09 0-.18.01-.25 0-.08.01-.15.02-.21.02-.32.09-.61.21-.88.11-.27.27-.5.46-.69.2-.19.43-.34.7-.44.27-.11.58-.16.93-.16s.66.05.93.16.5.25.7.44.35.42.46.69c.11.26.18.56.21.88zm-.87.45c0-.16-.01-.3-.02-.41-.02-.19-.06-.37-.13-.54s-.15-.31-.27-.43-.26-.22-.43-.29c-.19-.07-.39-.11-.59-.11-.23 0-.43.04-.59.11-.17.07-.31.17-.43.29-.11.12-.21.27-.27.43-.06.17-.11.35-.12.54-.02.11-.02.25-.02.41s.01.29.02.4c.02.2.06.37.12.54.07.17.15.31.27.44.11.12.26.22.43.29s.37.11.59.11.43-.04.59-.11c.17-.07.31-.17.43-.29.11-.12.21-.27.27-.44.07-.17.11-.35.13-.54.01-.11.02-.24.02-.4zm4.53-2.53h-.5c-.29 0-.53.04-.71.14-.18.09-.34.24-.46.43v-.3c0-.07-.02-.13-.08-.18-.05-.05-.11-.08-.18-.08h-.36c-.07 0-.14.03-.18.08-.05.05-.08.11-.08.18v4.53c0 .07.02.13.08.18.05.05.11.08.18.08h.36c.07 0 .13-.02.18-.08.05-.05.08-.11.08-.18v-2.83c0-.75.37-1.12 1.12-1.12h.56c.07 0 .13-.02.18-.08s.08-.12.08-.18v-.31c0-.07-.02-.13-.08-.18-.04-.07-.11-.1-.19-.1zm8.95.89c.01.29.01.55.01.77s0 .47-.01.77c-.01.4-.08.78-.21 1.1-.14.33-.32.6-.56.83s-.53.4-.85.52c-.33.12-.69.18-1.1.18h-2.28c-.07 0-.13-.02-.18-.08-.05-.05-.08-.11-.08-.18v-6.27c0-.08.02-.13.08-.18.05-.05.11-.08.18-.08h2.22c.4 0 .77.06 1.11.18s.63.29.88.52c.24.23.43.5.58.83.14.31.21.68.21 1.09zm-.91.77c0-.11 0-.21-.01-.33 0-.11-.01-.24-.01-.4-.01-.24-.05-.46-.11-.68-.14-.45-.47-.81-.91-.98-.24-.1-.53-.15-.88-.15h-1.52v5.05h1.58c.35 0 .64-.05.88-.15s.43-.24.57-.4c.14-.17.24-.36.3-.58.06-.21.09-.44.1-.68 0-.14 0-.27.01-.38 0-.1 0-.22 0-.32zm2.72-1.66h-.36c-.07 0-.13.02-.18.08-.05.05-.08.12-.08.18v4.53c0 .07.02.13.08.18.05.05.11.08.18.08h.36c.07 0 .13-.02.18-.08.05-.05.08-.11.08-.18v-4.53c0-.07-.02-.13-.08-.18-.05-.05-.11-.07-.18-.08zm.1-1.84h-.56c-.07 0-.13.02-.18.08s-.08.11-.08.18v.56c0 .07.02.13.08.18s.11.08.18.08h.56c.07 0 .13-.02.18-.08.05-.05.08-.11.08-.18v-.56c0-.07-.02-.13-.08-.18-.05-.05-.11-.08-.18-.08zm5.74 1.92c.05.05.08.12.08.18v4.72c0 .67-.19 1.21-.57 1.61s-.95.59-1.72.59c-.39 0-.72-.05-.99-.14-.24-.08-.47-.2-.68-.35-.18-.15-.31-.3-.4-.46-.09-.17-.14-.33-.14-.48-.01-.07.01-.13.08-.18.05-.05.12-.08.19-.08h.29c.07 0 .13.02.18.05.05.04.09.11.14.21.02.04.05.09.09.16s.11.14.21.2c.09.07.21.12.36.18.15.04.34.07.58.07.21 0 .41-.02.59-.06s.34-.11.48-.21.24-.23.31-.39c.08-.16.12-.36.12-.59v-.61c-.13.18-.31.33-.56.46-.24.13-.56.2-.95.2-.3 0-.59-.05-.85-.16s-.49-.26-.69-.46-.35-.44-.47-.72c-.11-.28-.18-.6-.2-.96-.01-.1-.01-.21-.01-.32s0-.22.01-.32c.01-.36.08-.68.2-.96s.28-.53.47-.72c.2-.2.42-.35.69-.46.26-.11.55-.16.85-.16.4 0 .72.07.96.21s.42.29.55.45v-.31c0-.07.02-.13.08-.18.05-.05.12-.08.18-.08h.36c.07-.01.13.02.18.07zm-.79 2.45c0-.14-.01-.25-.01-.35-.02-.46-.16-.81-.41-1.07-.26-.25-.59-.37-1-.37-.43 0-.76.14-1.01.41s-.38.64-.4 1.1c-.01.18-.01.37 0 .54.02.46.16.84.4 1.1.24.27.59.41 1.01.41.41 0 .74-.13 1-.38s.4-.6.41-1.06c0-.07.01-.2.01-.33zm2.9-4.37h-.56c-.07 0-.13.02-.18.08-.05.05-.08.11-.08.18v.56c0 .07.02.13.08.18.05.05.11.08.18.08h.56c.07 0 .13-.02.18-.08.05-.05.08-.11.08-.18v-.56c0-.07-.02-.13-.08-.18-.05-.05-.11-.08-.18-.08zm-.1 1.84h-.36c-.07 0-.13.02-.18.08-.05.05-.08.12-.08.18v4.53c0 .07.02.13.08.18.05.05.11.08.18.08h.36c.07 0 .13-.02.18-.08.05-.05.08-.11.08-.18v-4.53c0-.07-.02-.13-.08-.18-.05-.05-.11-.08-.18-.08zm4.31 4.22h-.52c-.17 0-.3-.02-.41-.06-.11-.05-.19-.1-.24-.18-.06-.08-.1-.18-.12-.28-.02-.11-.04-.22-.04-.34v-2.52h1.23c.07 0 .13-.02.18-.08.05-.05.08-.12.08-.18v-.31c0-.07-.02-.13-.08-.18-.05-.05-.11-.08-.18-.08h-1.23v-1.58c0-.07-.02-.13-.08-.18-.05-.05-.11-.08-.18-.08h-.36c-.07 0-.13.02-.18.08-.05.05-.08.11-.08.18v1.58h-.72c-.07 0-.13.02-.18.08-.05.05-.08.12-.08.18v.31c0 .07.02.13.08.18.05.05.11.08.18.08h.72v2.51c0 .55.13.97.38 1.26s.66.43 1.22.43h.61c.07 0 .13-.02.18-.08.05-.05.08-.11.08-.18v-.31c0-.07-.02-.13-.08-.18-.05-.04-.11-.07-.18-.07zm5.02-3.22c.1.24.15.52.15.82v2.96c0 .07-.02.13-.08.18-.05.05-.11.08-.18.08h-.36c-.07 0-.13-.02-.18-.08-.05-.05-.08-.11-.08-.18v-.4c-.06.12-.15.23-.27.33-.12.09-.27.18-.42.24-.16.06-.32.11-.5.14-.17.03-.33.05-.48.05-.25 0-.49-.04-.69-.11-.2-.06-.38-.16-.53-.29-.14-.12-.26-.27-.34-.43-.08-.17-.12-.35-.12-.55 0-.26.05-.49.15-.68.11-.2.24-.36.43-.49.18-.14.4-.24.63-.33.24-.08.5-.15.77-.2l1.37-.22v-.13c0-.33-.11-.58-.33-.74-.21-.17-.49-.25-.81-.25-.28 0-.5.05-.65.15-.15.11-.28.23-.37.37-.04.05-.08.08-.12.11-.04.02-.11.03-.18.03h-.29c-.07 0-.13-.02-.19-.08-.05-.05-.08-.11-.08-.18.02-.14.07-.29.17-.43.1-.15.24-.28.41-.4.17-.11.37-.21.6-.29.22-.08.46-.11.72-.11.29 0 .56.05.81.13s.46.21.64.37c.16.18.29.38.4.61zm-.74 1.63-1.14.18c-.41.07-.73.17-.98.31-.24.15-.36.33-.36.56 0 .07.01.14.04.21.09.18.24.31.43.36.11.04.25.06.42.06.24 0 .45-.04.64-.11.2-.07.36-.17.5-.3s.24-.28.32-.45c.08-.18.11-.37.11-.59zm2.79-4.47h-.36c-.07 0-.13.02-.18.08-.05.05-.08.11-.08.18v6.37c0 .07.02.13.08.18.05.05.11.08.18.08h.36c.07 0 .13-.02.18-.08.05-.05.08-.11.08-.18v-6.37c0-.07-.02-.13-.08-.18-.04-.05-.11-.08-.18-.08zm5.46 1.37c.3-.34.75-.5 1.32-.5.31 0 .57.04.79.11.21.08.39.17.53.3.14.12.24.27.32.42.08.16.13.32.17.48.02.12.13.21.25.21h.45c.06 0 .11-.02.15-.06s.06-.09.06-.15c-.01-.24-.07-.48-.17-.7-.11-.25-.26-.49-.48-.72-.22-.22-.49-.41-.84-.56-.34-.15-.76-.22-1.23-.22-.42 0-.79.07-1.13.2-.64.24-1.15.75-1.39 1.39-.13.32-.2.67-.21 1.05-.02.58-.02 1.15 0 1.73.01.38.08.73.21 1.05s.31.59.55.83c.24.23.52.42.85.55s.71.2 1.13.2c.49 0 .9-.08 1.23-.22.34-.15.62-.34.84-.56s.37-.46.48-.72c.11-.25.16-.49.17-.7 0-.06-.02-.11-.06-.15s-.1-.06-.15-.06h-.47c-.05 0-.11.02-.15.05-.05.04-.08.09-.1.16-.04.16-.1.32-.17.48-.08.16-.18.3-.32.43-.14.12-.31.22-.53.3-.21.08-.47.11-.79.11-.58 0-1.02-.17-1.32-.5-.31-.34-.47-.77-.49-1.3-.01-.29-.01-.56-.01-.82 0-.25.01-.53.01-.82.02-.52.18-.95.5-1.29zm8.93 1.47c.1.24.15.52.15.82v2.96c0 .07-.02.13-.08.18-.05.05-.11.08-.18.08h-.35c-.07 0-.13-.02-.18-.08-.05-.05-.08-.11-.08-.18v-.4c-.06.12-.15.23-.27.33-.12.09-.27.18-.42.24-.16.06-.32.11-.49.14s-.33.05-.48.05c-.25 0-.49-.04-.69-.11-.2-.06-.38-.16-.53-.29-.14-.12-.26-.27-.34-.43-.08-.17-.12-.35-.12-.55 0-.26.05-.49.15-.68s.24-.36.43-.49c.18-.14.4-.24.63-.33.24-.08.5-.15.77-.2l1.37-.22v-.13c0-.33-.11-.58-.33-.74-.21-.17-.49-.25-.81-.25-.29 0-.5.05-.65.15-.15.11-.27.23-.37.37-.03.05-.08.08-.13.11-.05.02-.11.03-.18.03h-.29c-.07 0-.14-.02-.19-.08-.05-.05-.08-.11-.08-.18.01-.14.07-.29.17-.43.1-.15.24-.28.4-.4.17-.11.36-.21.59-.29.22-.08.46-.11.72-.11.29 0 .56.05.81.13s.46.21.64.37c.17.18.31.38.41.61zm-.74 1.63-1.14.18c-.41.07-.73.17-.98.31-.24.15-.36.33-.36.56 0 .07.01.14.04.21s.08.14.16.21c.07.07.16.11.28.15.11.04.25.06.42.06.24 0 .45-.04.64-.11.2-.07.36-.17.5-.3s.24-.28.32-.45c.08-.18.12-.37.12-.59zm4.74-2.63h-.5c-.29 0-.53.04-.71.14-.18.09-.34.24-.46.43v-.3c0-.07-.02-.13-.08-.18-.05-.05-.11-.08-.18-.08h-.36c-.07 0-.13.02-.18.08-.05.05-.08.11-.08.18v4.53c0 .07.02.13.08.18.05.05.11.08.18.08h.36c.07 0 .13-.02.18-.08.05-.05.08-.11.08-.18v-2.83c0-.75.37-1.12 1.12-1.12h.56c.07 0 .13-.02.18-.08.05-.05.08-.12.08-.18v-.31c0-.07-.02-.13-.08-.18-.05-.07-.12-.1-.19-.1zm5.21 2.37v.27c0 .07-.03.13-.08.18s-.11.08-.18.08h-3.34v.06c.01.44.14.78.4 1.01.25.24.57.35.96.35.36 0 .62-.05.8-.15.17-.1.32-.21.43-.34.05-.05.1-.09.14-.11s.1-.03.17-.03h.29c.07 0 .14.02.2.08.06.05.08.11.07.18-.02.11-.08.24-.17.38s-.22.27-.4.39c-.17.12-.39.22-.64.3-.26.08-.56.12-.9.12-.32 0-.62-.06-.88-.17s-.49-.27-.68-.46c-.19-.2-.35-.44-.46-.7-.11-.27-.19-.56-.21-.88-.03-.3-.03-.59 0-.89.02-.3.1-.58.21-.84s.27-.49.46-.68c.18-.2.41-.35.68-.46.26-.11.56-.17.88-.17.35 0 .66.05.94.17.27.11.51.27.7.49.19.21.34.47.45.78.1.32.16.66.16 1.04zm-.87-.32c0-.4-.12-.71-.37-.94-.25-.24-.58-.36-1-.36-.18 0-.37.03-.53.09s-.31.15-.43.26c-.12.12-.22.26-.29.41-.07.16-.11.34-.11.53v.03h2.73zm-82.88-26.89c-1.01 0-1.92.18-2.72.53-.81.35-1.49.84-2.06 1.46s-1.02 1.36-1.36 2.25c-.34.88-.56 1.84-.63 2.9-.02.31-.03.72-.03 1.23 0 .52.01.93.03 1.23.08 1.05.3 2.02.63 2.9.34.88.8 1.63 1.38 2.26s1.27 1.11 2.07 1.46c.81.34 1.7.51 2.69.51.97 0 1.84-.14 2.63-.42.78-.28 1.45-.62 2-1.01s.97-.81 1.26-1.23c.3-.44.46-.79.48-1.08.03-.17-.04-.34-.17-.45s-.31-.17-.48-.17h-.5c-.23 0-.39.03-.5.08s-.24.21-.43.48c-.08.12-.23.3-.45.53-.21.23-.5.45-.85.66-.35.22-.78.41-1.27.57-.5.17-1.07.25-1.73.25-.74 0-1.42-.15-2.01-.46-.6-.31-1.1-.72-1.52-1.22-.41-.5-.74-1.09-.98-1.74-.24-.66-.37-1.34-.39-2.04v-.31h11.02c.21 0 .37-.06.51-.18s.2-.29.2-.5v-.46c0-2.5-.59-4.45-1.79-5.87-1.18-1.45-2.87-2.16-5.03-2.16zm4.95 7.4h-9.84v-.12c0-.76.11-1.48.33-2.15.21-.67.53-1.26.96-1.75.42-.5.94-.89 1.53-1.16.59-.28 1.29-.42 2.07-.42.76 0 1.46.14 2.07.42.62.27 1.14.66 1.56 1.16s.75 1.08.98 1.75.34 1.39.34 2.15zm36.5-7.4c-1.01 0-1.92.18-2.72.53-.81.35-1.49.84-2.06 1.46-.56.62-1.02 1.36-1.36 2.25-.34.88-.56 1.84-.63 2.9-.02.31-.03.72-.03 1.23 0 .52.01.93.03 1.23.08 1.05.3 2.02.63 2.9.34.88.8 1.63 1.38 2.26s1.27 1.11 2.07 1.46c.81.34 1.7.51 2.69.51.97 0 1.84-.14 2.63-.42s1.45-.62 2-1.01.97-.81 1.27-1.23c.3-.44.46-.79.48-1.08.03-.17-.04-.34-.17-.45s-.31-.17-.48-.17h-.5c-.23 0-.39.03-.5.08s-.24.21-.43.48c-.08.12-.23.3-.45.53-.21.23-.5.45-.85.66-.35.22-.78.41-1.27.57-.5.17-1.07.25-1.73.25-.74 0-1.42-.15-2.01-.46-.6-.31-1.1-.72-1.52-1.22-.41-.5-.74-1.09-.98-1.74-.24-.66-.37-1.34-.39-2.04v-.31h11.02c.21 0 .37-.06.51-.18s.2-.29.2-.5v-.46c0-2.5-.59-4.45-1.79-5.87-1.2-1.45-2.88-2.16-5.04-2.16zm4.95 7.4h-9.84v-.12c0-.76.11-1.48.33-2.15.21-.67.53-1.26.96-1.75.42-.5.94-.89 1.53-1.16.6-.28 1.29-.42 2.07-.42.76 0 1.45.14 2.07.42.62.27 1.14.66 1.56 1.16s.75 1.08.98 1.75.34 1.39.34 2.15zm16.04-7.4c-1.01 0-1.92.18-2.72.53-.81.35-1.49.84-2.06 1.46s-1.02 1.36-1.36 2.25c-.34.88-.55 1.84-.63 2.9-.02.31-.03.72-.03 1.23 0 .52.01.93.03 1.23.08 1.05.3 2.02.63 2.9.34.88.8 1.63 1.38 2.26s1.27 1.11 2.07 1.46c.81.34 1.7.51 2.69.51.97 0 1.84-.14 2.63-.42.78-.28 1.45-.62 2-1.01s.97-.81 1.26-1.23c.3-.44.46-.79.48-1.08.03-.17-.04-.34-.17-.45s-.3-.17-.48-.17h-.49c-.23 0-.39.03-.5.08s-.24.21-.44.48c-.08.12-.23.3-.45.53-.21.23-.5.45-.85.66-.35.22-.77.41-1.27.57-.49.17-1.07.25-1.73.25-.74 0-1.41-.15-2.01-.46-.58-.3-1.1-.71-1.52-1.22-.41-.5-.74-1.09-.98-1.74-.24-.66-.37-1.34-.39-2.04v-.31h11.02c.21 0 .37-.06.51-.18s.2-.29.2-.5v-.46c0-2.5-.6-4.45-1.79-5.87-1.18-1.45-2.86-2.16-5.03-2.16zm4.96 7.4h-9.84v-.12c0-.76.11-1.48.33-2.15.21-.67.53-1.26.96-1.75.42-.5.94-.89 1.53-1.16.59-.28 1.29-.42 2.07-.42.76 0 1.46.14 2.07.42.62.27 1.14.66 1.56 1.16s.75 1.08.98 1.75.34 1.39.34 2.15zm-76.65 1.23c.28.6.42 1.32.42 2.16 0 1.87-.69 3.33-2.07 4.37-1.38 1.03-3.28 1.55-5.69 1.55-1.26 0-2.37-.16-3.34-.48s-1.79-.74-2.46-1.26-1.19-1.1-1.55-1.78c-.37-.67-.56-1.36-.58-2.06 0-.17.06-.31.18-.43s.28-.18.46-.18h.62c.21 0 .36.06.46.18.11.12.18.27.21.43.06.43.21.87.46 1.32.25.44.62.84 1.1 1.19.49.35 1.09.64 1.81.87s1.59.34 2.6.34c2.02 0 3.5-.37 4.43-1.1s1.39-1.72 1.39-2.96c0-.62-.14-1.13-.4-1.56-.27-.42-.68-.8-1.23-1.14-.56-.34-1.26-.66-2.1-.98-.85-.31-1.84-.65-3-1.02-1.11-.35-2.06-.71-2.86-1.07-.79-.36-1.46-.78-1.98-1.23-.53-.46-.91-1-1.16-1.61-.24-.61-.37-1.33-.37-2.18 0-.78.16-1.52.48-2.19.32-.68.78-1.26 1.38-1.77.6-.5 1.34-.88 2.22-1.17s1.9-.43 3.06-.43c1.22 0 2.28.17 3.18.51.91.34 1.66.78 2.26 1.3.59.53 1.05 1.11 1.36 1.74s.47 1.26.5 1.86c0 .17-.05.31-.15.43-.11.11-.27.18-.5.18h-.61c-.11 0-.23-.04-.39-.12-.15-.08-.25-.24-.29-.5-.12-1.03-.66-1.88-1.62-2.55s-2.2-1.01-3.73-1.01c-.76 0-1.46.08-2.1.21-.64.14-1.19.37-1.64.68-.46.31-.81.69-1.07 1.16-.26.46-.39 1.01-.39 1.65 0 .62.12 1.14.36 1.58.24.43.62.82 1.13 1.17.52.35 1.17.68 1.95.99s1.73.64 2.85.99c1.16.37 2.16.74 3.02 1.1.85.36 1.57.77 2.13 1.22.56.48.98 1.01 1.26 1.6zm25.99-8.32h-1.14c-2.06 0-3.47.71-4.21 2.13v-1.42c0-.21-.07-.37-.2-.51-.14-.13-.32-.21-.51-.2h-.5c-.21 0-.37.07-.5.2-.12.14-.18.3-.18.51v14.7c0 .46.23.68.68.68h.5c.21 0 .37-.06.51-.18s.2-.29.2-.5v-9.59c0-1.23.36-2.22 1.08-2.94s1.7-1.08 2.94-1.08h1.33c.45 0 .68-.23.68-.68v-.44c0-.45-.23-.68-.68-.68zm16.31 0h-.65c-.21 0-.36.05-.46.17-.11.11-.18.21-.21.3l-5.23 13.37-5.24-13.37c-.04-.08-.11-.18-.21-.3-.11-.11-.26-.17-.46-.17h-.65c-.17 0-.3.06-.43.18-.12.12-.18.27-.18.43 0 .11.02.22.06.34l5.69 14.35c.11.23.24.41.42.56.18.14.43.21.75.21h.5c.33 0 .59-.07.76-.21.18-.14.31-.33.42-.56l5.69-14.36c.04-.12.06-.24.06-.34 0-.17-.06-.31-.18-.43-.13-.1-.29-.17-.45-.17zm19.11-5.88h-.53c-.46 0-.68.23-.68.68v20.61c0 .46.23.68.68.68h.53c.46 0 .68-.23.68-.68v-20.6c0-.46-.23-.69-.68-.69zm31.69 16.68h-.43c-.23 0-.38.05-.46.14s-.18.26-.28.51c-.44 1.17-1.03 2-1.78 2.46s-1.68.69-2.77.69c-1.4 0-2.57-.43-3.48-1.28-.92-.85-1.41-2.26-1.47-4.19-.02-.31-.03-.67-.03-1.08s.01-.78.03-1.08c.06-1.94.55-3.34 1.47-4.19.91-.85 2.08-1.28 3.48-1.28 1.09 0 2.02.23 2.77.69s1.35 1.28 1.78 2.46c.11.25.2.42.28.51s.24.14.46.14h.43c.18 0 .35-.06.5-.18.14-.12.2-.29.18-.5-.02-.56-.16-1.13-.42-1.7-.26-.58-.65-1.11-1.17-1.59-.53-.49-1.19-.88-1.98-1.17-.79-.3-1.74-.45-2.83-.45-2.19 0-3.86.63-5.01 1.89-1.16 1.26-1.77 3-1.83 5.23-.02.31-.03.72-.03 1.23s.01.93.03 1.23c.06 2.22.67 3.97 1.83 5.23s2.83 1.89 5.01 1.89c1.09 0 2.03-.15 2.83-.45.79-.3 1.46-.69 1.98-1.17.53-.49.92-1.01 1.17-1.59.26-.58.4-1.14.42-1.7.02-.21-.04-.37-.18-.5-.14-.14-.32-.21-.5-.2zm16.86-15.59v-.22c0-.02-.01-.04-.01-.06-.01-.25-.04-.5-.11-.74-.01-.04-.02-.08-.03-.11-.06-.24-.14-.49-.24-.72l-.05-.09c-.11-.24-.24-.47-.38-.69-.02-.02-.03-.04-.05-.06-.16-.23-.34-.44-.53-.65-.01-.01-.01-.01-.01-.02l-.02-.02c-.04-.05-.25-.25-.62-.51-.02-.02-.03-.03-.05-.04-.02-.02-.04-.03-.08-.05-.02-.02-.04-.03-.06-.04-.02-.02-.04-.02-.06-.04 0 0-.01 0-.01-.01-.03-.02-.06-.04-.09-.05-.01-.01-.02-.02-.03-.02-.05-.03-.11-.06-.17-.09-.02-.02-.05-.03-.08-.04-.03-.02-.05-.02-.08-.04-.01 0-.02-.01-.02-.01-.01 0-.02-.01-.02-.01-.15-.07-.31-.13-.47-.18-.06-.02-.12-.04-.18-.05-.14-.04-.29-.08-.43-.11-.05-.01-.1-.02-.15-.03-.17-.02-.34-.05-.51-.05-.06 0-.12-.01-.19-.01h-1.85v-1.83c0-2.64-2.15-4.78-4.78-4.78-.53 0-1.04.08-1.52.24 1.84 0 3.36 1.49 3.36 3.33v3.04h-3.09c-.27 0-.52-.05-.77-.1-.14-.99.17-2.02.93-2.78.03-.03.07-.07.1-.09.55-.65.52-1.62-.09-2.24-.64-.65-1.68-.65-2.32-.02-.01.01-.01.01-.02.02-.52.53-.92 1.17-1.15 1.87 0 .01 0 .02-.01.02-.07.22-.13.44-.17.67 0 .01-.01.02-.01.03s-.01.02-.01.03l-.02.16c0 .02-.01.04-.01.05s0 .04-.01.05c0 .02-.01.05-.01.07v.02c0 .02 0 .05-.01.08 0 .05-.01.08-.01.13v.21c0 .08 0 .15.01.23 0 .05.01.1.02.14 0 .02 0 .04.01.06v.02l.02.19c0 .02 0 .02.01.03.01.07.02.14.04.21v.02l.05.21c0 .01 0 .01.01.02.02.07.04.14.05.21 0 .01.01.02.01.02.02.06.04.13.06.19.01.01.01.02.01.03.02.06.05.11.07.18 0 .01.01.02.01.02 0 .01.01.01.01.02s0 .01.01.02c.02.05.05.1.07.15.01.02.02.05.03.07.02.05.05.08.07.13.01.01.01.02.02.03.01.02.02.03.02.05v.01c.01.04.04.08.06.11s.04.06.05.1c.02.03.04.07.06.1.02.02.02.04.04.06.01.01.02.02.02.03s.01.01.01.02c.02.03.04.06.06.09s.05.07.08.1l.07.09c.01.02.04.05.05.07.01.01.01.02.02.02l.01.01c.03.04.06.07.09.11.02.02.04.05.06.08.05.06.11.11.16.18 0 0 .01.01.02.01.02.02.12.13.31.28.02.01.02.02.04.03.08.06.16.12.26.2.11.08.23.16.36.23l.25.14c.07.04.14.07.21.1.1.05.2.08.3.11.12.05.25.08.39.12.11.03.21.05.32.08l.27.05c.17.02.35.04.53.05.02 0 .04.01.05.01h1.95v1.84c0 2.64 2.15 4.78 4.78 4.78.53 0 1.04-.08 1.52-.25-1.84 0-3.36-1.49-3.36-3.33v-3.1h2.99c.27 0 .52.05.76.1.14.99-.18 2.03-.93 2.78-.03.03-.07.06-.1.09-.55.65-.52 1.62.09 2.24.32.32.75.49 1.17.49s.85-.16 1.17-.49c.55-.55.93-1.2 1.15-1.88v.02c.02-.04.02-.08.04-.11 0-.01.01-.02.01-.03s0-.01.01-.02c.04-.14.08-.28.11-.43v-.02c0-.01 0-.02.01-.02.01-.05.02-.11.03-.17 0-.02.01-.05.01-.07.01-.05.01-.09.01-.14v-.08c.01-.05.01-.08.01-.13 0-.03.01-.06.01-.08 0-.06.01-.11.01-.18v-.02c-.01-.04-.01-.04-.01-.05zm-14.52-9.74c.24-.25.58-.38.92-.38.35 0 .68.14.92.38.47.47.51 1.23.08 1.75l-.09.09c-.79.8-1.13 1.88-1.03 2.93h-.01c.01.05.01.08.02.12l.02.18c.01.02.01.07.02.09h.01c.13.62.4 1.21.85 1.71.24.26.49.46.76.63-.06-.01-.11-.01-.18-.02l-.11-.02c-.25-.05-.5-.13-.75-.23-.02-.01-.05-.02-.07-.03-.24-.1-.46-.22-.68-.37-.02-.02-.03-.02-.05-.04-.23-.15-.44-.33-.64-.53-.21-.21-.4-.44-.56-.69 0-.01-.01-.01-.01-.02-.16-.24-.29-.5-.4-.75l-.01-.01c-.11-.27-.19-.54-.24-.82v.02c-.05-.25-.07-.51-.08-.77 0-.03-.01-.07 0-.1.03-1.14.46-2.26 1.31-3.12zm4.13 7.57h-.78c-.47-.19-.97-.48-1.38-.94-.36-.4-.6-.88-.73-1.39.22.05.45.08.69.08h3.09v2.25zm5.4 6.6c-2.34-.14-4.16-2.08-4.17-4.43v-2.18l.01-5.64c0-1.39-.78-2.59-1.92-3.22 2.32.14 4.17 2.07 4.17 4.43v2.18l-.01 5.64c0 1.34.74 2.58 1.92 3.22zm1.43-6.61h-2.99v-2.25h1.57c.47.19.97.48 1.38.94.36.4.6.88.73 1.39-.23-.05-.46-.08-.69-.08zm1.92 5.33c-.25.24-.58.38-.92.38-.35 0-.68-.14-.92-.38-.47-.47-.51-1.24-.08-1.75l.09-.09c.77-.77 1.15-1.85 1.04-2.93h.01c-.01-.05-.01-.1-.02-.14-.01-.05-.01-.09-.02-.14-.01-.03-.01-.07-.02-.1h-.01c-.13-.62-.4-1.2-.85-1.71-.22-.24-.47-.46-.75-.63.11.02.23.02.34.05l.1.02c.24.06.46.14.68.24.31.14.56.29.76.43s.38.29.56.46l.01.02.01.01.02.02c.19.19.35.4.5.62.05.07.09.14.14.22.09.16.18.32.25.48.04.08.08.17.11.25.07.18.11.36.16.54.02.07.04.14.05.21.04.24.06.46.07.7v.17c-.03 1.13-.5 2.23-1.31 3.05z" fill="currentColor"></path>
</svg>