<svg xmlns="http://www.w3.org/2000/svg" width="126" height="48" viewBox="0 0 126 48">
<path fill="#25222C" d="M5.51,39.8c-0.05,0.05-0.11,0.08-0.18,0.08H3.5v5.66c0,0.07-0.02,0.13-0.08,0.18
c-0.05,0.05-0.11,0.08-0.18,0.08h-0.4c-0.07,0-0.13-0.02-0.18-0.08c-0.05-0.05-0.08-0.11-0.08-0.18v-5.66H0.77
c-0.07,0-0.13-0.02-0.18-0.08c-0.05-0.05-0.08-0.11-0.08-0.18v-0.35c0-0.07,0.02-0.13,0.08-0.18c0.05-0.05,0.11-0.08,0.18-0.08h4.55
c0.07,0,0.13,0.02,0.18,0.08c0.05,0.05,0.08,0.12,0.08,0.18v0.35C5.58,39.69,5.55,39.75,5.51,39.8z M9.94,42.83
c0.01,0.06,0.01,0.13,0.01,0.21v0.5c0,0.08,0,0.14-0.01,0.2c-0.03,0.32-0.11,0.62-0.21,0.88s-0.26,0.5-0.46,0.68
c-0.2,0.19-0.43,0.34-0.7,0.44C8.3,45.85,7.98,45.9,7.64,45.9c-0.35,0-0.66-0.05-0.93-0.16c-0.26-0.1-0.5-0.25-0.7-0.44
c-0.2-0.19-0.36-0.42-0.46-0.68c-0.11-0.27-0.18-0.56-0.21-0.88c-0.01-0.05-0.02-0.12-0.02-0.2c-0.01-0.08-0.01-0.17-0.01-0.25
c0-0.09,0-0.18,0.01-0.25c0-0.08,0.01-0.15,0.02-0.21c0.02-0.32,0.09-0.61,0.21-0.88c0.11-0.27,0.27-0.5,0.46-0.69
c0.2-0.19,0.43-0.34,0.7-0.44c0.27-0.11,0.59-0.16,0.93-0.16c0.35,0,0.66,0.05,0.93,0.16c0.27,0.11,0.5,0.25,0.7,0.44
c0.2,0.19,0.35,0.42,0.46,0.69C9.85,42.21,9.92,42.51,9.94,42.83z M9.08,43.28c0-0.16-0.01-0.3-0.02-0.41
C9.04,42.69,9,42.5,8.93,42.33c-0.06-0.17-0.15-0.31-0.27-0.43c-0.11-0.12-0.26-0.22-0.43-0.29c-0.19-0.07-0.39-0.11-0.59-0.11
c-0.23,0-0.43,0.04-0.59,0.11c-0.17,0.07-0.31,0.17-0.43,0.29c-0.11,0.12-0.21,0.27-0.27,0.43c-0.07,0.17-0.11,0.35-0.13,0.54
c-0.02,0.11-0.02,0.25-0.02,0.41s0.01,0.29,0.02,0.4c0.02,0.2,0.06,0.37,0.13,0.54c0.06,0.17,0.15,0.31,0.27,0.44
c0.11,0.12,0.26,0.22,0.43,0.29c0.17,0.07,0.37,0.11,0.59,0.11c0.23,0,0.43-0.04,0.59-0.11c0.17-0.07,0.31-0.17,0.43-0.29
c0.11-0.12,0.21-0.27,0.27-0.44c0.07-0.17,0.11-0.35,0.13-0.54C9.07,43.57,9.08,43.44,9.08,43.28z M15.35,40.83
c0.05,0.05,0.08,0.12,0.08,0.18v4.72c0,0.67-0.19,1.21-0.57,1.61c-0.38,0.4-0.95,0.59-1.72,0.59c-0.39,0-0.72-0.05-1-0.14
c-0.24-0.08-0.47-0.2-0.68-0.35c-0.18-0.15-0.31-0.3-0.4-0.46c-0.08-0.17-0.14-0.33-0.14-0.48c-0.01-0.07,0.02-0.13,0.08-0.18
c0.05-0.05,0.12-0.08,0.19-0.08h0.29c0.07,0,0.13,0.02,0.18,0.05c0.05,0.04,0.09,0.11,0.14,0.21c0.02,0.04,0.05,0.09,0.09,0.16
c0.05,0.07,0.11,0.14,0.21,0.2c0.09,0.07,0.22,0.12,0.37,0.18c0.15,0.04,0.34,0.07,0.58,0.07c0.21,0,0.41-0.02,0.59-0.06
c0.18-0.04,0.34-0.11,0.48-0.21c0.14-0.1,0.24-0.23,0.31-0.39c0.08-0.16,0.11-0.36,0.11-0.59v-0.61c-0.13,0.18-0.31,0.33-0.56,0.46
c-0.24,0.13-0.56,0.2-0.95,0.2c-0.3,0-0.59-0.05-0.85-0.16c-0.26-0.11-0.49-0.26-0.69-0.46c-0.2-0.2-0.35-0.44-0.46-0.72
c-0.11-0.28-0.18-0.6-0.21-0.96c-0.01-0.1-0.01-0.21-0.01-0.32c0-0.11,0-0.22,0.01-0.32c0.02-0.36,0.08-0.68,0.21-0.96
c0.11-0.28,0.27-0.53,0.46-0.72c0.2-0.2,0.42-0.35,0.69-0.46c0.26-0.11,0.55-0.16,0.85-0.16c0.4,0,0.72,0.07,0.96,0.21
s0.42,0.29,0.54,0.45v-0.31c0-0.07,0.02-0.13,0.08-0.18c0.05-0.05,0.11-0.08,0.18-0.08h0.36C15.24,40.75,15.3,40.78,15.35,40.83z
M14.55,43.28c0-0.14-0.01-0.25-0.01-0.35c-0.02-0.46-0.16-0.81-0.41-1.07c-0.26-0.25-0.59-0.37-1-0.37c-0.43,0-0.76,0.14-1.01,0.41
c-0.24,0.27-0.38,0.64-0.41,1.1c-0.01,0.18-0.01,0.37,0,0.54c0.02,0.46,0.16,0.84,0.41,1.1c0.24,0.27,0.58,0.41,1.01,0.41
c0.41,0,0.74-0.13,1-0.38c0.26-0.25,0.4-0.6,0.41-1.06C14.55,43.54,14.55,43.41,14.55,43.28z M20.82,42.1
c0.11,0.3,0.15,0.65,0.15,1.02v0.27c0,0.07-0.02,0.13-0.08,0.18c-0.05,0.05-0.11,0.08-0.18,0.08h-3.34v0.06
c0.02,0.44,0.14,0.78,0.4,1.01c0.25,0.24,0.57,0.35,0.96,0.35c0.36,0,0.62-0.05,0.8-0.15c0.18-0.1,0.32-0.21,0.43-0.34
c0.05-0.05,0.1-0.09,0.14-0.11c0.04-0.02,0.1-0.03,0.18-0.03h0.29c0.07,0,0.14,0.02,0.2,0.08c0.06,0.05,0.08,0.11,0.07,0.18
c-0.02,0.11-0.08,0.24-0.17,0.38c-0.09,0.14-0.22,0.27-0.4,0.39c-0.17,0.12-0.39,0.22-0.64,0.3c-0.26,0.08-0.56,0.12-0.9,0.12
c-0.32,0-0.62-0.06-0.88-0.17c-0.26-0.11-0.49-0.27-0.68-0.46c-0.2-0.2-0.35-0.44-0.46-0.7c-0.11-0.27-0.19-0.56-0.21-0.88
c-0.03-0.3-0.03-0.59,0-0.89c0.02-0.3,0.1-0.58,0.21-0.84s0.27-0.49,0.46-0.68c0.19-0.2,0.41-0.35,0.68-0.46
c0.26-0.11,0.56-0.17,0.88-0.17c0.35,0,0.66,0.05,0.94,0.17c0.27,0.11,0.51,0.27,0.7,0.49C20.57,41.53,20.72,41.79,20.82,42.1z
M20.11,42.8c0-0.4-0.12-0.71-0.37-0.94s-0.58-0.36-1-0.36c-0.19,0-0.37,0.03-0.53,0.09c-0.16,0.06-0.3,0.15-0.43,0.26
c-0.12,0.12-0.22,0.26-0.29,0.41c-0.07,0.16-0.11,0.34-0.11,0.53v0.03h2.73V42.8z M24.69,44.97h-0.52c-0.17,0-0.3-0.02-0.41-0.06
c-0.1-0.04-0.19-0.1-0.25-0.18c-0.06-0.08-0.1-0.18-0.12-0.28c-0.02-0.11-0.03-0.22-0.03-0.34v-2.52h1.23
c0.07,0,0.13-0.02,0.18-0.08c0.05-0.05,0.08-0.12,0.08-0.18v-0.31c0-0.07-0.02-0.13-0.08-0.18c-0.05-0.05-0.11-0.08-0.18-0.08h-1.23
v-1.58c0-0.07-0.02-0.13-0.08-0.18c-0.05-0.05-0.11-0.08-0.18-0.08h-0.36c-0.07,0-0.13,0.02-0.18,0.08s-0.08,0.11-0.08,0.18v1.58
h-0.72c-0.07,0-0.13,0.02-0.18,0.08c-0.05,0.05-0.08,0.12-0.08,0.18v0.31c0,0.07,0.02,0.13,0.08,0.18c0.05,0.05,0.11,0.08,0.18,0.08
h0.72v2.51c0,0.55,0.13,0.97,0.38,1.26c0.25,0.29,0.66,0.43,1.23,0.43h0.61c0.07,0,0.13-0.02,0.18-0.08
c0.05-0.05,0.08-0.11,0.08-0.18v-0.31c0-0.07-0.02-0.13-0.08-0.18C24.82,45,24.76,44.97,24.69,44.97z M29.72,41.23
c-0.19-0.19-0.41-0.33-0.66-0.43c-0.26-0.1-0.54-0.15-0.85-0.15c-0.4,0-0.72,0.07-0.96,0.21c-0.24,0.14-0.43,0.29-0.55,0.45v-2.15
c0-0.07-0.02-0.13-0.08-0.18c-0.05-0.05-0.11-0.08-0.18-0.08h-0.36c-0.07,0-0.13,0.02-0.18,0.08c-0.05,0.05-0.08,0.11-0.08,0.18
v6.37c0,0.07,0.02,0.13,0.08,0.18c0.05,0.05,0.11,0.08,0.18,0.08h0.36c0.07,0,0.13-0.02,0.18-0.08c0.05-0.05,0.08-0.11,0.08-0.18
v-2.56c0-0.5,0.12-0.87,0.37-1.12c0.25-0.25,0.58-0.37,0.98-0.37c0.43,0,0.76,0.12,1,0.37c0.24,0.24,0.36,0.62,0.36,1.12v2.56
c0,0.07,0.02,0.13,0.08,0.18c0.05,0.05,0.11,0.08,0.18,0.08h0.36c0.07,0,0.13-0.02,0.18-0.08c0.05-0.05,0.08-0.11,0.08-0.18v-2.71
c0-0.34-0.05-0.64-0.15-0.91C30.05,41.65,29.9,41.42,29.72,41.23z M35.65,42.1c0.11,0.3,0.15,0.65,0.15,1.02v0.27
c0,0.07-0.02,0.13-0.08,0.18c-0.05,0.05-0.11,0.08-0.18,0.08h-3.34v0.06c0.02,0.44,0.14,0.78,0.4,1.01
c0.25,0.24,0.57,0.35,0.96,0.35c0.36,0,0.62-0.05,0.8-0.15c0.18-0.1,0.32-0.21,0.43-0.34c0.05-0.05,0.1-0.09,0.14-0.11
c0.04-0.02,0.1-0.03,0.18-0.03h0.29c0.07,0,0.14,0.02,0.2,0.08s0.08,0.11,0.07,0.18c-0.02,0.11-0.08,0.24-0.17,0.38
s-0.22,0.27-0.4,0.39c-0.17,0.12-0.39,0.22-0.64,0.3c-0.26,0.08-0.56,0.12-0.9,0.12c-0.32,0-0.62-0.06-0.88-0.17
c-0.26-0.11-0.49-0.27-0.68-0.46c-0.2-0.2-0.35-0.44-0.46-0.7c-0.11-0.27-0.19-0.56-0.21-0.88c-0.03-0.3-0.03-0.59,0-0.89
c0.02-0.3,0.1-0.58,0.21-0.84c0.11-0.26,0.27-0.49,0.46-0.68c0.19-0.2,0.41-0.35,0.68-0.46c0.26-0.11,0.56-0.17,0.88-0.17
c0.35,0,0.66,0.05,0.94,0.17c0.27,0.11,0.51,0.27,0.7,0.49C35.4,41.53,35.54,41.79,35.65,42.1z M34.93,42.8
c0-0.4-0.12-0.71-0.37-0.94s-0.58-0.36-1-0.36c-0.19,0-0.37,0.03-0.53,0.09c-0.16,0.06-0.3,0.15-0.43,0.26
c-0.12,0.12-0.22,0.26-0.29,0.41c-0.07,0.16-0.11,0.34-0.11,0.53v0.03h2.73V42.8z M39.41,40.75h-0.5c-0.29,0-0.53,0.04-0.71,0.14
c-0.18,0.09-0.34,0.24-0.46,0.43v-0.3c0-0.07-0.02-0.13-0.08-0.18c-0.05-0.06-0.12-0.09-0.19-0.08h-0.36
c-0.07,0-0.13,0.02-0.18,0.08c-0.05,0.05-0.08,0.12-0.08,0.18v4.53c0,0.07,0.02,0.13,0.08,0.18c0.05,0.05,0.11,0.08,0.18,0.08h0.36
c0.07,0,0.13-0.02,0.18-0.08c0.05-0.05,0.08-0.11,0.08-0.18V42.7c0-0.75,0.37-1.12,1.12-1.12h0.56c0.07,0,0.13-0.02,0.18-0.08
c0.05-0.05,0.08-0.11,0.08-0.18v-0.31c0-0.07-0.02-0.13-0.08-0.18C39.55,40.78,39.48,40.75,39.41,40.75z M45.74,38.62h-0.61
c-0.56,0-0.97,0.14-1.23,0.41c-0.25,0.27-0.38,0.69-0.38,1.23v0.49H42.7c-0.07,0-0.13,0.02-0.18,0.08
c-0.05,0.05-0.08,0.12-0.08,0.18v0.31c0,0.07,0.02,0.13,0.08,0.18c0.05,0.05,0.11,0.08,0.18,0.08h0.82v3.95
c0,0.07,0.02,0.13,0.08,0.18c0.05,0.05,0.11,0.08,0.18,0.08h0.36c0.07,0,0.13-0.02,0.18-0.08c0.05-0.05,0.08-0.11,0.08-0.18v-3.95
h1.23c0.07,0,0.13-0.02,0.18-0.08c0.05-0.05,0.08-0.12,0.08-0.18v-0.31c0-0.07-0.02-0.13-0.08-0.18c-0.05-0.05-0.11-0.08-0.18-0.08
H44.4v-0.43c0-0.12,0.02-0.24,0.03-0.34c0.03-0.21,0.18-0.38,0.37-0.46c0.11-0.04,0.24-0.06,0.41-0.06h0.52
c0.07,0,0.13-0.02,0.18-0.08c0.05-0.05,0.08-0.12,0.08-0.18v-0.31c0-0.07-0.02-0.13-0.08-0.18C45.87,38.66,45.81,38.62,45.74,38.62z
M51.02,42.83c0.01,0.06,0.01,0.13,0.01,0.21v0.5c0,0.08,0,0.14-0.01,0.2c-0.03,0.32-0.11,0.62-0.21,0.88s-0.26,0.5-0.46,0.68
c-0.19,0.19-0.43,0.34-0.7,0.44c-0.27,0.11-0.59,0.16-0.93,0.16c-0.35,0-0.66-0.05-0.93-0.16c-0.26-0.1-0.5-0.25-0.7-0.44
c-0.2-0.19-0.36-0.42-0.46-0.68c-0.11-0.27-0.18-0.56-0.21-0.88c-0.01-0.05-0.02-0.12-0.02-0.2c-0.01-0.08-0.01-0.17-0.01-0.25
c0-0.09,0-0.18,0.01-0.25c0-0.08,0.01-0.15,0.02-0.21c0.02-0.32,0.09-0.61,0.21-0.88c0.11-0.27,0.27-0.5,0.46-0.69
c0.2-0.19,0.43-0.34,0.7-0.44c0.27-0.11,0.58-0.16,0.93-0.16s0.66,0.05,0.93,0.16c0.27,0.11,0.5,0.25,0.7,0.44
c0.2,0.19,0.35,0.42,0.46,0.69C50.92,42.21,50.99,42.51,51.02,42.83z M50.15,43.28c0-0.16-0.01-0.3-0.02-0.41
c-0.02-0.19-0.06-0.37-0.13-0.54c-0.07-0.17-0.15-0.31-0.27-0.43c-0.12-0.12-0.26-0.22-0.43-0.29c-0.19-0.07-0.39-0.11-0.59-0.11
c-0.23,0-0.43,0.04-0.59,0.11c-0.17,0.07-0.31,0.17-0.43,0.29c-0.11,0.12-0.21,0.27-0.27,0.43c-0.06,0.17-0.11,0.35-0.12,0.54
c-0.02,0.11-0.02,0.25-0.02,0.41s0.01,0.29,0.02,0.4c0.02,0.2,0.06,0.37,0.12,0.54c0.07,0.17,0.15,0.31,0.27,0.44
c0.11,0.12,0.26,0.22,0.43,0.29c0.17,0.07,0.37,0.11,0.59,0.11s0.43-0.04,0.59-0.11c0.17-0.07,0.31-0.17,0.43-0.29
c0.11-0.12,0.21-0.27,0.27-0.44c0.07-0.17,0.11-0.35,0.13-0.54C50.14,43.57,50.15,43.44,50.15,43.28z M54.68,40.75h-0.5
c-0.29,0-0.53,0.04-0.71,0.14c-0.18,0.09-0.34,0.24-0.46,0.43v-0.3c0-0.07-0.02-0.13-0.08-0.18c-0.05-0.05-0.11-0.08-0.18-0.08
h-0.36c-0.07,0-0.14,0.03-0.18,0.08c-0.05,0.05-0.08,0.11-0.08,0.18v4.53c0,0.07,0.02,0.13,0.08,0.18c0.05,0.05,0.11,0.08,0.18,0.08
h0.36c0.07,0,0.13-0.02,0.18-0.08c0.05-0.05,0.08-0.11,0.08-0.18v-2.83c0-0.75,0.37-1.12,1.12-1.12h0.56c0.07,0,0.13-0.02,0.18-0.08
s0.08-0.12,0.08-0.18v-0.31c0-0.07-0.02-0.13-0.08-0.18C54.83,40.78,54.76,40.75,54.68,40.75z M63.63,41.64
c0.01,0.29,0.01,0.55,0.01,0.77c0,0.22,0,0.47-0.01,0.77c-0.01,0.4-0.08,0.78-0.21,1.1c-0.14,0.33-0.32,0.6-0.56,0.83
c-0.24,0.23-0.53,0.4-0.85,0.52c-0.33,0.12-0.69,0.18-1.1,0.18h-2.28c-0.07,0-0.13-0.02-0.18-0.08c-0.05-0.05-0.08-0.11-0.08-0.18
v-6.27c0-0.08,0.02-0.13,0.08-0.18c0.05-0.05,0.11-0.08,0.18-0.08h2.22c0.4,0,0.77,0.06,1.11,0.18c0.34,0.12,0.63,0.29,0.88,0.52
c0.24,0.23,0.43,0.5,0.58,0.83C63.56,40.86,63.63,41.23,63.63,41.64z M62.72,42.41c0-0.11,0-0.21-0.01-0.33
c0-0.11-0.01-0.24-0.01-0.4c-0.01-0.24-0.05-0.46-0.11-0.68c-0.14-0.45-0.47-0.81-0.91-0.98c-0.24-0.1-0.53-0.15-0.88-0.15h-1.52
v5.05h1.58c0.35,0,0.64-0.05,0.88-0.15c0.24-0.1,0.43-0.24,0.57-0.4c0.14-0.17,0.24-0.36,0.3-0.58c0.06-0.21,0.09-0.44,0.1-0.68
c0-0.14,0-0.27,0.01-0.38C62.72,42.63,62.72,42.51,62.72,42.41z M65.44,40.75h-0.36c-0.07,0-0.13,0.02-0.18,0.08
c-0.05,0.05-0.08,0.12-0.08,0.18v4.53c0,0.07,0.02,0.13,0.08,0.18c0.05,0.05,0.11,0.08,0.18,0.08h0.36c0.07,0,0.13-0.02,0.18-0.08
c0.05-0.05,0.08-0.11,0.08-0.18v-4.53c0-0.07-0.02-0.13-0.08-0.18C65.57,40.78,65.51,40.76,65.44,40.75z M65.54,38.91h-0.56
c-0.07,0-0.13,0.02-0.18,0.08s-0.08,0.11-0.08,0.18v0.56c0,0.07,0.02,0.13,0.08,0.18s0.11,0.08,0.18,0.08h0.56
c0.07,0,0.13-0.02,0.18-0.08c0.05-0.05,0.08-0.11,0.08-0.18v-0.56c0-0.07-0.02-0.13-0.08-0.18C65.67,38.94,65.61,38.91,65.54,38.91z
M71.28,40.83c0.05,0.05,0.08,0.12,0.08,0.18v4.72c0,0.67-0.19,1.21-0.57,1.61c-0.38,0.4-0.95,0.59-1.72,0.59
c-0.39,0-0.72-0.05-0.99-0.14c-0.24-0.08-0.47-0.2-0.68-0.35c-0.18-0.15-0.31-0.3-0.4-0.46c-0.09-0.17-0.14-0.33-0.14-0.48
c-0.01-0.07,0.01-0.13,0.08-0.18c0.05-0.05,0.12-0.08,0.19-0.08h0.29c0.07,0,0.13,0.02,0.18,0.05c0.05,0.04,0.09,0.11,0.14,0.21
c0.02,0.04,0.05,0.09,0.09,0.16c0.04,0.07,0.11,0.14,0.21,0.2c0.09,0.07,0.21,0.12,0.36,0.18c0.15,0.04,0.34,0.07,0.58,0.07
c0.21,0,0.41-0.02,0.59-0.06c0.18-0.04,0.34-0.11,0.48-0.21c0.14-0.1,0.24-0.23,0.31-0.39c0.08-0.16,0.12-0.36,0.12-0.59v-0.61
c-0.13,0.18-0.31,0.33-0.56,0.46c-0.24,0.13-0.56,0.2-0.95,0.2c-0.3,0-0.59-0.05-0.85-0.16c-0.26-0.11-0.49-0.26-0.69-0.46
c-0.2-0.2-0.35-0.44-0.47-0.72c-0.11-0.28-0.18-0.6-0.2-0.96c-0.01-0.1-0.01-0.21-0.01-0.32c0-0.11,0-0.22,0.01-0.32
c0.01-0.36,0.08-0.68,0.2-0.96c0.12-0.28,0.28-0.53,0.47-0.72c0.2-0.2,0.42-0.35,0.69-0.46c0.26-0.11,0.55-0.16,0.85-0.16
c0.4,0,0.72,0.07,0.96,0.21c0.24,0.14,0.42,0.29,0.55,0.45v-0.31c0-0.07,0.02-0.13,0.08-0.18c0.05-0.05,0.12-0.08,0.18-0.08h0.36
C71.17,40.75,71.23,40.78,71.28,40.83z M70.49,43.28c0-0.14-0.01-0.25-0.01-0.35c-0.02-0.46-0.16-0.81-0.41-1.07
c-0.26-0.25-0.59-0.37-1-0.37c-0.43,0-0.76,0.14-1.01,0.41c-0.25,0.27-0.38,0.64-0.4,1.1c-0.01,0.18-0.01,0.37,0,0.54
c0.02,0.46,0.16,0.84,0.4,1.1c0.24,0.27,0.59,0.41,1.01,0.41c0.41,0,0.74-0.13,1-0.38c0.26-0.25,0.4-0.6,0.41-1.06
C70.48,43.54,70.49,43.41,70.49,43.28z M73.39,38.91h-0.56c-0.07,0-0.13,0.02-0.18,0.08c-0.05,0.05-0.08,0.11-0.08,0.18v0.56
c0,0.07,0.02,0.13,0.08,0.18c0.05,0.05,0.11,0.08,0.18,0.08h0.56c0.07,0,0.13-0.02,0.18-0.08c0.05-0.05,0.08-0.11,0.08-0.18v-0.56
c0-0.07-0.02-0.13-0.08-0.18C73.52,38.94,73.46,38.91,73.39,38.91z M73.29,40.75h-0.36c-0.07,0-0.13,0.02-0.18,0.08
c-0.05,0.05-0.08,0.12-0.08,0.18v4.53c0,0.07,0.02,0.13,0.08,0.18c0.05,0.05,0.11,0.08,0.18,0.08h0.36c0.07,0,0.13-0.02,0.18-0.08
c0.05-0.05,0.08-0.11,0.08-0.18v-4.53c0-0.07-0.02-0.13-0.08-0.18C73.42,40.78,73.36,40.75,73.29,40.75z M77.6,44.97h-0.52
c-0.17,0-0.3-0.02-0.41-0.06c-0.11-0.05-0.19-0.1-0.24-0.18c-0.06-0.08-0.1-0.18-0.12-0.28c-0.02-0.11-0.04-0.22-0.04-0.34v-2.52
h1.23c0.07,0,0.13-0.02,0.18-0.08c0.05-0.05,0.08-0.12,0.08-0.18v-0.31c0-0.07-0.02-0.13-0.08-0.18c-0.05-0.05-0.11-0.08-0.18-0.08
h-1.23v-1.58c0-0.07-0.02-0.13-0.08-0.18c-0.05-0.05-0.11-0.08-0.18-0.08h-0.36c-0.07,0-0.13,0.02-0.18,0.08
c-0.05,0.05-0.08,0.11-0.08,0.18v1.58h-0.72c-0.07,0-0.13,0.02-0.18,0.08c-0.05,0.05-0.08,0.12-0.08,0.18v0.31
c0,0.07,0.02,0.13,0.08,0.18c0.05,0.05,0.11,0.08,0.18,0.08h0.72v2.51c0,0.55,0.13,0.97,0.38,1.26c0.25,0.29,0.66,0.43,1.22,0.43
h0.61c0.07,0,0.13-0.02,0.18-0.08c0.05-0.05,0.08-0.11,0.08-0.18v-0.31c0-0.07-0.02-0.13-0.08-0.18C77.73,45,77.67,44.97,77.6,44.97
z M82.62,41.75c0.1,0.24,0.15,0.52,0.15,0.82v2.96c0,0.07-0.02,0.13-0.08,0.18c-0.05,0.05-0.11,0.08-0.18,0.08h-0.36
c-0.07,0-0.13-0.02-0.18-0.08c-0.05-0.05-0.08-0.11-0.08-0.18v-0.4c-0.06,0.12-0.15,0.23-0.27,0.33c-0.12,0.09-0.27,0.18-0.42,0.24
c-0.16,0.06-0.32,0.11-0.5,0.14c-0.17,0.03-0.33,0.05-0.48,0.05c-0.25,0-0.49-0.04-0.69-0.11c-0.2-0.06-0.38-0.16-0.53-0.29
c-0.14-0.12-0.26-0.27-0.34-0.43c-0.08-0.17-0.12-0.35-0.12-0.55c0-0.26,0.05-0.49,0.15-0.68c0.11-0.2,0.24-0.36,0.43-0.49
c0.18-0.14,0.4-0.24,0.63-0.33c0.24-0.08,0.5-0.15,0.77-0.2l1.37-0.22v-0.13c0-0.33-0.11-0.58-0.33-0.74
c-0.21-0.17-0.49-0.25-0.81-0.25c-0.28,0-0.5,0.05-0.65,0.15c-0.15,0.11-0.28,0.23-0.37,0.37c-0.04,0.05-0.08,0.08-0.12,0.11
c-0.04,0.02-0.11,0.03-0.18,0.03h-0.29c-0.07,0-0.13-0.02-0.19-0.08c-0.05-0.05-0.08-0.11-0.08-0.18c0.02-0.14,0.07-0.29,0.17-0.43
c0.1-0.15,0.24-0.28,0.41-0.4c0.17-0.11,0.37-0.21,0.6-0.29c0.22-0.08,0.46-0.11,0.72-0.11c0.29,0,0.56,0.05,0.81,0.13
c0.25,0.08,0.46,0.21,0.64,0.37C82.38,41.32,82.51,41.52,82.62,41.75z M81.88,43.38l-1.14,0.18c-0.41,0.07-0.73,0.17-0.98,0.31
c-0.24,0.15-0.36,0.33-0.36,0.56c0,0.07,0.01,0.14,0.04,0.21c0.09,0.18,0.24,0.31,0.43,0.36c0.11,0.04,0.25,0.06,0.42,0.06
c0.24,0,0.45-0.04,0.64-0.11c0.2-0.07,0.36-0.17,0.5-0.3c0.14-0.13,0.24-0.28,0.32-0.45c0.08-0.18,0.11-0.37,0.11-0.59L81.88,43.38
L81.88,43.38z M84.67,38.91h-0.36c-0.07,0-0.13,0.02-0.18,0.08c-0.05,0.05-0.08,0.11-0.08,0.18v6.37c0,0.07,0.02,0.13,0.08,0.18
c0.05,0.05,0.11,0.08,0.18,0.08h0.36c0.07,0,0.13-0.02,0.18-0.08c0.05-0.05,0.08-0.11,0.08-0.18v-6.37c0-0.07-0.02-0.13-0.08-0.18
C84.81,38.94,84.74,38.91,84.67,38.91z M90.13,40.28c0.3-0.34,0.75-0.5,1.32-0.5c0.31,0,0.57,0.04,0.79,0.11
c0.21,0.08,0.39,0.17,0.53,0.3c0.14,0.12,0.24,0.27,0.32,0.42c0.08,0.16,0.13,0.32,0.17,0.48c0.02,0.12,0.13,0.21,0.25,0.21h0.45
c0.06,0,0.11-0.02,0.15-0.06c0.04-0.04,0.06-0.09,0.06-0.15c-0.01-0.24-0.07-0.48-0.17-0.7c-0.11-0.25-0.26-0.49-0.48-0.72
c-0.22-0.22-0.49-0.41-0.84-0.56c-0.34-0.15-0.76-0.22-1.23-0.22c-0.42,0-0.79,0.07-1.13,0.2c-0.64,0.24-1.15,0.75-1.39,1.39
c-0.13,0.32-0.2,0.67-0.21,1.05c-0.02,0.58-0.02,1.15,0,1.73c0.01,0.38,0.08,0.73,0.21,1.05c0.13,0.32,0.31,0.59,0.55,0.83
c0.24,0.23,0.52,0.42,0.85,0.55c0.33,0.13,0.71,0.2,1.13,0.2c0.49,0,0.9-0.08,1.23-0.22c0.34-0.15,0.62-0.34,0.84-0.56
c0.22-0.22,0.37-0.46,0.48-0.72c0.11-0.25,0.16-0.49,0.17-0.7c0-0.06-0.02-0.11-0.06-0.15c-0.04-0.04-0.1-0.06-0.15-0.06H93.5
c-0.05,0-0.11,0.02-0.15,0.05c-0.05,0.04-0.08,0.09-0.1,0.16c-0.04,0.16-0.1,0.32-0.17,0.48c-0.08,0.16-0.18,0.3-0.32,0.43
c-0.14,0.12-0.31,0.22-0.53,0.3c-0.21,0.08-0.47,0.11-0.79,0.11c-0.58,0-1.02-0.17-1.32-0.5c-0.31-0.34-0.47-0.77-0.49-1.3
c-0.01-0.29-0.01-0.56-0.01-0.82c0-0.25,0.01-0.53,0.01-0.82C89.65,41.05,89.81,40.62,90.13,40.28z M99.06,41.75
c0.1,0.24,0.15,0.52,0.15,0.82v2.96c0,0.07-0.02,0.13-0.08,0.18c-0.05,0.05-0.11,0.08-0.18,0.08H98.6c-0.07,0-0.13-0.02-0.18-0.08
c-0.05-0.05-0.08-0.11-0.08-0.18v-0.4c-0.06,0.12-0.15,0.23-0.27,0.33c-0.12,0.09-0.27,0.18-0.42,0.24
c-0.16,0.06-0.32,0.11-0.49,0.14c-0.17,0.03-0.33,0.05-0.48,0.05c-0.25,0-0.49-0.04-0.69-0.11c-0.2-0.06-0.38-0.16-0.53-0.29
c-0.14-0.12-0.26-0.27-0.34-0.43c-0.08-0.17-0.12-0.35-0.12-0.55c0-0.26,0.05-0.49,0.15-0.68c0.1-0.19,0.24-0.36,0.43-0.49
c0.18-0.14,0.4-0.24,0.63-0.33c0.24-0.08,0.5-0.15,0.77-0.2l1.37-0.22v-0.13c0-0.33-0.11-0.58-0.33-0.74
c-0.21-0.17-0.49-0.25-0.81-0.25c-0.29,0-0.5,0.05-0.65,0.15c-0.15,0.11-0.27,0.23-0.37,0.37c-0.03,0.05-0.08,0.08-0.13,0.11
c-0.05,0.02-0.11,0.03-0.18,0.03h-0.29c-0.07,0-0.14-0.02-0.19-0.08c-0.05-0.05-0.08-0.11-0.08-0.18c0.01-0.14,0.07-0.29,0.17-0.43
c0.1-0.15,0.24-0.28,0.4-0.4c0.17-0.11,0.36-0.21,0.59-0.29c0.22-0.08,0.46-0.11,0.72-0.11c0.29,0,0.56,0.05,0.81,0.13
c0.25,0.08,0.46,0.21,0.64,0.37C98.82,41.32,98.96,41.52,99.06,41.75z M98.32,43.38l-1.14,0.18c-0.41,0.07-0.73,0.17-0.98,0.31
c-0.24,0.15-0.36,0.33-0.36,0.56c0,0.07,0.01,0.14,0.04,0.21c0.03,0.07,0.08,0.14,0.16,0.21c0.07,0.07,0.16,0.11,0.28,0.15
c0.11,0.04,0.25,0.06,0.42,0.06c0.24,0,0.45-0.04,0.64-0.11c0.2-0.07,0.36-0.17,0.5-0.3c0.14-0.13,0.24-0.28,0.32-0.45
c0.08-0.18,0.12-0.37,0.12-0.59V43.38z M103.06,40.75h-0.5c-0.29,0-0.53,0.04-0.71,0.14c-0.18,0.09-0.34,0.24-0.46,0.43v-0.3
c0-0.07-0.02-0.13-0.08-0.18c-0.05-0.05-0.11-0.08-0.18-0.08h-0.36c-0.07,0-0.13,0.02-0.18,0.08c-0.05,0.05-0.08,0.11-0.08,0.18
v4.53c0,0.07,0.02,0.13,0.08,0.18c0.05,0.05,0.11,0.08,0.18,0.08h0.36c0.07,0,0.13-0.02,0.18-0.08c0.05-0.05,0.08-0.11,0.08-0.18
v-2.83c0-0.75,0.37-1.12,1.12-1.12h0.56c0.07,0,0.13-0.02,0.18-0.08c0.05-0.05,0.08-0.12,0.08-0.18v-0.31
c0-0.07-0.02-0.13-0.08-0.18C103.2,40.78,103.13,40.75,103.06,40.75z M108.27,43.12v0.27c0,0.07-0.03,0.13-0.08,0.18
c-0.05,0.05-0.11,0.08-0.18,0.08h-3.34v0.06c0.01,0.44,0.14,0.78,0.4,1.01c0.25,0.24,0.57,0.35,0.96,0.35c0.36,0,0.62-0.05,0.8-0.15
c0.17-0.1,0.32-0.21,0.43-0.34c0.05-0.05,0.1-0.09,0.14-0.11c0.04-0.02,0.1-0.03,0.17-0.03h0.29c0.07,0,0.14,0.02,0.2,0.08
c0.06,0.05,0.08,0.11,0.07,0.18c-0.02,0.11-0.08,0.24-0.17,0.38c-0.09,0.14-0.22,0.27-0.4,0.39c-0.17,0.12-0.39,0.22-0.64,0.3
c-0.26,0.08-0.56,0.12-0.9,0.12c-0.32,0-0.62-0.06-0.88-0.17c-0.26-0.11-0.49-0.27-0.68-0.46c-0.19-0.2-0.35-0.44-0.46-0.7
c-0.11-0.27-0.19-0.56-0.21-0.88c-0.03-0.3-0.03-0.59,0-0.89c0.02-0.3,0.1-0.58,0.21-0.84c0.11-0.26,0.27-0.49,0.46-0.68
c0.18-0.2,0.41-0.35,0.68-0.46c0.26-0.11,0.56-0.17,0.88-0.17c0.35,0,0.66,0.05,0.94,0.17c0.27,0.11,0.51,0.27,0.7,0.49
c0.19,0.21,0.34,0.47,0.45,0.78C108.21,42.4,108.27,42.74,108.27,43.12z M107.4,42.8c0-0.4-0.12-0.71-0.37-0.94
c-0.25-0.24-0.58-0.36-1-0.36c-0.18,0-0.37,0.03-0.53,0.09c-0.16,0.06-0.31,0.15-0.43,0.26c-0.12,0.12-0.22,0.26-0.29,0.41
c-0.07,0.16-0.11,0.34-0.11,0.53v0.03h2.73V42.8z M24.52,15.91c-1.01,0-1.92,0.18-2.72,0.53c-0.81,0.35-1.49,0.84-2.06,1.46
s-1.02,1.36-1.36,2.25c-0.34,0.88-0.56,1.84-0.63,2.9c-0.02,0.31-0.03,0.72-0.03,1.23c0,0.52,0.01,0.93,0.03,1.23
c0.08,1.05,0.3,2.02,0.63,2.9c0.34,0.88,0.8,1.63,1.38,2.26c0.58,0.63,1.27,1.11,2.07,1.46c0.81,0.34,1.7,0.51,2.69,0.51
c0.97,0,1.84-0.14,2.63-0.42c0.78-0.28,1.45-0.62,2-1.01c0.55-0.39,0.97-0.81,1.26-1.23c0.3-0.44,0.46-0.79,0.48-1.08
c0.03-0.17-0.04-0.34-0.17-0.45c-0.13-0.11-0.31-0.17-0.48-0.17h-0.5c-0.23,0-0.39,0.03-0.5,0.08c-0.11,0.05-0.24,0.21-0.43,0.48
c-0.08,0.12-0.23,0.3-0.45,0.53c-0.21,0.23-0.5,0.45-0.85,0.66c-0.35,0.22-0.78,0.41-1.27,0.57c-0.5,0.17-1.07,0.25-1.73,0.25
c-0.74,0-1.42-0.15-2.01-0.46c-0.6-0.31-1.1-0.72-1.52-1.22c-0.41-0.5-0.74-1.09-0.98-1.74c-0.24-0.66-0.37-1.34-0.39-2.04v-0.31
h11.02c0.21,0,0.37-0.06,0.51-0.18c0.14-0.12,0.2-0.29,0.2-0.5v-0.46c0-2.5-0.59-4.45-1.79-5.87
C28.37,16.62,26.68,15.91,24.52,15.91z M29.47,23.31h-9.84v-0.12c0-0.76,0.11-1.48,0.33-2.15c0.21-0.67,0.53-1.26,0.96-1.75
c0.42-0.5,0.94-0.89,1.53-1.16c0.59-0.28,1.29-0.42,2.07-0.42c0.76,0,1.46,0.14,2.07,0.42c0.62,0.27,1.14,0.66,1.56,1.16
c0.42,0.5,0.75,1.08,0.98,1.75c0.23,0.67,0.34,1.39,0.34,2.15V23.31z M65.97,15.91c-1.01,0-1.92,0.18-2.72,0.53
c-0.81,0.35-1.49,0.84-2.06,1.46c-0.56,0.62-1.02,1.36-1.36,2.25c-0.34,0.88-0.56,1.84-0.63,2.9c-0.02,0.31-0.03,0.72-0.03,1.23
c0,0.52,0.01,0.93,0.03,1.23c0.08,1.05,0.3,2.02,0.63,2.9c0.34,0.88,0.8,1.63,1.38,2.26c0.58,0.63,1.27,1.11,2.07,1.46
c0.81,0.34,1.7,0.51,2.69,0.51c0.97,0,1.84-0.14,2.63-0.42c0.79-0.28,1.45-0.62,2-1.01c0.55-0.39,0.97-0.81,1.27-1.23
c0.3-0.44,0.46-0.79,0.48-1.08c0.03-0.17-0.04-0.34-0.17-0.45c-0.13-0.11-0.31-0.17-0.48-0.17h-0.5c-0.23,0-0.39,0.03-0.5,0.08
c-0.11,0.05-0.24,0.21-0.43,0.48c-0.08,0.12-0.23,0.3-0.45,0.53c-0.21,0.23-0.5,0.45-0.85,0.66c-0.35,0.22-0.78,0.41-1.27,0.57
c-0.5,0.17-1.07,0.25-1.73,0.25c-0.74,0-1.42-0.15-2.01-0.46c-0.6-0.31-1.1-0.72-1.52-1.22c-0.41-0.5-0.74-1.09-0.98-1.74
c-0.24-0.66-0.37-1.34-0.39-2.04v-0.31h11.02c0.21,0,0.37-0.06,0.51-0.18c0.14-0.12,0.2-0.29,0.2-0.5v-0.46
c0-2.5-0.59-4.45-1.79-5.87C69.81,16.62,68.13,15.91,65.97,15.91z M70.92,23.31h-9.84v-0.12c0-0.76,0.11-1.48,0.33-2.15
c0.21-0.67,0.53-1.26,0.96-1.75c0.42-0.5,0.94-0.89,1.53-1.16c0.6-0.28,1.29-0.42,2.07-0.42c0.76,0,1.45,0.14,2.07,0.42
c0.62,0.27,1.14,0.66,1.56,1.16c0.42,0.5,0.75,1.08,0.98,1.75c0.23,0.67,0.34,1.39,0.34,2.15V23.31z M86.96,15.91
c-1.01,0-1.92,0.18-2.72,0.53c-0.81,0.35-1.49,0.84-2.06,1.46c-0.57,0.62-1.02,1.36-1.36,2.25c-0.34,0.88-0.55,1.84-0.63,2.9
c-0.02,0.31-0.03,0.72-0.03,1.23c0,0.52,0.01,0.93,0.03,1.23c0.08,1.05,0.3,2.02,0.63,2.9c0.34,0.88,0.8,1.63,1.38,2.26
c0.58,0.63,1.27,1.11,2.07,1.46c0.81,0.34,1.7,0.51,2.69,0.51c0.97,0,1.84-0.14,2.63-0.42c0.78-0.28,1.45-0.62,2-1.01
c0.55-0.39,0.97-0.81,1.26-1.23c0.3-0.44,0.46-0.79,0.48-1.08c0.03-0.17-0.04-0.34-0.17-0.45c-0.13-0.11-0.3-0.17-0.48-0.17h-0.49
c-0.23,0-0.39,0.03-0.5,0.08c-0.11,0.05-0.24,0.21-0.44,0.48c-0.08,0.12-0.23,0.3-0.45,0.53c-0.21,0.23-0.5,0.45-0.85,0.66
c-0.35,0.22-0.77,0.41-1.27,0.57c-0.49,0.17-1.07,0.25-1.73,0.25c-0.74,0-1.41-0.15-2.01-0.46c-0.58-0.3-1.1-0.71-1.52-1.22
c-0.41-0.5-0.74-1.09-0.98-1.74c-0.24-0.66-0.37-1.34-0.39-2.04v-0.31h11.02c0.21,0,0.37-0.06,0.51-0.18c0.14-0.12,0.2-0.29,0.2-0.5
v-0.46c0-2.5-0.6-4.45-1.79-5.87C90.81,16.62,89.13,15.91,86.96,15.91z M91.92,23.31h-9.84v-0.12c0-0.76,0.11-1.48,0.33-2.15
c0.21-0.67,0.53-1.26,0.96-1.75c0.42-0.5,0.94-0.89,1.53-1.16c0.59-0.28,1.29-0.42,2.07-0.42c0.76,0,1.46,0.14,2.07,0.42
c0.62,0.27,1.14,0.66,1.56,1.16c0.42,0.5,0.75,1.08,0.98,1.75c0.23,0.67,0.34,1.39,0.34,2.15V23.31z M15.27,24.54
c0.28,0.6,0.42,1.32,0.42,2.16c0,1.87-0.69,3.33-2.07,4.37c-1.38,1.03-3.28,1.55-5.69,1.55c-1.26,0-2.37-0.16-3.34-0.48
c-0.97-0.32-1.79-0.74-2.46-1.26c-0.67-0.52-1.19-1.1-1.55-1.78C0.21,28.43,0.02,27.74,0,27.04c0-0.17,0.06-0.31,0.18-0.43
c0.12-0.12,0.28-0.18,0.46-0.18h0.62c0.21,0,0.36,0.06,0.46,0.18c0.11,0.12,0.18,0.27,0.21,0.43c0.06,0.43,0.21,0.87,0.46,1.32
c0.25,0.44,0.62,0.84,1.1,1.19c0.49,0.35,1.09,0.64,1.81,0.87c0.72,0.23,1.59,0.34,2.6,0.34c2.02,0,3.5-0.37,4.43-1.1
c0.93-0.73,1.39-1.72,1.39-2.96c0-0.62-0.14-1.13-0.4-1.56c-0.27-0.42-0.68-0.8-1.23-1.14c-0.56-0.34-1.26-0.66-2.1-0.98
c-0.85-0.31-1.84-0.65-3-1.02c-1.11-0.35-2.06-0.71-2.86-1.07c-0.79-0.36-1.46-0.78-1.98-1.23c-0.53-0.46-0.91-1-1.16-1.61
c-0.24-0.61-0.37-1.33-0.37-2.18c0-0.78,0.16-1.52,0.48-2.19c0.32-0.68,0.78-1.26,1.38-1.77c0.6-0.5,1.34-0.88,2.22-1.17
c0.88-0.29,1.9-0.43,3.06-0.43c1.22,0,2.28,0.17,3.18,0.51c0.91,0.34,1.66,0.78,2.26,1.3c0.59,0.53,1.05,1.11,1.36,1.74
c0.31,0.63,0.47,1.26,0.5,1.86c0,0.17-0.05,0.31-0.15,0.43c-0.11,0.11-0.27,0.18-0.5,0.18H13.8c-0.11,0-0.23-0.04-0.39-0.12
c-0.15-0.08-0.25-0.24-0.29-0.5c-0.12-1.03-0.66-1.88-1.62-2.55c-0.96-0.67-2.2-1.01-3.73-1.01c-0.76,0-1.46,0.08-2.1,0.21
c-0.64,0.14-1.19,0.37-1.64,0.68c-0.46,0.31-0.81,0.69-1.07,1.16c-0.26,0.46-0.39,1.01-0.39,1.65c0,0.62,0.12,1.14,0.36,1.58
c0.24,0.43,0.62,0.82,1.13,1.17c0.52,0.35,1.17,0.68,1.95,0.99c0.78,0.31,1.73,0.64,2.85,0.99c1.16,0.37,2.16,0.74,3.02,1.1
c0.85,0.36,1.57,0.77,2.13,1.22C14.57,23.42,14.99,23.95,15.27,24.54z M41.26,16.22h-1.14c-2.06,0-3.47,0.71-4.21,2.13v-1.42
c0-0.21-0.07-0.37-0.2-0.51c-0.14-0.13-0.32-0.21-0.51-0.2h-0.5c-0.21,0-0.37,0.07-0.5,0.2c-0.12,0.14-0.18,0.3-0.18,0.51v14.7
c0,0.46,0.23,0.68,0.68,0.68h0.5c0.21,0,0.37-0.06,0.51-0.18c0.14-0.12,0.2-0.29,0.2-0.5v-9.59c0-1.23,0.36-2.22,1.08-2.94
c0.72-0.72,1.7-1.08,2.94-1.08h1.33c0.45,0,0.68-0.23,0.68-0.68V16.9C41.94,16.45,41.71,16.22,41.26,16.22z M57.57,16.22h-0.65
c-0.21,0-0.36,0.05-0.46,0.17c-0.11,0.11-0.18,0.21-0.21,0.3l-5.23,13.37l-5.24-13.37c-0.04-0.08-0.11-0.18-0.21-0.3
c-0.11-0.11-0.26-0.17-0.46-0.17h-0.65c-0.17,0-0.3,0.06-0.43,0.18c-0.12,0.12-0.18,0.27-0.18,0.43c0,0.11,0.02,0.22,0.06,0.34
l5.69,14.35c0.11,0.23,0.24,0.41,0.42,0.56c0.18,0.14,0.43,0.21,0.75,0.21h0.5c0.33,0,0.59-0.07,0.76-0.21
c0.18-0.14,0.31-0.33,0.42-0.56l5.69-14.36c0.04-0.12,0.06-0.24,0.06-0.34c0-0.17-0.06-0.31-0.18-0.43
C57.89,16.29,57.73,16.22,57.57,16.22z M76.68,10.34h-0.53c-0.46,0-0.68,0.23-0.68,0.68v20.61c0,0.46,0.23,0.68,0.68,0.68h0.53
c0.46,0,0.68-0.23,0.68-0.68v-20.6C77.36,10.57,77.13,10.34,76.68,10.34z M108.37,27.02h-0.43c-0.23,0-0.38,0.05-0.46,0.14
c-0.08,0.09-0.18,0.26-0.28,0.51c-0.44,1.17-1.03,2-1.78,2.46c-0.75,0.46-1.68,0.69-2.77,0.69c-1.4,0-2.57-0.43-3.48-1.28
c-0.92-0.85-1.41-2.26-1.47-4.19c-0.02-0.31-0.03-0.67-0.03-1.08c0-0.41,0.01-0.78,0.03-1.08c0.06-1.94,0.55-3.34,1.47-4.19
c0.91-0.85,2.08-1.28,3.48-1.28c1.09,0,2.02,0.23,2.77,0.69c0.75,0.46,1.35,1.28,1.78,2.46c0.11,0.25,0.2,0.42,0.28,0.51
c0.08,0.09,0.24,0.14,0.46,0.14h0.43c0.18,0,0.35-0.06,0.5-0.18c0.14-0.12,0.2-0.29,0.18-0.5c-0.02-0.56-0.16-1.13-0.42-1.7
c-0.26-0.58-0.65-1.11-1.17-1.59c-0.53-0.49-1.19-0.88-1.98-1.17c-0.79-0.3-1.74-0.45-2.83-0.45c-2.19,0-3.86,0.63-5.01,1.89
c-1.16,1.26-1.77,3-1.83,5.23c-0.02,0.31-0.03,0.72-0.03,1.23c0,0.51,0.01,0.93,0.03,1.23c0.06,2.22,0.67,3.97,1.83,5.23
c1.16,1.26,2.83,1.89,5.01,1.89c1.09,0,2.03-0.15,2.83-0.45c0.79-0.3,1.46-0.69,1.98-1.17c0.53-0.49,0.92-1.01,1.17-1.59
c0.26-0.58,0.4-1.14,0.42-1.7c0.02-0.21-0.04-0.37-0.18-0.5C108.73,27.08,108.55,27.01,108.37,27.02z M125.23,11.43v-0.22
c0-0.02-0.01-0.04-0.01-0.06c-0.01-0.25-0.04-0.5-0.11-0.74c-0.01-0.04-0.02-0.08-0.03-0.11c-0.06-0.24-0.14-0.49-0.24-0.72
l-0.05-0.09c-0.11-0.24-0.24-0.47-0.38-0.69c-0.02-0.02-0.03-0.04-0.05-0.06c-0.16-0.23-0.34-0.44-0.53-0.65
c-0.01-0.01-0.01-0.01-0.01-0.02l-0.02-0.02c-0.04-0.05-0.25-0.25-0.62-0.51c-0.02-0.02-0.03-0.03-0.05-0.04
c-0.02-0.02-0.04-0.03-0.08-0.05c-0.02-0.02-0.04-0.03-0.06-0.04c-0.02-0.02-0.04-0.02-0.06-0.04c0,0-0.01,0-0.01-0.01
c-0.03-0.02-0.06-0.04-0.09-0.05c-0.01-0.01-0.02-0.02-0.03-0.02c-0.05-0.03-0.11-0.06-0.17-0.09c-0.02-0.02-0.05-0.03-0.08-0.04
c-0.03-0.02-0.05-0.02-0.08-0.04c-0.01,0-0.02-0.01-0.02-0.01c-0.01,0-0.02-0.01-0.02-0.01c-0.15-0.07-0.31-0.13-0.47-0.18
c-0.06-0.02-0.12-0.04-0.18-0.05c-0.14-0.04-0.29-0.08-0.43-0.11c-0.05-0.01-0.1-0.02-0.15-0.03c-0.17-0.02-0.34-0.05-0.51-0.05
c-0.06,0-0.12-0.01-0.19-0.01h-1.85V4.84c0-2.64-2.15-4.78-4.78-4.78c-0.53,0-1.04,0.08-1.52,0.24c1.84,0,3.36,1.49,3.36,3.33v3.04
h-3.09c-0.27,0-0.52-0.05-0.77-0.1c-0.14-0.99,0.17-2.02,0.93-2.78c0.03-0.03,0.07-0.07,0.1-0.09c0.55-0.65,0.52-1.62-0.09-2.24
c-0.64-0.65-1.68-0.65-2.32-0.02c-0.01,0.01-0.01,0.01-0.02,0.02c-0.52,0.53-0.92,1.17-1.15,1.87V3.33c0,0.01,0,0.02-0.01,0.02
c-0.07,0.22-0.13,0.44-0.17,0.67c0,0.01-0.01,0.02-0.01,0.03c0,0.01-0.01,0.02-0.01,0.03l-0.02,0.16c0,0.02-0.01,0.04-0.01,0.05
s0,0.04-0.01,0.05c0,0.02-0.01,0.05-0.01,0.07v0.02c0,0.02,0,0.05-0.01,0.08c0,0.05-0.01,0.08-0.01,0.13v0.21
c0,0.08,0,0.15,0.01,0.23c0,0.05,0.01,0.1,0.02,0.14c0,0.02,0,0.04,0.01,0.06V5.3l0.02,0.19c0,0.02,0,0.02,0.01,0.03
c0.01,0.07,0.02,0.14,0.04,0.21v0.02l0.05,0.21c0,0.01,0,0.01,0.01,0.02c0.02,0.07,0.04,0.14,0.05,0.21c0,0.01,0.01,0.02,0.01,0.02
c0.02,0.06,0.04,0.13,0.06,0.19c0.01,0.01,0.01,0.02,0.01,0.03c0.02,0.06,0.05,0.11,0.07,0.18c0,0.01,0.01,0.02,0.01,0.02
c0,0.01,0.01,0.01,0.01,0.02c0,0.01,0,0.01,0.01,0.02c0.02,0.05,0.05,0.1,0.07,0.15c0.01,0.02,0.02,0.05,0.03,0.07
c0.02,0.05,0.05,0.08,0.07,0.13c0.01,0.01,0.01,0.02,0.02,0.03c0.01,0.02,0.02,0.03,0.02,0.05v0.01c0.01,0.04,0.04,0.08,0.06,0.11
c0.02,0.03,0.04,0.06,0.05,0.1c0.02,0.03,0.04,0.07,0.06,0.1c0.02,0.02,0.02,0.04,0.04,0.06c0.01,0.01,0.02,0.02,0.02,0.03
c0,0.01,0.01,0.01,0.01,0.02c0.02,0.03,0.04,0.06,0.06,0.09c0.02,0.03,0.05,0.07,0.08,0.1l0.07,0.09c0.01,0.02,0.04,0.05,0.05,0.07
c0.01,0.01,0.01,0.02,0.02,0.02l0.01,0.01c0.03,0.04,0.06,0.07,0.09,0.11c0.02,0.02,0.04,0.05,0.06,0.08
c0.05,0.06,0.11,0.11,0.16,0.18c0,0,0.01,0.01,0.02,0.01c0.02,0.02,0.12,0.13,0.31,0.28c0.02,0.01,0.02,0.02,0.04,0.03
c0.08,0.06,0.16,0.12,0.26,0.2c0.11,0.08,0.23,0.16,0.36,0.23l0.25,0.14c0.07,0.04,0.14,0.07,0.21,0.1c0.1,0.05,0.2,0.08,0.3,0.11
c0.12,0.05,0.25,0.08,0.39,0.12c0.11,0.03,0.21,0.05,0.32,0.08l0.27,0.05c0.17,0.02,0.35,0.04,0.53,0.05c0.02,0,0.04,0.01,0.05,0.01
h1.95v1.84c0,2.64,2.15,4.78,4.78,4.78c0.53,0,1.04-0.08,1.52-0.25c-1.84,0-3.36-1.49-3.36-3.33V9.63h2.99
c0.27,0,0.52,0.05,0.76,0.1c0.14,0.99-0.18,2.03-0.93,2.78c-0.03,0.03-0.07,0.06-0.1,0.09c-0.55,0.65-0.52,1.62,0.09,2.24
c0.32,0.32,0.75,0.49,1.17,0.49c0.42,0,0.85-0.16,1.17-0.49c0.55-0.55,0.93-1.2,1.15-1.88v0.02c0.02-0.04,0.02-0.08,0.04-0.11
c0-0.01,0.01-0.02,0.01-0.03c0-0.01,0-0.01,0.01-0.02c0.04-0.14,0.08-0.28,0.11-0.43v-0.02c0-0.01,0-0.02,0.01-0.02
c0.01-0.05,0.02-0.11,0.03-0.17c0-0.02,0.01-0.05,0.01-0.07c0.01-0.05,0.01-0.09,0.01-0.14v-0.08c0.01-0.05,0.01-0.08,0.01-0.13
c0-0.03,0.01-0.06,0.01-0.08c0-0.06,0.01-0.11,0.01-0.18v-0.02C125.23,11.44,125.23,11.44,125.23,11.43z M110.71,1.69
c0.24-0.25,0.58-0.38,0.92-0.38c0.35,0,0.68,0.14,0.92,0.38c0.47,0.47,0.51,1.23,0.08,1.75l-0.09,0.09
c-0.79,0.8-1.13,1.88-1.03,2.93h-0.01c0.01,0.05,0.01,0.08,0.02,0.12l0.02,0.18c0.01,0.02,0.01,0.07,0.02,0.09h0.01
c0.13,0.62,0.4,1.21,0.85,1.71c0.24,0.26,0.49,0.46,0.76,0.63c-0.06-0.01-0.11-0.01-0.18-0.02l-0.11-0.02
c-0.25-0.05-0.5-0.13-0.75-0.23c-0.02-0.01-0.05-0.02-0.07-0.03c-0.24-0.1-0.46-0.22-0.68-0.37c-0.02-0.02-0.03-0.02-0.05-0.04
c-0.23-0.15-0.44-0.33-0.64-0.53c-0.21-0.21-0.4-0.44-0.56-0.69c0-0.01-0.01-0.01-0.01-0.02c-0.16-0.24-0.29-0.5-0.4-0.75
l-0.01-0.01c-0.11-0.27-0.19-0.54-0.24-0.82V5.68c-0.05-0.25-0.07-0.51-0.08-0.77c0-0.03-0.01-0.07,0-0.1
C109.43,3.67,109.86,2.55,110.71,1.69z M114.84,9.26h-0.78c-0.47-0.19-0.97-0.48-1.38-0.94c-0.36-0.4-0.6-0.88-0.73-1.39
c0.22,0.05,0.45,0.08,0.69,0.08h3.09v2.25H114.84z M120.24,15.86c-2.34-0.14-4.16-2.08-4.17-4.43V9.25l0.01-5.64
c0-1.39-0.78-2.59-1.92-3.22c2.32,0.14,4.17,2.07,4.17,4.43v2.18l-0.01,5.64C118.32,13.98,119.06,15.22,120.24,15.86z M121.67,9.25
h-2.99V7h1.57c0.47,0.19,0.97,0.48,1.38,0.94c0.36,0.4,0.6,0.88,0.73,1.39C122.13,9.28,121.9,9.25,121.67,9.25z M123.59,14.58
c-0.25,0.24-0.58,0.38-0.92,0.38c-0.35,0-0.68-0.14-0.92-0.38c-0.47-0.47-0.51-1.24-0.08-1.75l0.09-0.09
c0.77-0.77,1.15-1.85,1.04-2.93h0.01c-0.01-0.05-0.01-0.1-0.02-0.14c-0.01-0.05-0.01-0.09-0.02-0.14c-0.01-0.03-0.01-0.07-0.02-0.1
h-0.01c-0.13-0.62-0.4-1.2-0.85-1.71c-0.22-0.24-0.47-0.46-0.75-0.63c0.11,0.02,0.23,0.02,0.34,0.05l0.1,0.02
c0.24,0.06,0.46,0.14,0.68,0.24c0.31,0.14,0.56,0.29,0.76,0.43c0.2,0.14,0.38,0.29,0.56,0.46l0.01,0.02l0.01,0.01l0.02,0.02
c0.19,0.19,0.35,0.4,0.5,0.62c0.05,0.07,0.09,0.14,0.14,0.22c0.09,0.16,0.18,0.32,0.25,0.48c0.04,0.08,0.08,0.17,0.11,0.25
c0.07,0.18,0.11,0.36,0.16,0.54c0.02,0.07,0.04,0.14,0.05,0.21c0.04,0.24,0.06,0.46,0.07,0.7v0.17
C124.87,12.66,124.4,13.76,123.59,14.58z"/>
</svg>
