<svg xmlns="http://www.w3.org/2000/svg" width="39px" height="56px" viewBox="0 0 39 56">
  <path d="m18.73 41c.02-.07.03-.14-.01-.18-.02-.03-.06-.03-.11 0-.08.04-.17.16-.24.34-.01.03-.02.05-.03.08-.08.23-.07.41-.07.41s.18-.17.28-.32c.02-.02.03-.05.04-.07.05-.08.11-.17.14-.26zm-.97-1.14c-.12.09-.44.38-.26.83.22.53.72.55.84.55.01-.03.02-.05.03-.08.06-.17.16-.29.24-.34-.02-.16-.06-.36-.11-.48-.06-.16-.21-.36-.29-.48-.07.04-.22.06-.45 0zm1.5-.73c-.05-.07-.09-.24-.11-.49 0-.02 0-.03 0-.05-.14-.11-.62-.44-1.07-.07-.47.38-.3.88-.22 1.05.09.01.3.06.39.12.11-.08.29-.22.45-.33.18-.09.41-.18.56-.23zm-1.44.45c-.3-.05-.51.03-.51.03s.07.14.44.25h.01c.24.07.38.05.46.01.05-.03.08-.07.07-.1 0-.02-.02-.04-.04-.05-.09-.07-.3-.11-.39-.12-.02-.02-.04-.02-.04-.02zm1.58-1.1c.01.03.01.07.02.11-.01-.04-.02-.07-.02-.11zm.67 2.22c-.17 0-.44 0-.65.04-.24.05-.54.18-.69.25-.03.09-.08.19-.13.26-.01.02-.03.04-.04.07.08.1.41.46.96.39.64-.08.79-.52.82-.63-.01-.01-.03-.03-.04-.05-.1-.11-.19-.23-.23-.33zm.74-1.19c-.06.03-.12.06-.17.08-.17.06-.31.12-.4.13-.04.1-.07.24-.08.4s.02.33.04.44c.07.06.17.16.27.29.01.01.02.03.03.04.03.04.05.07.06.1.19.01.6-.04.69-.64.12-.66-.34-.82-.44-.84zm-.07-.16c.02-.08.14-.72-.44-1.02-.41-.21-.74.01-.91.16.01.03.01.07.02.11.02.2.02.39-.02.5.05.04.22.17.41.26.17.08.39.14.44.16.08-.04.19-.08.31-.12.07-.03.13-.04.19-.05zm-1.33-.76c0-.04-.01-.08-.02-.11-.05-.22-.15-.25-.15-.25s-.1.06-.09.37v.05c.02.24.05.41.11.49.02.03.05.04.07.04.03 0 .05-.04.06-.08.04-.12.05-.3.02-.51zm1.4.92c.15-.08.31-.18.3-.19s-.18-.01-.37.03c-.06.01-.12.03-.17.04-.12.04-.23.08-.31.12s-.13.09-.11.15c.01.04.05.06.11.05.09-.01.23-.06.4-.13.03-.01.09-.04.15-.07zm-.33 1.34c-.11-.14-.2-.24-.27-.29-.03-.02-.06-.04-.08-.05-.03-.01-.06-.01-.08.01s-.02.06-.01.1c.01.03.02.06.03.09.05.1.13.22.23.34.02.02.03.03.04.05.01.01.02.02.03.03.15.14.29.14.29.14s0-.11-.09-.27c-.02-.03-.04-.07-.06-.1-.01-.02-.02-.04-.03-.05zm-.78-.99c.05.2-.11.41-.37.48-.25.07-.5-.04-.55-.24s.11-.41.37-.48c.25-.07.5.04.55.24zm12.6 1.14c.02-.07.03-.14-.01-.18-.02-.03-.06-.03-.11 0-.08.04-.17.16-.24.34-.01.03-.02.05-.03.08-.08.23-.07.41-.07.41s.18-.17.28-.32c.02-.02.03-.05.04-.07.06-.08.12-.17.14-.26zm-.97-1.14c-.12.09-.44.38-.26.83.22.53.72.55.84.55.01-.03.02-.05.03-.08.06-.17.16-.29.24-.34-.02-.16-.06-.36-.11-.48-.06-.16-.21-.36-.29-.48-.07.04-.21.06-.45 0zm1.51-.73c-.05-.07-.09-.24-.11-.49 0-.02 0-.03 0-.05-.14-.11-.62-.44-1.07-.07-.47.38-.3.88-.22 1.05.09.01.3.06.39.12.11-.08.29-.22.45-.33.18-.09.41-.18.56-.23zm-1.45.45c-.3-.05-.51.03-.51.03s.07.14.44.25h.01c.24.07.38.05.46.01.05-.03.08-.07.07-.1 0-.02-.02-.04-.04-.05-.09-.07-.3-.11-.39-.12-.02-.02-.03-.02-.04-.02zm1.58-1.1c.01.03.01.07.02.11 0-.04-.01-.07-.02-.11zm.67 2.22c-.17 0-.44 0-.65.04-.24.05-.54.18-.69.25-.03.09-.08.19-.13.26-.01.02-.03.04-.04.07.08.1.41.46.96.39.64-.08.79-.52.82-.63-.01-.01-.03-.03-.04-.05-.1-.11-.18-.23-.23-.33zm.75-1.19c-.06.03-.12.06-.17.08-.17.06-.31.12-.4.13-.04.1-.07.24-.08.4s.02.33.04.44c.07.06.17.16.27.29.01.01.02.03.03.04.03.04.05.07.06.1.19.01.6-.04.69-.64.11-.66-.35-.82-.44-.84zm-.07-.16c.02-.08.14-.72-.44-1.02-.41-.21-.74.01-.91.16.01.03.01.07.02.11.02.2.02.39-.02.5.05.04.22.17.42.26.17.08.39.14.44.16.08-.04.19-.08.31-.12.06-.03.12-.04.18-.05zm-1.33-.76c0-.04-.01-.08-.02-.11-.05-.22-.15-.25-.15-.25s-.1.06-.09.37v.05c.02.24.05.41.11.49.02.03.05.04.07.04.03 0 .05-.04.06-.08.04-.12.04-.3.02-.51zm1.4.92c.15-.08.31-.18.3-.19s-.18-.01-.37.03c-.06.01-.12.03-.17.04-.12.04-.23.08-.31.12s-.13.09-.11.15c.01.04.05.06.11.05.09-.01.24-.06.4-.13.03-.01.09-.04.15-.07zm-.34 1.34c-.11-.14-.2-.24-.27-.29-.03-.02-.06-.04-.08-.05-.03-.01-.06-.01-.08.01s-.02.06-.01.1c.01.03.02.06.03.09.05.1.13.22.23.34.02.02.03.03.04.05l.03.03c.15.14.29.14.29.14s0-.11-.09-.27c-.02-.03-.04-.07-.06-.1-.01-.02-.01-.04-.03-.05zm-.77-.99c.05.2-.11.41-.37.48-.25.07-.5-.04-.55-.24s.11-.41.37-.48c.25-.07.5.04.55.24zm-28.23 1.14c.02-.07.03-.14-.01-.18-.02-.03-.06-.03-.11 0-.08.04-.17.16-.24.34-.01.03-.02.05-.03.08-.08.23-.07.41-.07.41s.18-.17.28-.32c.02-.02.03-.05.04-.07.06-.08.11-.17.14-.26zm-.97-1.14c-.12.09-.44.38-.26.83.22.53.72.55.84.55.01-.03.02-.05.03-.08.06-.17.16-.29.24-.34-.02-.16-.06-.36-.11-.48-.06-.16-.21-.36-.29-.48-.07.04-.21.06-.45 0zm1.5-.73c-.05-.07-.09-.24-.11-.49 0-.02 0-.03 0-.05-.14-.11-.62-.44-1.07-.07-.47.38-.3.88-.22 1.05.09.01.3.06.39.12.11-.08.29-.22.45-.33.18-.09.41-.18.56-.23zm-1.44.45c-.3-.05-.51.03-.51.03s.07.14.44.25h.01c.24.07.38.05.46.01.05-.03.08-.07.07-.1 0-.02-.02-.04-.04-.05-.09-.07-.3-.11-.39-.12-.02-.02-.04-.02-.04-.02zm1.58-1.1c.01.03.01.07.02.11-.01-.04-.01-.07-.02-.11zm.67 2.22c-.17 0-.44 0-.65.04-.24.06-.54.19-.69.26-.03.09-.08.19-.13.26-.01.02-.03.04-.04.07.08.1.41.46.96.39.64-.08.79-.52.82-.63-.01-.01-.03-.03-.04-.05-.1-.12-.18-.24-.23-.34zm.75-1.19c-.06.03-.12.06-.16.08-.17.06-.31.12-.4.13-.04.1-.07.24-.08.4s.02.33.04.44c.07.06.17.16.27.29.01.01.02.03.03.04.03.04.05.07.06.1.19.01.6-.04.69-.64.1-.66-.36-.82-.45-.84zm-.08-.16c.02-.08.14-.72-.44-1.02-.41-.21-.74.01-.91.16.01.03.01.07.02.11.02.2.02.39-.02.5.05.04.22.17.42.26.17.08.39.14.44.16.08-.04.19-.08.31-.12.06-.03.12-.04.18-.05zm-1.32-.76c0-.04-.01-.08-.02-.11-.05-.22-.15-.25-.15-.25s-.1.06-.09.37v.05c.02.24.05.41.11.49.02.03.05.04.07.04.03 0 .05-.04.06-.08.03-.12.04-.3.02-.51zm1.4.92c.15-.08.31-.18.3-.19s-.19-.01-.37.03c-.07.01-.13.02-.18.04-.12.04-.23.08-.31.12s-.13.09-.11.15c.01.04.05.06.11.05.09-.01.23-.06.4-.13.03-.01.09-.04.16-.07zm-.34 1.34c-.11-.14-.2-.24-.27-.29-.03-.02-.06-.04-.08-.05-.03-.01-.06-.01-.08.01s-.02.06-.01.1l.03.09c.05.1.13.22.23.34.02.02.03.03.04.05.01.01.02.02.03.03.15.14.29.14.29.14s0-.11-.09-.27c-.02-.03-.04-.07-.06-.1-.01-.02-.02-.04-.03-.05zm-.78-.99c.05.2-.11.41-.37.48-.25.06-.49-.04-.54-.24s.11-.41.37-.48c.24-.07.49.04.54.24zm12.71-11.54c.02-.07.03-.14-.01-.18-.02-.03-.06-.03-.11 0-.08.04-.17.16-.24.34-.01.03-.02.05-.03.08-.08.23-.07.41-.07.41s.18-.17.28-.32c.02-.02.03-.04.04-.07.05-.08.11-.18.14-.26zm-.97-1.15c-.12.09-.44.38-.26.83.22.53.72.55.84.55.01-.03.02-.05.03-.08.06-.17.16-.29.24-.34-.02-.16-.06-.36-.11-.48-.06-.16-.21-.36-.29-.48-.07.05-.22.07-.45 0zm1.5-.72c-.05-.07-.09-.24-.11-.49 0-.02 0-.03 0-.05-.14-.11-.62-.44-1.07-.07-.47.38-.3.88-.22 1.05.09.01.3.06.39.12.11-.09.29-.22.45-.33.18-.09.41-.18.56-.23zm-1.44.44c-.3-.05-.51.03-.51.03s.07.14.44.25h.01c.24.07.38.05.46.01.05-.03.08-.07.07-.1 0-.02-.02-.04-.04-.05-.09-.07-.3-.11-.39-.12-.02-.01-.04-.02-.04-.02zm1.58-1.09c.01.03.01.07.02.11-.01-.04-.02-.08-.02-.11zm.67 2.22c-.17-.01-.44 0-.65.04-.24.05-.54.18-.69.25-.03.09-.08.19-.13.26-.01.02-.03.04-.04.07.08.1.41.46.96.39.64-.08.79-.52.82-.63-.01-.02-.03-.03-.04-.05-.1-.11-.19-.23-.23-.33zm.74-1.19c-.06.03-.12.06-.17.08-.17.06-.31.12-.4.12-.04.1-.07.24-.08.4s.02.33.04.45c.07.06.17.16.27.29.01.01.02.03.03.04.03.04.05.07.06.1.19.01.6-.05.69-.64.12-.67-.34-.82-.44-.84zm-.07-.16c.02-.08.14-.72-.44-1.02-.41-.21-.74.01-.91.16.01.03.01.07.02.11.02.2.02.39-.02.5.05.04.22.17.41.26.17.08.39.14.44.16.08-.04.19-.08.31-.12.07-.03.13-.04.19-.05zm-1.33-.76c0-.04-.01-.08-.02-.11-.05-.22-.15-.25-.15-.25s-.1.06-.09.37v.05c.02.25.05.41.11.49.02.03.05.04.07.04.03 0 .05-.04.06-.08 0 0 0 0 0-.01.04-.11.05-.3.02-.5zm1.4.92c.15-.08.31-.18.3-.19s-.18-.01-.37.03c-.06.01-.12.03-.17.04-.12.04-.23.08-.31.12s-.13.09-.11.15c.01.04.05.06.11.05.09-.01.23-.06.4-.12.03-.02.09-.05.15-.08zm-.33 1.34c-.11-.14-.2-.24-.27-.29-.03-.02-.06-.04-.08-.05-.03-.01-.06-.01-.08.01s-.02.06-.01.1c.01.03.02.06.03.09.05.1.13.22.23.34.02.02.03.03.04.05l.03.03c.15.14.29.14.29.14s0-.11-.09-.27c-.02-.03-.04-.07-.06-.1-.01-.03-.02-.04-.03-.05zm-.78-.99c.05.2-.11.41-.37.48-.25.07-.5-.04-.55-.24s.11-.41.37-.48c.25-.07.5.04.55.24zm-14.82 1.14c.02-.07.03-.14-.01-.18-.02-.03-.06-.03-.11 0-.08.04-.17.16-.24.34-.01.02-.02.05-.02.07-.08.23-.07.41-.07.41s.18-.17.28-.32c.02-.02.03-.04.04-.07.05-.07.1-.17.13-.25zm-.97-1.15c-.13.09-.45.38-.26.83.22.53.72.55.84.55.01-.03.02-.05.03-.08.06-.17.16-.29.24-.34-.02-.16-.06-.36-.11-.48-.06-.16-.21-.36-.29-.48-.07.05-.22.07-.45 0zm1.5-.72c-.05-.07-.09-.24-.11-.49 0-.02 0-.03 0-.05-.14-.11-.62-.44-1.07-.07-.47.38-.3.88-.22 1.05.09.01.3.06.39.12.11-.09.29-.22.45-.33.18-.09.41-.18.56-.23zm-1.44.44c-.3-.05-.51.03-.51.03s.07.14.44.25h.01c.24.07.38.05.46.01.05-.03.08-.07.07-.1 0-.02-.02-.04-.04-.05-.09-.07-.3-.11-.39-.12-.02-.01-.04-.02-.04-.02zm1.58-1.09c.01.03.01.07.02.11-.01-.04-.02-.08-.02-.11zm.67 2.22c-.17-.01-.44 0-.65.04-.24.05-.54.18-.69.25-.03.09-.08.19-.13.27-.01.02-.03.04-.04.07.08.1.41.46.96.39.64-.08.79-.52.82-.63-.01-.02-.03-.03-.04-.05-.1-.12-.19-.24-.23-.34zm.74-1.19c-.06.03-.12.06-.16.07-.17.06-.31.12-.4.12-.04.1-.07.24-.08.4s.02.33.04.45c.07.06.17.16.27.29.01.01.02.03.03.04.03.04.05.07.06.1.19.01.6-.05.69-.64.11-.66-.35-.81-.45-.83zm-.07-.16c.02-.08.14-.72-.44-1.02-.41-.21-.74.01-.91.16.01.03.01.07.02.11.02.2.02.39-.02.5.05.04.22.17.42.26.17.08.39.14.44.16.08-.04.19-.08.31-.12.06-.03.12-.04.18-.05zm-1.33-.76c0-.04-.01-.08-.02-.11-.04-.22-.14-.25-.14-.25s-.1.06-.09.37v.05c.02.25.05.41.11.49.02.03.05.04.07.04.03 0 .05-.04.06-.08 0 0 0 0 0-.01.03-.11.04-.3.01-.5zm1.4.92c.15-.08.31-.18.3-.19s-.18-.01-.37.03c-.06.01-.12.03-.17.04-.12.04-.23.08-.31.12s-.13.09-.11.15c.01.04.05.06.11.05.09-.01.24-.06.4-.12.03-.02.09-.05.15-.08zm-.33 1.34c-.11-.14-.2-.24-.27-.29-.03-.02-.06-.04-.08-.05-.03-.01-.06-.01-.08.01s-.02.06-.01.1c.01.03.02.06.03.09.05.1.13.22.23.34.02.02.03.03.04.05l.03.03c.15.14.29.14.29.14s0-.11-.09-.27c-.02-.03-.04-.07-.06-.1-.01-.03-.02-.04-.03-.05zm-.78-.99c.05.2-.11.41-.37.48-.25.07-.5-.04-.55-.24s.12-.42.37-.49c.25-.06.5.05.55.25zm26.76 1.14c.02-.07.03-.14-.01-.18-.02-.03-.06-.03-.11 0-.08.04-.17.16-.24.34-.01.03-.02.05-.03.08-.08.23-.07.41-.07.41s.18-.17.28-.32c.02-.02.03-.04.04-.07.06-.08.11-.18.14-.26zm-.97-1.15c-.12.09-.44.38-.26.83.22.53.72.55.84.55.01-.03.02-.05.03-.08.06-.17.16-.29.24-.34-.02-.16-.06-.36-.11-.48-.06-.16-.21-.36-.29-.48-.07.05-.21.07-.45 0zm1.51-.72c-.05-.07-.09-.24-.11-.49 0-.02 0-.03 0-.05-.14-.11-.62-.44-1.07-.07-.47.38-.3.88-.22 1.05.09.01.3.06.39.12.11-.09.29-.22.45-.33.17-.09.41-.18.56-.23zm-1.45.44c-.3-.05-.51.03-.51.03s.07.14.44.25h.01c.24.07.38.05.46.01.05-.03.08-.07.07-.1 0-.02-.02-.04-.04-.05-.09-.07-.3-.11-.39-.12-.02-.01-.03-.02-.04-.02zm1.58-1.09c.01.03.01.07.02.11-.01-.04-.01-.08-.02-.11zm.67 2.22c-.17-.01-.44 0-.65.04-.24.05-.54.18-.69.25-.03.09-.08.19-.13.26-.01.02-.03.04-.04.07.08.1.41.46.96.39.64-.08.79-.52.82-.63-.01-.02-.03-.03-.04-.05-.1-.11-.18-.23-.23-.33zm.75-1.19c-.06.03-.12.06-.17.08-.17.06-.31.12-.4.12-.04.1-.07.24-.08.4s.02.33.04.45c.07.06.17.16.27.29.01.01.02.03.03.04.03.04.05.07.06.1.19.01.6-.05.69-.64.11-.67-.35-.82-.44-.84zm-.08-.16c.02-.08.14-.72-.44-1.02-.4-.21-.74.01-.91.16.01.03.01.07.02.11.02.2.02.39-.02.5.05.04.22.17.42.26.17.08.39.14.44.16.08-.04.19-.08.31-.12.07-.03.13-.04.18-.05zm-1.32-.76c0-.04-.01-.08-.02-.11-.05-.22-.15-.25-.15-.25s-.1.06-.09.37v.05c.02.25.05.41.11.49.02.03.05.04.07.04.03 0 .05-.04.06-.08 0 0 0 0 0-.01.04-.11.04-.3.02-.5zm1.4.92c.15-.08.31-.18.3-.19s-.18-.01-.37.03c-.06.01-.12.03-.17.04-.12.04-.23.08-.31.12s-.13.09-.11.15c.01.04.05.06.11.05.09-.01.23-.06.4-.12.02-.02.09-.05.15-.08zm-.34 1.34c-.11-.14-.2-.24-.27-.29-.03-.02-.06-.04-.08-.05-.03-.01-.06-.01-.08.01s-.02.06-.01.1c.01.03.02.06.03.09.05.1.13.22.23.34.02.02.03.03.04.05.01.01.02.02.03.03.15.14.29.14.29.14s0-.11-.09-.27c-.02-.03-.04-.07-.06-.1-.01-.03-.02-.04-.03-.05zm-.77-.99c.05.2-.11.41-.37.48-.25.07-.5-.04-.55-.24s.11-.41.37-.48c.25-.07.49.04.55.24zm-14.86-11.55c.02-.07.03-.14-.01-.18-.02-.03-.06-.03-.11 0-.08.05-.17.16-.24.34-.01.03-.02.05-.03.08-.08.23-.07.41-.07.41s.18-.17.28-.32c.02-.02.03-.05.04-.07.05-.07.11-.17.14-.26zm-.97-1.14c-.12.09-.44.38-.26.83.22.53.72.55.84.55.01-.03.02-.05.03-.08.06-.17.16-.29.24-.34-.02-.16-.06-.36-.11-.48-.06-.16-.21-.36-.29-.48-.07.05-.22.07-.45 0zm1.5-.72c-.05-.07-.09-.24-.11-.49 0-.02 0-.03 0-.05-.14-.11-.62-.44-1.07-.07-.47.38-.3.88-.22 1.05.09.01.3.06.39.12.11-.08.29-.22.45-.33.18-.1.41-.18.56-.23zm-1.44.44c-.3-.05-.51.03-.51.03s.07.14.44.25h.01c.24.07.38.05.46.01.05-.03.08-.07.07-.1 0-.02-.02-.04-.04-.05-.09-.07-.3-.11-.39-.12-.02-.02-.04-.02-.04-.02zm1.58-1.09c.01.03.01.07.02.11-.01-.04-.02-.08-.02-.11zm.67 2.22c-.17 0-.44 0-.65.04-.24.05-.54.18-.69.25-.03.09-.08.19-.13.26-.01.02-.03.04-.04.07.08.1.41.46.96.39.64-.08.79-.52.82-.62-.01-.01-.03-.03-.04-.05-.1-.12-.19-.24-.23-.34zm.74-1.2c-.06.03-.12.06-.17.08-.17.06-.31.12-.4.12-.04.1-.07.24-.08.4s.02.33.04.45c.07.06.17.16.27.29.01.01.02.03.03.04.03.04.05.07.06.1.19.01.6-.05.69-.64.12-.66-.34-.81-.44-.84zm-.07-.16c.02-.08.14-.72-.44-1.02-.41-.21-.74.01-.91.16.01.03.01.07.02.11.02.2.02.39-.02.5.05.04.22.17.41.26.17.08.39.14.44.16.08-.04.19-.08.31-.12.07-.02.13-.03.19-.05zm-1.33-.75c0-.04-.01-.08-.02-.11-.05-.22-.15-.25-.15-.25s-.1.06-.09.37v.05c.02.25.05.41.11.49.02.03.05.04.07.04.03 0 .05-.04.06-.08 0 0 0 0 0-.01.04-.11.05-.3.02-.5zm1.4.91c.15-.08.31-.18.3-.19s-.18-.01-.37.03c-.06.01-.12.03-.17.04-.12.04-.23.08-.31.12s-.13.09-.11.15c.01.04.05.06.11.05.09-.01.23-.06.4-.12.03-.01.09-.04.15-.08zm-.33 1.35c-.11-.14-.2-.24-.27-.29-.03-.02-.06-.04-.08-.05-.03-.01-.06-.01-.08.01s-.02.06-.01.1c.01.03.02.06.03.09.05.1.13.22.23.34.02.02.03.03.04.05.01.01.02.02.03.03.15.14.29.14.29.14s0-.11-.09-.27c-.02-.03-.04-.07-.06-.1-.01-.03-.02-.04-.03-.05zm-.78-1c.05.2-.11.41-.37.48-.25.07-.5-.04-.55-.24s.11-.41.37-.48c.25-.06.5.05.55.24zm-14.82 1.14c.02-.07.03-.14-.01-.18-.02-.03-.06-.03-.11 0-.08.05-.17.16-.24.34-.01.03-.02.05-.03.08-.08.23-.07.41-.07.41s.18-.17.28-.32c.02-.02.03-.05.04-.07.06-.07.11-.17.14-.26zm-.97-1.14c-.12.09-.44.38-.26.83.22.53.72.55.84.55.01-.03.02-.05.03-.08.06-.17.16-.29.24-.34-.02-.15-.06-.35-.11-.48-.06-.16-.21-.36-.29-.48-.07.05-.22.07-.45 0zm1.5-.72c-.05-.07-.09-.24-.11-.49 0-.02 0-.03 0-.05-.14-.11-.62-.44-1.07-.07-.47.38-.3.88-.22 1.05.09.01.3.06.39.12.11-.08.29-.22.45-.33.18-.1.41-.18.56-.23zm-1.44.44c-.3-.05-.51.03-.51.03s.07.14.44.25h.01c.24.07.38.05.46.01.05-.03.08-.07.07-.1 0-.02-.02-.04-.04-.05-.09-.07-.3-.11-.39-.12-.02-.02-.04-.02-.04-.02zm1.58-1.09c.01.03.01.07.02.11-.01-.04-.02-.08-.02-.11zm.67 2.22c-.17 0-.44 0-.65.04-.24.05-.54.18-.69.25-.03.09-.08.19-.13.26-.01.02-.03.04-.04.07.08.1.41.46.96.39.64-.08.79-.52.82-.62-.01-.01-.03-.03-.04-.05-.1-.12-.19-.24-.23-.34zm.74-1.2c-.06.03-.12.06-.16.08-.17.06-.31.12-.4.12-.04.1-.07.24-.08.4s.02.33.04.45c.07.06.17.16.27.29.01.01.02.03.03.04.03.04.05.07.06.1.19.01.6-.05.69-.64.11-.66-.35-.81-.45-.84zm-.07-.16c.02-.08.14-.72-.44-1.02-.41-.21-.74.01-.91.16.01.03.01.07.02.11.02.2.02.39-.02.5.05.04.22.17.42.26.17.08.39.14.44.16.08-.04.19-.08.31-.12.06-.02.12-.03.18-.05zm-1.33-.75c0-.04-.01-.08-.02-.11-.04-.22-.14-.25-.14-.25s-.1.06-.09.37v.05c.02.25.05.41.11.49.02.03.05.04.07.04.03 0 .05-.04.06-.08 0 0 0 0 0-.01.03-.11.04-.3.01-.5zm1.4.91c.15-.08.31-.18.3-.19s-.18-.01-.37.03c-.06.02-.12.03-.17.05-.12.03-.23.07-.32.12-.08.04-.13.09-.11.15.01.04.05.06.11.05.09-.01.24-.06.4-.12.04-.02.1-.05.16-.09zm-.33 1.35c-.11-.14-.2-.24-.27-.29-.03-.02-.06-.04-.08-.05-.03-.01-.06-.01-.08.01s-.02.06-.01.1c.01.03.02.06.03.09.05.1.13.22.23.34.02.02.03.03.04.05.01.01.02.02.03.03.15.14.29.14.29.14s0-.11-.09-.27c-.02-.03-.04-.07-.06-.1-.01-.03-.02-.04-.03-.05zm-.78-1c.05.2-.11.41-.37.48-.25.07-.5-.04-.55-.24s.11-.41.37-.48c.25-.06.5.05.55.24zm26.76 1.14c.02-.07.03-.14-.01-.18-.02-.03-.06-.03-.11 0-.08.05-.17.16-.24.34-.01.03-.02.05-.03.08-.08.23-.07.41-.07.41s.18-.17.28-.32c.02-.02.03-.05.04-.07.06-.07.11-.17.14-.26zm-.97-1.14c-.12.09-.44.38-.26.83.22.53.72.55.84.55.01-.03.02-.05.03-.08.06-.17.16-.29.24-.34-.02-.16-.06-.36-.11-.48-.06-.16-.21-.36-.29-.48-.07.05-.21.07-.45 0zm1.51-.72c-.05-.07-.09-.24-.11-.49 0-.02 0-.03 0-.05-.14-.11-.62-.44-1.07-.07-.47.38-.3.88-.22 1.05.09.01.3.06.39.12.11-.08.29-.22.45-.33.17-.1.41-.18.56-.23zm-1.45.44c-.3-.05-.51.03-.51.03s.07.14.44.25h.01c.24.07.38.05.46.01.05-.03.08-.07.07-.1 0-.02-.02-.04-.04-.05-.09-.07-.3-.11-.39-.12-.02-.02-.03-.02-.04-.02zm1.58-1.09c.01.03.01.07.02.11-.01-.04-.01-.08-.02-.11zm.67 2.22c-.17 0-.44 0-.65.04-.24.05-.54.18-.69.25-.03.09-.08.19-.13.26-.01.02-.03.04-.04.07.08.1.41.46.96.39.64-.08.79-.52.82-.62-.01-.01-.03-.03-.04-.05-.1-.12-.18-.24-.23-.34zm.75-1.2c-.06.03-.12.06-.17.08-.17.06-.31.12-.4.12-.04.1-.07.24-.08.4s.02.33.04.45c.07.06.17.16.27.29.01.01.02.03.03.04.03.04.05.07.06.1.19.01.6-.05.69-.64.11-.66-.35-.81-.44-.84zm-.08-.16c.02-.08.14-.72-.44-1.02-.4-.21-.74.01-.91.16.01.03.01.07.02.11.02.2.02.39-.02.5.05.04.22.17.42.26.17.08.39.14.44.16.08-.04.19-.08.31-.12.07-.02.13-.03.18-.05zm-1.32-.75c0-.04-.01-.08-.02-.11-.05-.22-.15-.25-.15-.25s-.1.06-.09.37v.05c.02.25.05.41.11.49.02.03.05.04.07.04.03 0 .05-.04.06-.08 0 0 0 0 0-.01.04-.11.04-.3.02-.5zm1.4.91c.15-.08.31-.18.3-.19s-.18-.01-.37.03c-.06.01-.12.03-.17.04-.12.04-.23.08-.31.12s-.13.09-.11.15c.01.04.05.06.11.05.09-.01.23-.06.4-.12.02-.01.09-.04.15-.08zm-.34 1.35c-.11-.14-.2-.24-.27-.29-.03-.02-.06-.04-.08-.05-.03-.01-.06-.01-.08.01s-.02.06-.01.1c.01.03.02.06.03.09.05.1.13.22.23.34.02.02.03.03.04.05.01.01.02.02.03.03.15.14.29.14.29.14s0-.11-.09-.27c-.02-.03-.04-.07-.06-.1-.01-.03-.02-.04-.03-.05zm-.77-1c.05.2-.11.41-.37.48-.25.07-.5-.04-.55-.24s.11-.41.37-.48c.25-.06.49.05.55.24zm-14.86 37.31c.02-.07.03-.14-.01-.18-.02-.03-.06-.03-.11 0-.08.05-.17.16-.24.34-.01.03-.02.05-.03.08-.08.23-.07.41-.07.41s.18-.17.28-.32c.02-.02.03-.05.04-.07.05-.08.11-.18.14-.26zm-.97-1.15c-.12.09-.44.38-.26.83.22.53.72.55.84.55.01-.03.02-.05.03-.08.06-.17.16-.29.24-.34-.02-.15-.06-.36-.11-.48-.06-.16-.21-.36-.29-.48-.07.05-.22.07-.45 0zm1.5-.72c-.05-.07-.09-.24-.11-.49 0-.02 0-.03 0-.05-.14-.11-.62-.44-1.07-.07-.47.38-.3.88-.22 1.05.09.01.3.06.39.12.11-.08.29-.22.45-.33.18-.09.41-.18.56-.23zm-1.44.44c-.3-.05-.51.03-.51.03s.07.14.44.25h.01c.24.07.38.05.46.01.05-.03.08-.07.07-.1 0-.02-.02-.04-.04-.05-.09-.07-.3-.11-.39-.12-.02-.01-.04-.02-.04-.02zm1.58-1.09c.01.03.01.07.02.11-.01-.04-.02-.08-.02-.11zm.67 2.22c-.17 0-.44 0-.65.04-.24.05-.54.18-.69.25-.03.09-.08.19-.13.26-.01.02-.03.04-.04.07.08.1.41.46.96.39.64-.08.79-.52.82-.63-.01-.01-.03-.03-.04-.05-.1-.11-.19-.23-.23-.33zm.74-1.2c-.06.03-.12.06-.17.08-.17.06-.31.12-.4.12-.04.1-.07.24-.08.4s.02.33.04.45c.07.06.17.16.27.29.01.01.02.03.03.04.03.04.05.07.06.1.19.01.6-.04.69-.64.12-.66-.34-.81-.44-.84zm-.07-.16c.02-.08.14-.72-.44-1.02-.41-.21-.74.01-.91.16.01.03.01.07.02.11.02.2.02.39-.02.5.05.04.22.17.41.26.17.08.39.14.44.16.08-.04.19-.08.31-.12.07-.02.13-.03.19-.05zm-1.33-.75c0-.04-.01-.08-.02-.11-.05-.22-.15-.25-.15-.25s-.1.06-.09.37v.05c.02.25.05.41.11.49.02.03.05.04.07.04.03 0 .05-.04.06-.08 0 0 0 0 0-.01.04-.11.05-.3.02-.5zm1.4.91c.15-.08.31-.18.3-.19s-.18-.01-.37.03c-.06.01-.12.03-.17.04-.12.04-.23.08-.31.12s-.13.09-.11.15c.01.04.05.06.11.05.09-.01.23-.06.4-.12.03-.01.09-.04.15-.08zm-.33 1.35c-.11-.14-.2-.24-.27-.29-.03-.02-.06-.04-.08-.05-.03-.01-.06-.01-.08.01s-.02.06-.01.1c.01.03.02.06.03.09.05.1.13.22.23.34.02.02.03.03.04.05.01.01.02.02.03.03.15.14.29.14.29.14s0-.11-.09-.28c-.02-.03-.04-.07-.06-.1-.01-.02-.02-.03-.03-.04zm-.78-1c.05.2-.11.41-.37.48-.25.07-.5-.04-.55-.24s.11-.41.37-.48c.25-.06.5.05.55.24zm11.34-8.02s.54-.76-1.35-1.53c-1.4-.57-3.33-.45-4.56-.62-1.03-.14-1.14-.38-1.08-.63.12-.57 1.08-.2 1.68.13.65.35 1.81.46 2.65-.32.3-.28.72-.38.72-.38s-.5-.32-.91-.03c-.17.12-.3.24-.65.26-.6.05-.71-.15-.71-.15s.31.21 1.06-.18c.98-.5.39-1.6.39-1.6s.07.39-.35.66c-.58.38-1.06.03-1.06.03s.22.11.57-.02c.43-.16.57-.39.43-.68-.06-.12-.27-.27-.27-.27s.47.62-1.39.49c-.94-.07-1.27.89-1.27.89s-.43-.11-.74-.01c.02-.14 0-.39-.08-.54-.1.49-.47.81-.65 1.02-.17.21-.55.76-.08 1.4.46.54 1.31.62 1.84.66.79.06 2.11.13 3.27.29 1.57.22 1.29.97 1.1 1.2-.2.24-.57.25-1.66-.13s-2.22-1.06-4.5-.97c-3.14.12-5.37 2.42-6.52 2.3 0 0 .06.28.04.46-.1.8-.83 1.23-.83 1.23s-.04-.17-.1-.16c-.07.01 0 .17-.26.37-.25.18-.37.39-.46.76 0 0-.13-.25-.21-.03-.1.29-.25.31-.33.34 0 0-.01-.15-.07-.14-.1 0-.14.64-1.23.53l-.08.02c-.8.14-.94-.66-1.23-.93-.19-.18-.41.15-.41.15s-.16-.17-.14-.48c.02-.32.08-.43-.05-.66-.1-.17-.52-.52-.36-1.13-.19 0-.57-.14-.73-1.27-.01-.08.14.02.14.02-.03-.17-.18-.24-.21-.44-.04-.29-.08-.86.08-1.05.24-.3.91-.41.59-1-.03.06-.06.12-.1.17-.04.04-.1.07-.16.07-.12 0-.21-.1-.2-.22 0-.08.05-.13.11-.19 0 0 .01-.01.01-.01-.12-.01-.22.03-.29.06.02-.13.24-.81-.34-.97.01.09 0 .2-.04.27-.02.05-.07.1-.13.12-.11.04-.23-.03-.26-.14-.02-.07.01-.14.04-.22.01-.03.02-.06.03-.09-.56.07-.44.79-.44.91-.01-.16-.35-.62-.68-.42 0 0-.01.01-.03.03.04.03.08.07.1.11.03.05.05.11.03.17-.03.11-.14.18-.25.16-.07-.02-.12-.08-.17-.15 0-.01-.01-.01-.01-.02-.12.15-.1.42.21.66.46.35.62 1.77.55 1.96-.1.25-.35-.11-.35-.11s-.04.33.19.66c.41.59.54.85.23.75-.1-.03-.19-.12-.19-.12s.02.3.39.6c.15.12.13.19.02.18-.12-.01-.22-.09-.22-.09s.1.27.29.53c.32.43.61.61.61.61s-.36-.03-.87-.33c-.77-.45-.45-.77-.68-1.3-.22-.51-.36-.59-.59-.62-.01 0-.01 0-.02 0 .02.04.03.07.03.11.01.06 0 .12-.04.17-.07.09-.2.1-.29.03-.06-.05-.07-.12-.08-.21-.22.11-.21.34-.19.45-.15-.16-.43-.39-.62-.43-.12-.02-.26.01-.39.08-.01 0-.01.01-.02.01.01.01.03.02.04.03.05.04.08.09.08.15.01.12-.08.21-.2.22-.08 0-.13-.04-.2-.09-.01-.01-.02-.02-.03-.03-.14.24-.09.71.7.96 0 0-.38.06-.51.34.09-.01.19 0 .26.04.05.02.1.07.12.13.03.11-.03.23-.14.26-.07.02-.14-.01-.22-.04-.01-.01-.02-.01-.04-.01.09.4.42.46.69.46 1.19-.01 2.12.56 2.12.56s-.26.02-.4.2c-.15.19-.11.3-.11.3s.11-.1.4-.15c.32-.05.38.06.38.06s-.46.17-.28.65c0 0 .19-.21.47-.3.24-.08.51-.07.62.09.15.22-.49.43-.49.43.44.26 1.41.14 1.41.14s-.68.12-.67.57c0 0 .42-.32 1.25 0 1.25.49 2.79.72 4.8-.1 2.53-1.03 2.6-3.22 6.12-4.39.11.17.91.91 1.9 1.28.8.3 1.93.5 2.27.58.5.12 1.38.31.85 1.27-.25.45-.48.58-.69.75-.04-.01-.3-.08-.68-.22-.22-.08-.38-.03-.45.12.06 0 .12.01.17.03s.09.06.11.11c.03.1-.02.2-.11.24-.06.02-.13 0-.2-.03-.01 0-.01 0-.02 0 .03.27.25.3.25.3s-.26.1-.26.34c.05-.02.09-.03.14-.04s.11.01.15.05c.08.07.08.19.01.26-.05.05-.11.06-.19.07.01 0 .01.01.02.01.15.19.61.05.61.05s-.1.23.03.4c.02-.07.05-.13.1-.18.03-.04.08-.06.14-.07.1 0 .19.08.19.19 0 .07-.04.12-.09.18-.01.01-.02.02-.02.03.03 0 .05.01.08.01.22-.03.53-.23.67-.7.18-.54.35-.66.35-.66s.46-.43.28.34c.45-.12.4-.61.4-.61s.36.16.47.08c.15-.12 0-.48.18-.73.19-.28.3.05.23.27 0 0 .28-.09.29-.44.01-.23-.08-.5.14-.7.16-.14.2.06.16.25 0 0 .21.01.25-.37.02-.23-.03-.3.04-.33.08-.03.14.19.14.19s.19-.43-.2-.69c-.66-.43-2.35-.14-3.35-1.72-.37-.58-.1-.85-.1-.85s1.79.85 2.76.71c1.17-.17 1.17-.8 1.17-.8s.19.04.03.42c0 0 .21-.05.3-.34.17-.56-.18-.91-.18-.91.26-.05.27.29.27.29zm-24.65 3.11c.11-.03.17-.15.14-.26-.02-.06-.06-.1-.12-.13-.07-.04-.17-.05-.26-.04-.01 0-.02 0-.03 0-.36.05-.46.31-.51.46 0 0 .22-.19.54-.08.01 0 .02.01.04.01.06.04.13.06.2.04zm-.21-1.62c.11-.01.2-.11.2-.22 0-.06-.04-.12-.08-.15-.01-.01-.02-.02-.04-.03-.07-.05-.16-.07-.24-.08-.36-.04-.52.19-.61.32 0 0 .26-.13.54.05.01.01.02.01.03.02.06.05.12.09.2.09zm1.38-.31c.09.07.22.06.29-.03.04-.05.05-.11.04-.17 0-.04-.02-.07-.03-.11-.02-.06-.06-.12-.1-.16-.24-.28-.51-.22-.66-.18 0 0 .3.09.37.44.02.09.04.16.09.21zm3.05-3.29c0 .12.09.21.2.22.06 0 .12-.02.16-.07.04-.04.08-.1.1-.17.01-.03.03-.07.03-.1.08-.36-.14-.54-.26-.64 0 0 .11.29-.11.55 0 0-.01.01-.01.01-.06.07-.11.13-.11.2zm-.94-.86c.04.11.15.17.26.14.06-.02.1-.06.13-.12.04-.08.05-.18.04-.27 0-.01 0-.02 0-.03-.05-.36-.31-.46-.46-.51 0 0 .17.2.1.49-.01.03-.02.06-.03.09-.03.07-.06.14-.04.21zm-1.19.65c.11.03.22-.04.25-.16.01-.06 0-.12-.03-.17-.03-.04-.06-.08-.1-.11s-.09-.06-.13-.08c-.33-.14-.56.03-.67.13 0 0 .3-.05.52.22 0 .01.01.01.01.02.03.07.08.13.15.15zm17.32 8.05c.1-.03.15-.14.11-.24-.02-.05-.06-.09-.11-.11s-.11-.03-.17-.03c-.04 0-.07 0-.1.01-.32.05-.4.3-.45.43 0 0 .2-.19.5-.09h.02c.07.03.13.05.2.03zm.06.62c-.04-.04-.1-.05-.15-.05-.04 0-.09.02-.14.04-.04.02-.08.04-.11.07-.26.2-.22.45-.2.59 0 0 .09-.27.42-.31.08-.01.14-.02.19-.07.07-.09.07-.2-.01-.27zm.91.73c0-.1-.09-.19-.19-.19-.06 0-.11.03-.14.07-.04.04-.08.11-.1.18-.01.02-.01.05-.02.07-.06.32.15.48.25.56 0 0-.1-.24.07-.48.01-.01.01-.02.02-.03.07-.06.11-.11.11-.18zm-.87-3.46c-2.04-.39-2.47-.65-3.3-1.45-.08.04-.41.62.46 1.45.34.33.68.43.68.43s-.6-.11-1.37-.03c-.36-.1-.62-.56-1.1-.75-.16-.06-.29-.06-.4-.01.05.02.11.05.14.09.04.04.06.09.06.14 0 .1-.09.18-.19.18-.07 0-.12-.05-.17-.1-.01-.01-.03-.03-.04-.04-.03.13.01.29.18.45-.22-.01-.44.11-.49.36.07-.03.14-.05.2-.04.05 0 .1.02.14.07.07.08.05.2-.02.26-.05.04-.12.04-.2.04-.04 0-.07 0-.1.01 0 .01.01.02.01.03.15.45.84.12.84.12s-.35.26-.16.57c.02-.05.04-.09.08-.12.03-.04.08-.06.14-.07.1 0 .19.08.19.19 0 .07-.04.12-.09.18-.02.02-.03.04-.04.06.48.19.87-.55.87-.57-.02.53.4.65.4.65s-.06-.23.16-.38c.24-.16.61-.12.65-.12-.07.27.03.39.18.44.04-.56 1.09-.58 1.09-.58.06.22.3.3.3.3s-.01-.31.21-.48c.23-.18.61-.19 1.01-.41.45-.27.35-.78-.32-.87zm-4.43 1.78c0-.1-.08-.19-.19-.19-.06 0-.11.03-.14.07-.03.03-.06.08-.08.12s-.03.08-.04.12c-.06.32.15.48.25.56 0 0-.09-.22.05-.45.01-.02.03-.04.04-.06.07-.05.11-.1.11-.17zm-.8-.76c.08-.07.09-.18.02-.26-.04-.04-.09-.07-.14-.07-.06-.01-.14.01-.2.04-.02.01-.04.02-.06.03-.29.16-.28.42-.27.55 0 0 .1-.2.35-.24.03-.01.07-.01.1-.01.08 0 .15 0 .2-.04zm.21-.97c.1 0 .19-.08.19-.18 0-.06-.02-.11-.06-.14-.04-.04-.09-.07-.14-.09-.03-.01-.07-.03-.1-.03-.32-.07-.48.13-.57.23 0 0 .23-.09.46.08.01.01.03.02.04.04.06.05.11.09.18.09zm-3.78-4.02c.09-.74-.42-.68-.42-.68s.2-.14.27-.41c.12-.46-.15-1.06-.15-1.06s-.28.5-.61.15c0 0 .19-.2.15-.64-.03.13-1.06.91-1.35-.49-.58.13-.53.69-.89.65-.19-.02-.38-.18-.24-.54 0 0-.53.03-.6.58-.09.68-.43-.23-.87-.2-.01 0-.33.36-.32 1.11-.4.02-.59.33-.62.84-.11 1.44-.49.96-.49.99.13.88.62.41.62.41-.09.62-.64.28-.64.28.16.94.56.63.56.63-.18.79.12.99.23 1.14.14.19.2.27.15.61-.05.3-.03.41-.03.41s.24-.24.41-.06c.26.28.42 1.12 1.02 1.01 0 0-.07-.37.06-.37.12 0 .16.32.16.32.16.02.62.09.87-.24.15-.19.19-.47.35-.46.12.01.13.24.13.24.11-.06.13-.13.18-.39.06-.33.22.02.22.02.04-.23.17-.45.39-.6.28-.18.2-.68.37-.8.18-.13.22.4.22.4s.62-.48.4-1.3c-.1-.37-.2-.68-.08-.71.11-.03.09.33.33.47.17.1.44-.04.44-.04-.31-.32-.26-.91-.22-1.27zm-4.33-.54v-.03-.03l.03.01.39.17c-.03.02-.05.05-.07.08-.06.12-.01.26.1.32.12.06.26.01.32-.1.02-.05.03-.1.02-.15s.27.1.24.42c-.02.25-.18.54-.18.54s-.13-.06-.06-.28c.08-.27.04-.27.04-.27s-.27.06-.48-.05l-.02-.01c-.32-.17-.33-.57-.33-.62zm1.68 2.76c-.29.25-.24.62-.3.87-.08.31-.36.46-.67.4-.27-.04-.52-.21-.54-.49-.02-.33.51-.76.17-1.16-.28-.33-.26-.49-.26-.49s.07.1.26.2c.07.03.61.29.72-.13.03-.11-.05-.17-.12-.22-.04-.03-.1-.06-.13-.09-.08-.1-.02-.21-.02-.21s.15.2.42.24.51-.08.51-.08.06.19-.16.22c-.12.01-.29.02-.32.17-.07.49.64.39.85.35.17-.03.25-.05.25-.05-.15.21-.4.25-.66.47zm1.3-2.22-.01.03c-.02.04-.18.41-.55.45h-.02c-.23.02-.46-.14-.46-.14s-.04-.01-.07.27c-.02.22-.16.23-.16.23s-.03-.33.04-.57c.1-.3.38-.3.38-.3-.03.04-.04.09-.04.15.01.13.13.23.25.22.13-.01.23-.13.22-.26 0-.04-.02-.07-.03-.1h.43.03zm-2.33 3.32c.61.16.62-.47.63-.59.04-.64.48-.7.56-.77-.21.04-.62.03-.76-.22-.14.08-.38.12-.66 0 .08.09.14.21.16.26.06.16.01.35-.06.5-.07.14-.42.67.13.82zm16.03-10.76c-4.9-.16-6.13-1.56-6.13-1.56s-.56.93 1.68 1.92c0 0-.76-.12-1.18-.14-.5-.02-1.03.07-1.03.07s-.57-.52-.96-.66c-.13-.05-.34-.11-.53 0 .06.02.12.05.15.09.04.04.07.09.07.15 0 .11-.09.21-.21.21-.08 0-.13-.05-.19-.1-.02-.02-.04-.03-.06-.05-.1.27.08.45.2.53-.57.12-.74.27-.74.56.06-.03.13-.05.18-.05.06 0 .12.02.16.06.08.08.08.21 0 .29-.05.05-.13.06-.21.06-.02 0-.03 0-.05.01.12.21.37.31.73.19.17-.06.21-.08.21-.08s-.31.35-.18.69c.03-.05.07-.09.11-.12.04-.04.1-.05.16-.04.11.02.19.13.16.24-.01.07-.07.12-.14.17-.02.01-.03.03-.04.04.04.02.09.03.14.05.32.09.57-.17.79-.44.43-.52.85-.36.85-.36-.29.29-.02.63-.02.63s.24-.55.63-.4c-.08.34.26.53.26.53s.2-.54.46-.54c.35 0 .17.53.17.53s.19-.02.48-.32c.2-.2.36-.41.76-.38-.01.06.05.44.4.61-.01-1.3 1.82-1.47 2.12-1.53.89-.18.8-.86.8-.86zm-8.13.08c.11 0 .21-.09.21-.21 0-.06-.03-.12-.07-.15-.04-.04-.1-.07-.15-.09-.04-.01-.08-.03-.11-.03-.35-.06-.53.16-.62.28 0 0 .24-.1.5.06.02.01.04.03.06.05.05.05.11.09.18.09zm-.46 1.24c.08-.08.08-.21 0-.29-.04-.04-.1-.06-.16-.06s-.12.02-.18.05c-.03.02-.07.03-.1.05-.3.2-.27.48-.25.63 0 0 .11-.26.43-.31.02 0 .03 0 .05-.01.08 0 .16-.01.21-.06zm.94.95c.02-.11-.05-.22-.16-.24-.06-.01-.12.01-.16.04s-.08.07-.11.12c-.03.04-.05.08-.06.12-.13.34.06.55.16.66 0 0-.06-.27.16-.49l.04-.04c.06-.05.12-.1.13-.17zm-9.38-3.95c.68.23.75-.48.77-.62.1-.73.61-.75.71-.82-.24.03-.71-.03-.84-.31-.17.07-.44.1-.75-.06.08.11.14.25.16.31.05.19-.03.4-.11.56-.1.16-.56.73.06.94zm4.54-4.4c.21-.5-.04-1.41-.04-1.41s-.41.65-.76.3c-.32-.32.02-.84.02-.84-.39-.13-.72.41-1.21.14-.34-.19.06-.8.06-.8s-.44-.01-.8.16c-.34.17-.5.31-.73.3-.33-.01-.21-.55-.21-.55s-.39-.01-.62.39-.48.5-.48.5c-.11-.17-.34-.17-.52-.22-.2-.06-.33-.15-.33-.15s-.37.7-.2 1.28c-.27.07-.35.38-.39.53-.32 1.15-.79.64-.79.67.09 1.02.68.99.63 1.22-.07.32-.62-.12-.62-.12.01.72.34.76.47 1.19.11.37-.12.62.07 1.19.19.59.05.8.05.8.4.01.66-.28.66-.28-.08.75.28 1.11.28 1.11s.22-.46.32-.15c.25.82.66 1.11.66 1.11s.37-.02 1.02-.71c.46-.48.25.14.25.14s.32.03.98-1.19c.21-.39.57-.62.7.02.76-.82.49-1.7.49-2.02 0-.28.13-.31.15-.18.08.75.87.5.87.5s-.32-.33.01-1.48c.16-.58-.16-1.14-.16-1.14s.13-.22.17-.31zm-4.93-.04v-.04-.03l.03.02.43.22c-.03.02-.07.05-.09.09-.08.13-.04.29.09.37s.29.04.37-.09c.03-.05.04-.11.04-.17s.29.14.24.5c-.05.28-.25.6-.25.6s-.14-.08-.04-.32c.11-.3.07-.31.07-.31s-.31.04-.54-.1l-.02-.02c-.36-.21-.33-.67-.33-.72zm1.66 3.29c-.35.25-.33.68-.42.97-.11.35-.45.49-.8.39-.3-.08-.58-.28-.57-.61 0-.37.65-.81.3-1.3-.29-.4-.26-.58-.26-.58s.08.13.28.25c.07.04.67.39.83-.08.04-.12-.04-.2-.12-.26-.04-.04-.1-.07-.14-.12-.09-.12 0-.24 0-.24s.15.24.45.31c.31.08.58-.04.58-.04s.05.22-.2.24c-.14.01-.34 0-.37.16-.12.55.69.5.94.48.2-.02.29-.04.29-.04-.18.22-.48.24-.79.47zm1.68-2.4-.02.03c-.02.05-.24.45-.66.46h-.03c-.27 0-.51-.2-.51-.2s-.04-.02-.1.3c-.04.25-.21.25-.21.25s-.01-.38.1-.65c.14-.34.46-.3.46-.3-.03.05-.06.1-.06.16 0 .15.12.27.27.27s.27-.12.27-.27c0-.04-.01-.08-.03-.12l.49.04h.03zm19.88 4.7s.04-.7-.46-.88c-.66-.24-1.52.07-3.22-.09-4.13-.39-3.62-1.88-3.62-1.88s2.6 1.16 3.7.62c.61-.3.57-.82.57-.82.17.2-.01.59-.01.59s1.07-.78-.2-2.01c-.46-.44-1.3-.77-1.93-.85-1.82-.24-2.51-.14-3.79-.32-1.07-.15-1.32-.53-1.26-.83.16-.89 2.16.37 3.26-.11.3-.13.54-.34.79-.4.26-.06.53.02.53.02s-.26-.47-1.11-.29c-.7.15-.75-.09-.75-.09s.33.03.75-.22c.27-.16.35-.51.64-.63.37-.16.73-.01.73-.01s-.47-.81-1.39-.34c-.62.41-.85.11-.85.11s.48 0 .75-.54c.23-.46.53-.54.53-.54s-.47-.22-.87.17c-.26.25-.63.32-1.27.31-.81-.01-1.14.96-1.14.96s-.32.02-.6.16c-.24.12-.53.4-.53.4l.1-.32s-.6.3-.62 1.23c-.03 1.57 1.67 1.7 2.23 1.74.83.06 2.4.11 3.61.27 1.63.23 1.68.98 1.46 1.33-.24.39-.91.19-2.05-.21s-2.1-1.06-4.39-.99c-3.63.11-7.46 2.71-8.58 2.04.06.42-.04 1.29-1 2.06-.04-.65-.24-.56-.45-.17-.61 1.1-1.24 1.2-1.24 1.2s.12-.37-.29-.01-.89.42-.89.42-.58-.42-.71-1.07c-.02-.08-.12.21-.12.21-.48-.23-.6-1-.6-1s-.23.15-.76.06c0 0 .3-.33-.04-1.18-.67 0-3.29-.46-3.62-1.82-.12-.51-.27-.75-.59-.77.03.03.05.06.07.1.03.05.04.12.01.18-.04.11-.17.17-.28.13-.08-.03-.11-.1-.16-.18-.02-.01-.04-.03-.06-.05-.26.2-.18.63-.18.63-.3-.25-.9-.66-1.26-.41.07.03.13.06.17.1.05.04.08.11.08.18 0 .13-.11.24-.24.24-.09 0-.15-.05-.22-.12-.03-.03-.07-.05-.1-.07-.31.51.71 1.07.71 1.07-.39-.02-.94.28-.93.63.06-.03.12-.05.17-.05.06-.01.12.01.17.05.09.08.1.22.02.31-.05.06-.13.07-.22.08-.01 0-.03.01-.04.01.1.21.28.35.78.21 1.21-.34 2.03-.12 2.03-.12s-.04.4-.58.3c-.03 0 .22.31.71.31.65 0 .99-.26 1-.26 0 0 .03.15-.15.25-.39.2-.14.63-.14.63.21-.48.6-.29.6-.29-.07.09-.16.37.07.58 0 0 .03-.28.46-.39.3-.08.55.03.55.03s-.25.35.05.75c0 0 .13-.57.53-.41.17.07.15.25.1.33-.08.12-.26.15-.26.15.62.3.78-.19 1.26.25-.62.28-1.39.34-2.1.3-1.49-.13-1.8-.42-2.15-.75-.48-.46-.86-.51-1.09-.44.03.02.06.04.08.06.05.04.08.11.08.18 0 .13-.11.24-.24.24-.09 0-.15-.05-.22-.12-.02-.01-.04-.03-.05-.04-.13.23.11.43.19.53-.09-.02-.2-.03-.28-.05-.32-.07-.58.05-.66.28.09-.01.18-.01.25.02.06.02.12.06.15.13.06.12.01.26-.11.31-.08.04-.16.02-.25-.01-.03-.01-.06-.01-.09-.02.09.41.56.46.92.47-.17.1-.36.26-.32.5.05-.05.11-.09.17-.1.05-.02.12-.02.17.01.1.06.14.18.08.28-.04.07-.1.09-.19.12-.02.01-.04.02-.06.03.29.31 1-.09 1.2-.21.56-.32 1.05-.26 1.33-.13.53.26-.18.48-.18.48.17.14.46.08.63 0 .16-.07.31-.19.39-.08.04.07.02.19-.1.3-.09.08-.23.11-.23.11.65.24 1.26-.37 1.26-.37s.05.08-.01.24c-.1.26-.34.35-.34.35.71.22 1.08-.64 1.08-.64s.34.26-.08.64c.59.02.66-.47.95-.28.17.11.08.35-.17.4.68.23.62-.38 1.41-.24 1.15.2 2.47.37 4.49-.42 3.1-1.19 3.42-3.93 6.82-4.31 0 0 .29.6 2.61 1.23 2.47.67 6.25.15 6.08 1.33-.09.6-1.77-.26-1.99.33 0 .01-.01.02-.01.03.06-.01.13-.02.19 0 .06.01.11.04.14.09.06.1.03.22-.07.28-.06.04-.13.03-.22.01-.01 0-.02 0-.03 0 .07.13.2.2.34.22-.2.11-.32.19-.34.46v.07c.04-.03.08-.05.12-.07.05-.02.11-.02.17.01.1.05.14.18.09.28-.03.07-.1.09-.18.12-.01 0-.02.01-.02.01.13.12.3.17.47.12.18-.06.26-.12.3-.16-.06.1-.17.32-.11.5.02.07.05.12.09.16.01-.07.04-.14.08-.19.03-.05.08-.08.14-.09.11-.02.22.06.23.18.01.07-.03.14-.08.21-.01.01-.01.02-.02.03.43.01.82-.56.89-1.07.1-.64.3-.55.3-.55s0 .13.12.24c.11.12.26.12.26.12-.02-.44.3-.57.44-.45s.03.39.03.39.22.08.48-.37c.15-.24.13-.54.31-.56.23-.01.14.29.14.29.55-.3.21-1.17.42-1.26.17-.04.1.27.1.27s.34-.19.24-.56c-.13-.54.14-.08.14-.08zm-31.32-1.76c.08-.09.07-.23-.02-.31-.05-.04-.11-.06-.17-.05-.06 0-.12.03-.17.05-.04.02-.08.05-.12.07-.3.24-.25.53-.22.69 0 0 .1-.29.44-.37.01 0 .03-.01.04-.01.09 0 .17-.01.22-.07zm.18-1.82c.13 0 .24-.11.24-.24 0-.07-.03-.13-.08-.18-.04-.04-.11-.08-.17-.1-.05-.01-.1-.03-.14-.04-.41-.07-.61.18-.71.32 0 0 .26-.11.54.05.03.02.07.04.1.07.07.07.13.12.22.12zm1.63-.48c.11.04.24-.01.28-.13.02-.06.02-.13-.01-.18-.02-.03-.04-.07-.07-.1-.05-.05-.1-.1-.16-.13-.33-.2-.59-.04-.73.04 0 0 .28-.01.47.24.02.02.03.05.05.07.05.09.09.16.17.19zm-.54 6.49c.06-.1.02-.23-.08-.28-.06-.03-.12-.03-.17-.01-.06.02-.12.06-.17.1-.03.02-.05.05-.07.08-.23.28-.12.54-.06.69 0 0 .03-.28.31-.42l.06-.03c.07-.04.14-.06.18-.13zm.05-2.19c.13 0 .24-.11.24-.24 0-.07-.03-.13-.08-.18-.02-.02-.05-.04-.08-.06-.07-.04-.15-.07-.23-.09-.41-.07-.61.18-.71.32 0 0 .29-.12.59.08.02.01.04.03.05.04.07.08.14.13.22.13zm-.74 1.06c.12-.06.17-.2.11-.31-.03-.06-.09-.11-.15-.13-.07-.03-.17-.03-.25-.02-.03 0-.06.01-.09.02-.4.11-.47.42-.51.59 0 0 .2-.23.55-.18.03 0 .06.01.09.02.09.02.17.05.25.01zm25.86.43c.1-.06.13-.19.07-.28-.03-.05-.08-.08-.14-.09s-.12-.01-.19 0c-.04.01-.07.02-.11.03-.33.13-.37.41-.38.56 0 0 .17-.24.51-.21h.03c.07.01.14.02.21-.01zm.14.98c.05-.1.01-.22-.09-.28-.05-.03-.12-.03-.17-.01-.04.01-.08.04-.12.07s-.08.07-.12.11c-.22.28-.11.54-.05.68 0 0 .02-.3.33-.44.01 0 .02-.01.02-.01.09-.02.16-.05.2-.12zm.99.65c-.02-.11-.12-.19-.23-.18-.06.01-.11.04-.14.09-.04.05-.06.12-.08.19-.01.03-.01.06-.01.1-.02.36.23.5.36.58 0 0-.15-.25.01-.54.01-.01.01-.02.02-.03.04-.08.08-.14.07-.21zm-27.53-19.56c.13.03.25-.05.29-.17.02-.07 0-.14-.04-.19-.01-.02-.03-.04-.05-.07-.06-.06-.14-.11-.22-.15-.38-.17-.63.03-.77.14 0 0 .35-.06.6.27 0 0 .01.01.01.01.05.08.1.14.18.16zm25.2 4.61c-4.27-.13-5.68-1.68-5.68-1.68s-.72 1.1 1.05 1.82c0 0-.33-.09-.75-.13-.5-.04-.72-.04-.72-.04s-.37-.57-1.04-.69c-.18-.03-.36-.04-.51-.02l.03.03c.04.04.06.1.06.16-.01.11-.11.2-.22.19-.08-.01-.13-.06-.19-.12-.03-.03-.05-.05-.08-.07-.01.01-.02.01-.02.02-.11.13-.16.31-.06.52-.61.08-.81.27-.86.52.09-.03.21-.04.3-.02.06.01.11.05.14.1.05.1.02.22-.08.28-.07.04-.14.02-.22 0-.05-.01-.09-.01-.13-.01.06.32.44.55 1.06.3.15-.06-.37.18-.17.72.01-.04.03-.07.05-.1.03-.05.08-.09.14-.1.11-.02.22.05.24.17.01.07-.02.14-.07.21-.03.05-.05.1-.06.15.52.23 1.07-.4 1.13-.69 0 0 .05.38.28.54 0 0 .03-.16.15-.29.23-.25.21.05.21.05 0 .45.28.52.28.52s-.04-.52.36-.6c.16.55.77-.29.71-.04-.14.56.11.73.11.73s.05-.68 1.4-.75c-.01.06.04.44.38.62.1-1.3 1.93-1.31 2.24-1.36.85-.14.54-.94.54-.94zm-7.79-.36c.11.01.21-.08.22-.19 0-.06-.02-.12-.06-.16-.01-.01-.02-.02-.03-.03-.06-.06-.15-.1-.23-.12-.35-.09-.54.11-.64.23 0 0 .24-.08.47.08.03.02.05.04.08.07.07.06.12.11.19.12zm-1.07 1.24c.08.02.15.03.22 0 .1-.05.14-.18.08-.28-.03-.05-.08-.09-.14-.1-.09-.02-.2-.01-.3.02-.34.11-.38.39-.41.54 0 0 .14-.18.41-.19.05 0 .09 0 .14.01zm1.18.97c-.02-.11-.13-.19-.24-.17-.06.01-.11.05-.14.1-.02.03-.03.06-.05.1-.02.06-.03.13-.03.19 0 .36.25.49.38.56 0 0-.12-.18-.06-.42.01-.05.03-.1.06-.15.06-.07.09-.13.08-.21zm-4.85-7.19c.15-.7-.4-.71-.4-.71s.24-.16.33-.45c.15-.52-.13-1.22-.13-1.22s-.18.52-.76.27c0 0 .28-.34.06-.95-.04.15-.16.29-.33.39-.29.17-.63.13-.75-.08-.11-.19-.02-.45.2-.62-.08-.02-.44-.11-.77-.02-.35.1-.88.46-.88.46s-.36-.28-.18-.7c0 0-.55-.06-.73.58-.08.28-.31.3-.31.3s-.04-.44-.44-.57c-.01 0-.74.52-.73 1.51-.27.08-.38.39-.41.55-.34 2.01-.85 1.06-.85 1.09.11 1.02.8.87.8.87-.12.7-.85.33-.85.33.27 1.03.89.6.89.6-.44.75-.11 1.33.13 1.92.25.54.24.99.24.99s.29-.16.45-.15c.22 0 .15.24.16.55.01.43.18.56.18.56s.02-.08.1-.19c.11-.17.18-.15.18-.15s-.06.54.29.81c0 0 .49-.72.77-.67.18.03.29.47.29.47 1.43-.91 1.62-2.88 1.89-2.18.07.17.08.34.08.34s.87-.52.78-2.45c0 0 .16.16.42.23.27.08.42-.01.42-.01s-.39-.53-.14-1.7zm-4.82-.8v-.04-.03l.03.02.44.22c-.03.02-.06.05-.09.09-.08.13-.04.3.09.37.13.08.29.03.37-.09.03-.05.04-.11.03-.17s.3.13.24.5c-.04.28-.24.61-.24.61s-.14-.08-.05-.32c.11-.3.06-.31.06-.31s-.31.05-.54-.09l-.02-.02c-.34-.23-.32-.68-.32-.74zm1.71 3.27c-.35.26-.31.69-.4.97-.11.35-.44.5-.79.41-.3-.07-.58-.27-.58-.6 0-.37.64-.82.28-1.31-.29-.4-.27-.58-.27-.58s.08.12.28.25c.07.04.68.37.83-.1.04-.12-.05-.2-.12-.26-.04-.03-.11-.07-.14-.11-.09-.12 0-.24 0-.24s.16.24.46.31c.31.07.58-.05.58-.05s.06.22-.19.24c-.14.01-.34 0-.37.17-.11.55.7.49.94.46.2-.02.29-.04.29-.04-.2.22-.49.24-.8.48zm1.64-2.43-.02.03c-.02.05-.24.45-.66.47h-.03c-.27 0-.51-.19-.51-.19s-.04-.02-.1.3c-.04.25-.2.25-.2.25s-.01-.38.09-.65c.14-.34.46-.31.46-.31-.03.05-.06.1-.06.16 0 .15.13.27.27.27.15 0 .27-.13.27-.28 0-.04-.01-.08-.03-.12l.49.03h.03zm-2.89 3.6c.68.22.74-.49.76-.63.09-.73.6-.76.69-.83-.24.03-.71-.01-.85-.3-.17.08-.44.11-.75-.05.09.1.14.25.16.31.05.19-.02.4-.1.56s-.53.74.09.94zm-8.37-1.05c.08-.09.07-.23-.02-.31-.05-.04-.11-.06-.17-.05-.08.01-.17.05-.25.1-.01.01-.03.02-.04.03-.3.24-.25.53-.22.69 0 0 .09-.26.39-.35.03-.01.06-.02.09-.02.09-.02.16-.03.22-.09zm1.79-2.41c.11.06.24.03.3-.08.03-.06.04-.12.02-.18 0-.02-.01-.03-.02-.05-.03-.08-.1-.16-.16-.21-.29-.25-.57-.14-.72-.08 0 0 .31.04.45.36.01.01.01.03.02.04.02.09.04.16.11.2zm-.5 4.31c.11.06.24.03.3-.08.03-.06.04-.12.02-.18-.01-.05-.04-.1-.08-.15-.03-.04-.07-.08-.11-.11-.29-.25-.57-.14-.72-.08 0 0 .33.04.46.4 0 .01.01.03.01.04.04.07.06.12.12.16zm-.95 1.14c.12-.04.19-.18.14-.3-.02-.07-.08-.11-.14-.14-.08-.04-.19-.05-.29-.04-.02 0-.03 0-.05.01-.41.07-.51.38-.56.54 0 0 .21-.19.53-.14.04.01.08.02.12.03.09.04.17.07.25.04zm.95 1.01c-.06-.04-.13-.06-.19-.04-.08.01-.16.05-.23.1-.03.02-.05.04-.07.06-.31.28-.22.59-.18.76 0 0 .09-.35.49-.44h.01c.09-.02.17-.04.22-.1.07-.11.05-.26-.05-.34zm29.37-2.78c-.3-.14-.78-.08-1.35-.02-.45.05-.96.09-1.47.04-3.45-.35-3.73-1.62-3.59-1.53 0 0 .74.38 1.87.6 3.08.6 3.1-1.09 3.1-1.09s.1.07.13.26c.03.21-.11.51-.11.51s.38-.29.38-.72c0-.64-.42-.87-.42-.87s.09-.01.24.12.24.46.24.46.16-.53-.43-1.03c-1.65-1.38-5.22-1.11-6.6-1.31-1.2-.17-1.52-.67-1.43-1.18.15-.84 1.27-.86 1.27-.86-.06.92 1.08 1.52 2.16 1.28.6-.13.97-.34 1.39-.69.32-.26.58-.38.58-.38-.56-.11-.91.11-1.14.21-.24.1-.49.18-.75.2-.67.06-.74-.39-.74-.39s.5.24 1.15.09c1.87-.44 1.26-2.19 1.26-2.19s-.16.66-.75.91c-.55.23-1.01-.13-1.01-.13s.9.09 1.1-.62c.11-.4-.27-.61-.27-.61s.08.9-2.08.77c-.95-.06-.94.75-.94.75s-.15 0-.54.12c-.35.1-.59.27-.59.27.09-.26.48-.39.48-.39-.5 0-.92.39-.92.39 0-.1.07-.24.07-.24-.02.03-.56.48-.68 1.44-.06.48.08.98.4 1.35.52.61 1.51.69 2.11.74.89.07 2.36.15 3.66.33 1.76.24 1.86.83 1.63 1.21-.26.42-1.04.43-2.26 0s-3.67-1.32-5.43-1.31c-4.65.02-6.73 1.99-8.12 1.63.04 1.79-1.24 2.5-1.24 2.5-.19-.99-.06.8-1.95 1.73 0 0-.01-.44-.21-.48-.26-.05-.62.64-.62.64-.4-.27-.53-.69-.53-.69l-.1.2s-.31-.2-.38-.54.03-.6-.12-.61c-.17-.01-.55.24-.55.24s.06-.59-.21-1.2c-.15-.39-.37-.75-.4-1.18-1.5-.28-3.32-.88-3.36-1.46.01-.54.1-1.09-.5-1.26.01.02.02.04.02.05.02.06.02.12-.02.18-.06.11-.2.14-.3.08-.07-.04-.1-.11-.12-.2 0-.01-.01-.03-.02-.04-.35.2-.21.83-.21.83-.27-.28-.84-.79-1.19-.46.02.02.04.04.05.07.04.05.05.12.04.19-.03.13-.16.2-.29.17-.08-.02-.13-.08-.18-.16-.36.52.39 1.13.39 1.13-.11.06-.71.18-.71.61.08-.05.17-.09.25-.1.06-.01.12.01.17.05.09.08.1.22.02.31-.05.06-.13.07-.22.08-.03.01-.06.01-.09.02.21.3.54.3.75.21.96-.41 1.21-.18 1.63-.09.3.07.56-.01.57.17 0 .14-.14.25-.58.2 0 0 .11.28.6.34.74.08.96-.1 1.06.03.18.24-.53.33-.53.33.58.44 1.34.1 1.34.1.04.26-.51.31-.51.31s.22.24.65.14c.16-.04.3-.11.3-.11s-.13.43.25.64c0 0 .21-.73.51-.54.15.09.17.25.1.33-.09.12-.24.11-.24.11.09.22.47.22.47.22s-.47.29-1.78.27c-1.73-.14-1.63-.34-2.06-.85-.34-.45-.53-.47-.69-.41.03.05.06.1.08.15.02.06.02.12-.02.18-.06.11-.2.14-.3.08-.06-.03-.09-.09-.11-.16-.21.21-.17.41-.07.58-.09-.01-.91-.13-1.05.25.1-.01.21 0 .29.04.06.02.11.07.14.14.04.12-.02.26-.14.3-.08.03-.16 0-.25-.04-.04-.02-.08-.03-.12-.03 0 .02-.01.04-.01.04-.01.56.81.58 1.21.59-.18.1-.36.26-.32.5.07-.05.15-.09.23-.1.06-.01.13 0 .19.04.1.08.12.23.04.33-.05.07-.13.08-.22.1.54.36.93-.14 1.13-.25.56-.32 1.43-.29 1.65-.05.16.17-.2.38-.2.38.4.05.69-.19.69-.19s-.08.09-.11.28c-.04.27.14.41.14.41.33-.64.58-.6.71-.48.15.14-.16.36-.16.36.38.19.88-.2.88-.2s-.04.33.15.51c.25-.46.81-.42 1.17-.37 0 0-.52.36-.32.81.33-.32.73-.44 1.29-.37 1.16.14 3.35.8 7.1-2.7 2.54-2.36 4.23-2.06 4.23-2.06 2.26 1.84 6.59 1.87 7.7 1.95.54.04.55.37.31.66-.15.18-.34.22-.35.22 0 0-1.07-.44-1.46.15.07-.01.14-.02.21 0 .05.01.1.04.13.1.05.1.02.22-.08.27-.06.04-.13.02-.21 0-.03-.01-.06-.01-.09-.01.05.2.2.25.3.28.05.01.04.02.03.03-.22.21-.22.44-.21.52.05-.04.11-.06.16-.08.05-.01.11-.01.16.03.09.06.12.19.05.28-.04.06-.11.08-.19.1-.02.01-.04.01-.06.02.11.18.32.29.63.17.24-.09.3-.14.32-.16-.03.05-.11.23-.02.36.01.02.02.03.04.05.02-.09.07-.18.13-.23.04-.04.09-.07.15-.06.11 0 .2.1.19.21 0 .07-.05.12-.11.18-.02.02-.03.04-.05.06.11.02.22.01.27 0 .33-.07.59-.35.66-1.05.03-.24.08-.37.14-.43.11-.13.37-.22.37-.22s.11.28-.08.49c.66.11.75-.93.75-.93s.07.2.22.34c.15.13.35.16.35.16-.12-.74.17-.99.31-1.03.28-.07.27.27.27.27s.24-.16.19-.49c-.03-.19-.13-.37-.13-.37s.23-.11.36.2c0 0 .25-.4.02-.62 0 0 .05-.04.12-.01.07.02.11.09.11.09s.14-.53-.39-.79zm-4.73 2.66c.1-.05.13-.18.08-.27-.03-.05-.08-.09-.13-.1-.06-.02-.14-.01-.21 0-.03.01-.06.01-.08.02-.33.11-.37.38-.39.53 0 0 .15-.2.44-.19.03 0 .06 0 .09.01.07.02.14.03.2 0zm.2 1.05c.06-.09.04-.22-.05-.28-.05-.03-.11-.04-.16-.03s-.11.04-.16.08c-.03.02-.06.05-.09.07-.24.25-.16.51-.11.65 0 0 .05-.26.33-.38.02-.01.04-.01.06-.02.07-.01.13-.03.18-.09zm1.18.45c0-.11-.08-.2-.19-.21-.06 0-.11.02-.15.06-.06.06-.1.15-.13.23 0 .01-.01.02-.01.03-.08.34.13.52.24.61 0 0-.09-.24.08-.48.01-.02.03-.04.05-.06.06-.06.11-.11.11-.18zm-31.22-15.42v24.79c0 5.06 1.58 9.44 4.7 13 3.27 3.73 8.18 6.5 14.59 8.23 6.42-1.73 11.33-4.5 14.6-8.23 3.12-3.56 4.7-7.94 4.7-13v-24.79zm37.62 24.78c0 9.89-6.38 16.88-18.33 20.2-11.94-3.31-18.27-10.3-18.27-20.2v-23.8h36.61v23.8zm-18.68-31.03c-.52 0-.88.35-.92.86h1.85c-.07-.49-.38-.86-.93-.86zm9.63-1.05-.76 2.14h1.54l-.74-2.14zm-28.57 5.79h38.59v-8.47h-38.59zm11.21-5.93h-1.35v4.52h-1.33v-4.52h-1.49v-1.15h4.63zm5.03 4.51h-1.23v-2.19c0-.25-.02-.42-.09-.57-.09-.2-.26-.35-.58-.35-.4 0-.8.29-1.01.47v2.64h-1.23v-5.66h1.23v1.95c.37-.29.78-.5 1.37-.5.71 0 1.21.33 1.42.9.08.21.12.45.12.88zm4.74-1.66h-2.97c.07.54.45.88 1.21.88.62 0 1.16-.14 1.47-.26l-.33.95c-.29.12-.69.22-1.29.22-1.37 0-2.18-.84-2.18-2.17 0-1.3.8-2.16 2.08-2.16 1.37-.01 2.16 1.08 2.01 2.54zm2.68-.41v2.07h-1.32v-5.66h4.39l-.43 1.15h-2.64v1.26h2.17l-.45 1.19h-1.72zm6.47 2.07-.37-1.12h-2.33l-.4 1.12h-1.33l2.15-5.66h1.54l2.11 5.66z" fill="currentColor"></path>
</svg>