<svg xmlns="http://www.w3.org/2000/svg" width="39" height="56" viewBox="0 0 39 56">
<path fill="#25222C" d="M18.73,41c0.02-0.07,0.03-0.14-0.01-0.18c-0.02-0.03-0.06-0.03-0.11,0c-0.08,0.04-0.17,0.16-0.24,0.34
c-0.01,0.03-0.02,0.05-0.03,0.08c-0.08,0.23-0.07,0.41-0.07,0.41s0.18-0.17,0.28-0.32c0.02-0.02,0.03-0.05,0.04-0.07
C18.64,41.18,18.7,41.09,18.73,41z M17.76,39.86c-0.12,0.09-0.44,0.38-0.26,0.83c0.22,0.53,0.72,0.55,0.84,0.55
c0.01-0.03,0.02-0.05,0.03-0.08c0.06-0.17,0.16-0.29,0.24-0.34c-0.02-0.16-0.06-0.36-0.11-0.48c-0.06-0.16-0.21-0.36-0.29-0.48
C18.14,39.9,17.99,39.92,17.76,39.86z M19.26,39.13c-0.05-0.07-0.09-0.24-0.11-0.49c0-0.02,0-0.03,0-0.05
c-0.14-0.11-0.62-0.44-1.07-0.07c-0.47,0.38-0.3,0.88-0.22,1.05c0.09,0.01,0.3,0.06,0.39,0.12c0.11-0.08,0.29-0.22,0.45-0.33
C18.88,39.27,19.11,39.18,19.26,39.13z M17.82,39.58c-0.3-0.05-0.51,0.03-0.51,0.03s0.07,0.14,0.44,0.25c0,0,0,0,0.01,0
c0.24,0.07,0.38,0.05,0.46,0.01c0.05-0.03,0.08-0.07,0.07-0.1c0-0.02-0.02-0.04-0.04-0.05c-0.09-0.07-0.3-0.11-0.39-0.12
C17.84,39.58,17.82,39.58,17.82,39.58z M19.4,38.48c0.01,0.03,0.01,0.07,0.02,0.11C19.41,38.55,19.4,38.52,19.4,38.48z M20.07,40.7
c-0.17,0-0.44,0-0.65,0.04c-0.24,0.05-0.54,0.18-0.69,0.25c-0.03,0.09-0.08,0.19-0.13,0.26c-0.01,0.02-0.03,0.04-0.04,0.07
c0.08,0.1,0.41,0.46,0.96,0.39c0.64-0.08,0.79-0.52,0.82-0.63c-0.01-0.01-0.03-0.03-0.04-0.05C20.2,40.92,20.11,40.8,20.07,40.7z
M20.81,39.51c-0.06,0.03-0.12,0.06-0.17,0.08c-0.17,0.06-0.31,0.12-0.4,0.13c-0.04,0.1-0.07,0.24-0.08,0.4
c-0.01,0.16,0.02,0.33,0.04,0.44c0.07,0.06,0.17,0.16,0.27,0.29c0.01,0.01,0.02,0.03,0.03,0.04c0.03,0.04,0.05,0.07,0.06,0.1
c0.19,0.01,0.6-0.04,0.69-0.64C21.37,39.69,20.91,39.53,20.81,39.51z M20.74,39.35c0.02-0.08,0.14-0.72-0.44-1.02
c-0.41-0.21-0.74,0.01-0.91,0.16c0.01,0.03,0.01,0.07,0.02,0.11c0.02,0.2,0.02,0.39-0.02,0.5c0.05,0.04,0.22,0.17,0.41,0.26
c0.17,0.08,0.39,0.14,0.44,0.16c0.08-0.04,0.19-0.08,0.31-0.12C20.62,39.37,20.68,39.36,20.74,39.35z M19.41,38.59
c0-0.04-0.01-0.08-0.02-0.11c-0.05-0.22-0.15-0.25-0.15-0.25s-0.1,0.06-0.09,0.37c0,0.02,0,0.03,0,0.05
c0.02,0.24,0.05,0.41,0.11,0.49c0.02,0.03,0.05,0.04,0.07,0.04c0.03,0,0.05-0.04,0.06-0.08c0,0,0,0,0,0
C19.43,38.98,19.44,38.8,19.41,38.59z M20.81,39.51c0.15-0.08,0.31-0.18,0.3-0.19c-0.01-0.01-0.18-0.01-0.37,0.03
c-0.06,0.01-0.12,0.03-0.17,0.04c-0.12,0.04-0.23,0.08-0.31,0.12c-0.08,0.04-0.13,0.09-0.11,0.15c0.01,0.04,0.05,0.06,0.11,0.05
c0.09-0.01,0.23-0.06,0.4-0.13C20.69,39.57,20.75,39.54,20.81,39.51z M20.48,40.85c-0.11-0.14-0.2-0.24-0.27-0.29
c-0.03-0.02-0.06-0.04-0.08-0.05c-0.03-0.01-0.06-0.01-0.08,0.01c-0.02,0.02-0.02,0.06-0.01,0.1c0.01,0.03,0.02,0.06,0.03,0.09
c0.05,0.1,0.13,0.22,0.23,0.34c0.02,0.02,0.03,0.03,0.04,0.05c0.01,0.01,0.02,0.02,0.03,0.03c0.15,0.14,0.29,0.14,0.29,0.14
s0-0.11-0.09-0.27c-0.02-0.03-0.04-0.07-0.06-0.1C20.5,40.88,20.49,40.86,20.48,40.85z M19.7,39.86c0.05,0.2-0.11,0.41-0.37,0.48
c-0.25,0.07-0.5-0.04-0.55-0.24c-0.05-0.2,0.11-0.41,0.37-0.48C19.4,39.55,19.65,39.66,19.7,39.86z M32.3,41
c0.02-0.07,0.03-0.14-0.01-0.18c-0.02-0.03-0.06-0.03-0.11,0c-0.08,0.04-0.17,0.16-0.24,0.34c-0.01,0.03-0.02,0.05-0.03,0.08
c-0.08,0.23-0.07,0.41-0.07,0.41s0.18-0.17,0.28-0.32c0.02-0.02,0.03-0.05,0.04-0.07C32.22,41.18,32.28,41.09,32.3,41z M31.33,39.86
c-0.12,0.09-0.44,0.38-0.26,0.83c0.22,0.53,0.72,0.55,0.84,0.55c0.01-0.03,0.02-0.05,0.03-0.08c0.06-0.17,0.16-0.29,0.24-0.34
c-0.02-0.16-0.06-0.36-0.11-0.48c-0.06-0.16-0.21-0.36-0.29-0.48C31.71,39.9,31.57,39.92,31.33,39.86z M32.84,39.13
c-0.05-0.07-0.09-0.24-0.11-0.49c0-0.02,0-0.03,0-0.05c-0.14-0.11-0.62-0.44-1.07-0.07c-0.47,0.38-0.3,0.88-0.22,1.05
c0.09,0.01,0.3,0.06,0.39,0.12c0.11-0.08,0.29-0.22,0.45-0.33C32.46,39.27,32.69,39.18,32.84,39.13z M31.39,39.58
c-0.3-0.05-0.51,0.03-0.51,0.03s0.07,0.14,0.44,0.25c0,0,0,0,0.01,0c0.24,0.07,0.38,0.05,0.46,0.01c0.05-0.03,0.08-0.07,0.07-0.1
c0-0.02-0.02-0.04-0.04-0.05c-0.09-0.07-0.3-0.11-0.39-0.12C31.41,39.58,31.4,39.58,31.39,39.58z M32.97,38.48
c0.01,0.03,0.01,0.07,0.02,0.11C32.99,38.55,32.98,38.52,32.97,38.48z M33.64,40.7c-0.17,0-0.44,0-0.65,0.04
c-0.24,0.05-0.54,0.18-0.69,0.25c-0.03,0.09-0.08,0.19-0.13,0.26c-0.01,0.02-0.03,0.04-0.04,0.07c0.08,0.1,0.41,0.46,0.96,0.39
c0.64-0.08,0.79-0.52,0.82-0.63c-0.01-0.01-0.03-0.03-0.04-0.05C33.77,40.92,33.69,40.8,33.64,40.7z M34.39,39.51
c-0.06,0.03-0.12,0.06-0.17,0.08c-0.17,0.06-0.31,0.12-0.4,0.13c-0.04,0.1-0.07,0.24-0.08,0.4c-0.01,0.16,0.02,0.33,0.04,0.44
c0.07,0.06,0.17,0.16,0.27,0.29c0.01,0.01,0.02,0.03,0.03,0.04c0.03,0.04,0.05,0.07,0.06,0.1c0.19,0.01,0.6-0.04,0.69-0.64
C34.94,39.69,34.48,39.53,34.39,39.51z M34.32,39.35c0.02-0.08,0.14-0.72-0.44-1.02c-0.41-0.21-0.74,0.01-0.91,0.16
c0.01,0.03,0.01,0.07,0.02,0.11c0.02,0.2,0.02,0.39-0.02,0.5c0.05,0.04,0.22,0.17,0.42,0.26c0.17,0.08,0.39,0.14,0.44,0.16
c0.08-0.04,0.19-0.08,0.31-0.12C34.2,39.37,34.26,39.36,34.32,39.35z M32.99,38.59c0-0.04-0.01-0.08-0.02-0.11
c-0.05-0.22-0.15-0.25-0.15-0.25s-0.1,0.06-0.09,0.37c0,0.02,0,0.03,0,0.05c0.02,0.24,0.05,0.41,0.11,0.49
c0.02,0.03,0.05,0.04,0.07,0.04c0.03,0,0.05-0.04,0.06-0.08c0,0,0,0,0,0C33.01,38.98,33.01,38.8,32.99,38.59z M34.39,39.51
c0.15-0.08,0.31-0.18,0.3-0.19c-0.01-0.01-0.18-0.01-0.37,0.03c-0.06,0.01-0.12,0.03-0.17,0.04c-0.12,0.04-0.23,0.08-0.31,0.12
c-0.08,0.04-0.13,0.09-0.11,0.15c0.01,0.04,0.05,0.06,0.11,0.05c0.09-0.01,0.24-0.06,0.4-0.13C34.27,39.57,34.33,39.54,34.39,39.51z
M34.05,40.85c-0.11-0.14-0.2-0.24-0.27-0.29c-0.03-0.02-0.06-0.04-0.08-0.05c-0.03-0.01-0.06-0.01-0.08,0.01
c-0.02,0.02-0.02,0.06-0.01,0.1c0.01,0.03,0.02,0.06,0.03,0.09c0.05,0.1,0.13,0.22,0.23,0.34c0.02,0.02,0.03,0.03,0.04,0.05
c0.01,0.01,0.02,0.02,0.03,0.03c0.15,0.14,0.29,0.14,0.29,0.14s0-0.11-0.09-0.27c-0.02-0.03-0.04-0.07-0.06-0.1
C34.07,40.88,34.07,40.86,34.05,40.85z M33.28,39.86c0.05,0.2-0.11,0.41-0.37,0.48c-0.25,0.07-0.5-0.04-0.55-0.24
c-0.05-0.2,0.11-0.41,0.37-0.48C32.98,39.55,33.23,39.66,33.28,39.86z M5.05,41c0.02-0.07,0.03-0.14-0.01-0.18
c-0.02-0.03-0.06-0.03-0.11,0c-0.08,0.04-0.17,0.16-0.24,0.34c-0.01,0.03-0.02,0.05-0.03,0.08c-0.08,0.23-0.07,0.41-0.07,0.41
s0.18-0.17,0.28-0.32c0.02-0.02,0.03-0.05,0.04-0.07C4.97,41.18,5.02,41.09,5.05,41z M4.08,39.86c-0.12,0.09-0.44,0.38-0.26,0.83
c0.22,0.53,0.72,0.55,0.84,0.55c0.01-0.03,0.02-0.05,0.03-0.08c0.06-0.17,0.16-0.29,0.24-0.34c-0.02-0.16-0.06-0.36-0.11-0.48
c-0.06-0.16-0.21-0.36-0.29-0.48C4.46,39.9,4.32,39.92,4.08,39.86z M5.58,39.13c-0.05-0.07-0.09-0.24-0.11-0.49
c0-0.02,0-0.03,0-0.05c-0.14-0.11-0.62-0.44-1.07-0.07c-0.47,0.38-0.3,0.88-0.22,1.05c0.09,0.01,0.3,0.06,0.39,0.12
c0.11-0.08,0.29-0.22,0.45-0.33C5.2,39.27,5.43,39.18,5.58,39.13z M4.14,39.58c-0.3-0.05-0.51,0.03-0.51,0.03s0.07,0.14,0.44,0.25
c0,0,0,0,0.01,0c0.24,0.07,0.38,0.05,0.46,0.01c0.05-0.03,0.08-0.07,0.07-0.1c0-0.02-0.02-0.04-0.04-0.05
c-0.09-0.07-0.3-0.11-0.39-0.12C4.16,39.58,4.14,39.58,4.14,39.58z M5.72,38.48c0.01,0.03,0.01,0.07,0.02,0.11
C5.73,38.55,5.73,38.52,5.72,38.48z M6.39,40.7c-0.17,0-0.44,0-0.65,0.04C5.5,40.8,5.2,40.93,5.05,41
c-0.03,0.09-0.08,0.19-0.13,0.26c-0.01,0.02-0.03,0.04-0.04,0.07c0.08,0.1,0.41,0.46,0.96,0.39c0.64-0.08,0.79-0.52,0.82-0.63
c-0.01-0.01-0.03-0.03-0.04-0.05C6.52,40.92,6.44,40.8,6.39,40.7z M7.14,39.51c-0.06,0.03-0.12,0.06-0.16,0.08
c-0.17,0.06-0.31,0.12-0.4,0.13c-0.04,0.1-0.07,0.24-0.08,0.4c-0.01,0.16,0.02,0.33,0.04,0.44c0.07,0.06,0.17,0.16,0.27,0.29
c0.01,0.01,0.02,0.03,0.03,0.04c0.03,0.04,0.05,0.07,0.06,0.1c0.19,0.01,0.6-0.04,0.69-0.64C7.69,39.69,7.23,39.53,7.14,39.51z
M7.06,39.35c0.02-0.08,0.14-0.72-0.44-1.02c-0.41-0.21-0.74,0.01-0.91,0.16c0.01,0.03,0.01,0.07,0.02,0.11
c0.02,0.2,0.02,0.39-0.02,0.5c0.05,0.04,0.22,0.17,0.42,0.26c0.17,0.08,0.39,0.14,0.44,0.16c0.08-0.04,0.19-0.08,0.31-0.12
C6.94,39.37,7,39.36,7.06,39.35z M5.74,38.59c0-0.04-0.01-0.08-0.02-0.11c-0.05-0.22-0.15-0.25-0.15-0.25s-0.1,0.06-0.09,0.37
c0,0.02,0,0.03,0,0.05c0.02,0.24,0.05,0.41,0.11,0.49c0.02,0.03,0.05,0.04,0.07,0.04c0.03,0,0.05-0.04,0.06-0.08c0,0,0,0,0,0
C5.75,38.98,5.76,38.8,5.74,38.59z M7.14,39.51c0.15-0.08,0.31-0.18,0.3-0.19c-0.01-0.01-0.19-0.01-0.37,0.03
C7,39.36,6.94,39.37,6.89,39.39c-0.12,0.04-0.23,0.08-0.31,0.12c-0.08,0.04-0.13,0.09-0.11,0.15c0.01,0.04,0.05,0.06,0.11,0.05
c0.09-0.01,0.23-0.06,0.4-0.13C7.01,39.57,7.07,39.54,7.14,39.51z M6.8,40.85c-0.11-0.14-0.2-0.24-0.27-0.29
c-0.03-0.02-0.06-0.04-0.08-0.05c-0.03-0.01-0.06-0.01-0.08,0.01c-0.02,0.02-0.02,0.06-0.01,0.1c0.01,0.03,0.02,0.06,0.03,0.09
c0.05,0.1,0.13,0.22,0.23,0.34c0.02,0.02,0.03,0.03,0.04,0.05c0.01,0.01,0.02,0.02,0.03,0.03c0.15,0.14,0.29,0.14,0.29,0.14
s0-0.11-0.09-0.27c-0.02-0.03-0.04-0.07-0.06-0.1C6.82,40.88,6.81,40.86,6.8,40.85z M6.02,39.86c0.05,0.2-0.11,0.41-0.37,0.48
C5.4,40.4,5.16,40.3,5.11,40.1c-0.05-0.2,0.11-0.41,0.37-0.48C5.72,39.55,5.97,39.66,6.02,39.86z M18.73,28.32
c0.02-0.07,0.03-0.14-0.01-0.18c-0.02-0.03-0.06-0.03-0.11,0c-0.08,0.04-0.17,0.16-0.24,0.34c-0.01,0.03-0.02,0.05-0.03,0.08
c-0.08,0.23-0.07,0.41-0.07,0.41s0.18-0.17,0.28-0.32c0.02-0.02,0.03-0.04,0.04-0.07C18.64,28.5,18.7,28.4,18.73,28.32z
M17.76,27.17c-0.12,0.09-0.44,0.38-0.26,0.83c0.22,0.53,0.72,0.55,0.84,0.55c0.01-0.03,0.02-0.05,0.03-0.08
c0.06-0.17,0.16-0.29,0.24-0.34c-0.02-0.16-0.06-0.36-0.11-0.48c-0.06-0.16-0.21-0.36-0.29-0.48
C18.14,27.22,17.99,27.24,17.76,27.17z M19.26,26.45c-0.05-0.07-0.09-0.24-0.11-0.49c0-0.02,0-0.03,0-0.05
c-0.14-0.11-0.62-0.44-1.07-0.07c-0.47,0.38-0.3,0.88-0.22,1.05c0.09,0.01,0.3,0.06,0.39,0.12c0.11-0.09,0.29-0.22,0.45-0.33
C18.88,26.59,19.11,26.5,19.26,26.45z M17.82,26.89c-0.3-0.05-0.51,0.03-0.51,0.03s0.07,0.14,0.44,0.25c0,0,0,0,0.01,0
c0.24,0.07,0.38,0.05,0.46,0.01c0.05-0.03,0.08-0.07,0.07-0.1c0-0.02-0.02-0.04-0.04-0.05c-0.09-0.07-0.3-0.11-0.39-0.12
C17.84,26.9,17.82,26.89,17.82,26.89z M19.4,25.8c0.01,0.03,0.01,0.07,0.02,0.11C19.41,25.87,19.4,25.83,19.4,25.8z M20.07,28.02
c-0.17-0.01-0.44,0-0.65,0.04c-0.24,0.05-0.54,0.18-0.69,0.25c-0.03,0.09-0.08,0.19-0.13,0.26c-0.01,0.02-0.03,0.04-0.04,0.07
c0.08,0.1,0.41,0.46,0.96,0.39c0.64-0.08,0.79-0.52,0.82-0.63c-0.01-0.02-0.03-0.03-0.04-0.05C20.2,28.24,20.11,28.12,20.07,28.02z
M20.81,26.83c-0.06,0.03-0.12,0.06-0.17,0.08c-0.17,0.06-0.31,0.12-0.4,0.12c-0.04,0.1-0.07,0.24-0.08,0.4
c-0.01,0.16,0.02,0.33,0.04,0.45c0.07,0.06,0.17,0.16,0.27,0.29c0.01,0.01,0.02,0.03,0.03,0.04c0.03,0.04,0.05,0.07,0.06,0.1
c0.19,0.01,0.6-0.05,0.69-0.64C21.37,27,20.91,26.85,20.81,26.83z M20.74,26.67c0.02-0.08,0.14-0.72-0.44-1.02
c-0.41-0.21-0.74,0.01-0.91,0.16c0.01,0.03,0.01,0.07,0.02,0.11c0.02,0.2,0.02,0.39-0.02,0.5c0.05,0.04,0.22,0.17,0.41,0.26
c0.17,0.08,0.39,0.14,0.44,0.16c0.08-0.04,0.19-0.08,0.31-0.12C20.62,26.69,20.68,26.68,20.74,26.67z M19.41,25.91
c0-0.04-0.01-0.08-0.02-0.11c-0.05-0.22-0.15-0.25-0.15-0.25s-0.1,0.06-0.09,0.37c0,0.02,0,0.03,0,0.05
c0.02,0.25,0.05,0.41,0.11,0.49c0.02,0.03,0.05,0.04,0.07,0.04c0.03,0,0.05-0.04,0.06-0.08c0,0,0,0,0-0.01
C19.43,26.3,19.44,26.11,19.41,25.91z M20.81,26.83c0.15-0.08,0.31-0.18,0.3-0.19c-0.01-0.01-0.18-0.01-0.37,0.03
c-0.06,0.01-0.12,0.03-0.17,0.04c-0.12,0.04-0.23,0.08-0.31,0.12c-0.08,0.04-0.13,0.09-0.11,0.15c0.01,0.04,0.05,0.06,0.11,0.05
c0.09-0.01,0.23-0.06,0.4-0.12C20.69,26.89,20.75,26.86,20.81,26.83z M20.48,28.17c-0.11-0.14-0.2-0.24-0.27-0.29
c-0.03-0.02-0.06-0.04-0.08-0.05c-0.03-0.01-0.06-0.01-0.08,0.01c-0.02,0.02-0.02,0.06-0.01,0.1c0.01,0.03,0.02,0.06,0.03,0.09
c0.05,0.1,0.13,0.22,0.23,0.34c0.02,0.02,0.03,0.03,0.04,0.05c0.01,0.01,0.02,0.02,0.03,0.03c0.15,0.14,0.29,0.14,0.29,0.14
s0-0.11-0.09-0.27c-0.02-0.03-0.04-0.07-0.06-0.1C20.5,28.19,20.49,28.18,20.48,28.17z M19.7,27.18c0.05,0.2-0.11,0.41-0.37,0.48
c-0.25,0.07-0.5-0.04-0.55-0.24c-0.05-0.2,0.11-0.41,0.37-0.48C19.4,26.87,19.65,26.98,19.7,27.18z M4.88,28.32
c0.02-0.07,0.03-0.14-0.01-0.18c-0.02-0.03-0.06-0.03-0.11,0c-0.08,0.04-0.17,0.16-0.24,0.34C4.51,28.5,4.5,28.53,4.5,28.55
c-0.08,0.23-0.07,0.41-0.07,0.41s0.18-0.17,0.28-0.32c0.02-0.02,0.03-0.04,0.04-0.07C4.8,28.5,4.85,28.4,4.88,28.32z M3.91,27.17
C3.78,27.26,3.46,27.55,3.65,28c0.22,0.53,0.72,0.55,0.84,0.55c0.01-0.03,0.02-0.05,0.03-0.08c0.06-0.17,0.16-0.29,0.24-0.34
c-0.02-0.16-0.06-0.36-0.11-0.48c-0.06-0.16-0.21-0.36-0.29-0.48C4.29,27.22,4.14,27.24,3.91,27.17z M5.41,26.45
c-0.05-0.07-0.09-0.24-0.11-0.49c0-0.02,0-0.03,0-0.05c-0.14-0.11-0.62-0.44-1.07-0.07c-0.47,0.38-0.3,0.88-0.22,1.05
c0.09,0.01,0.3,0.06,0.39,0.12c0.11-0.09,0.29-0.22,0.45-0.33C5.03,26.59,5.26,26.5,5.41,26.45z M3.97,26.89
c-0.3-0.05-0.51,0.03-0.51,0.03s0.07,0.14,0.44,0.25c0,0,0,0,0.01,0c0.24,0.07,0.38,0.05,0.46,0.01c0.05-0.03,0.08-0.07,0.07-0.1
c0-0.02-0.02-0.04-0.04-0.05c-0.09-0.07-0.3-0.11-0.39-0.12C3.99,26.9,3.97,26.89,3.97,26.89z M5.55,25.8
c0.01,0.03,0.01,0.07,0.02,0.11C5.56,25.87,5.55,25.83,5.55,25.8z M6.22,28.02c-0.17-0.01-0.44,0-0.65,0.04
c-0.24,0.05-0.54,0.18-0.69,0.25C4.85,28.4,4.8,28.5,4.75,28.58c-0.01,0.02-0.03,0.04-0.04,0.07c0.08,0.1,0.41,0.46,0.96,0.39
c0.64-0.08,0.79-0.52,0.82-0.63c-0.01-0.02-0.03-0.03-0.04-0.05C6.35,28.24,6.26,28.12,6.22,28.02z M6.96,26.83
C6.9,26.86,6.84,26.89,6.8,26.9c-0.17,0.06-0.31,0.12-0.4,0.12c-0.04,0.1-0.07,0.24-0.08,0.4c-0.01,0.16,0.02,0.33,0.04,0.45
c0.07,0.06,0.17,0.16,0.27,0.29c0.01,0.01,0.02,0.03,0.03,0.04c0.03,0.04,0.05,0.07,0.06,0.1c0.19,0.01,0.6-0.05,0.69-0.64
C7.52,27,7.06,26.85,6.96,26.83z M6.89,26.67c0.02-0.08,0.14-0.72-0.44-1.02c-0.41-0.21-0.74,0.01-0.91,0.16
c0.01,0.03,0.01,0.07,0.02,0.11c0.02,0.2,0.02,0.39-0.02,0.5c0.05,0.04,0.22,0.17,0.42,0.26c0.17,0.08,0.39,0.14,0.44,0.16
c0.08-0.04,0.19-0.08,0.31-0.12C6.77,26.69,6.83,26.68,6.89,26.67z M5.56,25.91c0-0.04-0.01-0.08-0.02-0.11
C5.5,25.58,5.4,25.55,5.4,25.55s-0.1,0.06-0.09,0.37c0,0.02,0,0.03,0,0.05c0.02,0.25,0.05,0.41,0.11,0.49
c0.02,0.03,0.05,0.04,0.07,0.04c0.03,0,0.05-0.04,0.06-0.08c0,0,0,0,0-0.01C5.58,26.3,5.59,26.11,5.56,25.91z M6.96,26.83
c0.15-0.08,0.31-0.18,0.3-0.19c-0.01-0.01-0.18-0.01-0.37,0.03c-0.06,0.01-0.12,0.03-0.17,0.04c-0.12,0.04-0.23,0.08-0.31,0.12
c-0.08,0.04-0.13,0.09-0.11,0.15c0.01,0.04,0.05,0.06,0.11,0.05c0.09-0.01,0.24-0.06,0.4-0.12C6.84,26.89,6.9,26.86,6.96,26.83z
M6.63,28.17c-0.11-0.14-0.2-0.24-0.27-0.29c-0.03-0.02-0.06-0.04-0.08-0.05c-0.03-0.01-0.06-0.01-0.08,0.01
c-0.02,0.02-0.02,0.06-0.01,0.1c0.01,0.03,0.02,0.06,0.03,0.09c0.05,0.1,0.13,0.22,0.23,0.34c0.02,0.02,0.03,0.03,0.04,0.05
c0.01,0.01,0.02,0.02,0.03,0.03c0.15,0.14,0.29,0.14,0.29,0.14s0-0.11-0.09-0.27c-0.02-0.03-0.04-0.07-0.06-0.1
C6.65,28.19,6.64,28.18,6.63,28.17z M5.85,27.18c0.05,0.2-0.11,0.41-0.37,0.48c-0.25,0.07-0.5-0.04-0.55-0.24
C4.88,27.22,5.05,27,5.3,26.93C5.55,26.87,5.8,26.98,5.85,27.18z M32.61,28.32c0.02-0.07,0.03-0.14-0.01-0.18
c-0.02-0.03-0.06-0.03-0.11,0c-0.08,0.04-0.17,0.16-0.24,0.34c-0.01,0.03-0.02,0.05-0.03,0.08c-0.08,0.23-0.07,0.41-0.07,0.41
s0.18-0.17,0.28-0.32c0.02-0.02,0.03-0.04,0.04-0.07C32.53,28.5,32.58,28.4,32.61,28.32z M31.64,27.17
c-0.12,0.09-0.44,0.38-0.26,0.83c0.22,0.53,0.72,0.55,0.84,0.55c0.01-0.03,0.02-0.05,0.03-0.08c0.06-0.17,0.16-0.29,0.24-0.34
c-0.02-0.16-0.06-0.36-0.11-0.48c-0.06-0.16-0.21-0.36-0.29-0.48C32.02,27.22,31.88,27.24,31.64,27.17z M33.15,26.45
c-0.05-0.07-0.09-0.24-0.11-0.49c0-0.02,0-0.03,0-0.05c-0.14-0.11-0.62-0.44-1.07-0.07c-0.47,0.38-0.3,0.88-0.22,1.05
c0.09,0.01,0.3,0.06,0.39,0.12c0.11-0.09,0.29-0.22,0.45-0.33C32.76,26.59,33,26.5,33.15,26.45z M31.7,26.89
c-0.3-0.05-0.51,0.03-0.51,0.03s0.07,0.14,0.44,0.25c0,0,0,0,0.01,0c0.24,0.07,0.38,0.05,0.46,0.01c0.05-0.03,0.08-0.07,0.07-0.1
c0-0.02-0.02-0.04-0.04-0.05c-0.09-0.07-0.3-0.11-0.39-0.12C31.72,26.9,31.71,26.89,31.7,26.89z M33.28,25.8
c0.01,0.03,0.01,0.07,0.02,0.11C33.29,25.87,33.29,25.83,33.28,25.8z M33.95,28.02c-0.17-0.01-0.44,0-0.65,0.04
c-0.24,0.05-0.54,0.18-0.69,0.25c-0.03,0.09-0.08,0.19-0.13,0.26c-0.01,0.02-0.03,0.04-0.04,0.07c0.08,0.1,0.41,0.46,0.96,0.39
c0.64-0.08,0.79-0.52,0.82-0.63c-0.01-0.02-0.03-0.03-0.04-0.05C34.08,28.24,34,28.12,33.95,28.02z M34.7,26.83
c-0.06,0.03-0.12,0.06-0.17,0.08c-0.17,0.06-0.31,0.12-0.4,0.12c-0.04,0.1-0.07,0.24-0.08,0.4c-0.01,0.16,0.02,0.33,0.04,0.45
c0.07,0.06,0.17,0.16,0.27,0.29c0.01,0.01,0.02,0.03,0.03,0.04c0.03,0.04,0.05,0.07,0.06,0.1c0.19,0.01,0.6-0.05,0.69-0.64
C35.25,27,34.79,26.85,34.7,26.83z M34.62,26.67c0.02-0.08,0.14-0.72-0.44-1.02c-0.4-0.21-0.74,0.01-0.91,0.16
c0.01,0.03,0.01,0.07,0.02,0.11c0.02,0.2,0.02,0.39-0.02,0.5c0.05,0.04,0.22,0.17,0.42,0.26c0.17,0.08,0.39,0.14,0.44,0.16
c0.08-0.04,0.19-0.08,0.31-0.12C34.51,26.69,34.57,26.68,34.62,26.67z M33.3,25.91c0-0.04-0.01-0.08-0.02-0.11
c-0.05-0.22-0.15-0.25-0.15-0.25s-0.1,0.06-0.09,0.37c0,0.02,0,0.03,0,0.05c0.02,0.25,0.05,0.41,0.11,0.49
c0.02,0.03,0.05,0.04,0.07,0.04c0.03,0,0.05-0.04,0.06-0.08c0,0,0,0,0-0.01C33.32,26.3,33.32,26.11,33.3,25.91z M34.7,26.83
c0.15-0.08,0.31-0.18,0.3-0.19c-0.01-0.01-0.18-0.01-0.37,0.03c-0.06,0.01-0.12,0.03-0.17,0.04c-0.12,0.04-0.23,0.08-0.31,0.12
c-0.08,0.04-0.13,0.09-0.11,0.15c0.01,0.04,0.05,0.06,0.11,0.05c0.09-0.01,0.23-0.06,0.4-0.12C34.57,26.89,34.64,26.86,34.7,26.83z
M34.36,28.17c-0.11-0.14-0.2-0.24-0.27-0.29c-0.03-0.02-0.06-0.04-0.08-0.05c-0.03-0.01-0.06-0.01-0.08,0.01
c-0.02,0.02-0.02,0.06-0.01,0.1c0.01,0.03,0.02,0.06,0.03,0.09c0.05,0.1,0.13,0.22,0.23,0.34c0.02,0.02,0.03,0.03,0.04,0.05
c0.01,0.01,0.02,0.02,0.03,0.03c0.15,0.14,0.29,0.14,0.29,0.14s0-0.11-0.09-0.27c-0.02-0.03-0.04-0.07-0.06-0.1
C34.38,28.19,34.37,28.18,34.36,28.17z M33.59,27.18c0.05,0.2-0.11,0.41-0.37,0.48c-0.25,0.07-0.5-0.04-0.55-0.24
c-0.05-0.2,0.11-0.41,0.37-0.48C33.29,26.87,33.53,26.98,33.59,27.18z M18.73,15.63c0.02-0.07,0.03-0.14-0.01-0.18
c-0.02-0.03-0.06-0.03-0.11,0c-0.08,0.05-0.17,0.16-0.24,0.34c-0.01,0.03-0.02,0.05-0.03,0.08c-0.08,0.23-0.07,0.41-0.07,0.41
s0.18-0.17,0.28-0.32c0.02-0.02,0.03-0.05,0.04-0.07C18.64,15.82,18.7,15.72,18.73,15.63z M17.76,14.49
c-0.12,0.09-0.44,0.38-0.26,0.83c0.22,0.53,0.72,0.55,0.84,0.55c0.01-0.03,0.02-0.05,0.03-0.08c0.06-0.17,0.16-0.29,0.24-0.34
c-0.02-0.16-0.06-0.36-0.11-0.48c-0.06-0.16-0.21-0.36-0.29-0.48C18.14,14.54,17.99,14.56,17.76,14.49z M19.26,13.77
c-0.05-0.07-0.09-0.24-0.11-0.49c0-0.02,0-0.03,0-0.05c-0.14-0.11-0.62-0.44-1.07-0.07c-0.47,0.38-0.3,0.88-0.22,1.05
c0.09,0.01,0.3,0.06,0.39,0.12c0.11-0.08,0.29-0.22,0.45-0.33C18.88,13.9,19.11,13.82,19.26,13.77z M17.82,14.21
c-0.3-0.05-0.51,0.03-0.51,0.03s0.07,0.14,0.44,0.25c0,0,0,0,0.01,0c0.24,0.07,0.38,0.05,0.46,0.01c0.05-0.03,0.08-0.07,0.07-0.1
c0-0.02-0.02-0.04-0.04-0.05c-0.09-0.07-0.3-0.11-0.39-0.12C17.84,14.21,17.82,14.21,17.82,14.21z M19.4,13.12
c0.01,0.03,0.01,0.07,0.02,0.11C19.41,13.19,19.4,13.15,19.4,13.12z M20.07,15.34c-0.17,0-0.44,0-0.65,0.04
c-0.24,0.05-0.54,0.18-0.69,0.25c-0.03,0.09-0.08,0.19-0.13,0.26c-0.01,0.02-0.03,0.04-0.04,0.07c0.08,0.1,0.41,0.46,0.96,0.39
c0.64-0.08,0.79-0.52,0.82-0.62c-0.01-0.01-0.03-0.03-0.04-0.05C20.2,15.56,20.11,15.44,20.07,15.34z M20.81,14.14
c-0.06,0.03-0.12,0.06-0.17,0.08c-0.17,0.06-0.31,0.12-0.4,0.12c-0.04,0.1-0.07,0.24-0.08,0.4c-0.01,0.16,0.02,0.33,0.04,0.45
c0.07,0.06,0.17,0.16,0.27,0.29c0.01,0.01,0.02,0.03,0.03,0.04c0.03,0.04,0.05,0.07,0.06,0.1c0.19,0.01,0.6-0.05,0.69-0.64
C21.37,14.32,20.91,14.17,20.81,14.14z M20.74,13.98c0.02-0.08,0.14-0.72-0.44-1.02c-0.41-0.21-0.74,0.01-0.91,0.16
c0.01,0.03,0.01,0.07,0.02,0.11c0.02,0.2,0.02,0.39-0.02,0.5c0.05,0.04,0.22,0.17,0.41,0.26c0.17,0.08,0.39,0.14,0.44,0.16
c0.08-0.04,0.19-0.08,0.31-0.12C20.62,14.01,20.68,14,20.74,13.98z M19.41,13.23c0-0.04-0.01-0.08-0.02-0.11
c-0.05-0.22-0.15-0.25-0.15-0.25s-0.1,0.06-0.09,0.37c0,0.02,0,0.03,0,0.05c0.02,0.25,0.05,0.41,0.11,0.49
c0.02,0.03,0.05,0.04,0.07,0.04c0.03,0,0.05-0.04,0.06-0.08c0,0,0,0,0-0.01C19.43,13.62,19.44,13.43,19.41,13.23z M20.81,14.14
c0.15-0.08,0.31-0.18,0.3-0.19c-0.01-0.01-0.18-0.01-0.37,0.03c-0.06,0.01-0.12,0.03-0.17,0.04c-0.12,0.04-0.23,0.08-0.31,0.12
c-0.08,0.04-0.13,0.09-0.11,0.15c0.01,0.04,0.05,0.06,0.11,0.05c0.09-0.01,0.23-0.06,0.4-0.12C20.69,14.21,20.75,14.18,20.81,14.14z
M20.48,15.49c-0.11-0.14-0.2-0.24-0.27-0.29c-0.03-0.02-0.06-0.04-0.08-0.05c-0.03-0.01-0.06-0.01-0.08,0.01
c-0.02,0.02-0.02,0.06-0.01,0.1c0.01,0.03,0.02,0.06,0.03,0.09c0.05,0.1,0.13,0.22,0.23,0.34c0.02,0.02,0.03,0.03,0.04,0.05
c0.01,0.01,0.02,0.02,0.03,0.03c0.15,0.14,0.29,0.14,0.29,0.14s0-0.11-0.09-0.27c-0.02-0.03-0.04-0.07-0.06-0.1
C20.5,15.51,20.49,15.5,20.48,15.49z M19.7,14.49c0.05,0.2-0.11,0.41-0.37,0.48c-0.25,0.07-0.5-0.04-0.55-0.24
c-0.05-0.2,0.11-0.41,0.37-0.48C19.4,14.19,19.65,14.3,19.7,14.49z M4.88,15.63c0.02-0.07,0.03-0.14-0.01-0.18
c-0.02-0.03-0.06-0.03-0.11,0c-0.08,0.05-0.17,0.16-0.24,0.34c-0.01,0.03-0.02,0.05-0.03,0.08c-0.08,0.23-0.07,0.41-0.07,0.41
s0.18-0.17,0.28-0.32c0.02-0.02,0.03-0.05,0.04-0.07C4.8,15.82,4.85,15.72,4.88,15.63z M3.91,14.49c-0.12,0.09-0.44,0.38-0.26,0.83
c0.22,0.53,0.72,0.55,0.84,0.55c0.01-0.03,0.02-0.05,0.03-0.08c0.06-0.17,0.16-0.29,0.24-0.34C4.74,15.3,4.7,15.1,4.65,14.97
c-0.06-0.16-0.21-0.36-0.29-0.48C4.29,14.54,4.14,14.56,3.91,14.49z M5.41,13.77c-0.05-0.07-0.09-0.24-0.11-0.49
c0-0.02,0-0.03,0-0.05c-0.14-0.11-0.62-0.44-1.07-0.07c-0.47,0.38-0.3,0.88-0.22,1.05c0.09,0.01,0.3,0.06,0.39,0.12
c0.11-0.08,0.29-0.22,0.45-0.33C5.03,13.9,5.26,13.82,5.41,13.77z M3.97,14.21c-0.3-0.05-0.51,0.03-0.51,0.03s0.07,0.14,0.44,0.25
c0,0,0,0,0.01,0c0.24,0.07,0.38,0.05,0.46,0.01c0.05-0.03,0.08-0.07,0.07-0.1c0-0.02-0.02-0.04-0.04-0.05
c-0.09-0.07-0.3-0.11-0.39-0.12C3.99,14.21,3.97,14.21,3.97,14.21z M5.55,13.12c0.01,0.03,0.01,0.07,0.02,0.11
C5.56,13.19,5.55,13.15,5.55,13.12z M6.22,15.34c-0.17,0-0.44,0-0.65,0.04c-0.24,0.05-0.54,0.18-0.69,0.25
c-0.03,0.09-0.08,0.19-0.13,0.26c-0.01,0.02-0.03,0.04-0.04,0.07c0.08,0.1,0.41,0.46,0.96,0.39c0.64-0.08,0.79-0.52,0.82-0.62
c-0.01-0.01-0.03-0.03-0.04-0.05C6.35,15.56,6.26,15.44,6.22,15.34z M6.96,14.14c-0.06,0.03-0.12,0.06-0.16,0.08
c-0.17,0.06-0.31,0.12-0.4,0.12c-0.04,0.1-0.07,0.24-0.08,0.4c-0.01,0.16,0.02,0.33,0.04,0.45c0.07,0.06,0.17,0.16,0.27,0.29
c0.01,0.01,0.02,0.03,0.03,0.04c0.03,0.04,0.05,0.07,0.06,0.1c0.19,0.01,0.6-0.05,0.69-0.64C7.52,14.32,7.06,14.17,6.96,14.14z
M6.89,13.98c0.02-0.08,0.14-0.72-0.44-1.02c-0.41-0.21-0.74,0.01-0.91,0.16c0.01,0.03,0.01,0.07,0.02,0.11
c0.02,0.2,0.02,0.39-0.02,0.5c0.05,0.04,0.22,0.17,0.42,0.26c0.17,0.08,0.39,0.14,0.44,0.16c0.08-0.04,0.19-0.08,0.31-0.12
C6.77,14.01,6.83,14,6.89,13.98z M5.56,13.23c0-0.04-0.01-0.08-0.02-0.11C5.5,12.9,5.4,12.87,5.4,12.87s-0.1,0.06-0.09,0.37
c0,0.02,0,0.03,0,0.05c0.02,0.25,0.05,0.41,0.11,0.49c0.02,0.03,0.05,0.04,0.07,0.04c0.03,0,0.05-0.04,0.06-0.08c0,0,0,0,0-0.01
C5.58,13.62,5.59,13.43,5.56,13.23z M6.96,14.14c0.15-0.08,0.31-0.18,0.3-0.19c-0.01-0.01-0.18-0.01-0.37,0.03
C6.83,14,6.77,14.01,6.72,14.03C6.6,14.06,6.49,14.1,6.4,14.15c-0.08,0.04-0.13,0.09-0.11,0.15c0.01,0.04,0.05,0.06,0.11,0.05
c0.09-0.01,0.24-0.06,0.4-0.12C6.84,14.21,6.9,14.18,6.96,14.14z M6.63,15.49c-0.11-0.14-0.2-0.24-0.27-0.29
c-0.03-0.02-0.06-0.04-0.08-0.05c-0.03-0.01-0.06-0.01-0.08,0.01c-0.02,0.02-0.02,0.06-0.01,0.1c0.01,0.03,0.02,0.06,0.03,0.09
c0.05,0.1,0.13,0.22,0.23,0.34c0.02,0.02,0.03,0.03,0.04,0.05c0.01,0.01,0.02,0.02,0.03,0.03c0.15,0.14,0.29,0.14,0.29,0.14
s0-0.11-0.09-0.27c-0.02-0.03-0.04-0.07-0.06-0.1C6.65,15.51,6.64,15.5,6.63,15.49z M5.85,14.49c0.05,0.2-0.11,0.41-0.37,0.48
c-0.25,0.07-0.5-0.04-0.55-0.24c-0.05-0.2,0.11-0.41,0.37-0.48C5.55,14.19,5.8,14.3,5.85,14.49z M32.61,15.63
c0.02-0.07,0.03-0.14-0.01-0.18c-0.02-0.03-0.06-0.03-0.11,0c-0.08,0.05-0.17,0.16-0.24,0.34c-0.01,0.03-0.02,0.05-0.03,0.08
c-0.08,0.23-0.07,0.41-0.07,0.41s0.18-0.17,0.28-0.32c0.02-0.02,0.03-0.05,0.04-0.07C32.53,15.82,32.58,15.72,32.61,15.63z
M31.64,14.49c-0.12,0.09-0.44,0.38-0.26,0.83c0.22,0.53,0.72,0.55,0.84,0.55c0.01-0.03,0.02-0.05,0.03-0.08
c0.06-0.17,0.16-0.29,0.24-0.34c-0.02-0.16-0.06-0.36-0.11-0.48c-0.06-0.16-0.21-0.36-0.29-0.48
C32.02,14.54,31.88,14.56,31.64,14.49z M33.15,13.77c-0.05-0.07-0.09-0.24-0.11-0.49c0-0.02,0-0.03,0-0.05
c-0.14-0.11-0.62-0.44-1.07-0.07c-0.47,0.38-0.3,0.88-0.22,1.05c0.09,0.01,0.3,0.06,0.39,0.12c0.11-0.08,0.29-0.22,0.45-0.33
C32.76,13.9,33,13.82,33.15,13.77z M31.7,14.21c-0.3-0.05-0.51,0.03-0.51,0.03s0.07,0.14,0.44,0.25c0,0,0,0,0.01,0
c0.24,0.07,0.38,0.05,0.46,0.01c0.05-0.03,0.08-0.07,0.07-0.1c0-0.02-0.02-0.04-0.04-0.05c-0.09-0.07-0.3-0.11-0.39-0.12
C31.72,14.21,31.71,14.21,31.7,14.21z M33.28,13.12c0.01,0.03,0.01,0.07,0.02,0.11C33.29,13.19,33.29,13.15,33.28,13.12z
M33.95,15.34c-0.17,0-0.44,0-0.65,0.04c-0.24,0.05-0.54,0.18-0.69,0.25c-0.03,0.09-0.08,0.19-0.13,0.26
c-0.01,0.02-0.03,0.04-0.04,0.07c0.08,0.1,0.41,0.46,0.96,0.39c0.64-0.08,0.79-0.52,0.82-0.62c-0.01-0.01-0.03-0.03-0.04-0.05
C34.08,15.56,34,15.44,33.95,15.34z M34.7,14.14c-0.06,0.03-0.12,0.06-0.17,0.08c-0.17,0.06-0.31,0.12-0.4,0.12
c-0.04,0.1-0.07,0.24-0.08,0.4c-0.01,0.16,0.02,0.33,0.04,0.45c0.07,0.06,0.17,0.16,0.27,0.29c0.01,0.01,0.02,0.03,0.03,0.04
c0.03,0.04,0.05,0.07,0.06,0.1c0.19,0.01,0.6-0.05,0.69-0.64C35.25,14.32,34.79,14.17,34.7,14.14z M34.62,13.98
c0.02-0.08,0.14-0.72-0.44-1.02c-0.4-0.21-0.74,0.01-0.91,0.16c0.01,0.03,0.01,0.07,0.02,0.11c0.02,0.2,0.02,0.39-0.02,0.5
c0.05,0.04,0.22,0.17,0.42,0.26c0.17,0.08,0.39,0.14,0.44,0.16c0.08-0.04,0.19-0.08,0.31-0.12C34.51,14.01,34.57,14,34.62,13.98z
M33.3,13.23c0-0.04-0.01-0.08-0.02-0.11c-0.05-0.22-0.15-0.25-0.15-0.25s-0.1,0.06-0.09,0.37c0,0.02,0,0.03,0,0.05
c0.02,0.25,0.05,0.41,0.11,0.49c0.02,0.03,0.05,0.04,0.07,0.04c0.03,0,0.05-0.04,0.06-0.08c0,0,0,0,0-0.01
C33.32,13.62,33.32,13.43,33.3,13.23z M34.7,14.14c0.15-0.08,0.31-0.18,0.3-0.19c-0.01-0.01-0.18-0.01-0.37,0.03
c-0.06,0.01-0.12,0.03-0.17,0.04c-0.12,0.04-0.23,0.08-0.31,0.12c-0.08,0.04-0.13,0.09-0.11,0.15c0.01,0.04,0.05,0.06,0.11,0.05
c0.09-0.01,0.23-0.06,0.4-0.12C34.57,14.21,34.64,14.18,34.7,14.14z M34.36,15.49c-0.11-0.14-0.2-0.24-0.27-0.29
c-0.03-0.02-0.06-0.04-0.08-0.05c-0.03-0.01-0.06-0.01-0.08,0.01c-0.02,0.02-0.02,0.06-0.01,0.1c0.01,0.03,0.02,0.06,0.03,0.09
c0.05,0.1,0.13,0.22,0.23,0.34c0.02,0.02,0.03,0.03,0.04,0.05c0.01,0.01,0.02,0.02,0.03,0.03c0.15,0.14,0.29,0.14,0.29,0.14
s0-0.11-0.09-0.27c-0.02-0.03-0.04-0.07-0.06-0.1C34.38,15.51,34.37,15.5,34.36,15.49z M33.59,14.49c0.05,0.2-0.11,0.41-0.37,0.48
c-0.25,0.07-0.5-0.04-0.55-0.24c-0.05-0.2,0.11-0.41,0.37-0.48C33.29,14.19,33.53,14.3,33.59,14.49z M18.73,51.8
c0.02-0.07,0.03-0.14-0.01-0.18c-0.02-0.03-0.06-0.03-0.11,0c-0.08,0.05-0.17,0.16-0.24,0.34c-0.01,0.03-0.02,0.05-0.03,0.08
c-0.08,0.23-0.07,0.41-0.07,0.41s0.18-0.17,0.28-0.32c0.02-0.02,0.03-0.05,0.04-0.07C18.64,51.98,18.7,51.88,18.73,51.8z
M17.76,50.65c-0.12,0.09-0.44,0.38-0.26,0.83c0.22,0.53,0.72,0.55,0.84,0.55c0.01-0.03,0.02-0.05,0.03-0.08
c0.06-0.17,0.16-0.29,0.24-0.34c-0.02-0.15-0.06-0.36-0.11-0.48c-0.06-0.16-0.21-0.36-0.29-0.48C18.14,50.7,17.99,50.72,17.76,50.65
z M19.26,49.93c-0.05-0.07-0.09-0.24-0.11-0.49c0-0.02,0-0.03,0-0.05c-0.14-0.11-0.62-0.44-1.07-0.07c-0.47,0.38-0.3,0.88-0.22,1.05
c0.09,0.01,0.3,0.06,0.39,0.12c0.11-0.08,0.29-0.22,0.45-0.33C18.88,50.07,19.11,49.98,19.26,49.93z M17.82,50.37
c-0.3-0.05-0.51,0.03-0.51,0.03s0.07,0.14,0.44,0.25c0,0,0,0,0.01,0c0.24,0.07,0.38,0.05,0.46,0.01c0.05-0.03,0.08-0.07,0.07-0.1
c0-0.02-0.02-0.04-0.04-0.05c-0.09-0.07-0.3-0.11-0.39-0.12C17.84,50.38,17.82,50.37,17.82,50.37z M19.4,49.28
c0.01,0.03,0.01,0.07,0.02,0.11C19.41,49.35,19.4,49.31,19.4,49.28z M20.07,51.5c-0.17,0-0.44,0-0.65,0.04
c-0.24,0.05-0.54,0.18-0.69,0.25c-0.03,0.09-0.08,0.19-0.13,0.26c-0.01,0.02-0.03,0.04-0.04,0.07c0.08,0.1,0.41,0.46,0.96,0.39
c0.64-0.08,0.79-0.52,0.82-0.63c-0.01-0.01-0.03-0.03-0.04-0.05C20.2,51.72,20.11,51.6,20.07,51.5z M20.81,50.3
c-0.06,0.03-0.12,0.06-0.17,0.08c-0.17,0.06-0.31,0.12-0.4,0.12c-0.04,0.1-0.07,0.24-0.08,0.4c-0.01,0.16,0.02,0.33,0.04,0.45
c0.07,0.06,0.17,0.16,0.27,0.29c0.01,0.01,0.02,0.03,0.03,0.04c0.03,0.04,0.05,0.07,0.06,0.1c0.19,0.01,0.6-0.04,0.69-0.64
C21.37,50.48,20.91,50.33,20.81,50.3z M20.74,50.14c0.02-0.08,0.14-0.72-0.44-1.02c-0.41-0.21-0.74,0.01-0.91,0.16
c0.01,0.03,0.01,0.07,0.02,0.11c0.02,0.2,0.02,0.39-0.02,0.5c0.05,0.04,0.22,0.17,0.41,0.26c0.17,0.08,0.39,0.14,0.44,0.16
c0.08-0.04,0.19-0.08,0.31-0.12C20.62,50.17,20.68,50.16,20.74,50.14z M19.41,49.39c0-0.04-0.01-0.08-0.02-0.11
c-0.05-0.22-0.15-0.25-0.15-0.25s-0.1,0.06-0.09,0.37c0,0.02,0,0.03,0,0.05c0.02,0.25,0.05,0.41,0.11,0.49
c0.02,0.03,0.05,0.04,0.07,0.04c0.03,0,0.05-0.04,0.06-0.08c0,0,0,0,0-0.01C19.43,49.78,19.44,49.59,19.41,49.39z M20.81,50.3
c0.15-0.08,0.31-0.18,0.3-0.19c-0.01-0.01-0.18-0.01-0.37,0.03c-0.06,0.01-0.12,0.03-0.17,0.04c-0.12,0.04-0.23,0.08-0.31,0.12
c-0.08,0.04-0.13,0.09-0.11,0.15c0.01,0.04,0.05,0.06,0.11,0.05c0.09-0.01,0.23-0.06,0.4-0.12C20.69,50.37,20.75,50.34,20.81,50.3z
M20.48,51.65c-0.11-0.14-0.2-0.24-0.27-0.29c-0.03-0.02-0.06-0.04-0.08-0.05c-0.03-0.01-0.06-0.01-0.08,0.01
c-0.02,0.02-0.02,0.06-0.01,0.1c0.01,0.03,0.02,0.06,0.03,0.09c0.05,0.1,0.13,0.22,0.23,0.34c0.02,0.02,0.03,0.03,0.04,0.05
c0.01,0.01,0.02,0.02,0.03,0.03c0.15,0.14,0.29,0.14,0.29,0.14s0-0.11-0.09-0.28c-0.02-0.03-0.04-0.07-0.06-0.1
C20.5,51.67,20.49,51.66,20.48,51.65z M19.7,50.65c0.05,0.2-0.11,0.41-0.37,0.48c-0.25,0.07-0.5-0.04-0.55-0.24
c-0.05-0.2,0.11-0.41,0.37-0.48C19.4,50.35,19.65,50.46,19.7,50.65z M31.04,42.63c0,0,0.54-0.76-1.35-1.53
c-1.4-0.57-3.33-0.45-4.56-0.62c-1.03-0.14-1.14-0.38-1.08-0.63c0.12-0.57,1.08-0.2,1.68,0.13c0.65,0.35,1.81,0.46,2.65-0.32
c0.3-0.28,0.72-0.38,0.72-0.38s-0.5-0.32-0.91-0.03c-0.17,0.12-0.3,0.24-0.65,0.26c-0.6,0.05-0.71-0.15-0.71-0.15
s0.31,0.21,1.06-0.18c0.98-0.5,0.39-1.6,0.39-1.6s0.07,0.39-0.35,0.66c-0.58,0.38-1.06,0.03-1.06,0.03s0.22,0.11,0.57-0.02
c0.43-0.16,0.57-0.39,0.43-0.68c-0.06-0.12-0.27-0.27-0.27-0.27s0.47,0.62-1.39,0.49c-0.94-0.07-1.27,0.89-1.27,0.89
s-0.43-0.11-0.74-0.01c0.02-0.14,0-0.39-0.08-0.54c-0.1,0.49-0.47,0.81-0.65,1.02c-0.17,0.21-0.55,0.76-0.08,1.4
c0.46,0.54,1.31,0.62,1.84,0.66c0.79,0.06,2.11,0.13,3.27,0.29c1.57,0.22,1.29,0.97,1.1,1.2c-0.2,0.24-0.57,0.25-1.66-0.13
c-1.09-0.38-2.22-1.06-4.5-0.97c-3.14,0.12-5.37,2.42-6.52,2.3c0,0,0.06,0.28,0.04,0.46c-0.1,0.8-0.83,1.23-0.83,1.23
s-0.04-0.17-0.1-0.16c-0.07,0.01,0,0.17-0.26,0.37c-0.25,0.18-0.37,0.39-0.46,0.76c0,0-0.13-0.25-0.21-0.03
c-0.1,0.29-0.25,0.31-0.33,0.34c0,0-0.01-0.15-0.07-0.14c-0.1,0-0.14,0.64-1.23,0.53l-0.08,0.02c-0.8,0.14-0.94-0.66-1.23-0.93
c-0.19-0.18-0.41,0.15-0.41,0.15s-0.16-0.17-0.14-0.48c0.02-0.32,0.08-0.43-0.05-0.66c-0.1-0.17-0.52-0.52-0.36-1.13
c-0.19,0-0.57-0.14-0.73-1.27c-0.01-0.08,0.14,0.02,0.14,0.02c-0.03-0.17-0.18-0.24-0.21-0.44c-0.04-0.29-0.08-0.86,0.08-1.05
c0.24-0.3,0.91-0.41,0.59-1c-0.03,0.06-0.06,0.12-0.1,0.17c-0.04,0.04-0.1,0.07-0.16,0.07c-0.12,0-0.21-0.1-0.2-0.22
c0-0.08,0.05-0.13,0.11-0.19c0,0,0.01-0.01,0.01-0.01c-0.12-0.01-0.22,0.03-0.29,0.06c0.02-0.13,0.24-0.81-0.34-0.97
c0.01,0.09,0,0.2-0.04,0.27c-0.02,0.05-0.07,0.1-0.13,0.12c-0.11,0.04-0.23-0.03-0.26-0.14c-0.02-0.07,0.01-0.14,0.04-0.22
c0.01-0.03,0.02-0.06,0.03-0.09c-0.56,0.07-0.44,0.79-0.44,0.91c-0.01-0.16-0.35-0.62-0.68-0.42c0,0-0.01,0.01-0.03,0.03
c0.04,0.03,0.08,0.07,0.1,0.11c0.03,0.05,0.05,0.11,0.03,0.17c-0.03,0.11-0.14,0.18-0.25,0.16c-0.07-0.02-0.12-0.08-0.17-0.15
c0-0.01-0.01-0.01-0.01-0.02c-0.12,0.15-0.1,0.42,0.21,0.66c0.46,0.35,0.62,1.77,0.55,1.96c-0.1,0.25-0.35-0.11-0.35-0.11
s-0.04,0.33,0.19,0.66c0.41,0.59,0.54,0.85,0.23,0.75c-0.1-0.03-0.19-0.12-0.19-0.12s0.02,0.3,0.39,0.6
c0.15,0.12,0.13,0.19,0.02,0.18c-0.12-0.01-0.22-0.09-0.22-0.09s0.1,0.27,0.29,0.53c0.32,0.43,0.61,0.61,0.61,0.61
s-0.36-0.03-0.87-0.33c-0.77-0.45-0.45-0.77-0.68-1.3c-0.22-0.51-0.36-0.59-0.59-0.62c-0.01,0-0.01,0-0.02,0
c0.02,0.04,0.03,0.07,0.03,0.11c0.01,0.06,0,0.12-0.04,0.17c-0.07,0.09-0.2,0.1-0.29,0.03c-0.06-0.05-0.07-0.12-0.08-0.21v0
c-0.22,0.11-0.21,0.34-0.19,0.45c-0.15-0.16-0.43-0.39-0.62-0.43c-0.12-0.02-0.26,0.01-0.39,0.08c-0.01,0-0.01,0.01-0.02,0.01
c0.01,0.01,0.03,0.02,0.04,0.03c0.05,0.04,0.08,0.09,0.08,0.15c0.01,0.12-0.08,0.21-0.2,0.22c-0.08,0-0.13-0.04-0.2-0.09
C5.97,44.02,5.96,44.01,5.95,44c-0.14,0.24-0.09,0.71,0.7,0.96c0,0-0.38,0.06-0.51,0.34c0.09-0.01,0.19,0,0.26,0.04
c0.05,0.02,0.1,0.07,0.12,0.13c0.03,0.11-0.03,0.23-0.14,0.26c-0.07,0.02-0.14-0.01-0.22-0.04c-0.01-0.01-0.02-0.01-0.04-0.01
c0.09,0.4,0.42,0.46,0.69,0.46c1.19-0.01,2.12,0.56,2.12,0.56s-0.26,0.02-0.4,0.2c-0.15,0.19-0.11,0.3-0.11,0.3s0.11-0.1,0.4-0.15
c0.32-0.05,0.38,0.06,0.38,0.06s-0.46,0.17-0.28,0.65c0,0,0.19-0.21,0.47-0.3c0.24-0.08,0.51-0.07,0.62,0.09
c0.15,0.22-0.49,0.43-0.49,0.43c0.44,0.26,1.41,0.14,1.41,0.14s-0.68,0.12-0.67,0.57c0,0,0.42-0.32,1.25,0
c1.25,0.49,2.79,0.72,4.8-0.1c2.53-1.03,2.6-3.22,6.12-4.39c0.11,0.17,0.91,0.91,1.9,1.28c0.8,0.3,1.93,0.5,2.27,0.58
c0.5,0.12,1.38,0.31,0.85,1.27c-0.25,0.45-0.48,0.58-0.69,0.75c-0.04-0.01-0.3-0.08-0.68-0.22c-0.22-0.08-0.38-0.03-0.45,0.12
c0.06,0,0.12,0.01,0.17,0.03c0.05,0.02,0.09,0.06,0.11,0.11c0.03,0.1-0.02,0.2-0.11,0.24c-0.06,0.02-0.13,0-0.2-0.03
c-0.01,0-0.01,0-0.02,0c0.03,0.27,0.25,0.3,0.25,0.3s-0.26,0.1-0.26,0.34c0.05-0.02,0.09-0.03,0.14-0.04
c0.05-0.01,0.11,0.01,0.15,0.05c0.08,0.07,0.08,0.19,0.01,0.26c-0.05,0.05-0.11,0.06-0.19,0.07c0.01,0,0.01,0.01,0.02,0.01
c0.15,0.19,0.61,0.05,0.61,0.05s-0.1,0.23,0.03,0.4c0.02-0.07,0.05-0.13,0.1-0.18c0.03-0.04,0.08-0.06,0.14-0.07
c0.1,0,0.19,0.08,0.19,0.19c0,0.07-0.04,0.12-0.09,0.18c-0.01,0.01-0.02,0.02-0.02,0.03c0.03,0,0.05,0.01,0.08,0.01
c0.22-0.03,0.53-0.23,0.67-0.7c0.18-0.54,0.35-0.66,0.35-0.66s0.46-0.43,0.28,0.34c0.45-0.12,0.4-0.61,0.4-0.61s0.36,0.16,0.47,0.08
c0.15-0.12,0-0.48,0.18-0.73c0.19-0.28,0.3,0.05,0.23,0.27c0,0,0.28-0.09,0.29-0.44c0.01-0.23-0.08-0.5,0.14-0.7
c0.16-0.14,0.2,0.06,0.16,0.25c0,0,0.21,0.01,0.25-0.37c0.02-0.23-0.03-0.3,0.04-0.33c0.08-0.03,0.14,0.19,0.14,0.19
s0.19-0.43-0.2-0.69c-0.66-0.43-2.35-0.14-3.35-1.72c-0.37-0.58-0.1-0.85-0.1-0.85s1.79,0.85,2.76,0.71c1.17-0.17,1.17-0.8,1.17-0.8
s0.19,0.04,0.03,0.42c0,0,0.21-0.05,0.3-0.34c0.17-0.56-0.18-0.91-0.18-0.91C31.03,42.29,31.04,42.63,31.04,42.63z M6.39,45.74
c0.11-0.03,0.17-0.15,0.14-0.26c-0.02-0.06-0.06-0.1-0.12-0.13c-0.07-0.04-0.17-0.05-0.26-0.04c-0.01,0-0.02,0-0.03,0
c-0.36,0.05-0.46,0.31-0.51,0.46c0,0,0.22-0.19,0.54-0.08c0.01,0,0.02,0.01,0.04,0.01C6.25,45.74,6.32,45.76,6.39,45.74z
M6.18,44.12c0.11-0.01,0.2-0.11,0.2-0.22c0-0.06-0.04-0.12-0.08-0.15c-0.01-0.01-0.02-0.02-0.04-0.03
c-0.07-0.05-0.16-0.07-0.24-0.08c-0.36-0.04-0.52,0.19-0.61,0.32c0,0,0.26-0.13,0.54,0.05c0.01,0.01,0.02,0.01,0.03,0.02
C6.04,44.08,6.1,44.12,6.18,44.12z M7.56,43.81c0.09,0.07,0.22,0.06,0.29-0.03c0.04-0.05,0.05-0.11,0.04-0.17
c0-0.04-0.02-0.07-0.03-0.11c-0.02-0.06-0.06-0.12-0.1-0.16c-0.24-0.28-0.51-0.22-0.66-0.18c0,0,0.3,0.09,0.37,0.44v0
C7.49,43.69,7.51,43.76,7.56,43.81z M10.61,40.52c0,0.12,0.09,0.21,0.2,0.22c0.06,0,0.12-0.02,0.16-0.07
c0.04-0.04,0.08-0.1,0.1-0.17c0.01-0.03,0.03-0.07,0.03-0.1c0.08-0.36-0.14-0.54-0.26-0.64c0,0,0.11,0.29-0.11,0.55
c0,0-0.01,0.01-0.01,0.01C10.66,40.39,10.61,40.45,10.61,40.52z M9.67,39.66c0.04,0.11,0.15,0.17,0.26,0.14
c0.06-0.02,0.1-0.06,0.13-0.12c0.04-0.08,0.05-0.18,0.04-0.27c0-0.01,0-0.02,0-0.03c-0.05-0.36-0.31-0.46-0.46-0.51
c0,0,0.17,0.2,0.1,0.49c-0.01,0.03-0.02,0.06-0.03,0.09C9.68,39.52,9.65,39.59,9.67,39.66z M8.48,40.31
c0.11,0.03,0.22-0.04,0.25-0.16c0.01-0.06,0-0.12-0.03-0.17c-0.03-0.04-0.06-0.08-0.1-0.11c-0.04-0.03-0.09-0.06-0.13-0.08
c-0.33-0.14-0.56,0.03-0.67,0.13c0,0,0.3-0.05,0.52,0.22c0,0.01,0.01,0.01,0.01,0.02C8.36,40.23,8.41,40.29,8.48,40.31z M25.8,48.36
c0.1-0.03,0.15-0.14,0.11-0.24c-0.02-0.05-0.06-0.09-0.11-0.11c-0.05-0.02-0.11-0.03-0.17-0.03c-0.04,0-0.07,0-0.1,0.01
c-0.32,0.05-0.4,0.3-0.45,0.43c0,0,0.2-0.19,0.5-0.09c0.01,0,0.01,0,0.02,0C25.67,48.36,25.73,48.38,25.8,48.36z M25.86,48.98
c-0.04-0.04-0.1-0.05-0.15-0.05c-0.04,0-0.09,0.02-0.14,0.04c-0.04,0.02-0.08,0.04-0.11,0.07c-0.26,0.2-0.22,0.45-0.2,0.59
c0,0,0.09-0.27,0.42-0.31h0c0.08-0.01,0.14-0.02,0.19-0.07C25.94,49.16,25.94,49.05,25.86,48.98z M26.77,49.71
c0-0.1-0.09-0.19-0.19-0.19c-0.06,0-0.11,0.03-0.14,0.07c-0.04,0.04-0.08,0.11-0.1,0.18c-0.01,0.02-0.01,0.05-0.02,0.07
c-0.06,0.32,0.15,0.48,0.25,0.56c0,0-0.1-0.24,0.07-0.48c0.01-0.01,0.01-0.02,0.02-0.03C26.73,49.83,26.77,49.78,26.77,49.71z
M25.9,46.25c-2.04-0.39-2.47-0.65-3.3-1.45c-0.08,0.04-0.41,0.62,0.46,1.45c0.34,0.33,0.68,0.43,0.68,0.43s-0.6-0.11-1.37-0.03
c-0.36-0.1-0.62-0.56-1.1-0.75c-0.16-0.06-0.29-0.06-0.4-0.01c0.05,0.02,0.11,0.05,0.14,0.09c0.04,0.04,0.06,0.09,0.06,0.14
c0,0.1-0.09,0.18-0.19,0.18c-0.07,0-0.12-0.05-0.17-0.1c-0.01-0.01-0.03-0.03-0.04-0.04c-0.03,0.13,0.01,0.29,0.18,0.45
c-0.22-0.01-0.44,0.11-0.49,0.36c0.07-0.03,0.14-0.05,0.2-0.04c0.05,0,0.1,0.02,0.14,0.07c0.07,0.08,0.05,0.2-0.02,0.26
c-0.05,0.04-0.12,0.04-0.2,0.04c-0.04,0-0.07,0-0.1,0.01c0,0.01,0.01,0.02,0.01,0.03c0.15,0.45,0.84,0.12,0.84,0.12
s-0.35,0.26-0.16,0.57c0.02-0.05,0.04-0.09,0.08-0.12c0.03-0.04,0.08-0.06,0.14-0.07c0.1,0,0.19,0.08,0.19,0.19
c0,0.07-0.04,0.12-0.09,0.18c-0.02,0.02-0.03,0.04-0.04,0.06c0.48,0.19,0.87-0.55,0.87-0.57c-0.02,0.53,0.4,0.65,0.4,0.65
s-0.06-0.23,0.16-0.38c0.24-0.16,0.61-0.12,0.65-0.12c-0.07,0.27,0.03,0.39,0.18,0.44c0.04-0.56,1.09-0.58,1.09-0.58
c0.06,0.22,0.3,0.3,0.3,0.3s-0.01-0.31,0.21-0.48c0.23-0.18,0.61-0.19,1.01-0.41C26.67,46.85,26.57,46.34,25.9,46.25z M21.47,48.03
c0-0.1-0.08-0.19-0.19-0.19c-0.06,0-0.11,0.03-0.14,0.07c-0.03,0.03-0.06,0.08-0.08,0.12c-0.02,0.04-0.03,0.08-0.04,0.12
c-0.06,0.32,0.15,0.48,0.25,0.56c0,0-0.09-0.22,0.05-0.45c0.01-0.02,0.03-0.04,0.04-0.06C21.43,48.15,21.47,48.1,21.47,48.03z
M20.67,47.27c0.08-0.07,0.09-0.18,0.02-0.26c-0.04-0.04-0.09-0.07-0.14-0.07c-0.06-0.01-0.14,0.01-0.2,0.04
c-0.02,0.01-0.04,0.02-0.06,0.03c-0.29,0.16-0.28,0.42-0.27,0.55c0,0,0.1-0.2,0.35-0.24c0.03-0.01,0.07-0.01,0.1-0.01
C20.55,47.31,20.62,47.31,20.67,47.27z M20.88,46.3c0.1,0,0.19-0.08,0.19-0.18c0-0.06-0.02-0.11-0.06-0.14
c-0.04-0.04-0.09-0.07-0.14-0.09c-0.03-0.01-0.07-0.03-0.1-0.03c-0.32-0.07-0.48,0.13-0.57,0.23c0,0,0.23-0.09,0.46,0.08
c0.01,0.01,0.03,0.02,0.04,0.04C20.76,46.26,20.81,46.3,20.88,46.3z M17.1,42.28c0.09-0.74-0.42-0.68-0.42-0.68s0.2-0.14,0.27-0.41
c0.12-0.46-0.15-1.06-0.15-1.06s-0.28,0.5-0.61,0.15c0,0,0.19-0.2,0.15-0.64c-0.03,0.13-1.06,0.91-1.35-0.49
c-0.58,0.13-0.53,0.69-0.89,0.65c-0.19-0.02-0.38-0.18-0.24-0.54c0,0-0.53,0.03-0.6,0.58c-0.09,0.68-0.43-0.23-0.87-0.2
c-0.01,0-0.33,0.36-0.32,1.11c-0.4,0.02-0.59,0.33-0.62,0.84c-0.11,1.44-0.49,0.96-0.49,0.99c0.13,0.88,0.62,0.41,0.62,0.41
c-0.09,0.62-0.64,0.28-0.64,0.28c0.16,0.94,0.56,0.63,0.56,0.63c-0.18,0.79,0.12,0.99,0.23,1.14c0.14,0.19,0.2,0.27,0.15,0.61
c-0.05,0.3-0.03,0.41-0.03,0.41s0.24-0.24,0.41-0.06c0.26,0.28,0.42,1.12,1.02,1.01c0,0-0.07-0.37,0.06-0.37
c0.12,0,0.16,0.32,0.16,0.32c0.16,0.02,0.62,0.09,0.87-0.24c0.15-0.19,0.19-0.47,0.35-0.46c0.12,0.01,0.13,0.24,0.13,0.24
c0.11-0.06,0.13-0.13,0.18-0.39c0.06-0.33,0.22,0.02,0.22,0.02c0.04-0.23,0.17-0.45,0.39-0.6c0.28-0.18,0.2-0.68,0.37-0.8
c0.18-0.13,0.22,0.4,0.22,0.4s0.62-0.48,0.4-1.3c-0.1-0.37-0.2-0.68-0.08-0.71c0.11-0.03,0.09,0.33,0.33,0.47
c0.17,0.1,0.44-0.04,0.44-0.04C17.01,43.23,17.06,42.64,17.1,42.28z M12.77,41.74l0-0.03v-0.03l0.03,0.01l0.39,0.17
c-0.03,0.02-0.05,0.05-0.07,0.08c-0.06,0.12-0.01,0.26,0.1,0.32c0.12,0.06,0.26,0.01,0.32-0.1c0.02-0.05,0.03-0.1,0.02-0.15h0
c0,0,0.27,0.1,0.24,0.42c-0.02,0.25-0.18,0.54-0.18,0.54s-0.13-0.06-0.06-0.28c0.08-0.27,0.04-0.27,0.04-0.27s-0.27,0.06-0.48-0.05
l-0.02-0.01C12.78,42.19,12.77,41.79,12.77,41.74z M14.45,44.5c-0.29,0.25-0.24,0.62-0.3,0.87c-0.08,0.31-0.36,0.46-0.67,0.4
c-0.27-0.04-0.52-0.21-0.54-0.49c-0.02-0.33,0.51-0.76,0.17-1.16c-0.28-0.33-0.26-0.49-0.26-0.49s0.07,0.1,0.26,0.2
c0.07,0.03,0.61,0.29,0.72-0.13c0.03-0.11-0.05-0.17-0.12-0.22c-0.04-0.03-0.1-0.06-0.13-0.09c-0.08-0.1-0.02-0.21-0.02-0.21
s0.15,0.2,0.42,0.24c0.27,0.04,0.51-0.08,0.51-0.08s0.06,0.19-0.16,0.22c-0.12,0.01-0.29,0.02-0.32,0.17
c-0.07,0.49,0.64,0.39,0.85,0.35c0.17-0.03,0.25-0.05,0.25-0.05C14.96,44.24,14.71,44.28,14.45,44.5z M15.75,42.28l-0.01,0.03
c-0.02,0.04-0.18,0.41-0.55,0.45l-0.02,0c-0.23,0.02-0.46-0.14-0.46-0.14s-0.04-0.01-0.07,0.27c-0.02,0.22-0.16,0.23-0.16,0.23
s-0.03-0.33,0.04-0.57c0.1-0.3,0.38-0.3,0.38-0.3h0c-0.03,0.04-0.04,0.09-0.04,0.15c0.01,0.13,0.13,0.23,0.25,0.22
c0.13-0.01,0.23-0.13,0.22-0.26c0-0.04-0.02-0.07-0.03-0.1l0.43,0l0.03,0L15.75,42.28z M13.42,45.6c0.61,0.16,0.62-0.47,0.63-0.59
c0.04-0.64,0.48-0.7,0.56-0.77c-0.21,0.04-0.62,0.03-0.76-0.22c-0.14,0.08-0.38,0.12-0.66,0c0.08,0.09,0.14,0.21,0.16,0.26
c0.06,0.16,0.01,0.35-0.06,0.5C13.22,44.92,12.87,45.45,13.42,45.6z M29.45,34.84c-4.9-0.16-6.13-1.56-6.13-1.56
S22.76,34.21,25,35.2c0,0-0.76-0.12-1.18-0.14c-0.5-0.02-1.03,0.07-1.03,0.07s-0.57-0.52-0.96-0.66c-0.13-0.05-0.34-0.11-0.53,0
c0.06,0.02,0.12,0.05,0.15,0.09c0.04,0.04,0.07,0.09,0.07,0.15c0,0.11-0.09,0.21-0.21,0.21c-0.08,0-0.13-0.05-0.19-0.1
c-0.02-0.02-0.04-0.03-0.06-0.05c-0.1,0.27,0.08,0.45,0.2,0.53c-0.57,0.12-0.74,0.27-0.74,0.56c0.06-0.03,0.13-0.05,0.18-0.05
c0.06,0,0.12,0.02,0.16,0.06c0.08,0.08,0.08,0.21,0,0.29c-0.05,0.05-0.13,0.06-0.21,0.06c-0.02,0-0.03,0-0.05,0.01
c0.12,0.21,0.37,0.31,0.73,0.19c0.17-0.06,0.21-0.08,0.21-0.08s-0.31,0.35-0.18,0.69c0.03-0.05,0.07-0.09,0.11-0.12
c0.04-0.04,0.1-0.05,0.16-0.04c0.11,0.02,0.19,0.13,0.16,0.24c-0.01,0.07-0.07,0.12-0.14,0.17c-0.02,0.01-0.03,0.03-0.04,0.04
c0.04,0.02,0.09,0.03,0.14,0.05c0.32,0.09,0.57-0.17,0.79-0.44c0.43-0.52,0.85-0.36,0.85-0.36c-0.29,0.29-0.02,0.63-0.02,0.63
s0.24-0.55,0.63-0.4c-0.08,0.34,0.26,0.53,0.26,0.53s0.2-0.54,0.46-0.54c0.35,0,0.17,0.53,0.17,0.53s0.19-0.02,0.48-0.32
c0.2-0.2,0.36-0.41,0.76-0.38c-0.01,0.06,0.05,0.44,0.4,0.61c-0.01-1.3,1.82-1.47,2.12-1.53C29.54,35.52,29.45,34.84,29.45,34.84z
M21.32,34.92c0.11,0,0.21-0.09,0.21-0.21c0-0.06-0.03-0.12-0.07-0.15c-0.04-0.04-0.1-0.07-0.15-0.09
c-0.04-0.01-0.08-0.03-0.11-0.03c-0.35-0.06-0.53,0.16-0.62,0.28c0,0,0.24-0.1,0.5,0.06c0.02,0.01,0.04,0.03,0.06,0.05
C21.19,34.88,21.25,34.92,21.32,34.92z M20.86,36.16c0.08-0.08,0.08-0.21,0-0.29c-0.04-0.04-0.1-0.06-0.16-0.06
c-0.06,0-0.12,0.02-0.18,0.05c-0.03,0.02-0.07,0.03-0.1,0.05c-0.3,0.2-0.27,0.48-0.25,0.63c0,0,0.11-0.26,0.43-0.31
c0.02,0,0.03,0,0.05-0.01C20.73,36.22,20.81,36.21,20.86,36.16z M21.8,37.11c0.02-0.11-0.05-0.22-0.16-0.24
c-0.06-0.01-0.12,0.01-0.16,0.04c-0.04,0.03-0.08,0.07-0.11,0.12c-0.03,0.04-0.05,0.08-0.06,0.12c-0.13,0.34,0.06,0.55,0.16,0.66
c0,0-0.06-0.27,0.16-0.49c0.01-0.01,0.03-0.03,0.04-0.04C21.73,37.23,21.79,37.18,21.8,37.11z M12.42,33.16
c0.68,0.23,0.75-0.48,0.77-0.62c0.1-0.73,0.61-0.75,0.71-0.82c-0.24,0.03-0.71-0.03-0.84-0.31c-0.17,0.07-0.44,0.1-0.75-0.06
c0.08,0.11,0.14,0.25,0.16,0.31c0.05,0.19-0.03,0.4-0.11,0.56C12.26,32.38,11.8,32.95,12.42,33.16z M16.96,28.76
c0.21-0.5-0.04-1.41-0.04-1.41s-0.41,0.65-0.76,0.3c-0.32-0.32,0.02-0.84,0.02-0.84c-0.39-0.13-0.72,0.41-1.21,0.14
c-0.34-0.19,0.06-0.8,0.06-0.8s-0.44-0.01-0.8,0.16c-0.34,0.17-0.5,0.31-0.73,0.3c-0.33-0.01-0.21-0.55-0.21-0.55
s-0.39-0.01-0.62,0.39c-0.23,0.4-0.48,0.5-0.48,0.5c-0.11-0.17-0.34-0.17-0.52-0.22c-0.2-0.06-0.33-0.15-0.33-0.15
s-0.37,0.7-0.2,1.28c-0.27,0.07-0.35,0.38-0.39,0.53c-0.32,1.15-0.79,0.64-0.79,0.67c0.09,1.02,0.68,0.99,0.63,1.22
c-0.07,0.32-0.62-0.12-0.62-0.12c0.01,0.72,0.34,0.76,0.47,1.19c0.11,0.37-0.12,0.62,0.07,1.19c0.19,0.59,0.05,0.8,0.05,0.8
c0.4,0.01,0.66-0.28,0.66-0.28c-0.08,0.75,0.28,1.11,0.28,1.11s0.22-0.46,0.32-0.15c0.25,0.82,0.66,1.11,0.66,1.11
s0.37-0.02,1.02-0.71c0.46-0.48,0.25,0.14,0.25,0.14s0.32,0.03,0.98-1.19c0.21-0.39,0.57-0.62,0.7,0.02
c0.76-0.82,0.49-1.7,0.49-2.02c0-0.28,0.13-0.31,0.15-0.18c0.08,0.75,0.87,0.5,0.87,0.5s-0.32-0.33,0.01-1.48
c0.16-0.58-0.16-1.14-0.16-1.14S16.92,28.85,16.96,28.76z M12.03,28.72l0-0.04l0-0.03l0.03,0.02l0.43,0.22
c-0.03,0.02-0.07,0.05-0.09,0.09c-0.08,0.13-0.04,0.29,0.09,0.37c0.13,0.08,0.29,0.04,0.37-0.09c0.03-0.05,0.04-0.11,0.04-0.17l0,0
c0,0,0.29,0.14,0.24,0.5c-0.05,0.28-0.25,0.6-0.25,0.6s-0.14-0.08-0.04-0.32c0.11-0.3,0.07-0.31,0.07-0.31s-0.31,0.04-0.54-0.1
l-0.02-0.02C12,29.23,12.03,28.77,12.03,28.72z M13.69,32.01c-0.35,0.25-0.33,0.68-0.42,0.97c-0.11,0.35-0.45,0.49-0.8,0.39
c-0.3-0.08-0.58-0.28-0.57-0.61c0-0.37,0.65-0.81,0.3-1.3c-0.29-0.4-0.26-0.58-0.26-0.58s0.08,0.13,0.28,0.25
c0.07,0.04,0.67,0.39,0.83-0.08c0.04-0.12-0.04-0.2-0.12-0.26c-0.04-0.04-0.1-0.07-0.14-0.12c-0.09-0.12,0-0.24,0-0.24
s0.15,0.24,0.45,0.31c0.31,0.08,0.58-0.04,0.58-0.04s0.05,0.22-0.2,0.24c-0.14,0.01-0.34,0-0.37,0.16c-0.12,0.55,0.69,0.5,0.94,0.48
c0.2-0.02,0.29-0.04,0.29-0.04C14.3,31.76,14,31.78,13.69,32.01z M15.37,29.61l-0.02,0.03c-0.02,0.05-0.24,0.45-0.66,0.46l-0.03,0
c-0.27,0-0.51-0.2-0.51-0.2s-0.04-0.02-0.1,0.3c-0.04,0.25-0.21,0.25-0.21,0.25s-0.01-0.38,0.1-0.65c0.14-0.34,0.46-0.3,0.46-0.3h0
c-0.03,0.05-0.06,0.1-0.06,0.16c0,0.15,0.12,0.27,0.27,0.27c0.15,0,0.27-0.12,0.27-0.27c0-0.04-0.01-0.08-0.03-0.12l0.49,0.04h0.03
L15.37,29.61z M35.25,34.31c0,0,0.04-0.7-0.46-0.88c-0.66-0.24-1.52,0.07-3.22-0.09c-4.13-0.39-3.62-1.88-3.62-1.88
s2.6,1.16,3.7,0.62c0.61-0.3,0.57-0.82,0.57-0.82c0.17,0.2-0.01,0.59-0.01,0.59s1.07-0.78-0.2-2.01c-0.46-0.44-1.3-0.77-1.93-0.85
c-1.82-0.24-2.51-0.14-3.79-0.32c-1.07-0.15-1.32-0.53-1.26-0.83c0.16-0.89,2.16,0.37,3.26-0.11c0.3-0.13,0.54-0.34,0.79-0.4
c0.26-0.06,0.53,0.02,0.53,0.02s-0.26-0.47-1.11-0.29c-0.7,0.15-0.75-0.09-0.75-0.09s0.33,0.03,0.75-0.22
c0.27-0.16,0.35-0.51,0.64-0.63c0.37-0.16,0.73-0.01,0.73-0.01s-0.47-0.81-1.39-0.34c-0.62,0.41-0.85,0.11-0.85,0.11
s0.48,0,0.75-0.54c0.23-0.46,0.53-0.54,0.53-0.54s-0.47-0.22-0.87,0.17c-0.26,0.25-0.63,0.32-1.27,0.31
c-0.81-0.01-1.14,0.96-1.14,0.96s-0.32,0.02-0.6,0.16c-0.24,0.12-0.53,0.4-0.53,0.4l0.1-0.32c0,0-0.6,0.3-0.62,1.23
c-0.03,1.57,1.67,1.7,2.23,1.74c0.83,0.06,2.4,0.11,3.61,0.27c1.63,0.23,1.68,0.98,1.46,1.33c-0.24,0.39-0.91,0.19-2.05-0.21
c-1.14-0.4-2.1-1.06-4.39-0.99c-3.63,0.11-7.46,2.71-8.58,2.04c0.06,0.42-0.04,1.29-1,2.06c-0.04-0.65-0.24-0.56-0.45-0.17
c-0.61,1.1-1.24,1.2-1.24,1.2s0.12-0.37-0.29-0.01c-0.41,0.36-0.89,0.42-0.89,0.42s-0.58-0.42-0.71-1.07
c-0.02-0.08-0.12,0.21-0.12,0.21c-0.48-0.23-0.6-1-0.6-1s-0.23,0.15-0.76,0.06c0,0,0.3-0.33-0.04-1.18c-0.67,0-3.29-0.46-3.62-1.82
c-0.12-0.51-0.27-0.75-0.59-0.77c0.03,0.03,0.05,0.06,0.07,0.1c0.03,0.05,0.04,0.12,0.01,0.18c-0.04,0.11-0.17,0.17-0.28,0.13
c-0.08-0.03-0.11-0.1-0.16-0.18C5.57,30.04,5.55,30.02,5.53,30c-0.26,0.2-0.18,0.63-0.18,0.63c-0.3-0.25-0.9-0.66-1.26-0.41
c0.07,0.03,0.13,0.06,0.17,0.1c0.05,0.04,0.08,0.11,0.08,0.18c0,0.13-0.11,0.24-0.24,0.24c-0.09,0-0.15-0.05-0.22-0.12
c-0.03-0.03-0.07-0.05-0.1-0.07c-0.31,0.51,0.71,1.07,0.71,1.07c-0.39-0.02-0.94,0.28-0.93,0.63c0.06-0.03,0.12-0.05,0.17-0.05
c0.06-0.01,0.12,0.01,0.17,0.05c0.09,0.08,0.1,0.22,0.02,0.31c-0.05,0.06-0.13,0.07-0.22,0.08c-0.01,0-0.03,0.01-0.04,0.01
c0.1,0.21,0.28,0.35,0.78,0.21c1.21-0.34,2.03-0.12,2.03-0.12s-0.04,0.4-0.58,0.3c-0.03,0,0.22,0.31,0.71,0.31
c0.65,0,0.99-0.26,1-0.26c0,0,0.03,0.15-0.15,0.25c-0.39,0.2-0.14,0.63-0.14,0.63c0.21-0.48,0.6-0.29,0.6-0.29
c-0.07,0.09-0.16,0.37,0.07,0.58c0,0,0.03-0.28,0.46-0.39c0.3-0.08,0.55,0.03,0.55,0.03s-0.25,0.35,0.05,0.75
c0,0,0.13-0.57,0.53-0.41c0.17,0.07,0.15,0.25,0.1,0.33c-0.08,0.12-0.26,0.15-0.26,0.15c0.62,0.3,0.78-0.19,1.26,0.25
c-0.62,0.28-1.39,0.34-2.1,0.3c-1.49-0.13-1.8-0.42-2.15-0.75c-0.48-0.46-0.86-0.51-1.09-0.44c0.03,0.02,0.06,0.04,0.08,0.06
c0.05,0.04,0.08,0.11,0.08,0.18c0,0.13-0.11,0.24-0.24,0.24c-0.09,0-0.15-0.05-0.22-0.12c-0.02-0.01-0.04-0.03-0.05-0.04
c-0.13,0.23,0.11,0.43,0.19,0.53c-0.09-0.02-0.2-0.03-0.28-0.05c-0.32-0.07-0.58,0.05-0.66,0.28c0.09-0.01,0.18-0.01,0.25,0.02
c0.06,0.02,0.12,0.06,0.15,0.13c0.06,0.12,0.01,0.26-0.11,0.31c-0.08,0.04-0.16,0.02-0.25-0.01c-0.03-0.01-0.06-0.01-0.09-0.02
c0.09,0.41,0.56,0.46,0.92,0.47c-0.17,0.1-0.36,0.26-0.32,0.5c0.05-0.05,0.11-0.09,0.17-0.1c0.05-0.02,0.12-0.02,0.17,0.01
c0.1,0.06,0.14,0.18,0.08,0.28c-0.04,0.07-0.1,0.09-0.19,0.12c-0.02,0.01-0.04,0.02-0.06,0.03c0.29,0.31,1-0.09,1.2-0.21
c0.56-0.32,1.05-0.26,1.33-0.13c0.53,0.26-0.18,0.48-0.18,0.48c0.17,0.14,0.46,0.08,0.63,0c0.16-0.07,0.31-0.19,0.39-0.08
c0.04,0.07,0.02,0.19-0.1,0.3c-0.09,0.08-0.23,0.11-0.23,0.11C8.64,37.61,9.25,37,9.25,37s0.05,0.08-0.01,0.24
c-0.1,0.26-0.34,0.35-0.34,0.35c0.71,0.22,1.08-0.64,1.08-0.64s0.34,0.26-0.08,0.64c0.59,0.02,0.66-0.47,0.95-0.28
c0.17,0.11,0.08,0.35-0.17,0.4c0.68,0.23,0.62-0.38,1.41-0.24c1.15,0.2,2.47,0.37,4.49-0.42c3.1-1.19,3.42-3.93,6.82-4.31
c0,0,0.29,0.6,2.61,1.23c2.47,0.67,6.25,0.15,6.08,1.33c-0.09,0.6-1.77-0.26-1.99,0.33c0,0.01-0.01,0.02-0.01,0.03
c0.06-0.01,0.13-0.02,0.19,0c0.06,0.01,0.11,0.04,0.14,0.09c0.06,0.1,0.03,0.22-0.07,0.28c-0.06,0.04-0.13,0.03-0.22,0.01
c-0.01,0-0.02,0-0.03,0c0.07,0.13,0.2,0.2,0.34,0.22c-0.2,0.11-0.32,0.19-0.34,0.46c0,0.03,0,0.05,0,0.07
c0.04-0.03,0.08-0.05,0.12-0.07c0.05-0.02,0.11-0.02,0.17,0.01c0.1,0.05,0.14,0.18,0.09,0.28c-0.03,0.07-0.1,0.09-0.18,0.12
c-0.01,0-0.02,0.01-0.02,0.01c0.13,0.12,0.3,0.17,0.47,0.12c0.18-0.06,0.26-0.12,0.3-0.16c-0.06,0.1-0.17,0.32-0.11,0.5
c0.02,0.07,0.05,0.12,0.09,0.16c0.01-0.07,0.04-0.14,0.08-0.19c0.03-0.05,0.08-0.08,0.14-0.09c0.11-0.02,0.22,0.06,0.23,0.18
c0.01,0.07-0.03,0.14-0.08,0.21c-0.01,0.01-0.01,0.02-0.02,0.03c0.43,0.01,0.82-0.56,0.89-1.07c0.1-0.64,0.3-0.55,0.3-0.55
s0,0.13,0.12,0.24c0.11,0.12,0.26,0.12,0.26,0.12c-0.02-0.44,0.3-0.57,0.44-0.45c0.14,0.12,0.03,0.39,0.03,0.39s0.22,0.08,0.48-0.37
c0.15-0.24,0.13-0.54,0.31-0.56c0.23-0.01,0.14,0.29,0.14,0.29c0.55-0.3,0.21-1.17,0.42-1.26c0.17-0.04,0.1,0.27,0.1,0.27
s0.34-0.19,0.24-0.56C34.98,33.85,35.25,34.31,35.25,34.31z M3.93,32.55c0.08-0.09,0.07-0.23-0.02-0.31
c-0.05-0.04-0.11-0.06-0.17-0.05c-0.06,0-0.12,0.03-0.17,0.05c-0.04,0.02-0.08,0.05-0.12,0.07c-0.3,0.24-0.25,0.53-0.22,0.69
c0,0,0.1-0.29,0.44-0.37c0.01,0,0.03-0.01,0.04-0.01C3.8,32.62,3.88,32.61,3.93,32.55z M4.11,30.73c0.13,0,0.24-0.11,0.24-0.24
c0-0.07-0.03-0.13-0.08-0.18c-0.04-0.04-0.11-0.08-0.17-0.1C4.05,30.2,4,30.18,3.96,30.17c-0.41-0.07-0.61,0.18-0.71,0.32
c0,0,0.26-0.11,0.54,0.05c0.03,0.02,0.07,0.04,0.1,0.07C3.96,30.68,4.02,30.73,4.11,30.73z M5.74,30.25
c0.11,0.04,0.24-0.01,0.28-0.13c0.02-0.06,0.02-0.13-0.01-0.18c-0.02-0.03-0.04-0.07-0.07-0.1c-0.05-0.05-0.1-0.1-0.16-0.13
c-0.33-0.2-0.59-0.04-0.73,0.04c0,0,0.28-0.01,0.47,0.24c0.02,0.02,0.03,0.05,0.05,0.07C5.62,30.15,5.66,30.22,5.74,30.25z
M5.2,36.74c0.06-0.1,0.02-0.23-0.08-0.28C5.06,36.43,5,36.43,4.95,36.45c-0.06,0.02-0.12,0.06-0.17,0.1
c-0.03,0.02-0.05,0.05-0.07,0.08c-0.23,0.28-0.12,0.54-0.06,0.69c0,0,0.03-0.28,0.31-0.42c0.02-0.01,0.04-0.02,0.06-0.03
C5.09,36.83,5.16,36.81,5.2,36.74z M5.25,34.55c0.13,0,0.24-0.11,0.24-0.24c0-0.07-0.03-0.13-0.08-0.18
c-0.02-0.02-0.05-0.04-0.08-0.06c-0.07-0.04-0.15-0.07-0.23-0.09c-0.41-0.07-0.61,0.18-0.71,0.32c0,0,0.29-0.12,0.59,0.08
c0.02,0.01,0.04,0.03,0.05,0.04C5.1,34.5,5.17,34.55,5.25,34.55z M4.51,35.61c0.12-0.06,0.17-0.2,0.11-0.31
c-0.03-0.06-0.09-0.11-0.15-0.13c-0.07-0.03-0.17-0.03-0.25-0.02c-0.03,0-0.06,0.01-0.09,0.02c-0.4,0.11-0.47,0.42-0.51,0.59
c0,0,0.2-0.23,0.55-0.18c0.03,0,0.06,0.01,0.09,0.02C4.35,35.62,4.43,35.65,4.51,35.61z M30.37,36.04c0.1-0.06,0.13-0.19,0.07-0.28
c-0.03-0.05-0.08-0.08-0.14-0.09c-0.06-0.01-0.12-0.01-0.19,0c-0.04,0.01-0.07,0.02-0.11,0.03c-0.33,0.13-0.37,0.41-0.38,0.56
c0,0,0.17-0.24,0.51-0.21c0.01,0,0.02,0,0.03,0C30.23,36.06,30.3,36.07,30.37,36.04z M30.51,37.02c0.05-0.1,0.01-0.22-0.09-0.28
c-0.05-0.03-0.12-0.03-0.17-0.01c-0.04,0.01-0.08,0.04-0.12,0.07c-0.04,0.03-0.08,0.07-0.12,0.11c-0.22,0.28-0.11,0.54-0.05,0.68
c0,0,0.02-0.3,0.33-0.44c0.01,0,0.02-0.01,0.02-0.01C30.4,37.12,30.47,37.09,30.51,37.02z M31.5,37.67
c-0.02-0.11-0.12-0.19-0.23-0.18c-0.06,0.01-0.11,0.04-0.14,0.09c-0.04,0.05-0.06,0.12-0.08,0.19c-0.01,0.03-0.01,0.06-0.01,0.1
c-0.02,0.36,0.23,0.5,0.36,0.58c0,0-0.15-0.25,0.01-0.54c0.01-0.01,0.01-0.02,0.02-0.03C31.47,37.8,31.51,37.74,31.5,37.67z
M3.97,18.11c0.13,0.03,0.25-0.05,0.29-0.17c0.02-0.07,0-0.14-0.04-0.19c-0.01-0.02-0.03-0.04-0.05-0.07
c-0.06-0.06-0.14-0.11-0.22-0.15c-0.38-0.17-0.63,0.03-0.77,0.14c0,0,0.35-0.06,0.6,0.27c0,0,0.01,0.01,0.01,0.01
C3.84,18.03,3.89,18.09,3.97,18.11z M29.17,22.72c-4.27-0.13-5.68-1.68-5.68-1.68s-0.72,1.1,1.05,1.82c0,0-0.33-0.09-0.75-0.13
c-0.5-0.04-0.72-0.04-0.72-0.04s-0.37-0.57-1.04-0.69c-0.18-0.03-0.36-0.04-0.51-0.02c0.01,0.01,0.02,0.02,0.03,0.03
c0.04,0.04,0.06,0.1,0.06,0.16c-0.01,0.11-0.11,0.2-0.22,0.19c-0.08-0.01-0.13-0.06-0.19-0.12c-0.03-0.03-0.05-0.05-0.08-0.07
c-0.01,0.01-0.02,0.01-0.02,0.02c-0.11,0.13-0.16,0.31-0.06,0.52c-0.61,0.08-0.81,0.27-0.86,0.52c0,0,0,0,0,0
c0.09-0.03,0.21-0.04,0.3-0.02c0.06,0.01,0.11,0.05,0.14,0.1c0.05,0.1,0.02,0.22-0.08,0.28c-0.07,0.04-0.14,0.02-0.22,0
c-0.05-0.01-0.09-0.01-0.13-0.01c0.06,0.32,0.44,0.55,1.06,0.3c0.15-0.06-0.37,0.18-0.17,0.72c0.01-0.04,0.03-0.07,0.05-0.1
c0.03-0.05,0.08-0.09,0.14-0.1c0.11-0.02,0.22,0.05,0.24,0.17c0.01,0.07-0.02,0.14-0.07,0.21c-0.03,0.05-0.05,0.1-0.06,0.15
c0,0,0,0,0,0c0.52,0.23,1.07-0.4,1.13-0.69c0,0,0.05,0.38,0.28,0.54c0,0,0.03-0.16,0.15-0.29c0.23-0.25,0.21,0.05,0.21,0.05
c0,0.45,0.28,0.52,0.28,0.52s-0.04-0.52,0.36-0.6c0.16,0.55,0.77-0.29,0.71-0.04c-0.14,0.56,0.11,0.73,0.11,0.73s0.05-0.68,1.4-0.75
c-0.01,0.06,0.04,0.44,0.38,0.62c0.1-1.3,1.93-1.31,2.24-1.36C29.48,23.52,29.17,22.72,29.17,22.72z M21.38,22.36
c0.11,0.01,0.21-0.08,0.22-0.19c0-0.06-0.02-0.12-0.06-0.16c-0.01-0.01-0.02-0.02-0.03-0.03c-0.06-0.06-0.15-0.1-0.23-0.12
c-0.35-0.09-0.54,0.11-0.64,0.23c0,0,0.24-0.08,0.47,0.08c0.03,0.02,0.05,0.04,0.08,0.07C21.26,22.3,21.31,22.35,21.38,22.36z
M20.31,23.6c0.08,0.02,0.15,0.03,0.22,0c0.1-0.05,0.14-0.18,0.08-0.28c-0.03-0.05-0.08-0.09-0.14-0.1c-0.09-0.02-0.2-0.01-0.3,0.02
c0,0,0,0,0,0c-0.34,0.11-0.38,0.39-0.41,0.54c0,0,0.14-0.18,0.41-0.19C20.22,23.59,20.26,23.59,20.31,23.6z M21.49,24.57
c-0.02-0.11-0.13-0.19-0.24-0.17c-0.06,0.01-0.11,0.05-0.14,0.1c-0.02,0.03-0.03,0.06-0.05,0.1c-0.02,0.06-0.03,0.13-0.03,0.19
c0,0.36,0.25,0.49,0.38,0.56c0,0-0.12-0.18-0.06-0.42c0.01-0.05,0.03-0.1,0.06-0.15C21.47,24.71,21.5,24.65,21.49,24.57z
M16.64,17.38c0.15-0.7-0.4-0.71-0.4-0.71s0.24-0.16,0.33-0.45C16.72,15.7,16.44,15,16.44,15s-0.18,0.52-0.76,0.27
c0,0,0.28-0.34,0.06-0.95c-0.04,0.15-0.16,0.29-0.33,0.39c-0.29,0.17-0.63,0.13-0.75-0.08c-0.11-0.19-0.02-0.45,0.2-0.62
c-0.08-0.02-0.44-0.11-0.77-0.02c-0.35,0.1-0.88,0.46-0.88,0.46s-0.36-0.28-0.18-0.7c0,0-0.55-0.06-0.73,0.58
c-0.08,0.28-0.31,0.3-0.31,0.3s-0.04-0.44-0.44-0.57c-0.01,0-0.74,0.52-0.73,1.51c-0.27,0.08-0.38,0.39-0.41,0.55
c-0.34,2.01-0.85,1.06-0.85,1.09c0.11,1.02,0.8,0.87,0.8,0.87c-0.12,0.7-0.85,0.33-0.85,0.33c0.27,1.03,0.89,0.6,0.89,0.6
c-0.44,0.75-0.11,1.33,0.13,1.92c0.25,0.54,0.24,0.99,0.24,0.99s0.29-0.16,0.45-0.15c0.22,0,0.15,0.24,0.16,0.55
c0.01,0.43,0.18,0.56,0.18,0.56s0.02-0.08,0.1-0.19c0.11-0.17,0.18-0.15,0.18-0.15s-0.06,0.54,0.29,0.81c0,0,0.49-0.72,0.77-0.67
c0.18,0.03,0.29,0.47,0.29,0.47c1.43-0.91,1.62-2.88,1.89-2.18c0.07,0.17,0.08,0.34,0.08,0.34s0.87-0.52,0.78-2.45
c0,0,0.16,0.16,0.42,0.23c0.27,0.08,0.42-0.01,0.42-0.01S16.39,18.55,16.64,17.38z M11.82,16.58l0-0.04l0-0.03l0.03,0.02l0.44,0.22
c-0.03,0.02-0.06,0.05-0.09,0.09c-0.08,0.13-0.04,0.3,0.09,0.37c0.13,0.08,0.29,0.03,0.37-0.09c0.03-0.05,0.04-0.11,0.03-0.17l0,0
c0,0,0.3,0.13,0.24,0.5c-0.04,0.28-0.24,0.61-0.24,0.61s-0.14-0.08-0.05-0.32c0.11-0.3,0.06-0.31,0.06-0.31s-0.31,0.05-0.54-0.09
l-0.02-0.02C11.8,17.09,11.82,16.64,11.82,16.58z M13.53,19.85c-0.35,0.26-0.31,0.69-0.4,0.97c-0.11,0.35-0.44,0.5-0.79,0.41
c-0.3-0.07-0.58-0.27-0.58-0.6c0-0.37,0.64-0.82,0.28-1.31c-0.29-0.4-0.27-0.58-0.27-0.58s0.08,0.12,0.28,0.25
c0.07,0.04,0.68,0.37,0.83-0.1c0.04-0.12-0.05-0.2-0.12-0.26c-0.04-0.03-0.11-0.07-0.14-0.11c-0.09-0.12,0-0.24,0-0.24
s0.16,0.24,0.46,0.31c0.31,0.07,0.58-0.05,0.58-0.05s0.06,0.22-0.19,0.24c-0.14,0.01-0.34,0-0.37,0.17
c-0.11,0.55,0.7,0.49,0.94,0.46c0.2-0.02,0.29-0.04,0.29-0.04C14.13,19.59,13.84,19.61,13.53,19.85z M15.17,17.42l-0.02,0.03
c-0.02,0.05-0.24,0.45-0.66,0.47l-0.03,0c-0.27,0-0.51-0.19-0.51-0.19s-0.04-0.02-0.1,0.3c-0.04,0.25-0.2,0.25-0.2,0.25
s-0.01-0.38,0.09-0.65c0.14-0.34,0.46-0.31,0.46-0.31l0,0c-0.03,0.05-0.06,0.1-0.06,0.16c0,0.15,0.13,0.27,0.27,0.27
c0.15,0,0.27-0.13,0.27-0.28c0-0.04-0.01-0.08-0.03-0.12l0.49,0.03l0.03,0L15.17,17.42z M12.28,21.02c0.68,0.22,0.74-0.49,0.76-0.63
c0.09-0.73,0.6-0.76,0.69-0.83c-0.24,0.03-0.71-0.01-0.85-0.3c-0.17,0.08-0.44,0.11-0.75-0.05c0.09,0.1,0.14,0.25,0.16,0.31
c0.05,0.19-0.02,0.4-0.1,0.56C12.11,20.24,11.66,20.82,12.28,21.02z M3.91,19.97c0.08-0.09,0.07-0.23-0.02-0.31
c-0.05-0.04-0.11-0.06-0.17-0.05c-0.08,0.01-0.17,0.05-0.25,0.1c-0.01,0.01-0.03,0.02-0.04,0.03c-0.3,0.24-0.25,0.53-0.22,0.69
c0,0,0.09-0.26,0.39-0.35c0.03-0.01,0.06-0.02,0.09-0.02C3.78,20.04,3.85,20.03,3.91,19.97z M5.7,17.56
c0.11,0.06,0.24,0.03,0.3-0.08c0.03-0.06,0.04-0.12,0.02-0.18c0-0.02-0.01-0.03-0.02-0.05c-0.03-0.08-0.1-0.16-0.16-0.21
c-0.29-0.25-0.57-0.14-0.72-0.08c0,0,0.31,0.04,0.45,0.36c0.01,0.01,0.01,0.03,0.02,0.04C5.61,17.45,5.63,17.52,5.7,17.56z
M5.2,21.87c0.11,0.06,0.24,0.03,0.3-0.08c0.03-0.06,0.04-0.12,0.02-0.18c-0.01-0.05-0.04-0.1-0.08-0.15
c-0.03-0.04-0.07-0.08-0.11-0.11c-0.29-0.25-0.57-0.14-0.72-0.08c0,0,0.33,0.04,0.46,0.4c0,0.01,0.01,0.03,0.01,0.04
C5.12,21.78,5.14,21.83,5.2,21.87z M4.25,23.01c0.12-0.04,0.19-0.18,0.14-0.3c-0.02-0.07-0.08-0.11-0.14-0.14
c-0.08-0.04-0.19-0.05-0.29-0.04c-0.02,0-0.03,0-0.05,0.01c-0.41,0.07-0.51,0.38-0.56,0.54c0,0,0.21-0.19,0.53-0.14
c0.04,0.01,0.08,0.02,0.12,0.03C4.09,23.01,4.17,23.04,4.25,23.01z M5.2,24.02c-0.06-0.04-0.13-0.06-0.19-0.04
c-0.08,0.01-0.16,0.05-0.23,0.1c-0.03,0.02-0.05,0.04-0.07,0.06c-0.31,0.28-0.22,0.59-0.18,0.76c0,0,0.09-0.35,0.49-0.44
c0,0,0.01,0,0.01,0c0.09-0.02,0.17-0.04,0.22-0.1C5.32,24.25,5.3,24.1,5.2,24.02z M34.57,21.24c-0.3-0.14-0.78-0.08-1.35-0.02
c-0.45,0.05-0.96,0.09-1.47,0.04c-3.45-0.35-3.73-1.62-3.59-1.53c0,0,0.74,0.38,1.87,0.6c3.08,0.6,3.1-1.09,3.1-1.09
s0.1,0.07,0.13,0.26c0.03,0.21-0.11,0.51-0.11,0.51s0.38-0.29,0.38-0.72c0-0.64-0.42-0.87-0.42-0.87s0.09-0.01,0.24,0.12
c0.15,0.13,0.24,0.46,0.24,0.46s0.16-0.53-0.43-1.03c-1.65-1.38-5.22-1.11-6.6-1.31c-1.2-0.17-1.52-0.67-1.43-1.18
c0.15-0.84,1.27-0.86,1.27-0.86c-0.06,0.92,1.08,1.52,2.16,1.28c0.6-0.13,0.97-0.34,1.39-0.69c0.32-0.26,0.58-0.38,0.58-0.38
c-0.56-0.11-0.91,0.11-1.14,0.21c-0.24,0.1-0.49,0.18-0.75,0.2c-0.67,0.06-0.74-0.39-0.74-0.39s0.5,0.24,1.15,0.09
c1.87-0.44,1.26-2.19,1.26-2.19s-0.16,0.66-0.75,0.91c-0.55,0.23-1.01-0.13-1.01-0.13s0.9,0.09,1.1-0.62
c0.11-0.4-0.27-0.61-0.27-0.61s0.08,0.9-2.08,0.77c-0.95-0.06-0.94,0.75-0.94,0.75s-0.15,0-0.54,0.12c-0.35,0.1-0.59,0.27-0.59,0.27
c0.09-0.26,0.48-0.39,0.48-0.39c-0.5,0-0.92,0.39-0.92,0.39c0-0.1,0.07-0.24,0.07-0.24c-0.02,0.03-0.56,0.48-0.68,1.44
c-0.06,0.48,0.08,0.98,0.4,1.35c0.52,0.61,1.51,0.69,2.11,0.74c0.89,0.07,2.36,0.15,3.66,0.33c1.76,0.24,1.86,0.83,1.63,1.21
c-0.26,0.42-1.04,0.43-2.26,0c-1.22-0.43-3.67-1.32-5.43-1.31c-4.65,0.02-6.73,1.99-8.12,1.63c0.04,1.79-1.24,2.5-1.24,2.5
c-0.19-0.99-0.06,0.8-1.95,1.73c0,0-0.01-0.44-0.21-0.48c-0.26-0.05-0.62,0.64-0.62,0.64c-0.4-0.27-0.53-0.69-0.53-0.69l-0.1,0.2
c0,0-0.31-0.2-0.38-0.54c-0.07-0.34,0.03-0.6-0.12-0.61c-0.17-0.01-0.55,0.24-0.55,0.24s0.06-0.59-0.21-1.2
c-0.15-0.39-0.37-0.75-0.4-1.18c-1.5-0.28-3.32-0.88-3.36-1.46C6.51,17.97,6.6,17.42,6,17.25c0.01,0.02,0.02,0.04,0.02,0.05
c0.02,0.06,0.02,0.12-0.02,0.18c-0.06,0.11-0.2,0.14-0.3,0.08c-0.07-0.04-0.1-0.11-0.12-0.2c0-0.01-0.01-0.03-0.02-0.04
c-0.35,0.2-0.21,0.83-0.21,0.83c-0.27-0.28-0.84-0.79-1.19-0.46c0.02,0.02,0.04,0.04,0.05,0.07c0.04,0.05,0.05,0.12,0.04,0.19
c-0.03,0.13-0.16,0.2-0.29,0.17c-0.08-0.02-0.13-0.08-0.18-0.16c-0.36,0.52,0.39,1.13,0.39,1.13c-0.11,0.06-0.71,0.18-0.71,0.61
c0.08-0.05,0.17-0.09,0.25-0.1c0.06-0.01,0.12,0.01,0.17,0.05c0.09,0.08,0.1,0.22,0.02,0.31c-0.05,0.06-0.13,0.07-0.22,0.08
c-0.03,0.01-0.06,0.01-0.09,0.02c0.21,0.3,0.54,0.3,0.75,0.21c0.96-0.41,1.21-0.18,1.63-0.09c0.3,0.07,0.56-0.01,0.57,0.17
c0,0.14-0.14,0.25-0.58,0.2c0,0,0.11,0.28,0.6,0.34c0.74,0.08,0.96-0.1,1.06,0.03c0.18,0.24-0.53,0.33-0.53,0.33
c0.58,0.44,1.34,0.1,1.34,0.1c0.04,0.26-0.51,0.31-0.51,0.31s0.22,0.24,0.65,0.14c0.16-0.04,0.3-0.11,0.3-0.11s-0.13,0.43,0.25,0.64
c0,0,0.21-0.73,0.51-0.54c0.15,0.09,0.17,0.25,0.1,0.33c-0.09,0.12-0.24,0.11-0.24,0.11c0.09,0.22,0.47,0.22,0.47,0.22
s-0.47,0.29-1.78,0.27c-1.73-0.14-1.63-0.34-2.06-0.85c-0.34-0.45-0.53-0.47-0.69-0.41c0.03,0.05,0.06,0.1,0.08,0.15
c0.02,0.06,0.02,0.12-0.02,0.18c-0.06,0.11-0.2,0.14-0.3,0.08c-0.06-0.03-0.09-0.09-0.11-0.16c-0.21,0.21-0.17,0.41-0.07,0.58
c-0.09-0.01-0.91-0.13-1.05,0.25c0.1-0.01,0.21,0,0.29,0.04c0.06,0.02,0.11,0.07,0.14,0.14c0.04,0.12-0.02,0.26-0.14,0.3
c-0.08,0.03-0.16,0-0.25-0.04c-0.04-0.02-0.08-0.03-0.12-0.03c0,0.02-0.01,0.04-0.01,0.04c-0.01,0.56,0.81,0.58,1.21,0.59
c-0.18,0.1-0.36,0.26-0.32,0.5c0.07-0.05,0.15-0.09,0.23-0.1c0.06-0.01,0.13,0,0.19,0.04c0.1,0.08,0.12,0.23,0.04,0.33
c-0.05,0.07-0.13,0.08-0.22,0.1c0.54,0.36,0.93-0.14,1.13-0.25c0.56-0.32,1.43-0.29,1.65-0.05c0.16,0.17-0.2,0.38-0.2,0.38
c0.4,0.05,0.69-0.19,0.69-0.19s-0.08,0.09-0.11,0.28c-0.04,0.27,0.14,0.41,0.14,0.41c0.33-0.64,0.58-0.6,0.71-0.48
c0.15,0.14-0.16,0.36-0.16,0.36c0.38,0.19,0.88-0.2,0.88-0.2s-0.04,0.33,0.15,0.51c0.25-0.46,0.81-0.42,1.17-0.37
c0,0-0.52,0.36-0.32,0.81c0.33-0.32,0.73-0.44,1.29-0.37c1.16,0.14,3.35,0.8,7.1-2.7c2.54-2.36,4.23-2.06,4.23-2.06
c2.26,1.84,6.59,1.87,7.7,1.95c0.54,0.04,0.55,0.37,0.31,0.66c-0.15,0.18-0.34,0.22-0.35,0.22c0,0-1.07-0.44-1.46,0.15
c0.07-0.01,0.14-0.02,0.21,0c0.05,0.01,0.1,0.04,0.13,0.1c0.05,0.1,0.02,0.22-0.08,0.27c-0.06,0.04-0.13,0.02-0.21,0
c-0.03-0.01-0.06-0.01-0.09-0.01c0.05,0.2,0.2,0.25,0.3,0.28c0.05,0.01,0.04,0.02,0.03,0.03c-0.22,0.21-0.22,0.44-0.21,0.52
c0.05-0.04,0.11-0.06,0.16-0.08c0.05-0.01,0.11-0.01,0.16,0.03c0.09,0.06,0.12,0.19,0.05,0.28c-0.04,0.06-0.11,0.08-0.19,0.1
c-0.02,0.01-0.04,0.01-0.06,0.02c0.11,0.18,0.32,0.29,0.63,0.17c0.24-0.09,0.3-0.14,0.32-0.16c-0.03,0.05-0.11,0.23-0.02,0.36
c0.01,0.02,0.02,0.03,0.04,0.05c0.02-0.09,0.07-0.18,0.13-0.23c0.04-0.04,0.09-0.07,0.15-0.06c0.11,0,0.2,0.1,0.19,0.21
c0,0.07-0.05,0.12-0.11,0.18c-0.02,0.02-0.03,0.04-0.05,0.06c0.11,0.02,0.22,0.01,0.27,0c0.33-0.07,0.59-0.35,0.66-1.05
c0.03-0.24,0.08-0.37,0.14-0.43c0.11-0.13,0.37-0.22,0.37-0.22s0.11,0.28-0.08,0.49c0.66,0.11,0.75-0.93,0.75-0.93
s0.07,0.2,0.22,0.34c0.15,0.13,0.35,0.16,0.35,0.16c-0.12-0.74,0.17-0.99,0.31-1.03c0.28-0.07,0.27,0.27,0.27,0.27
s0.24-0.16,0.19-0.49c-0.03-0.19-0.13-0.37-0.13-0.37s0.23-0.11,0.36,0.2c0,0,0.25-0.4,0.02-0.62c0,0,0.05-0.04,0.12-0.01
c0.07,0.02,0.11,0.09,0.11,0.09S35.1,21.5,34.57,21.24z M29.84,23.9c0.1-0.05,0.13-0.18,0.08-0.27c-0.03-0.05-0.08-0.09-0.13-0.1
c-0.06-0.02-0.14-0.01-0.21,0c-0.03,0.01-0.06,0.01-0.08,0.02c-0.33,0.11-0.37,0.38-0.39,0.53c0,0,0.15-0.2,0.44-0.19
c0.03,0,0.06,0,0.09,0.01C29.71,23.92,29.78,23.93,29.84,23.9z M30.04,24.95c0.06-0.09,0.04-0.22-0.05-0.28
c-0.05-0.03-0.11-0.04-0.16-0.03c-0.05,0.01-0.11,0.04-0.16,0.08c-0.03,0.02-0.06,0.05-0.09,0.07c-0.24,0.25-0.16,0.51-0.11,0.65
c0,0,0.05-0.26,0.33-0.38c0.02-0.01,0.04-0.01,0.06-0.02C29.93,25.03,29.99,25.01,30.04,24.95z M31.22,25.4
c0-0.11-0.08-0.2-0.19-0.21c-0.06,0-0.11,0.02-0.15,0.06c-0.06,0.06-0.1,0.15-0.13,0.23c0,0.01-0.01,0.02-0.01,0.03
c-0.08,0.34,0.13,0.52,0.24,0.61c0,0-0.09-0.24,0.08-0.48c0.01-0.02,0.03-0.04,0.05-0.06C31.17,25.52,31.22,25.47,31.22,25.4z
M0,9.98v24.79c0,5.06,1.58,9.44,4.7,13c3.27,3.73,8.18,6.5,14.59,8.23c6.42-1.73,11.33-4.5,14.6-8.23c3.12-3.56,4.7-7.94,4.7-13
V9.98H0z M37.62,34.76c0,9.89-6.38,16.88-18.33,20.2C7.35,51.65,1.02,44.66,1.02,34.76v-23.8h36.61V34.76z M18.94,3.73
c-0.52,0-0.88,0.35-0.92,0.86h1.85C19.8,4.1,19.49,3.73,18.94,3.73z M28.57,2.68l-0.76,2.14h1.54l-0.74-2.14H28.57z M0,8.47h38.59V0
H0V8.47z M11.21,2.54H9.86v4.52H8.53V2.54H7.04V1.39h4.63L11.21,2.54z M16.24,7.05h-1.23V4.86c0-0.25-0.02-0.42-0.09-0.57
c-0.09-0.2-0.26-0.35-0.58-0.35c-0.4,0-0.8,0.29-1.01,0.47v2.64h-1.23V1.39h1.23v1.95c0.37-0.29,0.78-0.5,1.37-0.5
c0.71,0,1.21,0.33,1.42,0.9c0.08,0.21,0.12,0.45,0.12,0.88V7.05z M20.98,5.39h-2.97c0.07,0.54,0.45,0.88,1.21,0.88
c0.62,0,1.16-0.14,1.47-0.26l-0.33,0.95c-0.29,0.12-0.69,0.22-1.29,0.22c-1.37,0-2.18-0.84-2.18-2.17c0-1.3,0.8-2.16,2.08-2.16
C20.34,2.84,21.13,3.93,20.98,5.39z M23.66,4.98v2.07h-1.32V1.39h4.39l-0.43,1.15h-2.64v1.26h2.17l-0.45,1.19H23.66z M30.13,7.05
l-0.37-1.12h-2.33l-0.4,1.12H25.7l2.15-5.66h1.54l2.11,5.66H30.13z"/>
</svg>
