<svg xmlns="http://www.w3.org/2000/svg" width="85px" height="80px" viewBox="0 0 85 80">
  <path d="m81.7 23.04c6.06 14.67 3.06 36.12-11.09 47.6-14.09 11.48-39.27 12.84-54.31 1.63-15.1-11.2-20-35.04-13.47-50.45s24.63-22.27 41.17-21.8c16.61.48 31.65 8.36 37.7 23.02z" fill="#edf24b"></path>
  <path d="m78.16 35.4c3.67 16.15-1.56 30.26-12.03 38.06s-26.16 9.23-39.75.95-25-26.12-20.86-42.94 23.99-32.56 40.23-31.41c16.18 1.15 28.75 19.27 32.41 35.34z" fill="#8df2e0"></path>
  <path d="m72.87 24.98c4.25 11.64 1.13 27.12-11.04 37.7-12.16 10.58-33.43 16.2-44.39 8.2-11.03-8.07-11.76-29.76-5.45-44.18 6.31-14.48 19.8-21.62 32.36-21.36 12.57.33 24.2 8.07 28.52 19.64z" fill="#f24b88"></path>
  <path d="m65.92 46.46c.9-.81 2.39-.6 3.05.35.03.05.07.1.1.15.99 1.45-.98 3.22-2.59 2.33-.05-.03-.11-.06-.17-.09-1.06-.59-1.29-1.93-.39-2.74zm-63.72-21.67c17.61-4.3 36.48-10.46 55.02-8.37 1.86.21 1.98 2.64 0 2.68-8.91.19-17.65.87-26.26 2.14-.03.08-.07.16-.11.23-.02 11.57 1.12 24.28 4.17 35.7 2.07-3.42 4.27-6.77 6.44-10.15 1-1.56 2.81-3.74 4.5-6.07-.38-.91-.39-1.57-.5-3.47-.16-2.7 3.12-6.46 6.04-7.04 1.58-.31 2.64.83 2.42 2.16-.42 2.49-1.88 5.02-3.53 7.45 1.78 3.4 5.85 7.09 6.63 8.97 1.05 2.53 1.65 4.86.01 7.37-1.53 2.34-5.36 2.97-7.57 1.34-.65-.48-.78-1.37-.61-2.06.54-2.15 2.2-3.14 4.22-3.99-1.55-2.34-3.18-5.46-4.35-6.66-.34-.4-.68-.8-1.01-1.2-.56.78-1.09 1.55-1.55 2.28-3.52 5.56-6.77 11.22-10.02 16.91-.81 1.42-3.22 1-3.66-.43-4.03-12.86-5.17-27.37-5.35-40.75-8.43 1.42-16.76 3.41-25.04 6.06-1.79.57-2.94-1.95-1.28-2.73l.45-.21c.32-.14.64-.19.94-.16z" fill="#ffffff"></path>
</svg>