<svg xmlns="http://www.w3.org/2000/svg" width="85" height="80" viewBox="0 0 85 80">
  <path fill="#EDF24B" d="M81.7,23.04c6.06,14.67,3.06,36.12-11.09,47.6C56.52,82.12,31.34,83.48,16.3,72.27C1.2,61.07-3.7,37.23,2.83,21.82S27.46-0.45,44,0.02C60.61,0.5,75.65,8.38,81.7,23.04z"/>
  <path fill="#8DF2E0" d="M78.16,35.4c3.67,16.15-1.56,30.26-12.03,38.06s-26.16,9.23-39.75,0.95s-25-26.12-20.86-42.94S29.51-1.09,45.75,0.06C61.93,1.21,74.5,19.33,78.16,35.4z"/>
  <path fill="#F24B88" d="M72.87,24.98C77.12,36.62,74,52.1,61.83,62.68c-12.16,10.58-33.43,16.2-44.39,8.2C6.41,62.81,5.68,41.12,11.99,26.7C18.3,12.22,31.79,5.08,44.35,5.34C56.92,5.67,68.55,13.41,72.87,24.98z"/>
  <path fill="#FFFFFF" d="M65.92,46.46c0.9-0.81,2.39-0.6,3.05,0.35c0.03,0.05,0.07,0.1,0.1,0.15c0.99,1.45-0.98,3.22-2.59,2.33c-0.05-0.03-0.11-0.06-0.17-0.09C65.25,48.61,65.02,47.27,65.92,46.46z M2.2,24.79c17.61-4.3,36.48-10.46,55.02-8.37c1.86,0.21,1.98,2.64,0,2.68c-8.91,0.19-17.65,0.87-26.26,2.14c-0.03,0.08-0.07,0.16-0.11,0.23c-0.02,11.57,1.12,24.28,4.17,35.7c2.07-3.42,4.27-6.77,6.44-10.15c1-1.56,2.81-3.74,4.5-6.07c-0.38-0.91-0.39-1.57-0.5-3.47c-0.16-2.7,3.12-6.46,6.04-7.04c1.58-0.31,2.64,0.83,2.42,2.16c-0.42,2.49-1.88,5.02-3.53,7.45c1.78,3.4,5.85,7.09,6.63,8.97c1.05,2.53,1.65,4.86,0.01,7.37c-1.53,2.34-5.36,2.97-7.57,1.34c-0.65-0.48-0.78-1.37-0.61-2.06c0.54-2.15,2.2-3.14,4.22-3.99c-1.55-2.34-3.18-5.46-4.35-6.66c-0.34-0.4-0.68-0.8-1.01-1.2c-0.56,0.78-1.09,1.55-1.55,2.28c-3.52,5.56-6.77,11.22-10.02,16.91c-0.81,1.42-3.22,1-3.66-0.43c-4.03-12.86-5.17-27.37-5.35-40.75c-8.43,1.42-16.76,3.41-25.04,6.06c-1.79,0.57-2.94-1.95-1.28-2.73c0.15-0.07,0.3-0.14,0.45-0.21C1.58,24.81,1.9,24.76,2.2,24.79z"/>
</svg>
