<svg xmlns="http://www.w3.org/2000/svg" width="588" height="392" viewBox="0 0 588 392">

<path fill="#101115" d="M489.8,206.6h-6.9l-5.3-8.2v8.2H472v-21.3h8.6c1.2,0,2.2,0.2,3.1,0.5c0.9,0.3,1.6,0.8,2.2,1.4
c0.6,0.6,1,1.3,1.3,2.1c0.3,0.8,0.4,1.6,0.4,2.5c0,1.6-0.4,2.9-1.2,3.9c-0.8,1-1.9,1.7-3.5,2L489.8,206.6z M477.6,194.9h1
c1.1,0,1.9-0.2,2.5-0.7c0.6-0.5,0.9-1.1,0.9-1.9s-0.3-1.5-0.9-1.9c-0.6-0.5-1.4-0.7-2.5-0.7h-1V194.9z M468,190.1h-6.6v3.6h6.2v4.7
h-6.2v3.7h6.6v4.7h-12.1v-21.3H468V190.1z M433.6,185.4h8.2c1.5,0,2.8,0.3,4.1,0.9c1.3,0.6,2.4,1.4,3.3,2.3c1,1,1.7,2.1,2.2,3.4
c0.5,1.3,0.8,2.6,0.8,4c0,1.4-0.3,2.7-0.8,4c-0.5,1.3-1.3,2.4-2.2,3.4c-1,1-2.1,1.8-3.3,2.3c-1.3,0.6-2.6,0.9-4.1,0.9h-8.2V185.4z
M439.2,201.9h1.3c1,0,1.8-0.2,2.6-0.5c0.8-0.3,1.4-0.7,1.9-1.2c0.5-0.5,0.9-1.2,1.2-1.9c0.3-0.7,0.4-1.5,0.4-2.4
c0-0.8-0.1-1.6-0.4-2.4c-0.3-0.7-0.7-1.4-1.2-1.9c-0.5-0.5-1.2-0.9-1.9-1.2c-0.8-0.3-1.6-0.5-2.5-0.5h-1.3V201.9z M404.8,185.4
l3.7,13.7l4.5-13.7h4.4l4.5,13.7l3.7-13.7h5.8l-6.4,21.3h-5.7l-4.2-12.3l-4.2,12.3h-5.7l-6.4-21.3H404.8z M374.4,196
c0-1.6,0.3-3,0.9-4.4c0.6-1.4,1.4-2.6,2.4-3.6c1-1,2.3-1.8,3.7-2.4c1.4-0.6,3-0.9,4.8-0.9c1.7,0,3.3,0.3,4.8,0.9
c1.5,0.6,2.7,1.4,3.7,2.4c1,1,1.9,2.2,2.4,3.6c0.6,1.4,0.9,2.8,0.9,4.4s-0.3,3-0.9,4.4c-0.6,1.4-1.4,2.6-2.4,3.6
c-1,1-2.3,1.8-3.7,2.4c-1.5,0.6-3,0.9-4.8,0.9c-1.7,0-3.3-0.3-4.8-0.9c-1.4-0.6-2.7-1.4-3.7-2.4c-1-1-1.8-2.2-2.4-3.6
C374.7,199,374.4,197.6,374.4,196z M380.2,196c0,0.8,0.2,1.6,0.5,2.3c0.3,0.7,0.8,1.3,1.3,1.9s1.2,0.9,1.9,1.2
c0.7,0.3,1.5,0.4,2.3,0.4c0.8,0,1.6-0.1,2.3-0.4c0.7-0.3,1.4-0.7,1.9-1.2c0.6-0.5,1-1.1,1.3-1.9c0.3-0.7,0.5-1.5,0.5-2.3
s-0.2-1.6-0.5-2.3c-0.3-0.7-0.8-1.3-1.3-1.9c-0.6-0.5-1.2-0.9-1.9-1.2c-0.7-0.3-1.5-0.4-2.3-0.4c-0.8,0-1.6,0.1-2.3,0.4
c-0.7,0.3-1.4,0.7-1.9,1.2s-1,1.1-1.3,1.9C380.4,194.4,380.2,195.2,380.2,196z M361.7,206.6h-5.5v-21.3h8.8c2.4,0,4.2,0.6,5.5,1.9
c1.3,1.2,1.9,3,1.9,5.2s-0.6,4-1.9,5.2c-1.3,1.2-3.1,1.9-5.5,1.9h-3.3V206.6z M361.7,195.1h1.8c2,0,3.1-0.9,3.1-2.6
c0-1.8-1-2.6-3.1-2.6h-1.8V195.1z"/>

<path fill="#FF1443" d="M326.4,196l29.8,30.1h-27.8L312.5,210l-15.9,16.1h-27.8l29.8-30.1l-29.8-30.1h27.8l15.9,16.1
l15.9-16.1h27.8L326.4,196z M247.3,165.9v6c-5-5.2-11.2-7.9-18.7-7.9c-4.5,0-8.6,0.8-12.3,2.5c-3.7,1.7-6.9,4-9.5,6.9
c-2.7,2.9-4.8,6.3-6.2,10.2c0,0,0,0.1,0,0.1c-0.2-2.6-0.7-4.8-1.4-6.8c-1.1-2.8-2.5-5.1-4.3-6.9c-1.8-1.8-4-3.1-6.5-3.9
c-2.5-0.8-5.2-1.2-8-1.2c-8.9,0-15.7,3.8-20.5,11.4c-4.7-7.5-11.6-11.3-20.5-11.3c-7.2,0-13.8,2.8-19.6,8.3v-7.4H98.2v60.2h21.3
v-36.2c0-5.3,4.3-9.5,9.5-9.5c5.3,0,9.5,4.3,9.5,9.5v36.2H160V190c0-5.3,4.3-9.6,9.6-9.6s9.6,4.3,9.6,9.6v36.1h21.3v-17.4
c1.5,3.9,3.6,7.2,6.4,10.1c2.7,2.9,6,5.1,9.7,6.8c3.7,1.6,7.7,2.4,12.1,2.4c7.8,0,13.9-2.9,18.5-8.6v6.7h21.5v-60.2H247.3z
M246.9,201.3c-0.7,1.6-1.7,3.1-2.9,4.3c-1.2,1.3-2.7,2.2-4.4,2.9c-1.7,0.7-3.5,1.1-5.4,1.1c-2,0-3.8-0.4-5.5-1.1
c-1.7-0.7-3.1-1.7-4.4-2.9c-1.2-1.3-2.2-2.7-2.9-4.4c-0.7-1.7-1.1-3.5-1.1-5.5c0-1.9,0.4-3.6,1.1-5.2c0.7-1.6,1.7-3,2.9-4.3
c1.2-1.3,2.7-2.2,4.4-2.9c1.7-0.7,3.5-1.1,5.5-1.1c1.9,0,3.7,0.4,5.4,1.1c1.7,0.7,3.1,1.7,4.4,2.9c1.2,1.3,2.2,2.7,2.9,4.4
c0.7,1.7,1.1,3.5,1.1,5.3C248,197.9,247.6,199.7,246.9,201.3z"/>
</svg>
