<svg height="25" viewBox="0 0 25 25" width="25" xmlns="http://www.w3.org/2000/svg"><path d="m20.67 5.84c0 .83-.67 1.5-1.5 1.5s-1.5-.67-1.5-1.5.67-1.5 1.5-1.5c.83.01 1.5.68 1.5 1.5zm-8.17.26c3.54 0 6.42 2.87 6.42 6.4 0 3.54-2.87 6.4-6.42 6.4-3.54 0-6.42-2.87-6.42-6.4 0-3.54 2.88-6.4 6.42-6.4zm0 10.56c2.3 0 4.17-1.86 4.17-4.16s-1.87-4.16-4.17-4.16-4.17 1.86-4.17 4.16 1.87 4.16 4.17 4.16zm0-14.38c-3.34 0-3.73.01-5.05.07-1.22.05-1.88.26-2.32.43-.58.23-1 .5-1.44.93-.43.44-.7.85-.93 1.43-.17.44-.37 1.1-.43 2.32-.06 1.32-.07 1.71-.07 5.04s.01 3.72.07 5.04c.06 1.22.26 1.88.43 2.32.23.58.5 1 .93 1.43.44.44.85.71 1.44.93.44.17 1.1.37 2.32.43 1.32.06 1.71.07 5.05.07s3.73-.01 5.05-.07c1.22-.06 1.88-.26 2.32-.43.58-.23 1-.5 1.44-.93.44-.44.71-.85.93-1.43.17-.44.37-1.1.43-2.32.06-1.32.07-1.71.07-5.04s-.01-3.72-.07-5.04c-.06-1.22-.26-1.88-.43-2.32-.23-.58-.5-1-.93-1.43-.44-.44-.86-.71-1.44-.93-.44-.17-1.1-.37-2.32-.43-1.32-.06-1.71-.07-5.05-.07zm0-2.25c3.39 0 3.82.01 5.15.08 1.33.06 2.24.27 3.03.58.83.31 1.52.74 2.22 1.43.69.69 1.12 1.39 1.44 2.21.31.79.52 1.7.58 3.03s.08 1.75.08 5.14-.01 3.81-.08 5.14c-.06 1.33-.27 2.23-.58 3.03-.32.82-.75 1.52-1.44 2.21s-1.39 1.12-2.21 1.44c-.79.31-1.7.52-3.03.58s-1.76.07-5.15.07-3.82-.01-5.15-.07-2.24-.27-3.03-.58c-.84-.32-1.53-.75-2.23-1.44-.69-.69-1.12-1.39-1.44-2.21-.31-.79-.52-1.7-.58-3.03-.06-1.33-.08-1.75-.08-5.14s.01-3.81.08-5.14c.06-1.33.27-2.23.58-3.03.32-.82.75-1.51 1.44-2.21.7-.69 1.39-1.12 2.21-1.44.79-.31 1.7-.52 3.03-.58 1.34-.06 1.77-.07 5.16-.07z" fill="#fafafa"/></svg>