<svg height="25" viewBox="0 0 25 25" width="25" xmlns="http://www.w3.org/2000/svg"><path d="m23.15 0h-21.3c-1.02 0-1.85.81-1.85 1.8v21.4c0 1 .83 1.8 1.85 1.8h21.3c1.02 0 1.85-.81 1.85-1.8v-21.4c0-.99-.83-1.8-1.85-1.8zm-15.74 21.3h-3.7v-11.93h3.71v11.93zm-1.85-13.56c-1.19 0-2.15-.96-2.15-2.15s.96-2.15 2.15-2.15 2.15.96 2.15 2.15-.96 2.15-2.15 2.15zm15.74 13.56h-3.7v-5.8c0-1.38-.03-3.16-1.93-3.16-1.93 0-2.23 1.51-2.23 3.06v5.9h-3.7v-11.93h3.56v1.63h.05c.49-.94 1.7-1.93 3.51-1.93 3.75 0 4.45 2.47 4.45 5.68v6.55z" fill="#fafafa"/></svg>