<svg xmlns="http://www.w3.org/2000/svg" width="110" height="53" viewBox="0 0 110 53">
<path fill="#0b0c0c" d="M53.74,46.92c0.07-1.42,0.47-2.84,1.18-4.25l0.07-0.16c-0.39,0-0.93-0.07-1.81-0.07c-0.93,0-1.56,0-1.95,0.07
c-0.47,0-0.79,0.09-1.02,0.09c-0.47,0-0.86-0.23-1.25-0.63c0-0.09-0.09-0.09-0.16-0.16l-0.39-0.56L36.09,24.72l-0.47-0.63
c-0.16-0.23-0.39-0.32-0.55-0.32c-0.32,0-0.39,0.23-0.39,0.72v10.94c0,2.28,0.23,3.77,0.7,4.56c0.48,0.72,1.57,1.26,3.31,1.65
c0.31,0.09,0.54,0.23,0.63,0.39c0,0.07,0,0.16,0.07,0.23c0,0.39-0.16,0.63-0.55,0.56c-0.23,0-0.63-0.09-1.25-0.16
c-0.47-0.07-6.51-0.31-7.14-0.39h-2.9c-2.11,0-3.45,0.09-3.99,0.16c-0.32,0.07-0.55,0.16-0.71,0.16c-0.39,0-0.54-0.23-0.63-0.63
c0-0.32,0.16-0.56,0.55-0.63l0.7-0.25c0.79-0.15,1.18-0.86,1.18-2.05c0-1.1-0.47-3.14-1.41-6.29l-1.18-3.93
c-0.31-1.11-0.54-1.74-0.77-1.89c-0.16-0.16-0.71-0.25-1.57-0.25h-8.32c-1.09,0-1.81,0.09-2.11,0.39c-0.23,0.23-0.63,1.02-1.09,2.37
l-1.5,4.4c-0.7,1.97-1.02,3.47-1.02,4.49c0,0.95,0.16,1.65,0.55,2.05c0.39,0.39,1.09,0.79,2.11,1.1c0.39,0.09,0.63,0.32,0.71,0.63
v0.09c0,0.31-0.23,0.47-0.63,0.47H7.61l-2.2-0.16c-0.7,0-1.56-0.07-2.51-0.07c-0.47,0-0.79,0-1.02,0.07
c-0.79,0.16-1.18,0.16-1.25,0.16C0.23,42.66,0,42.5,0,42.11v-0.07c0-0.31,0.16-0.56,0.39-0.63l0.86-0.32
c0.31-0.07,0.7-0.63,1.25-1.41C3.06,38.8,3.45,37.94,3.76,37l0.71-1.97l4.15-12.05l7.61-22.04c0.16-0.63,0.39-0.86,0.63-0.86
c0.23,0,0.47,0.31,0.63,0.86l6.59,22.04l3.22,10.87l0.55,1.65c0.7,2.44,1.33,3.93,1.81,4.49c0.15,0.16,0.38,0.39,0.63,0.56
c0.07-0.16,0.23-0.39,0.31-0.63c0.39-1.02,0.55-2.84,0.55-5.35V8.97c0-2.12-0.16-3.61-0.55-4.49c-0.39-0.86-1.02-1.42-2.04-1.65
l-1.09-0.31c-0.39-0.09-0.63-0.32-0.63-0.63c0-0.39,0.23-0.63,0.63-0.63c0.23,0,0.47,0,0.86,0.07c0.79,0.16,1.97,0.16,3.69,0.16
h0.86l1.73-0.09h1.17c0.63-0.07,1.02-0.15,1.11-0.15c0.39,0,0.54,0.15,0.54,0.54c0,0.23-0.15,0.48-0.54,0.72
C35.93,3.06,35.3,3.7,35.07,4.4c-0.23,0.7-0.39,2.05-0.39,4.09v11.73c0,0.39,0.07,0.63,0.23,0.63l0.39-0.32l0.32-0.38l9.81-11.49
C46.92,6.92,47.7,5.5,47.7,4.4c0-0.95-0.55-1.49-1.65-1.73c-0.71-0.16-1.02-0.39-1.02-0.72c0-0.39,0.23-0.63,0.7-0.63
c0.16,0,0.39,0,0.63,0.07c0.63,0.09,1.34,0.09,2.2,0.09l2.11,0.07h1.73c0.93,0,1.56,0,1.88-0.07c0.39-0.09,0.54-0.16,0.7-0.16
c0.39,0,0.63,0.16,0.71,0.55c0,0.31-0.39,0.54-1.11,0.79c-1.41,0.47-3.99,2.98-7.92,7.55l-7.85,9.3c-0.31,0.38-0.47,0.7-0.54,0.94
c0,0.32,0.15,0.72,0.54,1.26l0.95,1.34l10.99,14.96c1.25,1.73,2.67,2.82,4.15,3.22l0.79,0.23c0.54-0.78,1.09-1.33,1.72-1.65
c-4.39-4.4-6.59-9.99-6.75-16.76v-0.79c0-5.67,1.25-10.47,3.77-14.41c2.97-4.72,7.13-7.09,12.46-7.09c4.79,0,8.64,1.97,11.62,5.91
c2.99,3.93,4.47,9.05,4.47,15.27v1.11c-0.07,3.61-0.79,6.92-2.04,9.92c-1.41,3.31-3.29,5.91-5.73,7.72
c-0.79,0.54-1.57,1.02-2.51,1.41c-0.95,0.39-1.88,0.79-2.99,1.02c1.57,1.02,2.59,1.81,3.22,2.29l2.11,1.8l0.32,0.32l1.41,1.18
c1.33,1.1,2.43,1.65,3.29,1.65c1.25,0,2.43-0.32,3.37-1.02c0.32-0.16,0.48-0.32,0.63-0.32c0.23,0,0.39,0.16,0.39,0.39
c0,0.7-0.7,1.49-2.19,2.28c-1.5,0.79-2.91,1.18-4.24,1.18c-1.81,0-4.01-0.95-6.51-2.84c-1.65-1.26-2.83-2.12-3.45-2.6
c-0.23-0.15-0.39-0.31-0.47-0.38l-3.85-2.68c-2.27-1.58-3.92-2.37-5.02-2.37c-0.95,0-1.81,0.47-2.59,1.49
c-0.79,0.95-1.25,2.21-1.41,3.55c0,0.15,0,0.23-0.07,0.38c-0.09,0.48-0.32,0.72-0.48,0.72c-0.31,0-0.47-0.16-0.54-0.47
C53.67,47.46,53.74,47.15,53.74,46.92z M20.08,21.88l-3.61-11.8l-0.16-0.64c-0.15-0.63-0.38-0.94-0.63-0.94
c-0.07,0-0.23,0.16-0.39,0.55l-4.46,12.9c-0.16,0.48-0.25,0.79-0.32,1.02v0.09c0,0.54,0.39,0.79,1.02,0.79h0.63h6.91
c0.79,0,1.18-0.25,1.18-0.72C20.32,22.67,20.16,22.27,20.08,21.88z M54.37,22.9c0.47,5.75,2.2,10.4,5.17,13.85
c2.67,3.16,5.65,4.72,8.87,4.72c3.37,0,6.12-1.57,8.16-4.64c2.04-3.07,3.13-7.17,3.13-12.12V22.9c-0.23-5.43-1.65-10.08-4.08-13.94
c-2.74-4.33-6.12-6.54-10.04-6.54c-3.38,0-6.05,1.58-8.16,4.72c-2.04,3.16-3.13,7.25-3.13,12.37C54.21,19.76,54.29,22.43,54.37,22.9
z M85.35,22.9l7.62-22.04C93.12,0.23,93.37,0,93.6,0c0.23,0,0.47,0.31,0.63,0.86l6.59,22.04l3.22,10.87l0.54,1.65
c0.71,2.44,1.34,3.93,1.81,4.49c0.47,0.54,1.41,1.02,2.9,1.42c0.48,0.15,0.71,0.39,0.71,0.7c0,0.32-0.23,0.47-0.63,0.47
c-0.16,0-0.39,0-0.87-0.07c-0.77-0.07-2.19-0.16-4.23-0.16c-2.13,0-3.45,0.09-4.01,0.16c-0.31,0.07-0.54,0.16-0.7,0.16
c-0.39,0-0.55-0.23-0.55-0.63c0-0.32,0.16-0.56,0.55-0.63l0.7-0.25c0.79-0.15,1.18-0.86,1.18-2.05c0-1.1-0.47-3.14-1.41-6.29
l-1.18-3.93c-0.31-1.11-0.54-1.74-0.77-1.89c-0.16-0.16-0.71-0.25-1.57-0.25h-8.32c-1.09,0-1.81,0.09-2.11,0.39
c-0.23,0.23-0.63,1.02-1.09,2.37l-1.5,4.4c-0.7,1.97-1.02,3.47-1.02,4.49c0,0.95,0.16,1.65,0.55,2.05c0.39,0.39,1.09,0.79,2.11,1.1
c0.39,0.09,0.63,0.32,0.71,0.63v0.09c0,0.31-0.16,0.47-0.63,0.47h-0.79l-2.2-0.16c-0.7,0-1.57-0.07-2.51-0.07
c-0.47,0-0.79,0-1.02,0.07c-0.79,0.16-1.18,0.16-1.25,0.16c-0.39,0-0.63-0.16-0.63-0.55v-0.07c0-0.31,0.15-0.56,0.39-0.63l0.86-0.32
c0.31-0.07,0.7-0.63,1.25-1.41c0.55-0.88,0.95-1.74,1.25-2.68l0.71-1.97L85.35,22.9z M96.74,21.88l-3.61-11.8l-0.15-0.64
c-0.16-0.63-0.39-0.94-0.55-0.94c-0.07,0-0.23,0.16-0.39,0.55l-4.47,12.9c-0.16,0.48-0.23,0.79-0.31,1.02v0.09
c0,0.54,0.39,0.79,1.02,0.79h0.63h6.9c0.79,0,1.18-0.25,1.18-0.72C96.97,22.67,96.81,22.27,96.74,21.88z"/></svg>