<svg xmlns="http://www.w3.org/2000/svg" width="130" height="26" viewBox="0 0 130 26">
<path fill="#0b0c0c" d="M106.22,0.08h-19.9v3.61h7.26v22.18h4.93V3.69h6.4L106.22,0.08z M60,12.97h-2.63V3.81H60
c3.55,0,4.56,1.58,4.56,4.56C64.56,11.35,63.55,12.97,60,12.97z M60.54,0.08h-8.11v25.79h4.93v-9.55h3.17
c6.53,0,9.33-3.88,9.33-7.94C69.86,4.32,67.07,0.08,60.54,0.08z M75.66,25.87h4.93V0.08h-4.93V25.87z M12.62,3.3
c-2.47,0-4.52,1.09-5.77,3.01c-1,1.52-1.51,3.63-1.51,6.61c0,3.09,0.38,4.83,1.13,6.25c1.25,2.4,3.64,3.56,6.44,3.56
c1.09,0,3.6-0.16,6.64-1.13l-1.36,3.62C16.29,25.7,14.3,26,12.46,26c-3.84,0-6.9-1.27-9.15-3.63C1.13,20.08,0,17.03,0,13.4
c0-3.01,0.63-5.52,1.92-7.63C4.1,2.18,8.07,0,12.58,0c2.8,0,5.48,0.73,7.19,1.96l-1.21,3.22C17.02,4.21,14.93,3.3,12.62,3.3z
M31.25,16.09l3.62-9.65l3.61,9.65H31.25z M37.86,0.08h-5.04l-9.41,25.79h4.45l2.11-6.28h9.81l2.12,6.28h5.37L37.86,0.08z
M113.98,16.09l3.62-9.65l3.61,9.65H113.98z M120.58,0.08h-5.04l-9.41,25.79h4.45l2.11-6.25h9.81l2.13,6.25H130L120.58,0.08z"/></svg>