<svg xmlns="http://www.w3.org/2000/svg" width="174" height="31" viewBox="0 0 174 31">
<path fill="#0b0c0c" d="M54.76,8.27c-5.04,0-7.54,2.48-7.54,7.45c0,5.27,2.54,7.94,7.58,7.94c5.02,0,7.52-2.67,7.52-7.96
C62.32,10.75,59.8,8.27,54.76,8.27z M57.82,19.89c-0.67,1.03-1.71,1.55-3.06,1.55c-1.31,0-2.33-0.52-3.02-1.55
c-0.67-0.99-1-2.42-1-4.2c0-1.59,0.31-2.83,0.96-3.76c0.71-0.99,1.75-1.49,3.1-1.49s2.35,0.52,3.08,1.53
c0.62,0.89,0.92,2.14,0.92,3.73C58.8,17.52,58.46,18.9,57.82,19.89z M12.85,4.18c-3.52,0-6.54,1.24-9.06,3.76
C1.25,10.44,0,13.44,0,16.96c0,3.51,1.25,6.51,3.79,9.04c2.5,2.48,5.52,3.72,9.06,3.72c3.56,0,6.58-1.24,9.08-3.72
c2.54-2.52,3.79-5.52,3.79-9.04c0-3.52-1.25-6.51-3.79-9.02C19.43,5.42,16.41,4.18,12.85,4.18z M19.2,14.31
c-0.19,3.45-1.23,6.24-3.21,8.38c-1.89,2.07-4.27,3.1-7.04,3.1c-1.77,0-3.27-0.62-4.52-1.86c-1.35-1.34-2-3.04-2-5.11
c0-2.44,0.9-4.36,2.73-5.79c1.98-1.55,4.89-2.3,8.68-2.3l5.52,0.23L19.2,14.31z M40.12,21.09c1.73,0,3.14-0.33,4.27-1.05l-0.08,2.44
c-1.69,0.73-3.43,1.1-5.27,1.1c-4.62,0-6.91-2.69-6.91-8.07c0-2.54,0.81-4.47,2.44-5.79c1.25-0.99,2.75-1.51,4.48-1.51
c2.08,0,3.79,0.31,5.1,0.93v2.54c-1.08-0.64-2.44-0.99-4-0.99c-1.21,0-2.21,0.35-3.02,0.99c-1.04,0.87-1.56,2.17-1.56,3.91
c0,1.97,0.5,3.41,1.44,4.34C37.75,20.72,38.79,21.09,40.12,21.09z M77.83,13.34v10.01h-3.46l0.06-7.86c0-3-1.04-4.53-3.12-4.53
c-1.04,0-1.91,0.39-2.64,1.14c-0.79,0.83-1.17,1.9-1.17,3.21v8.04h-3.54V8.58h3.39l0.15,2.27c1.04-1.78,2.67-2.69,4.89-2.69
C76.04,8.17,77.83,9.91,77.83,13.34z M150.33,8.93c-2.02,0-3.68,0.62-5,1.86c-1.39,1.34-2.08,3.25-2.08,5.63
c0,2.23,0.52,3.99,1.56,5.19c0.98,1.14,2.25,1.7,3.81,1.7c1.33,0,2.48-0.45,3.43-1.34c0.71-0.66,1.12-1.24,1.23-1.8v3.39
c0,1.26-0.35,2.34-1.02,3.21c-0.79,0.99-1.94,1.47-3.43,1.47c-2.04,0-3.54-0.41-4.48-1.2v2.96c1.08,0.66,2.89,1.01,5.5,1.01
c2.04,0,3.66-0.52,4.89-1.59c1.35-1.14,2-2.85,2-5.13V9.14l-2.98,0.15L150.33,8.93z M153.28,16.34c0,1.34-0.35,2.52-1.02,3.45
c-0.69,0.89-1.52,1.34-2.5,1.34c-2,0-3.02-1.49-3.02-4.45c0-1.7,0.5-3.04,1.44-4.09c0.85-1.03,1.89-1.55,3.12-1.55
c0.83,0,1.48,0.1,1.98,0.27V16.34z M87.59,21.13c1.73,0,3.14-0.35,4.23-1.07l-0.04,2.46c-1.69,0.72-3.43,1.1-5.27,1.1
c-4.58,0-6.87-2.69-6.87-8.07c0-2.54,0.79-4.49,2.4-5.79c1.29-0.99,2.77-1.51,4.48-1.51c2.08,0,3.79,0.31,5.06,0.93v2.54
c-1.06-0.66-2.39-0.99-3.96-0.99c-1.21,0-2.21,0.33-3.02,0.99c-1,0.87-1.52,2.17-1.52,3.89c0,1.97,0.46,3.41,1.39,4.34
C85.26,20.76,86.3,21.13,87.59,21.13z M141.23,13.34v10.01h-3.46l0.06-7.86c0-3-1.04-4.53-3.12-4.53c-1.04,0-1.92,0.39-2.65,1.14
c-0.79,0.83-1.17,1.9-1.17,3.21v8.04h-3.54V8.58h3.39l0.15,2.27c1.04-1.78,2.67-2.69,4.89-2.69
C139.44,8.17,141.23,9.91,141.23,13.34z M166.42,8.27c-5.02,0-7.52,2.48-7.52,7.45c0,5.27,2.52,7.94,7.56,7.94
c5.04,0,7.54-2.67,7.54-7.96C174,10.75,171.46,8.27,166.42,8.27z M169.48,19.89c-0.67,1.03-1.71,1.55-3.06,1.55
c-1.31,0-2.31-0.52-3.02-1.55c-0.65-0.99-1-2.42-1-4.2c0-1.59,0.31-2.83,0.98-3.76c0.69-0.99,1.73-1.49,3.08-1.49
c1.35,0,2.35,0.52,3.08,1.53c0.62,0.89,0.93,2.14,0.93,3.73C170.47,17.52,170.15,18.9,169.48,19.89z M109.31,13.42v9.99h-3.39v-8.13
c0-1.49-0.25-2.56-0.73-3.25c-0.52-0.66-1.33-0.99-2.4-0.99c-1.08,0-1.98,0.37-2.69,1.16c-0.69,0.81-1.04,1.8-1.04,3.08v8.13h-3.54
V0h3.54v10.9c0.92-1.76,2.5-2.65,4.83-2.65C107.5,8.25,109.31,9.97,109.31,13.42z M125.45,12.7c0-1.7-0.62-2.87-1.83-3.6
c-0.98-0.54-2.37-0.83-4.21-0.83c-2.08,0-3.89,0.41-5.41,1.24V12c1.71-1.03,3.29-1.55,4.79-1.55c1.1,0,1.92,0.19,2.39,0.52
c0.52,0.39,0.77,1.07,0.77,2.05v1.26l-2.69-0.06c-2.19,0-3.85,0.52-5.02,1.51c-1.02,0.91-1.54,2.07-1.54,3.56
c0,1.3,0.42,2.38,1.25,3.2c0.81,0.77,1.77,1.14,2.96,1.14c1.35,0,2.5-0.45,3.39-1.3l0.94-1.12l0.71-0.99l0.1,3.25h3.43
C125.45,22.17,125.4,18.59,125.45,12.7z M121.86,17.14c-0.02,1.26-0.44,2.34-1.17,3.12c-0.73,0.81-1.6,1.18-2.64,1.18
c-0.67,0-1.25-0.25-1.71-0.68c-0.52-0.52-0.75-1.14-0.75-1.94c0-0.89,0.33-1.61,1.04-2.17c0.73-0.58,1.79-0.85,3.23-0.85l2.08,0.1
L121.86,17.14z"/></svg>