<svg xmlns="http://www.w3.org/2000/svg" width="159" height="82" viewBox="0 0 159 82">
<path fill="#0b0c0c" d="M0,81.04h1.48V0H0V81.04z M8.89,43.97h4.33c4.2,0,6.06-2.38,6.06-6.6c0-4.06-2.17-6-6.06-6H8.89V43.97z
M10.56,32.77h2.83c3.09,0,4.2,1.82,4.2,4.82c0,4.64-3.09,4.96-4.24,4.96h-2.79V32.77z M27.03,41.07c-0.26,1.18-1.13,1.78-2.37,1.78
c-2,0-2.9-1.41-2.84-3h6.83c0.09-2.21-0.9-5.23-4.13-5.23c-2.49,0-4.29,2.01-4.29,4.75c0.09,2.79,1.47,4.8,4.38,4.8
c2.05,0,3.5-1.09,3.9-3.11H27.03z M21.82,38.53c0.11-1.39,1.04-2.58,2.61-2.58c1.48,0,2.56,1.15,2.63,2.58H21.82z M29.92,47.46h1.5
v-4.71h0.04c0.67,1.08,2.01,1.43,2.95,1.43c2.79,0,4.17-2.17,4.17-4.75c0-2.58-1.39-4.8-4.2-4.8c-1.25,0-2.42,0.44-2.91,1.45h-0.04
v-1.24h-1.5V47.46z M34.15,35.95c1.94,0,2.83,1.66,2.83,3.37c0,1.78-0.69,3.53-2.74,3.53c-2.07,0-2.88-1.66-2.88-3.46
C31.36,37.68,32.14,35.95,34.15,35.95z M47.97,42.76c-0.2,0.07-0.34,0.09-0.46,0.09c-0.48,0-0.48-0.32-0.48-1.02v-4.7
c0-2.14-1.78-2.51-3.43-2.51c-2.03,0-3.78,0.79-3.87,3.06h1.5c0.07-1.34,1.01-1.73,2.28-1.73c0.95,0,2.03,0.21,2.03,1.52
c0,1.13-1.41,1.02-3.07,1.34c-1.55,0.3-3.09,0.74-3.09,2.81c0,1.82,1.36,2.56,3.02,2.56c1.27,0,2.38-0.44,3.21-1.41
c0,0.99,0.49,1.41,1.27,1.41c0.48,0,0.81-0.09,1.08-0.25V42.76z M45.53,40.79c0,0.83-0.81,2.07-2.79,2.07
c-0.92,0-1.77-0.35-1.77-1.34c0-1.11,0.85-1.47,1.84-1.64c1.01-0.18,2.14-0.19,2.72-0.62V40.79z M48.99,43.97h1.5v-4.06
c0-2.31,0.88-3.69,3.3-3.69v-1.59c-1.62-0.05-2.63,0.67-3.36,2.14H50.4v-1.92h-1.41V43.97z M57.22,32.1h-1.5v2.74h-1.55v1.32h1.55
v5.81c0,1.68,0.62,1.99,2.17,1.99h1.15v-1.32h-0.69c-0.94,0-1.13-0.12-1.13-0.81v-5.67h1.82v-1.32h-1.82V32.1z M60.15,43.97h1.5
v-5.69c0-0.69,0.65-2.33,2.44-2.33c1.34,0,1.71,0.85,1.71,2.03v5.98h1.5v-5.69c0-1.41,0.94-2.33,2.38-2.33
c1.47,0,1.77,0.9,1.77,2.03v5.98h1.5v-6.69c0-1.89-1.22-2.65-3.04-2.65c-1.17,0-2.24,0.58-2.86,1.55c-0.37-1.11-1.4-1.55-2.51-1.55
c-1.25,0-2.28,0.53-2.95,1.55h-0.04v-1.34h-1.41V43.97z M81.09,41.07c-0.26,1.18-1.13,1.78-2.37,1.78c-2,0-2.9-1.41-2.84-3h6.83
c0.09-2.21-0.9-5.23-4.13-5.23c-2.49,0-4.29,2.01-4.29,4.75c0.09,2.79,1.47,4.8,4.38,4.8c2.05,0,3.5-1.09,3.9-3.11H81.09z
M75.88,38.53c0.11-1.39,1.04-2.58,2.61-2.58c1.48,0,2.56,1.15,2.63,2.58H75.88z M83.95,43.97h1.5v-5.16c0-1.64,0.88-2.86,2.7-2.86
c1.15,0,1.85,0.72,1.85,1.84v6.18h1.5v-6c0-1.96-0.74-3.34-3.14-3.34c-1.31,0-2.33,0.53-2.97,1.66h-0.04v-1.45h-1.41V43.97z
M95.36,32.1h-1.5v2.74h-1.55v1.32h1.55v5.81c0,1.68,0.62,1.99,2.17,1.99h1.15v-1.32h-0.69c-0.94,0-1.13-0.12-1.13-0.81v-5.67h1.82
v-1.32h-1.82V32.1z M9.26,62.51h1.5v-7.8h1.77v-1.32h-1.77v-1.27c0-0.8,0.42-1.03,1.15-1.03c0.27,0,0.58,0.04,0.85,0.13v-1.31
c-0.28-0.09-0.69-0.14-0.97-0.14c-1.64,0-2.52,0.78-2.52,2.26v1.36H7.72v1.32h1.54V62.51z M17.22,53.17c-2.89,0-4.43,2.1-4.43,4.78
c0,2.67,1.54,4.77,4.43,4.77c2.9,0,4.43-2.1,4.43-4.77C21.66,55.27,20.12,53.17,17.22,53.17z M17.22,61.4
c-1.57,0-2.84-1.24-2.84-3.44c0-2.22,1.27-3.46,2.84-3.46c1.57,0,2.84,1.24,2.84,3.46C20.07,60.17,18.79,61.4,17.22,61.4z
M22.98,62.52h1.5v-4.06c0-2.31,0.88-3.69,3.3-3.69v-1.59c-1.62-0.05-2.63,0.67-3.35,2.14h-0.04v-1.92h-1.41V62.52z M33.72,62.51
h8.76V61.1h-7.08v-4.36h6.55v-1.41h-6.55v-4.01h7.03v-1.41h-8.7V62.51z M43.71,62.52h1.5v-5.16c0-1.64,0.88-2.86,2.7-2.86
c1.15,0,1.85,0.73,1.85,1.84v6.18h1.5v-6c0-1.96-0.74-3.34-3.14-3.34c-1.31,0-2.33,0.53-2.97,1.66h-0.04v-1.45h-1.41V62.52z
M60.21,53.39h-1.57L56.14,61h-0.04l-2.56-7.61h-1.68l3.39,9.13h1.61L60.21,53.39z M61.2,51.74h1.5v-1.84h-1.5V51.74z M61.2,62.51
h1.5v-9.13h-1.5V62.51z M64.51,62.52h1.5v-4.06c0-2.31,0.88-3.69,3.3-3.69v-1.59c-1.62-0.05-2.63,0.67-3.36,2.14h-0.04v-1.92h-1.41
V62.52z M73.92,53.17c-2.9,0-4.43,2.1-4.43,4.78c0,2.67,1.54,4.77,4.43,4.77c2.89,0,4.43-2.1,4.43-4.77
C78.35,55.27,76.81,53.17,73.92,53.17z M73.92,61.4c-1.57,0-2.84-1.24-2.84-3.44c0-2.22,1.27-3.46,2.84-3.46
c1.57,0,2.84,1.24,2.84,3.46C76.76,60.17,75.49,61.4,73.92,61.4z M79.7,62.52h1.5v-5.16c0-1.64,0.88-2.86,2.7-2.86
c1.15,0,1.85,0.73,1.85,1.84v6.18h1.5v-6c0-1.96-0.74-3.34-3.14-3.34c-1.31,0-2.33,0.53-2.97,1.66h-0.04v-1.45H79.7V62.52z
M89.07,62.52h1.5v-5.69c0-0.69,0.65-2.33,2.44-2.33c1.34,0,1.71,0.85,1.71,2.03v5.99h1.5v-5.69c0-1.41,0.94-2.33,2.38-2.33
c1.47,0,1.77,0.9,1.77,2.03v5.99h1.5v-6.69c0-1.89-1.22-2.65-3.04-2.65c-1.17,0-2.24,0.58-2.86,1.55c-0.37-1.11-1.39-1.55-2.51-1.55
c-1.25,0-2.28,0.53-2.95,1.55h-0.04v-1.34h-1.41V62.52z M110.01,59.62c-0.27,1.18-1.13,1.78-2.37,1.78c-2,0-2.9-1.41-2.84-3h6.83
c0.09-2.21-0.9-5.23-4.13-5.23c-2.49,0-4.29,2.01-4.29,4.75c0.09,2.79,1.47,4.8,4.38,4.8c2.05,0,3.5-1.09,3.9-3.11H110.01z
M104.8,57.08c0.11-1.39,1.04-2.58,2.61-2.58c1.48,0,2.56,1.15,2.63,2.58H104.8z M112.86,62.52h1.5v-5.16c0-1.64,0.88-2.86,2.7-2.86
c1.15,0,1.85,0.73,1.85,1.84v6.18h1.5v-6c0-1.96-0.74-3.34-3.14-3.34c-1.31,0-2.33,0.53-2.97,1.66h-0.04v-1.45h-1.41V62.52z
M124.27,50.65h-1.5v2.74h-1.55v1.32h1.55v5.81c0,1.68,0.62,2,2.17,2h1.15v-1.33h-0.69c-0.94,0-1.13-0.12-1.13-0.81v-5.67h1.82
v-1.32h-1.82V50.65z M8.89,81.06h1.68v-5.77h5.79v-1.41h-5.79v-4.01h6.6v-1.41H8.89V81.06z M21.98,71.72c-2.9,0-4.43,2.1-4.43,4.78
c0,2.67,1.54,4.77,4.43,4.77c2.9,0,4.43-2.1,4.43-4.77C26.41,73.82,24.87,71.72,21.98,71.72z M21.98,79.95
c-1.57,0-2.84-1.24-2.84-3.44c0-2.23,1.27-3.46,2.84-3.46c1.57,0,2.84,1.24,2.84,3.46C24.82,78.71,23.55,79.95,21.98,79.95z
M31.75,71.72c-2.9,0-4.43,2.1-4.43,4.78c0,2.67,1.54,4.77,4.43,4.77s4.43-2.1,4.43-4.77C36.18,73.82,34.64,71.72,31.75,71.72z
M31.75,79.95c-1.57,0-2.84-1.24-2.84-3.44c0-2.23,1.27-3.46,2.84-3.46c1.57,0,2.84,1.24,2.84,3.46
C34.59,78.71,33.32,79.95,31.75,79.95z M45.74,68.46h-1.5v4.7H44.2c-0.67-1.08-2.01-1.43-2.95-1.43c-2.79,0-4.17,2.17-4.17,4.75
c0,2.58,1.39,4.8,4.2,4.8c1.25,0,2.42-0.44,2.91-1.45h0.04v1.24h1.5V68.46z M41.5,79.95c-1.94,0-2.83-1.66-2.83-3.37
c0-1.78,0.69-3.53,2.74-3.53c2.07,0,2.88,1.66,2.88,3.46C44.29,78.22,43.51,79.95,41.5,79.95z M60.9,81.06h1.96l-2.45-2.84
c0.53-1.11,0.72-1.62,0.85-3.11h-1.43c-0.04,0.67-0.18,1.34-0.41,1.96l-2.28-2.77c1.22-0.69,2.37-1.77,2.37-3.27
c0-1.71-1.48-2.58-3.05-2.58c-1.82,0-2.84,1.22-2.84,2.6c0,1.29,0.69,1.96,1.4,2.97c-1.61,0.85-2.95,1.83-2.95,3.81
c0,1.02,0.53,3.44,3.94,3.44c1.38,0,2.81-0.6,3.57-1.78L60.9,81.06z M58.73,78.45c-0.62,0.92-1.53,1.5-2.68,1.5
c-1.22,0-2.4-0.87-2.4-2.14c0-1.5,1.01-2.17,2.19-2.84L58.73,78.45z M58.01,71.12c0,1.06-0.95,1.73-1.68,2.19
c-0.55-0.69-1.22-1.43-1.22-2.19c0-0.92,0.74-1.34,1.45-1.34C57.46,69.78,58.01,70.4,58.01,71.12z M68.53,81.06h1.68v-5.39h4.1
c1.62,0,1.92,1.04,2.1,2.28c0.25,1.24-0.02,2.6,0.46,3.11h1.87c-0.71-0.87-0.64-2.24-0.74-3.48c-0.12-1.24-0.42-2.31-1.89-2.6v-0.04
c1.52-0.42,2.19-1.68,2.19-3.2c0-2.01-1.47-3.3-3.83-3.3h-5.93V81.06z M70.21,74.26v-4.4h4.17c1.57,0,2.24,0.92,2.24,2.15
c0,1.84-1.34,2.24-2.91,2.24H70.21z M87.5,71.93H86v5.16c0,1.64-0.88,2.86-2.7,2.86c-1.15,0-1.86-0.73-1.86-1.84v-6.18h-1.5v6
c0,1.96,0.74,3.34,3.14,3.34c1.31,0,2.33-0.53,2.97-1.66h0.04v1.45h1.41V71.93z M89.3,81.06h1.5V77c0-2.31,0.88-3.69,3.3-3.69v-1.59
c-1.63-0.05-2.63,0.67-3.36,2.14h-0.04v-1.92H89.3V81.06z M102.95,79.86c-0.19,0.07-0.33,0.09-0.46,0.09
c-0.48,0-0.48-0.32-0.48-1.02v-4.7c0-2.14-1.78-2.51-3.42-2.51c-2.03,0-3.78,0.79-3.87,3.05h1.5c0.07-1.34,1.01-1.73,2.28-1.73
c0.95,0,2.03,0.21,2.03,1.52c0,1.13-1.41,1.02-3.07,1.34c-1.55,0.3-3.09,0.74-3.09,2.81c0,1.82,1.36,2.56,3.02,2.56
c1.27,0,2.38-0.44,3.21-1.41c0,0.99,0.5,1.41,1.27,1.41c0.48,0,0.81-0.09,1.08-0.25V79.86z M100.52,77.88
c0,0.83-0.81,2.07-2.79,2.07c-0.92,0-1.77-0.35-1.77-1.34c0-1.11,0.85-1.47,1.84-1.64c1.01-0.18,2.14-0.19,2.72-0.62V77.88z
M104.06,81.06h1.5V68.46h-1.5V81.06z M111.2,81.06h1.73l1.41-3.8h5.33l1.38,3.8h1.85l-4.93-12.61h-1.85L111.2,81.06z M117.01,69.97
h0.04l2.1,5.88h-4.27L117.01,69.97z M123.98,81.06h1.5v-7.8h1.77v-1.32h-1.77v-1.27c0-0.79,0.42-1.02,1.15-1.02
c0.26,0,0.58,0.04,0.85,0.12v-1.31c-0.28-0.09-0.69-0.14-0.97-0.14c-1.64,0-2.52,0.78-2.52,2.26v1.36h-1.54v1.32h1.54V81.06z
M129.28,81.06h1.5v-7.8h1.77v-1.32h-1.77v-1.27c0-0.79,0.42-1.02,1.15-1.02c0.26,0,0.58,0.04,0.85,0.12v-1.31
c-0.28-0.09-0.69-0.14-0.97-0.14c-1.64,0-2.52,0.78-2.52,2.26v1.36h-1.54v1.32h1.54V81.06z M141.5,79.86
c-0.19,0.07-0.33,0.09-0.46,0.09c-0.48,0-0.48-0.32-0.48-1.02v-4.7c0-2.14-1.78-2.51-3.42-2.51c-2.03,0-3.78,0.79-3.87,3.05h1.5
c0.07-1.34,1.01-1.73,2.28-1.73c0.95,0,2.03,0.21,2.03,1.52c0,1.13-1.41,1.02-3.07,1.34c-1.55,0.3-3.09,0.74-3.09,2.81
c0,1.82,1.36,2.56,3.02,2.56c1.27,0,2.38-0.44,3.21-1.41c0,0.99,0.5,1.41,1.27,1.41c0.48,0,0.81-0.09,1.08-0.25V79.86z
M139.06,77.88c0,0.83-0.81,2.07-2.79,2.07c-0.92,0-1.77-0.35-1.77-1.34c0-1.11,0.85-1.47,1.84-1.64c1.01-0.18,2.14-0.19,2.72-0.62
V77.88z M142.61,70.29h1.5v-1.84h-1.5V70.29z M142.61,81.06h1.5v-9.13h-1.5V81.06z M145.92,81.06h1.5V77c0-2.31,0.88-3.69,3.3-3.69
v-1.59c-1.62-0.05-2.63,0.67-3.35,2.14h-0.04v-1.92h-1.41V81.06z M151.11,78.18c0.09,2.26,1.82,3.09,3.87,3.09
c1.85,0,3.88-0.71,3.88-2.88c0-1.77-1.48-2.26-2.98-2.6c-1.4-0.33-2.98-0.51-2.98-1.59c0-0.92,1.04-1.16,1.94-1.16
c0.99,0,2.01,0.37,2.12,1.54h1.5c-0.13-2.22-1.73-2.86-3.74-2.86c-1.59,0-3.41,0.76-3.41,2.6c0,1.75,1.5,2.24,2.98,2.58
c1.5,0.34,2.98,0.53,2.98,1.69c0,1.15-1.27,1.36-2.21,1.36c-1.24,0-2.4-0.42-2.45-1.77H151.11z M20.69,4.12
c-0.14,0.28-0.27,0.44-0.25,0.65c0.02,0.21,0.24,0.36,0.35,0.58c0.1-0.25,0.26-0.44,0.24-0.63C21,4.52,20.74,4.26,20.69,4.12z
M24.39,4.12c-0.05,0.14-0.32,0.4-0.34,0.59c-0.02,0.2,0.14,0.38,0.24,0.63c0.11-0.21,0.33-0.36,0.35-0.58
C24.66,4.56,24.53,4.4,24.39,4.12z M18.56,3.96c0.14,0,0.25-0.11,0.25-0.25c0-0.14-0.11-0.25-0.25-0.25c-0.14,0-0.25,0.11-0.25,0.25
C18.31,3.85,18.42,3.96,18.56,3.96z M18.73,4.32c0-0.14-0.11-0.25-0.25-0.25c-0.14,0-0.25,0.11-0.25,0.25
c0,0.14,0.11,0.25,0.25,0.25C18.61,4.57,18.73,4.46,18.73,4.32z M18.85,4.92c0-0.14-0.11-0.25-0.25-0.25
c-0.14,0-0.25,0.11-0.25,0.25c0,0.14,0.11,0.25,0.25,0.25C18.73,5.17,18.85,5.06,18.85,4.92z M19.94,2.77
c0.14,0,0.25-0.11,0.25-0.25c0-0.14-0.11-0.25-0.25-0.25c-0.14,0-0.25,0.11-0.25,0.25C19.69,2.66,19.8,2.77,19.94,2.77z M19.32,2.96
c0.14,0,0.25-0.11,0.25-0.25c0-0.14-0.11-0.25-0.25-0.25c-0.14,0-0.25,0.11-0.25,0.25C19.07,2.85,19.18,2.96,19.32,2.96z
M18.83,3.39c0.14,0,0.25-0.11,0.25-0.25c0-0.14-0.11-0.25-0.25-0.25c-0.14,0-0.25,0.11-0.25,0.25C18.58,3.28,18.69,3.39,18.83,3.39
z M20.59,2.83c0.14,0,0.25-0.11,0.25-0.25c0-0.14-0.11-0.25-0.25-0.25c-0.14,0-0.25,0.11-0.25,0.25
C20.34,2.72,20.46,2.83,20.59,2.83z M21.21,3.01c0.14,0,0.25-0.11,0.25-0.25c0-0.14-0.11-0.25-0.25-0.25
c-0.14,0-0.25,0.11-0.25,0.25C20.96,2.89,21.07,3.01,21.21,3.01z M21.8,3.28c0.14,0,0.25-0.11,0.25-0.25c0-0.14-0.11-0.25-0.25-0.25
c-0.14,0-0.25,0.11-0.25,0.25C21.55,3.17,21.66,3.28,21.8,3.28z M26.26,3.71c0,0.14,0.11,0.25,0.25,0.25c0.14,0,0.25-0.11,0.25-0.25
s-0.11-0.25-0.25-0.25C26.37,3.46,26.26,3.57,26.26,3.71z M26.59,4.07c-0.14,0-0.25,0.11-0.25,0.25c0,0.14,0.11,0.25,0.25,0.25
c0.14,0,0.25-0.11,0.25-0.25C26.84,4.18,26.73,4.07,26.59,4.07z M26.47,4.67c-0.14,0-0.25,0.11-0.25,0.25
c0,0.14,0.11,0.25,0.25,0.25s0.25-0.11,0.25-0.25C26.72,4.79,26.61,4.67,26.47,4.67z M25.12,2.77c0.14,0,0.25-0.11,0.25-0.25
c0-0.14-0.11-0.25-0.25-0.25c-0.14,0-0.25,0.11-0.25,0.25C24.87,2.66,24.99,2.77,25.12,2.77z M25.75,2.96
c0.14,0,0.25-0.11,0.25-0.25c0-0.14-0.11-0.25-0.25-0.25c-0.14,0-0.25,0.11-0.25,0.25C25.5,2.85,25.61,2.96,25.75,2.96z M26.23,3.39
c0.14,0,0.25-0.11,0.25-0.25c0-0.14-0.11-0.25-0.25-0.25c-0.14,0-0.25,0.11-0.25,0.25C25.98,3.28,26.1,3.39,26.23,3.39z M24.47,2.83
c0.14,0,0.25-0.11,0.25-0.25c0-0.14-0.11-0.25-0.25-0.25c-0.14,0-0.25,0.11-0.25,0.25C24.22,2.72,24.33,2.83,24.47,2.83z
M23.85,3.01c0.14,0,0.25-0.11,0.25-0.25c0-0.14-0.11-0.25-0.25-0.25c-0.14,0-0.25,0.11-0.25,0.25C23.6,2.89,23.71,3.01,23.85,3.01z
M23.02,3.03c0,0.14,0.11,0.25,0.25,0.25c0.14,0,0.25-0.11,0.25-0.25s-0.11-0.25-0.25-0.25C23.13,2.78,23.02,2.89,23.02,3.03z
M22.11,4.38h0.28V3.31c-0.1-0.02-0.19-0.05-0.28-0.09V4.38z M22.96,3.23c-0.09,0.04-0.18,0.07-0.28,0.09v1.07h0.28V3.23z
M22.37,2.05V1.41c-0.31,0.06-0.56,0.32-0.61,0.63H22.37z M22.7,2.05h0.61c-0.05-0.32-0.3-0.57-0.61-0.63V2.05z M21.77,2.35
c0.08,0.35,0.39,0.62,0.77,0.62c0.38,0,0.69-0.26,0.77-0.62H21.77z M22.96,1.31c-0.18-0.14-0.32-0.34-0.34-0.55
c0.2,0.04,0.43,0.18,0.57,0.36V0.26c-0.14,0.18-0.36,0.33-0.57,0.36c0.02-0.21,0.15-0.4,0.33-0.62h-0.83
c0.17,0.22,0.3,0.41,0.33,0.62c-0.2-0.04-0.43-0.18-0.57-0.36v0.86c0.13-0.18,0.36-0.32,0.57-0.36c-0.02,0.21-0.16,0.41-0.34,0.55
H22.96z M22.99,19.25c0.17,0,0.31-0.14,0.31-0.31s-0.14-0.31-0.31-0.31c-0.17,0-0.31,0.14-0.31,0.31S22.82,19.25,22.99,19.25z
M21.51,18.79c0.19,0,0.34-0.15,0.34-0.34c0-0.19-0.15-0.34-0.34-0.34c-0.18,0-0.34,0.15-0.34,0.34
C21.17,18.64,21.33,18.79,21.51,18.79z M21,17.3c0.05,0.04,0.1,0.08,0.14,0.11c-0.01-0.1-0.06-0.21-0.14-0.3
c-0.11-0.12-0.25-0.19-0.39-0.19c-0.31,0-0.64,0.33-0.73,0.44l-0.03,0.03l-0.04-0.01c-0.08-0.02-0.16-0.03-0.24-0.04
c0.03,0.07,0.06,0.14,0.11,0.22l0.02,0.04l-0.02,0.04c-0.15,0.24-0.24,0.48-0.24,0.66c0,0.12,0.14,0.37,0.35,0.47
c0.14,0.07,0.29,0.06,0.43-0.02c-0.08-0.04-0.18-0.1-0.25-0.15l-0.04-0.02c-0.06-0.03-0.13-0.08-0.16-0.16
c-0.01-0.02-0.01-0.04-0.01-0.06c0-0.07,0.03-0.17,0.1-0.29c0.01-0.03,0.03-0.05,0.04-0.07c0.01-0.02,0.02-0.03,0.03-0.04l0.04-0.06
l0.06,0.04c0.12,0.07,0.23,0.1,0.31,0.08c0.04-0.01,0.06-0.03,0.08-0.06c0.05-0.08,0.02-0.22-0.14-0.35l-0.06-0.05l0.09-0.1
c0.06-0.07,0.12-0.13,0.18-0.19c0.14-0.12,0.27-0.12,0.42,0L21,17.3z M23.88,18.48c0.48,0.12,1.07,0.23,1.46,0.17
c-0.02,0.02-0.03,0.03-0.05,0.05c-0.14,0.13-0.33,0.27-0.53,0.4c-0.5,0.31-1.01,0.5-1.39,0.5c-0.44,0-1.02-0.09-1.6-0.26
c-0.52-0.15-1.01-0.34-1.39-0.54c-0.2,0.15-0.43,0.18-0.64,0.07c-0.26-0.12-0.43-0.42-0.43-0.6c0-0.03,0-0.07,0.01-0.1
c-0.18-0.15-0.34-0.32-0.5-0.5c-0.49-0.55-0.87-1.19-1.13-1.9c-0.12-0.33-0.22-0.67-0.29-1.02c0.45,0.16,0.64,0,0.77-0.14
c0.05,0.01,0.05,0.14,0.04,0.19c0.49-0.01,0.78-0.34,0.82-0.6c0.05,0.31,0.12,0.6,0.23,0.89c0.18,0.5,0.44,0.95,0.77,1.34
c0.11,0.13,0.24,0.26,0.36,0.37c0.08-0.03,0.16-0.05,0.24-0.05c0.18,0,0.36,0.09,0.5,0.24c0.14,0.15,0.2,0.35,0.18,0.53l0,0.01
C22.16,17.95,23.1,18.28,23.88,18.48z M23.66,21.67c0.06-0.12,0.1-0.24,0.1-0.33c0-0.15-0.12-0.37-0.37-0.37
c-0.43,0-0.33,0.59-0.53,0.59c-0.09,0-0.16-0.06-0.16-0.14c0-0.17,0.3-0.33,0.3-0.56c0-0.24-0.22-0.44-0.46-0.63
c-0.24,0.19-0.46,0.39-0.46,0.63c0,0.24,0.3,0.4,0.3,0.56c0,0.09-0.07,0.14-0.16,0.14c-0.2,0-0.1-0.59-0.53-0.59
c-0.25,0-0.37,0.22-0.37,0.37c0,0.09,0.04,0.21,0.1,0.33c0.05-0.11,0.14-0.17,0.21-0.17c0.32,0,0.2,0.85,0.58,0.85
c0.17,0,0.26-0.11,0.26-0.23c0-0.12-0.08-0.15-0.08-0.25c0-0.1,0.08-0.13,0.16-0.13c0.08,0,0.16,0.03,0.16,0.13
c0,0.1-0.08,0.13-0.08,0.25c0,0.12,0.09,0.23,0.26,0.23c0.38,0,0.26-0.85,0.58-0.85C23.52,21.51,23.61,21.57,23.66,21.67z
M22.54,22.86c0.12,0,0.21-0.09,0.21-0.21c0-0.12-0.09-0.21-0.21-0.21c-0.12,0-0.21,0.09-0.21,0.21
C22.33,22.76,22.43,22.86,22.54,22.86z M23.39,20.8c0.33,0,0.54,0.28,0.54,0.54c0,0.24-0.14,0.47-0.27,0.61
c-0.07-0.15-0.12-0.27-0.21-0.27c-0.16,0-0.08,0.82-0.56,0.84c0.02,0.04,0.02,0.08,0.02,0.13c0,0.21-0.17,0.37-0.37,0.37
c-0.21,0-0.37-0.17-0.37-0.37c0-0.05,0.01-0.09,0.02-0.13c-0.48-0.02-0.4-0.84-0.57-0.84c-0.08,0-0.14,0.12-0.2,0.27
c-0.12-0.14-0.27-0.36-0.27-0.61c0-0.26,0.2-0.54,0.53-0.54c0.06,0,0.12,0.01,0.17,0.03v-1.15c0.48,0.12,0.97,0.19,1.38,0.21v0.94
C23.28,20.81,23.33,20.8,23.39,20.8z M34.45,21.94c-0.02-0.05-0.07-0.08-0.12-0.06c-1.1,0.32-2.47-0.59-3.79-1.47
c-1.11-0.74-2.16-1.44-3.07-1.44c-0.33,0-0.63,0.07-0.88,0.21c-0.31,0.17-0.55,0.45-0.7,0.81c-0.15,0.37-0.31,0.62-0.44,0.82
c-0.15,0.24-0.26,0.42-0.26,0.63c0,0.18,0.08,0.34,0.23,0.49c0.13,0.13,0.31,0.25,0.58,0.4c0.06,0.03,0.11,0.06,0.17,0.08
c0.22,0.11,0.35,0.18,0.38,0.3c-0.44,0.19-1,0.35-1.64,0.46c-0.72,0.13-1.52,0.19-2.35,0.19c-0.84,0-1.63-0.07-2.35-0.19
c-0.64-0.11-1.21-0.27-1.64-0.47c0.02-0.18,0.15-0.26,0.39-0.37c0.06-0.03,0.11-0.05,0.17-0.08c0.22-0.12,0.43-0.23,0.57-0.35
c0.15-0.14,0.23-0.29,0.23-0.46c0-0.22-0.11-0.39-0.26-0.63c-0.13-0.2-0.29-0.45-0.44-0.82c-0.15-0.37-0.39-0.64-0.7-0.81
c-0.25-0.14-0.55-0.21-0.88-0.21c-0.9,0-1.95,0.7-3.07,1.44c-1.32,0.88-2.69,1.79-3.79,1.47c-0.05-0.01-0.1,0.01-0.12,0.06
c-0.02,0.05,0.01,0.11,0.05,0.13c0.34,0.15,0.63,0.38,0.92,0.6c0.4,0.31,0.77,0.6,1.19,0.6c0.39,0,0.81-0.12,1.32-0.39
c0.44-0.23,0.91-0.55,1.35-0.85c0.87-0.6,1.77-1.21,2.63-1.28c-0.09,0.09-0.18,0.17-0.26,0.24c-0.25,0.22-0.47,0.42-0.47,0.82
c0,0.31,0.11,0.53,0.25,0.84c0.04,0.09,0.09,0.19,0.14,0.31c0.1,0.21,0.14,0.38,0.19,0.61c0.02,0.1,0.05,0.21,0.09,0.35
c0.05,0.2,0.15,0.58,0.78,0.9c0.73,0.37,1.98,0.56,3.72,0.56c1.74,0,2.99-0.19,3.72-0.56c0.63-0.32,0.73-0.7,0.78-0.9
c0.04-0.13,0.06-0.25,0.09-0.35c0.06-0.23,0.1-0.4,0.19-0.61c0.07-0.15,0.14-0.28,0.2-0.39c0.13-0.24,0.23-0.44,0.23-0.72
c0-0.4-0.23-0.6-0.49-0.84c-0.08-0.08-0.17-0.16-0.27-0.25c0.86,0.07,1.75,0.68,2.63,1.28c0.44,0.3,0.91,0.62,1.35,0.85
c0.51,0.27,0.93,0.39,1.33,0.39c0.41,0,0.79-0.29,1.19-0.6c0.29-0.22,0.58-0.45,0.92-0.6C34.44,22.04,34.46,21.99,34.45,21.94z
M26.12,13.38c-0.01-0.54-0.1-1.07-0.28-1.57c-0.18-0.5-0.44-0.95-0.77-1.34c-0.33-0.39-0.71-0.69-1.14-0.9
c-0.4-0.2-0.82-0.3-1.25-0.32v4.13H26.12z M22.54,7.52c1.17,0,1.98,0.35,2.45,0.66c0.27-0.16,0.39-0.32,0.39-0.51
c0-0.67-1.89-0.73-2.84-0.73h0h0c-0.96,0-2.84,0.06-2.84,0.73c0,0.19,0.12,0.34,0.39,0.51C20.56,7.86,21.37,7.52,22.54,7.52z
M22.48,9.24c-0.46,0.01-0.91,0.12-1.33,0.32c-0.43,0.21-0.81,0.51-1.14,0.9c-0.33,0.39-0.59,0.84-0.77,1.34
c-0.18,0.5-0.27,1.03-0.28,1.57h3.52V9.24z M27.82,13.11c0.01,0.14,0,0.19,0,0.34c0,0.8-0.14,1.59-0.41,2.32
c-0.27,0.71-0.64,1.35-1.13,1.9c-0.23,0.27-0.49,0.51-0.76,0.71l0,0c-0.07,0.05-0.37,0.14-1.57-0.16c-0.15-0.04-0.24-0.06-0.4-0.11
c0.02-0.15,0.04-0.23,0.08-0.35c0.05-0.13,0.11-0.25,0.17-0.31c0.07-0.03,0.07-0.08,0.14-0.11c0.43-0.21,0.81-0.51,1.14-0.9
c0.33-0.39,0.59-0.84,0.77-1.34c0.17-0.48,0.26-0.99,0.28-1.52h-3.44v3.82c0.27,0.02,0.79,0.07,0.79,0.07
c-0.13,0.15-0.18,0.31-0.21,0.56c-0.39-0.12-0.77-0.27-1.18-0.43c0.12-0.15,0.27-0.18,0.4-0.19v-3.83h-3.52
c-0.01-0.15-0.09-0.41-0.14-0.47c-0.17-0.21-0.24-0.34-0.25-0.66c0-0.17-0.11-0.4-0.29-0.62c-0.1-0.13-0.52-0.59-0.62-0.69
c0.27-0.71,0.65-1.34,1.13-1.88c0.32-0.36,0.68-0.67,1.07-0.93C19.66,8.19,19.45,8,19.45,7.67c0-0.19,0.08-0.34,0.21-0.46
c-0.22-0.71-0.62-1.56-0.95-1.94l0.71-0.3c-0.19,0.28-0.2,0.61-0.16,0.8c0.19-0.13,0.35-0.3,0.4-0.54c0.04,0.21,0.15,0.56,0.26,0.77
c-0.21-0.1-0.37-0.14-0.58-0.05c0.12,0.16,0.43,0.4,0.89,0.29c0.25-0.06,0.5-0.19,0.49-0.39c-0.01-0.12-0.09-0.26-0.25-0.24
c-0.15,0.02-0.16,0.25-0.12,0.36c-0.2-0.12-0.41-0.71-0.1-0.8c0.25-0.07,0.48,0.27,0.56,0.54c0.05-0.32,0.18-0.62,0.43-0.6
c0.33,0.02,0.22,0.62,0.11,0.78c-0.02-0.21-0.13-0.32-0.23-0.32c-0.09,0.01-0.2,0.07-0.18,0.26c0.02,0.19,0.29,0.31,0.61,0.31
c0.3,0,0.82-0.09,0.87-0.67c-0.2,0.04-0.49,0.18-0.62,0.37c0.04-0.35,0.04-0.6,0-0.96c0.16,0.22,0.42,0.34,0.61,0.38
c-0.05-0.25-0.27-0.51-0.52-0.66h1.29c-0.25,0.16-0.46,0.42-0.52,0.66c0.19-0.03,0.46-0.15,0.62-0.38c-0.04,0.36-0.04,0.61,0,0.96
c-0.13-0.19-0.44-0.34-0.63-0.38c0.05,0.58,0.57,0.67,0.87,0.67c0.31,0,0.59-0.12,0.61-0.31c0.02-0.19-0.1-0.25-0.18-0.26
c-0.1-0.01-0.21,0.1-0.23,0.32c-0.11-0.15-0.22-0.75,0.11-0.78c0.25-0.02,0.38,0.29,0.43,0.6c0.08-0.26,0.31-0.6,0.56-0.54
c0.32,0.09,0.11,0.68-0.1,0.8c0.05-0.11,0.04-0.34-0.11-0.36c-0.16-0.02-0.24,0.12-0.25,0.24c-0.01,0.2,0.24,0.33,0.49,0.39
c0.47,0.11,0.77-0.14,0.89-0.3c-0.21-0.09-0.37-0.04-0.58,0.05c0.11-0.21,0.22-0.55,0.26-0.77c0.05,0.23,0.21,0.41,0.4,0.54
c0.04-0.19,0.03-0.52-0.16-0.8l0.71,0.3c-0.34,0.37-0.73,1.22-0.95,1.93c0.14,0.12,0.22,0.28,0.22,0.47c0,0.33-0.21,0.53-0.42,0.66
c0.39,0.25,0.75,0.56,1.07,0.93c0.26,0.29,0.47,0.56,0.67,0.9c-0.03,0.03-0.06,0.07-0.1,0.13c-0.04,0.07-0.16,0.19-0.21,0.24
c-0.06,0.08-0.12,0.17-0.12,0.29c0,0.1,0.04,0.2,0.11,0.32c0.09,0.14,0.63,1.22,0.76,1.49C27.5,12.84,27.7,13.02,27.82,13.11z
M24.61,10.92c-0.2-0.25-0.43-0.46-0.68-0.62c-0.21-0.14-0.43-0.25-0.66-0.32c0.02,0.04,0.04,0.08,0.03,0.14
c-0.05-0.01-0.1-0.02-0.13-0.05v1.01c0.06-0.01,0.11,0.02,0.12,0.06c0.01,0.04,0.01,0.08-0.04,0.12c0.05,0,0.1,0.02,0.15,0.07
c-0.05,0.05-0.1,0.07-0.15,0.07c0.05,0.04,0.05,0.08,0.04,0.12c-0.01,0.04-0.06,0.06-0.12,0.06v1.19c0.04-0.03,0.08-0.05,0.15-0.05
c0,0.06-0.02,0.11-0.05,0.14H24c-0.01-0.05,0.02-0.1,0.06-0.11c0.04-0.01,0.08-0.01,0.12,0.04c0-0.05,0.02-0.1,0.07-0.15
c0.05,0.05,0.07,0.1,0.07,0.15c0.04-0.05,0.08-0.05,0.12-0.04c0.04,0.01,0.06,0.06,0.06,0.11h0.86c-0.04-0.04-0.07-0.09-0.07-0.16
c0.05,0,0.1,0.01,0.13,0.04c-0.08-0.49-0.26-0.97-0.51-1.39c-0.03,0.02-0.07,0.01-0.09,0c-0.03-0.02-0.05-0.06-0.04-0.12
c-0.04,0.03-0.09,0.05-0.16,0.04c0.01-0.07,0.04-0.11,0.08-0.14c-0.06,0-0.09-0.03-0.1-0.07C24.56,10.99,24.58,10.95,24.61,10.92z
M25.58,12.7c0.11,0,0.16,0.09,0.14,0.15c-0.02,0.03-0.05,0.06-0.11,0.05c0.04,0.04,0.06,0.09,0.06,0.15
c-0.07,0-0.12-0.02-0.15-0.05c0.01,0.06-0.02,0.1-0.05,0.11c-0.05,0.03-0.15-0.02-0.15-0.13c0.04,0.05,0.13,0.03,0.12-0.04H24.3
c0.02,0.07,0.01,0.15-0.06,0.22c-0.07-0.07-0.08-0.16-0.06-0.22h-1.01c0,0.07,0.09,0.08,0.13,0.03c0,0.11-0.1,0.16-0.15,0.13
c-0.03-0.02-0.06-0.05-0.06-0.11c-0.04,0.03-0.09,0.06-0.15,0.06c0-0.07,0.02-0.12,0.06-0.15c-0.06,0-0.09-0.02-0.11-0.05
c-0.02-0.05,0.02-0.15,0.13-0.15c-0.06,0.04-0.04,0.13,0.03,0.12v-1.46c-0.07,0.02-0.15,0.01-0.22-0.06
c0.07-0.07,0.16-0.08,0.22-0.06V9.91c-0.07-0.01-0.09,0.08-0.04,0.12c-0.11-0.01-0.15-0.11-0.12-0.16c0.02-0.02,0.05-0.04,0.09-0.04
c-0.03-0.04-0.05-0.09-0.05-0.16c0.07,0.01,0.12,0.04,0.16,0.08c0.01-0.05,0.03-0.08,0.06-0.09c0.05-0.02,0.15,0.03,0.14,0.14
c-0.03-0.06-0.12-0.05-0.13,0.02c0.29,0.08,0.57,0.2,0.83,0.38c0.28,0.19,0.53,0.42,0.75,0.7c0.03,0.03,0.05,0.06,0.08,0.1
c0.04-0.06,0.11-0.11,0.22-0.1c-0.02,0.1-0.08,0.16-0.15,0.18c0,0-0.01,0.01-0.01,0.01c0.35,0.51,0.59,1.12,0.66,1.74
C25.62,12.84,25.64,12.74,25.58,12.7z M24.98,12.33c0.04-0.02,0.08-0.05,0.09-0.09c-0.05,0.02-0.09-0.01-0.1-0.01
c0.03-0.02,0.07,0,0.03-0.06c-0.04-0.06-0.07-0.07-0.11-0.02c-0.04,0.04-0.31-0.01-0.31-0.22c0.02,0.04,0.05,0.06,0.09,0.08
c0.01,0.01,0.02,0.01,0.03,0.02c0.01,0,0.02,0,0.04,0.01c0.03,0.01,0.05,0.01,0.08,0.01c0,0,0.01,0,0.01,0v-0.01
c0.06-0.01,0.1-0.05,0.11-0.11c0.01-0.11-0.1-0.16-0.22-0.26c-0.05-0.04-0.08-0.07-0.11-0.1c-0.04-0.08-0.01-0.15-0.12-0.3
c-0.01-0.04-0.01-0.08-0.03-0.13c-0.05,0.1-0.08,0.28,0.06,0.43c0.11,0.13,0.36,0.25,0.35,0.35c0,0.02-0.03,0.05-0.06,0.05
c-0.01,0-0.02,0-0.03,0c-0.01,0-0.01,0-0.02-0.01c-0.02,0-0.03-0.01-0.05-0.02c-0.03-0.02-0.05-0.03-0.09-0.07
c-0.1-0.09-0.19-0.23-0.25-0.31c-0.11-0.14-0.06-0.28-0.04-0.4c0.08-0.11-0.05-0.33-0.12-0.39c0,0,0.02-0.05,0-0.12
c-0.02,0.01-0.05,0.01-0.07,0.01c-0.02-0.04-0.03-0.05-0.06-0.06c-0.05-0.01-0.05-0.04-0.05-0.05c-0.03,0.03-0.04,0.05-0.07,0.05
c-0.04,0-0.06,0-0.07,0.01c-0.03,0.02-0.04,0.03-0.09,0.03c-0.05,0-0.04,0.03-0.04,0.06c0,0.02,0.01,0.05,0.03,0.07
c0,0,0.01,0.01,0.01,0.01l0.04,0.04l0.02-0.05c0.02-0.02,0.08-0.02,0.09,0.02c0.01,0.03,0.01,0.04-0.02,0.04
c-0.04,0.01-0.06,0.01-0.1,0.01c-0.03,0-0.03,0.03-0.02,0.06c0,0.03,0.03,0.04,0.09,0.03c0.05-0.01,0.15-0.02,0.15,0.02
c0,0.12-0.14,0.12-0.17,0.26c-0.04-0.02-0.07-0.05-0.09-0.08c-0.02-0.04-0.06-0.08-0.1-0.13c-0.03-0.03-0.07-0.06-0.1-0.09
c-0.05-0.03-0.05-0.05-0.05-0.1c0-0.04,0.02-0.08,0.02-0.12c0,0-0.01-0.03-0.01-0.04c-0.01-0.03-0.05-0.05-0.07-0.04
c0.01,0.01,0.02,0.02,0.03,0.04c-0.01,0.01-0.02,0.02-0.02,0.02c-0.01,0.01-0.01,0.03,0,0.04c0,0,0,0,0,0.01c0,0.01,0,0.01,0,0.02
c0,0.01,0,0-0.01,0c-0.01-0.03-0.02-0.07-0.05-0.08c0,0-0.01,0-0.02,0c0,0,0,0,0-0.01c0-0.03-0.04-0.06-0.07-0.02
c0.01,0,0.02,0,0.03,0.01c0,0.01-0.01,0.03-0.01,0.03c0,0.03,0.02,0.05,0.06,0.05c0.01,0,0.01,0,0.01,0.01c0,0,0,0.01,0,0.01
c0,0,0,0,0,0c-0.06-0.02-0.08,0-0.08,0.03c0,0,0,0.02,0,0.02c-0.02,0.01-0.02,0.04,0.01,0.07c0-0.01,0-0.03,0.01-0.03
c0,0,0.01,0,0.01,0c0.01,0.01,0.01,0.01,0.02,0.01c0,0,0.01,0,0.03-0.01c0,0,0.01,0,0.01,0c0,0,0.01,0.01,0.02,0.01
c0,0,0,0.01,0,0.01c-0.04,0.04-0.03,0.07,0.01,0.08c-0.02,0.04-0.09,0.02-0.08-0.03c-0.05,0.08,0.03,0.13,0.1,0.1
c0,0.03,0,0.08,0.01,0.08c0,0,0-0.01,0.01-0.01c0,0,0.01,0,0.01,0.01c0,0.02,0.01,0.04,0.03,0.04c0-0.01,0-0.02,0.01-0.02
c0.01,0.02,0.02,0.04,0.03,0.05c0.03,0.06,0.1,0.2,0.24,0.26c-0.07,0.04-0.12,0.11-0.17,0.16c-0.04,0.04-0.1,0.08-0.14,0.06
c-0.02-0.01-0.02-0.03-0.04-0.04c-0.02-0.01-0.03-0.02-0.05-0.01c0,0-0.01,0-0.02,0.01c-0.03-0.01-0.06,0-0.08,0.02
c0.01,0,0.03-0.01,0.05,0.01c0,0.01,0,0.02,0,0.03c0,0.02,0.01,0.04,0.09,0.03c0,0,0.01,0,0.01,0.01c-0.01,0.01-0.02,0.02-0.04,0.01
c-0.03-0.01-0.05-0.04-0.07,0c0,0-0.01,0.01-0.02,0.02c0,0,0,0-0.01,0c-0.03,0.01-0.06,0.07-0.02,0.09c0-0.01,0-0.03,0.02-0.05
c0.01,0.01,0.01,0.02,0.02,0.02c0.02,0.03,0.05,0.05,0.1-0.02c0.01-0.01,0.01,0,0.01,0c0,0.04-0.04,0.09,0.01,0.09
c0,0,0.01,0,0.02,0v0.01c0.01,0.04,0.07,0.05,0.09,0.04c-0.02-0.01-0.04-0.02-0.05-0.05c0.01,0,0.02,0,0.02,0
c0.03-0.03-0.01-0.06,0.01-0.08c0-0.01,0.01,0,0.01,0c0.01,0.02,0.03,0.05,0.07,0.03c0.02-0.01,0.03-0.03,0.03-0.05
c0.05-0.02,0.1-0.04,0.13-0.03c-0.01-0.03,0.02-0.06,0.08-0.08c0.05-0.02,0.08,0,0.1,0.02c0-0.02,0.03-0.06,0.05-0.09
c-0.01,0.21,0.28,0.21,0.35,0.34c-0.09-0.04-0.18-0.06-0.24-0.05c-0.07,0.01-0.19,0.08-0.21,0.16c-0.01,0.07,0.06,0.18,0.13,0.23
c-0.08,0.02-0.11-0.01-0.19,0.01c0,0-0.01,0-0.01,0c-0.07,0.01-0.07-0.11-0.15-0.08c0,0-0.02,0.01-0.02,0.01h0
c-0.03,0-0.07,0.04-0.06,0.07c0.01-0.01,0.02-0.02,0.05-0.03c0,0.01,0,0.02,0,0.02c0,0.01,0,0.03,0.03,0.03
c0.02,0,0.02-0.01,0.03-0.01c0,0,0.01,0,0.01,0.01c0,0.03-0.1-0.02-0.08,0.07c0,0,0.01,0.02,0.02,0.02c0,0.02,0.02,0.05,0.06,0.04
c-0.01-0.01-0.02-0.02-0.02-0.03c0.01,0,0.02,0,0.02,0c0,0,0.01,0,0.01-0.01c0,0,0,0,0,0c0.01,0,0.01,0,0.01,0.01
c0,0-0.01,0.01-0.01,0.02c0,0,0,0.02,0.01,0.02c0,0.03,0.04,0.06,0.08,0.03c-0.01,0-0.04-0.01-0.04-0.02c0.01,0,0.02-0.01,0.02-0.01
c0.01,0,0.01-0.02,0.01-0.03c0-0.01,0-0.01,0.01-0.01c0,0,0.01,0,0.02,0c0.01,0,0.01,0,0.01,0.01c0.01,0.02,0.03,0.04,0.06,0.02
c0.02-0.01,0.02-0.01,0.03-0.02c0.01,0.01,0.02,0.01,0.04,0.02c-0.01-0.03,0.01-0.06,0.08-0.01l0.05-0.04c0,0,0.06,0.03,0.09,0
c0.04-0.04,0.02-0.04,0.02-0.07c-0.03-0.06-0.04-0.06-0.06-0.12c-0.02-0.11,0.13-0.17,0.21-0.15c0.02,0.07,0.11,0.25,0.27,0.3
c0.1,0.04,0.14-0.07,0.17-0.06c0.01,0,0.01,0.01,0.02,0.03c-0.01,0.05,0,0.09-0.01,0.12c-0.01,0.02-0.06,0-0.1,0
c-0.02,0-0.04,0.01-0.04,0.02c-0.03,0.01-0.07,0.03-0.06,0.07c0.01-0.01,0.03-0.03,0.06-0.03c0,0,0,0.01,0,0.01
c0,0.04,0.05,0.06,0.08,0.03c0-0.01,0.02,0,0.01,0.01c-0.02,0.02-0.07,0.06-0.03,0.07c0,0,0.01,0.01,0.02,0.01
c0,0.03,0.02,0.05,0.04,0.06c-0.01-0.01-0.01-0.02,0-0.05c0.01,0,0.02,0,0.02,0c0.03,0,0.02-0.05,0.04-0.07c0,0,0.01,0,0.01,0
c-0.01,0.03-0.02,0.07,0.01,0.08c0,0,0.01,0,0.02,0c0.01,0.02,0.04,0.04,0.08,0.02c-0.01,0-0.03-0.01-0.04-0.03
c0.01-0.01,0.02-0.02,0.02-0.03c0.02-0.06-0.04-0.07-0.04-0.09c0-0.03,0.07-0.01,0.07-0.07c0,0,0-0.01,0-0.01
c0.03-0.02,0.06-0.04,0.06-0.06C25.02,12.35,24.98,12.34,24.98,12.33L24.98,12.33z M21.78,14.25c0.02-0.17,0-0.21-0.09-0.21
c-0.11,0-0.3,0.11-0.55,0.2l0.53,0.75c0.03-0.2,0.06-0.38,0.07-0.48c0-0.02,0-0.03,0.01-0.05l-0.03,0c-0.07,0-0.12-0.05-0.12-0.12
c0.01-0.07,0.08-0.1,0.13-0.1L21.78,14.25z M21.58,15.55c0.02-0.12,0.04-0.25,0.06-0.38l-0.62-0.89c-0.09,0.03-0.17,0.06-0.27,0.08
L21.58,15.55z M21.49,16.09c0.02-0.1,0.04-0.22,0.06-0.35l-0.94-1.35c-0.06,0.01-0.12,0.01-0.18,0.01c-0.03,0-0.07,0-0.11,0
L21.49,16.09z M20.16,14.41c-0.09,0.97,0.6,1.58,1.29,1.85L20.16,14.41z M22.08,14.27c0.06,0.01,0.11,0.04,0.11,0.11
c0,0.07-0.06,0.1-0.13,0.1l-0.04,0l-0.04,1.86l0.06,0.01l-0.01,0.16c-0.01,0.05-0.08,0.06-0.13,0.06c0.03,0.29-0.21,0.36-0.33,0.36
c-0.13,0-0.24-0.09-0.24-0.23c0-0.12,0.11-0.17,0.18-0.17c0.07,0,0.11,0.03,0.1,0.09c-0.01,0.05-0.14,0.01-0.14,0.08
c0,0.04,0.04,0.08,0.1,0.08c0.09,0,0.15-0.05,0.15-0.15c0-0.17-0.16-0.19-0.32-0.15c-1.06-0.31-1.66-1.35-1.58-2.16
c-0.02-0.01-0.05-0.02-0.07-0.03l0.07-0.16c-0.02,0.03-0.06,0.05-0.1,0.05c-0.07,0-0.13-0.06-0.13-0.13c0-0.07,0.06-0.13,0.13-0.13
c0.07,0,0.13,0.06,0.13,0.13c0,0.01,0,0.01,0,0.02l0.07-0.16c0.17,0.1,0.44,0.21,0.67,0.21c0.53,0,0.92-0.26,1.11-0.26
c0.22,0,0.35,0.15,0.34,0.36l0,0.06L22.08,14.27z M21.14,10.35c-0.01,0.02-0.01,0.04,0.01,0.05c0.02,0.01,0.04-0.01,0.05-0.02
c0-0.02,0.01-0.03,0-0.03c-0.01-0.01-0.01-0.02,0-0.03c0.01-0.02,0.02-0.01,0.04,0c-0.01-0.02-0.01-0.03,0-0.03
c0.01,0,0.01,0.03,0.02,0.02c0.01,0,0-0.01,0-0.02c0-0.01-0.01-0.01-0.01-0.02l-0.07-0.03c-0.01-0.01-0.01-0.01-0.02,0
c0,0-0.02,0.01-0.01,0.02c0,0.01,0.02-0.01,0.03,0c0.01,0.01,0,0.01-0.01,0.02c0.01,0.01,0.03,0.02,0.02,0.03
c0,0.01-0.01,0.02-0.03,0.02C21.15,10.32,21.15,10.33,21.14,10.35z M21.27,10.21c0,0.02,0,0.05,0.03,0.06
c0.02,0,0.02-0.01,0.05-0.02C21.33,10.23,21.28,10.21,21.27,10.21z M21.86,10.53C21.84,10.53,21.85,10.54,21.86,10.53
c0.12,0.02,0.15,0.05,0.22,0.05c0.04-0.01,0.04,0.02,0.04,0.02c0,0.04,0.05,0.02,0.06,0c0,0.03-0.01,0.05-0.02,0.05
c0,0,0,0.01,0,0.01c0.01,0.02-0.01,0.05,0.03,0.05c-0.01,0.02-0.02,0.02-0.04,0.02h0c0,0,0,0,0,0c0.02,0.01,0.02,0.02,0.02,0.03
c0,0.05-0.05,0.04-0.05,0.06c0,0.02,0.04,0.02,0.03,0.07c0,0-0.01,0.01-0.01,0.02c0,0.01,0.02,0.02,0.02,0.02
c-0.03,0.02-0.05,0-0.06-0.02c-0.01,0-0.02,0-0.02,0c-0.02-0.01-0.02-0.04-0.01-0.06c0,0,0,0,0,0c-0.02,0.01-0.01,0.06-0.04,0.05
h-0.02c-0.01,0.02-0.01,0.03,0,0.04c-0.02,0-0.03-0.02-0.03-0.05c-0.01,0-0.01-0.01-0.02-0.01c-0.03-0.01,0.01-0.05,0.02-0.06
c0.01,0,0-0.01-0.01,0c-0.02,0.02-0.06,0.01-0.06-0.02c0,0,0-0.01,0-0.01c-0.02,0-0.04,0.02-0.04,0.02c0-0.03,0.03-0.05,0.05-0.05
c0,0,0.01-0.01,0.03-0.01c0.03,0,0.07,0.02,0.08,0c0.01-0.02-0.01-0.03,0.01-0.08c0-0.02-0.01-0.02-0.02-0.02
c-0.01,0-0.07-0.02-0.12,0.01c-0.04,0.02,0.05,0.04-0.05,0.04c-0.05,0-0.09-0.02-0.13-0.03c0.02,0.03,0,0.06,0.02,0.07
c0.04,0.02,0.04,0.09,0.03,0.1c-0.01,0.02-0.06,0.02-0.1,0.01c-0.01,0-0.02,0-0.03,0c-0.04,0.01,0,0.05-0.04,0.06
c-0.02,0.01-0.04-0.01-0.05-0.02c0,0-0.01,0-0.01,0c-0.01,0-0.01,0-0.02,0c0,0-0.01,0-0.01,0.01c0,0.01,0,0.02-0.01,0.02
c0,0-0.01,0.01-0.02,0.01c0,0.01,0.02,0.02,0.04,0.02c-0.04,0.02-0.08,0-0.07-0.03c0,0-0.01-0.02-0.01-0.02
c0-0.01,0.01-0.01,0.01-0.02c0,0,0,0-0.01-0.01c0,0,0,0,0,0c0,0.01-0.01,0.01-0.01,0.01c0,0-0.01,0-0.02,0
c0,0.01,0.01,0.02,0.02,0.03c-0.04,0.01-0.06-0.01-0.05-0.03c-0.01,0-0.01-0.02-0.01-0.02c-0.02-0.07,0.07-0.03,0.07-0.06
c0,0,0-0.01-0.01-0.01c-0.01,0-0.01,0.01-0.03,0.01c-0.02,0-0.03-0.01-0.03-0.02c0,0,0-0.01,0-0.01c-0.02,0-0.03,0.02-0.04,0.02
c-0.01-0.03,0.03-0.06,0.06-0.06c0,0,0.02-0.01,0.02-0.01c0.07-0.02,0.07,0.11,0.13,0.07c0.01,0,0.03-0.01,0.06-0.01
c0,0,0.01,0,0-0.01c-0.01-0.01-0.05-0.03-0.07-0.03c-0.04-0.01-0.04-0.09-0.02-0.13c-0.02,0.02-0.06,0.03-0.08,0.03
c-0.27-0.02-0.06,0.08-0.19,0.11c-0.02,0.01-0.09,0.08-0.15,0.07c0.02-0.01,0.01-0.03,0-0.04c-0.01,0.02-0.05,0.04-0.07,0.03
c-0.02,0.01-0.04,0.03-0.04,0.03c0,0.03-0.05,0.06-0.07,0.05c0.01-0.01,0.02-0.02,0.02-0.03c0-0.01,0-0.01-0.01,0
c-0.06,0.04-0.11,0-0.12,0.09c-0.02-0.02-0.01-0.06-0.02-0.06c0,0-0.01,0.01-0.01,0.02c-0.01-0.01-0.01-0.02,0-0.04
c0,0,0-0.01-0.01-0.01c-0.04,0.01-0.06,0.01-0.07,0c0,0,0,0,0,0c0-0.01-0.01-0.01-0.01-0.02c-0.01,0.04-0.05,0.06-0.06,0.06
c0.02-0.02,0.02-0.05,0.01-0.06c-0.01,0.01-0.02,0.02-0.03,0.03c0-0.02-0.01-0.03-0.02-0.04c0,0,0,0,0,0c0,0.02-0.01,0.05-0.05,0.05
c-0.04,0-0.04-0.03-0.05-0.05c0,0,0-0.01-0.01,0c-0.02,0.01,0,0.05-0.03,0.06c0,0-0.01,0-0.02,0c0,0.03,0.01,0.05,0.02,0.05
c-0.02,0-0.06-0.02-0.05-0.06c0,0,0-0.01,0-0.01c-0.01,0-0.01-0.01-0.02-0.01c-0.03-0.02,0.01-0.05,0.03-0.08c0,0,0-0.01,0,0
c-0.06,0.04-0.08,0.02-0.08-0.01c0,0,0-0.01-0.01-0.02c-0.02,0-0.03,0.02-0.03,0.03c-0.02-0.03,0.02-0.06,0.05-0.06
c0,0,0.01,0,0.01,0c0.01,0,0.02-0.01,0.02-0.01c0.03-0.02,0.03,0.01,0.06,0.03c0.01,0.01,0.02,0.01,0.03,0c0.01,0,0-0.01,0-0.01
c-0.06-0.02-0.07-0.04-0.06-0.05c0,0,0.01-0.01,0.01-0.02c-0.01-0.02-0.02-0.02-0.04-0.02c0.01-0.01,0.05-0.01,0.07,0.01
c0.01,0,0.02,0,0.02,0c0.01,0,0.02,0.01,0.03,0.02c0.01,0.02,0.01,0.04,0.02,0.05c0.03,0.04,0.13,0,0.17-0.02
c0.03-0.01,0.11-0.01,0.12-0.01c0.01,0,0.1-0.02,0.15-0.05c-0.04-0.04-0.05-0.09-0.06-0.09c-0.01,0-0.01,0.01-0.01,0.02
c-0.02,0-0.02-0.02-0.02-0.04c0,0,0-0.01,0-0.01c-0.01,0-0.02,0.01-0.02,0.01c-0.01,0-0.02-0.01-0.02-0.02c0,0,0,0-0.01,0
c-0.07,0.03-0.14-0.02-0.08-0.08c-0.01,0.05,0.07,0.07,0.08,0.01c0,0,0-0.01,0-0.01c-0.04-0.01-0.05-0.04-0.01-0.07c0,0,0,0,0-0.01
c-0.01,0-0.01-0.01-0.01-0.01c-0.01,0-0.01,0-0.01,0c-0.02,0.01-0.03,0.01-0.03,0.01c0,0-0.01-0.01-0.01-0.01c0,0-0.01,0-0.01,0
c-0.01,0-0.01,0.02-0.02,0.03c-0.03-0.02-0.02-0.04,0-0.05c0-0.01,0-0.02,0-0.02c0-0.02,0.03-0.04,0.08-0.02c0,0,0.01,0,0,0
c0,0,0-0.01,0-0.01c0,0,0,0-0.01,0c-0.03,0-0.05-0.01-0.04-0.04c0,0,0.01-0.02,0.01-0.03c0-0.01-0.02-0.01-0.02-0.01
c0.04-0.03,0.07-0.01,0.06,0.02c0,0,0,0,0,0.01c0.01,0,0.02,0,0.02,0c0.02,0,0.03,0.04,0.04,0.06c0,0,0,0,0,0c0-0.01,0-0.01,0-0.02
c0,0,0-0.01,0-0.01c-0.01-0.01,0-0.02,0.01-0.04c0,0,0.01-0.01,0.02-0.02c0-0.02-0.01-0.03-0.02-0.04c0.02,0,0.05,0.02,0.05,0.04
c0,0.01,0,0.03,0,0.03c0,0.03-0.02,0.06-0.03,0.1c-0.01,0.04-0.01,0.06,0.03,0.08c0.02,0.01,0.04,0.03,0.06,0.04h0
c0-0.03,0.01-0.1,0.04-0.16c-0.01,0-0.01-0.01-0.02-0.02c0.02,0,0.03-0.05,0.05-0.08c-0.01,0-0.01-0.01-0.02-0.03
c0.02,0.01,0.05-0.06,0.08-0.06c-0.01-0.03,0-0.05,0.01-0.07c0.02,0,0.04,0.01,0.05,0.02c0-0.02,0.02-0.02,0.03-0.02
c0,0,0.03-0.01,0.04,0c0.01,0,0.03,0,0.06,0.02c0.03,0.01,0.05,0.03,0.06,0.04c0.01,0,0.01,0.03,0.02,0.04
c0.01,0.01,0.02,0.02,0.01,0.04c0.02,0,0.04,0.01,0.05,0.02c0,0.02-0.02,0.04-0.05,0.05c0.04,0.04-0.05,0.13-0.05,0.17
c0.27-0.07,0.37,0.03,0.52,0.03c0.19,0,0.31-0.05,0.31-0.11c0-0.19-0.7-0.01-0.7-0.27c0-0.04,0.03-0.07,0.07-0.1
c0-0.02,0-0.03,0.01-0.05c0.07-0.09,0.21-0.1,0.27-0.18c0.01,0.03-0.02,0.11-0.09,0.14c0.13-0.01,0.17-0.24,0.47-0.2
c-0.25,0.05-0.25,0.29-0.6,0.32h-0.01c-0.03,0.02-0.05,0.05-0.05,0.08c0,0.17,0.69,0,0.69,0.28C22.23,10.45,22.11,10.53,21.86,10.53
z M20.52,11.43c-0.01,0.02-0.01,0.05,0.02,0.06c0.03,0.02,0.05-0.01,0.06-0.03c0.01-0.02,0.01-0.03,0.01-0.04
c-0.01-0.01-0.02-0.02-0.01-0.04c0.01-0.02,0.03-0.01,0.05,0c-0.01-0.02-0.01-0.03,0-0.03c0.01,0,0.01,0.03,0.02,0.03
c0.01,0,0.01-0.02,0.01-0.03c0-0.01-0.01-0.01-0.02-0.02l-0.08-0.04c-0.01,0-0.02-0.01-0.02,0c0,0.01-0.02,0.01-0.02,0.02
c0,0.01,0.02-0.01,0.03,0c0.01,0.01,0,0.02-0.02,0.02c0.02,0.01,0.03,0.02,0.03,0.04c-0.01,0.02-0.02,0.02-0.03,0.02
C20.54,11.4,20.53,11.41,20.52,11.43z M20.61,11.23c-0.01,0-0.06-0.03-0.08-0.05c0.03,0.04,0,0.05,0.02,0.07
C20.57,11.27,20.6,11.25,20.61,11.23z M20.67,11.26c0,0.03,0.01,0.06,0.03,0.06c0.03,0,0.02-0.02,0.06-0.03
C20.74,11.29,20.68,11.27,20.67,11.26z M22.2,11.47c0,0.09-0.24,0.13-0.4,0.13c0.14,0.01,0.19,0.03,0.27,0.02
c0.04-0.01,0.05,0.02,0.05,0.02c0.01,0.04,0.06,0.02,0.07,0c0,0.03,0,0.05-0.02,0.06c0,0,0,0.01,0,0.01
c0.01,0.02-0.01,0.06,0.04,0.06c-0.01,0.02-0.03,0.02-0.04,0.02l0,0c0,0,0,0,0,0c0.02,0.01,0.02,0.03,0.02,0.04
c0,0.06-0.06,0.04-0.06,0.07c0,0.02,0.05,0.03,0.04,0.09c0,0-0.01,0.02-0.02,0.03c0,0.01,0.02,0.02,0.03,0.02
c-0.03,0.02-0.06,0-0.07-0.02c-0.01,0-0.02,0-0.02,0c-0.03-0.01-0.02-0.04-0.01-0.07c0,0,0-0.01,0,0c-0.03,0.02-0.02,0.07-0.04,0.07
c0,0-0.01,0-0.02,0c-0.01,0.03-0.01,0.04,0,0.05c-0.02,0-0.04-0.03-0.04-0.05c-0.01,0-0.02-0.01-0.02-0.01
c-0.03-0.01,0.01-0.05,0.03-0.07c0.01-0.01,0-0.01-0.01-0.01c-0.02,0.03-0.07,0.01-0.07-0.03c0,0,0-0.01,0-0.01
c-0.02,0-0.04,0.02-0.05,0.03c0-0.03,0.03-0.06,0.06-0.06c0,0,0.02-0.02,0.04-0.02c0.03,0,0.08,0.02,0.09,0
c0.01-0.03-0.01-0.03,0.01-0.09c0-0.02-0.01-0.03-0.02-0.03c-0.02,0-0.08-0.02-0.14,0.01c-0.05,0.03-0.08,0.05-0.19,0.05
c-0.06,0-0.11-0.02-0.15-0.04c0.02,0.04,0,0.07,0.02,0.08c0.04,0.03,0.05,0.1,0.04,0.12c-0.01,0.02-0.07,0.02-0.11,0.01
c-0.01,0-0.02,0-0.03,0c-0.04,0.01,0,0.06-0.05,0.07c-0.03,0.01-0.05-0.01-0.06-0.03c0,0,0-0.01-0.01-0.01c-0.01,0-0.01,0-0.02,0
c0,0-0.01,0-0.01,0.01c0,0.01,0,0.02-0.01,0.03c0,0-0.01,0.01-0.02,0.01c0,0.02,0.03,0.02,0.04,0.02c-0.04,0.03-0.09,0-0.08-0.03
c0,0-0.01-0.02-0.01-0.03c0-0.01,0-0.01,0-0.02c0,0,0-0.01-0.01-0.01c0,0,0,0,0,0c0,0.01-0.01,0.01-0.01,0.01c0,0-0.01,0-0.02,0
c0,0.01,0.01,0.02,0.02,0.03c-0.04,0.01-0.06-0.01-0.06-0.04c-0.01-0.01-0.01-0.02-0.01-0.02c-0.02-0.08,0.08-0.04,0.08-0.07
c0-0.01,0-0.01-0.01-0.01c-0.01,0-0.02,0.01-0.03,0.01c-0.03,0-0.03-0.01-0.03-0.02v-0.02c-0.02,0-0.04,0.02-0.05,0.03
c-0.01-0.03,0.04-0.07,0.07-0.07c0,0,0.02-0.01,0.02-0.02c0.08-0.03,0.08,0.13,0.15,0.08c0.01-0.01,0.04-0.01,0.07-0.02
c0,0,0.01,0,0-0.01c-0.02-0.02-0.06-0.03-0.08-0.04c-0.05-0.01-0.05-0.1-0.02-0.15c-0.02,0.02-0.06,0.04-0.08,0.04
c-0.35-0.06-0.2,0.15-0.41,0.13c-0.01,0-0.04,0-0.07,0.01c-0.02,0.05-0.14,0.16-0.21,0.15c0.02-0.01,0.03-0.02,0.03-0.04
c0-0.01,0-0.01-0.01,0c-0.07,0.04-0.13,0-0.14,0.11c-0.03-0.03-0.01-0.07-0.03-0.07c0,0-0.02,0.02-0.02,0.02
c-0.01-0.01-0.01-0.03,0-0.04c0,0,0-0.01-0.01,0c-0.04,0.01-0.07,0.01-0.09,0c0,0,0,0,0,0c0-0.01-0.01-0.02-0.02-0.02
c-0.01,0.04-0.05,0.07-0.07,0.07c0.03-0.03,0.02-0.05,0.02-0.07c-0.01,0.02-0.02,0.03-0.03,0.03c0-0.02-0.01-0.04-0.02-0.04
c0,0,0,0,0,0c0,0.02-0.02,0.06-0.06,0.06c-0.04,0-0.05-0.04-0.05-0.05c0,0,0-0.01-0.01,0c-0.02,0.01,0,0.06-0.04,0.07
c0,0-0.01,0-0.02,0c0,0.03,0.01,0.05,0.02,0.06c-0.02,0-0.07-0.03-0.06-0.07c0,0,0,0,0-0.01c-0.01-0.01-0.02-0.01-0.02-0.01
c-0.04-0.02,0.01-0.06,0.03-0.09c0,0,0-0.01-0.01,0c-0.08,0.05-0.09,0.02-0.1-0.02c0,0,0-0.01-0.01-0.02
c-0.02,0.01-0.04,0.02-0.04,0.03c-0.02-0.04,0.03-0.07,0.06-0.07c0,0,0,0,0.01,0c0.01,0,0.02-0.01,0.02-0.01
c0.03-0.02,0.04,0.01,0.07,0.03c0.01,0.01,0.03,0.01,0.04,0c0.01,0,0-0.01,0-0.01c-0.07-0.03-0.08-0.05-0.07-0.07
c0,0,0.01-0.02,0.01-0.02c-0.01-0.02-0.03-0.03-0.04-0.03c0.02-0.01,0.06-0.01,0.08,0.01c0.01,0,0.02,0,0.03,0
c0.01,0,0.03,0.01,0.04,0.03c0.02,0.03,0.01,0.04,0.02,0.06c0.03,0.05,0.15,0.01,0.19-0.02c0.03-0.02,0.16-0.01,0.17-0.01
c0.01,0-0.03-0.06-0.03-0.1c-0.03,0.03-0.06-0.02-0.11-0.04c-0.05-0.03-0.09-0.09-0.1-0.09c-0.01,0-0.01,0.01-0.01,0.03
c-0.02,0-0.03-0.03-0.03-0.04c0,0,0-0.01,0-0.01c-0.01,0-0.02,0.01-0.02,0.02c-0.01,0-0.02-0.01-0.02-0.03c0,0,0-0.01-0.01,0
c-0.07,0.04-0.16-0.02-0.1-0.1c-0.01,0.07,0.08,0.08,0.09,0.01c0-0.01,0-0.01-0.01-0.01c-0.05-0.01-0.05-0.04-0.01-0.08
c0,0,0-0.01,0-0.01c0,0-0.01-0.01-0.02-0.01c0,0-0.01,0-0.01,0c-0.02,0.01-0.03,0.01-0.03,0.01c0,0-0.01-0.01-0.01-0.01
c0,0-0.01,0-0.01,0c-0.02,0-0.01,0.02-0.01,0.04c-0.04-0.02-0.03-0.05-0.01-0.07c0-0.01,0-0.02,0-0.02c0-0.02,0.03-0.05,0.08-0.03
c0,0,0.01,0,0.01,0c0-0.01,0-0.01,0-0.01c0,0,0-0.01-0.01-0.01c-0.03,0-0.06-0.01-0.05-0.04c0,0,0-0.02,0.01-0.03
c-0.01-0.01-0.02-0.01-0.03-0.01c0.04-0.04,0.07-0.01,0.07,0.02c0,0,0,0,0,0c0,0,0.02,0,0.02,0c0.03,0,0.04,0.05,0.05,0.08
c0,0,0,0.01,0,0c0-0.01,0-0.02,0-0.02c0,0,0-0.01,0-0.01c-0.01-0.02-0.01-0.03,0-0.04c0,0,0.01-0.01,0.02-0.02
c0-0.03-0.01-0.04-0.02-0.04c0.02,0,0.06,0.02,0.06,0.04c0,0.01,0.01,0.03,0.01,0.04c0,0.04-0.02,0.08-0.02,0.12
c0,0.05,0,0.07,0.04,0.1c0.05,0.03,0.08,0.07,0.11,0.09l0.03,0.01c-0.01,0-0.02,0-0.02,0c0.01,0,0.01,0.01,0.02,0.01
c0,0,0.01,0,0.01,0l0.05,0.02c0-0.03,0-0.06,0.01-0.09c-0.01,0-0.02-0.01-0.04-0.04c0.03,0,0.04-0.05,0.06-0.1
c-0.01,0-0.02-0.01-0.03-0.03c0.03,0.01,0.06-0.07,0.09-0.07c-0.01-0.04,0-0.06,0.01-0.09c0.02,0,0.04,0.01,0.06,0.02
c0-0.02,0.02-0.02,0.04-0.02c0,0,0.04-0.01,0.04-0.01c0.01,0,0.04,0,0.07,0.02c0.04,0.02,0.06,0.04,0.07,0.05
c0.01,0,0.01,0.04,0.02,0.04c0.01,0.01,0.03,0.03,0.02,0.04c0.02,0,0.04,0.01,0.06,0.03c0,0.02-0.02,0.05-0.05,0.06
c0.03,0.04-0.03,0.11-0.05,0.16c0.33-0.07,0.87,0.03,1.05,0.03c0.12,0,0.32-0.02,0.32-0.07c0-0.04-0.04-0.06-0.25-0.06
c-0.21,0-0.87,0.14-0.87-0.1c0-0.12,0.14-0.12,0.32-0.11c0.01,0,0.01-0.01,0.02-0.02c0.13-0.08,0.34,0.03,0.45-0.04
c-0.01,0.04-0.06,0.08-0.2,0.08c0.24,0.05,0.43-0.13,0.66,0.05c-0.19-0.05-0.57,0.11-0.88,0.02c-0.03-0.01-0.04-0.02-0.05-0.03
c-0.13-0.01-0.24-0.01-0.24,0.05c0,0.14,0.55,0.05,0.8,0.05C22.12,11.35,22.2,11.39,22.2,11.47z M20.24,12.52
c-0.01,0.01-0.01,0.04,0.01,0.06c0.02,0.01,0.05-0.01,0.05-0.03c0.01-0.02,0.01-0.03,0-0.04c-0.01-0.01-0.01-0.02-0.01-0.04
c0.01-0.02,0.03-0.01,0.04,0c-0.01-0.02-0.01-0.03,0-0.03c0.01,0,0.01,0.03,0.02,0.02c0.01,0,0-0.02,0-0.02
c0-0.01-0.01-0.02-0.01-0.02l-0.08-0.04c-0.01,0-0.02-0.01-0.02,0c0,0-0.02,0.01-0.02,0.02c0,0.01,0.02-0.01,0.03,0
c0.01,0.01,0,0.02-0.02,0.02c0.02,0.01,0.03,0.02,0.03,0.04c-0.01,0.02-0.01,0.02-0.03,0.02C20.25,12.49,20.25,12.5,20.24,12.52z
M20.33,12.33c-0.01,0-0.06-0.03-0.08-0.05c0.02,0.04,0,0.04,0.02,0.06C20.29,12.37,20.31,12.35,20.33,12.33z M20.38,12.36
c0,0.02,0,0.06,0.03,0.06c0.03,0,0.02-0.01,0.06-0.02C20.45,12.39,20.39,12.37,20.38,12.36z M22.09,12.55
c0,0.09-0.24,0.12-0.38,0.13c0.13,0.01,0.18,0.03,0.25,0.02c0.04-0.01,0.05,0.02,0.05,0.02c0,0.04,0.05,0.02,0.06,0
c0,0.03-0.01,0.05-0.02,0.06c0,0,0,0,0,0.01c0.01,0.02-0.01,0.06,0.03,0.06c-0.01,0.02-0.02,0.02-0.04,0.02v0c0,0,0,0,0,0
c0.02,0.01,0.03,0.03,0.03,0.04c0,0.06-0.06,0.04-0.06,0.07c0,0.02,0.05,0.02,0.03,0.08c0,0-0.01,0.02-0.02,0.02
c0,0.01,0.02,0.02,0.03,0.02c-0.03,0.02-0.06,0-0.07-0.02c-0.01,0-0.02,0-0.02,0c-0.02-0.01-0.02-0.04-0.01-0.07c0,0,0,0,0,0
c-0.03,0.01-0.02,0.06-0.04,0.06h-0.02c-0.01,0.02-0.01,0.03,0,0.04c-0.02,0-0.04-0.03-0.04-0.05c-0.01,0-0.02-0.01-0.02-0.01
c-0.03-0.01,0.01-0.05,0.03-0.07c0,0,0-0.01-0.01,0c-0.02,0.03-0.06,0.01-0.07-0.03c0,0,0-0.01,0-0.01c-0.02,0-0.04,0.02-0.05,0.02
c0-0.03,0.03-0.06,0.06-0.06c0,0,0.01-0.02,0.03-0.02c0.03,0,0.08,0.02,0.09,0c0.01-0.02-0.01-0.03,0.01-0.09
c0-0.02-0.01-0.02-0.02-0.03c-0.02,0-0.08-0.02-0.13,0.01c-0.05,0.03-0.07,0.04-0.18,0.04c-0.06,0-0.1-0.02-0.15-0.04
c0.02,0.04,0,0.07,0.02,0.08c0.04,0.02,0.05,0.09,0.04,0.11c-0.01,0.02-0.07,0.02-0.11,0.01c-0.01,0-0.02,0-0.03,0
c-0.04,0.01,0,0.05-0.05,0.07c-0.03,0.01-0.05-0.01-0.06-0.02c0,0,0-0.01-0.01-0.01c-0.01,0-0.01,0-0.02,0c0,0-0.01,0-0.01,0.01
c0,0.01,0,0.02-0.01,0.03c0,0-0.01,0-0.02,0.01c0,0.01,0.03,0.02,0.04,0.02c-0.04,0.03-0.08,0-0.08-0.03c0,0-0.01-0.02-0.01-0.02
c0-0.01,0-0.01,0-0.02c0,0,0,0-0.01-0.01c0,0,0,0,0,0c0,0.01-0.01,0.01-0.01,0.01h-0.02c0,0.01,0.01,0.02,0.02,0.03
c-0.04,0.01-0.06-0.01-0.06-0.03c0-0.01-0.01-0.02-0.01-0.02c-0.02-0.08,0.07-0.04,0.07-0.06c0,0,0-0.01-0.01-0.01
c-0.01,0-0.01,0.01-0.03,0.01c-0.02,0-0.03-0.01-0.03-0.02c0,0,0-0.01,0-0.02c-0.02,0-0.04,0.02-0.05,0.03
c-0.01-0.03,0.03-0.07,0.06-0.07c0,0,0.02-0.01,0.02-0.02c0.07-0.03,0.08,0.12,0.15,0.08c0.01-0.01,0.04-0.01,0.06-0.02
c0,0,0.01,0,0-0.01c-0.02-0.02-0.06-0.03-0.08-0.03c-0.04-0.01-0.04-0.08-0.02-0.13c-0.02,0.02-0.03,0.03-0.05,0.03
c-0.45-0.04-0.23,0.17-0.61,0.12c-0.03,0-0.02,0.05-0.09,0.05c0,0,0,0,0,0c-0.01,0-0.02,0.01-0.04,0.01c0,0.01,0,0.02-0.01,0.03
l-0.1,0.05c0,0,0-0.01,0.01-0.01c-0.03,0.02-0.06,0.04-0.09,0.03c0.02-0.01,0.02-0.02,0.03-0.03c0-0.01,0-0.01-0.01,0
c-0.07,0.04-0.19-0.01-0.2,0.09c-0.02-0.02-0.01-0.06-0.02-0.06c-0.01,0-0.02,0.02-0.02,0.02c-0.01-0.01-0.01-0.02,0-0.04
c0,0,0-0.01,0,0c-0.04,0.01-0.07,0.01-0.08,0c0,0,0,0,0,0c0-0.01-0.01-0.02-0.01-0.02c-0.01,0.04-0.05,0.07-0.07,0.07
c0.03-0.02,0.02-0.05,0.02-0.07c-0.01,0.01-0.02,0.03-0.03,0.03c0-0.02-0.01-0.03-0.02-0.04c0,0,0,0,0,0c0,0.02-0.02,0.05-0.05,0.06
c-0.04,0-0.05-0.04-0.05-0.05c0,0,0-0.01-0.01,0c-0.02,0.01,0,0.05-0.04,0.07c0,0-0.01,0-0.02-0.01c0,0.03,0.01,0.05,0.02,0.06
c-0.02,0-0.07-0.03-0.06-0.07c0,0,0-0.01,0-0.01c-0.01-0.01-0.02-0.01-0.02-0.01c-0.04-0.02,0.01-0.05,0.03-0.08
c0,0,0-0.01-0.01-0.01c-0.07,0.05-0.09,0.02-0.09-0.01c0,0,0-0.01-0.01-0.02c-0.02,0-0.03,0.02-0.04,0.03
c-0.02-0.04,0.03-0.07,0.06-0.07c0,0,0.01,0,0.01,0c0.01,0,0.02-0.01,0.02-0.01c0.03-0.02,0.04,0.01,0.06,0.03
c0.02,0.01,0.03,0.01,0.04,0c0.01,0,0-0.01,0-0.01c-0.07-0.02-0.07-0.05-0.07-0.06c0,0,0.01-0.01,0.01-0.02
c-0.01-0.02-0.03-0.03-0.04-0.03c0.02-0.01,0.06-0.01,0.07,0.01c0.01,0,0.02,0,0.03,0c0.01,0,0.03,0.01,0.03,0.03
c0.01,0.02,0.01,0.04,0.02,0.05c0.03,0.05,0.14,0.01,0.18-0.02c0.03-0.02,0.18-0.01,0.19-0.01c0.01,0-0.02-0.05-0.02-0.1
c-0.01-0.01-0.02-0.02-0.02-0.02c-0.01,0.02-0.04,0.02-0.05,0.03c-0.09-0.05-0.14-0.14-0.15-0.14c-0.01,0-0.01,0.01-0.01,0.03
c-0.02,0-0.03-0.02-0.03-0.04c0,0,0-0.01,0-0.01c-0.01,0-0.02,0.01-0.02,0.01c-0.01,0-0.02-0.01-0.02-0.02c0,0,0,0-0.01,0
c-0.06,0.04-0.15-0.02-0.1-0.1c0,0.07,0.08,0.08,0.09,0.01c0-0.01,0-0.01-0.01-0.01c-0.05-0.01-0.05-0.04-0.02-0.08
c0,0,0-0.01,0-0.01c-0.01,0-0.01-0.01-0.02-0.01c-0.01,0-0.01,0-0.01,0c-0.02,0.01-0.03,0.01-0.03,0.01c0,0-0.01-0.01-0.01-0.01
c0,0,0,0-0.01,0c-0.01,0-0.01,0.02-0.01,0.03c-0.04-0.02-0.03-0.05-0.01-0.06c0-0.01,0-0.02,0-0.02c0-0.02,0.02-0.05,0.08-0.02
c0,0,0.01,0,0,0c0,0,0-0.01,0-0.01c0,0,0-0.01-0.01-0.01c-0.03,0-0.06-0.01-0.05-0.04c0,0,0-0.02,0.01-0.03
c-0.01-0.01-0.02-0.01-0.03-0.01c0.04-0.04,0.07-0.01,0.07,0.02c0,0,0,0,0,0.01c0,0,0.02,0,0.02,0c0.03,0,0.04,0.04,0.05,0.07
c0,0,0,0.01,0,0c0-0.01,0-0.01,0-0.02c0,0,0-0.01,0-0.01c-0.01-0.01-0.01-0.03,0-0.04c0,0,0.01-0.01,0.02-0.02
c0-0.02-0.01-0.03-0.02-0.04c0.02-0.01,0.05,0.01,0.06,0.04c0,0.01,0.01,0.03,0.01,0.04c0,0.04-0.02,0.07-0.02,0.11
c0,0.05,0,0.07,0.05,0.1c0.06,0.04,0.09,0.1,0.13,0.1c0.02,0,0.03,0,0.04,0.01c0,0,0.02,0,0.04,0l0.02,0.01c0-0.02,0-0.05,0.01-0.07
c-0.01,0-0.02-0.01-0.03-0.03c0.03,0,0.04-0.05,0.06-0.09c-0.01,0-0.02-0.01-0.03-0.03c0.03,0.01,0.05-0.06,0.08-0.06
c-0.01-0.04-0.01-0.06,0.01-0.08c0.02,0,0.04,0.01,0.05,0.02c0-0.02,0.02-0.02,0.04-0.02c0,0,0.03-0.01,0.04-0.01
c0.01,0,0.04,0,0.07,0.02c0.03,0.02,0.06,0.04,0.07,0.05c0,0.01,0.01,0.04,0.02,0.04c0.01,0.01,0.02,0.03,0.01,0.04
c0.02,0,0.04,0.01,0.06,0.03c0,0.02-0.02,0.05-0.05,0.06c0.03,0.04-0.04,0.12-0.06,0.17c0.3-0.09,1.07,0.01,1.25,0.01
c0.11,0,0.31-0.01,0.31-0.07c0-0.04-0.04-0.06-0.24-0.06c-0.2,0-1.02,0.14-1.02-0.1c0-0.13,0.27-0.11,0.49-0.1
c0.01-0.01,0.01-0.01,0.02-0.02c0.12-0.08,0.42,0.04,0.52-0.03c-0.01,0.04-0.15,0.06-0.28,0.06c0.23,0.05,0.45-0.12,0.62,0.03
c-0.22-0.07-0.53,0.13-0.83,0.04c-0.03-0.01-0.04-0.02-0.05-0.03c-0.18,0-0.42-0.04-0.42,0.04c0,0.13,0.72,0.04,0.95,0.04
C22.02,12.43,22.09,12.48,22.09,12.55z M23.59,14.07c-0.01,0.01-0.01,0.04,0.02,0.06c0.02,0.01,0.05-0.01,0.05-0.03
c0-0.02,0.01-0.03,0-0.04c-0.01-0.01-0.01-0.02-0.01-0.04c0.01-0.02,0.03-0.01,0.04,0c-0.01-0.02-0.01-0.03,0-0.03
c0.01,0,0.01,0.03,0.02,0.02s0-0.02,0-0.02c0-0.01-0.01-0.01-0.01-0.02l-0.07-0.03c-0.01,0-0.02-0.01-0.02,0
c-0.01,0.01-0.02,0.01-0.01,0.02c0,0.01,0.02-0.01,0.03,0c0.01,0.01,0,0.02-0.02,0.02c0.02,0.01,0.03,0.02,0.03,0.04
c-0.01,0.02-0.01,0.02-0.03,0.02C23.61,14.05,23.6,14.06,23.59,14.07z M23.68,13.89c-0.01,0-0.06-0.03-0.08-0.04
c0.02,0.04,0,0.04,0.02,0.06C23.64,13.93,23.67,13.91,23.68,13.89z M23.74,13.91c0,0.02,0.01,0.06,0.03,0.06
c0.03,0,0.02-0.02,0.06-0.02C23.8,13.94,23.75,13.93,23.74,13.91z M25.42,14.35c0.01,0.02-0.01,0.06,0.03,0.06
c-0.01,0.02-0.03,0.02-0.04,0.02h0c0,0,0,0,0,0c0.02,0.01,0.02,0.02,0.02,0.03c0,0.06-0.06,0.04-0.06,0.07
c0,0.02,0.05,0.02,0.03,0.08c0,0-0.01,0.02-0.02,0.03c0,0.01,0.02,0.02,0.03,0.02c-0.03,0.02-0.06,0-0.06-0.02
c-0.01,0-0.02,0-0.02,0c-0.02-0.01-0.02-0.04,0-0.07c0,0,0,0,0,0c-0.03,0.01-0.02,0.06-0.05,0.06h-0.02
c-0.01,0.02-0.01,0.03-0.01,0.04c-0.02,0-0.03-0.03-0.03-0.05c-0.01,0-0.02-0.01-0.02-0.01c-0.03-0.01,0.01-0.05,0.03-0.07
c0.01,0-0.01-0.01-0.01,0c-0.02,0.02-0.07,0.01-0.07-0.03v-0.01c-0.02,0-0.04,0.02-0.05,0.02c0-0.03,0.03-0.05,0.06-0.06
c0,0,0.02-0.02,0.03-0.02c0.03,0,0.08,0.02,0.09,0c0.02-0.02,0-0.03,0.02-0.09c0-0.02-0.01-0.02-0.02-0.03
c-0.02,0-0.08-0.02-0.13,0.01c-0.05,0.03-0.08,0.04-0.19,0.04c-0.06,0-0.1-0.02-0.15-0.04c0.02,0.04,0,0.07,0.02,0.08
c0.04,0.02,0.05,0.09,0.04,0.11c-0.01,0.02-0.07,0.02-0.11,0.01c-0.01,0-0.02,0-0.03,0c-0.04,0.01,0,0.05-0.05,0.07
c-0.03,0.01-0.05-0.01-0.06-0.02c0,0,0-0.01-0.01,0c-0.01,0-0.01,0-0.02,0c0,0-0.01,0-0.01,0.01c0,0.01,0,0.02-0.01,0.03
c0,0-0.01,0-0.02,0.01c0,0.01,0.03,0.02,0.04,0.02c-0.04,0.03-0.08,0-0.08-0.03c0,0-0.01-0.02-0.01-0.03c0-0.01,0.01-0.01,0.01-0.02
c0,0,0-0.01-0.01-0.01c0,0,0,0,0,0c0,0.01-0.01,0.01-0.01,0.01c0,0-0.01,0-0.02,0c0,0.01,0.01,0.02,0.02,0.03
c-0.04,0.01-0.06-0.01-0.06-0.03c-0.01-0.01-0.01-0.02-0.02-0.02c-0.02-0.08,0.08-0.03,0.08-0.06c0-0.01,0-0.01-0.01-0.01
c-0.01,0-0.01,0.01-0.03,0.01c-0.02,0-0.03-0.01-0.03-0.02v-0.02c-0.02,0-0.04,0.02-0.05,0.03c-0.01-0.03,0.03-0.07,0.06-0.07
c0,0,0.02-0.01,0.02-0.02c0.07-0.03,0.08,0.12,0.14,0.08c0.01-0.01,0.04-0.01,0.06-0.02c0,0,0.01,0,0-0.01
c-0.02-0.02-0.06-0.03-0.08-0.03c-0.05-0.01-0.04-0.1-0.02-0.14c-0.02,0.02-0.03,0.04-0.05,0.04c-0.45-0.04-0.23,0.17-0.61,0.12
c-0.03,0-0.02,0.05-0.08,0.05c-0.03,0.01-0.07,0.01-0.07,0.02c0,0.04-0.09,0.1-0.12,0.08c0.02-0.01,0.02-0.02,0.03-0.03
c0-0.01,0-0.01-0.01,0c-0.07,0.04-0.12,0-0.13,0.1c-0.02-0.03-0.01-0.07-0.02-0.07c-0.01,0-0.02,0.02-0.02,0.02
c-0.01-0.01-0.01-0.03,0-0.04c0,0,0-0.01-0.01,0c-0.04,0.01-0.07,0.01-0.08,0c0,0,0,0,0,0c0-0.01-0.01-0.02-0.02-0.02
c-0.01,0.04-0.05,0.07-0.07,0.07c0.03-0.03,0.02-0.05,0.02-0.07c-0.01,0.01-0.02,0.03-0.03,0.03c0-0.02-0.01-0.04-0.02-0.04
c0,0,0,0,0,0c0,0.02-0.01,0.05-0.05,0.06c-0.04,0-0.05-0.03-0.05-0.05c0,0,0-0.01-0.01,0c-0.02,0.01,0,0.05-0.04,0.07
c0,0-0.01,0-0.02-0.01c0,0.03,0.01,0.05,0.02,0.06c-0.02,0-0.07-0.03-0.06-0.07c0,0,0-0.01,0-0.01c-0.01,0-0.02-0.01-0.02-0.01
c-0.04-0.02,0.01-0.05,0.03-0.08c0,0,0-0.01,0,0c-0.07,0.05-0.09,0.02-0.09-0.02c0,0,0-0.01-0.01-0.02c-0.02,0-0.03,0.02-0.04,0.03
c-0.02-0.04,0.03-0.07,0.05-0.07c0,0,0.01,0,0.01,0c0.01,0,0.02-0.01,0.02-0.01c0.03-0.02,0.04,0.01,0.06,0.03
c0.01,0.01,0.03,0.01,0.04,0.01c0,0,0-0.01,0-0.01c-0.07-0.02-0.07-0.05-0.06-0.06c0,0,0.01-0.01,0.01-0.02
c-0.01-0.02-0.03-0.02-0.04-0.03c0.02-0.01,0.05-0.01,0.07,0.01c0.01,0,0.02,0,0.03,0c0.01,0,0.02,0.01,0.03,0.03
c0.01,0.02,0.01,0.04,0.02,0.05c0.03,0.04,0.14,0.01,0.18-0.02c0.03-0.02,0.12,0,0.13,0c0.01,0-0.04-0.05-0.04-0.09l-0.02,0.01
c-0.02-0.01-0.03-0.02-0.03-0.04c-0.02,0.01-0.06,0.03-0.06,0.04c-0.1-0.05-0.14-0.15-0.15-0.15c-0.01,0-0.01,0.01-0.01,0.03
c-0.02,0-0.03-0.02-0.03-0.04c0,0,0-0.01-0.01-0.01c-0.01,0-0.02,0.01-0.02,0.01c-0.01,0-0.02-0.01-0.02-0.02c0,0,0,0-0.01,0
c-0.06,0.04-0.15-0.02-0.1-0.09c0,0.07,0.08,0.08,0.09,0.01c0-0.01,0-0.01-0.01-0.01c-0.05-0.01-0.05-0.04-0.02-0.08
c0,0,0-0.01,0-0.01c-0.01,0-0.01-0.01-0.01-0.01c-0.01,0-0.01,0-0.01,0c-0.02,0.01-0.03,0.01-0.03,0.01c0,0-0.01-0.01-0.01-0.01
c0,0,0,0-0.01,0C23,13.95,23,13.97,23,13.98c-0.03-0.02-0.03-0.05-0.01-0.06c0-0.01,0-0.02,0-0.02c0-0.02,0.02-0.05,0.08-0.03
c0,0,0.01,0,0,0c0,0,0-0.01,0-0.01c0,0,0-0.01-0.01-0.01c-0.03,0-0.05-0.01-0.05-0.04c0,0,0.01-0.02,0.01-0.03
c0-0.01-0.02-0.01-0.03-0.01c0.04-0.04,0.07-0.01,0.07,0.02c0,0,0,0,0,0.01c0.01,0,0.02,0,0.02,0c0.02,0,0.04,0.04,0.05,0.07
c0,0,0,0.01,0.01,0c0-0.01,0-0.01,0-0.02c0,0,0,0,0-0.01c-0.01-0.01-0.01-0.03,0-0.04c0,0,0.01-0.01,0.02-0.02
c0-0.02-0.01-0.03-0.02-0.04c0.02-0.01,0.05,0.02,0.06,0.04c0,0.01,0.01,0.03,0.01,0.04c0,0.04-0.02,0.07-0.02,0.11
c0,0.05,0,0.07,0.05,0.1c0.06,0.04,0.09,0.1,0.13,0.1c0.01,0,0.03,0,0.04,0.01c0,0,0.02,0,0.04,0l0.04,0.01c0-0.02,0-0.04,0.01-0.07
c-0.01,0-0.02-0.01-0.04-0.03c0.03,0,0.04-0.05,0.06-0.09c-0.01,0-0.02-0.01-0.03-0.03c0.03,0.01,0.06-0.06,0.08-0.06
c-0.01-0.04,0-0.06,0.01-0.08c0.02,0,0.04,0.01,0.06,0.02c0-0.02,0.02-0.02,0.04-0.02c0,0,0.03-0.01,0.04-0.01
c0.01,0,0.04,0,0.07,0.02c0.03,0.02,0.06,0.04,0.07,0.05c0.01,0,0.02,0.04,0.02,0.04c0.01,0.01,0.02,0.03,0.01,0.04
c0.02,0,0.04,0.01,0.06,0.03c0,0.03-0.02,0.05-0.05,0.06c0.04,0.04-0.04,0.12-0.06,0.17c0.31-0.09,1.07,0.01,1.25,0.01
c0.11,0,0.31-0.01,0.31-0.07c0-0.04-0.04-0.06-0.24-0.06c-0.2,0-1.02,0.14-1.02-0.1c0-0.13,0.27-0.1,0.49-0.1
c0.01-0.01,0.01-0.01,0.02-0.02c0.12-0.08,0.42,0.04,0.52-0.03c-0.01,0.04-0.15,0.06-0.28,0.06c0.23,0.05,0.38-0.1,0.62-0.01
c-0.18-0.05-0.53,0.17-0.83,0.09c-0.03-0.01-0.04-0.02-0.05-0.03c-0.18-0.01-0.42-0.04-0.42,0.04c0,0.13,0.72,0.05,0.95,0.05
c0.23,0,0.31,0.05,0.31,0.12c0,0.09-0.25,0.11-0.38,0.12c-0.01,0-0.01,0.01,0,0.01c0.13,0.01,0.2,0.03,0.27,0.02
c0.04-0.01,0.04,0.02,0.04,0.02c0,0.04,0.05,0.02,0.07,0C25.45,14.31,25.44,14.33,25.42,14.35C25.42,14.34,25.42,14.35,25.42,14.35z
M23.73,15.01c0.03,0,0.02-0.02,0.06-0.02c-0.03-0.01-0.08-0.03-0.09-0.04C23.7,14.97,23.71,15.01,23.73,15.01z M23.69,15.06
c0.01,0,0-0.02,0-0.02c0-0.01,0-0.01-0.01-0.02l-0.07-0.03c-0.01-0.01-0.02-0.01-0.02,0c-0.01,0-0.02,0.01-0.01,0.02
c0,0.01,0.02-0.01,0.03,0c0.01,0.01,0,0.01-0.02,0.02c0.02,0.01,0.03,0.02,0.02,0.04c0,0.01-0.01,0.02-0.03,0.02
c-0.01,0-0.01,0.01-0.02,0.03c-0.01,0.02-0.01,0.04,0.01,0.06c0.02,0.01,0.05-0.01,0.05-0.02c0.01-0.02,0.01-0.03,0.01-0.04
c-0.01-0.01-0.01-0.02-0.01-0.04c0.01-0.02,0.02-0.01,0.04,0c-0.01-0.02-0.01-0.03,0-0.02C23.69,15.04,23.69,15.06,23.69,15.06z
M24.37,14.94c-0.12-0.01-0.21-0.01-0.21,0.05c0,0.13,0.5,0.04,0.73,0.04c0.22,0,0.23,0.04,0.23,0.11c0,0.08-0.26,0.1-0.39,0.11
c-0.01,0-0.01,0.01,0,0.01c0.13,0.01,0.22,0.02,0.29,0.02c0.04-0.01,0.04,0.02,0.04,0.02c0,0.04,0.05,0.02,0.06,0
c0,0.03-0.02,0.05-0.03,0.06c0,0,0,0.01,0,0.01c0,0.02-0.02,0.06,0.02,0.05c-0.01,0.02-0.03,0.02-0.04,0.02h0c0,0,0,0,0,0
c0.02,0.01,0.02,0.02,0.02,0.03c-0.02,0.06-0.07,0.04-0.07,0.06c-0.01,0.02,0.04,0.02,0.01,0.08c0,0-0.01,0.02-0.02,0.02
c0,0.01,0.02,0.02,0.02,0.02c-0.03,0.02-0.06,0-0.06-0.02c-0.01,0-0.02,0-0.02,0c-0.02-0.01-0.01-0.04,0.01-0.07c0,0,0,0,0,0
c-0.03,0.01-0.03,0.06-0.05,0.06c0,0-0.01,0-0.02,0c-0.02,0.02-0.02,0.03-0.01,0.04c-0.02,0-0.03-0.03-0.02-0.05
c-0.01,0-0.02-0.01-0.02-0.01c-0.03-0.01,0.02-0.05,0.04-0.06c0.01-0.01,0-0.01-0.01-0.01c-0.03,0.02-0.07,0.01-0.06-0.02
c0,0,0-0.01,0-0.01c-0.02,0-0.04,0.02-0.05,0.02c0.01-0.03,0.04-0.05,0.07-0.06c0,0,0.02-0.01,0.03-0.01c0.03,0,0.07,0.02,0.09,0
c0.02-0.02,0-0.03,0.03-0.08c0.01-0.02,0-0.02-0.01-0.03c-0.01,0-0.07-0.02-0.13,0.01c-0.05,0.03-0.1,0.04-0.2,0.04
c-0.06,0-0.1-0.02-0.14-0.03c0.02,0.03,0,0.06,0.02,0.07c0.04,0.02,0.05,0.09,0.04,0.11c-0.01,0.02-0.07,0.02-0.1,0.01
c-0.01,0-0.02,0-0.03,0c-0.04,0.01,0,0.05-0.04,0.07c-0.03,0.01-0.05,0-0.05-0.02c0,0,0-0.01-0.01-0.01c-0.01,0-0.01,0-0.02,0
c0,0-0.01,0-0.01,0.01c0,0.01,0,0.02-0.01,0.03c0,0-0.01,0-0.02,0.01c0,0.01,0.03,0.02,0.04,0.02c-0.04,0.03-0.08,0-0.08-0.03
c0,0-0.01-0.02-0.01-0.02c0-0.01,0.01-0.01,0.01-0.01c0,0,0-0.01-0.01-0.01c0,0,0,0,0,0c0,0.01-0.01,0.01-0.01,0.01
c0,0-0.01,0-0.02,0c0,0.01,0.01,0.02,0.02,0.03c-0.04,0.01-0.06-0.01-0.05-0.03c-0.01,0-0.01-0.02-0.01-0.02
c-0.02-0.07,0.07-0.03,0.07-0.06c0-0.01,0-0.01-0.01-0.01c-0.01,0-0.01,0.01-0.03,0.01c-0.02,0-0.03-0.01-0.03-0.02
c0,0,0-0.01,0-0.02c-0.02,0-0.04,0.02-0.05,0.03c-0.01-0.03,0.03-0.06,0.06-0.06c0,0,0.02-0.01,0.02-0.01
c0.07-0.03,0.07,0.11,0.14,0.07c0.01-0.01,0.04-0.01,0.06-0.02c0,0,0.01,0,0-0.01c-0.01-0.01-0.05-0.03-0.07-0.03
c-0.04-0.01-0.04-0.09-0.02-0.13c-0.02,0.02-0.06,0.04-0.08,0.03c-0.31-0.05-0.16,0.13-0.36,0.11c-0.02,0-0.02,0.05-0.08,0.04
c0.02-0.01,0.02-0.02,0.01-0.03c0,0.01-0.01,0.01-0.02,0.02c-0.02,0.05-0.09,0.14-0.15,0.1c0.02-0.01,0.02-0.02,0.03-0.03
c0-0.01,0-0.01-0.01,0c-0.06,0.04-0.14,0.02-0.15,0.11c-0.02-0.02-0.01-0.06-0.02-0.06c-0.01,0-0.02,0.02-0.02,0.02
c-0.01-0.01-0.01-0.02,0-0.04c0,0,0-0.01-0.01,0c-0.04,0.01-0.07,0.01-0.08,0c0,0,0,0,0,0c0-0.01-0.01-0.02-0.01-0.02
c-0.01,0.04-0.05,0.06-0.06,0.07c0.02-0.03,0.02-0.05,0.02-0.07c-0.01,0.01-0.02,0.02-0.03,0.03c0-0.02-0.01-0.04-0.02-0.04
c0,0,0,0,0,0c0,0.02-0.01,0.05-0.05,0.06c-0.04,0-0.05-0.03-0.05-0.05c0,0,0-0.01-0.01,0c-0.02,0.01,0,0.05-0.03,0.07
c0,0-0.01,0-0.02-0.01c0,0.03,0.01,0.05,0.02,0.06c-0.02,0-0.06-0.03-0.06-0.06c0,0,0,0,0-0.01c-0.01,0-0.01-0.01-0.02-0.01
c-0.03-0.02,0.01-0.05,0.03-0.08c0,0,0-0.01-0.01,0c-0.07,0.05-0.08,0.02-0.09-0.01c0,0,0-0.01-0.01-0.02
c-0.02,0-0.03,0.02-0.04,0.03c-0.02-0.03,0.02-0.07,0.05-0.07c0,0,0.01,0,0.01,0c0.01,0,0.02-0.01,0.02-0.01
c0.03-0.02,0.03,0.01,0.06,0.03c0.01,0.01,0.03,0.01,0.04,0c0.01,0,0-0.01,0-0.01c-0.07-0.02-0.07-0.04-0.06-0.06
c0,0,0-0.01,0.01-0.02c-0.01-0.02-0.03-0.02-0.04-0.03c0.02-0.01,0.05-0.01,0.07,0.01h0.02c0.01,0,0.02,0.01,0.03,0.03
c0.01,0.02,0.01,0.04,0.02,0.05c0.03,0.04,0.13,0,0.17-0.02c0.03-0.02,0.12-0.01,0.13-0.01c0.01,0,0-0.07,0-0.11l-0.06,0.01
c-0.01-0.01-0.02-0.02-0.03-0.03c-0.08-0.04-0.07-0.02-0.09-0.02c-0.01,0-0.01,0.01-0.01,0.03c-0.02,0-0.03-0.03-0.03-0.04
c0,0,0-0.01,0-0.01c-0.01,0-0.01,0.01-0.01,0.01c-0.01,0-0.02-0.01-0.02-0.02c0,0,0,0-0.01,0c-0.06,0.04-0.14-0.02-0.1-0.09
c0,0.06,0.08,0.07,0.08,0.01c0-0.01,0-0.01-0.01-0.01c-0.04-0.01-0.05-0.04-0.01-0.07c0,0,0,0,0-0.01c0,0-0.01-0.01-0.01-0.01
c0,0-0.01,0-0.01,0c-0.02,0.01-0.02,0.01-0.03,0.01c0,0-0.01-0.01-0.01-0.01c0,0-0.01,0-0.01,0c-0.01,0-0.01,0.02-0.01,0.03
c-0.03-0.02-0.03-0.05-0.01-0.06c0-0.01,0-0.02,0-0.02c0-0.02,0.02-0.04,0.07-0.02c0,0,0.01,0,0,0c0,0,0-0.01,0-0.01
c0,0,0-0.01-0.01-0.01c-0.03,0-0.05-0.01-0.05-0.04c0,0,0.01-0.02,0.01-0.03c-0.01-0.01-0.02-0.01-0.03-0.01
c0.03-0.03,0.06-0.01,0.06,0.02c0,0,0,0,0,0c0.01,0,0.02,0,0.02,0c0.03,0,0.04,0.04,0.05,0.07c0,0,0,0.01,0.01,0
c0-0.01,0-0.01,0-0.02c0,0,0-0.01,0-0.01c-0.01-0.01-0.01-0.03,0-0.04c0,0,0.01-0.01,0.02-0.02c0-0.02-0.01-0.03-0.02-0.04
c0.02-0.01,0.05,0.01,0.06,0.04c0,0.01,0.01,0.03,0.01,0.03c0,0.04-0.02,0.07-0.02,0.11c0,0.04,0,0.07,0.05,0.09
c0.06,0.03,0.08,0.03,0.12,0.03c0,0,0.01,0,0.01,0l0.03,0.01c0-0.03,0.01-0.06,0.02-0.08c-0.01-0.01-0.01-0.01-0.02-0.02
c0.02,0,0.03-0.05,0.06-0.09c-0.01,0-0.02-0.01-0.02-0.03c0.02,0.01,0.05-0.06,0.08-0.06c-0.01-0.03,0-0.05,0.01-0.08
c0.02,0,0.04,0.01,0.05,0.02c0-0.02,0.02-0.02,0.04-0.02c0,0,0.03-0.01,0.04,0c0.01,0,0.03,0,0.07,0.02
c0.03,0.01,0.05,0.03,0.07,0.04c0.01,0,0.01,0.04,0.02,0.04c0.01,0.01,0.02,0.03,0.01,0.04c0.02,0,0.04,0.01,0.05,0.02
c0,0.02-0.02,0.05-0.05,0.06c0.03,0.03-0.02,0.1-0.05,0.15c0.3-0.06,0.79,0.02,0.95,0.02c0.11,0,0.32-0.01,0.32-0.07
c0-0.04,0.02-0.06-0.16-0.06c-0.19,0-0.78,0.13-0.78-0.09c0-0.1,0.13-0.1,0.29-0.1c0.01,0,0.01-0.01,0.02-0.01
c0.12-0.07,0.4,0.03,0.5-0.03c-0.01,0.04-0.14,0.06-0.27,0.06c0.22,0.04,0.36-0.09,0.59-0.01c-0.17-0.05-0.5,0.17-0.79,0.08
C24.4,14.97,24.38,14.96,24.37,14.94z M23.47,16.14c-0.01,0.01-0.01,0.04,0.01,0.05c0.02,0.01,0.04-0.01,0.05-0.02
c0.01-0.01,0.01-0.03,0-0.03c-0.01-0.01-0.01-0.02-0.01-0.03c0.01-0.02,0.02-0.01,0.04,0c-0.01-0.02-0.01-0.03,0-0.02
c0.01,0,0.01,0.02,0.02,0.02c0.01,0,0-0.02,0-0.02c0-0.01,0-0.01-0.01-0.02l-0.07-0.03c-0.01,0-0.02-0.01-0.02,0
c0,0-0.02,0.01-0.01,0.02c0,0,0.02-0.01,0.03,0c0.01,0.01,0,0.01-0.02,0.02c0.01,0.01,0.03,0.02,0.02,0.03
c0,0.01-0.01,0.02-0.03,0.02C23.48,16.12,23.48,16.13,23.47,16.14z M23.6,16c0,0.02,0.01,0.05,0.03,0.05c0.02,0,0.02-0.01,0.05-0.02
C23.66,16.03,23.61,16.01,23.6,16z M24.14,15.97c-0.06,0.02-0.1,0.05-0.1,0.08c0,0.12,0.74-0.06,0.75,0.11
c0,0.08-0.15,0.15-0.4,0.15c-0.01,0-0.04,0-0.07,0c0,0.06,0.08,0.06,0.12,0.11c0.02,0.03,0.01,0.05-0.04,0.07
c-0.03,0.01,0.02,0.05,0.04,0.04c-0.02,0.02-0.04,0.03-0.05,0.03c0,0,0,0-0.01,0c-0.01,0.02-0.04,0.03-0.02,0.06
c-0.02,0.01-0.03,0-0.04-0.01v0c0,0,0,0,0,0c0.01,0.02,0,0.03-0.01,0.04c-0.04,0.04-0.06-0.01-0.08,0.01
c-0.02,0.01,0.01,0.05-0.03,0.07c0,0-0.02,0-0.03,0c-0.01,0.01,0,0.03,0,0.03c-0.03-0.01-0.04-0.04-0.03-0.06
c0-0.01-0.01-0.01-0.01-0.02c-0.01-0.02,0.01-0.04,0.04-0.05c0,0,0,0,0,0c-0.03-0.01-0.05,0.03-0.07,0.01c0,0-0.01-0.01-0.01-0.01
c-0.02,0.01-0.03,0.02-0.03,0.03c-0.01-0.02-0.01-0.04,0.01-0.05c0-0.01,0-0.02,0-0.02c-0.01-0.03,0.04-0.03,0.06-0.02
c0.01,0,0.01,0,0-0.01c0,0,0,0,0,0h0h0c-0.01-0.01-0.01-0.02-0.01-0.02c0,0,0-0.01,0-0.01c-0.02-0.01-0.04,0-0.05,0
c0.01-0.03,0.05-0.03,0.07-0.03c0,0,0.02-0.01,0.03,0c0.01,0.01,0.03,0.03,0.04,0.04l0,0c0.02-0.01,0.02-0.02,0.06-0.05
c0.01-0.01,0.01-0.02,0.01-0.03c-0.01-0.01-0.06-0.04-0.11-0.05c-0.03,0.04-0.19,0.02-0.24,0c0.11,0.07,0.05,0.2,0.08,0.22
c0.04,0.02,0.04,0.09,0.03,0.1c-0.01,0.02-0.04,0.01-0.07,0c-0.01,0-0.02,0-0.03,0c-0.04,0.01,0,0.05-0.04,0.06
c-0.03,0.01-0.04-0.01-0.05-0.02c0,0-0.01-0.01-0.01-0.01c-0.01,0-0.01,0-0.02,0c0,0-0.01,0-0.01,0.01c0,0.01,0,0.02-0.01,0.02
c0,0-0.01,0-0.02,0.01c0,0.01,0.03,0.02,0.04,0.02c-0.04,0.03-0.07,0-0.07-0.03c0,0-0.01-0.02-0.01-0.02c0-0.01,0.01-0.01,0.01-0.02
c0,0,0,0-0.01-0.01c0,0,0,0,0,0c0,0.01-0.01,0.01-0.01,0.01c0,0-0.01,0-0.02,0c0,0.01,0.01,0.02,0.02,0.03
c-0.04,0.01-0.06-0.01-0.05-0.03c0-0.01-0.01-0.02-0.01-0.02c-0.02-0.07,0.07-0.03,0.07-0.06c0,0,0-0.01-0.01-0.01
c-0.01,0-0.01,0.01-0.02,0.01c-0.02,0-0.03-0.01-0.03-0.02v-0.01c-0.02,0-0.03,0.02-0.04,0.02c-0.01-0.03,0.03-0.06,0.06-0.06
c0,0,0.01-0.01,0.02-0.01c0.07-0.02,0.07,0.11,0.13,0.07c0.01-0.01,0.03-0.01,0.06-0.02c0,0,0.01,0,0-0.01
c-0.02-0.01-0.07-0.06-0.07-0.1c0-0.04,0.01-0.09,0.02-0.11c-0.08,0-0.11,0.06-0.19,0.07c-0.01,0-0.02,0-0.02,0
c-0.01,0.11-0.05,0.15-0.05,0.16c0,0.03-0.07,0.07-0.09,0.06c0.01-0.01,0.02-0.02,0.03-0.03c0-0.01,0-0.01-0.01,0
c-0.06,0.04-0.11,0-0.12,0.09c-0.02-0.02-0.01-0.06-0.02-0.06c0,0-0.01,0.02-0.01,0.02c-0.01-0.01-0.01-0.02,0-0.04
c0,0,0-0.01-0.01,0c-0.04,0.01-0.06,0.01-0.07,0c0,0,0,0,0,0c0-0.01-0.01-0.02-0.01-0.02c-0.01,0.04-0.05,0.06-0.06,0.06
c0.03-0.02,0.02-0.05,0.02-0.06c-0.01,0.01-0.02,0.02-0.03,0.03c0.01-0.02-0.01-0.03-0.02-0.04c0,0,0,0,0,0
c0,0.02-0.01,0.05-0.05,0.05c-0.04,0-0.04-0.03-0.05-0.05c0,0,0-0.01-0.01,0c-0.02,0.01,0,0.05-0.03,0.06c0,0-0.01,0-0.02,0
c0,0.03,0.01,0.04,0.02,0.05c-0.02,0-0.06-0.02-0.05-0.06c0,0,0,0,0-0.01c-0.01,0-0.01-0.01-0.01-0.01
c-0.03-0.02,0.01-0.05,0.02-0.07c0,0,0-0.01-0.01-0.01c-0.06,0.04-0.08,0.02-0.08-0.01c0,0,0-0.01-0.01-0.02
c-0.02,0-0.03,0.02-0.03,0.03c-0.02-0.03,0.02-0.07,0.05-0.06c0,0,0,0,0.01,0c0.01,0,0.02-0.01,0.02-0.01
c0.03-0.02,0.03,0.01,0.06,0.03c0.01,0.01,0.02,0.01,0.03,0c0,0,0-0.01,0-0.01c-0.06-0.02-0.07-0.04-0.06-0.05
c0,0,0.01-0.01,0.01-0.02c-0.01-0.02-0.02-0.02-0.04-0.02c0.01-0.01,0.05-0.01,0.06,0.01c0.01,0,0.02,0,0.03,0
c0.01,0,0.02,0.01,0.03,0.03c0.01,0.02,0.01,0.03,0.02,0.05c0.01,0.02,0.04,0.02,0.07,0.02c0,0,0,0,0,0.01l0-0.01
c0.03,0,0.07-0.02,0.09-0.03c0.03-0.01,0.13,0,0.14,0c0.01,0-0.01-0.04-0.03-0.07c-0.04,0-0.09-0.02-0.1-0.07
c-0.09-0.05-0.07-0.14-0.08-0.14c-0.01,0-0.01,0.01-0.01,0.02c-0.02,0-0.03-0.02-0.03-0.04c0,0,0-0.01,0-0.01
c-0.01,0-0.01,0.01-0.01,0.01c-0.01,0-0.02-0.01-0.02-0.02c0,0,0-0.01-0.01,0c-0.06,0.03-0.14-0.02-0.09-0.09
c0,0.06,0.07,0.07,0.08,0.01c0,0,0-0.01-0.01-0.01c-0.04-0.01-0.05-0.04-0.01-0.07c0,0,0,0,0-0.01c-0.01,0-0.01-0.01-0.01-0.01
c-0.01,0-0.01,0-0.01,0c-0.02,0.01-0.03,0.01-0.03,0.01c0,0-0.01-0.01-0.01-0.01c0,0-0.01,0-0.01,0c-0.01,0-0.01,0.02-0.01,0.03
c-0.03-0.02-0.03-0.04-0.01-0.06c0-0.01,0-0.02,0-0.02c0-0.02,0.02-0.04,0.07-0.02c0,0,0,0,0,0c0,0,0-0.01,0-0.01c0,0,0,0-0.01,0
c-0.03,0-0.05-0.01-0.05-0.04c0,0,0-0.02,0.01-0.03c0-0.01-0.02-0.01-0.03-0.01c0.03-0.03,0.06-0.01,0.06,0.01c0,0,0,0.01,0,0.01
c0,0,0.01,0,0.02,0c0.02,0,0.04,0.04,0.04,0.07c0,0,0,0.01,0,0c0-0.01,0-0.01,0-0.02c0,0,0-0.01,0-0.01c-0.01-0.01-0.01-0.03,0-0.04
c0,0,0.01-0.01,0.02-0.02c0-0.02-0.01-0.03-0.02-0.04c0.02,0,0.05,0.01,0.06,0.04c0,0.01,0.01,0.03,0.01,0.03
c0,0.03-0.01,0.07-0.01,0.1c0,0.04,0,0.06,0.04,0.09c0.04,0.03,0.11,0.13,0.16,0.18c-0.01-0.05,0-0.12,0.01-0.18
c-0.01,0-0.02-0.01-0.03-0.03c0.02,0,0.03-0.05,0.05-0.09c-0.01,0-0.02-0.01-0.02-0.03c0.02,0.01,0.05-0.06,0.07-0.06
c-0.01-0.03,0-0.05,0.01-0.08c0.02,0,0.04,0.01,0.05,0.02c0-0.02,0.02-0.02,0.04-0.02c0,0,0.03-0.01,0.04-0.01
c0.01,0,0.03,0,0.07,0.02c0.03,0.01,0.05,0.03,0.06,0.04c0.01,0,0.01,0.03,0.02,0.04c0.01,0.01,0.02,0.02,0.01,0.04
c0.02,0,0.04,0.01,0.05,0.02c0,0.02-0.02,0.04-0.04,0.05c0.03,0.04-0.04,0.12-0.06,0.17v0c0.32-0.08,0.57,0.02,0.72,0.02
c0.19,0,0.34-0.05,0.34-0.1c0-0.06-0.74,0.09-0.74-0.1c0-0.07,0.08-0.11,0.16-0.13c0.01-0.01,0.01-0.02,0.02-0.02
c0.12-0.07,0.4,0.04,0.5-0.03c-0.01,0.03-0.14,0.06-0.27,0.06c0.22,0.04,0.36-0.09,0.59-0.01c-0.18-0.05-0.5,0.17-0.79,0.09
C24.16,16,24.14,15.99,24.14,15.97z M12.12,3.05c0-0.1-0.08-0.18-0.18-0.18c-0.1,0-0.18,0.08-0.18,0.18c0,0.1,0.08,0.18,0.18,0.18
C12.04,3.23,12.12,3.15,12.12,3.05z M12.06,2.57c0-0.1-0.08-0.18-0.18-0.18c-0.1,0-0.18,0.08-0.18,0.18c0,0.1,0.08,0.18,0.18,0.18
C11.98,2.75,12.06,2.67,12.06,2.57z M12.16,2.36c0.1,0,0.18-0.08,0.18-0.18c0-0.1-0.08-0.18-0.18-0.18c-0.1,0-0.18,0.08-0.18,0.18
C11.99,2.28,12.07,2.36,12.16,2.36z M12.64,2.33c0.1,0,0.18-0.08,0.18-0.18s-0.08-0.18-0.18-0.18c-0.1,0-0.18,0.08-0.18,0.18
S12.54,2.33,12.64,2.33z M14.69,1.99c0.07,0.07,0.18,0.07,0.25,0c0.07-0.07,0.07-0.18,0-0.25c-0.07-0.07-0.18-0.07-0.25,0
C14.61,1.81,14.61,1.92,14.69,1.99z M14.64,1.61c0.07-0.07,0.07-0.18,0-0.25c-0.07-0.07-0.18-0.07-0.25,0
c-0.07,0.07-0.07,0.18,0,0.25C14.46,1.68,14.58,1.68,14.64,1.61z M14.17,1.53c0.07-0.07,0.07-0.18,0-0.25
c-0.07-0.07-0.18-0.07-0.26,0c-0.07,0.07-0.07,0.18,0,0.26C13.98,1.6,14.1,1.6,14.17,1.53z M13.76,1.83c0.07-0.07,0.07-0.18,0-0.25
c-0.07-0.07-0.18-0.07-0.26,0c-0.07,0.07-0.07,0.18,0,0.26C13.58,1.9,13.69,1.9,13.76,1.83z M12.61,1.59l0.14,0.31l0.18-0.22
c0.01,0,0.02,0.01,0.02,0.01c0.02,0.11,0.02,0.29,0.02,0.39c0,0.13,0.1,0.23,0.23,0.23c0.13,0,0.23-0.1,0.23-0.23
c0-0.09-0.05-0.16-0.12-0.2c-0.09-0.07-0.19-0.16-0.25-0.24c0.01-0.01,0.01-0.02,0.01-0.03l0.31,0.03l-0.12-0.32l-0.23,0.19
c0,0-0.01,0-0.01-0.01l-0.02-0.33l-0.31,0.12l0.21,0.25c-0.01,0.01-0.01,0.02-0.01,0.03L12.61,1.59z M14.7,2.15
c0.07,0.11,0.09,0.16,0.1,0.25c-0.05-0.02-0.12-0.08-0.19-0.17l0.04,0.42c0.05-0.07,0.09-0.13,0.15-0.15
c-0.01,0.27-0.12,0.39-0.22,0.4c-0.11,0.02-0.2-0.05-0.22-0.14c-0.02-0.12,0.08-0.2,0.19-0.09c0.02-0.25-0.18-0.25-0.27-0.14
c0.1-0.24,0.06-0.4-0.15-0.53C14,2.22,14.05,2.37,14.22,2.54c-0.17-0.08-0.32,0.06-0.17,0.24c0.03-0.16,0.17-0.13,0.2,0
C14.29,2.9,14.18,3.04,14,3.09c-0.26,0.08-0.34-0.09-0.4-0.23c0.06-0.04,0.19-0.02,0.34,0.07l-0.12-0.41
c-0.06,0.15-0.14,0.2-0.25,0.25c-0.01-0.12,0.08-0.36,0.08-0.36l-0.49,0.2c0,0,0.23,0.11,0.31,0.2c-0.1,0.04-0.2,0.06-0.35-0.01
l0.2,0.38c0.04-0.17,0.13-0.27,0.19-0.29c0.05,0.14,0.11,0.32-0.13,0.44c-0.17,0.09-0.34,0.06-0.4-0.04
c-0.07-0.11,0.01-0.24,0.14-0.14c-0.02-0.24-0.23-0.23-0.29-0.06c0-0.24-0.06-0.39-0.32-0.46c-0.06,0.24,0.02,0.39,0.26,0.49
c-0.14-0.02-0.29,0.12-0.1,0.29c0-0.15,0.13-0.17,0.2-0.07c0.05,0.07,0.04,0.19-0.06,0.25c-0.08,0.05-0.24,0.05-0.44-0.14
c0.06-0.02,0.13-0.01,0.21,0l-0.27-0.33c0.02,0.12,0.01,0.2-0.02,0.25c-0.06-0.07-0.08-0.12-0.1-0.25L12,3.34
c0.19,0.12,0.41,0.3,0.68,0.67c0.28-0.18,0.79-0.42,1.1-0.55c0.31-0.13,0.84-0.31,1.17-0.38c-0.07-0.45-0.04-0.74,0.02-0.95
L14.7,2.15z M15.26,4.53c0.2-0.16,0.03-0.33,0.28-0.71c-0.27,0.17-0.67,0.33-1.02,0.47C14.68,4.54,15.01,4.72,15.26,4.53z
M15.21,7.14c0.35-0.15,0.32-0.48,0.23-0.66c-0.09-0.18-0.16-0.34-0.27-0.34c-0.2,0-0.3-0.05-0.36-0.23
c-0.07-0.21,0.15-0.29,0.35-0.41c-0.21-0.06-0.31-0.15-0.19-0.24c0.14-0.11,0.33,0.09,0.38,0c0.05-0.09-0.1-0.17-0.16-0.23
c-0.08-0.08-0.17-0.06-0.29-0.02l-0.94,0.35c-0.12,0.05-0.19,0.09-0.2,0.21c0,0.09-0.05,0.25,0.04,0.28c0.1,0.03,0.1-0.25,0.27-0.26
c0.14-0.02,0.13,0.12,0.03,0.31c0.23-0.06,0.44-0.15,0.53,0.05c0.08,0.17,0.04,0.28-0.1,0.42c-0.08,0.07-0.02,0.23,0.04,0.43
C14.63,6.99,14.88,7.28,15.21,7.14z M13.43,5.25c0.32-0.03,0.44-0.39,0.37-0.68c-0.35,0.13-0.75,0.29-1.06,0.35
C13.18,5.03,13.17,5.27,13.43,5.25z M18.64,13.59c-0.09,0.24,0.11,0.29,0.11,0.47c0,0.24-0.2,0.34-0.42,0.4
c0.16-0.33,0.02-0.51-0.25-0.55c0.06,0.61-0.42,0.71-0.62,0.61c0.19-0.04,0.27-0.33,0.17-0.6c-0.08,0.21-0.3,0.37-0.5,0.37
c-0.19,0-0.34-0.14-0.41-0.3c0.22,0.15,0.4-0.03,0.4-0.14c0-0.11-0.22-0.17-0.22-0.35c0-0.42,0.46-0.25,0.46-0.61
c0-0.15-0.08-0.22-0.18-0.22c-0.09,0-0.24,0.05-0.28,0.3c-0.23-0.2,0-0.67-0.1-0.97c0.02,0.48-0.31,0.46-0.44,0.64
c-0.17-0.17,0-0.5-0.16-0.89c-0.06,0.44-0.23,0.38-0.28,0.64c-0.45-0.22-1.25-0.15-1.52,0.16c0.77,0.59,1.68,0.91,1.68,1.83
c0,0.71-1.1,0.99-1.1,1.44c0,0.46,1.15,1.51,1.73,1.51c0.19,0,0.28-0.23,0.44-0.24c0.15-0.01,0.3,0,0.44,0.01
c0.14,0.01,0.26,0.14,0.25,0.27c0.27,0.03,0.61,0.44,0.27,0.78c-0.05-0.19-0.23-0.45-0.58-0.27c0.13,0.31,0.01,0.6-0.38,0.72
c0.12-0.2,0.14-0.47-0.09-0.47c-0.23,0-0.04,0.15-0.47,0.15c-0.44,0-0.39,0.02-0.57-0.23c-0.18-0.25-0.31-0.35-0.4-0.31
c-0.1,0.04-0.14,0.29,0.03,0.39c-0.93,0-0.55-0.96-1.02-1.2c0.02,0.3,0.03,0.53-0.01,0.68c-0.35-0.27-0.56-0.64-0.62-0.87
c-0.06-0.23-0.02-0.45-0.24-0.56c-0.07-0.04-0.16-0.11-0.13-0.23c0.02-0.1,0.07-0.07,0.24-0.14c0.2-0.09,0.45-0.29,0.45-0.77
c0-0.38-0.07-0.89-0.69-1.24c0.05,0.79,0.04,1.46-0.33,2.07c-0.46,0.78-1.24,1.25-1.68,1.44c-0.44,0.19-1.06,0.34-1.06,0.92
c0,1.08,0.48,1.72,0.97,1.72c0.31,0,0.24-0.35,0.69-0.35c0.2,0,0.42,0.08,0.46,0.22c0.25-0.04,0.52,0.1,0.52,0.33
c0,0.23-0.1,0.37-0.29,0.41c0.15-0.3-0.22-0.38-0.34-0.31c-0.11,0.07,0.03,0.18,0.03,0.36c0,0.18-0.06,0.36-0.38,0.44
c0.07-0.11,0.07-0.27-0.13-0.27c-0.2,0-0.27,0.33-0.52,0.33c-0.41,0-0.52-0.17-0.9-0.1c-0.27,0.06-0.27,0.22-0.16,0.29
c-0.55,0.04-0.44-0.57-0.32-0.69c0.12-0.12,0.2-0.2,0.03-0.31c-0.16-0.11-0.43,0-0.48,0.27c-0.42-0.81,0.16-0.77-0.03-1.69
c-0.1,0.38-0.33,0.68-0.51,0.77c0.07-0.21-0.11-0.58-0.11-0.89c0-0.69,0.43-0.92,0.43-1.14c0-0.15-0.16-0.3,0.01-0.45
c0.09-0.08,0.29,0.08,0.42,0.08c0.55,0,0.95-0.71,1.04-1.5c0.1-0.94,0.47-1.58,0.86-2.3c0.02-0.11,0.04-0.22,0.06-0.33
c-0.39,0.49-0.73,1.22-1.26,1.65c0.06,0.6-1.11,1.3-1.78,0.77c0.22,0.02,0.64-0.09,0.76-0.42c-0.1-0.01-0.19-0.03-0.28-0.06
c-0.41,0.23-1.06-0.06-1.04-0.51c0.17,0.19,0.36,0.23,0.56,0.15c-0.14-0.19-0.23-0.44-0.23-0.74c0-1.77,2.74-2.98,2.74-4.41
c0-0.46-0.29-0.69-0.6-0.69c-0.17,0-0.35,0.05-0.55,0.17c0.13,0.12,0.22,0.27,0.22,0.46c0,1.62-2.61,1.47-2.84,2.54
c-0.13-1.37,1.51-1.06,1.65-2.2c-0.34,0.49-0.92,0.86-1.26,0.67c0.85,0.02,0.59-1.74,1.57-1.74c0.1,0,0.21,0.03,0.33,0.07
c0.27-0.22,0.58-0.35,0.84-0.35c0.39,0,1.01,0.29,1.01,1.06c0,1.71-2.76,2.82-2.76,4.43c0,0.54,0.32,0.8,0.74,0.8
c0.96,0,1.58-1.73,2.63-3.14c0.65-0.95,1.1-2.84,1.53-3.73c-0.51,0.36-0.58,1.35-1.19,1.41c0.33-0.28,0.09-1.13,0.3-1.75
c0.08-0.23,0.11-0.45,0.05-0.68c-0.38,0.4-0.22,1.74-0.82,1.9c0.22-0.27-0.03-0.71-0.03-1.12c0-0.76,0.39-0.89,0.43-1.59
c-0.36,0.14-0.24,1.14-0.96,1.12c0.51-0.51-0.01-1.04,0.57-1.62c-0.35-0.15-0.58-0.42-0.58-0.7c0.23-0.18,0.49-0.24,0.73-0.26
c-0.11-0.17,0.04-0.34,0.19-0.47c0.05,0.07,0.13,0.21,0.22,0.15c0.14-0.1,0.64-0.41,1.07-0.57c0.43-0.17,0.99-0.32,1.16-0.35
c0.11-0.02,0.06-0.16,0.05-0.26c0.21-0.02,0.44,0,0.47,0.22c0.18-0.15,0.43-0.22,0.68-0.24c0.14,0.3,0.17,0.55,0.04,0.96
c0.35,0.03,0.55,0.33,0.87,0.25c-0.28,0.38-0.62,0.22-0.95,0.18c0.94,0.29,1.12,1.22,1.64,1.28c-0.56,0.44-0.93-0.34-1.41-0.33
c1.26,0.63,1.26,1.39,1.61,1.4c-0.39,0.35-0.69-0.11-1.19-0.23c0.99,0.66,1.06,1.19,0.98,1.63c0.22,0.2,0.19,0.46,0.2,0.77
c0.17-0.11,0.45-0.15,0.64-0.21c-0.07,0.07-0.13,0.14-0.2,0.21c-0.5,0.57-0.86,1.11-1.14,1.83c-0.21-0.21-0.44-0.43-0.56-0.54
c-0.2-0.19-0.39-0.14-0.47-0.14c0.32,0.37,1.4,1.52,1.71,1.88c0.32,0.37,0.28,0.63,0.32,0.91C18.36,13.18,18.71,13.4,18.64,13.59z
M36.43,18.02c0,0.32,0.26,0.58,0.58,0.58c0.32,0,0.58-0.26,0.58-0.58c0-0.32-0.26-0.58-0.58-0.58
C36.69,17.44,36.43,17.7,36.43,18.02z M36.23,18.02c0-0.43,0.35-0.78,0.78-0.78c0.43,0,0.78,0.35,0.78,0.78
c0,0.43-0.35,0.78-0.78,0.78C36.58,18.8,36.23,18.45,36.23,18.02z M33.69,19.43c0.22,0.04,0.42-0.06,0.46-0.22c0-0.01,0-0.03,0-0.04
c0-0.15-0.15-0.29-0.35-0.33c-0.13-0.02-0.25,0-0.34,0.06c-0.04,0.03-0.1,0.08-0.11,0.16C33.31,19.22,33.46,19.39,33.69,19.43z
M33.33,18.73c0.13-0.09,0.31-0.13,0.49-0.1c0.33,0.06,0.56,0.33,0.51,0.6c-0.02,0.14-0.11,0.25-0.25,0.32
c-0.13,0.07-0.28,0.09-0.44,0.06c-0.15-0.03-0.29-0.1-0.39-0.21c-0.1-0.12-0.14-0.25-0.12-0.39C33.16,18.91,33.23,18.81,33.33,18.73
z M29.02,8.3c0,0.05,0.01,0.09,0.04,0.13c0.09,0.11,0.29,0.1,0.44-0.01c0.09-0.07,0.15-0.17,0.16-0.26c0-0.04,0-0.11-0.04-0.16
c-0.04-0.05-0.1-0.07-0.14-0.08c-0.09-0.01-0.2,0.02-0.29,0.09C29.08,8.09,29.02,8.2,29.02,8.3z M29.06,7.85
c0.13-0.1,0.29-0.15,0.44-0.13c0.11,0.01,0.21,0.07,0.28,0.15c0.07,0.08,0.09,0.19,0.08,0.31c-0.02,0.15-0.1,0.29-0.24,0.39
c-0.24,0.19-0.56,0.18-0.72-0.02h0C28.75,8.35,28.82,8.04,29.06,7.85z M32.73,18.33c0.08,0,0.14-0.04,0.18-0.07
c0.08-0.08,0.13-0.2,0.13-0.33c0-0.22-0.13-0.41-0.29-0.41c-0.08,0-0.14,0.04-0.18,0.08c-0.08,0.08-0.13,0.19-0.13,0.32
c0,0.13,0.04,0.25,0.12,0.33C32.59,18.28,32.64,18.33,32.73,18.33L32.73,18.33z M32.42,17.45c0.09-0.09,0.2-0.13,0.32-0.13
c0.14,0,0.26,0.07,0.36,0.2c0.09,0.11,0.13,0.26,0.13,0.42c0,0.18-0.07,0.35-0.19,0.46c-0.09,0.09-0.2,0.13-0.32,0.13
c-0.12,0-0.23-0.05-0.31-0.14c-0.11-0.11-0.17-0.28-0.17-0.46v-0.02C32.24,17.73,32.31,17.56,32.42,17.45z M28.78,11.94
c0.12,0.06,0.25,0.07,0.35,0.03c0.05-0.02,0.11-0.05,0.15-0.12c0.03-0.07,0.02-0.15,0-0.19c-0.04-0.1-0.13-0.2-0.24-0.25
c-0.12-0.06-0.24-0.07-0.35-0.03c-0.05,0.02-0.11,0.05-0.15,0.12C28.47,11.64,28.58,11.84,28.78,11.94z M28.63,11.18
c0.15-0.05,0.34-0.04,0.5,0.04c0.16,0.08,0.29,0.21,0.34,0.37c0.04,0.12,0.04,0.24-0.01,0.35c-0.05,0.1-0.14,0.18-0.26,0.23
c-0.15,0.05-0.34,0.04-0.5-0.04c-0.3-0.14-0.45-0.46-0.33-0.71C28.42,11.3,28.51,11.22,28.63,11.18z M34.25,14.71
c0.13-0.18,0.12-0.41-0.02-0.51c-0.14-0.1-0.36-0.04-0.49,0.14c-0.13,0.18-0.12,0.4,0.02,0.51C33.91,14.95,34.12,14.89,34.25,14.71z
M33.34,16.15c0.13-0.18,0.11-0.41-0.03-0.51c-0.14-0.1-0.36-0.03-0.48,0.15c-0.13,0.18-0.12,0.41,0.03,0.5
C32.99,16.4,33.21,16.33,33.34,16.15z M33.41,10.11c0.24-0.26,0.71-0.77,0.71-0.77l-0.3-0.24c0.02,0.11,0,0.26-0.04,0.41
c-0.07-0.05-0.15-0.17-0.14-0.29l-0.23,0.3c0.06,0,0.22,0.02,0.29,0.1c-0.21,0.2-0.39,0.1-0.51,0.02C33,9.51,32.91,9.4,32.97,9.3
c0.07-0.12,0.29-0.08,0.31,0.11c0.17-0.08,0.2-0.22,0.14-0.32C33.37,9,33.26,8.98,33.14,9.02c0.27-0.14,0.4-0.37,0.34-0.66
c-0.3,0.06-0.43,0.23-0.5,0.52c-0.02-0.12-0.09-0.23-0.19-0.24c-0.12-0.01-0.23,0.08-0.22,0.27c0.18-0.06,0.31,0.12,0.23,0.24
c-0.07,0.12-0.22,0.09-0.42-0.02C32.15,9,32.13,8.8,32.24,8.59c0.06,0.05,0.11,0.17,0.11,0.32l0.26-0.42c-0.06,0.02-0.18,0.04-0.3,0
c0.07-0.08,0.19-0.21,0.36-0.23l-0.51-0.29c0.07,0.15,0.02,0.33-0.01,0.43c-0.1-0.08-0.14-0.19-0.15-0.26l-0.23,0.44
c0.12-0.08,0.25-0.09,0.33-0.07c-0.12,0.2-0.31,0.27-0.54,0.15c-0.2-0.11-0.29-0.23-0.23-0.35c0.06-0.12,0.29-0.11,0.33,0.09
c0.16-0.09,0.19-0.23,0.12-0.33c-0.05-0.08-0.19-0.09-0.3-0.04c0.22-0.21,0.3-0.41,0.2-0.7c-0.28,0.09-0.41,0.32-0.4,0.62
c-0.03-0.12-0.1-0.21-0.2-0.21c-0.12,0-0.23,0.1-0.21,0.28c0.18-0.08,0.32,0.09,0.25,0.22c-0.06,0.1-0.2,0.08-0.41-0.03
c-0.13-0.07-0.31-0.17-0.24-0.46c0.1,0.02,0.2,0.15,0.23,0.21l0.14-0.35c-0.1,0.07-0.24,0.06-0.32,0.02c0.11-0.1,0.23-0.2,0.34-0.24
l-0.35-0.14c0,0-0.2,0.67-0.31,1L33.41,10.11z M34,12.56c0,0.11,0.05,0.23,0.13,0.32c0.09,0.09,0.21,0.15,0.32,0.15
c0.05,0,0.12-0.01,0.18-0.06l0,0c0.06-0.05,0.07-0.13,0.07-0.17c0-0.11-0.05-0.23-0.14-0.33c-0.09-0.09-0.21-0.15-0.32-0.15
c-0.05,0-0.12,0.01-0.18,0.06C34.01,12.44,34,12.51,34,12.56z M35.39,18.95c-0.01,0.05-0.01,0.12,0.03,0.19
c0.09,0.14,0.32,0.15,0.51,0.03c0.11-0.07,0.18-0.18,0.21-0.28c0.01-0.05,0.01-0.12-0.03-0.19v0c-0.04-0.07-0.11-0.09-0.16-0.11
c-0.11-0.02-0.23,0.01-0.34,0.08C35.49,18.74,35.41,18.84,35.39,18.95z M28.78,9.32c0.01-0.11-0.03-0.21-0.09-0.28
c-0.03-0.03-0.08-0.07-0.14-0.07c-0.07,0-0.12,0.03-0.15,0.06c-0.07,0.06-0.11,0.16-0.12,0.27c0,0.01,0,0.02,0,0.03
c0,0.18,0.1,0.32,0.23,0.33c0.06,0,0.12-0.03,0.15-0.06C28.73,9.54,28.77,9.43,28.78,9.32z M30.82,5.12
c0.26-0.15,0.59-0.23,0.96-0.26C31.55,4.79,31.39,4.6,31.2,4.6C30.82,4.6,30.93,4.92,30.82,5.12z M36.78,10.38
c0.06,1.34,1.73,1.03,1.48,2.02c-0.03-0.66-2.27-0.59-2.33-1.96c-0.01-0.28,0.07-0.51,0.22-0.66c-0.09-0.07-0.21-0.12-0.36-0.12
c-0.39,0-0.95,0.41-0.95,1.06c0,1.74,2.31,1.96,2.31,3.86c0,0.39-0.15,0.75-0.43,0.97c0.2,0.02,0.47-0.09,0.6-0.24
c-0.2,0.73-0.95,0.76-1.19,0.46c-0.03,0-0.07,0-0.1,0c-0.06,0-0.12-0.01-0.18-0.02c0.15,0.3,0.38,0.6,0.72,0.55
c-0.68,0.54-1.51-0.19-1.38-0.94c-0.2-0.23-0.34-0.5-0.43-0.71c-0.07-0.17-0.19-0.07-0.18,0.11c0.02,0.6-0.45,1.16-0.45,1.6
c0,0.44,0.45,0.85,0.6,0.85c0.15,0,0.26-0.17,0.37-0.13c0.1,0.05,0.09,0.18,0.07,0.49c-0.02,0.21,0.02,0.73,0.06,1.28
c0.04-0.15,0.14-0.28,0.28-0.38c0.15-0.1,0.33-0.14,0.49-0.11c0.12,0.03,0.22,0.09,0.29,0.19c0.05,0.07,0.07,0.15,0.07,0.24
c0,0.03,0,0.07-0.01,0.1c-0.03,0.16-0.14,0.31-0.29,0.41c-0.13,0.09-0.28,0.13-0.43,0.12c-0.15-0.01-0.28-0.08-0.35-0.2
c-0.01-0.02-0.02-0.04-0.03-0.06c0.01,0.17,0.01,0.33,0.02,0.49c0.01,0.4-0.1,0.57-0.28,0.67c-0.01-0.06-0.13-0.18-0.29-0.18
c-0.12,0-0.22,0.09-0.22,0.17c0,0.18,0.22,0.16,0.22,0.44c0,0.28-0.63,0.63-1.02,0.56c0.06-0.13,0.15-0.58,0.27-0.88
c-0.12,0.07-0.23,0.26-0.32,0.54c-0.11,0.33-0.26,0.32-0.4,0.23c0.13-0.14,0.42-0.83,0.74-1.05c0.31-0.22,0.46-0.3,0.54-0.81
c0.08-0.52-0.01-0.83-0.02-1.28c-0.02-0.61-0.26-0.47-0.45-0.47c-0.41,0-1.94-0.99-1.94-2c0-0.1,0.01-0.2,0.02-0.31
c-0.7-0.01-1.09,0.19-1.09,0.84c0,0.22,0.03,0.44,0.19,0.57c0.15,0.12,0.22,0.23-0.03,0.34c-0.27,0.12-2.41,1.01-2.41,1.01
c-0.27,0.1-0.31-0.01-0.42-0.14c-0.11-0.13-0.23-0.2-0.37-0.1c-0.14,0.09,0.1,0.2,0.1,0.35c0,0.15-0.07,0.51-1.05,0.45l0.23-0.39
c0.07-0.13,0.1-0.22,0.05-0.23c-0.06-0.01-0.11,0.09-0.2,0.22l-0.28,0.37c-0.16,0.01-0.32-0.03-0.32-0.03
c0.37-0.37,0.58-0.57,0.79-0.78c0.21-0.21,0.45-0.3,0.88-0.36c0.51-0.07,2.18-0.3,2.18-0.84c0-0.62-0.7-0.58-0.7-1.41
c0-0.73,0.31-1.51,2.3-1.47c-0.17-0.47-0.67-0.82-1.16-0.94c-1-0.25-1.28-0.93-1.37-1.64c-0.28-0.01-0.55-0.03-0.76-0.04
c-0.62-0.04-0.92-0.22-1.07-0.1c-0.06,0.05-0.12,0.13-0.03,0.28c0.09,0.15,0.29,0.51,0.46,0.76c0.12,0.01,0.31,0.04,0.34,0.19
c0.03,0.15-0.1,0.18-0.12,0.26c-0.02,0.07,0.03,0.14,0.11,0.14c0.08,0,0.13-0.07,0.11-0.13c0.08-0.07,0.29-0.07,0.49-0.01
c0.15,0.17,0.41,0.46,0.48,0.73c-0.24-0.1-0.58-0.22-0.7-0.22c-0.12,0-0.1,0.04,0.01,0.08c0.1,0.04,0.37,0.14,0.46,0.22l-0.02,0.28
c-0.06-0.06-0.54-0.34-0.82-0.46c-0.28-0.12-0.46-0.17-0.6-0.53c-0.15-0.36-0.59-1.16-0.77-1.46c-0.12-0.21-0.08-0.29-0.02-0.36
c0.06-0.07,0.12-0.15,0.16-0.23c0.12-0.19,0.15-0.14,0.33-0.13c0.17,0.01,0.57,0.03,0.74-0.04c0.04-0.02,0.08-0.03,0.13-0.05
c-0.41-0.45-0.9-1.09-0.95-1.17c-0.08-0.11-0.19-0.17-0.26-0.17c-0.08,0-0.16,0.01-0.22,0.06c-0.03,0.02-0.06,0.05-0.11,0.08
c-0.04-0.05-0.08-0.09-0.11-0.14c-0.07-0.08-0.15-0.16-0.22-0.23c0.16-0.12,0.3-0.23,0.34-0.27c0.1-0.09,0.15-0.16,0.24-0.16
c0.09,0,0.22,0.01,0.27,0.01c0.14,0,0.2,0.04,0.26,0.11c0.15,0.16,0.4,0.35,0.6,0.5c0.02,0.02,0.04,0.03,0.06,0.05
c0.02-0.02,0.03-0.04,0.05-0.06c0.08-0.08,0.19-0.12,0.29-0.11c0.1,0.01,0.2,0.06,0.28,0.14c0.1,0.11,0.15,0.26,0.14,0.43
c0,0.06-0.02,0.11-0.03,0.17c0.16,0.13,0.3,0.25,0.44,0.4c0.07-0.55,0.35-1.08,0.71-1.56l-0.05-0.03c0,0,0.03-0.1,0.03-0.1
c0.08-0.25,0.21-0.68,0.28-0.89c0.03-0.08,0.03-0.11,0.04-0.11l0.04-0.13l0.61,0.23c0.02-0.02,0.04-0.04,0.06-0.05
c0.53-0.51,1.82-0.85,1.82-1.58c0-0.17-0.06-0.41-0.24-0.55c0.09,0.12,0.1,0.27,0.07,0.43c-0.03,0.19-0.32,0.61-0.83,0.61
c-0.28,0-0.48-0.27-0.58-0.27c-0.06,0-0.14,0.05-0.22,0.11c0.02,0.38-0.14,0.58-0.3,0.62c0.06-0.16,0.01-0.42-0.04-0.39
c-0.04,0.03-0.11,0.08-0.11,0.3c-0.01,0.22-0.2,0.5-0.49,0.54c0.06-0.09,0.15-0.45,0.09-0.5c-0.06-0.05-0.16,0.11-0.23,0.11
c-0.08,0-0.14-0.08-0.15-0.16c-0.01-0.08-0.16,0-0.19-0.07c-0.03-0.07,0.18-0.22,0.37-0.29c0.19-0.07,0.47-0.2,0.42-0.31
c-0.08-0.19-0.64,0.11-0.89,0.26c-0.38,0.23-0.21-0.08-0.26-0.21c-0.14-0.33-0.01-0.36,0.15-0.51c0.21-0.19,0.64-0.49,1.12-0.73
c0-0.16,0.1-0.29,0.23-0.34c0.2-0.07,0.39-0.16,0.59-0.22l-2.6-3.27c-0.06-0.06-0.06-0.12-0.03-0.15c0.02-0.03,0.07-0.01,0.16,0.07
l3.03,2.98c0.07-0.2,0.13-0.44,0.07-0.71c0.37,0.18,0.69,0.54,0.74,0.89c0.93-0.02,1.18,0.57,1.46,0.37
c0.04,0.14-0.12,0.3-0.38,0.34c1.07,0.28,0.8,1.06,1.41,1.15c-0.1,0.11-0.24,0.15-0.46,0.08c0.67,0.99,0,1.62,0.52,2.08
c-0.2,0.06-0.47-0.11-0.66-0.42c0.2,0.81-0.11,1.26,0.05,1.59c-0.23,0.07-0.39-0.14-0.47-0.46c-0.04,0.18-0.1,0.34-0.17,0.49
l0.25,0.2l-0.1,0.1l0,0L34.2,9.45c-0.4,0.43-0.6,0.64-0.69,0.75l-0.07,0.08c0,0-0.08-0.04-0.09-0.05c-0.26,0.33-0.48,0.6-0.48,0.91
c0,0.35,0.47,0.99,0.97,1.65c-0.02-0.07-0.04-0.14-0.04-0.2v-0.02c0-0.12,0.05-0.24,0.14-0.31c0.08-0.08,0.2-0.12,0.32-0.12
c0.16,0,0.33,0.08,0.46,0.22c0.12,0.13,0.19,0.29,0.19,0.45v0.02c0,0.12-0.05,0.24-0.14,0.31c-0.08,0.08-0.2,0.12-0.32,0.12
c-0.12,0-0.24-0.05-0.34-0.12c0.36,0.47,0.7,0.91,0.85,1.24c0.33,0.69,0.64,1.13,1.03,1.13c0.44,0,0.83-0.32,0.83-0.84
c0-1.77-2.32-1.95-2.32-3.95c0-0.93,0.8-1.38,1.27-1.38c0.32,0,0.53,0.08,0.72,0.28c0.06-0.01,0.11-0.02,0.18-0.02
c1.1,0,0.41,1.46,1.26,1.56C37.53,11.32,37.03,11.07,36.78,10.38z"/></svg>