<svg xmlns="http://www.w3.org/2000/svg" width="73" height="80" viewBox="0 0 73 80">
<path d="M54.79,79.06v-7.84l-1.62-0.14v-0.61c0.87,0.03,1.5,0.05,1.99,0.05h4.51L59.8,70h0.64v2.65H59.8l-0.25-1.42
H56.4v3.54h2.32l0.18-1.04h0.61v2.76H58.9l-0.18-1.04H56.4v2.79c0,0.62,0.03,0.7,0.07,0.74c0.04,0.04,0.16,0.08,1.18,0.08h0.96
c0.76,0,1.08-0.05,1.24-0.21c0.18-0.18,0.39-0.66,0.63-1.69h0.64l-0.27,2.59h-5.19c-0.87,0-1.81,0.03-2.49,0.05v-0.61L54.79,79.06z
M28.65,79.06v-7.84l-1.62-0.14v-0.61c0.86,0.03,1.5,0.05,1.99,0.05h4.5L33.66,70h0.64v2.65h-0.64l-0.25-1.42h-3.15v3.54h2.32
l0.18-1.04h0.6v2.76h-0.6l-0.18-1.04h-2.32v2.79c0,0.62,0.03,0.7,0.07,0.74c0.04,0.04,0.16,0.08,1.18,0.08h1.11
c0.75,0,1.11-0.05,1.27-0.21c0.18-0.18,0.39-0.66,0.63-1.69h0.64l-0.27,2.59h-5.37c-0.86,0-1.81,0.03-2.49,0.05v-0.61L28.65,79.06z
M11.73,79.06v-7.84l-1.62-0.14v-0.61c0.86,0.03,1.5,0.05,1.89,0.05h1.07c0.39,0,1.02-0.02,1.89-0.05v0.61l-1.62,0.14v7.09
c0,0.44,0,0.6,0.09,0.68c0.04,0.05,0.53,0.07,1.1,0.07H15c0.85,0,1.12-0.09,1.25-0.22c0.18-0.18,0.41-0.68,0.69-2.03h0.64l-0.2,2.94
h-4.86c-0.94,0-1.71,0.03-2.41,0.05v-0.61L11.73,79.06z M25.07,77.39c0,1.6-1.29,2.53-2.98,2.53c-0.9,0-1.73-0.27-2.31-0.65
L19.61,80H19v-3.1h0.62c0.06,0.43,0.16,0.97,0.26,1.36c0.53,0.57,1.39,0.96,2.15,0.96c1,0,1.56-0.58,1.56-1.47
c0-2.11-4.4-2.13-4.4-5.01c0-1.52,1.26-2.39,2.85-2.39c0.64,0,1.25,0.13,1.73,0.32l0.18-0.7h0.62v2.72h-0.62
c-0.06-0.4-0.14-0.81-0.25-1.2c-0.4-0.28-0.95-0.44-1.47-0.44c-0.9,0-1.56,0.42-1.56,1.33C20.67,74.43,25.07,74.45,25.07,77.39z
M1.87,79.06v-7.84l-1.62-0.14v-0.61c0.87,0.03,1.5,0.05,1.89,0.05h4.61L6.88,70h0.64v2.65H6.88l-0.25-1.42H3.48v3.54H5.8l0.18-1.04
h0.61v2.76H5.98L5.8,75.44H3.48v2.79c0,0.62,0.03,0.7,0.07,0.74c0.04,0.04,0.16,0.08,1.18,0.08h0.92c0.76,0,1.11-0.05,1.27-0.21
c0.18-0.18,0.39-0.66,0.63-1.69h0.64l-0.27,2.59H2.74c-0.86,0-1.81,0.03-2.49,0.05v-0.61L1.87,79.06z M44.08,71.22l-3.01,8.63h-1.2
l-3-8.63l-1.14-0.14v-0.61l2.05,0.05l2.31-0.05v0.61l-1.48,0.14l2.28,6.88l2.26-6.88l-1.48-0.14v-0.61l1.91,0.05l1.6-0.05v0.61
L44.08,71.22z M47.85,71.22l-1.58-0.14v-0.61c0.86,0.03,1.46,0.05,1.85,0.05h1.07c0.39,0,1.02-0.02,1.89-0.05v0.61l-1.62,0.14v7.84
l1.62,0.14v0.61c-0.7-0.02-1.29-0.05-1.89-0.05h-1.07c-0.6,0-1.19,0.03-1.89,0.05v-0.61l1.62-0.14V71.22z M70.12,79.75
c-1-1.32-1.98-2.74-2.85-4.14h-1.01v3.44l1.52,0.14v0.61c-0.7-0.02-1.19-0.05-1.79-0.05h-1.07c-0.6,0-1.19,0.03-1.89,0.05v-0.61
l1.62-0.14v-7.84l-1.62-0.14v-0.61c0.86,0.03,1.5,0.05,1.99,0.05h2.27c1.97,0,3.68,0.69,3.68,2.47c0,1.26-0.92,1.97-2.09,2.32
c0.91,1.4,1.82,2.68,2.89,3.77l0.99,0.11v0.61L70.12,79.75z M66.26,71.22v3.72h0.96c1.4,0,2.05-0.75,2.05-1.86
c0-0.91-0.43-1.86-2.29-1.86L66.26,71.22L66.26,71.22z M41.7,27.13c-0.19,0.11-0.35,0.32-0.34,0.41c0.02,0.15,0.19,0.28,0.28,0.43
c0.15-0.08,0.28-0.24,0.34-0.39C42.02,27.49,41.83,27.34,41.7,27.13z M13.58,5.22c-0.19-0.75-0.09-1.42,0.09-2.18
C13.99,3.69,14.01,4.74,13.58,5.22z M37.41,52.53c-0.39,0-0.73,0.19-0.71,0.39c0.02,0.22,0.32,0.5,0.56,0.5
c0.24,0,0.39-0.26,0.39-0.6C37.64,52.58,37.66,52.53,37.41,52.53z M40.69,30.17c-0.3,0-0.49,0.19-0.49,0.45
c0,0.26,0.26,0.5,0.56,0.5c0.22-0.02,0.43-0.24,0.43-0.5C41.22,30.38,40.99,30.17,40.69,30.17z M40.47,28.92
c0,0.28-0.17,0.45-0.43,0.45c-0.35,0-0.61-0.22-0.61-0.54c0-0.24,0.24-0.5,0.5-0.5C40.19,28.31,40.47,28.55,40.47,28.92z
M41.74,32.07c0-0.34-0.21-0.56-0.56-0.56c-0.3,0-0.5,0.19-0.5,0.45c0,0.3,0.32,0.6,0.63,0.58C41.57,32.54,41.74,32.33,41.74,32.07z
M42.04,29c-0.34,0-0.6,0.2-0.63,0.5c0,0.26,0.28,0.49,0.58,0.49c0.32-0.02,0.56-0.24,0.58-0.52C42.56,29.16,42.37,29,42.04,29z
M13.82,19.82c0.17-0.43,0.37-0.93,0.49-1.25c0.09-0.02,0.17-0.02,0.22,0.02c0.08,0.37,0.02,0.97-0.02,1.21
c-0.04,0.24-0.15,0.41-0.26,0.52c-0.09,0.09-0.15,0.13-0.24,0.17C13.92,20.33,13.86,20.08,13.82,19.82z M52.52,29.61
c0.17-0.36,0.32-0.69,0.45-1.03c0.02-0.08-0.09-0.26-0.22-0.39c-0.08,0.02-0.21,0.08-0.28,0.13c-0.11,0.15-0.78,1.02-0.73,1.1
C51.79,29.52,52.03,29.52,52.52,29.61z M57.16,54.39c0.49,0,0.97-0.02,1.34-0.13c0.11-0.09,0.19-0.17,0.23-0.24
c0.06-0.09,0.17-0.43,0.2-0.71l-0.13-0.04l-0.54,0.5c-0.37,0.09-0.71,0.17-1.12,0.22c-0.08,0.08-0.13,0.13-0.19,0.23
C57.03,54.32,57.09,54.38,57.16,54.39z M24.77,10.18c0.04,0.61-0.08,1.38-0.41,1.94c-0.04,0.07-0.13,0.13-0.23,0.2
c-0.04-0.11-0.15-0.2-0.13-0.28c0.13-0.61,0.3-1.38,0.45-1.99c0.02-0.04,0.11-0.08,0.17-0.09L24.77,10.18z M58.82,52.19l-2.31,0.76
C57.05,53.57,58.62,53.07,58.82,52.19z M31.37,30.56c0,0.28,0.13,0.58,0.35,0.78c0.13-0.09,0.23-0.28,0.23-0.37
c0.06-0.52,0.09-1.06,0.09-1.6c0.06-0.22-0.26-0.28-0.34-0.06C31.59,29.72,31.39,30.13,31.37,30.56z M39.39,4.46
c0.43-0.35,1.16-0.73,1.68-0.99c-0.09,0.32-1.29,1.64-1.72,1.83C39.32,5.05,39.22,4.61,39.39,4.46z M6.83,19.54
c-0.07-0.37-0.17-0.9-0.2-1.27c-0.04-0.28-0.04-0.56,0-0.84c0.04-0.13,0.13-0.24,0.26-0.37c0.13,0.11,0.24,0.21,0.26,0.32
c0.13,0.69-0.08,1.49-0.13,2.14C6.96,19.54,6.89,19.54,6.83,19.54z M21.77,7.29c0.24-0.17,0.49-0.28,0.8-0.45
c0.3-0.15,0.71-0.32,1.04-0.41c0.09-0.02,0.24,0.02,0.35,0.11l-0.22,0.21c-0.49,0.36-1.01,0.61-1.47,0.91
c-0.15-0.02-0.37-0.06-0.49-0.09C21.75,7.5,21.73,7.38,21.77,7.29z M36.41,51.61c0.49-0.28,0.61-0.49,1.04-0.75
c0.17-0.11,0.15-0.13,0.06-0.3c-0.09-0.19-0.19-0.19-0.43-0.13c-0.47,0.17-0.65,0.28-1.12,0.47c-0.21,0.07-0.28,0.17-0.08,0.32
L36.41,51.61z M44.18,8.82c0.41,0.63,0.58,1.23,0.75,1.9c0,0.04-0.02,0.05-0.02,0.15c-0.09-0.06-0.15-0.07-0.18-0.11
c-0.47-0.47-0.82-0.99-0.99-1.66c-0.06-0.15-0.04-0.28,0.15-0.39C44,8.73,44.09,8.76,44.18,8.82z M31.99,6.32
c0.3,0,0.67,0.04,0.95,0.11c0.09,0.06,0.15,0.11,0.2,0.2c-0.04,0.08-0.11,0.19-0.2,0.22c-0.43,0.17-1.42,0.17-1.83-0.08
c-0.08-0.07-0.17-0.19-0.2-0.26l0.28-0.15C31.26,6.34,31.89,6.32,31.99,6.32z M60.28,19.3c0.24,0.11,0.56,0.39,0.76,0.54
c0.28,0.22,0.58,0.49,0.82,0.75c0.08,0.08,0.04,0.28,0,0.43c-0.09-0.04-0.21-0.06-0.28-0.11c-0.5-0.32-0.97-0.67-1.44-0.99
c-0.06-0.06-0.08-0.41-0.11-0.49C60.09,19.38,60.18,19.32,60.28,19.3z M17.87,10.26c0.04,0.08,0.09,0.21,0.11,0.28l0.43,2.03
c0.04,0.17,0.02,0.39,0,0.56c0,0.05-0.06,0.13-0.09,0.19c-0.06-0.06-0.17-0.08-0.19-0.13c-0.09-0.37-0.21-0.71-0.28-1.06
c-0.09-0.43-0.15-0.84-0.22-1.27C17.59,10.63,17.59,10.39,17.87,10.26z M27.18,12.53l-0.17,0.24c-0.06-0.07-0.15-0.15-0.19-0.24
c-0.11-0.26-0.11-0.54-0.15-0.8c-0.08-0.63-0.04-0.97,0.34-1.34c0.15-0.17,0.28-0.08,0.28,0.09C27.31,11.26,27.27,11.75,27.18,12.53
z M63.6,10.59c0.11,0.04,0.22,0.09,0.3,0.15l1.46,1.08c0.04,0.04,0.09,0.11,0.13,0.19c0.04,0.09,0.06,0.17,0.06,0.24
c-0.09,0-0.24-0.02-0.32-0.04c-0.64-0.32-1.29-0.56-1.7-1.18c-0.08-0.11-0.09-0.21-0.11-0.3C63.41,10.7,63.54,10.63,63.6,10.59z
M13.02,21.24L12.47,21c-0.41,0.08-0.75,0.26-1.21,0.32c-0.17,0.02-0.35,0.02-0.45,0c-0.17-0.02-0.37-0.11-0.43-0.19
c0.07-0.15,0.34-0.3,0.73-0.37c0.23-0.04,1.21-0.13,2.07-0.06L13.02,21.24z M13.58,13.02c-0.11-0.09-0.22-0.19-0.3-0.3
c-0.34-0.52-0.71-1.04-1.02-1.58c-0.11-0.19-0.24-0.39-0.24-0.54c0-0.07,0.2-0.22,0.32-0.32c0.09,0.06,0.19,0.13,0.22,0.21
c0.19,0.37,0.35,0.8,0.52,1.16l0.5,0.99c0.04,0.11,0.06,0.21,0.07,0.34L13.58,13.02z M27.72,16.45c-0.09,0.19-0.11,0.37-0.24,0.52
c-0.34,0.39-0.71,0.78-1.08,1.18c-0.08,0.06-0.2,0.04-0.32,0.06c-0.02-0.11-0.06-0.24-0.02-0.3c0.17-0.3,0.37-0.6,0.58-0.86
c0.2-0.28,0.45-0.54,0.67-0.8c0.06-0.06,0.19-0.09,0.26-0.06C27.62,16.22,27.66,16.32,27.72,16.45z M44.18,28.53
c-0.06-0.19-0.2-0.37-0.37-0.47c-0.13-0.08-0.35-0.04-0.5,0.07c-0.13,0.09-0.28,0.22-0.39,0.35c-0.19,0.26-0.08,0.52,0.22,0.73
c0.24,0.19,0.52,0.17,0.69-0.08C43.98,28.96,44.11,28.83,44.18,28.53z M54.35,12.87c-0.88-0.19-1.74-0.5-2.61-0.91
c-0.08-0.04-0.15-0.13-0.18-0.21c0.09-0.04,0.24-0.06,0.32-0.04c0.84,0.21,1.62,0.43,2.46,0.65c0.11,0.04,0.17,0.07,0.34,0.3
C54.57,12.75,54.48,12.83,54.35,12.87z M29.94,20.25c0.07,0.11,0.15,0.22-0.06,0.56c-0.34,0.52-0.43,1.06-0.65,1.79
c-0.06,0.15-0.15,0.32-0.22,0.43c-0.08,0.07-0.19,0.09-0.28,0.15c-0.02-0.09-0.07-0.2-0.06-0.28c0.09-0.41,0.24-0.8,0.37-1.21
c0.09-0.32,0.18-0.65,0.3-0.99C29.43,20.44,29.64,20.31,29.94,20.25z M19.75,5.65c-0.07,0.02-0.17,0.09-0.22,0.06
c-0.65-0.37-1.6-0.88-2.2-1.27c-0.04-0.04-0.06-0.13-0.09-0.21c0.08-0.02,0.15-0.07,0.23-0.06c0.49,0.17,1.34,0.43,1.83,0.62
C19.6,4.94,19.7,5.22,19.75,5.65z M12.57,25.71c0.26-0.06,0.37,0.09,0.34,0.32c-0.02,0.13-0.06,0.19-0.26,0.28
c-0.3,0.09-0.67,0.15-1.04,0.17c-0.5,0.02-0.95-0.04-1.23-0.09c-0.26-0.04-0.41-0.09-0.45-0.15c0.07-0.11,0.19-0.19,0.28-0.2
L12.57,25.71z M26.02,13.15c-0.28-0.11-0.67-0.28-1.02-0.45c-0.06-0.04-0.09-0.22-0.04-0.3c0.23-0.34,0.47-0.65,0.71-0.95
c0.11-0.13,0.22-0.11,0.28,0.06l0.52,1.27C26.56,13.02,26.45,13.13,26.02,13.15z M53.56,25.79c-0.17,0.09-0.3,0.21-0.24,0.39
l0.11,0.3c0.3-0.06,0.61-0.08,0.91-0.06c0.41,0.13,1.08,0.28,1.51,0.35c0.09,0.02,0.23-0.09,0.3-0.19c0.02-0.02-0.06-0.09-0.09-0.17
c-0.41-0.34-1.03-0.56-1.66-0.58L53.56,25.79z M9.54,61.76c-0.09,0-0.24,0.28-0.39,0.3c-0.49,0.04-0.67,0.08-0.67,0.3
c0,0.28,0.15,0.43,0.39,0.35c0.65-0.2,1.03-0.22,1.74-0.11c0.06,0,0.15,0,0.17-0.02c0.13-0.13,0.22-0.26,0.34-0.39
c-0.11-0.09-0.2-0.22-0.34-0.26C10.36,61.83,9.97,61.76,9.54,61.76z M42.49,30.23c-0.41,0-0.77,0.32-0.77,0.65
c0.02,0.35,0.49,0.75,0.9,0.75c0.37,0,0.64-0.26,0.64-0.62C43.27,30.54,42.95,30.23,42.49,30.23z M63.87,3.06
c0.06,0.02,0.21,0.06,0.32,0.15c0.19,0.15,0.21,0.34-0.04,0.43c-0.6,0.28-1.58,0.8-2.22,1.04c-0.11,0.06-0.26,0.08-0.21-0.15
C61.84,4.14,63.35,3.06,63.87,3.06z M61.15,23.78c0,0.3-0.06,0.58-0.15,0.86l-0.07,0.04c-0.02-0.09-0.08-0.24-0.24-0.62
c-0.17-0.37-0.58-1.06-0.91-1.77c-0.04-0.09-0.09-0.2-0.11-0.32c-0.02-0.11,0.22-0.19,0.34-0.15l0.43,0.17
C60.69,22.56,60.93,23.1,61.15,23.78z M36.07,10.8c-0.26,0.49-0.49,0.95-0.8,1.36c-0.24,0.34-0.61,0.56-0.95,0.84
c-0.08,0.04-0.19,0.04-0.28,0.04c0.02-0.09,0-0.22,0.06-0.3c0.34-0.52,0.65-1.03,1.01-1.51c0.15-0.21,0.32-0.43,0.47-0.6
c0.08-0.09,0.22-0.09,0.35-0.09C35.96,10.54,36.01,10.67,36.07,10.8z M17.5,34.38c0.02,0.26,0.22,0.99,0.3,1.42
c0.04,0.22,0.09,0.39,0.41,0.35c0.43-0.06,0.58-0.24,0.52-0.58c-0.06-0.39-0.15-0.78-0.22-1.17c-0.07-0.39-0.24-0.6-0.58-0.58
C17.57,33.86,17.46,33.99,17.5,34.38z M12.82,19.54c-0.41-0.09-0.86-0.24-1.18-0.41c-0.64-0.33-1.23-1.01-1.14-1.62
c0.05-0.3,0.22-0.37,0.47-0.24c0.06,0.04,0.13,0.08,0.17,0.11c0.37,0.37,0.73,0.76,1.06,1.14C12.48,18.8,12.71,19.13,12.82,19.54z
M7.93,36.44c-0.09,0.91-0.07,0.91-0.07,1.55c0,0.36,0.17,0.36,0.48,0.37c0.28,0.02,0.37-0.24,0.43-0.58l0.19-1.27
c0.06-0.41,0.07-0.65-0.17-0.69C8.32,35.76,7.97,36.04,7.93,36.44z M71.32,2.85c-0.34-0.71-0.97-1.64-1.23-1.98
c-0.34-0.43-0.5-0.47-0.88-0.08c-0.13,0.13-0.24,0.24-0.34,0.37c-0.37,0.47-0.6,1.04,0.02,1.14c0.52,0.08,1.23,0,1.57,0.22
c0.32,0.2,0.6,0.41,0.73,0.48L71.32,2.85z M16.23,54.25c-0.41,0.22-0.8,0.56-1.14,1.01c-0.24,0.47-0.52,0.89-0.76,1.34
c-0.09,0.22-0.24,0.73-0.3,1.06l0.15,0.15c0.3-0.11,1.04-0.75,1.1-0.8c0.64-0.63,0.78-1.21,1.14-2.46c0.02-0.04,0.06-0.15,0.06-0.15
L16.23,54.25z M55.95,5.69c-0.04-0.6-0.6-1.73-0.86-2.07c-0.34-0.43-0.75-0.47-1.12-0.07c-0.13,0.13-0.24,0.24-0.34,0.37
c-0.37,0.47-0.34,0.62,0.23,0.89c0.39,0.17,0.82,0.3,1.12,0.56c0.28,0.24,0.71,0.75,0.84,0.82L55.95,5.69z M23.82,25.81
c-0.08-0.09-0.23-0.17-0.26-0.3c-0.17-0.54-0.34-1.1-0.47-1.66c-0.04-0.22,0.15-0.35,0.35-0.32c0.76,0.17,1.49,0.34,2.24,0.54
c0.24,0.06,0.24,0.24,0.09,0.41c-0.49,0.5-1.01,0.93-1.68,1.23L23.82,25.81z M22.33,34.38c-0.07,0.13-0.22,0.24-0.35,0.34
c-0.41,0.28-1.16,0.45-1.68,0.78c-0.24,0.17-0.13-0.43-0.15-0.65l-0.26-1.4c-0.04-0.22-0.26-0.56-0.45-0.76
c-0.15-0.17,0.28-0.24,0.49-0.3c0.26-0.09,0.58-0.19,0.82-0.26c0.06-0.02,0.24,0.02,0.3,0.04c0,0.06,0.02,0.11-0.02,0.15
c-0.41,0.3-0.37,0.43-0.32,0.82c0.06,0.37,0.06,0.78,0.08,1.1c0.06,0.15,0.15,0.35,0.26,0.49c0.24-0.08,0.52-0.26,0.52-0.34
l0.06-0.8c0.07-0.09,0.19-0.17,0.26-0.22c0.07,0.08,0.11,0.13,0.15,0.2C22.16,33.86,22.22,34.05,22.33,34.38z M29.55,13.91
c-0.3-0.08-0.73-0.17-1.1-0.35c-0.13-0.04-0.2-0.34-0.2-0.49c0.04-0.45-0.07-0.9,0-1.34c0.04-0.24,0.17-0.33,0.41-0.28
c0.34,0.07,0.65,0.15,0.97,0.26c0.43,0.17,1.06,1.34,0.88,1.75C30.31,13.84,29.97,13.89,29.55,13.91z M9.54,31.78
c-0.22,0-0.52,0.06-0.75,0.11C8.34,32,8.12,32.03,7.69,32c-0.24-0.02-0.65-0.19-0.89-0.24c-0.26,0.02-0.52,0.26-0.62,0.64
c-0.06,0.37,0.17,0.63,0.58,0.71c0.84,0.19,1.62,0.34,2.41,0.34c0.3,0,0.34-0.04,0.35-0.28c0.02-0.22,0.02-0.43,0.02-0.65V31.78z
M25.18,36.27c-0.04,0.41,0.24,1.47,0.43,1.72l1.75-0.41c0.47-0.13,0.73-0.61,0.69-1.06c-0.06-0.34-0.24-0.52-0.6-0.6
c-0.11-0.02-0.22-0.04-0.34-0.04c-0.69-0.02-1.31,0.15-1.92,0.35C25.18,36.25,25.18,36.25,25.18,36.27z M24.96,33.06
c0,0.26-0.02,0.39-0.09,0.58c-0.19,0.49-0.73,0.73-1.17,0.73c-0.52,0-0.82-0.11-0.99-0.63c-0.09-0.3-0.19-1.21-0.24-1.55
c-0.11-0.11-0.28-0.17-0.54-0.24c-0.13-0.04-0.15-0.13-0.17-0.24c0.19-0.09,0.52-0.19,0.76-0.22c0.54-0.09,0.54-0.06,0.64,0.45
c0.08,0.58,0.17,1.17,0.28,1.75c0.02,0.19,0.13,0.37,0.41,0.37c0.22,0,0.37-0.15,0.37-0.41c0-0.45,0.02-0.97,0-1.43
c-0.09-0.11-0.26-0.35-0.43-0.52c-0.2-0.24-0.22-0.32,0.07-0.43c0.71-0.28,0.76-0.45,0.86,0.47C24.75,32.07,24.96,32.61,24.96,33.06
z M26.09,34.22c-0.07,0.04-0.17,0.13-0.35,0.32c-0.07,0.08-0.2,0.19-0.32,0.23l-0.2-0.13l0.34-0.8c0.11-0.32,0.24-0.35,0.54-0.15
l0.28,0.22c0.23,0.19,0.52,0.34,0.8,0.21c0.26-0.13,0.11-0.49-0.15-0.63c-0.41-0.24-0.71-0.32-1.19-0.62
c-0.3-0.19-0.43-0.45-0.43-0.82c0-0.32,0.22-0.69,0.61-0.73c0.15-0.04,0.34-0.04,0.56-0.04c0.26,0,0.43-0.04,0.6-0.26
c0.13-0.17,0.26-0.26,0.3-0.09c0.04,0.26,0.04,0.41,0.02,0.67c0,0.09-0.04,0.39-0.09,0.56c-0.09-0.02-0.15-0.02-0.22-0.06
c-0.24-0.39-0.56-0.56-0.82-0.52c-0.24,0.04-0.37,0.22-0.19,0.43c0.13,0.15,0.28,0.24,0.45,0.35c0.24,0.15,0.52,0.26,0.76,0.41
c0.58,0.32,0.54,0.75,0.47,1.06c-0.09,0.39-0.37,0.67-0.84,0.67C26.71,34.5,26.43,34.42,26.09,34.22z M8.31,11.08
c-0.75,0-1.23-0.21-1.98-0.13c-0.54,0.04-1.06,0.28-1.59,0.49c-0.08,0.04-0.2,0.09-0.22,0.17c0,0.08,0.17,0.19,0.24,0.22
c0.28,0.13,0.47,0.2,0.73,0.19c1.55-0.13,3.28-0.3,4.83-0.45c0.09-0.11,0.17-0.22,0.26-0.43c-0.04-0.07-0.28-0.21-0.5-0.24
l-1.57-0.28L8.31,11.08z M16.1,34.61c0.06,0.15,0.13,0.34,0.15,0.52c0.02,0.13,0.02,0.23-0.02,0.3c-0.02,0.04-0.09,0.02-0.17-0.02
c-0.39-0.17-0.82-0.43-1.18-0.19c-0.13,0.09-0.07,0.32,0.09,0.39l1.1,0.45c0.49,0.19,0.62,0.41,0.52,1.01
c-0.09,0.56-0.5,0.78-0.99,0.91c-0.2,0.06-0.41,0.08-0.69,0.06c-0.04,0.17,0.02,0.37-0.11,0.45c-0.09,0.06-0.11,0.04-0.2,0.07
c-0.06-0.11-0.15-0.37-0.19-0.49C14.4,38,14.24,37.5,14.24,37.2c0-0.11,0.04-0.13,0.07-0.17c0.17,0.06,0.32,0.28,0.56,0.52
c0.3,0.09,0.82,0.19,0.9,0.09c0.15-0.19,0.2-0.3,0.2-0.37c0-0.13-0.17-0.24-0.32-0.32c-0.39-0.2-0.6-0.28-1.01-0.45
c-0.37-0.15-0.43-0.48-0.43-0.8c0-0.34,0.17-0.69,0.71-0.88c0.17-0.06,0.47-0.13,0.63-0.17c0.04-0.11,0.07-0.48,0.07-0.56
c0.09-0.02,0.26-0.04,0.28,0.02L16.1,34.61z M12.82,54.21v-0.02c-0.19-0.78-0.39-1.55-0.6-2.31c-0.02-0.08-0.15-0.19-0.17-0.17
c-0.08,0.06-0.19,0.13-0.23,0.2c-0.2,0.56-0.41,1.12-0.58,1.72c-0.06,0.15-0.06,0.35,0,0.52c0.3,0.82,0.58,1.64,0.89,2.46
c0.06,0.11,0.2,0.19,0.3,0.26c0.07-0.11,0.19-0.22,0.2-0.32L12.82,54.21z M32.15,32.97c-0.04,0.23,0.13,0.6,0.24,0.69
c0.56,0.54,1.12,1.01,1.7,1.47c0.37,0.28,0.76,0.5,1.23,0.64c0.71,0.18,1.29,0.6,1.72,1.16c0.13,0.19,0.26,0.37,0.41,0.56
c0.3,0.37,0.69,0.63,1.21,0.71c0.09,0.02,0.2,0,0.3,0c-0.08-0.32-0.08-0.35-0.3-0.58c-0.95-0.88-1.96-1.66-3.04-2.39
c-0.65-0.43-1.29-0.9-1.9-1.36c-0.28-0.21-0.5-0.32-0.78-0.52C32.75,33.23,32.42,33.01,32.15,32.97z M26.93,39.44
c0.6,0,1.08-0.06,1.7-0.43c0.58-0.35,0.82-1.57,0.67-2.16c-0.04-0.19-0.11-0.32-0.2-0.41c-0.19-0.19-0.39-0.13-0.5,0.21
c-0.04,0.18-0.13,0.63-0.15,0.84c-0.02,0.22-0.04,0.41-0.07,0.56c-0.35-0.08-0.86-0.09-1.33-0.04c-0.45,0.06-1.32,0.32-1.32,0.86
C25.72,39.36,26.47,39.44,26.93,39.44z M10.36,38.9c-0.02-0.15,0.15-0.34,0.17-0.43c0.04-0.21,0.04-0.49,0.04-0.69
c0.02-0.54-0.09-1.42-0.09-1.94l0.3-0.19c0.09-0.04,0.17,0.02,0.28,0.11c0.26,0.26,0.82,0.88,1.08,1.12c0.02,0,0.06-0.06,0.07-0.08
v-0.39c0-0.28-0.06-0.49-0.13-0.78c-0.09-0.34-0.34-0.58-0.07-0.6l1.03-0.07c-0.09,0.2-0.17,0.35-0.2,0.65
c-0.06,0.41-0.13,0.78-0.15,1.17c0.06,0.6,0.18,1.19,0.22,1.7c0,0.04-0.07,0.09-0.15,0.13c-0.09-0.04-0.2-0.11-0.28-0.19
c-0.5-0.5-0.86-0.97-1.49-1.58c-0.06,0.08-0.09,0.21-0.09,0.28c0.11,0.39,0.28,0.82,0.54,1.19c0.17,0.22,0.2,0.3-0.2,0.45
C10.99,38.84,10.62,38.94,10.36,38.9z M7.67,31.64c0.39-0.02,0.8-0.08,1.27-0.15c0.3-0.08,0.64-0.15,0.65-0.52
c0.02-0.34-0.39-0.52-0.65-0.6c-0.99-0.3-2.65-0.24-3.93,0.39c-0.34,0.19-0.61,0.37-0.8,0.58c-0.3,0.32-0.24,0.52-0.02,0.69
c0.26,0.19,0.62,0.39,1.08,0.5c0.06-0.28,0.13-0.73,0.2-1.01c0.15-0.22,0.41-0.39,0.65-0.5c0.5-0.24,1.08-0.28,1.81-0.34
c0.06-0.02,0.17,0.09,0.17,0.15s-0.08,0.17-0.13,0.19c-0.17,0.08-0.35,0.13-0.5,0.17c-0.09,0.02-0.34,0.08-0.34,0.19
C7.13,31.59,7.34,31.66,7.67,31.64z M45.04,32.99c-0.54-0.06-1.1-0.54-1.06-1.42c-0.28,0.39-0.62,0.75-0.91,0.9
c0.02,0.3,0.76,0.73,1.27,0.93c0.3,0.39,0.5,0.58,0.88,1.01c0.22-0.58,0.5-1.06,0.6-1.38c-0.04-0.88-0.19-1.64-0.45-2.03
c-0.41-0.47-1.06-0.86-1.7-1.27c-0.32,0.34,0.09,1.06,0.86,1.49c-0.17,0.49-0.15,1.21,0.61,1.64L45.04,32.99z M32.06,42.93
c0.02-0.24,0.02-0.52-0.02-0.76c-0.11-0.32-0.22-0.62-0.26-0.9c-0.02-0.11-0.04-0.22,0-0.32c0.19-0.65,0.32-1.32,0.26-1.99
c-0.06-0.78-0.04-1.53,0.02-2.29c0-0.08,0.04-0.13,0.06-0.2c0.22,0.07,0.39,0.22,0.45,0.37c0.06,0.26,0.11,0.52,0.13,0.76
c0.08,0.71,0.02,1.4-0.02,2.09c-0.11,1.34-0.22,2.59-0.18,3.91c0.02,0.21,0.06,0.47,0.13,0.65c0.17,0.41,0.08,0.84-0.24,1.31
l-0.2-0.09c-0.15-0.56-0.52-1.33-0.69-1.92c-0.02-0.11,0-0.2,0.15-0.22C31.88,43.26,32.04,43.11,32.06,42.93z M4.54,36.77
c-0.04,0.32,0.06,0.8,0.32,1.06l0.11,0.11l-0.06,0.21c-0.24,0.02-0.97-0.09-1.23-0.17C3.51,37.93,4,37.67,4.04,37.37
c0.09-0.62,0.24-1.64,0.24-2.37c0-0.13-0.3-0.26-0.3-0.37c0.02-0.09,0.09-0.2,0.15-0.24c0.88,0.21,1.01,0.19,1.18,0.6
c0.17,0.37,0.34,1.01,0.6,1.46c0.06-0.02,0.13-0.06,0.17-0.09c0.04-0.41,0.02-1.01,0.04-1.29c0.02-0.22,0.11-0.34,0.35-0.34
c0.19,0,0.65,0.02,0.84,0.06c0.02,0.04,0.02,0.08,0.02,0.13c0,0.11-0.15,0.15-0.19,0.17c-0.41,0.15-0.43,0.19-0.62,1.34l-0.2,1.33
c-0.02,0.09-0.06,0.3-0.11,0.43c-0.11,0.02-0.32,0-0.35-0.09c-0.28-0.71-0.65-1.46-1.03-2.09l-0.11-0.02
c-0.06,0.15-0.09,0.34-0.13,0.52C4.56,36.57,4.54,36.68,4.54,36.77z M20.05,61.89c-0.15-0.02-0.54-0.09-0.63-0.13
c0.06-0.09,0.08-0.17,0.17-0.19c0.15-0.02,0.5-0.02,0.54,0c0.71,0.2,1.36-0.32,2.03-0.41c0.15-0.02,0.32-0.04,0.49-0.02
c0.45,0.02,0.88,0.04,1.36-0.09c0.2-0.08,0.47,0.02,0.69,0.11c0.76,0.35,1.49,0.54,2.24,0.09c0.39-0.26,0.78-0.5,1.19-0.71
c0.17-0.09,0.43-0.09,0.6-0.02c0.09,0.08,0.24,0.32,0.17,0.47c-0.04,0.15-0.21,0.34-0.37,0.39c-1.1,0.37-2.26,0.67-3.47,0.71
c-1.23,0.06-2.42-0.04-3.62-0.17c-0.26-0.02-0.5,0-0.73,0C20.65,61.93,20.28,61.91,20.05,61.89z M14.01,27.45
c-0.45,0-1.23,0.56-1.36,0.95c-0.02,0.06-0.02,0.13-0.02,0.18c0.02,0.62,0.15,1.21,0.48,1.75c0.2,0.32,0.37,0.39,0.69,0.17
c0.52-0.37,1.08-0.75,1.53-1.21c0.35-0.35,0.63-0.8,0.88-1.23c0.15-0.3-0.17-0.39-0.47-0.54c-0.39-0.19-0.82-0.19-1.04-0.08
c-0.23,0.11-0.32,0.35-0.36,0.54c-0.07,0.35-0.17,0.6-0.24,0.78c-0.07,0.15-0.19,0.35-0.34,0.47c-0.06-0.17-0.09-0.56-0.08-0.73
C13.71,28.23,13.82,27.86,14.01,27.45z M19.48,35.54c-0.09,0.3-0.2,0.6-0.69,0.86c-0.26,0.13-0.69,0.32-1.17,0.32
c-0.23,0-0.39-0.06-0.43-0.26c-0.13-0.69-0.28-1.34-0.39-2.01c-0.02-0.17,0.13-0.39,0.26-0.5c0.43-0.41,1.01-0.52,1.59-0.56
c0.13,0,0.54,0.17,0.6,0.28C19.36,34.29,19.42,34.85,19.48,35.54z M17.68,13.99c-0.13,1.14-0.32,2.15-0.76,3.13
c-0.08,0.17-0.22,0.39-0.43,0.6c-0.19-0.26-0.3-0.6-0.34-0.71l-0.82-2.13c-0.07-0.17-0.13-0.41-0.15-0.52
c0.3-0.37,0.67-0.93,0.84-1.38c0.08-0.21,0.2-0.24,0.39-0.09C16.86,13.29,17.25,13.65,17.68,13.99z M49.67,45.44
c0.04,0.06,0.17,0.11,0.28,0.08c0.13-0.02,0.37-0.13,0.49-0.22c0.22-0.17,0.39-0.49,0.39-0.73l-0.13-2.72
c0-0.08-0.11-0.22-0.17-0.22c-0.37,0-0.82-0.08-1.12,0.09c-0.58,0.32-1.06,0.76-1.59,1.17c-0.06,0.06-0.09,0.24-0.06,0.26
c0.11,0.08,0.24,0.15,0.34,0.11c0.26-0.09,0.54-0.22,0.78-0.35c0.17-0.07,0.32-0.19,0.49-0.26c0,0.09-0.02,0.17-0.06,0.23
c-0.45,0.5-0.78,1.1-1.4,1.43c-0.07,0.02-0.11,0.15-0.09,0.22c0.04,0.09,0.13,0.2,0.21,0.2c0.19-0.02,0.56-0.22,0.69-0.32
c0.37-0.3,0.54-0.49,0.91-0.8c0.13,0.19,0.21,0.34,0.02,0.5c-0.09,0.11-0.21,0.19-0.32,0.28c-0.21,0.2-0.47,0.39-0.69,0.61
c-0.08,0.08-0.08,0.15-0.04,0.21c0.04,0.06,0.15,0.09,0.19,0.08c0.26-0.04,0.5-0.15,0.71-0.28c0.24-0.17,0.47-0.39,0.69-0.63
c0.02,0.04,0.15,0.17,0.13,0.19C50.13,44.85,49.91,45.13,49.67,45.44z M33.83,14.58c0-0.32,0.58-0.82,0.89-0.76
c0.06,0.02,0.11,0.06,0.17,0.13c0.06,0.2,0.09,0.43,0.13,0.67c0.04,0.26,0.11,0.5,0.26,0.5c0.65,0.04,1.42-0.41,1.77-0.97
c0.39-0.6,0.67-1.29,0.99-1.94c0.08-0.17,0.24-0.43,0.45-0.34c0.19,0.07,0.22,0.28,0.15,0.5c-0.41,1.23-0.91,2.5-1.33,3.71
c-0.13,0.45-0.19,0.47-0.61,0.32l-2.07-0.73C34.11,15.51,33.83,15.14,33.83,14.58z M55.24,63.46c0.63,0,1.08-0.11,1.51-0.39
c0.32-0.21,0.63-0.49,0.99-0.62c0.24-0.09,0.56-0.13,0.82-0.19c0.28-0.06,0.56-0.34,0.58-0.56c0-0.32-0.26-0.35-0.47-0.43
c-0.6-0.19-1.31-0.17-1.92-0.32c-0.21-0.04-0.49-0.04-0.65,0.09c-0.49,0.37-0.62,0.58-1.17,0.99c-0.19,0.11-0.76,0.35-0.97,0.65
c-0.17,0.21-0.17,0.47,0.28,0.58C54.59,63.36,55.03,63.44,55.24,63.46z M51.16,61c0.24,0.09,0.58,0.2,0.88,0.3
c0.45,0.13,0.8,0.2,1.19,0.13c0.32-0.06,0.5-0.35,0.47-0.67c-0.02-0.28-0.15-0.5-0.5-0.6c-0.76-0.17-1.55-0.28-2.27-0.54
c-0.43-0.13-0.76-0.11-1.14,0.17c-0.56,0.45-1.12,0.67-1.83,0.8c-0.15,0.02-0.34,0.06-0.47,0.17c-0.09,0.07-0.13,0.28-0.09,0.37
c0,0.11,0.19,0.24,0.26,0.24c0.62,0.04,1.1,0.04,1.68-0.02C49.93,61.31,50.52,61.14,51.16,61z M9.4,38.43
c-0.05,0.26-0.17,0.47-0.58,0.45c-0.34-0.02-0.73-0.06-1.12-0.17C7.3,38.6,7.19,38.45,7.17,38.3c-0.13-0.75-0.06-1.77,0.13-2.48
c0.04-0.11,0.47-0.37,0.63-0.47c0.54,0.06,0.97,0.15,1.36,0.24c0.15,0.09,0.45,0.54,0.47,0.6c0.07,0.24,0.07,0.5,0.07,0.75
C9.69,37.57,9.5,38.11,9.4,38.43z M10.19,4.77c-0.02-0.07,0-0.24,0.02-0.28l0.78,0.11c0.37,0.08,0.56,0.04,0.69-0.26
c0.2-0.54,0.09-1.04-0.48-1.16c-0.3-0.06-0.61-0.08-0.89-0.04C9.76,3.23,9.22,3.3,8.7,3.49C8.21,3.65,8.1,4.16,8.45,4.51
c0.56,0.54,1.1,1.08,1.68,1.55c0.49,0.39,1.05,0.49,1.59,0.37c0.26-0.06,0.47-0.22,0.47-0.45c0-0.17-0.06-0.3-0.19-0.45
c-0.09-0.09-0.3-0.21-0.43-0.26L10.19,4.77z M52.52,33.36c0.07-0.06,0.17,0,0.2,0.02c0.02,0.5,0.08,0.88,0.15,1.38
c0.02,0.11,0.08,0.26,0.11,0.34c0.08-0.04,0.21-0.11,0.24-0.17l0.19-0.91c0.43-1.29,0.11-2.31-0.43-3.49
c-0.09-0.22-0.24-0.26-0.47-0.15c-0.17,0.08-0.3,0.19-0.17,0.41c0.13,0.19,0.11,0.34,0,0.52c-0.17,0.34-0.3,0.71-0.49,1.1
c-0.08,0.26-0.09,0.45-0.11,0.76l-0.19,4.47c0,0.04-0.02,0.09,0,0.13c0.02,0.08,0.06,0.17,0.13,0.22c0.08-0.06,0.15-0.11,0.19-0.17
c0.09-0.24,0.17-0.49,0.22-0.75c0.13-0.73,0.34-0.75,0.37-1.47C52.54,34.87,52.54,34.1,52.52,33.36z M37.26,3.1h0.13l-0.06,0.26
c-0.13,0.63-0.5,1.14-0.95,1.59c-0.24,0.22-0.3,0.58-0.13,0.75c0.34,0.3,0.71,0.04,0.95-0.21c0.5-0.56,0.82-1.25,1.1-1.92
c0.35-0.84,0.28-1.88-0.13-2.57c-0.2-0.3-0.52-0.34-0.78-0.11c-0.8,0.69-1.51,1.9-1.51,2.98c0,0.17,0.02,0.47,0.13,0.52
c0.11,0.06,0.49-0.3,0.65-0.5C36.89,3.62,37.06,3.36,37.26,3.1z M63.28,22.9c0.56,0,1.02,0.11,1.17,0.17
c0.67,0.24,0.97,0.54,1.1,0.78c0.11,0.22,0.13,0.34,0.13,0.45c-0.39,0.11-0.8,0.04-1.12-0.22c-0.22-0.17-0.45-0.34-0.75-0.47
c-0.37-0.17-0.86-0.19-1.25-0.09c0.04,0.39,0.41,0.88,0.73,1.12c0.78,0.63,1.33,0.76,1.92,0.8c0.5,0.04,0.91,0,1.17-0.11
c0.19-0.07,0.26-0.34,0.24-0.56c-0.04-0.73,0.02-1.49-0.67-2.12c-0.75-0.71-1.83-0.69-2.56-0.37c-0.13,0.06-0.32,0.15-0.41,0.24
C63.02,22.6,63.11,22.79,63.28,22.9z M5.55,25.45c-0.02,0-0.06-0.02-0.09-0.04c0-0.17,0.08-0.5,0.09-0.63
c0.09-0.45,0.2-0.82,0.26-1.21c0.02-0.18,0.02-0.39-0.02-0.54c-0.19-0.04-0.63-0.02-0.86,0.09c-0.3,0.13-0.43,0.43-0.49,0.93
c-0.04,0.34-0.02,0.82,0.02,1.29c0.06,0.65,0.17,1.32,0.32,1.96c0.07,0.37,0.22,0.41,0.48,0.15l0.58-0.56
c0.5-0.5,0.93-0.99,1.36-1.55c0.37-0.49,0.43-0.95,0.28-1.42c-0.11-0.39-0.39-0.54-0.67-0.54c-0.32,0-0.43,0.24-0.5,0.49
c-0.13,0.39-0.26,0.67-0.39,0.95C5.82,25.03,5.64,25.34,5.55,25.45z M36.69,19.35c0.02,1.08-0.11,2.15-0.35,3.23
c-0.06,0.15-0.19,0.28-0.32,0.45c-0.15-0.15-0.3-0.24-0.37-0.41c-0.56-1.36-1.03-2.76-1.32-4.25c-0.06-0.24-0.13-0.52-0.17-0.76
c-0.04-0.32,0.09-0.43,0.37-0.41c0.71,0.08,1.32,0.39,1.96,0.73c0.09,0.08,0.17,0.28,0.19,0.43C36.71,18.63,36.69,18.96,36.69,19.35
z M7.75,12.23c-0.17,0.67-0.2,1.1-0.19,1.47c0.02,0.49,0.24,0.88,0.69,1.08c1.32,0.63,2.72,0.73,4.16,0.65
c0.06,0,0.19-0.09,0.19-0.13c-0.02-0.09-0.06-0.22-0.13-0.28c-0.08-0.07-0.19-0.07-0.32-0.13c-0.63-0.21-1.31-0.39-1.96-0.63
c-0.15-0.04-0.3-0.15-0.41-0.24c-0.17-0.22-0.09-0.47,0.17-0.5c0.22-0.02,0.47,0.02,0.69,0.11c0.39,0.19,0.73,0.45,1.12,0.67
c0.13,0.08,0.28,0.21,0.43,0c0.11-0.19,0.23-0.35-0.02-0.54l-0.93-0.73C10.43,12.4,9.24,12.1,7.75,12.23z M69.43,17.08
c0-0.47-0.06-0.8-0.19-1.21c-0.28-0.88-0.99-1.46-1.85-1.53c-0.47-0.02-0.69,0.08-0.5,0.5c0.06,0.15,0.47,0.58,0.64,0.93
c0.21,0.43,0.41,0.86,0.41,1.23c0,0.19-0.06,0.39-0.11,0.5c-0.28-0.15-0.43-0.48-0.49-0.65c-0.13-0.39-0.15-0.63-0.28-0.86
c-0.11-0.21-0.24-0.26-0.32-0.26c-0.17,0-0.24,0.08-0.26,0.32c-0.06,0.9,0.15,2.24,1.23,3.1c0.17,0.15,0.54,0.41,0.73,0.49
c0.35,0.13,0.45,0.04,0.56-0.28C69.23,18.67,69.43,17.88,69.43,17.08z M68.67,8.75c-0.17,0-0.82,0.02-1.01,0.06
c-0.15,0.04-0.23,0.39-0.15,0.45c0.18,0.13,0.3,0.22,0.45,0.28c0.6,0.06,0.86,0.06,1.53,0.17c0.11,0.02,0.24,0.07,0.34,0.19
c-0.06,0.06-0.13,0.15-0.24,0.17c-0.86,0.11-1.44,0.19-2.16-0.24c-0.11-0.08-0.22-0.19-0.34-0.22c-0.24-0.09-0.34,0.08-0.26,0.3
c0.13,0.43,0.49,0.78,1.12,1.04c0.52,0.22,1.02,0.5,1.55,0.49c0.8-0.02,1.38-0.07,2.03-0.19c0.35-0.06,0.71-0.26,0.76-0.43
c0.06-0.17-0.02-0.56-0.21-0.8c-0.13-0.15-0.34-0.34-0.49-0.49c-0.75-0.78-1.23-1.29-2.35-1.18C69.1,8.35,68.87,8.75,68.67,8.75z
M56.9,28.01c-0.26-0.63-0.67-0.9-1.31-0.95c-0.22-0.02-0.43-0.06-0.73-0.09l-1.08-0.17c-0.37,0.06-0.62,0.35-0.84,0.86
c0.02,0.09,0.06,0.22,0.13,0.24c0.21,0.08,0.6,0.15,0.65,0.19c0.08,0.06,0.32,0.32,0.37,0.52c-0.06,0.17-0.28,0.35-0.56,0.41
c-0.37,0.08-0.39,0.37-0.32,0.76c0.06,0.37,0.19,0.69,0.49,1.08c0.26-0.15,0.37-0.2,0.56-0.41c0.22-0.22,0.28-0.45,0.26-0.73
c-0.06-0.8,0.39-1.4,0.95-1.94l0.13,0.07c-0.09,0.47-0.34,0.8-0.39,1.27c-0.11,0.95-0.43,1.75-1.38,2.39
c0.08,0.13,0.28,0.17,0.47,0.17c0.37,0,0.62-0.15,0.76-0.3c0.39-0.35,0.71-0.78,0.86-1.33l0.15-0.47c0.02,0,0.11,0.02,0.13,0.04
l0.06,0.43c0,0.19-0.02,0.34-0.04,0.64c-0.02,0.15-0.02,0.35,0.02,0.5c0.22-0.09,0.34-0.22,0.47-0.37
C57.07,30,57.24,28.77,56.9,28.01z M42.19,42.63c-0.19-1.47-1.31-2.52-2.15-3.24c-0.3-0.24-0.47-0.35-0.6-0.39
c-0.11-0.04-0.23-0.06-0.32,0c-0.08,0.06-0.06,0.24-0.06,0.39c0.09,0.93,0.19,2.03,0.3,2.97c0.08,0.78,0.17,1.42,0.3,2.2
c0.06,0.35,0.22,0.45,0.54,0.28c0.49-0.23,0.95-0.47,1.42-0.73C42.06,43.86,42.32,43.62,42.19,42.63z M8.51,18.5
c-0.04-0.84-0.24-1.55-0.5-2.24c-0.3-0.73-0.75-1.14-1.04-1.14c-0.28,0-0.91,0.75-1.12,1.36c-0.24,0.62-0.3,1.18-0.28,1.57
C5.6,19,5.9,19.86,6.48,20.75c0.13,0.19,0.37,0.54,0.71,0.19c0.28-0.32,0.49-0.54,0.76-0.88C8.29,19.65,8.53,19.06,8.51,18.5z
M47.52,15.98c0-0.91-0.73-1.18-1.04-1.96c-0.3-0.76-0.58-0.76-1.19-0.21c-0.69,0.65-1.12,1.23-1.38,2.18
c-0.22,0.84-0.19,1.77,0.04,2.63c0.06,0.26,0.21,0.56,0.5,0.47c0.24-0.08,0.35-0.3,0.35-0.49c0-0.78,0.08-1.53,0.47-2.03
c0.17-0.22,0.26-0.28,0.35-0.34c0.11,0.19,0.08,0.41,0.08,0.45c-0.11,0.58-0.21,1.16-0.34,1.73c-0.08,0.39-0.08,0.6,0.13,0.95
c0.22,0.35,0.41,0.39,0.56,0.15C46.76,18.38,47.52,16.74,47.52,15.98z M45.69,7.68c-0.02,0.37-0.15,0.6-0.49,0.47
c-0.71-0.3-1.14-1.06-1.92-1.32c-0.28-0.09-0.47,0.17-0.5,0.43c-0.13,0.8-0.24,1.51-0.24,1.81c0,1.1,0.58,1.7,1.18,2.29
c0.17,0.15,0.17,0.24-0.02,0.34c-0.8,0.45-1.6,0.91-2.41,1.34c-0.22,0.15-0.5,0.19-0.75,0c-0.24-0.21-0.32-0.47-0.24-0.73
c0.28-1.21,0.48-2.46,0.8-3.65c0.49-1.86,1.31-2.52,2.67-2.69c0.49-0.07,0.86-0.07,1.23-0.07c0.39,0,0.58,0.07,0.63,0.43
C45.67,6.58,45.69,6.84,45.69,7.68z M68.82,7.81c0.67-0.13,1.21-0.32,1.45-0.41c1.08-0.41,1.79-1.1,2.03-2.27
c0.08-0.32-0.11-0.49-0.45-0.58c-0.17-0.06-0.52-0.13-0.71-0.19c-0.69-0.2-0.82,0.09-1.08,0.75c-0.21,0.5-0.41,1.08-0.95,1.51
c-0.17,0.13-0.73-0.28-0.88-0.39c1.04-0.61,1.74-1.62,2.26-2.82c0.11-0.22,0-0.45-0.24-0.52c-0.34-0.11-0.69-0.15-1.08-0.11
c-1.34,0.13-3.15,1.34-3.86,2.89c-0.06,0.13,0,0.41,0.08,0.45c0.15,0.06,0.52,0.02,0.69-0.04c0.09-0.02,0.15-0.15,0.21-0.24
c0.45-0.78,1.18-1.27,2.03-1.64c0.08-0.04,0.17-0.02,0.26-0.04c0.02,0.09,0,0.2-0.06,0.3c-0.06,0.09-0.17,0.19-0.26,0.26
c-0.28,0.21-0.58,0.39-0.86,0.61c-0.3,0.28-0.35,0.24-0.61,0.56c-0.08,0.09-0.08,0.3-0.02,0.37c0.06,0.09,0.26,0.13,0.37,0.11
l0.47-0.11c0,0.3,0.35,0.88,0.52,1.04C68.31,7.5,68.52,7.7,68.82,7.81z M5.7,4.21l0.73,0.86c0.3,0.56,0.47,1.08,0.62,1.53
c0.13,0.45,0.32,0.45,0.6,0.24c0.24-0.19,0.45-0.49,0.43-0.88C8.04,5.71,7.99,5.43,7.89,5.18c-0.24-0.97-0.07-1.79,0.78-2.4
c0.28-0.2,0.48-0.52,0.39-0.88C8.94,1.42,8.83,0.95,8.64,0.5C8.57,0.3,8.29,0.24,8.1,0.35c-0.95,0.5-2.07,1.94-1.21,3.13
c0.04,0.07-0.02,0.3-0.08,0.43c-0.09-0.08-0.22-0.19-0.3-0.28C5.99,2.98,5.4,2.57,4.8,2.01C4.65,1.86,4.24,1.62,4.02,1.57
C3.89,1.79,3.79,2.26,3.89,3.19C4,4.1,4.24,5.04,4.93,6.3C5.1,6.6,5.27,6.77,5.51,6.97c0.17,0.15,0.5,0.32,0.75,0.32
c0.09-0.21,0.11-0.52,0.06-0.75C6.16,5.95,5.95,5.35,5.75,4.77L5.57,4.25L5.7,4.21z M48.49,19.3c0-0.22,0.02-0.58,0.15-0.93
c0.06-0.17,0.15-0.37,0.26-0.54c0.19,0.06,0.43,0.17,0.58,0.3c0.35,0.84,1.14,1.77,2.11,2.28c0.32,0.17,0.63,0.22,0.88,0.24
c0.09-0.37,0.26-0.99,0.26-1.68c0-0.54-0.17-1.12-0.67-1.62c-0.43-0.43-1.01-0.9-1.49-1.14c-0.35-0.17-0.61-0.04-0.75,0.08
c-0.02,0.11-0.02,0.32,0.06,0.43c0.24,0.41,0.82,0.78,1.06,1.17c0.06,0.08,0.06,0.2,0.06,0.32c-0.11,0-0.22-0.02-0.32-0.07
c-0.24-0.15-0.65-0.45-0.86-0.62c-0.39-0.32-0.67-0.63-0.93-0.95c-0.28-0.32-0.47-0.32-0.67,0.04c-0.52,0.84-0.78,1.66-0.9,2.69
c-0.15,1.21,0.41,2.35,1.49,2.87c0.47,0.2,0.8,0.15,1.03-0.28c0.24-0.45,0.41-0.82,0.56-1.31c0.08-0.24,0.08-0.35-0.11-0.58
c-0.28-0.34-0.47-0.56-0.75-0.84c-0.17-0.17-0.28-0.26-0.37-0.3c-0.08,0.09-0.11,0.2-0.11,0.32c0.02,0.39,0.07,0.78,0.09,1.17
c0,0.09-0.02,0.24-0.08,0.34c-0.24-0.11-0.35-0.28-0.43-0.5C48.55,19.92,48.51,19.67,48.49,19.3z M33.52,24.58
c0.06,0.73-0.08,0.91-1.01,0.67c-0.32-0.08-0.63-0.17-0.95-0.26c-0.47-0.13-0.8-0.3-1.1-0.65c-0.37-0.43-0.84-0.43-1.25-0.02
c-0.11,0.09-0.19,0.24-0.32,0.34c-0.08,0.08-0.19,0.11-0.3,0.17c-0.06-0.11-0.11-0.24-0.08-0.35c0.09-0.43,0.35-0.75,0.76-0.95
c0.28-0.15,0.64-0.24,0.93-0.33c0.86-0.34,1.29-0.86,1.29-1.86c0-0.58,0.17-1.16,0.17-1.75c0-0.43-0.15-0.56-0.56-0.43
c-0.71,0.28-1.38,0.56-2.09,0.86c-0.24,0.09-0.39,0.24-0.5,0.47c-0.19,0.37-0.32,0.76-0.5,1.14l-0.15,0.19
c-0.06-0.06-0.13-0.09-0.18-0.17l-0.5-0.74c-0.19-0.28-0.39-0.56-0.6-0.82c-0.32-0.37-0.32-0.49,0.04-0.76l1.16-1.01
c0.58-0.54,0.8-1.25,0.86-2.05v-1.08c-0.02-0.49,0.07-0.62,0.56-0.56c0.34,0.04,0.67,0.13,0.95,0.28c0.52,0.22,1.04,0.52,1.57,0.8
c0.28,0.17,0.48,0.41,0.5,0.76c0.02,0.41-0.24,0.67-0.64,0.52c-0.5-0.22-0.95-0.39-1.75-0.61c-0.3-0.08-0.6,0.09-0.65,0.37
c-0.11,0.69,0.47,0.73,0.41,0.91c-0.15,0.49-0.93,0.63-1.05,1.08c-0.09,0.41-0.09,0.67,0.28,0.6c0.39-0.09,0.78-0.21,1.12-0.37
c0.61-0.32,0.91-0.47,1.58-0.75c0.65-0.28,0.99-0.19,1.08,0.54c0.26,1.75,0.6,3.45,0.84,5.15C33.48,24.07,33.5,24.35,33.52,24.58z
M58.52,51.04c-0.41,0.06-1.27,0.17-1.77,0.19c-0.15,0-0.32-0.02-0.49-0.06c0.08-0.15,0.13-0.21,0.21-0.24
c0.61-0.32,1.27-0.6,1.72-0.95c0.24-0.19,0.21-0.37,0.13-0.54c-0.84,0.37-1.62,0.54-2.52,0.69c-0.06,0-0.09-0.06-0.13-0.09
c0.69-0.52,1.6-0.93,2.11-1.38c0.34-0.28,0.09-0.35-0.02-0.47c-0.73,0.26-1.45,0.49-2.22,0.71c-0.08,0.02-0.24-0.02-0.35-0.04v-0.09
c0.08-0.06,0.19-0.17,0.28-0.2c0.71-0.34,1.59-0.95,2.13-1.4l-0.04-0.19l-0.24-0.02c-0.6,0.09-1.9,0.28-2.61,0.35l-0.22-0.06
c-0.02-0.06-0.02-0.13,0-0.19c0.56-0.26,1.01-0.56,1.42-0.99c0.15-0.17,0.11-0.32,0.08-0.39c-0.11,0.06-0.34,0.13-0.49,0.19
C54.94,46,54.85,46,54.07,46.06l-0.04-0.08c0.02-0.08,0.06-0.13,0.11-0.22c0.54-0.21,0.65-0.39,0.95-0.58
c0.19-0.11,0.58-0.39,0.67-0.54c0.04-0.06,0.02-0.2-0.02-0.24c-0.65,0.21-1.08,0.32-1.66,0.39c-0.09,0-0.2-0.02-0.3-0.06
c0.06-0.13,0.08-0.22,0.15-0.26c0.78-0.39,1.19-0.56,1.73-0.9c0.17-0.11,0.32-0.35,0.39-0.48l-0.06-0.08l-0.3,0.09
c-0.91,0.35-1.36,0.43-1.62,0.49c-0.11-0.02-0.19-0.09-0.3-0.19c0.08-0.09,0.15-0.19,0.22-0.22c1.03-0.39,1.75-0.75,2.26-1.06
c0.54-0.32,1.06-0.78,1.29-0.97c0.3-0.26,0.56-0.54,0.67-0.76l-0.09-0.15c-1.03,0.69-1.47,1.01-1.86,1.25
c-0.76,0.47-1.55,0.78-2.03,0.95c-0.08,0-0.17-0.04-0.22-0.08c0.02-0.06,0.06-0.15,0.09-0.21c0.13-0.13,0.5-0.54,0.8-0.95
c0.9-0.41,1.51-0.63,2.18-1.06c0.63-0.39,0.9-0.61,1.1-0.82c0.07-0.08,0.11-0.28,0.06-0.43c-0.63,0.3-1.6,0.84-2.46,1.16l-0.15-0.06
c0.04-0.15,0.11-0.28,0.2-0.43c0.58-0.37,1.4-0.97,2.05-1.68c0.02-0.09,0.06-0.21,0-0.3l-0.39,0.19c-0.33,0.17-0.91,0.37-1.31,0.5
l-0.07-0.08c0.04-0.17,0.07-0.3,0.15-0.45c0.78-0.65,1.16-1.08,1.55-1.64c0.08-0.11,0.08-0.22,0-0.43c-0.45,0.32-1.06,0.5-1.55,0.69
l-0.15-0.04c-0.02-0.17,0-0.13,0.06-0.26c0.58-0.52,1.06-0.93,1.42-1.53c0.04-0.06,0.02-0.22-0.04-0.34
c-0.49,0.17-0.84,0.3-1.36,0.43c-0.06,0-0.11-0.02-0.17-0.04c0.02-0.17,0-0.21,0.06-0.34c0.35-0.3,0.71-0.71,1.02-1.19
c0.09-0.13,0.08-0.24,0.02-0.34c-0.24,0.06-0.71,0.13-0.93,0.15c-0.09,0.02-0.22-0.09-0.28-0.2c0.11-0.08,0.26-0.19,0.34-0.22
l0.54-0.39c0.06-0.06,0.11-0.15,0.15-0.24c-0.11-0.05-0.2-0.11-0.28-0.09c-0.37,0.06-0.73,0.09-1.1,0.17
c-0.82,0.17-0.82,0.28-0.9,0.52c-0.39,1.45-0.65,2.11-0.91,2.72c-0.11,0.26-0.24,0.49-0.5,0.6c-0.35,0.17-0.28,0.35-0.37,0.69
c-0.15,0.67-0.24,0.63-0.52,1.29c-0.22,0.58-0.47,0.91-0.78,1.25c-0.04,0-0.15,0.02-0.19,0l-0.06-0.93c-0.08-0.61-0.2-0.48-0.3-1.12
c-0.02-0.19-0.02-0.39-0.02-0.58c0.06-0.37,0.13-0.71,0.17-1.08c0.06-0.56,0.13-1.53,0.13-2.09c-0.06-0.04-0.11-0.11-0.19-0.17
c-0.09,0.08-0.13,0.15-0.17,0.24c-0.11,0.43-0.32,1.1-0.39,1.55c-0.13,1.03,0.09,2.01,0,3.04c-0.09,0.91-0.26,1.77-0.15,2.7
l0.04,0.52c0.34-0.04,0.32-0.08,0.78-0.26c0.63-0.24,1.08-0.34,1.72-0.9c0.45-0.39,0.37-1.16,0.54-1.77c0.21-0.76,0.5-1.03,0.8-1.16
c0.08-0.02,0.17,0.02,0.26,0.04c-0.19,0.43-0.28,0.65-0.45,1.1c-0.15,0.39-0.3,1.03,0.13,1.1l0.32,0.06
c0.02,0.08,0.02,0.19-0.04,0.24c-0.41,0.39-0.73,0.86-2.57,1.38c-0.2,0.06-0.67,0.62-0.69,0.84c-0.04,0.28-0.04,0.62,0.02,1.1
c0.19,1.83,1.1,3.56,2.13,5.26c0.86,1.45,1.49,2.56,2.44,3.51c0.43,0.39,0.9,0.69,1.62,0.35c0.39-0.19,0.88-0.49,0.99-0.6
C58.52,51.28,58.54,51.15,58.52,51.04z M2.92,37.89c0.09,0.75,0.41,1.34,1.12,1.62c1.03,0.43,2.39,0.67,3.52,0.69
c1.36,0.04,2.85-0.08,4.46-0.37c2.31-0.43,5.11-1.46,7.2-2.52c1.4-0.71,2.82-1.29,4.36-1.66c1.64-0.39,3.11-0.54,4.85-0.13
c0.71,0.17,0.86,0.17,0.76-0.35c-0.06-0.34-0.15-0.67-0.2-1.03c-0.17-1.19-0.13-2.31-0.58-3.34c-0.09-0.22-0.3-0.43-0.65-0.62
c-0.35-0.19-0.8-0.3-1.16-0.35c-0.78-0.13-1.68-0.11-2.42,0c-1.34,0.2-2.41,0.52-3.65,1.12c-1.25,0.62-2.5,1.31-3.43,1.86
c-1.62,1.01-3.49,1.47-5.07,1.47c-1.19,0-1.98-0.04-3.17-0.17c-1.62-0.17-3.23-0.45-4.66-1.29c-0.32-0.17-0.5-0.11-0.63,0.23
c-0.08,0.18-0.15,0.39-0.28,0.91C3.01,35.04,2.71,36.49,2.92,37.89z M26.32,48.78c0.6,0,1.33,0.3,1.31,0.95
c-0.02,0.08-0.09,0.26-0.13,0.32c-0.06,0-0.11-0.02-0.15-0.04c-0.22-0.48-0.58-0.76-1.17-0.65c-0.54,0.11-1.02,0.39-1.38,0.78
c-0.22,0.24,0.26,0.39,0.56,0.56c0.2,0.11,0.54,0.3,0.65,0.41c-0.07,0.2-0.3,0.56-0.32,0.71c-0.22-0.07-0.52-0.21-0.82-0.37
c0.15-0.26,0.28-0.43,0.34-0.47c0.11-0.08,0.58,0.04,0.75,0.09c-0.02,0.52-0.82,2.7-0.39,2.78c1.06,0.19,2.5-1.29,2.65-3.38
c-0.04-0.76,0.39-1.12,1.21-1.4c0.97-0.39,1.43-0.82,1.27-1.88c-0.08-0.52,0.22-0.37,0.52-0.8c0.11-0.15,0.24-0.28,0.32-0.35
c0.06,0.15,0.17,0.5,0.13,0.65c-0.22,0.86-0.06,1.53,0.37,2.31l0.8,2.07c0.18,0.2,0.35,0.04,0.54,0.24c0.69,1.4,1.47,3.47,2.52,4.36
c0.86,0.71,1.77,1.96,2.59,2.7c0.47,0.43,0.8,1.49,1.4,1.7c0.43,0.15,0.41,0.37,0.35,0.76c-0.08,0.47,0.11,0.56,0.3,0.56
c0.28-0.04,0.56-0.11,0.86-0.13c0.24-0.02,0.43,0.17,0.41,0.39c0,0.09-0.22,0.26-0.39,0.26c-0.32,0.04-0.64-0.02-0.95-0.02
c-0.11,0.02-0.22,0.08-0.34,0.11c0.04,0.13,0.08,0.26,0.17,0.34c0.52,0.28,0.9,0.32,1.42,0.43c0.09,0,0.17,0.07,0.28,0.11
c-0.04,0.09-0.15,0.3-0.24,0.34c-0.17,0.04-0.39,0.04-0.58,0c-0.47-0.09-0.9-0.3-1.33-0.49c-0.15-0.06-0.26-0.23-0.39-0.32
c-0.11-0.06-0.24-0.07-0.37-0.11c0,0.15-0.06,0.28-0.04,0.41c0.02,0.11,0.11,0.21,0.15,0.3c0.04,0.09,0.11,0.28,0.07,0.34
c-0.04,0.06-0.34,0.24-0.43,0.18c-0.37-0.17-0.67-0.6-1.03-0.8c-0.45-0.28-0.86-0.28-1.29,0.02c-0.43,0.3-0.82,0.56-1.23,0.8
c-0.52,0.34-1.06,0.88-1.68,0.88c-0.34,0-1.17-0.52-1.55-0.63c-0.71-0.22-0.93-0.24-1.68-0.41c-0.62-0.15-1.17,0.09-1.81,0.3
c-0.78,0.24-1.62,0.34-2.46,0.49c-0.49,0.09-1.02,0-1.53-0.02c-0.75-0.02-1.47-0.09-2.22-0.08c-0.49,0-1.03,0.09-1.49,0.24
c-0.22,0.07-0.47,0.11-0.67,0.11c-0.34,0-0.65-0.09-0.97-0.3c-0.34-0.21-0.67-0.28-1.06-0.21c-0.35,0.07-1.04,0.21-1.32-0.06
c-0.35-0.35-1.19-1.06-1.66-0.97c-1.49,0.26-2.2,1.1-3.65,0.71c-1.03-0.26-1.7-0.5-2.7-0.17c-0.24,0.09-0.9-0.06-1.16-0.02
c-0.37,0.06-0.5-0.02-0.45-0.39l0.04-0.2c0.06-0.39-0.32-0.67-0.69-0.54c-0.41,0.13-0.65,0.56-1.04,0.76
C4.82,63.4,4.15,63.3,3.39,63c-0.52-0.22-1.06-0.13-1.57,0.13c-0.32,0.17-0.84,0.93-1.19,0.93c-0.13,0-0.32-0.21-0.37-0.37v-0.37
c0.13-0.28,0.62-0.65,0.82-0.76c0.91-0.43,1.85-0.54,2.85-0.37c0.45,0.08,0.93,0.13,1.36-0.06c0.34-0.15,0.69-0.17,1.01-0.34
c0.56-0.3,1.05-0.56,1.68-0.34c0.47-0.21,0.71-0.35,0.95-0.71c0.11-0.56-0.09-1.16,0.06-1.7c0.13-0.5,0.34-1.12,0.5-1.6
c0.09-0.24,0.26-0.22,0.43-0.2c0.45,0.67,0.99,1.29,0.73,1.9c-0.19,0.43,0.78,0.73,0.61,1.16c-0.15,0.32-0.07,0.52,0.24,0.56
c0.15,0.02,0.19,0.02,0.26,0.02c0.28,0,0.3-0.19,0.28-0.54c-0.06-1.47-0.28-2.8-0.93-4.14c-0.15-0.32-0.26-0.63-0.41-0.95
c-0.3-0.61-0.24-1.25-0.02-1.88l0.43-1.27c0.23-0.6,0.73-1.12,1.29-1.34c0.08-0.02,0.28,0.08,0.34,0.17c0.91,1.29,1.25,2.85,0.8,4.4
c-0.13,0.47-0.22,0.95-0.32,1.45c-0.02,0.11,0.02,0.24,0.04,0.37c0.09-0.08,0.2-0.15,0.28-0.24c0.45-0.69,0.91-1.34,1.27-2.07
c0.35-0.71,0.93-0.99,1.66-1.14c0.78-0.15,1.01-0.06,0.8,0.71c-0.13,0.45-0.26,0.9-0.41,1.31c-0.22,0.71-0.67,1.29-1.32,1.6
c-0.28,0.15-0.67,0.47-0.95,0.64c-0.09,0.06-0.2,0.15-0.3,0.24c-0.15,0.21-0.19,0.19-0.02,0.39c0.15,0.19,0.37,0.07,0.56-0.04
c0.37-0.28,0.73-0.49,1.1-0.73c0.35-0.24,0.75-0.48,1.14-0.65c0.28-0.13,0.37-0.02,0.35,0.3c-0.04,0.39-0.09,0.89-0.47,1.03
c-0.41,0.15-0.97,0.2-1.33,0.39c-0.24,0.15-0.47,0.32-0.63,0.52c-0.24,0.37-0.24,0.63-0.45,1.03c-0.04,0.09,0,0.24,0.02,0.37
c0.11-0.04,0.24-0.04,0.34-0.09c0.49-0.36,0.75-0.75,1.23-1.12c0.39-0.3,0.47-0.26,0.62,0.21c0.06,0.15,0.17,0.28,0.32,0.41
c0.15-0.09,0.32-0.19,0.43-0.34c0.11-0.13,0.2-0.34,0.26-0.5c0.11-0.36,0.69-1.9,1.02-2.31c0.09,0,0.22,0.07,0.3,0.11
c0.13,0.3-0.04,1.29-0.02,1.49c0.02,0.6,0.2,0.73,0.76,0.45c0.41-0.2,0.8-0.43,1.21-0.65c0.08-0.06,0.17-0.11,0.24-0.11
c0.13,0,0.28,0.06,0.35,0.13c0.04,0.04,0,0.21-0.04,0.28c-0.15,0.21-0.35,0.37-0.48,0.6c-0.08,0.13-0.06,0.34-0.08,0.5
c0.13,0,0.3,0.02,0.43-0.04c0.34-0.09,0.65-0.24,0.97-0.39c0.45-0.19,0.9-0.13,1.38,0.02c0.47,0.15,0.93,0.26,1.38,0.39
c0.35,0.09,0.76-0.08,1.08-0.23c0.69-0.34,1.27-0.56,1.98-0.76c0.97-0.26,1.74-0.8,2.46-1.42c0.17-0.17,0.41-0.26,0.6-0.43
c0.15-0.13,0.28-0.71,0.3-0.9c0.11-0.5-0.08-1.68,0.02-2.2c0.06-0.13,0.17-0.41,0.24-0.54c0,0,0.19,0.06,0.23,0.06
c0.06,0.19,0.15,0.49,0.15,0.63c-0.04,0.9-0.06,2.89-0.15,3.77c0,0.2-0.36,0.52-0.56,0.6c-1.57,0.58-3.15,1.17-4.74,1.64
c-0.73,0.19-1.51,0.08-2.26,0.09c-0.6,0-1.19-0.09-1.77-0.06c-0.47,0.04-1.12,0.47-1.6,0.54c-1.31,0.2-2.42,0.11-3.71,0.35
c-1.19,0.22-2.33,0.54-3.47,0.86c-0.3,0.09-0.47,0.17-0.71,0.36c-0.09,0.07-0.11,0.2-0.15,0.3c0.13,0.06,0.24,0.15,0.37,0.13
c0.28-0.04,0.52,0.06,0.82,0.02c0.71-0.11,1.4-0.19,2.12-0.26c0.15,0,0.36,0.11,0.49,0.21c0.35,0.24,0.71,0.32,1.1,0.22
c0.43-0.09,0.8,0.02,1.17,0.3c0.65,0.52,0.82,0.54,1.57,0.13c0.58-0.32,1.21-0.32,1.85-0.28c0.76,0.06,1.55,0.11,2.31,0.22
c0.58,0.08,1.16,0.23,1.73,0.3c1.06,0.11,1.96-0.17,2.65-1.02c0.35-0.47,0.71-0.91,1.01-1.36c0.23-0.32,0.49-0.52,0.86-0.52
c0.8-0.02,1.62-0.2,2.42-0.15c0.45,0.04,0.65,0.45,0.65,0.71c-0.02,0.26-0.13,0.43-0.43,0.41c-0.61-0.04-1.21-0.08-1.81-0.15
c-0.62-0.06-1.12,0.13-1.49,0.6c-0.21,0.22-0.15,0.37,0.15,0.45c0.13,0.02,0.28,0.08,0.43,0.09c0.32,0.04,0.47,0.18,0.56,0.49
c0.06,0.19,0.45,0.37,1.1,0.41c0.84,0.06,1.27,0.06,1.99-0.19c0.3-0.09,0.5-0.45,0.71-0.71c0.49-0.69,0.8-0.86,1.66-0.69
c0.6,0.11,1.01-0.52,1.53-0.48c0.63,0.06,0.35-0.84,0.11-1.27c-0.22-0.41-0.45-0.76-0.86-1.25c-0.86-0.63-1.55-1.9-2.29-2.84
c-0.56-0.69-1.21-0.95-1.7-1.79c-0.32-0.54-0.8-1.44-1.1-2.03c-0.21-0.39-0.56-1.08-0.8-1.46c-0.23-0.37-0.47-0.76-0.76-1.08
c-0.41-0.41-1.27-0.13-1.7,0.09c-0.11,0.06-0.35,0.17-0.5,0.35c1.23,1.04,1.29,2.48,0.86,3.54c-0.13,0.34-0.24,0.32-0.6,0.19
c-0.32-0.11-0.67-0.26-0.97-0.39c-0.2-0.11-0.39-0.06-0.61,0.08c-0.93,0.56-2.07,1.33-2.26,1.14c-0.37-0.37-0.97-1.51-0.93-2.07
c0.02-0.49,0.17-0.88,0.34-1.14c-0.39-0.22-0.8-0.49-1.17-0.78l-0.02-0.41C24.45,49.49,25.5,48.78,26.32,48.78z M69.1,21.35
c-0.3-0.06-1.55-0.13-1.88-0.13c-0.28,0-1.03,0-1.04,0.39c0,0.11,0.15,0.32,0.32,0.43c0.91,0.62,3.47,0.73,4.51,0.56
c0.02-0.26-0.02-0.54-0.09-0.76c-0.26-0.77-1.19-1.44-2.05-1.72c-0.88-0.28-2.03-0.19-2.78-0.09l-0.17-0.47
c0.3-1.34,0.26-2.59,0.08-3.58c-0.11-0.56-0.26-0.82-0.56-1.27c-0.17-0.24-0.37-0.22-0.6-0.04c-0.15,0.13-0.3,0.28-0.56,0.62
c-0.86,1.06-0.82,1.75-0.67,3.34c0.09,0.08,0.21,0.15,0.49,0.15s0.41-0.13,0.45-0.5l0.15-1.29c0.02-0.11,0.04-0.21,0.07-0.28
c0.13,0.04,0.35,0.19,0.37,0.28c0.02,0.15,0.02,0.3,0,0.47c-0.07,0.93-0.32,1.51-0.41,1.96c0.06,0.09,0.65,0.35,0.56,0.6
c-0.07,0.19-1.01,0.43-1.64,0.49c-0.35-0.49-0.73-0.93-1.55-1.27c-0.37-0.15-0.78-0.28-0.47-0.52l0.49-0.21
c0.88-0.35,0.6-0.86,0.56-1.72c-0.04-0.32-0.17-0.41-0.47-0.39c-0.43,0.02-0.73,0.06-1.08,0.24c-0.26,0.13-0.39,0.26-0.6,0.47
c-0.37,0.36-0.65,0.8-1.03,1.14c-0.09,0.09-0.28,0.06-0.43,0.06c0.02-0.11,0.07-0.22,0.11-0.35c0.24-0.65,0.47-1.32,0.71-2
c0.09-0.26,0.2-0.5,0.49-0.45c1.34,0.32,2.72,0.06,3.67-0.89c0.39-0.43,0.39-0.63-0.11-0.99c-0.86-0.65-1.81-0.93-2.89-0.63
c-0.24,0.07-0.39,0.2-0.58,0.41c-0.11,0.13-0.21,0.35-0.17,0.43c0.06,0.09,0.19,0.09,0.32,0.08c0.32-0.06,0.65-0.09,1.01-0.13
c0.11,0,0.24-0.02,0.34-0.02c0.11,0.02,0.2,0.13,0.3,0.19l-0.3,0.15l-0.69,0.19c-0.5,0.13-1.02,0.26-1.51,0.41
c-0.24,0.08-0.35,0.02-0.39-0.24c-0.08-0.45,0.04-0.8,0.39-1.1c0.58-0.5,1.04-1.08,1.17-1.86c0.07-0.43-0.28-1.06-0.47-1.44
c-0.02-0.09,0.02-0.17,0.04-0.24c0.49,0.11,1.17,0.45,1.59,0.75c0.32,1.36,1.16,2.31,2.46,2.72c0.45,0.15,0.9,0.32,1.36,0.45
c0.43,0.13,0.75,0.02,0.73-0.45l-0.02-0.62c0.37-0.17,0.8-0.3,0.9-0.28c0.71,0.09,1.43,0.45,2.18,0.69c0.13,0.06,0.26,0.15,0.28,0.3
c-0.11,0.07-0.28,0.11-0.39,0.07c-0.54-0.09-1.08-0.24-1.6-0.37c-0.34-0.07-0.61,0.08-0.67,0.39c0.22,0.41,1.25,0.88,1.64,1.03
c0.54,0.2,2.61,0.45,2.59-0.11c-0.02-0.56-0.09-1.1-0.24-1.66c-0.13-0.47-0.54-0.73-0.97-0.84c-0.82-0.22-1.43-0.32-2.53-0.32h-0.24
c-0.22,0-0.62,0.13-1.01,0.32c-0.02-0.21-0.06-0.39-0.09-0.6c-0.2-0.84-0.6-1.04-1.23-1.25c0.04-0.24,0.04-0.41,0.04-0.67
c0.56-0.32,1.23-0.84,1.49-1.29c-0.22-0.21-0.63-0.32-0.84-0.39c-0.84-0.3-0.93-0.63-1.51-0.88c-0.52-0.22-0.93-0.32-1.34-0.34
c-0.43-0.02-1.01,0.09-1.12,0.26c-0.07,0.11-0.02,0.28,0.24,0.47c0.37,0.28,1.16,0.5,1.55,0.76c0.06,0.04,0.11,0.11,0.15,0.15
c-0.08,0.04-0.13,0.07-0.19,0.07c-0.52-0.06-1.03-0.15-1.53-0.43c-0.28-0.15-0.37-0.28-0.58-0.35c-0.39-0.13-0.45-0.02-0.69,0.41
c-0.19,0.32,0.04,0.49,0.3,0.63c0.9,0.5,1.57,0.78,2.7,0.91c0.11,0.11,0.15,0.34,0.19,0.58c-0.54-0.06-0.86-0.09-1.36-0.17
c-0.17-0.02-0.69-0.17-0.84-0.24c-0.75-0.36-1.14-0.62-1.88-0.95c-0.39-0.19-0.78-0.32-1.19-0.47C58.6,8,58.52,7.87,58.74,7.74
c1.12-0.67,2.2-1.51,3.34-2.12c0.17-0.09,0.43-0.06,0.63-0.02c0.54,0.11,0.73,0.28,1.29,0.45c0.32,0.11,0.63,0.2,0.69-0.09
c0.17-0.82,0.43-1.44,0.67-1.79c0.5-0.77,1.21-1.16,2.15-1.75C67.85,1.21,69,0,69.41,0c1.12,0,2.26,2.03,2.48,2.8
c0.15,0.56-0.76,1.03-0.15,1.03c0.52,0,1.01,0.09,1.01,0.54c0,0.78-0.22,1.59-0.63,2.16c-0.41,0.58-0.86,1.19-1.44,1.58l0.04,0.21
c0.97,0.73,2.03,1.25,2.03,2.35c0,0.58-0.17,0.99-0.5,1.29c-0.26,0.22-0.47,0.45-0.45,0.78c0.04,0.76,0.09,1.19,0.04,1.94
c-0.04,0.5-1.57,0.6-1.77,0.82c0.37,1.23-0.08,3.21-0.43,3.8c0.11,0.22,0.2,0.39,0.32,0.58c1.55,1.08,1.75,2.07,1.98,2.93
c-0.43,0.41-1.14,0.76-1.38,0.76c-0.99,0-3.21-0.75-3.66-0.82c-0.17,0.32-0.08,0.6,0.15,1.23c0.21,0.56,0.58,0.95,0.58,1.47
c0,0.24-0.04,0.65-0.75,0.76c-1.06,0.17-2.24-0.22-3.34-0.91c-0.2-0.11-0.37-0.24-0.58-0.34c-0.34-0.19-0.76-0.06-0.88,0.34
l-0.22,0.75c-0.13,0.41-0.34,0.45-0.9,0.34c-1.59-0.34-2.33-2.05-2.33-3.56c0-0.02,0.08-0.15,0.13-0.22
c0.08,0.06,0.22,0.11,0.24,0.19c0.06,0.28,0.11,0.58,0.2,0.86c0.13,0.41,0.22,0.8,0.47,1.19c0.3,0.58,0.67,0.9,1.31,0.97
c0.13,0,0.3-0.24,0.45-0.5c0.34-0.71,0.65-1.19,0.54-2.03c-0.04-0.28-0.13-0.69-0.34-0.95c-0.09-0.13-0.26-0.22-0.45-0.39
c0.09-0.13,0.22-0.28,0.34-0.24c0.71,0.26,1.23,0.24,1.66,0.02c0.28-0.15,0.41-0.34,0.6-0.58c0.6-0.15,1.59-0.37,2.41-0.49
c1.12,0,2.12,0.15,2.97,0.52L69.1,21.35z M50.37,46.9c0.09,0.19,0.3,1.12,0.3,1.46c0,0.76-0.06,1.45-0.15,2.65
c-0.13,1.55,0.04,3.11-0.17,4.64c-0.09,0.75-0.28,1.92-0.22,2.95c0.02,0.41,0.08,0.52,0.32,0.58c0.75,0.17,1.25,0.24,1.62,0.24
c1.16,0,1.9-0.52,1.81-1.16c-0.06-0.34-0.19-0.73-0.28-1.27c-0.21-1.32-0.22-1.79-0.26-3.04l0.3-0.02c0.43,1.75,0.78,2.61,0.91,3.52
c0.15,0.82,0,2.24,0.17,2.97c1.92,0.21,4.22,0.02,4.92-0.13c0.17-1.57,0.13-3.19-0.56-3.79c-0.3-0.26-1.16-0.91-1.53-1.16
c-0.9-0.61-1.68-1.7-2.05-2.27c-0.82-1.31-1.04-1.72-1.77-2.99c-0.67-1.17-1.12-2.18-1.59-2.87c-0.3-0.47-0.54-0.75-0.67-0.88
c-0.6-0.19-1.1-0.24-1.73-0.32c-0.82-0.09-1.36-0.18-1.83-0.69c-0.39-0.41-0.56-0.73-0.32-1.27c0.13-0.28-0.04-0.49-0.26-0.73
c-0.22-0.3-0.17-0.62,0.13-0.84c0.56-0.54,1.34-1.08,2.16-1.27c0.06,0,0.11-0.02,0.15-0.04c-0.04-0.17-0.09-0.49-0.15-0.65
c-0.37,0.06-0.78,0.17-1.53,0.17c-1.04,0-1.98-0.43-2.35-1.79c-0.15-0.49-0.77-1.86-0.93-2.48c-0.11-0.37,0.02-0.84,0.19-1.36
c-0.32-0.41-0.6-0.86-0.88-1.23c-0.56-0.24-1.23-0.49-1.68-1.02c-0.19-0.22-0.28-0.24-0.45-0.13c-0.15,0.11-0.18,0.28-0.39,0.47
c-0.2,0.17-0.62,0.19-1.01,0.02c-0.37-0.15-0.56-0.54-0.54-0.91c0.04-0.5,0.28-0.93,0.06-1.14c-0.39-0.41-0.75-0.88-0.28-1.19
c0.13-0.11,0.41-0.09,0.58-0.18c0.5-0.3,0.73-0.82,0.6-1.4c-0.09-0.41-0.32-0.6-0.73-0.63c-0.6-0.04-0.86-0.34-0.86-0.73
c0-0.5,0.45-0.71,0.84-0.61c0.17,0.04,0.39,0.11,0.52,0.24c0.04,0.19,0.13,0.45,0.28,0.43c0.67-0.08,1.19-0.78,1.19-1.44
c0-0.22-0.15-0.34-0.58-0.24c-0.8,0.13-1.81,0.43-2.8,0.76c-0.54,0.19-0.61,0.61-0.32,1.12c0.09,0.11,0.17,0.26,0.24,0.37
c0.13,0.2,0.07,0.35-0.11,0.47l-0.26,0.19c-0.3,0.22-0.34,0.48-0.15,0.82c0.06,0.11,0.13,0.2,0.23,0.3
c0.22,0.21,0.22,0.37,0.02,0.62c-0.26,0.28-0.34,0.62-0.21,1.03c0.09,0.28,0.32,1.9,0.32,2.22c-0.02,0.84,0.15,1.68,0.09,2.46
c-0.04,0.58,0.26,1.08,0.8,1.7c0.6,0.67,1.04,1.27,1.85,2.05c0.97,0.91,1.49,2.01,1.59,3.34c0.04,0.63,0.34,0.86,0.93,1.17
c1.27,0.35,1.7,1.06,1.85,2.03c0.26,1.72-0.58,3.38-2.13,3.23c-0.78-0.08-1.17-0.56-1.17-0.97c0-0.43,0.22-0.88,0.6-1.01
c0.06-0.02,0.28,0,0.34,0.02c0.04,0.09,0.04,0.2,0.04,0.26c0,0.11-0.15,0.18-0.2,0.41c-0.04,0.15-0.04,0.45,0.11,0.63
c0.17,0.21,0.45,0.28,0.75,0.19c0.35-0.11,0.6-0.41,0.76-0.73c0.71-1.29,0.34-2.82-1.03-3.15c-0.43-0.11-1.06-0.19-1.45,0.06
c-0.86,0.52-1.59,0.82-2.29,1.47c-0.11,0.09-0.17,0.26-0.17,0.41c0.02,1.27,0.04,2.16,0.11,3.41c0.09,1.9,0.26,3.77,0.49,5.09
c0.09,0.54,0.22,0.84,0.3,1.03c0.08,0.17,0.23,0.3,0.34,0.45c0.15-0.11,0.26-0.23,0.41-0.37c0.23-0.35,0.41-0.71,0.64-1.04
l0.17-0.06c0.08,0.06,0.2,0.13,0.2,0.2l-0.07,0.86c-0.02,0.32-0.04,0.63,0.02,0.93c0.04,0.17,0.22,0.32,0.35,0.43
c0.09-0.13,0.2-0.28,0.28-0.43c0.08-0.18,0.09-0.34,0.15-0.56c0.11-0.11,0.19-0.15,0.32-0.17c0.08,0.09,0.11,0.22,0.11,0.3
c-0.02,0.41,0,0.78,0.04,1.01c0.02,0.15,0.17,0.19,0.3,0.22l0.22-0.34c0.13-0.26,0.26-0.48,0.41-0.69c0.13-0.17,0.5-0.52,0.78-0.75
c0.09-0.07,0.28-0.11,0.41-0.09c0.02,0.15,0.02,0.3-0.04,0.41c-0.32,0.62-0.49,0.97-0.61,1.44c-0.09,0.34-0.17,0.56-0.19,0.67
c0.06,0.02,0.26-0.02,0.35-0.04c0.07-0.02,0.19-0.06,0.22-0.24c0.04-0.15,0.08-0.21,0.09-0.28c0.06-0.13,0.17-0.2,0.28-0.28
c0.13,0.08,0.24,0.17,0.3,0.3c0.09,0.19,0.11,0.45,0.26,0.62c0.09,0.11,0.15,0.15,0.3,0.24c0.08,0,0.17-0.04,0.26-0.15
c0.09-0.13,0.19-0.58,0.3-0.73c0.15,0.02,0.24,0.07,0.35,0.2c0.09,0.11,0.13,0.35,0.26,0.47c0.15,0.11,1.29,0.15,1.49,0.13
c0-0.17-0.04-0.61-0.04-0.67c-0.02-1.33,0-2.39,0.09-3.69c0.09-1.38,0.24-2.8,0.32-4.01c0.06-0.99,0.19-2.52,0.26-3.71L50.37,46.9z
M20.44,30.19c0.78-0.41,1.23-0.91,1.31-1.51c0.02-0.13,0.02-0.28-0.06-0.39c-0.09-0.02-0.3-0.02-0.41,0.02
c-0.43,0.35-1.01,0.9-1.53,1.25c-0.15,0.02-0.58,0.06-0.76,0.11c-0.06-0.04-0.13-0.13-0.09-0.17c0.49-0.32,1.03-0.62,1.38-1.04
c0.22-0.26,0.11-0.49-0.32-0.54c-0.48-0.08-1.06,0.13-1.51,0.52c-0.76,0.65-1.12,2.09-1.19,3c-0.17,0.15-0.22,0.15-0.39,0.22
c-0.15-0.63-0.19-1.38,0.02-2.01c0.07-0.28,0.19-0.5,0.39-0.95c0.07-0.19,0.02-0.48-0.24-0.58c-0.17-0.06-0.24-0.02-0.32,0.15
c-0.37,1.08-1.02,1.55-1.94,2.22c-0.09,0.08-0.91,0.52-1.14,0.65c-0.39-0.18-0.65-0.43-1.01-0.88c-0.37-0.47-0.89-1.25-1.21-1.72
c-0.15-0.21-0.35-0.28-0.6-0.26c-0.5,0.04-1.27,0.09-1.88-0.06c-0.69-0.17-1.1-0.47-1.53-1.06c-0.35-0.49-0.52-0.58-0.97-0.15
c-0.37,0.34-0.73,0.69-1.1,1.04c-0.11,0.11-0.24,0.21-0.39,0.3c-0.28,0.17-0.47,0.11-0.58-0.22c-0.35-1.01-0.49-2.07-0.49-3.15
c0-0.45,0.04-1.12,0.06-1.57c-0.32-0.28-0.6-0.47-0.95-0.63c-0.99-0.47-1.74-1.16-2.5-1.92c-0.15-0.15-0.24-0.33-0.24-0.48
c0-0.11,0.07-0.35,0.43-0.56c0.45-0.26,1.16-0.39,1.83-0.41c0.6-0.02,1.38,0.26,1.98,0.21c0.47-0.04,0.62-0.39,0.54-1.04
c-0.17-1.44,0.3-2.37,1.17-3.24c0.63-0.67,0.58-1.4,0.43-2.22c-0.08-0.37-0.17-0.47-0.54-0.43C5.1,12.9,5.14,12.92,4.95,13.8
c-0.11,0.56-0.32,1.14-0.63,1.6c-0.39,0.63-0.93,1.18-1.4,1.73c-0.17,0.22-0.35,0.22-0.6,0.08c-1.42-0.88-1.96-2.63-1.29-4.14
c0.17-0.43,0.41-0.9,0.67-1.14l0.11,0.06c0.02,0.08,0,0.17-0.02,0.24l-0.3,0.93c-0.37,1.08-0.32,2.11,0.41,3.04
c0.08,0.07,0.15,0.19,0.24,0.22c0.09,0.06,0.28,0.08,0.34,0.02c0.47-0.47,0.93-0.9,1.34-1.4c0.49-0.56,0.63-1.25,0.49-1.96
c-0.04-0.28-0.08-0.54-0.13-0.82c-0.02-0.09-0.09-0.22-0.17-0.26c-0.06-0.02-0.17,0.06-0.26,0.15c-0.45,0.45-0.65,0.8-0.86,1.64
C2.86,13.91,2.79,14,2.67,14.1c-0.06-0.11-0.11-0.32-0.09-0.43c0.11-0.77,0.3-1.42,0.77-1.9c0.32-0.33,0.24-0.52-0.06-0.62
c-1.08-0.3-2-0.6-2.82-1.6C0.32,9.36,0.25,9.17,0.25,9.01c0-0.21,0.11-0.37,0.35-0.54c0.95-0.65,1.9-1.32,2.84-1.53
C3.81,6.86,4.02,6.84,4.2,6.82C3.77,5.48,3.33,3.9,3.07,2.42c0-0.3,0.22-1.12,0.34-1.36c0.21-0.02,0.47-0.02,0.84,0.11
C4.67,1.32,5.08,1.6,5.47,1.85c0.39,0.22,0.5,0.22,0.74-0.13c0.45-0.63,0.95-1.19,1.6-1.53C8.04,0.07,8.19,0,8.34,0
c0.22,0,0.39,0.13,0.6,0.45c0.36,0.6,0.67,1.27,1.01,1.88c0.37,0.63,0.76,0.67,1.34,0.26c0.64-0.43,1.21-0.84,1.79-1.32
c0.56-0.43,0.71-0.43,1.3-0.02c0.54,0.37,1.12,1.06,1.42,1.66c0.06,0.11,1.31-0.56,1.34-0.86c0.06-0.54,0.2-0.93,0.41-1.36
C17.82,0.15,18.19,0,18.52,0c0.32,0,0.9,0.35,1.34,0.63c0.32,0.19,0.63,0.37,0.95,0.54c0.49,0.28,0.52,0.28,0.82-0.19
c0.34-0.52,0.63-0.61,1.32-0.61c1.38,0,2.63,0.34,3.58,1.47c0.17,0.22,0.34,0.24,0.54,0.04c0.39-0.39,0.76-0.54,1.47-0.54h1.29
c0.28,0,0.47,0.02,0.73-0.35C30.92,0.49,31.32,0,31.89,0c0.9,0,2.07,1.27,2.67,2.35L34.24,2.5c-0.28-0.26-0.43-0.39-0.88-0.69
c-0.45-0.3-0.91-0.56-1.47-0.78c-0.54-0.22-0.78,0-0.71,0.56c0.08,0.67,0.24,1.34,0.41,2c0.19,0.62,0.73,1.16,1.32,1.42l0.04,0.22
c-0.09-0.02-0.23-0.06-0.37-0.08c-0.43-0.06-0.78-0.07-1.17,0.04c-0.75,0.19-1.43,0.52-2.11,0.8c-0.34,0.17-0.34,0.26-0.06,0.52
c0.37,0.36,0.73,0.76,1.16,1.06c1.21,0.91,2.4,0.73,3.75,0.22l0.63-0.22c0.56-0.09,1.16,0.13,1.62,0.56l1.34,1.21
c0.43,0.41,0.52,0.76,0.26,1.29c-0.45,0.86-0.93,1.73-1.42,2.57c-0.06,0.09-0.18,0.26-0.32,0.32c-0.17-0.13-0.32-0.43-0.15-0.71
l0.24-0.35c0.45-0.65,0.75-1.4,0.86-2.16c0.11-0.69-0.26-1.02-0.91-0.84l-0.56,0.21c-0.24,0.09-0.34,0-0.39-0.24
c-0.08-0.22-0.19-0.35-0.26-0.58c-0.15-0.37-0.37-0.5-0.69-0.26c-0.56,0.35-0.97,0.71-1.31,1.27c-0.43,0.71-0.56,1.57-0.56,2.44
c0,0.17,0,0.34,0.04,0.47c0.02,0.11,0.11,0.21,0.19,0.28c0.09-0.04,0.19-0.11,0.26-0.24c0.17-0.45,0.28-0.88,0.35-1.36
c0.04-0.26,0.08-0.73,0.17-0.97c0.06-0.13,0.26-0.08,0.37-0.04c0.28,0.11,0.39,0.24,0.43,0.45c-0.56,0.71-0.91,1.77-1.29,2.72
c-0.06,0.13-0.3,0.3-0.45,0.3c-0.17-0.02-0.41-0.17-0.47-0.32c-0.23-0.6-0.62-1.19-0.78-1.79c-0.41-2.03-0.54-2.14-0.63-2.27
c-0.86-1.38-1.77-2.48-3.02-3.45c-0.09-0.09-0.15-0.21-0.22-0.3c0.11-0.06,0.2-0.15,0.32-0.19C28.2,5.41,28.59,5.26,29,5.13
c0.49-0.19,0.84-0.5,1.06-0.97c0.15-0.26,0.34-0.52,0.48-0.78c0.21-0.37,0.19-0.58-0.09-0.9c-0.54-0.6-1.19-0.78-1.98-0.61
c-0.76,0.19-1.23,0.73-1.47,1.46c-0.09,0.26-0.11,0.54-0.13,0.82c0,0.41,0.13,0.49,0.47,0.28l1.47-1.06l0.32-0.17
c-0.28,0.63-0.67,1.14-1.23,1.49c-0.37,0.24-0.75,0.45-1.12,0.65c-0.32,0.22-0.43,0.13-0.52-0.24c-0.09-0.41-0.06-0.82-0.06-1.21
c0.02-1.34-0.65-2.2-1.77-2.67L23.45,0.8c-0.19,0.13-0.43,0.47-0.37,0.86c0.09,0.71,0.11,1.25,0.24,2.07
c0.06,0.26,0.09,0.49,0.19,0.73c0.17,0.37,0.58,0.52,1.01,0.6c0.24-0.11,0.45-0.47,0.11-1.03c-0.11-0.22-0.26-0.49-0.49-0.95
c-0.06-0.13-0.11-0.24-0.15-0.37c-0.02-0.06-0.04-0.15,0-0.21c0.06,0.02,0.11,0.02,0.24,0.15c0.63,0.67,1.12,1.44,1.45,2.39
c0.13,0.37,0.02,0.52-0.35,0.56c-0.82,0.08-1.66,0.13-2.46,0.3c-1.31,0.28-1.73,0.76-2.22,1.62c-0.2,0.37-0.3,0.62-0.32,0.84
c0.47,0.04,0.99,0.02,1.74-0.11c0.82-0.15,1.26-0.28,1.81-0.6c0.35-0.41,0.64-0.82,1.16-1.19c0.15-0.11,0.49-0.15,0.64-0.07
c1.53,0.76,2.67,1.73,3.43,3.38c0.06,0.15,0.2,0.3,0.28,0.43c0.04,0.06,0.07,0.13,0.06,0.19c-0.04,0.02-0.13,0.06-0.19,0.04
c-0.3-0.09-0.62-0.17-0.9-0.28c-0.11-0.06-0.21-0.22-0.26-0.35l-0.26-0.76c-0.15-0.32-0.23-0.32-0.54-0.21
c-0.17,0.06-0.34,0.13-0.6,0.24c-0.22,0.09-0.34,0.13-0.39-0.11c-0.08-0.37-0.17-0.75-0.26-1.1c-0.15-0.41-0.32-0.48-0.71-0.3
c-0.75,0.39-1.31,0.97-1.68,1.72c-0.35,0.73-0.49,1.23-0.17,3.15c0.08,0.37,0.37,0.84,0.73,0.95l3.26,1.01
c0.08,0.04,0.11,0.07,0.17,0.11c-0.02,0.07-0.06,0.15-0.11,0.19c-0.41,0.28-0.84,0.52-1.25,0.78c-0.22,0.13-0.34,0.06-0.43-0.13
c-0.28-0.6-0.76-0.97-1.34-1.23c-0.21-0.09-0.32-0.06-0.41,0.17c-0.15,0.35-0.32,0.86-0.45,1.23c-0.08,0.19-0.17,0.26-0.37,0.11
c-0.93-0.76-1.9-0.8-3.04-0.65c-0.56,0.07-0.82,0.22-0.69,0.78c0.22,0.93,0.69,1.53,1.45,2.07c0.26,0.19,0.71,0.45,1.38,0.73
c0.17-0.06,0.34-0.19,0.41-0.32c0.17-0.24,0.11-0.5-0.13-0.73c-0.45-0.39-1.4-0.84-1.86-1.27c-0.08-0.09,0.17-0.28,0.34-0.35
c0.11,0.04,0.28,0,0.39,0.07c0.86,0.39,1.51,1.08,2.18,1.75c0.35,0.34,0.52,0.3,0.63-0.19c0.13-0.39,0.24-0.95,0.35-1.38
c0.02-0.06,0.08-0.11,0.11-0.17c0.06,0.06,0.13,0.09,0.15,0.15c0.08,0.34,0.19,0.76,0.19,1.14c0,0.39-0.15,0.75-0.26,1.12
c-0.08,0.37-0.35,0.58-0.67,0.5c-0.82-0.15-1.57,0.19-2.33,0.34c-0.34,0.09-0.73,0.19-1.08,0.22c-0.2,0-0.61-0.13-0.84-0.22
c-0.06-0.04-0.07-0.13-0.11-0.19c0.06-0.04,0.3-0.09,0.37-0.09c0.37,0,0.93,0,1.23-0.17c-0.09-0.13-0.26-0.26-0.39-0.35
c-0.8-0.65-1.7,0.04-2.39,0.39c-0.39,0.21-0.41,0.26-0.24,0.67c0.24,0.62,0.69,0.86,1.31,0.86c0.35,0,0.69,0.06,1.05,0.04
c0.15,0,0.35-0.04,0.5-0.11c0.47-0.19,0.88-0.41,1.31-0.6c0.13-0.04,0.3,0.04,0.45,0.08c-0.04,0.13-0.07,0.3-0.17,0.37l-1.06,0.65
c-0.11,0.05-0.24,0.09-0.32,0.17c-0.15,0.11-0.34,0.3-0.32,0.37c0.08,0.15,0.23,0.3,0.41,0.35c0.49,0.15,0.99,0.22,1.47,0.34
c0.77,0.15,1.1-0.06,1.31-0.82c0.11-0.43,0.26-0.82,0.45-1.21c0.13-0.26,0.28-0.28,0.43-0.02c0.52,0.97,1.08,1.92,1.64,2.87
c0.09,0.2,0,0.32-0.2,0.28c-1.21-0.13-2.41-0.26-3.62-0.45c-0.41-0.06-0.82-0.32-1.23-0.5c-0.63-0.28-1.25-0.54-1.96-0.52
c-0.61,0.02-0.97,0.37-0.76,0.97c0.28,0.84,0.6,1.7,0.93,2.54c0.24,0.58,0.8,0.78,1.42,0.84c0.28,0.04,0.19-0.17,0.11-0.3
l-1.01-2.16c-0.04-0.08-0.04-0.19-0.08-0.28l0.08-0.04c0.07,0.08,0.15,0.13,0.19,0.21c0.54,0.82,1.12,1.6,1.62,2.44
c0.09,0.15,0.15,0.41,0.07,0.52c-0.07,0.11-0.34,0.19-0.52,0.17c-1.27-0.13-2.42-0.56-3.62-1.03c-0.13-0.06-0.32-0.32-0.28-0.43
c0.02-0.06,0.19-0.11,0.32-0.09l0.45,0.09c0.28,0.06,0.41-0.08,0.3-0.3c-0.09-0.19-0.26-0.41-0.61-0.56
c-0.41-0.2-1.02-0.48-1.81-0.65c-0.37-0.08-0.61,0.09-0.54,0.43c0.09,0.43,0.3,0.82,0.52,1.27c0.06,0.13,0.06,0.3,0.02,0.43
c-0.22-0.02-0.5,0.06-1.44-0.34c-0.93-0.39-0.95-0.65-0.95-1.81c0-0.24,0-0.73,0.06-0.95c0.09-0.32,0.13-0.39,0.41-0.34
c0.97,0.21,1.96,0.47,2.93,0.93c0.28,0.13,0.56,0.37,0.86,0.49c0.24,0.09,0.37,0,0.34-0.26c-0.04-0.34-0.2-0.6-0.54-0.75
c-1.02-0.43-2.05-0.91-3.08-1.33c-0.26-0.11-0.34-0.22-0.2-0.48c0.41-0.67,0.63-1.46,0.45-2.31c0-0.06,0.07-0.15,0.15-0.22
c0.11,0.02,0.24,0.09,0.32,0.19c0.09,0.11,0.13,0.24,0.15,0.39c0.08,0.73,0.56,1.23,1.05,1.72c0.95,1.01,0.95,1.01,2.31,0.67
c0.17-0.02,0.3-0.15,0.45-0.24c-0.13-0.11-0.26-0.28-0.43-0.35c-0.24-0.13-0.52-0.21-0.8-0.32c-0.9-0.34-1.16-0.97-0.86-1.92
c0.32-0.86,0.6-1.73,0.84-2.61c0.09-0.41,0.11-0.86,0.15-1.29c0-0.26,0.19-0.26,0.34-0.28c0.65-0.04,1.33-0.07,1.96-0.13
c0.5-0.04,1.06-0.62,1.27-0.95l0.65-1.06c-0.17-0.17-0.39-0.26-0.58-0.3c-0.26-0.06-0.45,0-0.76,0.09c0.15-0.49,0.35-0.95,0.35-1.42
c0-0.3-0.08-0.65-0.2-0.97c-0.13-0.3-0.34-0.35-0.58-0.17c-0.49,0.41-0.88,0.88-1.02,1.53c-0.13,0.54-0.24,1.08-0.3,1.38
c-0.09,0.37-0.06,0.56,0,0.67c0.13-0.06,0.28-0.17,0.37-0.24c0.15-0.15,0.39-0.3,0.6-0.35c0.13-0.04,0.34-0.02,0.45,0.07
c-0.15,0.17-0.35,0.26-0.5,0.39c-0.3,0.24-0.61,0.47-0.95,0.62c-0.35,0.15-0.5-0.06-0.43-0.41c0.07-0.34,0.17-0.67,0.2-0.99
c0.07-0.54-0.06-1.04-0.19-1.57c-0.2-0.71-0.34-1.19-0.67-1.88c-0.15-0.3-0.34-0.65-0.54-0.91c-0.17-0.22-0.45-0.15-0.82,0.3
c-0.6,0.73-0.76,1.34-1.06,2.59l-0.08,0.24l-0.43,0.39l-0.19-0.22c0.17-0.58,0.34-0.91,0.34-1.38c0-0.56-0.24-0.95-0.61-1.27
c-0.47,0.3-0.9,0.67-1.01,0.88c-0.28,0.47-0.3,0.93,0.02,1.42c0.48,0.84,0.41,1.68,0.26,2.67l-0.13-0.04
c-0.09-0.73-0.17-1.29-0.35-1.9c-0.09-0.39-0.35-0.73-0.58-1.08c-0.2-0.32-0.39-0.99-0.22-1.27c0.26-0.43,1.05-0.65,1.34-1.06
c0.32-0.47,0.17-0.67,0.56-1.1c0.24-0.28,0.75-0.88,1.12-0.67c1.14,0.56,2.33,0.69,3.6,0.52c0.54-0.08,0.65-0.06,0.8-0.6
c0.11-0.45,0.19-0.15,0.63-0.3c0.76-0.26,1.16-0.93,1.16-1.75c0-0.45,0.04-0.91-0.02-1.38c-0.04-0.39-0.18-0.78-0.32-1.14
c-0.09-0.24-0.26-0.19-0.37-0.02c-0.32,0.41-0.84,1.23-1.12,1.68c-0.17,0.26-0.3,0.52-0.45,0.8c-0.08,0.21-0.17,0.26-0.35,0.06
c-0.19-0.21-0.43-0.41-0.67-0.58c-0.41-0.26-0.45-1.08-0.28-1.6c0.17,0.09,0.3,0.3,0.41,0.56c0.15,0.35,0.22,0.75,0.5,0.88
c0.35,0.19,0.73-0.56,0.67-1.08c0-0.06-0.04-0.24-0.11-0.37c-0.43-0.71-1.34-1.29-1.9-1.29c-0.65,0-1.06,0.8-0.8,1.57
c0.08,0.2,0.15,0.35,0.26,0.54c-1.55,0.8-1.96,1.33-2.57,2.03C15.41,4.76,15.33,5,15.41,5.13c0.3,0.54,0.19,0.73-0.41,1.06
c-0.26,0.15-0.62,0.28-0.9,0.37c-0.04,0.02-0.11-0.04-0.19-0.06c0.02-0.06,0.04-0.11,0.07-0.15c0.37-0.84,0.78-1.64,1.14-2.48
c0.37-0.91-0.45-1.77-1.19-2.05c-0.49-0.19-0.88-0.07-1.19,0.35c-0.91,1.21-0.9,2.57,0.04,3.9c0.04,0.06,0.09,0.11,0.11,0.17
C13.06,6.49,13,6.6,12.72,6.62c-0.65,0.06-1.3,0.13-1.97,0.17C9.93,6.84,9.26,7.2,8.75,7.85C8.6,8.07,8.4,8.13,8.19,7.98
C7.67,7.66,7.24,7.74,6.7,8.06C6.12,8.41,5.49,8.6,4.82,8.8C4.63,8.86,4.43,8.88,4.24,8.88c-0.09,0-0.2-0.08-0.28-0.15
c0.06-0.08,0.13-0.19,0.32-0.24C4.61,8.37,4.99,8.3,5.36,8.21c0.17-0.04,0.32-0.08,0.37-0.13c0.08-0.09,0.13-0.3,0.17-0.39
C5.81,7.55,5.62,7.4,5.49,7.38c-0.52-0.06-0.89-0.04-1.36,0C2.95,7.5,2.08,8.06,1.33,8.76c-0.35,0.35-0.39,0.71,0,0.99
C2.21,10.39,3.14,11,4.32,10.7c0.39-0.11,0.78-0.36,1.08-0.62c0.3-0.26,0.56-0.58,0.8-0.86c0.45-0.49,1.01-1.04,1.53-0.45
c0.76,0.88,0.91,1.79,2.16,1.64c0.47-0.06,0.67-0.22,0.8-0.67l0.09-0.54c0.04-0.35-0.15-0.52-0.48-0.39
c-0.23,0.07-0.43,0.21-0.65,0.26C9.52,9.12,9.39,9.06,9.24,9.03c0.02-0.13,0.04-0.3,0.13-0.37c0.22-0.15,0.49-0.28,0.75-0.39
c0.93-0.24,1.83-0.43,2.74-0.62c0.09-0.02,0.21-0.02,0.3,0L13.06,7.9c-0.34,0.77-0.78,1.01-1.4,1.16c-0.08,0.07-0.23,0.26-0.34,0.6
c-0.39,1.25-0.17,2.56,0.67,3.45c0.3,0.34,0.67,0.61,1.06,0.86c0.65,0.37,0.82,0.99,1.06,1.66c0.15,0.41,0.32,0.82,0.5,1.23
c-0.52,0.39-0.97,0.82-1.27,1.36c-0.13,0.11-0.22,0.08-0.3-0.08l-0.35-0.9c-0.34-0.78-0.88-1.29-1.75-1.36
c-0.32-0.02-0.63-0.07-0.93-0.11c-0.35-0.04-0.6,0.13-0.73,0.54c-0.34,1.06-0.28,2.05,0.67,3.04c0.13,0.13,0.43,0.43,0.75,0.56
c-0.17,0.04-0.34,0.09-0.5,0.15c-0.5,0.17-0.84,0.28-1.27,0.56c-0.26,0.17-0.63,0.45-0.91,0.84c0.06,0.22,0.41,0.52,0.86,0.71
c1.14,0.47,2.27,0.41,3.34,0.06c0.61-0.22,0.65-0.08,0.76,0.37l0.32,1.4c0.07,0.34-0.11,0.52-0.43,0.41
c-1.72-0.5-3.75-1.33-5.22-2.31c-0.56-0.24-1.16-0.43-1.94-0.58c-0.23,0.13-0.41,0.3-0.62,0.26c-0.47-0.07-1.42-0.47-1.85-0.65
c-0.09-0.06-0.17-0.13-0.21-0.2c0.08-0.08,0.21-0.11,0.26-0.11c0.58,0,1.62,0.24,2.16,0.24c0.11,0,0.32-0.09,0.43-0.19
c-0.04-0.09-0.13-0.22-0.22-0.28c-1.27-0.99-2.68-0.76-4.1-0.52c-0.5,0.09-0.54,0.34-0.24,0.73c0.8,0.95,1.7,1.72,2.97,1.86
c0.82,0.09,1.51,0,2.42-0.07c1.45,0.93,2.91,1.75,4.59,2.29c0.02,0.06,0.02,0.15,0.04,0.24c-0.67,0.07-1.27,0.11-1.85,0.2
c-0.54,0.08-1.08,0.19-1.6,0.3c-0.54,0.11-0.65,0.45-0.35,0.95c0.45,0.73,1.16,1.06,1.98,1.27c0.58,0.17,1.17,0.13,1.73-0.11
c0.69-0.32,1.12-0.88,1.77-1.23c0.37-0.21,0.99,0.02,1.36,0.13c0.58,0.18,1.14,0.43,1.72,0.52c0.95,0.17,1.9,0.24,2.85,0.3
c1.02,0.08,2.01,0.15,3.09,0.13c0.3,0,0.64-0.06,1.01-0.08c-0.26,0.49-0.45,0.97-0.61,1.46c-0.11,0.3-0.02,0.37,0.3,0.35
c0.45-0.02,0.9-0.28,1.08-0.63c0.04-0.34,0.04-0.65,0.11-1.01c0.04-0.19,0.09-0.45,0.22-0.47c0.08-0.02,0.62,0.07,0.56,0.22
c-0.11,0.3-0.2,0.6-0.34,0.9l-0.24,0.6c0.2,0.04,0.41,0.08,0.63,0.08c0.86,0,1.01-0.13,0.97-1.01c-0.02-0.24-0.06-0.49-0.11-0.73
c-0.11-0.65,0.02-1.1,0.58-1.4c0.56-0.28,1.12-0.19,1.68-0.13c1.73,0.19,3.6,1.25,4.74,2.15c0.69,0.54,0.09,1.31,0.09,2.35
c0,0.65-0.13,1.32-0.11,1.66c0.02,0.54,0.24,0.82,0.45,0.97c0.6,0.47,1.27,0.93,1.9,1.34c0.65,0.43,0.97,0.69,1.75,0.95
c0.17,0.06,0.39,0.06,0.54,0.04c0.04-0.17,0.04-0.52-0.04-0.8c-0.37-0.24-0.9-0.37-1.49-0.58c-0.11-0.04-0.22-0.19-0.3-0.32
c0.13-0.11,0.32-0.24,0.45-0.26l0.97-0.2c0.08-0.02,0.21-0.13,0.26-0.21c-0.06-0.09-0.13-0.2-0.2-0.22
c-0.41-0.11-0.93-0.21-1.27-0.3c-0.13-0.04-0.19-0.15-0.28-0.26c0.15-0.11,0.3-0.2,0.47-0.24l1.01-0.13
c0.08-0.02,0.19-0.08,0.26-0.17c-0.04-0.09-0.09-0.22-0.17-0.26c-0.2-0.09-1.23-0.47-1.34-0.58c-0.09-0.09-0.11-0.22-0.15-0.37
c0.15-0.08,0.34-0.13,0.47-0.11c0.35,0.02,0.49,0.02,0.84,0.02c0.11,0,0.24-0.07,0.34-0.17c-0.06-0.11-0.13-0.19-0.22-0.26
c-0.39-0.24-0.54-0.43-0.99-0.63c-0.22-0.11-0.32-0.24-0.35-0.5c0.15-0.04,0.37-0.06,0.56-0.02c0.3,0.08,0.47,0.17,0.78,0.22
c0.09,0.02,0.26-0.02,0.35-0.04c0-0.09-0.02-0.19-0.09-0.26c-0.11-0.11-0.28-0.19-0.43-0.3c-0.22-0.15-0.61-0.52-0.84-0.71
c-0.08-0.06-0.04-0.24-0.06-0.32c0.09,0,0.17,0,0.26,0.02c0.3,0.06,0.75,0.19,0.99,0.22c0.09,0.02,0.22,0.04,0.32,0.02
c-0.02-0.11-0.04-0.24-0.11-0.32c-0.28-0.26-0.56-0.41-0.82-0.71c-0.08-0.09-0.06-0.26-0.04-0.39l0.39,0.08l0.49,0.11
c0.15,0.04,0.26,0.04,0.37,0.04c0.04-0.08,0.06-0.13,0.06-0.22c-0.09-0.26-0.19-0.5-0.32-0.76c0-0.09-0.04-0.21,0-0.28
c0.08-0.02,0.19-0.02,0.26-0.02c0.3,0.11,0.76,0.37,1.1,0.45c0.13,0.04,0.28,0,0.45-0.06c-0.06-0.17-0.17-0.28-0.24-0.41l-0.28-0.43
c-0.04-0.08,0-0.19,0.06-0.28c0.09,0.02,0.18,0.04,0.32,0.09c0.32,0.19,0.75,0.34,1.19,0.52c0.21,0.09,0.34,0,0.39-0.09
c0.04-0.11-0.34-0.48-0.32-0.65c0.02-0.09,0.04-0.11,0.09-0.19c0.2,0.06,0.6,0.2,0.88,0.28l0.9,0.15c0.09-0.02,0.13-0.04,0.2-0.08
c0.11-0.04-0.02-0.34-0.2-0.69c0.11-0.04,0.28-0.04,0.37,0c0.32,0.13,0.65,0.34,1.08,0.37c0.54,0.06,1.1-0.07,1.55-0.15
c1.94-0.34,3.51-0.41,5.37-1.01c0.75-0.24,1.64-0.61,2.33-0.95l0.22,0.06c0.54,1.38,1.68,1.79,2.83,1.92
c0.34,0.04,0.71,0.06,1.06,0.08c0.34,0,0.41-0.09,0.32-0.43c-0.28-1.14-0.88-2.12-1.73-2.95l-0.75-0.47
c-0.34-0.34-0.3-0.73,0.06-0.99c0.6-0.41,1.4-0.8,2-1.17c0.88-0.56,1.17-1.42,1.12-2.33c-0.02-0.26-0.08-0.43-0.32-0.62
c-0.17,0.06-0.35,0.19-0.45,0.32c-0.21,0.34-0.35,0.71-0.52,1.06c-0.06,0.09-0.09,0.22-0.17,0.28c-0.17,0.09-0.34,0.13-0.49,0.19
c-0.04-0.15-0.13-0.3-0.09-0.45c0.06-0.22,0.17-0.43,0.3-0.61c0.28-0.39,0.63-0.78,1.1-1.29c0.06-0.08,0.08-0.21,0.11-0.3
c-0.11-0.04-0.22-0.13-0.34-0.11c-0.5,0.11-1.04,0.3-1.42,0.73c-0.43,0.52-0.49,0.67-0.84,1.25c-0.5,0.8-0.91,1.9-1.14,2.83
c-0.09,0.39-0.24,0.52-0.37,0.9c-0.17,0.54-0.15,0.67,0.32,1.01c0.69,0.45,1.58,0.86,2.24,1.33c0.08,0.08,0.11,0.21,0.17,0.3
c-0.09,0.02-0.21,0.09-0.32,0.09c-0.73-0.02-1.34-0.3-1.86-0.84c-0.26-0.28-0.47-0.45-0.76-0.49c-0.67,0.17-1.6,0.45-2.31,0.54
c-0.39,0.07-0.71,0.24-0.91,0.61c-0.15,0.32-0.43,0.37-0.76,0.26c-0.49-0.15-0.99-0.32-1.49-0.43c-0.69-0.18-1.42-0.06-2.11,0.09
c-0.11,0.04-0.24,0.08-0.39,0.08c-0.34,0.06-0.41-0.02-0.32-0.35c0.09-0.41,0.23-0.8,0.3-1.21c0.02-0.17,0.04-0.43-0.11-0.52
c-0.17,0.07-0.41,0.11-0.49,0.22c-0.26,0.39-0.47,0.8-0.71,1.23c-0.17,0.34-0.22,0.34-0.58,0.19c-0.39-0.17-0.93-0.47-1.42-0.86
c-0.34-0.54-0.69-0.99-0.88-1.45c-0.06-0.13,0.13-0.22,0.3-0.22c0.37,0.3,0.82,0.67,1.16,1.01c0.22,0.24,0.3,0.49,0.45,0.82
c0.04,0.08,0.41,0.06,0.47-0.08c0.06-0.13,0.11-0.32,0.17-0.58c0.11-0.5,0.04-1.19-0.41-1.64c-0.56-0.56-0.93-0.67-1.7-1.19
c-0.95-0.65-1.08-0.62-1.43,0.02c-0.28,0.52-0.47,1.1-0.47,1.75c0.26,1.53,0.62,2.14,2.46,3.1c-0.02,0.08-0.06,0.15-0.15,0.24
c-0.11,0.11-0.18,0.17-0.39,0.17c-0.65-0.02-1.57-0.04-2.28-0.09c-0.2-0.02-0.34-0.08-0.37-0.19c-0.6-2.27-0.28-4.64,0.82-6.75
c0.11-0.21,0.26-0.39,0.45-0.49c0.39-0.21,0.99-0.47,1.38-0.63c0.22-0.09,0.34-0.02,0.43,0.21c0.17,0.6,0.22,1.02,0.28,1.53
c0.02,0.32,0.04,0.63,0.17,0.69c0.3,0.13,0.56-0.11,0.71-0.37c0.56-0.91,0.71-1.94,0.3-3.04c-0.04-0.09,0.06-0.3,0.17-0.35
c1.27-0.52,2.46-1.04,3.75-1.55c0.73-0.04,1.64,0.04,2.93,0.24c0.22,0.04,0.67,0.41,1.14,0.67c-0.6,0.3-1.45,0.93-2.05,1.51
c-0.17,0.17-0.37,0.39-0.22,0.88c0.48-0.04,0.75-0.17,1.12-0.28c0.58-0.17,0.93-0.24,1.4-0.24c0.11,0,0.26,0.02,0.37,0.04
c-0.02,0.15-0.08,0.3-0.17,0.39c-0.17,0.15-0.43,0.11-0.62,0.22s-0.37,0.32-0.26,0.54c0.09,0.15,0.35,0.32,0.52,0.3
c0.6-0.04,1.16-0.11,1.77-0.3c0.28-0.22,1.33-1.6,0.73-1.73c-0.34-0.08-1.06-0.13-1.38-0.28c0.06-0.21,0.2-0.37,0.37-0.43
c0.34,0.06,0.71,0.15,1.21,0.21c0.49,0.06,1.9,0.11,2.46-0.11c0.34-0.13,0.45-0.26,0.34-0.47c-0.52-0.95-1.25-1.7-2.29-2
c-0.45-0.13-0.99-0.04-1.45-0.04l-4.03-0.04c-0.09,0-0.19-0.07-0.28-0.13c0.08-0.06,0.15-0.13,0.22-0.17
c0.39-0.22,0.82-0.41,1.19-0.67c0.58-0.39,0.93-0.95,1.1-1.66c0.04-0.11,0.04-0.26,0-0.39c-0.37-1.38-1.14-2.37-2.68-2.56L47.86,5.3
c-0.28-0.02-0.39,0.11-0.39,0.37c0,0.49,0.02,0.75,0,1.25c0,0.26,0.13,0.34,0.41,0.37c0.71,0.11,1.46,0.34,2.13,0.61
c0.41,0.17,0.49,0.41,0,0.84c-0.24,0.19-0.69,0.49-1.14,0.8c-0.19,0.11-0.28,0.02-0.3-0.17c-0.04-0.3-0.04-0.62-0.08-0.91
c-0.02-0.09-0.09-0.21-0.17-0.28c-0.3,0.06-0.5,0.26-0.6,0.5c-0.15,0.39-0.24,0.76-0.32,1.16c-0.09,0.5-0.39,0.82-0.86,0.99
c-0.23,0.08-0.43-0.02-0.39-0.22c0.04-0.26,0.09-0.5,0.17-0.75c0.35-0.88,0.54-1.62,0.47-2.46c-0.07-0.58-0.11-1.14-0.13-1.72
c-0.02-0.26,0.13-0.49,0.39-0.56c0.67-0.26,1.31-0.52,2.01-0.75c0.24-0.09,0.45,0.02,0.63,0.24c0.47,0.56,0.93,1.12,1.42,1.68
c0.37,0.41,0.49,0.39,0.8-0.06c0.3-0.43,0.61-0.82,1.1-1.08c0.24-0.13,0.24-0.35-0.04-0.47c-0.54-0.21-1.08-0.32-1.64-0.5
c-0.13-0.04-0.26-0.04-0.39-0.09c-0.09-0.04-0.2-0.15-0.2-0.22c0-0.08,0.11-0.19,0.2-0.22c0.78-0.28,1.55-0.58,2.31-0.86
c0.15-0.04,0.32-0.11,0.47-0.19c0.24-0.11,0.37-0.32,0.34-0.58C54.05,1.7,53.96,1.4,53.9,1.09c-0.06-0.3-0.24-0.52-0.56-0.56
c-0.58-0.08-1.19-0.04-1.74,0.26c-0.41,0.22-0.76,0.49-1.12,0.84c-0.19,0.19-0.26,0.49-0.21,0.69c0.15,0.02,0.28,0.02,0.39-0.02
c0.6-0.17,0.99-0.35,1.34-0.56c0.22-0.24,0.39-0.5,0.52-0.5c0.08,0,0.2,0.32,0.24,0.43c-0.11,0.15-0.24,0.3-1.23,0.73
c-0.6,0.28-1.9,0.8-2.87,1.16c-1.32,0.49-1.96,0.58-2.61,0.73c-0.07,0-0.15,0-0.18-0.06c-0.04-0.02-0.02-0.11,0.02-0.19
c0.35-0.61,0.75-1.27,1.14-1.9C47.1,2.04,47.23,2,47.39,2.02c0,0.11,0.02,0.24-0.02,0.34c-0.11,0.26-0.26,0.5-0.41,0.76
c-0.02,0.07-0.04,0.2-0.02,0.22C47,3.4,47.11,3.44,47.19,3.42c0.82-0.19,1.53-1.04,1.55-1.86c0-0.32-0.15-0.43-0.47-0.41
c-0.49,0.04-1.01,0.07-1.47,0.2c-0.88,0.22-1.4,0.84-1.68,1.64c-0.13,0.37-0.2,0.75-0.28,1.14c-0.08,0.41-0.43,0.56-0.78,0.76
c-0.61,0.37-0.93,0.3-1.45,0.39c-0.43,0.07-0.71,0.15-0.97,0.22c-0.11,0.04-0.22,0.06-0.34,0.07c0-0.15-0.04-0.28,0-0.37
c0.3-0.47,0.56-0.93,0.88-1.36c0.43-0.65,0.32-1.01-0.39-1.27c-1.1-0.36-2.33,0.06-2.98,1.06c-0.37,0.6-0.65,1.31-0.91,1.96
c-0.17,0.39,0,0.63,0.41,0.71c0.64,0.11,1.4-0.11,1.98-0.28c-0.04,0.19-0.06,0.91-0.11,1.06c-0.11,0.26-0.24,0.52-0.39,0.8
c-0.22,0.41-0.49,0.54-0.93,0.34c-0.67-0.32-1.32-0.67-1.96-1.06c-0.75-0.45-1.47-0.75-2.31-0.75c-0.09,0-0.19-0.02-0.26-0.04
c-0.26-0.06-0.28-0.15-0.11-0.32c0.21-0.22,0.22-0.43,0.09-0.69l-0.86-1.6c-0.19-0.34-0.39-0.78-0.41-0.93
C33.22,2.8,34,3.07,34.02,3.21c0.07,0.49,0.11,0.73,0.26,1.21c0.09,0.32,0.32,0.6,0.52,0.84c0.09,0.11,0.32,0.22,0.43,0.17
c0.13-0.04,0.26-0.24,0.28-0.39c0.06-0.47-0.56-1.21,0.24-2.95C36.11,1.32,37.19,0,37.9,0c0.37,0,0.67,0.17,0.9,0.71
c0.13,0.26,0.22,0.86,0.34,1.1c0.09,0.26,0.22,0.37,0.49,0.36c0.69-0.09,1.62-0.5,2.39-0.6c0.49-0.08,0.86,1.14,1.1,1.57
c0.37,0.65,0.54,1.21,0.97,0.52c0.37-0.63,0.76-1.27,1.16-1.88c0.17-0.24,0.43-0.45,0.69-0.6c0.97-0.54,2.18-0.65,3.15-0.54
c0.34,0.04,0.43,0.17,0.35,0.5c-0.06,0.2-0.08,0.41-0.13,0.61c-0.04,0.13,0.02,0.21,0.08,0.22c0.08,0.02,0.2,0,0.34-0.09
c0.15-0.09,0.39-0.3,0.52-0.43l0.35-0.39C51.23,0.35,51.87,0,53.15,0c0.6,0,1.06,0.13,1.6,0.32c0.41,0.15,0.47,0.2,0.35,0.61
c-0.13,0.41-0.24,0.8-0.35,1.21c-0.13,0.54-0.04,0.61,0.45,0.89c0.43,0.24,0.76,0.43,1.03,0.75c0.2,0,0.45-0.09,0.54-0.19
c0.52-1.06,1.44-2.11,2.31-2.61c0.39-0.22,0.5-0.2,0.65,0.19c0.22,0.58,0.39,1.12,0.5,1.74c0.04,0.17,0.06,0.45,0.09,0.65
c0.11-0.09,0.34-0.39,0.45-0.52c0.26-0.28,0.49-0.6,0.9-0.97c0.62-0.56,1.16-0.93,2.09-1.08c0.73-0.11,1.75,0.04,2.42,0.24
c0.45,0.13,0.09,0.58-0.17,0.93c-0.11,0.19-0.22,0.33-0.36,0.52c-0.11,0.19-0.2,0.21-0.35,0.04C65.08,2.46,64.86,2,64.64,1.77
C64.23,1.36,63.5,1.61,63,1.9c-1.03,0.6-1.85,1.47-2.42,2.48c-0.35,0.58-1.57,2.13-2.12,2.52c-0.08,0.04-0.19,0.02-0.28,0.04
l0.04-0.26c0.52-0.82,1.38-2.31,1.47-4.64c-0.24-0.06-0.54-0.02-0.86,0.19c-0.3,0.19-0.63,0.52-0.86,0.89
c-0.86,1.4-1.08,2.82-1.19,3.95c-0.04,0.35-0.04,0.63-0.35,0.8c-0.52,0.3-0.73,0.43-1.25,0.67c-0.13,0.02-0.2,0-0.32-0.02
c0.26-1.1,0.08-1.86-0.56-2.91c-0.11-0.2-0.26-0.3-0.48-0.22c-0.13,0.07-0.26,0.17-0.54,0.39c-0.95,0.86-1.47,2.11-1.47,3.62
c0,0.26,0.26,0.26,0.43,0.13c0.22-0.19,0.34-0.34,0.47-0.58c0.32-0.52,0.58-1.08,0.88-1.6c0.06-0.11,0.2-0.21,0.32-0.24
c0.06,0.11,0.06,0.26,0.04,0.37l-0.22,1.01c-0.09,0.41-0.6,1.04-1.01,1.36c-0.08,0.13-0.15,0.35,0.11,0.37
c1.06,0.06,1.7-0.07,2.63-0.56c0.97-0.5,1.6-0.91,2.03-0.86c0.3,0.04,1.75,0.47,1.88,0.56c-0.08,0.15-0.19,0.21-0.28,0.3
c-0.15,0.13-0.86,0.52-1.18,0.78c-0.5,0.41-0.67,0.6-0.58,1.44c0.06,0.37,0.11,0.73,0.21,1.08c0.04,0.11,0.13,0.28,0.2,0.3
c0.11,0,0.24-0.09,0.32-0.19c0.41-0.5,0.8-1.04,1.21-1.55c0.06-0.06,0.17-0.11,0.24-0.15c0.02,0.09,0.04,0.19,0.02,0.26
c-0.09,0.6-0.41,1.06-0.78,1.51l-0.26,0.32c-0.32,0.47-0.34,0.54-0.02,0.99c0.39,0.56,0.45,1.18,0.32,1.77
c-0.09,0.43-0.22,1.08-0.32,1.72l-1.1,0.58c-0.6,0.35-0.88,0.52-1.14,0.75c-0.43,0.37-0.5,0.67-0.5,0.77s0.09,0.15,0.28,0.24
c0.17,0.09,0.32,0.15,0.49,0.2c0.56,0.17,1.59-0.04,1.77-0.63c0.06-0.13,0.13-0.39,0.13-0.63c0.19,0.04,0.35,0.04,0.41,0.2
c0.21,0.62,0.39,1.04,0.78,1.46c-0.06,0.17-0.13,0.3-0.3,0.56c-0.24,0.39-0.45,0.73-0.78,0.65c-0.11-0.02-0.26-0.06-0.41-0.06
c-0.24,0-0.5,0-0.47,0.45c0.06,0.58,0.13,0.84,0,1.44c-0.07,0.32-0.17,0.67-0.48,0.65c-0.8-0.06-1.31-0.63-2.07-0.62
c-0.65,0.02-1.1-0.09-1.44-0.26c-0.41-0.2-0.69-0.43-0.88-0.54c-0.84,0.13-2.29,0.39-3.24,0.56c-1.21,0.2-2.03,0.34-3.51,0.63
c-0.84,0.17-1.77,0.35-2.61,0.54c-0.3,0.07-0.28,0.26-0.34,0.56c-0.15,0.69-0.41,1.36-0.52,2.05c-0.02,0.11,0.13,0.24,0.2,0.35
c0.08-0.08,0.19-0.13,0.26-0.22c0.17-0.24,0.28-0.52,0.47-0.75c0.32-0.35,1.17,0.02,1.32,0.49c0.11,0.3-0.28,0.43-0.24,0.75
c0.02,0.28,0.41,0.54,0.41,0.9c0,0.3-0.11,0.5-0.17,0.67c1.17,0.75,1.45,1.38,1.49,2.35c0.04,0.3,0.04,0.45,0.21,0.61
c0.17,0.17,0.43,0.41,0.54,0.56c0.54,0.63,1.04,1.64,1.42,1.75C48.62,35,49.1,35.04,49.46,35l0.08,0.21
c-0.11,0.28-0.45,0.63-0.75,0.73c-0.86,0.28-1.29-1.01-1.75-1.74c-0.24-0.37-0.49-0.73-0.73-0.97c-0.37,0.41-0.99,2.07-0.95,2.85
c0.02,0.32,0.28,0.84,0.34,1.01c0.19,0.47,0.47,1.06,0.95,1.87c0.3,0.49,0.86,0.65,1.4,0.86c0.47,0.17,0.8,0.24,1.29,0.11
c0.24-0.06,0.34-0.08,0.45-0.17l-0.02-0.95c0.04-1.08,0.21-2.03,0.34-3.1c0.11-0.8,0.13-1.14,0.19-1.9c0-0.41,0.3-1.08,0.8-1.44
c0.54-0.37,0.76-0.88,0.73-1.51c-0.02-0.21,0.04-0.43,0.13-0.62c0.17-0.35-0.17-0.35-0.5-0.41c-0.37-0.06-0.47-0.21-0.28-0.54
c0.35-0.58,0.86-1.08,1.25-1.64c0.26-0.41,0.37-0.69,0.47-0.93c-0.09-0.49-0.06-1.21,0.43-1.23c0.54-0.06,1.23-0.08,1.72,0
c0.52,0.11,1.36,0.5,1.55,0.71c0.06,0.09,0.07,0.26,0.07,0.37c0,0.13,0.28,0.22,0.82,0.76c0.41,0.39,0.82,1.47,0.11,3.15
c0.35,0.2,0.34,0.54,0.3,0.91c-0.02,0.32,0.07,0.37,0.37,0.49c0.37,0.13,0.58,0.35,0.9,1.14c0.28,0.73,1.08,2.7,1.57,7.51
c-0.09,1.51-0.35,2.63-0.65,3.86c0.32,2.31,0.69,5.15,0.97,9.04c0.24,3.67,0.3,5.56,0.37,7.07c0.65,0.06,0.86,0.18,0.99-0.36
c0.04-0.17,0.08-0.35,0.13-0.52c0.06-0.11,0.13-0.19,0.22-0.26c0.13,0.06,0.2,0.13,0.28,0.22l0.39,1.17
c0.09,0.34,0.19,0.56,0.32,0.88c0.06,0.09,0.19,0.23,0.26,0.26c0.11-0.02,0.19-0.04,0.26-0.11c0.06-0.15,0.09-0.35,0.11-0.5
c0.04-0.39,0.04-0.69,0.04-1.02c0-0.17,0.09-0.28,0.17-0.37c0.13,0.04,0.24,0.11,0.3,0.2c0.21,0.45,0.39,0.93,0.58,1.36
c0.07,0.18,0.17,0.34,0.28,0.47c0.11,0,0.22-0.04,0.24-0.15c0.07-0.39,0.09-1.08,0.07-1.62c-0.09-0.32-0.22-0.65-0.28-0.93
c-0.02-0.09,0.06-0.24,0.13-0.32c0.08,0.02,0.17,0.08,0.24,0.13c0.65,0.73,1.25,1.53,1.85,2.42c0.08,0.08,0.13,0.21,0.21,0.24
c0.13,0.06,0.26,0.06,0.37,0.06c0.08-0.09,0.13-0.26,0.11-0.37c-0.02-0.15-0.21-0.34-0.21-0.64c0-0.04,0.04-0.15,0.13-0.32
c0.21,0.04,0.39,0.11,0.47,0.22c0.26,0.28,0.43,0.5,0.58,0.75c0.17,0.28,0.22,0.41,0.35,0.65c0.11,0.09,0.23,0.15,0.37,0.19
c0.09-0.13,0.13-0.32,0.11-0.45c-0.02-0.15-0.2-0.5-0.24-0.65l0.11-0.11c0.19,0.04,0.39,0.15,0.52,0.3c0.11,0.11,0.24,0.34,0.41,0.6
c0.22,0.35,0.6,0.65,1.42,0.77c0.02,0.08,0.06,0.17,0.06,0.24c-0.11,0.08-0.3,0.17-0.8,0.26c-0.86,0.17-1.94,0.19-3.13,0.06
c-0.78-0.09-1.57,0.07-2.29,0.5c-0.49,0.28-1.01,0.24-1.59,0.22c-1.12-0.06-2.26-0.06-3.39-0.08c-1.99-0.04-2.78,0.22-4.77,0.43
c-0.76,0.07-1.01,0.11-1.49,0.11c-0.88,0-2.69-0.45-2.69-1.01c0-0.39,0.22-0.71,0.22-0.91c0-0.24-0.06-0.32-0.28-0.37
c-0.21-0.04-0.41-0.08-0.62-0.09c-1.08-0.06-2.15-0.02-3.17,0.19c-0.58,0.11-1.17,0.24-1.75,0.34c-1.47,0.22-2.26-0.02-3.02-0.63
c-0.52-0.41-0.73-0.6-1.08-1.14c-0.63-0.93-1.81-1.9-2.98-2.84c-1.25-1.01-2.83-2.82-3.82-4.06c-0.22-0.26-0.62-1.53-0.75-1.9
c-0.09-0.26-0.3-1.03-0.19-1.64c0.15-0.13,0.34-0.28,0.49-0.3c0.35-0.06,0.9-0.09,1.42-0.3c0.17-0.07,0.39-0.22,0.48-0.37
c0.04-0.07,0.04-0.13,0.04-0.21c-0.08-0.06-0.17-0.11-0.24-0.09c-0.45,0.08-1.04,0.08-1.47,0c-0.26-0.04-0.56-0.15-0.67-0.28
c0.15-0.19,0.26-0.32,0.41-0.41c0.84-0.17,1.49-0.35,1.96-0.75c0-0.09-0.02-0.19-0.06-0.24c-0.54-0.04-0.97-0.04-1.59-0.19
c-0.18-0.04-0.45-0.21-0.6-0.35c0.17-0.2,0.24-0.28,0.45-0.37c0.37-0.13,0.58-0.22,0.97-0.47c0.34-0.2,0.63-0.37,0.73-0.54
c0-0.08,0-0.15-0.02-0.26c-0.56-0.02-1.25-0.06-1.9-0.21c-0.09-0.06-0.19-0.13-0.22-0.17c0.08-0.17,0.11-0.22,0.24-0.35
c0.45-0.11,1.27-0.19,1.72-0.34c0.13-0.09,0.19-0.19,0.24-0.32c-0.08-0.09-0.15-0.17-0.3-0.24c-0.5-0.02-1.12-0.08-1.62-0.19
c-0.11-0.04-0.21-0.17-0.28-0.32c0.11-0.09,0.22-0.19,0.34-0.21l1.44-0.3c0.13-0.06,0.32-0.21,0.39-0.34
c-0.08-0.15-0.24-0.32-0.39-0.34c-0.43-0.06-0.73-0.15-1.17-0.22c-0.09-0.02-0.26-0.09-0.37-0.15l-0.09-0.15
c0.13-0.09,0.28-0.19,0.37-0.2c0.26-0.06,0.63-0.17,0.91-0.24c0.24-0.08,0.5-0.17,0.54-0.35c0.02-0.08,0-0.15-0.02-0.19
c-0.39-0.11-1.17-0.04-1.53-0.15c-0.13-0.04-0.24-0.17-0.32-0.34l0.34-0.18c0.43-0.09,0.9-0.28,1.23-0.47
c0.08-0.11,0.11-0.22,0.15-0.32c-0.08-0.06-0.19-0.11-0.26-0.13c-0.45-0.13-0.71-0.22-1.16-0.39c-0.09-0.09-0.15-0.22-0.19-0.32
c0.06-0.08,0.19-0.19,0.28-0.21l0.65-0.17c-0.09-0.22-0.21-0.48-0.32-0.65c-0.08-0.11-0.09-0.13-0.23-0.22
c-0.39-0.22-0.91-0.45-1.32-0.71c-0.75-0.47-1.53-0.91-2.13-1.51c-0.71-0.71-1.4-1.53-1.57-2.57c-0.11-0.62-0.13-1.29-0.02-1.9
c0.08-0.47,0.34-0.97,0.6-1.42c0.09-0.17,0.17-0.32,0.08-0.45c-0.37-0.49-0.69-0.82-1.17-1.25c-0.2-0.19-0.49-0.32-0.73-0.39
c-0.76-0.21-1.45-0.24-1.9-0.34c-0.54-0.13-0.91-0.17-1.18-0.13c-0.2,0.19-0.43,0.49-0.58,0.86c0.13,0.5,0.37,1.29,0.39,1.92
c0.54,0.06,1.19,0.24,1.86,0.63c0.54,0.34,0.67,0.52,0.88,1.19c0.47,1.49,0.6,3.41,0.91,5.46c0.3,1.94-0.73,3.56-2.7,3.64
c-0.45,0.02-0.88,0.02-1.36-0.13c-0.41-0.13-0.75-0.35-0.88-0.76c-0.19-0.56-0.39-1.14-0.56-1.7c-0.13-0.45-0.28-0.97-0.39-1.21
c-1.4,0.35-2.87,0.82-4.38,1.55c-1.31,0.63-2.39,1.23-3.77,1.79c-2.65,1.08-5.56,1.75-8.17,1.75c-1.38,0-2.91-0.28-3.97-0.71
c-0.95-0.37-1.29-0.76-1.51-1.96c-0.13-0.62-0.17-1.85-0.04-3.08c0.11-1.01,0.28-1.7,0.97-3.58c0.3-0.82,0.69-1.21,1.32-1.53
c0.47-0.23,1.12-0.43,1.62-0.54c0.67-0.15,1.14-0.19,1.83-0.15c0.41,0.02,0.95,0.09,1.32,0.24c0.75,0.28,0.86,0.9,0.89,1.64
c0,0.43,0.02,0.88-0.02,1.31c-0.04,0.35-0.02,0.49-0.02,0.63c0.95,0.13,2.93,0.08,3.86-0.13c0.78-0.17,1.1-0.3,2.52-0.95
C17.59,31.98,18.92,30.99,20.44,30.19z"/>
</svg>