<svg xmlns="http://www.w3.org/2000/svg" width="180" height="29" viewBox="0 0 180 29">
<path fill="#0b0c0c" d="M6.36,6.53c0.38-1.06,1.68-1.59,2.76-1.14c1.07,0.38,1.52,1.68,1.14,2.73C9.87,9.19,8.58,9.71,7.51,9.26
C6.51,8.81,5.97,7.6,6.36,6.53z M4.05,16.24c0.47-1.06-0.07-2.35-1.14-2.73c-1.08-0.45-2.38,0.08-2.76,1.14
c-0.46,1.07,0.16,2.28,1.15,2.73C2.37,17.83,3.67,17.31,4.05,16.24z M2.76,12.07c1.07,0.45,2.38-0.07,2.76-1.14
C5.97,9.87,5.43,8.58,4.37,8.2C3.3,7.74,1.99,8.28,1.61,9.33C1.22,10.4,1.68,11.62,2.76,12.07z M12.95,10.93
c1.07,0.46,2.38-0.07,2.76-1.13c0.37-1.07-0.08-2.35-1.15-2.73c-1.08-0.45-2.38,0.07-2.76,1.14C11.34,9.26,11.87,10.48,12.95,10.93z
M32.55,9.26c1-0.45,1.52-1.66,1.15-2.73c-0.38-1.06-1.69-1.59-2.76-1.14c-1.08,0.38-1.54,1.68-1.15,2.73
C30.18,9.19,31.47,9.71,32.55,9.26z M19.07,5.77l-1.52,4.64c-0.08,0.23-0.16,0.48-0.16,0.71c0,1.21,0.92,2.45,2.15,2.45h0.07h0.31
h0.3h0.08c1.22,0,2.14-1.17,2.14-2.45c0-0.31-0.07-0.51-0.16-0.74l-1.52-4.63c0.23-0.07,0.09-0.14,0.18-0.29l2.47,1.37V2.89
l-2.47,0.83c-0.08-0.07-0.05-0.23-0.21-0.3L21.91,0h-1.99H18l1.07,3.42c-0.07,0.07-0.17,0.14-0.24,0.3L16.2,2.89v3.95l2.63-1.37
C18.9,5.54,18.92,5.7,19.07,5.77z M37.38,12.07c1-0.45,1.54-1.66,1.15-2.73c-0.38-1.06-1.69-1.51-2.76-1.13
c-1.07,0.38-1.54,1.67-1.15,2.72C35,12,36.31,12.52,37.38,12.07z M27.12,10.93c1.07-0.45,1.61-1.66,1.14-2.72
c-0.38-1.07-1.68-1.52-2.75-1.14c-1.08,0.38-1.54,1.66-1.15,2.73C24.74,10.86,26.04,11.39,27.12,10.93z M35.54,20.95
c-0.54-0.45-0.92-1.3-1.31-2.58L32.85,23c0.85-0.61,1.54-0.9,2.3-0.9c-1.31,2.81-2.99,3.57-4.14,3.41c-1.3-0.23-1.91-1.37-1.76-2.43
c0.31-1.37,1.76-1.75,2.46-0.15c1.3-2.58-0.85-3.41-2.38-2.65c2.22-2.21,2.45-4.1,0.68-6.39c-2.45,1.9-2.52,3.72-1.38,6.23
c-1.45-1.59-3.67-0.76-2.83,1.89c1-1.59,2.45-0.61,2.22,0.92c-0.16,1.28-1.91,2.43-4.13,2.2c-3.14-0.3-3.3-2.43-3.37-4.1
c0.77-0.14,2.14,0.61,3.29,2.2l0.46-4.92c-1.22,1.28-2.45,1.54-3.74,1.54c0.46-1.3,2.45-3.55,2.45-3.55h-2.83h-3.3
c0,0,1.99,2.26,2.46,3.55c-1.31-0.08-2.46-0.28-3.76-1.56l0.46,4.94c1.15-1.66,2.53-2.34,3.3-2.19c-0.08,1.75-0.31,3.95-3.37,4.11
c-2.22,0.23-3.91-0.83-4.14-2.2c-0.23-1.52,1.15-2.51,2.22-0.91c0.84-2.58-1.38-3.48-2.83-1.89c1.07-2.58,1.07-4.4-1.38-6.23
c-1.76,2.35-1.54,4.17,0.7,6.39c-1.38-0.84-3.6,0.07-2.38,2.65c0.68-1.66,2.14-1.21,2.45,0.15c0.23,0.99-0.46,2.2-1.76,2.43
c-1.07,0.23-2.76-0.53-4.14-3.41c0.77,0,1.38,0.38,2.3,0.9l-1.38-4.63c-0.38,1.28-0.84,2.2-1.31,2.58c-0.3-0.92-0.3-1.59,0-3.03
l-2.9,0.99c1.54,2.12,2.99,5.01,4.21,10.1c4.52-0.54,9.35-0.92,14.4-0.92c5.14,0,9.96,0.38,14.24,0.92
c1.22-5.09,2.69-8.05,4.21-10.1l-2.9-0.99C35.84,19.36,35.93,20.03,35.54,20.95z M150.3,19.29c0,0.83-0.09,1.59-0.32,2.27
c-0.3,0.69-0.58,1.14-0.96,1.59c-0.46,0.45-0.9,0.76-1.59,0.92c-0.61,0.23-1.22,0.3-1.98,0.3c-0.77,0-1.68-0.07-2.29-0.3
s-1.15-0.54-1.61-0.92c-0.47-0.45-0.72-0.9-0.88-1.59c-0.31-0.68-0.27-1.37-0.27-2.27V4.52H135v15.51c0,1.3,0.4,2.51,0.94,3.65
c0.53,1.06,1.23,2.05,2.15,2.73c0.84,0.75,1.96,1.36,3.19,1.74c1.14,0.46,2.54,0.69,4.01,0.69c1.45,0,2.76-0.23,3.98-0.69
c1.15-0.45,2.31-0.99,3.15-1.74c0.84-0.76,1.76-1.68,2.3-2.73c0.53-1.07,0.98-2.35,0.98-3.65V4.52h-5.4V19.29z M170.96,13.81
l8.42-9.29h-6.05l-8.64,10.21V4.52h-4.5v23.52h4.5v-7.02l3.13-3.62l6.42,10.64H180L170.96,13.81z M37.15,13.51
c-1.08,0.38-1.54,1.68-1.15,2.73c0.38,1.07,1.68,1.59,2.76,1.14c1.07-0.45,1.61-1.66,1.15-2.73C39.53,13.59,38.22,13.14,37.15,13.51
z M130.28,23.68c-0.3-0.31-0.61-0.53-0.91-0.69c-0.38-0.14-0.77-0.23-1.15-0.23c-0.38,0-0.84,0.08-1.15,0.23
c-0.38,0.15-0.76,0.38-1,0.69c-0.23,0.3-0.53,0.61-0.68,0.9c-0.16,0.38-0.23,0.76-0.23,1.14c0,0.38,0.07,0.76,0.23,1.14
s0.38,0.76,0.68,0.9c0.31,0.31,0.61,0.53,1,0.69c0.38,0.15,0.85,0.23,1.15,0.23c0.46,0,0.84-0.07,1.15-0.23
c0.3-0.15,0.77-0.38,0.91-0.69c0.16-0.3,0.54-0.61,0.7-0.9c0.16-0.38,0.23-0.83,0.23-1.14c0-0.45-0.07-0.83-0.23-1.14
C130.82,24.21,130.6,23.91,130.28,23.68z M64.8,19h6.3c0,0.53-0.17,1.05-0.4,1.64c-0.16,0.62-0.58,1.14-0.88,1.68
c-0.46,0.53-1.02,0.9-1.79,1.28c-0.77,0.38-1.62,0.54-2.69,0.54c-1.15,0-2.15-0.23-2.92-0.68c-0.84-0.46-1.53-0.99-2.07-1.75
c-0.54-0.76-0.93-1.59-1.15-2.51c-0.23-0.83-0.3-1.82-0.23-2.96c0-0.99,0.16-2.05,0.38-2.96c0.3-0.9,0.68-1.82,1.15-2.5
c0.53-0.76,1.14-1.3,2.06-1.75c0.84-0.45,1.84-0.69,2.9-0.69c0.77,0,1.38,0.08,1.99,0.31c0.62,0.23,1.08,0.45,1.54,0.76
c0.46,0.3,0.84,0.76,1.22,1.14c0.38,0.37,0.7,0.9,0.84,1.44l4.3-2.43c-0.46-0.84-0.92-1.59-1.61-2.35c-0.7-0.69-1.38-1.3-2.3-1.75
c-0.84-0.53-1.84-0.83-2.83-1.06c-1-0.31-2.15-0.38-3.29-0.38c-1.76,0-3.37,0.3-4.82,0.9c-1.46,0.69-2.6,1.52-3.68,2.58
c-1.07,1.07-1.76,2.43-2.38,3.95c-0.53,1.52-0.84,3.12-0.84,4.86c0,1.74,0.23,3.33,0.77,4.85c0.54,1.52,1.15,2.81,2.15,3.95
c0.91,1.06,2.14,2.05,3.52,2.58c1.38,0.69,2.92,0.92,4.75,0.92c0.77,0,1.45-0.08,2.15-0.23c0.68-0.15,1.3-0.38,1.84-0.69
c0.61-0.3,0.93-0.61,1.39-0.99c0.46-0.38,0.92-0.83,0.92-1.28v2.61h4.5V15.38H64.8V19z M114.51,22.61h-0.16l-4.68-18.09h-5.51
l6.89,23.52h6.52l6.89-23.52h-5.35L114.51,22.61z M101.41,11.46c0.54,1.52,0.84,3.12,0.84,4.86c0,1.74-0.3,3.33-0.84,4.85
c-0.54,1.52-1.22,2.89-2.29,3.95c-1.08,1.06-2.22,1.9-3.68,2.58c-1.38,0.61-2.99,0.92-4.82,0.92c-1.76,0-3.37-0.23-4.82-0.92
c-1.45-0.53-2.68-1.52-3.67-2.58c-1-1.14-1.76-2.43-2.3-3.95c-0.54-1.52-0.84-3.12-0.84-4.85c0-1.75,0.3-3.34,0.84-4.86
c0.54-1.52,1.22-2.88,2.3-3.95c1.07-1.06,2.22-1.89,3.67-2.58c1.38-0.52,2.99-0.9,4.82-0.9c1.76,0,3.37,0.23,4.82,0.9
c1.46,0.61,2.69,1.52,3.68,2.58C100.11,8.66,100.87,9.94,101.41,11.46z M97.2,16.32c0-1.07-0.23-2.2-0.54-3.12
c-0.31-0.99-0.69-1.75-1.31-2.51c-0.61-0.76-1.31-1.28-2.07-1.66c-0.77-0.38-1.77-0.61-2.77-0.61c-1,0-1.94,0.23-2.78,0.61
c-0.84,0.45-1.65,0.99-2.1,1.66c-0.47,0.69-1,1.59-1.32,2.51c-0.3,0.92-0.62,1.97-0.62,3.12v0.14c0,1.07,0.32,2.21,0.62,3.12
c0.31,0.99,0.86,1.75,1.4,2.51c0.61,0.76,1.23,1.28,2.07,1.66c0.84,0.45,1.77,0.61,2.77,0.61c1,0,1.92-0.23,2.77-0.61
c0.84-0.45,1.47-0.9,2.08-1.66c0.46-0.69,0.95-1.59,1.26-2.51c0.31-0.9,0.53-1.97,0.53-3.12V16.32z"/></svg>