<svg xmlns="http://www.w3.org/2000/svg" width="159" height="74" viewBox="0 0 159 74">
<path fill="#0b0c0c" d="M10.2,36.94h1.97v6.39h7.78v-6.39h1.97V51.8h-1.97v-6.8h-7.78v6.8H10.2V36.94z M24.63,51.8h1.86V39.44h0.04
l4.61,12.36h1.68l4.61-12.36h0.04V51.8h1.86V36.94h-2.69l-4.68,12.48l-4.66-12.48h-2.69V51.8z M60.31,41.42
c-0.46-3.16-3-4.83-6.09-4.83c-4.55,0-6.99,3.51-6.99,7.82c0,4.33,2.23,7.74,6.83,7.74c3.73,0,6.02-2.25,6.39-5.95h-1.97
c-0.19,2.46-1.68,4.29-4.26,4.29c-3.54,0-5.03-2.83-5.03-6.22c0-3.1,1.49-6.01,5.01-6.01c2.05,0,3.73,1.06,4.14,3.16H60.31z
M66.77,40.79c-3.39,0-5.2,2.48-5.2,5.64c0,3.14,1.8,5.62,5.2,5.62c3.39,0,5.19-2.48,5.19-5.62C71.96,43.27,70.16,40.79,66.77,40.79
z M66.77,50.48c-1.84,0-3.33-1.46-3.33-4.06c0-2.62,1.49-4.08,3.33-4.08c1.84,0,3.33,1.46,3.33,4.08
C70.1,49.03,68.61,50.48,66.77,50.48z M82.37,41.04h-1.76v6.07c0,1.93-1.04,3.37-3.17,3.37c-1.34,0-2.17-0.85-2.17-2.16v-7.28h-1.76
v7.07c0,2.31,0.87,3.93,3.68,3.93c1.53,0,2.73-0.62,3.48-1.95h0.04v1.71h1.66V41.04z M84.47,51.8h1.76v-4.78
c0-2.72,1.03-4.35,3.87-4.35v-1.87c-1.9-0.06-3.08,0.79-3.93,2.52h-0.04v-2.27h-1.66V51.8z M94.12,37.82h-1.76v3.22h-1.82v1.56h1.82
v6.84c0,1.98,0.72,2.35,2.55,2.35h1.34v-1.56h-0.81c-1.1,0-1.32-0.14-1.32-0.96V42.6h2.13v-1.56h-2.13V37.82z M97.02,48.4
c0.1,2.66,2.13,3.64,4.53,3.64c2.17,0,4.55-0.83,4.55-3.39c0-2.08-1.74-2.66-3.5-3.06c-1.63-0.4-3.5-0.6-3.5-1.87
c0-1.08,1.22-1.37,2.28-1.37c1.16,0,2.36,0.44,2.48,1.81h1.76c-0.14-2.62-2.03-3.37-4.39-3.37c-1.86,0-4,0.89-4,3.06
c0,2.06,1.76,2.64,3.5,3.04c1.76,0.4,3.5,0.62,3.5,2c0,1.35-1.49,1.6-2.59,1.6c-1.45,0-2.81-0.5-2.88-2.08H97.02z M123.12,51.79h2.3
l-2.88-3.35c0.62-1.31,0.85-1.91,0.99-3.66h-1.68c-0.04,0.79-0.21,1.58-0.47,2.31l-2.67-3.26c1.43-0.81,2.78-2.08,2.78-3.85
c0-2.02-1.74-3.04-3.58-3.04c-2.13,0-3.33,1.44-3.33,3.06c0,1.52,0.81,2.31,1.64,3.5c-1.88,1-3.46,2.16-3.46,4.49
c0,1.21,0.62,4.06,4.61,4.06c1.61,0,3.29-0.71,4.18-2.1L123.12,51.79z M120.57,48.72c-0.72,1.08-1.8,1.77-3.14,1.77
c-1.43,0-2.81-1.02-2.81-2.52c0-1.77,1.18-2.56,2.57-3.35L120.57,48.72z M119.72,40.08c0,1.25-1.12,2.04-1.97,2.58
c-0.64-0.81-1.43-1.68-1.43-2.58c0-1.08,0.87-1.58,1.7-1.58C119.08,38.5,119.72,39.23,119.72,40.08z M13.55,73.65h1.97V60.46h4.93
V58.8H8.63v1.66h4.92V73.65z M19.56,73.65h1.76v-4.78c0-2.73,1.04-4.35,3.87-4.35v-1.87c-1.9-0.06-3.08,0.79-3.93,2.52h-0.04v-2.27
h-1.65V73.65z M26.21,60.96h1.76V58.8h-1.76V60.96z M26.21,73.65h1.76V62.89h-1.76V73.65z M30.15,73.65h1.76v-1.44h0.04
c0.79,1.27,2.36,1.69,3.46,1.69c3.27,0,4.88-2.56,4.88-5.6c0-3.04-1.64-5.66-4.93-5.66c-1.47,0-2.83,0.52-3.41,1.71H31.9v-5.55
h-1.76V73.65z M35.11,64.2c2.28,0,3.31,1.95,3.31,3.97c0,2.1-0.81,4.16-3.21,4.16c-2.42,0-3.37-1.96-3.37-4.08
C31.84,66.24,32.75,64.2,35.11,64.2z M50.72,62.89h-1.76v6.07c0,1.93-1.04,3.37-3.17,3.37c-1.35,0-2.17-0.85-2.17-2.16v-7.28h-1.76
v7.07c0,2.31,0.87,3.93,3.68,3.93c1.53,0,2.73-0.63,3.48-1.96h0.04v1.71h1.65V62.89z M52.86,73.65h1.76v-6.07
c0-1.93,1.04-3.37,3.17-3.37c1.34,0,2.17,0.85,2.17,2.16v7.28h1.76v-7.07c0-2.31-0.87-3.93-3.68-3.93c-1.53,0-2.73,0.62-3.48,1.96
h-0.04v-1.71h-1.66V73.65z M73.32,72.23c-0.23,0.08-0.39,0.1-0.54,0.1c-0.56,0-0.56-0.37-0.56-1.21V65.6c0-2.52-2.09-2.95-4.01-2.95
c-2.38,0-4.43,0.93-4.53,3.6h1.76c0.08-1.58,1.18-2.04,2.67-2.04c1.12,0,2.38,0.25,2.38,1.79c0,1.33-1.66,1.21-3.6,1.58
c-1.82,0.35-3.62,0.87-3.62,3.31c0,2.14,1.59,3.02,3.54,3.02c1.49,0,2.79-0.52,3.77-1.67c0,1.17,0.58,1.67,1.49,1.67
c0.56,0,0.95-0.1,1.26-0.29V72.23z M70.47,69.9c0,0.98-0.95,2.43-3.27,2.43c-1.08,0-2.07-0.42-2.07-1.58c0-1.31,0.99-1.73,2.15-1.94
c1.18-0.21,2.5-0.23,3.19-0.73V69.9z M74.62,73.65h1.76V58.8h-1.76V73.65z M77.92,70.26c0.1,2.66,2.13,3.64,4.53,3.64
c2.17,0,4.55-0.83,4.55-3.39c0-2.08-1.74-2.66-3.5-3.06c-1.63-0.39-3.5-0.6-3.5-1.87c0-1.08,1.22-1.37,2.27-1.37
c1.16,0,2.36,0.44,2.48,1.81h1.76c-0.14-2.62-2.03-3.37-4.39-3.37c-1.86,0-3.99,0.89-3.99,3.06c0,2.06,1.76,2.64,3.5,3.04
c1.76,0.4,3.5,0.62,3.5,2c0,1.35-1.49,1.6-2.59,1.6c-1.45,0-2.81-0.5-2.88-2.08H77.92z M104.99,63.14c-0.12-3.27-2.42-4.7-5.44-4.7
c-2.69,0-5.36,1.33-5.36,4.35c0,2.72,2.38,3.41,4.74,3.93c2.36,0.52,4.72,0.87,4.72,2.91c0,2.14-1.97,2.7-3.75,2.7
c-2.23,0-4.3-1.08-4.3-3.58h-1.86c0,3.62,2.79,5.24,6.11,5.24c2.69,0,5.77-1.27,5.77-4.43c0-2.91-2.36-3.74-4.72-4.29
c-2.38-0.54-4.74-0.81-4.74-2.64c0-1.93,1.65-2.54,3.31-2.54c2.03,0,3.44,0.91,3.66,3.04H104.99z M114.64,70.23
c-0.31,1.4-1.32,2.1-2.77,2.1c-2.34,0-3.39-1.66-3.33-3.54h8.01c0.1-2.6-1.06-6.16-4.84-6.16c-2.92,0-5.03,2.37-5.03,5.59
c0.1,3.29,1.72,5.66,5.13,5.66c2.4,0,4.1-1.29,4.57-3.66H114.64z M108.54,67.24c0.12-1.64,1.22-3.04,3.06-3.04
c1.74,0,3,1.35,3.08,3.04H108.54z M117.97,73.65h1.76v-4.78c0-2.73,1.04-4.35,3.87-4.35v-1.87c-1.9-0.06-3.08,0.79-3.93,2.52h-0.04
v-2.27h-1.66V73.65z M133.85,62.89h-1.84l-2.92,8.96h-0.04l-3-8.96h-1.97l3.97,10.75h1.88L133.85,62.89z M135.01,60.96h1.76V58.8
h-1.76V60.96z M135.01,73.65h1.76V62.89h-1.76V73.65z M148.09,66.35c-0.25-2.56-2.19-3.7-4.62-3.7c-3.39,0-5.05,2.54-5.05,5.76
c0,3.2,1.74,5.49,5.01,5.49c2.69,0,4.33-1.56,4.72-4.18h-1.8c-0.23,1.62-1.24,2.62-2.94,2.62c-2.24,0-3.12-1.96-3.12-3.93
c0-2.18,0.79-4.2,3.33-4.2c1.45,0,2.38,0.79,2.65,2.14H148.09z M157.09,70.23c-0.31,1.4-1.32,2.1-2.77,2.1
c-2.34,0-3.39-1.66-3.33-3.54h8.01c0.1-2.6-1.05-6.16-4.84-6.16c-2.92,0-5.03,2.37-5.03,5.59c0.1,3.29,1.72,5.66,5.13,5.66
c2.4,0,4.1-1.29,4.57-3.66H157.09z M150.99,67.24c0.12-1.64,1.22-3.04,3.06-3.04c1.74,0,3,1.35,3.08,3.04H150.99z M24.03,4.85
c-0.17,0.33-0.31,0.51-0.29,0.77c0.02,0.25,0.28,0.43,0.41,0.68c0.11-0.29,0.3-0.51,0.28-0.74C24.4,5.32,24.08,5.02,24.03,4.85z
M28.36,4.85c-0.06,0.17-0.37,0.47-0.39,0.7c-0.02,0.23,0.17,0.45,0.28,0.74c0.12-0.25,0.39-0.43,0.41-0.68
C28.68,5.37,28.53,5.18,28.36,4.85z M21.53,4.67c0.16,0,0.29-0.13,0.29-0.29c0-0.16-0.13-0.29-0.29-0.29
c-0.16,0-0.29,0.13-0.29,0.29C21.24,4.53,21.37,4.67,21.53,4.67z M21.73,5.09c0-0.16-0.13-0.29-0.29-0.29
c-0.16,0-0.29,0.13-0.29,0.29c0,0.16,0.13,0.29,0.29,0.29C21.6,5.38,21.73,5.25,21.73,5.09z M21.87,5.8c0-0.16-0.13-0.29-0.29-0.29
c-0.16,0-0.29,0.13-0.29,0.29c0,0.16,0.13,0.29,0.29,0.29C21.74,6.09,21.87,5.96,21.87,5.8z M23.15,3.26c0.16,0,0.29-0.13,0.29-0.29
c0-0.16-0.13-0.29-0.29-0.29c-0.16,0-0.29,0.13-0.29,0.29C22.86,3.13,22.99,3.26,23.15,3.26z M22.43,3.49
c0.16,0,0.29-0.13,0.29-0.29c0-0.16-0.13-0.3-0.29-0.3c-0.16,0-0.29,0.13-0.29,0.3C22.13,3.36,22.26,3.49,22.43,3.49z M21.85,3.99
c0.16,0,0.29-0.13,0.29-0.29c0-0.16-0.13-0.29-0.29-0.29c-0.16,0-0.29,0.13-0.29,0.29C21.56,3.86,21.69,3.99,21.85,3.99z
M23.92,3.33c0.16,0,0.29-0.13,0.29-0.29c0-0.16-0.13-0.29-0.29-0.29c-0.16,0-0.29,0.13-0.29,0.29C23.63,3.2,23.76,3.33,23.92,3.33z
M24.65,3.54c0.16,0,0.29-0.13,0.29-0.3c0-0.16-0.13-0.29-0.29-0.29c-0.16,0-0.29,0.13-0.29,0.29C24.35,3.41,24.48,3.54,24.65,3.54z
M25.33,3.87c0.16,0,0.29-0.13,0.29-0.3c0-0.16-0.13-0.29-0.29-0.29c-0.16,0-0.29,0.13-0.29,0.29C25.04,3.73,25.17,3.87,25.33,3.87z
M30.56,4.37c0,0.16,0.13,0.29,0.29,0.29c0.16,0,0.29-0.13,0.29-0.29c0-0.16-0.13-0.3-0.29-0.3C30.69,4.08,30.56,4.21,30.56,4.37z
M30.95,4.79c-0.16,0-0.29,0.13-0.29,0.29c0,0.16,0.13,0.29,0.29,0.29c0.16,0,0.3-0.13,0.3-0.29C31.24,4.92,31.11,4.79,30.95,4.79z
M30.8,5.51c-0.16,0-0.29,0.13-0.29,0.29c0,0.16,0.13,0.29,0.29,0.29c0.16,0,0.3-0.13,0.3-0.29C31.1,5.64,30.96,5.51,30.8,5.51z
M29.23,3.26c0.16,0,0.29-0.13,0.29-0.29c0-0.16-0.13-0.29-0.29-0.29s-0.29,0.13-0.29,0.29C28.93,3.13,29.07,3.26,29.23,3.26z
M29.96,3.49c0.16,0,0.29-0.13,0.29-0.29c0-0.16-0.13-0.3-0.29-0.3c-0.16,0-0.29,0.13-0.29,0.3C29.66,3.36,29.8,3.49,29.96,3.49z
M30.53,3.99c0.16,0,0.29-0.13,0.29-0.29c0-0.16-0.13-0.29-0.29-0.29c-0.16,0-0.29,0.13-0.29,0.29C30.24,3.86,30.37,3.99,30.53,3.99
z M28.46,3.33c0.16,0,0.29-0.13,0.29-0.29c0-0.16-0.13-0.29-0.29-0.29c-0.16,0-0.29,0.13-0.29,0.29C28.17,3.2,28.3,3.33,28.46,3.33z
M27.74,3.54c0.16,0,0.29-0.13,0.29-0.3c0-0.16-0.13-0.29-0.29-0.29c-0.16,0-0.29,0.13-0.29,0.29C27.44,3.41,27.58,3.54,27.74,3.54z
M26.76,3.57c0,0.16,0.13,0.29,0.29,0.29c0.16,0,0.29-0.13,0.29-0.29c0-0.16-0.13-0.3-0.29-0.3C26.89,3.28,26.76,3.41,26.76,3.57z
M25.69,5.16h0.33V3.9c-0.12-0.02-0.23-0.05-0.33-0.1V5.16z M26.69,3.8c-0.1,0.05-0.21,0.09-0.33,0.1v1.26h0.33V3.8z M26,2.41V1.66
c-0.37,0.08-0.66,0.37-0.72,0.75H26z M26.38,2.41h0.71c-0.06-0.37-0.35-0.67-0.71-0.75V2.41z M25.29,2.77
c0.09,0.41,0.46,0.72,0.9,0.72c0.44,0,0.81-0.31,0.9-0.72H25.29z M26.7,1.54c-0.21-0.17-0.37-0.4-0.4-0.65
c0.24,0.04,0.51,0.22,0.66,0.43V0.3c-0.16,0.21-0.43,0.38-0.66,0.43c0.03-0.25,0.18-0.47,0.38-0.73H25.7
c0.21,0.26,0.36,0.48,0.38,0.73c-0.24-0.04-0.51-0.22-0.67-0.43v1.01c0.16-0.21,0.43-0.38,0.67-0.43c-0.03,0.25-0.19,0.49-0.4,0.65
H26.7z M26.72,22.68c0.2,0,0.36-0.16,0.36-0.36c0-0.2-0.16-0.36-0.36-0.36c-0.2,0-0.36,0.16-0.36,0.36
C26.36,22.51,26.52,22.68,26.72,22.68z M24.99,22.14c0.22,0,0.39-0.18,0.39-0.4c0-0.22-0.18-0.4-0.39-0.4
c-0.22,0-0.39,0.18-0.39,0.4C24.6,21.96,24.78,22.14,24.99,22.14z M24.4,20.38c0.06,0.04,0.11,0.09,0.16,0.12
c-0.02-0.12-0.07-0.25-0.17-0.35c-0.12-0.14-0.29-0.23-0.46-0.23c-0.36,0-0.75,0.39-0.86,0.52l-0.03,0.03L23,20.46
c-0.09-0.02-0.19-0.04-0.28-0.05c0.03,0.08,0.07,0.17,0.13,0.25l0.03,0.05l-0.03,0.04c-0.18,0.28-0.28,0.56-0.28,0.78
c0,0.14,0.16,0.43,0.42,0.56c0.17,0.08,0.34,0.07,0.5-0.02c-0.09-0.05-0.21-0.12-0.29-0.18l-0.05-0.03
c-0.07-0.04-0.16-0.09-0.18-0.19c-0.01-0.02-0.01-0.05-0.01-0.07c0-0.09,0.04-0.19,0.12-0.34c0.02-0.03,0.03-0.05,0.05-0.08
c0.01-0.02,0.02-0.03,0.03-0.05l0.04-0.07l0.07,0.04c0.14,0.08,0.27,0.12,0.36,0.09c0.04-0.01,0.08-0.04,0.1-0.08
c0.05-0.1,0.02-0.26-0.16-0.41l-0.07-0.05l0.1-0.12c0.07-0.08,0.14-0.16,0.21-0.22c0.16-0.14,0.31-0.14,0.49-0.01L24.4,20.38z
M27.77,21.77c0.56,0.14,1.25,0.27,1.71,0.21c-0.02,0.02-0.04,0.04-0.06,0.06c-0.16,0.15-0.38,0.32-0.62,0.47
c-0.59,0.37-1.18,0.58-1.63,0.58c-0.52,0-1.19-0.11-1.88-0.3c-0.61-0.17-1.19-0.4-1.63-0.64c-0.24,0.18-0.51,0.21-0.75,0.09
c-0.3-0.15-0.51-0.49-0.51-0.71c0-0.04,0-0.08,0.01-0.12c-0.21-0.18-0.4-0.38-0.59-0.59c-0.57-0.65-1.01-1.4-1.32-2.24
c-0.14-0.39-0.26-0.79-0.34-1.2c0.52,0.19,0.75,0,0.9-0.17c0.05,0.02,0.06,0.16,0.05,0.23c0.58-0.01,0.91-0.4,0.96-0.7
c0.06,0.36,0.14,0.71,0.27,1.05c0.21,0.59,0.52,1.13,0.9,1.58c0.13,0.16,0.27,0.3,0.42,0.44c0.09-0.03,0.18-0.05,0.28-0.05
c0.21,0,0.43,0.1,0.58,0.29c0.16,0.18,0.24,0.42,0.21,0.63l0,0.01C25.75,21.14,26.85,21.54,27.77,21.77z M27.52,25.53
c0.07-0.14,0.12-0.29,0.12-0.39c0-0.18-0.14-0.44-0.43-0.44c-0.5,0-0.39,0.69-0.63,0.69c-0.11,0-0.18-0.07-0.18-0.17
c0-0.2,0.35-0.38,0.35-0.66c0-0.28-0.26-0.52-0.54-0.74c-0.28,0.23-0.53,0.46-0.53,0.74c0,0.28,0.35,0.47,0.35,0.66
c0,0.1-0.08,0.17-0.18,0.17c-0.24,0-0.12-0.69-0.63-0.69c-0.29,0-0.43,0.25-0.43,0.44c0,0.11,0.04,0.25,0.12,0.39
c0.07-0.12,0.16-0.19,0.25-0.19c0.38,0,0.23,1,0.68,1c0.2,0,0.3-0.13,0.3-0.27c0-0.14-0.1-0.18-0.1-0.3c0-0.11,0.09-0.15,0.19-0.15
c0.1,0,0.19,0.04,0.19,0.15c0,0.11-0.1,0.16-0.1,0.3c0,0.14,0.1,0.27,0.3,0.27c0.45,0,0.3-1,0.68-1
C27.35,25.34,27.45,25.41,27.52,25.53z M26.2,26.93c0.14,0,0.25-0.11,0.25-0.25c0-0.14-0.11-0.25-0.25-0.25
c-0.14,0-0.25,0.11-0.25,0.25C25.96,26.82,26.07,26.93,26.2,26.93z M27.2,24.51c0.39,0,0.63,0.33,0.63,0.63
c0,0.29-0.17,0.55-0.31,0.71c-0.08-0.18-0.14-0.31-0.24-0.31c-0.19,0-0.1,0.96-0.66,0.99c0.02,0.05,0.03,0.1,0.03,0.15
c0,0.24-0.2,0.44-0.44,0.44c-0.24,0-0.44-0.2-0.44-0.44c0-0.06,0.01-0.11,0.03-0.15c-0.56-0.03-0.47-0.99-0.67-0.99
c-0.1,0-0.16,0.14-0.23,0.31c-0.14-0.17-0.31-0.43-0.31-0.71c0-0.3,0.24-0.63,0.63-0.63c0.07,0,0.14,0.01,0.2,0.03v-1.36
c0.56,0.15,1.13,0.23,1.61,0.24v1.11C27.07,24.52,27.13,24.51,27.2,24.51z M40.15,25.84c-0.02-0.06-0.09-0.09-0.14-0.07
c-1.29,0.38-2.89-0.7-4.45-1.74c-1.3-0.87-2.54-1.7-3.59-1.7c-0.39,0-0.74,0.08-1.04,0.25c-0.37,0.2-0.64,0.53-0.82,0.96
c-0.18,0.43-0.37,0.73-0.52,0.97c-0.18,0.29-0.31,0.49-0.31,0.75c0,0.21,0.09,0.4,0.27,0.58c0.15,0.15,0.36,0.3,0.68,0.47
c0.07,0.03,0.13,0.07,0.2,0.1c0.26,0.13,0.42,0.21,0.44,0.36c-0.51,0.23-1.17,0.41-1.92,0.55c-0.85,0.15-1.78,0.22-2.76,0.22
c-0.98,0-1.91-0.08-2.76-0.22c-0.75-0.13-1.41-0.32-1.93-0.55c0.02-0.22,0.18-0.3,0.46-0.44c0.07-0.03,0.13-0.06,0.2-0.1
c0.26-0.14,0.5-0.27,0.66-0.42c0.18-0.16,0.27-0.34,0.27-0.54c0-0.26-0.13-0.46-0.31-0.75c-0.15-0.24-0.34-0.53-0.51-0.97
c-0.18-0.43-0.45-0.76-0.82-0.96c-0.3-0.16-0.65-0.25-1.03-0.25c-1.06,0-2.29,0.82-3.59,1.7c-1.55,1.04-3.15,2.11-4.45,1.73
c-0.06-0.02-0.12,0.01-0.14,0.07c-0.02,0.06,0.01,0.12,0.06,0.15c0.39,0.18,0.74,0.45,1.07,0.71c0.47,0.36,0.91,0.71,1.39,0.71
c0.46,0,0.95-0.15,1.55-0.46c0.52-0.27,1.06-0.64,1.58-1c1.02-0.7,2.08-1.42,3.08-1.5c-0.1,0.11-0.21,0.2-0.3,0.29
c-0.3,0.26-0.55,0.5-0.55,0.96c0,0.37,0.13,0.63,0.3,0.99c0.05,0.1,0.11,0.22,0.17,0.36c0.11,0.25,0.16,0.45,0.23,0.72
c0.03,0.12,0.06,0.25,0.1,0.41c0.06,0.24,0.18,0.69,0.92,1.06c0.85,0.44,2.32,0.66,4.36,0.66c2.04,0,3.51-0.22,4.36-0.66
c0.73-0.37,0.85-0.82,0.92-1.06c0.04-0.16,0.07-0.29,0.1-0.41c0.07-0.28,0.11-0.48,0.23-0.72c0.08-0.18,0.16-0.33,0.23-0.46
c0.15-0.29,0.27-0.52,0.27-0.85c0-0.47-0.27-0.71-0.58-0.99c-0.1-0.09-0.2-0.19-0.31-0.3c1,0.08,2.06,0.8,3.08,1.51
c0.52,0.36,1.06,0.73,1.58,1c0.6,0.32,1.09,0.46,1.55,0.46c0.48,0,0.92-0.35,1.39-0.71c0.33-0.26,0.68-0.53,1.07-0.71
C40.15,25.97,40.18,25.9,40.15,25.84z M30.4,15.76c-0.01-0.64-0.12-1.27-0.33-1.85c-0.21-0.59-0.52-1.12-0.91-1.58
c-0.39-0.46-0.84-0.81-1.34-1.06c-0.47-0.23-0.96-0.35-1.46-0.38v4.87H30.4z M26.2,8.85c1.37,0,2.32,0.41,2.87,0.78
c0.32-0.19,0.46-0.38,0.46-0.6c0-0.79-2.21-0.86-3.33-0.86h0c-1.12,0-3.33,0.07-3.33,0.86c0,0.22,0.14,0.41,0.46,0.6
C23.88,9.26,24.83,8.85,26.2,8.85z M26.13,10.88c-0.54,0.01-1.06,0.14-1.56,0.38c-0.5,0.25-0.95,0.61-1.34,1.06
c-0.39,0.46-0.69,0.99-0.9,1.58c-0.21,0.59-0.32,1.21-0.33,1.85h4.13V10.88z M32.39,15.45c0.01,0.17,0.01,0.23,0.01,0.4
c0,0.95-0.16,1.87-0.48,2.73c-0.31,0.84-0.76,1.59-1.33,2.24c-0.27,0.31-0.57,0.59-0.89,0.84l0,0c-0.08,0.06-0.43,0.17-1.85-0.19
c-0.18-0.04-0.28-0.08-0.47-0.13c0.02-0.18,0.04-0.28,0.09-0.41c0.06-0.15,0.13-0.29,0.2-0.37c0.08-0.03,0.08-0.09,0.16-0.13
c0.5-0.25,0.95-0.61,1.34-1.06c0.39-0.46,0.69-0.99,0.91-1.58c0.2-0.57,0.31-1.17,0.33-1.79h-4.03v4.51
c0.32,0.02,0.92,0.08,0.92,0.08c-0.15,0.18-0.21,0.36-0.25,0.66c-0.46-0.14-0.91-0.32-1.39-0.51c0.14-0.17,0.31-0.21,0.47-0.23V16
h-4.12c-0.01-0.18-0.1-0.48-0.16-0.56c-0.2-0.25-0.28-0.4-0.29-0.78c-0.01-0.2-0.13-0.47-0.34-0.73c-0.12-0.15-0.61-0.69-0.73-0.81
c0.31-0.83,0.76-1.58,1.33-2.22c0.38-0.43,0.8-0.79,1.25-1.09c-0.25-0.16-0.49-0.39-0.49-0.78c0-0.22,0.09-0.4,0.25-0.54
c-0.26-0.83-0.72-1.84-1.12-2.28l0.83-0.35c-0.22,0.33-0.23,0.72-0.18,0.95c0.22-0.15,0.41-0.36,0.47-0.64
c0.04,0.25,0.18,0.66,0.31,0.91c-0.24-0.11-0.44-0.17-0.68-0.06c0.14,0.19,0.5,0.48,1.04,0.35c0.3-0.07,0.59-0.23,0.58-0.46
c-0.01-0.14-0.11-0.3-0.29-0.28c-0.18,0.02-0.19,0.29-0.14,0.42C23.4,6.9,23.15,6.21,23.52,6.1c0.29-0.08,0.56,0.32,0.66,0.63
c0.05-0.37,0.21-0.73,0.5-0.71c0.38,0.03,0.26,0.73,0.13,0.92c-0.02-0.25-0.16-0.38-0.27-0.37c-0.1,0.01-0.24,0.08-0.21,0.3
c0.02,0.23,0.35,0.37,0.71,0.37c0.35,0,0.97-0.11,1.02-0.79c-0.23,0.04-0.58,0.22-0.72,0.44c0.05-0.41,0.05-0.7,0-1.13
c0.18,0.26,0.5,0.4,0.71,0.44c-0.06-0.29-0.31-0.6-0.6-0.78h1.51c-0.29,0.18-0.54,0.49-0.6,0.78c0.22-0.04,0.54-0.18,0.73-0.44
c-0.05,0.43-0.05,0.72,0,1.13c-0.15-0.23-0.51-0.4-0.74-0.44c0.06,0.68,0.67,0.79,1.02,0.79c0.37,0,0.69-0.14,0.71-0.37
c0.02-0.23-0.11-0.3-0.21-0.3c-0.11-0.01-0.25,0.12-0.27,0.37c-0.13-0.18-0.26-0.89,0.12-0.92c0.3-0.02,0.45,0.34,0.5,0.71
c0.1-0.31,0.36-0.71,0.65-0.63c0.37,0.1,0.12,0.8-0.11,0.94c0.06-0.12,0.05-0.4-0.13-0.42c-0.18-0.02-0.29,0.15-0.29,0.28
c-0.01,0.23,0.28,0.39,0.58,0.46c0.55,0.13,0.9-0.16,1.04-0.35c-0.24-0.1-0.44-0.05-0.68,0.06c0.13-0.24,0.26-0.65,0.31-0.91
c0.06,0.27,0.25,0.48,0.46,0.63c0.05-0.23,0.03-0.61-0.18-0.94l0.83,0.35c-0.39,0.44-0.86,1.44-1.12,2.27
c0.16,0.14,0.26,0.33,0.26,0.55c0,0.39-0.25,0.62-0.49,0.78c0.46,0.3,0.88,0.66,1.25,1.09c0.31,0.35,0.55,0.65,0.78,1.06
c-0.04,0.04-0.07,0.09-0.11,0.15c-0.05,0.08-0.19,0.22-0.24,0.28c-0.07,0.1-0.14,0.2-0.14,0.34c0,0.11,0.04,0.24,0.13,0.38
c0.1,0.17,0.74,1.44,0.89,1.76C32.02,15.12,32.25,15.34,32.39,15.45z M28.62,12.87c-0.23-0.29-0.5-0.54-0.8-0.74
c-0.25-0.17-0.51-0.29-0.78-0.38c0.03,0.04,0.05,0.1,0.04,0.17c-0.06-0.01-0.11-0.03-0.15-0.06v1.18c0.07-0.01,0.12,0.02,0.14,0.07
c0.01,0.04,0.01,0.09-0.05,0.14c0.06,0,0.12,0.02,0.18,0.08c-0.06,0.05-0.12,0.08-0.18,0.08c0.06,0.05,0.06,0.1,0.05,0.14
c-0.01,0.04-0.07,0.08-0.14,0.07v1.4c0.04-0.04,0.1-0.06,0.17-0.06c0,0.07-0.03,0.13-0.06,0.17h0.86c-0.01-0.06,0.03-0.12,0.06-0.13
c0.04-0.02,0.09-0.01,0.14,0.05c0-0.06,0.02-0.12,0.08-0.18c0.06,0.06,0.08,0.12,0.08,0.18c0.05-0.06,0.1-0.06,0.14-0.05
c0.04,0.01,0.08,0.07,0.07,0.13h1.01c-0.04-0.04-0.08-0.1-0.08-0.19c0.06,0,0.11,0.02,0.15,0.04c-0.09-0.58-0.3-1.15-0.6-1.64
c-0.04,0.02-0.08,0.02-0.11,0c-0.04-0.02-0.06-0.07-0.04-0.14c-0.05,0.03-0.11,0.05-0.19,0.04c0.01-0.08,0.05-0.13,0.09-0.17
c-0.07,0-0.11-0.04-0.12-0.08C28.57,12.94,28.59,12.9,28.62,12.87z M29.76,14.96c0.13,0,0.18,0.11,0.16,0.17
c-0.02,0.04-0.06,0.07-0.13,0.07c0.04,0.04,0.07,0.1,0.07,0.18c-0.08,0-0.14-0.03-0.18-0.06c0.01,0.07-0.02,0.11-0.06,0.13
c-0.06,0.03-0.18-0.02-0.18-0.15c0.05,0.06,0.15,0.04,0.14-0.04h-1.33c0.02,0.08,0.01,0.18-0.07,0.26
c-0.08-0.09-0.09-0.18-0.07-0.26h-1.19c0,0.08,0.1,0.1,0.15,0.03c0,0.13-0.12,0.18-0.18,0.15c-0.04-0.02-0.07-0.06-0.06-0.13
c-0.04,0.04-0.1,0.07-0.18,0.07c0-0.08,0.03-0.14,0.07-0.18c-0.07,0.01-0.11-0.02-0.13-0.06c-0.03-0.06,0.03-0.18,0.15-0.18
c-0.07,0.05-0.05,0.15,0.04,0.15v-1.72c-0.08,0.02-0.18,0.02-0.26-0.07c0.09-0.08,0.18-0.09,0.26-0.07v-1.58
c-0.08-0.01-0.1,0.09-0.04,0.14c-0.13-0.01-0.17-0.13-0.14-0.19c0.02-0.03,0.05-0.05,0.11-0.05c-0.04-0.05-0.06-0.11-0.06-0.19
c0.08,0.01,0.14,0.05,0.18,0.1c0.01-0.06,0.04-0.09,0.07-0.1c0.06-0.03,0.17,0.04,0.16,0.17c-0.04-0.07-0.14-0.06-0.15,0.02
c0.34,0.09,0.66,0.24,0.97,0.45c0.32,0.22,0.62,0.49,0.87,0.82c0.03,0.04,0.06,0.08,0.09,0.11c0.05-0.07,0.13-0.13,0.26-0.11
c-0.02,0.12-0.09,0.18-0.17,0.21c0,0.01-0.01,0.01-0.01,0.01c0.42,0.6,0.69,1.32,0.77,2.05C29.81,15.12,29.83,15.01,29.76,14.96z
M29.06,14.53c0.05-0.03,0.09-0.06,0.11-0.1c-0.06,0.02-0.1-0.01-0.11-0.02c0.04-0.02,0.09,0,0.04-0.07
c-0.05-0.07-0.08-0.08-0.13-0.02c-0.05,0.05-0.37-0.01-0.37-0.25c0.02,0.04,0.06,0.07,0.11,0.09c0.01,0.01,0.03,0.01,0.04,0.02
c0.01,0,0.03,0,0.04,0.01c0.03,0.01,0.06,0.02,0.09,0.01c0.01,0,0.02,0,0.02,0v-0.01c0.07-0.01,0.12-0.05,0.13-0.13
c0.01-0.13-0.11-0.19-0.25-0.31c-0.05-0.05-0.09-0.09-0.13-0.12c-0.05-0.09-0.02-0.18-0.14-0.35c-0.01-0.04-0.02-0.09-0.04-0.15
c-0.06,0.11-0.09,0.33,0.07,0.51c0.13,0.15,0.42,0.29,0.41,0.42c0,0.03-0.03,0.06-0.07,0.06c-0.01,0-0.03,0-0.04,0
c-0.01,0-0.02,0-0.03-0.01c-0.02-0.01-0.04-0.01-0.06-0.03c-0.03-0.02-0.06-0.04-0.1-0.08c-0.12-0.11-0.22-0.27-0.3-0.36
c-0.13-0.17-0.07-0.33-0.05-0.48c0.09-0.13-0.06-0.4-0.15-0.46c0,0,0.02-0.06-0.01-0.14c-0.02,0.02-0.06,0.01-0.08,0.01
c-0.02-0.05-0.03-0.06-0.07-0.07c-0.06-0.01-0.06-0.04-0.06-0.06c-0.03,0.03-0.05,0.06-0.08,0.06c-0.05,0-0.07,0-0.09,0.02
c-0.03,0.03-0.05,0.04-0.1,0.04c-0.05,0-0.05,0.03-0.05,0.07c0,0.03,0.01,0.06,0.04,0.08c0,0,0.01,0.01,0.02,0.01l0.04,0.05
l0.03-0.05c0.02-0.02,0.09-0.03,0.11,0.02c0.01,0.03,0.02,0.04-0.03,0.05c-0.05,0.01-0.07,0.01-0.12,0.01
c-0.03,0-0.03,0.04-0.03,0.07c0,0.03,0.04,0.05,0.1,0.03c0.06-0.02,0.18-0.03,0.18,0.03c0,0.14-0.16,0.14-0.2,0.31
c-0.04-0.03-0.08-0.06-0.1-0.09c-0.02-0.04-0.06-0.1-0.12-0.15c-0.03-0.03-0.08-0.08-0.12-0.1c-0.06-0.03-0.06-0.06-0.06-0.12
c0-0.05,0.02-0.1,0.02-0.15c0-0.01-0.01-0.03-0.01-0.04c-0.01-0.03-0.05-0.06-0.08-0.05c0.01,0.01,0.03,0.02,0.03,0.05
c-0.01,0.01-0.02,0.03-0.02,0.03c-0.01,0.01-0.02,0.03,0,0.05c0,0,0,0.01,0,0.01c0,0.01,0,0.01,0,0.02c0,0.01,0,0-0.01,0
c-0.01-0.04-0.03-0.09-0.06-0.09c0,0-0.02,0-0.02,0c0,0,0-0.01,0-0.01c0-0.04-0.04-0.07-0.09-0.02c0.01,0,0.03,0,0.03,0.01
c0,0.01-0.01,0.04-0.01,0.04c0,0.04,0.02,0.05,0.07,0.05c0.01,0,0.01,0,0.01,0.01c0,0.01,0,0.01,0.01,0.02c0,0.01,0,0-0.01,0
c-0.07-0.03-0.09,0-0.1,0.03c0,0,0,0.02,0,0.03c-0.02,0.01-0.03,0.05,0.01,0.08c0-0.01,0-0.04,0.01-0.04c0,0,0.01,0,0.01,0
c0.01,0.01,0.02,0.02,0.02,0.02c0,0,0.02,0,0.04-0.01c0.01,0,0.01,0,0.02,0c0.01,0.01,0.01,0.01,0.02,0.01c0,0,0,0.01,0,0.01
c-0.04,0.04-0.03,0.08,0.02,0.09c-0.03,0.05-0.1,0.03-0.1-0.04c-0.05,0.09,0.04,0.15,0.11,0.12c0,0.03,0,0.1,0.01,0.1
c0-0.01,0.01-0.02,0.02-0.02c0.01,0,0.01,0,0.01,0.01c0,0.02,0.01,0.05,0.04,0.05c0-0.01,0-0.02,0.01-0.03
c0.01,0.02,0.03,0.04,0.04,0.06c0.04,0.07,0.11,0.24,0.28,0.31c-0.08,0.05-0.14,0.13-0.2,0.19c-0.05,0.05-0.12,0.1-0.16,0.07
c-0.02-0.01-0.02-0.03-0.05-0.05c-0.02-0.02-0.04-0.02-0.05-0.02c0,0-0.02,0-0.03,0.01c-0.03-0.01-0.07,0-0.09,0.03
c0.02,0,0.04-0.01,0.06,0.01c0,0.01,0,0.03,0,0.03c0,0.02,0.02,0.04,0.1,0.04c0,0,0.02,0,0.01,0.01c-0.01,0.01-0.02,0.02-0.05,0.01
c-0.04-0.01-0.06-0.04-0.09,0c0,0-0.01,0.01-0.02,0.02c0,0-0.01,0-0.01,0c-0.03,0.01-0.07,0.08-0.03,0.11c0-0.01,0-0.04,0.03-0.05
c0.01,0.01,0.02,0.02,0.02,0.02c0.02,0.04,0.05,0.06,0.11-0.03c0.01-0.01,0.01,0,0.01,0c0,0.04-0.04,0.1,0.01,0.11
c0,0,0.01,0,0.02,0c0,0,0,0.01,0,0.01c0.01,0.05,0.08,0.06,0.1,0.05c-0.02-0.01-0.05-0.02-0.06-0.06c0.01,0,0.02,0,0.03,0
c0.03-0.03-0.01-0.07,0.01-0.1c0-0.01,0.01-0.01,0.01,0c0.01,0.02,0.04,0.06,0.08,0.03c0.02-0.02,0.03-0.04,0.03-0.06
c0.06-0.03,0.11-0.05,0.16-0.03c-0.01-0.03,0.03-0.07,0.09-0.09c0.06-0.02,0.09,0,0.11,0.02c0.01-0.03,0.03-0.07,0.06-0.11
c-0.01,0.25,0.33,0.25,0.41,0.4c-0.1-0.04-0.21-0.07-0.28-0.05c-0.08,0.02-0.23,0.09-0.25,0.19c-0.01,0.08,0.07,0.22,0.15,0.27
c-0.1,0.02-0.13-0.01-0.22,0.01c0,0-0.01,0-0.01,0c-0.08,0.01-0.09-0.13-0.18-0.09c0,0-0.02,0.01-0.02,0.02h0
c-0.04,0-0.08,0.04-0.08,0.08c0.01-0.01,0.03-0.03,0.06-0.03c0,0.01,0,0.02,0,0.02c0,0.01,0,0.03,0.03,0.03
c0.02,0,0.02-0.01,0.04-0.01c0.01,0,0.01,0,0.01,0.01c0,0.03-0.11-0.02-0.09,0.08c0,0,0.01,0.02,0.02,0.03
c-0.01,0.03,0.02,0.06,0.07,0.04c-0.01-0.01-0.03-0.02-0.02-0.04c0.01,0,0.02,0,0.02,0c0.01,0,0.01,0,0.01-0.01c0,0,0,0,0,0
c0.01,0,0.01,0.01,0.01,0.01c0,0-0.01,0.01-0.01,0.02c0,0,0.01,0.03,0.01,0.03c0,0.03,0.05,0.07,0.1,0.03
c-0.02,0-0.05-0.01-0.05-0.03c0.01,0,0.02-0.01,0.02-0.01c0.01-0.01,0.01-0.02,0.01-0.03c0-0.01,0-0.01,0.01-0.01
c0.01,0,0.02,0,0.03,0c0.01,0,0.01,0,0.01,0.01c0.01,0.02,0.04,0.04,0.07,0.03c0.02-0.01,0.03-0.02,0.03-0.03
c0.01,0.01,0.03,0.01,0.04,0.03c-0.01-0.04,0.02-0.07,0.1-0.01l0.06-0.04c0,0,0.07,0.03,0.1,0c0.05-0.04,0.02-0.04,0.02-0.08
c-0.03-0.08-0.05-0.07-0.07-0.14c-0.02-0.13,0.15-0.2,0.25-0.18c0.02,0.08,0.13,0.29,0.32,0.35c0.12,0.04,0.16-0.09,0.2-0.07
c0.01,0,0.01,0.02,0.02,0.03c-0.01,0.06,0,0.11-0.01,0.14c-0.01,0.03-0.07,0.01-0.12,0c-0.02,0-0.04,0.02-0.05,0.02
c-0.04,0.01-0.08,0.04-0.08,0.08c0.01-0.01,0.04-0.03,0.07-0.03c0,0.01,0,0.02,0,0.02c0.01,0.05,0.06,0.07,0.09,0.03
c0-0.01,0.02,0,0.01,0.01c-0.03,0.02-0.08,0.07-0.04,0.09c0,0,0.02,0.01,0.02,0.01c0,0.03,0.02,0.06,0.05,0.07
c-0.01-0.02-0.01-0.03,0-0.06h0.02c0.03,0,0.02-0.06,0.05-0.08c0,0,0.01,0,0.01,0c-0.01,0.04-0.02,0.08,0.01,0.09
c0,0,0.01,0,0.03,0.01c0.01,0.03,0.04,0.05,0.09,0.03c-0.01-0.01-0.03-0.02-0.04-0.03c0.01-0.01,0.02-0.03,0.02-0.03
c0.02-0.08-0.04-0.08-0.04-0.11c0-0.04,0.08-0.01,0.08-0.09c0,0,0-0.01,0-0.01c0.04-0.02,0.07-0.04,0.08-0.07
C29.11,14.55,29.06,14.53,29.06,14.53L29.06,14.53z M25.3,16.78c0.02-0.2,0-0.25-0.1-0.25c-0.12,0-0.36,0.13-0.64,0.24l0.61,0.88
c0.04-0.24,0.07-0.44,0.09-0.56c0-0.02,0.01-0.04,0.01-0.06l-0.04,0c-0.08-0.01-0.14-0.06-0.14-0.14c0.01-0.09,0.09-0.12,0.15-0.11
L25.3,16.78z M25.07,18.32c0.02-0.15,0.05-0.3,0.07-0.45l-0.73-1.05c-0.1,0.04-0.2,0.07-0.31,0.09L25.07,18.32z M24.97,18.95
c0.02-0.11,0.04-0.25,0.07-0.41l-1.1-1.59c-0.07,0.01-0.14,0.01-0.21,0.01c-0.04,0-0.08,0-0.13,0L24.97,18.95z M23.42,16.98
c-0.1,1.14,0.7,1.86,1.51,2.18L23.42,16.98z M25.66,16.81c0.06,0.01,0.13,0.05,0.13,0.13c-0.01,0.09-0.07,0.12-0.15,0.12l-0.05,0
l-0.05,2.19l0.07,0.01l-0.01,0.19c-0.02,0.06-0.09,0.08-0.16,0.07c0.04,0.34-0.25,0.42-0.39,0.42c-0.15,0-0.28-0.1-0.28-0.27
c0-0.14,0.13-0.2,0.22-0.2c0.09,0,0.13,0.03,0.11,0.11c-0.02,0.06-0.16,0.01-0.16,0.09c0,0.05,0.05,0.09,0.12,0.09
c0.11,0,0.17-0.05,0.17-0.18c0-0.2-0.19-0.23-0.37-0.18c-1.24-0.37-1.94-1.59-1.85-2.54c-0.03-0.01-0.06-0.02-0.08-0.03L23,16.64
c-0.03,0.04-0.07,0.06-0.12,0.06c-0.09,0-0.16-0.07-0.16-0.16c0-0.08,0.07-0.15,0.16-0.15c0.09,0,0.15,0.07,0.15,0.15
c0,0.01,0,0.01,0,0.02l0.08-0.19c0.2,0.12,0.51,0.25,0.78,0.25c0.63,0,1.08-0.3,1.31-0.3c0.26,0,0.4,0.18,0.4,0.42l0,0.07
L25.66,16.81z M24.56,12.19c-0.01,0.02-0.01,0.05,0.01,0.06c0.03,0.02,0.05-0.01,0.06-0.03c0.01-0.02,0.01-0.03,0.01-0.04
c-0.01-0.01-0.01-0.02-0.01-0.04c0.01-0.02,0.02-0.01,0.04,0c-0.01-0.02-0.01-0.03,0-0.03c0.01,0,0.01,0.03,0.02,0.03
c0.01,0,0-0.02,0.01-0.03c0-0.01-0.01-0.02-0.02-0.02l-0.08-0.04c-0.01-0.01-0.02-0.01-0.02,0c0,0-0.02,0.01-0.02,0.02
c0.01,0.01,0.02-0.01,0.03,0c0.01,0.01,0,0.01-0.02,0.02c0.02,0.01,0.03,0.02,0.03,0.04c-0.01,0.02-0.01,0.02-0.03,0.02
C24.57,12.16,24.57,12.18,24.56,12.19z M24.65,11.99c-0.01,0-0.06-0.03-0.08-0.05c0.03,0.04,0,0.05,0.02,0.07
C24.61,12.03,24.64,12.02,24.65,11.99z M24.71,12.03c-0.01,0.03,0.01,0.06,0.03,0.06c0.03,0,0.02-0.02,0.06-0.03
C24.78,12.06,24.72,12.03,24.71,12.03z M24.5,12.08C24.5,12.08,24.49,12.08,24.5,12.08C24.49,12.08,24.5,12.08,24.5,12.08z
M25.4,12.41C25.38,12.41,25.39,12.42,25.4,12.41c0.14,0.02,0.18,0.06,0.25,0.05c0.05-0.01,0.05,0.02,0.05,0.02
c0,0.04,0.05,0.02,0.07,0c0.01,0.04-0.01,0.05-0.02,0.06c-0.01,0-0.01,0.01,0,0.01c0.01,0.03-0.01,0.06,0.04,0.06
c-0.01,0.02-0.02,0.02-0.04,0.02h0c0,0,0,0,0,0c0.02,0.01,0.03,0.03,0.03,0.04c0,0.06-0.06,0.04-0.06,0.07
c0,0.03,0.05,0.03,0.03,0.09c0,0-0.01,0.02-0.02,0.03c0.01,0.01,0.02,0.02,0.03,0.02c-0.03,0.02-0.06,0-0.07-0.02
c-0.01,0-0.02-0.01-0.02-0.01c-0.03-0.01-0.02-0.04-0.01-0.07c0,0,0,0,0,0c-0.03,0.02-0.02,0.07-0.04,0.06h-0.02
c-0.01,0.03-0.01,0.04,0,0.05c-0.02,0-0.04-0.03-0.04-0.05c-0.01,0-0.02-0.01-0.02-0.01c-0.03-0.02,0.01-0.05,0.03-0.07
c0.01-0.01-0.01-0.01-0.01-0.01c-0.03,0.03-0.07,0.01-0.07-0.03v-0.01c-0.02,0-0.04,0.02-0.05,0.03c0-0.03,0.03-0.06,0.06-0.06
c0,0,0.02-0.02,0.03-0.01c0.03,0,0.08,0.02,0.09,0c0.01-0.03-0.01-0.03,0.01-0.09c0-0.02-0.01-0.02-0.02-0.03
c-0.02,0-0.08-0.02-0.14,0.02c-0.05,0.03,0.06,0.05-0.06,0.05c-0.06,0-0.11-0.02-0.16-0.04c0.02,0.04,0,0.07,0.02,0.08
c0.04,0.03,0.05,0.1,0.04,0.12c-0.01,0.02-0.07,0.02-0.11,0.01c-0.01,0-0.02,0-0.03,0c-0.04,0.01,0,0.06-0.05,0.07
c-0.03,0.01-0.05-0.01-0.06-0.03c0,0-0.01-0.01-0.02-0.01c0,0-0.01,0-0.02,0c0,0-0.01,0-0.01,0.01c0,0.01,0,0.02-0.01,0.03
c0,0-0.01,0.01-0.02,0.01c0,0.01,0.03,0.02,0.04,0.02c-0.04,0.03-0.09,0-0.08-0.03c0,0-0.01-0.02-0.01-0.03
c0-0.01,0.01-0.01,0.01-0.02c0,0,0-0.01-0.01-0.01c0,0,0,0,0,0c0,0.01-0.01,0.01-0.01,0.01c0,0-0.01,0-0.02,0
c0,0.01,0.01,0.02,0.02,0.03c-0.04,0.01-0.06-0.01-0.06-0.04c-0.01-0.01-0.02-0.02-0.02-0.03c-0.02-0.08,0.08-0.03,0.08-0.07
c0-0.01,0-0.01-0.01-0.01c-0.01,0-0.02,0.01-0.03,0.01c-0.03,0-0.03-0.01-0.03-0.03c0,0,0-0.01,0-0.02c-0.02,0-0.04,0.02-0.05,0.03
c-0.01-0.03,0.04-0.07,0.07-0.07c0.01,0,0.02-0.01,0.02-0.02c0.08-0.03,0.08,0.13,0.15,0.08c0.01-0.01,0.04-0.02,0.07-0.02
c0.01,0,0.01,0,0-0.01c-0.02-0.02-0.06-0.03-0.08-0.03c-0.05-0.01-0.05-0.1-0.02-0.15c-0.02,0.02-0.07,0.04-0.09,0.03
c-0.32-0.02-0.07,0.09-0.22,0.13c-0.03,0.01-0.1,0.09-0.17,0.08c0.02-0.01,0.01-0.04,0-0.05c-0.02,0.03-0.05,0.04-0.08,0.04
c-0.02,0.02-0.04,0.03-0.04,0.04c0,0.04-0.06,0.07-0.09,0.07c0.02-0.01,0.02-0.03,0.03-0.04c0-0.01,0-0.01-0.01,0
c-0.07,0.04-0.13,0-0.14,0.11c-0.03-0.03-0.01-0.07-0.03-0.07c0,0-0.02,0.02-0.02,0.02c-0.01-0.01-0.01-0.03,0-0.04
c0,0,0-0.01-0.01-0.01c-0.04,0.01-0.07,0.01-0.09,0c0,0,0,0,0,0c0-0.01-0.01-0.02-0.02-0.02c-0.01,0.05-0.05,0.07-0.07,0.07
c0.03-0.03,0.02-0.06,0.02-0.08c-0.01,0.02-0.02,0.03-0.03,0.03c0.01-0.02-0.01-0.04-0.02-0.05c0,0,0,0,0,0.01
c0,0.02-0.02,0.06-0.06,0.06c-0.04,0-0.05-0.04-0.05-0.06c0-0.01-0.01-0.01-0.01,0c-0.02,0.01,0,0.06-0.04,0.07
c0,0-0.01,0-0.02-0.01c-0.01,0.03,0.01,0.05,0.02,0.06c-0.02,0-0.07-0.03-0.06-0.07c0,0,0,0,0-0.01c-0.01-0.01-0.02-0.01-0.02-0.01
c-0.04-0.03,0.01-0.06,0.03-0.09c0,0,0-0.01-0.01-0.01c-0.07,0.05-0.09,0.02-0.1-0.02c0,0,0-0.01-0.01-0.02
c-0.02,0-0.03,0.02-0.04,0.03c-0.02-0.03,0.03-0.08,0.06-0.07c0,0,0.01,0,0.01,0c0.01-0.01,0.02-0.01,0.02-0.01
c0.03-0.02,0.04,0.01,0.07,0.03c0.01,0.01,0.03,0.01,0.04,0c0.01,0,0-0.01,0-0.01c-0.07-0.03-0.08-0.05-0.07-0.06
c0,0,0.01-0.02,0.01-0.03c-0.01-0.02-0.03-0.03-0.04-0.03c0.02-0.01,0.06-0.01,0.08,0.01c0.01,0,0.03,0,0.03,0
c0.01,0,0.02,0.01,0.04,0.03c0.01,0.02,0.01,0.04,0.02,0.06c0.03,0.05,0.15,0.01,0.19-0.02c0.03-0.02,0.13-0.01,0.14-0.01
c0.01,0,0.12-0.03,0.18-0.05c-0.04-0.05-0.06-0.1-0.08-0.1c-0.01,0-0.01,0.01-0.01,0.03c-0.03,0-0.03-0.03-0.03-0.04
c0,0,0-0.01,0-0.01c-0.01,0-0.02,0.01-0.02,0.02c-0.01,0-0.02-0.01-0.02-0.03c0,0,0-0.01-0.01,0c-0.08,0.04-0.16-0.02-0.1-0.1
c-0.02,0.07,0.08,0.08,0.09,0.01c0-0.01,0-0.01-0.01-0.01c-0.05-0.01-0.05-0.04-0.01-0.08c0,0,0-0.01,0-0.01
c-0.01-0.01-0.01-0.01-0.02-0.01c-0.01,0-0.01,0-0.01,0c-0.02,0.01-0.03,0.01-0.04,0.01c0,0-0.01-0.01-0.01-0.01c0,0-0.01,0-0.01,0
c-0.02,0-0.02,0.02-0.02,0.03c-0.04-0.02-0.02-0.05,0-0.06c0-0.01,0-0.02,0-0.02c0.01-0.02,0.03-0.05,0.09-0.02c0,0,0.01,0,0-0.01
c0-0.01,0-0.01,0-0.01c0,0,0,0-0.01,0c-0.04,0-0.06-0.02-0.05-0.04c0,0,0.01-0.02,0.01-0.03c-0.01-0.01-0.02-0.01-0.03-0.01
c0.05-0.04,0.08-0.01,0.07,0.02c0,0,0,0,0,0.01c0.01,0,0.02,0,0.02,0c0.03,0,0.04,0.04,0.04,0.07c0,0,0,0.01,0,0
c0-0.01,0.01-0.01,0.01-0.02c0,0,0-0.01,0-0.01c-0.01-0.01,0-0.03,0.01-0.04c0,0,0.02-0.01,0.02-0.02c0-0.02-0.01-0.03-0.02-0.04
c0.02,0,0.06,0.02,0.06,0.04c0,0.01,0.01,0.03,0.01,0.04c0,0.04-0.03,0.07-0.04,0.12c-0.01,0.05-0.01,0.07,0.04,0.1
c0.03,0.02,0.05,0.04,0.07,0.05h0c0-0.04,0.02-0.12,0.04-0.19c-0.01-0.01-0.01-0.01-0.02-0.03c0.03,0,0.04-0.05,0.06-0.1
c-0.01,0-0.02-0.01-0.03-0.03c0.03,0.01,0.06-0.07,0.09-0.07c-0.01-0.04,0-0.06,0.01-0.09c0.02,0,0.04,0.01,0.06,0.03
c0-0.02,0.02-0.02,0.04-0.02c0,0,0.04-0.01,0.05-0.01c0.01,0,0.04,0,0.07,0.02c0.04,0.02,0.06,0.04,0.07,0.05
c0.01,0.01,0.02,0.04,0.02,0.04c0.01,0.01,0.03,0.03,0.02,0.04c0.02,0,0.04,0.01,0.06,0.03c0,0.03-0.02,0.05-0.05,0.06
c0.04,0.05-0.06,0.15-0.06,0.2c0.32-0.08,0.44,0.04,0.6,0.04c0.23,0,0.37-0.05,0.37-0.13c0-0.23-0.82-0.01-0.82-0.32
c0-0.05,0.03-0.09,0.09-0.12c-0.01-0.02,0-0.04,0.01-0.06c0.09-0.11,0.25-0.12,0.32-0.21c0.01,0.04-0.02,0.13-0.1,0.17
c0.15-0.01,0.2-0.29,0.55-0.24c-0.29,0.06-0.3,0.34-0.7,0.38h-0.01c-0.03,0.03-0.06,0.06-0.06,0.09c0,0.2,0.81,0,0.81,0.32
C25.84,12.31,25.69,12.41,25.4,12.41z M24.07,13.97C24.07,13.97,24.07,13.97,24.07,13.97C24.07,13.97,24.07,13.97,24.07,13.97z
M23.83,13.46c-0.01,0.02-0.01,0.05,0.02,0.07c0.03,0.02,0.06-0.01,0.06-0.03c0.01-0.02,0.01-0.04,0.01-0.05
c-0.01-0.02-0.02-0.03-0.01-0.05c0.01-0.02,0.03-0.01,0.05,0c-0.01-0.02-0.01-0.04,0.01-0.03c0.02,0,0.02,0.03,0.02,0.03
c0.01,0,0.01-0.02,0.01-0.03c0-0.01-0.01-0.02-0.02-0.02l-0.09-0.04c-0.01-0.01-0.02-0.01-0.03,0c-0.01,0.01-0.02,0.01-0.02,0.02
c0,0.01,0.02-0.01,0.04,0c0.01,0.01,0,0.02-0.02,0.03c0.02,0.01,0.04,0.03,0.03,0.05c-0.01,0.02-0.02,0.02-0.04,0.02
C23.85,13.43,23.84,13.44,23.83,13.46z M23.94,13.23c-0.02,0-0.07-0.04-0.1-0.06c0.03,0.05,0,0.05,0.03,0.08
C23.89,13.28,23.92,13.25,23.94,13.23z M24.01,13.27c0,0.03,0.01,0.07,0.04,0.08c0.03,0,0.02-0.02,0.07-0.03
C24.09,13.3,24.02,13.28,24.01,13.27z M23.55,13.68C23.55,13.68,23.55,13.68,23.55,13.68C23.55,13.67,23.55,13.68,23.55,13.68z
M25.8,13.51c0,0.11-0.28,0.16-0.47,0.16c0.17,0.01,0.23,0.03,0.31,0.02c0.05-0.01,0.05,0.02,0.06,0.03c0.01,0.05,0.06,0.02,0.08,0
c0.01,0.04,0,0.06-0.02,0.08c-0.01,0-0.01,0.01-0.01,0.01c0.01,0.03-0.01,0.07,0.05,0.07c-0.01,0.03-0.03,0.02-0.05,0.02l0,0
c0,0,0,0,0,0.01c0.03,0.01,0.03,0.03,0.03,0.04c0,0.07-0.07,0.05-0.07,0.08c0,0.03,0.06,0.03,0.04,0.1c0,0.01-0.01,0.02-0.02,0.03
c0,0.02,0.03,0.03,0.03,0.03c-0.04,0.02-0.07,0-0.08-0.03c-0.01,0-0.02,0-0.02-0.01c-0.03-0.01-0.02-0.05-0.01-0.08
c0,0,0-0.01-0.01,0c-0.03,0.02-0.02,0.08-0.05,0.08c0,0-0.01,0-0.02,0c-0.01,0.03-0.01,0.04,0,0.06c-0.02,0-0.05-0.03-0.04-0.06
c-0.01,0-0.02-0.01-0.02-0.02c-0.04-0.02,0.01-0.06,0.03-0.08c0.01-0.01-0.01-0.01-0.01-0.01c-0.03,0.03-0.08,0.02-0.09-0.03
c0,0,0-0.01,0-0.02c-0.03,0-0.05,0.02-0.06,0.03c0-0.04,0.04-0.07,0.07-0.07c0-0.01,0.02-0.02,0.04-0.02c0.04,0,0.1,0.03,0.11,0
c0.02-0.03-0.01-0.04,0.01-0.11c0.01-0.02-0.01-0.03-0.03-0.03c-0.02,0-0.1-0.02-0.16,0.02c-0.06,0.04-0.09,0.06-0.22,0.06
c-0.07,0-0.13-0.02-0.18-0.04c0.03,0.04,0,0.08,0.03,0.1c0.05,0.03,0.06,0.12,0.05,0.14c-0.01,0.02-0.08,0.03-0.13,0.01
c-0.01,0-0.03,0-0.03,0c-0.05,0.01,0,0.06-0.06,0.09c-0.03,0.01-0.06-0.01-0.07-0.03c0,0-0.01-0.01-0.02-0.01c-0.01,0-0.02,0-0.02,0
c0,0-0.01,0-0.01,0.01c0,0.02,0,0.03-0.01,0.04c0,0-0.01,0.01-0.02,0.01c0.01,0.02,0.04,0.02,0.05,0.03c-0.05,0.03-0.1,0-0.1-0.04
c0,0-0.01-0.03-0.01-0.03c0-0.01,0.01-0.01,0.01-0.02c0,0,0-0.01-0.01-0.01c0,0,0,0,0,0c0,0.01-0.01,0.02-0.01,0.02
c0,0-0.01,0-0.02,0c0,0.02,0.02,0.03,0.02,0.03c-0.05,0.02-0.07-0.01-0.07-0.04c-0.01-0.01-0.02-0.03-0.02-0.03
c-0.02-0.1,0.09-0.04,0.09-0.08c0-0.01-0.01-0.01-0.01-0.01c-0.01,0-0.02,0.01-0.03,0.01c-0.03,0-0.04-0.02-0.03-0.03v-0.02
c-0.03,0-0.05,0.02-0.06,0.03c-0.01-0.04,0.04-0.08,0.08-0.08c0.01-0.01,0.02-0.02,0.03-0.02c0.09-0.04,0.1,0.15,0.18,0.09
c0.01-0.01,0.05-0.02,0.08-0.02c0.01,0,0.01,0,0-0.01c-0.02-0.02-0.07-0.04-0.1-0.04c-0.06-0.01-0.05-0.12-0.02-0.17
c-0.02,0.02-0.07,0.05-0.1,0.04c-0.41-0.07-0.23,0.18-0.48,0.16c-0.02,0-0.05,0-0.08,0.01c-0.02,0.06-0.16,0.19-0.25,0.17
c0.02-0.01,0.03-0.03,0.03-0.04c0-0.01,0-0.01-0.01-0.01c-0.08,0.05-0.15,0-0.16,0.13c-0.03-0.03-0.02-0.08-0.03-0.08
c-0.01,0-0.02,0.02-0.02,0.03c-0.01-0.01-0.01-0.03,0-0.05c0,0,0-0.01-0.01-0.01c-0.05,0.01-0.08,0.01-0.1,0c0,0,0,0,0,0
c0-0.01-0.01-0.02-0.02-0.03c-0.01,0.05-0.06,0.08-0.08,0.08c0.03-0.03,0.03-0.06,0.02-0.09c-0.01,0.02-0.03,0.03-0.04,0.04
c0.01-0.02-0.01-0.04-0.02-0.05c0,0-0.01,0,0,0c0,0.03-0.02,0.07-0.07,0.07c-0.05,0-0.06-0.04-0.06-0.06c0-0.01,0-0.01-0.01,0
c-0.02,0.01,0,0.07-0.05,0.08c0,0-0.01,0-0.02-0.01c-0.01,0.04,0.02,0.06,0.03,0.08c-0.03,0-0.08-0.04-0.07-0.09c0,0,0,0,0-0.01
c-0.01-0.01-0.02-0.02-0.02-0.02c-0.05-0.03,0.01-0.07,0.03-0.1c0,0,0-0.01-0.01,0c-0.09,0.06-0.11,0.03-0.11-0.02
c0-0.01-0.01-0.02-0.01-0.03c-0.03,0.01-0.04,0.03-0.05,0.04c-0.02-0.04,0.03-0.09,0.07-0.08c0,0,0.01,0,0.01,0
c0.01-0.01,0.02-0.01,0.03-0.01c0.04-0.02,0.04,0.01,0.08,0.04c0.02,0.01,0.03,0.01,0.05,0.01c0.01,0,0-0.01,0-0.01
c-0.09-0.03-0.09-0.06-0.08-0.08c0,0,0.01-0.02,0.01-0.03c-0.02-0.03-0.03-0.03-0.05-0.03c0.02-0.02,0.07-0.01,0.09,0.01
c0.01,0,0.03,0,0.03,0c0.01,0,0.03,0.02,0.04,0.04c0.02,0.03,0.01,0.05,0.03,0.07c0.04,0.06,0.17,0.01,0.23-0.02
c0.03-0.02,0.18-0.01,0.2-0.01c0.01,0-0.04-0.06-0.03-0.12c-0.04,0.04-0.07-0.02-0.13-0.05c-0.06-0.04-0.1-0.1-0.11-0.1
c-0.01,0-0.02,0.02-0.01,0.03c-0.03,0-0.04-0.03-0.04-0.05c0,0,0-0.01,0-0.01c-0.01,0-0.02,0.01-0.02,0.02
c-0.01,0-0.02-0.02-0.02-0.03c0,0,0-0.01-0.01,0c-0.08,0.05-0.18-0.03-0.12-0.12c-0.01,0.08,0.1,0.1,0.11,0.02
c0-0.01,0-0.01-0.01-0.01c-0.06-0.01-0.06-0.05-0.02-0.09c0,0,0.01-0.01,0-0.01c-0.01,0-0.01-0.01-0.02-0.01
c-0.01-0.01-0.01,0-0.02,0c-0.02,0.01-0.03,0.02-0.04,0.01c0,0-0.01-0.01-0.02-0.02c0,0-0.01,0-0.01,0.01
c-0.02,0.01-0.02,0.03-0.02,0.04c-0.04-0.03-0.03-0.06-0.01-0.08c0-0.01,0-0.02,0-0.03c0-0.03,0.03-0.06,0.1-0.03
c0.01,0,0.01,0,0.01,0c0-0.01,0-0.01,0-0.02c0,0,0-0.01-0.01-0.01c-0.04,0-0.07-0.01-0.06-0.05c0,0,0.01-0.03,0.01-0.04
c-0.01-0.01-0.03-0.02-0.03-0.02c0.05-0.05,0.09-0.02,0.08,0.02c0,0,0,0,0,0.01c0.01,0,0.02,0,0.02,0c0.03,0,0.05,0.05,0.06,0.09
c0,0.01,0,0.01,0.01,0c0-0.01,0-0.02,0-0.02c0-0.01,0-0.01,0-0.01c-0.02-0.02-0.01-0.04,0-0.05c0,0,0.01-0.02,0.02-0.03
c0-0.03-0.02-0.04-0.03-0.05c0.03-0.01,0.07,0.02,0.07,0.05c0,0.01,0.01,0.04,0.01,0.04c0,0.05-0.02,0.09-0.03,0.14
c0,0.06,0,0.09,0.05,0.12c0.05,0.03,0.09,0.08,0.13,0.11l0.04,0.01c-0.01,0-0.02-0.01-0.03-0.01c0.01,0,0.02,0.01,0.02,0.01
c0.01,0,0.01,0,0.02,0l0.06,0.02c0-0.03,0-0.07,0.01-0.11c-0.01,0-0.03-0.01-0.05-0.04c0.03,0,0.05-0.06,0.07-0.12
c-0.01,0-0.02-0.01-0.03-0.04c0.03,0.01,0.07-0.08,0.1-0.08c-0.01-0.04-0.01-0.07,0.01-0.1c0.02,0,0.05,0.01,0.07,0.03
c0-0.02,0.03-0.02,0.05-0.02c0,0,0.04-0.01,0.05-0.01c0.02,0,0.05,0,0.09,0.03c0.04,0.02,0.07,0.05,0.08,0.06
c0.01,0.01,0.02,0.04,0.02,0.05c0.02,0.02,0.03,0.03,0.02,0.05c0.02,0,0.05,0.01,0.07,0.03c0,0.03-0.02,0.06-0.06,0.07
c0.04,0.05-0.03,0.13-0.06,0.19c0.38-0.08,1.02,0.03,1.23,0.03c0.14,0,0.38-0.02,0.38-0.09c0-0.05-0.05-0.07-0.29-0.07
c-0.24,0-1.01,0.17-1.01-0.12c0-0.14,0.16-0.14,0.37-0.13c0.01-0.01,0.02-0.01,0.02-0.02c0.15-0.09,0.39,0.03,0.52-0.05
c-0.01,0.05-0.06,0.09-0.23,0.09c0.28,0.06,0.5-0.15,0.77,0.05c-0.22-0.06-0.66,0.13-1.03,0.02c-0.03-0.01-0.05-0.02-0.06-0.03
c-0.15-0.01-0.28-0.02-0.28,0.06c0,0.16,0.65,0.05,0.94,0.05C25.7,13.37,25.8,13.42,25.8,13.51z M23.5,14.75
c-0.01,0.02-0.02,0.05,0.02,0.07c0.03,0.02,0.05-0.01,0.06-0.03c0.01-0.02,0.01-0.03,0.01-0.04c-0.01-0.01-0.02-0.03-0.01-0.04
c0.01-0.02,0.03-0.01,0.05,0c-0.01-0.02-0.01-0.04,0-0.03c0.02,0,0.02,0.03,0.02,0.03c0.01,0,0-0.02,0-0.03
c0-0.01-0.01-0.02-0.02-0.02l-0.09-0.04c-0.01-0.01-0.02-0.01-0.03,0c-0.01,0.01-0.02,0.01-0.02,0.02c0,0.01,0.03-0.01,0.04,0
c0.01,0.01,0,0.02-0.02,0.03c0.02,0.01,0.04,0.02,0.03,0.04c-0.01,0.02-0.02,0.02-0.04,0.02C23.52,14.71,23.51,14.72,23.5,14.75z
M23.6,14.52c-0.02,0-0.07-0.03-0.09-0.05c0.03,0.05,0,0.05,0.03,0.07C23.56,14.57,23.59,14.55,23.6,14.52z M23.67,14.56
c0,0.03,0.01,0.07,0.04,0.07c0.03,0,0.02-0.02,0.07-0.03C23.75,14.59,23.68,14.57,23.67,14.56z M25.68,14.78
c0,0.1-0.29,0.14-0.44,0.15c0.16,0.01,0.21,0.03,0.3,0.02c0.05-0.01,0.05,0.02,0.06,0.03c0,0.05,0.06,0.02,0.07,0
c0.01,0.04-0.01,0.06-0.02,0.07c-0.01,0,0,0.01,0,0.01c0.01,0.03-0.01,0.07,0.04,0.07c-0.01,0.02-0.03,0.02-0.05,0.02v0c0,0,0,0,0,0
c0.02,0.01,0.03,0.03,0.03,0.04c0,0.07-0.07,0.05-0.07,0.08c0,0.03,0.06,0.03,0.04,0.1c0,0-0.01,0.02-0.02,0.03
c0.01,0.01,0.02,0.02,0.03,0.03c-0.04,0.02-0.07,0-0.08-0.02c-0.01,0-0.02-0.01-0.02-0.01c-0.03-0.01-0.02-0.05-0.01-0.08
c0,0,0-0.01-0.01,0c-0.03,0.02-0.02,0.07-0.05,0.07c0,0-0.01,0-0.02,0c-0.01,0.03-0.01,0.04,0,0.05c-0.02,0-0.04-0.03-0.04-0.06
c-0.01-0.01-0.02-0.01-0.02-0.01c-0.04-0.02,0.01-0.06,0.03-0.08c0.01,0,0-0.01-0.01,0c-0.03,0.03-0.08,0.02-0.08-0.03
c0,0,0-0.01,0-0.01c-0.02,0-0.05,0.02-0.06,0.03c0-0.04,0.03-0.07,0.07-0.07c0,0,0.01-0.02,0.04-0.02c0.04,0,0.09,0.03,0.1,0
c0.01-0.03-0.01-0.03,0.01-0.1c0-0.02-0.01-0.03-0.02-0.03c-0.02,0-0.09-0.02-0.15,0.01c-0.05,0.03-0.09,0.05-0.21,0.05
c-0.07,0-0.12-0.02-0.17-0.04c0.03,0.04,0,0.08,0.03,0.09c0.05,0.03,0.06,0.11,0.04,0.13c-0.01,0.02-0.08,0.03-0.13,0.01
c-0.01,0-0.03,0-0.03,0c-0.05,0.01,0,0.06-0.06,0.08c-0.03,0.01-0.06-0.01-0.07-0.03c0,0-0.01-0.01-0.02-0.01c-0.01,0-0.02,0-0.02,0
c0,0-0.01,0-0.01,0.01c0,0.01,0,0.03-0.01,0.03c0,0-0.01,0-0.02,0.01c0,0.02,0.03,0.02,0.05,0.02c-0.05,0.03-0.1,0-0.09-0.03
c0,0-0.01-0.03-0.01-0.03c0-0.01,0-0.01,0-0.02c0,0,0-0.01-0.01-0.01c0,0,0,0-0.01,0c0,0.01-0.01,0.01-0.01,0.01h-0.02
c0,0.01,0.02,0.03,0.02,0.03c-0.05,0.02-0.07-0.01-0.07-0.04c0-0.01-0.02-0.03-0.02-0.03c-0.02-0.09,0.09-0.04,0.09-0.07
c0-0.01,0-0.01-0.01-0.01c-0.01,0-0.02,0.01-0.04,0.01c-0.03,0-0.03-0.01-0.03-0.03v-0.02c-0.03,0-0.05,0.02-0.06,0.03
c-0.01-0.04,0.04-0.08,0.07-0.08c0.01-0.01,0.02-0.02,0.02-0.02c0.09-0.03,0.09,0.14,0.17,0.09c0.01-0.01,0.04-0.01,0.07-0.02
c0,0,0.01,0,0-0.01c-0.02-0.02-0.07-0.03-0.09-0.04c-0.05-0.01-0.05-0.09-0.03-0.15c-0.02,0.02-0.03,0.03-0.06,0.03
c-0.53-0.05-0.27,0.2-0.72,0.14c-0.03-0.01-0.02,0.06-0.1,0.05c0,0,0,0,0.01,0c-0.01,0-0.03,0.01-0.04,0.01c0,0.01,0,0.02-0.01,0.04
l-0.12,0.06c0,0,0.01-0.01,0.01-0.01c-0.03,0.02-0.08,0.04-0.1,0.04c0.02-0.01,0.03-0.03,0.03-0.04c0-0.01,0-0.01-0.01,0
c-0.08,0.05-0.22-0.01-0.23,0.11c-0.03-0.03-0.01-0.08-0.03-0.08c-0.01,0-0.02,0.02-0.02,0.02c-0.01-0.01-0.01-0.03-0.01-0.05
c0,0,0-0.01-0.01,0c-0.05,0.01-0.08,0.01-0.1,0c0,0,0,0,0,0.01c0-0.01-0.01-0.02-0.02-0.03c-0.01,0.05-0.06,0.08-0.08,0.08
c0.03-0.03,0.03-0.06,0.02-0.08c-0.01,0.02-0.03,0.03-0.03,0.03c0-0.02-0.01-0.04-0.02-0.05c0,0,0,0,0,0c0,0.03-0.02,0.06-0.06,0.07
c-0.05,0-0.06-0.04-0.06-0.06c0-0.01-0.01-0.01-0.01-0.01c-0.02,0.02,0,0.07-0.04,0.08c0,0-0.01,0-0.02-0.01
c0,0.03,0.02,0.06,0.02,0.07c-0.03,0-0.08-0.03-0.07-0.08c0,0,0-0.01,0-0.01c-0.01-0.01-0.02-0.02-0.02-0.02
c-0.04-0.03,0.01-0.06,0.03-0.1c0,0,0-0.01-0.01-0.01c-0.08,0.06-0.1,0.02-0.11-0.02c0,0,0-0.02-0.01-0.03
c-0.03,0.01-0.04,0.03-0.04,0.04c-0.02-0.04,0.03-0.09,0.06-0.08c0,0,0.01,0,0.01,0c0.01,0,0.02-0.01,0.03-0.01
c0.04-0.02,0.04,0.01,0.07,0.04c0.02,0.01,0.03,0.01,0.05,0c0.01,0,0-0.01,0-0.01c-0.08-0.03-0.09-0.05-0.08-0.07
c0,0,0.01-0.02,0.02-0.02c-0.02-0.03-0.03-0.03-0.05-0.03c0.02-0.02,0.07-0.01,0.09,0.01c0.01,0,0.03,0,0.03,0
c0.01,0,0.03,0.01,0.04,0.03c0.02,0.03,0.01,0.04,0.02,0.06c0.04,0.05,0.16,0.01,0.21-0.02c0.03-0.02,0.21-0.01,0.23-0.01
c0.01,0-0.02-0.06-0.03-0.12c-0.01-0.01-0.02-0.02-0.02-0.03c-0.01,0.03-0.04,0.03-0.06,0.03c-0.11-0.06-0.17-0.17-0.18-0.17
c-0.01,0-0.01,0.02-0.01,0.03c-0.03,0-0.04-0.03-0.04-0.05c0,0,0-0.01,0-0.01C23,14.82,23,14.83,23,14.84
c-0.01,0-0.02-0.01-0.03-0.03c0,0,0-0.01-0.01,0c-0.07,0.04-0.18-0.02-0.12-0.11c0,0.08,0.1,0.09,0.1,0.01c0-0.01,0-0.01-0.01-0.01
c-0.06-0.01-0.06-0.05-0.02-0.09c0,0,0-0.01,0-0.01c-0.01-0.01-0.01-0.01-0.02-0.01c-0.01,0-0.01,0-0.02,0
c-0.02,0.01-0.03,0.02-0.03,0.01c0,0-0.01-0.01-0.02-0.02c0,0,0,0-0.01,0c-0.02,0-0.02,0.03-0.02,0.04
c-0.04-0.03-0.04-0.06-0.01-0.08c0-0.01,0-0.02,0-0.02c0-0.03,0.03-0.06,0.09-0.03c0.01,0,0.01,0,0.01,0c0,0,0-0.01,0-0.02
c0,0-0.01-0.01-0.01-0.01c-0.04,0-0.07-0.02-0.06-0.05c0,0,0.01-0.03,0.01-0.04c-0.01-0.01-0.02-0.01-0.03-0.02
c0.04-0.04,0.08-0.01,0.08,0.02c0,0,0,0,0,0.01c0.01,0,0.02,0,0.02,0c0.03,0,0.05,0.05,0.06,0.09c0,0,0,0.01,0.01,0
c0-0.01,0-0.02,0-0.02c0,0,0-0.01,0-0.01c-0.02-0.02-0.01-0.03,0-0.05c0,0,0.01-0.02,0.02-0.03c0-0.03-0.02-0.04-0.03-0.05
c0.02-0.01,0.06,0.02,0.07,0.05c0.01,0.01,0.01,0.04,0.02,0.04c0,0.04-0.02,0.09-0.02,0.14c0,0.06,0,0.08,0.06,0.11
c0.07,0.04,0.1,0.11,0.15,0.12c0.02,0,0.03,0,0.05,0.01c0,0,0.02,0,0.04,0l0.03,0.01c0-0.03,0-0.06,0.01-0.08
c-0.01-0.01-0.02-0.02-0.03-0.03c0.03,0,0.04-0.06,0.07-0.11c-0.01,0-0.02-0.01-0.03-0.04c0.03,0.01,0.06-0.07,0.1-0.08
c-0.01-0.04-0.01-0.07,0.01-0.1c0.02,0,0.05,0.01,0.06,0.03c0-0.02,0.03-0.02,0.05-0.02c0,0,0.04-0.01,0.05-0.01
c0.01,0,0.04,0,0.08,0.02c0.04,0.02,0.07,0.04,0.08,0.05c0.01,0.01,0.01,0.04,0.02,0.05c0.01,0.01,0.03,0.03,0.02,0.05
c0.02,0,0.05,0.01,0.07,0.03c0,0.03-0.02,0.05-0.06,0.07c0.04,0.05-0.05,0.14-0.07,0.2c0.36-0.11,1.26,0.01,1.47,0.01
c0.13,0,0.36-0.02,0.36-0.08c0-0.04-0.05-0.07-0.28-0.07c-0.23,0-1.19,0.16-1.19-0.11c0-0.16,0.32-0.12,0.58-0.12
c0.01-0.01,0.01-0.01,0.02-0.02c0.14-0.09,0.49,0.04,0.61-0.04c-0.01,0.04-0.17,0.07-0.33,0.08c0.27,0.06,0.52-0.15,0.73,0.04
c-0.25-0.09-0.62,0.15-0.98,0.05c-0.03-0.01-0.05-0.02-0.06-0.04c-0.21,0-0.49-0.04-0.49,0.05c0,0.16,0.85,0.05,1.12,0.05
C25.58,14.64,25.68,14.7,25.68,14.78z M27.79,17C27.8,17,27.79,17,27.79,17z M27.38,16.36C27.38,16.36,27.38,16.36,27.38,16.36
C27.38,16.36,27.38,16.36,27.38,16.36z M27.36,16.46L27.36,16.46L27.36,16.46z M27.43,16.58c-0.01,0.02-0.01,0.05,0.02,0.07
c0.03,0.01,0.05-0.01,0.06-0.03c0.01-0.02,0.01-0.04,0.01-0.05c-0.01-0.02-0.02-0.03-0.01-0.04c0.01-0.02,0.03-0.01,0.05,0
c-0.01-0.02-0.01-0.03,0-0.03c0.02,0,0.02,0.03,0.02,0.03c0.01,0,0.01-0.02,0.01-0.03c0-0.01-0.01-0.02-0.02-0.03l-0.09-0.04
c-0.01,0-0.02-0.01-0.03,0c-0.01,0.01-0.02,0.02-0.02,0.03c0,0.01,0.02-0.01,0.03,0c0.01,0.01,0,0.02-0.02,0.03
c0.02,0.01,0.04,0.02,0.03,0.04c-0.01,0.02-0.02,0.02-0.03,0.02C27.45,16.55,27.44,16.56,27.43,16.58z M27.54,16.36
c-0.02,0-0.07-0.03-0.09-0.05c0.03,0.05,0,0.05,0.02,0.08C27.49,16.41,27.52,16.39,27.54,16.36z M27.6,16.39
c-0.01,0.03,0.01,0.07,0.04,0.07c0.03,0,0.02-0.02,0.07-0.03C27.68,16.43,27.62,16.41,27.6,16.39z M29.58,16.91
c0.01,0.03-0.01,0.07,0.04,0.07c-0.01,0.03-0.03,0.02-0.05,0.02h0c0,0,0,0,0,0.01c0.02,0.01,0.03,0.03,0.02,0.04
c-0.01,0.07-0.07,0.05-0.07,0.08c0,0.03,0.06,0.03,0.03,0.09c0,0-0.01,0.02-0.02,0.03c0,0.01,0.02,0.02,0.03,0.03
c-0.04,0.02-0.07,0-0.07-0.02c-0.01,0-0.02,0-0.02-0.01c-0.03-0.01-0.02-0.05-0.01-0.08c0,0,0,0-0.01,0
c-0.03,0.02-0.02,0.07-0.05,0.07h-0.02c-0.02,0.03-0.01,0.04-0.01,0.05c-0.02-0.01-0.04-0.03-0.04-0.06c-0.01,0-0.02-0.01-0.02-0.01
c-0.04-0.02,0.01-0.06,0.04-0.08c0.01-0.01-0.01-0.01-0.01-0.01c-0.03,0.03-0.08,0.02-0.08-0.03v-0.01c-0.03,0-0.05,0.02-0.06,0.03
c0-0.04,0.04-0.06,0.07-0.07c0,0,0.02-0.02,0.04-0.02c0.04,0,0.09,0.02,0.1,0c0.02-0.03,0-0.04,0.02-0.1
c0.01-0.02-0.01-0.03-0.02-0.03c-0.02,0-0.09-0.02-0.15,0.02c-0.06,0.03-0.1,0.05-0.22,0.05c-0.07,0-0.12-0.02-0.17-0.04
c0.03,0.04,0,0.08,0.03,0.09c0.05,0.03,0.06,0.11,0.04,0.13c-0.01,0.02-0.08,0.02-0.12,0.01c-0.01,0-0.03,0-0.04,0
c-0.05,0.01,0,0.06-0.06,0.08c-0.03,0.01-0.06-0.01-0.07-0.03c0,0,0-0.01-0.02-0.01c-0.01,0-0.02,0-0.02,0c0,0-0.01,0-0.01,0.01
c0,0.02,0,0.03-0.01,0.03c0,0-0.01,0.01-0.02,0.01c0.01,0.02,0.03,0.02,0.05,0.02c-0.05,0.03-0.1,0-0.09-0.03
c0,0-0.01-0.03-0.01-0.03c0-0.01,0.01-0.01,0.01-0.02c0,0,0-0.01-0.01-0.01c0,0,0,0,0,0c0,0.01-0.01,0.01-0.01,0.01
c0,0-0.01,0-0.02,0c0,0.01,0.01,0.03,0.02,0.03c-0.05,0.02-0.07-0.01-0.07-0.04c-0.01-0.01-0.02-0.03-0.02-0.03
c-0.02-0.09,0.09-0.04,0.09-0.07c0-0.01,0-0.01-0.01-0.01c-0.01,0-0.02,0.01-0.03,0.01c-0.03,0-0.04-0.01-0.03-0.03v-0.02
c-0.03,0-0.05,0.02-0.06,0.03c-0.01-0.03,0.04-0.08,0.07-0.08c0-0.01,0.02-0.02,0.02-0.02c0.09-0.03,0.09,0.14,0.17,0.09
c0.01-0.01,0.04-0.02,0.07-0.02c0,0,0.01,0,0-0.01c-0.02-0.02-0.07-0.03-0.09-0.04c-0.06-0.01-0.05-0.12-0.03-0.17
c-0.02,0.02-0.03,0.05-0.06,0.05c-0.53-0.05-0.27,0.2-0.72,0.14c-0.03,0-0.02,0.06-0.1,0.06c-0.04,0.01-0.08,0.01-0.08,0.02
c0,0.05-0.11,0.12-0.14,0.09c0.02-0.01,0.03-0.03,0.03-0.04c0-0.01,0-0.01-0.01-0.01c-0.08,0.05-0.14,0-0.15,0.12
c-0.03-0.03-0.01-0.08-0.03-0.08c-0.01,0-0.02,0.02-0.02,0.03c-0.01-0.01-0.01-0.03-0.01-0.05c0,0,0-0.01-0.01,0
c-0.05,0.01-0.08,0.01-0.1,0c0,0,0,0,0,0c0-0.01-0.01-0.02-0.02-0.03c-0.01,0.05-0.06,0.08-0.08,0.08c0.03-0.03,0.03-0.06,0.02-0.08
c-0.01,0.02-0.03,0.03-0.04,0.04c0.01-0.02-0.01-0.04-0.02-0.05c0,0-0.01,0-0.01,0c0.01,0.02-0.02,0.06-0.06,0.07
c-0.05,0.01-0.06-0.04-0.06-0.06c0-0.01-0.01-0.01-0.01-0.01c-0.02,0.02-0.01,0.06-0.04,0.08c0,0-0.02,0-0.02-0.01
c-0.01,0.03,0.01,0.06,0.03,0.07c-0.03,0-0.08-0.03-0.07-0.08c0,0,0-0.01,0-0.01c-0.01-0.01-0.02-0.01-0.02-0.02
c-0.04-0.03,0.02-0.06,0.03-0.1c0,0,0.01-0.01-0.01,0c-0.08,0.06-0.1,0.02-0.11-0.02c0,0-0.01-0.02-0.01-0.03
c-0.03,0-0.04,0.03-0.04,0.04C26.67,17.05,26.72,17,26.76,17c0,0,0,0,0.01,0c0.01,0,0.02-0.01,0.03-0.01
c0.04-0.02,0.04,0.02,0.07,0.04c0.02,0.02,0.03,0.01,0.04,0.01c0.01,0,0-0.01-0.01-0.01c-0.08-0.03-0.08-0.05-0.07-0.07
c0,0,0.01-0.01,0.01-0.03c-0.02-0.03-0.03-0.03-0.05-0.03c0.02-0.02,0.06-0.01,0.08,0.01c0.01,0,0.03,0,0.03,0
c0.01,0,0.03,0.01,0.04,0.03c0.02,0.03,0.01,0.04,0.03,0.06c0.04,0.05,0.16,0.01,0.22-0.02c0.04-0.02,0.14-0.01,0.16-0.01
c0.01,0-0.05-0.06-0.04-0.11l-0.02,0.01c-0.02-0.01-0.03-0.03-0.04-0.05c-0.02,0.01-0.07,0.03-0.07,0.04
c-0.11-0.06-0.16-0.18-0.18-0.18c-0.01,0-0.01,0.01-0.01,0.03c-0.03,0-0.04-0.03-0.04-0.05c0,0,0-0.01-0.01-0.01
c-0.01,0-0.02,0.01-0.02,0.02c-0.01,0-0.02-0.01-0.02-0.03c0,0,0-0.01-0.01,0c-0.07,0.04-0.17-0.02-0.12-0.11
c0,0.08,0.1,0.09,0.1,0.02c0-0.01,0-0.01-0.01-0.01c-0.06-0.01-0.06-0.05-0.02-0.09c0,0,0-0.01,0-0.01c-0.01,0-0.01-0.01-0.02-0.01
c-0.01,0-0.01,0-0.02,0c-0.02,0.01-0.03,0.02-0.04,0.01c0,0-0.01-0.01-0.02-0.01c0,0-0.01,0-0.01,0c-0.02,0-0.01,0.03-0.01,0.04
c-0.04-0.03-0.04-0.06-0.02-0.08c0-0.01,0-0.02,0-0.02c0-0.03,0.03-0.06,0.09-0.03c0,0,0.01,0,0.01,0c0,0,0-0.01,0-0.02
c0,0,0-0.01-0.01-0.01c-0.04,0-0.06-0.01-0.06-0.05c0,0,0.01-0.03,0.01-0.04c-0.01-0.01-0.02-0.01-0.03-0.02
c0.04-0.04,0.08-0.01,0.08,0.02c0,0,0,0.01,0,0.01c0.01,0,0.02,0,0.02,0c0.03,0,0.05,0.05,0.06,0.09c0,0,0,0.01,0,0
c0-0.01,0.01-0.02,0.01-0.02c0,0,0-0.01-0.01-0.01c-0.01-0.02-0.01-0.03,0-0.05c0,0,0.01-0.01,0.02-0.03c0-0.03-0.02-0.04-0.03-0.05
c0.02-0.01,0.06,0.02,0.07,0.05c0.01,0.01,0.01,0.04,0.01,0.04c0,0.04-0.02,0.08-0.02,0.13c0,0.06,0,0.08,0.06,0.12
c0.07,0.04,0.11,0.11,0.15,0.12c0.02,0,0.03,0.01,0.04,0.01c0,0,0.03,0,0.04,0l0.05,0.02c0-0.02,0-0.05,0.01-0.08
c-0.01,0-0.03-0.02-0.05-0.04c0.03,0,0.04-0.06,0.07-0.11c-0.01,0-0.02-0.01-0.03-0.04c0.03,0.01,0.06-0.07,0.1-0.07
c-0.01-0.04-0.01-0.07,0.01-0.1c0.02,0,0.05,0.01,0.06,0.03c0-0.02,0.03-0.02,0.04-0.02c0,0,0.04-0.01,0.05-0.01
c0.02,0,0.04,0,0.08,0.02c0.04,0.02,0.07,0.04,0.08,0.06c0.01,0.01,0.02,0.04,0.02,0.05c0.01,0.01,0.03,0.03,0.02,0.05
c0.02,0,0.05,0.01,0.07,0.03c0,0.03-0.02,0.06-0.06,0.07c0.04,0.05-0.05,0.14-0.07,0.2c0.36-0.11,1.25,0.01,1.47,0.01
c0.13,0,0.36-0.02,0.36-0.08c0-0.04-0.05-0.07-0.28-0.07c-0.23,0-1.19,0.16-1.19-0.12c0-0.15,0.32-0.12,0.58-0.12
c0.01-0.01,0.02-0.01,0.02-0.02c0.14-0.09,0.49,0.04,0.61-0.04c-0.01,0.04-0.17,0.08-0.33,0.08c0.27,0.06,0.44-0.11,0.72-0.02
c-0.21-0.06-0.62,0.2-0.97,0.1c-0.03-0.01-0.05-0.02-0.06-0.04c-0.21-0.01-0.49-0.05-0.49,0.05c0,0.15,0.84,0.05,1.12,0.05
c0.27,0,0.37,0.05,0.37,0.14c0,0.1-0.29,0.13-0.45,0.14c-0.02,0-0.01,0.01,0,0.01c0.16,0.01,0.24,0.03,0.32,0.02
c0.05-0.01,0.05,0.02,0.05,0.03c0,0.05,0.06,0.02,0.08,0C29.62,16.86,29.6,16.89,29.58,16.91C29.58,16.9,29.58,16.9,29.58,16.91z
M27.6,17.68c0.03,0,0.02-0.02,0.07-0.03c-0.03-0.01-0.09-0.03-0.1-0.04C27.55,17.64,27.57,17.68,27.6,17.68z M27.55,17.74
c0.01,0,0.01-0.02,0.01-0.03c0-0.01-0.01-0.02-0.02-0.02l-0.08-0.04c-0.01-0.01-0.02-0.01-0.02,0c-0.01,0.01-0.02,0.01-0.02,0.02
c0,0.01,0.02-0.01,0.03,0c0.01,0.01,0,0.02-0.02,0.02c0.02,0.01,0.04,0.02,0.03,0.04c-0.01,0.02-0.02,0.02-0.03,0.02
c-0.01,0-0.02,0.01-0.03,0.03c-0.01,0.02-0.01,0.05,0.02,0.06c0.03,0.02,0.05-0.01,0.06-0.03c0.01-0.02,0.01-0.03,0.01-0.04
c-0.01-0.01-0.02-0.03-0.01-0.04c0.01-0.02,0.03-0.01,0.05,0c-0.01-0.02-0.01-0.03,0-0.03C27.54,17.72,27.54,17.74,27.55,17.74z
M27.5,17.58c-0.02,0-0.06-0.03-0.09-0.05c0.03,0.04,0,0.05,0.02,0.07C27.46,17.63,27.48,17.61,27.5,17.58z M28.35,17.6
c-0.14-0.01-0.25-0.01-0.25,0.06c0,0.15,0.59,0.05,0.85,0.05c0.26,0,0.28,0.05,0.28,0.13c0,0.1-0.31,0.12-0.46,0.13
c-0.02,0-0.01,0.01,0,0.01c0.15,0.02,0.26,0.03,0.34,0.02c0.05-0.01,0.04,0.02,0.04,0.02c0,0.04,0.05,0.02,0.07,0
c0,0.04-0.02,0.06-0.04,0.07c0,0,0,0.01,0,0.01c0,0.03-0.02,0.07,0.02,0.06c-0.02,0.03-0.03,0.02-0.05,0.02h0c0,0,0,0,0,0
c0.02,0.01,0.02,0.03,0.02,0.04c-0.02,0.07-0.08,0.04-0.08,0.07c-0.01,0.03,0.05,0.03,0.01,0.09c0,0-0.02,0.02-0.03,0.03
c0,0.01,0.02,0.02,0.03,0.03c-0.04,0.02-0.07,0-0.07-0.02c-0.01,0-0.02-0.01-0.02-0.01c-0.02-0.01-0.01-0.05,0.01-0.08c0,0,0,0,0,0
c-0.03,0.02-0.04,0.07-0.06,0.07c0,0-0.01,0-0.02,0c-0.02,0.03-0.02,0.04-0.02,0.05c-0.02,0-0.03-0.03-0.02-0.06
c-0.01-0.01-0.02-0.01-0.02-0.01c-0.03-0.02,0.02-0.05,0.05-0.07c0.01-0.01,0-0.01-0.01-0.01c-0.03,0.03-0.07,0.01-0.07-0.03
c0,0,0-0.01,0-0.01c-0.03,0-0.05,0.02-0.06,0.03c0.01-0.03,0.05-0.06,0.08-0.07c0,0,0.02-0.02,0.04-0.01c0.03,0,0.08,0.02,0.1,0
c0.02-0.03,0-0.03,0.03-0.09c0.01-0.02,0-0.03-0.01-0.03c-0.02,0-0.08-0.02-0.15,0.02c-0.06,0.03-0.12,0.05-0.23,0.05
c-0.07,0-0.12-0.02-0.16-0.04c0.03,0.04,0,0.08,0.02,0.09c0.05,0.03,0.06,0.11,0.04,0.13c-0.01,0.02-0.08,0.02-0.12,0.01
c-0.01-0.01-0.03,0-0.03,0c-0.05,0.01,0,0.06-0.05,0.08c-0.03,0.01-0.06-0.01-0.06-0.03c0,0-0.01-0.01-0.02-0.01
c-0.01,0-0.02,0-0.02,0c0,0-0.01,0-0.01,0.01c0,0.01,0,0.03-0.01,0.03c0,0-0.01,0.01-0.02,0.01c0,0.02,0.03,0.02,0.05,0.03
c-0.05,0.03-0.09,0-0.09-0.03c0,0-0.01-0.03-0.01-0.03c0-0.01,0.01-0.01,0.01-0.02c0,0,0-0.01-0.01-0.01c0,0-0.01,0-0.01,0.01
c0,0.01-0.01,0.01-0.01,0.01c0,0-0.01,0-0.02,0c0,0.01,0.01,0.03,0.02,0.03c-0.05,0.02-0.07-0.01-0.06-0.04
c-0.01,0-0.01-0.02-0.02-0.03c-0.02-0.08,0.08-0.04,0.08-0.07c0-0.01,0-0.01-0.01-0.01c-0.01,0-0.01,0.01-0.03,0.01
c-0.03,0-0.03-0.01-0.03-0.03c0,0,0-0.01,0-0.02c-0.03,0-0.04,0.02-0.05,0.03c-0.01-0.04,0.04-0.07,0.07-0.07
c0.01-0.01,0.02-0.01,0.02-0.02c0.08-0.03,0.09,0.14,0.16,0.08c0.01-0.01,0.04-0.02,0.07-0.02c0,0,0.01,0,0-0.01
c-0.02-0.02-0.06-0.03-0.09-0.04c-0.05-0.01-0.05-0.11-0.02-0.16c-0.02,0.02-0.06,0.04-0.09,0.04c-0.37-0.06-0.19,0.15-0.42,0.13
c-0.03,0-0.02,0.06-0.1,0.05c0.02-0.01,0.02-0.02,0.01-0.03c-0.01,0.01-0.01,0.02-0.02,0.02c-0.02,0.06-0.1,0.17-0.18,0.12
c0.02-0.01,0.03-0.02,0.03-0.04c0-0.01,0-0.01-0.01,0c-0.07,0.05-0.17,0.02-0.18,0.13c-0.03-0.03-0.02-0.07-0.03-0.07
c-0.01,0-0.02,0.02-0.02,0.03c-0.01-0.01-0.01-0.03-0.01-0.05c0,0,0-0.01-0.01,0c-0.05,0.01-0.08,0.01-0.09,0c0,0,0,0-0.01,0
c0-0.01-0.01-0.02-0.02-0.03c-0.01,0.05-0.06,0.07-0.07,0.08c0.03-0.03,0.03-0.06,0.02-0.08c-0.01,0.02-0.02,0.03-0.03,0.03
c0-0.02-0.01-0.04-0.02-0.05c-0.01,0-0.01,0-0.01,0c0.01,0.02-0.02,0.06-0.06,0.07c-0.05,0-0.05-0.04-0.06-0.06
c0-0.01,0-0.01-0.01,0c-0.02,0.02,0,0.06-0.04,0.08c0,0-0.01,0-0.02-0.01c0,0.03,0.01,0.06,0.03,0.07c-0.03,0-0.07-0.03-0.07-0.08
c0,0,0-0.01,0-0.01c-0.01-0.01-0.02-0.01-0.02-0.01c-0.04-0.03,0.01-0.06,0.03-0.1c0,0,0-0.01-0.01,0c-0.08,0.05-0.1,0.02-0.1-0.02
c0,0,0-0.01-0.01-0.02c-0.02,0-0.04,0.02-0.04,0.04c-0.02-0.04,0.03-0.08,0.06-0.08c0.01,0,0.01,0,0.01,0
c0.01-0.01,0.02-0.01,0.02-0.01c0.04-0.02,0.04,0.01,0.07,0.04c0.02,0.01,0.03,0.01,0.04,0.01c0.01,0,0-0.01,0-0.01
c-0.08-0.03-0.08-0.05-0.07-0.07c0,0,0.01-0.02,0.01-0.02c-0.01-0.02-0.03-0.03-0.05-0.03c0.02-0.02,0.06-0.01,0.08,0.01h0.03
c0.01,0,0.03,0.01,0.04,0.03c0.02,0.03,0.01,0.04,0.02,0.06c0.03,0.05,0.15,0.01,0.2-0.02c0.03-0.02,0.13-0.01,0.15-0.01
c0.01,0,0-0.08,0-0.13l-0.06,0.01c-0.02-0.01-0.03-0.02-0.03-0.03c-0.09-0.05-0.09-0.02-0.1-0.02c-0.01,0-0.01,0.02-0.01,0.03
c-0.03,0-0.03-0.03-0.03-0.05c0,0,0-0.01-0.01-0.01c-0.01,0-0.02,0.01-0.02,0.02c-0.01,0-0.02-0.01-0.02-0.03c0,0,0-0.01-0.01,0
c-0.07,0.04-0.17-0.02-0.12-0.11c0,0.07,0.09,0.09,0.1,0.02c0-0.01,0-0.01-0.01-0.02c-0.05-0.01-0.06-0.05-0.02-0.08
c0,0,0-0.01,0-0.01c-0.01,0-0.01-0.01-0.02-0.01c-0.01,0-0.01,0-0.01,0c-0.02,0.01-0.03,0.01-0.03,0.01c0,0-0.01-0.01-0.02-0.02
c0,0-0.01,0-0.01,0.01c-0.02,0-0.01,0.03-0.01,0.03c-0.04-0.02-0.03-0.05-0.01-0.07c0-0.01,0-0.02,0-0.03
c0-0.03,0.03-0.05,0.09-0.03c0,0,0.01,0,0.01,0c0-0.01,0-0.01,0-0.01c0-0.01,0-0.01-0.01-0.01c-0.04,0-0.06-0.01-0.06-0.05
c0,0,0.01-0.02,0.01-0.03c-0.01-0.01-0.02-0.01-0.03-0.02c0.04-0.04,0.08-0.01,0.08,0.02c0,0,0,0,0,0.01c0.01,0,0.02,0,0.02,0
c0.03,0,0.04,0.05,0.06,0.08c0,0,0.01,0.01,0.01,0c0-0.01,0-0.02,0-0.02c0,0,0-0.01,0-0.01c-0.02-0.01-0.01-0.03,0-0.05
c0,0,0.01-0.01,0.02-0.03c0-0.02-0.02-0.04-0.03-0.04c0.02-0.01,0.06,0.02,0.07,0.04c0,0.01,0.01,0.04,0.01,0.04
c0,0.04-0.02,0.08-0.02,0.13c0,0.05,0,0.08,0.05,0.11c0.07,0.04,0.09,0.03,0.14,0.04c0,0,0.01,0,0.01,0l0.03,0.01
c0-0.03,0.01-0.07,0.02-0.1c-0.01-0.01-0.02-0.02-0.03-0.03c0.03,0,0.04-0.06,0.07-0.11c-0.01,0-0.02-0.01-0.03-0.03
c0.03,0.01,0.06-0.07,0.09-0.07c-0.01-0.04,0-0.06,0.01-0.09c0.02,0,0.04,0.01,0.06,0.03c0-0.02,0.02-0.02,0.04-0.02
c0.01,0,0.04-0.01,0.05-0.01c0.02,0,0.04,0,0.08,0.02c0.04,0.02,0.06,0.04,0.08,0.05c0.01,0.01,0.02,0.04,0.02,0.04
c0.01,0.01,0.02,0.03,0.02,0.05c0.02,0,0.05,0.01,0.06,0.03c0,0.03-0.02,0.05-0.05,0.07c0.03,0.04-0.03,0.12-0.06,0.17
c0.35-0.07,0.92,0.03,1.11,0.03c0.13,0,0.38-0.02,0.38-0.08c0-0.04,0.02-0.07-0.19-0.07c-0.22,0-0.92,0.15-0.92-0.11
c0-0.12,0.15-0.12,0.34-0.12c0.01-0.01,0.01-0.01,0.02-0.02c0.14-0.08,0.46,0.04,0.58-0.04c-0.01,0.04-0.16,0.07-0.31,0.07
c0.25,0.05,0.42-0.11,0.69-0.02c-0.2-0.06-0.59,0.19-0.92,0.1C28.37,17.63,28.36,17.62,28.35,17.6z M27.29,19.02
c-0.01,0.02-0.01,0.05,0.02,0.06c0.03,0.02,0.05-0.01,0.06-0.03c0.01-0.02,0.01-0.03,0.01-0.04c-0.01-0.01-0.02-0.02-0.01-0.04
c0.01-0.02,0.03-0.01,0.05,0c-0.01-0.02-0.01-0.03,0-0.03c0.01,0,0.01,0.03,0.02,0.03c0.01,0,0.01-0.02,0.01-0.03
c0-0.01-0.01-0.02-0.02-0.02l-0.08-0.04c-0.01,0-0.02-0.01-0.03,0c0,0.01-0.02,0.01-0.01,0.02c0,0.01,0.02-0.01,0.03,0
c0.01,0.01,0,0.02-0.02,0.02c0.02,0.01,0.03,0.02,0.03,0.04c-0.01,0.02-0.02,0.02-0.03,0.02C27.31,18.99,27.3,19,27.29,19.02z
M27.38,18.82c-0.02,0-0.06-0.03-0.09-0.05c0.02,0.04,0,0.05,0.02,0.07C27.34,18.86,27.37,18.84,27.38,18.82z M27.44,18.85
c-0.01,0.02,0.01,0.06,0.03,0.06c0.03,0,0.02-0.02,0.06-0.02C27.51,18.88,27.45,18.86,27.44,18.85z M28.07,18.82
c-0.07,0.02-0.12,0.05-0.12,0.1c0,0.14,0.87-0.07,0.88,0.13c0.01,0.09-0.18,0.18-0.47,0.17c-0.01,0-0.05,0-0.08,0
c0,0.07,0.1,0.07,0.14,0.13c0.02,0.03,0.01,0.06-0.04,0.08c-0.04,0.02,0.02,0.05,0.05,0.05c-0.02,0.03-0.04,0.03-0.06,0.03
c-0.01,0-0.01,0-0.01,0c-0.01,0.02-0.05,0.04-0.02,0.07c-0.02,0.01-0.03,0-0.04-0.02v0c0,0,0,0,0,0.01c0.01,0.02,0,0.04-0.01,0.04
c-0.05,0.04-0.07-0.01-0.09,0.01c-0.02,0.02,0.02,0.05-0.04,0.08c0,0-0.02,0-0.03,0c-0.01,0.01,0,0.03,0,0.04
c-0.04-0.01-0.04-0.04-0.03-0.07c0-0.01-0.01-0.02-0.01-0.02c-0.01-0.02,0.02-0.04,0.04-0.06c0,0,0,0,0-0.01
c-0.03-0.01-0.06,0.03-0.08,0.02c0,0-0.01-0.01-0.01-0.02C28,19.62,28,19.62,27.99,19.64c-0.01-0.02-0.01-0.05,0.01-0.06
c0-0.01-0.01-0.02-0.01-0.02c-0.01-0.03,0.04-0.03,0.07-0.03c0.01,0,0.01,0,0.01-0.01c0,0,0,0-0.01,0h0h0
c-0.01-0.01-0.02-0.02-0.01-0.03c0,0,0-0.01,0-0.01c-0.02-0.01-0.04,0-0.06,0c0.01-0.03,0.05-0.04,0.08-0.03c0,0,0.02-0.01,0.04,0
c0.02,0.01,0.03,0.03,0.05,0.05l0,0c0.03-0.01,0.02-0.03,0.07-0.06c0.02-0.01,0.01-0.02,0.01-0.03c-0.01-0.01-0.07-0.05-0.13-0.06
c-0.03,0.05-0.22,0.02-0.28,0c0.13,0.08,0.06,0.24,0.09,0.26c0.04,0.03,0.05,0.1,0.04,0.12c-0.01,0.02-0.04,0.01-0.09,0
c-0.01,0-0.02,0-0.03,0c-0.04,0.01,0,0.06-0.05,0.07c-0.03,0.01-0.05-0.01-0.06-0.02c0-0.01-0.01-0.01-0.01-0.01h-0.02
c0,0-0.01,0-0.01,0.01c0,0.01,0,0.02-0.01,0.03c0,0-0.01,0.01-0.02,0.01c0,0.02,0.03,0.02,0.04,0.02c-0.04,0.03-0.09,0-0.08-0.03
c0,0-0.01-0.02-0.01-0.02c0-0.01,0.01-0.02,0.01-0.02c0,0,0,0-0.01-0.01c0,0,0,0,0,0c0,0.01-0.01,0.01-0.01,0.01c0,0-0.01,0-0.02,0
c0,0.02,0.01,0.03,0.02,0.03c-0.04,0.01-0.06-0.01-0.06-0.04c0-0.01-0.01-0.02-0.01-0.03c-0.02-0.08,0.08-0.03,0.08-0.07
c0-0.01-0.01-0.01-0.01-0.01c-0.01,0-0.02,0.01-0.03,0.01c-0.03,0-0.03-0.01-0.03-0.02v-0.02c-0.02,0-0.04,0.02-0.05,0.03
c-0.01-0.03,0.03-0.07,0.07-0.07c0,0,0.02-0.02,0.02-0.02c0.08-0.03,0.08,0.13,0.15,0.08c0.01-0.01,0.04-0.02,0.07-0.02
c0,0,0.01,0,0-0.01c-0.02-0.02-0.08-0.07-0.08-0.12c0-0.04,0.01-0.11,0.03-0.13c-0.09,0.01-0.13,0.07-0.22,0.08
c-0.01,0-0.02,0-0.03,0c-0.01,0.13-0.06,0.17-0.06,0.19c0,0.04-0.08,0.08-0.1,0.07c0.02-0.01,0.02-0.02,0.03-0.03
c0-0.01,0-0.01-0.01-0.01c-0.07,0.04-0.13,0-0.14,0.11c-0.03-0.03-0.01-0.07-0.02-0.07c-0.01,0-0.02,0.02-0.02,0.02
c-0.01-0.01-0.01-0.03,0-0.04c0,0,0-0.01-0.01-0.01c-0.04,0.01-0.07,0.01-0.09,0c0,0,0,0,0,0c0-0.01-0.01-0.02-0.02-0.02
c-0.01,0.05-0.05,0.07-0.07,0.07c0.03-0.03,0.03-0.05,0.02-0.07c-0.01,0.02-0.02,0.03-0.03,0.03c0.01-0.02-0.01-0.04-0.02-0.05
c0,0-0.01,0,0,0c0,0.02-0.02,0.06-0.06,0.06c-0.04,0-0.05-0.04-0.05-0.06c0-0.01,0-0.01-0.01,0c-0.02,0.01,0,0.06-0.04,0.07
c0,0-0.02,0-0.02-0.01c-0.01,0.03,0.01,0.05,0.02,0.06c-0.02,0-0.07-0.03-0.06-0.07c0,0,0-0.01,0-0.01c-0.01,0-0.01-0.01-0.02-0.01
c-0.04-0.03,0.01-0.06,0.03-0.09c0,0,0-0.01-0.01-0.01c-0.07,0.05-0.09,0.02-0.1-0.02c0,0-0.01-0.01-0.01-0.02
c-0.02,0.01-0.03,0.02-0.04,0.03c-0.02-0.04,0.03-0.08,0.06-0.08c0,0,0.01,0,0.01,0c0.01,0,0.02-0.01,0.02-0.01
c0.04-0.02,0.04,0.01,0.07,0.03c0.01,0.01,0.03,0.01,0.04,0c0.01,0,0-0.01-0.01-0.01c-0.07-0.03-0.08-0.05-0.07-0.06
c0,0,0.01-0.02,0.01-0.02c-0.01-0.02-0.03-0.03-0.04-0.03c0.02-0.01,0.06-0.01,0.08,0.01c0.01,0,0.03,0,0.03,0
c0.01,0,0.03,0.01,0.04,0.03c0.01,0.03,0.01,0.04,0.02,0.06c0.02,0.02,0.05,0.02,0.08,0.02c0,0,0,0.01-0.01,0.01l0.01-0.01
c0.04-0.01,0.09-0.02,0.11-0.04c0.03-0.02,0.15,0,0.17,0c0.01,0-0.02-0.04-0.03-0.08c-0.05,0.01-0.1-0.03-0.12-0.09
c-0.1-0.06-0.09-0.17-0.1-0.17c-0.01,0-0.01,0.01-0.01,0.03c-0.03,0-0.03-0.03-0.03-0.05c0,0,0-0.01-0.01-0.01
c-0.01,0-0.02,0.01-0.02,0.02c-0.02,0-0.02-0.01-0.02-0.02c0,0,0-0.01-0.01,0c-0.07,0.04-0.16-0.02-0.11-0.1
c0,0.07,0.09,0.08,0.09,0.01c0-0.01,0-0.01-0.01-0.01c-0.05-0.01-0.06-0.05-0.02-0.08c0,0,0-0.01,0-0.01
c-0.01,0-0.01-0.01-0.02-0.01c0,0-0.01,0-0.01,0c-0.02,0.01-0.03,0.02-0.04,0.01c0,0-0.01-0.01-0.01-0.02c0,0-0.01,0-0.01,0
c-0.01,0-0.01,0.02-0.01,0.04c-0.04-0.02-0.03-0.05-0.01-0.07c0-0.01,0-0.02,0-0.02c0-0.02,0.02-0.05,0.08-0.03c0,0,0,0,0,0
c0,0,0-0.01,0-0.01c0-0.01-0.01-0.01-0.01-0.01c-0.03,0-0.06-0.02-0.06-0.05c0,0,0-0.02,0.01-0.03c0-0.01-0.02-0.01-0.03-0.01
c0.04-0.04,0.07-0.01,0.07,0.02c0,0,0,0,0,0.01c0.01,0,0.02,0,0.02,0c0.03,0,0.04,0.05,0.05,0.08c0,0.01,0,0.01,0.01,0
c0-0.01,0-0.01,0-0.02c0,0,0-0.01,0-0.01c-0.01-0.01-0.01-0.03,0-0.04c0,0,0.01-0.01,0.02-0.02c0-0.03-0.02-0.03-0.03-0.04
c0.02,0,0.06,0.01,0.07,0.04c0.01,0.01,0.01,0.04,0.01,0.04c0,0.04-0.02,0.08-0.02,0.12c0,0.05,0,0.07,0.05,0.1
c0.05,0.03,0.13,0.16,0.18,0.21c-0.01-0.06,0-0.14,0.02-0.21c-0.01,0-0.02-0.01-0.03-0.03c0.03,0,0.04-0.05,0.06-0.1
c-0.01,0-0.02-0.01-0.03-0.03c0.03,0.01,0.06-0.07,0.09-0.07c-0.01-0.04-0.01-0.06,0.01-0.09c0.02,0,0.04,0.01,0.06,0.03
c0-0.02,0.02-0.02,0.04-0.02c0,0,0.04-0.01,0.04-0.01c0.02,0.01,0.04,0.01,0.08,0.02c0.04,0.02,0.06,0.04,0.07,0.05
c0.01,0,0.02,0.04,0.02,0.04c0.01,0.01,0.02,0.03,0.02,0.05c0.02,0,0.04,0.01,0.06,0.03c0,0.03-0.02,0.05-0.05,0.06
c0.03,0.04-0.04,0.14-0.07,0.2v0c0.37-0.09,0.67,0.02,0.84,0.02c0.22,0,0.39-0.06,0.39-0.12c0-0.08-0.86,0.1-0.86-0.12
c0-0.08,0.09-0.13,0.19-0.16c0.01-0.01,0.02-0.02,0.03-0.03c0.14-0.08,0.46,0.04,0.58-0.03c-0.01,0.04-0.17,0.07-0.31,0.07
c0.25,0.05,0.42-0.11,0.69-0.02c-0.21-0.06-0.59,0.2-0.93,0.1C28.1,18.85,28.08,18.84,28.07,18.82z M13.99,3.59
c0-0.12-0.09-0.21-0.21-0.21c-0.11,0-0.21,0.1-0.21,0.21c0,0.12,0.09,0.21,0.21,0.21C13.9,3.8,13.99,3.71,13.99,3.59z M13.92,3.03
c0-0.12-0.09-0.21-0.21-0.21c-0.11,0-0.21,0.09-0.21,0.21c0,0.12,0.09,0.21,0.21,0.21C13.83,3.24,13.92,3.14,13.92,3.03z
M14.04,2.78c0.12,0,0.21-0.09,0.21-0.21s-0.1-0.21-0.21-0.21c-0.12,0-0.21,0.1-0.21,0.21S13.92,2.78,14.04,2.78z M14.6,2.74
c0.12,0,0.21-0.09,0.21-0.21c0-0.12-0.09-0.21-0.21-0.21c-0.12,0-0.21,0.1-0.21,0.21C14.39,2.65,14.48,2.74,14.6,2.74z M16.99,2.35
c0.08,0.08,0.22,0.08,0.3,0c0.08-0.08,0.08-0.22,0-0.3c-0.08-0.08-0.22-0.08-0.3,0C16.91,2.13,16.91,2.27,16.99,2.35z M16.95,1.9
c0.08-0.08,0.08-0.22,0-0.3c-0.08-0.08-0.22-0.08-0.3,0c-0.08,0.08-0.08,0.22,0,0.3C16.73,1.98,16.87,1.98,16.95,1.9z M16.39,1.81
c0.08-0.08,0.08-0.22,0-0.3c-0.08-0.08-0.22-0.08-0.3,0c-0.08,0.08-0.08,0.22,0,0.3C16.17,1.89,16.3,1.89,16.39,1.81z M15.91,2.16
c0.08-0.08,0.08-0.22,0-0.3c-0.08-0.08-0.22-0.08-0.3,0c-0.08,0.08-0.08,0.22,0,0.3C15.7,2.25,15.83,2.25,15.91,2.16z M14.57,1.87
l0.17,0.37l0.21-0.26c0.01,0,0.02,0.01,0.03,0.01C14.99,2.12,15,2.33,15,2.45c0,0.15,0.12,0.27,0.27,0.27
c0.15,0,0.27-0.12,0.27-0.27c0-0.1-0.06-0.19-0.14-0.24c-0.1-0.08-0.22-0.19-0.3-0.28c0-0.01,0.01-0.02,0.01-0.03l0.36,0.03
l-0.14-0.38l-0.27,0.23c-0.01,0-0.01,0-0.01-0.01l-0.02-0.39l-0.37,0.14l0.25,0.29c-0.01,0.01-0.01,0.02-0.02,0.03L14.57,1.87z
M17.01,2.53c0.08,0.13,0.11,0.19,0.12,0.29c-0.06-0.03-0.14-0.09-0.22-0.2l0.04,0.49c0.06-0.09,0.11-0.15,0.18-0.18
c-0.02,0.32-0.15,0.45-0.26,0.48c-0.13,0.03-0.23-0.06-0.25-0.16c-0.03-0.14,0.1-0.23,0.22-0.11c0.02-0.3-0.22-0.29-0.32-0.17
c0.12-0.29,0.07-0.47-0.18-0.63c-0.16,0.27-0.09,0.44,0.11,0.65c-0.19-0.1-0.37,0.07-0.2,0.29c0.04-0.19,0.2-0.15,0.24,0
c0.03,0.13-0.09,0.3-0.3,0.36c-0.3,0.09-0.4-0.1-0.47-0.27c0.06-0.04,0.22-0.03,0.39,0.08l-0.15-0.48
c-0.07,0.17-0.17,0.24-0.29,0.29c-0.01-0.14,0.09-0.42,0.09-0.42l-0.58,0.24c0,0,0.27,0.13,0.36,0.24
c-0.12,0.05-0.24,0.07-0.41-0.01l0.23,0.45c0.05-0.2,0.15-0.32,0.22-0.34c0.06,0.17,0.13,0.38-0.15,0.52
c-0.2,0.1-0.4,0.07-0.47-0.05c-0.08-0.13,0.01-0.28,0.17-0.17c-0.03-0.28-0.27-0.28-0.34-0.07c0-0.29-0.07-0.46-0.37-0.54
c-0.07,0.29,0.02,0.46,0.31,0.58c-0.16-0.02-0.34,0.14-0.11,0.34c0-0.18,0.15-0.2,0.23-0.08c0.06,0.08,0.05,0.22-0.07,0.29
c-0.09,0.06-0.28,0.06-0.51-0.16c0.07-0.03,0.15-0.02,0.25,0l-0.31-0.38c0.02,0.14,0.01,0.24-0.02,0.3
c-0.07-0.08-0.09-0.14-0.12-0.29l-0.24,0.21c0.22,0.14,0.48,0.35,0.8,0.79c0.33-0.21,0.92-0.49,1.29-0.64
c0.37-0.15,0.99-0.36,1.37-0.44c-0.08-0.53-0.04-0.87,0.02-1.12L17.01,2.53z M17.67,5.33C17.91,5.15,17.71,4.95,18,4.5
c-0.32,0.2-0.78,0.39-1.19,0.55C16.99,5.35,17.38,5.56,17.67,5.33z M17.61,8.41c0.4-0.17,0.37-0.57,0.27-0.78
c-0.1-0.22-0.19-0.4-0.32-0.4c-0.23,0-0.35-0.06-0.42-0.27c-0.08-0.25,0.17-0.34,0.41-0.48C17.3,6.41,17.18,6.3,17.32,6.2
c0.16-0.12,0.39,0.11,0.44,0c0.05-0.11-0.12-0.2-0.19-0.27c-0.1-0.1-0.2-0.07-0.34-0.02l-1.1,0.42C16,6.39,15.91,6.44,15.91,6.58
c0,0.1-0.06,0.29,0.05,0.33c0.11,0.04,0.11-0.29,0.32-0.31c0.17-0.02,0.16,0.14,0.04,0.36c0.26-0.06,0.51-0.18,0.63,0.06
c0.1,0.2,0.05,0.33-0.12,0.49c-0.09,0.09-0.03,0.28,0.05,0.5C16.93,8.24,17.23,8.57,17.61,8.41z M15.52,6.18
c0.37-0.03,0.51-0.46,0.44-0.8c-0.41,0.16-0.88,0.34-1.24,0.42C15.23,5.93,15.22,6.21,15.52,6.18z M21.63,16.01
c-0.1,0.28,0.13,0.34,0.13,0.56c0,0.28-0.24,0.4-0.5,0.47c0.19-0.38,0.02-0.6-0.29-0.65c0.06,0.72-0.5,0.83-0.73,0.71
c0.22-0.05,0.32-0.39,0.19-0.71c-0.1,0.24-0.35,0.44-0.59,0.44c-0.22,0-0.39-0.17-0.48-0.36c0.26,0.18,0.47-0.03,0.47-0.16
c0-0.13-0.26-0.21-0.26-0.41c0-0.49,0.53-0.29,0.53-0.72c0-0.18-0.1-0.25-0.21-0.25c-0.11,0-0.28,0.06-0.33,0.35
c-0.27-0.24,0-0.78-0.12-1.14c0.02,0.57-0.36,0.54-0.51,0.76c-0.19-0.2,0-0.59-0.19-1.05c-0.07,0.52-0.27,0.45-0.32,0.75
c-0.53-0.26-1.46-0.17-1.78,0.19c0.9,0.7,1.96,1.07,1.96,2.16c0,0.83-1.29,1.16-1.29,1.7c0,0.54,1.35,1.78,2.03,1.78
c0.22,0,0.33-0.28,0.52-0.29c0.18-0.01,0.35,0,0.51,0.01c0.17,0.01,0.31,0.17,0.29,0.32c0.31,0.03,0.71,0.52,0.31,0.92
c-0.06-0.22-0.27-0.53-0.68-0.31c0.16,0.36,0.02,0.71-0.44,0.85c0.15-0.23,0.17-0.55-0.11-0.55c-0.27,0-0.04,0.18-0.56,0.18
c-0.51,0-0.46,0.02-0.67-0.27c-0.21-0.29-0.36-0.41-0.47-0.37c-0.12,0.04-0.17,0.34,0.03,0.45c-1.09,0-0.64-1.13-1.2-1.41
c0.02,0.35,0.04,0.63-0.01,0.8c-0.41-0.32-0.65-0.75-0.72-1.02c-0.07-0.27-0.02-0.53-0.28-0.66c-0.09-0.04-0.18-0.13-0.16-0.28
c0.02-0.12,0.09-0.08,0.28-0.17c0.23-0.1,0.53-0.34,0.53-0.91c0-0.44-0.09-1.04-0.81-1.46c0.06,0.93,0.04,1.72-0.38,2.43
c-0.54,0.92-1.45,1.48-1.97,1.7c-0.52,0.22-1.25,0.4-1.25,1.08c0,1.28,0.56,2.03,1.14,2.03c0.36,0,0.28-0.42,0.81-0.42
c0.23,0,0.49,0.09,0.54,0.26c0.29-0.05,0.61,0.11,0.61,0.39c0,0.27-0.12,0.44-0.35,0.48c0.17-0.36-0.26-0.45-0.4-0.37
c-0.13,0.08,0.04,0.21,0.04,0.43c0,0.22-0.07,0.42-0.45,0.52c0.08-0.13,0.08-0.32-0.15-0.32c-0.23,0-0.32,0.39-0.61,0.39
c-0.48,0-0.61-0.21-1.06-0.12c-0.32,0.07-0.31,0.26-0.19,0.34c-0.65,0.04-0.52-0.67-0.38-0.82c0.14-0.14,0.23-0.24,0.04-0.37
c-0.19-0.13-0.51,0-0.57,0.32c-0.49-0.96,0.19-0.91-0.03-1.99c-0.11,0.45-0.39,0.8-0.6,0.91c0.08-0.24-0.13-0.68-0.13-1.05
c0-0.82,0.51-1.08,0.51-1.34c0-0.17-0.19-0.36,0.01-0.53c0.11-0.09,0.34,0.09,0.49,0.09c0.65,0,1.12-0.84,1.22-1.77
c0.12-1.11,0.55-1.87,1.01-2.71c0.02-0.13,0.04-0.26,0.07-0.4c-0.45,0.57-0.85,1.44-1.48,1.95c0.08,0.71-1.3,1.53-2.09,0.9
c0.26,0.02,0.75-0.1,0.89-0.5c-0.12-0.01-0.23-0.03-0.33-0.07c-0.48,0.27-1.24-0.07-1.22-0.6c0.19,0.23,0.43,0.27,0.65,0.18
c-0.16-0.23-0.27-0.52-0.27-0.87c0-2.08,3.22-3.51,3.22-5.2c0-0.54-0.33-0.82-0.7-0.82c-0.2,0-0.42,0.06-0.65,0.2
c0.15,0.14,0.26,0.32,0.26,0.54c0,1.91-3.06,1.73-3.33,2.99c-0.15-1.61,1.77-1.25,1.94-2.59c-0.4,0.58-1.08,1.01-1.48,0.79
c1,0.02,0.69-2.05,1.84-2.05c0.11,0,0.25,0.03,0.38,0.08c0.31-0.26,0.68-0.41,0.99-0.41c0.46,0,1.19,0.35,1.19,1.24
c0,2.02-3.23,3.32-3.23,5.22c0,0.63,0.37,0.94,0.87,0.94c1.13,0,1.85-2.03,3.08-3.7c0.76-1.12,1.28-3.35,1.79-4.4
c-0.59,0.43-0.68,1.59-1.4,1.66c0.39-0.33,0.11-1.33,0.36-2.06c0.09-0.27,0.13-0.53,0.06-0.8c-0.44,0.47-0.25,2.04-0.96,2.24
c0.25-0.32-0.03-0.84-0.03-1.32c0-0.9,0.46-1.04,0.51-1.88c-0.43,0.17-0.28,1.35-1.12,1.32c0.6-0.6-0.02-1.23,0.67-1.91
C13.7,6.32,13.43,6,13.43,5.67c0.26-0.21,0.58-0.28,0.86-0.31c-0.13-0.2,0.05-0.4,0.22-0.55c0.06,0.08,0.15,0.24,0.25,0.17
c0.17-0.12,0.75-0.48,1.26-0.68c0.51-0.2,1.16-0.37,1.36-0.41c0.12-0.02,0.07-0.19,0.06-0.3c0.24-0.02,0.52,0,0.55,0.26
c0.21-0.18,0.51-0.26,0.8-0.28c0.17,0.36,0.2,0.65,0.05,1.13c0.41,0.03,0.64,0.39,1.02,0.3c-0.33,0.45-0.73,0.26-1.11,0.22
c1.11,0.34,1.31,1.43,1.92,1.51c-0.65,0.52-1.09-0.4-1.65-0.38c1.47,0.74,1.48,1.64,1.89,1.65c-0.45,0.42-0.81-0.13-1.4-0.27
c1.16,0.77,1.24,1.4,1.15,1.92c0.25,0.24,0.22,0.54,0.24,0.91c0.19-0.13,0.53-0.18,0.75-0.25c-0.08,0.08-0.15,0.16-0.23,0.25
c-0.59,0.67-1,1.31-1.34,2.16c-0.25-0.25-0.52-0.51-0.66-0.64c-0.23-0.22-0.46-0.17-0.55-0.16c0.38,0.43,1.64,1.79,2,2.21
c0.37,0.44,0.33,0.75,0.38,1.07C21.3,15.52,21.71,15.78,21.63,16.01z M42.48,21.23c0,0.37,0.3,0.68,0.68,0.68
c0.37,0,0.67-0.31,0.67-0.68c0-0.37-0.3-0.68-0.67-0.68C42.78,20.55,42.48,20.85,42.48,21.23z M42.24,21.23
c0-0.5,0.41-0.91,0.91-0.91c0.5,0,0.91,0.41,0.91,0.91c0,0.5-0.41,0.91-0.91,0.91C42.65,22.14,42.24,21.73,42.24,21.23z
M39.26,22.88c0.26,0.05,0.5-0.07,0.53-0.26c0-0.02,0-0.03,0-0.05c0-0.17-0.18-0.35-0.41-0.39c-0.15-0.03-0.3,0-0.4,0.07
c-0.05,0.03-0.11,0.1-0.13,0.19C38.82,22.64,39,22.84,39.26,22.88z M38.85,22.07c0.16-0.11,0.37-0.15,0.58-0.11
c0.39,0.07,0.65,0.39,0.6,0.7c-0.03,0.16-0.13,0.29-0.29,0.38c-0.15,0.08-0.33,0.1-0.51,0.07c-0.18-0.03-0.34-0.12-0.46-0.25
c-0.12-0.13-0.17-0.3-0.14-0.46C38.65,22.28,38.73,22.16,38.85,22.07z M33.79,9.78c0,0.06,0.02,0.11,0.05,0.15
c0.1,0.13,0.34,0.12,0.51-0.02c0.1-0.08,0.18-0.2,0.19-0.31c0.01-0.05,0-0.13-0.05-0.19c-0.05-0.06-0.12-0.09-0.17-0.09
c-0.11-0.01-0.24,0.03-0.34,0.11C33.86,9.53,33.79,9.66,33.79,9.78z M33.84,9.25C34,9.13,34.19,9.07,34.36,9.1
c0.13,0.02,0.25,0.08,0.32,0.18c0.08,0.1,0.11,0.23,0.09,0.36c-0.02,0.18-0.12,0.34-0.28,0.46c-0.28,0.22-0.66,0.21-0.84-0.03
C33.48,9.84,33.56,9.47,33.84,9.25z M38.14,21.59c0.09,0,0.16-0.04,0.21-0.09c0.09-0.09,0.15-0.23,0.15-0.38
c0.01-0.26-0.15-0.48-0.34-0.49c-0.09,0-0.16,0.05-0.21,0.09c-0.09,0.09-0.15,0.23-0.15,0.38c0,0.15,0.05,0.3,0.14,0.39
C37.97,21.54,38.04,21.59,38.14,21.59L38.14,21.59z M37.78,20.55c0.11-0.1,0.24-0.16,0.38-0.16c0.16,0.01,0.31,0.09,0.42,0.23
c0.1,0.13,0.16,0.31,0.15,0.5c-0.01,0.21-0.09,0.42-0.22,0.55c-0.1,0.1-0.24,0.16-0.38,0.15c-0.13,0-0.27-0.06-0.37-0.17
c-0.13-0.13-0.2-0.33-0.2-0.54V21.1C37.57,20.89,37.65,20.69,37.78,20.55z M33.52,14.06c0.14,0.06,0.29,0.08,0.41,0.04
c0.06-0.02,0.13-0.06,0.17-0.15c0.04-0.08,0.03-0.17,0.01-0.23c-0.04-0.12-0.15-0.23-0.28-0.3c-0.14-0.07-0.29-0.08-0.41-0.04
c-0.06,0.02-0.13,0.06-0.17,0.15C33.16,13.71,33.28,13.95,33.52,14.06z M33.33,13.17c0.18-0.06,0.39-0.05,0.59,0.05
c0.19,0.09,0.34,0.25,0.4,0.43c0.05,0.14,0.04,0.29-0.02,0.41c-0.06,0.12-0.17,0.22-0.31,0.27c-0.18,0.06-0.39,0.05-0.59-0.05
c-0.35-0.17-0.53-0.55-0.39-0.84C33.09,13.31,33.2,13.22,33.33,13.17z M39.92,17.33c0.15-0.21,0.14-0.48-0.03-0.6
c-0.16-0.12-0.42-0.04-0.57,0.17c-0.15,0.21-0.14,0.48,0.03,0.6C39.52,17.62,39.77,17.54,39.92,17.33z M38.85,19.03
c0.15-0.21,0.13-0.48-0.03-0.6c-0.17-0.12-0.42-0.04-0.57,0.17c-0.15,0.21-0.14,0.48,0.03,0.6C38.45,19.32,38.7,19.24,38.85,19.03z
M38.95,11.91C39.22,11.6,39.78,11,39.78,11l-0.35-0.28c0.02,0.13,0,0.31-0.05,0.49c-0.08-0.06-0.17-0.2-0.16-0.34l-0.28,0.35
c0.07,0,0.26,0.03,0.35,0.12c-0.25,0.24-0.46,0.12-0.6,0.03c-0.24-0.15-0.34-0.29-0.27-0.41c0.08-0.14,0.34-0.1,0.37,0.13
c0.2-0.09,0.24-0.25,0.17-0.38c-0.06-0.1-0.19-0.13-0.33-0.08c0.31-0.16,0.47-0.44,0.4-0.77c-0.35,0.07-0.51,0.27-0.59,0.62
c-0.02-0.14-0.1-0.27-0.22-0.28c-0.14-0.01-0.27,0.1-0.26,0.32c0.22-0.08,0.36,0.14,0.27,0.28c-0.09,0.14-0.26,0.11-0.49-0.03
c-0.26-0.16-0.3-0.39-0.16-0.63c0.07,0.06,0.13,0.2,0.13,0.38L38,10c-0.07,0.03-0.2,0.05-0.35,0c0.08-0.09,0.22-0.25,0.42-0.27
l-0.59-0.34c0.09,0.18,0.02,0.39-0.02,0.5c-0.12-0.1-0.16-0.23-0.17-0.3l-0.27,0.52c0.14-0.09,0.3-0.11,0.39-0.08
c-0.14,0.24-0.36,0.32-0.63,0.17c-0.23-0.13-0.35-0.27-0.27-0.41c0.07-0.14,0.34-0.13,0.38,0.1c0.19-0.1,0.22-0.27,0.14-0.39
c-0.06-0.09-0.22-0.1-0.35-0.05c0.26-0.25,0.35-0.48,0.23-0.82c-0.32,0.1-0.48,0.38-0.47,0.73c-0.03-0.14-0.12-0.24-0.23-0.24
c-0.14,0-0.26,0.12-0.24,0.33c0.21-0.09,0.38,0.11,0.3,0.26c-0.07,0.11-0.23,0.09-0.48-0.03c-0.15-0.08-0.36-0.2-0.28-0.54
c0.12,0.03,0.23,0.18,0.27,0.24l0.17-0.42c-0.11,0.08-0.28,0.07-0.37,0.03c0.13-0.12,0.27-0.24,0.4-0.28l-0.41-0.16
c0,0-0.24,0.79-0.37,1.18L38.95,11.91z M39.63,14.8c0,0.13,0.06,0.27,0.16,0.38c0.1,0.11,0.24,0.18,0.37,0.18
c0.06,0,0.14-0.01,0.21-0.07v0c0.07-0.06,0.08-0.15,0.09-0.21c0-0.13-0.06-0.27-0.16-0.38c-0.1-0.11-0.24-0.18-0.37-0.18
c-0.06,0-0.14,0.01-0.21,0.07C39.65,14.65,39.63,14.74,39.63,14.8z M41.26,22.33c-0.01,0.06-0.02,0.14,0.04,0.22
c0.1,0.16,0.37,0.18,0.59,0.03c0.13-0.08,0.21-0.21,0.24-0.34c0.01-0.06,0.02-0.14-0.04-0.22v0c-0.05-0.08-0.13-0.11-0.19-0.12
c-0.13-0.03-0.27,0.01-0.4,0.09C41.37,22.07,41.29,22.2,41.26,22.33z M33.51,10.98c0.01-0.13-0.03-0.25-0.1-0.33
c-0.03-0.04-0.09-0.08-0.17-0.09c-0.08,0-0.14,0.03-0.18,0.07c-0.08,0.07-0.13,0.19-0.14,0.32v0.03c0,0.21,0.12,0.38,0.27,0.39
c0.08,0,0.14-0.03,0.17-0.07C33.45,11.23,33.5,11.11,33.51,10.98z M35.91,6.04c0.31-0.18,0.69-0.28,1.12-0.31
c-0.26-0.08-0.46-0.3-0.68-0.3C35.91,5.42,36.03,5.79,35.91,6.04z M42.89,12.23c0.07,1.58,2.03,1.21,1.73,2.38
c-0.03-0.78-2.66-0.7-2.73-2.31c-0.02-0.33,0.08-0.6,0.25-0.78c-0.11-0.08-0.24-0.14-0.42-0.14c-0.46,0-1.12,0.49-1.12,1.25
c0,2.04,2.71,2.31,2.71,4.55c0,0.46-0.18,0.89-0.51,1.15c0.23,0.03,0.55-0.11,0.71-0.29c-0.23,0.86-1.12,0.89-1.4,0.54
c-0.04,0-0.08,0-0.12,0c-0.08,0-0.15-0.01-0.22-0.02c0.18,0.35,0.45,0.71,0.84,0.65c-0.8,0.64-1.77-0.22-1.62-1.11
c-0.24-0.27-0.39-0.59-0.5-0.83c-0.09-0.2-0.22-0.09-0.21,0.13c0.03,0.7-0.53,1.37-0.53,1.88c0,0.51,0.53,1,0.7,1
c0.17,0,0.31-0.2,0.43-0.15c0.12,0.05,0.11,0.22,0.08,0.58c-0.02,0.25,0.03,0.86,0.06,1.5c0.05-0.17,0.17-0.33,0.33-0.44
c0.18-0.12,0.39-0.16,0.58-0.13c0.14,0.03,0.26,0.11,0.33,0.22c0.06,0.08,0.08,0.18,0.08,0.28c0,0.04,0,0.08-0.01,0.12
c-0.04,0.19-0.16,0.36-0.34,0.48c-0.15,0.1-0.33,0.15-0.5,0.13c-0.18-0.02-0.32-0.1-0.41-0.23c-0.02-0.02-0.03-0.05-0.04-0.08
c0.01,0.2,0.02,0.39,0.02,0.58c0.01,0.47-0.12,0.68-0.32,0.78c-0.01-0.07-0.15-0.21-0.34-0.21c-0.14,0-0.26,0.11-0.26,0.2
c0,0.21,0.26,0.19,0.26,0.51c0,0.33-0.74,0.74-1.2,0.66c0.07-0.16,0.17-0.68,0.31-1.04c-0.14,0.08-0.27,0.31-0.38,0.63
c-0.14,0.39-0.31,0.38-0.47,0.27c0.15-0.17,0.5-0.98,0.86-1.23c0.36-0.26,0.54-0.35,0.63-0.96c0.09-0.61-0.01-0.98-0.02-1.51
c-0.02-0.72-0.31-0.56-0.53-0.56c-0.49,0-2.28-1.16-2.28-2.35c0-0.11,0.01-0.24,0.03-0.37C36.56,18,36.11,18.23,36.11,19
c0,0.26,0.03,0.52,0.22,0.67c0.17,0.14,0.25,0.27-0.03,0.4c-0.32,0.14-2.83,1.19-2.83,1.19c-0.32,0.12-0.36-0.01-0.49-0.17
c-0.13-0.15-0.27-0.23-0.44-0.12c-0.17,0.11,0.12,0.23,0.12,0.41c0,0.18-0.08,0.61-1.23,0.53l0.27-0.46
c0.08-0.15,0.12-0.26,0.06-0.28c-0.07-0.01-0.13,0.11-0.23,0.25l-0.33,0.43c-0.19,0.01-0.37-0.03-0.37-0.03
c0.44-0.44,0.68-0.67,0.92-0.92c0.24-0.24,0.53-0.35,1.03-0.43c0.59-0.09,2.55-0.35,2.55-0.99c0-0.73-0.82-0.68-0.82-1.66
c0-0.86,0.37-1.78,2.7-1.73c-0.2-0.55-0.79-0.97-1.36-1.11c-1.17-0.29-1.5-1.09-1.6-1.94c-0.32-0.01-0.64-0.03-0.89-0.05
c-0.72-0.04-1.08-0.26-1.26-0.12c-0.07,0.06-0.14,0.16-0.03,0.33c0.1,0.18,0.34,0.61,0.54,0.9c0.14,0.02,0.37,0.05,0.4,0.23
c0.03,0.18-0.11,0.21-0.14,0.31c-0.03,0.09,0.03,0.17,0.13,0.17c0.1,0,0.15-0.08,0.14-0.15c0.1-0.08,0.34-0.08,0.58-0.01
c0.18,0.2,0.48,0.54,0.57,0.86c-0.28-0.11-0.68-0.26-0.82-0.26c-0.14,0-0.11,0.05,0.01,0.09c0.12,0.04,0.44,0.16,0.53,0.26
l-0.02,0.32c-0.07-0.07-0.63-0.4-0.96-0.54c-0.33-0.13-0.53-0.2-0.71-0.63c-0.17-0.42-0.69-1.36-0.9-1.72
c-0.14-0.25-0.09-0.34-0.02-0.43c0.07-0.08,0.14-0.18,0.19-0.26c0.14-0.22,0.18-0.17,0.38-0.15c0.2,0.02,0.66,0.03,0.87-0.05
c0.05-0.02,0.1-0.04,0.15-0.06c-0.48-0.53-1.05-1.29-1.12-1.38c-0.09-0.13-0.22-0.2-0.31-0.2c-0.09,0-0.19,0.02-0.26,0.08
c-0.03,0.03-0.07,0.06-0.12,0.1c-0.04-0.05-0.09-0.11-0.13-0.16c-0.09-0.09-0.17-0.19-0.26-0.28c0.18-0.14,0.35-0.27,0.4-0.32
c0.12-0.11,0.18-0.19,0.29-0.19c0.1,0,0.25,0.01,0.31,0.01c0.16,0,0.23,0.05,0.31,0.13c0.18,0.19,0.47,0.41,0.7,0.59
c0.02,0.02,0.05,0.04,0.08,0.06c0.02-0.03,0.04-0.05,0.06-0.07c0.1-0.09,0.22-0.14,0.35-0.13c0.12,0.01,0.24,0.07,0.33,0.17
c0.11,0.13,0.17,0.31,0.16,0.5c0,0.07-0.02,0.13-0.04,0.2c0.19,0.15,0.35,0.3,0.52,0.47c0.08-0.65,0.42-1.28,0.84-1.84L35,9.79
c0,0,0.04-0.12,0.04-0.12c0.09-0.29,0.25-0.8,0.32-1.05c0.03-0.1,0.04-0.13,0.04-0.13l0.05-0.16l0.71,0.28
c0.02-0.02,0.04-0.04,0.07-0.06c0.62-0.6,2.13-1,2.13-1.86c0-0.21-0.07-0.48-0.29-0.65c0.1,0.14,0.11,0.32,0.09,0.5
c-0.04,0.23-0.37,0.72-0.97,0.72c-0.33,0-0.56-0.32-0.67-0.32c-0.07,0-0.16,0.05-0.26,0.13c0.03,0.45-0.16,0.69-0.35,0.73
c0.07-0.19,0.01-0.5-0.04-0.46c-0.05,0.04-0.12,0.1-0.13,0.36c-0.01,0.26-0.23,0.59-0.58,0.63c0.07-0.11,0.18-0.53,0.11-0.59
c-0.07-0.06-0.19,0.12-0.28,0.12c-0.09,0-0.16-0.09-0.17-0.19c-0.01-0.09-0.19,0-0.22-0.09c-0.03-0.09,0.21-0.26,0.43-0.34
c0.22-0.09,0.55-0.24,0.5-0.36c-0.1-0.23-0.76,0.13-1.04,0.31c-0.44,0.27-0.25-0.1-0.31-0.24c-0.17-0.39-0.02-0.43,0.17-0.6
c0.25-0.23,0.74-0.57,1.31-0.86c0-0.19,0.12-0.34,0.27-0.4C36.14,5,36.37,4.9,36.6,4.82l-3.05-3.85c-0.07-0.07-0.07-0.14-0.04-0.17
c0.03-0.03,0.09-0.01,0.19,0.09l3.55,3.51c0.08-0.24,0.16-0.52,0.08-0.84c0.43,0.21,0.81,0.64,0.87,1.05
c1.09-0.02,1.38,0.67,1.72,0.43c0.05,0.17-0.14,0.35-0.45,0.4c1.26,0.33,0.93,1.25,1.65,1.35C41,6.92,40.83,6.97,40.57,6.88
c0.79,1.16,0,1.91,0.61,2.45c-0.23,0.07-0.55-0.13-0.77-0.5c0.23,0.96-0.12,1.48,0.05,1.87c-0.27,0.08-0.46-0.16-0.55-0.54
c-0.05,0.21-0.12,0.4-0.2,0.58l0.29,0.24l-0.11,0.12l0,0l-0.03,0.03c-0.47,0.51-0.7,0.76-0.81,0.88l-0.08,0.09
c0,0-0.09-0.05-0.1-0.06c-0.31,0.39-0.56,0.71-0.56,1.07c0,0.41,0.54,1.17,1.13,1.94c-0.03-0.08-0.04-0.16-0.04-0.24v-0.02
c0-0.15,0.06-0.28,0.16-0.37c0.1-0.09,0.23-0.14,0.38-0.14c0.19,0.01,0.39,0.1,0.53,0.25c0.14,0.15,0.22,0.34,0.22,0.53v0.02
c-0.01,0.15-0.06,0.28-0.16,0.37c-0.1,0.09-0.23,0.14-0.38,0.14c-0.14,0-0.28-0.05-0.4-0.14c0.42,0.55,0.82,1.08,1,1.46
c0.38,0.81,0.75,1.33,1.21,1.33c0.51,0,0.97-0.38,0.97-0.99c0-2.09-2.72-2.29-2.72-4.65c0-1.09,0.94-1.62,1.49-1.62
c0.37,0,0.62,0.1,0.84,0.33c0.07-0.02,0.14-0.02,0.21-0.02c1.29,0,0.48,1.73,1.48,1.84C43.77,13.34,43.19,13.05,42.89,12.23z M0,74
h1.73V0H0V74z"/></svg>