<svg xmlns="http://www.w3.org/2000/svg" width="159" height="23" viewBox="0 0 159 23">
<path fill="#0b0c0c" d="M42.52,18.83v-6.76c0-4.46-3.33-5.25-5.65-5.25c-2.1,0-3.67,0.64-5.23,2.08l1.09,1.36
c1.09-0.93,2.25-1.64,4.02-1.64c1.49,0,2.92,1.22,3.06,3.09l-3.68,1.15c-3.2,0.93-5.44,2.66-5.44,5.33c0,2.87,1.77,4.74,4.35,4.74
c1.43,0,2.72-0.93,3.82-2.02l0.95-0.93c0,1,0.06,1.94,0.41,2.59h3C42.66,21.49,42.52,19.98,42.52,18.83z M35.72,20.85
c-1.09,0-2.17-1.01-2.17-2.59c0-1.94,1.23-3.1,3.67-3.81l2.59-0.87C40.14,18.4,37.69,20.85,35.72,20.85z M133.76,14.45
c0,4.74-3.68,8.55-8.16,8.55c-4.49,0-8.16-3.81-8.16-8.55c0-4.75,3.68-8.56,8.16-8.56C130.16,5.96,133.76,9.78,133.76,14.45z
M64.22,22.64h2.72V7.25h-2.72V22.64z M5.85,13.8l6.4,7.84l-2.72,1.3l-6.74-8.71H2.72v8.41H0V0h2.72v13.44h0.54l5.99-6.54l2.04,1.15
L5.85,13.8z M67.35,2.15c0,0.79-0.41,1.87-1.77,1.87c-1.36,0-1.69-1-1.77-1.87c0-0.79,0.68-1.66,1.77-1.66
C66.75,0.5,67.35,1.36,67.35,2.15z M158.18,18.62c0,2.59-2.52,4.31-5.31,4.31c-1.69,0-3.67-0.79-4.69-1.95l1.36-1.58
c0.88,0.87,2.04,1.51,3.26,1.51c1.29,0,2.59-0.64,2.59-2.15c0-1.8-1.57-2.52-3-3.6c-1.71-1.28-3.27-2.3-3.27-4.38
c0-2.44,2.39-3.95,5.04-3.95c1.49,0,2.92,0.64,3.74,1.44l-1.02,1.43c-1.09-0.72-1.97-1-2.79-1c-0.95,0-2.24,0.43-2.24,1.72
s1.43,1.94,3.12,3.23C156.95,15.16,158.18,16.46,158.18,18.62z M101.99,12.65v9.99h-2.72v-9.35c0-2.87-1.23-4.38-3.68-4.38
c-2.17,0-4.15,1.51-4.15,4.46v9.27h-2.73V7.25h2.73l-0.07,1.87c1.43-1.51,3.61-2.3,5.24-2.3C100.15,6.83,101.99,8.76,101.99,12.65z"
/></svg>