<svg xmlns="http://www.w3.org/2000/svg" width="180" height="30" viewBox="0 0 180 30">
<path fill="#0b0c0c" d="M104.94,14.72l13.72,13.86h-12.8l-7.32-7.39l-7.32,7.39h-12.8l13.72-13.86L78.42,0.86h12.8l7.32,7.39l7.32-7.39
h12.8L104.94,14.72z M68.55,0.86h9.87v27.71h-9.87V25.5c-2.1,2.63-4.93,3.94-8.51,3.94c-2.03,0-3.89-0.37-5.59-1.11
c-1.7-0.74-3.18-1.77-4.45-3.11c-1.25-1.32-2.23-2.86-2.93-4.63v7.98h-9.82V11.95c0-2.43-1.98-4.4-4.42-4.4
c-2.44,0-4.42,1.97-4.42,4.4v16.62H18.6V11.93c0-2.42-1.97-4.38-4.39-4.38c-2.43,0-4.39,1.96-4.39,4.38v16.65H0V0.86h9.82v3.4
c2.68-2.56,5.68-3.84,9-3.84c4.12,0,7.27,1.73,9.44,5.19c2.21-3.49,5.35-5.24,9.44-5.24c1.3,0,2.53,0.19,3.69,0.57
c1.16,0.38,2.15,0.97,2.98,1.78c0.83,0.81,1.49,1.86,1.98,3.16c0.34,0.91,0.56,1.96,0.67,3.14c0-0.01,0.01-0.02,0.01-0.04
c0.69-1.78,1.64-3.34,2.87-4.67c1.23-1.33,2.69-2.39,4.39-3.16C55.99,0.39,57.87,0,59.93,0c3.47,0,6.35,1.21,8.62,3.62V0.86z
M68.36,17.18c0.34-0.76,0.51-1.57,0.51-2.43c0-0.86-0.17-1.68-0.51-2.46c-0.34-0.77-0.8-1.45-1.36-2.03
C66.44,9.69,65.78,9.24,65,8.91c-0.78-0.32-1.6-0.49-2.47-0.49c-0.9,0-1.74,0.16-2.52,0.49c-0.78,0.32-1.45,0.77-2.01,1.35
c-0.56,0.58-1,1.23-1.33,1.97c-0.33,0.74-0.49,1.54-0.49,2.4c0,0.9,0.16,1.74,0.49,2.51C57,17.93,57.44,18.6,58,19.18
c0.56,0.58,1.23,1.03,2.01,1.35c0.78,0.32,1.62,0.49,2.52,0.49c0.87,0,1.69-0.16,2.47-0.49c0.78-0.32,1.45-0.77,2.01-1.35
C67.57,18.6,68.02,17.93,68.36,17.18z M180,19.51h-3.18l-2.43-3.76v3.76h-2.55V9.74h3.97c0.55,0,1.02,0.08,1.43,0.24
c0.41,0.16,0.74,0.38,1.01,0.65c0.26,0.28,0.46,0.6,0.6,0.96c0.13,0.36,0.2,0.75,0.2,1.17c0,0.74-0.18,1.35-0.54,1.81
c-0.36,0.46-0.89,0.78-1.59,0.94L180,19.51z M174.39,14.11h0.48c0.5,0,0.89-0.1,1.16-0.31c0.27-0.21,0.4-0.51,0.4-0.89
s-0.13-0.69-0.4-0.89c-0.27-0.21-0.66-0.31-1.16-0.31h-0.48V14.11z M170,11.89h-3.03v1.63h2.86v2.15h-2.86v1.69H170v2.15h-5.58V9.74
H170V11.89z M154.19,9.74h3.77c0.67,0,1.3,0.13,1.88,0.4c0.59,0.27,1.1,0.62,1.54,1.07c0.44,0.45,0.78,0.96,1.04,1.56
c0.25,0.59,0.38,1.21,0.38,1.86c0,0.64-0.12,1.26-0.37,1.85c-0.25,0.59-0.59,1.11-1.03,1.56c-0.44,0.45-0.95,0.81-1.54,1.08
c-0.59,0.27-1.22,0.4-1.89,0.4h-3.77V9.74z M156.74,17.36h0.59c0.44,0,0.84-0.07,1.18-0.21c0.35-0.14,0.64-0.33,0.88-0.57
c0.24-0.24,0.42-0.53,0.55-0.86c0.13-0.33,0.19-0.7,0.19-1.1c0-0.39-0.06-0.75-0.19-1.09c-0.13-0.34-0.31-0.63-0.55-0.87
c-0.24-0.24-0.53-0.43-0.88-0.57c-0.35-0.14-0.74-0.21-1.17-0.21h-0.59V17.36z M140.91,9.74l1.69,6.31l2.08-6.31h2.03l2.08,6.31
l1.69-6.31h2.67l-2.93,9.78h-2.6l-1.93-5.67l-1.93,5.67h-2.6l-2.93-9.78H140.91z M126.95,14.63c0-0.73,0.13-1.4,0.4-2.03
c0.27-0.63,0.64-1.17,1.12-1.64c0.48-0.47,1.05-0.83,1.71-1.1c0.66-0.26,1.39-0.4,2.19-0.4c0.79,0,1.52,0.13,2.19,0.4
c0.67,0.26,1.24,0.63,1.72,1.1c0.48,0.47,0.86,1.01,1.13,1.64c0.27,0.63,0.4,1.3,0.4,2.03c0,0.73-0.13,1.4-0.4,2.03
c-0.27,0.63-0.64,1.17-1.13,1.64c-0.48,0.47-1.06,0.83-1.72,1.1c-0.67,0.26-1.4,0.4-2.19,0.4c-0.8,0-1.53-0.13-2.19-0.4
c-0.66-0.26-1.23-0.63-1.71-1.1c-0.48-0.47-0.85-1.01-1.12-1.64C127.08,16.03,126.95,15.35,126.95,14.63z M129.62,14.63
c0,0.39,0.07,0.75,0.22,1.08c0.15,0.33,0.35,0.61,0.6,0.86c0.25,0.24,0.54,0.43,0.88,0.56c0.33,0.13,0.69,0.2,1.06,0.2
c0.37,0,0.73-0.07,1.06-0.2c0.33-0.13,0.63-0.32,0.88-0.56c0.26-0.24,0.46-0.53,0.61-0.86c0.15-0.33,0.22-0.69,0.22-1.08
c0-0.39-0.07-0.75-0.22-1.08c-0.15-0.33-0.35-0.61-0.61-0.86s-0.55-0.43-0.88-0.56c-0.33-0.13-0.69-0.2-1.06-0.2
c-0.37,0-0.73,0.07-1.06,0.2c-0.33,0.13-0.63,0.32-0.88,0.56c-0.25,0.24-0.45,0.53-0.6,0.86C129.69,13.88,129.62,14.24,129.62,14.63
z M121.12,19.51h-2.55V9.74h4.06c1.1,0,1.95,0.29,2.53,0.86c0.59,0.57,0.88,1.37,0.88,2.41s-0.29,1.84-0.88,2.41
c-0.59,0.57-1.43,0.86-2.53,0.86h-1.51V19.51z M121.12,14.23h0.85c0.94,0,1.41-0.41,1.41-1.22c0-0.81-0.47-1.22-1.41-1.22h-0.85
V14.23z"/></svg>