<svg xmlns="http://www.w3.org/2000/svg" width="93" height="74" viewBox="0 0 93 74">
<path fill="#0b0c0c" d="M0,73.29h1.72V0.88H0V73.29z M56.47,42.57h-1.8v-1.53h1.8v-3.15h1.74v3.15h2.1v1.53h-2.1v6.53
c0,0.79,0.22,0.94,1.31,0.94h0.8v1.53h-1.33c-1.8,0-2.51-0.37-2.51-2.3V42.57z M63.31,46.88c0-2.67,1.02-4.25,3.82-4.25V40.8
c-1.88-0.06-3.05,0.77-3.88,2.46h-0.04v-2.22h-1.64v10.52h1.74V46.88z M49.93,50.28c-1.43,0-2.78-0.49-2.84-2.04h-1.74
c0.1,2.61,2.11,3.56,4.48,3.56c2.15,0,4.5-0.81,4.5-3.32c0-2.03-1.72-2.6-3.46-2.99c-1.61-0.39-3.45-0.59-3.45-1.83
c0-1.06,1.21-1.34,2.25-1.34c1.14,0,2.33,0.43,2.45,1.77h1.74c-0.14-2.57-2-3.3-4.33-3.3c-1.84,0-3.94,0.88-3.94,2.99
c0,2.02,1.74,2.59,3.45,2.97c1.74,0.39,3.46,0.61,3.46,1.95C52.48,50.04,51.01,50.28,49.93,50.28z M32.93,45.62
c0-1.89,1.02-3.3,3.13-3.3c1.33,0,2.15,0.84,2.15,2.12v7.12h1.74v-6.92c0-2.26-0.86-3.85-3.64-3.85c-1.51,0-2.7,0.61-3.43,1.91
h-0.04v-1.67h-1.64v10.52h1.74V45.62z M38.16,69.04c0,1.61-0.55,2.63-2.33,2.63c-1.9,0-2.35-1.2-2.35-2.89v-0.61h-1.94v0.9
c0,2.73,1.53,4.23,4.25,4.23c3.27,0,4.31-2,4.31-3.97V58.41h-1.94V69.04z M27.33,39.15h1.74v-2.12h-1.74V39.15z M27.33,51.56h1.74
V41.04h-1.74V51.56z M42.09,39.15h1.74v-2.12h-1.74V39.15z M21.79,60.85v1.57h-1.78v1.53h1.78v9h1.74v-9h2.04v-1.53h-2.04v-1.47
c0-0.92,0.49-1.18,1.33-1.18c0.31,0,0.67,0.04,0.98,0.14v-1.51c-0.33-0.1-0.8-0.16-1.12-0.16C22.81,58.25,21.79,59.15,21.79,60.85z
M69.05,60.53h1.74v-2.12h-1.74V60.53z M92.73,68.2h-7.91c-0.06,1.83,0.98,3.46,3.29,3.46c1.43,0,2.43-0.69,2.74-2.06h1.72
c-0.47,2.32-2.14,3.58-4.52,3.58c-3.37,0-4.97-2.32-5.07-5.54c0-3.15,2.08-5.48,4.97-5.48C91.69,62.18,92.83,65.66,92.73,68.2z
M90.89,66.68c-0.08-1.65-1.33-2.97-3.05-2.97c-1.82,0-2.9,1.36-3.02,2.97H90.89z M69.05,72.95h1.74V62.42h-1.74V72.95z
M77.34,71.66c-2.21,0-3.09-1.91-3.09-3.85c0-2.14,0.78-4.11,3.29-4.11c1.43,0,2.35,0.77,2.62,2.1h1.8
c-0.25-2.5-2.17-3.62-4.56-3.62c-3.35,0-4.99,2.48-4.99,5.64c0,3.13,1.72,5.37,4.95,5.37c2.66,0,4.27-1.53,4.66-4.09h-1.78
C80.02,70.69,79.02,71.66,77.34,71.66z M42.09,51.56h1.74V41.04h-1.74V51.56z M49.45,68.37c0,1.89-1.02,3.3-3.13,3.3
c-1.33,0-2.15-0.83-2.15-2.12v-7.12h-1.74v6.92c0,2.26,0.86,3.85,3.64,3.85c1.51,0,2.7-0.61,3.43-1.91h0.04v1.67h1.64V62.42h-1.74
V68.37z M65.56,59.27h-1.74v3.15h-1.8v1.53h1.8v6.7c0,1.93,0.72,2.3,2.51,2.3h1.33v-1.53h-0.8c-1.08,0-1.31-0.14-1.31-0.94v-6.53
h2.11v-1.53h-2.11V59.27z M58.22,66.88c-1.61-0.39-3.45-0.59-3.45-1.83c0-1.06,1.21-1.34,2.25-1.34c1.14,0,2.33,0.43,2.45,1.77h1.74
c-0.14-2.57-2-3.3-4.33-3.3c-1.84,0-3.94,0.88-3.94,2.99c0,2.01,1.74,2.58,3.45,2.97c1.74,0.39,3.45,0.61,3.45,1.95
c0,1.32-1.47,1.57-2.56,1.57c-1.43,0-2.78-0.49-2.84-2.04h-1.74c0.1,2.61,2.1,3.56,4.48,3.56c2.15,0,4.5-0.81,4.5-3.32
C61.68,67.84,59.96,67.27,58.22,66.88z M77.45,41.04h-1.84l-2.96,8.61H72.6l-3.09-8.61h-1.96l4.19,10.46l-0.72,1.79
c-0.33,0.61-0.72,0.96-1.43,0.96c-0.35,0-0.69-0.14-1.02-0.24v1.59c0.39,0.14,0.8,0.18,1.21,0.18c1.55,0,2.27-0.75,3.07-2.81
L77.45,41.04z M19.69,67.69c0,3.07-1.78,5.5-5.13,5.5c-3.35,0-5.13-2.42-5.13-5.5c0-3.09,1.78-5.52,5.13-5.52
C17.91,62.18,19.69,64.6,19.69,67.69z M17.85,67.69c0-2.56-1.47-3.99-3.29-3.99s-3.29,1.42-3.29,3.99c0,2.55,1.47,3.97,3.29,3.97
S17.85,70.24,17.85,67.69z M24.86,51.56V37.03H22.2l-4.62,12.21l-4.6-12.21h-2.66v14.53h1.84V39.47h0.04l4.56,12.09h1.66l4.56-12.09
h0.04v12.09H24.86z M29.51,4.01c0-0.16,0.13-0.29,0.29-0.29s0.29,0.13,0.29,0.29c0,0.16-0.13,0.29-0.29,0.29S29.51,4.16,29.51,4.01z
M30.39,5.16c0,0.16,0.13,0.29,0.29,0.29c0.16,0,0.29-0.13,0.29-0.29c0-0.16-0.13-0.29-0.29-0.29C30.52,4.87,30.39,5,30.39,5.16z
M29.08,4.07c0.16,0,0.29-0.13,0.29-0.29c0-0.16-0.13-0.29-0.29-0.29c-0.16,0-0.29,0.13-0.29,0.29C28.79,3.94,28.92,4.07,29.08,4.07
z M30.37,4.79c0.16,0,0.29-0.13,0.29-0.29c0-0.16-0.13-0.29-0.29-0.29c-0.16,0-0.29,0.13-0.29,0.29
C30.08,4.66,30.21,4.79,30.37,4.79z M23.08,4.07c0.16,0,0.29-0.13,0.29-0.29c0-0.16-0.13-0.29-0.29-0.29
c-0.16,0-0.29,0.13-0.29,0.29C22.79,3.94,22.92,4.07,23.08,4.07z M22.76,6.92c0.04,0.25,0.18,0.65,0.3,0.89
c-0.24-0.11-0.43-0.16-0.68-0.06c0.14,0.19,0.49,0.47,1.03,0.34c0.29-0.07,0.58-0.22,0.57-0.45c-0.01-0.13-0.11-0.29-0.29-0.28
c-0.18,0.02-0.19,0.29-0.13,0.41c-0.23-0.13-0.48-0.82-0.11-0.92c0.29-0.08,0.55,0.32,0.65,0.62c0.05-0.37,0.21-0.71,0.5-0.69
c0.38,0.03,0.25,0.72,0.12,0.9c-0.02-0.24-0.16-0.37-0.27-0.36c-0.1,0.01-0.23,0.08-0.21,0.3c0.02,0.22,0.34,0.36,0.7,0.36
c0.35,0,0.95-0.11,1.01-0.77c-0.22,0.04-0.57,0.21-0.72,0.43c0.05-0.4,0.05-0.69,0-1.11c0.18,0.26,0.49,0.4,0.71,0.43
c-0.06-0.28-0.31-0.58-0.6-0.76h1.49c-0.29,0.18-0.53,0.48-0.6,0.76c0.22-0.04,0.53-0.17,0.72-0.43c-0.05,0.42-0.05,0.7,0,1.11
c-0.15-0.22-0.5-0.39-0.73-0.43c0.06,0.67,0.67,0.77,1.01,0.77c0.36,0,0.68-0.14,0.7-0.36c0.02-0.22-0.11-0.29-0.21-0.3
c-0.11-0.01-0.25,0.12-0.27,0.36c-0.13-0.18-0.26-0.87,0.12-0.9c0.29-0.02,0.44,0.33,0.5,0.69c0.09-0.3,0.36-0.7,0.65-0.62
c0.37,0.1,0.12,0.79-0.11,0.92c0.06-0.12,0.05-0.39-0.13-0.41C28.3,7.34,28.2,7.5,28.19,7.64c-0.01,0.23,0.28,0.38,0.57,0.45
c0.54,0.13,0.89-0.16,1.03-0.34c-0.24-0.1-0.43-0.05-0.67,0.06c0.12-0.24,0.26-0.64,0.3-0.89c0.06,0.27,0.24,0.47,0.46,0.62
c0.05-0.22,0.03-0.6-0.18-0.92l0.82,0.34c-0.39,0.43-0.85,1.41-1.1,2.23c0.16,0.14,0.26,0.32,0.26,0.54c0,0.38-0.25,0.61-0.49,0.76
c0.45,0.29,0.86,0.65,1.24,1.07c0.3,0.34,0.54,0.64,0.77,1.04c-0.04,0.04-0.07,0.09-0.11,0.15c-0.05,0.08-0.19,0.21-0.24,0.28
c-0.07,0.09-0.13,0.2-0.13,0.33c0,0.11,0.04,0.23,0.12,0.37c0.1,0.17,0.73,1.41,0.88,1.72c0.12,0.25,0.35,0.46,0.49,0.57
c0.01,0.17,0.01,0.22,0.01,0.39c0,0.93-0.16,1.83-0.48,2.67c-0.31,0.82-0.75,1.56-1.31,2.19c-0.27,0.31-0.57,0.58-0.88,0.82l0,0
c-0.08,0.06-0.42,0.16-1.82-0.18c-0.18-0.04-0.28-0.07-0.47-0.13c0.02-0.18,0.04-0.27,0.09-0.4c0.06-0.15,0.12-0.28,0.2-0.36
c0.08-0.03,0.08-0.09,0.16-0.13c0.5-0.24,0.94-0.59,1.32-1.04c0.38-0.45,0.68-0.97,0.89-1.55c0.2-0.55,0.31-1.14,0.32-1.75h-3.98
v4.41c0.32,0.02,0.91,0.08,0.91,0.08c-0.15,0.18-0.21,0.36-0.25,0.64c-0.45-0.14-0.9-0.31-1.37-0.5c0.14-0.17,0.31-0.21,0.47-0.22
v-4.41h-4.07c-0.01-0.18-0.1-0.47-0.16-0.55c-0.2-0.25-0.28-0.39-0.29-0.76c-0.01-0.2-0.13-0.46-0.33-0.71
c-0.12-0.14-0.61-0.68-0.72-0.79c0.31-0.81,0.75-1.55,1.31-2.17c0.37-0.42,0.79-0.77,1.24-1.07c-0.24-0.16-0.49-0.38-0.49-0.76
c0-0.22,0.09-0.39,0.25-0.53c-0.26-0.82-0.71-1.8-1.1-2.23l0.82-0.34c-0.21,0.33-0.23,0.71-0.18,0.93
C22.51,7.39,22.69,7.19,22.76,6.92z M26.02,11.53c-0.53,0.01-1.05,0.13-1.54,0.37c-0.49,0.24-0.94,0.59-1.32,1.04
c-0.38,0.45-0.68,0.97-0.89,1.55c-0.21,0.58-0.32,1.18-0.33,1.81h4.08V11.53z M29.02,12.94c-0.38-0.44-0.83-0.79-1.32-1.04
c-0.46-0.22-0.94-0.35-1.44-0.37v4.77h3.98c-0.01-0.63-0.12-1.24-0.33-1.81C29.7,13.91,29.4,13.39,29.02,12.94z M22.8,9.72
c0,0.22,0.14,0.4,0.45,0.58c0.54-0.36,1.48-0.76,2.84-0.76c1.36,0,2.29,0.4,2.84,0.76c0.32-0.19,0.45-0.37,0.45-0.58
c0-0.77-2.18-0.84-3.29-0.84h0h0C24.98,8.89,22.8,8.95,22.8,9.72z M28.33,4.14c0.16,0,0.29-0.13,0.29-0.29
c0-0.16-0.13-0.29-0.29-0.29c-0.16,0-0.29,0.13-0.29,0.29C28.04,4.01,28.17,4.14,28.33,4.14z M24.56,4.35
c0.16,0,0.29-0.13,0.29-0.29c0-0.16-0.13-0.29-0.29-0.29c-0.16,0-0.29,0.13-0.29,0.29C24.27,4.22,24.4,4.35,24.56,4.35z M30.35,6.56
c0,0.16,0.13,0.29,0.29,0.29c0.16,0,0.29-0.13,0.29-0.29c0-0.16-0.13-0.29-0.29-0.29C30.48,6.27,30.35,6.4,30.35,6.56z M23.84,4.14
c0.16,0,0.29-0.13,0.29-0.29c0-0.16-0.13-0.29-0.29-0.29c-0.16,0-0.29,0.13-0.29,0.29C23.55,4.01,23.68,4.14,23.84,4.14z
M30.49,5.86c0,0.16,0.13,0.29,0.29,0.29c0.16,0,0.29-0.13,0.29-0.29c0-0.16-0.13-0.29-0.29-0.29C30.62,5.57,30.49,5.7,30.49,5.86z
M27.84,6.32C27.82,6.54,28,6.76,28.11,7.04c0.12-0.25,0.38-0.42,0.4-0.67c0.02-0.24-0.12-0.43-0.29-0.75
C28.17,5.79,27.86,6.09,27.84,6.32z M29.02,14.99c-0.06,0.02-0.1-0.01-0.11-0.01c0.04-0.02,0.09,0,0.04-0.07
c-0.05-0.07-0.08-0.08-0.12-0.02c-0.05,0.05-0.36-0.01-0.36-0.25c0.02,0.04,0.06,0.07,0.11,0.09c0.01,0.01,0.02,0.01,0.04,0.02
c0.01,0,0.03,0.01,0.04,0.01c0.03,0.01,0.06,0.02,0.09,0.01c0.01,0,0.02,0,0.02,0v-0.01c0.07-0.01,0.12-0.05,0.12-0.12
c0.01-0.13-0.11-0.19-0.25-0.3c-0.05-0.04-0.09-0.08-0.13-0.12c-0.05-0.09-0.02-0.18-0.13-0.35c-0.01-0.04-0.02-0.09-0.04-0.15
c-0.06,0.11-0.09,0.32,0.07,0.5c0.13,0.14,0.41,0.28,0.4,0.41c0,0.03-0.03,0.05-0.07,0.06c-0.01,0-0.03,0-0.04,0
c-0.01,0-0.02,0-0.03-0.01c-0.02-0.01-0.04-0.01-0.06-0.03c-0.03-0.02-0.06-0.04-0.1-0.08c-0.12-0.11-0.22-0.27-0.29-0.36
c-0.13-0.17-0.07-0.33-0.05-0.47c0.09-0.13-0.06-0.39-0.14-0.45c0,0,0.02-0.06-0.01-0.13c-0.02,0.01-0.06,0.01-0.08,0.01
c-0.02-0.05-0.03-0.06-0.07-0.06c-0.06-0.01-0.06-0.04-0.06-0.06c-0.03,0.03-0.04,0.06-0.08,0.06c-0.05,0-0.07,0-0.08,0.02
c-0.03,0.03-0.05,0.04-0.1,0.03c-0.05,0-0.05,0.03-0.05,0.07c0,0.02,0.01,0.06,0.04,0.07c0,0,0.01,0.01,0.02,0.01l0.04,0.05
l0.03-0.05c0.02-0.02,0.09-0.03,0.1,0.02c0.01,0.03,0.02,0.04-0.03,0.05c-0.05,0.01-0.07,0.01-0.11,0.01
c-0.03,0-0.03,0.04-0.03,0.06c0,0.03,0.04,0.05,0.1,0.03c0.06-0.01,0.17-0.03,0.17,0.03c0,0.14-0.16,0.14-0.2,0.3
c-0.04-0.03-0.08-0.06-0.1-0.09c-0.02-0.04-0.06-0.09-0.12-0.15c-0.03-0.03-0.08-0.07-0.12-0.1c-0.06-0.03-0.06-0.06-0.06-0.12
c0-0.05,0.02-0.1,0.02-0.14c0-0.01-0.01-0.03-0.01-0.04c-0.01-0.03-0.05-0.05-0.08-0.05c0.01,0.01,0.03,0.02,0.03,0.05
c-0.01,0.01-0.02,0.02-0.02,0.03c-0.01,0.01-0.02,0.03,0,0.05c0,0,0,0.01,0,0.01c0,0.01,0,0.01,0,0.02c0,0.01,0,0-0.01,0
c-0.01-0.04-0.03-0.09-0.06-0.09c0,0-0.02,0-0.02,0c0,0,0,0,0-0.01c0-0.04-0.04-0.07-0.09-0.02c0.01,0,0.03,0,0.03,0.01
c0,0.01-0.01,0.04-0.01,0.04c0,0.04,0.02,0.05,0.07,0.05c0.01,0,0.01,0,0.01,0.01c0,0.01,0,0.01,0,0.02c0,0.01,0,0.01-0.01,0
c-0.07-0.03-0.09,0-0.1,0.03c0,0,0,0.02,0,0.03c-0.02,0.01-0.03,0.05,0.01,0.08c0-0.01,0-0.03,0.01-0.04c0,0,0.01,0,0.01,0
c0.01,0.01,0.02,0.01,0.02,0.02c0,0,0.02,0,0.04-0.01c0,0,0.01,0,0.02,0c0.01,0.01,0.01,0.01,0.02,0.01c0,0,0,0.01,0,0.01
c-0.04,0.04-0.03,0.08,0.02,0.09c-0.02,0.04-0.1,0.03-0.09-0.04c-0.05,0.09,0.04,0.15,0.11,0.12c0,0.03,0,0.09,0.01,0.09
c0,0,0.01-0.02,0.02-0.02c0.01,0,0.01,0,0.01,0.01c0,0.02,0.01,0.05,0.04,0.05c0-0.01,0-0.02,0.01-0.03
c0.01,0.02,0.03,0.04,0.04,0.06c0.04,0.07,0.11,0.23,0.28,0.31c-0.08,0.05-0.14,0.12-0.2,0.19c-0.05,0.05-0.12,0.1-0.16,0.07
c-0.02-0.01-0.02-0.03-0.05-0.05c-0.02-0.01-0.04-0.02-0.05-0.01c0,0-0.02,0.01-0.03,0.01c-0.03-0.01-0.07,0-0.09,0.03
c0.02,0,0.04-0.01,0.06,0.01c0,0.01,0,0.03,0,0.03c0,0.02,0.02,0.04,0.1,0.04c0,0,0.01,0,0.01,0.01c-0.01,0.01-0.02,0.02-0.05,0.01
c-0.04-0.01-0.06-0.04-0.09-0.01c0,0-0.01,0.01-0.02,0.02c0,0-0.01,0-0.01,0c-0.03,0.01-0.07,0.08-0.03,0.11
c0-0.01,0-0.04,0.03-0.05c0.01,0.01,0.02,0.02,0.02,0.02c0.02,0.04,0.05,0.06,0.11-0.03c0.01-0.01,0.01,0,0.01,0
c0,0.04-0.04,0.1,0.01,0.11c0,0,0.01,0,0.02,0c0,0,0,0.01,0,0.01c0.01,0.05,0.07,0.06,0.1,0.05c-0.02-0.01-0.04-0.02-0.05-0.06
c0.01,0,0.02,0,0.03,0c0.03-0.03-0.01-0.07,0.01-0.09c0-0.01,0.01-0.01,0.01,0c0.01,0.02,0.04,0.06,0.08,0.03
c0.02-0.01,0.03-0.04,0.03-0.06c0.06-0.02,0.11-0.04,0.15-0.03c-0.01-0.03,0.03-0.07,0.09-0.09c0.06-0.02,0.09,0,0.11,0.02
c0.01-0.03,0.03-0.07,0.06-0.11c-0.01,0.25,0.33,0.24,0.41,0.39c-0.1-0.04-0.21-0.07-0.28-0.05c-0.08,0.02-0.22,0.09-0.24,0.18
c-0.01,0.08,0.06,0.21,0.14,0.27c-0.1,0.02-0.13-0.01-0.22,0.01c0,0-0.01,0-0.01,0c-0.07,0.01-0.09-0.13-0.18-0.09
c-0.01,0-0.02,0.01-0.02,0.02h0c-0.04,0-0.08,0.04-0.08,0.08c0.01-0.01,0.03-0.03,0.06-0.03c0,0.01,0,0.02,0,0.02
c0,0.01,0,0.03,0.03,0.03c0.02,0,0.02-0.01,0.04-0.01c0.01,0,0.01,0,0.01,0.01c0,0.03-0.11-0.02-0.09,0.08c0,0,0.01,0.02,0.02,0.03
c0,0.03,0.02,0.06,0.07,0.04c-0.01-0.01-0.03-0.02-0.02-0.04c0.01,0,0.02,0,0.02,0c0.01,0,0.01,0,0.01-0.01c0,0,0,0,0.01,0
c0.01,0,0.01,0.01,0.01,0.01c0,0-0.01,0.01-0.01,0.02c0,0,0,0.02,0.01,0.03c0,0.03,0.05,0.07,0.09,0.03c-0.01,0-0.05-0.01-0.05-0.02
c0.01,0,0.02-0.01,0.02-0.01c0.01-0.01,0.01-0.02,0.01-0.03c0-0.01,0-0.01,0.01-0.01c0.01,0,0.02,0,0.02,0c0.01,0,0.01,0,0.02,0.01
c0.01,0.02,0.04,0.04,0.07,0.03c0.02-0.01,0.03-0.02,0.03-0.02c0.01,0.01,0.03,0.01,0.04,0.02c-0.01-0.04,0.02-0.06,0.09-0.01
l0.06-0.04c0,0,0.07,0.03,0.1,0c0.05-0.04,0.02-0.04,0.02-0.08c-0.03-0.07-0.05-0.07-0.07-0.14c-0.02-0.12,0.15-0.19,0.25-0.17
c0.02,0.08,0.13,0.28,0.31,0.35c0.11,0.04,0.16-0.09,0.2-0.07c0.01,0,0.01,0.01,0.02,0.03c-0.01,0.06,0,0.11-0.01,0.13
c-0.01,0.03-0.07,0-0.12,0c-0.02,0-0.04,0.01-0.04,0.02c-0.04,0.01-0.08,0.04-0.07,0.08c0.01-0.01,0.04-0.03,0.06-0.03
c0,0.01,0,0.01,0,0.02c0.01,0.05,0.06,0.06,0.09,0.03c0-0.01,0.02,0,0.01,0.01c-0.03,0.02-0.08,0.07-0.04,0.09
c0,0,0.02,0.01,0.02,0.01c0,0.03,0.02,0.06,0.05,0.06c-0.01-0.02-0.01-0.03,0-0.06c0.01,0,0.02,0,0.02,0c0.03,0,0.02-0.06,0.05-0.08
c0,0,0.01,0,0.01,0c-0.01,0.04-0.02,0.08,0.01,0.09c0,0,0.01,0,0.03,0.01c0.01,0.03,0.04,0.05,0.09,0.02
c-0.01-0.01-0.03-0.01-0.04-0.03c0.01-0.01,0.02-0.03,0.02-0.03c0.02-0.07-0.04-0.08-0.04-0.11c0-0.04,0.08-0.01,0.08-0.09
c0,0,0-0.01,0-0.01c0.04-0.02,0.07-0.04,0.08-0.07c-0.04,0-0.09-0.01-0.09-0.02v0C28.96,15.07,29,15.03,29.02,14.99z M24.11,15.16
c0,0.15,0.84,0.05,1.11,0.05c0.27,0,0.36,0.05,0.36,0.14c0,0.1-0.28,0.13-0.44,0.15c0.16,0.01,0.21,0.03,0.29,0.02
c0.05-0.01,0.05,0.02,0.05,0.03c0,0.05,0.06,0.02,0.07,0c0.01,0.04-0.01,0.06-0.02,0.07c-0.01,0,0,0.01,0,0.01
c0.01,0.03-0.01,0.07,0.04,0.07c-0.01,0.02-0.03,0.02-0.05,0.02c0,0,0,0,0,0c0.02,0.01,0.03,0.03,0.03,0.04
c0,0.07-0.07,0.05-0.07,0.08c0,0.03,0.06,0.03,0.04,0.09c0,0-0.01,0.02-0.02,0.03c0.01,0.01,0.02,0.02,0.03,0.03
c-0.04,0.02-0.07,0-0.08-0.02c-0.01,0-0.02-0.01-0.02-0.01c-0.03-0.01-0.02-0.05-0.01-0.08c0,0,0-0.01-0.01,0
c-0.03,0.01-0.02,0.07-0.05,0.07c0,0-0.01,0-0.02,0c-0.01,0.03-0.01,0.04,0,0.05c-0.02,0-0.04-0.03-0.04-0.06
c-0.01-0.01-0.02-0.01-0.02-0.01c-0.04-0.01,0.01-0.06,0.03-0.08c0.01-0.01,0-0.01-0.01-0.01c-0.03,0.03-0.07,0.01-0.08-0.03
c0,0,0-0.01,0-0.01c-0.02,0-0.05,0.02-0.06,0.03c0-0.04,0.03-0.06,0.07-0.07c0,0,0.02-0.02,0.04-0.02c0.04,0,0.09,0.02,0.1,0
c0.01-0.03-0.01-0.03,0.01-0.1c0-0.02-0.01-0.03-0.03-0.03c-0.02,0-0.09-0.02-0.15,0.01c-0.05,0.03-0.09,0.05-0.21,0.05
c-0.07,0-0.12-0.02-0.17-0.04c0.03,0.04,0,0.08,0.02,0.09c0.05,0.03,0.05,0.11,0.04,0.13c-0.01,0.02-0.08,0.02-0.12,0.01
c-0.01,0-0.03,0-0.03,0c-0.05,0.01,0,0.06-0.06,0.08c-0.03,0.01-0.06-0.01-0.07-0.03c0,0,0-0.01-0.02-0.01c-0.01,0-0.02,0-0.02,0
c0,0-0.01,0-0.01,0.01c0,0.01,0,0.03-0.01,0.03c0,0-0.01,0-0.02,0.01c0,0.02,0.03,0.02,0.05,0.02c-0.05,0.03-0.09,0-0.09-0.03
c0,0-0.01-0.03-0.01-0.03c0-0.01,0.01-0.01,0.01-0.02c0,0,0-0.01-0.01-0.01c0,0,0,0-0.01,0.01c0,0.01-0.01,0.01-0.01,0.01
s-0.01,0-0.02,0c0,0.01,0.02,0.03,0.02,0.03c-0.05,0.01-0.07-0.01-0.07-0.04c-0.01-0.01-0.02-0.03-0.02-0.03
c-0.02-0.09,0.09-0.04,0.09-0.07c0-0.01,0-0.01-0.01-0.01c-0.01,0-0.02,0.01-0.03,0.01c-0.03,0-0.03-0.01-0.03-0.03
c0,0,0-0.01,0-0.02c-0.03,0-0.04,0.02-0.05,0.03c-0.01-0.04,0.04-0.08,0.07-0.08c0.01,0,0.02-0.01,0.02-0.02
c0.09-0.03,0.09,0.14,0.17,0.09c0.01-0.01,0.04-0.01,0.07-0.02c0,0,0.01,0,0-0.01c-0.02-0.02-0.07-0.04-0.09-0.04
c-0.05-0.01-0.05-0.09-0.03-0.14c-0.02,0.02-0.03,0.03-0.06,0.03c-0.52-0.05-0.27,0.2-0.71,0.14c-0.03-0.01-0.02,0.06-0.1,0.05
c0,0,0,0,0,0c-0.01,0-0.03,0.01-0.04,0.01c0,0.01,0,0.02-0.01,0.04l-0.12,0.05c0,0,0.01-0.01,0.01-0.01
c-0.03,0.02-0.07,0.04-0.1,0.04c0.02-0.01,0.03-0.03,0.03-0.04c0-0.01,0-0.01-0.01,0c-0.08,0.05-0.22-0.01-0.23,0.11
c-0.03-0.03-0.01-0.07-0.03-0.07c-0.01,0-0.02,0.02-0.02,0.02c-0.01-0.01-0.01-0.03-0.01-0.05c0,0,0-0.01,0,0
c-0.05,0.01-0.08,0.01-0.1,0c0,0,0,0,0,0c0-0.01-0.01-0.02-0.02-0.03c-0.01,0.05-0.06,0.07-0.08,0.08c0.03-0.03,0.03-0.06,0.02-0.08
c-0.01,0.01-0.03,0.03-0.03,0.03c0-0.02-0.01-0.04-0.02-0.05c0,0-0.01,0,0,0c0,0.02-0.02,0.06-0.06,0.07
c-0.05,0.01-0.06-0.04-0.06-0.06c0-0.01-0.01-0.01-0.01-0.01c-0.02,0.01,0,0.06-0.04,0.08c0,0-0.01,0-0.02-0.01
c0,0.03,0.01,0.06,0.03,0.07c-0.03,0-0.08-0.03-0.07-0.08c0,0,0-0.01,0-0.01c-0.01-0.01-0.02-0.01-0.02-0.01
c-0.04-0.03,0.01-0.06,0.03-0.1c0,0,0-0.01-0.01-0.01c-0.08,0.06-0.1,0.02-0.11-0.02c0,0,0-0.02-0.01-0.02
c-0.02,0-0.04,0.03-0.04,0.04c-0.02-0.04,0.03-0.09,0.06-0.08c0,0,0.01,0,0.01,0c0.01-0.01,0.02-0.01,0.03-0.01
c0.04-0.02,0.04,0.01,0.07,0.04c0.02,0.01,0.03,0.01,0.04,0c0.01,0,0-0.01,0-0.01c-0.08-0.03-0.08-0.05-0.08-0.07
c0,0,0.01-0.01,0.02-0.02c-0.02-0.03-0.03-0.03-0.05-0.03c0.02-0.01,0.07-0.01,0.09,0.01c0.01,0,0.03,0,0.03,0
c0.01,0,0.03,0.01,0.04,0.03c0.02,0.03,0.01,0.04,0.02,0.06c0.04,0.05,0.16,0.01,0.21-0.02c0.03-0.02,0.21-0.01,0.22-0.01
c0.01,0-0.02-0.06-0.03-0.11c-0.01-0.01-0.02-0.02-0.02-0.03c-0.01,0.03-0.04,0.03-0.06,0.03c-0.11-0.06-0.16-0.16-0.18-0.16
c-0.01,0-0.02,0.01-0.01,0.03c-0.03-0.01-0.04-0.03-0.04-0.05c0,0,0-0.01,0-0.01c-0.01,0-0.02,0.01-0.02,0.02
c-0.01,0-0.02-0.01-0.02-0.03c0,0,0-0.01-0.01,0c-0.07,0.04-0.17-0.02-0.12-0.11c0,0.07,0.1,0.09,0.1,0.01c0-0.01,0-0.01-0.01-0.01
c-0.05-0.01-0.06-0.05-0.02-0.09c0,0,0-0.01,0-0.01c-0.01-0.01-0.01-0.01-0.02-0.01c-0.01,0-0.01,0-0.02,0
c-0.02,0.01-0.03,0.02-0.03,0.01c0,0-0.01-0.01-0.02-0.02c0,0,0,0-0.01,0c-0.02,0-0.02,0.03-0.01,0.04
c-0.04-0.02-0.04-0.06-0.01-0.07c0-0.01,0-0.02,0-0.02c0-0.03,0.03-0.06,0.09-0.03c0,0,0.01,0,0.01,0c0,0,0-0.01,0-0.01
c0-0.01,0-0.01-0.01-0.01c-0.04,0-0.06-0.01-0.06-0.05c0,0,0.01-0.03,0.01-0.04c-0.01-0.01-0.02-0.01-0.03-0.01
c0.04-0.04,0.08-0.01,0.08,0.02c0,0,0,0,0,0.01c0.01,0,0.02,0,0.02,0c0.03,0,0.05,0.05,0.06,0.08c0,0.01,0,0.01,0.01,0
c0-0.01,0-0.02,0-0.02c0,0,0-0.01,0-0.01c-0.02-0.01-0.01-0.03,0-0.05c0,0,0.01-0.02,0.02-0.03c0-0.03-0.02-0.04-0.03-0.05
c0.02-0.01,0.06,0.02,0.07,0.05c0.01,0.01,0.01,0.04,0.01,0.04c0,0.04-0.02,0.09-0.02,0.13c0,0.06,0,0.08,0.06,0.11
c0.07,0.04,0.1,0.11,0.15,0.12c0.02,0,0.03,0,0.05,0.01c0,0,0.02,0,0.04,0l0.03,0.01c0-0.03,0-0.06,0.01-0.08
c-0.01-0.01-0.02-0.02-0.03-0.03c0.03,0,0.04-0.06,0.07-0.11c-0.01,0-0.02-0.01-0.03-0.04c0.03,0.01,0.06-0.07,0.1-0.07
c-0.01-0.04-0.01-0.07,0.01-0.1c0.02,0,0.05,0.01,0.06,0.03c0-0.02,0.03-0.02,0.05-0.02c0,0,0.04-0.01,0.05-0.01
c0.01,0,0.04,0,0.08,0.02c0.04,0.02,0.07,0.04,0.08,0.05c0.01,0.01,0.01,0.04,0.02,0.05c0.01,0.01,0.03,0.03,0.02,0.05
c0.02,0,0.05,0.01,0.07,0.03c0,0.03-0.02,0.05-0.06,0.07c0.04,0.05-0.05,0.14-0.06,0.2c0.35-0.11,1.24,0.01,1.45,0.01
c0.13,0,0.35-0.01,0.35-0.08c0-0.04-0.05-0.07-0.28-0.07c-0.23,0-1.18,0.16-1.18-0.11c0-0.15,0.31-0.12,0.57-0.12
c0.01-0.01,0.01-0.01,0.02-0.02c0.14-0.09,0.48,0.04,0.6-0.04c-0.01,0.04-0.17,0.07-0.32,0.07c0.26,0.05,0.52-0.14,0.72,0.04
c-0.25-0.08-0.61,0.15-0.96,0.05c-0.03-0.01-0.05-0.02-0.06-0.04C24.39,15.1,24.11,15.06,24.11,15.16z M23.43,15.04
c0.03,0.04,0,0.05,0.03,0.07c0.02,0.02,0.05,0,0.07-0.02C23.51,15.09,23.46,15.06,23.43,15.04z M23.59,15.23
c0-0.01-0.01-0.02-0.02-0.02l-0.09-0.04c-0.01-0.01-0.02-0.01-0.03,0c-0.01,0-0.02,0.01-0.02,0.02c0,0.01,0.02-0.01,0.04,0
c0.01,0.01,0,0.02-0.02,0.02c0.02,0.01,0.04,0.02,0.03,0.04c-0.01,0.02-0.02,0.02-0.04,0.02c-0.01,0-0.02,0.01-0.03,0.03
c-0.01,0.02-0.02,0.05,0.02,0.07c0.03,0.01,0.05-0.01,0.06-0.03c0.01-0.02,0.01-0.03,0.01-0.04c-0.01-0.01-0.02-0.03-0.01-0.04
c0.01-0.02,0.03-0.01,0.05,0c-0.01-0.02-0.01-0.03,0-0.03c0.02,0,0.02,0.03,0.03,0.03C23.59,15.25,23.59,15.23,23.59,15.23z
M23.7,15.17c-0.03-0.01-0.09-0.03-0.11-0.04c0,0.03,0.01,0.07,0.04,0.07C23.66,15.19,23.65,15.18,23.7,15.17z M26.27,2.51v0.73
h0.71C26.92,2.87,26.63,2.58,26.27,2.51z M27.61,4.35c0.16,0,0.29-0.13,0.29-0.29c0-0.16-0.13-0.29-0.29-0.29
c-0.16,0-0.29,0.13-0.29,0.29C27.32,4.22,27.45,4.35,27.61,4.35z M26.58,5.93V4.6c-0.1,0.05-0.21,0.08-0.33,0.1v1.23H26.58z
M24.39,13.91c0,0.16,0.64,0.05,0.93,0.05c0.28,0,0.38,0.06,0.38,0.14c0,0.1-0.28,0.15-0.46,0.15c0.16,0.01,0.22,0.03,0.31,0.02
c0.05-0.01,0.05,0.02,0.05,0.03c0.01,0.05,0.06,0.02,0.08,0c0.01,0.04-0.01,0.06-0.02,0.07c0,0,0,0.01,0,0.01
c0.01,0.03-0.01,0.07,0.04,0.07c-0.01,0.03-0.03,0.02-0.05,0.02l0,0c0,0,0,0,0,0.01c0.02,0.01,0.03,0.03,0.03,0.04
c0,0.07-0.07,0.05-0.07,0.08c0,0.03,0.06,0.03,0.04,0.1c0,0.01-0.01,0.02-0.02,0.03c0,0.01,0.03,0.02,0.03,0.03
c-0.04,0.02-0.07,0-0.08-0.02c-0.01,0-0.02,0-0.02,0c-0.03-0.01-0.02-0.05-0.01-0.08c0,0,0-0.01-0.01,0
c-0.03,0.02-0.02,0.07-0.05,0.07c0,0-0.01,0-0.02,0c-0.01,0.03-0.01,0.04,0,0.06c-0.02,0-0.05-0.03-0.04-0.06
c-0.01,0-0.02-0.01-0.02-0.01c-0.04-0.01,0.01-0.06,0.03-0.08c0.01-0.01-0.01-0.01-0.01-0.01c-0.03,0.03-0.08,0.02-0.09-0.03
c0,0,0-0.01,0-0.02c-0.03,0.01-0.05,0.02-0.06,0.03c0-0.04,0.04-0.07,0.07-0.07c0-0.01,0.02-0.02,0.04-0.02c0.04,0,0.09,0.02,0.11,0
c0.02-0.03-0.01-0.04,0.01-0.1c0-0.02-0.01-0.03-0.03-0.03c-0.02,0-0.09-0.02-0.16,0.01c-0.06,0.04-0.09,0.06-0.22,0.06
c-0.07,0-0.12-0.02-0.18-0.04c0.03,0.04,0,0.08,0.03,0.09c0.05,0.03,0.06,0.11,0.05,0.14c-0.01,0.02-0.08,0.02-0.13,0.01
c-0.01,0-0.03,0-0.04,0c-0.05,0.01,0,0.07-0.06,0.09c-0.03,0.01-0.06-0.01-0.07-0.03c0,0-0.01-0.01-0.02-0.01c-0.01,0-0.02,0-0.02,0
c0,0-0.01,0-0.01,0.01c0,0.01,0,0.03-0.01,0.03c0,0-0.01,0.01-0.02,0.01c0,0.02,0.04,0.02,0.05,0.02c-0.05,0.04-0.1,0-0.09-0.04
c-0.01,0-0.01-0.03-0.01-0.03c0-0.01,0-0.02,0-0.02c0-0.01,0-0.01-0.01-0.01c0,0,0,0,0,0c0,0.01-0.01,0.02-0.01,0.02
c0,0-0.01,0-0.02,0c0,0.02,0.01,0.03,0.02,0.03c-0.05,0.02-0.07-0.01-0.07-0.04c-0.01-0.01-0.02-0.03-0.02-0.03
c-0.02-0.1,0.09-0.04,0.09-0.07c0-0.01,0-0.01-0.01-0.01c-0.01,0-0.02,0.01-0.03,0.01c-0.03,0-0.04-0.02-0.03-0.03
c0,0,0-0.01,0-0.02c-0.03,0-0.05,0.02-0.06,0.03c-0.01-0.04,0.04-0.08,0.08-0.08c0.01,0,0.02-0.01,0.03-0.02
c0.09-0.04,0.09,0.15,0.18,0.09c0.01-0.01,0.05-0.01,0.08-0.02c0,0,0.01,0,0-0.01c-0.02-0.02-0.07-0.04-0.09-0.04
c-0.05-0.01-0.05-0.12-0.02-0.17c-0.02,0.02-0.07,0.05-0.1,0.04c-0.4-0.07-0.23,0.18-0.48,0.15c-0.02,0-0.05,0-0.08,0.01
c0,0-0.01,0.01-0.01,0.01c0,0,0,0,0,0c0,0,0,0,0,0c-0.03,0.06-0.16,0.17-0.23,0.15c0.02-0.01,0.03-0.03,0.03-0.04
c0-0.01,0-0.01-0.01,0c-0.08,0.05-0.15,0-0.16,0.13c-0.03-0.03-0.02-0.08-0.03-0.08c-0.01,0-0.02,0.02-0.02,0.03
c-0.01-0.01-0.01-0.03,0-0.05c0,0,0-0.01-0.01-0.01c-0.05,0.01-0.08,0.01-0.1,0c0,0,0,0-0.01,0c0-0.01-0.01-0.02-0.02-0.03
c-0.01,0.05-0.06,0.08-0.08,0.08c0.03-0.03,0.03-0.06,0.02-0.09c-0.01,0.02-0.03,0.03-0.04,0.03c0.01-0.02-0.01-0.04-0.02-0.05
c0,0,0,0,0,0c0,0.03-0.02,0.06-0.07,0.07c-0.05,0-0.06-0.04-0.06-0.06c0,0,0-0.01-0.01,0c-0.02,0.01,0,0.07-0.05,0.08
c0,0-0.01,0-0.02-0.01c-0.01,0.04,0.01,0.06,0.03,0.07c-0.03,0-0.08-0.04-0.07-0.08c0,0,0,0,0-0.01c-0.01-0.01-0.02-0.01-0.02-0.01
c-0.04-0.03,0.01-0.06,0.03-0.1c0,0,0-0.01-0.01,0c-0.09,0.06-0.11,0.02-0.11-0.02c0-0.01-0.01-0.02-0.01-0.03
c-0.03,0.01-0.04,0.03-0.05,0.04c-0.02-0.04,0.03-0.09,0.07-0.08c0,0,0.01,0,0.01,0c0.01,0,0.02-0.01,0.03-0.01
c0.04-0.02,0.04,0.01,0.08,0.04c0.02,0.01,0.03,0.01,0.05,0.01c0.01,0,0-0.01,0-0.01c-0.09-0.03-0.09-0.06-0.08-0.07
c0,0,0.01-0.02,0.01-0.03c-0.02-0.03-0.03-0.03-0.05-0.03c0.02-0.01,0.07-0.01,0.09,0.01c0.01,0,0.03,0,0.03,0
c0.01,0,0.03,0.01,0.04,0.03c0.02,0.03,0.01,0.05,0.03,0.07c0.04,0.05,0.17,0.01,0.22-0.02c0.04-0.02,0.18-0.01,0.2-0.01
c0.01,0-0.04-0.06-0.03-0.12c-0.04,0.03-0.07-0.02-0.13-0.05c-0.06-0.04-0.1-0.1-0.11-0.1c-0.01,0-0.02,0.02-0.01,0.03
c-0.03,0-0.04-0.03-0.04-0.05c0-0.01,0-0.01,0-0.01c-0.01,0-0.02,0.01-0.02,0.02c-0.02,0-0.02-0.01-0.02-0.03c0,0-0.01-0.01-0.01,0
c-0.08,0.05-0.18-0.02-0.12-0.12c-0.01,0.08,0.1,0.1,0.11,0.01c0-0.01,0-0.01-0.01-0.01c-0.06-0.01-0.06-0.05-0.02-0.09
c0,0,0.01-0.01,0-0.01c-0.01-0.01-0.01-0.01-0.02-0.01c-0.01-0.01-0.01,0-0.02,0c-0.02,0.01-0.03,0.02-0.04,0.01
c0,0-0.01-0.01-0.02-0.02c0,0-0.01,0-0.01,0c-0.02,0.01-0.02,0.03-0.02,0.04c-0.04-0.03-0.03-0.06-0.01-0.08c0-0.01,0-0.02,0-0.03
c0-0.03,0.03-0.06,0.09-0.03c0,0,0.01,0,0.01,0c0-0.01,0-0.01,0-0.02c0,0-0.01-0.01-0.01-0.01c-0.04,0-0.07-0.01-0.06-0.05
c0,0,0.01-0.03,0.01-0.04c-0.01-0.01-0.02-0.01-0.03-0.01c0.05-0.04,0.09-0.02,0.08,0.02c0,0,0,0,0,0.01c0.01,0,0.02,0,0.02,0
c0.03,0,0.05,0.05,0.06,0.09c0,0,0,0.01,0.01,0c0-0.01,0-0.02,0-0.02c0,0,0-0.01,0-0.01c-0.02-0.02-0.01-0.04,0-0.05
c0,0,0.01-0.02,0.02-0.03c0-0.03-0.02-0.04-0.03-0.05c0.03-0.01,0.07,0.02,0.07,0.05c0,0.01,0.01,0.04,0.01,0.04
c0,0.04-0.02,0.09-0.03,0.14c0,0.06,0,0.08,0.05,0.12c0.05,0.03,0.09,0.08,0.12,0.11l0.03,0.01c-0.01,0-0.02,0-0.03-0.01
c0.01,0,0.02,0.01,0.02,0.01c0.01,0,0.01,0,0.02,0l0.06,0.02c0-0.03,0-0.07,0.01-0.11c-0.01,0-0.03-0.01-0.05-0.04
c0.03,0,0.05-0.06,0.07-0.11c-0.01,0-0.02-0.01-0.03-0.04c0.03,0.01,0.07-0.08,0.1-0.08c-0.01-0.04-0.01-0.07,0.01-0.1
c0.02,0,0.05,0.01,0.07,0.03c0-0.02,0.03-0.02,0.05-0.02c0,0,0.04-0.01,0.05-0.01c0.02,0,0.04,0,0.09,0.02
c0.04,0.02,0.07,0.04,0.08,0.06c0.01,0.01,0.02,0.04,0.02,0.05c0.02,0.01,0.03,0.03,0.02,0.05c0.02,0,0.05,0.01,0.07,0.03
c0,0.03-0.02,0.06-0.06,0.07c0.04,0.04-0.03,0.12-0.06,0.19c0.38-0.07,1,0.03,1.21,0.03c0.13,0,0.37-0.02,0.37-0.08
c0-0.05-0.05-0.07-0.29-0.07c-0.24,0-1,0.17-1-0.12c0-0.13,0.16-0.13,0.37-0.13c0.01-0.01,0.02-0.01,0.02-0.02
c0.15-0.09,0.39,0.03,0.52-0.05c-0.01,0.04-0.06,0.09-0.23,0.09c0.28,0.06,0.5-0.14,0.76,0.05c-0.22-0.06-0.65,0.13-1.02,0.02
c-0.03-0.01-0.05-0.02-0.06-0.03C24.52,13.83,24.39,13.83,24.39,13.91z M23.76,13.77c0.03,0.05,0,0.05,0.03,0.08
c0.03,0.02,0.06,0,0.07-0.02C23.84,13.82,23.79,13.79,23.76,13.77z M23.92,13.97c0-0.01-0.01-0.02-0.02-0.02l-0.09-0.04
c-0.01-0.01-0.02-0.01-0.03,0c-0.01,0.01-0.02,0.01-0.02,0.02c0,0.01,0.02-0.01,0.04,0c0.01,0.01,0,0.02-0.02,0.03
c0.02,0.01,0.04,0.02,0.03,0.05c-0.01,0.02-0.02,0.02-0.04,0.02c-0.01,0-0.02,0.01-0.03,0.04c-0.01,0.02-0.01,0.05,0.02,0.07
c0.03,0.02,0.06-0.01,0.06-0.03c0.01-0.02,0.01-0.04,0.01-0.05c-0.01-0.01-0.02-0.03-0.01-0.04c0.01-0.02,0.03-0.01,0.05,0
c-0.01-0.02-0.01-0.03,0.01-0.03c0.02,0,0.02,0.03,0.02,0.03C23.93,13.99,23.92,13.98,23.92,13.97z M24.04,13.9
c-0.03-0.01-0.1-0.03-0.11-0.04c0,0.03,0.01,0.07,0.04,0.07C24,13.94,23.99,13.91,24.04,13.9z M26.5,26.84
c0.02,0.04,0.03,0.1,0.03,0.15c0,0.24-0.19,0.43-0.43,0.43c-0.24,0-0.43-0.19-0.43-0.43c0-0.05,0.01-0.1,0.03-0.15
c-0.56-0.03-0.47-0.97-0.66-0.97c-0.09,0-0.16,0.14-0.23,0.31c-0.14-0.16-0.31-0.42-0.31-0.7c0-0.3,0.24-0.62,0.62-0.62
c0.07,0,0.13,0.01,0.19,0.03v-1.33c0.56,0.14,1.12,0.22,1.59,0.24v1.09c0.06-0.02,0.12-0.03,0.18-0.03c0.38,0,0.62,0.32,0.62,0.62
c0,0.28-0.16,0.54-0.31,0.7c-0.08-0.18-0.14-0.31-0.24-0.31C26.96,25.87,27.05,26.82,26.5,26.84z M26.33,26.99
c0-0.13-0.11-0.24-0.24-0.24c-0.13,0-0.24,0.11-0.24,0.24c0,0.13,0.11,0.24,0.24,0.24C26.23,27.23,26.33,27.12,26.33,26.99z
M27.15,25.67c0.08,0,0.18,0.07,0.24,0.19c0.07-0.14,0.12-0.28,0.12-0.38c0-0.18-0.14-0.43-0.43-0.43c-0.5,0-0.38,0.67-0.62,0.67
c-0.11,0-0.18-0.06-0.18-0.17c0-0.19,0.35-0.37,0.35-0.65c0-0.27-0.25-0.51-0.53-0.73c-0.28,0.22-0.53,0.45-0.53,0.73
c0,0.28,0.35,0.46,0.35,0.65c0,0.1-0.08,0.17-0.18,0.17c-0.24,0-0.12-0.67-0.62-0.67c-0.29,0-0.43,0.25-0.43,0.43
c0,0.1,0.04,0.24,0.12,0.38c0.06-0.12,0.16-0.19,0.24-0.19c0.37,0,0.23,0.98,0.67,0.98c0.19,0,0.3-0.12,0.3-0.26
c0-0.14-0.1-0.18-0.1-0.29c0-0.11,0.09-0.15,0.18-0.15c0.1,0,0.18,0.04,0.18,0.15c0,0.11-0.1,0.15-0.1,0.29
c0,0.14,0.1,0.26,0.3,0.26C26.92,26.65,26.77,25.67,27.15,25.67z M25.91,5.93V4.7c-0.11-0.02-0.22-0.05-0.32-0.1v1.33H25.91z
M24.44,12.49c0.02,0,0.04,0.01,0.06,0.02c0-0.02,0.02-0.02,0.04-0.02c0,0,0.03-0.01,0.05-0.01c0.01,0,0.04,0,0.07,0.02
c0.04,0.02,0.06,0.04,0.07,0.05c0.01,0.01,0.01,0.04,0.02,0.04c0.01,0.01,0.03,0.03,0.02,0.04c0.02,0,0.04,0.01,0.06,0.03
c0,0.02-0.02,0.05-0.05,0.06c0.04,0.05-0.06,0.15-0.06,0.2c0.31-0.08,0.43,0.04,0.6,0.04c0.22,0,0.36-0.05,0.36-0.13
c0-0.22-0.81-0.01-0.81-0.32c0-0.05,0.03-0.08,0.09-0.12c-0.01-0.02,0-0.04,0.01-0.06c0.09-0.11,0.24-0.12,0.31-0.21
c0.01,0.03-0.02,0.13-0.1,0.17c0.15-0.01,0.2-0.28,0.54-0.24c-0.29,0.06-0.29,0.33-0.69,0.37h-0.01c-0.04,0.03-0.06,0.06-0.06,0.09
c0,0.2,0.8,0,0.8,0.32c0,0.09-0.14,0.19-0.43,0.18c-0.02,0-0.01,0.01,0,0.01c0.14,0.01,0.18,0.05,0.25,0.04
c0.04-0.01,0.05,0.02,0.05,0.02c0,0.04,0.05,0.02,0.07,0c0.01,0.04-0.01,0.05-0.02,0.06c-0.01,0.01-0.01,0.01,0,0.01
c0.01,0.02-0.01,0.06,0.04,0.06c-0.01,0.02-0.02,0.02-0.04,0.02h0c0,0,0,0,0,0c0.02,0.01,0.02,0.03,0.02,0.04
c0,0.06-0.06,0.04-0.06,0.07c0,0.02,0.05,0.03,0.03,0.09c0,0-0.01,0.02-0.02,0.03c0.01,0.01,0.02,0.02,0.03,0.02
c-0.03,0.02-0.06,0-0.07-0.02c-0.01,0-0.02-0.01-0.02-0.01c-0.03-0.01-0.02-0.04-0.01-0.07c0,0,0,0,0,0
c-0.03,0.01-0.02,0.06-0.04,0.06c0,0-0.01,0-0.02,0c-0.01,0.03-0.01,0.03,0,0.05c-0.02,0-0.04-0.03-0.04-0.05
c-0.01,0-0.02-0.01-0.02-0.01c-0.03-0.02,0.01-0.05,0.03-0.07c0.01-0.01-0.01-0.01-0.01-0.01c-0.02,0.03-0.07,0.01-0.07-0.03
c0,0,0-0.01,0-0.01c-0.02,0-0.04,0.02-0.05,0.02c0-0.03,0.03-0.06,0.06-0.06c0,0,0.02-0.02,0.03-0.01c0.03,0,0.08,0.02,0.09,0
c0.01-0.03-0.01-0.03,0.01-0.09c0-0.02-0.01-0.02-0.02-0.03c-0.02,0-0.08-0.02-0.13,0.01c-0.05,0.03,0.06,0.05-0.05,0.05
c-0.06,0-0.11-0.02-0.15-0.04c0.03,0.04,0,0.07,0.02,0.08c0.04,0.03,0.05,0.1,0.04,0.12c-0.01,0.02-0.07,0.02-0.11,0.01
c-0.01,0-0.02,0-0.03,0c-0.04,0.01,0,0.05-0.05,0.07c-0.03,0.01-0.05-0.01-0.06-0.03c0,0-0.01-0.01-0.01-0.01c-0.01,0-0.01,0-0.02,0
c0,0-0.01,0-0.01,0.01c0,0.01,0,0.02-0.01,0.03c0,0-0.01,0.01-0.02,0.01c0,0.01,0.03,0.02,0.04,0.02c-0.04,0.03-0.09,0-0.08-0.03
c0,0-0.01-0.02-0.01-0.02c0-0.01,0.01-0.01,0.01-0.02c0,0,0-0.01-0.01-0.01c0,0,0,0,0,0c0,0.01-0.01,0.01-0.01,0.01
c0,0-0.01,0-0.02,0c0,0.01,0.01,0.02,0.02,0.03c-0.04,0.01-0.06-0.01-0.06-0.04c-0.01-0.01-0.01-0.02-0.01-0.02
c-0.02-0.08,0.08-0.03,0.08-0.06c0-0.01,0-0.01-0.01-0.01c-0.01,0-0.02,0.01-0.03,0.01c-0.02,0-0.03-0.01-0.03-0.02
c0,0,0-0.01,0-0.02c-0.02,0-0.04,0.02-0.05,0.03c-0.01-0.03,0.04-0.07,0.07-0.07c0.01,0,0.02-0.01,0.02-0.01
c0.08-0.03,0.08,0.13,0.15,0.08c0.01-0.01,0.04-0.01,0.07-0.02c0,0,0.01,0,0-0.01c-0.02-0.02-0.06-0.03-0.08-0.03
c-0.05-0.01-0.05-0.1-0.02-0.15c-0.02,0.02-0.07,0.04-0.09,0.03c-0.31-0.02-0.07,0.09-0.22,0.12c-0.03,0.01-0.1,0.09-0.17,0.08
c0.02-0.01,0.01-0.04,0-0.05c-0.01,0.03-0.05,0.04-0.08,0.03c-0.02,0.01-0.04,0.03-0.04,0.04c0,0.04-0.06,0.06-0.08,0.06
c0.02-0.01,0.02-0.02,0.03-0.03c0-0.01,0-0.01-0.01,0c-0.07,0.04-0.13,0-0.13,0.11c-0.03-0.03-0.01-0.07-0.03-0.07
c0,0-0.02,0.02-0.02,0.02c-0.01-0.01-0.01-0.03,0-0.04c0,0,0-0.01-0.01-0.01c-0.04,0.01-0.07,0.01-0.09,0c0,0,0,0,0,0
c0-0.01-0.01-0.02-0.01-0.02c-0.01,0.05-0.05,0.07-0.07,0.07c0.03-0.03,0.02-0.05,0.02-0.07c-0.01,0.02-0.02,0.03-0.03,0.03
c0.01-0.02-0.01-0.04-0.02-0.05c0,0,0,0,0,0.01c0,0.02-0.02,0.05-0.06,0.06c-0.04,0-0.05-0.04-0.05-0.05c0-0.01,0-0.01-0.01,0
c-0.02,0.01,0,0.06-0.04,0.07c0,0-0.01,0-0.02-0.01c-0.01,0.03,0.01,0.05,0.02,0.06c-0.02,0-0.07-0.03-0.06-0.07c0,0,0-0.01,0-0.01
c-0.01-0.01-0.02-0.01-0.02-0.01c-0.04-0.02,0.01-0.06,0.03-0.09c0,0,0-0.01-0.01,0c-0.07,0.05-0.09,0.02-0.1-0.02
c0,0,0-0.01-0.01-0.02c-0.02,0-0.03,0.02-0.04,0.03c-0.02-0.04,0.03-0.07,0.06-0.07c0,0,0.01,0,0.01,0
c0.01-0.01,0.02-0.01,0.02-0.01c0.03-0.02,0.04,0.01,0.07,0.03c0.01,0.01,0.03,0.01,0.04,0c0.01,0,0-0.01,0-0.01
c-0.07-0.02-0.08-0.05-0.07-0.06c0,0,0.01-0.02,0.01-0.02c-0.01-0.02-0.03-0.02-0.04-0.03c0.02-0.01,0.06-0.01,0.08,0.01
c0.01,0,0.03,0,0.03,0c0.01,0,0.02,0.01,0.04,0.03c0.01,0.02,0.01,0.04,0.02,0.06c0.03,0.05,0.15,0.01,0.19-0.02
c0.03-0.02,0.13-0.01,0.14-0.01c0.01,0,0.12-0.02,0.18-0.05c-0.04-0.05-0.06-0.1-0.07-0.1c-0.01,0-0.02,0.01-0.01,0.03
c-0.03,0-0.03-0.03-0.03-0.04c0,0,0-0.01,0-0.01c-0.01,0-0.02,0.01-0.02,0.01c-0.01,0-0.02-0.01-0.02-0.02c0,0,0,0-0.01,0
c-0.08,0.04-0.16-0.02-0.1-0.09c-0.02,0.06,0.08,0.08,0.09,0.01c0-0.01,0-0.01-0.01-0.01c-0.05-0.01-0.05-0.04-0.01-0.08
c0,0,0-0.01,0-0.01c-0.01,0-0.01-0.01-0.02-0.01c-0.01,0-0.01,0-0.01,0c-0.02,0.01-0.03,0.01-0.04,0.01c0,0-0.01-0.01-0.01-0.01
c0,0-0.01,0-0.01,0c-0.02,0.01-0.02,0.02-0.02,0.03c-0.04-0.02-0.02-0.05,0-0.06c0-0.01,0-0.02,0-0.02
c0.01-0.02,0.03-0.05,0.09-0.02c0,0,0.01,0,0.01,0c0,0,0-0.01,0-0.01c0,0,0,0-0.01,0c-0.03,0-0.06-0.01-0.05-0.04
c0,0,0.01-0.02,0.01-0.03c-0.01-0.01-0.02-0.01-0.03-0.01c0.05-0.03,0.08-0.01,0.07,0.02c0,0,0,0,0,0.01c0.01,0,0.02,0,0.02,0
c0.03,0,0.04,0.04,0.04,0.07c0,0,0,0.01,0.01,0c0-0.01,0.01-0.01,0.01-0.02c0,0,0-0.01,0-0.01c-0.01-0.01-0.01-0.03,0.01-0.04
c0,0,0.01-0.01,0.02-0.02c0-0.03-0.01-0.03-0.02-0.04c0.02,0,0.06,0.02,0.06,0.04c0,0.01,0.01,0.03,0.01,0.04
c0,0.04-0.03,0.07-0.04,0.11c-0.01,0.05-0.01,0.07,0.04,0.1c0.03,0.01,0.05,0.03,0.06,0.05h0c0.01-0.04,0.02-0.12,0.04-0.18
c-0.01-0.01-0.01-0.01-0.02-0.02c0.03,0,0.04-0.05,0.06-0.1c-0.01,0-0.02-0.01-0.03-0.03c0.03,0.01,0.06-0.07,0.09-0.07
C24.42,12.53,24.42,12.51,24.44,12.49z M24.62,12.65c-0.01,0.03,0.01,0.06,0.03,0.06c0.03,0,0.02-0.02,0.06-0.03
C24.69,12.68,24.63,12.65,24.62,12.65z M24.48,12.57c0.02,0.04,0,0.05,0.02,0.07c0.02,0.02,0.05,0,0.06-0.02
C24.55,12.61,24.5,12.59,24.48,12.57z M24.47,12.81c-0.01,0.02-0.01,0.05,0.01,0.06c0.03,0.01,0.05-0.01,0.06-0.03
c0.01-0.02,0.01-0.03,0.01-0.04c-0.01-0.01-0.01-0.02-0.01-0.04c0.01-0.02,0.02-0.01,0.04,0c-0.01-0.02-0.01-0.03,0-0.03
c0.01,0,0.01,0.03,0.02,0.03c0.01,0,0-0.02,0.01-0.03c0-0.01-0.01-0.01-0.02-0.02l-0.08-0.04c-0.01-0.01-0.02-0.01-0.02,0
c-0.01,0.01-0.02,0.01-0.02,0.02c0.01,0.01,0.02-0.01,0.03,0c0.01,0.01,0,0.01-0.02,0.02c0.02,0.01,0.03,0.02,0.03,0.04
c-0.01,0.02-0.01,0.02-0.03,0.02C24.48,12.78,24.48,12.8,24.47,12.81z M26.64,4.38c0,0.16,0.13,0.29,0.29,0.29
c0.16,0,0.29-0.13,0.29-0.29s-0.13-0.29-0.29-0.29C26.77,4.09,26.64,4.22,26.64,4.38z M25.9,2.51c-0.36,0.07-0.65,0.36-0.71,0.73
h0.71V2.51z M25.23,4.66c0.16,0,0.29-0.13,0.29-0.29c0-0.16-0.13-0.29-0.29-0.29c-0.16,0-0.29,0.13-0.29,0.29
C24.94,4.54,25.07,4.66,25.23,4.66z M25.58,2.39h1c-0.21-0.16-0.37-0.39-0.4-0.64c0.24,0.04,0.5,0.21,0.66,0.42V1.18
c-0.16,0.2-0.42,0.38-0.66,0.42c0.03-0.24,0.18-0.46,0.38-0.71H25.6c0.2,0.25,0.35,0.47,0.38,0.71c-0.24-0.04-0.5-0.21-0.66-0.42
v0.99c0.16-0.2,0.42-0.37,0.66-0.42C25.95,2,25.79,2.23,25.58,2.39z M29.57,15.67c0.09,0.01,0.11-0.1,0.04-0.15
c0.13,0,0.18,0.11,0.16,0.17c-0.02,0.04-0.06,0.07-0.13,0.06c0.04,0.04,0.07,0.1,0.07,0.18c-0.08,0-0.14-0.03-0.18-0.06
c0.01,0.07-0.02,0.11-0.06,0.13c-0.06,0.03-0.17-0.02-0.18-0.15c0.05,0.06,0.15,0.04,0.14-0.04h-1.31c0.02,0.08,0.01,0.17-0.07,0.26
c-0.08-0.08-0.09-0.18-0.07-0.26h-1.17c0,0.08,0.1,0.1,0.15,0.03c0,0.13-0.11,0.18-0.17,0.15c-0.04-0.02-0.07-0.06-0.06-0.13
c-0.04,0.04-0.1,0.07-0.18,0.07c0-0.08,0.03-0.14,0.07-0.18c-0.07,0.01-0.11-0.02-0.13-0.06c-0.03-0.06,0.03-0.17,0.15-0.17
c-0.07,0.05-0.05,0.15,0.04,0.14v-1.68c-0.08,0.02-0.17,0.01-0.26-0.07c0.08-0.08,0.18-0.09,0.26-0.07V12.3
c-0.08-0.01-0.1,0.09-0.04,0.14c-0.13-0.01-0.17-0.13-0.14-0.19c0.02-0.03,0.05-0.05,0.11-0.05c-0.04-0.05-0.06-0.11-0.06-0.19
c0.08,0.01,0.14,0.05,0.18,0.1c0.01-0.06,0.04-0.09,0.07-0.1c0.06-0.02,0.17,0.04,0.16,0.16c-0.04-0.07-0.14-0.06-0.15,0.02
c0.33,0.09,0.65,0.23,0.96,0.44c0.32,0.21,0.61,0.48,0.86,0.8c0.03,0.04,0.06,0.07,0.09,0.11c0.05-0.07,0.13-0.13,0.26-0.11
c-0.02,0.12-0.09,0.18-0.17,0.21c0,0-0.01,0.01-0.01,0.01C29.21,14.25,29.48,14.95,29.57,15.67z M29.25,15.49
c0.06,0,0.11,0.01,0.15,0.04c-0.09-0.57-0.3-1.12-0.6-1.61c-0.04,0.02-0.08,0.02-0.11,0c-0.04-0.02-0.06-0.07-0.04-0.13
c-0.05,0.03-0.11,0.05-0.19,0.04c0.01-0.08,0.05-0.13,0.09-0.17c-0.07,0-0.11-0.04-0.12-0.08c-0.01-0.03,0-0.08,0.04-0.11
c-0.23-0.28-0.5-0.53-0.79-0.72c-0.24-0.16-0.5-0.29-0.77-0.37c0.03,0.04,0.05,0.1,0.04,0.17c-0.06-0.01-0.11-0.03-0.15-0.06v1.16
c0.06-0.01,0.12,0.02,0.14,0.06c0.01,0.04,0.01,0.09-0.05,0.13c0.06,0,0.12,0.02,0.18,0.08c-0.06,0.05-0.12,0.08-0.18,0.08
c0.06,0.05,0.06,0.09,0.05,0.13c-0.01,0.04-0.07,0.07-0.14,0.06v1.37c0.04-0.04,0.1-0.06,0.17-0.06c0,0.07-0.03,0.13-0.06,0.17h0.85
c-0.01-0.06,0.03-0.12,0.07-0.13c0.04-0.01,0.09-0.01,0.14,0.05c0-0.06,0.02-0.12,0.08-0.17c0.05,0.06,0.08,0.12,0.08,0.17
c0.05-0.05,0.09-0.06,0.13-0.05c0.04,0.01,0.07,0.07,0.07,0.13h1C29.29,15.63,29.26,15.57,29.25,15.49z M23.66,6.38
c0.02,0.25,0.28,0.42,0.4,0.67c0.11-0.29,0.3-0.5,0.27-0.73C24.31,6.09,24,5.79,23.95,5.63C23.78,5.95,23.63,6.13,23.66,6.38z
M26.97,3.59h-1.78C25.29,4,25.65,4.3,26.08,4.3S26.88,4,26.97,3.59z M13.83,4.19c-0.11,0-0.21,0.09-0.21,0.21
c0,0.11,0.09,0.21,0.21,0.21c0.12,0,0.21-0.09,0.21-0.21C14.03,4.28,13.94,4.19,13.83,4.19z M41.98,22.3
c0.05,0.08,0.08,0.18,0.08,0.28c0,0.04,0,0.07-0.01,0.11c-0.04,0.19-0.16,0.36-0.34,0.47c-0.15,0.1-0.33,0.15-0.49,0.13
c-0.18-0.02-0.32-0.1-0.41-0.23c-0.02-0.02-0.03-0.05-0.04-0.07c0.01,0.19,0.02,0.38,0.02,0.56c0.01,0.46-0.12,0.66-0.32,0.77
c-0.01-0.07-0.15-0.21-0.33-0.21c-0.14,0-0.25,0.1-0.25,0.2c0,0.21,0.25,0.19,0.25,0.5c0,0.32-0.73,0.73-1.19,0.65
c0.07-0.16,0.17-0.67,0.31-1.02c-0.14,0.08-0.26,0.3-0.37,0.62c-0.13,0.38-0.31,0.37-0.47,0.27c0.15-0.17,0.49-0.95,0.85-1.21
c0.36-0.25,0.53-0.34,0.63-0.94c0.09-0.6-0.01-0.96-0.02-1.48c-0.02-0.7-0.31-0.54-0.52-0.54c-0.48,0-2.25-1.14-2.25-2.3
c0-0.11,0.01-0.23,0.02-0.36c-0.81-0.01-1.26,0.21-1.26,0.96c0,0.26,0.03,0.51,0.22,0.66c0.17,0.14,0.25,0.26-0.03,0.39
c-0.31,0.14-2.79,1.16-2.79,1.16c-0.31,0.12-0.36-0.01-0.49-0.16c-0.13-0.15-0.27-0.23-0.43-0.12c-0.16,0.11,0.12,0.23,0.12,0.4
c0,0.17-0.08,0.59-1.21,0.52l0.27-0.45c0.08-0.15,0.12-0.26,0.05-0.27c-0.06-0.01-0.13,0.11-0.23,0.25l-0.33,0.42
c-0.18,0.01-0.37-0.03-0.37-0.03c0.43-0.43,0.67-0.66,0.91-0.9c0.24-0.24,0.52-0.35,1.02-0.42c0.59-0.09,2.52-0.35,2.52-0.97
c0-0.72-0.81-0.67-0.81-1.62c0-0.84,0.36-1.74,2.67-1.7c-0.2-0.54-0.78-0.95-1.34-1.09c-1.15-0.29-1.49-1.07-1.58-1.89
c-0.32-0.01-0.64-0.03-0.88-0.05c-0.71-0.05-1.07-0.26-1.24-0.12c-0.07,0.06-0.13,0.16-0.03,0.33c0.1,0.17,0.34,0.59,0.53,0.88
c0.14,0.02,0.36,0.04,0.39,0.22c0.03,0.18-0.11,0.21-0.14,0.3c-0.03,0.08,0.03,0.16,0.13,0.16c0.09,0,0.15-0.08,0.13-0.15
c0.1-0.07,0.34-0.07,0.57-0.01c0.18,0.19,0.48,0.53,0.56,0.84c-0.28-0.11-0.67-0.25-0.81-0.25c-0.14,0-0.11,0.05,0.01,0.09
c0.12,0.04,0.43,0.16,0.53,0.26l-0.02,0.32c-0.07-0.07-0.62-0.39-0.95-0.53c-0.33-0.13-0.53-0.2-0.7-0.61
c-0.17-0.41-0.68-1.33-0.89-1.68c-0.14-0.24-0.09-0.33-0.02-0.41c0.07-0.08,0.13-0.18,0.19-0.26c0.14-0.21,0.18-0.16,0.38-0.15
c0.2,0.02,0.65,0.03,0.86-0.05c0.05-0.02,0.1-0.04,0.15-0.05c-0.47-0.52-1.04-1.26-1.1-1.35c-0.09-0.13-0.21-0.2-0.3-0.2
c-0.09,0-0.19,0.01-0.26,0.07c-0.03,0.03-0.07,0.06-0.12,0.09c-0.04-0.05-0.09-0.11-0.13-0.16c-0.08-0.09-0.17-0.18-0.26-0.27
c0.18-0.14,0.34-0.26,0.4-0.31c0.12-0.1,0.18-0.18,0.28-0.18s0.25,0.01,0.31,0.01c0.16,0,0.23,0.04,0.3,0.13
c0.17,0.19,0.46,0.4,0.69,0.58c0.02,0.02,0.05,0.04,0.07,0.06c0.02-0.03,0.04-0.05,0.06-0.07c0.1-0.09,0.22-0.13,0.34-0.13
c0.12,0.01,0.24,0.06,0.32,0.16c0.11,0.13,0.17,0.3,0.16,0.49c0,0.07-0.02,0.13-0.04,0.19c0.18,0.15,0.34,0.29,0.51,0.47
c0.08-0.63,0.41-1.25,0.83-1.8l-0.06-0.04c0,0,0.04-0.11,0.04-0.11c0.09-0.29,0.25-0.78,0.32-1.02c0.03-0.1,0.04-0.12,0.04-0.13
l0.05-0.15l0.7,0.27c0.02-0.02,0.04-0.04,0.07-0.06c0.61-0.58,2.11-0.98,2.11-1.82c0-0.2-0.07-0.47-0.28-0.64
c0.1,0.13,0.11,0.31,0.09,0.5c-0.03,0.23-0.37,0.71-0.96,0.71c-0.32,0-0.55-0.31-0.67-0.31c-0.07,0-0.16,0.05-0.25,0.13
c0.03,0.44-0.16,0.67-0.34,0.71c0.07-0.18,0.01-0.49-0.04-0.45c-0.05,0.04-0.12,0.1-0.13,0.35c-0.01,0.25-0.23,0.58-0.57,0.62
c0.07-0.1,0.18-0.51,0.11-0.58c-0.07-0.06-0.18,0.12-0.27,0.12c-0.09,0-0.16-0.09-0.17-0.19c-0.01-0.09-0.19,0-0.22-0.08
c-0.03-0.08,0.2-0.25,0.42-0.34c0.22-0.08,0.54-0.24,0.49-0.35c-0.1-0.22-0.74,0.13-1.03,0.3c-0.44,0.26-0.24-0.1-0.31-0.24
c-0.16-0.38-0.02-0.42,0.17-0.59c0.24-0.22,0.74-0.56,1.29-0.84c0-0.19,0.12-0.34,0.26-0.39c0.23-0.09,0.46-0.18,0.68-0.26
l-3.01-3.76c-0.07-0.07-0.07-0.13-0.04-0.17c0.03-0.04,0.09-0.01,0.19,0.08l3.51,3.43c0.08-0.23,0.16-0.51,0.08-0.82
c0.42,0.2,0.8,0.63,0.86,1.03c1.08-0.02,1.37,0.66,1.69,0.42c0.05,0.16-0.14,0.34-0.44,0.4c1.24,0.32,0.92,1.22,1.63,1.32
c-0.11,0.13-0.28,0.18-0.53,0.09c0.78,1.14,0,1.87,0.6,2.4c-0.23,0.07-0.54-0.12-0.76-0.49c0.23,0.94-0.12,1.45,0.05,1.83
c-0.26,0.07-0.46-0.16-0.54-0.53c-0.05,0.21-0.12,0.39-0.19,0.57l0.29,0.23l-0.11,0.12l0,0l-0.03,0.03c-0.47,0.5-0.69,0.74-0.8,0.86
l-0.08,0.09c0,0-0.09-0.05-0.1-0.06c-0.31,0.38-0.55,0.69-0.55,1.05c0,0.41,0.54,1.14,1.12,1.9c-0.03-0.08-0.04-0.16-0.04-0.24
v-0.02c0-0.14,0.06-0.27,0.16-0.36c0.1-0.09,0.23-0.14,0.37-0.14c0.19,0,0.38,0.1,0.53,0.25c0.14,0.15,0.22,0.34,0.22,0.52v0.02
c-0.01,0.14-0.06,0.27-0.16,0.36c-0.1,0.09-0.23,0.14-0.37,0.14c-0.14,0-0.28-0.05-0.4-0.14c0.41,0.54,0.8,1.05,0.99,1.43
c0.38,0.79,0.74,1.3,1.2,1.3c0.51,0,0.96-0.37,0.96-0.97c0-2.04-2.69-2.24-2.69-4.55c0-1.07,0.93-1.59,1.47-1.59
c0.36,0,0.61,0.1,0.83,0.32c0.06-0.01,0.13-0.02,0.21-0.02c1.27,0,0.47,1.69,1.46,1.8c-0.44,0.21-1.02-0.08-1.32-0.88
c0.07,1.54,2,1.19,1.71,2.33c-0.03-0.76-2.63-0.68-2.7-2.26c-0.01-0.32,0.08-0.59,0.25-0.76c-0.11-0.08-0.24-0.13-0.42-0.13
c-0.45,0-1.1,0.48-1.1,1.22c0,2,2.68,2.26,2.68,4.46c0,0.45-0.17,0.87-0.5,1.12c0.23,0.03,0.54-0.1,0.7-0.28
c-0.23,0.85-1.11,0.87-1.38,0.53c-0.04,0-0.08,0-0.12,0c-0.07,0-0.14-0.01-0.21-0.02c0.17,0.35,0.44,0.69,0.83,0.63
c-0.79,0.63-1.74-0.22-1.6-1.09c-0.23-0.26-0.39-0.58-0.49-0.81c-0.09-0.2-0.22-0.08-0.21,0.13c0.03,0.69-0.52,1.34-0.52,1.84
c0,0.5,0.52,0.98,0.69,0.98c0.17,0,0.3-0.2,0.42-0.15c0.12,0.05,0.11,0.21,0.08,0.57c-0.02,0.24,0.03,0.84,0.07,1.47
c0.05-0.17,0.16-0.33,0.33-0.43c0.18-0.12,0.38-0.16,0.57-0.12C41.79,22.12,41.91,22.19,41.98,22.3z M36.78,6.48
c-0.26-0.08-0.45-0.3-0.67-0.3c-0.44,0-0.31,0.36-0.44,0.6C35.98,6.61,36.36,6.52,36.78,6.48z M33.31,11.63
c0.01-0.13-0.03-0.25-0.1-0.33c-0.03-0.04-0.09-0.08-0.16-0.09c-0.08,0-0.14,0.03-0.17,0.07c-0.08,0.07-0.13,0.19-0.14,0.31
c0,0.01,0,0.02,0,0.03c0,0.2,0.12,0.37,0.27,0.38c0.07,0,0.13-0.03,0.17-0.07C33.25,11.87,33.3,11.76,33.31,11.63z M39.35,15.36
c0,0.13,0.05,0.27,0.16,0.37c0.1,0.11,0.24,0.18,0.37,0.18c0.06,0,0.14-0.01,0.21-0.07l0,0c0.07-0.06,0.08-0.14,0.09-0.2
c0-0.13-0.05-0.27-0.16-0.38c-0.1-0.11-0.24-0.17-0.37-0.18c-0.06,0-0.14,0.01-0.21,0.07C39.37,15.22,39.35,15.3,39.35,15.36z
M38.68,12.53c0.27-0.3,0.83-0.89,0.83-0.89l-0.34-0.27c0.02,0.13,0,0.3-0.04,0.47c-0.08-0.06-0.17-0.2-0.16-0.33l-0.27,0.34
c0.07,0,0.26,0.02,0.34,0.11c-0.25,0.24-0.45,0.12-0.6,0.03c-0.23-0.15-0.33-0.28-0.27-0.4c0.08-0.14,0.34-0.09,0.36,0.13
c0.2-0.09,0.23-0.25,0.16-0.37c-0.06-0.1-0.19-0.12-0.33-0.08c0.31-0.16,0.46-0.43,0.39-0.76c-0.35,0.07-0.5,0.26-0.58,0.6
c-0.02-0.14-0.1-0.27-0.22-0.28c-0.14-0.01-0.27,0.1-0.26,0.31c0.21-0.07,0.36,0.14,0.27,0.28c-0.09,0.13-0.26,0.11-0.49-0.03
c-0.26-0.16-0.29-0.38-0.16-0.62c0.07,0.06,0.13,0.2,0.12,0.37l0.3-0.49c-0.07,0.03-0.2,0.05-0.34,0c0.08-0.09,0.22-0.24,0.42-0.26
l-0.58-0.34c0.08,0.18,0.02,0.38-0.02,0.49c-0.11-0.1-0.16-0.22-0.17-0.3l-0.27,0.51c0.14-0.09,0.29-0.11,0.38-0.08
c-0.14,0.23-0.36,0.32-0.62,0.17c-0.23-0.13-0.34-0.26-0.27-0.41c0.07-0.14,0.33-0.13,0.38,0.1c0.19-0.1,0.22-0.26,0.14-0.38
c-0.06-0.09-0.21-0.1-0.35-0.05c0.25-0.24,0.35-0.47,0.23-0.81c-0.32,0.1-0.48,0.37-0.46,0.71C36.18,9.9,36.09,9.8,35.97,9.8
c-0.14,0-0.26,0.11-0.24,0.33c0.21-0.09,0.37,0.11,0.29,0.25c-0.07,0.11-0.23,0.09-0.48-0.03c-0.15-0.08-0.36-0.2-0.27-0.53
c0.12,0.02,0.23,0.17,0.27,0.24l0.16-0.41c-0.11,0.07-0.28,0.07-0.37,0.03c0.13-0.12,0.27-0.23,0.39-0.28l-0.41-0.16
c0,0-0.24,0.77-0.36,1.16L38.68,12.53z M38.56,18.92c-0.16-0.11-0.42-0.04-0.56,0.17c-0.15,0.21-0.13,0.47,0.03,0.58
c0.16,0.11,0.41,0.04,0.56-0.17C38.73,19.3,38.72,19.04,38.56,18.92z M39.64,17.84c0.15-0.21,0.14-0.47-0.03-0.58
c-0.16-0.12-0.41-0.04-0.56,0.17c-0.15,0.21-0.13,0.47,0.03,0.58C39.25,18.12,39.5,18.05,39.64,17.84z M41.79,22.43L41.79,22.43
c-0.05-0.08-0.13-0.11-0.19-0.12c-0.12-0.03-0.27,0.01-0.4,0.09c-0.12,0.08-0.21,0.2-0.24,0.33c-0.01,0.06-0.02,0.14,0.04,0.22
c0.1,0.16,0.37,0.17,0.58,0.03c0.12-0.08,0.21-0.2,0.24-0.33C41.83,22.59,41.84,22.51,41.79,22.43z M33.46,10.74
c-0.18-0.23-0.1-0.59,0.18-0.81c0.15-0.12,0.34-0.17,0.51-0.15c0.13,0.02,0.24,0.08,0.32,0.18c0.08,0.1,0.11,0.22,0.09,0.35
c-0.02,0.17-0.12,0.34-0.27,0.45C34.01,10.98,33.64,10.97,33.46,10.74L33.46,10.74z M33.59,10.45c0,0.05,0.02,0.1,0.05,0.15
c0.1,0.13,0.33,0.12,0.51-0.02c0.1-0.08,0.17-0.19,0.19-0.3c0.01-0.05,0-0.12-0.05-0.19c-0.05-0.06-0.12-0.08-0.17-0.09
c-0.11-0.01-0.24,0.02-0.34,0.1C33.66,10.2,33.59,10.34,33.59,10.45z M34.11,14.24c0.05,0.14,0.04,0.28-0.01,0.4
c-0.06,0.12-0.16,0.21-0.3,0.26c-0.18,0.06-0.39,0.05-0.58-0.05c-0.35-0.17-0.52-0.53-0.38-0.82c0.06-0.12,0.17-0.21,0.3-0.26
c0.18-0.06,0.39-0.04,0.58,0.05C33.91,13.9,34.05,14.06,34.11,14.24z M33.9,14.31c-0.04-0.12-0.15-0.23-0.28-0.29
c-0.14-0.07-0.28-0.08-0.4-0.04c-0.06,0.02-0.13,0.06-0.17,0.14c-0.08,0.17,0.04,0.4,0.27,0.51c0.14,0.06,0.29,0.08,0.41,0.04
c0.05-0.02,0.13-0.06,0.17-0.14C33.93,14.45,33.92,14.37,33.9,14.31z M31.4,28.05c0.07-0.27,0.11-0.47,0.22-0.71
c0.08-0.18,0.16-0.32,0.23-0.45c0.15-0.28,0.27-0.51,0.27-0.83c0-0.46-0.27-0.69-0.57-0.97c-0.1-0.09-0.2-0.18-0.31-0.29
c0.99,0.08,2.03,0.78,3.04,1.47c0.51,0.35,1.05,0.71,1.56,0.98c0.59,0.31,1.08,0.45,1.53,0.45c0.48,0,0.91-0.34,1.37-0.7
c0.33-0.25,0.67-0.52,1.06-0.69c0.06-0.02,0.08-0.09,0.06-0.15c-0.02-0.06-0.08-0.09-0.14-0.07c-1.28,0.37-2.86-0.68-4.39-1.7
c-1.29-0.85-2.5-1.66-3.55-1.66c-0.39,0-0.73,0.08-1.02,0.24c-0.36,0.2-0.64,0.52-0.81,0.94c-0.18,0.43-0.36,0.72-0.51,0.95
c-0.18,0.28-0.31,0.48-0.31,0.73c0,0.2,0.09,0.39,0.27,0.57c0.15,0.15,0.36,0.29,0.67,0.46c0.07,0.03,0.13,0.06,0.2,0.1
c0.25,0.12,0.41,0.21,0.44,0.35c-0.5,0.22-1.16,0.4-1.9,0.53c-0.84,0.15-1.75,0.22-2.72,0.22c-0.97,0-1.89-0.07-2.72-0.22
c-0.74-0.13-1.4-0.31-1.9-0.54c0.02-0.21,0.18-0.3,0.45-0.43c0.07-0.03,0.13-0.06,0.2-0.1c0.25-0.13,0.49-0.27,0.66-0.41
c0.18-0.16,0.26-0.33,0.26-0.53c0-0.25-0.13-0.45-0.3-0.73c-0.15-0.23-0.33-0.52-0.51-0.95c-0.18-0.42-0.45-0.74-0.81-0.94
c-0.29-0.16-0.64-0.24-1.02-0.24c-1.04,0-2.26,0.81-3.55,1.66c-1.53,1.02-3.11,2.07-4.39,1.7c-0.06-0.02-0.12,0.01-0.14,0.07
c-0.02,0.06,0.01,0.12,0.06,0.15c0.39,0.17,0.73,0.44,1.06,0.69c0.46,0.36,0.89,0.69,1.37,0.69c0.45,0,0.94-0.14,1.53-0.45
c0.51-0.27,1.05-0.63,1.56-0.98c1.01-0.69,2.05-1.39,3.04-1.47c-0.1,0.11-0.2,0.2-0.3,0.28c-0.29,0.26-0.54,0.48-0.54,0.94
c0,0.36,0.12,0.61,0.29,0.97c0.05,0.1,0.11,0.22,0.17,0.35c0.11,0.24,0.16,0.44,0.22,0.71c0.03,0.12,0.06,0.25,0.1,0.4
c0.06,0.23,0.18,0.67,0.91,1.04c0.84,0.43,2.29,0.64,4.31,0.64c2.02,0,3.46-0.22,4.31-0.64c0.73-0.37,0.84-0.8,0.91-1.04
C31.34,28.3,31.37,28.17,31.4,28.05z M38.5,23.26c-0.12-0.13-0.17-0.29-0.14-0.45c0.02-0.13,0.1-0.25,0.22-0.33
c0.15-0.11,0.36-0.15,0.57-0.11c0.38,0.07,0.65,0.38,0.59,0.69c-0.03,0.16-0.13,0.29-0.29,0.37c-0.15,0.08-0.33,0.1-0.51,0.07
C38.77,23.47,38.61,23.38,38.5,23.26z M38.59,22.85c-0.03,0.19,0.15,0.38,0.4,0.42c0.26,0.04,0.49-0.07,0.53-0.26
c0-0.01,0-0.03,0-0.04c0-0.17-0.17-0.34-0.41-0.38c-0.15-0.03-0.29,0-0.4,0.07C38.67,22.7,38.61,22.76,38.59,22.85z M38.31,21.06
c0.1,0.13,0.15,0.31,0.15,0.49c0,0.21-0.08,0.41-0.22,0.54c-0.11,0.1-0.24,0.15-0.37,0.15c-0.13,0-0.26-0.06-0.36-0.17
c-0.13-0.13-0.2-0.32-0.2-0.53v-0.02c0-0.21,0.08-0.4,0.22-0.53c0.1-0.1,0.24-0.15,0.37-0.15C38.06,20.84,38.21,20.92,38.31,21.06z
M38.23,21.55c0-0.26-0.15-0.47-0.34-0.48c-0.09,0-0.16,0.05-0.21,0.09c-0.09,0.09-0.15,0.22-0.15,0.37c0,0.15,0.05,0.29,0.14,0.38
c0.04,0.04,0.11,0.09,0.2,0.09h0c0.09,0,0.16-0.04,0.2-0.09C38.18,21.83,38.23,21.69,38.23,21.55z M28.66,22.9
c-0.58,0.36-1.17,0.57-1.61,0.57c-0.51,0-1.17-0.1-1.86-0.29c-0.61-0.17-1.17-0.39-1.61-0.62c-0.24,0.17-0.5,0.2-0.74,0.08
c-0.3-0.14-0.5-0.48-0.5-0.69c0-0.04,0-0.08,0.01-0.12c-0.2-0.18-0.4-0.37-0.58-0.58c-0.56-0.63-1-1.37-1.31-2.19
c-0.14-0.38-0.26-0.78-0.33-1.18c0.52,0.18,0.74,0,0.89-0.16c0.05,0.02,0.06,0.16,0.05,0.22c0.57-0.01,0.9-0.4,0.95-0.69
c0.05,0.35,0.14,0.69,0.26,1.03c0.21,0.58,0.51,1.1,0.89,1.55c0.13,0.16,0.27,0.3,0.42,0.43c0.09-0.03,0.18-0.05,0.28-0.05
c0.21,0,0.42,0.1,0.57,0.28c0.16,0.18,0.24,0.41,0.21,0.61l0,0.01c1.01,0.46,2.1,0.85,3.01,1.07c0.56,0.14,1.24,0.27,1.69,0.2
c-0.02,0.02-0.04,0.04-0.06,0.06C29.11,22.6,28.89,22.76,28.66,22.9z M24.47,20.94c-0.02-0.12-0.07-0.24-0.17-0.35
c-0.12-0.14-0.29-0.22-0.45-0.22c-0.36,0-0.74,0.39-0.85,0.5l-0.03,0.03l-0.05-0.01c-0.09-0.02-0.19-0.04-0.28-0.05
c0.03,0.08,0.07,0.16,0.13,0.25l0.03,0.04l-0.03,0.04c-0.18,0.28-0.28,0.55-0.28,0.77c0,0.14,0.16,0.42,0.41,0.54
c0.16,0.08,0.33,0.07,0.5-0.02c-0.09-0.05-0.21-0.12-0.29-0.17l-0.04-0.03c-0.07-0.04-0.16-0.09-0.18-0.19
c-0.01-0.02-0.01-0.04-0.01-0.07c0-0.09,0.04-0.19,0.12-0.33c0.02-0.03,0.03-0.05,0.05-0.08c0.01-0.02,0.02-0.03,0.03-0.05
l0.04-0.07l0.07,0.04c0.13,0.08,0.26,0.11,0.36,0.09c0.04-0.01,0.08-0.04,0.1-0.07c0.05-0.1,0.03-0.26-0.16-0.41l-0.07-0.05
l0.1-0.11c0.07-0.08,0.13-0.16,0.21-0.22c0.16-0.14,0.31-0.14,0.48-0.01l0.1,0.07C24.37,20.86,24.42,20.91,24.47,20.94z
M25.29,22.16c0-0.21-0.17-0.39-0.39-0.39c-0.21,0-0.39,0.17-0.39,0.39c0,0.21,0.18,0.39,0.39,0.39
C25.11,22.55,25.29,22.37,25.29,22.16z M26.96,22.72c0-0.2-0.16-0.35-0.36-0.35c-0.2,0-0.36,0.16-0.36,0.35
c0,0.2,0.16,0.36,0.36,0.36C26.8,23.07,26.96,22.91,26.96,22.72z M41.94,21.65c0-0.49,0.4-0.89,0.9-0.89c0.49,0,0.9,0.4,0.9,0.89
c0,0.49-0.4,0.89-0.9,0.89C42.34,22.55,41.94,22.15,41.94,21.65z M42.17,21.65c0,0.37,0.3,0.67,0.67,0.67c0.37,0,0.67-0.3,0.67-0.67
c0-0.37-0.3-0.66-0.67-0.66C42.47,20.99,42.17,21.29,42.17,21.65z M21.48,5.45c0.16,0,0.29-0.13,0.29-0.29
c0-0.16-0.13-0.29-0.29-0.29c-0.16,0-0.29,0.13-0.29,0.29C21.19,5.32,21.32,5.45,21.48,5.45z M21.8,4.79c0.16,0,0.29-0.13,0.29-0.29
c0-0.16-0.13-0.29-0.29-0.29s-0.29,0.13-0.29,0.29C21.51,4.66,21.64,4.79,21.8,4.79z M22.36,4.29c0.16,0,0.29-0.13,0.29-0.29
c0-0.16-0.13-0.29-0.29-0.29c-0.16,0-0.29,0.13-0.29,0.29C22.07,4.16,22.2,4.29,22.36,4.29z M17,3.18c0.08,0.08,0.21,0.08,0.29,0
c0.08-0.08,0.08-0.21,0-0.29c-0.08-0.08-0.21-0.08-0.29,0C16.92,2.97,16.92,3.1,17,3.18z M21.38,6.15c0.16,0,0.29-0.13,0.29-0.29
s-0.13-0.29-0.29-0.29c-0.16,0-0.29,0.13-0.29,0.29S21.23,6.15,21.38,6.15z M27.21,20.17c0.02-0.01,0.02-0.02,0.03-0.03
c0-0.01,0-0.01-0.01-0.01c-0.07,0.04-0.13,0-0.14,0.11c-0.02-0.03-0.01-0.07-0.02-0.07c-0.01,0-0.02,0.02-0.02,0.02
c-0.01-0.01-0.01-0.03,0-0.04c0,0,0-0.01-0.01-0.01c-0.04,0.01-0.07,0.01-0.09,0c0,0,0,0,0,0c0-0.01-0.01-0.02-0.02-0.02
c-0.01,0.05-0.05,0.07-0.07,0.07c0.03-0.02,0.03-0.05,0.02-0.07c-0.01,0.01-0.02,0.03-0.03,0.03c0.01-0.02-0.01-0.04-0.02-0.04
c0,0-0.01,0,0,0c0,0.02-0.02,0.06-0.06,0.06c-0.04,0-0.05-0.04-0.05-0.05c0,0,0-0.01-0.01,0c-0.02,0.01,0,0.06-0.04,0.07
c0,0-0.02,0-0.02-0.01c-0.01,0.03,0.01,0.05,0.02,0.06c-0.02,0-0.07-0.03-0.06-0.07c0,0,0-0.01,0-0.01c-0.01,0-0.02-0.01-0.02-0.01
c-0.04-0.03,0.01-0.06,0.03-0.09c0,0,0-0.01-0.01-0.01c-0.07,0.05-0.09,0.02-0.09-0.02c0,0-0.01-0.01-0.01-0.02
c-0.02,0.01-0.03,0.02-0.04,0.03c-0.02-0.04,0.03-0.08,0.06-0.07c0,0,0,0,0.01,0c0.01,0,0.02-0.01,0.02-0.01
c0.03-0.02,0.04,0.01,0.07,0.03c0.01,0.01,0.03,0.01,0.04,0c0.01,0,0-0.01,0-0.01c-0.07-0.03-0.08-0.05-0.07-0.06
c0,0,0.01-0.01,0.01-0.02c-0.01-0.02-0.03-0.03-0.04-0.03c0.02-0.01,0.06-0.01,0.08,0.01c0.01,0,0.03,0,0.03,0
c0.01,0,0.03,0.01,0.04,0.03c0.01,0.02,0.01,0.04,0.02,0.06c0.02,0.02,0.05,0.02,0.08,0.02c0,0,0,0.01-0.01,0.01l0.01-0.01
c0.04-0.01,0.09-0.02,0.11-0.04c0.03-0.02,0.15,0,0.16,0c0.01,0-0.02-0.04-0.03-0.08c-0.05,0-0.1-0.03-0.12-0.09
c-0.1-0.06-0.09-0.16-0.1-0.16c-0.01,0-0.01,0.01-0.01,0.03c-0.03,0-0.03-0.03-0.03-0.04c0,0,0-0.01-0.01-0.01
c-0.01,0-0.02,0.01-0.01,0.02c-0.01,0-0.02-0.01-0.02-0.02c0,0,0-0.01-0.01,0c-0.07,0.04-0.16-0.02-0.11-0.1
c0,0.07,0.09,0.08,0.09,0.01c0-0.01,0-0.01-0.01-0.01c-0.05-0.01-0.05-0.04-0.02-0.08c0,0,0-0.01,0-0.01
c-0.01,0-0.01-0.01-0.02-0.01c0,0-0.01,0-0.01,0c-0.02,0.01-0.03,0.01-0.03,0.01c0,0-0.01-0.01-0.02-0.01c0,0-0.01,0-0.01,0
c-0.01,0-0.01,0.02-0.01,0.04c-0.04-0.02-0.03-0.05-0.01-0.07c0-0.01,0-0.02,0-0.02c0-0.02,0.02-0.05,0.08-0.03c0,0,0.01,0,0,0
c0,0,0-0.01,0-0.01c0-0.01-0.01-0.01-0.01-0.01c-0.03,0-0.06-0.01-0.05-0.04c0,0,0-0.02,0.01-0.03c0-0.01-0.02-0.01-0.03-0.01
c0.04-0.04,0.07-0.01,0.07,0.02c0,0,0,0.01,0,0.01c0,0,0.02,0,0.02,0c0.03,0,0.04,0.04,0.05,0.08c0,0.01,0.01,0.01,0.01,0
c0-0.01,0-0.01,0-0.02c0,0,0-0.01,0-0.01c-0.02-0.01-0.01-0.03,0-0.04c0,0,0.01-0.01,0.02-0.02c0-0.02-0.02-0.03-0.03-0.04
c0.02,0,0.06,0.01,0.07,0.04c0,0.01,0.01,0.03,0.01,0.04c0,0.04-0.02,0.08-0.02,0.12c0,0.05,0,0.07,0.05,0.1
c0.05,0.03,0.13,0.15,0.18,0.21c-0.01-0.06,0-0.14,0.01-0.21c-0.01-0.01-0.02-0.01-0.03-0.03c0.03,0,0.04-0.05,0.06-0.1
c-0.01,0-0.02-0.01-0.03-0.03c0.03,0.01,0.06-0.07,0.09-0.07c-0.01-0.04-0.01-0.06,0.01-0.09c0.02,0,0.04,0.01,0.05,0.02
c0-0.02,0.02-0.02,0.04-0.02c0,0,0.04-0.01,0.04-0.01c0.02,0.01,0.04,0,0.08,0.02c0.04,0.02,0.06,0.04,0.07,0.05
c0.01,0.01,0.01,0.04,0.02,0.04c0.01,0.01,0.02,0.03,0.02,0.04c0.02,0,0.04,0.01,0.06,0.03c0,0.02-0.02,0.05-0.05,0.06
c0.03,0.04-0.04,0.13-0.07,0.2v0c0.37-0.09,0.66,0.02,0.83,0.02c0.22,0,0.39-0.05,0.39-0.11c0-0.07-0.85,0.1-0.85-0.12
c0-0.07,0.09-0.13,0.19-0.15c0.01-0.01,0.02-0.02,0.03-0.02c0.14-0.08,0.46,0.04,0.57-0.03c-0.01,0.04-0.16,0.07-0.31,0.07
c0.25,0.05,0.42-0.1,0.68-0.01c-0.2-0.06-0.58,0.19-0.91,0.1c-0.03-0.01-0.05-0.03-0.06-0.04c-0.07,0.02-0.12,0.05-0.12,0.1
c0,0.14,0.86-0.07,0.87,0.12c0.01,0.09-0.18,0.17-0.47,0.17c-0.01,0-0.05,0-0.08,0c0,0.07,0.09,0.07,0.14,0.13
c0.03,0.03,0.01,0.06-0.04,0.08c-0.04,0.01,0.02,0.05,0.05,0.05c-0.02,0.03-0.04,0.03-0.06,0.03c0,0-0.01,0-0.01,0
c-0.01,0.02-0.05,0.04-0.02,0.07c-0.02,0.01-0.03,0-0.04-0.02v0c0,0,0,0,0,0.01c0.01,0.02,0,0.04-0.01,0.04
c-0.05,0.04-0.07-0.01-0.09,0.01c-0.02,0.02,0.02,0.05-0.04,0.08c0,0-0.02,0-0.03,0c-0.01,0.01,0,0.03,0,0.04
c-0.04-0.01-0.04-0.04-0.03-0.06c0-0.01-0.01-0.02-0.01-0.02c-0.01-0.02,0.02-0.04,0.04-0.05c0,0,0-0.01,0-0.01
c-0.03-0.01-0.06,0.03-0.08,0.02c0,0-0.01-0.01-0.01-0.02c-0.03,0.01-0.03,0.02-0.04,0.03c-0.01-0.02-0.01-0.05,0.01-0.06
c0-0.01-0.01-0.02-0.01-0.02c-0.01-0.03,0.04-0.03,0.07-0.02c0.01,0,0.01,0,0-0.01c0,0,0,0,0,0c-0.01-0.01-0.02-0.02-0.01-0.03
c0,0,0-0.01,0-0.01c-0.02-0.01-0.04,0-0.06,0c0.01-0.03,0.05-0.04,0.08-0.03c0,0,0.02-0.01,0.04,0c0.02,0.01,0.03,0.03,0.05,0.05
l0.01,0c0.03-0.01,0.02-0.03,0.07-0.06c0.02-0.01,0.01-0.02,0.01-0.03c-0.01-0.01-0.07-0.05-0.13-0.06
c-0.03,0.05-0.22,0.02-0.28,0.01c0.12,0.08,0.06,0.24,0.09,0.25c0.05,0.02,0.05,0.1,0.04,0.12c-0.01,0.02-0.04,0.01-0.08,0
c-0.01,0-0.03,0-0.03,0c-0.04,0.01,0,0.06-0.05,0.07c-0.03,0.01-0.05-0.01-0.06-0.02c0-0.01,0-0.01-0.01-0.01c-0.01,0-0.01,0-0.02,0
c0,0-0.01,0-0.01,0.01c0,0.01,0,0.02-0.01,0.03c0,0-0.01,0.01-0.02,0.01c0,0.01,0.03,0.02,0.04,0.02c-0.04,0.03-0.09,0-0.08-0.03
c0,0-0.01-0.02-0.01-0.02c0-0.01,0.01-0.01,0.01-0.02c0,0,0-0.01-0.01-0.01c0,0,0,0,0,0c0,0.01-0.01,0.01-0.01,0.01
c0,0-0.01,0-0.02,0c0,0.01,0.01,0.02,0.02,0.03c-0.04,0.01-0.06-0.01-0.06-0.04c0-0.01-0.01-0.02-0.01-0.02
c-0.02-0.08,0.08-0.03,0.08-0.07c0-0.01,0-0.01-0.01-0.01c-0.01,0-0.01,0.01-0.03,0.01c-0.03,0-0.03-0.01-0.03-0.02v-0.01
c-0.02,0-0.04,0.02-0.05,0.03c-0.01-0.03,0.03-0.07,0.07-0.07c0,0,0.02-0.01,0.02-0.02c0.08-0.03,0.08,0.13,0.15,0.08
c0.01-0.01,0.04-0.01,0.07-0.02c0,0,0.01,0,0-0.01c-0.02-0.01-0.08-0.07-0.08-0.12c0-0.04,0.01-0.1,0.03-0.13
c-0.09,0.01-0.13,0.07-0.22,0.08c-0.01,0-0.02,0-0.03,0c-0.01,0.13-0.06,0.17-0.06,0.19C27.31,20.14,27.23,20.17,27.21,20.17z
M27.32,19.32c-0.01,0.02,0.01,0.06,0.03,0.06c0.03,0,0.02-0.01,0.06-0.02C27.38,19.36,27.33,19.33,27.32,19.32z M27.17,19.25
c0.02,0.04,0,0.05,0.02,0.07c0.02,0.02,0.05,0,0.06-0.02C27.25,19.29,27.2,19.26,27.17,19.25z M27.24,19.52
c0.01-0.02,0.01-0.03,0.01-0.04c-0.01-0.01-0.02-0.02-0.01-0.04c0.01-0.02,0.03-0.01,0.04,0c-0.01-0.02-0.01-0.03,0.01-0.03
c0.01,0,0.01,0.03,0.02,0.03c0.01,0,0.01-0.02,0.01-0.03c0-0.01-0.01-0.01-0.02-0.02l-0.08-0.04c-0.01,0-0.02-0.01-0.02,0
c0,0.01-0.02,0.01-0.01,0.02c0,0.01,0.02-0.01,0.03,0c0.01,0.01,0,0.02-0.02,0.02c0.02,0.01,0.03,0.02,0.03,0.04
c-0.01,0.02-0.02,0.02-0.03,0.02c-0.01,0-0.02,0.01-0.02,0.03c-0.01,0.01-0.01,0.04,0.02,0.06C27.21,19.57,27.23,19.54,27.24,19.52z
M22.96,17.07c0,0.01,0,0.01,0,0.02l0.08-0.19c0.2,0.11,0.51,0.24,0.77,0.24c0.62,0,1.06-0.3,1.29-0.3c0.26,0,0.4,0.18,0.39,0.42
l0,0.06l0.07,0c0.06,0.01,0.13,0.05,0.13,0.13c-0.01,0.08-0.07,0.12-0.15,0.11l-0.05,0l-0.05,2.14l0.07,0.01l-0.01,0.19
c-0.02,0.06-0.09,0.07-0.16,0.07c0.04,0.33-0.25,0.41-0.38,0.41c-0.15,0-0.28-0.1-0.28-0.27c0-0.14,0.13-0.2,0.21-0.2
c0.08,0,0.13,0.03,0.11,0.11c-0.02,0.06-0.16,0.01-0.16,0.09c0,0.05,0.05,0.09,0.12,0.09c0.11,0,0.17-0.05,0.17-0.18
c0-0.2-0.19-0.22-0.37-0.18c-1.22-0.36-1.92-1.55-1.83-2.49c-0.03-0.01-0.06-0.02-0.08-0.03l0.08-0.18
c-0.03,0.04-0.07,0.06-0.12,0.06c-0.09,0-0.15-0.07-0.15-0.15s0.07-0.15,0.15-0.15C22.89,16.91,22.96,16.98,22.96,17.07z
M24.47,17.3l0.61,0.87c0.04-0.23,0.07-0.43,0.09-0.55c0-0.02,0.01-0.04,0.01-0.06l-0.04,0c-0.08-0.01-0.14-0.05-0.13-0.14
c0.01-0.08,0.09-0.12,0.15-0.11l0.05,0c0.02-0.2,0-0.24-0.1-0.24C24.99,17.06,24.75,17.18,24.47,17.3z M24.02,17.44l0.96,1.37
c0.02-0.14,0.05-0.29,0.07-0.44l-0.72-1.02C24.23,17.39,24.12,17.42,24.02,17.44z M23.52,17.48l1.36,1.94
c0.02-0.11,0.04-0.25,0.06-0.4l-1.09-1.55c-0.07,0.01-0.14,0.01-0.21,0.01C23.61,17.49,23.56,17.49,23.52,17.48z M23.34,17.5
c-0.1,1.11,0.69,1.82,1.49,2.13L23.34,17.5z M16.95,2.74c0.08-0.08,0.08-0.21,0-0.29c-0.08-0.08-0.21-0.08-0.29,0
c-0.08,0.08-0.08,0.21,0,0.29C16.74,2.82,16.87,2.82,16.95,2.74z M26.74,17.55c0.02,0.01,0.03,0.01,0.04,0.01
c0.01,0,0-0.01-0.01-0.01c-0.08-0.03-0.08-0.05-0.07-0.07c0,0,0.01-0.01,0.01-0.02c-0.01-0.03-0.03-0.03-0.05-0.03
c0.02-0.01,0.06-0.01,0.08,0.01c0.01,0,0.03,0,0.03,0c0.01,0,0.03,0.01,0.04,0.03c0.02,0.03,0.01,0.04,0.03,0.06
c0.04,0.05,0.16,0.01,0.21-0.02c0.04-0.02,0.14-0.01,0.15-0.01c0.01,0-0.05-0.05-0.04-0.1l-0.02,0.01
c-0.02-0.01-0.03-0.03-0.04-0.05c-0.02,0.01-0.07,0.03-0.06,0.04c-0.11-0.06-0.16-0.17-0.18-0.17c-0.01,0-0.01,0.01-0.01,0.03
c-0.03,0-0.04-0.03-0.04-0.05c0,0,0-0.01-0.01-0.01c-0.01,0-0.02,0.01-0.02,0.01c-0.01,0-0.02-0.01-0.02-0.03c0,0,0-0.01-0.01,0
c-0.07,0.04-0.17-0.02-0.12-0.11c0,0.08,0.1,0.09,0.1,0.02c0-0.01,0-0.01-0.01-0.01c-0.05-0.01-0.06-0.05-0.02-0.09
c0,0,0-0.01,0-0.01c-0.01,0-0.01-0.01-0.02-0.01c-0.01,0-0.01,0-0.02,0c-0.02,0.01-0.03,0.01-0.04,0.01c0,0-0.01-0.01-0.02-0.01
c0,0-0.01,0-0.01,0c-0.02,0.01-0.02,0.03-0.01,0.04c-0.04-0.02-0.03-0.06-0.01-0.07c0-0.01,0-0.02,0-0.02
c0-0.03,0.03-0.06,0.09-0.03c0,0,0.01,0,0.01,0c0-0.01,0-0.01,0-0.01c0,0,0-0.01-0.01-0.01c-0.04,0-0.06-0.01-0.06-0.05
c0,0,0.01-0.02,0.01-0.03c-0.01-0.01-0.02-0.01-0.03-0.01c0.04-0.04,0.08-0.01,0.08,0.02c0,0,0,0,0,0.01c0.01,0,0.02,0,0.02,0
c0.03,0,0.05,0.05,0.06,0.08c0,0,0,0.01,0.01,0c0-0.01,0-0.02,0-0.02c0,0,0-0.01,0-0.01c-0.01-0.02-0.01-0.03,0-0.05
c0,0,0.01-0.01,0.02-0.02c0-0.03-0.02-0.04-0.03-0.05c0.02-0.01,0.06,0.02,0.07,0.05c0.01,0.01,0.01,0.04,0.01,0.04
c0,0.04-0.02,0.08-0.02,0.13c0,0.06,0,0.08,0.05,0.11c0.07,0.04,0.11,0.11,0.15,0.12c0.02,0,0.03,0,0.04,0.01c0,0,0.02,0,0.04,0
l0.05,0.02c0-0.02,0-0.05,0.01-0.08c-0.01,0-0.03-0.01-0.05-0.04c0.03,0,0.04-0.06,0.07-0.11c-0.01,0-0.02-0.01-0.03-0.04
c0.03,0.01,0.06-0.07,0.1-0.07c-0.01-0.04-0.01-0.07,0.01-0.1c0.02,0,0.05,0.01,0.06,0.03c0-0.02,0.03-0.02,0.04-0.02
c0,0,0.04-0.01,0.05-0.01c0.02,0,0.04,0,0.08,0.02c0.04,0.02,0.07,0.04,0.08,0.05c0.01,0.01,0.02,0.04,0.02,0.05
c0.01,0.01,0.03,0.03,0.02,0.05c0.02,0,0.05,0.01,0.07,0.03c0,0.03-0.02,0.06-0.06,0.07c0.04,0.05-0.05,0.14-0.07,0.2
c0.35-0.11,1.24,0.01,1.45,0.01c0.13,0,0.36-0.02,0.36-0.08c0-0.04-0.05-0.07-0.28-0.07c-0.23,0-1.17,0.16-1.17-0.11
c0-0.15,0.31-0.12,0.57-0.12c0.01-0.01,0.02-0.01,0.02-0.02c0.14-0.09,0.48,0.04,0.6-0.04c-0.01,0.04-0.17,0.07-0.33,0.07
c0.26,0.05,0.44-0.11,0.71-0.02c-0.21-0.06-0.61,0.2-0.96,0.1c-0.03-0.01-0.05-0.02-0.06-0.04c-0.21-0.01-0.49-0.05-0.49,0.05
c0,0.15,0.83,0.05,1.1,0.05c0.27,0,0.36,0.05,0.36,0.14c0,0.1-0.29,0.12-0.44,0.13c-0.02,0-0.01,0.01,0,0.01
c0.15,0.01,0.23,0.03,0.32,0.02c0.05-0.01,0.05,0.02,0.05,0.03c0,0.05,0.06,0.02,0.08,0c0,0.04-0.01,0.06-0.03,0.07
c-0.01,0-0.01,0.01,0,0.01c0.01,0.03-0.01,0.07,0.04,0.07c-0.01,0.03-0.03,0.02-0.05,0.02h0c0,0,0,0,0,0.01
c0.02,0.01,0.03,0.03,0.02,0.04c-0.01,0.07-0.07,0.05-0.07,0.08c0,0.03,0.05,0.03,0.03,0.09c0,0-0.01,0.02-0.02,0.03
c0,0.01,0.02,0.02,0.03,0.03c-0.04,0.02-0.07,0-0.07-0.02c-0.01,0-0.02,0-0.02-0.01c-0.03-0.01-0.02-0.05,0-0.08c0,0,0,0-0.01,0
c-0.03,0.02-0.03,0.07-0.05,0.07h-0.02c-0.01,0.03-0.01,0.04-0.01,0.05c-0.02,0-0.04-0.03-0.04-0.06c-0.01,0-0.02-0.01-0.02-0.01
c-0.04-0.02,0.01-0.06,0.04-0.08c0.01-0.01-0.01-0.01-0.01-0.01c-0.03,0.03-0.08,0.01-0.08-0.03V17.6c-0.03,0-0.05,0.02-0.06,0.03
c0-0.04,0.04-0.06,0.07-0.07c0,0,0.02-0.02,0.04-0.02c0.04,0,0.09,0.02,0.1,0c0.02-0.03,0-0.04,0.02-0.1
c0.01-0.02-0.01-0.03-0.02-0.03c-0.02,0-0.09-0.02-0.15,0.02c-0.06,0.03-0.1,0.05-0.22,0.05c-0.07,0-0.12-0.02-0.17-0.04
c0.03,0.04,0,0.08,0.02,0.09c0.05,0.03,0.06,0.11,0.04,0.13c-0.01,0.02-0.08,0.02-0.12,0.01c-0.01,0-0.03,0-0.04,0
c-0.05,0.01,0,0.06-0.06,0.08c-0.03,0.01-0.05-0.01-0.07-0.03c0,0,0-0.01-0.01-0.01c-0.01,0-0.02,0-0.02,0c0,0-0.01,0-0.01,0.01
c0,0.01,0,0.03-0.01,0.03c0,0-0.01,0.01-0.02,0.01c0.01,0.01,0.03,0.02,0.05,0.02c-0.05,0.03-0.09,0-0.09-0.03
c0,0-0.01-0.03-0.01-0.03c0-0.01,0.01-0.01,0.01-0.02c0,0,0-0.01-0.01-0.01c0,0-0.01,0-0.01,0c0,0.01-0.01,0.01-0.01,0.01
c0,0-0.01,0-0.02,0c0,0.01,0.01,0.03,0.02,0.03c-0.05,0.01-0.07-0.01-0.07-0.04c-0.01-0.01-0.02-0.03-0.02-0.03
c-0.02-0.09,0.09-0.04,0.09-0.07c0-0.01,0-0.01-0.01-0.01c-0.01,0-0.01,0.01-0.03,0.01c-0.03,0-0.03-0.01-0.03-0.03v-0.02
c-0.03,0-0.04,0.02-0.06,0.03c-0.01-0.03,0.04-0.08,0.07-0.08c0,0,0.02-0.02,0.02-0.02c0.09-0.03,0.09,0.14,0.17,0.09
c0.01-0.01,0.05-0.02,0.07-0.02c0,0,0.01-0.01,0-0.01c-0.02-0.02-0.07-0.03-0.09-0.04c-0.05-0.01-0.05-0.11-0.02-0.16
c-0.02,0.02-0.03,0.05-0.06,0.05c-0.52-0.05-0.27,0.2-0.71,0.14c-0.03,0-0.02,0.06-0.1,0.05c-0.04,0.01-0.08,0.01-0.08,0.02
c0,0.04-0.11,0.11-0.14,0.09c0.02-0.01,0.03-0.03,0.03-0.04c0-0.01,0-0.01-0.01,0c-0.07,0.05-0.14,0-0.15,0.12
c-0.03-0.03-0.01-0.08-0.03-0.08c-0.01,0-0.02,0.02-0.02,0.02c-0.01-0.01-0.01-0.03-0.01-0.05c0,0,0-0.01-0.01,0
c-0.05,0.01-0.08,0.01-0.09,0c0,0,0,0,0,0c0-0.01-0.01-0.02-0.02-0.03c-0.01,0.05-0.06,0.07-0.08,0.08
c0.03-0.03,0.03-0.06,0.02-0.08c-0.01,0.02-0.03,0.03-0.04,0.03c0.01-0.02-0.01-0.04-0.02-0.05c0,0-0.01,0-0.01,0.01
c0.01,0.02-0.02,0.06-0.06,0.07c-0.05,0.01-0.06-0.04-0.06-0.06c0-0.01-0.01-0.01-0.01-0.01c-0.02,0.02-0.01,0.06-0.04,0.08
c0,0-0.01,0-0.03-0.01c0,0.03,0.02,0.06,0.03,0.07c-0.03,0-0.08-0.03-0.07-0.08c0,0,0-0.01,0-0.01c-0.01-0.01-0.02-0.01-0.02-0.01
c-0.04-0.03,0.01-0.06,0.03-0.1c0,0,0-0.01-0.01,0c-0.08,0.05-0.1,0.02-0.11-0.02c0,0,0-0.01-0.01-0.02
c-0.03,0.01-0.04,0.03-0.04,0.04c-0.02-0.04,0.03-0.08,0.06-0.08c0,0,0.01,0,0.01,0c0.01,0,0.02-0.01,0.02-0.01
C26.71,17.49,26.71,17.52,26.74,17.55z M27.48,16.92c-0.01,0.03,0.01,0.07,0.04,0.07c0.03,0,0.02-0.02,0.07-0.03
C27.55,16.96,27.49,16.93,27.48,16.92z M27.32,16.84c0.03,0.04,0,0.05,0.02,0.07c0.03,0.02,0.05,0,0.07-0.02
C27.4,16.89,27.34,16.85,27.32,16.84z M27.33,17.17c0.03,0.01,0.05-0.01,0.06-0.03c0.01-0.02,0.01-0.04,0.01-0.04
c-0.01-0.01-0.02-0.03-0.01-0.04c0.01-0.02,0.03-0.01,0.05,0c-0.01-0.02-0.01-0.03,0-0.03c0.02,0,0.01,0.03,0.02,0.03
c0.01,0,0.01-0.02,0.01-0.03c0-0.01-0.01-0.02-0.02-0.02l-0.09-0.04c-0.01,0-0.02-0.01-0.03,0c-0.01,0.01-0.02,0.01-0.02,0.02
c0,0.01,0.02-0.01,0.03,0c0.01,0.01,0,0.02-0.02,0.02c0.02,0.01,0.04,0.02,0.03,0.04c-0.01,0.02-0.02,0.02-0.04,0.02
c-0.01,0-0.02,0.01-0.03,0.03C27.3,17.12,27.3,17.16,27.33,17.17z M26.57,18.69C26.57,18.69,26.58,18.69,26.57,18.69
c0.02,0,0.03-0.01,0.03-0.01c0.04-0.02,0.04,0.01,0.07,0.04c0.02,0.01,0.03,0.01,0.04,0c0.01,0,0-0.01,0-0.01
c-0.08-0.03-0.08-0.05-0.07-0.07c0,0,0.01-0.02,0.01-0.02c-0.01-0.02-0.03-0.03-0.05-0.03c0.02-0.01,0.06-0.01,0.08,0.01h0.03
c0.01,0,0.03,0.01,0.04,0.03c0.01,0.02,0.01,0.04,0.02,0.06c0.03,0.05,0.15,0.01,0.2-0.02c0.03-0.02,0.13-0.01,0.15-0.01
c0.01,0-0.01-0.08,0-0.13l-0.06,0.01c-0.02-0.01-0.03-0.02-0.03-0.03c-0.09-0.05-0.09-0.02-0.1-0.02c-0.01,0-0.01,0.02-0.01,0.03
c-0.03,0-0.03-0.03-0.03-0.05c0,0,0-0.01-0.01-0.01c-0.01,0-0.02,0.01-0.02,0.02c-0.01,0-0.02-0.01-0.02-0.03c0,0,0,0-0.01,0
c-0.07,0.04-0.17-0.02-0.11-0.1c0,0.07,0.09,0.09,0.1,0.01c0-0.01,0-0.01-0.01-0.01c-0.05-0.01-0.06-0.05-0.02-0.08
c0,0,0-0.01,0-0.01c-0.01,0-0.01-0.01-0.02-0.01c-0.01,0-0.01,0-0.01,0c-0.02,0.01-0.03,0.01-0.03,0.01c0,0-0.01-0.01-0.02-0.01
c0,0-0.01,0-0.01,0c-0.01,0-0.01,0.02-0.01,0.04c-0.04-0.02-0.03-0.05-0.01-0.07c0-0.01,0-0.02,0-0.02c0-0.02,0.03-0.05,0.08-0.03
c0,0,0.01,0,0.01,0c0-0.01,0-0.01,0-0.01c0,0,0-0.01-0.01-0.01c-0.04,0-0.06-0.01-0.06-0.05c0,0,0.01-0.02,0.01-0.03
c-0.01-0.01-0.02-0.01-0.03-0.01c0.04-0.04,0.07-0.01,0.07,0.02c0,0,0,0,0,0.01c0.01,0,0.02,0,0.02,0c0.03,0,0.04,0.05,0.06,0.08
c0,0,0,0.01,0.01,0c0-0.01,0-0.02,0-0.02c0,0,0-0.01,0-0.01c-0.02-0.01-0.01-0.03,0-0.05c0,0,0.01-0.01,0.02-0.02
c0-0.02-0.02-0.04-0.03-0.04c0.02-0.01,0.06,0.02,0.07,0.04c0,0.01,0.01,0.04,0.01,0.04c0,0.04-0.02,0.08-0.02,0.13
c0,0.05,0,0.08,0.05,0.11c0.07,0.04,0.09,0.03,0.13,0.04c0,0,0.01,0,0.01,0l0.03,0.01c0-0.03,0.01-0.07,0.02-0.1
c-0.01-0.01-0.02-0.01-0.03-0.03c0.03,0,0.04-0.06,0.06-0.1c-0.01,0-0.02-0.01-0.03-0.03c0.03,0.01,0.06-0.07,0.09-0.07
c-0.01-0.04,0-0.06,0.01-0.09c0.02,0,0.04,0.01,0.06,0.03c0-0.02,0.02-0.02,0.04-0.02c0.01,0,0.04-0.01,0.05-0.01
c0.02,0,0.04,0,0.08,0.02c0.04,0.02,0.06,0.04,0.08,0.05c0.01,0.01,0.02,0.04,0.02,0.04c0.01,0.01,0.02,0.03,0.01,0.04
c0.02,0,0.05,0.01,0.06,0.03c0,0.03-0.02,0.05-0.05,0.07c0.03,0.04-0.03,0.11-0.06,0.17c0.34-0.07,0.91,0.03,1.09,0.03
c0.12,0,0.37-0.02,0.37-0.08c0-0.04,0.02-0.06-0.19-0.06c-0.22,0-0.91,0.15-0.91-0.11c0-0.12,0.15-0.12,0.33-0.12
c0.01-0.01,0.01-0.01,0.02-0.02c0.14-0.08,0.46,0.04,0.57-0.04c-0.01,0.04-0.16,0.07-0.31,0.07c0.25,0.05,0.42-0.11,0.68-0.01
c-0.2-0.06-0.58,0.19-0.91,0.1c-0.04-0.01-0.05-0.03-0.06-0.04c-0.14-0.01-0.25-0.01-0.25,0.06c0,0.14,0.58,0.05,0.84,0.05
c0.26,0,0.27,0.05,0.27,0.13c0,0.1-0.3,0.12-0.45,0.13c-0.02,0-0.01,0.01,0,0.01c0.15,0.02,0.26,0.03,0.34,0.02
c0.05-0.01,0.04,0.02,0.04,0.02c-0.01,0.04,0.05,0.02,0.07,0c0,0.04-0.02,0.06-0.04,0.07c0,0,0,0.01,0,0.01
c0,0.02-0.03,0.06,0.02,0.06c-0.02,0.03-0.03,0.02-0.05,0.02h0c0,0,0,0,0,0c0.02,0.01,0.02,0.03,0.02,0.04
c-0.02,0.06-0.07,0.04-0.08,0.07c-0.01,0.03,0.05,0.03,0.01,0.09c0,0-0.02,0.02-0.03,0.03c0,0.01,0.02,0.02,0.03,0.02
c-0.04,0.02-0.07,0-0.07-0.02c-0.01,0-0.02-0.01-0.02-0.01c-0.02-0.01-0.01-0.04,0.01-0.07c0,0,0,0-0.01,0
c-0.03,0.01-0.04,0.07-0.06,0.07c0,0-0.01,0-0.02,0c-0.02,0.03-0.02,0.04-0.02,0.05c-0.02,0-0.03-0.03-0.02-0.05
c-0.01,0-0.02-0.01-0.02-0.01c-0.03-0.02,0.02-0.05,0.05-0.07c0.01-0.01,0-0.01-0.01-0.01c-0.03,0.03-0.08,0.02-0.07-0.03
c0,0,0-0.01,0-0.01c-0.03,0-0.05,0.02-0.06,0.03c0.01-0.03,0.05-0.06,0.08-0.07c0,0,0.02-0.01,0.04-0.01c0.03,0,0.08,0.02,0.1,0
c0.02-0.03,0-0.03,0.03-0.09c0.01-0.02,0-0.03-0.02-0.03c-0.02,0-0.08-0.02-0.15,0.01c-0.06,0.03-0.11,0.05-0.23,0.05
c-0.06,0-0.12-0.02-0.16-0.04c0.03,0.04,0,0.07,0.02,0.09c0.05,0.03,0.05,0.11,0.04,0.13c-0.01,0.02-0.08,0.02-0.12,0.01
c-0.01,0-0.03,0-0.03,0c-0.05,0.01,0,0.06-0.05,0.08c-0.03,0.01-0.05-0.01-0.06-0.03c0,0-0.01-0.01-0.02-0.01c-0.01,0-0.02,0-0.02,0
c0,0-0.01,0-0.01,0.01c0,0.01,0,0.03-0.01,0.03c0,0-0.01,0.01-0.02,0.01c0,0.02,0.03,0.02,0.05,0.02c-0.05,0.03-0.09,0-0.09-0.03
c0,0-0.01-0.03-0.01-0.03c0-0.01,0.01-0.01,0.01-0.02c0,0-0.01-0.01-0.01-0.01c0,0-0.01,0-0.01,0c0,0.01-0.01,0.01-0.01,0.01
c0,0-0.01,0-0.02,0c0,0.01,0.01,0.03,0.02,0.03c-0.04,0.01-0.07-0.01-0.06-0.04c-0.01-0.01-0.02-0.02-0.02-0.02
C27.9,18.76,28,18.81,28,18.78c0-0.01,0-0.01-0.01-0.01c-0.01,0-0.02,0.01-0.03,0.01c-0.03,0-0.03-0.01-0.03-0.03c0,0,0-0.01,0-0.02
c-0.03,0-0.04,0.02-0.05,0.03c-0.01-0.03,0.04-0.07,0.07-0.07c0.01-0.01,0.02-0.01,0.02-0.01c0.08-0.03,0.08,0.13,0.16,0.08
c0.01-0.01,0.04-0.01,0.07-0.02c0,0,0.01,0,0-0.01c-0.02-0.01-0.06-0.03-0.09-0.04c-0.05-0.01-0.05-0.11-0.02-0.15
c-0.02,0.02-0.06,0.04-0.09,0.04c-0.36-0.06-0.19,0.14-0.42,0.13c-0.03,0-0.02,0.06-0.09,0.05c0.02-0.01,0.02-0.02,0.01-0.03
c-0.01,0.01-0.01,0.02-0.02,0.02c-0.02,0.06-0.1,0.16-0.18,0.12c0.02-0.01,0.03-0.02,0.03-0.04c0-0.01,0-0.01-0.01,0
c-0.07,0.05-0.16,0.02-0.17,0.13c-0.03-0.03-0.01-0.07-0.03-0.07c-0.01,0-0.02,0.02-0.02,0.03c-0.01-0.01-0.01-0.03,0-0.05
c0,0,0-0.01-0.01,0c-0.04,0.01-0.08,0.01-0.09,0c0,0,0,0,0,0c0-0.01-0.01-0.02-0.02-0.02c-0.01,0.05-0.05,0.07-0.07,0.08
c0.03-0.03,0.03-0.06,0.02-0.08c-0.01,0.02-0.03,0.03-0.03,0.03c0-0.02-0.01-0.04-0.02-0.05c0,0-0.01,0-0.01,0
c0.01,0.02-0.02,0.06-0.06,0.06c-0.05,0-0.05-0.04-0.06-0.06c0-0.01,0-0.01-0.01,0c-0.02,0.01,0,0.06-0.04,0.07
c0,0-0.01,0-0.02-0.01c0,0.03,0.01,0.06,0.03,0.07c-0.03,0-0.07-0.03-0.07-0.07c0,0,0,0,0-0.01c-0.01-0.01-0.02-0.01-0.02-0.01
c-0.04-0.03,0.01-0.06,0.03-0.09c0,0,0-0.01-0.01-0.01c-0.08,0.05-0.09,0.02-0.1-0.02c0,0,0-0.01-0.01-0.02
c-0.02,0-0.04,0.02-0.04,0.03C26.49,18.73,26.54,18.68,26.57,18.69z M27.43,18.12c-0.01,0.03,0.01,0.07,0.03,0.07
c0.03,0,0.02-0.02,0.07-0.03C27.5,18.15,27.45,18.13,27.43,18.12z M27.28,18.04c0.03,0.04,0,0.05,0.02,0.07
c0.02,0.02,0.05,0,0.07-0.02C27.36,18.08,27.31,18.05,27.28,18.04z M27.29,18.36c0.03,0.01,0.05-0.01,0.06-0.03
c0.01-0.02,0.01-0.03,0.01-0.04c-0.01-0.01-0.02-0.02-0.01-0.04c0.01-0.02,0.03-0.01,0.05,0c-0.01-0.02-0.01-0.03,0-0.03
c0.02,0,0.01,0.03,0.02,0.03c0.01,0,0.01-0.02,0.01-0.03c0-0.01-0.01-0.02-0.02-0.02l-0.08-0.04c-0.01-0.01-0.02-0.01-0.03,0
c-0.01,0.01-0.02,0.01-0.02,0.02c0,0.01,0.02-0.01,0.03,0c0.01,0.01,0,0.02-0.02,0.02c0.02,0.01,0.04,0.02,0.03,0.04
c-0.01,0.02-0.02,0.02-0.03,0.02c-0.01,0-0.02,0.01-0.03,0.03C27.27,18.31,27.26,18.34,27.29,18.36z M21.53,6.27
c-0.16,0-0.29,0.13-0.29,0.29s0.13,0.29,0.29,0.29c0.16,0,0.29-0.13,0.29-0.29S21.68,6.27,21.53,6.27z M13.75,4.05
c0.12,0,0.21-0.09,0.21-0.21s-0.09-0.21-0.21-0.21c-0.11,0-0.21,0.09-0.21,0.21S13.64,4.05,13.75,4.05z M16.46,3.81
c-0.19-0.1-0.36,0.07-0.19,0.28c0.04-0.19,0.2-0.14,0.24,0c0.03,0.13-0.09,0.29-0.3,0.35c-0.3,0.09-0.4-0.1-0.47-0.26
c0.06-0.04,0.22-0.03,0.39,0.08l-0.14-0.47c-0.07,0.17-0.17,0.24-0.29,0.29c-0.01-0.14,0.09-0.41,0.09-0.41L15.22,3.9
c0,0,0.27,0.13,0.36,0.23c-0.12,0.04-0.24,0.07-0.41-0.01l0.23,0.44c0.05-0.2,0.15-0.31,0.22-0.33c0.06,0.17,0.12,0.37-0.15,0.51
c-0.19,0.1-0.39,0.07-0.46-0.05c-0.08-0.13,0.01-0.28,0.17-0.17c-0.03-0.27-0.26-0.27-0.33-0.07c0-0.28-0.07-0.45-0.37-0.53
C14.4,4.22,14.5,4.39,14.78,4.5c-0.16-0.02-0.33,0.14-0.11,0.33c0-0.18,0.15-0.2,0.23-0.08c0.06,0.08,0.05,0.21-0.07,0.29
c-0.09,0.06-0.27,0.06-0.51-0.16c0.07-0.03,0.15-0.02,0.25,0l-0.31-0.38c0.02,0.13,0.01,0.23-0.02,0.29
c-0.07-0.07-0.09-0.14-0.12-0.28l-0.23,0.21c0.22,0.13,0.48,0.35,0.79,0.77c0.33-0.2,0.91-0.48,1.27-0.63
c0.36-0.15,0.98-0.35,1.35-0.43c-0.08-0.52-0.04-0.85,0.02-1.1l-0.31,0.01c0.08,0.13,0.11,0.19,0.12,0.29
c-0.06-0.03-0.14-0.09-0.22-0.2l0.04,0.48c0.06-0.09,0.1-0.14,0.17-0.17c-0.02,0.31-0.14,0.44-0.25,0.47
c-0.13,0.03-0.23-0.06-0.25-0.16c-0.03-0.14,0.1-0.23,0.22-0.1c0.02-0.29-0.21-0.29-0.31-0.16c0.12-0.28,0.07-0.46-0.18-0.61
C16.2,3.44,16.27,3.61,16.46,3.81z M8.78,14.69c-0.15-1.58,1.75-1.23,1.91-2.54c-0.39,0.57-1.07,0.99-1.46,0.77
c0.98,0.02,0.68-2,1.81-2c0.11,0,0.24,0.03,0.38,0.08c0.31-0.25,0.67-0.4,0.98-0.4c0.45,0,1.17,0.34,1.17,1.22
c0,1.98-3.2,3.25-3.2,5.11c0,0.62,0.37,0.92,0.86,0.92c1.11,0,1.83-1.99,3.04-3.62c0.75-1.09,1.27-3.28,1.77-4.3
c-0.59,0.42-0.67,1.56-1.38,1.63c0.38-0.32,0.11-1.3,0.35-2.02c0.09-0.26,0.13-0.52,0.06-0.78c-0.43,0.46-0.25,2-0.95,2.19
c0.25-0.31-0.03-0.82-0.03-1.29c0-0.88,0.46-1.02,0.5-1.84c-0.42,0.16-0.28,1.32-1.11,1.29c0.59-0.58-0.02-1.2,0.66-1.87
c-0.4-0.18-0.67-0.49-0.67-0.81c0.26-0.21,0.57-0.28,0.85-0.3c-0.13-0.19,0.04-0.39,0.22-0.54c0.06,0.07,0.15,0.24,0.25,0.17
c0.17-0.11,0.74-0.47,1.24-0.66c0.5-0.19,1.15-0.37,1.35-0.4c0.12-0.02,0.07-0.18,0.06-0.3c0.24-0.02,0.51,0,0.54,0.25
c0.21-0.17,0.5-0.26,0.79-0.28c0.16,0.35,0.2,0.64,0.05,1.11c0.41,0.03,0.63,0.38,1.01,0.29c-0.32,0.44-0.72,0.25-1.09,0.21
c1.09,0.33,1.29,1.4,1.9,1.48C19.99,7.96,19.56,7.07,19,7.08c1.45,0.73,1.46,1.6,1.87,1.61c-0.45,0.41-0.8-0.12-1.38-0.26
c1.15,0.76,1.23,1.37,1.13,1.88c0.25,0.23,0.22,0.53,0.24,0.89c0.19-0.13,0.52-0.18,0.74-0.24c-0.08,0.08-0.15,0.16-0.23,0.24
c-0.58,0.65-0.99,1.28-1.32,2.11c-0.25-0.24-0.51-0.5-0.65-0.62c-0.23-0.22-0.45-0.17-0.55-0.16c0.38,0.42,1.62,1.75,1.98,2.17
c0.37,0.43,0.33,0.73,0.37,1.05c0.05,0.32,0.46,0.57,0.37,0.79c-0.1,0.27,0.13,0.33,0.13,0.54c0,0.27-0.23,0.4-0.49,0.46
c0.19-0.37,0.02-0.58-0.29-0.64c0.06,0.71-0.49,0.81-0.72,0.7c0.22-0.04,0.31-0.38,0.19-0.69c-0.1,0.24-0.35,0.43-0.58,0.43
c-0.22,0-0.39-0.16-0.47-0.35c0.26,0.17,0.47-0.03,0.47-0.16s-0.26-0.2-0.26-0.4c0-0.48,0.53-0.28,0.53-0.71
c0-0.17-0.09-0.25-0.2-0.25c-0.11,0-0.28,0.05-0.33,0.34c-0.26-0.23,0-0.77-0.12-1.12c0.02,0.56-0.36,0.53-0.51,0.74
c-0.19-0.19,0-0.58-0.19-1.03c-0.07,0.51-0.26,0.44-0.32,0.74c-0.52-0.25-1.44-0.17-1.76,0.18c0.89,0.69,1.94,1.05,1.94,2.11
c0,0.82-1.28,1.14-1.28,1.66c0,0.53,1.33,1.74,2.01,1.74c0.22,0,0.32-0.27,0.51-0.28c0.18-0.01,0.34,0,0.51,0.01
c0.17,0.01,0.3,0.16,0.29,0.31c0.31,0.03,0.7,0.51,0.31,0.9c-0.06-0.22-0.27-0.52-0.67-0.31c0.15,0.35,0.02,0.7-0.44,0.83
c0.14-0.23,0.17-0.54-0.1-0.54c-0.27,0-0.04,0.17-0.55,0.17c-0.51,0-0.45,0.02-0.66-0.27c-0.21-0.29-0.35-0.4-0.47-0.36
c-0.11,0.04-0.17,0.33,0.03,0.44c-1.08,0-0.63-1.11-1.19-1.38c0.02,0.35,0.04,0.61-0.01,0.78c-0.4-0.31-0.64-0.73-0.72-1
c-0.07-0.27-0.02-0.52-0.28-0.65c-0.08-0.04-0.18-0.13-0.15-0.27c0.02-0.11,0.09-0.08,0.28-0.17c0.23-0.1,0.52-0.33,0.52-0.89
c0-0.43-0.08-1.02-0.8-1.43c0.05,0.91,0.04,1.68-0.38,2.38c-0.53,0.9-1.43,1.45-1.94,1.67c-0.51,0.22-1.23,0.39-1.23,1.06
c0,1.25,0.56,1.99,1.13,1.99c0.36,0,0.28-0.41,0.8-0.41c0.23,0,0.48,0.09,0.53,0.26c0.29-0.05,0.6,0.11,0.6,0.38
c0,0.27-0.12,0.43-0.34,0.47c0.17-0.35-0.26-0.44-0.39-0.36c-0.13,0.08,0.04,0.21,0.04,0.42c0,0.21-0.07,0.41-0.44,0.51
c0.08-0.13,0.08-0.31-0.15-0.31c-0.23,0-0.31,0.38-0.6,0.38c-0.47,0-0.6-0.2-1.04-0.11C12,25.14,12,25.33,12.12,25.41
c-0.64,0.04-0.51-0.66-0.37-0.8c0.14-0.14,0.23-0.23,0.04-0.36c-0.19-0.13-0.5,0-0.56,0.31c-0.48-0.94,0.19-0.89-0.03-1.94
c-0.11,0.44-0.38,0.78-0.59,0.89c0.08-0.24-0.13-0.67-0.13-1.03c0-0.8,0.5-1.06,0.5-1.32c0-0.17-0.19-0.35,0.01-0.52
c0.11-0.09,0.34,0.09,0.48,0.09c0.64,0,1.1-0.82,1.2-1.73c0.12-1.09,0.55-1.83,1-2.65c0.02-0.13,0.04-0.26,0.07-0.38
c-0.45,0.56-0.84,1.41-1.46,1.9c0.08,0.69-1.28,1.49-2.06,0.88c0.25,0.02,0.74-0.1,0.88-0.49c-0.12-0.01-0.22-0.03-0.33-0.07
c-0.47,0.26-1.22-0.07-1.21-0.59c0.19,0.22,0.42,0.27,0.64,0.17c-0.16-0.22-0.26-0.51-0.26-0.85c0-2.03,3.18-3.43,3.18-5.09
c0-0.53-0.33-0.8-0.69-0.8c-0.2,0-0.41,0.05-0.64,0.2c0.15,0.14,0.26,0.32,0.26,0.53C12.06,13.64,9.04,13.46,8.78,14.69z
M16.82,5.82c0.17,0.3,0.56,0.5,0.85,0.28c0.23-0.18,0.03-0.38,0.32-0.82C17.68,5.47,17.22,5.66,16.82,5.82z M15.97,6.15
c-0.4,0.15-0.87,0.33-1.23,0.41c0.51,0.12,0.51,0.4,0.8,0.38C15.91,6.9,16.05,6.48,15.97,6.15z M16.28,7.33
c0.17-0.02,0.16,0.13,0.04,0.35c0.26-0.06,0.51-0.17,0.62,0.06c0.1,0.2,0.05,0.32-0.12,0.48c-0.09,0.08-0.03,0.27,0.05,0.49
c0.07,0.22,0.36,0.55,0.74,0.39c0.4-0.17,0.37-0.56,0.26-0.76c-0.1-0.21-0.19-0.39-0.31-0.39c-0.23,0-0.35-0.05-0.42-0.26
c-0.08-0.24,0.17-0.33,0.4-0.47c-0.24-0.07-0.36-0.18-0.22-0.28c0.16-0.12,0.38,0.11,0.44,0c0.05-0.1-0.12-0.19-0.19-0.26
c-0.1-0.1-0.19-0.07-0.33-0.02l-1.08,0.41c-0.14,0.06-0.22,0.11-0.23,0.24c0,0.1-0.06,0.28,0.05,0.32
C16.08,7.68,16.08,7.35,16.28,7.33z M14.08,3.6c0.12,0,0.21-0.09,0.21-0.21c0-0.11-0.09-0.21-0.21-0.21c-0.11,0-0.21,0.09-0.21,0.21
C13.87,3.51,13.97,3.6,14.08,3.6z M15.93,3c0.08-0.08,0.08-0.21,0-0.29c-0.08-0.08-0.21-0.08-0.3,0c-0.08,0.08-0.08,0.21,0,0.29
C15.72,3.08,15.85,3.08,15.93,3z M14.63,3.56c0.12,0,0.21-0.09,0.21-0.21c0-0.11-0.09-0.21-0.21-0.21c-0.11,0-0.21,0.1-0.21,0.21
C14.43,3.47,14.52,3.56,14.63,3.56z M16.4,2.65c0.08-0.08,0.08-0.21,0-0.29c-0.08-0.08-0.21-0.08-0.29,0
c-0.08,0.08-0.08,0.21,0,0.29C16.19,2.73,16.32,2.73,16.4,2.65z M14.6,2.71l0.17,0.36l0.21-0.25c0.01,0,0.02,0.01,0.02,0.01
c0.02,0.12,0.03,0.33,0.03,0.45c0,0.15,0.12,0.26,0.26,0.26c0.15,0,0.27-0.12,0.27-0.26c0-0.1-0.06-0.19-0.14-0.23
c-0.1-0.08-0.22-0.18-0.29-0.27c0.01-0.01,0.01-0.02,0.01-0.03l0.35,0.03L15.35,2.4l-0.26,0.22c0,0-0.01-0.01-0.01-0.01l-0.02-0.38
l-0.36,0.14l0.24,0.29c-0.01,0.01-0.01,0.02-0.02,0.03L14.6,2.71z"/></svg>