<svg xmlns="http://www.w3.org/2000/svg" width="143" height="34" viewBox="0 0 143 34">
<path fill="#0b0c0c" d="M38.28,31.21L38.28,31.21V15.61c0-2.77-3.15-5.02-7.04-5.02c-3.2,0-5.9,1.53-6.76,3.61
c-0.85-2.09-3.55-3.61-6.76-3.61c-2.91,0-5.4,1.26-6.47,3.05v-2.49H2.25H0.56H0v0.56h0.56c0.93,0,1.69,0.75,1.69,1.67v0v17.84v0
c0,0.92-0.76,1.67-1.69,1.67H0v0.56h0.56h1.69h1.13h6.19h1.69h1.69v-0.56c-0.93,0-1.69-0.75-1.69-1.67V15.61
c0-1.23,1.01-2.23,2.25-2.23c1.24,0,2.25,1,2.25,2.23v15.61c0,0.92-0.76,1.67-1.69,1.67v0.56h1.69h1.13h6.76h1.13h1.69v-0.56
c-0.93,0-1.69-0.75-1.69-1.67v0V15.61c0-1.23,1.01-2.23,2.25-2.23c1.24,0,2.25,1,2.25,2.23h0v15.61c0,0.92-0.76,1.67-1.69,1.67v0.56
h1.69h1.13h6.76h1.13h1.69h0.56v-0.56h-0.56C39.04,32.89,38.28,32.14,38.28,31.21z M92.33,31.21L92.33,31.21l0-20.06h-9.01h-1.69
h-6.19h0V2.23h-0.56c0,4.92-4.03,8.92-9.01,8.92h0.56h-2.81v0.56h2.81v17.28h0c0,2.77,3.15,5.02,7.04,5.02
c3.89,0,7.04-2.25,7.04-5.02v-3.9h-0.56v3.9c0,1.23-1.01,2.23-2.25,2.23c-1.24,0-2.25-1-2.25-2.23V11.71h6.19
c0.93,0,1.69,0.75,1.69,1.67l0,0v17.84l0,0c0,0.92-0.76,1.67-1.69,1.67h-0.56v0.56h0.56h1.69h1.13h6.76h1.13h1.69h0.56v-0.56h-0.56
C93.09,32.89,92.33,32.14,92.33,31.21z M106.97,31.21L106.97,31.21V2.23h-9.01h-1.69v0.56c0.93,0,1.69,0.75,1.69,1.67v0v26.76v0
c0,0.92-0.76,1.67-1.69,1.67h-0.56v0.56h0.56h1.69h1.13h6.76h1.13h1.69h0.56v-0.56h-0.56C107.72,32.89,106.97,32.14,106.97,31.21z
M52.36,10.59c-6.53,0-11.82,5.24-11.82,11.7c0,6.46,5.29,11.7,11.82,11.7c6.53,0,11.82-5.24,11.82-11.7
C64.18,15.83,58.89,10.59,52.36,10.59z M52.36,33.44c-1.69,0-2.81-1.67-2.81-11.15c0-9.48,1.13-11.15,2.81-11.15
c1.69,0,2.82,1.67,2.82,11.15C55.17,31.77,54.05,33.44,52.36,33.44z M121.04,10.59c-6.53,0-11.82,5.24-11.82,11.7
c0,6.46,5.29,11.7,11.82,11.7c6.53,0,11.82-5.24,11.82-11.7C132.87,15.83,127.57,10.59,121.04,10.59z M121.04,33.44
c-1.69,0-2.81-1.67-2.81-11.15c0-9.48,1.13-11.15,2.81-11.15c1.69,0,2.82,1.67,2.82,11.15C123.86,31.77,122.73,33.44,121.04,33.44z
M137.93,23.97c-2.8,0-5.07,2.25-5.07,5.02c0,2.77,2.27,5.02,5.07,5.02c2.8,0,5.07-2.25,5.07-5.02
C143,26.21,140.73,23.97,137.93,23.97z M87.83,10.03c2.8,0,5.07-2.25,5.07-5.02S90.63,0,87.83,0c-2.8,0-5.07,2.25-5.07,5.02
S85.03,10.03,87.83,10.03z"/></svg>