<svg xmlns="http://www.w3.org/2000/svg" width="150" height="47" viewBox="0 0 150 47">
<path fill="#0b0c0c" d="M150,0.7v1.94h-5.1v9.12h-2.55V2.64h-5.1V0.7H150z M30.64,17.9l-0.62,1.05h-1.2l2.91-4.94h1.15l2.96,4.94H34.5l-0.62-1.05
	H30.64z M31.14,17h2.25l-1.14-2.04L31.14,17z M43.35,15.29v-0.13c0-0.41-0.13-0.73-0.3-0.89c-0.18-0.16-0.55-0.27-1.04-0.27h-3.55
	c-0.5,0-0.82,0.11-1,0.27c-0.18,0.16-0.25,0.49-0.25,0.94v2.58c0,0.45,0.07,0.75,0.25,0.91c0.18,0.16,0.5,0.24,1,0.24H42
	c0.5,0,0.87-0.07,1.05-0.24s0.3-0.46,0.3-0.91v-1.7H40.2V17h1.95v1.05H38.4v-3.14h3.75v0.58L43.35,15.29z M46.29,11.77h-0.25
	l3.47-6.06l3.1-5.41c0.09-0.15,0.23-0.23,0.42-0.23c0.18,0,0.35,0.08,0.46,0.23l0.24,0.3l0.08-0.12c0.1-0.15,0.25-0.23,0.43-0.23
	c0.18,0,0.33,0.08,0.43,0.23l0.08,0.12l0.24-0.3c0.12-0.15,0.28-0.23,0.46-0.23c0.18,0,0.33,0.08,0.42,0.23l3.1,5.41l3.48,6.06H62.2
	h-0.41h-2.15L57.21,8.3l-2.64-3.76c-0.07-0.1-0.19-0.16-0.32-0.16c-0.13,0-0.24,0.06-0.32,0.16L51.29,8.3l-2.44,3.47H46.7H46.29z
	 M54.96,0.9l3.27,4.9l1.6,2.4l-1.21-2.19l-2.84-5.13c-0.08-0.14-0.21-0.34-0.38-0.34c-0.17,0-0.32,0.2-0.43,0.34L54.96,0.9z
	 M48.67,8.2l1.6-2.4l3.27-4.9l-0.01-0.02c-0.11-0.14-0.26-0.34-0.43-0.34c-0.17,0-0.3,0.2-0.38,0.34l-2.84,5.13L48.67,8.2z
	 M81.15,16.76v2.19h1.2v-2.21l2.72-2.73h-1.41l-1.77,1.83l-1.75-1.83h-1.62L81.15,16.76z M33.9,11.77h-2.55V0.7h9.42
	c0.88,0,1.48,0.18,1.87,0.52c0.39,0.34,0.55,0.9,0.55,1.65v2.59c0,0.74-0.16,1.28-0.55,1.62c-0.4,0.34-1,0.5-1.87,0.5h-1.44
	l5.11,4.19h-3.69l-4.46-4.19H33.9V11.77z M33.9,5.78h5.73c0.45,0,0.75-0.1,0.92-0.23c0.16-0.13,0.25-0.39,0.25-0.72V3.5
	c0-0.32-0.09-0.54-0.25-0.67c-0.16-0.13-0.47-0.19-0.92-0.19H33.9V5.78z M149.18,18.34c-0.54,0.41-1.35,0.61-2.44,0.61h-3.04v-4.94
	h3.34c0.95,0,1.68,0.24,2.18,0.66c0.51,0.42,0.76,1.05,0.76,1.83C149.99,17.32,149.72,17.93,149.18,18.34z M148.76,16.43
	c0-0.5-0.14-0.89-0.42-1.14c-0.28-0.25-0.71-0.39-1.29-0.39h-2.15v3.14h1.59c0.84,0,1.43-0.12,1.77-0.37
	C148.59,17.44,148.76,17.01,148.76,16.43z M54.15,17.32l-4.18-3.3H49.2v4.94h1.05v-3.29l4.14,3.29h0.81v-4.94h-1.05V17.32z
	 M46.8,14.01h-1.2v4.94h1.2V14.01z M92.1,15.25v-0.12c0-0.4-0.13-0.7-0.31-0.86c-0.18-0.16-0.56-0.26-1.05-0.26h-2.92
	c-0.5,0-0.83,0.11-1.01,0.27c-0.18,0.16-0.26,0.49-0.26,0.93v0.55c0,0.45,0.08,0.71,0.26,0.88c0.18,0.16,0.51,0.21,1.01,0.21h3.23
	v1.2h-3.6v-0.58l-1.2,0.2v0.14c0,0.45,0.13,0.75,0.31,0.91c0.18,0.16,0.56,0.24,1.07,0.24h3.19c0.5,0,0.84-0.07,1.02-0.24
	c0.18-0.16,0.28-0.46,0.28-0.91v-0.67c0-0.45-0.1-0.76-0.27-0.92c-0.17-0.16-0.52-0.25-1.02-0.25H87.6v-1.05h3.45v0.56L92.1,15.25z
	 M123.45,5.8c0-0.22-0.03-0.48-0.05-0.79c-0.02-0.3-0.06-0.63-0.09-0.97c0.12,0.15,0.26,0.29,0.4,0.43c0.15,0.14,0.32,0.3,0.51,0.47
	l8.12,6.82h1.75V0.7h-2.25v5.82c0,0.14-0.02,0.34-0.01,0.6c0.01,0.26,0.03,0.69,0.07,1.31c-0.17-0.2-0.36-0.4-0.56-0.59
	c-0.2-0.19-0.44-0.41-0.7-0.63l-7.8-6.52h-1.8v11.07h2.4V5.8z M131.25,14.01v4.94h5.1v-0.9h-3.9v-4.04H131.25z M138.45,18.95h1.2
	v-4.04h2.25v-0.9h-5.85v0.9h2.4V18.95z M119.03,18.95h3.19c0.5,0,0.81-0.07,0.99-0.24c0.18-0.16,0.25-0.46,0.25-0.91v-0.67
	c0-0.45-0.07-0.76-0.24-0.92c-0.17-0.16-0.49-0.25-0.99-0.25h-3.27v-1.05h3.45v0.56l1.05-0.22v-0.12c0-0.4-0.1-0.7-0.28-0.86
	c-0.18-0.16-0.53-0.26-1.03-0.26h-2.92c-0.5,0-0.86,0.11-1.04,0.27c-0.18,0.16-0.29,0.49-0.29,0.93v0.55c0,0.45,0.11,0.71,0.29,0.88
	c0.18,0.16,0.54,0.21,1.04,0.21h3.17v1.2h-3.6v-0.58l-1.05,0.2v0.14c0,0.45,0.08,0.75,0.26,0.91
	C118.19,18.87,118.52,18.95,119.03,18.95z M105.72,11.77h6.99c1.08,0,1.83-0.18,2.2-0.55c0.38-0.36,0.59-1.05,0.59-2.06V0.7h-2.55
	v8.97h-7.35V0.7h-2.7v8.46c0,1.01,0.23,1.7,0.61,2.06C103.89,11.58,104.65,11.77,105.72,11.77z M106.8,18.05h-4.2v-1.2h2.4v-0.9
	h-2.4v-1.05h4.05v-0.9h-5.25v4.94h5.4V18.05z M115.5,18.95v-4.94h-1.02l-2.39,2.91l-2.41-2.91h-0.94v4.94h0.9v-3.27l2.26,2.68h0.23
	l2.16-2.76v3.35H115.5z M84.45,11.22c-0.38-0.36-0.6-1.05-0.6-2.06V3.34c0-1,0.23-1.7,0.6-2.07c0.38-0.37,1.14-0.57,2.22-0.57h8.14
	c1.08,0,1.78,0.2,2.15,0.57c0.38,0.37,0.54,1.07,0.54,2.07v5.81c0,1.01-0.16,1.7-0.54,2.06c-0.38,0.37-1.08,0.55-2.15,0.55h-8.14
	C85.59,11.77,84.83,11.58,84.45,11.22z M86.55,9.67h8.4V2.64h-8.4V9.67z M2.55,11.77H0V0.7h9.47c0.88,0,1.53,0.18,1.93,0.52
	C11.79,1.56,12,2.12,12,2.87v2.47c0,0.74-0.21,1.27-0.61,1.61C11,7.28,10.34,7.43,9.47,7.43H2.55V11.77z M2.55,5.63h5.78
	c0.45,0,0.73-0.1,0.9-0.23c0.16-0.13,0.23-0.39,0.23-0.72V3.5c0-0.32-0.06-0.54-0.23-0.67C9.06,2.7,8.77,2.64,8.33,2.64H2.55V5.63z
	 M3.24,36.01c0-4.43,3.6-8.02,8.05-8.02c4.45,0,8.05,3.59,8.05,8.02c0,4.43-3.6,8.02-8.05,8.02C6.84,44.03,3.24,40.44,3.24,36.01z
	 M4.4,40.04h13.83L12.9,30.5c-0.58-0.58-1.05-0.01-1.05-0.01s-0.15-0.27-0.5-0.27c-0.29,0-0.49,0.29-0.49,0.29
	c-0.6-0.67-1.1,0.1-1.1,0.1L4.4,40.04z M1.2,18.95H0v-4.94h4.46c0.41,0,0.67,0.1,0.85,0.25c0.18,0.15,0.24,0.42,0.24,0.76v1.08
	c0,0.34-0.06,0.55-0.24,0.7C5.13,16.95,4.87,17,4.46,17H1.2V18.95z M1.2,16.25h2.75c0.21,0,0.35-0.05,0.43-0.11s0.12-0.19,0.12-0.33
	v-0.51c0-0.14-0.04-0.25-0.12-0.31s-0.22-0.09-0.43-0.09H1.2V16.25z M71.25,17.67v0.14c0,0.45,0.11,0.75,0.29,0.91
	c0.18,0.16,0.54,0.24,1.05,0.24h3.19c0.5,0,0.86-0.07,1.03-0.24c0.18-0.16,0.29-0.46,0.29-0.91v-0.67c0-0.45-0.11-0.76-0.28-0.92
	c-0.17-0.16-0.53-0.25-1.04-0.25H72.6v-1.05h3.3v0.56l1.05-0.22v-0.12c0-0.4-0.07-0.7-0.25-0.86c-0.18-0.16-0.5-0.26-0.99-0.26
	h-2.92c-0.5,0-0.82,0.11-1,0.27c-0.18,0.16-0.24,0.49-0.24,0.93v0.55c0,0.45,0.07,0.71,0.24,0.88c0.18,0.16,0.49,0.21,1,0.21h3.11
	v1.2h-3.6v-0.58L71.25,17.67z M10.04,30.72c-0.1,0.16-3.93,6.78-3.93,6.78l4.55-6.77C10.49,30.35,10.15,30.55,10.04,30.72z
	 M12.67,30.72c-0.11-0.17-0.44-0.36-0.62,0l4.55,6.78C16.6,37.5,12.77,30.87,12.67,30.72z M66.3,4.95c0-0.17,0.03-0.36,0.02-0.55
	c-0.01-0.19-0.01-0.4-0.03-0.62c0.07,0.17,0.17,0.35,0.28,0.53c0.11,0.19,0.24,0.37,0.4,0.58l4.17,5.52h0.51l4.16-5.5
	c0.08-0.12,0.18-0.27,0.28-0.45c0.1-0.18,0.23-0.42,0.36-0.7c-0.02,0.25-0.05,0.48-0.07,0.68c-0.02,0.2-0.03,0.37-0.03,0.5v6.82h2.4
	V0.7h-2.07l-5.1,6.67L66.36,0.7h-2.01v11.07h1.95V4.95z M30.3,47.07h14.1v-8.38h18v-4.34h-18v-5.53h18v-4.04H30.3V47.07z M0,24.63
	h22.5v22.44H0V24.63z M0.86,36.04c0,0.38,0.02,0.71,0.06,1.16h1.75c0.1,0.75,0.29,1.44,0.57,2.12l-1.51,0.82
	c0.32,0.72,0.71,1.4,1.17,2.03l1.5-0.86c0.45,0.59,0.98,1.11,1.57,1.57l-0.85,1.45c0.63,0.47,1.32,0.86,2.04,1.18l0.83-1.47
	c0.7,0.28,1.46,0.48,2.21,0.57v1.65c0.3,0.04,0.69,0.06,1.06,0.06c0.42,0,0.89-0.02,1.19-0.07v-1.66c0.75-0.1,1.51-0.31,2.2-0.6
	l0.84,1.42c0.72-0.32,1.38-0.67,2-1.13l-0.86-1.45c0.61-0.47,1.15-1.02,1.61-1.64l1.48,0.86c0.45-0.61,0.82-1.21,1.13-1.91
	l-1.52-0.88c0.28-0.69,0.48-1.43,0.57-2.19l1.75-0.01c0.04-0.35,0.06-0.71,0.06-1.06c0-0.41-0.03-0.76-0.07-1.21h-1.75
	c-0.1-0.75-0.3-1.46-0.59-2.14l1.53-0.87c-0.32-0.73-0.7-1.34-1.17-1.97l-1.51,0.89c-0.45-0.58-0.97-1.1-1.55-1.55l0.87-1.51
	c-0.63-0.46-1.31-0.85-1.98-1.15l-0.84,1.55c-0.72-0.3-1.5-0.58-2.3-0.58h0.1v-1.79c-0.3-0.04-0.8-0.07-1.2-0.07
	c-0.37,0-0.75,0.02-1.05,0.06v1.74c-0.75,0.09-1.49,0.28-2.18,0.56L7.1,26.48c-0.72,0.31-1.39,0.7-2.01,1.16l0.93,1.47
	c-0.62,0.47-1.17,1.01-1.64,1.62l-1.5-0.89c-0.46,0.62-0.84,1.28-1.16,1.99l1.47,0.84l0.06,0c-0.29,0.69-0.49,1.42-0.59,2.18
	l-1.75-0.02C0.88,35.23,0.86,35.64,0.86,36.04z M28.15,14.01h-1.73l-2.87,2.03v-2.03h-1.2v4.94h1.2v-2.19l3.09,2.19h1.89l-3.77-2.65
	L28.15,14.01z M12.94,11.77h-0.25l3.47-6.06l3.1-5.41c0.09-0.15,0.23-0.23,0.42-0.23s0.35,0.08,0.46,0.23l0.24,0.3l0.08-0.12
	c0.1-0.15,0.25-0.23,0.43-0.23c0.18,0,0.33,0.08,0.43,0.23L21.4,0.6l0.24-0.3c0.12-0.15,0.28-0.23,0.46-0.23
	c0.18,0,0.33,0.08,0.42,0.23l3.1,5.41l3.48,6.06v0h-0.25h-0.41H26.3L23.86,8.3l-2.64-3.76c-0.07-0.1-0.19-0.16-0.32-0.16
	c-0.13,0-0.24,0.06-0.32,0.16L17.93,8.3l-2.44,3.47h-2.15H12.94z M21.6,0.9l3.27,4.9l1.6,2.4l-1.21-2.19l-2.84-5.13
	c-0.08-0.14-0.21-0.34-0.38-0.34c-0.17,0-0.32,0.2-0.43,0.34L21.6,0.9z M15.32,8.2l1.6-2.4l3.27-4.9l-0.01-0.02
	c-0.11-0.14-0.26-0.34-0.43-0.34c-0.17,0-0.3,0.2-0.38,0.34l-2.84,5.13L15.32,8.2z M83.25,41.57c0,1.02-0.78,1.84-1.8,1.84
	s-1.8-0.83-1.8-1.84V24.63H65.4v18.74c0,2.06,1.67,3.7,3.74,3.7h24.69c2.07,0,3.67-1.64,3.67-3.7V24.63H83.25V41.57z M20.1,15.69
	v-0.47c0-0.45-0.06-0.78-0.24-0.94c-0.18-0.16-0.49-0.27-1-0.27H15.8c-0.5,0-0.82,0.11-1,0.27s-0.25,0.49-0.25,0.94v2.58
	c0,0.45,0.08,0.75,0.26,0.91c0.18,0.16,0.5,0.24,1,0.24h3.07c0.5,0,0.82-0.07,0.99-0.24c0.18-0.16,0.24-0.46,0.24-0.91v-0.58
	l-1.2-0.24v1.07h-3.15v-3.14h3.15v0.96L20.1,15.69z M135.75,47.07H150V24.63h-14.25V47.07z M118.5,40.92l0.02,0.47
	c0,1.03-0.82,1.86-1.85,1.86c-1.03,0-1.88-0.83-1.88-1.86l-0.03-0.58V35.1H100.5v7.94c0,0-0.32,4.03,4.82,4.03h22.97
	c0,0,4.46,0.01,4.46-4.86V24.63H118.5V40.92z M10.24,14.01l2.96,4.94h-1.34l-0.62-1.05H7.99l-0.62,1.05h-1.2l2.91-4.94H10.24z
	 M10.75,17L9.6,14.96L8.5,17H10.75z M62.35,14.01H58.8c-0.5,0-0.87,0.11-1.05,0.27s-0.3,0.49-0.3,0.94v2.58
	c0,0.45,0.12,0.75,0.3,0.91s0.55,0.24,1.05,0.24h3.55c0.5,0,0.82-0.07,1-0.24c0.18-0.16,0.25-0.46,0.25-0.91v-1.7h-3.15V17h1.95
	v1.05h-3.75v-3.14h3.75v0.58l1.2-0.2v-0.13c0-0.41-0.08-0.73-0.25-0.89C63.17,14.12,62.85,14.01,62.35,14.01z M93.75,14.91h2.4v4.04
	h1.2v-4.04h2.4v-0.9h-6V14.91z"/>
</svg>
