<svg xmlns="http://www.w3.org/2000/svg" width="130" height="55" viewBox="0 0 130 55">
<path fill="#0b0c0c" d="M54.26,13.54h1.39c0.8,0,1.68,0.08,2.29,0.67c0.4,0.37,0.67,0.99,0.67,1.73c0,0.77-0.29,1.39-0.67,1.76
c-0.67,0.64-1.65,0.67-2.21,0.67h-1.47V13.54z M64.03,28.17h3.15v-4.82c0-1.01,0.06-2.29,0.77-3.2c0.76-0.98,2.16-1.44,3.21-1.05
l-0.04-2.92c-0.35-0.13-0.63-0.19-1.03-0.19c-0.61,0-1.16,0.11-1.69,0.51c-0.5,0.37-0.94,0.99-1.23,1.65v-1.87h-3.15V28.17z
M83.78,22.49c0-1.47-0.25-3.33-1.59-4.82c-1.39-1.55-3.21-1.79-4.48-1.79c-1.27,0-2.96,0.27-4.33,1.71
c-1.14,1.23-1.72,2.98-1.72,4.69c0,1.97,0.71,3.54,1.7,4.58c1.32,1.39,2.81,1.71,4.5,1.71c1.27,0,2.48-0.19,3.57-0.88
c0.46-0.3,1.1-0.82,1.61-1.69l-1.89-2.05c-1.03,1.38-1.75,1.71-3.24,1.71c-0.56,0-1.32-0.1-1.87-0.75
c-0.46-0.53-0.68-1.39-0.68-2.03h8.43V22.49z M75.48,20.6c0.1-0.53,0.35-0.96,0.63-1.28c0.35-0.37,0.91-0.77,1.85-0.77
c0.73,0,1.32,0.27,1.72,0.67c0.53,0.53,0.71,1.28,0.73,1.39H75.48z M85.27,28.17h3.48v-6.08c0-0.4,0.02-1.73,0.68-2.43
c0.34-0.35,0.75-0.48,1.21-0.48c0.36,0,0.8,0.08,1.16,0.48c0.53,0.59,0.56,1.52,0.56,2.32v6.18h3.48v-5.92
c0-0.77,0.07-1.71,0.53-2.35c0.29-0.43,0.77-0.72,1.35-0.72c0.51,0,0.97,0.24,1.26,0.64c0.46,0.64,0.46,1.71,0.46,2.32v6.02h3.48
v-7.52c0-0.85-0.07-2.45-1.11-3.54c-0.65-0.69-1.72-1.12-3.02-1.12c-0.85,0-1.55,0.16-2.3,0.67c-0.7,0.48-1.11,1.04-1.38,1.52
c-0.29-0.72-0.75-1.31-1.31-1.65c-0.72-0.48-1.57-0.53-2.03-0.53c-0.82,0-2.13,0.19-3.02,1.68v-1.39h-3.48V28.17z M104.74,28.17
h3.13V16.28h-3.13V28.17z M8.3,4.88c1.49,1.97,2.59,4,2.93,6.16c5.12-3.18,11.45-3.89,18.95-2.16c-0.05-2.12,0.47-4.3,1.47-6.51
l-3.76,3.86L27.68,0l-4.65,5.59l-3.36-5.34l-1.36,4.07l-0.32,2.19l-6.22-4.18l0.89,5.2L8.3,4.88z M35.67,27.07l2.04-1.59
c1.43,2.3,1.21,4.86,0.25,7.54l-2.38-2.99L35.67,27.07z M28.16,35.79c1.98-0.44,3.55-1.21,4.93-2.55l2.43-0.14
c2.62,1.09,0.47,6.83-2.06,7.18c0.39-1.1,0.44-2.27,0.16-3.5c-1.12,1.22-2.45,1.93-4.04,2.02L28.16,35.79z M31.32,25.41
c0.7,0.76,1.55,1.24,2.47,1.59l-0.04,2.76c-1.68,1.83-3.57,3.2-5.76,3.89c-0.5,0.16-1.1,0.04-1.36-0.42l-2.36-4.18
c-0.16-0.29,0.12-0.7,0.46-0.89l5.08-2.76C30.29,25.15,30.96,25.01,31.32,25.41z M15.73,14.47c-4.39-2.79-5.49-0.21-4.43,5.87
c-1.75-0.81-2.5-2.95-2.25-6.4c-3.09,2.44-5.45,5.2-6.83,8.39l2.57,0.35C2.07,26.06,0.24,29.81,0,34.22
c1.38,0.14,2.78-0.53,3.97-1.52C2.89,38,3.33,43.21,5.4,47.85c2.87-2.28,5.14-4.96,6.87-8c1.34,4.21,1.45,8.53-0.36,13.02
c6.23,3.12,12.46,2.94,18.68-1.4c0.49,0.96,0.69,2.04,0.75,3.18c4.72-3.09,7.75-7.49,8.37-13.7c0.9-0.06,1.41,0.67,1.79,1.7
c2.75-7.83,1.34-14.91-3.25-21.41c-0.02,0.5-0.12,0.94-0.36,1.27c-0.72-0.5-1.2-1.13-1.54-1.84c1.26-0.11-0.31-3.96-1.61-1.15
l-2.36-1.43c1.14,1.77,2.69,3.36,4.54,4.99c-2.29-0.39-4.33-0.28-6.15,0.28c-0.78-1.38-1.85-2.49-3.15-3.4
c0.08-0.83,0.43-1.6,0.89-2.34c-0.76,0.63-1.54,1.17-2.45,1.19c-2.8-1.99-4.75-1.63-6.88,0.02c1.18,1.46,3.33,1.68,6.42,1.49
c1.43,0.87,2.57,1.95,3.38,3.29l-0.25,0.28l-1.14-0.35l-6.65-0.04c-1.52-0.39-2.72-1.16-3.15-2.87l-0.55,0.09l0.29-1.24l-2.25-0.21
l3.99-2.74l-1.36-0.42c0.64-1.39,5.54-3.89,7.22-3.21c1.23,0.5,3.37,1.6,4.83,2.89c0.43-0.78,0.66-1.71,0.71-2.77
c2.12,1.24,4.13,2.93,6.11,4.74c-0.68-1.47-1.3-2.97-1.26-4.68c-2.21-1.55-4.52-2.69-6.97-3.29c0.44,0.8,0.38,1.62,0.25,2.37
c-0.74-1.3-2.3-2.34-3.66-2.89c-4.9-0.1-8.51,0.78-12.36,2.46C14.35,12.07,15.29,13.02,15.73,14.47z M106.31,10.57
c0.97,0,1.75,0.78,1.75,1.73c0,0.96-0.78,1.73-1.75,1.73c-0.97,0-1.75-0.78-1.75-1.73C104.55,11.35,105.34,10.57,106.31,10.57z
M122.86,28.17h3.15v-4.82c0-1.01,0.06-2.29,0.77-3.2c0.76-0.98,2.16-1.44,3.21-1.05l-0.04-2.92c-0.35-0.13-0.63-0.19-1.03-0.19
c-0.61,0-1.16,0.11-1.69,0.51c-0.5,0.37-0.94,0.99-1.23,1.65v-1.87h-3.15V28.17z M121.6,22.49c0-1.47-0.25-3.33-1.59-4.82
c-1.39-1.55-3.21-1.79-4.48-1.79c-1.27,0-2.96,0.27-4.33,1.71c-1.14,1.23-1.72,2.98-1.72,4.69c0,1.97,0.71,3.54,1.7,4.58
c1.32,1.39,2.81,1.71,4.5,1.71c1.26,0,2.48-0.19,3.57-0.88c0.46-0.3,1.1-0.82,1.61-1.69l-1.89-2.05c-1.03,1.38-1.75,1.71-3.24,1.71
c-0.56,0-1.32-0.1-1.87-0.75c-0.46-0.53-0.68-1.39-0.68-2.03h8.43V22.49z M113.3,20.6c0.1-0.53,0.36-0.96,0.63-1.28
c0.35-0.37,0.91-0.77,1.85-0.77c0.73,0,1.32,0.27,1.72,0.67c0.53,0.53,0.71,1.28,0.73,1.39H113.3z M50.17,29.91v17.96h11.5v-3.5
h-7.31V29.91H50.17z M82.51,38.79c0.68,0,1.52,0.27,2.09,0.83c0.55,0.54,0.86,1.35,0.86,2.21c0,1.02-0.43,1.77-0.92,2.26
c-0.5,0.51-1.2,0.84-1.96,0.84c-0.89,0-1.7-0.37-2.22-0.94c-0.34-0.37-0.78-1.08-0.78-2.15c0-1.08,0.47-1.78,0.86-2.18
C80.94,39.14,81.7,38.79,82.51,38.79z M85.7,37.2c-1.07-1.51-2.67-1.75-3.66-1.75c-1.62,0-3.04,0.59-4.06,1.64
c-1.07,1.1-1.81,2.83-1.81,4.85c0,1.59,0.47,3.15,1.7,4.5c1.28,1.4,2.7,1.83,4.37,1.83c0.97,0,2.43-0.24,3.45-1.86v1.45h3.45V35.86
H85.7V37.2z M96.95,38.7c0.71,0,1.56,0.24,2.12,0.75c0.52,0.48,0.92,1.27,0.92,2.21c0,0.89-0.35,1.73-0.95,2.29
c-0.41,0.38-1.09,0.78-2.12,0.78c-0.92,0-1.66-0.3-2.2-0.86c-0.54-0.57-0.84-1.37-0.84-2.15c0-0.73,0.33-1.67,0.92-2.24
C95.28,39.02,96.07,38.7,96.95,38.7z M100.12,37.26c-0.44-0.65-1.42-1.8-3.62-1.8c-2.26,0-3.67,0.97-4.41,1.72
c-1.03,1.05-1.8,2.75-1.8,4.79c0,2.07,0.79,3.53,1.77,4.52c1.12,1.1,2.56,1.7,4.43,1.7c2.23,0,3.16-1.05,3.62-1.8v1.37
c0,3.4-5.76,3.62-7.38,0.99l-1.98,2.75c4.49,3.81,12.6,2.65,12.6-4.37V35.86h-3.24V37.26z M105.08,35.86v7.24
c0,1.32,0.2,2.53,1.21,3.61c1.26,1.35,3.1,1.56,4.46,1.56c1.31,0,3.17-0.22,4.43-1.56c1.12-1.19,1.24-2.48,1.24-3.85v-7h-3.57v6.62
c0,0.59-0.07,1.4-0.59,1.94c-0.32,0.32-0.84,0.56-1.51,0.56c-0.79,0-1.24-0.32-1.49-0.56c-0.57-0.57-0.62-1.4-0.62-1.94v-6.62
H105.08z M74.77,41.79c0-1.47-0.25-3.33-1.59-4.82c-1.39-1.55-3.21-1.79-4.48-1.79c-1.26,0-2.96,0.27-4.33,1.71
c-1.14,1.23-1.72,2.98-1.72,4.69c0,1.97,0.71,3.54,1.7,4.58c1.32,1.39,2.81,1.71,4.5,1.71c1.27,0,2.48-0.19,3.57-0.88
c0.46-0.3,1.1-0.82,1.61-1.69l-1.89-2.05c-1.03,1.37-1.76,1.71-3.24,1.71c-0.56,0-1.32-0.1-1.87-0.75
c-0.46-0.53-0.68-1.39-0.68-2.03h8.43V41.79z M66.47,39.9c0.1-0.53,0.35-0.96,0.63-1.28c0.35-0.37,0.91-0.77,1.85-0.77
c0.73,0,1.31,0.27,1.72,0.67c0.53,0.53,0.71,1.28,0.73,1.39H66.47z M130,41.79c0-1.47-0.25-3.33-1.59-4.82
c-1.39-1.55-3.21-1.79-4.48-1.79c-1.27,0-2.96,0.27-4.33,1.71c-1.14,1.23-1.72,2.98-1.72,4.69c0,1.97,0.71,3.54,1.7,4.58
c1.32,1.39,2.81,1.71,4.5,1.71c1.26,0,2.48-0.19,3.57-0.88c0.46-0.3,1.1-0.82,1.61-1.69l-1.89-2.05c-1.03,1.37-1.75,1.71-3.24,1.71
c-0.56,0-1.32-0.1-1.87-0.75c-0.46-0.53-0.68-1.39-0.68-2.03H130V41.79z M121.7,39.9c0.1-0.53,0.35-0.96,0.63-1.28
c0.35-0.37,0.91-0.77,1.85-0.77c0.73,0,1.32,0.27,1.72,0.67c0.53,0.53,0.71,1.28,0.73,1.39H121.7z M50.15,10.18v17.78h4.11v-6.24
h2.51c1.25,0,3.12-0.13,4.54-1.57c0.67-0.69,1.52-1.95,1.52-4.18c0-1.23-0.21-2.98-1.73-4.32c-1.41-1.25-3.12-1.47-4.67-1.47H50.15z
"/></svg>