<svg xmlns="http://www.w3.org/2000/svg" width="159" height="84" viewBox="0 0 159 84">
<path fill="#0b0c0c" d="M26.03,5.16c-0.18,0.35-0.34,0.55-0.31,0.81c0.02,0.27,0.3,0.46,0.44,0.72c0.12-0.31,0.32-0.55,0.3-0.79
C26.43,5.66,26.09,5.34,26.03,5.16z M30.69,5.16c-0.06,0.18-0.4,0.5-0.42,0.75c-0.02,0.25,0.18,0.48,0.3,0.79
c0.13-0.27,0.41-0.46,0.44-0.72C31.03,5.7,30.87,5.5,30.69,5.16z M23.35,4.96c0.17,0,0.31-0.14,0.31-0.31
c0-0.17-0.14-0.31-0.31-0.31c-0.17,0-0.31,0.14-0.31,0.31C23.04,4.82,23.18,4.96,23.35,4.96z M23.56,5.4c0-0.17-0.14-0.31-0.32-0.31
c-0.17,0-0.31,0.14-0.31,0.31c0,0.17,0.14,0.31,0.31,0.31C23.42,5.72,23.56,5.58,23.56,5.4z M23.72,6.16c0-0.17-0.14-0.31-0.31-0.31
c-0.17,0-0.32,0.14-0.32,0.31c0,0.17,0.14,0.31,0.32,0.31C23.58,6.47,23.72,6.34,23.72,6.16z M25.09,3.47
c0.17,0,0.31-0.14,0.31-0.31c0-0.17-0.14-0.31-0.31-0.31c-0.17,0-0.31,0.14-0.31,0.31C24.78,3.33,24.92,3.47,25.09,3.47z
M24.31,3.71c0.17,0,0.31-0.14,0.31-0.31c0-0.17-0.14-0.31-0.31-0.31C24.14,3.08,24,3.22,24,3.39C24,3.56,24.14,3.71,24.31,3.71z
M23.7,4.24c0.17,0,0.31-0.14,0.31-0.31c0-0.17-0.14-0.31-0.31-0.31c-0.17,0-0.31,0.14-0.31,0.31C23.38,4.1,23.52,4.24,23.7,4.24z
M25.91,3.54c0.17,0,0.31-0.14,0.31-0.31c0-0.17-0.14-0.31-0.31-0.31c-0.17,0-0.32,0.14-0.32,0.31C25.6,3.4,25.74,3.54,25.91,3.54z
M26.69,3.76c0.17,0,0.31-0.14,0.31-0.31c0-0.17-0.14-0.31-0.31-0.31c-0.17,0-0.32,0.14-0.32,0.31C26.38,3.62,26.52,3.76,26.69,3.76
z M27.43,4.11c0.17,0,0.31-0.14,0.31-0.31c0-0.17-0.14-0.31-0.31-0.31c-0.17,0-0.31,0.14-0.31,0.31
C27.12,3.97,27.25,4.11,27.43,4.11z M33.04,4.64c0,0.17,0.14,0.31,0.31,0.31c0.17,0,0.32-0.14,0.32-0.31c0-0.17-0.14-0.31-0.32-0.31
C33.18,4.33,33.04,4.47,33.04,4.64z M33.46,5.09c-0.17,0-0.31,0.14-0.31,0.31c0,0.17,0.14,0.31,0.31,0.31
c0.17,0,0.32-0.14,0.32-0.31C33.78,5.23,33.63,5.09,33.46,5.09z M33.31,5.85c-0.17,0-0.31,0.14-0.31,0.31
c0,0.17,0.14,0.31,0.31,0.31c0.17,0,0.32-0.14,0.32-0.31C33.62,5.99,33.48,5.85,33.31,5.85z M31.61,3.47c0.17,0,0.32-0.14,0.32-0.31
c0-0.17-0.14-0.31-0.32-0.31c-0.17,0-0.32,0.14-0.32,0.31C31.3,3.33,31.44,3.47,31.61,3.47z M32.4,3.71c0.17,0,0.31-0.14,0.31-0.31
c0-0.17-0.14-0.31-0.31-0.31c-0.17,0-0.31,0.14-0.31,0.31C32.08,3.56,32.22,3.71,32.4,3.71z M33.01,4.24c0.17,0,0.31-0.14,0.31-0.31
c0-0.17-0.14-0.31-0.31-0.31c-0.17,0-0.31,0.14-0.31,0.31C32.7,4.1,32.84,4.24,33.01,4.24z M30.79,3.54c0.17,0,0.31-0.14,0.31-0.31
c0-0.17-0.14-0.31-0.31-0.31c-0.17,0-0.32,0.14-0.32,0.31C30.48,3.4,30.62,3.54,30.79,3.54z M30.01,3.76c0.17,0,0.32-0.14,0.32-0.31
c0-0.17-0.14-0.31-0.32-0.31c-0.17,0-0.31,0.14-0.31,0.31C29.7,3.62,29.84,3.76,30.01,3.76z M28.97,3.79c0,0.17,0.14,0.31,0.31,0.31
c0.17,0,0.31-0.14,0.31-0.31c0-0.17-0.14-0.31-0.31-0.31C29.11,3.48,28.97,3.62,28.97,3.79z M27.82,5.49h0.35V4.15
c-0.12-0.02-0.24-0.06-0.35-0.11V5.49z M28.89,4.04c-0.11,0.05-0.23,0.09-0.35,0.11v1.34h0.35V4.04z M28.15,2.56V1.77
c-0.4,0.08-0.7,0.4-0.77,0.79H28.15z M28.56,2.56h0.77c-0.07-0.4-0.37-0.71-0.77-0.79V2.56z M27.39,2.94
c0.1,0.44,0.49,0.77,0.97,0.77c0.47,0,0.86-0.33,0.96-0.77H27.39z M28.9,1.64c-0.23-0.17-0.4-0.43-0.43-0.69
c0.26,0.05,0.54,0.23,0.71,0.45V0.32c-0.17,0.22-0.46,0.41-0.71,0.45c0.03-0.26,0.19-0.5,0.41-0.77h-1.05
c0.22,0.27,0.38,0.51,0.41,0.77c-0.26-0.04-0.54-0.23-0.71-0.45V1.4c0.17-0.22,0.46-0.41,0.71-0.45c-0.03,0.27-0.2,0.52-0.43,0.69
H28.9z M28.92,24.1c0.21,0,0.39-0.17,0.39-0.39s-0.17-0.39-0.39-0.39c-0.21,0-0.39,0.17-0.39,0.39S28.71,24.1,28.92,24.1z
M27.07,23.53c0.23,0,0.42-0.19,0.42-0.42c0-0.23-0.19-0.42-0.42-0.42c-0.23,0-0.42,0.19-0.42,0.42
C26.65,23.34,26.84,23.53,27.07,23.53z M26.43,21.65c0.06,0.05,0.12,0.09,0.18,0.13c-0.02-0.13-0.08-0.26-0.18-0.38
c-0.13-0.15-0.31-0.24-0.49-0.24c-0.39,0-0.8,0.42-0.92,0.55l-0.04,0.04l-0.05-0.01c-0.1-0.02-0.2-0.04-0.3-0.06
c0.04,0.09,0.08,0.17,0.14,0.27L24.79,22l-0.03,0.05c-0.19,0.3-0.3,0.6-0.3,0.83c0,0.15,0.17,0.46,0.44,0.59
c0.18,0.09,0.36,0.08,0.54-0.02c-0.1-0.05-0.22-0.13-0.31-0.19l-0.05-0.03c-0.08-0.04-0.17-0.09-0.2-0.21
c-0.01-0.02-0.01-0.05-0.01-0.07c0-0.09,0.04-0.21,0.13-0.36c0.02-0.03,0.04-0.06,0.05-0.08c0.01-0.02,0.03-0.04,0.04-0.06
l0.05-0.08l0.08,0.05c0.15,0.09,0.29,0.12,0.39,0.1c0.05-0.02,0.08-0.04,0.11-0.08c0.06-0.1,0.03-0.28-0.17-0.44l-0.07-0.06
l0.11-0.12c0.07-0.08,0.15-0.17,0.23-0.24c0.17-0.15,0.33-0.15,0.53-0.01L26.43,21.65z M30.05,23.13c0.6,0.15,1.34,0.29,1.83,0.22
c-0.02,0.02-0.04,0.04-0.07,0.06c-0.17,0.16-0.41,0.34-0.66,0.5c-0.63,0.39-1.27,0.62-1.75,0.62c-0.56,0-1.28-0.11-2.02-0.32
c-0.66-0.18-1.27-0.42-1.75-0.68c-0.26,0.19-0.54,0.22-0.81,0.09c-0.32-0.15-0.55-0.52-0.55-0.75c0-0.04,0-0.08,0.01-0.13
c-0.22-0.19-0.43-0.4-0.63-0.63c-0.61-0.69-1.09-1.48-1.42-2.37c-0.15-0.41-0.27-0.84-0.36-1.28c0.56,0.2,0.8,0,0.97-0.18
c0.06,0.02,0.06,0.18,0.05,0.24c0.62-0.01,0.98-0.43,1.03-0.75c0.06,0.38,0.15,0.75,0.29,1.11c0.23,0.63,0.55,1.2,0.97,1.68
c0.15,0.17,0.3,0.32,0.46,0.47c0.1-0.04,0.2-0.06,0.3-0.06c0.23,0,0.46,0.11,0.62,0.3c0.17,0.19,0.26,0.44,0.22,0.66l0,0.01
C27.89,22.47,29.06,22.89,30.05,23.13z M29.78,27.13c0.08-0.15,0.13-0.3,0.13-0.42c0-0.19-0.15-0.46-0.47-0.46
c-0.54,0-0.41,0.73-0.67,0.73c-0.12,0-0.2-0.07-0.2-0.18c0-0.21,0.38-0.41,0.38-0.71c0-0.3-0.27-0.55-0.58-0.79
c-0.3,0.24-0.57,0.49-0.57,0.79c0,0.3,0.37,0.5,0.37,0.71c0,0.11-0.08,0.18-0.2,0.18c-0.26,0-0.13-0.73-0.67-0.73
c-0.31,0-0.46,0.27-0.46,0.46c0,0.11,0.05,0.27,0.13,0.42c0.07-0.13,0.17-0.21,0.26-0.21c0.41,0,0.25,1.06,0.73,1.06
c0.21,0,0.32-0.13,0.32-0.28c0-0.15-0.11-0.19-0.11-0.31c0-0.12,0.09-0.16,0.2-0.16c0.11,0,0.2,0.04,0.2,0.16
c0,0.12-0.11,0.16-0.11,0.31c0,0.15,0.11,0.28,0.32,0.28c0.48,0,0.32-1.06,0.73-1.06C29.6,26.92,29.7,27,29.78,27.13z M28.36,28.61
c0.15,0,0.26-0.12,0.26-0.26c0-0.15-0.12-0.26-0.26-0.26c-0.14,0-0.26,0.12-0.26,0.26C28.1,28.5,28.22,28.61,28.36,28.61z
M29.44,26.04c0.42,0,0.67,0.35,0.67,0.67c0,0.3-0.18,0.58-0.34,0.76c-0.09-0.19-0.16-0.33-0.26-0.33c-0.21,0-0.11,1.02-0.71,1.05
c0.02,0.05,0.03,0.1,0.03,0.16c0,0.26-0.21,0.47-0.47,0.47c-0.26,0-0.47-0.21-0.47-0.47c0-0.06,0.01-0.11,0.03-0.16
c-0.6-0.03-0.51-1.05-0.72-1.05c-0.1,0-0.17,0.15-0.25,0.33c-0.16-0.18-0.34-0.46-0.34-0.76c0-0.32,0.26-0.67,0.67-0.67
c0.07,0,0.15,0.01,0.21,0.03v-1.44c0.61,0.16,1.21,0.24,1.73,0.26v1.18C29.3,26.05,29.36,26.04,29.44,26.04z M43.35,27.46
c-0.02-0.06-0.09-0.1-0.15-0.08c-1.39,0.4-3.11-0.74-4.77-1.84c-1.4-0.93-2.72-1.81-3.86-1.81c-0.42,0-0.79,0.09-1.11,0.26
c-0.4,0.22-0.69,0.56-0.88,1.02c-0.19,0.46-0.39,0.78-0.55,1.03c-0.19,0.3-0.33,0.52-0.33,0.79c0,0.22,0.1,0.42,0.29,0.62
c0.16,0.16,0.39,0.32,0.73,0.49c0.07,0.04,0.14,0.07,0.21,0.1c0.28,0.13,0.45,0.22,0.48,0.38c-0.55,0.24-1.26,0.44-2.06,0.58
c-0.91,0.16-1.91,0.24-2.96,0.24c-1.05,0-2.05-0.08-2.96-0.24c-0.81-0.14-1.52-0.34-2.07-0.58c0.02-0.23,0.19-0.32,0.49-0.46
c0.07-0.03,0.14-0.07,0.22-0.11c0.27-0.15,0.54-0.29,0.71-0.44c0.19-0.17,0.29-0.36,0.29-0.58c0-0.27-0.14-0.49-0.33-0.79
c-0.16-0.25-0.36-0.57-0.55-1.03c-0.19-0.46-0.49-0.8-0.88-1.02c-0.32-0.17-0.69-0.26-1.11-0.26c-1.13,0-2.46,0.88-3.86,1.81
c-1.67,1.1-3.39,2.25-4.77,1.84c-0.06-0.02-0.13,0.02-0.15,0.08c-0.02,0.06,0.01,0.13,0.07,0.16c0.42,0.19,0.8,0.47,1.16,0.75
c0.5,0.39,0.97,0.75,1.49,0.75c0.49,0,1.02-0.16,1.67-0.49c0.56-0.29,1.14-0.68,1.7-1.06c1.1-0.75,2.23-1.51,3.3-1.6
c-0.11,0.12-0.22,0.21-0.32,0.3c-0.32,0.28-0.59,0.53-0.59,1.02c0,0.39,0.13,0.67,0.32,1.05c0.05,0.11,0.12,0.24,0.18,0.38
c0.12,0.26,0.17,0.48,0.24,0.77c0.03,0.13,0.07,0.27,0.11,0.43c0.07,0.25,0.2,0.73,0.98,1.13c0.91,0.46,2.49,0.7,4.68,0.7
c2.19,0,3.77-0.23,4.68-0.7c0.79-0.4,0.92-0.87,0.98-1.13c0.05-0.17,0.08-0.31,0.11-0.43c0.07-0.29,0.12-0.51,0.24-0.77
c0.09-0.19,0.17-0.35,0.25-0.49c0.16-0.31,0.29-0.55,0.29-0.9c0-0.5-0.29-0.75-0.62-1.05c-0.11-0.09-0.22-0.2-0.34-0.32
c1.08,0.09,2.21,0.85,3.3,1.6c0.56,0.38,1.14,0.77,1.7,1.06c0.64,0.33,1.17,0.49,1.67,0.49c0.52,0,0.99-0.37,1.49-0.75
c0.36-0.28,0.73-0.57,1.15-0.75C43.34,27.59,43.37,27.52,43.35,27.46z M32.87,16.75c-0.01-0.68-0.13-1.34-0.35-1.97
c-0.23-0.63-0.56-1.19-0.97-1.68c-0.41-0.48-0.9-0.86-1.44-1.13c-0.5-0.24-1.02-0.37-1.57-0.4v5.18H32.87z M28.36,9.41
c1.48,0,2.49,0.43,3.08,0.83c0.34-0.2,0.49-0.4,0.49-0.63c0-0.83-2.37-0.91-3.58-0.91h0h0c-1.2,0-3.57,0.07-3.57,0.91
c0,0.23,0.15,0.43,0.49,0.63C25.87,9.84,26.89,9.41,28.36,9.41z M28.29,11.56c-0.58,0.01-1.14,0.15-1.67,0.41
c-0.54,0.27-1.02,0.64-1.43,1.13c-0.42,0.48-0.74,1.05-0.97,1.68c-0.23,0.63-0.34,1.29-0.35,1.97h4.43V11.56z M35.01,16.42
c0.01,0.18,0.01,0.24,0.01,0.43c0,1.01-0.17,1.98-0.52,2.9c-0.33,0.89-0.81,1.69-1.42,2.38c-0.3,0.33-0.61,0.63-0.95,0.89l0,0
c-0.09,0.07-0.46,0.18-1.98-0.2c-0.19-0.05-0.3-0.08-0.51-0.14c0.02-0.19,0.05-0.29,0.1-0.44c0.06-0.16,0.14-0.31,0.21-0.39
c0.09-0.04,0.09-0.1,0.17-0.14c0.54-0.26,1.02-0.64,1.44-1.13c0.41-0.48,0.74-1.05,0.97-1.68c0.22-0.6,0.33-1.24,0.35-1.9h-4.33
v4.79c0.35,0.02,0.99,0.08,0.99,0.08c-0.16,0.19-0.22,0.39-0.27,0.7c-0.49-0.15-0.98-0.33-1.49-0.54c0.15-0.18,0.34-0.23,0.51-0.24
V17h-4.43c-0.01-0.19-0.11-0.51-0.17-0.59c-0.22-0.27-0.3-0.43-0.31-0.83c-0.01-0.22-0.14-0.5-0.36-0.77
c-0.13-0.16-0.66-0.74-0.78-0.86c0.33-0.88,0.81-1.68,1.42-2.36c0.4-0.45,0.85-0.84,1.34-1.16c-0.26-0.17-0.53-0.42-0.53-0.83
c0-0.24,0.09-0.43,0.27-0.58c-0.28-0.89-0.78-1.96-1.2-2.42l0.89-0.37c-0.23,0.35-0.25,0.77-0.2,1.01c0.24-0.16,0.44-0.38,0.51-0.68
c0.05,0.27,0.19,0.7,0.33,0.96c-0.26-0.12-0.47-0.18-0.74-0.06c0.15,0.2,0.53,0.51,1.12,0.37c0.32-0.08,0.63-0.24,0.62-0.49
c-0.01-0.14-0.12-0.32-0.31-0.3c-0.19,0.02-0.21,0.31-0.14,0.45c-0.25-0.14-0.52-0.89-0.12-1c0.31-0.09,0.6,0.34,0.7,0.67
c0.06-0.4,0.22-0.78,0.54-0.75c0.41,0.03,0.28,0.78,0.13,0.97c-0.03-0.26-0.17-0.41-0.29-0.4c-0.11,0.01-0.25,0.08-0.23,0.32
c0.03,0.24,0.37,0.39,0.76,0.39c0.37,0,1.04-0.12,1.1-0.84c-0.25,0.05-0.62,0.23-0.78,0.47c0.05-0.44,0.05-0.75,0-1.2
c0.2,0.28,0.53,0.43,0.77,0.47c-0.07-0.31-0.34-0.63-0.65-0.83h1.62c-0.31,0.2-0.58,0.52-0.65,0.83c0.24-0.04,0.58-0.19,0.78-0.47
c-0.05,0.45-0.05,0.77,0,1.2c-0.16-0.24-0.55-0.43-0.79-0.47c0.06,0.72,0.72,0.84,1.1,0.84c0.4,0,0.74-0.15,0.76-0.39
c0.02-0.24-0.12-0.32-0.23-0.32c-0.12-0.01-0.27,0.13-0.29,0.4c-0.14-0.19-0.28-0.94,0.13-0.97c0.32-0.02,0.48,0.36,0.54,0.75
c0.1-0.33,0.39-0.75,0.7-0.67c0.4,0.11,0.13,0.85-0.12,1c0.06-0.13,0.05-0.43-0.14-0.45c-0.2-0.02-0.31,0.16-0.32,0.3
c-0.01,0.24,0.3,0.41,0.62,0.49c0.59,0.14,0.97-0.17,1.12-0.37c-0.26-0.11-0.47-0.05-0.73,0.07c0.14-0.26,0.28-0.69,0.33-0.96
c0.07,0.29,0.26,0.51,0.5,0.67c0.05-0.24,0.03-0.65-0.2-1l0.89,0.37c-0.42,0.47-0.92,1.53-1.2,2.42c0.18,0.15,0.28,0.35,0.28,0.59
c0,0.41-0.27,0.66-0.53,0.83c0.49,0.32,0.94,0.71,1.34,1.16c0.33,0.37,0.59,0.7,0.84,1.13c-0.04,0.04-0.08,0.09-0.12,0.16
c-0.06,0.09-0.21,0.23-0.26,0.3c-0.07,0.1-0.15,0.22-0.15,0.36c0,0.12,0.05,0.25,0.14,0.4c0.11,0.18,0.8,1.53,0.96,1.87
C34.61,16.07,34.86,16.3,35.01,16.42z M30.97,13.67c-0.25-0.31-0.54-0.57-0.86-0.78c-0.26-0.18-0.54-0.31-0.83-0.41
c0.03,0.05,0.05,0.11,0.04,0.18c-0.07-0.01-0.12-0.03-0.16-0.07v1.26c0.07-0.01,0.13,0.02,0.15,0.07c0.02,0.04,0.01,0.1-0.05,0.15
c0.06,0,0.13,0.03,0.19,0.08c-0.06,0.06-0.13,0.08-0.19,0.08c0.06,0.05,0.07,0.1,0.05,0.15c-0.02,0.05-0.08,0.08-0.15,0.07v1.49
c0.04-0.04,0.11-0.07,0.19-0.07c0,0.08-0.03,0.14-0.06,0.18h0.92c-0.01-0.07,0.03-0.13,0.07-0.14c0.04-0.02,0.1-0.01,0.15,0.05
c0-0.06,0.02-0.13,0.08-0.19c0.06,0.06,0.08,0.13,0.09,0.19c0.05-0.06,0.1-0.07,0.15-0.05c0.05,0.01,0.08,0.07,0.07,0.14h1.08
c-0.05-0.04-0.08-0.11-0.09-0.2c0.07,0,0.12,0.02,0.16,0.05c-0.1-0.62-0.32-1.22-0.65-1.75c-0.04,0.02-0.09,0.02-0.12,0
c-0.04-0.02-0.06-0.07-0.05-0.15c-0.05,0.04-0.12,0.06-0.2,0.05c0.02-0.08,0.05-0.14,0.1-0.18c-0.08,0-0.12-0.04-0.13-0.09
C30.91,13.76,30.93,13.71,30.97,13.67z M32.19,15.9c0.14,0,0.2,0.12,0.17,0.18c-0.02,0.04-0.06,0.07-0.14,0.07
c0.05,0.05,0.08,0.11,0.08,0.19c-0.08,0-0.15-0.03-0.19-0.07c0.01,0.08-0.02,0.12-0.06,0.14c-0.06,0.03-0.19-0.02-0.19-0.16
c0.05,0.07,0.16,0.04,0.15-0.04h-1.42c0.02,0.08,0.01,0.19-0.07,0.28c-0.08-0.09-0.1-0.2-0.07-0.28h-1.28c0,0.08,0.11,0.1,0.16,0.04
c0,0.14-0.12,0.19-0.19,0.16c-0.04-0.02-0.08-0.06-0.07-0.14c-0.05,0.04-0.11,0.07-0.19,0.07c0-0.08,0.03-0.15,0.07-0.19
c-0.08,0.01-0.12-0.02-0.14-0.07c-0.03-0.06,0.03-0.19,0.17-0.19c-0.07,0.05-0.05,0.16,0.04,0.16v-1.83
c-0.08,0.03-0.19,0.02-0.28-0.07c0.09-0.09,0.2-0.1,0.28-0.07V12.4c-0.08-0.01-0.11,0.1-0.05,0.15c-0.14-0.01-0.19-0.14-0.15-0.2
c0.02-0.03,0.06-0.06,0.11-0.06c-0.04-0.05-0.07-0.12-0.06-0.21c0.09,0.01,0.15,0.05,0.2,0.1c0.01-0.06,0.04-0.09,0.08-0.11
c0.07-0.03,0.19,0.04,0.17,0.18c-0.04-0.07-0.15-0.06-0.16,0.02c0.36,0.1,0.71,0.25,1.04,0.47c0.35,0.23,0.66,0.53,0.94,0.87
c0.03,0.04,0.07,0.08,0.09,0.12c0.05-0.07,0.14-0.14,0.28-0.12c-0.02,0.13-0.1,0.2-0.18,0.23c0,0.01-0.01,0.01-0.01,0.01
c0.45,0.64,0.74,1.4,0.83,2.18C32.24,16.07,32.26,15.95,32.19,15.9z M31.43,15.44c0.06-0.03,0.1-0.07,0.12-0.11
c-0.06,0.02-0.11-0.01-0.12-0.02c0.04-0.03,0.09,0,0.04-0.08c-0.05-0.08-0.08-0.08-0.14-0.03c-0.05,0.06-0.4-0.01-0.39-0.27
c0.02,0.05,0.07,0.08,0.12,0.1c0.01,0.01,0.03,0.01,0.04,0.02c0.01,0,0.03,0.01,0.04,0.01c0.03,0.01,0.07,0.02,0.1,0.02
c0.01,0,0.02,0,0.02,0v-0.01c0.07-0.02,0.13-0.06,0.13-0.13c0.01-0.14-0.12-0.21-0.27-0.33c-0.06-0.05-0.1-0.09-0.14-0.13
c-0.05-0.1-0.02-0.19-0.15-0.38c-0.01-0.05-0.02-0.1-0.04-0.16c-0.07,0.12-0.1,0.35,0.08,0.54c0.14,0.16,0.45,0.31,0.44,0.44
c0,0.03-0.03,0.06-0.08,0.07c-0.01,0-0.03,0-0.04-0.01c-0.01,0-0.02,0-0.03-0.01c-0.02-0.01-0.04-0.02-0.06-0.03
c-0.03-0.02-0.07-0.04-0.11-0.08c-0.13-0.12-0.24-0.29-0.32-0.39c-0.14-0.18-0.08-0.36-0.06-0.51c0.1-0.14-0.06-0.42-0.16-0.49
c0,0,0.02-0.06-0.01-0.14c-0.02,0.02-0.06,0.01-0.09,0.01c-0.03-0.05-0.04-0.06-0.07-0.07c-0.06-0.01-0.06-0.04-0.07-0.07
c-0.03,0.03-0.05,0.06-0.08,0.07c-0.05,0-0.07,0-0.09,0.02c-0.04,0.03-0.05,0.04-0.11,0.04c-0.06,0-0.06,0.03-0.05,0.07
c0.01,0.03,0.01,0.07,0.04,0.08c0,0,0.01,0.01,0.02,0.01L30,13.55l0.03-0.06c0.03-0.02,0.1-0.03,0.11,0.02
c0.01,0.04,0.02,0.05-0.03,0.05c-0.05,0.01-0.08,0.01-0.12,0.01c-0.03,0-0.03,0.04-0.03,0.07c0,0.03,0.04,0.05,0.11,0.03
c0.07-0.02,0.19-0.03,0.19,0.03c0,0.15-0.18,0.15-0.21,0.33c-0.05-0.03-0.09-0.06-0.11-0.1c-0.02-0.05-0.07-0.1-0.13-0.16
c-0.04-0.04-0.08-0.08-0.13-0.11c-0.06-0.04-0.06-0.07-0.06-0.13c0-0.05,0.02-0.1,0.02-0.15c0,0-0.01-0.03-0.02-0.05
c-0.01-0.04-0.06-0.06-0.08-0.05c0.01,0.01,0.03,0.02,0.03,0.05c-0.01,0.01-0.02,0.03-0.03,0.03c-0.01,0.01-0.02,0.03,0,0.05
c0,0,0,0,0,0.01c0,0.01,0,0.01,0,0.03c0,0.01-0.01,0-0.01,0c-0.01-0.04-0.03-0.09-0.07-0.1c0,0-0.02,0-0.02,0c0,0,0-0.01,0-0.01
c0-0.04-0.04-0.07-0.09-0.02c0.01,0,0.03,0.01,0.04,0.02c-0.01,0.01-0.01,0.04-0.01,0.04c0,0.04,0.03,0.06,0.07,0.06
c0.01,0,0.01,0,0.01,0.01c0,0.01,0,0.01,0.01,0.02c0,0.01,0,0.01-0.01,0c-0.07-0.03-0.1,0-0.1,0.03c0,0,0,0.02,0,0.03
c-0.02,0.02-0.03,0.05,0.02,0.08c0-0.01,0-0.04,0.01-0.04c0.01,0,0.01,0,0.01-0.01c0.01,0.01,0.02,0.02,0.02,0.02
c0,0,0.02,0,0.04-0.01c0.01,0,0.01-0.01,0.02,0c0.01,0.01,0.01,0.01,0.02,0.01c0,0,0,0.01,0,0.01c-0.04,0.05-0.04,0.09,0.02,0.1
c-0.03,0.05-0.11,0.03-0.1-0.04c-0.06,0.1,0.04,0.16,0.12,0.13c0,0.03,0,0.1,0.01,0.1c0-0.01,0.01-0.02,0.02-0.02
c0.01,0,0.01,0,0.01,0.01c0,0.02,0.01,0.05,0.04,0.05c-0.01-0.02,0-0.02,0.01-0.03c0.01,0.02,0.03,0.05,0.04,0.07
c0.04,0.07,0.12,0.25,0.3,0.33c-0.09,0.05-0.16,0.13-0.21,0.2c-0.05,0.05-0.13,0.1-0.17,0.08c-0.02-0.01-0.03-0.03-0.06-0.05
c-0.02-0.02-0.04-0.02-0.06-0.02c0,0-0.02,0.01-0.03,0.01c-0.03-0.01-0.08,0-0.1,0.03c0.02,0,0.04-0.01,0.07,0.01
c0,0.01,0,0.03,0,0.03c0,0.02,0.02,0.05,0.11,0.04c0.01,0,0.02,0,0.01,0.01c-0.01,0.01-0.03,0.02-0.05,0.01
c-0.04-0.01-0.06-0.04-0.09-0.01c0,0-0.01,0.02-0.02,0.03c0,0-0.01,0-0.01,0c-0.04,0.01-0.07,0.08-0.03,0.11
c0-0.01,0-0.04,0.03-0.06c0.01,0.01,0.02,0.02,0.02,0.02c0.03,0.04,0.06,0.06,0.12-0.03c0.01-0.01,0.01,0,0.01,0
c0,0.04-0.05,0.11,0.01,0.12c0,0,0.02,0,0.03,0.01v0.01c0.01,0.05,0.08,0.06,0.11,0.05c-0.02-0.01-0.05-0.02-0.06-0.06
c0.01,0,0.03,0,0.03-0.01c0.03-0.03-0.01-0.08,0.01-0.1c0-0.01,0.01-0.01,0.01,0c0.01,0.02,0.04,0.06,0.09,0.04
c0.03-0.02,0.04-0.04,0.04-0.06c0.06-0.03,0.12-0.05,0.17-0.03c-0.01-0.03,0.03-0.08,0.1-0.1c0.07-0.02,0.1,0,0.12,0.02
c0.01-0.03,0.03-0.08,0.07-0.12c-0.01,0.27,0.36,0.26,0.44,0.42c-0.11-0.04-0.23-0.07-0.3-0.06c-0.09,0.02-0.24,0.1-0.26,0.2
c-0.01,0.08,0.07,0.23,0.16,0.29c-0.1,0.02-0.14-0.01-0.24,0.01c0,0-0.01,0-0.01,0c-0.08,0.01-0.09-0.14-0.19-0.1
c-0.01,0-0.02,0.01-0.03,0.02h0c-0.04,0-0.09,0.05-0.08,0.09c0.01-0.01,0.03-0.03,0.06-0.04c0,0.01,0,0.02,0,0.02
c0,0.02,0,0.03,0.04,0.03c0.02,0,0.03-0.01,0.04-0.01c0.01,0,0.01,0,0.01,0.01c0,0.04-0.12-0.02-0.1,0.08c0,0,0.01,0.02,0.02,0.03
c0,0.03,0.02,0.06,0.08,0.04c-0.01-0.01-0.03-0.02-0.03-0.04c0.01,0,0.02,0,0.02,0c0.01,0,0.01,0,0.01-0.02c0,0,0,0,0.01,0
c0.01,0,0.01,0.01,0.01,0.01c0,0.01-0.01,0.01-0.01,0.02c0,0,0.01,0.03,0.01,0.03c0,0.04,0.05,0.08,0.1,0.04
c-0.02,0-0.05-0.01-0.05-0.03c0.01,0,0.02-0.01,0.03-0.01c0.01-0.01,0.01-0.02,0.01-0.03c0-0.01,0.01-0.01,0.01-0.01
c0.01,0,0.02,0,0.03,0c0.01,0,0.01,0.01,0.02,0.01c0.01,0.02,0.04,0.04,0.07,0.03c0.02-0.01,0.03-0.02,0.03-0.03
c0.02,0.01,0.03,0.02,0.04,0.03c-0.01-0.04,0.02-0.07,0.1-0.01l0.06-0.05c0,0,0.08,0.03,0.11,0c0.05-0.04,0.02-0.05,0.02-0.09
c-0.04-0.08-0.06-0.07-0.07-0.15c-0.03-0.13,0.16-0.21,0.27-0.19c0.02,0.09,0.14,0.31,0.34,0.37c0.12,0.04,0.17-0.09,0.22-0.07
c0.01,0.01,0.02,0.02,0.02,0.04c-0.01,0.06,0,0.12-0.01,0.14c-0.01,0.03-0.08,0.01-0.13,0c-0.03,0-0.05,0.02-0.05,0.02
c-0.04,0.01-0.08,0.04-0.08,0.08c0.01-0.01,0.04-0.03,0.07-0.04c0,0.01,0,0.01,0,0.02c0.01,0.05,0.07,0.07,0.1,0.04
c0-0.01,0.02,0,0.01,0.01c-0.03,0.02-0.09,0.07-0.04,0.09c0,0,0.02,0.01,0.03,0.01c0,0.03,0.02,0.07,0.05,0.07
c-0.01-0.02-0.01-0.03,0-0.06c0.01,0,0.02,0,0.03,0c0.03,0,0.02-0.07,0.06-0.08c0.01,0,0.01,0,0.01,0c-0.01,0.04-0.02,0.08,0.02,0.1
c0,0,0.02,0,0.03,0.01c0.01,0.03,0.05,0.05,0.1,0.03c-0.01-0.01-0.04-0.02-0.04-0.03c0.01-0.01,0.02-0.03,0.03-0.03
c0.02-0.08-0.05-0.08-0.05-0.11c0-0.04,0.08-0.01,0.08-0.09c0,0,0-0.01,0-0.01c0.04-0.02,0.08-0.05,0.08-0.08
C31.48,15.46,31.44,15.44,31.43,15.44L31.43,15.44z M27.4,17.83c0.02-0.21,0-0.27-0.11-0.27c-0.13,0-0.38,0.13-0.69,0.26l0.66,0.94
c0.04-0.25,0.07-0.47,0.09-0.6c0-0.02,0.01-0.04,0.01-0.06l-0.04,0c-0.09-0.01-0.15-0.06-0.15-0.15c0.01-0.09,0.1-0.12,0.16-0.12
L27.4,17.83z M27.15,19.47c0.03-0.15,0.05-0.32,0.08-0.47l-0.78-1.11c-0.11,0.04-0.22,0.07-0.33,0.1L27.15,19.47z M27.04,20.14
c0.02-0.12,0.05-0.27,0.07-0.43l-1.18-1.69c-0.07,0.01-0.15,0.02-0.23,0.02c-0.04,0-0.09,0-0.14,0L27.04,20.14z M25.37,18.04
c-0.11,1.21,0.75,1.98,1.62,2.32L25.37,18.04z M27.78,17.86c0.07,0.01,0.14,0.05,0.14,0.14c-0.01,0.09-0.08,0.13-0.17,0.12
l-0.05-0.01l-0.06,2.32l0.07,0.01l-0.02,0.21c-0.02,0.07-0.1,0.08-0.17,0.08c0.04,0.36-0.27,0.45-0.42,0.45
c-0.16,0-0.3-0.11-0.3-0.29c0-0.15,0.14-0.21,0.23-0.21c0.09,0,0.14,0.04,0.12,0.12C27.16,20.86,27,20.81,27,20.9
c0,0.05,0.05,0.1,0.13,0.1c0.12,0,0.19-0.06,0.19-0.19c0-0.21-0.2-0.24-0.4-0.19c-1.33-0.39-2.08-1.69-1.99-2.7
c-0.03-0.01-0.06-0.02-0.09-0.04l0.08-0.2c-0.03,0.04-0.08,0.06-0.13,0.06c-0.09,0-0.17-0.08-0.17-0.16c0-0.09,0.07-0.17,0.17-0.17
c0.09,0,0.16,0.07,0.16,0.17c0,0.01,0,0.01,0,0.02l0.08-0.2c0.21,0.12,0.55,0.26,0.84,0.26c0.67,0,1.15-0.32,1.4-0.32
c0.28,0,0.43,0.19,0.42,0.45l0,0.07L27.78,17.86z M26.6,12.96c-0.01,0.02-0.01,0.05,0.02,0.07c0.03,0.02,0.05-0.01,0.06-0.03
c0.01-0.02,0.01-0.03,0.01-0.04c-0.01-0.01-0.02-0.03-0.01-0.04c0.01-0.02,0.03-0.01,0.05,0c-0.01-0.02-0.01-0.03,0.01-0.03
c0.02,0,0.02,0.03,0.02,0.03c0.01-0.01,0-0.02,0.01-0.03c0-0.01-0.01-0.02-0.02-0.02l-0.08-0.04c-0.01-0.01-0.02-0.01-0.03,0
c-0.01,0-0.02,0.01-0.02,0.02c0.01,0.01,0.02-0.01,0.04,0c0.01,0.01,0,0.02-0.02,0.02c0.02,0.01,0.04,0.02,0.03,0.04
c-0.01,0.02-0.01,0.02-0.03,0.02C26.62,12.92,26.61,12.94,26.6,12.96z M26.76,12.78c-0.01,0.03,0.01,0.07,0.04,0.07
c0.03,0,0.02-0.02,0.07-0.03C26.84,12.81,26.78,12.79,26.76,12.78z M27.5,13.18c-0.02,0-0.01,0.01,0,0.01
c0.15,0.01,0.19,0.06,0.27,0.05c0.05-0.01,0.05,0.02,0.05,0.03c0.01,0.04,0.06,0.02,0.07,0c0.01,0.04-0.01,0.06-0.02,0.07
c-0.01,0.01-0.01,0.01,0,0.01c0.01,0.03-0.01,0.07,0.04,0.06c-0.01,0.03-0.03,0.02-0.04,0.02h0c0,0,0,0,0,0
c0.02,0.01,0.03,0.03,0.03,0.04c0,0.07-0.06,0.05-0.06,0.08c0,0.03,0.05,0.03,0.04,0.09c0,0-0.01,0.02-0.02,0.03
c0.01,0.01,0.03,0.02,0.03,0.02c-0.04,0.02-0.07,0-0.07-0.02c-0.01,0-0.02-0.01-0.02-0.01c-0.03-0.01-0.02-0.05-0.01-0.08
c0,0,0,0-0.01,0c-0.03,0.02-0.02,0.07-0.04,0.07h-0.02c-0.01,0.03-0.01,0.04,0,0.05c-0.02-0.01-0.04-0.03-0.04-0.06
c-0.01,0-0.02-0.01-0.02-0.01c-0.04-0.02,0.01-0.06,0.03-0.08c0.01-0.01-0.01-0.01-0.01-0.01c-0.03,0.03-0.07,0.01-0.08-0.03
c0,0,0-0.01,0-0.01c-0.03,0-0.04,0.02-0.05,0.03c0-0.04,0.03-0.06,0.06-0.07c0,0,0.02-0.02,0.04-0.02c0.04,0,0.09,0.02,0.1,0
c0.01-0.03-0.01-0.04,0.01-0.1c0-0.02-0.01-0.03-0.03-0.03c-0.02,0-0.09-0.02-0.15,0.02c-0.05,0.03,0.06,0.05-0.06,0.05
c-0.07,0-0.12-0.02-0.17-0.04c0.03,0.04,0,0.07,0.03,0.09c0.05,0.03,0.05,0.11,0.04,0.13c-0.01,0.02-0.08,0.02-0.12,0.01
c-0.01-0.01-0.03,0-0.03,0c-0.05,0.01,0,0.06-0.05,0.08c-0.03,0.01-0.06-0.01-0.06-0.03c0,0-0.01-0.01-0.02-0.01
c-0.01,0-0.02,0-0.02,0c0,0-0.01,0-0.01,0.01c0,0.01,0,0.02-0.01,0.03c0,0-0.01,0.01-0.02,0.01c0,0.02,0.03,0.02,0.05,0.02
c-0.05,0.03-0.09,0-0.09-0.03c0,0-0.01-0.03-0.01-0.03c0-0.01,0.01-0.01,0.01-0.02c0,0,0-0.01-0.01-0.01c0,0,0,0,0,0.01
c0,0.01-0.01,0.01-0.01,0.01c0,0-0.01,0-0.02,0c0,0.01,0.01,0.02,0.02,0.03c-0.05,0.02-0.07-0.01-0.07-0.04
c-0.01-0.01-0.02-0.03-0.02-0.03c-0.02-0.09,0.08-0.04,0.08-0.07c0-0.01,0-0.01-0.01-0.01c-0.01,0-0.02,0.01-0.03,0.01
c-0.03,0-0.03-0.01-0.03-0.03c0,0,0-0.01,0-0.02c-0.03,0-0.04,0.02-0.05,0.03c-0.01-0.03,0.04-0.08,0.07-0.08
c0.01,0,0.02-0.02,0.02-0.02c0.08-0.03,0.09,0.14,0.17,0.09c0.01-0.01,0.04-0.02,0.07-0.02c0.01,0,0.01,0,0-0.01
c-0.02-0.02-0.06-0.03-0.09-0.04c-0.05-0.01-0.05-0.11-0.03-0.16c-0.02,0.02-0.07,0.04-0.1,0.04c-0.34-0.02-0.07,0.1-0.24,0.13
c-0.03,0.01-0.11,0.09-0.19,0.09c0.02-0.01,0.01-0.04,0-0.06c-0.02,0.03-0.06,0.04-0.08,0.04c-0.03,0.02-0.05,0.03-0.05,0.04
c0,0.04-0.06,0.07-0.09,0.07c0.02-0.01,0.03-0.03,0.03-0.04c0-0.01,0-0.01-0.01,0c-0.07,0.05-0.14,0-0.15,0.12
c-0.03-0.03-0.02-0.07-0.03-0.07c0,0-0.02,0.02-0.02,0.02c-0.01-0.01-0.01-0.03,0-0.05c0,0,0-0.01-0.01-0.01
c-0.05,0.01-0.08,0.01-0.09,0.01c0,0,0,0,0,0c0-0.01-0.01-0.02-0.02-0.02c-0.01,0.05-0.06,0.07-0.08,0.08
c0.03-0.03,0.03-0.06,0.02-0.08c-0.01,0.02-0.02,0.03-0.03,0.03c0.01-0.02-0.01-0.04-0.02-0.05c0,0,0,0,0,0.01
c0,0.02-0.02,0.06-0.06,0.07c-0.05,0-0.06-0.04-0.06-0.06c0-0.01-0.01-0.01-0.01,0c-0.02,0.01,0,0.06-0.04,0.08
c0,0-0.02,0-0.02-0.01c-0.01,0.03,0.01,0.06,0.03,0.07c-0.03,0-0.08-0.03-0.07-0.08c0,0,0-0.01,0-0.01
c-0.01-0.01-0.02-0.01-0.02-0.01c-0.04-0.03,0.01-0.06,0.03-0.1c0,0,0-0.01-0.01-0.01c-0.08,0.05-0.1,0.02-0.11-0.02
c0,0,0-0.02-0.01-0.02c-0.02,0-0.04,0.03-0.04,0.03c-0.03-0.04,0.03-0.08,0.06-0.08c0,0,0.01,0,0.01,0
c0.01-0.01,0.02-0.01,0.02-0.01c0.04-0.02,0.04,0.01,0.07,0.04c0.01,0.01,0.03,0.01,0.04,0c0.01,0,0-0.01,0-0.01
c-0.08-0.03-0.08-0.05-0.07-0.07c0,0,0.01-0.02,0.01-0.03c-0.02-0.02-0.03-0.03-0.05-0.03c0.02-0.02,0.06-0.01,0.08,0.01
c0.01,0,0.03,0,0.03,0c0.01,0,0.03,0.01,0.04,0.03c0.01,0.03,0.01,0.04,0.02,0.06c0.04,0.05,0.16,0.01,0.21-0.02
c0.03-0.02,0.14-0.01,0.15-0.01c0.01,0,0.13-0.03,0.2-0.06c-0.05-0.05-0.07-0.11-0.08-0.11c-0.01,0-0.02,0.01-0.01,0.03
c-0.03,0-0.03-0.03-0.03-0.05c0-0.01,0-0.01-0.01-0.01c-0.01,0-0.02,0.01-0.02,0.02c-0.01,0-0.02-0.01-0.02-0.03c0,0,0-0.01-0.01,0
c-0.08,0.04-0.17-0.02-0.1-0.1c-0.02,0.07,0.09,0.09,0.1,0.01c0-0.01,0-0.01-0.01-0.01c-0.06-0.01-0.06-0.05-0.01-0.08
c0,0,0-0.01,0-0.01C26.18,13,26.18,13,26.17,13c-0.01,0-0.01,0-0.02,0c-0.02,0.01-0.03,0.01-0.04,0.01c0,0-0.01-0.01-0.01-0.02
c0,0-0.01,0-0.01,0c-0.02,0.01-0.02,0.03-0.02,0.04c-0.04-0.02-0.03-0.05,0-0.07c0-0.01,0-0.02,0-0.03c0.01-0.02,0.04-0.05,0.1-0.02
c0,0,0.01,0,0.01,0c0-0.01,0-0.01,0-0.02c0,0,0,0-0.01,0c-0.04,0-0.06-0.02-0.06-0.05c0-0.01,0.01-0.02,0.01-0.03
c-0.01-0.01-0.02-0.01-0.03-0.01c0.05-0.04,0.08-0.01,0.08,0.02c0,0,0,0.01,0,0.01c0.01,0,0.02,0,0.02,0c0.03,0,0.04,0.05,0.04,0.08
c0,0,0,0.01,0.01,0c0-0.01,0.01-0.01,0.01-0.02c0,0,0-0.01,0-0.01c-0.01-0.02-0.01-0.03,0.01-0.04c0,0,0.02-0.01,0.02-0.02
c0-0.03-0.01-0.04-0.02-0.05c0.02,0,0.06,0.02,0.07,0.05c0,0.01,0.01,0.03,0.01,0.04c0,0.04-0.03,0.08-0.04,0.12
c-0.01,0.05-0.01,0.07,0.04,0.1c0.03,0.02,0.05,0.04,0.07,0.06h0c0.01-0.04,0.02-0.13,0.05-0.2c-0.01-0.01-0.01-0.02-0.02-0.03
c0.03,0,0.04-0.06,0.07-0.11c-0.01,0-0.02-0.01-0.03-0.03c0.03,0.01,0.06-0.07,0.09-0.08c-0.01-0.04-0.01-0.06,0.01-0.09
c0.02,0,0.05,0.01,0.06,0.03c0-0.02,0.02-0.02,0.04-0.02c0,0,0.04-0.01,0.05-0.01c0.02,0,0.04,0,0.08,0.02
c0.04,0.02,0.07,0.04,0.08,0.05c0.01,0.01,0.02,0.04,0.02,0.05c0.01,0.01,0.03,0.03,0.02,0.05c0.02,0,0.05,0.01,0.07,0.03
c0,0.03-0.02,0.05-0.06,0.07c0.04,0.05-0.07,0.16-0.07,0.22c0.34-0.09,0.47,0.04,0.65,0.04c0.24,0,0.39-0.06,0.39-0.14
c0-0.24-0.88-0.01-0.88-0.34c0-0.05,0.03-0.09,0.09-0.13c-0.01-0.02,0-0.04,0.02-0.06c0.09-0.12,0.26-0.13,0.34-0.23
c0.01,0.04-0.02,0.14-0.11,0.18c0.16-0.01,0.21-0.31,0.59-0.25c-0.31,0.06-0.32,0.36-0.75,0.4h-0.01c-0.04,0.03-0.06,0.06-0.06,0.09
c0,0.21,0.87,0,0.87,0.34C27.97,13.08,27.82,13.19,27.5,13.18z M25.82,14.31c-0.01,0.02-0.02,0.06,0.02,0.08
c0.03,0.02,0.06-0.01,0.07-0.03c0.01-0.02,0.02-0.04,0.01-0.05c-0.01-0.02-0.02-0.03-0.01-0.05c0.01-0.02,0.03-0.01,0.06,0
c-0.01-0.02-0.01-0.04,0.01-0.04c0.02,0,0.02,0.04,0.03,0.04c0.01,0,0.01-0.02,0.01-0.04c0-0.01-0.01-0.02-0.02-0.02l-0.1-0.05
c-0.01-0.01-0.02-0.01-0.03,0c-0.01,0.01-0.02,0.01-0.02,0.03c0.01,0.01,0.03-0.01,0.04,0c0.01,0.01,0,0.02-0.02,0.03
c0.02,0.02,0.04,0.03,0.04,0.05c-0.01,0.02-0.02,0.02-0.04,0.02C25.84,14.27,25.83,14.28,25.82,14.31z M25.94,14.06
c-0.02,0-0.08-0.04-0.11-0.06c0.03,0.05,0,0.06,0.03,0.08C25.89,14.11,25.92,14.08,25.94,14.06z M26.01,14.1
c0,0.03,0.01,0.08,0.04,0.08c0.04,0,0.02-0.02,0.08-0.03C26.1,14.14,26.02,14.11,26.01,14.1z M27.94,14.36c0,0.11-0.3,0.17-0.5,0.17
c0.18,0.02,0.24,0.04,0.34,0.03c0.05-0.01,0.06,0.03,0.06,0.03c0.01,0.05,0.07,0.02,0.09,0c0.01,0.04-0.01,0.07-0.03,0.08
c0,0.01,0,0.01,0,0.01c0.01,0.03-0.01,0.08,0.05,0.07c-0.01,0.03-0.03,0.02-0.05,0.02h0c0,0,0,0,0,0c0.03,0.01,0.03,0.03,0.03,0.05
c0,0.08-0.07,0.05-0.07,0.09c0,0.03,0.07,0.03,0.04,0.11c0,0.01-0.02,0.02-0.02,0.03c0.01,0.02,0.03,0.03,0.04,0.03
c-0.04,0.02-0.08,0-0.09-0.03c-0.01,0-0.03,0-0.03-0.01c-0.03-0.01-0.03-0.05-0.01-0.09c0,0,0-0.01-0.01,0
c-0.03,0.02-0.02,0.08-0.05,0.08c0,0-0.01,0-0.02,0c-0.02,0.04-0.01,0.05,0,0.06c-0.03-0.01-0.05-0.04-0.05-0.07
c-0.01-0.01-0.02-0.01-0.03-0.02c-0.04-0.02,0.01-0.06,0.04-0.09c0.01-0.01-0.01-0.01-0.01-0.01c-0.03,0.03-0.09,0.02-0.09-0.03
c0,0,0-0.01,0-0.02c-0.03,0-0.05,0.02-0.06,0.03c0-0.04,0.04-0.07,0.07-0.08c0-0.01,0.02-0.02,0.04-0.02c0.04,0,0.1,0.03,0.12,0
c0.02-0.04-0.01-0.04,0.01-0.12c0.01-0.03-0.01-0.03-0.03-0.04c-0.02,0-0.1-0.03-0.17,0.02c-0.06,0.04-0.1,0.06-0.24,0.06
c-0.08,0-0.14-0.02-0.19-0.05c0.03,0.05,0,0.09,0.03,0.1c0.06,0.03,0.06,0.12,0.05,0.15c-0.01,0.02-0.09,0.03-0.14,0.01
c-0.01,0-0.03,0-0.04,0c-0.05,0.01,0,0.07-0.06,0.09c-0.04,0.02-0.07-0.01-0.08-0.03c0,0-0.01-0.01-0.02-0.01c-0.01,0-0.02,0-0.03,0
c-0.01,0-0.01,0-0.01,0.01c0,0.02,0,0.03-0.01,0.04c0,0-0.01,0.01-0.03,0.01c0.01,0.02,0.04,0.03,0.06,0.03
c-0.06,0.04-0.11,0-0.1-0.04c-0.01,0-0.01-0.03-0.01-0.03c0-0.01,0.01-0.02,0.01-0.02c0-0.01,0-0.01-0.01-0.01
c-0.01,0-0.01,0-0.01,0c0,0.01-0.01,0.02-0.01,0.02c0,0-0.02,0-0.03,0c0,0.02,0.02,0.03,0.03,0.04c-0.05,0.02-0.08-0.01-0.07-0.04
c-0.01-0.01-0.02-0.03-0.02-0.03c-0.02-0.1,0.1-0.04,0.1-0.08c0-0.01-0.01-0.01-0.01-0.01c-0.01,0-0.02,0.01-0.04,0.01
c-0.03,0-0.04-0.02-0.04-0.03v-0.02c-0.03,0-0.05,0.02-0.06,0.04c-0.01-0.04,0.04-0.09,0.08-0.09c0.01-0.01,0.02-0.02,0.03-0.02
c0.1-0.04,0.1,0.16,0.19,0.1c0.01-0.01,0.05-0.02,0.08-0.02c0.01,0,0.01,0,0-0.01c-0.02-0.02-0.07-0.04-0.1-0.04
c-0.06-0.01-0.06-0.13-0.03-0.18c-0.02,0.02-0.08,0.05-0.11,0.05c-0.44-0.08-0.25,0.19-0.52,0.17c-0.02,0-0.05,0-0.09,0.01
c-0.02,0.06-0.17,0.2-0.26,0.18c0.02-0.01,0.03-0.03,0.04-0.05c0-0.01,0-0.01-0.01-0.01c-0.08,0.06-0.16,0-0.17,0.14
c-0.03-0.03-0.02-0.08-0.03-0.08c-0.01,0-0.02,0.02-0.02,0.03c-0.01-0.01-0.01-0.03,0-0.05c0,0,0-0.01-0.01-0.01
c-0.05,0.01-0.09,0.01-0.11,0c0,0,0,0-0.01,0c0-0.01-0.01-0.02-0.02-0.03c-0.01,0.06-0.07,0.08-0.09,0.09
c0.04-0.03,0.03-0.07,0.02-0.09c-0.01,0.02-0.03,0.03-0.04,0.04c0.01-0.03-0.01-0.05-0.03-0.06c0,0-0.01,0,0,0.01
c0,0.03-0.02,0.07-0.07,0.08c-0.05,0.01-0.06-0.05-0.07-0.07c0-0.01,0-0.01-0.01,0c-0.02,0.02,0,0.07-0.05,0.09
c0,0-0.02,0-0.03-0.01c-0.01,0.04,0.02,0.06,0.03,0.08c-0.03,0-0.09-0.04-0.08-0.09c0,0,0-0.01,0-0.01
c-0.01-0.01-0.02-0.02-0.02-0.02c-0.05-0.03,0.01-0.07,0.04-0.11c0,0,0-0.01-0.01-0.01c-0.09,0.06-0.12,0.03-0.12-0.02
c0,0-0.01-0.02-0.01-0.03c-0.03,0.01-0.04,0.03-0.05,0.04c-0.03-0.05,0.03-0.09,0.07-0.09c0,0,0.01,0,0.01,0
c0.01-0.01,0.03-0.01,0.03-0.01c0.04-0.03,0.05,0.01,0.08,0.04c0.02,0.01,0.04,0.01,0.05,0.01c0.01,0,0-0.01,0-0.01
c-0.09-0.03-0.1-0.06-0.09-0.08c0,0,0.01-0.02,0.02-0.03c-0.02-0.03-0.04-0.03-0.05-0.04c0.02-0.01,0.07-0.01,0.1,0.01
c0.01,0,0.03,0,0.03,0c0.01,0,0.03,0.02,0.05,0.04c0.02,0.03,0.01,0.05,0.03,0.07c0.04,0.06,0.18,0.01,0.24-0.02
c0.04-0.02,0.2-0.01,0.22-0.01c0.01,0-0.04-0.07-0.04-0.13c-0.04,0.04-0.08-0.02-0.14-0.05c-0.07-0.04-0.11-0.11-0.12-0.11
c-0.01,0-0.02,0.02-0.01,0.04c-0.03-0.01-0.04-0.03-0.04-0.06c0,0,0-0.01,0-0.01c-0.02,0-0.02,0.01-0.02,0.02
c-0.02,0-0.02-0.02-0.03-0.03c0,0-0.01-0.01-0.01,0c-0.09,0.05-0.2-0.03-0.13-0.13c-0.01,0.09,0.1,0.1,0.12,0.02
c0-0.01,0-0.01-0.01-0.01c-0.06-0.01-0.07-0.06-0.02-0.1c0.01,0,0.01-0.01,0-0.01c-0.01-0.01-0.01-0.01-0.02-0.02
c-0.01-0.01-0.01,0-0.02,0c-0.02,0.02-0.03,0.02-0.04,0.02c0,0-0.01-0.01-0.02-0.02c0,0-0.01,0-0.01,0
c-0.02,0.01-0.02,0.03-0.02,0.04c-0.04-0.03-0.04-0.07-0.01-0.08c0-0.01,0-0.03,0-0.03c0-0.03,0.03-0.06,0.1-0.04
c0.01,0,0.01,0,0.01,0c0-0.01,0-0.01-0.01-0.02c0,0-0.01-0.01-0.01-0.01c-0.04,0-0.07-0.02-0.07-0.06c0,0,0.01-0.03,0.01-0.04
c-0.01-0.01-0.03-0.02-0.04-0.02c0.05-0.05,0.09-0.02,0.09,0.02c0,0,0,0.01,0,0.01c0.01,0,0.02,0,0.03,0c0.03,0,0.05,0.06,0.06,0.1
c0,0.01,0,0.01,0.01,0c0-0.01,0.01-0.02,0.01-0.02c0-0.01,0-0.01,0-0.01c-0.02-0.02-0.01-0.04,0-0.05c0,0,0.02-0.02,0.03-0.03
c0-0.03-0.02-0.04-0.03-0.06c0.03-0.01,0.07,0.02,0.08,0.05c0,0.01,0.01,0.04,0.01,0.05c0,0.05-0.03,0.1-0.03,0.15
c-0.01,0.06,0,0.09,0.06,0.13c0.06,0.04,0.1,0.09,0.14,0.12l0.04,0.01c-0.01,0-0.02-0.01-0.03-0.01c0.01,0.01,0.02,0.01,0.03,0.01
c0.01,0,0.01,0,0.02,0l0.07,0.02c0-0.03,0-0.08,0.01-0.12c-0.01,0-0.03-0.01-0.05-0.05c0.04,0,0.05-0.07,0.08-0.12
c-0.01,0-0.02-0.01-0.04-0.04c0.04,0.01,0.07-0.08,0.11-0.09c-0.01-0.05-0.01-0.07,0.01-0.11c0.03,0,0.05,0.01,0.07,0.03
c0-0.03,0.03-0.03,0.05-0.02c0,0,0.05-0.01,0.06-0.01c0.02,0,0.05,0,0.09,0.03c0.05,0.02,0.07,0.05,0.09,0.06
c0.01,0.01,0.02,0.05,0.02,0.05c0.02,0.02,0.03,0.04,0.02,0.05c0.02,0.01,0.05,0.01,0.07,0.03c0,0.03-0.03,0.06-0.06,0.08
c0.04,0.05-0.04,0.13-0.07,0.2c0.41-0.08,1.09,0.04,1.32,0.04c0.15,0,0.4-0.02,0.4-0.09c0-0.05-0.06-0.08-0.32-0.08
c-0.26,0-1.09,0.18-1.09-0.13c0-0.14,0.18-0.14,0.4-0.14c0.01-0.01,0.02-0.01,0.03-0.02c0.16-0.1,0.42,0.04,0.56-0.05
c-0.01,0.05-0.07,0.1-0.25,0.1c0.3,0.07,0.54-0.16,0.83,0.06c-0.24-0.07-0.71,0.14-1.11,0.03c-0.04-0.01-0.06-0.02-0.07-0.03
c-0.16-0.01-0.3-0.02-0.3,0.07c0,0.17,0.7,0.06,1.01,0.06C27.83,14.2,27.94,14.26,27.94,14.36z M25.47,15.67
c-0.01,0.02-0.02,0.05,0.02,0.07c0.03,0.02,0.06-0.01,0.07-0.04c0.01-0.02,0.01-0.04,0.01-0.05c-0.01-0.01-0.02-0.03-0.01-0.05
c0.01-0.02,0.03-0.01,0.05,0c-0.01-0.02-0.01-0.04,0.01-0.03c0.02,0,0.02,0.03,0.03,0.03c0.01,0,0.01-0.02,0.01-0.03
c0-0.01-0.01-0.02-0.02-0.02l-0.09-0.05c-0.01-0.01-0.02-0.01-0.03,0c-0.01,0.01-0.02,0.01-0.02,0.02c0.01,0.01,0.03-0.01,0.04,0
c0.01,0.01,0,0.02-0.02,0.03c0.02,0.01,0.04,0.02,0.03,0.05c-0.01,0.02-0.02,0.02-0.04,0.02C25.49,15.63,25.48,15.65,25.47,15.67z
M25.58,15.43c-0.02,0-0.07-0.04-0.1-0.06c0.03,0.05,0,0.06,0.03,0.08C25.53,15.48,25.56,15.46,25.58,15.43z M25.65,15.47
c0,0.03,0.01,0.07,0.04,0.07c0.04,0,0.02-0.02,0.08-0.03C25.73,15.5,25.66,15.48,25.65,15.47z M27.8,15.71
c0,0.11-0.31,0.15-0.48,0.16c0.17,0.02,0.23,0.04,0.32,0.03c0.05-0.01,0.06,0.02,0.06,0.03c0,0.05,0.06,0.02,0.08,0
c0.01,0.04-0.01,0.07-0.02,0.08c-0.01,0,0,0.01,0,0.01c0.01,0.03-0.01,0.07,0.04,0.07c-0.01,0.03-0.03,0.02-0.05,0.02v0c0,0,0,0,0,0
c0.03,0.01,0.03,0.03,0.03,0.04c0,0.07-0.07,0.05-0.07,0.09c0,0.03,0.06,0.03,0.04,0.1c0,0-0.01,0.02-0.02,0.03
c0.01,0.01,0.03,0.02,0.04,0.03c-0.04,0.02-0.07,0-0.08-0.02c-0.01,0-0.02-0.01-0.02-0.01c-0.03-0.01-0.03-0.05-0.01-0.09
c0,0,0-0.01-0.01,0c-0.03,0.02-0.02,0.08-0.05,0.08h-0.02c-0.01,0.03-0.01,0.04,0,0.06c-0.03,0-0.05-0.03-0.05-0.06
c-0.01-0.01-0.02-0.01-0.02-0.01c-0.04-0.02,0.01-0.06,0.04-0.08c0.01-0.01-0.01-0.01-0.01-0.01c-0.03,0.03-0.08,0.02-0.09-0.03
c0,0,0-0.01,0-0.01c-0.02,0-0.05,0.02-0.06,0.03c0-0.04,0.04-0.07,0.07-0.08c0,0,0.02-0.02,0.04-0.02c0.04,0,0.1,0.03,0.11,0
c0.02-0.03-0.01-0.04,0.01-0.11c0.01-0.02-0.01-0.03-0.03-0.03c-0.02,0-0.1-0.02-0.16,0.02c-0.06,0.04-0.09,0.06-0.23,0.06
c-0.07,0-0.13-0.02-0.18-0.04c0.03,0.04,0,0.08,0.03,0.1c0.05,0.03,0.06,0.12,0.04,0.14c-0.01,0.02-0.09,0.03-0.13,0.01
c-0.01-0.01-0.03,0-0.04,0c-0.05,0.01,0,0.07-0.06,0.09c-0.03,0.01-0.06-0.01-0.07-0.03c0,0-0.01-0.01-0.02-0.01
c-0.01,0-0.02,0-0.02,0c-0.01,0-0.01,0-0.01,0.01c0,0.02,0,0.03-0.01,0.04c0,0-0.01,0.01-0.02,0.01c0,0.02,0.04,0.02,0.05,0.03
c-0.05,0.04-0.1,0-0.1-0.04c0,0-0.01-0.03-0.01-0.03c0-0.01,0.01-0.01,0.01-0.02c0,0,0-0.01-0.01-0.01c0,0,0,0-0.01,0.01
c0,0.01-0.01,0.01-0.01,0.01h-0.02c0,0.01,0.02,0.03,0.03,0.03c-0.05,0.02-0.08-0.01-0.07-0.04c-0.01-0.01-0.02-0.03-0.02-0.03
c-0.02-0.1,0.09-0.04,0.09-0.08c0-0.01,0-0.01-0.01-0.01c-0.02,0-0.02,0.01-0.04,0.01c-0.03,0-0.04-0.01-0.03-0.03
c0,0,0-0.01,0-0.02c-0.03,0-0.05,0.02-0.06,0.04c-0.01-0.04,0.04-0.08,0.08-0.08c0.01-0.01,0.02-0.02,0.03-0.02
c0.09-0.04,0.1,0.15,0.18,0.09c0.01-0.01,0.05-0.01,0.08-0.02c0,0,0.01-0.01,0-0.01c-0.02-0.02-0.07-0.04-0.1-0.04
c-0.06-0.01-0.06-0.1-0.03-0.16c-0.02,0.02-0.03,0.04-0.06,0.03c-0.57-0.05-0.29,0.22-0.77,0.15c-0.03-0.01-0.03,0.06-0.11,0.06
c0,0,0,0,0.01,0c-0.01,0.01-0.03,0.01-0.05,0.01c0,0.01,0,0.03-0.01,0.04l-0.13,0.06c0,0,0.01-0.01,0.01-0.01
c-0.03,0.03-0.08,0.04-0.11,0.04c0.02-0.01,0.03-0.03,0.04-0.04c0-0.01,0-0.01-0.01,0c-0.08,0.05-0.24-0.01-0.25,0.12
c-0.03-0.03-0.02-0.08-0.03-0.08c-0.01,0-0.02,0.02-0.02,0.03c-0.01-0.01-0.01-0.03-0.01-0.05c0,0,0-0.01,0-0.01
c-0.05,0.01-0.08,0.01-0.1,0c0,0,0,0,0,0.01c0-0.01-0.01-0.02-0.02-0.03c-0.01,0.06-0.06,0.08-0.08,0.09
c0.03-0.03,0.03-0.07,0.02-0.09c-0.01,0.02-0.03,0.03-0.04,0.04c0.01-0.03-0.01-0.04-0.02-0.05c0,0-0.01,0,0,0
c0,0.03-0.02,0.07-0.07,0.07c-0.05,0.01-0.06-0.04-0.06-0.06c0-0.01-0.01-0.01-0.01-0.01c-0.02,0.02,0,0.07-0.05,0.08
c0,0-0.01,0-0.02-0.01c-0.01,0.04,0.01,0.06,0.03,0.08c-0.03,0-0.08-0.04-0.08-0.09c0,0,0-0.01,0-0.01
c-0.01-0.01-0.02-0.02-0.02-0.02c-0.05-0.03,0.01-0.07,0.04-0.1c0-0.01,0-0.01-0.01-0.01c-0.09,0.06-0.11,0.03-0.12-0.02
c0-0.01,0-0.02-0.01-0.03c-0.03,0.01-0.04,0.03-0.05,0.04c-0.03-0.04,0.03-0.09,0.07-0.09c0,0,0.01,0,0.01,0
c0.01-0.01,0.02-0.01,0.03-0.01c0.04-0.02,0.05,0.02,0.08,0.04c0.02,0.01,0.04,0.01,0.05,0c0.01,0,0-0.01-0.01-0.01
c-0.09-0.03-0.09-0.06-0.08-0.08c0,0,0.01-0.02,0.02-0.03c-0.02-0.03-0.03-0.03-0.05-0.04c0.02-0.02,0.07-0.01,0.09,0.01
c0.02,0,0.03,0,0.03,0c0.01,0,0.03,0.01,0.04,0.04c0.02,0.03,0.01,0.05,0.03,0.07c0.04,0.06,0.17,0.01,0.23-0.02
c0.04-0.02,0.23-0.01,0.24-0.01c0.01,0-0.02-0.07-0.03-0.12c-0.01-0.01-0.02-0.02-0.03-0.03c-0.01,0.03-0.05,0.03-0.07,0.03
c-0.12-0.07-0.18-0.18-0.19-0.18c-0.01,0-0.02,0.02-0.01,0.03c-0.03-0.01-0.04-0.03-0.04-0.05c0-0.01,0-0.01,0-0.01
c-0.02,0-0.02,0.01-0.02,0.02c-0.02,0-0.02-0.02-0.03-0.03c0,0,0-0.01-0.01,0c-0.08,0.05-0.19-0.03-0.13-0.12
c0,0.08,0.1,0.1,0.11,0.02c0-0.01,0-0.01-0.01-0.01c-0.06-0.01-0.07-0.05-0.02-0.1c0,0,0-0.01,0-0.01
c-0.01-0.01-0.02-0.01-0.02-0.01c-0.01,0-0.01,0-0.02,0c-0.02,0.01-0.03,0.02-0.04,0.01c0,0-0.01-0.01-0.02-0.02c0,0-0.01,0-0.01,0
c-0.02,0.01-0.02,0.03-0.01,0.04c-0.05-0.03-0.04-0.06-0.01-0.08c0-0.01,0-0.02,0-0.03c0-0.03,0.03-0.06,0.09-0.03
c0.01,0,0.01,0,0.01-0.01c0,0-0.01-0.01-0.01-0.02c0-0.01,0-0.01-0.01-0.01c-0.04,0-0.07-0.02-0.07-0.05c0,0,0.01-0.03,0.01-0.04
c-0.01-0.01-0.03-0.01-0.04-0.02c0.05-0.05,0.09-0.02,0.09,0.02c0,0,0,0.01,0,0.01c0.01,0,0.02,0,0.02,0c0.03,0,0.05,0.05,0.06,0.09
c0,0.01,0,0.01,0.01,0c0-0.01,0-0.02,0-0.02c0,0,0-0.01,0-0.01c-0.02-0.02-0.01-0.04,0-0.05c0,0,0.01-0.02,0.02-0.03
c0-0.03-0.02-0.04-0.03-0.05c0.03-0.01,0.07,0.02,0.08,0.05c0,0.01,0.01,0.04,0.01,0.05c0,0.05-0.02,0.09-0.02,0.14
c0,0.06,0,0.09,0.06,0.12c0.08,0.05,0.11,0.12,0.16,0.12c0.02,0,0.04,0,0.05,0.01c0,0,0.03,0,0.05,0l0.03,0.01
c0-0.03,0.01-0.06,0.01-0.09c-0.01-0.01-0.02-0.02-0.03-0.03c0.04,0,0.05-0.07,0.08-0.12c-0.01,0-0.02-0.01-0.03-0.04
c0.03,0.01,0.07-0.08,0.11-0.08c-0.01-0.05-0.01-0.07,0.01-0.1c0.03,0,0.05,0.01,0.07,0.03c0-0.02,0.03-0.02,0.05-0.02
c0.01,0,0.04-0.01,0.05-0.01c0.02,0,0.04,0,0.09,0.02c0.04,0.02,0.07,0.05,0.09,0.06c0,0.01,0.01,0.05,0.02,0.05
c0.02,0.01,0.03,0.03,0.02,0.05c0.02,0.01,0.05,0.01,0.07,0.03c0,0.03-0.03,0.06-0.06,0.07c0.04,0.05-0.05,0.15-0.07,0.22
c0.38-0.12,1.35,0.01,1.58,0.01c0.14,0,0.39-0.02,0.39-0.09c0-0.05-0.05-0.07-0.3-0.07c-0.25,0-1.28,0.17-1.28-0.12
c0-0.17,0.34-0.13,0.62-0.13c0.01-0.01,0.01-0.02,0.03-0.02c0.15-0.1,0.52,0.05,0.65-0.04c-0.01,0.05-0.18,0.08-0.35,0.08
c0.29,0.06,0.56-0.16,0.78,0.04c-0.27-0.09-0.67,0.16-1.05,0.06c-0.03-0.01-0.06-0.03-0.07-0.04c-0.22-0.01-0.53-0.05-0.53,0.06
c0,0.17,0.91,0.06,1.2,0.06C27.7,15.56,27.8,15.62,27.8,15.71z M29.69,17.62c-0.01,0.02-0.01,0.06,0.02,0.07
c0.03,0.02,0.06-0.01,0.06-0.03c0.01-0.02,0.01-0.04,0.01-0.05c-0.01-0.02-0.02-0.03-0.01-0.05c0.01-0.02,0.03-0.01,0.06,0
c-0.01-0.02-0.01-0.04,0.01-0.03c0.02,0,0.02,0.03,0.03,0.03c0.01,0,0.01-0.02,0.01-0.03c0-0.01-0.01-0.02-0.02-0.03l-0.09-0.04
c-0.01-0.01-0.02-0.01-0.03,0c-0.01,0.01-0.02,0.02-0.02,0.03c0,0.01,0.02-0.01,0.04,0c0.01,0.01,0,0.02-0.02,0.03
c0.02,0.01,0.04,0.02,0.03,0.05c-0.01,0.02-0.02,0.02-0.04,0.02C29.71,17.58,29.7,17.6,29.69,17.62z M29.87,17.42
c-0.01,0.03,0.01,0.08,0.04,0.08c0.03,0,0.02-0.02,0.07-0.03C29.95,17.46,29.88,17.43,29.87,17.42z M31.99,17.96
c0.01,0.03-0.01,0.08,0.04,0.07c-0.02,0.03-0.03,0.02-0.05,0.02h0c0,0,0,0,0,0.01C32,18.07,32.01,18.1,32,18.11
c-0.01,0.07-0.07,0.05-0.08,0.09c0,0.03,0.06,0.03,0.03,0.1c0,0-0.01,0.02-0.02,0.03c0,0.01,0.02,0.02,0.03,0.03
c-0.04,0.02-0.07,0-0.08-0.02c-0.01,0-0.02-0.01-0.02-0.01c-0.03-0.01-0.02-0.05-0.01-0.09c0,0,0,0-0.01,0
c-0.04,0.02-0.03,0.08-0.06,0.08h-0.02c-0.02,0.03-0.02,0.04-0.01,0.06c-0.03,0-0.04-0.03-0.04-0.06c-0.01-0.01-0.02-0.01-0.02-0.01
c-0.04-0.02,0.01-0.06,0.04-0.08c0.01-0.01-0.01-0.01-0.01-0.01c-0.03,0.03-0.08,0.02-0.08-0.03v-0.01c-0.03,0-0.05,0.02-0.06,0.03
c0-0.04,0.04-0.07,0.08-0.07c0,0,0.02-0.02,0.04-0.02c0.04,0,0.1,0.02,0.11,0c0.02-0.03,0-0.04,0.02-0.11
c0.01-0.02-0.01-0.03-0.02-0.03c-0.02,0-0.1-0.03-0.17,0.02c-0.06,0.04-0.11,0.06-0.24,0.06c-0.07,0-0.13-0.02-0.18-0.05
c0.03,0.05,0,0.09,0.03,0.1c0.05,0.03,0.06,0.12,0.05,0.14c-0.01,0.02-0.09,0.03-0.13,0.01c-0.01,0-0.03,0-0.04,0
c-0.05,0.01,0,0.06-0.06,0.09c-0.03,0.01-0.06-0.01-0.07-0.03c0,0-0.01-0.01-0.02-0.01c-0.01,0-0.02,0-0.03,0c0,0-0.01,0-0.01,0.01
c0,0.02,0,0.03-0.01,0.03c0,0-0.01,0.01-0.03,0.01c0.01,0.02,0.04,0.02,0.05,0.03c-0.05,0.04-0.1,0-0.1-0.04
c-0.01,0-0.01-0.03-0.01-0.03c0-0.01,0.01-0.01,0.01-0.02c0,0,0-0.01-0.01-0.01c-0.01,0-0.01,0-0.01,0c0,0.01-0.01,0.02-0.01,0.02
c0,0-0.01,0-0.02,0c-0.01,0.01,0.01,0.03,0.02,0.04c-0.05,0.02-0.08-0.01-0.07-0.04c-0.01-0.01-0.02-0.03-0.02-0.03
c-0.02-0.09,0.09-0.04,0.09-0.08c0-0.01-0.01-0.01-0.01-0.01c-0.01,0-0.02,0.01-0.04,0.01c-0.03,0-0.04-0.01-0.04-0.03v-0.02
c-0.03,0-0.05,0.02-0.06,0.04c-0.01-0.04,0.04-0.08,0.08-0.08c0.01-0.01,0.02-0.02,0.03-0.02c0.09-0.03,0.1,0.15,0.18,0.1
c0.01-0.01,0.05-0.02,0.08-0.02c0.01,0,0.01-0.01,0.01-0.01c-0.02-0.02-0.07-0.04-0.1-0.04c-0.06-0.01-0.06-0.12-0.03-0.18
c-0.02,0.02-0.04,0.05-0.06,0.05c-0.57-0.06-0.29,0.22-0.77,0.15c-0.03,0-0.02,0.06-0.11,0.06c-0.04,0.01-0.08,0.01-0.08,0.02
c0,0.05-0.12,0.12-0.15,0.1c0.02-0.01,0.03-0.03,0.04-0.04c0-0.01,0-0.01-0.01-0.01c-0.08,0.05-0.15,0-0.16,0.13
c-0.03-0.03-0.02-0.08-0.03-0.08c-0.01,0-0.02,0.02-0.02,0.03c-0.01-0.01-0.01-0.03-0.01-0.05c0,0,0-0.01-0.01-0.01
c-0.05,0.01-0.08,0.01-0.1,0c0,0,0,0,0,0.01c0-0.01-0.01-0.02-0.02-0.03c-0.01,0.06-0.06,0.08-0.08,0.09
c0.03-0.03,0.03-0.07,0.02-0.09c-0.01,0.02-0.03,0.03-0.04,0.04c0.01-0.03-0.01-0.05-0.02-0.06c-0.01,0-0.01,0-0.01,0.01
c0.01,0.03-0.02,0.07-0.07,0.07c-0.05,0.01-0.06-0.04-0.06-0.06c0-0.01-0.01-0.01-0.01-0.01c-0.03,0.02-0.01,0.07-0.05,0.09
c0,0-0.01,0-0.03-0.01c-0.01,0.04,0.02,0.06,0.03,0.08c-0.03,0-0.08-0.04-0.07-0.08c0,0,0-0.01,0-0.01
c-0.01-0.01-0.02-0.02-0.02-0.02c-0.05-0.03,0.02-0.07,0.04-0.1c0,0,0-0.01-0.01,0c-0.09,0.06-0.11,0.03-0.12-0.02
c0,0,0-0.02-0.01-0.03c-0.03,0.01-0.04,0.03-0.05,0.04c-0.03-0.04,0.03-0.09,0.07-0.09c0,0,0.01,0,0.01,0
c0.01,0,0.02-0.01,0.03-0.01c0.04-0.02,0.05,0.02,0.08,0.04c0.02,0.02,0.04,0.01,0.05,0.01c0.01-0.01,0-0.01-0.01-0.01
c-0.09-0.03-0.09-0.06-0.08-0.08c0,0,0.01-0.02,0.01-0.03c-0.02-0.03-0.03-0.03-0.05-0.03c0.02-0.02,0.07-0.01,0.09,0.01
c0.01,0,0.03,0,0.03,0c0.01,0,0.03,0.01,0.04,0.04c0.02,0.03,0.01,0.05,0.03,0.07c0.04,0.06,0.18,0.01,0.23-0.02
c0.04-0.02,0.15-0.01,0.17-0.01c0.01,0-0.05-0.06-0.05-0.11l-0.02,0.01c-0.02-0.01-0.04-0.03-0.04-0.05
c-0.03,0.02-0.07,0.04-0.07,0.05c-0.12-0.07-0.17-0.19-0.19-0.19c-0.01,0-0.01,0.01-0.01,0.03c-0.03,0-0.04-0.03-0.04-0.05
c0-0.01,0-0.01-0.01-0.01c-0.01,0-0.02,0.01-0.02,0.02c-0.01,0-0.02-0.02-0.03-0.03c0,0,0-0.01-0.01,0
c-0.08,0.05-0.19-0.02-0.13-0.12c-0.01,0.08,0.11,0.1,0.11,0.02c0-0.01,0-0.01-0.01-0.01c-0.06-0.01-0.07-0.06-0.02-0.1
c0,0,0-0.01,0-0.01c-0.01,0-0.02-0.01-0.02-0.01c-0.01,0-0.01,0-0.02,0c-0.02,0.01-0.03,0.02-0.04,0.01c0,0-0.01-0.01-0.02-0.02
c0,0-0.01,0-0.01,0c-0.02,0.01-0.02,0.03-0.02,0.04c-0.04-0.03-0.04-0.06-0.01-0.08c0-0.01,0-0.02,0-0.03c0-0.03,0.03-0.06,0.1-0.03
c0,0,0.01,0,0.01,0c0-0.01,0-0.01-0.01-0.02c0-0.01,0-0.01-0.01-0.01c-0.04,0-0.07-0.02-0.07-0.05c0,0,0.01-0.03,0.01-0.04
c-0.01-0.01-0.03-0.01-0.04-0.02c0.04-0.05,0.09-0.02,0.09,0.02c0,0.01,0,0.01,0,0.01c0.01,0,0.02,0,0.03,0
c0.03,0,0.05,0.06,0.06,0.09c0,0,0,0.01,0.01,0c0-0.01,0.01-0.02,0.01-0.02c0,0,0-0.01-0.01-0.01c-0.02-0.02-0.01-0.04,0-0.05
c0,0,0.01-0.02,0.02-0.03c0-0.03-0.02-0.04-0.03-0.05c0.03-0.01,0.07,0.02,0.08,0.05c0.01,0.01,0.01,0.04,0.02,0.05
c0,0.05-0.02,0.09-0.02,0.14c0,0.06,0,0.09,0.06,0.12c0.08,0.05,0.11,0.12,0.16,0.13c0.02,0,0.04,0.01,0.05,0.01
c0.01,0,0.03,0,0.05,0l0.05,0.02c0-0.03,0.01-0.06,0.01-0.09c-0.01,0-0.03-0.02-0.05-0.04c0.03,0,0.05-0.07,0.07-0.12
c-0.01,0-0.02-0.01-0.03-0.04c0.03,0.01,0.07-0.08,0.11-0.08c-0.01-0.05-0.01-0.07,0.01-0.11c0.03,0,0.05,0.01,0.07,0.03
c0-0.02,0.03-0.02,0.05-0.02c0,0,0.04-0.01,0.05-0.01c0.02,0,0.05,0,0.09,0.02c0.04,0.02,0.07,0.05,0.09,0.06
c0.01,0.01,0.02,0.05,0.02,0.05c0.01,0.02,0.03,0.03,0.02,0.05c0.03,0,0.05,0.01,0.07,0.03c0,0.03-0.03,0.06-0.06,0.08
c0.04,0.05-0.05,0.15-0.07,0.21c0.39-0.12,1.35,0.01,1.58,0.01c0.14,0,0.38-0.02,0.38-0.09c0-0.05-0.05-0.07-0.3-0.07
c-0.25,0-1.28,0.17-1.28-0.12c0-0.16,0.34-0.13,0.62-0.13c0.01-0.01,0.02-0.01,0.03-0.02c0.15-0.1,0.52,0.04,0.65-0.04
c-0.01,0.04-0.19,0.08-0.35,0.08c0.29,0.06,0.47-0.12,0.77-0.02c-0.23-0.07-0.66,0.22-1.04,0.11c-0.03-0.01-0.06-0.03-0.07-0.04
c-0.23-0.01-0.53-0.05-0.53,0.05c0,0.16,0.91,0.06,1.2,0.06s0.4,0.06,0.4,0.15c0,0.11-0.31,0.13-0.48,0.15c-0.02,0-0.01,0.01,0,0.01
c0.17,0.02,0.25,0.03,0.34,0.02c0.05-0.01,0.05,0.03,0.05,0.03c0,0.05,0.06,0.02,0.08,0c0,0.04-0.01,0.07-0.03,0.08
C31.99,17.96,31.99,17.96,31.99,17.96z M29.86,18.79c0.03,0,0.02-0.02,0.07-0.03c-0.03-0.01-0.1-0.03-0.11-0.05
C29.82,18.75,29.83,18.79,29.86,18.79z M29.81,18.85c0.01,0,0.01-0.02,0.01-0.03c0-0.01-0.01-0.02-0.02-0.03l-0.09-0.04
c-0.01-0.01-0.02-0.01-0.03,0c-0.01,0.01-0.02,0.01-0.02,0.02c0,0.01,0.02-0.01,0.04,0c0.01,0.01,0,0.02-0.02,0.02
c0.02,0.01,0.04,0.02,0.03,0.05c-0.01,0.02-0.02,0.02-0.04,0.02c-0.01,0-0.02,0.01-0.03,0.03c-0.01,0.02-0.01,0.05,0.02,0.07
c0.03,0.02,0.06-0.01,0.06-0.03c0.01-0.02,0.01-0.04,0.01-0.04c-0.01-0.02-0.02-0.03-0.01-0.04c0.01-0.02,0.03-0.01,0.05,0
c-0.01-0.02-0.01-0.04,0.01-0.03C29.81,18.83,29.8,18.86,29.81,18.85z M30.67,18.7c-0.15-0.01-0.27-0.01-0.27,0.06
c0,0.16,0.63,0.05,0.91,0.05c0.28,0,0.3,0.06,0.3,0.14c0,0.1-0.33,0.13-0.49,0.14c-0.02,0-0.01,0.01,0,0.01
c0.16,0.02,0.28,0.03,0.37,0.02c0.05-0.01,0.05,0.02,0.05,0.03c-0.01,0.05,0.06,0.02,0.08,0c0,0.04-0.02,0.06-0.04,0.07
c0,0,0,0.01,0,0.01c0,0.03-0.03,0.07,0.02,0.07c-0.02,0.03-0.04,0.02-0.06,0.02h0c0,0,0,0,0,0c0.02,0.01,0.02,0.03,0.02,0.04
c-0.02,0.07-0.08,0.05-0.09,0.08c-0.01,0.03,0.05,0.03,0.01,0.1c0,0-0.02,0.02-0.03,0.03c0,0.01,0.02,0.02,0.03,0.03
c-0.04,0.02-0.07,0-0.07-0.02c-0.01,0-0.02-0.01-0.02-0.01c-0.03-0.01-0.01-0.05,0.01-0.08c0,0,0,0-0.01,0
c-0.04,0.02-0.04,0.08-0.07,0.08c0,0-0.02,0-0.02,0c-0.02,0.03-0.02,0.04-0.02,0.05c-0.02,0-0.03-0.03-0.02-0.06
c-0.01-0.01-0.02-0.01-0.02-0.01c-0.03-0.02,0.03-0.06,0.06-0.08c0.01-0.01,0-0.01-0.01-0.01c-0.04,0.03-0.08,0.02-0.07-0.03
c0,0,0-0.01,0-0.02c-0.03,0-0.05,0.02-0.07,0.03c0.01-0.04,0.05-0.07,0.09-0.07c0,0,0.02-0.02,0.04-0.02c0.04,0,0.09,0.02,0.11,0
c0.02-0.03,0.01-0.04,0.03-0.1c0.01-0.02,0-0.03-0.02-0.03c-0.02,0-0.08-0.02-0.16,0.02c-0.06,0.04-0.13,0.05-0.25,0.05
c-0.07,0-0.13-0.02-0.18-0.04c0.03,0.04,0,0.08,0.03,0.09c0.05,0.03,0.06,0.11,0.04,0.14c-0.01,0.02-0.08,0.02-0.13,0.01
c-0.01-0.01-0.03,0-0.04,0c-0.05,0.01,0,0.06-0.06,0.08c-0.03,0.01-0.06-0.01-0.07-0.03c0,0-0.01-0.01-0.02-0.01
c-0.01,0-0.02,0-0.02,0c0,0-0.01,0-0.01,0.01c0,0.02,0,0.03-0.01,0.03c0,0-0.02,0.01-0.02,0.01c0,0.02,0.04,0.02,0.05,0.03
c-0.05,0.03-0.1,0-0.09-0.04c0,0-0.01-0.03-0.01-0.03c0-0.01,0.01-0.01,0.01-0.02c0,0-0.01-0.01-0.01-0.01c0,0-0.01,0-0.01,0.01
c0,0.01-0.01,0.02-0.01,0.01c0,0-0.01,0-0.02,0c0,0.01,0.01,0.03,0.02,0.03c-0.05,0.02-0.07-0.01-0.07-0.04
c-0.01-0.01-0.02-0.03-0.02-0.03c-0.02-0.09,0.09-0.04,0.09-0.07c0-0.01,0-0.01-0.01-0.01c-0.01,0-0.02,0.01-0.04,0.01
c-0.03,0-0.03-0.02-0.03-0.03c0,0,0-0.01,0-0.02c-0.03,0-0.05,0.02-0.06,0.03c-0.01-0.04,0.04-0.08,0.08-0.08
c0.01-0.01,0.02-0.02,0.02-0.02c0.09-0.04,0.09,0.14,0.17,0.09c0.01-0.01,0.05-0.02,0.08-0.02c0,0,0.01,0,0-0.01
c-0.02-0.02-0.07-0.04-0.09-0.04c-0.05-0.01-0.05-0.12-0.03-0.17c-0.02,0.02-0.07,0.05-0.1,0.04c-0.39-0.07-0.21,0.16-0.45,0.14
c-0.03,0-0.02,0.06-0.1,0.06c0.02-0.01,0.02-0.03,0.01-0.04c-0.01,0.01-0.01,0.02-0.02,0.03c-0.02,0.06-0.11,0.18-0.2,0.12
c0.02-0.01,0.03-0.03,0.03-0.04c0-0.01,0-0.01-0.01,0c-0.08,0.05-0.18,0.02-0.19,0.14c-0.03-0.03-0.02-0.08-0.03-0.08
c-0.01,0-0.02,0.02-0.02,0.03c-0.01-0.01-0.01-0.03-0.01-0.05c0,0,0-0.01-0.01-0.01c-0.05,0.01-0.08,0.01-0.1,0c0,0,0,0-0.01,0
c0-0.01-0.01-0.02-0.02-0.03c-0.01,0.05-0.06,0.08-0.08,0.08c0.03-0.03,0.03-0.06,0.02-0.09c-0.01,0.02-0.03,0.03-0.03,0.04
c0.01-0.03-0.01-0.05-0.02-0.05c-0.01,0-0.01,0-0.01,0c0.01,0.03-0.02,0.06-0.06,0.07c-0.05,0-0.06-0.04-0.06-0.06
c0-0.01,0-0.01-0.01,0c-0.02,0.02,0,0.06-0.04,0.08c0,0-0.02,0-0.03-0.01c0,0.03,0.02,0.06,0.03,0.07c-0.03,0-0.08-0.03-0.07-0.08
c0-0.01,0-0.01,0.01-0.01c-0.01-0.01-0.02-0.01-0.02-0.01c-0.04-0.03,0.01-0.06,0.03-0.1c0,0,0-0.01-0.01-0.01
c-0.08,0.06-0.1,0.03-0.11-0.02c0,0,0-0.01-0.01-0.02c-0.03,0-0.04,0.03-0.04,0.04c-0.03-0.04,0.03-0.09,0.06-0.08
c0.01,0,0.01,0,0.01,0c0.01-0.01,0.02-0.01,0.03-0.01c0.04-0.02,0.04,0.01,0.07,0.04c0.02,0.01,0.03,0.01,0.04,0.01
c0.01,0,0-0.01,0-0.01c-0.08-0.03-0.09-0.06-0.08-0.07c0,0,0.01-0.02,0.01-0.03c-0.01-0.02-0.03-0.03-0.05-0.03
c0.02-0.02,0.07-0.01,0.09,0.01h0.03c0.01,0,0.03,0.01,0.04,0.03c0.02,0.03,0.01,0.05,0.03,0.06c0.04,0.05,0.17,0.01,0.22-0.02
c0.04-0.02,0.15-0.01,0.16-0.01c0.01,0-0.01-0.08,0-0.14l-0.07,0.01c-0.02-0.01-0.03-0.02-0.03-0.04c-0.1-0.05-0.09-0.02-0.11-0.02
c-0.01,0-0.02,0.02-0.01,0.03c-0.03-0.01-0.04-0.03-0.04-0.05c0-0.01,0-0.01-0.01-0.01c-0.01,0-0.02,0.01-0.02,0.02
c-0.01,0-0.02-0.02-0.03-0.03c0,0,0-0.01-0.01,0c-0.08,0.05-0.18-0.02-0.12-0.11c-0.01,0.08,0.1,0.09,0.11,0.02
c0-0.01,0-0.01-0.01-0.02c-0.06-0.01-0.06-0.05-0.02-0.09c0,0,0-0.01,0-0.01c-0.01-0.01-0.01-0.01-0.02-0.01c-0.01,0-0.01,0-0.02,0
c-0.02,0.01-0.03,0.02-0.04,0.01c0,0-0.01-0.01-0.02-0.02c0,0-0.01,0-0.01,0.01c-0.02,0-0.01,0.03-0.01,0.04
c-0.04-0.03-0.03-0.06-0.01-0.07c0-0.01,0-0.02,0-0.03c0-0.03,0.03-0.06,0.09-0.03c0.01,0,0.01,0,0.01,0c0-0.01,0-0.01,0-0.01
c0-0.01-0.01-0.01-0.01-0.01c-0.04,0-0.07-0.02-0.06-0.05c0,0,0.01-0.03,0.01-0.04c-0.01-0.01-0.02-0.01-0.03-0.02
c0.04-0.04,0.08-0.01,0.08,0.02c0,0,0,0,0,0.01c0.01,0,0.02,0,0.02,0c0.03,0,0.05,0.05,0.06,0.09c0,0.01,0.01,0.01,0.01,0
c0-0.01,0-0.02,0-0.02c0,0,0-0.01,0-0.01c-0.02-0.02-0.01-0.03,0-0.05c0,0,0.01-0.01,0.02-0.03c0-0.03-0.02-0.04-0.03-0.05
c0.03-0.01,0.06,0.02,0.08,0.05c0.01,0.01,0.01,0.04,0.01,0.04c0,0.05-0.02,0.09-0.02,0.14c0,0.06,0,0.08,0.06,0.12
c0.07,0.04,0.1,0.04,0.15,0.04c0.01,0,0.01,0,0.01,0L29.47,19c0-0.03,0.01-0.07,0.02-0.11c-0.01-0.01-0.02-0.02-0.03-0.03
c0.03,0,0.04-0.06,0.07-0.11c-0.01,0-0.02-0.01-0.03-0.04c0.03,0.01,0.07-0.08,0.1-0.08c-0.01-0.04,0-0.07,0.01-0.1
c0.02,0,0.05,0.01,0.06,0.03c0-0.02,0.03-0.02,0.05-0.02c0.01,0,0.04-0.01,0.05-0.01c0.02,0,0.04,0,0.08,0.02
c0.04,0.02,0.07,0.04,0.08,0.05c0.01,0.01,0.02,0.05,0.02,0.05c0.01,0.01,0.03,0.03,0.02,0.05c0.02,0,0.05,0.01,0.07,0.03
c0,0.03-0.02,0.06-0.06,0.07c0.04,0.04-0.03,0.12-0.06,0.18c0.37-0.07,0.99,0.03,1.19,0.03c0.13,0,0.4-0.02,0.4-0.08
c0-0.05,0.03-0.07-0.21-0.07c-0.24,0-0.99,0.16-0.99-0.12c0-0.13,0.16-0.13,0.36-0.12c0.01-0.01,0.01-0.01,0.02-0.02
c0.15-0.09,0.5,0.04,0.62-0.04c-0.01,0.04-0.18,0.08-0.34,0.08c0.27,0.06,0.45-0.12,0.74-0.02c-0.22-0.06-0.63,0.21-0.99,0.1
C30.7,18.74,30.68,18.72,30.67,18.7z M29.53,20.21c-0.01,0.02-0.01,0.05,0.02,0.07c0.03,0.02,0.05-0.01,0.06-0.03
c0.01-0.02,0.01-0.03,0.01-0.04c-0.01-0.01-0.02-0.02-0.01-0.04c0.01-0.02,0.03-0.01,0.05,0c-0.01-0.02-0.01-0.03,0.01-0.03
c0.02,0,0.01,0.03,0.02,0.03c0.01,0,0.01-0.02,0.01-0.03c0-0.01-0.01-0.02-0.02-0.02l-0.08-0.04c-0.01,0-0.02-0.01-0.03,0
c-0.01,0.01-0.02,0.01-0.02,0.02c0,0.01,0.02-0.01,0.04,0c0.01,0.01,0,0.02-0.02,0.03c0.02,0.01,0.04,0.02,0.03,0.04
c-0.01,0.02-0.02,0.02-0.03,0.02C29.55,20.18,29.54,20.19,29.53,20.21z M29.7,20.03c-0.01,0.03,0.01,0.07,0.04,0.07
c0.03,0,0.02-0.02,0.07-0.03C29.77,20.06,29.71,20.04,29.7,20.03z M30.37,20c-0.07,0.02-0.13,0.06-0.13,0.11
c0,0.15,0.93-0.07,0.94,0.13c0.01,0.1-0.19,0.19-0.51,0.18c-0.01,0-0.05,0-0.09,0c0,0.07,0.1,0.08,0.15,0.14
c0.03,0.03,0.01,0.07-0.05,0.09c-0.04,0.02,0.03,0.06,0.05,0.05c-0.02,0.03-0.05,0.04-0.07,0.03c-0.01,0-0.01,0-0.01,0
c-0.02,0.02-0.06,0.04-0.02,0.07c-0.02,0.01-0.03,0-0.05-0.02v0c0,0,0,0,0,0.01c0.01,0.02,0,0.04-0.01,0.05
c-0.05,0.04-0.08-0.01-0.1,0.01c-0.02,0.02,0.02,0.06-0.04,0.09c0,0-0.02,0-0.03,0c-0.01,0.01,0,0.03,0,0.04
c-0.04-0.01-0.05-0.05-0.04-0.07c0-0.01-0.01-0.02-0.01-0.02c-0.01-0.03,0.02-0.05,0.05-0.06c0,0,0-0.01,0-0.01
c-0.03-0.01-0.06,0.04-0.08,0.02c0,0-0.01-0.01-0.01-0.02c-0.03,0.01-0.03,0.02-0.04,0.03c-0.01-0.02-0.01-0.05,0.01-0.07
c0-0.01-0.01-0.02-0.01-0.02c-0.02-0.04,0.04-0.03,0.08-0.03c0.01,0,0.01-0.01,0.01-0.01c0,0,0,0-0.01,0h0h0
c-0.01-0.01-0.02-0.02-0.01-0.03c0,0,0-0.01,0-0.01c-0.02-0.01-0.05,0-0.06,0c0.01-0.03,0.06-0.04,0.09-0.04c0,0,0.02-0.01,0.04,0
c0.02,0.01,0.04,0.04,0.05,0.06l0.01,0c0.03-0.01,0.02-0.03,0.08-0.06c0.02-0.01,0.01-0.02,0.01-0.04
c-0.01-0.01-0.08-0.05-0.14-0.07c-0.04,0.05-0.24,0.02-0.3,0.01c0.14,0.08,0.07,0.26,0.1,0.27c0.05,0.03,0.05,0.11,0.04,0.13
c-0.01,0.02-0.05,0.01-0.09,0c-0.01,0-0.03,0-0.03,0c-0.04,0.01,0,0.06-0.05,0.08c-0.03,0.01-0.06-0.01-0.07-0.02
c0-0.01-0.01-0.01-0.02-0.01c-0.01,0-0.02,0-0.02,0c0,0-0.01,0-0.01,0.01c0,0.01,0,0.02-0.01,0.03c0,0-0.01,0.01-0.02,0.01
c0,0.02,0.03,0.02,0.05,0.02c-0.05,0.03-0.09,0-0.09-0.03c0,0-0.01-0.02-0.01-0.03c0-0.01,0.01-0.02,0.01-0.02c0,0,0-0.01-0.01-0.01
c0,0,0,0,0,0c0,0.01-0.01,0.01-0.01,0.01c0,0-0.01,0-0.02,0c0,0.02,0.01,0.03,0.02,0.03c-0.05,0.01-0.07-0.01-0.07-0.04
c0-0.01-0.01-0.02-0.01-0.03c-0.02-0.09,0.09-0.04,0.09-0.07c0-0.01-0.01-0.01-0.01-0.01c-0.01,0-0.02,0.01-0.03,0.01
c-0.03,0-0.03-0.01-0.03-0.03v-0.02c-0.03,0-0.04,0.02-0.05,0.03c-0.01-0.04,0.04-0.08,0.07-0.07c0.01,0,0.02-0.02,0.02-0.02
c0.08-0.03,0.08,0.14,0.16,0.09c0.01-0.01,0.04-0.02,0.07-0.02c0.01,0,0.01,0,0-0.01C30.07,20.84,30,20.78,30,20.73
c0-0.04,0.01-0.11,0.03-0.14c-0.1,0.01-0.14,0.08-0.24,0.08c-0.01,0-0.02,0-0.03,0c-0.02,0.14-0.07,0.18-0.07,0.2
c0,0.04-0.08,0.08-0.11,0.08c0.02-0.01,0.03-0.02,0.03-0.04c0-0.01,0-0.01-0.01-0.01c-0.07,0.05-0.14,0-0.15,0.12
c-0.03-0.03-0.01-0.07-0.03-0.07c-0.01,0-0.02,0.02-0.02,0.03c-0.01-0.01-0.01-0.03,0-0.05c0,0,0-0.01-0.01-0.01
c-0.05,0.01-0.08,0.01-0.09,0c0,0,0,0,0,0c0-0.01-0.01-0.02-0.02-0.03c-0.01,0.05-0.06,0.07-0.07,0.08
c0.03-0.03,0.03-0.06,0.02-0.08c-0.01,0.02-0.03,0.03-0.03,0.03c0.01-0.02-0.01-0.04-0.02-0.05c0,0-0.01,0,0,0
c0,0.02-0.02,0.06-0.06,0.06c-0.05,0-0.06-0.04-0.06-0.06c0-0.01,0-0.01-0.01-0.01c-0.02,0.01-0.01,0.06-0.04,0.08
c0,0-0.02,0-0.03-0.01C28.97,21,28.99,21.02,29,21.03c-0.03,0-0.08-0.03-0.07-0.08c0,0,0-0.01,0-0.01
c-0.01-0.01-0.02-0.01-0.02-0.01c-0.04-0.03,0.01-0.06,0.03-0.09c0,0,0-0.01-0.01-0.01c-0.08,0.06-0.1,0.02-0.1-0.02
c0,0-0.01-0.02-0.01-0.02c-0.02,0.01-0.04,0.03-0.04,0.04c-0.03-0.04,0.03-0.08,0.06-0.08c0,0,0.01,0,0.01,0
c0.01,0,0.02-0.01,0.02-0.01c0.04-0.02,0.04,0.01,0.07,0.04c0.01,0.01,0.03,0.01,0.04,0c0.01,0,0-0.01-0.01-0.01
c-0.08-0.03-0.08-0.05-0.07-0.07c0,0,0.01-0.02,0.01-0.03c-0.01-0.02-0.03-0.03-0.05-0.03c0.02-0.01,0.06-0.01,0.08,0.01
c0.01,0,0.03,0,0.03,0c0.01,0,0.03,0.01,0.04,0.03c0.02,0.03,0.01,0.04,0.02,0.06c0.02,0.02,0.05,0.03,0.09,0.02
c0,0,0,0.01-0.01,0.01l0.01-0.01c0.04-0.01,0.09-0.03,0.12-0.04c0.04-0.02,0.16,0,0.18,0c0.01,0-0.02-0.04-0.04-0.09
c-0.06,0.01-0.11-0.03-0.13-0.09c-0.11-0.06-0.09-0.18-0.11-0.18c-0.01,0-0.01,0.01-0.01,0.03c-0.03,0-0.03-0.03-0.04-0.05
c0,0,0-0.01-0.01-0.01c-0.01,0-0.02,0.01-0.02,0.02c-0.02,0-0.02-0.01-0.02-0.03c0-0.01,0-0.01-0.01,0
c-0.07,0.04-0.17-0.02-0.12-0.11c-0.01,0.07,0.09,0.09,0.1,0.01c0-0.01,0-0.01-0.01-0.01c-0.05-0.01-0.06-0.05-0.02-0.09
c0,0,0-0.01,0-0.01c-0.01,0-0.01-0.01-0.02-0.01c-0.01,0-0.01,0-0.01,0c-0.02,0.01-0.03,0.02-0.04,0.01c0,0-0.01-0.01-0.02-0.02
c0,0-0.01,0-0.01,0c-0.01,0.01-0.01,0.03-0.01,0.04c-0.04-0.03-0.03-0.06-0.01-0.07c0-0.01,0-0.02,0-0.03
c0-0.02,0.03-0.05,0.09-0.03c0,0,0.01,0,0,0c0-0.01,0-0.01,0-0.02c0-0.01-0.01-0.01-0.01-0.01c-0.04,0-0.06-0.02-0.06-0.05
c0,0,0-0.02,0.01-0.04c-0.01-0.01-0.02-0.01-0.03-0.01c0.04-0.04,0.08-0.02,0.08,0.02c0,0,0,0.01,0,0.01c0.01,0,0.02,0,0.02,0
c0.03,0,0.04,0.05,0.06,0.08c0,0.01,0,0.01,0.01,0c0-0.01,0-0.01,0-0.02c0,0,0-0.01,0-0.01c-0.02-0.02-0.01-0.03,0-0.05
c0,0,0.01-0.02,0.02-0.02c0-0.03-0.02-0.04-0.03-0.05c0.02-0.01,0.06,0.02,0.07,0.05c0.01,0.01,0.01,0.04,0.01,0.04
c0,0.04-0.02,0.08-0.02,0.13c0,0.05,0,0.08,0.05,0.11c0.06,0.03,0.14,0.17,0.2,0.23c-0.01-0.06,0-0.15,0.02-0.23
c-0.01-0.01-0.02-0.02-0.03-0.03c0.03,0,0.04-0.06,0.07-0.11c-0.01,0-0.02-0.01-0.03-0.03c0.03,0.01,0.06-0.07,0.09-0.07
c-0.01-0.04-0.01-0.07,0.01-0.1c0.02,0,0.04,0.01,0.06,0.03c0-0.02,0.03-0.02,0.05-0.02c0,0,0.04-0.01,0.05-0.01
c0.02,0.01,0.04,0.01,0.08,0.02c0.04,0.02,0.07,0.04,0.08,0.05c0.01,0.01,0.02,0.04,0.02,0.04c0.01,0.02,0.03,0.03,0.02,0.05
c0.02,0,0.04,0.01,0.06,0.03c0,0.03-0.02,0.05-0.06,0.07c0.04,0.04-0.05,0.15-0.08,0.21v0c0.4-0.1,0.72,0.02,0.9,0.02
c0.24,0,0.42-0.06,0.42-0.12c0-0.08-0.93,0.11-0.93-0.13c0-0.08,0.1-0.14,0.21-0.17c0.01-0.01,0.02-0.02,0.03-0.03
c0.15-0.09,0.5,0.05,0.62-0.04c-0.01,0.04-0.18,0.07-0.34,0.07c0.27,0.06,0.45-0.11,0.74-0.02c-0.22-0.06-0.63,0.21-0.99,0.11
C30.4,20.03,30.38,20.02,30.37,20z M15.26,3.82c0-0.12-0.1-0.23-0.23-0.23c-0.12,0-0.22,0.1-0.22,0.23s0.1,0.23,0.22,0.23
C15.16,4.04,15.26,3.94,15.26,3.82z M15.18,3.22c0-0.12-0.1-0.23-0.23-0.23c-0.12,0-0.22,0.1-0.22,0.23c0,0.12,0.1,0.23,0.22,0.23
C15.08,3.44,15.18,3.34,15.18,3.22z M15.31,2.95c0.13,0,0.23-0.1,0.23-0.22c0-0.12-0.1-0.23-0.23-0.23c-0.12,0-0.23,0.1-0.23,0.23
C15.08,2.85,15.18,2.95,15.31,2.95z M15.91,2.91c0.13,0,0.23-0.1,0.23-0.22s-0.1-0.23-0.23-0.23c-0.12,0-0.22,0.1-0.22,0.23
S15.79,2.91,15.91,2.91z M18.48,2.49c0.09,0.09,0.23,0.09,0.32,0c0.09-0.09,0.09-0.23,0-0.32c-0.09-0.09-0.23-0.09-0.32,0
C18.39,2.26,18.39,2.41,18.48,2.49z M18.43,2.01c0.09-0.09,0.09-0.23,0-0.32c-0.09-0.09-0.23-0.09-0.32,0
c-0.09,0.09-0.09,0.23,0,0.32C18.2,2.1,18.34,2.1,18.43,2.01z M17.83,1.92c0.09-0.09,0.09-0.23,0-0.32c-0.09-0.09-0.23-0.09-0.32,0
c-0.09,0.09-0.09,0.23,0,0.32C17.6,2,17.74,2,17.83,1.92z M17.32,2.3c0.09-0.09,0.09-0.23,0-0.32c-0.09-0.09-0.23-0.09-0.32,0
c-0.09,0.09-0.09,0.23,0,0.32C17.08,2.38,17.23,2.38,17.32,2.3z M15.87,1.99l0.18,0.39l0.23-0.27c0.01,0,0.02,0.01,0.03,0.01
c0.02,0.13,0.03,0.36,0.03,0.49c0,0.16,0.13,0.29,0.29,0.29c0.16,0,0.29-0.13,0.29-0.29c0-0.11-0.06-0.21-0.15-0.25
c-0.11-0.09-0.24-0.2-0.32-0.3c0.01-0.01,0.01-0.02,0.01-0.04l0.38,0.04l-0.15-0.41L16.4,1.89c-0.01,0-0.01-0.01-0.02-0.01
l-0.02-0.42l-0.4,0.15l0.26,0.31c-0.01,0.01-0.01,0.02-0.02,0.03L15.87,1.99z M18.49,2.69c0.09,0.14,0.12,0.2,0.13,0.31
c-0.07-0.03-0.15-0.1-0.24-0.21l0.05,0.52c0.06-0.09,0.12-0.16,0.19-0.19c-0.02,0.34-0.16,0.48-0.27,0.51
c-0.14,0.03-0.25-0.07-0.27-0.17c-0.03-0.15,0.1-0.25,0.24-0.11c0.02-0.31-0.23-0.31-0.34-0.18c0.13-0.3,0.08-0.5-0.19-0.67
c-0.17,0.28-0.1,0.47,0.12,0.69c-0.21-0.11-0.4,0.07-0.21,0.3c0.04-0.2,0.22-0.16,0.26,0.01c0.04,0.14-0.1,0.31-0.32,0.38
c-0.32,0.1-0.43-0.11-0.51-0.28c0.07-0.05,0.24-0.03,0.42,0.09l-0.16-0.51c-0.07,0.18-0.18,0.26-0.31,0.31
c-0.01-0.15,0.1-0.45,0.1-0.45l-0.62,0.25c0,0,0.29,0.14,0.39,0.25c-0.13,0.05-0.26,0.07-0.44-0.01L16.74,4
c0.05-0.21,0.16-0.34,0.24-0.36c0.07,0.18,0.14,0.4-0.16,0.56c-0.21,0.11-0.43,0.07-0.5-0.05c-0.08-0.14,0.01-0.3,0.18-0.18
c-0.03-0.3-0.29-0.29-0.36-0.07c0-0.3-0.08-0.49-0.4-0.57c-0.08,0.3,0.03,0.49,0.33,0.61c-0.17-0.02-0.36,0.15-0.12,0.36
c0-0.19,0.16-0.21,0.25-0.09c0.06,0.09,0.05,0.23-0.07,0.31c-0.1,0.06-0.3,0.06-0.55-0.17c0.08-0.03,0.16-0.02,0.27,0.01l-0.33-0.41
c0.02,0.14,0.01,0.25-0.02,0.32c-0.07-0.08-0.09-0.15-0.13-0.31L15.1,4.18c0.24,0.15,0.52,0.37,0.85,0.84
c0.36-0.22,0.99-0.52,1.38-0.68c0.39-0.16,1.06-0.38,1.47-0.47c-0.08-0.56-0.05-0.92,0.02-1.19L18.49,2.69z M19.21,5.66
c0.25-0.2,0.04-0.41,0.35-0.89c-0.34,0.21-0.84,0.41-1.28,0.59C18.47,5.68,18.89,5.91,19.21,5.66z M19.14,8.93
c0.44-0.19,0.4-0.6,0.29-0.83c-0.11-0.23-0.21-0.42-0.34-0.42c-0.25,0-0.38-0.06-0.45-0.29c-0.09-0.26,0.19-0.36,0.44-0.51
c-0.26-0.08-0.39-0.19-0.24-0.3c0.17-0.13,0.42,0.12,0.48,0c0.06-0.11-0.13-0.21-0.21-0.29c-0.11-0.11-0.21-0.08-0.36-0.02
l-1.18,0.44c-0.15,0.07-0.24,0.12-0.25,0.27c0,0.11-0.07,0.31,0.05,0.35C17.48,7.38,17.49,7.03,17.7,7
c0.18-0.02,0.17,0.15,0.04,0.39c0.28-0.07,0.55-0.19,0.67,0.06c0.11,0.22,0.05,0.35-0.13,0.52c-0.09,0.09-0.03,0.29,0.05,0.54
C18.41,8.75,18.73,9.11,19.14,8.93z M16.89,6.57c0.4-0.04,0.55-0.49,0.47-0.85c-0.44,0.17-0.94,0.36-1.33,0.44
C16.59,6.3,16.58,6.6,16.89,6.57z M23.46,17.01c-0.11,0.29,0.14,0.36,0.14,0.59c0,0.3-0.25,0.43-0.53,0.5
c0.2-0.41,0.02-0.64-0.32-0.69c0.07,0.77-0.53,0.88-0.78,0.76c0.24-0.05,0.34-0.42,0.21-0.75c-0.11,0.26-0.38,0.46-0.63,0.46
c-0.24,0-0.42-0.18-0.52-0.38c0.28,0.18,0.51-0.03,0.51-0.18c0-0.14-0.28-0.22-0.28-0.44c0-0.52,0.57-0.31,0.57-0.77
c0-0.18-0.1-0.27-0.22-0.27c-0.12,0-0.31,0.06-0.36,0.37c-0.29-0.25,0-0.83-0.13-1.21c0.03,0.61-0.39,0.57-0.55,0.81
c-0.21-0.21,0-0.63-0.2-1.12c-0.08,0.56-0.29,0.48-0.35,0.8c-0.57-0.28-1.57-0.19-1.91,0.2c0.96,0.74,2.11,1.14,2.11,2.3
c0,0.89-1.39,1.23-1.39,1.8c0,0.57,1.45,1.89,2.18,1.89c0.24,0,0.35-0.29,0.55-0.3c0.2-0.01,0.37,0,0.55,0.01
c0.18,0.01,0.33,0.18,0.32,0.34c0.34,0.04,0.76,0.55,0.34,0.98c-0.06-0.24-0.3-0.57-0.73-0.33c0.17,0.38,0.02,0.76-0.48,0.9
c0.16-0.25,0.18-0.58-0.11-0.58c-0.29,0-0.05,0.19-0.6,0.19c-0.55,0-0.49,0.03-0.72-0.29c-0.23-0.31-0.38-0.44-0.51-0.39
c-0.12,0.04-0.18,0.36,0.03,0.48c-1.17,0-0.69-1.2-1.29-1.5c0.03,0.38,0.04,0.67-0.01,0.85c-0.44-0.33-0.7-0.8-0.78-1.09
c-0.08-0.29-0.02-0.56-0.3-0.7c-0.09-0.05-0.2-0.14-0.17-0.29c0.02-0.12,0.09-0.09,0.3-0.18c0.25-0.11,0.56-0.36,0.56-0.96
c0-0.47-0.09-1.11-0.87-1.56c0.06,0.99,0.05,1.83-0.41,2.59c-0.58,0.98-1.56,1.57-2.11,1.81c-0.56,0.24-1.34,0.42-1.34,1.15
c0,1.36,0.6,2.16,1.22,2.16c0.39,0,0.3-0.44,0.87-0.44c0.25,0,0.52,0.1,0.58,0.28c0.32-0.05,0.65,0.12,0.65,0.41
s-0.13,0.47-0.37,0.51c0.18-0.38-0.28-0.48-0.42-0.39c-0.14,0.09,0.04,0.23,0.04,0.45c0,0.23-0.07,0.44-0.48,0.55
c0.09-0.14,0.09-0.34-0.16-0.34c-0.25,0-0.34,0.41-0.65,0.41c-0.51,0-0.65-0.22-1.13-0.12c-0.35,0.07-0.34,0.27-0.21,0.36
c-0.7,0.05-0.56-0.71-0.4-0.87c0.15-0.15,0.25-0.25,0.04-0.39c-0.21-0.14-0.54,0-0.61,0.34c-0.53-1.02,0.21-0.97-0.03-2.11
c-0.12,0.48-0.42,0.85-0.64,0.96c0.09-0.26-0.14-0.73-0.14-1.12c0-0.87,0.54-1.15,0.54-1.43c0-0.18-0.21-0.38,0.01-0.56
c0.12-0.1,0.37,0.1,0.52,0.1c0.7,0,1.2-0.89,1.31-1.88c0.13-1.18,0.59-1.98,1.09-2.88c0.02-0.14,0.05-0.28,0.08-0.42
c-0.49,0.61-0.91,1.53-1.58,2.07c0.08,0.75-1.39,1.62-2.24,0.96c0.28,0.02,0.8-0.11,0.96-0.53c-0.13-0.01-0.24-0.03-0.36-0.07
c-0.52,0.29-1.33-0.07-1.31-0.64c0.21,0.24,0.46,0.29,0.7,0.19c-0.18-0.24-0.29-0.55-0.29-0.93c0-2.21,3.45-3.73,3.45-5.53
c0-0.58-0.36-0.87-0.75-0.87c-0.22,0-0.45,0.06-0.69,0.22c0.16,0.15,0.28,0.34,0.28,0.57c0,2.03-3.28,1.83-3.57,3.17
c-0.16-1.71,1.9-1.33,2.08-2.76c-0.43,0.61-1.16,1.08-1.58,0.84c1.07,0.02,0.74-2.17,1.97-2.17c0.12,0,0.27,0.03,0.41,0.09
c0.33-0.27,0.73-0.44,1.06-0.44c0.49,0,1.27,0.37,1.27,1.32c0,2.15-3.47,3.53-3.47,5.55c0,0.67,0.4,1,0.94,1
c1.21,0,1.99-2.16,3.31-3.93c0.82-1.19,1.38-3.56,1.93-4.67c-0.64,0.45-0.73,1.69-1.5,1.77c0.41-0.35,0.12-1.41,0.38-2.19
c0.1-0.29,0.14-0.56,0.06-0.85c-0.47,0.5-0.27,2.17-1.03,2.38c0.27-0.34-0.03-0.89-0.03-1.4c0-0.95,0.5-1.11,0.54-1.99
c-0.46,0.17-0.3,1.43-1.21,1.4c0.64-0.63-0.02-1.3,0.71-2.03c-0.44-0.19-0.73-0.53-0.73-0.88c0.28-0.22,0.62-0.3,0.92-0.33
c-0.14-0.21,0.05-0.42,0.24-0.59c0.07,0.08,0.16,0.26,0.27,0.18c0.18-0.12,0.8-0.51,1.35-0.72c0.55-0.21,1.25-0.4,1.46-0.44
c0.13-0.03,0.08-0.2,0.06-0.32c0.26-0.02,0.56,0,0.59,0.28c0.23-0.19,0.54-0.28,0.85-0.3c0.18,0.38,0.22,0.69,0.05,1.2
c0.44,0.03,0.69,0.41,1.1,0.32c-0.35,0.48-0.78,0.28-1.19,0.23c1.19,0.36,1.41,1.53,2.06,1.6c-0.7,0.55-1.17-0.42-1.77-0.41
c1.58,0.79,1.59,1.74,2.03,1.75c-0.49,0.44-0.86-0.13-1.5-0.29c1.25,0.82,1.34,1.49,1.23,2.04c0.27,0.25,0.24,0.57,0.26,0.97
c0.21-0.14,0.57-0.19,0.8-0.26c-0.08,0.09-0.17,0.17-0.25,0.27c-0.63,0.71-1.08,1.39-1.44,2.3c-0.27-0.26-0.56-0.54-0.7-0.67
c-0.25-0.24-0.49-0.18-0.6-0.17c0.41,0.46,1.76,1.9,2.15,2.35c0.4,0.46,0.36,0.79,0.41,1.14C23.1,16.49,23.55,16.77,23.46,17.01z
M45.84,22.56c0,0.4,0.33,0.72,0.73,0.72c0.4,0,0.72-0.32,0.72-0.72c0-0.4-0.32-0.72-0.72-0.72C46.17,21.84,45.84,22.16,45.84,22.56
z M45.59,22.56c0-0.53,0.44-0.97,0.98-0.97c0.54,0,0.98,0.44,0.98,0.97c0,0.53-0.44,0.97-0.98,0.97
C46.03,23.53,45.59,23.09,45.59,22.56z M42.39,24.32c0.28,0.05,0.54-0.08,0.57-0.28c0-0.02,0-0.03,0-0.05
c0-0.18-0.19-0.37-0.44-0.41c-0.16-0.03-0.32,0-0.43,0.08c-0.05,0.04-0.12,0.1-0.14,0.2C41.91,24.06,42.11,24.27,42.39,24.32z
M41.95,23.45c0.17-0.12,0.4-0.16,0.62-0.12c0.41,0.08,0.7,0.41,0.64,0.75c-0.03,0.17-0.14,0.31-0.31,0.4
c-0.16,0.08-0.35,0.11-0.55,0.08c-0.2-0.04-0.37-0.13-0.49-0.26c-0.13-0.14-0.18-0.32-0.15-0.49
C41.73,23.67,41.82,23.54,41.95,23.45z M36.52,10.39c0,0.06,0.02,0.12,0.05,0.16c0.11,0.14,0.36,0.13,0.55-0.02
c0.11-0.09,0.19-0.21,0.21-0.33c0.01-0.05,0-0.13-0.05-0.2c-0.05-0.07-0.13-0.09-0.18-0.1c-0.12-0.02-0.26,0.03-0.37,0.11
C36.59,10.12,36.52,10.27,36.52,10.39z M36.57,9.83c0.17-0.13,0.37-0.19,0.56-0.16c0.14,0.02,0.27,0.09,0.35,0.19
c0.08,0.1,0.12,0.24,0.1,0.39c-0.02,0.18-0.13,0.36-0.3,0.49c-0.3,0.23-0.71,0.22-0.9-0.03h0C36.18,10.46,36.27,10.06,36.57,9.83z
M41.18,22.94c0.1,0,0.17-0.05,0.22-0.09c0.1-0.1,0.16-0.25,0.16-0.41c0.01-0.28-0.16-0.51-0.36-0.52c-0.1,0-0.18,0.05-0.22,0.1
c-0.1,0.09-0.16,0.24-0.16,0.41c0,0.16,0.05,0.32,0.15,0.42C41,22.89,41.08,22.94,41.18,22.94L41.18,22.94z M40.8,21.84
c0.11-0.11,0.26-0.17,0.4-0.17c0.17,0.01,0.33,0.09,0.45,0.24c0.11,0.14,0.17,0.33,0.16,0.53c-0.01,0.23-0.09,0.44-0.24,0.58
c-0.11,0.11-0.26,0.17-0.4,0.16c-0.15,0-0.29-0.07-0.39-0.18c-0.14-0.14-0.22-0.35-0.22-0.57v-0.02
C40.57,22.19,40.65,21.98,40.8,21.84z M36.22,14.94c0.15,0.07,0.31,0.08,0.44,0.04c0.06-0.02,0.14-0.07,0.18-0.15
c0.04-0.09,0.03-0.18,0.01-0.24c-0.05-0.13-0.16-0.25-0.31-0.32c-0.15-0.07-0.31-0.08-0.44-0.04c-0.06,0.02-0.14,0.06-0.18,0.16
C35.83,14.57,35.96,14.82,36.22,14.94z M36.02,13.99c0.2-0.07,0.42-0.05,0.63,0.05c0.21,0.1,0.37,0.27,0.43,0.46
c0.05,0.15,0.05,0.3-0.02,0.43c-0.06,0.13-0.18,0.23-0.33,0.28c-0.19,0.07-0.42,0.05-0.63-0.05c-0.38-0.18-0.56-0.58-0.42-0.89
C35.76,14.15,35.88,14.04,36.02,13.99z M43.1,18.41c0.16-0.22,0.15-0.51-0.03-0.63c-0.18-0.12-0.45-0.05-0.61,0.18
c-0.16,0.22-0.15,0.51,0.03,0.63C42.67,18.72,42.94,18.64,43.1,18.41z M41.95,20.22c0.16-0.22,0.14-0.51-0.03-0.63
c-0.18-0.12-0.45-0.04-0.61,0.18c-0.16,0.22-0.15,0.51,0.03,0.63C41.52,20.53,41.79,20.45,41.95,20.22z M42.05,12.65
c0.3-0.33,0.9-0.97,0.9-0.97l-0.37-0.3c0.02,0.14-0.01,0.33-0.05,0.51c-0.09-0.06-0.18-0.22-0.18-0.36l-0.3,0.37
c0.08,0,0.28,0.03,0.37,0.12c-0.27,0.26-0.49,0.13-0.65,0.03c-0.26-0.16-0.36-0.3-0.29-0.43c0.09-0.15,0.36-0.1,0.4,0.14
c0.21-0.1,0.26-0.27,0.18-0.4c-0.06-0.11-0.21-0.14-0.35-0.09c0.34-0.18,0.5-0.47,0.42-0.82c-0.38,0.07-0.54,0.29-0.63,0.66
c-0.02-0.15-0.11-0.29-0.24-0.3c-0.15-0.01-0.29,0.11-0.28,0.34c0.23-0.08,0.39,0.15,0.29,0.3c-0.09,0.15-0.28,0.12-0.53-0.03
c-0.28-0.17-0.32-0.41-0.18-0.67c0.08,0.07,0.14,0.22,0.13,0.4l0.33-0.53c-0.08,0.03-0.22,0.05-0.37,0c0.08-0.1,0.24-0.26,0.45-0.28
l-0.64-0.37c0.09,0.19,0.03,0.41-0.02,0.53c-0.12-0.11-0.17-0.24-0.19-0.32l-0.3,0.55c0.15-0.1,0.32-0.12,0.42-0.08
c-0.16,0.25-0.39,0.34-0.68,0.18c-0.25-0.14-0.37-0.28-0.29-0.44c0.08-0.15,0.36-0.14,0.41,0.11c0.21-0.11,0.24-0.28,0.15-0.41
c-0.07-0.1-0.23-0.11-0.38-0.05c0.28-0.26,0.38-0.51,0.25-0.88c-0.35,0.11-0.52,0.4-0.5,0.78c-0.03-0.15-0.13-0.26-0.25-0.26
c-0.15,0-0.28,0.12-0.26,0.35c0.23-0.1,0.41,0.12,0.32,0.27c-0.08,0.12-0.25,0.1-0.52-0.04c-0.16-0.08-0.39-0.22-0.3-0.57
c0.13,0.03,0.25,0.19,0.29,0.26l0.18-0.44c-0.12,0.08-0.3,0.07-0.4,0.03c0.14-0.13,0.29-0.25,0.42-0.3L38.4,9.07
c0,0-0.26,0.84-0.39,1.26L42.05,12.65z M42.78,15.72c-0.01,0.14,0.06,0.29,0.17,0.41c0.11,0.12,0.26,0.19,0.4,0.19
c0.06,0,0.15-0.01,0.23-0.08l0,0c0.07-0.07,0.09-0.16,0.09-0.22c0-0.14-0.06-0.29-0.17-0.41c-0.11-0.12-0.26-0.19-0.4-0.19
c-0.06,0-0.16,0.01-0.23,0.08C42.8,15.57,42.78,15.66,42.78,15.72z M44.53,23.72c-0.01,0.06-0.02,0.15,0.04,0.24
c0.11,0.17,0.4,0.19,0.64,0.03c0.14-0.09,0.23-0.22,0.26-0.36c0.01-0.06,0.02-0.15-0.04-0.24v0c-0.06-0.08-0.14-0.12-0.21-0.13
c-0.14-0.03-0.29,0.01-0.43,0.1C44.66,23.46,44.56,23.59,44.53,23.72z M36.21,11.67c0.01-0.14-0.03-0.27-0.11-0.35
c-0.04-0.04-0.1-0.09-0.18-0.09c-0.08-0.01-0.15,0.04-0.19,0.07c-0.09,0.08-0.14,0.2-0.15,0.34c0,0.01,0,0.02,0,0.03
c0,0.22,0.13,0.41,0.29,0.42c0.08,0,0.15-0.04,0.18-0.07C36.15,11.94,36.2,11.81,36.21,11.67z M38.79,6.41
c0.33-0.19,0.74-0.29,1.2-0.33c-0.28-0.09-0.49-0.32-0.73-0.32C38.79,5.76,38.92,6.15,38.79,6.41z M46.28,12.99
c0.08,1.67,2.18,1.29,1.86,2.53c-0.04-0.82-2.85-0.74-2.93-2.45c-0.02-0.35,0.09-0.64,0.27-0.83c-0.12-0.09-0.26-0.14-0.45-0.14
c-0.49,0-1.2,0.52-1.2,1.32c0,2.17,2.91,2.45,2.91,4.84c0,0.49-0.19,0.94-0.55,1.22c0.25,0.03,0.59-0.11,0.76-0.31
c-0.25,0.92-1.2,0.95-1.5,0.58c-0.04,0-0.08,0-0.13,0c-0.08,0-0.16-0.01-0.23-0.02c0.19,0.38,0.48,0.75,0.9,0.69
c-0.86,0.68-1.9-0.24-1.74-1.18c-0.26-0.28-0.42-0.63-0.54-0.88c-0.09-0.21-0.24-0.09-0.23,0.14c0.03,0.75-0.56,1.45-0.56,2
c0,0.55,0.56,1.06,0.75,1.06c0.19,0,0.33-0.22,0.46-0.16c0.13,0.06,0.12,0.23,0.09,0.62c-0.02,0.26,0.03,0.91,0.07,1.6
c0.05-0.18,0.18-0.35,0.36-0.47c0.19-0.12,0.42-0.17,0.62-0.13c0.15,0.03,0.28,0.12,0.36,0.24c0.06,0.09,0.09,0.19,0.09,0.3
c0,0.04-0.01,0.08-0.01,0.12c-0.04,0.2-0.17,0.39-0.37,0.51c-0.17,0.11-0.36,0.16-0.54,0.14c-0.19-0.02-0.35-0.1-0.44-0.25
c-0.02-0.03-0.03-0.05-0.04-0.08c0.01,0.21,0.02,0.42,0.02,0.61c0.01,0.5-0.13,0.72-0.35,0.83c-0.02-0.07-0.16-0.23-0.36-0.23
c-0.15,0-0.27,0.11-0.27,0.22c0,0.23,0.27,0.2,0.27,0.55c0,0.34-0.8,0.79-1.29,0.71c0.07-0.17,0.18-0.73,0.34-1.11
c-0.15,0.08-0.29,0.33-0.41,0.67c-0.14,0.42-0.33,0.4-0.51,0.29c0.16-0.18,0.53-1.04,0.93-1.31c0.39-0.27,0.58-0.37,0.68-1.02
c0.1-0.65-0.01-1.04-0.03-1.61c-0.02-0.76-0.33-0.59-0.56-0.59c-0.52,0-2.44-1.24-2.44-2.5c0-0.12,0.01-0.25,0.03-0.39
C39.49,19.12,39,19.37,39,20.18c0,0.28,0.03,0.55,0.23,0.71c0.18,0.15,0.27,0.28-0.04,0.42c-0.34,0.15-3.03,1.26-3.03,1.26
c-0.34,0.13-0.39-0.01-0.53-0.18c-0.14-0.16-0.29-0.24-0.47-0.13c-0.18,0.12,0.13,0.25,0.13,0.43c0,0.19-0.08,0.64-1.32,0.56
l0.29-0.49c0.08-0.16,0.13-0.28,0.06-0.29c-0.07-0.01-0.14,0.12-0.25,0.27l-0.36,0.46c-0.2,0.01-0.4-0.04-0.4-0.04
c0.47-0.47,0.73-0.71,0.99-0.97c0.26-0.26,0.57-0.38,1.11-0.46c0.64-0.09,2.74-0.37,2.74-1.06c0-0.78-0.88-0.72-0.88-1.76
c0-0.92,0.39-1.89,2.9-1.84c-0.22-0.59-0.85-1.03-1.46-1.18c-1.25-0.31-1.62-1.16-1.72-2.06c-0.35-0.02-0.69-0.03-0.96-0.05
c-0.78-0.05-1.16-0.28-1.35-0.13c-0.08,0.06-0.15,0.17-0.03,0.35c0.11,0.19,0.36,0.64,0.58,0.96c0.15,0.02,0.4,0.05,0.43,0.24
c0.03,0.19-0.12,0.23-0.15,0.33c-0.03,0.09,0.04,0.18,0.14,0.18c0.1,0,0.16-0.09,0.14-0.16c0.11-0.08,0.36-0.08,0.62-0.01
c0.19,0.21,0.52,0.58,0.61,0.92c-0.3-0.12-0.73-0.27-0.88-0.27c-0.15,0-0.12,0.06,0.01,0.1c0.13,0.05,0.47,0.17,0.57,0.28
l-0.02,0.35c-0.07-0.08-0.68-0.43-1.03-0.57c-0.36-0.14-0.57-0.22-0.76-0.67c-0.19-0.45-0.74-1.45-0.97-1.83
c-0.16-0.26-0.1-0.36-0.03-0.45c0.07-0.09,0.15-0.19,0.2-0.28c0.15-0.23,0.19-0.18,0.41-0.16c0.22,0.02,0.71,0.04,0.93-0.06
c0.05-0.02,0.11-0.04,0.16-0.06c-0.51-0.56-1.13-1.37-1.2-1.47c-0.1-0.14-0.23-0.22-0.33-0.22c-0.1,0-0.2,0.02-0.28,0.08
c-0.04,0.03-0.08,0.06-0.13,0.1c-0.05-0.06-0.1-0.12-0.14-0.17c-0.09-0.1-0.18-0.2-0.28-0.29c0.2-0.15,0.37-0.29,0.43-0.34
c0.13-0.11,0.19-0.2,0.31-0.2c0.11,0,0.27,0.01,0.34,0.01c0.17,0,0.25,0.05,0.33,0.14c0.19,0.21,0.5,0.43,0.75,0.63
c0.03,0.02,0.05,0.04,0.08,0.06c0.02-0.03,0.04-0.05,0.07-0.07c0.11-0.1,0.24-0.14,0.37-0.14c0.13,0.01,0.26,0.07,0.35,0.17
c0.12,0.14,0.18,0.33,0.17,0.54c-0.01,0.07-0.02,0.14-0.04,0.21c0.2,0.16,0.37,0.32,0.56,0.5c0.08-0.69,0.44-1.36,0.9-1.96
l-0.07-0.04c0,0,0.04-0.12,0.04-0.12c0.1-0.31,0.27-0.85,0.35-1.11c0.03-0.1,0.04-0.13,0.04-0.14l0.05-0.17l0.76,0.29
c0.02-0.02,0.05-0.05,0.07-0.07c0.67-0.63,2.29-1.06,2.29-1.98c0-0.22-0.07-0.51-0.31-0.69c0.11,0.15,0.12,0.34,0.09,0.54
c-0.04,0.24-0.4,0.77-1.05,0.77c-0.35,0-0.6-0.34-0.72-0.34c-0.08,0-0.18,0.06-0.27,0.14c0.03,0.47-0.18,0.73-0.37,0.77
c0.08-0.2,0.01-0.53-0.05-0.49c-0.06,0.04-0.13,0.1-0.14,0.38c-0.01,0.27-0.25,0.63-0.62,0.67c0.08-0.11,0.19-0.56,0.12-0.63
c-0.08-0.07-0.2,0.13-0.3,0.13c-0.1,0-0.17-0.09-0.19-0.2c-0.01-0.1-0.2,0-0.24-0.09c-0.04-0.09,0.22-0.27,0.46-0.37
c0.24-0.09,0.59-0.25,0.53-0.38c-0.11-0.24-0.81,0.14-1.12,0.33c-0.47,0.28-0.26-0.1-0.33-0.26c-0.18-0.41-0.02-0.45,0.18-0.64
c0.27-0.24,0.8-0.61,1.41-0.91c0-0.2,0.12-0.36,0.28-0.42c0.25-0.09,0.5-0.2,0.74-0.28l-3.28-4.09c-0.07-0.08-0.07-0.14-0.04-0.18
c0.03-0.04,0.09-0.01,0.2,0.09l3.81,3.73c0.09-0.25,0.17-0.56,0.08-0.9c0.46,0.22,0.87,0.68,0.94,1.12
c1.17-0.02,1.49,0.71,1.84,0.46c0.05,0.18-0.15,0.37-0.48,0.43c1.35,0.35,1,1.33,1.77,1.43c-0.12,0.14-0.3,0.19-0.58,0.1
c0.84,1.24,0,2.03,0.65,2.6c-0.25,0.07-0.59-0.13-0.83-0.53c0.25,1.02-0.13,1.58,0.06,1.99c-0.29,0.08-0.49-0.17-0.59-0.58
c-0.06,0.22-0.13,0.43-0.21,0.61l0.31,0.25l-0.12,0.13l0,0l-0.03,0.03c-0.51,0.54-0.75,0.81-0.87,0.93l-0.09,0.1
c0,0-0.1-0.06-0.11-0.06c-0.33,0.41-0.6,0.75-0.6,1.14c0,0.44,0.59,1.24,1.22,2.06c-0.03-0.08-0.05-0.17-0.05-0.26v-0.02
c0.01-0.15,0.07-0.3,0.17-0.39c0.1-0.1,0.25-0.15,0.41-0.15c0.21,0.01,0.41,0.1,0.57,0.27c0.15,0.16,0.24,0.37,0.24,0.56v0.02
c-0.01,0.16-0.07,0.3-0.17,0.39c-0.11,0.1-0.25,0.15-0.41,0.15c-0.15,0-0.3-0.06-0.43-0.15c0.45,0.58,0.88,1.14,1.07,1.55
c0.41,0.86,0.81,1.41,1.3,1.41c0.55,0,1.04-0.4,1.04-1.05c0-2.21-2.93-2.44-2.93-4.94c0-1.16,1.01-1.73,1.6-1.73
c0.4,0,0.67,0.1,0.9,0.35c0.07-0.01,0.14-0.02,0.22-0.02c1.39,0,0.51,1.83,1.59,1.96C47.23,14.17,46.6,13.86,46.28,12.99z
M13.31,48.36h5.16c2.05,0,2.43,1.3,2.65,2.85c0.31,1.55-0.02,3.25,0.58,3.9h2.36c-0.89-1.08-0.8-2.81-0.93-4.36
c-0.16-1.55-0.53-2.9-2.38-3.25v-0.04c1.91-0.53,2.76-2.1,2.76-4.01c0-2.52-1.85-4.14-4.83-4.14H11.2v15.8h2.11V48.36z M13.31,41.07
h5.25c1.98,0,2.83,1.15,2.83,2.7c0,2.3-1.69,2.81-3.67,2.81h-4.4V41.07z M51.61,53.6c0,1.24,0.62,1.77,1.6,1.77
c0.6,0,1.02-0.11,1.36-0.31V53.6c-0.24,0.09-0.42,0.11-0.58,0.11c-0.6,0-0.6-0.4-0.6-1.28v-5.89c0-2.68-2.25-3.14-4.31-3.14
c-2.56,0-4.76,1-4.87,3.83h1.89c0.09-1.68,1.27-2.17,2.87-2.17c1.2,0,2.56,0.27,2.56,1.9c0,1.42-1.78,1.28-3.87,1.68
c-1.96,0.38-3.89,0.93-3.89,3.52c0,2.28,1.71,3.21,3.8,3.21C49.16,55.37,50.56,54.82,51.61,53.6z M47.98,53.71
c-1.16,0-2.22-0.44-2.22-1.68c0-1.39,1.07-1.84,2.31-2.06c1.27-0.22,2.69-0.24,3.43-0.77v1.93C51.5,52.16,50.47,53.71,47.98,53.71z
M68.96,48.64h4.85c3.16,0.02,4.87-1.75,4.87-4.67c0-2.92-1.71-4.67-4.87-4.67h-6.96v15.8h2.11V48.64z M68.96,41.07h4.14
c2.38,0,3.47,1.02,3.47,2.9c0,1.88-1.09,2.92-3.47,2.9h-4.14V41.07z M89.04,52.43v-5.89c0-2.68-2.25-3.14-4.32-3.14
c-2.56,0-4.76,1-4.87,3.83h1.89c0.09-1.68,1.27-2.17,2.87-2.17c1.2,0,2.56,0.27,2.56,1.9c0,1.42-1.78,1.28-3.87,1.68
c-1.96,0.38-3.89,0.93-3.89,3.52c0,2.28,1.71,3.21,3.8,3.21c1.6,0,3-0.55,4.05-1.77c0,1.24,0.62,1.77,1.6,1.77
c0.6,0,1.02-0.11,1.36-0.31V53.6c-0.25,0.09-0.42,0.11-0.58,0.11C89.04,53.71,89.04,53.31,89.04,52.43z M87.15,51.12
c0,1.04-1.02,2.59-3.51,2.59c-1.16,0-2.22-0.44-2.22-1.68c0-1.39,1.07-1.84,2.31-2.06c1.27-0.22,2.69-0.24,3.43-0.77V51.12z
M124.98,43.4c-3.14,0-5.41,2.52-5.41,5.95c0.11,3.5,1.85,6.02,5.52,6.02c2.58,0,4.4-1.37,4.92-3.9h-1.87
c-0.33,1.48-1.42,2.24-2.98,2.24c-2.51,0-3.65-1.77-3.58-3.76h8.61C130.3,47.18,129.05,43.4,124.98,43.4z M121.58,48.29
c0.13-1.75,1.31-3.23,3.29-3.23c1.87,0,3.23,1.44,3.32,3.23H121.58z M15.51,62.55l-6.21,15.8h2.18l1.78-4.76h6.72l1.74,4.76h2.34
l-6.21-15.8H15.51z M13.93,71.82l2.69-7.37h0.04l2.65,7.37H13.93z M32.79,68.55h-0.02c-0.69-1.26-1.98-1.9-3.43-1.9
c-3.98,0-5.32,3.34-5.32,6.04c0,3.12,1.71,5.8,5.14,5.8c1.45,0,2.96-0.69,3.58-2.08h0.04v0.75c0,2.57-0.98,4.34-3.45,4.34
c-1.25,0-2.89-0.49-2.98-1.86h-1.89c0.11,2.5,2.6,3.36,4.76,3.36c3.63,0,5.34-1.9,5.34-5.62V66.91h-1.78V68.55z M29.28,76.83
c-2.49,0-3.25-2.3-3.25-4.36c0-2.19,0.98-4.16,3.4-4.16c2.38,0,3.27,2.08,3.27,4.09C32.7,74.55,31.77,76.83,29.28,76.83z
M41.68,66.65c-3.14,0-5.4,2.52-5.4,5.95c0.11,3.5,1.85,6.02,5.52,6.02c2.58,0,4.4-1.37,4.92-3.9h-1.87
c-0.33,1.48-1.42,2.24-2.98,2.24c-2.51,0-3.65-1.77-3.58-3.76h8.61C46.99,70.43,45.75,66.65,41.68,66.65z M38.27,71.54
c0.13-1.75,1.31-3.23,3.29-3.23c1.87,0,3.23,1.44,3.32,3.23H38.27z M43.41,43.4v1.99c-3.05,0-4.16,1.73-4.16,4.63v5.09h-1.89V43.66
h1.78v2.41h0.04C40.1,44.24,41.37,43.33,43.41,43.4z M54,66.65c-1.65,0-2.94,0.66-3.74,2.08h-0.04v-1.81h-1.78v11.44h1.89v-6.46
c0-2.06,1.11-3.58,3.4-3.58c1.45,0,2.34,0.91,2.34,2.3v7.75h1.89v-7.52C57.96,68.37,57.02,66.65,54,66.65z M65.02,76.96
c-2.4,0-3.36-2.08-3.36-4.18c0-2.32,0.85-4.47,3.58-4.47c1.56,0,2.56,0.84,2.85,2.28h1.96c-0.27-2.72-2.36-3.94-4.96-3.94
c-3.65,0-5.43,2.7-5.43,6.13c0,3.41,1.87,5.84,5.38,5.84c2.89,0,4.65-1.66,5.07-4.45h-1.94C67.93,75.9,66.84,76.96,65.02,76.96z
M155.24,48.51c-1.76-0.42-3.76-0.64-3.76-1.99c0-1.15,1.31-1.46,2.45-1.46c1.25,0,2.54,0.47,2.67,1.93h1.89
c-0.16-2.79-2.18-3.59-4.72-3.59c-2,0-4.29,0.95-4.29,3.25c0,2.19,1.89,2.81,3.76,3.23c1.89,0.42,3.76,0.66,3.76,2.12
c0,1.44-1.6,1.7-2.78,1.7c-1.56,0-3.03-0.53-3.09-2.21h-1.89c0.11,2.83,2.29,3.87,4.87,3.87c2.33,0,4.89-0.89,4.89-3.61
C159,49.55,157.13,48.93,155.24,48.51z M55.97,55.11h1.89V39.3h-1.89V55.11z M33.21,50.12c0,2.06-1.11,3.59-3.4,3.59
c-1.45,0-2.34-0.91-2.34-2.3v-7.74h-1.89v7.52c0,2.46,0.93,4.18,3.96,4.18c1.65,0,2.94-0.66,3.74-2.08h0.04v1.81h1.78V43.66h-1.89
V50.12z M137.3,43.4c-1.65,0-2.94,0.66-3.74,2.08h-0.04v-1.81h-1.78v11.44h1.89v-6.46c0-2.06,1.11-3.58,3.4-3.58
c1.45,0,2.34,0.91,2.34,2.3v7.75h1.89v-7.52C141.26,45.12,140.33,43.4,137.3,43.4z M75.83,76.27h-0.04l-3.36-9.36H70.3l4.56,11.37
l-0.78,1.95c-0.36,0.66-0.78,1.04-1.56,1.04c-0.38,0-0.76-0.16-1.11-0.27v1.73c0.42,0.15,0.87,0.2,1.31,0.2
c1.69,0,2.47-0.82,3.34-3.05l5.01-12.97h-2L75.83,76.27z M146.12,40.23h-1.89v3.43h-1.96v1.66h1.96v7.28c0,2.1,0.78,2.5,2.74,2.5
h1.44v-1.66h-0.87c-1.18,0-1.42-0.15-1.42-1.02v-7.1h2.29v-1.66h-2.29V40.23z M95.4,53.02h-0.04l-3.36-9.36h-2.14l4.56,11.37
l-0.78,1.95c-0.36,0.66-0.78,1.04-1.56,1.04c-0.38,0-0.76-0.16-1.11-0.27v1.73c0.42,0.15,0.87,0.2,1.31,0.2
c1.69,0,2.47-0.82,3.34-3.05l5.01-12.97h-2L95.4,53.02z M114.06,43.4c-1.47,0-2.82,0.73-3.6,1.95c-0.47-1.39-1.76-1.95-3.16-1.95
c-1.58,0-2.87,0.66-3.72,1.95h-0.04v-1.68h-1.78v11.44h1.89v-7.13c0-0.86,0.82-2.92,3.07-2.92c1.69,0,2.16,1.06,2.16,2.54v7.5h1.89
v-7.13c0-1.77,1.18-2.92,3-2.92c1.85,0,2.23,1.13,2.23,2.54v7.5h1.89v-8.39C117.89,44.35,116.36,43.4,114.06,43.4z M0,78.26h1.87V0
H0V78.26z"/></svg>