<svg xmlns="http://www.w3.org/2000/svg" width="165" height="64" viewBox="0 0 165 64">
<path d="M7.55,52.75c-0.07,0.07-0.15,0.1-0.24,0.1H4.92v7.43c0,0.09-0.03,0.17-0.1,0.24s-0.15,0.1-0.24,0.1H4.05
c-0.09,0-0.17-0.03-0.24-0.1c-0.07-0.07-0.1-0.15-0.1-0.24v-7.43H1.33c-0.09,0-0.17-0.03-0.24-0.1c-0.07-0.07-0.1-0.15-0.1-0.24
v-0.46c0-0.09,0.03-0.17,0.1-0.24c0.07-0.07,0.15-0.1,0.24-0.1H7.3c0.09,0,0.17,0.03,0.24,0.1c0.07,0.07,0.1,0.15,0.1,0.24v0.46
C7.65,52.6,7.61,52.68,7.55,52.75z M13.37,56.72c0.01,0.08,0.01,0.17,0.01,0.28v0.33v0.33c0,0.11,0,0.19-0.01,0.26
c-0.04,0.42-0.14,0.81-0.28,1.16c-0.14,0.35-0.34,0.65-0.6,0.89c-0.26,0.25-0.56,0.44-0.92,0.58c-0.36,0.14-0.77,0.21-1.22,0.21
c-0.46,0-0.87-0.07-1.22-0.21c-0.36-0.14-0.66-0.33-0.92-0.58c-0.26-0.25-0.46-0.54-0.6-0.89c-0.15-0.35-0.24-0.73-0.27-1.16
c-0.01-0.07-0.02-0.16-0.02-0.26c-0.01-0.11-0.01-0.22-0.01-0.33c0-0.12,0-0.23,0.01-0.33c0-0.11,0.01-0.2,0.02-0.28
c0.03-0.42,0.12-0.8,0.27-1.15c0.15-0.35,0.35-0.65,0.6-0.9c0.26-0.25,0.56-0.44,0.92-0.58c0.36-0.14,0.77-0.21,1.22-0.21
c0.46,0,0.87,0.07,1.22,0.21c0.36,0.14,0.66,0.33,0.92,0.58c0.26,0.25,0.46,0.55,0.61,0.9C13.25,55.91,13.34,56.3,13.37,56.72z
M12.24,57.32c0-0.21-0.01-0.39-0.03-0.54c-0.02-0.25-0.08-0.49-0.17-0.71c-0.08-0.22-0.2-0.41-0.36-0.57
c-0.15-0.16-0.34-0.29-0.56-0.38c-0.22-0.09-0.48-0.14-0.78-0.14c-0.3,0-0.56,0.05-0.78,0.14c-0.22,0.09-0.41,0.22-0.56,0.38
c-0.15,0.16-0.27,0.35-0.36,0.57c-0.09,0.22-0.14,0.46-0.17,0.71c-0.02,0.15-0.03,0.33-0.03,0.54s0.01,0.38,0.03,0.53
c0.03,0.26,0.08,0.49,0.17,0.71c0.08,0.22,0.2,0.41,0.36,0.57c0.15,0.16,0.34,0.29,0.56,0.38c0.22,0.09,0.48,0.14,0.78,0.14
c0.3,0,0.56-0.05,0.78-0.14c0.22-0.09,0.41-0.22,0.56-0.38c0.15-0.16,0.27-0.35,0.36-0.57c0.09-0.22,0.14-0.46,0.17-0.71
C12.23,57.7,12.24,57.53,12.24,57.32z M20.47,54.1c0.07,0.07,0.1,0.15,0.1,0.24v6.2c0,0.88-0.25,1.59-0.75,2.11
c-0.5,0.52-1.25,0.78-2.26,0.78c-0.51,0-0.95-0.06-1.31-0.18c-0.36-0.12-0.66-0.28-0.89-0.46c-0.23-0.19-0.41-0.39-0.52-0.61
c-0.11-0.22-0.18-0.43-0.18-0.63c-0.01-0.09,0.02-0.17,0.1-0.24c0.07-0.07,0.16-0.1,0.25-0.1h0.38c0.09,0,0.17,0.02,0.24,0.07
c0.06,0.05,0.12,0.14,0.18,0.27c0.03,0.05,0.07,0.12,0.12,0.21c0.06,0.09,0.15,0.18,0.27,0.26c0.12,0.09,0.29,0.16,0.48,0.23
c0.2,0.06,0.45,0.09,0.76,0.09c0.28,0,0.54-0.03,0.78-0.08c0.24-0.05,0.45-0.15,0.63-0.27c0.18-0.13,0.32-0.3,0.41-0.51
c0.1-0.21,0.15-0.47,0.15-0.78v-0.8c-0.17,0.23-0.41,0.43-0.73,0.61c-0.31,0.17-0.73,0.26-1.25,0.26c-0.4,0-0.77-0.07-1.12-0.21
c-0.34-0.14-0.64-0.34-0.9-0.6c-0.26-0.26-0.46-0.58-0.61-0.95c-0.15-0.37-0.24-0.79-0.27-1.26c-0.01-0.13-0.01-0.27-0.01-0.42
c0-0.15,0-0.29,0.01-0.42c0.02-0.47,0.11-0.89,0.27-1.26c0.15-0.37,0.36-0.69,0.61-0.95c0.26-0.26,0.55-0.46,0.9-0.6
c0.34-0.14,0.72-0.21,1.12-0.21c0.53,0,0.95,0.09,1.26,0.27c0.31,0.18,0.55,0.38,0.71,0.59v-0.4c0-0.09,0.03-0.17,0.1-0.24
c0.07-0.07,0.15-0.1,0.24-0.1h0.47C20.32,54,20.4,54.04,20.47,54.1z M19.42,57.31c0-0.18-0.01-0.33-0.01-0.46
c-0.03-0.6-0.21-1.07-0.54-1.4c-0.34-0.33-0.77-0.49-1.31-0.49c-0.56,0-1,0.18-1.33,0.54c-0.32,0.36-0.5,0.84-0.54,1.45
c-0.01,0.24-0.01,0.48,0,0.71c0.03,0.61,0.21,1.1,0.54,1.45c0.32,0.36,0.76,0.54,1.33,0.54c0.54,0,0.97-0.17,1.31-0.5
c0.34-0.33,0.52-0.79,0.54-1.39C19.42,57.65,19.42,57.49,19.42,57.31z M27.65,55.76c0.14,0.4,0.2,0.85,0.2,1.34v0.35
c0,0.09-0.03,0.17-0.1,0.24c-0.07,0.07-0.15,0.1-0.24,0.1h-4.38v0.08c0.02,0.58,0.19,1.02,0.53,1.33c0.33,0.31,0.75,0.46,1.26,0.46
c0.47,0,0.82-0.07,1.05-0.2c0.23-0.13,0.42-0.28,0.57-0.44c0.07-0.07,0.13-0.12,0.18-0.14c0.05-0.03,0.13-0.04,0.23-0.04h0.38
c0.09,0,0.18,0.03,0.26,0.1c0.08,0.07,0.11,0.15,0.09,0.24c-0.03,0.15-0.1,0.32-0.22,0.5c-0.12,0.18-0.29,0.35-0.52,0.51
c-0.22,0.16-0.51,0.29-0.84,0.4c-0.34,0.1-0.73,0.16-1.18,0.16c-0.42,0-0.81-0.08-1.15-0.22c-0.34-0.15-0.64-0.35-0.89-0.61
c-0.25-0.26-0.45-0.56-0.61-0.92c-0.15-0.35-0.25-0.74-0.28-1.15c-0.04-0.39-0.04-0.78,0-1.17c0.03-0.39,0.13-0.76,0.28-1.1
c0.15-0.34,0.35-0.64,0.6-0.89c0.25-0.26,0.54-0.46,0.89-0.6c0.34-0.15,0.73-0.22,1.15-0.22c0.46,0,0.87,0.07,1.23,0.22
c0.36,0.15,0.67,0.36,0.92,0.64C27.32,55.02,27.52,55.36,27.65,55.76z M26.71,56.68c0-0.52-0.16-0.93-0.49-1.24
c-0.33-0.31-0.76-0.47-1.31-0.47c-0.25,0-0.48,0.04-0.69,0.12c-0.21,0.08-0.4,0.2-0.56,0.34c-0.16,0.15-0.29,0.33-0.38,0.54
c-0.09,0.21-0.14,0.45-0.15,0.7v0.04h3.58V56.68z M32.72,59.53h-0.68c-0.22,0-0.4-0.03-0.54-0.08c-0.14-0.06-0.25-0.13-0.33-0.24
c-0.08-0.1-0.13-0.22-0.16-0.36c-0.03-0.14-0.04-0.29-0.04-0.45v-3.3h1.62c0.09,0,0.17-0.03,0.24-0.1c0.07-0.07,0.1-0.15,0.1-0.24
v-0.41c0-0.09-0.03-0.17-0.1-0.24c-0.07-0.07-0.15-0.1-0.24-0.1h-1.62v-2.08c0-0.09-0.03-0.17-0.1-0.24
c-0.07-0.07-0.15-0.1-0.24-0.1h-0.47c-0.09,0-0.17,0.03-0.24,0.1c-0.07,0.07-0.1,0.15-0.1,0.24V54h-0.94c-0.09,0-0.17,0.03-0.24,0.1
c-0.07,0.07-0.1,0.15-0.1,0.24v0.41c0,0.09,0.03,0.17,0.1,0.24c0.07,0.07,0.15,0.1,0.24,0.1h0.94v3.3c0,0.72,0.17,1.27,0.5,1.66
c0.33,0.38,0.87,0.57,1.61,0.57h0.8c0.09,0,0.17-0.03,0.24-0.1c0.07-0.07,0.1-0.15,0.1-0.24v-0.41c0-0.09-0.03-0.17-0.1-0.24
C32.89,59.57,32.81,59.53,32.72,59.53z M39.33,54.63c-0.24-0.24-0.53-0.43-0.87-0.56c-0.34-0.13-0.71-0.2-1.11-0.2
c-0.52,0-0.94,0.09-1.26,0.27c-0.32,0.18-0.56,0.38-0.72,0.59v-2.82c0-0.09-0.03-0.17-0.1-0.24c-0.07-0.07-0.15-0.1-0.24-0.1h-0.47
c-0.09,0-0.17,0.03-0.24,0.1c-0.07,0.07-0.1,0.15-0.1,0.24v8.36c0,0.09,0.03,0.17,0.1,0.24c0.07,0.07,0.15,0.1,0.24,0.1h0.47
c0.09,0,0.17-0.03,0.24-0.1s0.1-0.15,0.1-0.24v-3.36c0-0.66,0.16-1.14,0.49-1.47s0.76-0.48,1.29-0.48c0.56,0,1,0.16,1.31,0.48
c0.31,0.32,0.47,0.81,0.47,1.47v3.36c0,0.09,0.03,0.17,0.1,0.24s0.15,0.1,0.24,0.1h0.47c0.09,0,0.17-0.03,0.24-0.1
s0.1-0.15,0.1-0.24v-3.56c0-0.44-0.07-0.84-0.2-1.2C39.76,55.17,39.57,54.87,39.33,54.63z M47.11,55.76c0.14,0.4,0.2,0.85,0.2,1.34
v0.35c0,0.09-0.03,0.17-0.1,0.24c-0.07,0.07-0.15,0.1-0.24,0.1h-4.38v0.08c0.02,0.58,0.19,1.02,0.53,1.33
c0.33,0.31,0.75,0.46,1.26,0.46c0.47,0,0.82-0.07,1.05-0.2c0.23-0.13,0.42-0.28,0.57-0.44c0.07-0.07,0.13-0.12,0.18-0.14
c0.05-0.03,0.13-0.04,0.23-0.04h0.38c0.09,0,0.18,0.03,0.26,0.1c0.08,0.07,0.11,0.15,0.09,0.24c-0.03,0.15-0.1,0.32-0.22,0.5
c-0.12,0.18-0.29,0.35-0.52,0.51c-0.22,0.16-0.51,0.29-0.84,0.4c-0.34,0.1-0.73,0.16-1.18,0.16c-0.42,0-0.81-0.08-1.15-0.22
c-0.34-0.15-0.64-0.35-0.89-0.61c-0.25-0.26-0.45-0.56-0.61-0.92c-0.15-0.35-0.25-0.74-0.28-1.15c-0.04-0.39-0.04-0.78,0-1.17
c0.03-0.39,0.13-0.76,0.28-1.1c0.15-0.34,0.35-0.64,0.6-0.89c0.25-0.26,0.54-0.46,0.89-0.6c0.34-0.15,0.73-0.22,1.15-0.22
c0.46,0,0.87,0.07,1.23,0.22c0.36,0.15,0.67,0.36,0.92,0.64C46.78,55.02,46.97,55.36,47.11,55.76z M46.17,56.68
c0-0.52-0.16-0.93-0.49-1.24c-0.33-0.31-0.76-0.47-1.31-0.47c-0.25,0-0.48,0.04-0.69,0.12c-0.21,0.08-0.4,0.2-0.56,0.34
c-0.16,0.15-0.29,0.33-0.38,0.54c-0.09,0.21-0.14,0.45-0.15,0.7v0.04h3.58V56.68z M52.05,54h-0.66c-0.38,0-0.69,0.06-0.93,0.18
c-0.24,0.12-0.44,0.31-0.61,0.56v-0.39c0-0.09-0.03-0.17-0.1-0.24C49.68,54.03,49.6,54,49.5,54h-0.47c-0.09,0-0.17,0.03-0.24,0.1
c-0.07,0.07-0.1,0.15-0.1,0.24v5.94c0,0.09,0.03,0.17,0.1,0.24s0.15,0.1,0.24,0.1h0.47c0.09,0,0.17-0.03,0.24-0.1s0.1-0.15,0.1-0.24
v-3.72c0-0.98,0.49-1.47,1.47-1.47h0.74c0.09,0,0.17-0.03,0.24-0.1s0.1-0.15,0.1-0.24v-0.41c0-0.09-0.03-0.17-0.1-0.24
C52.23,54.03,52.14,54,52.05,54z M60.35,51.2h-0.8c-0.74,0-1.27,0.18-1.61,0.54c-0.33,0.36-0.5,0.9-0.5,1.62V54h-1.07
c-0.09,0-0.17,0.03-0.24,0.1c-0.07,0.07-0.1,0.15-0.1,0.24v0.41c0,0.09,0.03,0.17,0.1,0.24c0.07,0.07,0.15,0.1,0.24,0.1h1.07v5.19
c0,0.09,0.03,0.17,0.1,0.24c0.07,0.07,0.15,0.1,0.24,0.1h0.47c0.09,0,0.17-0.03,0.24-0.1s0.1-0.15,0.1-0.24V55.1h1.62
c0.09,0,0.17-0.03,0.24-0.1c0.07-0.07,0.1-0.15,0.1-0.24v-0.41c0-0.09-0.03-0.17-0.1-0.24c-0.07-0.07-0.15-0.1-0.24-0.1H58.6v-0.57
c0-0.16,0.02-0.31,0.04-0.45c0.03-0.14,0.08-0.26,0.16-0.36c0.08-0.1,0.18-0.18,0.33-0.24c0.14-0.05,0.32-0.08,0.54-0.08h0.68
c0.09,0,0.17-0.03,0.24-0.1c0.07-0.07,0.1-0.15,0.1-0.24v-0.41c0-0.09-0.03-0.17-0.1-0.24S60.44,51.2,60.35,51.2z M67.28,56.72
c0.01,0.08,0.01,0.17,0.01,0.28v0.33v0.33c0,0.11,0,0.19-0.01,0.26c-0.04,0.42-0.14,0.81-0.28,1.16c-0.14,0.35-0.34,0.65-0.6,0.89
c-0.25,0.25-0.56,0.44-0.92,0.58c-0.36,0.14-0.77,0.21-1.22,0.21c-0.46,0-0.87-0.07-1.22-0.21c-0.36-0.14-0.66-0.33-0.92-0.58
c-0.26-0.25-0.46-0.54-0.6-0.89c-0.15-0.35-0.24-0.73-0.27-1.16c-0.01-0.07-0.02-0.16-0.02-0.26c-0.01-0.11-0.01-0.22-0.01-0.33
c0-0.12,0-0.23,0.01-0.33c0-0.11,0.01-0.2,0.02-0.28c0.03-0.42,0.12-0.8,0.27-1.15c0.15-0.35,0.35-0.65,0.6-0.9
c0.26-0.25,0.56-0.44,0.92-0.58c0.36-0.14,0.76-0.21,1.22-0.21c0.46,0,0.87,0.07,1.22,0.21c0.36,0.14,0.66,0.33,0.92,0.58
c0.26,0.25,0.46,0.55,0.61,0.9C67.15,55.91,67.24,56.3,67.28,56.72z M66.14,57.32c0-0.21-0.01-0.39-0.03-0.54
c-0.03-0.25-0.08-0.49-0.17-0.71c-0.09-0.22-0.2-0.41-0.36-0.57s-0.34-0.29-0.56-0.38c-0.22-0.09-0.48-0.14-0.78-0.14
c-0.3,0-0.56,0.05-0.78,0.14c-0.22,0.09-0.41,0.22-0.56,0.38c-0.15,0.16-0.27,0.35-0.36,0.57c-0.08,0.22-0.14,0.46-0.16,0.71
c-0.02,0.15-0.03,0.33-0.03,0.54s0.01,0.38,0.03,0.53c0.03,0.26,0.08,0.49,0.16,0.71c0.09,0.22,0.2,0.41,0.36,0.57
c0.15,0.16,0.34,0.29,0.56,0.38c0.22,0.09,0.48,0.14,0.78,0.14c0.3,0,0.56-0.05,0.78-0.14c0.22-0.09,0.41-0.22,0.56-0.38
c0.15-0.16,0.27-0.35,0.36-0.57c0.09-0.22,0.14-0.46,0.17-0.71C66.13,57.7,66.14,57.53,66.14,57.32z M72.09,54h-0.66
c-0.38,0-0.69,0.06-0.93,0.18c-0.24,0.12-0.44,0.31-0.61,0.56v-0.39c0-0.09-0.03-0.17-0.1-0.24c-0.07-0.07-0.15-0.1-0.24-0.1h-0.47
c-0.09,0-0.18,0.03-0.24,0.1c-0.07,0.07-0.1,0.15-0.1,0.24v5.94c0,0.09,0.03,0.17,0.1,0.24s0.15,0.1,0.24,0.1h0.47
c0.09,0,0.17-0.03,0.24-0.1c0.07-0.07,0.1-0.15,0.1-0.24v-3.72c0-0.98,0.49-1.47,1.47-1.47h0.74c0.09,0,0.17-0.03,0.24-0.1
s0.1-0.15,0.1-0.24v-0.41c0-0.09-0.03-0.17-0.1-0.24C72.27,54.03,72.19,54,72.09,54z M83.84,55.16c0.01,0.38,0.01,0.72,0.01,1.01
c0,0.29,0,0.62-0.01,1.01c-0.01,0.53-0.1,1.02-0.28,1.45c-0.18,0.43-0.42,0.79-0.74,1.09c-0.31,0.3-0.69,0.52-1.12,0.68
c-0.43,0.16-0.91,0.24-1.44,0.24h-2.99c-0.09,0-0.17-0.03-0.24-0.1c-0.07-0.07-0.1-0.15-0.1-0.24v-8.23c0-0.1,0.03-0.17,0.1-0.24
c0.07-0.07,0.15-0.1,0.24-0.1h2.92c0.53,0,1.01,0.08,1.46,0.24c0.45,0.16,0.83,0.38,1.15,0.68c0.32,0.3,0.57,0.66,0.76,1.09
C83.74,54.14,83.83,54.63,83.84,55.16z M82.64,56.17c0-0.14,0-0.28-0.01-0.43c0-0.15-0.01-0.32-0.01-0.52
c-0.01-0.31-0.06-0.6-0.15-0.89c-0.09-0.28-0.23-0.54-0.43-0.76c-0.19-0.22-0.45-0.4-0.76-0.53c-0.32-0.13-0.7-0.2-1.16-0.2h-2v6.63
h2.07c0.46,0,0.84-0.07,1.15-0.2c0.31-0.13,0.56-0.31,0.75-0.53c0.19-0.22,0.32-0.47,0.4-0.76c0.08-0.28,0.12-0.58,0.13-0.89
c0-0.19,0-0.35,0.01-0.5C82.64,56.46,82.64,56.31,82.64,56.17z M86.21,54h-0.47c-0.09,0-0.17,0.03-0.24,0.1
c-0.07,0.07-0.1,0.15-0.1,0.24v5.94c0,0.09,0.03,0.17,0.1,0.24s0.15,0.1,0.24,0.1h0.47c0.09,0,0.17-0.03,0.24-0.1
c0.07-0.07,0.1-0.15,0.1-0.24v-5.94c0-0.09-0.03-0.17-0.1-0.24C86.38,54.04,86.3,54,86.21,54z M86.34,51.58h-0.73
c-0.09,0-0.17,0.03-0.24,0.1c-0.07,0.07-0.1,0.15-0.1,0.24v0.73c0,0.09,0.03,0.17,0.1,0.24c0.07,0.07,0.15,0.1,0.24,0.1h0.73
c0.09,0,0.17-0.03,0.24-0.1c0.07-0.07,0.1-0.15,0.1-0.24v-0.73c0-0.09-0.03-0.17-0.1-0.24C86.51,51.61,86.43,51.58,86.34,51.58z
M93.88,54.1c0.07,0.07,0.1,0.15,0.1,0.24v6.2c0,0.88-0.25,1.59-0.75,2.11c-0.5,0.52-1.25,0.78-2.26,0.78
c-0.51,0-0.94-0.06-1.3-0.18c-0.36-0.12-0.66-0.28-0.89-0.46c-0.23-0.19-0.41-0.39-0.52-0.61c-0.12-0.22-0.18-0.43-0.18-0.63
c-0.01-0.09,0.02-0.17,0.1-0.24c0.07-0.07,0.16-0.1,0.25-0.1h0.38c0.09,0,0.17,0.02,0.24,0.07c0.06,0.05,0.12,0.14,0.18,0.27
c0.03,0.05,0.07,0.12,0.12,0.21c0.05,0.09,0.14,0.18,0.27,0.26c0.12,0.09,0.28,0.16,0.48,0.23c0.2,0.06,0.45,0.09,0.76,0.09
c0.28,0,0.54-0.03,0.78-0.08c0.24-0.05,0.45-0.15,0.63-0.27c0.18-0.13,0.32-0.3,0.41-0.51c0.1-0.21,0.15-0.47,0.15-0.78v-0.8
c-0.17,0.23-0.41,0.43-0.73,0.61c-0.31,0.17-0.73,0.26-1.25,0.26c-0.4,0-0.77-0.07-1.12-0.21c-0.34-0.14-0.64-0.34-0.9-0.6
c-0.26-0.26-0.46-0.58-0.61-0.95c-0.15-0.37-0.24-0.79-0.27-1.26c-0.01-0.13-0.01-0.27-0.01-0.42c0-0.15,0-0.29,0.01-0.42
c0.02-0.47,0.11-0.89,0.27-1.26c0.15-0.37,0.36-0.69,0.61-0.95c0.26-0.26,0.55-0.46,0.9-0.6c0.34-0.14,0.72-0.21,1.12-0.21
c0.53,0,0.95,0.09,1.26,0.27c0.32,0.18,0.55,0.38,0.72,0.59v-0.4c0-0.09,0.03-0.17,0.1-0.24c0.07-0.07,0.15-0.1,0.24-0.1h0.47
C93.73,54,93.81,54.04,93.88,54.1z M92.84,57.31c0-0.18-0.01-0.33-0.01-0.46c-0.03-0.6-0.21-1.07-0.54-1.4
c-0.34-0.33-0.77-0.49-1.31-0.49c-0.56,0-1,0.18-1.33,0.54s-0.5,0.84-0.53,1.45c-0.01,0.24-0.01,0.48,0,0.71
c0.03,0.61,0.21,1.1,0.53,1.45c0.32,0.36,0.77,0.54,1.33,0.54c0.54,0,0.97-0.17,1.31-0.5c0.34-0.33,0.52-0.79,0.54-1.39
C92.83,57.65,92.84,57.49,92.84,57.31z M96.64,51.58h-0.73c-0.09,0-0.17,0.03-0.24,0.1c-0.07,0.07-0.1,0.15-0.1,0.24v0.73
c0,0.09,0.03,0.17,0.1,0.24c0.07,0.07,0.15,0.1,0.24,0.1h0.73c0.09,0,0.17-0.03,0.24-0.1c0.07-0.07,0.1-0.15,0.1-0.24v-0.73
c0-0.09-0.03-0.17-0.1-0.24C96.81,51.61,96.73,51.58,96.64,51.58z M96.51,54h-0.47c-0.09,0-0.17,0.03-0.24,0.1
c-0.07,0.07-0.1,0.15-0.1,0.24v5.94c0,0.09,0.03,0.17,0.1,0.24c0.07,0.07,0.15,0.1,0.24,0.1h0.47c0.09,0,0.17-0.03,0.24-0.1
s0.1-0.15,0.1-0.24v-5.94c0-0.09-0.03-0.17-0.1-0.24C96.69,54.04,96.61,54,96.51,54z M102.17,59.53h-0.68
c-0.22,0-0.4-0.03-0.54-0.08c-0.14-0.06-0.25-0.13-0.32-0.24c-0.08-0.1-0.13-0.22-0.16-0.36c-0.03-0.14-0.05-0.29-0.05-0.45v-3.3
h1.62c0.09,0,0.17-0.03,0.24-0.1c0.07-0.07,0.1-0.15,0.1-0.24v-0.41c0-0.09-0.03-0.17-0.1-0.24c-0.07-0.07-0.15-0.1-0.24-0.1h-1.62
v-2.08c0-0.09-0.03-0.17-0.1-0.24c-0.07-0.07-0.15-0.1-0.24-0.1h-0.47c-0.09,0-0.17,0.03-0.24,0.1c-0.07,0.07-0.1,0.15-0.1,0.24V54
h-0.94c-0.09,0-0.17,0.03-0.24,0.1c-0.07,0.07-0.1,0.15-0.1,0.24v0.41c0,0.09,0.03,0.17,0.1,0.24c0.07,0.07,0.15,0.1,0.24,0.1h0.94
v3.3c0,0.72,0.17,1.27,0.5,1.66c0.33,0.38,0.87,0.57,1.6,0.57h0.8c0.09,0,0.17-0.03,0.24-0.1c0.07-0.07,0.1-0.15,0.1-0.24v-0.41
c0-0.09-0.03-0.17-0.1-0.24C102.34,59.57,102.26,59.53,102.17,59.53z M108.76,55.31c0.13,0.32,0.2,0.68,0.2,1.08v3.89
c0,0.09-0.03,0.17-0.1,0.24c-0.07,0.07-0.15,0.1-0.24,0.1h-0.47c-0.09,0-0.17-0.03-0.24-0.1c-0.07-0.07-0.1-0.15-0.1-0.24v-0.52
c-0.08,0.16-0.2,0.3-0.36,0.43c-0.16,0.12-0.35,0.23-0.55,0.31c-0.21,0.08-0.42,0.15-0.65,0.19c-0.22,0.04-0.43,0.07-0.63,0.07
c-0.33,0-0.64-0.05-0.91-0.14c-0.28-0.09-0.51-0.22-0.7-0.38c-0.19-0.16-0.34-0.35-0.45-0.57c-0.11-0.22-0.16-0.46-0.16-0.72
c0-0.34,0.07-0.64,0.2-0.89c0.14-0.26,0.32-0.47,0.56-0.65c0.24-0.18,0.52-0.32,0.83-0.43c0.32-0.11,0.66-0.2,1.01-0.26l1.8-0.29
v-0.17c0-0.43-0.14-0.76-0.43-0.97c-0.28-0.22-0.64-0.33-1.06-0.33c-0.37,0-0.66,0.07-0.85,0.2c-0.19,0.14-0.36,0.3-0.49,0.48
c-0.05,0.07-0.11,0.11-0.16,0.14c-0.06,0.02-0.14,0.04-0.24,0.04h-0.38c-0.09,0-0.17-0.03-0.25-0.1c-0.07-0.07-0.1-0.15-0.1-0.24
c0.02-0.19,0.09-0.38,0.22-0.57c0.13-0.2,0.31-0.37,0.54-0.52c0.22-0.15,0.48-0.28,0.78-0.38c0.29-0.1,0.6-0.15,0.94-0.15
c0.38,0,0.74,0.06,1.06,0.17c0.33,0.11,0.61,0.27,0.84,0.48C108.44,54.74,108.62,55,108.76,55.31z M107.79,57.45l-1.5,0.24
c-0.54,0.09-0.96,0.22-1.28,0.41c-0.31,0.19-0.47,0.43-0.47,0.73c0,0.09,0.02,0.19,0.06,0.28c0.04,0.09,0.11,0.18,0.2,0.27
c0.09,0.09,0.21,0.15,0.36,0.2c0.15,0.05,0.33,0.08,0.55,0.08c0.31,0,0.59-0.05,0.84-0.14c0.26-0.09,0.47-0.22,0.66-0.39
c0.18-0.17,0.32-0.36,0.42-0.59c0.1-0.23,0.15-0.48,0.15-0.77V57.45z M111.45,51.58h-0.47c-0.09,0-0.17,0.03-0.24,0.1
c-0.07,0.07-0.1,0.15-0.1,0.24v8.36c0,0.09,0.03,0.17,0.1,0.24c0.07,0.07,0.15,0.1,0.24,0.1h0.47c0.09,0,0.17-0.03,0.24-0.1
c0.07-0.07,0.1-0.15,0.1-0.24v-8.36c0-0.09-0.03-0.17-0.1-0.24C111.62,51.61,111.54,51.58,111.45,51.58z M118.61,53.38
c0.4-0.44,0.98-0.66,1.74-0.66c0.41,0,0.75,0.05,1.03,0.15c0.28,0.1,0.51,0.23,0.69,0.4c0.18,0.16,0.32,0.35,0.42,0.55
c0.1,0.21,0.17,0.42,0.22,0.63c0.02,0.09,0.06,0.16,0.13,0.21c0.07,0.05,0.14,0.07,0.2,0.07h0.59c0.08,0,0.14-0.03,0.2-0.08
c0.06-0.05,0.08-0.12,0.08-0.2c-0.01-0.28-0.08-0.59-0.22-0.92c-0.14-0.33-0.34-0.64-0.63-0.94c-0.29-0.29-0.65-0.54-1.1-0.73
c-0.45-0.2-0.99-0.29-1.62-0.29c-0.55,0-1.04,0.09-1.48,0.26c-0.43,0.17-0.8,0.41-1.11,0.72c-0.31,0.31-0.55,0.67-0.72,1.1
c-0.17,0.42-0.26,0.88-0.28,1.38c-0.02,0.76-0.02,1.51,0,2.27c0.02,0.5,0.11,0.96,0.28,1.38c0.17,0.42,0.41,0.78,0.72,1.09
c0.31,0.3,0.68,0.55,1.11,0.72c0.43,0.17,0.93,0.26,1.48,0.26c0.64,0,1.18-0.1,1.62-0.29c0.45-0.2,0.81-0.44,1.1-0.73
c0.29-0.29,0.49-0.61,0.63-0.94c0.14-0.33,0.21-0.64,0.22-0.92c0-0.08-0.03-0.14-0.08-0.2c-0.06-0.06-0.12-0.08-0.2-0.08h-0.59
c-0.07,0-0.14,0.02-0.2,0.07c-0.07,0.05-0.11,0.12-0.13,0.21c-0.05,0.21-0.13,0.42-0.22,0.63c-0.1,0.21-0.24,0.39-0.42,0.56
c-0.18,0.16-0.41,0.29-0.69,0.39c-0.28,0.1-0.62,0.15-1.03,0.15c-0.76,0-1.34-0.22-1.74-0.66c-0.41-0.44-0.62-1.01-0.64-1.71
c-0.02-0.38-0.02-0.74-0.02-1.07c0-0.33,0.01-0.69,0.02-1.07C117.99,54.39,118.2,53.82,118.61,53.38z M130.34,55.31
c0.13,0.32,0.2,0.68,0.2,1.08v3.89c0,0.09-0.03,0.17-0.1,0.24c-0.07,0.07-0.15,0.1-0.24,0.1h-0.47c-0.09,0-0.17-0.03-0.24-0.1
c-0.07-0.07-0.1-0.15-0.1-0.24v-0.52c-0.08,0.16-0.2,0.3-0.36,0.43c-0.16,0.12-0.35,0.23-0.55,0.31c-0.21,0.08-0.42,0.15-0.65,0.19
c-0.22,0.04-0.43,0.07-0.63,0.07c-0.33,0-0.64-0.05-0.91-0.14c-0.28-0.09-0.51-0.22-0.7-0.38c-0.19-0.16-0.34-0.35-0.45-0.57
c-0.11-0.22-0.16-0.46-0.16-0.72c0-0.34,0.07-0.64,0.2-0.89s0.32-0.47,0.56-0.65c0.24-0.18,0.52-0.32,0.83-0.43
c0.32-0.11,0.66-0.2,1.01-0.26l1.8-0.29v-0.17c0-0.43-0.14-0.76-0.43-0.97c-0.28-0.22-0.64-0.33-1.06-0.33
c-0.38,0-0.66,0.07-0.85,0.2c-0.19,0.14-0.35,0.3-0.49,0.48c-0.05,0.07-0.11,0.11-0.17,0.14c-0.06,0.02-0.14,0.04-0.24,0.04h-0.38
c-0.09,0-0.18-0.03-0.25-0.1c-0.07-0.07-0.1-0.15-0.1-0.24c0.02-0.19,0.09-0.38,0.22-0.57c0.13-0.2,0.31-0.37,0.53-0.52
c0.23-0.15,0.48-0.28,0.78-0.38c0.29-0.1,0.6-0.15,0.94-0.15c0.38,0,0.74,0.06,1.06,0.17c0.33,0.11,0.61,0.27,0.84,0.48
C130.02,54.74,130.2,55,130.34,55.31z M129.37,57.45l-1.5,0.24c-0.54,0.09-0.96,0.22-1.28,0.41c-0.31,0.19-0.47,0.43-0.47,0.73
c0,0.09,0.02,0.19,0.06,0.28c0.04,0.09,0.11,0.18,0.21,0.27c0.09,0.09,0.21,0.15,0.36,0.2c0.15,0.05,0.33,0.08,0.55,0.08
c0.31,0,0.59-0.05,0.84-0.14c0.26-0.09,0.47-0.22,0.66-0.39c0.18-0.17,0.32-0.36,0.42-0.59c0.1-0.23,0.15-0.48,0.15-0.77V57.45z
M135.58,54h-0.66c-0.38,0-0.69,0.06-0.93,0.18c-0.24,0.12-0.44,0.31-0.61,0.56v-0.39c0-0.09-0.03-0.17-0.1-0.24
c-0.07-0.07-0.15-0.1-0.24-0.1h-0.47c-0.09,0-0.17,0.03-0.24,0.1c-0.07,0.07-0.1,0.15-0.1,0.24v5.94c0,0.09,0.03,0.17,0.1,0.24
s0.15,0.1,0.24,0.1h0.47c0.09,0,0.17-0.03,0.24-0.1s0.1-0.15,0.1-0.24v-3.72c0-0.98,0.49-1.47,1.47-1.47h0.74
c0.09,0,0.17-0.03,0.24-0.1s0.1-0.15,0.1-0.24v-0.41c0-0.09-0.03-0.17-0.1-0.24C135.75,54.03,135.67,54,135.58,54z M142.42,57.1
v0.35c0,0.09-0.04,0.17-0.1,0.24c-0.07,0.07-0.15,0.1-0.24,0.1h-4.38v0.08c0.02,0.58,0.19,1.02,0.53,1.33
c0.33,0.31,0.75,0.46,1.26,0.46c0.47,0,0.82-0.07,1.05-0.2c0.23-0.13,0.42-0.28,0.57-0.44c0.07-0.07,0.13-0.12,0.18-0.14
c0.05-0.03,0.13-0.04,0.23-0.04h0.38c0.09,0,0.18,0.03,0.26,0.1c0.08,0.07,0.11,0.15,0.09,0.24c-0.03,0.15-0.1,0.32-0.22,0.5
c-0.12,0.18-0.29,0.35-0.52,0.51c-0.23,0.16-0.51,0.29-0.84,0.4c-0.34,0.1-0.73,0.16-1.18,0.16c-0.42,0-0.81-0.08-1.15-0.22
c-0.34-0.15-0.64-0.35-0.89-0.61c-0.25-0.26-0.45-0.56-0.61-0.92c-0.15-0.35-0.25-0.74-0.28-1.15c-0.04-0.39-0.04-0.78,0-1.17
c0.03-0.39,0.13-0.76,0.28-1.1c0.15-0.34,0.35-0.64,0.6-0.89c0.24-0.26,0.54-0.46,0.89-0.6c0.34-0.15,0.73-0.22,1.15-0.22
c0.46,0,0.87,0.07,1.23,0.22c0.36,0.15,0.67,0.36,0.92,0.64c0.25,0.28,0.45,0.62,0.59,1.02C142.35,56.16,142.42,56.61,142.42,57.1z
M141.28,56.68c0-0.52-0.16-0.93-0.49-1.24c-0.33-0.31-0.76-0.47-1.31-0.47c-0.24,0-0.48,0.04-0.69,0.12s-0.4,0.2-0.56,0.34
c-0.16,0.15-0.29,0.33-0.38,0.54c-0.09,0.21-0.14,0.45-0.15,0.7v0.04h3.58V56.68z M32.5,21.39c-1.33,0-2.52,0.23-3.57,0.69
c-1.06,0.46-1.96,1.1-2.7,1.91c-0.74,0.81-1.34,1.79-1.79,2.95c-0.45,1.15-0.73,2.42-0.83,3.8c-0.03,0.41-0.04,0.95-0.04,1.62
c0,0.68,0.01,1.22,0.04,1.62c0.11,1.38,0.39,2.65,0.83,3.8c0.45,1.15,1.05,2.14,1.81,2.97c0.76,0.83,1.67,1.46,2.72,1.91
c1.06,0.45,2.23,0.67,3.53,0.67c1.27,0,2.42-0.18,3.45-0.55c1.03-0.37,1.9-0.81,2.62-1.32c0.72-0.51,1.27-1.06,1.66-1.62
c0.39-0.57,0.6-1.04,0.63-1.42c0.03-0.24-0.05-0.44-0.22-0.59c-0.18-0.15-0.39-0.22-0.63-0.22h-0.65c-0.3,0-0.51,0.04-0.65,0.1
c-0.14,0.07-0.32,0.28-0.57,0.63c-0.11,0.16-0.3,0.39-0.59,0.69c-0.28,0.3-0.66,0.59-1.12,0.87c-0.46,0.29-1.02,0.54-1.67,0.75
c-0.65,0.22-1.41,0.33-2.27,0.33c-0.97,0-1.86-0.2-2.64-0.61c-0.79-0.41-1.45-0.94-1.99-1.6c-0.54-0.66-0.97-1.43-1.28-2.29
c-0.31-0.87-0.48-1.76-0.51-2.68v-0.41h14.46c0.27,0,0.49-0.08,0.67-0.24c0.18-0.16,0.26-0.38,0.26-0.65v-0.61
c0-3.28-0.78-5.84-2.35-7.7C37.55,22.32,35.34,21.39,32.5,21.39z M39,31.1H26.08v-0.16c0-1,0.14-1.94,0.43-2.82
c0.28-0.88,0.7-1.65,1.26-2.3c0.55-0.65,1.22-1.16,2.01-1.52c0.78-0.37,1.69-0.55,2.72-0.55c1,0,1.91,0.18,2.72,0.55
c0.81,0.36,1.49,0.87,2.05,1.52c0.55,0.65,0.98,1.42,1.28,2.3c0.3,0.88,0.45,1.82,0.45,2.82V31.1z M86.9,21.39
c-1.33,0-2.52,0.23-3.57,0.69c-1.06,0.46-1.96,1.1-2.7,1.91c-0.74,0.81-1.34,1.79-1.79,2.95c-0.45,1.15-0.73,2.42-0.83,3.8
c-0.03,0.41-0.04,0.95-0.04,1.62c0,0.68,0.01,1.22,0.04,1.62c0.11,1.38,0.39,2.65,0.83,3.8c0.45,1.15,1.05,2.14,1.81,2.97
c0.76,0.83,1.67,1.46,2.72,1.91c1.06,0.45,2.23,0.67,3.53,0.67c1.27,0,2.42-0.18,3.45-0.55c1.03-0.37,1.9-0.81,2.62-1.32
c0.72-0.51,1.27-1.06,1.66-1.62c0.39-0.57,0.6-1.04,0.63-1.42c0.03-0.24-0.05-0.44-0.22-0.59c-0.18-0.15-0.39-0.22-0.63-0.22h-0.65
c-0.3,0-0.51,0.04-0.65,0.1c-0.14,0.07-0.32,0.28-0.57,0.63c-0.11,0.16-0.3,0.39-0.59,0.69c-0.28,0.3-0.66,0.59-1.12,0.87
c-0.46,0.29-1.02,0.54-1.67,0.75c-0.65,0.22-1.41,0.33-2.27,0.33c-0.97,0-1.86-0.2-2.64-0.61c-0.79-0.41-1.45-0.94-1.99-1.6
c-0.54-0.66-0.97-1.43-1.28-2.29c-0.31-0.87-0.48-1.76-0.51-2.68v-0.41h14.46c0.27,0,0.49-0.08,0.67-0.24
c0.18-0.16,0.26-0.38,0.26-0.65v-0.61c0-3.28-0.78-5.84-2.35-7.7C91.95,22.32,89.74,21.39,86.9,21.39z M93.4,31.1H80.48v-0.16
c0-1,0.14-1.94,0.43-2.82c0.28-0.88,0.7-1.65,1.26-2.3c0.55-0.65,1.22-1.16,2.01-1.52c0.78-0.37,1.69-0.55,2.72-0.55
c1,0,1.91,0.18,2.72,0.55c0.81,0.36,1.49,0.87,2.05,1.52c0.55,0.65,0.98,1.42,1.28,2.3c0.3,0.88,0.45,1.82,0.45,2.82V31.1z
M114.46,21.39c-1.33,0-2.52,0.23-3.57,0.69c-1.06,0.46-1.96,1.1-2.7,1.91c-0.75,0.81-1.34,1.79-1.79,2.95
c-0.45,1.15-0.72,2.42-0.83,3.8c-0.03,0.41-0.04,0.95-0.04,1.62c0,0.68,0.01,1.22,0.04,1.62c0.11,1.38,0.39,2.65,0.83,3.8
c0.45,1.15,1.05,2.14,1.81,2.97c0.76,0.83,1.67,1.46,2.72,1.91c1.06,0.45,2.23,0.67,3.53,0.67c1.27,0,2.42-0.18,3.45-0.55
c1.03-0.37,1.9-0.81,2.62-1.32c0.72-0.51,1.27-1.06,1.66-1.62c0.39-0.57,0.6-1.04,0.63-1.42c0.03-0.24-0.05-0.44-0.22-0.59
c-0.18-0.15-0.39-0.22-0.63-0.22h-0.65c-0.3,0-0.51,0.04-0.65,0.1c-0.14,0.07-0.32,0.28-0.57,0.63c-0.11,0.16-0.3,0.39-0.59,0.69
c-0.28,0.3-0.66,0.59-1.12,0.87c-0.46,0.29-1.01,0.54-1.67,0.75c-0.65,0.22-1.41,0.33-2.27,0.33c-0.97,0-1.85-0.2-2.64-0.61
c-0.78-0.41-1.45-0.94-1.99-1.6c-0.54-0.66-0.97-1.43-1.28-2.29c-0.31-0.87-0.48-1.76-0.51-2.68v-0.41h14.46
c0.27,0,0.49-0.08,0.67-0.24c0.18-0.16,0.26-0.38,0.26-0.65v-0.61c0-3.28-0.79-5.84-2.35-7.7C119.51,22.32,117.3,21.39,114.46,21.39
z M120.96,31.1h-12.92v-0.16c0-1,0.14-1.94,0.43-2.82c0.28-0.88,0.7-1.65,1.26-2.3c0.55-0.65,1.22-1.16,2.01-1.52
c0.78-0.37,1.69-0.55,2.72-0.55c1,0,1.91,0.18,2.72,0.55c0.81,0.36,1.49,0.87,2.05,1.52c0.55,0.65,0.98,1.42,1.28,2.3
c0.3,0.88,0.45,1.82,0.45,2.82V31.1z M20.36,32.72c0.37,0.79,0.55,1.73,0.55,2.84c0,2.46-0.91,4.37-2.72,5.73
c-1.81,1.35-4.3,2.03-7.47,2.03c-1.65,0-3.11-0.21-4.39-0.63c-1.27-0.42-2.35-0.97-3.23-1.65c-0.88-0.68-1.56-1.45-2.03-2.34
c-0.47-0.88-0.72-1.78-0.75-2.7c0-0.22,0.08-0.4,0.24-0.57c0.16-0.16,0.37-0.24,0.61-0.24h0.81c0.27,0,0.47,0.08,0.61,0.24
c0.14,0.16,0.23,0.35,0.28,0.57c0.08,0.57,0.28,1.14,0.61,1.73c0.33,0.58,0.81,1.1,1.44,1.56c0.64,0.46,1.43,0.84,2.38,1.14
c0.95,0.3,2.09,0.45,3.41,0.45c2.65,0,4.59-0.48,5.81-1.44s1.83-2.26,1.83-3.88c0-0.81-0.18-1.49-0.53-2.05
c-0.35-0.55-0.89-1.05-1.62-1.5c-0.73-0.45-1.65-0.87-2.76-1.28c-1.11-0.41-2.42-0.85-3.94-1.34c-1.46-0.46-2.71-0.93-3.76-1.4
c-1.04-0.47-1.91-1.02-2.6-1.62c-0.69-0.61-1.2-1.31-1.52-2.11c-0.32-0.8-0.49-1.75-0.49-2.86c0-1.03,0.21-1.99,0.63-2.88
c0.42-0.89,1.02-1.66,1.81-2.32c0.79-0.65,1.76-1.16,2.92-1.54c1.16-0.38,2.5-0.57,4.02-0.57c1.6,0,2.99,0.22,4.18,0.67
c1.19,0.45,2.18,1.02,2.97,1.71c0.78,0.69,1.38,1.46,1.79,2.29s0.62,1.65,0.65,2.44c0,0.22-0.07,0.41-0.2,0.57
C19.75,21.92,19.54,22,19.24,22h-0.81c-0.14,0-0.3-0.05-0.51-0.16c-0.2-0.11-0.33-0.32-0.38-0.65c-0.16-1.35-0.87-2.47-2.13-3.35
c-1.26-0.88-2.89-1.32-4.89-1.32c-1,0-1.92,0.1-2.76,0.28c-0.84,0.19-1.56,0.49-2.15,0.89c-0.6,0.41-1.06,0.91-1.4,1.52
c-0.34,0.61-0.51,1.33-0.51,2.17c0,0.81,0.16,1.5,0.47,2.07c0.31,0.57,0.81,1.08,1.48,1.54c0.68,0.46,1.53,0.89,2.56,1.3
c1.03,0.41,2.27,0.84,3.74,1.3c1.52,0.49,2.84,0.97,3.96,1.44c1.12,0.47,2.06,1.01,2.8,1.6C19.44,31.25,19.99,31.94,20.36,32.72z
M54.47,21.8h-1.5c-2.71,0-4.55,0.93-5.52,2.8v-1.87c0-0.27-0.09-0.49-0.26-0.67c-0.18-0.18-0.4-0.26-0.67-0.26h-0.65
c-0.27,0-0.49,0.09-0.65,0.26c-0.16,0.18-0.24,0.4-0.24,0.67v19.29c0,0.6,0.3,0.89,0.89,0.89h0.65c0.27,0,0.49-0.08,0.67-0.24
c0.18-0.16,0.26-0.38,0.26-0.65V29.43c0-1.62,0.47-2.91,1.42-3.86c0.95-0.95,2.23-1.42,3.86-1.42h1.75c0.59,0,0.89-0.3,0.89-0.89
v-0.57C55.36,22.1,55.06,21.8,54.47,21.8z M75.88,21.8h-0.85c-0.27,0-0.47,0.07-0.61,0.22c-0.14,0.15-0.23,0.28-0.28,0.39
l-6.86,17.55L60.4,22.41c-0.05-0.11-0.15-0.24-0.28-0.39c-0.14-0.15-0.34-0.22-0.61-0.22h-0.85c-0.22,0-0.4,0.08-0.57,0.24
c-0.16,0.16-0.24,0.35-0.24,0.57c0,0.14,0.03,0.29,0.08,0.45L65.4,41.9c0.14,0.3,0.32,0.54,0.55,0.73c0.23,0.19,0.56,0.28,0.99,0.28
h0.65c0.43,0,0.77-0.09,1-0.28c0.23-0.19,0.41-0.43,0.55-0.73l7.47-18.85c0.05-0.16,0.08-0.31,0.08-0.45c0-0.22-0.08-0.41-0.24-0.57
C76.28,21.88,76.09,21.8,75.88,21.8z M100.96,14.08h-0.69c-0.6,0-0.89,0.3-0.89,0.89v27.05c0,0.6,0.3,0.89,0.89,0.89h0.69
c0.6,0,0.89-0.3,0.89-0.89V14.98C101.86,14.38,101.56,14.08,100.96,14.08z M142.55,35.97h-0.57c-0.3,0-0.5,0.06-0.61,0.18
c-0.11,0.12-0.23,0.34-0.37,0.67c-0.57,1.54-1.35,2.62-2.34,3.23c-0.99,0.61-2.2,0.91-3.63,0.91c-1.84,0-3.37-0.56-4.57-1.68
c-1.21-1.12-1.85-2.96-1.93-5.5c-0.03-0.41-0.04-0.88-0.04-1.42s0.02-1.02,0.04-1.42c0.08-2.54,0.72-4.38,1.93-5.5
c1.2-1.12,2.73-1.68,4.57-1.68c1.43,0,2.65,0.3,3.63,0.91c0.99,0.61,1.77,1.68,2.34,3.23c0.14,0.33,0.26,0.55,0.37,0.67
c0.11,0.12,0.31,0.18,0.61,0.18h0.57c0.24,0,0.46-0.08,0.65-0.24c0.19-0.16,0.27-0.38,0.24-0.65c-0.03-0.73-0.21-1.48-0.55-2.23
c-0.34-0.76-0.85-1.46-1.54-2.09c-0.69-0.64-1.56-1.15-2.6-1.54c-1.04-0.39-2.28-0.59-3.72-0.59c-2.87,0-5.06,0.83-6.58,2.48
c-1.52,1.65-2.32,3.94-2.4,6.86c-0.03,0.41-0.04,0.95-0.04,1.62s0.01,1.22,0.04,1.62c0.08,2.92,0.88,5.21,2.4,6.86
c1.52,1.65,3.71,2.48,6.58,2.48c1.43,0,2.67-0.2,3.72-0.59c1.04-0.39,1.91-0.91,2.6-1.54c0.69-0.64,1.21-1.33,1.54-2.09
c0.34-0.76,0.52-1.5,0.55-2.23c0.03-0.27-0.05-0.49-0.24-0.65C143.01,36.05,142.8,35.97,142.55,35.97z M164.69,15.51
c0-0.06,0-0.12,0-0.17c0-0.04,0-0.08,0-0.12c0-0.03-0.01-0.05-0.01-0.08c-0.02-0.33-0.06-0.65-0.14-0.97
c-0.01-0.05-0.02-0.1-0.04-0.15c-0.08-0.32-0.18-0.64-0.31-0.95c-0.02-0.04-0.04-0.08-0.06-0.12c-0.14-0.32-0.31-0.62-0.5-0.91
c-0.02-0.03-0.04-0.05-0.06-0.08c-0.21-0.3-0.44-0.58-0.7-0.85c-0.01-0.01-0.01-0.01-0.01-0.02l0,0c0,0-0.01-0.01-0.02-0.02
c0,0,0,0,0,0c-0.05-0.06-0.33-0.33-0.81-0.67c-0.02-0.02-0.04-0.04-0.06-0.05c-0.03-0.02-0.06-0.04-0.1-0.06
c-0.03-0.02-0.05-0.04-0.08-0.05c-0.03-0.02-0.05-0.03-0.08-0.05c0,0-0.01,0-0.01-0.01c-0.04-0.02-0.08-0.05-0.12-0.07
c-0.01-0.01-0.03-0.02-0.04-0.03c-0.07-0.04-0.14-0.08-0.22-0.12c-0.03-0.02-0.07-0.04-0.1-0.05c-0.04-0.02-0.07-0.03-0.11-0.05
c-0.01,0-0.02-0.01-0.03-0.01c-0.01,0-0.02-0.01-0.03-0.01c-0.2-0.09-0.41-0.17-0.62-0.24c-0.08-0.03-0.16-0.05-0.24-0.07
c-0.19-0.05-0.38-0.1-0.57-0.14c-0.07-0.01-0.13-0.03-0.2-0.04c-0.22-0.03-0.44-0.06-0.67-0.07c-0.08,0-0.16-0.01-0.25-0.01l0,0
c-0.03,0-0.05,0-0.08,0l-2.35,0l0-2.41c0-3.46-2.82-6.27-6.28-6.27c-0.7,0-1.37,0.11-1.99,0.32c2.41,0,4.41,1.96,4.41,4.37l0,3.99
l-4.05,0c-0.35,0-0.68-0.06-1.01-0.13c-0.18-1.3,0.22-2.65,1.22-3.65c0.04-0.04,0.09-0.09,0.13-0.12c0.72-0.85,0.68-2.13-0.12-2.94
c-0.42-0.42-0.98-0.64-1.53-0.64c-0.56,0-1.11,0.21-1.54,0.64c-0.71,0.71-1.21,1.56-1.51,2.46c0,0,0,0,0-0.01
c0,0.01,0,0.02-0.01,0.03c-0.09,0.29-0.17,0.58-0.22,0.88c0,0.01-0.01,0.03-0.01,0.04c0,0.01-0.01,0.02-0.01,0.04
c-0.01,0.07-0.02,0.14-0.03,0.21c0,0.02-0.01,0.05-0.01,0.07c0,0.02,0,0.05-0.01,0.07c0,0.03-0.01,0.06-0.01,0.09
c0,0.01,0,0.02,0,0.03c0,0.03,0,0.06-0.01,0.1c0,0.06-0.01,0.11-0.01,0.17c0,0.05,0,0.09,0,0.14c0,0.04,0,0.08,0,0.12c0,0,0,0,0,0
c0,0,0,0,0,0.01c0,0.1,0,0.2,0.01,0.3c0,0.07,0.01,0.13,0.02,0.19c0,0.03,0,0.05,0.01,0.08c0,0.01,0,0.02,0,0.02c0,0,0,0,0,0
c0.01,0.08,0.02,0.17,0.03,0.25c0,0.02,0,0.03,0.01,0.04c0.01,0.09,0.03,0.18,0.05,0.27c0,0,0,0,0,0c0,0.01,0,0.02,0,0.03
c0.02,0.09,0.04,0.18,0.06,0.27c0,0.01,0,0.01,0.01,0.02c0.02,0.09,0.05,0.18,0.07,0.27c0,0.01,0.01,0.02,0.01,0.03
c0.03,0.08,0.05,0.17,0.08,0.25c0.01,0.01,0.01,0.03,0.02,0.04c0.03,0.08,0.06,0.15,0.09,0.23c0,0.01,0.01,0.02,0.01,0.03
c0,0.01,0.01,0.01,0.01,0.02c0,0.01,0,0.01,0.01,0.02c0.03,0.07,0.06,0.13,0.09,0.2c0.01,0.03,0.03,0.06,0.04,0.09
c0.03,0.06,0.06,0.11,0.09,0.17c0.01,0.01,0.01,0.02,0.02,0.04c0.01,0.02,0.02,0.04,0.03,0.07c0,0,0,0.01,0,0.01
c0.02,0.05,0.05,0.1,0.08,0.15c0.02,0.04,0.05,0.08,0.07,0.13c0.02,0.04,0.05,0.09,0.08,0.13c0.02,0.03,0.03,0.05,0.05,0.08
c0.01,0.01,0.02,0.03,0.03,0.04c0,0.01,0.01,0.01,0.01,0.02c0.03,0.04,0.05,0.08,0.08,0.12c0.03,0.04,0.06,0.09,0.1,0.13
c0.03,0.04,0.06,0.08,0.09,0.12c0.02,0.03,0.05,0.06,0.07,0.09c0.01,0.01,0.01,0.02,0.02,0.02c0,0,0.01,0.01,0.01,0.01
c0.04,0.05,0.08,0.09,0.12,0.14c0.03,0.03,0.05,0.07,0.08,0.1c0.07,0.08,0.14,0.15,0.21,0.23c0,0,0.01,0.01,0.02,0.01
c0.02,0.02,0.16,0.17,0.41,0.37c0.02,0.01,0.03,0.03,0.05,0.04c0.1,0.08,0.21,0.16,0.34,0.26c0.07,0.05,0.14,0.1,0.22,0.15
c0.08,0.05,0.16,0.1,0.25,0.15c0.11,0.06,0.22,0.12,0.33,0.18c0.09,0.05,0.18,0.09,0.27,0.13c0.13,0.06,0.26,0.11,0.39,0.15
c0.16,0.06,0.33,0.11,0.51,0.16c0.14,0.04,0.28,0.07,0.42,0.1c0.12,0.02,0.24,0.04,0.36,0.06c0.23,0.03,0.46,0.05,0.7,0.06
c0.03,0,0.05,0.01,0.07,0.01h0.03c0,0,0,0,0.01,0h1.35l0.51,0h0.65c0,0-0.01,0-0.01,0h0.02v0l0,2.41c0,3.46,2.82,6.27,6.28,6.27
c0.7,0,1.37-0.11,2-0.33c-2.41,0-4.41-1.96-4.41-4.37l0-3.99l3.93,0c0.35,0,0.68,0.06,1,0.13c0.18,1.3-0.23,2.66-1.22,3.65
c-0.04,0.04-0.09,0.08-0.13,0.12c-0.72,0.85-0.68,2.13,0.12,2.94c0.42,0.42,0.98,0.64,1.54,0.64c0.55,0,1.11-0.21,1.53-0.64
c0.72-0.72,1.22-1.57,1.51-2.47c0,0.01,0,0.01,0,0.02c0.02-0.05,0.03-0.1,0.05-0.15c0-0.01,0.01-0.03,0.01-0.04
c0-0.01,0-0.01,0.01-0.02c0,0,0,0,0,0c0.05-0.19,0.1-0.37,0.14-0.56c0,0,0-0.01,0-0.01c0,0,0-0.01,0-0.01c0-0.01,0-0.02,0.01-0.03
c0.01-0.07,0.03-0.15,0.04-0.22c0-0.03,0.01-0.06,0.01-0.09c0.01-0.06,0.01-0.12,0.02-0.19c0-0.01,0-0.03,0-0.04
c0-0.02,0-0.03,0-0.05c0-0.01,0-0.02,0-0.02c0.01-0.06,0.01-0.11,0.01-0.17c0-0.04,0.01-0.08,0.01-0.11c0-0.08,0.01-0.15,0.01-0.23
c0-0.01,0-0.02,0-0.03C164.69,15.53,164.69,15.52,164.69,15.51z M145.63,2.73c0.32-0.33,0.76-0.5,1.21-0.5
c0.46,0,0.89,0.18,1.21,0.5c0.62,0.62,0.67,1.62,0.11,2.3c-0.04,0.04-0.08,0.08-0.12,0.12C147,6.2,146.56,7.62,146.69,9
c0,0-0.01,0-0.01,0c0.01,0.06,0.01,0.1,0.02,0.16c0.01,0.08,0.02,0.15,0.03,0.23c0.01,0.03,0.01,0.09,0.02,0.12
c0.01,0,0.01,0,0.02,0c0.17,0.81,0.53,1.59,1.12,2.24c0.31,0.34,0.64,0.61,0.99,0.83c-0.08-0.01-0.15-0.01-0.23-0.02
c-0.05-0.01-0.09-0.02-0.14-0.03c-0.33-0.07-0.66-0.17-0.98-0.3c-0.03-0.01-0.06-0.03-0.09-0.04c-0.31-0.13-0.61-0.29-0.89-0.48
c-0.02-0.02-0.04-0.03-0.07-0.05c-0.3-0.2-0.58-0.43-0.84-0.69c0,0,0,0,0,0c-0.28-0.28-0.53-0.58-0.74-0.9
c0-0.01-0.01-0.01-0.01-0.02c-0.21-0.32-0.38-0.65-0.52-0.99l-0.01-0.01c-0.14-0.35-0.25-0.71-0.32-1.07l0-0.01
c-0.06-0.33-0.09-0.67-0.1-1.01c0-0.04-0.01-0.09,0-0.13C143.95,5.33,144.51,3.86,145.63,2.73z M151.05,12.66h-1.02
c-0.62-0.25-1.27-0.63-1.81-1.23c-0.48-0.53-0.79-1.16-0.96-1.82c0.29,0.06,0.59,0.1,0.9,0.1l4.05,0l0,2.95L151.05,12.66z
M158.14,21.33c-3.05-0.18-5.47-2.72-5.47-5.81l0-2.41v0h0v-0.46h0l0.01-7.4c0-1.82-1.02-3.4-2.52-4.23
c3.05,0.18,5.47,2.72,5.47,5.81l0,1.93l0,0.4v0.07h0v0.46h0v0l-0.01,7.4C155.62,18.92,156.64,20.51,158.14,21.33z M160.01,12.65
l-3.93,0l0-2.95l1.45,0l0,0h0.61c0.62,0.25,1.27,0.63,1.81,1.23c0.48,0.53,0.79,1.16,0.96,1.82
C160.61,12.69,160.31,12.65,160.01,12.65z M162.53,19.64c-0.33,0.32-0.76,0.5-1.21,0.5c-0.46,0-0.89-0.18-1.21-0.5
c-0.62-0.62-0.67-1.63-0.11-2.3c0.04-0.04,0.08-0.08,0.12-0.12c1.05-1.05,1.5-2.47,1.36-3.85c0,0,0.01,0,0.01,0
c-0.01-0.07-0.01-0.13-0.02-0.19c-0.01-0.06-0.01-0.12-0.03-0.19c-0.01-0.05-0.02-0.1-0.02-0.13c0,0-0.01,0-0.01,0
c-0.17-0.81-0.53-1.58-1.12-2.24c-0.3-0.34-0.64-0.61-0.98-0.83c0.15,0.02,0.3,0.03,0.44,0.07c0.04,0.01,0.09,0.02,0.13,0.03
c0.31,0.08,0.6,0.19,0.89,0.32c0.4,0.18,0.73,0.38,1,0.56c0.26,0.18,0.5,0.38,0.73,0.6l0,0l0.02,0.02l0,0l0.01,0.01
c0.01,0.01,0.01,0.01,0.02,0.02c0.25,0.25,0.46,0.52,0.66,0.81c0.07,0.09,0.12,0.19,0.18,0.29c0.12,0.21,0.24,0.42,0.33,0.63
c0.05,0.11,0.1,0.22,0.14,0.33c0.09,0.23,0.15,0.47,0.21,0.71c0.02,0.09,0.05,0.19,0.07,0.28c0.05,0.31,0.08,0.61,0.09,0.92
c0,0.07,0,0.15,0,0.22C164.2,17.08,163.64,18.53,162.53,19.64z"/>
</svg>