<svg xmlns="http://www.w3.org/2000/svg" width="51" height="74" viewBox="0 0 51 74">
<path fill="#0b0c0c" d="M24.75,54.18c0.03-0.09,0.04-0.18-0.01-0.23c-0.03-0.04-0.09-0.04-0.15,0c-0.1,0.06-0.23,0.22-0.31,0.44
c-0.01,0.04-0.03,0.07-0.04,0.1c-0.1,0.31-0.1,0.55-0.1,0.55s0.23-0.23,0.37-0.42c0.02-0.03,0.04-0.06,0.06-0.09
C24.64,54.42,24.71,54.29,24.75,54.18z M23.47,52.67c-0.16,0.12-0.59,0.5-0.34,1.1c0.29,0.69,0.95,0.73,1.12,0.72
c0.01-0.03,0.02-0.07,0.04-0.1c0.08-0.23,0.21-0.38,0.31-0.44c-0.03-0.21-0.08-0.47-0.14-0.64c-0.08-0.21-0.27-0.48-0.38-0.63
C23.97,52.73,23.78,52.75,23.47,52.67z M25.45,51.71c-0.07-0.1-0.12-0.32-0.14-0.64c0-0.02,0-0.04,0-0.06
c-0.18-0.14-0.81-0.58-1.42-0.09c-0.62,0.51-0.4,1.16-0.29,1.38c0.12,0.02,0.4,0.07,0.51,0.16c0.14-0.11,0.38-0.3,0.6-0.43
C24.95,51.89,25.26,51.78,25.45,51.71z M23.55,52.3c-0.4-0.06-0.67,0.04-0.67,0.04s0.09,0.19,0.58,0.33c0,0,0.01,0,0.01,0
c0.31,0.09,0.5,0.07,0.6,0.01c0.07-0.04,0.1-0.09,0.09-0.14c0-0.03-0.02-0.05-0.05-0.07c-0.11-0.09-0.39-0.14-0.51-0.16
C23.57,52.3,23.55,52.3,23.55,52.3z M25.63,50.85c0.01,0.04,0.02,0.09,0.02,0.15C25.65,50.94,25.64,50.9,25.63,50.85z M26.52,53.79
c-0.23-0.01-0.58,0-0.86,0.06c-0.32,0.07-0.72,0.24-0.91,0.33c-0.04,0.12-0.11,0.25-0.17,0.35c-0.02,0.03-0.04,0.06-0.06,0.09
c0.1,0.13,0.54,0.6,1.27,0.51c0.84-0.11,1.05-0.68,1.09-0.83c-0.02-0.02-0.04-0.04-0.06-0.06C26.69,54.08,26.58,53.92,26.52,53.79z
M27.5,52.21c-0.08,0.04-0.16,0.08-0.22,0.1c-0.22,0.09-0.41,0.16-0.53,0.17c-0.05,0.13-0.1,0.32-0.11,0.53
c-0.01,0.21,0.02,0.44,0.05,0.59c0.1,0.08,0.22,0.21,0.36,0.39c0.01,0.02,0.02,0.03,0.04,0.05c0.03,0.05,0.06,0.09,0.08,0.13
c0.25,0.01,0.8-0.06,0.92-0.84C28.23,52.44,27.63,52.24,27.5,52.21z M27.41,52c0.02-0.11,0.18-0.96-0.58-1.35
c-0.54-0.27-0.98,0.01-1.2,0.21c0.01,0.04,0.02,0.09,0.02,0.15c0.03,0.27,0.02,0.52-0.02,0.66c0.06,0.05,0.29,0.22,0.55,0.34
c0.23,0.11,0.51,0.19,0.59,0.21c0.11-0.06,0.26-0.11,0.41-0.16C27.25,52.03,27.33,52.01,27.41,52z M25.65,51
c-0.01-0.06-0.01-0.1-0.02-0.15c-0.06-0.29-0.2-0.33-0.2-0.33s-0.14,0.08-0.12,0.48c0,0.02,0,0.04,0,0.06
c0.02,0.32,0.07,0.55,0.14,0.64c0.03,0.04,0.06,0.06,0.09,0.05c0.04,0,0.06-0.05,0.08-0.11c0,0,0,0,0-0.01
C25.68,51.52,25.69,51.27,25.65,51z M27.5,52.21c0.19-0.1,0.4-0.23,0.39-0.25c-0.01-0.01-0.24-0.01-0.49,0.04
c-0.08,0.02-0.16,0.03-0.23,0.06c-0.15,0.05-0.3,0.1-0.41,0.16c-0.11,0.06-0.17,0.12-0.15,0.2c0.02,0.05,0.07,0.07,0.14,0.07
c0.12-0.01,0.31-0.08,0.53-0.17C27.34,52.29,27.42,52.25,27.5,52.21z M27.06,53.98c-0.14-0.18-0.26-0.31-0.36-0.39
c-0.04-0.03-0.08-0.05-0.11-0.07c-0.05-0.02-0.08-0.02-0.11,0.01c-0.02,0.03-0.02,0.07-0.01,0.13c0.01,0.04,0.02,0.08,0.05,0.12
c0.06,0.13,0.17,0.29,0.3,0.44c0.02,0.02,0.04,0.05,0.06,0.06c0.01,0.02,0.03,0.03,0.04,0.04c0.2,0.18,0.38,0.19,0.38,0.19
s0-0.15-0.12-0.36c-0.02-0.04-0.05-0.09-0.08-0.13C27.09,54.01,27.08,54,27.06,53.98z M26.03,52.67c0.07,0.26-0.15,0.55-0.48,0.63
c-0.34,0.09-0.66-0.05-0.73-0.32c-0.07-0.26,0.15-0.55,0.48-0.63C25.64,52.26,25.97,52.41,26.03,52.67z M42.69,54.18
c0.03-0.09,0.04-0.18-0.01-0.23c-0.03-0.04-0.08-0.04-0.15,0c-0.1,0.06-0.23,0.22-0.31,0.44c-0.01,0.04-0.03,0.07-0.04,0.1
c-0.1,0.31-0.1,0.55-0.1,0.55s0.23-0.23,0.37-0.42c0.02-0.03,0.04-0.06,0.06-0.09C42.58,54.42,42.65,54.29,42.69,54.18z
M41.41,52.67c-0.16,0.12-0.59,0.5-0.34,1.1c0.29,0.69,0.95,0.73,1.12,0.72c0.01-0.03,0.02-0.07,0.04-0.1
c0.08-0.23,0.21-0.38,0.31-0.44c-0.03-0.21-0.08-0.47-0.14-0.64c-0.08-0.21-0.27-0.48-0.38-0.63
C41.91,52.73,41.72,52.75,41.41,52.67z M43.39,51.71c-0.07-0.1-0.12-0.32-0.14-0.64c0-0.02,0-0.04,0-0.06
c-0.18-0.14-0.81-0.58-1.42-0.09c-0.62,0.51-0.4,1.16-0.29,1.38c0.12,0.02,0.4,0.07,0.51,0.16c0.14-0.11,0.38-0.3,0.6-0.43
C42.89,51.89,43.2,51.78,43.39,51.71z M41.49,52.3c-0.4-0.06-0.67,0.04-0.67,0.04s0.09,0.19,0.58,0.33c0,0,0.01,0,0.01,0
c0.31,0.09,0.5,0.07,0.6,0.01c0.07-0.04,0.1-0.09,0.09-0.14c0-0.03-0.02-0.05-0.05-0.07c-0.11-0.09-0.39-0.14-0.51-0.16
C41.51,52.3,41.49,52.3,41.49,52.3z M43.57,50.85c0.01,0.04,0.02,0.09,0.02,0.15C43.59,50.94,43.58,50.9,43.57,50.85z M44.46,53.79
c-0.23-0.01-0.58,0-0.86,0.06c-0.32,0.07-0.72,0.24-0.91,0.33c-0.04,0.12-0.11,0.25-0.17,0.35c-0.02,0.03-0.04,0.06-0.06,0.09
c0.1,0.13,0.54,0.6,1.27,0.51c0.84-0.11,1.05-0.68,1.09-0.83c-0.02-0.02-0.04-0.04-0.06-0.06C44.63,54.08,44.52,53.92,44.46,53.79z
M45.44,52.21c-0.08,0.04-0.16,0.08-0.22,0.1c-0.22,0.09-0.41,0.16-0.53,0.17c-0.05,0.13-0.1,0.32-0.11,0.53
c-0.01,0.21,0.02,0.44,0.05,0.59c0.1,0.08,0.22,0.21,0.36,0.39c0.02,0.02,0.03,0.03,0.04,0.05c0.03,0.05,0.06,0.09,0.08,0.13
c0.25,0.01,0.8-0.06,0.92-0.84C46.17,52.44,45.57,52.24,45.44,52.21z M45.35,52c0.02-0.11,0.18-0.96-0.58-1.35
c-0.54-0.27-0.98,0.01-1.2,0.21c0.01,0.04,0.02,0.09,0.02,0.15c0.03,0.27,0.02,0.52-0.02,0.66c0.06,0.05,0.29,0.22,0.55,0.34
c0.23,0.11,0.51,0.19,0.59,0.21c0.11-0.06,0.26-0.11,0.41-0.16C45.19,52.03,45.27,52.01,45.35,52z M43.59,51
c-0.01-0.06-0.01-0.1-0.02-0.15c-0.06-0.29-0.2-0.33-0.2-0.33s-0.14,0.08-0.12,0.48c0,0.02,0,0.04,0,0.06
c0.02,0.32,0.07,0.55,0.14,0.64c0.03,0.04,0.06,0.06,0.1,0.05c0.04,0,0.06-0.05,0.08-0.11c0,0,0,0,0-0.01
C43.62,51.52,43.63,51.27,43.59,51z M45.44,52.21c0.19-0.1,0.4-0.23,0.39-0.25c-0.01-0.01-0.24-0.01-0.49,0.04
c-0.08,0.02-0.16,0.03-0.23,0.06c-0.15,0.05-0.3,0.1-0.41,0.16c-0.11,0.06-0.17,0.12-0.15,0.2c0.02,0.05,0.07,0.07,0.14,0.07
c0.12-0.01,0.31-0.08,0.53-0.17C45.28,52.29,45.36,52.25,45.44,52.21z M45,53.98c-0.14-0.18-0.26-0.31-0.36-0.39
c-0.04-0.03-0.08-0.05-0.11-0.07c-0.05-0.02-0.08-0.02-0.11,0.01c-0.02,0.03-0.02,0.07-0.01,0.13c0.01,0.04,0.03,0.08,0.05,0.12
c0.06,0.13,0.17,0.29,0.3,0.44c0.02,0.02,0.04,0.05,0.06,0.06c0.01,0.02,0.03,0.03,0.04,0.04c0.2,0.18,0.38,0.19,0.38,0.19
s0-0.15-0.12-0.36c-0.02-0.04-0.05-0.09-0.08-0.13C45.03,54.01,45.02,54,45,53.98z M43.97,52.67c0.07,0.26-0.15,0.55-0.48,0.63
c-0.34,0.09-0.66-0.05-0.73-0.32c-0.07-0.26,0.15-0.55,0.48-0.63C43.58,52.26,43.91,52.41,43.97,52.67z M6.67,54.18
C6.7,54.08,6.71,54,6.66,53.94c-0.03-0.04-0.09-0.04-0.15,0c-0.1,0.06-0.23,0.22-0.31,0.44c-0.01,0.04-0.03,0.07-0.04,0.1
c-0.1,0.31-0.1,0.55-0.1,0.55s0.23-0.23,0.37-0.42c0.02-0.03,0.04-0.06,0.06-0.09C6.56,54.42,6.64,54.29,6.67,54.18z M5.39,52.67
c-0.16,0.12-0.59,0.5-0.34,1.1c0.29,0.69,0.95,0.73,1.12,0.72c0.01-0.03,0.02-0.07,0.04-0.1c0.08-0.23,0.21-0.38,0.31-0.44
c-0.03-0.21-0.08-0.47-0.14-0.64C6.29,53.09,6.1,52.82,6,52.68C5.89,52.73,5.7,52.75,5.39,52.67z M7.38,51.71
c-0.07-0.1-0.12-0.32-0.14-0.64c0-0.02,0-0.04,0-0.06c-0.18-0.14-0.81-0.58-1.42-0.09c-0.62,0.51-0.4,1.16-0.29,1.38
c0.12,0.02,0.4,0.07,0.51,0.16c0.14-0.11,0.38-0.3,0.6-0.43C6.87,51.89,7.18,51.78,7.38,51.71z M5.47,52.3
c-0.4-0.06-0.67,0.04-0.67,0.04s0.09,0.19,0.58,0.33c0,0,0.01,0,0.01,0c0.31,0.09,0.5,0.07,0.6,0.01c0.07-0.04,0.1-0.09,0.09-0.14
c0-0.03-0.02-0.05-0.05-0.07c-0.11-0.09-0.39-0.14-0.51-0.16C5.5,52.3,5.48,52.3,5.47,52.3z M7.56,50.85
C7.57,50.9,7.57,50.94,7.58,51C7.57,50.94,7.57,50.9,7.56,50.85z M8.44,53.79c-0.23-0.01-0.58,0-0.86,0.06
c-0.32,0.07-0.72,0.24-0.91,0.33c-0.04,0.12-0.11,0.25-0.17,0.35c-0.02,0.03-0.04,0.06-0.06,0.09c0.1,0.13,0.54,0.6,1.27,0.51
c0.84-0.11,1.05-0.68,1.09-0.83c-0.02-0.02-0.04-0.04-0.06-0.06C8.61,54.08,8.5,53.92,8.44,53.79z M9.43,52.21
c-0.08,0.04-0.16,0.08-0.22,0.1c-0.22,0.09-0.41,0.16-0.53,0.17c-0.05,0.13-0.1,0.32-0.11,0.53c-0.01,0.21,0.02,0.44,0.05,0.59
c0.1,0.08,0.22,0.21,0.36,0.39C9,54,9.01,54.01,9.02,54.03c0.03,0.05,0.06,0.09,0.08,0.13c0.25,0.01,0.8-0.06,0.92-0.84
C10.16,52.44,9.55,52.24,9.43,52.21z M9.33,52c0.02-0.11,0.18-0.96-0.58-1.35c-0.54-0.27-0.98,0.01-1.2,0.21
C7.57,50.9,7.57,50.94,7.58,51c0.03,0.27,0.02,0.52-0.02,0.66C7.62,51.7,7.85,51.88,8.11,52c0.23,0.11,0.51,0.19,0.59,0.21
c0.11-0.06,0.26-0.11,0.41-0.16C9.18,52.03,9.26,52.01,9.33,52z M7.58,51c-0.01-0.06-0.01-0.1-0.02-0.15
c-0.06-0.29-0.2-0.33-0.2-0.33s-0.14,0.08-0.12,0.48c0,0.02,0,0.04,0,0.06c0.02,0.32,0.07,0.55,0.14,0.64
c0.03,0.04,0.06,0.06,0.1,0.05c0.04,0,0.06-0.05,0.08-0.11c0,0,0,0,0-0.01C7.6,51.52,7.61,51.27,7.58,51z M9.43,52.21
c0.19-0.1,0.4-0.23,0.39-0.25C9.82,51.94,9.58,51.95,9.33,52c-0.08,0.02-0.16,0.03-0.23,0.06c-0.15,0.05-0.3,0.1-0.41,0.16
c-0.11,0.06-0.17,0.12-0.15,0.2c0.02,0.05,0.07,0.07,0.14,0.07c0.12-0.01,0.31-0.08,0.53-0.17C9.27,52.29,9.35,52.25,9.43,52.21z
M8.99,53.98c-0.14-0.18-0.26-0.31-0.36-0.39c-0.04-0.03-0.08-0.05-0.11-0.07c-0.05-0.02-0.08-0.02-0.11,0.01
c-0.02,0.03-0.02,0.07-0.01,0.13c0.01,0.04,0.02,0.08,0.05,0.12c0.06,0.13,0.17,0.29,0.3,0.44c0.02,0.02,0.04,0.05,0.06,0.06
c0.01,0.02,0.03,0.03,0.04,0.04c0.2,0.18,0.38,0.19,0.38,0.19s0-0.15-0.12-0.36c-0.02-0.04-0.05-0.09-0.08-0.13
C9.01,54.01,9,54,8.99,53.98z M7.96,52.67c0.07,0.26-0.15,0.55-0.48,0.63c-0.33,0.09-0.66-0.05-0.73-0.32
c-0.07-0.26,0.15-0.55,0.48-0.63C7.56,52.26,7.89,52.41,7.96,52.67z M24.75,37.42c0.03-0.09,0.04-0.18-0.01-0.23
c-0.03-0.04-0.09-0.04-0.15,0c-0.1,0.06-0.23,0.22-0.31,0.44c-0.01,0.04-0.03,0.07-0.04,0.1c-0.1,0.31-0.1,0.54-0.1,0.54
s0.23-0.23,0.37-0.42c0.02-0.03,0.04-0.06,0.06-0.09C24.64,37.66,24.71,37.54,24.75,37.42z M23.47,35.91
c-0.16,0.12-0.59,0.5-0.34,1.1c0.29,0.69,0.95,0.73,1.12,0.72c0.01-0.03,0.02-0.07,0.04-0.1c0.08-0.23,0.21-0.38,0.31-0.44
c-0.03-0.21-0.08-0.47-0.14-0.64c-0.08-0.21-0.27-0.48-0.38-0.63C23.97,35.97,23.78,36,23.47,35.91z M25.45,34.96
c-0.07-0.1-0.12-0.32-0.14-0.64c0-0.02,0-0.04,0-0.06c-0.18-0.14-0.81-0.58-1.42-0.09c-0.62,0.51-0.4,1.16-0.29,1.38
c0.12,0.02,0.4,0.07,0.51,0.16c0.14-0.11,0.38-0.3,0.6-0.43C24.95,35.13,25.26,35.02,25.45,34.96z M23.55,35.54
c-0.4-0.06-0.67,0.04-0.67,0.04s0.09,0.19,0.58,0.33c0,0,0.01,0,0.01,0c0.31,0.09,0.5,0.06,0.6,0.01c0.07-0.04,0.1-0.09,0.09-0.14
c0-0.03-0.02-0.05-0.05-0.07c-0.11-0.09-0.39-0.14-0.51-0.16C23.57,35.54,23.55,35.54,23.55,35.54z M25.63,34.09
c0.01,0.04,0.02,0.09,0.02,0.15C25.65,34.19,25.64,34.14,25.63,34.09z M26.52,37.03c-0.23-0.01-0.58,0-0.86,0.06
c-0.32,0.07-0.72,0.24-0.91,0.33c-0.04,0.12-0.11,0.25-0.17,0.35c-0.02,0.03-0.04,0.06-0.06,0.09c0.1,0.13,0.54,0.6,1.27,0.51
c0.84-0.11,1.05-0.68,1.09-0.83c-0.02-0.02-0.04-0.04-0.06-0.06C26.69,37.32,26.58,37.16,26.52,37.03z M27.5,35.45
c-0.08,0.04-0.16,0.08-0.22,0.1c-0.22,0.09-0.41,0.16-0.53,0.17c-0.05,0.13-0.1,0.32-0.11,0.53c-0.01,0.21,0.02,0.44,0.05,0.59
c0.1,0.08,0.22,0.21,0.36,0.39c0.01,0.02,0.02,0.03,0.04,0.05c0.03,0.05,0.06,0.09,0.08,0.14c0.25,0.01,0.8-0.06,0.92-0.84
C28.23,35.68,27.63,35.48,27.5,35.45z M27.41,35.24c0.02-0.1,0.18-0.96-0.58-1.35c-0.54-0.27-0.98,0.01-1.2,0.21
c0.01,0.04,0.02,0.09,0.02,0.15c0.03,0.27,0.02,0.52-0.02,0.66c0.06,0.05,0.29,0.22,0.55,0.34c0.23,0.11,0.51,0.19,0.59,0.21
c0.11-0.06,0.26-0.11,0.41-0.16C27.25,35.27,27.33,35.25,27.41,35.24z M25.65,34.24c-0.01-0.06-0.01-0.1-0.02-0.15
c-0.06-0.29-0.2-0.33-0.2-0.33s-0.14,0.08-0.12,0.48c0,0.02,0,0.04,0,0.06c0.02,0.32,0.07,0.55,0.14,0.64
c0.03,0.04,0.06,0.06,0.09,0.05c0.04,0,0.06-0.05,0.08-0.1c0,0,0-0.01,0-0.01C25.68,34.76,25.69,34.51,25.65,34.24z M27.5,35.45
c0.19-0.1,0.4-0.23,0.39-0.25c-0.01-0.01-0.24-0.01-0.49,0.04c-0.08,0.02-0.16,0.03-0.23,0.06c-0.15,0.05-0.3,0.1-0.41,0.16
c-0.11,0.06-0.17,0.12-0.15,0.2c0.02,0.06,0.07,0.07,0.14,0.07c0.12-0.01,0.31-0.08,0.53-0.17C27.34,35.53,27.42,35.49,27.5,35.45z
M27.06,37.22c-0.14-0.18-0.26-0.31-0.36-0.39c-0.04-0.03-0.08-0.05-0.11-0.07c-0.05-0.02-0.08-0.02-0.11,0.01
c-0.02,0.03-0.02,0.07-0.01,0.13c0.01,0.04,0.02,0.08,0.05,0.12c0.06,0.13,0.17,0.29,0.3,0.44c0.02,0.02,0.04,0.04,0.06,0.06
c0.01,0.02,0.03,0.03,0.04,0.04c0.2,0.18,0.38,0.19,0.38,0.19s0-0.15-0.12-0.36c-0.02-0.04-0.05-0.09-0.08-0.14
C27.09,37.26,27.08,37.24,27.06,37.22z M26.03,35.91c0.07,0.26-0.15,0.55-0.48,0.63c-0.34,0.09-0.66-0.06-0.73-0.32
c-0.07-0.26,0.15-0.55,0.48-0.63C25.64,35.51,25.97,35.65,26.03,35.91z M6.45,37.42c0.03-0.09,0.04-0.18-0.01-0.23
c-0.03-0.04-0.09-0.04-0.15,0c-0.1,0.06-0.23,0.22-0.31,0.44c-0.01,0.04-0.03,0.07-0.04,0.1c-0.1,0.31-0.1,0.54-0.1,0.54
s0.23-0.23,0.37-0.42c0.02-0.03,0.04-0.06,0.06-0.09C6.34,37.66,6.41,37.54,6.45,37.42z M5.16,35.91c-0.16,0.12-0.59,0.5-0.34,1.1
c0.29,0.69,0.95,0.73,1.12,0.72c0.01-0.03,0.02-0.07,0.04-0.1c0.08-0.23,0.21-0.38,0.31-0.44c-0.03-0.21-0.08-0.47-0.14-0.64
c-0.08-0.21-0.27-0.48-0.38-0.63C5.67,35.97,5.48,36,5.16,35.91z M7.15,34.96c-0.07-0.1-0.12-0.32-0.14-0.64c0-0.02,0-0.04,0-0.06
c-0.18-0.14-0.81-0.58-1.42-0.09c-0.62,0.51-0.4,1.16-0.29,1.38c0.12,0.02,0.4,0.07,0.51,0.16c0.14-0.11,0.38-0.3,0.6-0.43
C6.65,35.13,6.95,35.02,7.15,34.96z M5.24,35.54c-0.4-0.06-0.67,0.04-0.67,0.04s0.09,0.19,0.58,0.33c0,0,0.01,0,0.01,0
c0.31,0.09,0.5,0.06,0.6,0.01c0.07-0.04,0.1-0.09,0.09-0.14c0-0.03-0.02-0.05-0.05-0.07c-0.11-0.09-0.39-0.14-0.51-0.16
C5.27,35.54,5.25,35.54,5.24,35.54z M7.33,34.09c0.01,0.04,0.02,0.09,0.02,0.15C7.35,34.19,7.34,34.14,7.33,34.09z M8.22,37.03
c-0.23-0.01-0.58,0-0.86,0.06c-0.32,0.07-0.72,0.24-0.91,0.33c-0.04,0.12-0.11,0.25-0.17,0.35c-0.02,0.03-0.04,0.06-0.06,0.09
c0.1,0.13,0.54,0.6,1.27,0.51c0.84-0.11,1.05-0.68,1.09-0.83c-0.02-0.02-0.04-0.04-0.06-0.06C8.39,37.32,8.28,37.16,8.22,37.03z
M9.2,35.45c-0.08,0.04-0.16,0.08-0.22,0.1c-0.22,0.09-0.41,0.16-0.53,0.17c-0.05,0.13-0.1,0.32-0.11,0.53
c-0.01,0.21,0.02,0.44,0.05,0.59c0.1,0.08,0.22,0.21,0.36,0.39c0.01,0.02,0.02,0.03,0.04,0.05c0.03,0.05,0.06,0.09,0.08,0.14
c0.25,0.01,0.8-0.06,0.92-0.84C9.93,35.68,9.33,35.48,9.2,35.45z M9.11,35.24c0.02-0.1,0.18-0.96-0.58-1.35
c-0.54-0.27-0.98,0.01-1.2,0.21c0.01,0.04,0.02,0.09,0.02,0.15c0.03,0.27,0.02,0.52-0.02,0.66c0.06,0.05,0.29,0.22,0.55,0.34
c0.23,0.11,0.51,0.19,0.59,0.21c0.11-0.06,0.26-0.11,0.41-0.16C8.95,35.27,9.03,35.25,9.11,35.24z M7.35,34.24
c-0.01-0.06-0.01-0.1-0.02-0.15c-0.06-0.29-0.2-0.33-0.2-0.33S7,33.85,7.01,34.25c0,0.02,0,0.04,0,0.06
c0.02,0.32,0.07,0.55,0.14,0.64c0.03,0.04,0.06,0.06,0.1,0.05c0.04,0,0.06-0.05,0.08-0.1c0,0,0-0.01,0-0.01
C7.38,34.76,7.38,34.51,7.35,34.24z M9.2,35.45c0.19-0.1,0.4-0.23,0.39-0.25c-0.01-0.01-0.24-0.01-0.49,0.04
c-0.08,0.02-0.16,0.03-0.23,0.06c-0.15,0.05-0.3,0.1-0.41,0.16c-0.11,0.06-0.17,0.12-0.15,0.2c0.02,0.06,0.07,0.07,0.14,0.07
c0.12-0.01,0.31-0.08,0.53-0.17C9.04,35.53,9.12,35.49,9.2,35.45z M8.76,37.22c-0.14-0.18-0.26-0.31-0.36-0.39
c-0.04-0.03-0.08-0.05-0.11-0.07c-0.05-0.02-0.08-0.02-0.11,0.01c-0.02,0.03-0.02,0.07-0.01,0.13c0.01,0.04,0.02,0.08,0.05,0.12
c0.06,0.13,0.17,0.29,0.3,0.44c0.02,0.02,0.04,0.04,0.06,0.06c0.01,0.02,0.03,0.03,0.04,0.04C8.82,37.76,9,37.77,9,37.77
s0-0.15-0.12-0.36c-0.02-0.04-0.05-0.09-0.08-0.14C8.78,37.26,8.77,37.24,8.76,37.22z M7.73,35.91c0.07,0.26-0.15,0.55-0.48,0.63
c-0.33,0.09-0.66-0.06-0.73-0.32C6.45,35.96,6.67,35.68,7,35.59C7.34,35.51,7.66,35.65,7.73,35.91z M43.09,37.42
c0.03-0.09,0.04-0.18-0.01-0.23c-0.03-0.04-0.08-0.04-0.15,0c-0.1,0.06-0.23,0.22-0.31,0.44c-0.01,0.04-0.03,0.07-0.04,0.1
c-0.1,0.31-0.1,0.54-0.1,0.54s0.23-0.23,0.37-0.42c0.02-0.03,0.04-0.06,0.06-0.09C42.98,37.66,43.06,37.54,43.09,37.42z
M41.81,35.91c-0.16,0.12-0.59,0.5-0.34,1.1c0.29,0.69,0.95,0.73,1.12,0.72c0.01-0.03,0.02-0.07,0.04-0.1
c0.08-0.23,0.21-0.38,0.31-0.44c-0.03-0.21-0.08-0.47-0.14-0.64c-0.08-0.21-0.27-0.48-0.38-0.63C42.32,35.97,42.12,36,41.81,35.91z
M43.8,34.96c-0.07-0.1-0.12-0.32-0.14-0.64c0-0.02,0-0.04,0-0.06c-0.18-0.14-0.81-0.58-1.42-0.09c-0.62,0.51-0.4,1.16-0.29,1.38
c0.12,0.02,0.4,0.07,0.52,0.16c0.14-0.11,0.38-0.3,0.6-0.43C43.29,35.13,43.6,35.02,43.8,34.96z M41.89,35.54
c-0.4-0.06-0.67,0.04-0.67,0.04s0.09,0.19,0.58,0.33c0,0,0.01,0,0.01,0c0.31,0.09,0.5,0.06,0.6,0.01c0.07-0.04,0.1-0.09,0.09-0.14
c0-0.03-0.02-0.05-0.05-0.07c-0.11-0.09-0.4-0.14-0.52-0.16C41.92,35.54,41.9,35.54,41.89,35.54z M43.98,34.09
c0.01,0.04,0.02,0.09,0.02,0.15C43.99,34.19,43.99,34.14,43.98,34.09z M44.86,37.03c-0.23-0.01-0.58,0-0.86,0.06
c-0.32,0.07-0.72,0.24-0.91,0.33c-0.04,0.12-0.11,0.25-0.17,0.35c-0.02,0.03-0.04,0.06-0.06,0.09c0.1,0.13,0.54,0.6,1.27,0.51
c0.84-0.11,1.05-0.68,1.09-0.83c-0.02-0.02-0.04-0.04-0.06-0.06C45.03,37.32,44.93,37.16,44.86,37.03z M45.85,35.45
c-0.08,0.04-0.16,0.08-0.22,0.1c-0.22,0.09-0.41,0.16-0.53,0.17c-0.05,0.13-0.1,0.32-0.11,0.53c-0.01,0.21,0.02,0.44,0.05,0.59
c0.1,0.08,0.22,0.21,0.36,0.39c0.01,0.02,0.03,0.03,0.04,0.05c0.03,0.05,0.06,0.09,0.08,0.14c0.25,0.01,0.8-0.06,0.92-0.84
C46.58,35.68,45.97,35.48,45.85,35.45z M45.75,35.24c0.02-0.1,0.18-0.96-0.58-1.35c-0.53-0.27-0.98,0.01-1.2,0.21
c0.01,0.04,0.02,0.09,0.02,0.15c0.03,0.27,0.02,0.52-0.02,0.66c0.06,0.05,0.29,0.22,0.55,0.34c0.23,0.11,0.51,0.19,0.59,0.21
c0.11-0.06,0.26-0.11,0.41-0.16C45.6,35.27,45.68,35.25,45.75,35.24z M44,34.24c-0.01-0.06-0.01-0.1-0.02-0.15
c-0.06-0.29-0.2-0.33-0.2-0.33s-0.14,0.08-0.12,0.48c0,0.02,0,0.04,0,0.06c0.02,0.32,0.07,0.55,0.14,0.64
c0.03,0.04,0.06,0.06,0.1,0.05c0.04,0,0.06-0.05,0.08-0.1c0,0,0-0.01,0-0.01C44.02,34.76,44.03,34.51,44,34.24z M45.85,35.45
c0.19-0.1,0.4-0.23,0.39-0.25c-0.01-0.01-0.24-0.01-0.49,0.04c-0.08,0.02-0.16,0.03-0.23,0.06c-0.15,0.05-0.3,0.1-0.41,0.16
c-0.11,0.06-0.18,0.12-0.15,0.2c0.02,0.06,0.07,0.07,0.14,0.07c0.12-0.01,0.31-0.08,0.53-0.17C45.69,35.53,45.77,35.49,45.85,35.45z
M45.41,37.22c-0.14-0.18-0.26-0.31-0.36-0.39c-0.04-0.03-0.08-0.05-0.11-0.07c-0.05-0.02-0.08-0.02-0.11,0.01
c-0.02,0.03-0.02,0.07-0.01,0.13c0.01,0.04,0.02,0.08,0.05,0.12c0.06,0.13,0.17,0.29,0.3,0.44c0.02,0.02,0.04,0.04,0.06,0.06
c0.01,0.02,0.03,0.03,0.04,0.04c0.2,0.18,0.38,0.19,0.38,0.19s0-0.15-0.12-0.36c-0.02-0.04-0.05-0.09-0.08-0.14
C45.43,37.26,45.42,37.24,45.41,37.22z M44.38,35.91c0.07,0.26-0.15,0.55-0.48,0.63c-0.34,0.09-0.66-0.06-0.73-0.32
c-0.07-0.26,0.15-0.55,0.48-0.63C43.99,35.51,44.31,35.65,44.38,35.91z M24.75,20.66c0.03-0.09,0.04-0.18-0.01-0.24
c-0.03-0.04-0.09-0.04-0.15,0c-0.1,0.06-0.23,0.22-0.31,0.44c-0.01,0.04-0.03,0.07-0.04,0.11c-0.1,0.31-0.1,0.55-0.1,0.55
s0.23-0.23,0.37-0.42c0.02-0.03,0.04-0.06,0.06-0.09C24.64,20.91,24.71,20.78,24.75,20.66z M23.47,19.15
c-0.16,0.12-0.59,0.5-0.34,1.1c0.29,0.69,0.95,0.73,1.12,0.72c0.01-0.03,0.02-0.07,0.04-0.11c0.08-0.23,0.21-0.38,0.31-0.44
c-0.03-0.21-0.08-0.47-0.14-0.64c-0.08-0.21-0.27-0.48-0.38-0.63C23.97,19.21,23.78,19.24,23.47,19.15z M25.45,18.2
c-0.07-0.09-0.12-0.32-0.14-0.64c0-0.02,0-0.04,0-0.06c-0.18-0.14-0.81-0.58-1.42-0.09c-0.62,0.51-0.4,1.16-0.29,1.38
c0.12,0.02,0.4,0.07,0.51,0.16c0.14-0.11,0.38-0.3,0.6-0.43C24.95,18.37,25.26,18.26,25.45,18.2z M23.55,18.78
c-0.4-0.06-0.67,0.04-0.67,0.04s0.09,0.19,0.58,0.33c0,0,0.01,0,0.01,0c0.31,0.09,0.5,0.07,0.6,0.01c0.07-0.04,0.1-0.09,0.09-0.14
c0-0.03-0.02-0.05-0.05-0.07c-0.11-0.09-0.39-0.14-0.51-0.16C23.57,18.78,23.55,18.78,23.55,18.78z M25.63,17.34
c0.01,0.04,0.02,0.09,0.02,0.14C25.65,17.43,25.64,17.38,25.63,17.34z M26.52,20.27c-0.23-0.01-0.58,0-0.86,0.06
c-0.32,0.07-0.72,0.24-0.91,0.33c-0.04,0.12-0.11,0.25-0.17,0.35c-0.02,0.03-0.04,0.06-0.06,0.09c0.1,0.13,0.54,0.6,1.27,0.51
c0.84-0.11,1.05-0.68,1.09-0.83c-0.02-0.02-0.04-0.04-0.06-0.07C26.69,20.56,26.58,20.4,26.52,20.27z M27.5,18.69
c-0.08,0.04-0.16,0.08-0.22,0.1c-0.22,0.08-0.41,0.16-0.53,0.17c-0.05,0.13-0.1,0.32-0.11,0.53c-0.01,0.21,0.02,0.44,0.05,0.59
c0.1,0.08,0.22,0.21,0.36,0.39c0.01,0.02,0.02,0.03,0.04,0.05c0.03,0.05,0.06,0.09,0.08,0.14c0.25,0.01,0.8-0.06,0.92-0.84
C28.23,18.93,27.63,18.72,27.5,18.69z M27.41,18.48c0.02-0.11,0.18-0.96-0.58-1.35c-0.54-0.27-0.98,0.01-1.2,0.21
c0.01,0.04,0.02,0.09,0.02,0.14c0.03,0.27,0.02,0.52-0.02,0.66c0.06,0.05,0.29,0.22,0.55,0.34c0.23,0.11,0.51,0.19,0.59,0.21
c0.11-0.06,0.26-0.11,0.41-0.16C27.25,18.51,27.33,18.49,27.41,18.48z M25.65,17.48c-0.01-0.06-0.01-0.1-0.02-0.14
c-0.06-0.29-0.2-0.33-0.2-0.33s-0.14,0.08-0.12,0.49c0,0.02,0,0.04,0,0.06c0.02,0.32,0.07,0.55,0.14,0.64
c0.03,0.04,0.06,0.06,0.09,0.05c0.04,0,0.06-0.05,0.08-0.1c0,0,0-0.01,0-0.01C25.68,18,25.69,17.75,25.65,17.48z M27.5,18.69
c0.19-0.1,0.4-0.23,0.39-0.25c-0.01-0.01-0.24-0.01-0.49,0.04c-0.08,0.02-0.16,0.03-0.23,0.06c-0.15,0.05-0.3,0.1-0.41,0.16
c-0.11,0.06-0.17,0.12-0.15,0.2c0.02,0.05,0.07,0.07,0.14,0.07c0.12-0.01,0.31-0.08,0.53-0.17C27.34,18.77,27.42,18.73,27.5,18.69z
M27.06,20.46c-0.14-0.18-0.26-0.31-0.36-0.39c-0.04-0.03-0.08-0.05-0.11-0.07c-0.05-0.02-0.08-0.02-0.11,0.01
c-0.02,0.03-0.02,0.07-0.01,0.13c0.01,0.04,0.02,0.08,0.05,0.12c0.06,0.13,0.17,0.29,0.3,0.44c0.02,0.02,0.04,0.05,0.06,0.07
c0.01,0.02,0.03,0.03,0.04,0.04c0.2,0.18,0.38,0.19,0.38,0.19s0-0.15-0.12-0.36c-0.02-0.04-0.05-0.09-0.08-0.14
C27.09,20.5,27.08,20.48,27.06,20.46z M26.03,19.15c0.07,0.26-0.15,0.55-0.48,0.63c-0.34,0.09-0.66-0.06-0.73-0.32
c-0.07-0.26,0.15-0.55,0.48-0.63C25.64,18.75,25.97,18.89,26.03,19.15z M6.45,20.66c0.03-0.09,0.04-0.18-0.01-0.24
c-0.03-0.04-0.09-0.04-0.15,0c-0.1,0.06-0.23,0.22-0.31,0.44c-0.01,0.04-0.03,0.07-0.04,0.11c-0.1,0.31-0.1,0.55-0.1,0.55
s0.23-0.23,0.37-0.42c0.02-0.03,0.04-0.06,0.06-0.09C6.34,20.91,6.41,20.78,6.45,20.66z M5.16,19.15c-0.16,0.12-0.59,0.5-0.34,1.1
c0.29,0.69,0.95,0.73,1.12,0.72c0.01-0.03,0.02-0.07,0.04-0.11c0.08-0.23,0.21-0.38,0.31-0.44c-0.03-0.21-0.08-0.47-0.14-0.64
c-0.08-0.21-0.27-0.48-0.38-0.63C5.67,19.21,5.48,19.24,5.16,19.15z M7.15,18.2c-0.07-0.09-0.12-0.32-0.14-0.64
c0-0.02,0-0.04,0-0.06c-0.18-0.14-0.81-0.58-1.42-0.09c-0.62,0.51-0.4,1.16-0.29,1.38c0.12,0.02,0.4,0.07,0.51,0.16
c0.14-0.11,0.38-0.3,0.6-0.43C6.65,18.37,6.95,18.26,7.15,18.2z M5.24,18.78c-0.4-0.06-0.67,0.04-0.67,0.04s0.09,0.19,0.58,0.33
c0,0,0.01,0,0.01,0c0.31,0.09,0.5,0.07,0.6,0.01c0.07-0.04,0.1-0.09,0.09-0.14c0-0.03-0.02-0.05-0.05-0.07
c-0.11-0.09-0.39-0.14-0.51-0.16C5.27,18.78,5.25,18.78,5.24,18.78z M7.33,17.34c0.01,0.04,0.02,0.09,0.02,0.14
C7.35,17.43,7.34,17.38,7.33,17.34z M8.22,20.27c-0.23-0.01-0.58,0-0.86,0.06c-0.32,0.07-0.72,0.24-0.91,0.33
c-0.04,0.12-0.11,0.25-0.17,0.35c-0.02,0.03-0.04,0.06-0.06,0.09c0.1,0.13,0.54,0.6,1.27,0.51c0.84-0.11,1.05-0.68,1.09-0.83
c-0.02-0.02-0.04-0.04-0.06-0.07C8.39,20.56,8.28,20.4,8.22,20.27z M9.2,18.69c-0.08,0.04-0.16,0.08-0.22,0.1
c-0.22,0.08-0.41,0.16-0.53,0.17c-0.05,0.13-0.1,0.32-0.11,0.53c-0.01,0.21,0.02,0.44,0.05,0.59c0.1,0.08,0.22,0.21,0.36,0.39
c0.01,0.02,0.02,0.03,0.04,0.05c0.03,0.05,0.06,0.09,0.08,0.14c0.25,0.01,0.8-0.06,0.92-0.84C9.93,18.93,9.33,18.72,9.2,18.69z
M9.11,18.48c0.02-0.11,0.18-0.96-0.58-1.35c-0.54-0.27-0.98,0.01-1.2,0.21c0.01,0.04,0.02,0.09,0.02,0.14
c0.03,0.27,0.02,0.52-0.02,0.66c0.06,0.05,0.29,0.22,0.55,0.34c0.23,0.11,0.51,0.19,0.59,0.21c0.11-0.06,0.26-0.11,0.41-0.16
C8.95,18.51,9.03,18.49,9.11,18.48z M7.35,17.48c-0.01-0.06-0.01-0.1-0.02-0.14c-0.06-0.29-0.2-0.33-0.2-0.33S7,17.09,7.01,17.49
c0,0.02,0,0.04,0,0.06c0.02,0.32,0.07,0.55,0.14,0.64c0.03,0.04,0.06,0.06,0.1,0.05c0.04,0,0.06-0.05,0.08-0.1c0,0,0-0.01,0-0.01
C7.38,18,7.38,17.75,7.35,17.48z M9.2,18.69c0.19-0.1,0.4-0.23,0.39-0.25c-0.01-0.01-0.24-0.01-0.49,0.04
c-0.08,0.02-0.16,0.03-0.23,0.06c-0.15,0.05-0.3,0.1-0.41,0.16c-0.11,0.06-0.17,0.12-0.15,0.2c0.02,0.05,0.07,0.07,0.14,0.07
c0.12-0.01,0.31-0.08,0.53-0.17C9.04,18.77,9.12,18.73,9.2,18.69z M8.76,20.46c-0.14-0.18-0.26-0.31-0.36-0.39
c-0.04-0.03-0.08-0.05-0.11-0.07c-0.05-0.02-0.08-0.02-0.11,0.01c-0.02,0.03-0.02,0.07-0.01,0.13c0.01,0.04,0.02,0.08,0.05,0.12
c0.06,0.13,0.17,0.29,0.3,0.44c0.02,0.02,0.04,0.05,0.06,0.07c0.01,0.02,0.03,0.03,0.04,0.04C8.82,21.01,9,21.01,9,21.01
s0-0.15-0.12-0.36c-0.02-0.04-0.05-0.09-0.08-0.14C8.78,20.5,8.77,20.48,8.76,20.46z M7.73,19.15c0.07,0.26-0.15,0.55-0.48,0.63
c-0.33,0.09-0.66-0.06-0.73-0.32C6.45,19.21,6.67,18.92,7,18.83C7.34,18.75,7.66,18.89,7.73,19.15z M43.09,20.66
c0.03-0.09,0.04-0.18-0.01-0.24c-0.03-0.04-0.08-0.04-0.15,0c-0.1,0.06-0.23,0.22-0.31,0.44c-0.01,0.04-0.03,0.07-0.04,0.11
c-0.1,0.31-0.1,0.55-0.1,0.55s0.23-0.23,0.37-0.42c0.02-0.03,0.04-0.06,0.06-0.09C42.98,20.91,43.06,20.78,43.09,20.66z
M41.81,19.15c-0.16,0.12-0.59,0.5-0.34,1.1c0.29,0.69,0.95,0.73,1.12,0.72c0.01-0.03,0.02-0.07,0.04-0.11
c0.08-0.23,0.21-0.38,0.31-0.44c-0.03-0.21-0.08-0.47-0.14-0.64c-0.08-0.21-0.27-0.48-0.38-0.63
C42.32,19.21,42.12,19.24,41.81,19.15z M43.8,18.2c-0.07-0.09-0.12-0.32-0.14-0.64c0-0.02,0-0.04,0-0.06
c-0.18-0.14-0.81-0.58-1.42-0.09c-0.62,0.51-0.4,1.16-0.29,1.38c0.12,0.02,0.4,0.07,0.52,0.16c0.14-0.11,0.38-0.3,0.6-0.43
C43.29,18.37,43.6,18.26,43.8,18.2z M41.89,18.78c-0.4-0.06-0.67,0.04-0.67,0.04s0.09,0.19,0.58,0.33c0,0,0.01,0,0.01,0
c0.31,0.09,0.5,0.07,0.6,0.01c0.07-0.04,0.1-0.09,0.09-0.14c0-0.03-0.02-0.05-0.05-0.07c-0.11-0.09-0.4-0.14-0.52-0.16
C41.92,18.78,41.9,18.78,41.89,18.78z M43.98,17.34c0.01,0.04,0.02,0.09,0.02,0.14C43.99,17.43,43.99,17.38,43.98,17.34z
M44.86,20.27c-0.23-0.01-0.58,0-0.86,0.06c-0.32,0.07-0.72,0.24-0.91,0.33c-0.04,0.12-0.11,0.25-0.17,0.35
c-0.02,0.03-0.04,0.06-0.06,0.09c0.1,0.13,0.54,0.6,1.27,0.51c0.84-0.11,1.05-0.68,1.09-0.83c-0.02-0.02-0.04-0.04-0.06-0.07
C45.03,20.56,44.93,20.4,44.86,20.27z M45.85,18.69c-0.08,0.04-0.16,0.08-0.22,0.1c-0.22,0.08-0.41,0.16-0.53,0.17
c-0.05,0.13-0.1,0.32-0.11,0.53c-0.01,0.21,0.02,0.44,0.05,0.59c0.1,0.08,0.22,0.21,0.36,0.39c0.01,0.02,0.03,0.03,0.04,0.05
c0.03,0.05,0.06,0.09,0.08,0.14c0.25,0.01,0.8-0.06,0.92-0.84C46.58,18.93,45.97,18.72,45.85,18.69z M45.75,18.48
c0.02-0.11,0.18-0.96-0.58-1.35c-0.53-0.27-0.98,0.01-1.2,0.21c0.01,0.04,0.02,0.09,0.02,0.14c0.03,0.27,0.02,0.52-0.02,0.66
c0.06,0.05,0.29,0.22,0.55,0.34c0.23,0.11,0.51,0.19,0.59,0.21c0.11-0.06,0.26-0.11,0.41-0.16C45.6,18.51,45.68,18.49,45.75,18.48z
M44,17.48c-0.01-0.06-0.01-0.1-0.02-0.14c-0.06-0.29-0.2-0.33-0.2-0.33s-0.14,0.08-0.12,0.49c0,0.02,0,0.04,0,0.06
c0.02,0.32,0.07,0.55,0.14,0.64c0.03,0.04,0.06,0.06,0.1,0.05c0.04,0,0.06-0.05,0.08-0.1c0,0,0-0.01,0-0.01
C44.02,18,44.03,17.75,44,17.48z M45.85,18.69c0.19-0.1,0.4-0.23,0.39-0.25c-0.01-0.01-0.24-0.01-0.49,0.04
c-0.08,0.02-0.16,0.03-0.23,0.06c-0.15,0.05-0.3,0.1-0.41,0.16c-0.11,0.06-0.18,0.12-0.15,0.2c0.02,0.05,0.07,0.07,0.14,0.07
c0.12-0.01,0.31-0.08,0.53-0.17C45.69,18.77,45.77,18.73,45.85,18.69z M45.41,20.46c-0.14-0.18-0.26-0.31-0.36-0.39
c-0.04-0.03-0.08-0.05-0.11-0.07c-0.05-0.02-0.08-0.02-0.11,0.01c-0.02,0.03-0.02,0.07-0.01,0.13c0.01,0.04,0.02,0.08,0.05,0.12
c0.06,0.13,0.17,0.29,0.3,0.44c0.02,0.02,0.04,0.05,0.06,0.07c0.01,0.02,0.03,0.03,0.04,0.04c0.2,0.18,0.38,0.19,0.38,0.19
s0-0.15-0.12-0.36c-0.02-0.04-0.05-0.09-0.08-0.14C45.43,20.5,45.42,20.48,45.41,20.46z M44.38,19.15c0.07,0.26-0.15,0.55-0.48,0.63
c-0.34,0.09-0.66-0.06-0.73-0.32c-0.07-0.26,0.15-0.55,0.48-0.63C43.99,18.75,44.31,18.89,44.38,19.15z M24.75,68.44
c0.03-0.09,0.04-0.18-0.01-0.24c-0.03-0.04-0.09-0.04-0.15,0c-0.1,0.06-0.23,0.22-0.31,0.44c-0.01,0.04-0.03,0.07-0.04,0.1
c-0.1,0.31-0.1,0.55-0.1,0.55s0.23-0.23,0.37-0.42c0.02-0.03,0.04-0.06,0.06-0.09C24.64,68.69,24.71,68.56,24.75,68.44z
M23.47,66.93c-0.16,0.12-0.59,0.5-0.34,1.1c0.29,0.69,0.95,0.73,1.12,0.72c0.01-0.03,0.02-0.07,0.04-0.1
c0.08-0.23,0.21-0.38,0.31-0.44c-0.03-0.2-0.08-0.47-0.14-0.64c-0.08-0.21-0.27-0.48-0.38-0.63C23.97,67,23.78,67.02,23.47,66.93z
M25.45,65.98c-0.07-0.09-0.12-0.32-0.14-0.64c0-0.02,0-0.04,0-0.06c-0.18-0.14-0.81-0.58-1.42-0.09c-0.62,0.51-0.4,1.16-0.29,1.38
c0.12,0.02,0.4,0.07,0.51,0.16c0.14-0.11,0.38-0.3,0.6-0.43C24.95,66.16,25.26,66.05,25.45,65.98z M23.55,66.56
c-0.4-0.06-0.67,0.04-0.67,0.04s0.09,0.19,0.58,0.33c0,0,0.01,0,0.01,0c0.31,0.09,0.5,0.06,0.6,0.01c0.07-0.04,0.1-0.09,0.09-0.14
c0-0.03-0.02-0.05-0.05-0.07c-0.11-0.09-0.39-0.14-0.51-0.16C23.57,66.57,23.55,66.56,23.55,66.56z M25.63,65.12
c0.01,0.04,0.02,0.09,0.02,0.14C25.65,65.21,25.64,65.16,25.63,65.12z M26.52,68.05c-0.23-0.01-0.58,0-0.86,0.06
c-0.32,0.07-0.72,0.24-0.91,0.33c-0.04,0.12-0.11,0.25-0.17,0.35c-0.02,0.03-0.04,0.06-0.06,0.09c0.1,0.13,0.54,0.6,1.27,0.51
c0.84-0.11,1.05-0.68,1.09-0.83c-0.02-0.02-0.04-0.04-0.06-0.06C26.69,68.34,26.58,68.18,26.52,68.05z M27.5,66.47
c-0.08,0.04-0.16,0.08-0.22,0.1c-0.22,0.08-0.41,0.16-0.53,0.17c-0.05,0.13-0.1,0.32-0.11,0.53c-0.01,0.21,0.02,0.44,0.05,0.59
c0.1,0.08,0.22,0.21,0.36,0.39c0.01,0.02,0.02,0.03,0.04,0.05c0.03,0.05,0.06,0.09,0.08,0.13c0.25,0.01,0.8-0.06,0.92-0.84
C28.23,66.71,27.63,66.51,27.5,66.47z M27.41,66.26c0.02-0.11,0.18-0.96-0.58-1.35c-0.54-0.27-0.98,0.01-1.2,0.21
c0.01,0.04,0.02,0.09,0.02,0.14c0.03,0.27,0.02,0.52-0.02,0.66c0.06,0.05,0.29,0.22,0.55,0.34c0.23,0.11,0.51,0.19,0.59,0.21
c0.11-0.06,0.26-0.11,0.41-0.16C27.25,66.3,27.33,66.28,27.41,66.26z M25.65,65.27c-0.01-0.05-0.01-0.1-0.02-0.14
c-0.06-0.29-0.2-0.33-0.2-0.33s-0.14,0.08-0.12,0.48c0,0.02,0,0.04,0,0.06c0.02,0.32,0.07,0.55,0.14,0.64
c0.03,0.04,0.06,0.06,0.09,0.05c0.04,0,0.06-0.05,0.08-0.1c0,0,0-0.01,0-0.01C25.68,65.78,25.69,65.53,25.65,65.27z M27.5,66.47
c0.19-0.1,0.4-0.23,0.39-0.25c-0.01-0.02-0.24-0.01-0.49,0.04c-0.08,0.02-0.16,0.03-0.23,0.06c-0.15,0.05-0.3,0.1-0.41,0.16
c-0.11,0.06-0.17,0.12-0.15,0.2c0.02,0.06,0.07,0.07,0.14,0.07c0.12-0.01,0.31-0.08,0.53-0.17C27.34,66.56,27.42,66.52,27.5,66.47z
M27.06,68.25c-0.14-0.18-0.26-0.31-0.36-0.39c-0.04-0.03-0.08-0.05-0.11-0.07c-0.05-0.02-0.08-0.02-0.11,0.01
c-0.02,0.03-0.02,0.07-0.01,0.13c0.01,0.04,0.02,0.08,0.05,0.12c0.06,0.13,0.17,0.29,0.3,0.44c0.02,0.02,0.04,0.05,0.06,0.06
c0.01,0.02,0.03,0.03,0.04,0.04c0.2,0.18,0.38,0.19,0.38,0.19s0-0.15-0.12-0.36c-0.02-0.04-0.05-0.09-0.08-0.13
C27.09,68.28,27.08,68.26,27.06,68.25z M26.03,66.94c0.07,0.26-0.15,0.55-0.48,0.63c-0.34,0.09-0.66-0.06-0.73-0.32
c-0.07-0.26,0.15-0.55,0.48-0.63C25.64,66.53,25.97,66.67,26.03,66.94z M41.02,56.34c0,0,0.71-1.01-1.79-2.02
c-1.85-0.75-4.4-0.59-6.03-0.82c-1.36-0.19-1.51-0.5-1.43-0.84c0.16-0.75,1.43-0.26,2.23,0.17c0.86,0.46,2.39,0.61,3.5-0.42
c0.4-0.37,0.95-0.5,0.95-0.5s-0.66-0.42-1.2-0.05c-0.22,0.15-0.4,0.31-0.85,0.35c-0.8,0.06-0.94-0.2-0.94-0.2s0.41,0.27,1.4-0.24
c1.3-0.67,0.51-2.12,0.51-2.12s0.09,0.52-0.46,0.88c-0.76,0.5-1.4,0.04-1.4,0.04s0.29,0.15,0.75-0.02c0.57-0.22,0.75-0.51,0.56-0.9
c-0.08-0.16-0.35-0.36-0.35-0.36s0.62,0.83-1.84,0.65c-1.25-0.09-1.68,1.17-1.68,1.17s-0.57-0.15-0.97-0.01
c0.03-0.19,0-0.52-0.1-0.71c-0.13,0.65-0.63,1.06-0.85,1.34c-0.23,0.28-0.72,1-0.1,1.86c0.61,0.72,1.73,0.82,2.44,0.88
c1.05,0.08,2.79,0.17,4.32,0.39c2.07,0.29,1.71,1.28,1.46,1.59c-0.26,0.32-0.76,0.34-2.2-0.17c-1.44-0.51-2.94-1.4-5.95-1.29
c-4.15,0.16-7.1,3.2-8.62,3.04c0,0,0.08,0.36,0.05,0.61c-0.14,1.05-1.09,1.62-1.09,1.62s-0.05-0.22-0.13-0.21
c-0.1,0.02,0,0.23-0.35,0.48c-0.32,0.24-0.49,0.51-0.61,1.01c0,0-0.17-0.34-0.27-0.04c-0.13,0.39-0.33,0.4-0.44,0.45
c0,0-0.01-0.19-0.1-0.19c-0.13,0.01-0.19,0.84-1.63,0.7l-0.11,0.03c-1.06,0.18-1.25-0.87-1.63-1.23c-0.25-0.24-0.54,0.19-0.54,0.19
s-0.21-0.22-0.18-0.63c0.03-0.43,0.11-0.57-0.07-0.87c-0.13-0.22-0.68-0.69-0.48-1.49c-0.25-0.01-0.76-0.19-0.96-1.68
c-0.01-0.1,0.18,0.02,0.18,0.02c-0.04-0.23-0.24-0.31-0.28-0.58c-0.06-0.38-0.1-1.13,0.11-1.39c0.32-0.4,1.21-0.54,0.78-1.32
c-0.03,0.08-0.08,0.16-0.14,0.22c-0.05,0.06-0.13,0.09-0.21,0.09c-0.15-0.01-0.27-0.13-0.27-0.28c0-0.1,0.07-0.17,0.15-0.26
c0.01-0.01,0.01-0.01,0.01-0.02c-0.16-0.02-0.3,0.04-0.38,0.08c0.02-0.17,0.31-1.07-0.45-1.28c0.01,0.12,0,0.26-0.05,0.36
c-0.03,0.07-0.09,0.13-0.17,0.15c-0.14,0.05-0.3-0.03-0.35-0.18c-0.03-0.1,0.01-0.18,0.05-0.29c0.02-0.04,0.03-0.08,0.04-0.11
c-0.74,0.09-0.59,1.05-0.58,1.2c-0.02-0.21-0.47-0.83-0.9-0.55c0,0-0.02,0.02-0.04,0.04c0.06,0.04,0.11,0.09,0.14,0.14
c0.04,0.06,0.06,0.14,0.05,0.22c-0.03,0.15-0.18,0.24-0.33,0.21c-0.1-0.02-0.16-0.1-0.22-0.19c-0.01-0.01-0.01-0.02-0.02-0.02
c-0.16,0.2-0.13,0.56,0.28,0.87c0.61,0.46,0.82,2.35,0.72,2.59c-0.13,0.33-0.46-0.14-0.46-0.14s-0.06,0.43,0.25,0.87
c0.55,0.78,0.71,1.13,0.3,0.99c-0.13-0.04-0.26-0.16-0.26-0.16s0.02,0.39,0.52,0.8c0.2,0.16,0.17,0.25,0.03,0.23
c-0.16-0.02-0.29-0.12-0.29-0.12s0.13,0.36,0.39,0.69c0.42,0.57,0.8,0.8,0.8,0.8s-0.47-0.04-1.15-0.44c-1.02-0.6-0.59-1.01-0.9-1.72
c-0.29-0.67-0.48-0.79-0.79-0.82c-0.01,0-0.02,0-0.03,0c0.02,0.05,0.04,0.1,0.04,0.14c0.01,0.08-0.01,0.16-0.06,0.22
c-0.1,0.12-0.27,0.13-0.39,0.04c-0.08-0.06-0.09-0.16-0.11-0.27v0c-0.29,0.15-0.28,0.46-0.25,0.6C9.44,58,9.07,57.7,8.81,57.66
c-0.16-0.03-0.35,0.01-0.52,0.1c-0.01,0-0.01,0.01-0.02,0.01c0.02,0.01,0.04,0.02,0.05,0.04c0.06,0.05,0.1,0.12,0.11,0.2
c0.01,0.15-0.11,0.28-0.26,0.29c-0.1,0.01-0.18-0.05-0.27-0.12c-0.01-0.01-0.03-0.02-0.04-0.03c-0.18,0.32-0.12,0.93,0.93,1.27
c0,0-0.51,0.08-0.67,0.45c0.12-0.01,0.25,0.01,0.35,0.06c0.07,0.03,0.13,0.09,0.15,0.17c0.05,0.15-0.03,0.3-0.18,0.35
c-0.1,0.03-0.18-0.01-0.29-0.06c-0.02-0.01-0.03-0.01-0.05-0.02c0.12,0.53,0.55,0.61,0.91,0.61c1.57-0.02,2.8,0.74,2.8,0.74
s-0.34,0.02-0.53,0.26c-0.2,0.26-0.15,0.4-0.15,0.4s0.14-0.13,0.53-0.2c0.42-0.07,0.5,0.08,0.5,0.08s-0.61,0.22-0.37,0.86
c0,0,0.25-0.27,0.62-0.4c0.32-0.11,0.68-0.09,0.82,0.12c0.2,0.28-0.64,0.57-0.64,0.57c0.59,0.35,1.87,0.18,1.87,0.18
s-0.9,0.16-0.89,0.75c0,0,0.56-0.43,1.65,0c1.66,0.64,3.69,0.95,6.34-0.13c3.35-1.36,3.44-4.26,8.09-5.8
c0.15,0.23,1.2,1.21,2.51,1.69c1.05,0.39,2.54,0.66,3,0.77c0.65,0.16,1.82,0.41,1.12,1.68c-0.33,0.59-0.63,0.77-0.92,0.99
c-0.05-0.01-0.4-0.11-0.89-0.29c-0.29-0.11-0.5-0.04-0.6,0.16c0.08,0,0.16,0.01,0.22,0.04c0.06,0.03,0.12,0.08,0.14,0.15
c0.05,0.13-0.02,0.27-0.15,0.32c-0.09,0.03-0.17,0-0.26-0.04c-0.01,0-0.01,0-0.02-0.01c0.04,0.36,0.33,0.4,0.33,0.4
s-0.34,0.13-0.34,0.45c0.06-0.03,0.12-0.05,0.18-0.05c0.07-0.01,0.14,0.01,0.19,0.06c0.1,0.09,0.11,0.25,0.02,0.35
c-0.06,0.07-0.15,0.08-0.25,0.09c0.01,0.01,0.02,0.01,0.03,0.02c0.2,0.26,0.8,0.06,0.8,0.06s-0.14,0.31,0.05,0.53
c0.03-0.09,0.07-0.18,0.13-0.24c0.05-0.05,0.11-0.09,0.18-0.09c0.14,0,0.25,0.11,0.25,0.25c0,0.09-0.06,0.16-0.12,0.24
c-0.01,0.01-0.02,0.03-0.03,0.04c0.04,0.01,0.07,0.01,0.1,0.01c0.28-0.04,0.7-0.31,0.89-0.93c0.23-0.72,0.46-0.87,0.46-0.87
s0.6-0.57,0.37,0.45c0.6-0.16,0.52-0.81,0.52-0.81s0.48,0.22,0.62,0.1c0.2-0.16,0-0.63,0.24-0.96c0.25-0.37,0.4,0.06,0.31,0.36
c0,0,0.37-0.11,0.38-0.59c0.02-0.31-0.11-0.67,0.18-0.93c0.21-0.18,0.27,0.08,0.21,0.33c0,0,0.28,0.01,0.33-0.48
c0.03-0.3-0.04-0.39,0.05-0.43c0.11-0.05,0.18,0.24,0.18,0.24s0.25-0.57-0.27-0.91c-0.88-0.57-3.1-0.18-4.43-2.28
c-0.48-0.76-0.13-1.12-0.13-1.12s2.37,1.12,3.64,0.93c1.54-0.22,1.55-1.05,1.55-1.05s0.25,0.05,0.03,0.55c0,0,0.28-0.06,0.4-0.45
c0.22-0.74-0.24-1.2-0.24-1.2C41.01,55.89,41.02,56.34,41.02,56.34z M8.44,60.44c0.14-0.05,0.23-0.2,0.18-0.35
c-0.02-0.08-0.08-0.14-0.15-0.17c-0.1-0.05-0.23-0.06-0.35-0.06c-0.02,0-0.03,0-0.05,0c-0.48,0.06-0.61,0.41-0.68,0.6
c0,0,0.29-0.25,0.71-0.11c0.02,0.01,0.03,0.01,0.05,0.02C8.26,60.44,8.35,60.47,8.44,60.44z M8.16,58.3
c0.15-0.01,0.27-0.14,0.26-0.29c-0.01-0.08-0.05-0.15-0.11-0.2c-0.01-0.01-0.03-0.02-0.05-0.04c-0.09-0.06-0.21-0.1-0.32-0.11
c-0.48-0.06-0.69,0.25-0.81,0.42c0,0,0.35-0.17,0.72,0.07c0.01,0.01,0.03,0.02,0.04,0.03C7.99,58.25,8.06,58.3,8.16,58.3z M10,57.9
c0.12,0.1,0.29,0.08,0.39-0.04c0.05-0.06,0.07-0.14,0.06-0.22c-0.01-0.05-0.02-0.1-0.04-0.14c-0.03-0.08-0.08-0.15-0.13-0.22
c-0.31-0.37-0.68-0.29-0.87-0.24c0,0,0.4,0.12,0.49,0.59v0C9.9,57.74,9.92,57.83,10,57.9z M14.02,53.55c0,0.15,0.11,0.28,0.27,0.28
c0.08,0,0.16-0.03,0.21-0.09c0.06-0.06,0.1-0.14,0.14-0.22c0.02-0.05,0.03-0.09,0.04-0.14c0.1-0.47-0.19-0.71-0.34-0.84
c0,0,0.15,0.38-0.15,0.73c0,0.01-0.01,0.01-0.01,0.02C14.09,53.37,14.03,53.45,14.02,53.55z M12.78,52.41
c0.05,0.15,0.2,0.23,0.35,0.18c0.08-0.02,0.14-0.08,0.17-0.15c0.05-0.1,0.06-0.24,0.05-0.36c0-0.01,0-0.03,0-0.04
c-0.06-0.48-0.41-0.61-0.6-0.68c0,0,0.23,0.26,0.13,0.64c-0.01,0.04-0.02,0.07-0.04,0.11C12.79,52.22,12.75,52.31,12.78,52.41z
M11.21,53.26c0.15,0.03,0.3-0.06,0.33-0.21c0.02-0.08,0-0.16-0.05-0.22c-0.03-0.05-0.08-0.1-0.14-0.14
c-0.05-0.04-0.12-0.08-0.18-0.1c-0.44-0.19-0.73,0.05-0.89,0.17c0,0,0.39-0.07,0.68,0.29c0.01,0.01,0.01,0.01,0.02,0.02
C11.05,53.16,11.11,53.24,11.21,53.26z M34.09,63.9c0.13-0.05,0.2-0.19,0.15-0.32c-0.03-0.07-0.08-0.12-0.14-0.15
c-0.06-0.03-0.14-0.04-0.22-0.04c-0.05,0-0.09,0-0.14,0.01c-0.43,0.07-0.53,0.39-0.59,0.56c0,0,0.27-0.25,0.66-0.11
c0.01,0,0.01,0,0.02,0.01C33.92,63.9,34,63.93,34.09,63.9z M34.18,64.72c-0.05-0.05-0.13-0.07-0.19-0.06
c-0.06,0-0.12,0.02-0.18,0.05c-0.05,0.02-0.11,0.05-0.15,0.09c-0.34,0.26-0.29,0.6-0.26,0.77c0,0,0.12-0.35,0.55-0.41h0
c0.1-0.01,0.19-0.02,0.25-0.09C34.28,64.97,34.28,64.81,34.18,64.72z M35.37,65.69c0-0.14-0.11-0.25-0.25-0.25
c-0.07,0-0.14,0.03-0.18,0.09c-0.06,0.06-0.1,0.15-0.13,0.24c-0.01,0.03-0.02,0.06-0.02,0.09c-0.07,0.43,0.19,0.63,0.34,0.74
c0,0-0.14-0.32,0.09-0.63c0.01-0.01,0.02-0.03,0.03-0.04C35.32,65.85,35.37,65.78,35.37,65.69z M34.23,61.12
c-2.7-0.52-3.26-0.85-4.35-1.91c-0.11,0.05-0.54,0.81,0.61,1.91c0.45,0.43,0.89,0.56,0.89,0.56s-0.79-0.14-1.81-0.04
c-0.47-0.14-0.82-0.74-1.46-0.99c-0.21-0.08-0.39-0.08-0.53-0.01c0.07,0.03,0.14,0.07,0.19,0.12c0.05,0.05,0.08,0.12,0.08,0.19
c-0.01,0.14-0.12,0.24-0.26,0.24c-0.09,0-0.15-0.06-0.23-0.13c-0.02-0.02-0.04-0.03-0.06-0.05c-0.03,0.17,0.02,0.38,0.23,0.59
c-0.29-0.01-0.58,0.14-0.65,0.48c0.09-0.04,0.19-0.06,0.27-0.05c0.07,0,0.14,0.03,0.18,0.09c0.09,0.11,0.07,0.26-0.03,0.35
c-0.07,0.06-0.16,0.06-0.26,0.05c-0.05,0-0.09,0-0.14,0.01c0.01,0.01,0.01,0.03,0.02,0.04c0.2,0.6,1.11,0.16,1.11,0.16
s-0.47,0.34-0.21,0.75c0.03-0.06,0.06-0.12,0.1-0.16c0.04-0.05,0.11-0.09,0.18-0.09c0.14,0,0.25,0.11,0.25,0.25
c0,0.09-0.05,0.16-0.12,0.23c-0.02,0.03-0.04,0.06-0.06,0.08c0.64,0.25,1.15-0.72,1.15-0.75c-0.02,0.7,0.53,0.86,0.53,0.86
s-0.08-0.3,0.21-0.5c0.32-0.22,0.81-0.16,0.85-0.16c-0.09,0.35,0.04,0.52,0.24,0.58c0.05-0.75,1.44-0.77,1.44-0.77
c0.08,0.29,0.39,0.39,0.39,0.39S33,63.02,33.29,62.8c0.3-0.23,0.8-0.24,1.33-0.54C35.25,61.91,35.12,61.24,34.23,61.12z
M28.37,63.47c0-0.14-0.11-0.25-0.25-0.25c-0.07,0-0.14,0.03-0.18,0.09c-0.04,0.04-0.07,0.1-0.1,0.16
c-0.02,0.05-0.04,0.11-0.05,0.17c-0.07,0.43,0.19,0.63,0.34,0.74c0,0-0.13-0.29,0.06-0.59c0.02-0.03,0.04-0.06,0.06-0.08
C28.32,63.62,28.38,63.56,28.37,63.47z M27.31,62.46c0.1-0.09,0.12-0.24,0.03-0.35c-0.05-0.06-0.12-0.09-0.18-0.09
c-0.08-0.01-0.18,0.02-0.27,0.05c-0.03,0.01-0.05,0.02-0.08,0.04c-0.38,0.21-0.37,0.55-0.36,0.73c0,0,0.14-0.26,0.46-0.32
c0.04-0.01,0.09-0.01,0.14-0.01C27.16,62.52,27.24,62.52,27.31,62.46z M27.59,61.19c0.14,0,0.25-0.1,0.26-0.24
c0-0.07-0.03-0.14-0.08-0.19c-0.05-0.05-0.12-0.09-0.19-0.12c-0.04-0.02-0.09-0.03-0.13-0.04c-0.42-0.09-0.64,0.17-0.76,0.3
c0,0,0.31-0.12,0.61,0.1c0.02,0.01,0.04,0.03,0.06,0.05C27.44,61.13,27.5,61.19,27.59,61.19z M22.59,55.87
c0.11-0.97-0.56-0.9-0.56-0.9s0.27-0.19,0.36-0.54c0.16-0.6-0.2-1.39-0.2-1.39s-0.36,0.66-0.8,0.19c0,0,0.25-0.26,0.2-0.85
c-0.05,0.17-1.4,1.2-1.78-0.65c-0.77,0.17-0.7,0.92-1.18,0.86c-0.25-0.03-0.5-0.23-0.31-0.72c0,0-0.69,0.04-0.8,0.76
c-0.13,0.89-0.57-0.3-1.15-0.26c-0.01,0-0.44,0.48-0.42,1.47c-0.53,0.02-0.77,0.44-0.82,1.11c-0.15,1.9-0.65,1.27-0.64,1.31
c0.17,1.17,0.82,0.55,0.82,0.55c-0.11,0.82-0.85,0.37-0.85,0.37c0.21,1.25,0.73,0.84,0.73,0.84c-0.24,1.04,0.16,1.31,0.3,1.51
c0.18,0.26,0.27,0.36,0.2,0.8c-0.06,0.4-0.03,0.54-0.03,0.54s0.31-0.32,0.54-0.08c0.35,0.37,0.55,1.47,1.35,1.34
c0,0-0.09-0.48,0.08-0.48c0.16,0,0.22,0.42,0.22,0.42c0.22,0.03,0.82,0.12,1.15-0.31c0.2-0.26,0.25-0.62,0.46-0.6
c0.16,0.01,0.17,0.31,0.17,0.31c0.14-0.09,0.17-0.17,0.23-0.51c0.08-0.43,0.29,0.02,0.29,0.02c0.06-0.31,0.22-0.6,0.52-0.79
c0.37-0.24,0.27-0.89,0.49-1.06c0.24-0.17,0.29,0.53,0.29,0.53s0.82-0.63,0.53-1.71c-0.13-0.48-0.26-0.9-0.11-0.94
c0.15-0.04,0.12,0.43,0.44,0.62c0.23,0.13,0.58-0.05,0.58-0.05C22.47,57.13,22.54,56.34,22.59,55.87z M16.88,55.16l0-0.04v-0.04
l0.03,0.02l0.52,0.22c-0.04,0.03-0.07,0.06-0.09,0.11c-0.08,0.15-0.02,0.34,0.14,0.42c0.15,0.08,0.34,0.02,0.42-0.14
c0.03-0.06,0.04-0.13,0.03-0.2h0c0,0,0.35,0.13,0.32,0.56c-0.03,0.33-0.24,0.72-0.24,0.72s-0.17-0.08-0.08-0.36
c0.1-0.36,0.05-0.36,0.05-0.36s-0.36,0.08-0.63-0.07l-0.03-0.02C16.89,55.75,16.88,55.22,16.88,55.16z M19.09,58.8
c-0.38,0.33-0.31,0.82-0.39,1.16c-0.1,0.41-0.47,0.61-0.88,0.53c-0.36-0.06-0.69-0.27-0.72-0.65c-0.03-0.43,0.68-1,0.22-1.53
c-0.37-0.44-0.35-0.65-0.35-0.65s0.1,0.14,0.34,0.26c0.09,0.05,0.81,0.38,0.95-0.17c0.04-0.14-0.07-0.22-0.16-0.29
c-0.05-0.04-0.13-0.07-0.17-0.12c-0.11-0.13-0.02-0.28-0.02-0.28s0.2,0.26,0.55,0.32c0.36,0.06,0.67-0.1,0.67-0.1
s0.08,0.25-0.21,0.29c-0.16,0.02-0.39,0.03-0.42,0.22c-0.09,0.65,0.84,0.51,1.12,0.46c0.23-0.04,0.33-0.07,0.33-0.07
C19.77,58.46,19.43,58.51,19.09,58.8z M20.81,55.88l-0.02,0.04c-0.02,0.06-0.24,0.54-0.72,0.59l-0.03,0
c-0.31,0.02-0.61-0.18-0.61-0.18s-0.05-0.02-0.09,0.35c-0.03,0.3-0.21,0.3-0.21,0.3s-0.04-0.44,0.06-0.76
c0.13-0.4,0.51-0.39,0.51-0.39h0c-0.04,0.06-0.06,0.12-0.05,0.19c0.01,0.17,0.17,0.3,0.34,0.29c0.18-0.01,0.3-0.17,0.29-0.34
c0-0.05-0.02-0.09-0.05-0.14l0.56,0l0.04,0L20.81,55.88z M17.73,60.25c0.8,0.21,0.82-0.63,0.83-0.78c0.05-0.85,0.64-0.92,0.74-1.02
c-0.27,0.05-0.82,0.04-1-0.28c-0.19,0.1-0.5,0.16-0.87,0c0.11,0.11,0.19,0.28,0.21,0.35c0.08,0.21,0.01,0.46-0.08,0.66
C17.48,59.36,17,60.06,17.73,60.25z M38.92,46.04c-6.47-0.22-8.1-2.06-8.1-2.06s-0.74,1.23,2.23,2.53c0,0-1-0.16-1.56-0.19
c-0.66-0.03-1.37,0.1-1.37,0.1s-0.75-0.69-1.27-0.87c-0.17-0.06-0.45-0.14-0.69,0.01c0.08,0.03,0.15,0.07,0.2,0.12
c0.06,0.05,0.09,0.12,0.09,0.2c0,0.15-0.12,0.27-0.27,0.27c-0.1,0-0.17-0.06-0.26-0.14c-0.03-0.02-0.06-0.04-0.09-0.06
c-0.13,0.36,0.1,0.6,0.26,0.7c-0.75,0.16-0.97,0.35-0.98,0.74c0.08-0.04,0.17-0.06,0.24-0.06c0.08,0,0.15,0.02,0.21,0.08
c0.11,0.11,0.1,0.28,0,0.38c-0.07,0.07-0.17,0.08-0.28,0.08c-0.02,0-0.04,0.01-0.06,0.01c0.16,0.27,0.49,0.41,0.97,0.25
c0.22-0.07,0.28-0.11,0.28-0.11s-0.41,0.47-0.24,0.91c0.04-0.06,0.09-0.12,0.14-0.16c0.06-0.05,0.14-0.07,0.22-0.06
c0.15,0.03,0.24,0.17,0.22,0.32c-0.02,0.1-0.09,0.16-0.18,0.23c-0.02,0.02-0.04,0.04-0.06,0.05c0.05,0.02,0.12,0.04,0.19,0.07
c0.42,0.12,0.76-0.23,1.04-0.58c0.57-0.69,1.13-0.48,1.13-0.48c-0.38,0.38-0.03,0.84-0.03,0.84s0.31-0.73,0.83-0.53
c-0.1,0.45,0.34,0.7,0.34,0.7s0.27-0.72,0.61-0.72c0.46,0,0.23,0.69,0.23,0.69s0.25-0.03,0.64-0.42c0.26-0.26,0.48-0.54,1.01-0.5
c-0.01,0.09,0.07,0.58,0.53,0.8c-0.01-1.72,2.4-1.95,2.8-2.02C39.04,46.93,38.92,46.04,38.92,46.04z M28.18,46.15
c0.15,0,0.27-0.12,0.27-0.27c0-0.08-0.04-0.15-0.09-0.2c-0.05-0.05-0.13-0.09-0.2-0.12c-0.05-0.02-0.1-0.04-0.15-0.04
c-0.47-0.08-0.7,0.21-0.82,0.37c0,0,0.32-0.14,0.65,0.08c0.03,0.02,0.06,0.04,0.09,0.06C28,46.09,28.08,46.15,28.18,46.15z
M27.56,47.78c0.11-0.11,0.11-0.28,0-0.38c-0.06-0.06-0.13-0.08-0.21-0.08c-0.08,0-0.16,0.03-0.24,0.06
c-0.04,0.02-0.09,0.04-0.13,0.07c-0.39,0.27-0.35,0.64-0.33,0.84c0,0,0.14-0.35,0.56-0.41c0.02,0,0.04-0.01,0.06-0.01
C27.4,47.86,27.49,47.85,27.56,47.78z M28.81,49.03c0.03-0.15-0.07-0.29-0.22-0.32c-0.08-0.02-0.16,0.01-0.22,0.06
c-0.05,0.04-0.1,0.09-0.14,0.16c-0.03,0.05-0.06,0.11-0.08,0.17c-0.17,0.45,0.08,0.72,0.21,0.87c0,0-0.08-0.36,0.21-0.65
c0.02-0.02,0.04-0.04,0.06-0.05C28.71,49.19,28.79,49.13,28.81,49.03z M16.41,43.82c0.89,0.31,0.99-0.64,1.01-0.81
c0.14-0.96,0.81-0.99,0.93-1.09c-0.32,0.04-0.94-0.04-1.11-0.42c-0.22,0.1-0.59,0.13-0.99-0.08c0.11,0.14,0.19,0.33,0.21,0.41
c0.07,0.25-0.03,0.52-0.15,0.74C16.2,42.78,15.6,43.54,16.41,43.82z M22.41,38c0.27-0.66-0.06-1.87-0.06-1.87s-0.54,0.86-1,0.4
c-0.42-0.42,0.03-1.11,0.03-1.11c-0.52-0.17-0.96,0.55-1.6,0.19c-0.45-0.25,0.08-1.06,0.08-1.06s-0.59-0.02-1.05,0.21
c-0.45,0.22-0.66,0.41-0.97,0.4c-0.44-0.02-0.28-0.73-0.28-0.73s-0.51-0.01-0.82,0.52c-0.3,0.52-0.64,0.66-0.64,0.66
c-0.14-0.23-0.45-0.23-0.68-0.29c-0.26-0.07-0.43-0.2-0.43-0.2s-0.48,0.92-0.26,1.69c-0.36,0.1-0.46,0.5-0.52,0.7
c-0.42,1.52-1.05,0.84-1.04,0.89c0.12,1.34,0.9,1.3,0.83,1.62c-0.09,0.42-0.81-0.15-0.81-0.15c0.02,0.95,0.45,1.01,0.62,1.57
c0.15,0.49-0.16,0.82,0.09,1.57c0.26,0.78,0.07,1.06,0.07,1.06c0.53,0.01,0.87-0.37,0.87-0.37c-0.1,1,0.36,1.46,0.36,1.46
s0.29-0.61,0.42-0.2c0.33,1.08,0.87,1.47,0.87,1.47s0.49-0.02,1.35-0.93c0.6-0.64,0.33,0.19,0.33,0.19s0.42,0.03,1.3-1.57
c0.28-0.52,0.75-0.82,0.92,0.02c1-1.08,0.65-2.25,0.65-2.66c0-0.37,0.18-0.41,0.19-0.24c0.1,1,1.15,0.66,1.15,0.66
s-0.42-0.43,0.01-1.96c0.22-0.76-0.21-1.5-0.21-1.5S22.36,38.13,22.41,38z M15.9,37.95l0-0.05l0-0.05l0.04,0.02l0.57,0.3
c-0.05,0.03-0.09,0.07-0.12,0.11c-0.1,0.17-0.05,0.39,0.12,0.5c0.17,0.1,0.39,0.05,0.49-0.12c0.04-0.07,0.05-0.15,0.05-0.22l0,0
c0,0,0.39,0.18,0.31,0.66c-0.06,0.38-0.33,0.8-0.33,0.8s-0.18-0.11-0.06-0.42c0.15-0.4,0.09-0.4,0.09-0.4s-0.41,0.05-0.71-0.13
l-0.03-0.02C15.86,38.62,15.89,38.02,15.9,37.95z M18.09,42.3c-0.46,0.34-0.43,0.9-0.55,1.28c-0.15,0.46-0.59,0.65-1.05,0.52
c-0.4-0.1-0.76-0.37-0.76-0.8c0-0.49,0.86-1.07,0.4-1.72c-0.38-0.53-0.34-0.77-0.34-0.77s0.1,0.17,0.36,0.33
c0.09,0.06,0.89,0.51,1.1-0.11c0.05-0.16-0.06-0.26-0.16-0.34c-0.05-0.05-0.14-0.1-0.18-0.15c-0.12-0.16,0-0.32,0-0.32
s0.2,0.32,0.6,0.41c0.41,0.1,0.77-0.05,0.77-0.05s0.07,0.3-0.26,0.31c-0.18,0.01-0.45,0-0.49,0.22c-0.16,0.73,0.91,0.66,1.24,0.63
c0.26-0.02,0.38-0.05,0.38-0.05C18.89,41.97,18.5,42,18.09,42.3z M20.31,39.13l-0.02,0.04c-0.03,0.06-0.32,0.59-0.88,0.61l-0.04,0
c-0.35,0-0.68-0.26-0.68-0.26s-0.05-0.03-0.14,0.39c-0.06,0.34-0.27,0.33-0.27,0.33s-0.01-0.5,0.14-0.85
c0.19-0.45,0.61-0.4,0.61-0.4h0c-0.04,0.06-0.08,0.13-0.08,0.21c0,0.2,0.16,0.36,0.36,0.36c0.2,0,0.36-0.16,0.36-0.36
c0-0.06-0.02-0.11-0.04-0.16l0.64,0.05h0.04L20.31,39.13z M46.58,45.33c0,0,0.06-0.92-0.61-1.16c-0.88-0.32-2.01,0.09-4.26-0.12
c-5.46-0.51-4.79-2.49-4.79-2.49s3.43,1.53,4.89,0.81c0.8-0.39,0.75-1.09,0.75-1.09c0.23,0.26-0.02,0.78-0.02,0.78
s1.41-1.04-0.27-2.65c-0.61-0.59-1.72-1.02-2.55-1.13c-2.4-0.31-3.32-0.18-5.01-0.42c-1.42-0.2-1.74-0.7-1.66-1.1
c0.22-1.17,2.86,0.5,4.31-0.15c0.39-0.17,0.71-0.44,1.05-0.52c0.35-0.08,0.71,0.03,0.71,0.03s-0.34-0.62-1.46-0.38
c-0.92,0.2-0.99-0.12-0.99-0.12s0.43,0.04,0.99-0.29c0.36-0.21,0.46-0.67,0.85-0.84c0.48-0.21,0.97-0.01,0.97-0.01
s-0.63-1.07-1.84-0.45c-0.82,0.54-1.12,0.14-1.12,0.14s0.64,0,0.99-0.71c0.31-0.61,0.7-0.71,0.7-0.71s-0.62-0.3-1.15,0.22
c-0.34,0.33-0.84,0.43-1.68,0.42c-1.08-0.02-1.51,1.27-1.51,1.27s-0.43,0.03-0.8,0.21c-0.32,0.16-0.69,0.53-0.69,0.53L32.49,35
c0,0-0.8,0.4-0.82,1.63c-0.04,2.07,2.21,2.24,2.94,2.3c1.09,0.08,3.17,0.14,4.77,0.36c2.16,0.3,2.22,1.3,1.93,1.76
c-0.31,0.52-1.21,0.25-2.7-0.27c-1.5-0.53-2.77-1.4-5.8-1.31c-4.79,0.15-9.86,3.58-11.33,2.7c0.07,0.56-0.06,1.7-1.32,2.73
c-0.05-0.85-0.31-0.74-0.6-0.22c-0.8,1.45-1.64,1.59-1.64,1.59s0.15-0.49-0.38-0.02c-0.55,0.48-1.17,0.56-1.17,0.56
s-0.76-0.55-0.94-1.41c-0.02-0.11-0.16,0.27-0.16,0.27c-0.64-0.31-0.79-1.33-0.79-1.33s-0.31,0.2-1.01,0.09c0,0,0.39-0.43-0.05-1.56
c-0.88,0-4.35-0.61-4.79-2.41c-0.16-0.67-0.36-0.99-0.78-1.02c0.04,0.04,0.07,0.08,0.09,0.13c0.04,0.07,0.05,0.16,0.02,0.24
c-0.06,0.15-0.22,0.23-0.38,0.17c-0.1-0.04-0.15-0.13-0.21-0.24c-0.02-0.04-0.04-0.07-0.07-0.1c-0.34,0.27-0.23,0.83-0.23,0.83
c-0.39-0.33-1.2-0.87-1.67-0.54c0.09,0.04,0.17,0.08,0.23,0.14c0.07,0.06,0.11,0.14,0.11,0.23c0,0.17-0.14,0.31-0.31,0.31
c-0.11,0-0.2-0.07-0.29-0.16c-0.05-0.04-0.09-0.07-0.14-0.1c-0.41,0.67,0.94,1.41,0.94,1.41c-0.51-0.03-1.24,0.37-1.23,0.84
c0.07-0.04,0.15-0.07,0.23-0.07c0.08-0.01,0.16,0.01,0.23,0.07c0.12,0.11,0.13,0.29,0.03,0.41c-0.07,0.08-0.17,0.09-0.29,0.11
c-0.02,0-0.04,0.01-0.06,0.01c0.13,0.28,0.37,0.46,1.03,0.28c1.6-0.45,2.68-0.16,2.68-0.16s-0.05,0.53-0.77,0.39
c-0.03-0.01,0.28,0.41,0.93,0.41c0.85,0,1.31-0.34,1.32-0.35c0,0,0.04,0.2-0.2,0.33c-0.51,0.26-0.18,0.83-0.18,0.83
c0.28-0.63,0.8-0.38,0.8-0.38c-0.09,0.12-0.21,0.49,0.09,0.77c0,0,0.03-0.36,0.6-0.51c0.39-0.1,0.73,0.04,0.73,0.04
s-0.33,0.47,0.07,0.99c0,0,0.17-0.76,0.7-0.54c0.22,0.09,0.19,0.33,0.13,0.43c-0.1,0.15-0.34,0.2-0.34,0.2
c0.82,0.39,1.03-0.26,1.66,0.33c-0.81,0.37-1.83,0.45-2.77,0.4c-1.97-0.17-2.38-0.56-2.85-0.99c-0.63-0.61-1.13-0.67-1.43-0.58
c0.04,0.02,0.07,0.05,0.1,0.08c0.07,0.06,0.11,0.14,0.11,0.23c0,0.17-0.14,0.31-0.31,0.31c-0.11,0-0.2-0.07-0.29-0.16
c-0.02-0.02-0.05-0.04-0.07-0.05c-0.17,0.3,0.15,0.57,0.24,0.71c-0.12-0.02-0.27-0.05-0.37-0.07c-0.42-0.09-0.77,0.06-0.87,0.37
c0.12-0.02,0.24-0.01,0.33,0.02c0.08,0.02,0.16,0.08,0.2,0.17c0.07,0.16,0.01,0.34-0.15,0.42c-0.1,0.05-0.21,0.02-0.33-0.02
c-0.04-0.01-0.08-0.02-0.11-0.02c0.12,0.54,0.74,0.6,1.22,0.63c-0.23,0.14-0.47,0.34-0.42,0.66c0.07-0.06,0.15-0.11,0.23-0.14
c0.07-0.03,0.15-0.02,0.23,0.02c0.13,0.07,0.18,0.24,0.11,0.37c-0.05,0.09-0.14,0.12-0.25,0.16c-0.03,0.01-0.05,0.02-0.08,0.04
c0.38,0.41,1.32-0.13,1.58-0.28c0.75-0.42,1.39-0.35,1.76-0.17c0.7,0.34-0.24,0.63-0.24,0.63c0.23,0.19,0.6,0.1,0.83,0
c0.21-0.09,0.41-0.26,0.51-0.11c0.06,0.09,0.03,0.25-0.13,0.39c-0.12,0.1-0.3,0.14-0.3,0.14c0.87,0.33,1.68-0.47,1.68-0.47
s0.07,0.11-0.01,0.32c-0.13,0.34-0.46,0.47-0.46,0.47c0.94,0.28,1.43-0.84,1.43-0.84s0.45,0.35-0.11,0.84
c0.78,0.02,0.88-0.61,1.26-0.37c0.22,0.14,0.1,0.46-0.22,0.53c0.89,0.3,0.82-0.5,1.86-0.32c1.52,0.26,3.26,0.49,5.94-0.55
c4.1-1.58,4.52-5.2,9.01-5.7c0,0,0.38,0.79,3.45,1.62c3.26,0.88,8.26,0.2,8.04,1.76c-0.11,0.79-2.34-0.35-2.62,0.44
c-0.01,0.01-0.01,0.03-0.01,0.04c0.09-0.02,0.17-0.02,0.25-0.01c0.07,0.01,0.14,0.05,0.19,0.12c0.08,0.13,0.04,0.3-0.09,0.37
c-0.08,0.05-0.18,0.04-0.29,0.02c-0.01,0-0.02,0-0.04,0c0.09,0.17,0.27,0.26,0.46,0.3c-0.27,0.14-0.42,0.25-0.45,0.6
c0,0.03,0,0.07,0,0.1c0.05-0.04,0.11-0.07,0.16-0.09c0.07-0.03,0.15-0.03,0.22,0.01c0.13,0.07,0.18,0.23,0.11,0.37
c-0.05,0.09-0.13,0.12-0.24,0.16c-0.01,0.01-0.02,0.01-0.03,0.02c0.17,0.16,0.4,0.23,0.62,0.16c0.24-0.08,0.35-0.16,0.39-0.21
c-0.07,0.13-0.22,0.42-0.15,0.66c0.02,0.1,0.07,0.16,0.12,0.21c0.02-0.09,0.05-0.18,0.1-0.25c0.04-0.06,0.11-0.11,0.19-0.12
c0.15-0.02,0.28,0.08,0.31,0.23c0.01,0.1-0.04,0.18-0.1,0.27c-0.01,0.01-0.01,0.03-0.02,0.04c0.57,0.02,1.08-0.74,1.18-1.41
c0.13-0.85,0.39-0.72,0.39-0.72s0.01,0.17,0.16,0.32c0.15,0.15,0.34,0.16,0.34,0.16c-0.03-0.58,0.4-0.76,0.59-0.6
c0.19,0.16,0.03,0.51,0.03,0.51s0.29,0.1,0.64-0.48c0.19-0.31,0.18-0.71,0.41-0.74c0.31-0.01,0.18,0.38,0.18,0.38
c0.72-0.39,0.27-1.54,0.55-1.67c0.22-0.06,0.13,0.36,0.13,0.36s0.45-0.24,0.32-0.74C46.22,44.73,46.58,45.33,46.58,45.33z
M5.19,43.01c0.11-0.12,0.09-0.3-0.03-0.41c-0.07-0.06-0.15-0.08-0.23-0.07c-0.07,0.01-0.15,0.03-0.23,0.07
c-0.06,0.03-0.11,0.06-0.16,0.1c-0.4,0.32-0.32,0.71-0.28,0.92c0,0,0.13-0.39,0.58-0.49c0.02,0,0.04-0.01,0.06-0.01
C5.02,43.1,5.12,43.09,5.19,43.01z M5.43,40.61c0.17,0,0.31-0.14,0.31-0.31c0-0.09-0.04-0.18-0.11-0.23
c-0.06-0.06-0.14-0.1-0.23-0.14c-0.06-0.02-0.12-0.04-0.18-0.05c-0.54-0.1-0.8,0.24-0.94,0.42c0,0,0.35-0.15,0.71,0.07
c0.05,0.03,0.09,0.06,0.14,0.1C5.23,40.54,5.32,40.61,5.43,40.61z M7.58,39.97c0.15,0.06,0.32-0.02,0.38-0.17
c0.03-0.08,0.02-0.17-0.02-0.24c-0.02-0.04-0.05-0.09-0.09-0.13c-0.06-0.07-0.13-0.13-0.21-0.17C7.21,39,6.87,39.2,6.68,39.31
c0,0,0.37-0.02,0.63,0.32c0.02,0.03,0.05,0.06,0.07,0.1C7.43,39.84,7.48,39.93,7.58,39.97z M6.87,48.55
c0.07-0.13,0.02-0.3-0.11-0.37c-0.07-0.04-0.15-0.04-0.23-0.02c-0.08,0.02-0.16,0.07-0.23,0.14c-0.04,0.03-0.07,0.06-0.1,0.1
c-0.3,0.37-0.15,0.72-0.07,0.91c0,0,0.04-0.36,0.4-0.55c0.03-0.01,0.05-0.03,0.08-0.04C6.73,48.67,6.82,48.64,6.87,48.55z
M6.94,45.66c0.17,0,0.31-0.14,0.31-0.31c0-0.09-0.04-0.18-0.11-0.23c-0.03-0.03-0.06-0.05-0.1-0.08c-0.09-0.06-0.2-0.1-0.31-0.12
c-0.54-0.1-0.8,0.24-0.94,0.42c0,0,0.39-0.16,0.78,0.11c0.02,0.02,0.05,0.04,0.07,0.05C6.74,45.58,6.83,45.66,6.94,45.66z
M5.96,47.05c0.16-0.07,0.22-0.26,0.15-0.42c-0.04-0.08-0.11-0.14-0.2-0.17c-0.1-0.03-0.22-0.04-0.33-0.02
c-0.04,0.01-0.08,0.01-0.12,0.02c-0.53,0.14-0.62,0.56-0.67,0.78c0,0,0.27-0.3,0.72-0.24c0.04,0.01,0.07,0.01,0.11,0.02
C5.75,47.07,5.86,47.1,5.96,47.05z M40.13,47.62c0.13-0.08,0.17-0.25,0.09-0.37c-0.04-0.07-0.11-0.11-0.19-0.12
c-0.07-0.02-0.16-0.01-0.25,0.01c-0.05,0.01-0.1,0.02-0.14,0.04c-0.44,0.17-0.48,0.54-0.51,0.74c0,0,0.23-0.32,0.67-0.27
c0.01,0,0.02,0,0.04,0C39.95,47.65,40.04,47.67,40.13,47.62z M40.31,48.92c0.07-0.13,0.02-0.3-0.11-0.37
c-0.07-0.04-0.15-0.04-0.22-0.01c-0.05,0.02-0.11,0.05-0.16,0.09c-0.06,0.04-0.11,0.1-0.15,0.15c-0.29,0.37-0.14,0.71-0.06,0.9
c0,0,0.03-0.39,0.44-0.58c0.01-0.01,0.02-0.01,0.03-0.02C40.18,49.05,40.26,49.01,40.31,48.92z M41.62,49.77
c-0.02-0.15-0.16-0.25-0.31-0.23c-0.08,0.01-0.15,0.06-0.19,0.12c-0.05,0.07-0.08,0.16-0.1,0.25c-0.01,0.04-0.01,0.09-0.02,0.13
c-0.02,0.47,0.3,0.66,0.47,0.76c0,0-0.2-0.33,0.02-0.72c0.01-0.01,0.01-0.03,0.02-0.04C41.58,49.95,41.63,49.87,41.62,49.77z
M5.25,23.94c0.17,0.04,0.34-0.06,0.38-0.23c0.02-0.09,0-0.18-0.05-0.25c-0.02-0.03-0.04-0.06-0.07-0.09
c-0.08-0.08-0.18-0.15-0.28-0.2c-0.5-0.22-0.83,0.04-1.01,0.18c0,0,0.47-0.08,0.79,0.36c0,0.01,0.01,0.01,0.01,0.01
C5.08,23.83,5.14,23.91,5.25,23.94z M38.54,30.02c-5.64-0.17-7.51-2.22-7.51-2.22s-0.95,1.45,1.39,2.4c0,0-0.43-0.12-0.99-0.17
c-0.66-0.05-0.95-0.06-0.95-0.06s-0.49-0.76-1.37-0.91c-0.24-0.04-0.47-0.05-0.68-0.02c0.01,0.01,0.03,0.02,0.04,0.03
c0.05,0.05,0.08,0.13,0.08,0.21c-0.01,0.15-0.14,0.26-0.29,0.25c-0.1-0.01-0.17-0.07-0.24-0.16c-0.03-0.03-0.07-0.06-0.11-0.09
c-0.01,0.01-0.02,0.02-0.03,0.03c-0.14,0.17-0.21,0.41-0.08,0.69c-0.81,0.11-1.07,0.36-1.13,0.69c0,0,0,0,0,0
c0.12-0.04,0.28-0.06,0.39-0.03c0.07,0.02,0.14,0.06,0.18,0.13c0.07,0.13,0.02,0.3-0.11,0.37c-0.09,0.05-0.18,0.03-0.29,0
c-0.06-0.01-0.12-0.02-0.18-0.02c0.08,0.43,0.59,0.73,1.4,0.39c0.2-0.08-0.5,0.24-0.22,0.96c0.02-0.05,0.04-0.1,0.06-0.13
c0.04-0.06,0.1-0.11,0.18-0.13c0.15-0.03,0.29,0.07,0.31,0.22c0.02,0.1-0.03,0.18-0.09,0.28c-0.04,0.07-0.06,0.14-0.08,0.2
c0,0,0,0,0,0c0.69,0.3,1.41-0.53,1.5-0.92c0,0,0.07,0.5,0.37,0.71c0.01,0,0.04-0.21,0.2-0.39c0.3-0.33,0.27,0.06,0.27,0.06
c0,0.59,0.37,0.69,0.37,0.69s-0.06-0.68,0.47-0.79c0.21,0.73,1.02-0.39,0.94-0.05c-0.18,0.74,0.14,0.97,0.14,0.97
s0.07-0.89,1.85-0.99c-0.02,0.09,0.05,0.59,0.5,0.82c0.13-1.71,2.55-1.73,2.96-1.8C38.96,31.08,38.54,30.02,38.54,30.02z
M28.26,29.54c0.15,0.01,0.28-0.1,0.29-0.25c0.01-0.08-0.02-0.16-0.08-0.21c-0.01-0.01-0.02-0.02-0.04-0.03
c-0.08-0.07-0.2-0.13-0.31-0.16c-0.46-0.12-0.71,0.15-0.84,0.3c0,0,0.31-0.11,0.62,0.11c0.04,0.03,0.07,0.05,0.11,0.09
C28.09,29.47,28.16,29.54,28.26,29.54z M26.84,31.18c0.11,0.03,0.2,0.04,0.29,0c0.13-0.07,0.18-0.24,0.11-0.37
c-0.04-0.07-0.11-0.12-0.18-0.13c-0.12-0.03-0.27-0.01-0.39,0.03c0,0,0,0,0,0c-0.45,0.15-0.51,0.52-0.54,0.71
c0,0,0.19-0.24,0.54-0.25C26.72,31.17,26.78,31.17,26.84,31.18z M28.4,32.47c-0.03-0.15-0.17-0.25-0.31-0.22
c-0.08,0.01-0.15,0.06-0.18,0.13c-0.03,0.04-0.05,0.09-0.06,0.13c-0.03,0.08-0.04,0.17-0.04,0.25c0,0.48,0.33,0.65,0.5,0.74
c0,0-0.16-0.24-0.07-0.55c0.02-0.06,0.04-0.13,0.08-0.2C28.37,32.65,28.41,32.57,28.4,32.47z M21.99,22.97
c0.2-0.92-0.53-0.94-0.53-0.94s0.31-0.21,0.43-0.6c0.2-0.69-0.17-1.6-0.17-1.6s-0.24,0.68-1,0.35c0,0,0.37-0.44,0.08-1.26
c-0.06,0.19-0.21,0.38-0.43,0.51c-0.38,0.22-0.83,0.18-0.99-0.11c-0.14-0.25-0.03-0.59,0.26-0.82c-0.11-0.03-0.58-0.15-1.02-0.02
c-0.46,0.14-1.17,0.6-1.17,0.6s-0.48-0.38-0.24-0.92c0,0-0.72-0.08-0.97,0.76c-0.11,0.36-0.41,0.4-0.41,0.4s-0.06-0.58-0.58-0.75
c-0.01,0-0.98,0.69-0.96,1.99c-0.36,0.11-0.5,0.52-0.54,0.73c-0.44,2.66-1.13,1.4-1.12,1.44c0.15,1.34,1.06,1.15,1.06,1.15
c-0.16,0.93-1.13,0.44-1.13,0.44c0.36,1.36,1.17,0.79,1.17,0.79c-0.58,1-0.14,1.76,0.17,2.53c0.33,0.71,0.32,1.31,0.32,1.31
s0.39-0.21,0.6-0.2c0.3,0,0.2,0.32,0.21,0.73c0.01,0.57,0.24,0.73,0.24,0.73s0.03-0.11,0.13-0.25c0.15-0.23,0.24-0.2,0.24-0.2
s-0.08,0.71,0.38,1.06c0,0,0.65-0.95,1.02-0.88c0.24,0.04,0.38,0.62,0.38,0.62c1.88-1.2,2.14-3.81,2.49-2.88
c0.09,0.23,0.1,0.45,0.1,0.45s1.15-0.69,1.03-3.23c0,0,0.21,0.21,0.56,0.31c0.36,0.1,0.56-0.01,0.56-0.01S21.66,24.51,21.99,22.97z
M15.62,21.91l0-0.05l0-0.05l0.04,0.02l0.57,0.29c-0.05,0.03-0.09,0.07-0.11,0.12c-0.1,0.17-0.05,0.39,0.12,0.49
c0.17,0.1,0.39,0.05,0.49-0.12c0.04-0.07,0.05-0.15,0.04-0.22l0,0c0,0,0.39,0.18,0.32,0.66c-0.05,0.38-0.32,0.8-0.32,0.8
s-0.19-0.1-0.07-0.42c0.14-0.4,0.08-0.4,0.08-0.4s-0.41,0.06-0.71-0.12l-0.03-0.02C15.59,22.59,15.61,21.98,15.62,21.91z
M17.88,26.22c-0.46,0.34-0.42,0.91-0.53,1.29c-0.14,0.46-0.58,0.66-1.04,0.54c-0.4-0.09-0.77-0.36-0.77-0.79
c-0.01-0.49,0.84-1.09,0.37-1.73c-0.39-0.53-0.35-0.76-0.35-0.76s0.1,0.17,0.37,0.33c0.09,0.06,0.89,0.5,1.1-0.13
c0.05-0.16-0.06-0.26-0.16-0.34c-0.05-0.05-0.14-0.09-0.18-0.15c-0.12-0.15,0-0.32,0-0.32s0.21,0.31,0.6,0.4
c0.41,0.09,0.77-0.07,0.77-0.07s0.08,0.3-0.26,0.32c-0.18,0.01-0.45,0.01-0.49,0.22c-0.15,0.73,0.92,0.64,1.25,0.61
c0.26-0.02,0.38-0.05,0.38-0.05C18.68,25.89,18.29,25.92,17.88,26.22z M20.05,23.02l-0.02,0.04c-0.03,0.06-0.31,0.6-0.87,0.62
l-0.04,0c-0.35,0.01-0.68-0.25-0.68-0.25s-0.06-0.02-0.13,0.39c-0.05,0.34-0.27,0.33-0.27,0.33s-0.02-0.5,0.12-0.86
c0.18-0.45,0.61-0.41,0.61-0.41l0,0c-0.04,0.06-0.07,0.13-0.07,0.21c0,0.2,0.17,0.36,0.36,0.35c0.2,0,0.36-0.17,0.35-0.37
c0-0.06-0.02-0.11-0.04-0.16l0.64,0.04l0.04,0L20.05,23.02z M16.22,27.78c0.9,0.3,0.98-0.65,1-0.83c0.12-0.97,0.79-1,0.91-1.1
c-0.31,0.04-0.94-0.02-1.12-0.4c-0.22,0.1-0.58,0.14-0.99-0.07c0.11,0.14,0.19,0.33,0.21,0.41c0.07,0.25-0.03,0.52-0.13,0.75
C16,26.74,15.41,27.51,16.22,27.78z M5.16,26.38c0.11-0.12,0.09-0.3-0.03-0.41c-0.07-0.06-0.15-0.08-0.23-0.07
c-0.11,0.01-0.23,0.06-0.33,0.13c-0.02,0.01-0.04,0.03-0.06,0.04c-0.4,0.32-0.33,0.71-0.29,0.92c0,0,0.12-0.35,0.51-0.47
c0.04-0.01,0.08-0.02,0.12-0.03C4.99,26.48,5.09,26.46,5.16,26.38z M7.53,23.21c0.14,0.08,0.32,0.03,0.4-0.11
c0.04-0.08,0.05-0.16,0.02-0.24c-0.01-0.02-0.02-0.05-0.03-0.07c-0.05-0.1-0.13-0.21-0.21-0.28c-0.39-0.33-0.76-0.18-0.96-0.11
c0,0,0.41,0.05,0.59,0.48c0.01,0.02,0.02,0.03,0.02,0.05C7.41,23.06,7.44,23.15,7.53,23.21z M6.87,28.9
c0.14,0.08,0.32,0.03,0.4-0.11c0.04-0.08,0.05-0.16,0.02-0.24c-0.02-0.07-0.05-0.13-0.1-0.2C7.15,28.3,7.1,28.25,7.05,28.2
C6.67,27.87,6.3,28.02,6.1,28.1c0,0,0.44,0.05,0.61,0.53c0.01,0.02,0.01,0.04,0.02,0.05C6.76,28.77,6.8,28.85,6.87,28.9z
M5.62,30.41c0.16-0.06,0.25-0.24,0.19-0.4c-0.03-0.09-0.1-0.15-0.18-0.18c-0.11-0.05-0.25-0.06-0.38-0.05c-0.02,0-0.05,0-0.07,0.01
c-0.54,0.09-0.67,0.5-0.74,0.72c0,0,0.28-0.26,0.7-0.18c0.05,0.01,0.1,0.02,0.16,0.04C5.41,30.41,5.51,30.45,5.62,30.41z
M6.86,31.74c-0.07-0.06-0.17-0.07-0.25-0.06c-0.1,0.01-0.21,0.07-0.3,0.13c-0.03,0.02-0.07,0.05-0.1,0.08
c-0.4,0.37-0.3,0.78-0.24,1c0,0,0.12-0.46,0.64-0.58c0,0,0.01,0,0.01,0c0.12-0.02,0.23-0.05,0.29-0.14
C7.03,32.04,7,31.85,6.86,31.74z M45.69,28.07c-0.39-0.19-1.02-0.11-1.78-0.03c-0.59,0.06-1.26,0.13-1.94,0.06
c-4.56-0.46-4.93-2.14-4.75-2.03c0,0,0.98,0.5,2.48,0.79c4.07,0.79,4.1-1.44,4.1-1.44s0.13,0.1,0.17,0.35
c0.05,0.28-0.15,0.67-0.15,0.67s0.51-0.38,0.51-0.95c0-0.84-0.55-1.14-0.55-1.14s0.11-0.01,0.32,0.16c0.2,0.18,0.32,0.61,0.32,0.61
s0.21-0.71-0.57-1.36c-2.18-1.83-6.9-1.47-8.72-1.73c-1.59-0.23-2.01-0.89-1.89-1.56c0.19-1.11,1.68-1.14,1.68-1.14
c-0.08,1.21,1.42,2.01,2.86,1.69c0.8-0.18,1.28-0.45,1.84-0.91c0.43-0.34,0.77-0.5,0.77-0.5c-0.74-0.14-1.21,0.15-1.5,0.27
c-0.32,0.13-0.64,0.23-0.99,0.26c-0.89,0.08-0.98-0.52-0.98-0.52s0.66,0.32,1.52,0.12c2.47-0.58,1.66-2.9,1.66-2.9
s-0.22,0.88-0.99,1.2c-0.73,0.3-1.34-0.18-1.34-0.18s1.2,0.12,1.45-0.82c0.14-0.53-0.36-0.81-0.36-0.81s0.11,1.19-2.75,1.02
c-1.25-0.08-1.24,0.99-1.24,0.99s-0.2,0-0.71,0.15c-0.47,0.14-0.78,0.36-0.78,0.36c0.12-0.35,0.63-0.51,0.63-0.51
c-0.66,0-1.21,0.51-1.21,0.51c-0.01-0.13,0.1-0.31,0.1-0.31c-0.02,0.04-0.73,0.63-0.9,1.9c-0.08,0.64,0.11,1.3,0.53,1.78
c0.68,0.81,2,0.91,2.79,0.97c1.18,0.09,3.12,0.19,4.83,0.43c2.32,0.32,2.46,1.1,2.16,1.59c-0.34,0.55-1.37,0.57-2.98,0
c-1.61-0.57-4.85-1.74-7.18-1.73c-6.14,0.03-8.9,2.64-10.73,2.15c0.05,2.36-1.63,3.31-1.63,3.31c-0.25-1.3-0.08,1.06-2.57,2.29
c0,0-0.02-0.59-0.28-0.64c-0.34-0.07-0.82,0.85-0.82,0.85c-0.53-0.36-0.7-0.91-0.7-0.91l-0.13,0.27c0,0-0.42-0.26-0.51-0.71
c-0.09-0.46,0.05-0.79-0.16-0.8c-0.23-0.01-0.72,0.32-0.72,0.32s0.08-0.78-0.27-1.59c-0.2-0.52-0.49-0.99-0.53-1.55
c-1.98-0.37-4.39-1.17-4.44-1.93c-0.05-0.72,0.07-1.44-0.72-1.67c0.01,0.02,0.02,0.05,0.03,0.07c0.03,0.08,0.02,0.16-0.02,0.24
c-0.08,0.14-0.26,0.19-0.4,0.11c-0.09-0.05-0.13-0.15-0.16-0.27c-0.01-0.02-0.01-0.04-0.02-0.05c-0.46,0.27-0.27,1.09-0.27,1.09
c-0.36-0.37-1.12-1.04-1.57-0.61c0.03,0.03,0.05,0.06,0.07,0.09c0.05,0.07,0.07,0.16,0.05,0.25c-0.04,0.17-0.21,0.27-0.38,0.23
c-0.11-0.03-0.17-0.11-0.24-0.21c-0.48,0.68,0.51,1.5,0.51,1.5c-0.15,0.08-0.94,0.24-0.94,0.81c0.1-0.07,0.22-0.12,0.33-0.13
c0.08-0.01,0.16,0.01,0.23,0.07c0.12,0.11,0.13,0.29,0.03,0.41c-0.07,0.08-0.17,0.09-0.29,0.11c-0.04,0.01-0.08,0.02-0.12,0.03
c0.28,0.4,0.71,0.39,0.99,0.28c1.27-0.54,1.59-0.24,2.15-0.12c0.39,0.09,0.75-0.01,0.75,0.22c0.01,0.19-0.18,0.33-0.77,0.26
c0,0,0.14,0.38,0.79,0.45c0.97,0.11,1.27-0.13,1.4,0.04c0.24,0.31-0.7,0.43-0.7,0.43c0.76,0.58,1.77,0.13,1.77,0.13
c0.05,0.34-0.67,0.41-0.67,0.41s0.29,0.32,0.86,0.18c0.21-0.05,0.4-0.15,0.4-0.15s-0.17,0.56,0.33,0.85c0,0,0.28-0.96,0.68-0.72
c0.2,0.12,0.22,0.32,0.13,0.44c-0.13,0.16-0.31,0.14-0.31,0.14c0.12,0.29,0.63,0.29,0.63,0.29s-0.62,0.38-2.35,0.36
c-2.29-0.19-2.16-0.44-2.72-1.12C7.66,28.3,7.4,28.27,7.2,28.36c0.05,0.06,0.08,0.13,0.1,0.2c0.03,0.08,0.02,0.16-0.02,0.24
c-0.08,0.14-0.26,0.19-0.4,0.11c-0.08-0.05-0.11-0.12-0.15-0.21c-0.28,0.28-0.23,0.54-0.1,0.77c-0.11-0.02-1.2-0.17-1.39,0.32
c0.13-0.01,0.28,0,0.38,0.05c0.08,0.03,0.15,0.1,0.18,0.18c0.06,0.16-0.03,0.34-0.19,0.4c-0.11,0.04-0.21,0-0.33-0.05
c-0.05-0.02-0.11-0.03-0.16-0.04c-0.01,0.03-0.01,0.05-0.01,0.05c-0.01,0.74,1.07,0.76,1.6,0.78c-0.23,0.14-0.47,0.34-0.42,0.67
c0.09-0.07,0.2-0.12,0.3-0.13c0.08-0.02,0.18,0,0.25,0.06c0.14,0.1,0.16,0.3,0.06,0.44c-0.07,0.09-0.17,0.11-0.29,0.14
c0.71,0.47,1.23-0.18,1.49-0.33c0.75-0.43,1.89-0.38,2.18-0.06c0.21,0.23-0.26,0.5-0.26,0.5c0.53,0.07,0.92-0.26,0.92-0.26
s-0.1,0.12-0.14,0.36c-0.06,0.35,0.18,0.54,0.18,0.54c0.43-0.84,0.77-0.79,0.94-0.63c0.2,0.19-0.21,0.48-0.21,0.48
c0.51,0.26,1.17-0.27,1.17-0.27s-0.05,0.43,0.2,0.67c0.33-0.61,1.06-0.55,1.54-0.49c0,0-0.69,0.48-0.42,1.07
c0.43-0.42,0.97-0.58,1.71-0.49c1.53,0.19,4.42,1.06,9.39-3.56c3.36-3.12,5.6-2.72,5.6-2.72c2.98,2.43,8.71,2.47,10.18,2.58
c0.71,0.05,0.72,0.49,0.41,0.87c-0.19,0.24-0.45,0.29-0.47,0.3c0,0-1.41-0.59-1.93,0.2c0.09-0.02,0.19-0.02,0.27,0
c0.07,0.01,0.14,0.06,0.18,0.13c0.07,0.13,0.03,0.29-0.1,0.36c-0.08,0.05-0.17,0.03-0.28,0.01c-0.04-0.01-0.08-0.01-0.12-0.01
c0.06,0.26,0.26,0.34,0.4,0.37c0.06,0.01,0.05,0.02,0.04,0.04c-0.29,0.28-0.29,0.58-0.28,0.68c0.07-0.05,0.14-0.09,0.21-0.1
c0.07-0.02,0.15-0.01,0.22,0.03c0.12,0.08,0.15,0.25,0.07,0.37c-0.05,0.08-0.14,0.11-0.25,0.13c-0.03,0.01-0.05,0.02-0.08,0.03
c0.15,0.24,0.42,0.38,0.83,0.22c0.31-0.12,0.4-0.19,0.42-0.22c-0.04,0.07-0.14,0.3-0.03,0.48c0.02,0.02,0.03,0.04,0.05,0.06
c0.03-0.11,0.09-0.23,0.17-0.31c0.05-0.05,0.12-0.09,0.2-0.08c0.15,0.01,0.26,0.13,0.25,0.28c0,0.1-0.07,0.16-0.14,0.24
c-0.02,0.03-0.05,0.05-0.06,0.08c0.14,0.02,0.29,0.01,0.36,0c0.44-0.09,0.78-0.46,0.88-1.39c0.04-0.32,0.11-0.49,0.18-0.57
c0.15-0.17,0.48-0.29,0.48-0.29s0.14,0.37-0.1,0.64c0.87,0.14,0.98-1.23,0.98-1.23s0.09,0.27,0.29,0.44
c0.2,0.18,0.47,0.22,0.47,0.22c-0.16-0.98,0.22-1.31,0.41-1.36c0.37-0.09,0.36,0.35,0.36,0.35s0.32-0.21,0.25-0.65
c-0.04-0.25-0.17-0.49-0.17-0.49s0.31-0.15,0.47,0.26c0,0,0.33-0.53,0.03-0.82c0,0,0.07-0.05,0.16-0.02
c0.09,0.03,0.15,0.12,0.15,0.12S46.38,28.41,45.69,28.07z M39.43,31.58c0.13-0.07,0.17-0.23,0.1-0.36c-0.04-0.07-0.1-0.11-0.18-0.13
c-0.08-0.02-0.18-0.02-0.27,0c-0.04,0.01-0.08,0.02-0.11,0.03c-0.44,0.15-0.49,0.51-0.52,0.7c0,0,0.2-0.26,0.58-0.25
c0.04,0,0.08,0,0.12,0.01C39.26,31.61,39.35,31.62,39.43,31.58z M39.69,32.97c0.08-0.12,0.05-0.29-0.07-0.37
c-0.07-0.04-0.14-0.05-0.22-0.03c-0.07,0.02-0.14,0.05-0.21,0.1c-0.04,0.03-0.08,0.06-0.12,0.1c-0.32,0.33-0.21,0.68-0.15,0.86
c0,0,0.07-0.35,0.44-0.5c0.02-0.01,0.05-0.02,0.08-0.03C39.55,33.07,39.64,33.05,39.69,32.97z M41.26,33.56
c0.01-0.15-0.11-0.27-0.25-0.28c-0.08,0-0.15,0.03-0.2,0.08c-0.08,0.07-0.14,0.19-0.17,0.31c0,0.01-0.01,0.02-0.01,0.03
c-0.1,0.45,0.17,0.69,0.32,0.81c0,0-0.12-0.32,0.1-0.63c0.02-0.03,0.04-0.05,0.06-0.08C41.19,33.72,41.25,33.66,41.26,33.56z
M0,13.18v32.76c0,6.69,2.09,12.47,6.21,17.18C10.53,68.05,17.02,71.71,25.5,74c8.48-2.29,14.97-5.95,19.29-10.88
C48.91,58.42,51,52.63,51,45.94V13.18H0z M49.72,45.94c0,13.07-8.43,22.31-24.22,26.69C9.71,68.25,1.34,59.01,1.34,45.94V14.5h48.37
V45.94z M25.03,4.92c-0.68,0-1.16,0.47-1.22,1.14h2.44C26.16,5.42,25.75,4.92,25.03,4.92z M37.75,3.54l-1,2.82h2.03l-0.97-2.82
H37.75z M0,11.19h51V0H0V11.19z M14.82,3.35h-1.79v5.97h-1.76V3.35H9.3V1.84h6.12L14.82,3.35z M21.46,9.32h-1.63v-2.9
c0-0.34-0.03-0.55-0.12-0.76C19.6,5.4,19.36,5.2,18.94,5.2c-0.52,0-1.06,0.38-1.34,0.63v3.49h-1.63V1.84h1.63v2.58
c0.49-0.38,1.03-0.65,1.82-0.65c0.94,0,1.6,0.44,1.87,1.19c0.1,0.28,0.16,0.6,0.16,1.16V9.32z M27.73,7.12h-3.92
c0.09,0.71,0.6,1.17,1.6,1.17c0.81,0,1.54-0.19,1.95-0.35l-0.44,1.25c-0.38,0.16-0.91,0.29-1.7,0.29c-1.82,0-2.88-1.11-2.88-2.87
c0-1.72,1.06-2.85,2.75-2.85C26.87,3.76,27.92,5.2,27.73,7.12z M31.26,6.58v2.74h-1.74V1.84h5.8l-0.57,1.51h-3.49v1.66h2.86
l-0.6,1.57H31.26z M39.81,9.32l-0.49-1.49h-3.08l-0.52,1.49h-1.76l2.85-7.48h2.03l2.79,7.48H39.81z"/></svg>