<svg xmlns="http://www.w3.org/2000/svg" width="110" height="53"><path fill="#0b0c0c" d="M53.74 46.92c.07-1.42.47-2.84 1.18-4.25l.07-.16c-.39 0-.93-.07-1.81-.07-.93 0-1.56 0-1.95.07-.47 0-.79.09-1.02.09-.47 0-.86-.23-1.25-.63 0-.09-.09-.09-.16-.16l-.39-.56-12.32-16.53-.47-.63a.705.705 0 0 0-.55-.32c-.32 0-.39.23-.39.72v10.94c0 2.28.23 3.77.7 4.56.48.72 1.57 1.26 3.31 1.65.31.09.54.23.63.39 0 .07 0 .16.07.23 0 .39-.16.63-.55.56-.23 0-.63-.09-1.25-.16-.47-.07-6.51-.31-7.14-.39h-2.9c-2.11 0-3.45.09-3.99.16-.32.07-.55.16-.71.16-.39 0-.54-.23-.63-.63 0-.32.16-.56.55-.63l.7-.25c.79-.15 1.18-.86 1.18-2.05 0-1.1-.47-3.14-1.41-6.29l-1.18-3.93c-.31-1.11-.54-1.74-.77-1.89-.16-.16-.71-.25-1.57-.25H11.4c-1.09 0-1.81.09-2.11.39-.23.23-.63 1.02-1.09 2.37l-1.5 4.4C6 35.8 5.68 37.3 5.68 38.32c0 .95.16 1.65.55 2.05.39.39 1.09.79 2.11 1.1.39.09.63.32.71.63v.09c0 .31-.23.47-.63.47h-.81l-2.2-.16c-.7 0-1.56-.07-2.51-.07-.47 0-.79 0-1.02.07-.79.16-1.18.16-1.25.16-.4 0-.63-.16-.63-.55v-.07c0-.31.16-.56.39-.63l.86-.32c.31-.07.7-.63 1.25-1.41.56-.88.95-1.74 1.26-2.68l.71-1.97 4.15-12.05L16.23.94c.16-.63.39-.86.63-.86.23 0 .47.31.63.86l6.59 22.04 3.22 10.87.55 1.65c.7 2.44 1.33 3.93 1.81 4.49.15.16.38.39.63.56.07-.16.23-.39.31-.63.39-1.02.55-2.84.55-5.35V8.97c0-2.12-.16-3.61-.55-4.49-.39-.86-1.02-1.42-2.04-1.65l-1.09-.31c-.39-.09-.63-.32-.63-.63 0-.39.23-.63.63-.63.23 0 .47 0 .86.07.79.16 1.97.16 3.69.16h.86l1.73-.09h1.17c.63-.07 1.02-.15 1.11-.15.39 0 .54.15.54.54 0 .23-.15.48-.54.72-.96.55-1.59 1.19-1.82 1.89-.23.7-.39 2.05-.39 4.09v11.73c0 .39.07.63.23.63l.39-.32.32-.38 9.81-11.49C46.92 6.92 47.7 5.5 47.7 4.4c0-.95-.55-1.49-1.65-1.73-.71-.16-1.02-.39-1.02-.72 0-.39.23-.63.7-.63.16 0 .39 0 .63.07.63.09 1.34.09 2.2.09l2.11.07h1.73c.93 0 1.56 0 1.88-.07.39-.09.54-.16.7-.16.39 0 .63.16.71.55 0 .31-.39.54-1.11.79-1.41.47-3.99 2.98-7.92 7.55l-7.85 9.3c-.31.38-.47.7-.54.94 0 .32.15.72.54 1.26l.95 1.34 10.99 14.96c1.25 1.73 2.67 2.82 4.15 3.22l.79.23c.54-.78 1.09-1.33 1.72-1.65-4.39-4.4-6.59-9.99-6.75-16.76v-.79c0-5.67 1.25-10.47 3.77-14.41C57.4 3.13 61.56.76 66.89.76c4.79 0 8.64 1.97 11.62 5.91 2.99 3.93 4.47 9.05 4.47 15.27v1.11c-.07 3.61-.79 6.92-2.04 9.92-1.41 3.31-3.29 5.91-5.73 7.72-.79.54-1.57 1.02-2.51 1.41-.95.39-1.88.79-2.99 1.02 1.57 1.02 2.59 1.81 3.22 2.29l2.11 1.8.32.32 1.41 1.18c1.33 1.1 2.43 1.65 3.29 1.65 1.25 0 2.43-.32 3.37-1.02.32-.16.48-.32.63-.32.23 0 .39.16.39.39 0 .7-.7 1.49-2.19 2.28-1.5.79-2.91 1.18-4.24 1.18-1.81 0-4.01-.95-6.51-2.84-1.65-1.26-2.83-2.12-3.45-2.6-.23-.15-.39-.31-.47-.38l-3.85-2.68C61.47 42.79 59.82 42 58.72 42c-.95 0-1.81.47-2.59 1.49-.79.95-1.25 2.21-1.41 3.55 0 .15 0 .23-.07.38-.09.48-.32.72-.48.72-.31 0-.47-.16-.54-.47.04-.21.11-.52.11-.75zM20.08 21.88l-3.61-11.8-.16-.64c-.15-.63-.38-.94-.63-.94-.07 0-.23.16-.39.55l-4.46 12.9c-.16.48-.25.79-.32 1.02v.09c0 .54.39.79 1.02.79h7.54c.79 0 1.18-.25 1.18-.72.07-.46-.09-.86-.17-1.25zm34.29 1.02c.47 5.75 2.2 10.4 5.17 13.85 2.67 3.16 5.65 4.72 8.87 4.72 3.37 0 6.12-1.57 8.16-4.64 2.04-3.07 3.13-7.17 3.13-12.12V22.9c-.23-5.43-1.65-10.08-4.08-13.94-2.74-4.33-6.12-6.54-10.04-6.54-3.38 0-6.05 1.58-8.16 4.72-2.04 3.16-3.13 7.25-3.13 12.37-.08.25 0 2.92.08 3.39zm30.98 0L92.97.86c.15-.63.4-.86.63-.86.23 0 .47.31.63.86l6.59 22.04 3.22 10.87.54 1.65c.71 2.44 1.34 3.93 1.81 4.49.47.54 1.41 1.02 2.9 1.42.48.15.71.39.71.7 0 .32-.23.47-.63.47-.16 0-.39 0-.87-.07-.77-.07-2.19-.16-4.23-.16-2.13 0-3.45.09-4.01.16-.31.07-.54.16-.7.16-.39 0-.55-.23-.55-.63 0-.32.16-.56.55-.63l.7-.25c.79-.15 1.18-.86 1.18-2.05 0-1.1-.47-3.14-1.41-6.29l-1.18-3.93c-.31-1.11-.54-1.74-.77-1.89-.16-.16-.71-.25-1.57-.25h-8.32c-1.09 0-1.81.09-2.11.39-.23.23-.63 1.02-1.09 2.37l-1.5 4.4c-.7 1.97-1.02 3.47-1.02 4.49 0 .95.16 1.65.55 2.05.39.39 1.09.79 2.11 1.1.39.09.63.32.71.63v.09c0 .31-.16.47-.63.47h-.79l-2.2-.16c-.7 0-1.57-.07-2.51-.07-.47 0-.79 0-1.02.07-.79.16-1.18.16-1.25.16-.39 0-.63-.16-.63-.55v-.07c0-.31.15-.56.39-.63l.86-.32c.31-.07.7-.63 1.25-1.41.55-.88.95-1.74 1.25-2.68l.71-1.97 4.08-12.13zm11.39-1.02l-3.61-11.8-.15-.64c-.16-.63-.39-.94-.55-.94-.07 0-.23.16-.39.55l-4.47 12.9c-.16.48-.23.79-.31 1.02v.09c0 .54.39.79 1.02.79h7.53c.79 0 1.18-.25 1.18-.72-.02-.46-.18-.86-.25-1.25z"/></svg>