<svg xmlns="http://www.w3.org/2000/svg" width="130" height="26"><path fill="#0b0c0c" d="M106.22.08h-19.9v3.61h7.26v22.18h4.93V3.69h6.4l1.31-3.61zM60 12.97h-2.63V3.81H60c3.55 0 4.56 1.58 4.56 4.56 0 2.98-1.01 4.6-4.56 4.6zM60.54.08h-8.11v25.79h4.93v-9.55h3.17c6.53 0 9.33-3.88 9.33-7.94 0-4.06-2.79-8.3-9.32-8.3zm15.12 25.79h4.93V.08h-4.93v25.79zM12.62 3.3c-2.47 0-4.52 1.09-5.77 3.01-1 1.52-1.51 3.63-1.51 6.61 0 3.09.38 4.83 1.13 6.25 1.25 2.4 3.64 3.56 6.44 3.56 1.09 0 3.6-.16 6.64-1.13l-1.36 3.62c-1.9.48-3.89.78-5.73.78-3.84 0-6.9-1.27-9.15-3.63C1.13 20.08 0 17.03 0 13.4c0-3.01.63-5.52 1.92-7.63C4.1 2.18 8.07 0 12.58 0c2.8 0 5.48.73 7.19 1.96l-1.21 3.22c-1.54-.97-3.63-1.88-5.94-1.88zm18.63 12.79l3.62-9.65 3.61 9.65h-7.23zM37.86.08h-5.04l-9.41 25.79h4.45l2.11-6.28h9.81l2.12 6.28h5.37L37.86.08zm76.12 16.01l3.62-9.65 3.61 9.65h-7.23zm6.6-16.01h-5.04l-9.41 25.79h4.45l2.11-6.25h9.81l2.13 6.25H130L120.58.08z"/></svg>