<svg xmlns="http://www.w3.org/2000/svg" width="174" height="31"><path fill="#0b0c0c" d="M54.76 8.27c-5.04 0-7.54 2.48-7.54 7.45 0 5.27 2.54 7.94 7.58 7.94 5.02 0 7.52-2.67 7.52-7.96 0-4.95-2.52-7.43-7.56-7.43zm3.06 11.62c-.67 1.03-1.71 1.55-3.06 1.55-1.31 0-2.33-.52-3.02-1.55-.67-.99-1-2.42-1-4.2 0-1.59.31-2.83.96-3.76.71-.99 1.75-1.49 3.1-1.49s2.35.52 3.08 1.53c.62.89.92 2.14.92 3.73 0 1.82-.34 3.2-.98 4.19zM12.85 4.18c-3.52 0-6.54 1.24-9.06 3.76C1.25 10.44 0 13.44 0 16.96c0 3.51 1.25 6.51 3.79 9.04 2.5 2.48 5.52 3.72 9.06 3.72 3.56 0 6.58-1.24 9.08-3.72 2.54-2.52 3.79-5.52 3.79-9.04 0-3.52-1.25-6.51-3.79-9.02-2.5-2.52-5.52-3.76-9.08-3.76zm6.35 10.13c-.19 3.45-1.23 6.24-3.21 8.38-1.89 2.07-4.27 3.1-7.04 3.1-1.77 0-3.27-.62-4.52-1.86-1.35-1.34-2-3.04-2-5.11 0-2.44.9-4.36 2.73-5.79 1.98-1.55 4.89-2.3 8.68-2.3l5.52.23-.16 3.35zm20.92 6.78c1.73 0 3.14-.33 4.27-1.05l-.08 2.44c-1.69.73-3.43 1.1-5.27 1.1-4.62 0-6.91-2.69-6.91-8.07 0-2.54.81-4.47 2.44-5.79 1.25-.99 2.75-1.51 4.48-1.51 2.08 0 3.79.31 5.1.93v2.54c-1.08-.64-2.44-.99-4-.99-1.21 0-2.21.35-3.02.99-1.04.87-1.56 2.17-1.56 3.91 0 1.97.5 3.41 1.44 4.34.74.79 1.78 1.16 3.11 1.16zm37.71-7.75v10.01h-3.46l.06-7.86c0-3-1.04-4.53-3.12-4.53-1.04 0-1.91.39-2.64 1.14-.79.83-1.17 1.9-1.17 3.21v8.04h-3.54V8.58h3.39l.15 2.27c1.04-1.78 2.67-2.69 4.89-2.69 3.65.01 5.44 1.75 5.44 5.18zm72.5-4.41c-2.02 0-3.68.62-5 1.86-1.39 1.34-2.08 3.25-2.08 5.63 0 2.23.52 3.99 1.56 5.19.98 1.14 2.25 1.7 3.81 1.7 1.33 0 2.48-.45 3.43-1.34.71-.66 1.12-1.24 1.23-1.8v3.39c0 1.26-.35 2.34-1.02 3.21-.79.99-1.94 1.47-3.43 1.47-2.04 0-3.54-.41-4.48-1.2V30c1.08.66 2.89 1.01 5.5 1.01 2.04 0 3.66-.52 4.89-1.59 1.35-1.14 2-2.85 2-5.13V9.14l-2.98.15-3.43-.36zm2.95 7.41c0 1.34-.35 2.52-1.02 3.45-.69.89-1.52 1.34-2.5 1.34-2 0-3.02-1.49-3.02-4.45 0-1.7.5-3.04 1.44-4.09.85-1.03 1.89-1.55 3.12-1.55.83 0 1.48.1 1.98.27v5.03zm-65.69 4.79c1.73 0 3.14-.35 4.23-1.07l-.04 2.46c-1.69.72-3.43 1.1-5.27 1.1-4.58 0-6.87-2.69-6.87-8.07 0-2.54.79-4.49 2.4-5.79 1.29-.99 2.77-1.51 4.48-1.51 2.08 0 3.79.31 5.06.93v2.54c-1.06-.66-2.39-.99-3.96-.99-1.21 0-2.21.33-3.02.99-1 .87-1.52 2.17-1.52 3.89 0 1.97.46 3.41 1.39 4.34.79.81 1.83 1.18 3.12 1.18zm53.64-7.79v10.01h-3.46l.06-7.86c0-3-1.04-4.53-3.12-4.53-1.04 0-1.92.39-2.65 1.14-.79.83-1.17 1.9-1.17 3.21v8.04h-3.54V8.58h3.39l.15 2.27c1.04-1.78 2.67-2.69 4.89-2.69 3.66.01 5.45 1.75 5.45 5.18zm25.19-5.07c-5.02 0-7.52 2.48-7.52 7.45 0 5.27 2.52 7.94 7.56 7.94 5.04 0 7.54-2.67 7.54-7.96 0-4.95-2.54-7.43-7.58-7.43zm3.06 11.62c-.67 1.03-1.71 1.55-3.06 1.55-1.31 0-2.31-.52-3.02-1.55-.65-.99-1-2.42-1-4.2 0-1.59.31-2.83.98-3.76.69-.99 1.73-1.49 3.08-1.49s2.35.52 3.08 1.53c.62.89.93 2.14.93 3.73 0 1.82-.32 3.2-.99 4.19zm-60.17-6.47v9.99h-3.39v-8.13c0-1.49-.25-2.56-.73-3.25-.52-.66-1.33-.99-2.4-.99-1.08 0-1.98.37-2.69 1.16-.69.81-1.04 1.8-1.04 3.08v8.13h-3.54V0h3.54v10.9c.92-1.76 2.5-2.65 4.83-2.65 3.61 0 5.42 1.72 5.42 5.17zm16.14-.72c0-1.7-.62-2.87-1.83-3.6-.98-.54-2.37-.83-4.21-.83-2.08 0-3.89.41-5.41 1.24V12c1.71-1.03 3.29-1.55 4.79-1.55 1.1 0 1.92.19 2.39.52.52.39.77 1.07.77 2.05v1.26l-2.69-.06c-2.19 0-3.85.52-5.02 1.51-1.02.91-1.54 2.07-1.54 3.56 0 1.3.42 2.38 1.25 3.2.81.77 1.77 1.14 2.96 1.14 1.35 0 2.5-.45 3.39-1.3l.94-1.12.71-.99.1 3.25h3.43c-.03-1.3-.08-4.88-.03-10.77zm-3.59 4.44c-.02 1.26-.44 2.34-1.17 3.12-.73.81-1.6 1.18-2.64 1.18-.67 0-1.25-.25-1.71-.68-.52-.52-.75-1.14-.75-1.94 0-.89.33-1.61 1.04-2.17.73-.58 1.79-.85 3.23-.85l2.08.1-.08 1.24z"/></svg>