<svg xmlns="http://www.w3.org/2000/svg" width="159" height="82"><path fill="#0b0c0c" d="M0 81.04h1.48V0H0v81.04zm8.89-37.07h4.33c4.2 0 6.06-2.38 6.06-6.6 0-4.06-2.17-6-6.06-6H8.89v12.6zm1.67-11.2h2.83c3.09 0 4.2 1.82 4.2 4.82 0 4.64-3.09 4.96-4.24 4.96h-2.79v-9.78zm16.47 8.3c-.26 1.18-1.13 1.78-2.37 1.78-2 0-2.9-1.41-2.84-3h6.83c.09-2.21-.9-5.23-4.13-5.23-2.49 0-4.29 2.01-4.29 4.75.09 2.79 1.47 4.8 4.38 4.8 2.05 0 3.5-1.09 3.9-3.11h-1.48zm-5.21-2.54c.11-1.39 1.04-2.58 2.61-2.58 1.48 0 2.56 1.15 2.63 2.58h-5.24zm8.1 8.93h1.5v-4.71h.04c.67 1.08 2.01 1.43 2.95 1.43 2.79 0 4.17-2.17 4.17-4.75s-1.39-4.8-4.2-4.8c-1.25 0-2.42.44-2.91 1.45h-.04v-1.24h-1.5v12.62zm4.23-11.51c1.94 0 2.83 1.66 2.83 3.37 0 1.78-.69 3.53-2.74 3.53-2.07 0-2.88-1.66-2.88-3.46 0-1.71.78-3.44 2.79-3.44zm13.82 6.81c-.2.07-.34.09-.46.09-.48 0-.48-.32-.48-1.02v-4.7c0-2.14-1.78-2.51-3.43-2.51-2.03 0-3.78.79-3.87 3.06h1.5c.07-1.34 1.01-1.73 2.28-1.73.95 0 2.03.21 2.03 1.52 0 1.13-1.41 1.02-3.07 1.34-1.55.3-3.09.74-3.09 2.81 0 1.82 1.36 2.56 3.02 2.56 1.27 0 2.38-.44 3.21-1.41 0 .99.49 1.41 1.27 1.41.48 0 .81-.09 1.08-.25v-1.17zm-2.44-1.97c0 .83-.81 2.07-2.79 2.07-.92 0-1.77-.35-1.77-1.34 0-1.11.85-1.47 1.84-1.64 1.01-.18 2.14-.19 2.72-.62v1.53zm3.46 3.18h1.5v-4.06c0-2.31.88-3.69 3.3-3.69v-1.59c-1.62-.05-2.63.67-3.36 2.14h-.03v-1.92h-1.41v9.12zm8.23-11.87h-1.5v2.74h-1.55v1.32h1.55v5.81c0 1.68.62 1.99 2.17 1.99h1.15v-1.32h-.69c-.94 0-1.13-.12-1.13-.81v-5.67h1.82v-1.32h-1.82V32.1zm2.93 11.87h1.5v-5.69c0-.69.65-2.33 2.44-2.33 1.34 0 1.71.85 1.71 2.03v5.98h1.5v-5.69c0-1.41.94-2.33 2.38-2.33 1.47 0 1.77.9 1.77 2.03v5.98h1.5v-6.69c0-1.89-1.22-2.65-3.04-2.65-1.17 0-2.24.58-2.86 1.55-.37-1.11-1.4-1.55-2.51-1.55-1.25 0-2.28.53-2.95 1.55h-.04v-1.34h-1.41v9.15zm20.94-2.9c-.26 1.18-1.13 1.78-2.37 1.78-2 0-2.9-1.41-2.84-3h6.83c.09-2.21-.9-5.23-4.13-5.23-2.49 0-4.29 2.01-4.29 4.75.09 2.79 1.47 4.8 4.38 4.8 2.05 0 3.5-1.09 3.9-3.11h-1.48zm-5.21-2.54c.11-1.39 1.04-2.58 2.61-2.58 1.48 0 2.56 1.15 2.63 2.58h-5.24zm8.07 5.44h1.5v-5.16c0-1.64.88-2.86 2.7-2.86 1.15 0 1.85.72 1.85 1.84v6.18h1.5v-6c0-1.96-.74-3.34-3.14-3.34-1.31 0-2.33.53-2.97 1.66h-.04v-1.45h-1.41v9.13zM95.36 32.1h-1.5v2.74h-1.55v1.32h1.55v5.81c0 1.68.62 1.99 2.17 1.99h1.15v-1.32h-.69c-.94 0-1.13-.12-1.13-.81v-5.67h1.82v-1.32h-1.82V32.1zM9.26 62.51h1.5v-7.8h1.77v-1.32h-1.77v-1.27c0-.8.42-1.03 1.15-1.03.27 0 .58.04.85.13v-1.31a3.61 3.61 0 0 0-.97-.14c-1.64 0-2.52.78-2.52 2.26v1.36H7.72v1.32h1.54v7.8zm7.96-9.34c-2.89 0-4.43 2.1-4.43 4.78 0 2.67 1.54 4.77 4.43 4.77 2.9 0 4.43-2.1 4.43-4.77.01-2.68-1.53-4.78-4.43-4.78zm0 8.23c-1.57 0-2.84-1.24-2.84-3.44 0-2.22 1.27-3.46 2.84-3.46 1.57 0 2.84 1.24 2.84 3.46.01 2.21-1.27 3.44-2.84 3.44zm5.76 1.12h1.5v-4.06c0-2.31.88-3.69 3.3-3.69v-1.59c-1.62-.05-2.63.67-3.35 2.14h-.04V53.4h-1.41v9.12zm10.74-.01h8.76V61.1H35.4v-4.36h6.55v-1.41H35.4v-4.01h7.03v-1.41h-8.7v12.6zm9.99.01h1.5v-5.16c0-1.64.88-2.86 2.7-2.86 1.15 0 1.85.73 1.85 1.84v6.18h1.5v-6c0-1.96-.74-3.34-3.14-3.34-1.31 0-2.33.53-2.97 1.66h-.04v-1.45H43.7v9.13zm16.5-9.13h-1.57L56.14 61h-.04l-2.56-7.61h-1.68l3.39 9.13h1.61l3.35-9.13zm.99-1.65h1.5V49.9h-1.5v1.84zm0 10.77h1.5v-9.13h-1.5v9.13zm3.31.01h1.5v-4.06c0-2.31.88-3.69 3.3-3.69v-1.59c-1.62-.05-2.63.67-3.36 2.14h-.04V53.4H64.5v9.12zm9.41-9.35c-2.9 0-4.43 2.1-4.43 4.78 0 2.67 1.54 4.77 4.43 4.77 2.89 0 4.43-2.1 4.43-4.77 0-2.68-1.54-4.78-4.43-4.78zm0 8.23c-1.57 0-2.84-1.24-2.84-3.44 0-2.22 1.27-3.46 2.84-3.46 1.57 0 2.84 1.24 2.84 3.46 0 2.21-1.27 3.44-2.84 3.44zm5.78 1.12h1.5v-5.16c0-1.64.88-2.86 2.7-2.86 1.15 0 1.85.73 1.85 1.84v6.18h1.5v-6c0-1.96-.74-3.34-3.14-3.34-1.31 0-2.33.53-2.97 1.66h-.04v-1.45h-1.4v9.13zm9.37 0h1.5v-5.69c0-.69.65-2.33 2.44-2.33 1.34 0 1.71.85 1.71 2.03v5.99h1.5v-5.69c0-1.41.94-2.33 2.38-2.33 1.47 0 1.77.9 1.77 2.03v5.99h1.5v-6.69c0-1.89-1.22-2.65-3.04-2.65-1.17 0-2.24.58-2.86 1.55-.37-1.11-1.39-1.55-2.51-1.55-1.25 0-2.28.53-2.95 1.55h-.04v-1.34h-1.41v9.13zm20.94-2.9c-.27 1.18-1.13 1.78-2.37 1.78-2 0-2.9-1.41-2.84-3h6.83c.09-2.21-.9-5.23-4.13-5.23-2.49 0-4.29 2.01-4.29 4.75.09 2.79 1.47 4.8 4.38 4.8 2.05 0 3.5-1.09 3.9-3.11h-1.48zm-5.21-2.54c.11-1.39 1.04-2.58 2.61-2.58 1.48 0 2.56 1.15 2.63 2.58h-5.24zm8.06 5.44h1.5v-5.16c0-1.64.88-2.86 2.7-2.86 1.15 0 1.85.73 1.85 1.84v6.18h1.5v-6c0-1.96-.74-3.34-3.14-3.34-1.31 0-2.33.53-2.97 1.66h-.04v-1.45h-1.41v9.13zm11.41-11.87h-1.5v2.74h-1.55v1.32h1.55v5.81c0 1.68.62 2 2.17 2h1.15v-1.33h-.69c-.94 0-1.13-.12-1.13-.81v-5.67h1.82v-1.32h-1.82v-2.74zM8.89 81.06h1.68v-5.77h5.79v-1.41h-5.79v-4.01h6.6v-1.41H8.89v12.6zm13.09-9.34c-2.9 0-4.43 2.1-4.43 4.78 0 2.67 1.54 4.77 4.43 4.77 2.9 0 4.43-2.1 4.43-4.77 0-2.68-1.54-4.78-4.43-4.78zm0 8.23c-1.57 0-2.84-1.24-2.84-3.44 0-2.23 1.27-3.46 2.84-3.46 1.57 0 2.84 1.24 2.84 3.46 0 2.2-1.27 3.44-2.84 3.44zm9.77-8.23c-2.9 0-4.43 2.1-4.43 4.78 0 2.67 1.54 4.77 4.43 4.77s4.43-2.1 4.43-4.77c0-2.68-1.54-4.78-4.43-4.78zm0 8.23c-1.57 0-2.84-1.24-2.84-3.44 0-2.23 1.27-3.46 2.84-3.46 1.57 0 2.84 1.24 2.84 3.46 0 2.2-1.27 3.44-2.84 3.44zm13.99-11.49h-1.5v4.7h-.04c-.67-1.08-2.01-1.43-2.95-1.43-2.79 0-4.17 2.17-4.17 4.75s1.39 4.8 4.2 4.8c1.25 0 2.42-.44 2.91-1.45h.04v1.24h1.5V68.46zM41.5 79.95c-1.94 0-2.83-1.66-2.83-3.37 0-1.78.69-3.53 2.74-3.53 2.07 0 2.88 1.66 2.88 3.46 0 1.71-.78 3.44-2.79 3.44zm19.4 1.11h1.96l-2.45-2.84c.53-1.11.72-1.62.85-3.11h-1.43c-.04.67-.18 1.34-.41 1.96l-2.28-2.77c1.22-.69 2.37-1.77 2.37-3.27 0-1.71-1.48-2.58-3.05-2.58-1.82 0-2.84 1.22-2.84 2.6 0 1.29.69 1.96 1.4 2.97-1.61.85-2.95 1.83-2.95 3.81 0 1.02.53 3.44 3.94 3.44 1.38 0 2.81-.6 3.57-1.78l1.32 1.57zm-2.17-2.61c-.62.92-1.53 1.5-2.68 1.5-1.22 0-2.4-.87-2.4-2.14 0-1.5 1.01-2.17 2.19-2.84l2.89 3.48zm-.72-7.33c0 1.06-.95 1.73-1.68 2.19-.55-.69-1.22-1.43-1.22-2.19 0-.92.74-1.34 1.45-1.34.9 0 1.45.62 1.45 1.34zm10.52 9.94h1.68v-5.39h4.1c1.62 0 1.92 1.04 2.1 2.28.25 1.24-.02 2.6.46 3.11h1.87c-.71-.87-.64-2.24-.74-3.48-.12-1.24-.42-2.31-1.89-2.6v-.04c1.52-.42 2.19-1.68 2.19-3.2 0-2.01-1.47-3.3-3.83-3.3h-5.93v12.62zm1.68-6.8v-4.4h4.17c1.57 0 2.24.92 2.24 2.15 0 1.84-1.34 2.24-2.91 2.24h-3.5zm17.29-2.33H86v5.16c0 1.64-.88 2.86-2.7 2.86-1.15 0-1.86-.73-1.86-1.84v-6.18h-1.5v6c0 1.96.74 3.34 3.14 3.34 1.31 0 2.33-.53 2.97-1.66h.04v1.45h1.41v-9.13zm1.8 9.13h1.5V77c0-2.31.88-3.69 3.3-3.69v-1.59c-1.63-.05-2.63.67-3.36 2.14h-.04v-1.92h-1.4v9.12zm13.65-1.2c-.19.07-.33.09-.46.09-.48 0-.48-.32-.48-1.02v-4.7c0-2.14-1.78-2.51-3.42-2.51-2.03 0-3.78.79-3.87 3.05h1.5c.07-1.34 1.01-1.73 2.28-1.73.95 0 2.03.21 2.03 1.52 0 1.13-1.41 1.02-3.07 1.34-1.55.3-3.09.74-3.09 2.81 0 1.82 1.36 2.56 3.02 2.56 1.27 0 2.38-.44 3.21-1.41 0 .99.5 1.41 1.27 1.41.48 0 .81-.09 1.08-.25v-1.16zm-2.43-1.98c0 .83-.81 2.07-2.79 2.07-.92 0-1.77-.35-1.77-1.34 0-1.11.85-1.47 1.84-1.64 1.01-.18 2.14-.19 2.72-.62v1.53zm3.54 3.18h1.5v-12.6h-1.5v12.6zm7.14 0h1.73l1.41-3.8h5.33l1.38 3.8h1.85l-4.93-12.61h-1.85l-4.92 12.61zm5.81-11.09h.04l2.1 5.88h-4.27l2.13-5.88zm6.97 11.09h1.5v-7.8h1.77v-1.32h-1.77v-1.27c0-.79.42-1.02 1.15-1.02.26 0 .58.04.85.12v-1.31a3.61 3.61 0 0 0-.97-.14c-1.64 0-2.52.78-2.52 2.26v1.36h-1.54v1.32h1.54v7.8zm5.3 0h1.5v-7.8h1.77v-1.32h-1.77v-1.27c0-.79.42-1.02 1.15-1.02.26 0 .58.04.85.12v-1.31a3.61 3.61 0 0 0-.97-.14c-1.64 0-2.52.78-2.52 2.26v1.36h-1.54v1.32h1.54v7.8zm12.22-1.2c-.19.07-.33.09-.46.09-.48 0-.48-.32-.48-1.02v-4.7c0-2.14-1.78-2.51-3.42-2.51-2.03 0-3.78.79-3.87 3.05h1.5c.07-1.34 1.01-1.73 2.28-1.73.95 0 2.03.21 2.03 1.52 0 1.13-1.41 1.02-3.07 1.34-1.55.3-3.09.74-3.09 2.81 0 1.82 1.36 2.56 3.02 2.56 1.27 0 2.38-.44 3.21-1.41 0 .99.5 1.41 1.27 1.41.48 0 .81-.09 1.08-.25v-1.16zm-2.44-1.98c0 .83-.81 2.07-2.79 2.07-.92 0-1.77-.35-1.77-1.34 0-1.11.85-1.47 1.84-1.64 1.01-.18 2.14-.19 2.72-.62v1.53zm3.55-7.59h1.5v-1.84h-1.5v1.84zm0 10.77h1.5v-9.13h-1.5v9.13zm3.31 0h1.5V77c0-2.31.88-3.69 3.3-3.69v-1.59c-1.62-.05-2.63.67-3.35 2.14h-.04v-1.92h-1.41v9.12zm5.19-2.88c.09 2.26 1.82 3.09 3.87 3.09 1.85 0 3.88-.71 3.88-2.88 0-1.77-1.48-2.26-2.98-2.6-1.4-.33-2.98-.51-2.98-1.59 0-.92 1.04-1.16 1.94-1.16.99 0 2.01.37 2.12 1.54h1.5c-.13-2.22-1.73-2.86-3.74-2.86-1.59 0-3.41.76-3.41 2.6 0 1.75 1.5 2.24 2.98 2.58 1.5.34 2.98.53 2.98 1.69 0 1.15-1.27 1.36-2.21 1.36-1.24 0-2.4-.42-2.45-1.77h-1.5zM20.69 4.12c-.14.28-.27.44-.25.65.02.21.24.36.35.58.1-.25.26-.44.24-.63-.03-.2-.29-.46-.34-.6zm3.7 0c-.05.14-.32.4-.34.59-.02.2.14.38.24.63.11-.21.33-.36.35-.58.02-.2-.11-.36-.25-.64zm-5.83-.16c.14 0 .25-.11.25-.25s-.11-.25-.25-.25-.25.11-.25.25.11.25.25.25zm.17.36c0-.14-.11-.25-.25-.25s-.25.11-.25.25.11.25.25.25c.13 0 .25-.11.25-.25zm.12.6c0-.14-.11-.25-.25-.25s-.25.11-.25.25.11.25.25.25c.13 0 .25-.11.25-.25zm1.09-2.15c.14 0 .25-.11.25-.25s-.11-.25-.25-.25-.25.11-.25.25.11.25.25.25zm-.62.19c.14 0 .25-.11.25-.25s-.11-.25-.25-.25-.25.11-.25.25.11.25.25.25zm-.49.43c.14 0 .25-.11.25-.25s-.11-.25-.25-.25-.25.11-.25.25.11.25.25.25zm1.76-.56c.14 0 .25-.11.25-.25s-.11-.25-.25-.25-.25.11-.25.25.12.25.25.25zm.62.18c.14 0 .25-.11.25-.25s-.11-.25-.25-.25-.25.11-.25.25c0 .13.11.25.25.25zm.59.27c.14 0 .25-.11.25-.25s-.11-.25-.25-.25-.25.11-.25.25.11.25.25.25zm4.46.43c0 .14.11.25.25.25s.25-.11.25-.25-.11-.25-.25-.25-.25.11-.25.25zm.33.36c-.14 0-.25.11-.25.25s.11.25.25.25.25-.11.25-.25-.11-.25-.25-.25zm-.12.6c-.14 0-.25.11-.25.25s.11.25.25.25.25-.11.25-.25c0-.13-.11-.25-.25-.25zm-1.35-1.9c.14 0 .25-.11.25-.25s-.11-.25-.25-.25-.25.11-.25.25.12.25.25.25zm.63.19c.14 0 .25-.11.25-.25s-.11-.25-.25-.25-.25.11-.25.25.11.25.25.25zm.48.43c.14 0 .25-.11.25-.25s-.11-.25-.25-.25-.25.11-.25.25.12.25.25.25zm-1.76-.56c.14 0 .25-.11.25-.25s-.11-.25-.25-.25-.25.11-.25.25.11.25.25.25zm-.62.18c.14 0 .25-.11.25-.25s-.11-.25-.25-.25-.25.11-.25.25c0 .13.11.25.25.25zm-.83.02c0 .14.11.25.25.25s.25-.11.25-.25-.11-.25-.25-.25-.25.11-.25.25zm-.91 1.35h.28V3.31c-.1-.02-.19-.05-.28-.09v1.16zm.85-1.15c-.09.04-.18.07-.28.09v1.07h.28V3.23zm-.59-1.18v-.64c-.31.06-.56.32-.61.63h.61zm.33 0h.61a.766.766 0 0 0-.61-.63v.63zm-.93.3c.08.35.39.62.77.62s.69-.26.77-.62h-1.54zm1.19-1.04c-.18-.14-.32-.34-.34-.55.2.04.43.18.57.36V.26c-.14.18-.36.33-.57.36.02-.21.15-.4.33-.62h-.83c.17.22.3.41.33.62-.2-.04-.43-.18-.57-.36v.86a.97.97 0 0 1 .57-.36c-.02.21-.16.41-.34.55h.85zm.03 17.94c.17 0 .31-.14.31-.31s-.14-.31-.31-.31c-.17 0-.31.14-.31.31s.14.31.31.31zm-1.48-.46c.19 0 .34-.15.34-.34 0-.19-.15-.34-.34-.34-.18 0-.34.15-.34.34 0 .19.16.34.34.34zM21 17.3c.05.04.1.08.14.11a.552.552 0 0 0-.14-.3.54.54 0 0 0-.39-.19c-.31 0-.64.33-.73.44l-.03.03-.04-.01c-.08-.02-.16-.03-.24-.04.03.07.06.14.11.22l.02.04-.02.04c-.15.24-.24.48-.24.66 0 .12.14.37.35.47.14.07.29.06.43-.02-.08-.04-.18-.1-.25-.15l-.04-.02a.312.312 0 0 1-.16-.16c-.01-.02-.01-.04-.01-.06 0-.07.03-.17.1-.29.01-.03.03-.05.04-.07.01-.02.02-.03.03-.04l.04-.06.06.04c.12.07.23.1.31.08.04-.01.06-.03.08-.06.05-.08.02-.22-.14-.35l-.06-.05.09-.1c.06-.07.12-.13.18-.19.14-.12.27-.12.42 0l.09.03zm2.88 1.18c.48.12 1.07.23 1.46.17l-.05.05c-.14.13-.33.27-.53.4-.5.31-1.01.5-1.39.5-.44 0-1.02-.09-1.6-.26-.52-.15-1.01-.34-1.39-.54-.2.15-.43.18-.64.07-.26-.12-.43-.42-.43-.6 0-.03 0-.07.01-.1a4.72 4.72 0 0 1-.5-.5c-.49-.55-.87-1.19-1.13-1.9-.12-.33-.22-.67-.29-1.02.45.16.64 0 .77-.14.05.01.05.14.04.19.49-.01.78-.34.82-.6.05.31.12.6.23.89.18.5.44.95.77 1.34.11.13.24.26.36.37.08-.03.16-.05.24-.05a.7.7 0 0 1 .5.24c.14.15.2.35.18.53v.01c.85.42 1.79.75 2.57.95zm-.22 3.19c.06-.12.1-.24.1-.33 0-.15-.12-.37-.37-.37-.43 0-.33.59-.53.59-.09 0-.16-.06-.16-.14 0-.17.3-.33.3-.56 0-.24-.22-.44-.46-.63-.24.19-.46.39-.46.63s.3.4.3.56c0 .09-.07.14-.16.14-.2 0-.1-.59-.53-.59-.25 0-.37.22-.37.37 0 .09.04.21.1.33.05-.11.14-.17.21-.17.32 0 .2.85.58.85.17 0 .26-.11.26-.23 0-.12-.08-.15-.08-.25s.08-.13.16-.13.16.03.16.13-.08.13-.08.25.09.23.26.23c.38 0 .26-.85.58-.85.05.01.14.07.19.17zm-1.12 1.19c.12 0 .21-.09.21-.21s-.09-.21-.21-.21-.21.09-.21.21c0 .11.1.21.21.21zm.85-2.06c.33 0 .54.28.54.54 0 .24-.14.47-.27.61-.07-.15-.12-.27-.21-.27-.16 0-.08.82-.56.84.02.04.02.08.02.13a.37.37 0 1 1-.74 0c0-.05.01-.09.02-.13-.48-.02-.4-.84-.57-.84-.08 0-.14.12-.2.27-.12-.14-.27-.36-.27-.61 0-.26.2-.54.53-.54.06 0 .12.01.17.03v-1.15c.48.12.97.19 1.38.21v.94c.05-.02.1-.03.16-.03zm11.06 1.14c-.02-.05-.07-.08-.12-.06-1.1.32-2.47-.59-3.79-1.47-1.11-.74-2.16-1.44-3.07-1.44-.33 0-.63.07-.88.21-.31.17-.55.45-.7.81-.15.37-.31.62-.44.82-.15.24-.26.42-.26.63 0 .18.08.34.23.49.13.13.31.25.58.4.06.03.11.06.17.08.22.11.35.18.38.3-.44.19-1 .35-1.64.46-.72.13-1.52.19-2.35.19-.84 0-1.63-.07-2.35-.19-.64-.11-1.21-.27-1.64-.47.02-.18.15-.26.39-.37.06-.03.11-.05.17-.08.22-.12.43-.23.57-.35.15-.14.23-.29.23-.46 0-.22-.11-.39-.26-.63-.13-.2-.29-.45-.44-.82-.15-.37-.39-.64-.7-.81a1.79 1.79 0 0 0-.88-.21c-.9 0-1.95.7-3.07 1.44-1.32.88-2.69 1.79-3.79 1.47-.05-.01-.1.01-.12.06-.02.05.01.11.05.13.34.15.63.38.92.6.4.31.77.6 1.19.6.39 0 .81-.12 1.32-.39.44-.23.91-.55 1.35-.85.87-.6 1.77-1.21 2.63-1.28-.09.09-.18.17-.26.24-.25.22-.47.42-.47.82 0 .31.11.53.25.84.04.09.09.19.14.31.1.21.14.38.19.61.02.1.05.21.09.35.05.2.15.58.78.9.73.37 1.98.56 3.72.56 1.74 0 2.99-.19 3.72-.56.63-.32.73-.7.78-.9.04-.13.06-.25.09-.35.06-.23.1-.4.19-.61.07-.15.14-.28.2-.39.13-.24.23-.44.23-.72 0-.4-.23-.6-.49-.84-.08-.08-.17-.16-.27-.25.86.07 1.75.68 2.63 1.28.44.3.91.62 1.35.85.51.27.93.39 1.33.39.41 0 .79-.29 1.19-.6.29-.22.58-.45.92-.6 0-.04.02-.09.01-.14zm-8.33-8.56c-.01-.54-.1-1.07-.28-1.57-.18-.5-.44-.95-.77-1.34-.33-.39-.71-.69-1.14-.9-.4-.2-.82-.3-1.25-.32v4.13h3.44zm-3.58-5.86c1.17 0 1.98.35 2.45.66.27-.16.39-.32.39-.51 0-.67-1.89-.73-2.84-.73-.96 0-2.84.06-2.84.73 0 .19.12.34.39.51.47-.32 1.28-.66 2.45-.66zm-.06 1.72c-.46.01-.91.12-1.33.32-.43.21-.81.51-1.14.9-.33.39-.59.84-.77 1.34-.18.5-.27 1.03-.28 1.57h3.52V9.24zm5.34 3.87c.01.14 0 .19 0 .34 0 .8-.14 1.59-.41 2.32-.27.71-.64 1.35-1.13 1.9-.23.27-.49.51-.76.71-.07.05-.37.14-1.57-.16-.15-.04-.24-.06-.4-.11.02-.15.04-.23.08-.35.05-.13.11-.25.17-.31.07-.03.07-.08.14-.11.43-.21.81-.51 1.14-.9.33-.39.59-.84.77-1.34.17-.48.26-.99.28-1.52h-3.44v3.82c.27.02.79.07.79.07-.13.15-.18.31-.21.56-.39-.12-.77-.27-1.18-.43.12-.15.27-.18.4-.19v-3.83h-3.52c-.01-.15-.09-.41-.14-.47-.17-.21-.24-.34-.25-.66 0-.17-.11-.4-.29-.62-.1-.13-.52-.59-.62-.69.27-.71.65-1.34 1.13-1.88.32-.36.68-.67 1.07-.93-.21-.14-.42-.33-.42-.66 0-.19.08-.34.21-.46-.22-.71-.62-1.56-.95-1.94l.71-.3c-.19.28-.2.61-.16.8.19-.13.35-.3.4-.54.04.21.15.56.26.77-.21-.1-.37-.14-.58-.05.12.16.43.4.89.29.25-.06.5-.19.49-.39-.01-.12-.09-.26-.25-.24-.15.02-.16.25-.12.36-.2-.12-.41-.71-.1-.8.25-.07.48.27.56.54.05-.32.18-.62.43-.6.33.02.22.62.11.78-.02-.21-.13-.32-.23-.32-.09.01-.2.07-.18.26.02.19.29.31.61.31.3 0 .82-.09.87-.67-.2.04-.49.18-.62.37.04-.35.04-.6 0-.96.16.22.42.34.61.38-.05-.25-.27-.51-.52-.66h1.29c-.25.16-.46.42-.52.66.19-.03.46-.15.62-.38-.04.36-.04.61 0 .96-.13-.19-.44-.34-.63-.38.05.58.57.67.87.67.31 0 .59-.12.61-.31.02-.19-.1-.25-.18-.26-.1-.01-.21.1-.23.32-.11-.15-.22-.75.11-.78.25-.02.38.29.43.6.08-.26.31-.6.56-.54.32.09.11.68-.1.8.05-.11.04-.34-.11-.36-.16-.02-.24.12-.25.24-.01.2.24.33.49.39.47.11.77-.14.89-.3-.21-.09-.37-.04-.58.05.11-.21.22-.55.26-.77.05.23.21.41.4.54.04-.19.03-.52-.16-.8l.71.3c-.34.37-.73 1.22-.95 1.93.14.12.22.28.22.47 0 .33-.21.53-.42.66.39.25.75.56 1.07.93.26.29.47.56.67.9-.03.03-.06.07-.1.13-.04.07-.16.19-.21.24-.06.08-.12.17-.12.29 0 .1.04.2.11.32.09.14.63 1.22.76 1.49.1.23.3.41.42.5zm-3.21-2.19c-.2-.25-.43-.46-.68-.62-.21-.14-.43-.25-.66-.32.02.04.04.08.03.14-.05-.01-.1-.02-.13-.05v1.01c.06-.01.11.02.12.06.01.04.01.08-.04.12.05 0 .1.02.15.07-.05.05-.1.07-.15.07.05.04.05.08.04.12-.01.04-.06.06-.12.06v1.19c.04-.03.08-.05.15-.05 0 .06-.02.11-.05.14H24c-.01-.05.02-.1.06-.11.04-.01.08-.01.12.04 0-.05.02-.1.07-.15.05.05.07.1.07.15.04-.05.08-.05.12-.04.04.01.06.06.06.11h.86a.218.218 0 0 1-.07-.16c.05 0 .1.01.13.04-.08-.49-.26-.97-.51-1.39-.03.02-.07.01-.09 0-.03-.02-.05-.06-.04-.12-.04.03-.09.05-.16.04.01-.07.04-.11.08-.14-.06 0-.09-.03-.1-.07-.04-.07-.02-.11.01-.14zm.97 1.78c.11 0 .16.09.14.15-.02.03-.05.06-.11.05.04.04.06.09.06.15-.07 0-.12-.02-.15-.05.01.06-.02.1-.05.11-.05.03-.15-.02-.15-.13.04.05.13.03.12-.04H24.3c.02.07.01.15-.06.22a.22.22 0 0 1-.06-.22h-1.01c0 .07.09.08.13.03 0 .11-.1.16-.15.13a.122.122 0 0 1-.06-.11c-.04.03-.09.06-.15.06 0-.07.02-.12.06-.15-.06 0-.09-.02-.11-.05-.02-.05.02-.15.13-.15-.06.04-.04.13.03.12v-1.46c-.07.02-.15.01-.22-.06a.22.22 0 0 1 .22-.06V9.91c-.07-.01-.09.08-.04.12-.11-.01-.15-.11-.12-.16.02-.02.05-.04.09-.04a.254.254 0 0 1-.05-.16c.07.01.12.04.16.08.01-.05.03-.08.06-.09.05-.02.15.03.14.14-.03-.06-.12-.05-.13.02.29.08.57.2.83.38.28.19.53.42.75.7.03.03.05.06.08.1.04-.06.11-.11.22-.1-.02.1-.08.16-.15.18l-.01.01c.35.51.59 1.12.66 1.74.08.01.1-.09.04-.13zm-.6-.37c.04-.02.08-.05.09-.09-.05.02-.09-.01-.1-.01.03-.02.07 0 .03-.06-.04-.06-.07-.07-.11-.02-.04.04-.31-.01-.31-.22.02.04.05.06.09.08.01.01.02.01.03.02.01 0 .02 0 .04.01.03.01.05.01.08.01h.01v-.01c.06-.01.1-.05.11-.11.01-.11-.1-.16-.22-.26-.05-.04-.08-.07-.11-.1-.04-.08-.01-.15-.12-.3-.01-.04-.01-.08-.03-.13-.05.1-.08.28.06.43.11.13.36.25.35.35 0 .02-.03.05-.06.05h-.03c-.01 0-.01 0-.02-.01-.02 0-.03-.01-.05-.02-.03-.02-.05-.03-.09-.07-.1-.09-.19-.23-.25-.31-.11-.14-.06-.28-.04-.4.08-.11-.05-.33-.12-.39 0 0 .02-.05 0-.12-.02.01-.05.01-.07.01-.02-.04-.03-.05-.06-.06-.05-.01-.05-.04-.05-.05-.03.03-.04.05-.07.05-.04 0-.06 0-.07.01-.03.02-.04.03-.09.03-.05 0-.04.03-.04.06 0 .02.01.05.03.07l.01.01.04.04.02-.05c.02-.02.08-.02.09.02.01.03.01.04-.02.04-.04.01-.06.01-.1.01-.03 0-.03.03-.02.06 0 .03.03.04.09.03.05-.01.15-.02.15.02 0 .12-.14.12-.17.26a.236.236 0 0 1-.09-.08c-.02-.04-.06-.08-.1-.13-.03-.03-.07-.06-.1-.09-.05-.03-.05-.05-.05-.1 0-.04.02-.08.02-.12 0 0-.01-.03-.01-.04-.01-.03-.05-.05-.07-.04.01.01.02.02.03.04l-.02.02a.03.03 0 0 0 0 .04v.03c0 .01 0 0-.01 0-.01-.03-.02-.07-.05-.08h-.02v-.01c0-.03-.04-.06-.07-.02.01 0 .02 0 .03.01 0 .01-.01.03-.01.03 0 .03.02.05.06.05.01 0 .01 0 .01.01v.01c-.06-.02-.08 0-.08.03v.02c-.02.01-.02.04.01.07 0-.01 0-.03.01-.03h.01c.01.01.01.01.02.01 0 0 .01 0 .03-.01h.01s.01.01.02.01v.01c-.04.04-.03.07.01.08-.02.04-.09.02-.08-.03-.05.08.03.13.1.1 0 .03 0 .08.01.08 0 0 0-.01.01-.01 0 0 .01 0 .01.01 0 .02.01.04.03.04 0-.01 0-.02.01-.02.01.02.02.04.03.05.03.06.1.2.24.26-.07.04-.12.11-.17.16-.04.04-.1.08-.14.06-.02-.01-.02-.03-.04-.04-.02-.01-.03-.02-.05-.01 0 0-.01 0-.02.01-.03-.01-.06 0-.08.02.01 0 .03-.01.05.01v.03c0 .02.01.04.09.03 0 0 .01 0 .01.01-.01.01-.02.02-.04.01-.03-.01-.05-.04-.07 0l-.02.02h-.01c-.03.01-.06.07-.02.09 0-.01 0-.03.02-.05.01.01.01.02.02.02.02.03.05.05.1-.02.01-.01.01 0 .01 0 0 .04-.04.09.01.09h.02v.01c.01.04.07.05.09.04-.02-.01-.04-.02-.05-.05h.02c.03-.03-.01-.06.01-.08 0-.01.01 0 .01 0 .01.02.03.05.07.03.02-.01.03-.03.03-.05.05-.02.1-.04.13-.03-.01-.03.02-.06.08-.08.05-.02.08 0 .1.02 0-.02.03-.06.05-.09-.01.21.28.21.35.34a.47.47 0 0 0-.24-.05c-.07.01-.19.08-.21.16-.01.07.06.18.13.23-.08.02-.11-.01-.19.01h-.01c-.07.01-.07-.11-.15-.08l-.02.01c-.03 0-.07.04-.06.07.01-.01.02-.02.05-.03v.02c0 .01 0 .03.03.03.02 0 .02-.01.03-.01 0 0 .01 0 .01.01 0 .03-.1-.02-.08.07 0 0 .01.02.02.02 0 .02.02.05.06.04-.01-.01-.02-.02-.02-.03h.02s.01 0 .01-.01c.01 0 .01 0 .01.01 0 0-.01.01-.01.02 0 0 0 .02.01.02 0 .03.04.06.08.03-.01 0-.04-.01-.04-.02.01 0 .02-.01.02-.01.01 0 .01-.02.01-.03 0-.01 0-.01.01-.01h.02c.01 0 .01 0 .01.01.01.02.03.04.06.02.02-.01.02-.01.03-.02.01.01.02.01.04.02-.01-.03.01-.06.08-.01l.05-.04s.06.03.09 0c.04-.04.02-.04.02-.07-.03-.06-.04-.06-.06-.12-.02-.11.13-.17.21-.15.02.07.11.25.27.3.1.04.14-.07.17-.06.01 0 .01.01.02.03-.01.05 0 .09-.01.12-.01.02-.06 0-.1 0-.02 0-.04.01-.04.02-.03.01-.07.03-.06.07.01-.01.03-.03.06-.03v.01c0 .04.05.06.08.03 0-.01.02 0 .01.01-.02.02-.07.06-.03.07 0 0 .01.01.02.01 0 .03.02.05.04.06-.01-.01-.01-.02 0-.05h.02c.03 0 .02-.05.04-.07h.01c-.01.03-.02.07.01.08h.02c.01.02.04.04.08.02-.01 0-.03-.01-.04-.03.01-.01.02-.02.02-.03.02-.06-.04-.07-.04-.09 0-.03.07-.01.07-.07v-.01c.03-.02.06-.04.06-.06-.07 0-.11-.01-.11-.02zm-3.2 1.92c.02-.17 0-.21-.09-.21-.11 0-.3.11-.55.2l.53.75c.03-.2.06-.38.07-.48 0-.02 0-.03.01-.05h-.03c-.07 0-.12-.05-.12-.12.01-.07.08-.1.13-.1l.05.01zm-.2 1.3c.02-.12.04-.25.06-.38l-.62-.89c-.09.03-.17.06-.27.08l.83 1.19zm-.09.54c.02-.1.04-.22.06-.35l-.94-1.35c-.06.01-.12.01-.18.01h-.11l1.17 1.69zm-1.33-1.68c-.09.97.6 1.58 1.29 1.85l-1.29-1.85zm1.92-.14c.06.01.11.04.11.11s-.06.1-.13.1h-.04l-.04 1.86.06.01-.01.16c-.01.05-.08.06-.13.06.03.29-.21.36-.33.36-.13 0-.24-.09-.24-.23 0-.12.11-.17.18-.17.07 0 .11.03.1.09-.01.05-.14.01-.14.08 0 .04.04.08.1.08.09 0 .15-.05.15-.15 0-.17-.16-.19-.32-.15-1.06-.31-1.66-1.35-1.58-2.16-.02-.01-.05-.02-.07-.03l.07-.16c-.02.03-.06.05-.1.05-.07 0-.13-.06-.13-.13s.06-.13.13-.13.13.06.13.13v.02l.07-.16c.17.1.44.21.67.21.53 0 .92-.26 1.11-.26.22 0 .35.15.34.36v.06l.04-.01zm-.94-3.92c-.01.02-.01.04.01.05.02.01.04-.01.05-.02 0-.02.01-.03 0-.03-.01-.01-.01-.02 0-.03.01-.02.02-.01.04 0-.01-.02-.01-.03 0-.03s.01.03.02.02c.01 0 0-.01 0-.02s-.01-.01-.01-.02l-.07-.03c-.01-.01-.01-.01-.02 0 0 0-.02.01-.01.02 0 .01.02-.01.03 0 .01.01 0 .01-.01.02.01.01.03.02.02.03 0 .01-.01.02-.03.02-.01-.01-.01 0-.02.02zm.13-.14c0 .02 0 .05.03.06.02 0 .02-.01.05-.02a.197.197 0 0 0-.08-.04zm.59.32c-.02 0-.01.01 0 0 .12.02.15.05.22.05.04-.01.04.02.04.02 0 .04.05.02.06 0 0 .03-.01.05-.02.05v.01c.01.02-.01.05.03.05-.01.02-.02.02-.04.02.02.01.02.02.02.03 0 .05-.05.04-.05.06 0 .02.04.02.03.07 0 0-.01.01-.01.02s.02.02.02.02c-.03.02-.05 0-.06-.02h-.02c-.02-.01-.02-.04-.01-.06-.02.01-.01.06-.04.05h-.02c-.01.02-.01.03 0 .04-.02 0-.03-.02-.03-.05-.01 0-.01-.01-.02-.01-.03-.01.01-.05.02-.06.01 0 0-.01-.01 0-.02.02-.06.01-.06-.02v-.01c-.02 0-.04.02-.04.02 0-.03.03-.05.05-.05 0 0 .01-.01.03-.01.03 0 .07.02.08 0 .01-.02-.01-.03.01-.08 0-.02-.01-.02-.02-.02s-.07-.02-.12.01c-.04.02.05.04-.05.04-.05 0-.09-.02-.13-.03.02.03 0 .06.02.07.04.02.04.09.03.1-.01.02-.06.02-.1.01h-.03c-.04.01 0 .05-.04.06-.02.01-.04-.01-.05-.02h-.03s-.01 0-.01.01 0 .02-.01.02c0 0-.01.01-.02.01 0 .01.02.02.04.02-.04.02-.08 0-.07-.03l-.01-.02c0-.01.01-.01.01-.02l-.01-.01c0 .01-.01.01-.01.01h-.02c0 .01.01.02.02.03-.04.01-.06-.01-.05-.03-.01 0-.01-.02-.01-.02-.02-.07.07-.03.07-.06 0 0 0-.01-.01-.01s-.01.01-.03.01c-.02 0-.03-.01-.03-.02v-.01c-.02 0-.03.02-.04.02-.01-.03.03-.06.06-.06l.02-.01c.07-.02.07.11.13.07.01 0 .03-.01.06-.01 0 0 .01 0 0-.01a.15.15 0 0 0-.07-.03c-.04-.01-.04-.09-.02-.13-.02.02-.06.03-.08.03-.27-.02-.06.08-.19.11-.02.01-.09.08-.15.07.02-.01.01-.03 0-.04-.01.02-.05.04-.07.03-.02.01-.04.03-.04.03 0 .03-.05.06-.07.05.01-.01.02-.02.02-.03 0-.01 0-.01-.01 0-.06.04-.11 0-.12.09-.02-.02-.01-.06-.02-.06 0 0-.01.01-.01.02-.01-.01-.01-.02 0-.04 0 0 0-.01-.01-.01-.04.01-.06.01-.07 0 0-.01-.01-.01-.01-.02-.01.04-.05.06-.06.06.02-.02.02-.05.01-.06l-.03.03c0-.02-.01-.03-.02-.04 0 .02-.01.05-.05.05s-.04-.03-.05-.05c0 0 0-.01-.01 0-.02.01 0 .05-.03.06h-.02c0 .03.01.05.02.05-.02 0-.06-.02-.05-.06v-.01c-.01 0-.01-.01-.02-.01-.03-.02.01-.05.03-.08 0 0 0-.01 0 0-.06.04-.08.02-.08-.01 0 0 0-.01-.01-.02-.02 0-.03.02-.03.03-.02-.03.02-.06.05-.06h.01c.01 0 .02-.01.02-.01.03-.02.03.01.06.03.01.01.02.01.03 0 .01 0 0-.01 0-.01-.06-.02-.07-.04-.06-.05 0 0 .01-.01.01-.02-.01-.02-.02-.02-.04-.02.01-.01.05-.01.07.01h.02c.01 0 .02.01.03.02.01.02.01.04.02.05.03.04.13 0 .17-.02.03-.01.11-.01.12-.01.01 0 .1-.02.15-.05-.04-.04-.05-.09-.06-.09-.01 0-.01.01-.01.02-.02 0-.02-.02-.02-.04v-.01c-.01 0-.02.01-.02.01-.01 0-.02-.01-.02-.02h-.01c-.07.03-.14-.02-.08-.08-.01.05.07.07.08.01v-.01c-.04-.01-.05-.04-.01-.07v-.01c-.01 0-.01-.01-.01-.01h-.01c-.02.01-.03.01-.03.01l-.01-.01h-.01c-.01 0-.01.02-.02.03-.03-.02-.02-.04 0-.05v-.02c0-.02.03-.04.08-.02 0 0 .01 0 0 0v-.01h-.01c-.03 0-.05-.01-.04-.04 0 0 .01-.02.01-.03 0-.01-.02-.01-.02-.01.04-.03.07-.01.06.02v.01h.02c.02 0 .03.04.04.06v-.03c-.01-.01 0-.02.01-.04l.02-.02c0-.02-.01-.03-.02-.04.02 0 .05.02.05.04v.03c0 .03-.02.06-.03.1-.01.04-.01.06.03.08.02.01.04.03.06.04 0-.03.01-.1.04-.16-.01 0-.01-.01-.02-.02.02 0 .03-.05.05-.08-.01 0-.01-.01-.02-.03.02.01.05-.06.08-.06-.01-.03 0-.05.01-.07.02 0 .04.01.05.02 0-.02.02-.02.03-.02 0 0 .03-.01.04 0 .01 0 .03 0 .06.02.03.01.05.03.06.04.01 0 .01.03.02.04.01.01.02.02.01.04.02 0 .04.01.05.02 0 .02-.02.04-.05.05.04.04-.05.13-.05.17.27-.07.37.03.52.03.19 0 .31-.05.31-.11 0-.19-.7-.01-.7-.27 0-.04.03-.07.07-.1 0-.02 0-.03.01-.05.07-.09.21-.1.27-.18.01.03-.02.11-.09.14.13-.01.17-.24.47-.2-.25.05-.25.29-.6.32h-.01c-.03.02-.05.05-.05.08 0 .17.69 0 .69.28.02.11-.1.19-.35.19zm-1.34.9c-.01.02-.01.05.02.06.03.02.05-.01.06-.03.01-.02.01-.03.01-.04-.01-.01-.02-.02-.01-.04s.03-.01.05 0c-.01-.02-.01-.03 0-.03s.01.03.02.03.01-.02.01-.03c0-.01-.01-.01-.02-.02l-.08-.04c-.01 0-.02-.01-.02 0s-.02.01-.02.02.02-.01.03 0c.01.01 0 .02-.02.02.02.01.03.02.03.04-.01.02-.02.02-.03.02-.01.01-.02.02-.03.04zm.09-.2a.25.25 0 0 1-.08-.05c.03.04 0 .05.02.07.02.02.05 0 .06-.02zm.06.03c0 .03.01.06.03.06.03 0 .02-.02.06-.03-.02 0-.08-.02-.09-.03zm1.53.21c0 .09-.24.13-.4.13.14.01.19.03.27.02.04-.01.05.02.05.02.01.04.06.02.07 0 0 .03 0 .05-.02.06v.01c.01.02-.01.06.04.06-.01.02-.03.02-.04.02.02.01.02.03.02.04 0 .06-.06.04-.06.07 0 .02.05.03.04.09 0 0-.01.02-.02.03 0 .01.02.02.03.02-.03.02-.06 0-.07-.02h-.02c-.03-.01-.02-.04-.01-.07 0 0 0-.01 0 0-.03.02-.02.07-.04.07h-.02c-.01.03-.01.04 0 .05-.02 0-.04-.03-.04-.05-.01 0-.02-.01-.02-.01-.03-.01.01-.05.03-.07.01-.01 0-.01-.01-.01-.02.03-.07.01-.07-.03v-.01c-.02 0-.04.02-.05.03 0-.03.03-.06.06-.06 0 0 .02-.02.04-.02.03 0 .08.02.09 0 .01-.03-.01-.03.01-.09 0-.02-.01-.03-.02-.03-.02 0-.08-.02-.14.01-.05.03-.08.05-.19.05-.06 0-.11-.02-.15-.04.02.04 0 .07.02.08.04.03.05.1.04.12-.01.02-.07.02-.11.01h-.03c-.04.01 0 .06-.05.07-.03.01-.05-.01-.06-.03 0 0 0-.01-.01-.01h-.02s-.01 0-.01.01 0 .02-.01.03c0 0-.01.01-.02.01 0 .02.03.02.04.02-.04.03-.09 0-.08-.03 0 0-.01-.02-.01-.03v-.02s0-.01-.01-.01c0 .01-.01.01-.01.01h-.02c0 .01.01.02.02.03-.04.01-.06-.01-.06-.04-.01-.01-.01-.02-.01-.02-.02-.08.08-.04.08-.07 0-.01 0-.01-.01-.01s-.02.01-.03.01c-.03 0-.03-.01-.03-.02v-.02c-.02 0-.04.02-.05.03-.01-.03.04-.07.07-.07 0 0 .02-.01.02-.02.08-.03.08.13.15.08.01-.01.04-.01.07-.02 0 0 .01 0 0-.01-.02-.02-.06-.03-.08-.04-.05-.01-.05-.1-.02-.15-.02.02-.06.04-.08.04-.35-.06-.2.15-.41.13-.01 0-.04 0-.07.01-.02.05-.14.16-.21.15.02-.01.03-.02.03-.04 0-.01 0-.01-.01 0-.07.04-.13 0-.14.11-.03-.03-.01-.07-.03-.07l-.02.02a.03.03 0 0 1 0-.04s0-.01-.01 0c-.04.01-.07.01-.09 0 0-.01-.01-.02-.02-.02-.01.04-.05.07-.07.07.03-.03.02-.05.02-.07-.01.02-.02.03-.03.03 0-.02-.01-.04-.02-.04 0 .02-.02.06-.06.06-.04 0-.05-.04-.05-.05 0 0 0-.01-.01 0-.02.01 0 .06-.04.07h-.02c0 .03.01.05.02.06-.02 0-.07-.03-.06-.07v-.01c-.01-.01-.02-.01-.02-.01-.04-.02.01-.06.03-.09 0 0 0-.01-.01 0-.08.05-.09.02-.1-.02 0 0 0-.01-.01-.02-.02.01-.04.02-.04.03-.02-.04.03-.07.06-.07h.01c.01 0 .02-.01.02-.01.03-.02.04.01.07.03.01.01.03.01.04 0 .01 0 0-.01 0-.01-.07-.03-.08-.05-.07-.07l.01-.02c-.01-.02-.03-.03-.04-.03.02-.01.06-.01.08.01h.03c.01 0 .03.01.04.03.02.03.01.04.02.06.03.05.15.01.19-.02.03-.02.16-.01.17-.01.01 0-.03-.06-.03-.1-.03.03-.06-.02-.11-.04-.05-.03-.09-.09-.1-.09-.01 0-.01.01-.01.03-.02 0-.03-.03-.03-.04v-.01c-.01 0-.02.01-.02.02-.01 0-.02-.01-.02-.03 0 0 0-.01-.01 0-.07.04-.16-.02-.1-.1-.01.07.08.08.09.01 0-.01 0-.01-.01-.01-.05-.01-.05-.04-.01-.08v-.01s-.01-.01-.02-.01h-.01c-.02.01-.03.01-.03.01l-.01-.01h-.01c-.02 0-.01.02-.01.04-.04-.02-.03-.05-.01-.07v-.02c0-.02.03-.05.08-.03h.01v-.01s0-.01-.01-.01c-.03 0-.06-.01-.05-.04 0 0 0-.02.01-.03-.01-.01-.02-.01-.03-.01.04-.04.07-.01.07.02h.02c.03 0 .04.05.05.08 0 0 0 .01 0 0v-.03c-.01-.02-.01-.03 0-.04l.02-.02c0-.03-.01-.04-.02-.04.02 0 .06.02.06.04 0 .01.01.03.01.04 0 .04-.02.08-.02.12 0 .05 0 .07.04.1.05.03.08.07.11.09l.03.01h-.02c.01 0 .01.01.02.01h.01l.05.02c0-.03 0-.06.01-.09-.01 0-.02-.01-.04-.04.03 0 .04-.05.06-.1-.01 0-.02-.01-.03-.03.03.01.06-.07.09-.07-.01-.04 0-.06.01-.09.02 0 .04.01.06.02 0-.02.02-.02.04-.02l.04-.01c.01 0 .04 0 .07.02.04.02.06.04.07.05.01 0 .01.04.02.04.01.01.03.03.02.04.02 0 .04.01.06.03 0 .02-.02.05-.05.06.03.04-.03.11-.05.16.33-.07.87.03 1.05.03.12 0 .32-.02.32-.07 0-.04-.04-.06-.25-.06s-.87.14-.87-.1c0-.12.14-.12.32-.11.01 0 .01-.01.02-.02.13-.08.34.03.45-.04-.01.04-.06.08-.2.08.24.05.43-.13.66.05-.19-.05-.57.11-.88.02-.03-.01-.04-.02-.05-.03-.13-.01-.24-.01-.24.05 0 .14.55.05.8.05.2.02.28.06.28.14zm-1.96 1.05c-.01.01-.01.04.01.06.02.01.05-.01.05-.03.01-.02.01-.03 0-.04-.01-.01-.01-.02-.01-.04.01-.02.03-.01.04 0-.01-.02-.01-.03 0-.03s.01.03.02.02c.01 0 0-.02 0-.02 0-.01-.01-.02-.01-.02l-.08-.04c-.01 0-.02-.01-.02 0 0 0-.02.01-.02.02s.02-.01.03 0c.01.01 0 .02-.02.02.02.01.03.02.03.04-.01.02-.01.02-.03.02.02.01.02.02.01.04zm.09-.19a.25.25 0 0 1-.08-.05c.02.04 0 .04.02.06.02.03.04.01.06-.01zm.05.03c0 .02 0 .06.03.06s.02-.01.06-.02c-.02-.01-.08-.03-.09-.04zm1.71.19c0 .09-.24.12-.38.13.13.01.18.03.25.02.04-.01.05.02.05.02 0 .04.05.02.06 0 0 .03-.01.05-.02.06v.01c.01.02-.01.06.03.06-.01.02-.02.02-.04.02.02.01.03.03.03.04 0 .06-.06.04-.06.07 0 .02.05.02.03.08 0 0-.01.02-.02.02 0 .01.02.02.03.02-.03.02-.06 0-.07-.02h-.02c-.02-.01-.02-.04-.01-.07-.03.01-.02.06-.04.06h-.02c-.01.02-.01.03 0 .04-.02 0-.04-.03-.04-.05-.01 0-.02-.01-.02-.01-.03-.01.01-.05.03-.07 0 0 0-.01-.01 0-.02.03-.06.01-.07-.03v-.01c-.02 0-.04.02-.05.02 0-.03.03-.06.06-.06 0 0 .01-.02.03-.02.03 0 .08.02.09 0 .01-.02-.01-.03.01-.09 0-.02-.01-.02-.02-.03-.02 0-.08-.02-.13.01s-.07.04-.18.04c-.06 0-.1-.02-.15-.04.02.04 0 .07.02.08.04.02.05.09.04.11-.01.02-.07.02-.11.01h-.03c-.04.01 0 .05-.05.07-.03.01-.05-.01-.06-.02 0 0 0-.01-.01-.01h-.02s-.01 0-.01.01 0 .02-.01.03c0 0-.01 0-.02.01 0 .01.03.02.04.02-.04.03-.08 0-.08-.03l-.01-.02v-.02l-.01-.01c0 .01-.01.01-.01.01h-.02c0 .01.01.02.02.03-.04.01-.06-.01-.06-.03 0-.01-.01-.02-.01-.02-.02-.08.07-.04.07-.06 0 0 0-.01-.01-.01s-.01.01-.03.01c-.02 0-.03-.01-.03-.02v-.02c-.02 0-.04.02-.05.03-.01-.03.03-.07.06-.07 0 0 .02-.01.02-.02.07-.03.08.12.15.08.01-.01.04-.01.06-.02 0 0 .01 0 0-.01a.133.133 0 0 0-.08-.03c-.04-.01-.04-.08-.02-.13-.02.02-.03.03-.05.03-.45-.04-.23.17-.61.12-.03 0-.02.05-.09.05-.01 0-.02.01-.04.01 0 .01 0 .02-.01.03l-.1.05s0-.01.01-.01c-.03.02-.06.04-.09.03.02-.01.02-.02.03-.03 0-.01 0-.01-.01 0-.07.04-.19-.01-.2.09-.02-.02-.01-.06-.02-.06s-.02.02-.02.02c-.01-.01-.01-.02 0-.04 0 0 0-.01 0 0-.04.01-.07.01-.08 0 0-.01-.01-.02-.01-.02-.01.04-.05.07-.07.07.03-.02.02-.05.02-.07-.01.01-.02.03-.03.03 0-.02-.01-.03-.02-.04 0 .02-.02.05-.05.06-.04 0-.05-.04-.05-.05 0 0 0-.01-.01 0-.02.01 0 .05-.04.07 0 0-.01 0-.02-.01 0 .03.01.05.02.06-.02 0-.07-.03-.06-.07v-.01c-.01-.01-.02-.01-.02-.01-.04-.02.01-.05.03-.08 0 0 0-.01-.01-.01-.07.05-.09.02-.09-.01 0 0 0-.01-.01-.02-.02 0-.03.02-.04.03-.02-.04.03-.07.06-.07h.01c.01 0 .02-.01.02-.01.03-.02.04.01.06.03.02.01.03.01.04 0 .01 0 0-.01 0-.01-.07-.02-.07-.05-.07-.06 0 0 .01-.01.01-.02-.01-.02-.03-.03-.04-.03.02-.01.06-.01.07.01h.03c.01 0 .03.01.03.03.01.02.01.04.02.05.03.05.14.01.18-.02.03-.02.18-.01.19-.01.01 0-.02-.05-.02-.1l-.02-.02c-.01.02-.04.02-.05.03-.09-.05-.14-.14-.15-.14-.01 0-.01.01-.01.03-.02 0-.03-.02-.03-.04v-.01c-.01 0-.02.01-.02.01-.01 0-.02-.01-.02-.02h-.01c-.06.04-.15-.02-.1-.1 0 .07.08.08.09.01 0-.01 0-.01-.01-.01-.05-.01-.05-.04-.02-.08v-.01c-.01 0-.01-.01-.02-.01h-.01c-.02.01-.03.01-.03.01l-.01-.01h-.01c-.01 0-.01.02-.01.03-.04-.02-.03-.05-.01-.06v-.02c0-.02.02-.05.08-.02 0 0 .01 0 0 0v-.01s0-.01-.01-.01c-.03 0-.06-.01-.05-.04 0 0 0-.02.01-.03-.01-.01-.02-.01-.03-.01.04-.04.07-.01.07.02v.01h.02c.03 0 .04.04.05.07 0 0 0 .01 0 0v-.03a.03.03 0 0 1 0-.04l.02-.02c0-.02-.01-.03-.02-.04.02-.01.05.01.06.04 0 .01.01.03.01.04 0 .04-.02.07-.02.11 0 .05 0 .07.05.1.06.04.09.1.13.1.02 0 .03 0 .04.01h.04l.02.01c0-.02 0-.05.01-.07-.01 0-.02-.01-.03-.03.03 0 .04-.05.06-.09-.01 0-.02-.01-.03-.03.03.01.05-.06.08-.06-.01-.04-.01-.06.01-.08.02 0 .04.01.05.02 0-.02.02-.02.04-.02 0 0 .03-.01.04-.01.01 0 .04 0 .07.02.03.02.06.04.07.05 0 .01.01.04.02.04.01.01.02.03.01.04.02 0 .04.01.06.03 0 .02-.02.05-.05.06.03.04-.04.12-.06.17.3-.09 1.07.01 1.25.01.11 0 .31-.01.31-.07 0-.04-.04-.06-.24-.06-.2 0-1.02.14-1.02-.1 0-.13.27-.11.49-.1l.02-.02c.12-.08.42.04.52-.03-.01.04-.15.06-.28.06.23.05.45-.12.62.03-.22-.07-.53.13-.83.04-.03-.01-.04-.02-.05-.03-.18 0-.42-.04-.42.04 0 .13.72.04.95.04.3.01.37.06.37.13zm1.5 1.52c-.01.01-.01.04.02.06.02.01.05-.01.05-.03 0-.02.01-.03 0-.04-.01-.01-.01-.02-.01-.04.01-.02.03-.01.04 0-.01-.02-.01-.03 0-.03s.01.03.02.02 0-.02 0-.02c0-.01-.01-.01-.01-.02l-.07-.03c-.01 0-.02-.01-.02 0-.01.01-.02.01-.01.02 0 .01.02-.01.03 0 .01.01 0 .02-.02.02.02.01.03.02.03.04-.01.02-.01.02-.03.02 0 .01-.01.02-.02.03zm.09-.18c-.01 0-.06-.03-.08-.04.02.04 0 .04.02.06.02.02.05 0 .06-.02zm.06.02c0 .02.01.06.03.06.03 0 .02-.02.06-.02-.03-.01-.08-.02-.09-.04zm1.68.44c.01.02-.01.06.03.06-.01.02-.03.02-.04.02.02.01.02.02.02.03 0 .06-.06.04-.06.07 0 .02.05.02.03.08 0 0-.01.02-.02.03 0 .01.02.02.03.02-.03.02-.06 0-.06-.02h-.02c-.02-.01-.02-.04 0-.07-.03.01-.02.06-.05.06h-.02c-.01.02-.01.03-.01.04-.02 0-.03-.03-.03-.05-.01 0-.02-.01-.02-.01-.03-.01.01-.05.03-.07.01 0-.01-.01-.01 0-.02.02-.07.01-.07-.03v-.01c-.02 0-.04.02-.05.02 0-.03.03-.05.06-.06 0 0 .02-.02.03-.02.03 0 .08.02.09 0 .02-.02 0-.03.02-.09 0-.02-.01-.02-.02-.03-.02 0-.08-.02-.13.01s-.08.04-.19.04c-.06 0-.1-.02-.15-.04.02.04 0 .07.02.08.04.02.05.09.04.11-.01.02-.07.02-.11.01h-.03c-.04.01 0 .05-.05.07-.03.01-.05-.01-.06-.02 0 0 0-.01-.01 0h-.02s-.01 0-.01.01 0 .02-.01.03c0 0-.01 0-.02.01 0 .01.03.02.04.02-.04.03-.08 0-.08-.03 0 0-.01-.02-.01-.03 0-.01.01-.01.01-.02 0 0 0-.01-.01-.01 0 .01-.01.01-.01.01h-.02c0 .01.01.02.02.03-.04.01-.06-.01-.06-.03-.01-.01-.01-.02-.02-.02-.02-.08.08-.03.08-.06 0-.01 0-.01-.01-.01s-.01.01-.03.01c-.02 0-.03-.01-.03-.02v-.02c-.02 0-.04.02-.05.03-.01-.03.03-.07.06-.07 0 0 .02-.01.02-.02.07-.03.08.12.14.08.01-.01.04-.01.06-.02 0 0 .01 0 0-.01a.133.133 0 0 0-.08-.03c-.05-.01-.04-.1-.02-.14-.02.02-.03.04-.05.04-.45-.04-.23.17-.61.12-.03 0-.02.05-.08.05-.03.01-.07.01-.07.02 0 .04-.09.1-.12.08.02-.01.02-.02.03-.03 0-.01 0-.01-.01 0-.07.04-.12 0-.13.1-.02-.03-.01-.07-.02-.07s-.02.02-.02.02a.03.03 0 0 1 0-.04s0-.01-.01 0c-.04.01-.07.01-.08 0 0-.01-.01-.02-.02-.02-.01.04-.05.07-.07.07.03-.03.02-.05.02-.07-.01.01-.02.03-.03.03 0-.02-.01-.04-.02-.04 0 .02-.01.05-.05.06-.04 0-.05-.03-.05-.05 0 0 0-.01-.01 0-.02.01 0 .05-.04.07 0 0-.01 0-.02-.01 0 .03.01.05.02.06-.02 0-.07-.03-.06-.07v-.01c-.01 0-.02-.01-.02-.01-.04-.02.01-.05.03-.08 0 0 0-.01 0 0-.07.05-.09.02-.09-.02 0 0 0-.01-.01-.02-.02 0-.03.02-.04.03-.02-.04.03-.07.05-.07h.01c.01 0 .02-.01.02-.01.03-.02.04.01.06.03.01.01.03.01.04.01v-.01c-.07-.02-.07-.05-.06-.06 0 0 .01-.01.01-.02-.01-.02-.03-.02-.04-.03.02-.01.05-.01.07.01h.03c.01 0 .02.01.03.03.01.02.01.04.02.05.03.04.14.01.18-.02.03-.02.12 0 .13 0 .01 0-.04-.05-.04-.09l-.02.01c-.02-.01-.03-.02-.03-.04-.02.01-.06.03-.06.04-.1-.05-.14-.15-.15-.15-.01 0-.01.01-.01.03-.02 0-.03-.02-.03-.04 0 0 0-.01-.01-.01s-.02.01-.02.01c-.01 0-.02-.01-.02-.02h-.01c-.06.04-.15-.02-.1-.09 0 .07.08.08.09.01 0-.01 0-.01-.01-.01-.05-.01-.05-.04-.02-.08v-.01c-.01 0-.01-.01-.01-.01h-.01c-.02.01-.03.01-.03.01l-.01-.01h-.01c.04.01.04.03.04.04-.03-.02-.03-.05-.01-.06v-.02c0-.02.02-.05.08-.03 0 0 .01 0 0 0v-.01s0-.01-.01-.01c-.03 0-.05-.01-.05-.04 0 0 .01-.02.01-.03 0-.01-.02-.01-.03-.01.04-.04.07-.01.07.02v.01h.02c.02 0 .04.04.05.07 0 0 0 .01.01 0v-.03a.03.03 0 0 1 0-.04l.02-.02c0-.02-.01-.03-.02-.04.02-.01.05.02.06.04 0 .01.01.03.01.04 0 .04-.02.07-.02.11 0 .05 0 .07.05.1.06.04.09.1.13.1.01 0 .03 0 .04.01h.04l.04.01c0-.02 0-.04.01-.07-.01 0-.02-.01-.04-.03.03 0 .04-.05.06-.09-.01 0-.02-.01-.03-.03.03.01.06-.06.08-.06-.01-.04 0-.06.01-.08.02 0 .04.01.06.02 0-.02.02-.02.04-.02 0 0 .03-.01.04-.01.01 0 .04 0 .07.02.03.02.06.04.07.05.01 0 .02.04.02.04.01.01.02.03.01.04.02 0 .04.01.06.03 0 .03-.02.05-.05.06.04.04-.04.12-.06.17.31-.09 1.07.01 1.25.01.11 0 .31-.01.31-.07 0-.04-.04-.06-.24-.06-.2 0-1.02.14-1.02-.1 0-.13.27-.1.49-.1l.02-.02c.12-.08.42.04.52-.03-.01.04-.15.06-.28.06.23.05.38-.1.62-.01-.18-.05-.53.17-.83.09-.03-.01-.04-.02-.05-.03-.18-.01-.42-.04-.42.04 0 .13.72.05.95.05.23 0 .31.05.31.12 0 .09-.25.11-.38.12-.01 0-.01.01 0 .01.13.01.2.03.27.02.04-.01.04.02.04.02 0 .04.05.02.07 0-.02 0-.03.02-.05.04 0-.01 0 0 0 0zm-1.69.66c.03 0 .02-.02.06-.02a.392.392 0 0 1-.09-.04c0 .02.01.06.03.06zm-.04.05c.01 0 0-.02 0-.02 0-.01 0-.01-.01-.02l-.07-.03c-.01-.01-.02-.01-.02 0-.01 0-.02.01-.01.02 0 .01.02-.01.03 0 .01.01 0 .01-.02.02.02.01.03.02.02.04 0 .01-.01.02-.03.02-.01 0-.01.01-.02.03-.01.02-.01.04.01.06.02.01.05-.01.05-.02.01-.02.01-.03.01-.04-.01-.01-.01-.02-.01-.04.01-.02.02-.01.04 0-.01-.02-.01-.03 0-.02.03-.02.03 0 .03 0zm.68-.12c-.12-.01-.21-.01-.21.05 0 .13.5.04.73.04.22 0 .23.04.23.11 0 .08-.26.1-.39.11-.01 0-.01.01 0 .01.13.01.22.02.29.02.04-.01.04.02.04.02 0 .04.05.02.06 0 0 .03-.02.05-.03.06v.01c0 .02-.02.06.02.05-.01.02-.03.02-.04.02.02.01.02.02.02.03-.02.06-.07.04-.07.06-.01.02.04.02.01.08 0 0-.01.02-.02.02 0 .01.02.02.02.02-.03.02-.06 0-.06-.02h-.02c-.02-.01-.01-.04.01-.07-.03.01-.03.06-.05.06h-.02c-.02.02-.02.03-.01.04-.02 0-.03-.03-.02-.05-.01 0-.02-.01-.02-.01-.03-.01.02-.05.04-.06.01-.01 0-.01-.01-.01-.03.02-.07.01-.06-.02v-.01c-.02 0-.04.02-.05.02.01-.03.04-.05.07-.06 0 0 .02-.01.03-.01.03 0 .07.02.09 0 .02-.02 0-.03.03-.08.01-.02 0-.02-.01-.03-.01 0-.07-.02-.13.01-.05.03-.1.04-.2.04-.06 0-.1-.02-.14-.03.02.03 0 .06.02.07.04.02.05.09.04.11-.01.02-.07.02-.1.01h-.03c-.04.01 0 .05-.04.07-.03.01-.05 0-.05-.02 0 0 0-.01-.01-.01h-.02s-.01 0-.01.01 0 .02-.01.03c0 0-.01 0-.02.01 0 .01.03.02.04.02-.04.03-.08 0-.08-.03l-.01-.02c0-.01.01-.01.01-.01s0-.01-.01-.01c0 .01-.01.01-.01.01h-.02c0 .01.01.02.02.03-.04.01-.06-.01-.05-.03-.01 0-.01-.02-.01-.02-.02-.07.07-.03.07-.06 0-.01 0-.01-.01-.01s-.01.01-.03.01c-.02 0-.03-.01-.03-.02v-.02c-.02 0-.04.02-.05.03-.01-.03.03-.06.06-.06l.02-.01c.07-.03.07.11.14.07.01-.01.04-.01.06-.02 0 0 .01 0 0-.01a.15.15 0 0 0-.07-.03c-.04-.01-.04-.09-.02-.13-.02.02-.06.04-.08.03-.31-.05-.16.13-.36.11-.02 0-.02.05-.08.04.02-.01.02-.02.01-.03 0 .01-.01.01-.02.02-.02.05-.09.14-.15.1.02-.01.02-.02.03-.03 0-.01 0-.01-.01 0-.06.04-.14.02-.15.11-.02-.02-.01-.06-.02-.06s-.02.02-.02.02c-.01-.01-.01-.02 0-.04 0 0 0-.01-.01 0-.04.01-.07.01-.08 0 0-.01-.01-.02-.01-.02-.01.04-.05.06-.06.07.02-.03.02-.05.02-.07l-.03.03c0-.02-.01-.04-.02-.04 0 .02-.01.05-.05.06-.04 0-.05-.03-.05-.05 0 0 0-.01-.01 0-.02.01 0 .05-.03.07 0 0-.01 0-.02-.01 0 .03.01.05.02.06-.02 0-.06-.03-.06-.06v-.01c-.01 0-.01-.01-.02-.01-.03-.02.01-.05.03-.08 0 0 0-.01-.01 0-.07.05-.08.02-.09-.01 0 0 0-.01-.01-.02-.02 0-.03.02-.04.03-.02-.03.02-.07.05-.07h.01c.01 0 .02-.01.02-.01.03-.02.03.01.06.03.01.01.03.01.04 0 .01 0 0-.01 0-.01-.07-.02-.07-.04-.06-.06 0 0 0-.01.01-.02-.01-.02-.03-.02-.04-.03.02-.01.05-.01.07.01h.02c.01 0 .02.01.03.03.01.02.01.04.02.05.03.04.13 0 .17-.02.03-.02.12-.01.13-.01.01 0 0-.07 0-.11l-.06.01-.03-.03c-.08-.04-.07-.02-.09-.02-.01 0-.01.01-.01.03-.02 0-.03-.03-.03-.04v-.01c-.01 0-.01.01-.01.01-.01 0-.02-.01-.02-.02h-.01c-.06.04-.14-.02-.1-.09 0 .06.08.07.08.01 0-.01 0-.01-.01-.01-.04-.01-.05-.04-.01-.07v-.01l-.01-.01h-.01c-.02.01-.02.01-.03.01l-.01-.01h-.01c-.01 0-.01.02-.01.03-.03-.02-.03-.05-.01-.06v-.02c0-.02.02-.04.07-.02 0 0 .01 0 0 0v-.01s0-.01-.01-.01c-.03 0-.05-.01-.05-.04 0 0 .01-.02.01-.03-.01-.01-.02-.01-.03-.01.03-.03.06-.01.06.02h.02c.03 0 .04.04.05.07 0 0 0 .01.01 0v-.03a.03.03 0 0 1 0-.04l.02-.02c0-.02-.01-.03-.02-.04.02-.01.05.01.06.04 0 .01.01.03.01.03 0 .04-.02.07-.02.11 0 .04 0 .07.05.09.06.03.08.03.12.03h.01l.03.01c0-.03.01-.06.02-.08l-.02-.02c.02 0 .03-.05.06-.09-.01 0-.02-.01-.02-.03.02.01.05-.06.08-.06-.01-.03 0-.05.01-.08.02 0 .04.01.05.02 0-.02.02-.02.04-.02 0 0 .03-.01.04 0 .01 0 .03 0 .07.02.03.01.05.03.07.04.01 0 .01.04.02.04.01.01.02.03.01.04.02 0 .04.01.05.02 0 .02-.02.05-.05.06.03.03-.02.1-.05.15.3-.06.79.02.95.02.11 0 .32-.01.32-.07 0-.04.02-.06-.16-.06-.19 0-.78.13-.78-.09 0-.1.13-.1.29-.1.01 0 .01-.01.02-.01.12-.07.4.03.5-.03-.01.04-.14.06-.27.06.22.04.36-.09.59-.01-.17-.05-.5.17-.79.08-.09.01-.11 0-.12-.02zm-.9 1.2c-.01.01-.01.04.01.05.02.01.04-.01.05-.02.01-.01.01-.03 0-.03-.01-.01-.01-.02-.01-.03.01-.02.02-.01.04 0-.01-.02-.01-.03 0-.02.01 0 .01.02.02.02s0-.02 0-.02c0-.01 0-.01-.01-.02l-.07-.03c-.01 0-.02-.01-.02 0 0 0-.02.01-.01.02 0 0 .02-.01.03 0 .01.01 0 .01-.02.02.01.01.03.02.02.03 0 .01-.01.02-.03.02.01-.01.01 0 0 .01zm.13-.14c0 .02.01.05.03.05.02 0 .02-.01.05-.02a.19.19 0 0 1-.08-.03zm.54-.03c-.06.02-.1.05-.1.08 0 .12.74-.06.75.11 0 .08-.15.15-.4.15h-.07c0 .06.08.06.12.11.02.03.01.05-.04.07-.03.01.02.05.04.04-.02.02-.04.03-.05.03h-.01c-.01.02-.04.03-.02.06-.02.01-.03 0-.04-.01.01.02 0 .03-.01.04-.04.04-.06-.01-.08.01-.02.01.01.05-.03.07h-.03c-.01.01 0 .03 0 .03-.03-.01-.04-.04-.03-.06 0-.01-.01-.01-.01-.02-.01-.02.01-.04.04-.05-.03-.01-.05.03-.07.01l-.01-.01c-.02.01-.03.02-.03.03-.01-.02-.01-.04.01-.05v-.02c-.01-.03.04-.03.06-.02.01 0 .01 0 0-.01s-.01-.02-.01-.02v-.01c-.02-.01-.04 0-.05 0 .01-.03.05-.03.07-.03 0 0 .02-.01.03 0l.04.04c.02-.01.02-.02.06-.05.01-.01.01-.02.01-.03a.282.282 0 0 0-.11-.05c-.03.04-.19.02-.24 0 .11.07.05.2.08.22.04.02.04.09.03.1-.01.02-.04.01-.07 0h-.03c-.04.01 0 .05-.04.06-.03.01-.04-.01-.05-.02l-.01-.01h-.02s-.01 0-.01.01 0 .02-.01.02c0 0-.01 0-.02.01 0 .01.03.02.04.02-.04.03-.07 0-.07-.03l-.01-.02c0-.01.01-.01.01-.02l-.01-.01c0 .01-.01.01-.01.01h-.02c0 .01.01.02.02.03-.04.01-.06-.01-.05-.03 0-.01-.01-.02-.01-.02-.02-.07.07-.03.07-.06 0 0 0-.01-.01-.01s-.01.01-.02.01c-.02 0-.03-.01-.03-.02v-.01c-.02 0-.03.02-.04.02-.01-.03.03-.06.06-.06 0 0 .01-.01.02-.01.07-.02.07.11.13.07.01-.01.03-.01.06-.02 0 0 .01 0 0-.01-.02-.01-.07-.06-.07-.1 0-.04.01-.09.02-.11-.08 0-.11.06-.19.07h-.02c-.01.11-.05.15-.05.16 0 .03-.07.07-.09.06l.03-.03c0-.01 0-.01-.01 0-.06.04-.11 0-.12.09-.02-.02-.01-.06-.02-.06l-.01.02c-.01-.01-.01-.02 0-.04 0 0 0-.01-.01 0-.04.01-.06.01-.07 0 0-.01-.01-.02-.01-.02-.01.04-.05.06-.06.06.03-.02.02-.05.02-.06l-.03.03c.01-.02-.01-.03-.02-.04 0 .02-.01.05-.05.05s-.04-.03-.05-.05c0 0 0-.01-.01 0-.02.01 0 .05-.03.06h-.02c0 .03.01.04.02.05-.02 0-.06-.02-.05-.06v-.01c-.01 0-.01-.01-.01-.01-.03-.02.01-.05.02-.07 0 0 0-.01-.01-.01-.06.04-.08.02-.08-.01 0 0 0-.01-.01-.02-.02 0-.03.02-.03.03-.02-.03.02-.07.05-.06h.01c.01 0 .02-.01.02-.01.03-.02.03.01.06.03.01.01.02.01.03 0v-.01c-.06-.02-.07-.04-.06-.05 0 0 .01-.01.01-.02-.01-.02-.02-.02-.04-.02.01-.01.05-.01.06.01h.03c.01 0 .02.01.03.03.01.02.01.03.02.05.01.02.04.02.07.02v.01-.01c.03 0 .07-.02.09-.03.03-.01.13 0 .14 0 .01 0-.01-.04-.03-.07-.04 0-.09-.02-.1-.07-.09-.05-.07-.14-.08-.14-.01 0-.01.01-.01.02-.02 0-.03-.02-.03-.04v-.01c-.01 0-.01.01-.01.01-.01 0-.02-.01-.02-.02 0 0 0-.01-.01 0-.06.03-.14-.02-.09-.09 0 .06.07.07.08.01 0 0 0-.01-.01-.01-.04-.01-.05-.04-.01-.07v-.01c-.01 0-.01-.01-.01-.01h-.01c-.02.01-.03.01-.03.01l-.01-.01h-.01c-.01 0-.01.02-.01.03-.03-.02-.03-.04-.01-.06V16c0-.02.02-.04.07-.02v-.01h-.01c-.03 0-.05-.01-.05-.04 0 0 0-.02.01-.03 0-.01-.02-.01-.03-.01.03-.03.06-.01.06.01v.01h.02c.02 0 .04.04.04.07 0 0 0 .01 0 0v-.03a.03.03 0 0 1 0-.04l.02-.02c0-.02-.01-.03-.02-.04.02 0 .05.01.06.04 0 .01.01.03.01.03 0 .03-.01.07-.01.1 0 .04 0 .06.04.09s.11.13.16.18a.56.56 0 0 1 .01-.18c-.01 0-.02-.01-.03-.03.02 0 .03-.05.05-.09-.01 0-.02-.01-.02-.03.02.01.05-.06.07-.06-.01-.03 0-.05.01-.08.02 0 .04.01.05.02 0-.02.02-.02.04-.02 0 0 .03-.01.04-.01.01 0 .03 0 .07.02.03.01.05.03.06.04.01 0 .01.03.02.04.01.01.02.02.01.04.02 0 .04.01.05.02 0 .02-.02.04-.04.05.03.04-.04.12-.06.17.32-.08.57.02.72.02.19 0 .34-.05.34-.1 0-.06-.74.09-.74-.1 0-.07.08-.11.16-.13.01-.01.01-.02.02-.02.12-.07.4.04.5-.03-.01.03-.14.06-.27.06.22.04.36-.09.59-.01-.18-.05-.5.17-.79.09-.07.03-.09.02-.09 0zM12.12 3.05c0-.1-.08-.18-.18-.18-.1 0-.18.08-.18.18 0 .1.08.18.18.18.1 0 .18-.08.18-.18zm-.06-.48c0-.1-.08-.18-.18-.18-.1 0-.18.08-.18.18 0 .1.08.18.18.18.1 0 .18-.08.18-.18zm.1-.21c.1 0 .18-.08.18-.18 0-.1-.08-.18-.18-.18-.1 0-.18.08-.18.18.01.1.09.18.18.18zm.48-.03c.1 0 .18-.08.18-.18s-.08-.18-.18-.18c-.1 0-.18.08-.18.18s.08.18.18.18zm2.05-.34c.07.07.18.07.25 0s.07-.18 0-.25a.175.175 0 0 0-.25 0 .16.16 0 0 0 0 .25zm-.05-.38c.07-.07.07-.18 0-.25a.175.175 0 0 0-.25 0c-.07.07-.07.18 0 .25s.19.07.25 0zm-.47-.08c.07-.07.07-.18 0-.25s-.18-.07-.26 0c-.07.07-.07.18 0 .26.07.06.19.06.26-.01zm-.41.3c.07-.07.07-.18 0-.25s-.18-.07-.26 0c-.07.07-.07.18 0 .26.08.06.19.06.26-.01zm-1.15-.24l.14.31.18-.22c.01 0 .02.01.02.01.02.11.02.29.02.39 0 .13.1.23.23.23s.23-.1.23-.23c0-.09-.05-.16-.12-.2-.09-.07-.19-.16-.25-.24.01-.01.01-.02.01-.03l.31.03-.12-.32-.23.19s-.01 0-.01-.01L13 1.17l-.31.12.21.25c-.01.01-.01.02-.01.03l-.28.02zm2.09.56c.07.11.09.16.1.25a.547.547 0 0 1-.19-.17l.04.42c.05-.07.09-.13.15-.15-.01.27-.12.39-.22.4-.11.02-.2-.05-.22-.14-.02-.12.08-.2.19-.09.02-.25-.18-.25-.27-.14.1-.24.06-.4-.15-.53-.13.22-.08.37.09.54-.17-.08-.32.06-.17.24.03-.16.17-.13.2 0 .04.12-.07.26-.25.31-.26.08-.34-.09-.4-.23.06-.04.19-.02.34.07l-.12-.41a.41.41 0 0 1-.25.25c-.01-.12.08-.36.08-.36l-.49.2s.23.11.31.2c-.1.04-.2.06-.35-.01l.2.38c.04-.17.13-.27.19-.29.05.14.11.32-.13.44-.17.09-.34.06-.4-.04-.07-.11.01-.24.14-.14-.02-.24-.23-.23-.29-.06 0-.24-.06-.39-.32-.46-.06.24.02.39.26.49-.14-.02-.29.12-.1.29 0-.15.13-.17.2-.07.05.07.04.19-.06.25-.08.05-.24.05-.44-.14.06-.02.13-.01.21 0l-.27-.33c.02.12.01.2-.02.25-.06-.07-.08-.12-.1-.25l-.19.22c.19.12.41.3.68.67.28-.18.79-.42 1.1-.55.31-.13.84-.31 1.17-.38-.07-.45-.04-.74.02-.95l-.27.02zm.56 2.38c.2-.16.03-.33.28-.71-.27.17-.67.33-1.02.47.16.25.49.43.74.24zm-.05 2.61c.35-.15.32-.48.23-.66-.09-.18-.16-.34-.27-.34-.2 0-.3-.05-.36-.23-.07-.21.15-.29.35-.41-.21-.06-.31-.15-.19-.24.14-.11.33.09.38 0 .05-.09-.1-.17-.16-.23-.08-.08-.17-.06-.29-.02l-.94.35c-.12.05-.19.09-.2.21 0 .09-.05.25.04.28.1.03.1-.25.27-.26.14-.02.13.12.03.31.23-.06.44-.15.53.05.08.17.04.28-.1.42-.08.07-.02.23.04.43.06.19.31.48.64.34zm-1.78-1.89c.32-.03.44-.39.37-.68-.35.13-.75.29-1.06.35.44.11.43.35.69.33zm5.21 8.34c-.09.24.11.29.11.47 0 .24-.2.34-.42.4.16-.33.02-.51-.25-.55.06.61-.42.71-.62.61.19-.04.27-.33.17-.6-.08.21-.3.37-.5.37-.19 0-.34-.14-.41-.3.22.15.4-.03.4-.14 0-.11-.22-.17-.22-.35 0-.42.46-.25.46-.61 0-.15-.08-.22-.18-.22-.09 0-.24.05-.28.3-.23-.2 0-.67-.1-.97.02.48-.31.46-.44.64-.17-.17 0-.5-.16-.89-.06.44-.23.38-.28.64-.45-.22-1.25-.15-1.52.16.77.59 1.68.91 1.68 1.83 0 .71-1.1.99-1.1 1.44 0 .46 1.15 1.51 1.73 1.51.19 0 .28-.23.44-.24.15-.01.3 0 .44.01s.26.14.25.27c.27.03.61.44.27.78-.05-.19-.23-.45-.58-.27.13.31.01.6-.38.72.12-.2.14-.47-.09-.47s-.04.15-.47.15c-.44 0-.39.02-.57-.23-.18-.25-.31-.35-.4-.31-.1.04-.14.29.03.39-.93 0-.55-.96-1.02-1.2.02.3.03.53-.01.68-.35-.27-.56-.64-.62-.87-.06-.23-.02-.45-.24-.56-.07-.04-.16-.11-.13-.23.02-.1.07-.07.24-.14.2-.09.45-.29.45-.77 0-.38-.07-.89-.69-1.24.05.79.04 1.46-.33 2.07-.46.78-1.24 1.25-1.68 1.44-.44.19-1.06.34-1.06.92 0 1.08.48 1.72.97 1.72.31 0 .24-.35.69-.35.2 0 .42.08.46.22.25-.04.52.1.52.33s-.1.37-.29.41c.15-.3-.22-.38-.34-.31-.11.07.03.18.03.36s-.06.36-.38.44c.07-.11.07-.27-.13-.27s-.27.33-.52.33c-.41 0-.52-.17-.9-.1-.27.06-.27.22-.16.29-.55.04-.44-.57-.32-.69s.2-.2.03-.31c-.16-.11-.43 0-.48.27-.42-.81.16-.77-.03-1.69-.1.38-.33.68-.51.77.07-.21-.11-.58-.11-.89 0-.69.43-.92.43-1.14 0-.15-.16-.3.01-.45.09-.08.29.08.42.08.55 0 .95-.71 1.04-1.5.1-.94.47-1.58.86-2.3l.06-.33c-.39.49-.73 1.22-1.26 1.65.06.6-1.11 1.3-1.78.77.22.02.64-.09.76-.42-.1-.01-.19-.03-.28-.06-.41.23-1.06-.06-1.04-.51.17.19.36.23.56.15a1.23 1.23 0 0 1-.23-.74c0-1.77 2.74-2.98 2.74-4.41 0-.46-.29-.69-.6-.69-.17 0-.35.05-.55.17.13.12.22.27.22.46 0 1.62-2.61 1.47-2.84 2.54-.13-1.37 1.51-1.06 1.65-2.2-.34.49-.92.86-1.26.67.85.02.59-1.74 1.57-1.74.1 0 .21.03.33.07.27-.22.58-.35.84-.35.39 0 1.01.29 1.01 1.06 0 1.71-2.76 2.82-2.76 4.43 0 .54.32.8.74.8.96 0 1.58-1.73 2.63-3.14.65-.95 1.1-2.84 1.53-3.73-.51.36-.58 1.35-1.19 1.41.33-.28.09-1.13.3-1.75.08-.23.11-.45.05-.68-.38.4-.22 1.74-.82 1.9.22-.27-.03-.71-.03-1.12 0-.76.39-.89.43-1.59-.36.14-.24 1.14-.96 1.12.51-.51-.01-1.04.57-1.62-.35-.15-.58-.42-.58-.7.23-.18.49-.24.73-.26-.11-.17.04-.34.19-.47.05.07.13.21.22.15.14-.1.64-.41 1.07-.57.43-.17.99-.32 1.16-.35.11-.02.06-.16.05-.26.21-.02.44 0 .47.22.18-.15.43-.22.68-.24.14.3.17.55.04.96.35.03.55.33.87.25-.28.38-.62.22-.95.18.94.29 1.12 1.22 1.64 1.28-.56.44-.93-.34-1.41-.33 1.26.63 1.26 1.39 1.61 1.4-.39.35-.69-.11-1.19-.23.99.66 1.06 1.19.98 1.63.22.2.19.46.2.77.17-.11.45-.15.64-.21-.07.07-.13.14-.2.21-.5.57-.86 1.11-1.14 1.83-.21-.21-.44-.43-.56-.54-.2-.19-.39-.14-.47-.14.32.37 1.4 1.52 1.71 1.88.32.37.28.63.32.91.04.24.39.46.32.65zm17.79 4.43a.58.58 0 1 0 1.16 0 .58.58 0 0 0-1.16 0zm-.2 0a.781.781 0 0 1 1.56 0 .781.781 0 0 1-1.56 0zm-2.54 1.41c.22.04.42-.06.46-.22v-.04c0-.15-.15-.29-.35-.33-.13-.02-.25 0-.34.06-.04.03-.1.08-.11.16-.04.16.11.33.34.37zm-.36-.7c.13-.09.31-.13.49-.1.33.06.56.33.51.6-.02.14-.11.25-.25.32-.13.07-.28.09-.44.06a.712.712 0 0 1-.39-.21.483.483 0 0 1-.12-.39c.03-.1.1-.2.2-.28zM29.02 8.3c0 .05.01.09.04.13.09.11.29.1.44-.01.09-.07.15-.17.16-.26 0-.04 0-.11-.04-.16a.254.254 0 0 0-.14-.08c-.09-.01-.2.02-.29.09-.11.08-.17.19-.17.29zm.04-.45c.13-.1.29-.15.44-.13.11.01.21.07.28.15.07.08.09.19.08.31-.02.15-.1.29-.24.39-.24.19-.56.18-.72-.02-.15-.2-.08-.51.16-.7zm3.67 10.48c.08 0 .14-.04.18-.07.08-.08.13-.2.13-.33 0-.22-.13-.41-.29-.41-.08 0-.14.04-.18.08-.08.08-.13.19-.13.32s.04.25.12.33c.03.03.08.08.17.08zm-.31-.88c.09-.09.2-.13.32-.13.14 0 .26.07.36.2.09.11.13.26.13.42 0 .18-.07.35-.19.46a.438.438 0 0 1-.63-.01.652.652 0 0 1-.17-.46v-.02c0-.18.07-.35.18-.46zm-3.64-5.51c.12.06.25.07.35.03.05-.02.11-.05.15-.12.03-.07.02-.15 0-.19-.04-.1-.13-.2-.24-.25a.434.434 0 0 0-.35-.03c-.05.02-.11.05-.15.12-.07.14.04.34.24.44zm-.15-.76c.15-.05.34-.04.5.04.16.08.29.21.34.37.04.12.04.24-.01.35-.05.1-.14.18-.26.23-.15.05-.34.04-.5-.04-.3-.14-.45-.46-.33-.71.05-.12.14-.2.26-.24zm5.62 3.53c.13-.18.12-.41-.02-.51-.14-.1-.36-.04-.49.14-.13.18-.12.4.02.51.15.1.36.04.49-.14zm-.91 1.44c.13-.18.11-.41-.03-.51-.14-.1-.36-.03-.48.15-.13.18-.12.41.03.5.13.11.35.04.48-.14zm.07-6.04l.71-.77-.3-.24c.02.11 0 .26-.04.41a.355.355 0 0 1-.14-.29l-.23.3c.06 0 .22.02.29.1-.21.2-.39.1-.51.02-.19-.13-.28-.24-.22-.34.07-.12.29-.08.31.11.17-.08.2-.22.14-.32-.05-.09-.16-.11-.28-.07.27-.14.4-.37.34-.66-.3.06-.43.23-.5.52-.02-.12-.09-.23-.19-.24-.12-.01-.23.08-.22.27.18-.06.31.12.23.24-.07.12-.22.09-.42-.02-.23-.13-.25-.33-.14-.54.06.05.11.17.11.32l.26-.42a.5.5 0 0 1-.3 0c.07-.08.19-.21.36-.23l-.51-.29c.07.15.02.33-.01.43a.418.418 0 0 1-.15-.26l-.23.44c.12-.08.25-.09.33-.07-.12.2-.31.27-.54.15-.2-.11-.29-.23-.23-.35.06-.12.29-.11.33.09.16-.09.19-.23.12-.33-.05-.08-.19-.09-.3-.04.22-.21.3-.41.2-.7-.28.09-.41.32-.4.62-.03-.12-.1-.21-.2-.21-.12 0-.23.1-.21.28.18-.08.32.09.25.22-.06.1-.2.08-.41-.03-.13-.07-.31-.17-.24-.46.1.02.2.15.23.21l.14-.35c-.1.07-.24.06-.32.02.11-.1.23-.2.34-.24l-.35-.14s-.2.67-.31 1l3.21 1.86zm.59 2.45a.479.479 0 0 0 .45.47c.05 0 .12-.01.18-.06.06-.05.07-.13.07-.17 0-.11-.05-.23-.14-.33a.479.479 0 0 0-.32-.15c-.05 0-.12.01-.18.06-.05.06-.06.13-.06.18zm1.39 6.39c-.01.05-.01.12.03.19.09.14.32.15.51.03.11-.07.18-.18.21-.28.01-.05.01-.12-.03-.19s-.11-.09-.16-.11a.48.48 0 0 0-.34.08c-.12.07-.2.17-.22.28zm-6.61-9.63a.38.38 0 0 0-.09-.28c-.03-.03-.08-.07-.14-.07-.07 0-.12.03-.15.06a.4.4 0 0 0-.12.27v.03c0 .18.1.32.23.33.06 0 .12-.03.15-.06.07-.06.11-.17.12-.28zm2.04-4.2c.26-.15.59-.23.96-.26-.23-.07-.39-.26-.58-.26-.38 0-.27.32-.38.52zm5.96 5.26c.06 1.34 1.73 1.03 1.48 2.02-.03-.66-2.27-.59-2.33-1.96-.01-.28.07-.51.22-.66a.576.576 0 0 0-.36-.12c-.39 0-.95.41-.95 1.06 0 1.74 2.31 1.96 2.31 3.86 0 .39-.15.75-.43.97.2.02.47-.09.6-.24-.2.73-.95.76-1.19.46h-.1c-.06 0-.12-.01-.18-.02.15.3.38.6.72.55-.68.54-1.51-.19-1.38-.94-.2-.23-.34-.5-.43-.71-.07-.17-.19-.07-.18.11.02.6-.45 1.16-.45 1.6 0 .44.45.85.6.85.15 0 .26-.17.37-.13.1.05.09.18.07.49-.02.21.02.73.06 1.28.04-.15.14-.28.28-.38.15-.1.33-.14.49-.11.12.03.22.09.29.19.05.07.07.15.07.24 0 .03 0 .07-.01.1-.03.16-.14.31-.29.41-.13.09-.28.13-.43.12a.426.426 0 0 1-.35-.2l-.03-.06c.01.17.01.33.02.49.01.4-.1.57-.28.67-.01-.06-.13-.18-.29-.18-.12 0-.22.09-.22.17 0 .18.22.16.22.44s-.63.63-1.02.56c.06-.13.15-.58.27-.88-.12.07-.23.26-.32.54-.11.33-.26.32-.4.23.13-.14.42-.83.74-1.05.31-.22.46-.3.54-.81.08-.52-.01-.83-.02-1.28-.02-.61-.26-.47-.45-.47-.41 0-1.94-.99-1.94-2 0-.1.01-.2.02-.31-.7-.01-1.09.19-1.09.84 0 .22.03.44.19.57.15.12.22.23-.03.34-.27.12-2.41 1.01-2.41 1.01-.27.1-.31-.01-.42-.14-.11-.13-.23-.2-.37-.1-.14.09.1.2.1.35 0 .15-.07.51-1.05.45l.23-.39c.07-.13.1-.22.05-.23-.06-.01-.11.09-.2.22l-.28.37c-.16.01-.32-.03-.32-.03.37-.37.58-.57.79-.78.21-.21.45-.3.88-.36.51-.07 2.18-.3 2.18-.84 0-.62-.7-.58-.7-1.41 0-.73.31-1.51 2.3-1.47-.17-.47-.67-.82-1.16-.94-1-.25-1.28-.93-1.37-1.64-.28-.01-.55-.03-.76-.04-.62-.04-.92-.22-1.07-.1-.06.05-.12.13-.03.28.09.15.29.51.46.76.12.01.31.04.34.19.03.15-.1.18-.12.26-.02.07.03.14.11.14s.13-.07.11-.13c.08-.07.29-.07.49-.01.15.17.41.46.48.73-.24-.1-.58-.22-.7-.22s-.1.04.01.08c.1.04.37.14.46.22l-.02.28c-.06-.06-.54-.34-.82-.46-.28-.12-.46-.17-.6-.53-.15-.36-.59-1.16-.77-1.46-.12-.21-.08-.29-.02-.36s.12-.15.16-.23c.12-.19.15-.14.33-.13.17.01.57.03.74-.04.04-.02.08-.03.13-.05-.41-.45-.9-1.09-.95-1.17-.08-.11-.19-.17-.26-.17-.08 0-.16.01-.22.06-.03.02-.06.05-.11.08-.04-.05-.08-.09-.11-.14-.07-.08-.15-.16-.22-.23.16-.12.3-.23.34-.27.1-.09.15-.16.24-.16s.22.01.27.01c.14 0 .2.04.26.11.15.16.4.35.6.5.02.02.04.03.06.05.02-.02.03-.04.05-.06.08-.08.19-.12.29-.11.1.01.2.06.28.14.1.11.15.26.14.43 0 .06-.02.11-.03.17.16.13.3.25.44.4.07-.55.35-1.08.71-1.56l-.05-.03.03-.1c.08-.25.21-.68.28-.89.03-.08.03-.11.04-.11l.04-.13.61.23c.02-.02.04-.04.06-.05.53-.51 1.82-.85 1.82-1.58 0-.17-.06-.41-.24-.55.09.12.1.27.07.43-.03.19-.32.61-.83.61-.28 0-.48-.27-.58-.27-.06 0-.14.05-.22.11.02.38-.14.58-.3.62.06-.16.01-.42-.04-.39-.04.03-.11.08-.11.3-.01.22-.2.5-.49.54.06-.09.15-.45.09-.5-.06-.05-.16.11-.23.11-.08 0-.14-.08-.15-.16-.01-.08-.16 0-.19-.07s.18-.22.37-.29c.19-.07.47-.2.42-.31-.08-.19-.64.11-.89.26-.38.23-.21-.08-.26-.21-.14-.33-.01-.36.15-.51.21-.19.64-.49 1.12-.73 0-.16.1-.29.23-.34.2-.07.39-.16.59-.22L28.87.86c-.06-.06-.06-.12-.03-.15.02-.03.07-.01.16.07l3.03 2.98c.07-.2.13-.44.07-.71.37.18.69.54.74.89.93-.02 1.18.57 1.46.37.04.14-.12.3-.38.34 1.07.28.8 1.06 1.41 1.15-.1.11-.24.15-.46.08.67.99 0 1.62.52 2.08-.2.06-.47-.11-.66-.42.2.81-.11 1.26.05 1.59-.23.07-.39-.14-.47-.46-.04.18-.1.34-.17.49l.25.2-.1.1-.09-.01c-.4.43-.6.64-.69.75l-.07.08s-.08-.04-.09-.05c-.26.33-.48.6-.48.91 0 .35.47.99.97 1.65-.02-.07-.04-.14-.04-.2v-.02c0-.12.05-.24.14-.31.08-.08.2-.12.32-.12.16 0 .33.08.46.22.12.13.19.29.19.45v.02c0 .12-.05.24-.14.31-.08.08-.2.12-.32.12a.61.61 0 0 1-.34-.12c.36.47.7.91.85 1.24.33.69.64 1.13 1.03 1.13.44 0 .83-.32.83-.84 0-1.77-2.32-1.95-2.32-3.95 0-.93.8-1.38 1.27-1.38.32 0 .53.08.72.28.06-.01.11-.02.18-.02 1.1 0 .41 1.46 1.26 1.56-.4.16-.9-.09-1.15-.78z"/></svg>