<svg xmlns="http://www.w3.org/2000/svg" width="159" height="23"><path fill="#0b0c0c" d="M42.52 18.83v-6.76c0-4.46-3.33-5.25-5.65-5.25-2.1 0-3.67.64-5.23 2.08l1.09 1.36c1.09-.93 2.25-1.64 4.02-1.64 1.49 0 2.92 1.22 3.06 3.09l-3.68 1.15c-3.2.93-5.44 2.66-5.44 5.33 0 2.87 1.77 4.74 4.35 4.74 1.43 0 2.72-.93 3.82-2.02l.95-.93c0 1 .06 1.94.41 2.59h3c-.56-1.08-.7-2.59-.7-3.74zm-6.8 2.02c-1.09 0-2.17-1.01-2.17-2.59 0-1.94 1.23-3.1 3.67-3.81l2.59-.87c.33 4.82-2.12 7.27-4.09 7.27zm98.04-6.4c0 4.74-3.68 8.55-8.16 8.55-4.49 0-8.16-3.81-8.16-8.55 0-4.75 3.68-8.56 8.16-8.56 4.56.07 8.16 3.89 8.16 8.56zm-69.54 8.19h2.72V7.25h-2.72v15.39zM5.85 13.8l6.4 7.84-2.72 1.3-6.74-8.71h-.07v8.41H0V0h2.72v13.44h.54L9.25 6.9l2.04 1.15-5.44 5.75zm61.5-11.65c0 .79-.41 1.87-1.77 1.87s-1.69-1-1.77-1.87c0-.79.68-1.66 1.77-1.66 1.17.01 1.77.87 1.77 1.66zm90.83 16.47c0 2.59-2.52 4.31-5.31 4.31-1.69 0-3.67-.79-4.69-1.95l1.36-1.58c.88.87 2.04 1.51 3.26 1.51 1.29 0 2.59-.64 2.59-2.15 0-1.8-1.57-2.52-3-3.6-1.71-1.28-3.27-2.3-3.27-4.38 0-2.44 2.39-3.95 5.04-3.95 1.49 0 2.92.64 3.74 1.44l-1.02 1.43c-1.09-.72-1.97-1-2.79-1-.95 0-2.24.43-2.24 1.72s1.43 1.94 3.12 3.23c1.98 1.51 3.21 2.81 3.21 4.97zm-56.19-5.97v9.99h-2.72v-9.35c0-2.87-1.23-4.38-3.68-4.38-2.17 0-4.15 1.51-4.15 4.46v9.27h-2.73V7.25h2.73l-.07 1.87c1.43-1.51 3.61-2.3 5.24-2.3 3.54.01 5.38 1.94 5.38 5.83z"/></svg>