<svg xmlns="http://www.w3.org/2000/svg" width="180" height="30"><path fill="#0b0c0c" d="M104.94 14.72l13.72 13.86h-12.8l-7.32-7.39-7.32 7.39h-12.8l13.72-13.86L78.42.86h12.8l7.32 7.39 7.32-7.39h12.8l-13.72 13.86zM68.55.86h9.87v27.71h-9.87V25.5c-2.1 2.63-4.93 3.94-8.51 3.94-2.03 0-3.89-.37-5.59-1.11-1.7-.74-3.18-1.77-4.45-3.11a14.317 14.317 0 0 1-2.93-4.63v7.98h-9.82V11.95c0-2.43-1.98-4.4-4.42-4.4s-4.42 1.97-4.42 4.4v16.62H18.6V11.93c0-2.42-1.97-4.38-4.39-4.38a4.38 4.38 0 0 0-4.39 4.38v16.65H0V.86h9.82v3.4C12.5 1.7 15.5.42 18.82.42c4.12 0 7.27 1.73 9.44 5.19C30.47 2.12 33.61.37 37.7.37c1.3 0 2.53.19 3.69.57 1.16.38 2.15.97 2.98 1.78.83.81 1.49 1.86 1.98 3.16.34.91.56 1.96.67 3.14 0-.01.01-.02.01-.04.69-1.78 1.64-3.34 2.87-4.67 1.23-1.33 2.69-2.39 4.39-3.16C55.99.39 57.87 0 59.93 0c3.47 0 6.35 1.21 8.62 3.62V.86zm-.19 16.32c.34-.76.51-1.57.51-2.43 0-.86-.17-1.68-.51-2.46-.34-.77-.8-1.45-1.36-2.03a6.086 6.086 0 0 0-2-1.35 6.44 6.44 0 0 0-2.47-.49c-.9 0-1.74.16-2.52.49-.78.32-1.45.77-2.01 1.35-.56.58-1 1.23-1.33 1.97-.33.74-.49 1.54-.49 2.4 0 .9.16 1.74.49 2.51.33.79.77 1.46 1.33 2.04.56.58 1.23 1.03 2.01 1.35.78.32 1.62.49 2.52.49.87 0 1.69-.16 2.47-.49.78-.32 1.45-.77 2.01-1.35.56-.58 1.01-1.25 1.35-2zM180 19.51h-3.18l-2.43-3.76v3.76h-2.55V9.74h3.97c.55 0 1.02.08 1.43.24.41.16.74.38 1.01.65.26.28.46.6.6.96.13.36.2.75.2 1.17 0 .74-.18 1.35-.54 1.81-.36.46-.89.78-1.59.94l3.08 4zm-5.61-5.4h.48c.5 0 .89-.1 1.16-.31.27-.21.4-.51.4-.89s-.13-.69-.4-.89c-.27-.21-.66-.31-1.16-.31h-.48v2.4zM170 11.89h-3.03v1.63h2.86v2.15h-2.86v1.69H170v2.15h-5.58V9.74H170v2.15zm-15.81-2.15h3.77c.67 0 1.3.13 1.88.4.59.27 1.1.62 1.54 1.07.44.45.78.96 1.04 1.56.25.59.38 1.21.38 1.86 0 .64-.12 1.26-.37 1.85-.25.59-.59 1.11-1.03 1.56-.44.45-.95.81-1.54 1.08-.59.27-1.22.4-1.89.4h-3.77V9.74zm2.55 7.62h.59c.44 0 .84-.07 1.18-.21.35-.14.64-.33.88-.57.24-.24.42-.53.55-.86.13-.33.19-.7.19-1.1 0-.39-.06-.75-.19-1.09-.13-.34-.31-.63-.55-.87-.24-.24-.53-.43-.88-.57-.35-.14-.74-.21-1.17-.21h-.59v5.48zm-15.83-7.62l1.69 6.31 2.08-6.31h2.03l2.08 6.31 1.69-6.31h2.67l-2.93 9.78h-2.6l-1.93-5.67-1.93 5.67h-2.6l-2.93-9.78h2.68zm-13.96 4.89a5.036 5.036 0 0 1 1.52-3.67c.48-.47 1.05-.83 1.71-1.1.66-.26 1.39-.4 2.19-.4.79 0 1.52.13 2.19.4.67.26 1.24.63 1.72 1.1.48.47.86 1.01 1.13 1.64.27.63.4 1.3.4 2.03 0 .73-.13 1.4-.4 2.03-.27.63-.64 1.17-1.13 1.64-.48.47-1.06.83-1.72 1.1-.67.26-1.4.4-2.19.4-.8 0-1.53-.13-2.19-.4a5.08 5.08 0 0 1-1.71-1.1 5.036 5.036 0 0 1-1.52-3.67zm2.67 0c0 .39.07.75.22 1.08.15.33.35.61.6.86.25.24.54.43.88.56a2.895 2.895 0 0 0 2.12 0c.33-.13.63-.32.88-.56.26-.24.46-.53.61-.86.15-.33.22-.69.22-1.08 0-.39-.07-.75-.22-1.08-.15-.33-.35-.61-.61-.86s-.55-.43-.88-.56a2.895 2.895 0 0 0-2.12 0c-.33.13-.63.32-.88.56-.25.24-.45.53-.6.86-.15.33-.22.69-.22 1.08zm-8.5 4.88h-2.55V9.74h4.06c1.1 0 1.95.29 2.53.86.59.57.88 1.37.88 2.41s-.29 1.84-.88 2.41c-.59.57-1.43.86-2.53.86h-1.51v3.23zm0-5.28h.85c.94 0 1.41-.41 1.41-1.22s-.47-1.22-1.41-1.22h-.85v2.44z"/></svg>