<svg xmlns="http://www.w3.org/2000/svg" width="143" height="34"><path fill="#0b0c0c" d="M38.28 31.21v-15.6c0-2.77-3.15-5.02-7.04-5.02-3.2 0-5.9 1.53-6.76 3.61-.85-2.09-3.55-3.61-6.76-3.61-2.91 0-5.4 1.26-6.47 3.05v-2.49H0v.56h.56c.93 0 1.69.75 1.69 1.67v17.84c0 .92-.76 1.67-1.69 1.67H0v.56h12.95v-.56c-.93 0-1.69-.75-1.69-1.67V15.61c0-1.23 1.01-2.23 2.25-2.23s2.25 1 2.25 2.23v15.61c0 .92-.76 1.67-1.69 1.67v.56h12.4v-.56c-.93 0-1.69-.75-1.69-1.67V15.61c0-1.23 1.01-2.23 2.25-2.23s2.25 1 2.25 2.23v15.61c0 .92-.76 1.67-1.69 1.67v.56h12.96v-.56h-.56c-.95 0-1.71-.75-1.71-1.68zm54.05 0V11.15H75.44V2.23h-.56c0 4.92-4.03 8.92-9.01 8.92h.56-2.81v.56h2.81v17.28c0 2.77 3.15 5.02 7.04 5.02s7.04-2.25 7.04-5.02v-3.9h-.56v3.9c0 1.23-1.01 2.23-2.25 2.23s-2.25-1-2.25-2.23V11.71h6.19c.93 0 1.69.75 1.69 1.67v17.84c0 .92-.76 1.67-1.69 1.67h-.56v.56H94.6v-.56h-.56c-.95 0-1.71-.75-1.71-1.68zm14.64 0V2.23h-10.7v.56c.93 0 1.69.75 1.69 1.67v26.76c0 .92-.76 1.67-1.69 1.67h-.56v.56h13.52v-.56h-.56c-.95 0-1.7-.75-1.7-1.68zM52.36 10.59c-6.53 0-11.82 5.24-11.82 11.7 0 6.46 5.29 11.7 11.82 11.7s11.82-5.24 11.82-11.7c0-6.46-5.29-11.7-11.82-11.7zm0 22.85c-1.69 0-2.81-1.67-2.81-11.15s1.13-11.15 2.81-11.15c1.69 0 2.82 1.67 2.82 11.15-.01 9.48-1.13 11.15-2.82 11.15zm68.68-22.85c-6.53 0-11.82 5.24-11.82 11.7 0 6.46 5.29 11.7 11.82 11.7s11.82-5.24 11.82-11.7c.01-6.46-5.29-11.7-11.82-11.7zm0 22.85c-1.69 0-2.81-1.67-2.81-11.15s1.13-11.15 2.81-11.15c1.69 0 2.82 1.67 2.82 11.15s-1.13 11.15-2.82 11.15zm16.89-9.47c-2.8 0-5.07 2.25-5.07 5.02 0 2.77 2.27 5.02 5.07 5.02 2.8 0 5.07-2.25 5.07-5.02 0-2.78-2.27-5.02-5.07-5.02zm-50.1-13.94c2.8 0 5.07-2.25 5.07-5.02S90.63 0 87.83 0c-2.8 0-5.07 2.25-5.07 5.02s2.27 5.01 5.07 5.01z"/></svg>