<svg xmlns="http://www.w3.org/2000/svg" width="150" height="47"><path fill="#0b0c0c" d="M150 .7v1.94h-5.1v9.12h-2.55V2.64h-5.1V.7H150zM30.64 17.9l-.62 1.05h-1.2l2.91-4.94h1.15l2.96 4.94H34.5l-.62-1.05h-3.24zm.5-.9h2.25l-1.14-2.04L31.14 17zm12.21-1.71v-.13c0-.41-.13-.73-.3-.89-.18-.16-.55-.27-1.04-.27h-3.55c-.5 0-.82.11-1 .27-.18.16-.25.49-.25.94v2.58c0 .45.07.75.25.91.18.16.5.24 1 .24H42c.5 0 .87-.07 1.05-.24s.3-.46.3-.91v-1.7H40.2V17h1.95v1.05H38.4v-3.14h3.75v.58l1.2-.2zm2.94-3.52h-.25l3.47-6.06L52.61.3c.09-.15.23-.23.42-.23.18 0 .35.08.46.23l.24.3.08-.12c.1-.15.25-.23.43-.23s.33.08.43.23l.08.12.24-.3c.12-.15.28-.23.46-.23s.33.08.42.23l3.1 5.41 3.48 6.06h-2.81L57.21 8.3l-2.64-3.76a.389.389 0 0 0-.32-.16c-.13 0-.24.06-.32.16L51.29 8.3l-2.44 3.47h-2.56zM54.96.9l3.27 4.9 1.6 2.4-1.21-2.19L55.78.88c-.08-.14-.21-.34-.38-.34s-.32.2-.43.34l-.01.02zm-6.29 7.3l1.6-2.4L53.54.9l-.01-.02c-.11-.14-.26-.34-.43-.34-.17 0-.3.2-.38.34l-2.84 5.13-1.21 2.19zm32.48 8.56v2.19h1.2v-2.21l2.72-2.73h-1.41l-1.77 1.83-1.75-1.83h-1.62l2.63 2.75zM33.9 11.77h-2.55V.7h9.42c.88 0 1.48.18 1.87.52.39.34.55.9.55 1.65v2.59c0 .74-.16 1.28-.55 1.62-.4.34-1 .5-1.87.5h-1.44l5.11 4.19h-3.69l-4.46-4.19H33.9v4.19zm0-5.99h5.73c.45 0 .75-.1.92-.23.16-.13.25-.39.25-.72V3.5c0-.32-.09-.54-.25-.67s-.47-.19-.92-.19H33.9v3.14zm115.28 12.56c-.54.41-1.35.61-2.44.61h-3.04v-4.94h3.34c.95 0 1.68.24 2.18.66.51.42.76 1.05.76 1.83.01.82-.26 1.43-.8 1.84zm-.42-1.91c0-.5-.14-.89-.42-1.14-.28-.25-.71-.39-1.29-.39h-2.15v3.14h1.59c.84 0 1.43-.12 1.77-.37.33-.23.5-.66.5-1.24zm-94.61.89l-4.18-3.3h-.77v4.94h1.05v-3.29l4.14 3.29h.81v-4.94h-1.05v3.3zm-7.35-3.31h-1.2v4.94h1.2v-4.94zm45.3 1.24v-.12c0-.4-.13-.7-.31-.86-.18-.16-.56-.26-1.05-.26h-2.92c-.5 0-.83.11-1.01.27-.18.16-.26.49-.26.93v.55c0 .45.08.71.26.88.18.16.51.21 1.01.21h3.23v1.2h-3.6v-.58l-1.2.2v.14c0 .45.13.75.31.91.18.16.56.24 1.07.24h3.19c.5 0 .84-.07 1.02-.24.18-.16.28-.46.28-.91v-.67c0-.45-.1-.76-.27-.92-.17-.16-.52-.25-1.02-.25H87.6v-1.05h3.45v.56l1.05-.23zm31.35-9.45c0-.22-.03-.48-.05-.79-.02-.3-.06-.63-.09-.97.12.15.26.29.4.43.15.14.32.3.51.47l8.12 6.82h1.75V.7h-2.25v5.82c0 .14-.02.34-.01.6.01.26.03.69.07 1.31-.17-.2-.36-.4-.56-.59-.2-.19-.44-.41-.7-.63l-7.8-6.52h-1.8v11.07h2.4V5.8zm7.8 8.21v4.94h5.1v-.9h-3.9v-4.04h-1.2zm7.2 4.94h1.2v-4.04h2.25v-.9h-5.85v.9h2.4v4.04zm-19.42 0h3.19c.5 0 .81-.07.99-.24.18-.16.25-.46.25-.91v-.67c0-.45-.07-.76-.24-.92-.17-.16-.49-.25-.99-.25h-3.27v-1.05h3.45v.56l1.05-.22v-.12c0-.4-.1-.7-.28-.86-.18-.16-.53-.26-1.03-.26h-2.92c-.5 0-.86.11-1.04.27-.18.16-.29.49-.29.93v.55c0 .45.11.71.29.88.18.16.54.21 1.04.21h3.17v1.2h-3.6v-.58l-1.05.2v.14c0 .45.08.75.26.91.18.15.51.23 1.02.23zm-13.31-7.18h6.99c1.08 0 1.83-.18 2.2-.55.38-.36.59-1.05.59-2.06V.7h-2.55v8.97h-7.35V.7h-2.7v8.46c0 1.01.23 1.7.61 2.06.38.36 1.14.55 2.21.55zm1.08 6.28h-4.2v-1.2h2.4v-.9h-2.4V14.9h4.05V14h-5.25v4.94h5.4v-.89zm8.7.9v-4.94h-1.02l-2.39 2.91-2.41-2.91h-.94v4.94h.9v-3.27l2.26 2.68h.23l2.16-2.76v3.35h1.21zm-31.05-7.73c-.38-.36-.6-1.05-.6-2.06V3.34c0-1 .23-1.7.6-2.07C84.83.9 85.59.7 86.67.7h8.14c1.08 0 1.78.2 2.15.57.38.37.54 1.07.54 2.07v5.81c0 1.01-.16 1.7-.54 2.06-.38.37-1.08.55-2.15.55h-8.14c-1.08.01-1.84-.18-2.22-.54zm2.1-1.55h8.4V2.64h-8.4v7.03zm-84 2.1H0V.7h9.47c.88 0 1.53.18 1.93.52.39.34.6.9.6 1.65v2.47c0 .74-.21 1.27-.61 1.61-.39.33-1.05.48-1.92.48H2.55v4.34zm0-6.14h5.78c.45 0 .73-.1.9-.23.16-.13.23-.39.23-.72V3.5c0-.32-.06-.54-.23-.67s-.46-.19-.9-.19H2.55v2.99zm.69 30.38c0-4.43 3.6-8.02 8.05-8.02 4.45 0 8.05 3.59 8.05 8.02s-3.6 8.02-8.05 8.02c-4.45 0-8.05-3.59-8.05-8.02zm1.16 4.03h13.83L12.9 30.5c-.58-.58-1.05-.01-1.05-.01s-.15-.27-.5-.27c-.29 0-.49.29-.49.29-.6-.67-1.1.1-1.1.1L4.4 40.04zM1.2 18.95H0v-4.94h4.46c.41 0 .67.1.85.25.18.15.24.42.24.76v1.08c0 .34-.06.55-.24.7-.18.15-.44.2-.85.2H1.2v1.95zm0-2.7h2.75c.21 0 .35-.05.43-.11s.12-.19.12-.33v-.51c0-.14-.04-.25-.12-.31s-.22-.09-.43-.09H1.2v1.35zm70.05 1.42v.14c0 .45.11.75.29.91.18.16.54.24 1.05.24h3.19c.5 0 .86-.07 1.03-.24.18-.16.29-.46.29-.91v-.67c0-.45-.11-.76-.28-.92-.17-.16-.53-.25-1.04-.25H72.6v-1.05h3.3v.56l1.05-.22v-.12c0-.4-.07-.7-.25-.86-.18-.16-.5-.26-.99-.26h-2.92c-.5 0-.82.11-1 .27-.18.16-.24.49-.24.93v.55c0 .45.07.71.24.88.18.16.49.21 1 .21h3.11v1.2h-3.6v-.58l-1.05.19zM10.04 30.72c-.1.16-3.93 6.78-3.93 6.78l4.55-6.77c-.17-.38-.51-.18-.62-.01zm2.63 0c-.11-.17-.44-.36-.62 0l4.55 6.78s-3.83-6.63-3.93-6.78zM66.3 4.95c0-.17.03-.36.02-.55-.01-.19-.01-.4-.03-.62.07.17.17.35.28.53.11.19.24.37.4.58l4.17 5.52h.51l4.16-5.5c.08-.12.18-.27.28-.45.1-.18.23-.42.36-.7-.02.25-.05.48-.07.68-.02.2-.03.37-.03.5v6.82h2.4V.7h-2.07l-5.1 6.67L66.36.7h-2.01v11.07h1.95V4.95zm-36 42.12h14.1v-8.38h18v-4.34h-18v-5.53h18v-4.04H30.3v22.29zM0 24.63h22.5v22.44H0V24.63zm.86 11.41c0 .38.02.71.06 1.16h1.75c.1.75.29 1.44.57 2.12l-1.51.82c.32.72.71 1.4 1.17 2.03l1.5-.86c.45.59.98 1.11 1.57 1.57l-.85 1.45c.63.47 1.32.86 2.04 1.18l.83-1.47c.7.28 1.46.48 2.21.57v1.65c.3.04.69.06 1.06.06.42 0 .89-.02 1.19-.07v-1.66c.75-.1 1.51-.31 2.2-.6l.84 1.42c.72-.32 1.38-.67 2-1.13l-.86-1.45a8.34 8.34 0 0 0 1.61-1.64l1.48.86c.45-.61.82-1.21 1.13-1.91l-1.52-.88c.28-.69.48-1.43.57-2.19l1.75-.01c.04-.35.06-.71.06-1.06 0-.41-.03-.76-.07-1.21h-1.75c-.1-.75-.3-1.46-.59-2.14l1.53-.87c-.32-.73-.7-1.34-1.17-1.97l-1.51.89c-.45-.58-.97-1.1-1.55-1.55l.87-1.51c-.63-.46-1.31-.85-1.98-1.15l-.84 1.55c-.72-.3-1.5-.58-2.3-.58h.1v-1.79c-.3-.04-.8-.07-1.2-.07-.37 0-.75.02-1.05.06v1.74c-.75.09-1.49.28-2.18.56l-.92-1.48c-.72.31-1.39.7-2.01 1.16l.93 1.47c-.62.47-1.17 1.01-1.64 1.62l-1.5-.89c-.46.62-.84 1.28-1.16 1.99l1.47.84h.06c-.29.69-.49 1.42-.59 2.18l-1.75-.02c-.03.4-.05.81-.05 1.21zm27.29-22.03h-1.73l-2.87 2.03v-2.03h-1.2v4.94h1.2v-2.19l3.09 2.19h1.89l-3.77-2.65 3.39-2.29zm-15.21-2.24h-.25l3.47-6.06L19.26.3c.09-.15.23-.23.42-.23s.35.08.46.23l.24.3.08-.12c.1-.15.25-.23.43-.23s.33.08.43.23l.08.12.24-.3c.12-.15.28-.23.46-.23s.33.08.42.23l3.1 5.41 3.48 6.06h-2.8L23.86 8.3l-2.64-3.76a.389.389 0 0 0-.32-.16c-.13 0-.24.06-.32.16L17.93 8.3l-2.44 3.47h-2.55zM21.6.9l3.27 4.9 1.6 2.4-1.21-2.19L22.42.88c-.08-.14-.21-.34-.38-.34s-.32.2-.43.34L21.6.9zm-6.28 7.3l1.6-2.4L20.19.9l-.01-.02c-.11-.14-.26-.34-.43-.34-.17 0-.3.2-.38.34l-2.84 5.13-1.21 2.19zm67.93 33.37c0 1.02-.78 1.84-1.8 1.84s-1.8-.83-1.8-1.84V24.63H65.4v18.74c0 2.06 1.67 3.7 3.74 3.7h24.69c2.07 0 3.67-1.64 3.67-3.7V24.63H83.25v16.94zM20.1 15.69v-.47c0-.45-.06-.78-.24-.94-.18-.16-.49-.27-1-.27H15.8c-.5 0-.82.11-1 .27s-.25.49-.25.94v2.58c0 .45.08.75.26.91.18.16.5.24 1 .24h3.07c.5 0 .82-.07.99-.24.18-.16.24-.46.24-.91v-.58l-1.2-.24v1.07h-3.15v-3.14h3.15v.96l1.19-.18zm115.65 31.38H150V24.63h-14.25v22.44zm-17.25-6.15l.02.47c0 1.03-.82 1.86-1.85 1.86-1.03 0-1.88-.83-1.88-1.86l-.03-.58V35.1H100.5v7.94s-.32 4.03 4.82 4.03h22.97s4.46.01 4.46-4.86V24.63H118.5v16.29zM10.24 14.01l2.96 4.94h-1.34l-.62-1.05H7.99l-.62 1.05h-1.2l2.91-4.94h1.16zm.51 2.99L9.6 14.96 8.5 17h2.25zm51.6-2.99H58.8c-.5 0-.87.11-1.05.27s-.3.49-.3.94v2.58c0 .45.12.75.3.91s.55.24 1.05.24h3.55c.5 0 .82-.07 1-.24.18-.16.25-.46.25-.91v-1.7h-3.15v.9h1.95v1.05h-3.75v-3.14h3.75v.58l1.2-.2v-.13c0-.41-.08-.73-.25-.89-.18-.15-.5-.26-1-.26zm31.4.9h2.4v4.04h1.2v-4.04h2.4v-.9h-6v.9z"/></svg>