<svg xmlns="http://www.w3.org/2000/svg" width="130" height="55"><path fill="#0b0c0c" d="M54.26 13.54h1.39c.8 0 1.68.08 2.29.67.4.37.67.99.67 1.73 0 .77-.29 1.39-.67 1.76-.67.64-1.65.67-2.21.67h-1.47v-4.83zm9.77 14.63h3.15v-4.82c0-1.01.06-2.29.77-3.2.76-.98 2.16-1.44 3.21-1.05l-.04-2.92c-.35-.13-.63-.19-1.03-.19-.61 0-1.16.11-1.69.51-.5.37-.94.99-1.23 1.65v-1.87h-3.15v11.89zm19.75-5.68c0-1.47-.25-3.33-1.59-4.82-1.39-1.55-3.21-1.79-4.48-1.79-1.27 0-2.96.27-4.33 1.71-1.14 1.23-1.72 2.98-1.72 4.69 0 1.97.71 3.54 1.7 4.58 1.32 1.39 2.81 1.71 4.5 1.71 1.27 0 2.48-.19 3.57-.88.46-.3 1.1-.82 1.61-1.69l-1.89-2.05c-1.03 1.38-1.75 1.71-3.24 1.71-.56 0-1.32-.1-1.87-.75-.46-.53-.68-1.39-.68-2.03h8.43v-.39zm-8.3-1.89c.1-.53.35-.96.63-1.28.35-.37.91-.77 1.85-.77.73 0 1.32.27 1.72.67.53.53.71 1.28.73 1.39h-4.93zm9.79 7.57h3.48v-6.08c0-.4.02-1.73.68-2.43.34-.35.75-.48 1.21-.48.36 0 .8.08 1.16.48.53.59.56 1.52.56 2.32v6.18h3.48v-5.92c0-.77.07-1.71.53-2.35.29-.43.77-.72 1.35-.72.51 0 .97.24 1.26.64.46.64.46 1.71.46 2.32v6.02h3.48v-7.52c0-.85-.07-2.45-1.11-3.54-.65-.69-1.72-1.12-3.02-1.12-.85 0-1.55.16-2.3.67-.7.48-1.11 1.04-1.38 1.52-.29-.72-.75-1.31-1.31-1.65-.72-.48-1.57-.53-2.03-.53-.82 0-2.13.19-3.02 1.68v-1.39h-3.48v11.9zm19.47 0h3.13V16.28h-3.13v11.89zM8.3 4.88c1.49 1.97 2.59 4 2.93 6.16 5.12-3.18 11.45-3.89 18.95-2.16-.05-2.12.47-4.3 1.47-6.51l-3.76 3.86L27.68 0l-4.65 5.59L19.67.25l-1.36 4.07-.32 2.19-6.22-4.18.89 5.2L8.3 4.88zm27.37 22.19l2.04-1.59c1.43 2.3 1.21 4.86.25 7.54l-2.38-2.99.09-2.96zm-7.51 8.72c1.98-.44 3.55-1.21 4.93-2.55l2.43-.14c2.62 1.09.47 6.83-2.06 7.18.39-1.1.44-2.27.16-3.5-1.12 1.22-2.45 1.93-4.04 2.02l-1.42-3.01zm3.16-10.38c.7.76 1.55 1.24 2.47 1.59l-.04 2.76c-1.68 1.83-3.57 3.2-5.76 3.89-.5.16-1.1.04-1.36-.42l-2.36-4.18c-.16-.29.12-.7.46-.89l5.08-2.76c.48-.25 1.15-.39 1.51.01zM15.73 14.47c-4.39-2.79-5.49-.21-4.43 5.87-1.75-.81-2.5-2.95-2.25-6.4-3.09 2.44-5.45 5.2-6.83 8.39l2.57.35C2.07 26.06.24 29.81 0 34.22c1.38.14 2.78-.53 3.97-1.52C2.89 38 3.33 43.21 5.4 47.85c2.87-2.28 5.14-4.96 6.87-8 1.34 4.21 1.45 8.53-.36 13.02 6.23 3.12 12.46 2.94 18.68-1.4.49.96.69 2.04.75 3.18 4.72-3.09 7.75-7.49 8.37-13.7.9-.06 1.41.67 1.79 1.7 2.75-7.83 1.34-14.91-3.25-21.41-.02.5-.12.94-.36 1.27-.72-.5-1.2-1.13-1.54-1.84 1.26-.11-.31-3.96-1.61-1.15l-2.36-1.43c1.14 1.77 2.69 3.36 4.54 4.99-2.29-.39-4.33-.28-6.15.28-.78-1.38-1.85-2.49-3.15-3.4.08-.83.43-1.6.89-2.34-.76.63-1.54 1.17-2.45 1.19-2.8-1.99-4.75-1.63-6.88.02 1.18 1.46 3.33 1.68 6.42 1.49 1.43.87 2.57 1.95 3.38 3.29l-.25.28-1.14-.35-6.65-.04c-1.52-.39-2.72-1.16-3.15-2.87l-.55.09.29-1.24-2.25-.21 3.99-2.74-1.36-.42c.64-1.39 5.54-3.89 7.22-3.21 1.23.5 3.37 1.6 4.83 2.89.43-.78.66-1.71.71-2.77 2.12 1.24 4.13 2.93 6.11 4.74-.68-1.47-1.3-2.97-1.26-4.68-2.21-1.55-4.52-2.69-6.97-3.29.44.8.38 1.62.25 2.37-.74-1.3-2.3-2.34-3.66-2.89-4.9-.1-8.51.78-12.36 2.46 1.57.34 2.51 1.29 2.95 2.74zm90.58-3.9c.97 0 1.75.78 1.75 1.73 0 .96-.78 1.73-1.75 1.73s-1.75-.78-1.75-1.73c-.01-.95.78-1.73 1.75-1.73zm16.55 17.6h3.15v-4.82c0-1.01.06-2.29.77-3.2.76-.98 2.16-1.44 3.21-1.05l-.04-2.92c-.35-.13-.63-.19-1.03-.19-.61 0-1.16.11-1.69.51-.5.37-.94.99-1.23 1.65v-1.87h-3.15v11.89zm-1.26-5.68c0-1.47-.25-3.33-1.59-4.82-1.39-1.55-3.21-1.79-4.48-1.79-1.27 0-2.96.27-4.33 1.71-1.14 1.23-1.72 2.98-1.72 4.69 0 1.97.71 3.54 1.7 4.58 1.32 1.39 2.81 1.71 4.5 1.71 1.26 0 2.48-.19 3.57-.88.46-.3 1.1-.82 1.61-1.69l-1.89-2.05c-1.03 1.38-1.75 1.71-3.24 1.71-.56 0-1.32-.1-1.87-.75-.46-.53-.68-1.39-.68-2.03h8.43v-.39zm-8.3-1.89c.1-.53.36-.96.63-1.28.35-.37.91-.77 1.85-.77.73 0 1.32.27 1.72.67.53.53.71 1.28.73 1.39h-4.93zm-63.13 9.31v17.96h11.5v-3.5h-7.31V29.91h-4.19zm32.34 8.88c.68 0 1.52.27 2.09.83.55.54.86 1.35.86 2.21 0 1.02-.43 1.77-.92 2.26-.5.51-1.2.84-1.96.84-.89 0-1.7-.37-2.22-.94-.34-.37-.78-1.08-.78-2.15 0-1.08.47-1.78.86-2.18.5-.52 1.26-.87 2.07-.87zm3.19-1.59c-1.07-1.51-2.67-1.75-3.66-1.75-1.62 0-3.04.59-4.06 1.64-1.07 1.1-1.81 2.83-1.81 4.85 0 1.59.47 3.15 1.7 4.5 1.28 1.4 2.7 1.83 4.37 1.83.97 0 2.43-.24 3.45-1.86v1.45h3.45v-12H85.7v1.34zm11.25 1.5c.71 0 1.56.24 2.12.75.52.48.92 1.27.92 2.21 0 .89-.35 1.73-.95 2.29-.41.38-1.09.78-2.12.78-.92 0-1.66-.3-2.2-.86-.54-.57-.84-1.37-.84-2.15 0-.73.33-1.67.92-2.24.48-.46 1.27-.78 2.15-.78zm3.17-1.44c-.44-.65-1.42-1.8-3.62-1.8-2.26 0-3.67.97-4.41 1.72-1.03 1.05-1.8 2.75-1.8 4.79 0 2.07.79 3.53 1.77 4.52 1.12 1.1 2.56 1.7 4.43 1.7 2.23 0 3.16-1.05 3.62-1.8v1.37c0 3.4-5.76 3.62-7.38.99l-1.98 2.75c4.49 3.81 12.6 2.65 12.6-4.37V35.86h-3.24v1.4zm4.96-1.4v7.24c0 1.32.2 2.53 1.21 3.61 1.26 1.35 3.1 1.56 4.46 1.56 1.31 0 3.17-.22 4.43-1.56 1.12-1.19 1.24-2.48 1.24-3.85v-7h-3.57v6.62c0 .59-.07 1.4-.59 1.94-.32.32-.84.56-1.51.56-.79 0-1.24-.32-1.49-.56-.57-.57-.62-1.4-.62-1.94v-6.62h-3.56zm-30.31 5.93c0-1.47-.25-3.33-1.59-4.82-1.39-1.55-3.21-1.79-4.48-1.79-1.26 0-2.96.27-4.33 1.71-1.14 1.23-1.72 2.98-1.72 4.69 0 1.97.71 3.54 1.7 4.58 1.32 1.39 2.81 1.71 4.5 1.71 1.27 0 2.48-.19 3.57-.88.46-.3 1.1-.82 1.61-1.69l-1.89-2.05c-1.03 1.37-1.76 1.71-3.24 1.71-.56 0-1.32-.1-1.87-.75-.46-.53-.68-1.39-.68-2.03h8.43v-.39zm-8.3-1.89c.1-.53.35-.96.63-1.28.35-.37.91-.77 1.85-.77.73 0 1.31.27 1.72.67.53.53.71 1.28.73 1.39h-4.93zM130 41.79c0-1.47-.25-3.33-1.59-4.82-1.39-1.55-3.21-1.79-4.48-1.79-1.27 0-2.96.27-4.33 1.71-1.14 1.23-1.72 2.98-1.72 4.69 0 1.97.71 3.54 1.7 4.58 1.32 1.39 2.81 1.71 4.5 1.71 1.26 0 2.48-.19 3.57-.88.46-.3 1.1-.82 1.61-1.69l-1.89-2.05c-1.03 1.37-1.75 1.71-3.24 1.71-.56 0-1.32-.1-1.87-.75-.46-.53-.68-1.39-.68-2.03H130v-.39zm-8.3-1.89c.1-.53.35-.96.63-1.28.35-.37.91-.77 1.85-.77.73 0 1.32.27 1.72.67.53.53.71 1.28.73 1.39h-4.93zM50.15 10.18v17.78h4.11v-6.24h2.51c1.25 0 3.12-.13 4.54-1.57.67-.69 1.52-1.95 1.52-4.18 0-1.23-.21-2.98-1.73-4.32-1.41-1.25-3.12-1.47-4.67-1.47h-6.28z"/></svg>