<svg xmlns="http://www.w3.org/2000/svg" width="159" height="84"><path fill="#0b0c0c" d="M26.03 5.16c-.18.35-.34.55-.31.81.02.27.3.46.44.72.12-.31.32-.55.3-.79-.03-.24-.37-.56-.43-.74zm4.66 0c-.06.18-.4.5-.42.75-.02.25.18.48.3.79.13-.27.41-.46.44-.72.02-.28-.14-.48-.32-.82zm-7.34-.2c.17 0 .31-.14.31-.31 0-.17-.14-.31-.31-.31-.17 0-.31.14-.31.31 0 .17.14.31.31.31zm.21.44c0-.17-.14-.31-.32-.31-.17 0-.31.14-.31.31 0 .17.14.31.31.31.18.01.32-.13.32-.31zm.16.76c0-.17-.14-.31-.31-.31a.32.32 0 0 0-.32.31c0 .17.14.31.32.31.17 0 .31-.13.31-.31zm1.37-2.69c.17 0 .31-.14.31-.31 0-.17-.14-.31-.31-.31-.17 0-.31.14-.31.31 0 .17.14.31.31.31zm-.78.24c.17 0 .31-.14.31-.31 0-.17-.14-.31-.31-.31a.297.297 0 0 0-.31.3c0 .17.14.32.31.32zm-.61.53c.17 0 .31-.14.31-.31 0-.17-.14-.31-.31-.31-.17 0-.31.14-.31.31-.01.17.13.31.31.31zm2.21-.7c.17 0 .31-.14.31-.31 0-.17-.14-.31-.31-.31a.32.32 0 0 0-.32.31c.01.17.15.31.32.31zm.78.22c.17 0 .31-.14.31-.31 0-.17-.14-.31-.31-.31a.32.32 0 0 0-.32.31c.01.17.15.31.32.31zm.74.35c.17 0 .31-.14.31-.31 0-.17-.14-.31-.31-.31-.17 0-.31.14-.31.31 0 .17.13.31.31.31zm5.61.53c0 .17.14.31.31.31.17 0 .32-.14.32-.31 0-.17-.14-.31-.32-.31-.17 0-.31.14-.31.31zm.42.45c-.17 0-.31.14-.31.31 0 .17.14.31.31.31.17 0 .32-.14.32-.31a.32.32 0 0 0-.32-.31zm-.15.76c-.17 0-.31.14-.31.31 0 .17.14.31.31.31.17 0 .32-.14.32-.31a.327.327 0 0 0-.32-.31zm-1.7-2.38c.17 0 .32-.14.32-.31 0-.17-.14-.31-.32-.31a.32.32 0 0 0-.32.31c.01.17.15.31.32.31zm.79.24c.17 0 .31-.14.31-.31 0-.17-.14-.31-.31-.31-.17 0-.31.14-.31.31-.01.16.13.31.31.31zm.61.53c.17 0 .31-.14.31-.31 0-.17-.14-.31-.31-.31-.17 0-.31.14-.31.31 0 .17.14.31.31.31zm-2.22-.7c.17 0 .31-.14.31-.31 0-.17-.14-.31-.31-.31a.32.32 0 0 0-.32.31c.01.17.15.31.32.31zm-.78.22c.17 0 .32-.14.32-.31 0-.17-.14-.31-.32-.31-.17 0-.31.14-.31.31 0 .17.14.31.31.31zm-1.04.03c0 .17.14.31.31.31.17 0 .31-.14.31-.31 0-.17-.14-.31-.31-.31-.17 0-.31.14-.31.31zm-1.15 1.7h.35V4.15c-.12-.02-.24-.06-.35-.11v1.45zm1.07-1.45c-.11.05-.23.09-.35.11v1.34h.35V4.04zm-.74-1.48v-.79c-.4.08-.7.4-.77.79h.77zm.41 0h.77a.969.969 0 0 0-.77-.79v.79zm-1.17.38a.989.989 0 0 0 1.93 0h-1.93zm1.51-1.3c-.23-.17-.4-.43-.43-.69.26.05.54.23.71.45V.32c-.17.22-.46.41-.71.45.03-.26.19-.5.41-.77h-1.05c.22.27.38.51.41.77-.26-.04-.54-.23-.71-.45V1.4c.17-.22.46-.41.71-.45-.03.27-.2.52-.43.69h1.09zm.02 22.46c.21 0 .39-.17.39-.39s-.17-.39-.39-.39a.39.39 0 0 0 0 .78zm-1.85-.57c.23 0 .42-.19.42-.42 0-.23-.19-.42-.42-.42-.23 0-.42.19-.42.42 0 .23.19.42.42.42zm-.64-1.88c.06.05.12.09.18.13a.782.782 0 0 0-.18-.38.662.662 0 0 0-.49-.24c-.39 0-.8.42-.92.55l-.04.04-.05-.01-.3-.06c.04.09.08.17.14.27l.02.05-.03.05c-.19.3-.3.6-.3.83 0 .15.17.46.44.59.18.09.36.08.54-.02-.1-.05-.22-.13-.31-.19l-.05-.03c-.08-.04-.17-.09-.2-.21-.01-.02-.01-.05-.01-.07 0-.09.04-.21.13-.36.02-.03.04-.06.05-.08.01-.02.03-.04.04-.06l.05-.08.08.05c.15.09.29.12.39.1.05-.02.08-.04.11-.08.06-.1.03-.28-.17-.44l-.07-.06.11-.12c.07-.08.15-.17.23-.24.17-.15.33-.15.53-.01l.08.08zm3.62 1.48c.6.15 1.34.29 1.83.22-.02.02-.04.04-.07.06-.17.16-.41.34-.66.5-.63.39-1.27.62-1.75.62-.56 0-1.28-.11-2.02-.32-.66-.18-1.27-.42-1.75-.68-.26.19-.54.22-.81.09-.32-.15-.55-.52-.55-.75 0-.04 0-.08.01-.13a7.483 7.483 0 0 1-2.05-3c-.15-.41-.27-.84-.36-1.28.56.2.8 0 .97-.18.06.02.06.18.05.24.62-.01.98-.43 1.03-.75.06.38.15.75.29 1.11.23.63.55 1.2.97 1.68.15.17.3.32.46.47.1-.04.2-.06.3-.06.23 0 .46.11.62.3.17.19.26.44.22.66v.01c1.11.53 2.28.95 3.27 1.19zm-.27 4c.08-.15.13-.3.13-.42 0-.19-.15-.46-.47-.46-.54 0-.41.73-.67.73-.12 0-.2-.07-.2-.18 0-.21.38-.41.38-.71s-.27-.55-.58-.79c-.3.24-.57.49-.57.79 0 .3.37.5.37.71 0 .11-.08.18-.2.18-.26 0-.13-.73-.67-.73-.31 0-.46.27-.46.46 0 .11.05.27.13.42.07-.13.17-.21.26-.21.41 0 .25 1.06.73 1.06.21 0 .32-.13.32-.28 0-.15-.11-.19-.11-.31s.09-.16.2-.16c.11 0 .2.04.2.16s-.11.16-.11.31.11.28.32.28c.48 0 .32-1.06.73-1.06.09 0 .19.08.27.21zm-1.42 1.48c.15 0 .26-.12.26-.26 0-.15-.12-.26-.26-.26s-.26.12-.26.26c0 .15.12.26.26.26zm1.08-2.57c.42 0 .67.35.67.67 0 .3-.18.58-.34.76-.09-.19-.16-.33-.26-.33-.21 0-.11 1.02-.71 1.05a.47.47 0 1 1-.88 0c-.6-.03-.51-1.05-.72-1.05-.1 0-.17.15-.25.33-.16-.18-.34-.46-.34-.76a.675.675 0 0 1 .88-.64v-1.44c.61.16 1.21.24 1.73.26v1.18c.08-.02.14-.03.22-.03zm13.91 1.42c-.02-.06-.09-.1-.15-.08-1.39.4-3.11-.74-4.77-1.84-1.4-.93-2.72-1.81-3.86-1.81-.42 0-.79.09-1.11.26-.4.22-.69.56-.88 1.02-.19.46-.39.78-.55 1.03-.19.3-.33.52-.33.79 0 .22.1.42.29.62.16.16.39.32.73.49.07.04.14.07.21.1.28.13.45.22.48.38-.55.24-1.26.44-2.06.58-.91.16-1.91.24-2.96.24s-2.05-.08-2.96-.24c-.81-.14-1.52-.34-2.07-.58.02-.23.19-.32.49-.46.07-.03.14-.07.22-.11.27-.15.54-.29.71-.44.19-.17.29-.36.29-.58 0-.27-.14-.49-.33-.79-.16-.25-.36-.57-.55-1.03-.19-.46-.49-.8-.88-1.02-.32-.17-.69-.26-1.11-.26-1.13 0-2.46.88-3.86 1.81-1.67 1.1-3.39 2.25-4.77 1.84-.06-.02-.13.02-.15.08-.02.06.01.13.07.16.42.19.8.47 1.16.75.5.39.97.75 1.49.75.49 0 1.02-.16 1.67-.49.56-.29 1.14-.68 1.7-1.06 1.1-.75 2.23-1.51 3.3-1.6-.11.12-.22.21-.32.3-.32.28-.59.53-.59 1.02 0 .39.13.67.32 1.05.05.11.12.24.18.38.12.26.17.48.24.77.03.13.07.27.11.43.07.25.2.73.98 1.13.91.46 2.49.7 4.68.7 2.19 0 3.77-.23 4.68-.7.79-.4.92-.87.98-1.13.05-.17.08-.31.11-.43.07-.29.12-.51.24-.77.09-.19.17-.35.25-.49.16-.31.29-.55.29-.9 0-.5-.29-.75-.62-1.05-.11-.09-.22-.2-.34-.32 1.08.09 2.21.85 3.3 1.6.56.38 1.14.77 1.7 1.06.64.33 1.17.49 1.67.49.52 0 .99-.37 1.49-.75.36-.28.73-.57 1.15-.75.03-.02.06-.09.04-.15zM32.87 16.75c-.01-.68-.13-1.34-.35-1.97-.23-.63-.56-1.19-.97-1.68-.41-.48-.9-.86-1.44-1.13-.5-.24-1.02-.37-1.57-.4v5.18h4.33zm-4.51-7.34c1.48 0 2.49.43 3.08.83.34-.2.49-.4.49-.63 0-.83-2.37-.91-3.58-.91-1.2 0-3.57.07-3.57.91 0 .23.15.43.49.63.6-.4 1.62-.83 3.09-.83zm-.07 2.15c-.58.01-1.14.15-1.67.41-.54.27-1.02.64-1.43 1.13a5.28 5.28 0 0 0-.97 1.68c-.23.63-.34 1.29-.35 1.97h4.43v-5.19zm6.72 4.86c.01.18.01.24.01.43 0 1.01-.17 1.98-.52 2.9a7.53 7.53 0 0 1-1.42 2.38c-.3.33-.61.63-.95.89-.09.07-.46.18-1.98-.2-.19-.05-.3-.08-.51-.14.02-.19.05-.29.1-.44.06-.16.14-.31.21-.39.09-.04.09-.1.17-.14.54-.26 1.02-.64 1.44-1.13.41-.48.74-1.05.97-1.68.22-.6.33-1.24.35-1.9h-4.33v4.79c.35.02.99.08.99.08-.16.19-.22.39-.27.7-.49-.15-.98-.33-1.49-.54a.68.68 0 0 1 .51-.24V17h-4.43c-.01-.19-.11-.51-.17-.59-.22-.27-.3-.43-.31-.83-.01-.22-.14-.5-.36-.77-.13-.16-.66-.74-.78-.86.33-.88.81-1.68 1.42-2.36.4-.45.85-.84 1.34-1.16-.26-.17-.53-.42-.53-.83 0-.24.09-.43.27-.58-.28-.89-.78-1.96-1.2-2.42l.89-.37c-.23.35-.25.77-.2 1.01.24-.16.44-.38.51-.68.05.27.19.7.33.96-.26-.12-.47-.18-.74-.06.15.2.53.51 1.12.37.32-.08.63-.24.62-.49-.01-.14-.12-.32-.31-.3-.19.02-.21.31-.14.45-.25-.14-.52-.89-.12-1 .31-.09.6.34.7.67.06-.4.22-.78.54-.75.41.03.28.78.13.97-.03-.26-.17-.41-.29-.4-.11.01-.25.08-.23.32.03.24.37.39.76.39.37 0 1.04-.12 1.1-.84-.25.05-.62.23-.78.47.05-.44.05-.75 0-1.2.2.28.53.43.77.47-.07-.31-.34-.63-.65-.83h1.62c-.31.2-.58.52-.65.83.24-.04.58-.19.78-.47-.05.45-.05.77 0 1.2-.16-.24-.55-.43-.79-.47.06.72.72.84 1.1.84.4 0 .74-.15.76-.39.02-.24-.12-.32-.23-.32-.12-.01-.27.13-.29.4-.14-.19-.28-.94.13-.97.32-.02.48.36.54.75.1-.33.39-.75.7-.67.4.11.13.85-.12 1 .06-.13.05-.43-.14-.45-.2-.02-.31.16-.32.3-.01.24.3.41.62.49.59.14.97-.17 1.12-.37-.26-.11-.47-.05-.73.07.14-.26.28-.69.33-.96.07.29.26.51.5.67a1.4 1.4 0 0 0-.2-1l.89.37c-.42.47-.92 1.53-1.2 2.42.18.15.28.35.28.59 0 .41-.27.66-.53.83.49.32.94.71 1.34 1.16.33.37.59.7.84 1.13-.04.04-.08.09-.12.16-.06.09-.21.23-.26.3-.07.1-.15.22-.15.36 0 .12.05.25.14.4.11.18.8 1.53.96 1.87.14.24.39.47.54.59zm-4.04-2.75c-.25-.31-.54-.57-.86-.78-.26-.18-.54-.31-.83-.41.03.05.05.11.04.18a.264.264 0 0 1-.16-.07v1.26c.07-.01.13.02.15.07.02.04.01.1-.05.15.06 0 .13.03.19.08-.06.06-.13.08-.19.08.06.05.07.1.05.15-.02.05-.08.08-.15.07v1.49c.04-.04.11-.07.19-.07 0 .08-.03.14-.06.18h.92c-.01-.07.03-.13.07-.14.04-.02.1-.01.15.05 0-.06.02-.13.08-.19.06.06.08.13.09.19.05-.06.1-.07.15-.05.05.01.08.07.07.14h1.08c-.05-.04-.08-.11-.09-.2.07 0 .12.02.16.05a4.75 4.75 0 0 0-.65-1.75c-.04.02-.09.02-.12 0-.04-.02-.06-.07-.05-.15-.05.04-.12.06-.2.05.02-.08.05-.14.1-.18-.08 0-.12-.04-.13-.09-.01-.02.01-.07.05-.11zm1.22 2.23c.14 0 .2.12.17.18-.02.04-.06.07-.14.07.05.05.08.11.08.19-.08 0-.15-.03-.19-.07.01.08-.02.12-.06.14-.06.03-.19-.02-.19-.16.05.07.16.04.15-.04h-1.42c.02.08.01.19-.07.28-.08-.09-.1-.2-.07-.28h-1.28c0 .08.11.1.16.04 0 .14-.12.19-.19.16-.04-.02-.08-.06-.07-.14-.05.04-.11.07-.19.07 0-.08.03-.15.07-.19-.08.01-.12-.02-.14-.07-.03-.06.03-.19.17-.19-.07.05-.05.16.04.16v-1.83c-.08.03-.19.02-.28-.07.09-.09.2-.1.28-.07V12.4c-.08-.01-.11.1-.05.15-.14-.01-.19-.14-.15-.2.02-.03.06-.06.11-.06a.278.278 0 0 1-.06-.21c.09.01.15.05.2.1.01-.06.04-.09.08-.11.07-.03.19.04.17.18-.04-.07-.15-.06-.16.02.36.1.71.25 1.04.47.35.23.66.53.94.87.03.04.07.08.09.12a.28.28 0 0 1 .28-.12c-.02.13-.1.2-.18.23 0 .01-.01.01-.01.01.45.64.74 1.4.83 2.18.09.04.11-.08.04-.13zm-.76-.46c.06-.03.1-.07.12-.11a.129.129 0 0 1-.12-.02c.04-.03.09 0 .04-.08-.05-.08-.08-.08-.14-.03-.05.06-.4-.01-.39-.27.02.05.07.08.12.1.01.01.03.01.04.02.01 0 .03.01.04.01.03.01.07.02.1.02h.02v-.01c.07-.02.13-.06.13-.13.01-.14-.12-.21-.27-.33-.06-.05-.1-.09-.14-.13-.05-.1-.02-.19-.15-.38-.01-.05-.02-.1-.04-.16-.07.12-.1.35.08.54.14.16.45.31.44.44 0 .03-.03.06-.08.07-.01 0-.03 0-.04-.01-.01 0-.02 0-.03-.01l-.06-.03c-.03-.02-.07-.04-.11-.08-.13-.12-.24-.29-.32-.39-.14-.18-.08-.36-.06-.51.1-.14-.06-.42-.16-.49 0 0 .02-.06-.01-.14-.02.02-.06.01-.09.01-.03-.05-.04-.06-.07-.07-.06-.01-.06-.04-.07-.07-.03.03-.05.06-.08.07-.05 0-.07 0-.09.02-.04.03-.05.04-.11.04s-.06.03-.05.07c.01.03.01.07.04.08 0 0 .01.01.02.01l.06.06.03-.06c.03-.02.1-.03.11.02.01.04.02.05-.03.05-.05.01-.08.01-.12.01-.03 0-.03.04-.03.07 0 .03.04.05.11.03.07-.02.19-.03.19.03 0 .15-.18.15-.21.33a.27.27 0 0 1-.11-.1c-.02-.05-.07-.1-.13-.16a.689.689 0 0 0-.13-.11c-.06-.04-.06-.07-.06-.13 0-.05.02-.1.02-.15 0 0-.01-.03-.02-.05-.01-.04-.06-.06-.08-.05.01.01.03.02.03.05-.01.01-.02.03-.03.03-.01.01-.02.03 0 .05v.04c0 .01-.01 0-.01 0-.01-.04-.03-.09-.07-.1h-.02v-.01c0-.04-.04-.07-.09-.02.01 0 .03.01.04.02-.01.01-.01.04-.01.04 0 .04.03.06.07.06.01 0 .01 0 .01.01s0 .01.01.02c0 .01 0 .01-.01 0-.07-.03-.1 0-.1.03v.03c-.02.02-.03.05.02.08 0-.01 0-.04.01-.04s.01 0 .01-.01l.02.02s.02 0 .04-.01c.01 0 .01-.01.02 0s.01.01.02.01v.01c-.04.05-.04.09.02.1-.03.05-.11.03-.1-.04-.06.1.04.16.12.13 0 .03 0 .1.01.1 0-.01.01-.02.02-.02s.01 0 .01.01c0 .02.01.05.04.05-.01-.02 0-.02.01-.03.01.02.03.05.04.07.04.07.12.25.3.33-.09.05-.16.13-.21.2-.05.05-.13.1-.17.08-.02-.01-.03-.03-.06-.05-.02-.02-.04-.02-.06-.02 0 0-.02.01-.03.01-.03-.01-.08 0-.1.03.02 0 .04-.01.07.01v.03c0 .02.02.05.11.04.01 0 .02 0 .01.01s-.03.02-.05.01c-.04-.01-.06-.04-.09-.01 0 0-.01.02-.02.03h-.01c-.04.01-.07.08-.03.11 0-.01 0-.04.03-.06l.02.02c.03.04.06.06.12-.03.01-.01.01 0 .01 0 0 .04-.05.11.01.12 0 0 .02 0 .03.01v.01c.01.05.08.06.11.05-.02-.01-.05-.02-.06-.06.01 0 .03 0 .03-.01.03-.03-.01-.08.01-.1 0-.01.01-.01.01 0 .01.02.04.06.09.04.03-.02.04-.04.04-.06.06-.03.12-.05.17-.03-.01-.03.03-.08.1-.1.07-.02.1 0 .12.02.01-.03.03-.08.07-.12-.01.27.36.26.44.42-.11-.04-.23-.07-.3-.06-.09.02-.24.1-.26.2-.01.08.07.23.16.29-.1.02-.14-.01-.24.01h-.01c-.08.01-.09-.14-.19-.1-.01 0-.02.01-.03.02-.04 0-.09.05-.08.09.01-.01.03-.03.06-.04v.02c0 .02 0 .03.04.03.02 0 .03-.01.04-.01.01 0 .01 0 .01.01 0 .04-.12-.02-.1.08 0 0 .01.02.02.03 0 .03.02.06.08.04-.01-.01-.03-.02-.03-.04h.02c.01 0 .01 0 .01-.02h.01c.01 0 .01.01.01.01 0 .01-.01.01-.01.02l.01.03c0 .04.05.08.1.04-.02 0-.05-.01-.05-.03.01 0 .02-.01.03-.01.01-.01.01-.02.01-.03 0-.01.01-.01.01-.01h.03c.01 0 .01.01.02.01.01.02.04.04.07.03.02-.01.03-.02.03-.03.02.01.03.02.04.03-.01-.04.02-.07.1-.01l.06-.05s.08.03.11 0c.05-.04.02-.05.02-.09-.04-.08-.06-.07-.07-.15-.03-.13.16-.21.27-.19.02.09.14.31.34.37.12.04.17-.09.22-.07.01.01.02.02.02.04-.01.06 0 .12-.01.14-.01.03-.08.01-.13 0-.03 0-.05.02-.05.02-.04.01-.08.04-.08.08.01-.01.04-.03.07-.04v.02c.01.05.07.07.1.04 0-.01.02 0 .01.01-.03.02-.09.07-.04.09 0 0 .02.01.03.01 0 .03.02.07.05.07-.01-.02-.01-.03 0-.06h.03c.03 0 .02-.07.06-.08h.01c-.01.04-.02.08.02.1 0 0 .02 0 .03.01.01.03.05.05.1.03-.01-.01-.04-.02-.04-.03.01-.01.02-.03.03-.03.02-.08-.05-.08-.05-.11 0-.04.08-.01.08-.09v-.01c.04-.02.08-.05.08-.08-.08.02-.12 0-.13 0zm-4.03 2.39c.02-.21 0-.27-.11-.27-.13 0-.38.13-.69.26l.66.94c.04-.25.07-.47.09-.6 0-.02.01-.04.01-.06h-.04c-.09-.01-.15-.06-.15-.15.01-.09.1-.12.16-.12h.07zm-.25 1.64c.03-.15.05-.32.08-.47l-.78-1.11c-.11.04-.22.07-.33.1l1.03 1.48zm-.11.67c.02-.12.05-.27.07-.43l-1.18-1.69c-.07.01-.15.02-.23.02h-.14l1.48 2.1zm-1.67-2.1c-.11 1.21.75 1.98 1.62 2.32l-1.62-2.32zm2.41-.18c.07.01.14.05.14.14-.01.09-.08.13-.17.12l-.05-.01-.06 2.32.07.01-.02.21c-.02.07-.1.08-.17.08.04.36-.27.45-.42.45-.16 0-.3-.11-.3-.29 0-.15.14-.21.23-.21s.14.04.12.12c.01.06-.15.01-.15.1 0 .05.05.1.13.1.12 0 .19-.06.19-.19 0-.21-.2-.24-.4-.19-1.33-.39-2.08-1.69-1.99-2.7-.03-.01-.06-.02-.09-.04l.08-.2c-.03.04-.08.06-.13.06-.09 0-.17-.08-.17-.16 0-.09.07-.17.17-.17.09 0 .16.07.16.17v.02l.08-.2c.21.12.55.26.84.26.67 0 1.15-.32 1.4-.32.28 0 .43.19.42.45v.07h.09zm-1.18-4.9c-.01.02-.01.05.02.07.03.02.05-.01.06-.03.01-.02.01-.03.01-.04-.01-.01-.02-.03-.01-.04.01-.02.03-.01.05 0-.01-.02-.01-.03.01-.03s.02.03.02.03c.01-.01 0-.02.01-.03 0-.01-.01-.02-.02-.02l-.08-.04c-.01-.01-.02-.01-.03 0-.01 0-.02.01-.02.02.01.01.02-.01.04 0 .01.01 0 .02-.02.02.02.01.04.02.03.04-.01.02-.01.02-.03.02-.02-.01-.03.01-.04.03zm.16-.18c-.01.03.01.07.04.07s.02-.02.07-.03c-.03-.01-.09-.03-.11-.04zm.74.4c-.02 0-.01.01 0 .01.15.01.19.06.27.05.05-.01.05.02.05.03.01.04.06.02.07 0 .01.04-.01.06-.02.07-.01.01-.01.01 0 .01.01.03-.01.07.04.06-.01.03-.03.02-.04.02.02.01.03.03.03.04 0 .07-.06.05-.06.08s.05.03.04.09c0 0-.01.02-.02.03.01.01.03.02.03.02-.04.02-.07 0-.07-.02-.01 0-.02-.01-.02-.01-.03-.01-.02-.05-.01-.08h-.01c-.03.02-.02.07-.04.07h-.02c-.01.03-.01.04 0 .05a.068.068 0 0 1-.04-.06c-.01 0-.02-.01-.02-.01-.04-.02.01-.06.03-.08.01-.01-.01-.01-.01-.01-.03.03-.07.01-.08-.03v-.01c-.03 0-.04.02-.05.03 0-.04.03-.06.06-.07 0 0 .02-.02.04-.02.04 0 .09.02.1 0 .01-.03-.01-.04.01-.1 0-.02-.01-.03-.03-.03-.02 0-.09-.02-.15.02-.05.03.06.05-.06.05-.07 0-.12-.02-.17-.04.03.04 0 .07.03.09.05.03.05.11.04.13-.01.02-.08.02-.12.01-.01-.01-.03 0-.03 0-.05.01 0 .06-.05.08-.03.01-.06-.01-.06-.03 0 0-.01-.01-.02-.01h-.02s-.01 0-.01.01 0 .02-.01.03c0 0-.01.01-.02.01 0 .02.03.02.05.02-.05.03-.09 0-.09-.03l-.01-.03c0-.01.01-.01.01-.02 0 0 0-.01-.01-.01v.01c0 .01-.01.01-.01.01H27c0 .01.01.02.02.03-.05.02-.07-.01-.07-.04a.144.144 0 0 1-.02-.03c-.02-.09.08-.04.08-.07 0-.01 0-.01-.01-.01s-.02.01-.03.01c-.03 0-.03-.01-.03-.03v-.02c-.03 0-.04.02-.05.03-.01-.03.04-.08.07-.08.01 0 .02-.02.02-.02.08-.03.09.14.17.09.01-.01.04-.02.07-.02.01 0 .01 0 0-.01-.02-.02-.06-.03-.09-.04-.05-.01-.05-.11-.03-.16-.02.02-.07.04-.1.04-.34-.02-.07.1-.24.13-.03.01-.11.09-.19.09.02-.01.01-.04 0-.06-.02.03-.06.04-.08.04-.03.02-.05.03-.05.04 0 .04-.06.07-.09.07.02-.01.03-.03.03-.04 0-.01 0-.01-.01 0-.07.05-.14 0-.15.12-.03-.03-.02-.07-.03-.07l-.02.02c-.01-.01-.01-.03 0-.05 0 0 0-.01-.01-.01-.05.01-.08.01-.09.01 0-.01-.01-.02-.02-.02-.01.05-.06.07-.08.08.03-.03.03-.06.02-.08-.01.02-.02.03-.03.03.01-.02-.01-.04-.02-.05v.01c0 .02-.02.06-.06.07-.05 0-.06-.04-.06-.06 0-.01-.01-.01-.01 0-.02.01 0 .06-.04.08 0 0-.02 0-.02-.01-.01.03.01.06.03.07-.03 0-.08-.03-.07-.08v-.01c-.01-.01-.02-.01-.02-.01-.04-.03.01-.06.03-.1 0 0 0-.01-.01-.01-.08.05-.1.02-.11-.02 0 0 0-.02-.01-.02-.02 0-.04.03-.04.03-.03-.04.03-.08.06-.08h.01c.01-.01.02-.01.02-.01.04-.02.04.01.07.04.01.01.03.01.04 0 .01 0 0-.01 0-.01-.08-.03-.08-.05-.07-.07 0 0 .01-.02.01-.03-.02-.02-.03-.03-.05-.03.02-.02.06-.01.08.01h.03c.01 0 .03.01.04.03.01.03.01.04.02.06.04.05.16.01.21-.02.03-.02.14-.01.15-.01.01 0 .13-.03.2-.06-.05-.05-.07-.11-.08-.11-.01 0-.02.01-.01.03-.03 0-.03-.03-.03-.05 0-.01 0-.01-.01-.01s-.02.01-.02.02c-.01 0-.02-.01-.02-.03 0 0 0-.01-.01 0-.08.04-.17-.02-.1-.1-.02.07.09.09.1.01 0-.01 0-.01-.01-.01-.06-.01-.06-.05-.01-.08v-.01c.01.05.01.05 0 .05h-.02c-.02.01-.03.01-.04.01 0 0-.01-.01-.01-.02h-.01c-.02.01-.02.03-.02.04-.04-.02-.03-.05 0-.07v-.03c.01-.02.04-.05.1-.02h.01v-.02h-.01c-.04 0-.06-.02-.06-.05 0-.01.01-.02.01-.03-.01-.01-.02-.01-.03-.01.05-.04.08-.01.08.02v.01h.02c.03 0 .04.05.04.08 0 0 0 .01.01 0 0-.01.01-.01.01-.02v-.01c-.01-.02-.01-.03.01-.04 0 0 .02-.01.02-.02 0-.03-.01-.04-.02-.05.02 0 .06.02.07.05 0 .01.01.03.01.04 0 .04-.03.08-.04.12-.01.05-.01.07.04.1.03.02.05.04.07.06.01-.04.02-.13.05-.2-.01-.01-.01-.02-.02-.03.03 0 .04-.06.07-.11-.01 0-.02-.01-.03-.03.03.01.06-.07.09-.08-.01-.04-.01-.06.01-.09.02 0 .05.01.06.03 0-.02.02-.02.04-.02 0 0 .04-.01.05-.01.02 0 .04 0 .08.02s.07.04.08.05c.01.01.02.04.02.05.01.01.03.03.02.05.02 0 .05.01.07.03 0 .03-.02.05-.06.07.04.05-.07.16-.07.22.34-.09.47.04.65.04.24 0 .39-.06.39-.14 0-.24-.88-.01-.88-.34 0-.05.03-.09.09-.13-.01-.02 0-.04.02-.06.09-.12.26-.13.34-.23.01.04-.02.14-.11.18.16-.01.21-.31.59-.25-.31.06-.32.36-.75.4h-.01c-.04.03-.06.06-.06.09 0 .21.87 0 .87.34-.04.09-.19.2-.51.19zm-1.68 1.13c-.01.02-.02.06.02.08.03.02.06-.01.07-.03.01-.02.02-.04.01-.05-.01-.02-.02-.03-.01-.05.01-.02.03-.01.06 0-.01-.02-.01-.04.01-.04s.02.04.03.04c.01 0 .01-.02.01-.04 0-.01-.01-.02-.02-.02l-.1-.05c-.01-.01-.02-.01-.03 0-.01.01-.02.01-.02.03.01.01.03-.01.04 0 .01.01 0 .02-.02.03.02.02.04.03.04.05-.01.02-.02.02-.04.02-.03-.01-.04 0-.05.03zm.12-.25c-.02 0-.08-.04-.11-.06.03.05 0 .06.03.08.03.03.06 0 .08-.02zm.07.04c0 .03.01.08.04.08.04 0 .02-.02.08-.03a.726.726 0 0 1-.12-.05zm1.93.26c0 .11-.3.17-.5.17.18.02.24.04.34.03.05-.01.06.03.06.03.01.05.07.02.09 0 .01.04-.01.07-.03.08v.01c.01.03-.01.08.05.07-.01.03-.03.02-.05.02.03.01.03.03.03.05 0 .08-.07.05-.07.09 0 .03.07.03.04.11 0 .01-.02.02-.02.03.01.02.03.03.04.03-.04.02-.08 0-.09-.03-.01 0-.03 0-.03-.01-.03-.01-.03-.05-.01-.09 0 0 0-.01-.01 0-.03.02-.02.08-.05.08h-.02c-.02.04-.01.05 0 .06a.075.075 0 0 1-.05-.07c-.01-.01-.02-.01-.03-.02-.04-.02.01-.06.04-.09.01-.01-.01-.01-.01-.01-.03.03-.09.02-.09-.03v-.02c-.03 0-.05.02-.06.03 0-.04.04-.07.07-.08 0-.01.02-.02.04-.02.04 0 .1.03.12 0 .02-.04-.01-.04.01-.12.01-.03-.01-.03-.03-.04-.02 0-.1-.03-.17.02-.06.04-.1.06-.24.06-.08 0-.14-.02-.19-.05.03.05 0 .09.03.1.06.03.06.12.05.15-.01.02-.09.03-.14.01h-.04c-.05.01 0 .07-.06.09-.04.02-.07-.01-.08-.03 0 0-.01-.01-.02-.01h-.03c-.01 0-.01 0-.01.01 0 .02 0 .03-.01.04 0 0-.01.01-.03.01.01.02.04.03.06.03-.06.04-.11 0-.1-.04-.01 0-.01-.03-.01-.03 0-.01.01-.02.01-.02 0-.01 0-.01-.01-.01h-.01c0 .01-.01.02-.01.02h-.03c0 .02.02.03.03.04-.05.02-.08-.01-.07-.04a.144.144 0 0 1-.02-.03c-.02-.1.1-.04.1-.08 0-.01-.01-.01-.01-.01-.01 0-.02.01-.04.01-.03 0-.04-.02-.04-.03v-.02c-.03 0-.05.02-.06.04-.01-.04.04-.09.08-.09.01-.01.02-.02.03-.02.1-.04.1.16.19.1.01-.01.05-.02.08-.02.01 0 .01 0 0-.01a.178.178 0 0 0-.1-.04c-.06-.01-.06-.13-.03-.18-.02.02-.08.05-.11.05-.44-.08-.25.19-.52.17-.02 0-.05 0-.09.01-.02.06-.17.2-.26.18.02-.01.03-.03.04-.05 0-.01 0-.01-.01-.01-.08.06-.16 0-.17.14-.03-.03-.02-.08-.03-.08-.01 0-.02.02-.02.03-.01-.01-.01-.03 0-.05 0 0 0-.01-.01-.01-.05.01-.09.01-.11 0h-.01c0-.01-.01-.02-.02-.03-.01.06-.07.08-.09.09.04-.03.03-.07.02-.09-.01.02-.03.03-.04.04.01-.03-.01-.05-.03-.06 0 0-.01 0 0 .01 0 .03-.02.07-.07.08-.05.01-.06-.05-.07-.07 0-.01 0-.01-.01 0-.02.02 0 .07-.05.09 0 0-.02 0-.03-.01-.01.04.02.06.03.08-.03 0-.09-.04-.08-.09V15l-.02-.02c-.05-.03.01-.07.04-.11 0 0 0-.01-.01-.01-.09.06-.12.03-.12-.02 0 0-.01-.02-.01-.03-.03.01-.04.03-.05.04-.03-.05.03-.09.07-.09h.01c.01-.01.03-.01.03-.01.04-.03.05.01.08.04.02.01.04.01.05.01.01 0 0-.01 0-.01-.09-.03-.1-.06-.09-.08 0 0 .01-.02.02-.03-.02-.03-.04-.03-.05-.04.02-.01.07-.01.1.01h.03c.01 0 .03.02.05.04.02.03.01.05.03.07.04.06.18.01.24-.02.04-.02.2-.01.22-.01.01 0-.04-.07-.04-.13-.04.04-.08-.02-.14-.05-.07-.04-.11-.11-.12-.11-.01 0-.02.02-.01.04-.03-.01-.04-.03-.04-.06v-.01c-.02 0-.02.01-.02.02-.02 0-.02-.02-.03-.03 0 0-.01-.01-.01 0-.09.05-.2-.03-.13-.13-.01.09.1.1.12.02 0-.01 0-.01-.01-.01-.06-.01-.07-.06-.02-.1.01 0 .01-.01 0-.01l-.02-.02c-.01-.01-.01 0-.02 0-.02.02-.03.02-.04.02l-.02-.02h-.01c-.02.01-.02.03-.02.04-.04-.03-.04-.07-.01-.08v-.03c0-.03.03-.06.1-.04h.01c0-.01 0-.01-.01-.02l-.01-.01c-.04 0-.07-.02-.07-.06 0 0 .01-.03.01-.04a.076.076 0 0 0-.04-.02c.05-.05.09-.02.09.02v.01h.03c.03 0 .05.06.06.1 0 .01 0 .01.01 0 0-.01.01-.02.01-.02v-.01c-.02-.02-.01-.04 0-.05l.03-.03c0-.03-.02-.04-.03-.06.03-.01.07.02.08.05 0 .01.01.04.01.05 0 .05-.03.1-.03.15-.01.06 0 .09.06.13.06.04.1.09.14.12l.04.01c-.01 0-.02-.01-.03-.01.01.01.02.01.03.01h.02l.07.02c0-.03 0-.08.01-.12-.01 0-.03-.01-.05-.05.04 0 .05-.07.08-.12-.01 0-.02-.01-.04-.04.04.01.07-.08.11-.09-.01-.05-.01-.07.01-.11.03 0 .05.01.07.03 0-.03.03-.03.05-.02 0 0 .05-.01.06-.01.02 0 .05 0 .09.03.05.02.07.05.09.06.01.01.02.05.02.05.02.02.03.04.02.05.02.01.05.01.07.03 0 .03-.03.06-.06.08.04.05-.04.13-.07.2.41-.08 1.09.04 1.32.04.15 0 .4-.02.4-.09 0-.05-.06-.08-.32-.08s-1.09.18-1.09-.13c0-.14.18-.14.4-.14.01-.01.02-.01.03-.02.16-.1.42.04.56-.05-.01.05-.07.1-.25.1.3.07.54-.16.83.06-.24-.07-.71.14-1.11.03-.04-.01-.06-.02-.07-.03-.16-.01-.3-.02-.3.07 0 .17.7.06 1.01.06.27.03.38.09.38.19zm-2.47 1.31c-.01.02-.02.05.02.07.03.02.06-.01.07-.04.01-.02.01-.04.01-.05-.01-.01-.02-.03-.01-.05.01-.02.03-.01.05 0-.01-.02-.01-.04.01-.03.02 0 .02.03.03.03.01 0 .01-.02.01-.03 0-.01-.01-.02-.02-.02l-.09-.05c-.01-.01-.02-.01-.03 0-.01.01-.02.01-.02.02.01.01.03-.01.04 0 .01.01 0 .02-.02.03.02.01.04.02.03.05-.01.02-.02.02-.04.02-.02.01-.03.03-.04.05zm.11-.24c-.02 0-.07-.04-.1-.06.03.05 0 .06.03.08.02.03.05.01.07-.02zm.07.04c0 .03.01.07.04.07.04 0 .02-.02.08-.03a.548.548 0 0 1-.12-.04zm2.15.24c0 .11-.31.15-.48.16.17.02.23.04.32.03.05-.01.06.02.06.03 0 .05.06.02.08 0 .01.04-.01.07-.02.08-.01 0 0 .01 0 .01.01.03-.01.07.04.07-.01.03-.03.02-.05.02.03.01.03.03.03.04 0 .07-.07.05-.07.09 0 .03.06.03.04.1 0 0-.01.02-.02.03.01.01.03.02.04.03-.04.02-.07 0-.08-.02-.01 0-.02-.01-.02-.01-.03-.01-.03-.05-.01-.09 0 0 0-.01-.01 0-.03.02-.02.08-.05.08h-.02c-.01.03-.01.04 0 .06-.03 0-.05-.03-.05-.06-.01-.01-.02-.01-.02-.01-.04-.02.01-.06.04-.08.01-.01-.01-.01-.01-.01-.03.03-.08.02-.09-.03v-.01c-.02 0-.05.02-.06.03 0-.04.04-.07.07-.08 0 0 .02-.02.04-.02.04 0 .1.03.11 0 .02-.03-.01-.04.01-.11.01-.02-.01-.03-.03-.03-.02 0-.1-.02-.16.02s-.09.06-.23.06c-.07 0-.13-.02-.18-.04.03.04 0 .08.03.1.05.03.06.12.04.14-.01.02-.09.03-.13.01-.01-.01-.03 0-.04 0-.05.01 0 .07-.06.09-.03.01-.06-.01-.07-.03 0 0-.01-.01-.02-.01h-.02c-.01 0-.01 0-.01.01 0 .02 0 .03-.01.04 0 0-.01.01-.02.01 0 .02.04.02.05.03-.05.04-.1 0-.1-.04l-.01-.03c0-.01.01-.01.01-.02 0 0 0-.01-.01-.01l-.01.01c0 .01-.01.01-.01.01h-.02c0 .01.02.03.03.03-.05.02-.08-.01-.07-.04a.144.144 0 0 1-.02-.03c-.02-.1.09-.04.09-.08 0-.01 0-.01-.01-.01-.02 0-.02.01-.04.01-.03 0-.04-.01-.03-.03v-.02c-.03 0-.05.02-.06.04-.01-.04.04-.08.08-.08.01-.01.02-.02.03-.02.09-.04.1.15.18.09.01-.01.05-.01.08-.02 0 0 .01-.01 0-.01a.178.178 0 0 0-.1-.04c-.06-.01-.06-.1-.03-.16-.02.02-.03.04-.06.03-.57-.05-.29.22-.77.15-.03-.01-.03.06-.11.06h.01c-.01.01-.03.01-.05.01 0 .01 0 .03-.01.04l-.13.06.01-.01c-.03.03-.08.04-.11.04.02-.01.03-.03.04-.04 0-.01 0-.01-.01 0-.08.05-.24-.01-.25.12-.03-.03-.02-.08-.03-.08-.01 0-.02.02-.02.03-.01-.01-.01-.03-.01-.05v-.01c-.05.01-.08.01-.1 0v.01c0-.01-.01-.02-.02-.03-.01.06-.06.08-.08.09.03-.03.03-.07.02-.09-.01.02-.03.03-.04.04.01-.03-.01-.04-.02-.05 0 0-.01 0 0 0 0 .03-.02.07-.07.07-.05.01-.06-.04-.06-.06 0-.01-.01-.01-.01-.01-.02.02 0 .07-.05.08 0 0-.01 0-.02-.01-.01.04.01.06.03.08-.03 0-.08-.04-.08-.09v-.01l-.02-.02c-.05-.03.01-.07.04-.1 0-.01 0-.01-.01-.01-.09.06-.11.03-.12-.02 0-.01 0-.02-.01-.03-.03.01-.04.03-.05.04-.03-.04.03-.09.07-.09h.01c.01-.01.02-.01.03-.01.04-.02.05.02.08.04.02.01.04.01.05 0 .01 0 0-.01-.01-.01-.09-.03-.09-.06-.08-.08 0 0 .01-.02.02-.03-.02-.03-.03-.03-.05-.04.02-.02.07-.01.09.01h.03c.01 0 .03.01.04.04.02.03.01.05.03.07.04.06.17.01.23-.02.04-.02.23-.01.24-.01.01 0-.02-.07-.03-.12l-.03-.03c-.01.03-.05.03-.07.03-.12-.07-.18-.18-.19-.18-.01 0-.02.02-.01.03-.03-.01-.04-.03-.04-.05v-.01c-.02 0-.02.01-.02.02-.02 0-.02-.02-.03-.03 0 0 0-.01-.01 0-.08.05-.19-.03-.13-.12 0 .08.1.1.11.02 0-.01 0-.01-.01-.01-.06-.01-.07-.05-.02-.1v-.01c-.01-.01-.02-.01-.02-.01h-.02c-.02.01-.03.02-.04.01l-.02-.02h-.01c-.02.01-.02.03-.01.04-.05-.03-.04-.06-.01-.08v-.03c0-.03.03-.06.09-.03.01 0 .01 0 .01-.01 0 0-.01-.01-.01-.02s0-.01-.01-.01c-.04 0-.07-.02-.07-.05 0 0 .01-.03.01-.04-.01-.01-.03-.01-.04-.02.05-.05.09-.02.09.02v.01h.02c.03 0 .05.05.06.09 0 .01 0 .01.01 0v-.03c-.02-.02-.01-.04 0-.05 0 0 .01-.02.02-.03 0-.03-.02-.04-.03-.05.03-.01.07.02.08.05 0 .01.01.04.01.05 0 .05-.02.09-.02.14 0 .06 0 .09.06.12.08.05.11.12.16.12.02 0 .04 0 .05.01h.05l.03.01c0-.03.01-.06.01-.09l-.03-.03c.04 0 .05-.07.08-.12-.01 0-.02-.01-.03-.04.03.01.07-.08.11-.08-.01-.05-.01-.07.01-.1.03 0 .05.01.07.03 0-.02.03-.02.05-.02.01 0 .04-.01.05-.01.02 0 .04 0 .09.02.04.02.07.05.09.06 0 .01.01.05.02.05.02.01.03.03.02.05.02.01.05.01.07.03 0 .03-.03.06-.06.07.04.05-.05.15-.07.22.38-.12 1.35.01 1.58.01.14 0 .39-.02.39-.09 0-.05-.05-.07-.3-.07s-1.28.17-1.28-.12c0-.17.34-.13.62-.13.01-.01.01-.02.03-.02.15-.1.52.05.65-.04-.01.05-.18.08-.35.08.29.06.56-.16.78.04-.27-.09-.67.16-1.05.06a.215.215 0 0 1-.07-.04c-.22-.01-.53-.05-.53.06 0 .17.91.06 1.2.06.24 0 .34.06.34.15zm1.89 1.91c-.01.02-.01.06.02.07.03.02.06-.01.06-.03.01-.02.01-.04.01-.05-.01-.02-.02-.03-.01-.05.01-.02.03-.01.06 0-.01-.02-.01-.04.01-.03.02 0 .02.03.03.03.01 0 .01-.02.01-.03 0-.01-.01-.02-.02-.03l-.09-.04c-.01-.01-.02-.01-.03 0-.01.01-.02.02-.02.03 0 .01.02-.01.04 0 .01.01 0 .02-.02.03.02.01.04.02.03.05-.01.02-.02.02-.04.02-.02-.01-.03.01-.04.03zm.18-.2c-.01.03.01.08.04.08s.02-.02.07-.03a.582.582 0 0 1-.11-.05zm2.12.54c.01.03-.01.08.04.07-.02.03-.03.02-.05.02v.01c.02.01.03.04.02.05-.01.07-.07.05-.08.09 0 .03.06.03.03.1 0 0-.01.02-.02.03 0 .01.02.02.03.03-.04.02-.07 0-.08-.02-.01 0-.02-.01-.02-.01-.03-.01-.02-.05-.01-.09h-.01c-.04.02-.03.08-.06.08h-.02c-.02.03-.02.04-.01.06-.03 0-.04-.03-.04-.06-.01-.01-.02-.01-.02-.01-.04-.02.01-.06.04-.08.01-.01-.01-.01-.01-.01-.03.03-.08.02-.08-.03v-.01c-.03 0-.05.02-.06.03 0-.04.04-.07.08-.07 0 0 .02-.02.04-.02.04 0 .1.02.11 0 .02-.03 0-.04.02-.11.01-.02-.01-.03-.02-.03-.02 0-.1-.03-.17.02-.06.04-.11.06-.24.06-.07 0-.13-.02-.18-.05.03.05 0 .09.03.1.05.03.06.12.05.14-.01.02-.09.03-.13.01h-.04c-.05.01 0 .06-.06.09-.03.01-.06-.01-.07-.03 0 0-.01-.01-.02-.01h-.03s-.01 0-.01.01c0 .02 0 .03-.01.03 0 0-.01.01-.03.01.01.02.04.02.05.03-.05.04-.1 0-.1-.04-.01 0-.01-.03-.01-.03 0-.01.01-.01.01-.02 0 0 0-.01-.01-.01h-.01c0 .01-.01.02-.01.02h-.02c-.01.01.01.03.02.04-.05.02-.08-.01-.07-.04a.144.144 0 0 1-.02-.03c-.02-.09.09-.04.09-.08 0-.01-.01-.01-.01-.01-.01 0-.02.01-.04.01-.03 0-.04-.01-.04-.03v-.02c-.03 0-.05.02-.06.04-.01-.04.04-.08.08-.08.01-.01.02-.02.03-.02.09-.03.1.15.18.1.01-.01.05-.02.08-.02.01 0 .01-.01.01-.01a.178.178 0 0 0-.1-.04c-.06-.01-.06-.12-.03-.18-.02.02-.04.05-.06.05-.57-.06-.29.22-.77.15-.03 0-.02.06-.11.06-.04.01-.08.01-.08.02 0 .05-.12.12-.15.1.02-.01.03-.03.04-.04 0-.01 0-.01-.01-.01-.08.05-.15 0-.16.13-.03-.03-.02-.08-.03-.08-.01 0-.02.02-.02.03-.01-.01-.01-.03-.01-.05 0 0 0-.01-.01-.01-.05.01-.08.01-.1 0v.01c0-.01-.01-.02-.02-.03-.01.06-.06.08-.08.09.03-.03.03-.07.02-.09-.01.02-.03.03-.04.04.01-.03-.01-.05-.02-.06-.01 0-.01 0-.01.01.01.03-.02.07-.07.07-.05.01-.06-.04-.06-.06 0-.01-.01-.01-.01-.01-.03.02-.01.07-.05.09 0 0-.01 0-.03-.01-.01.04.02.06.03.08-.03 0-.08-.04-.07-.08v-.01l-.02-.02c-.05-.03.02-.07.04-.1 0 0 0-.01-.01 0-.09.06-.11.03-.12-.02 0 0 0-.02-.01-.03-.03.01-.04.03-.05.04-.03-.04.03-.09.07-.09h.01c.01 0 .02-.01.03-.01.04-.02.05.02.08.04.02.02.04.01.05.01.01-.01 0-.01-.01-.01-.09-.03-.09-.06-.08-.08 0 0 .01-.02.01-.03-.02-.03-.03-.03-.05-.03.02-.02.07-.01.09.01h.03c.01 0 .03.01.04.04.02.03.01.05.03.07.04.06.18.01.23-.02.04-.02.15-.01.17-.01.01 0-.05-.06-.05-.11l-.02.01c-.02-.01-.04-.03-.04-.05-.03.02-.07.04-.07.05-.12-.07-.17-.19-.19-.19-.01 0-.01.01-.01.03-.03 0-.04-.03-.04-.05 0-.01 0-.01-.01-.01s-.02.01-.02.02c-.01 0-.02-.02-.03-.03 0 0 0-.01-.01 0-.08.05-.19-.02-.13-.12-.01.08.11.1.11.02 0-.01 0-.01-.01-.01-.06-.01-.07-.06-.02-.1v-.01c-.01 0-.02-.01-.02-.01h-.02c-.02.01-.03.02-.04.01l-.02-.02h-.01c-.02.01-.02.03-.02.04-.04-.03-.04-.06-.01-.08v-.03c0-.03.03-.06.1-.03H29c0-.01 0-.01-.01-.02 0-.01 0-.01-.01-.01-.04 0-.07-.02-.07-.05 0 0 .01-.03.01-.04-.01-.01-.03-.01-.04-.02.04-.05.09-.02.09.02v.01H29c.03 0 .05.06.06.09 0 0 0 .01.01 0 0-.01.01-.02.01-.02s0-.01-.01-.01c-.02-.02-.01-.04 0-.05 0 0 .01-.02.02-.03 0-.03-.02-.04-.03-.05.03-.01.07.02.08.05.01.01.01.04.02.05 0 .05-.02.09-.02.14 0 .06 0 .09.06.12.08.05.11.12.16.13.02 0 .04.01.05.01h.05l.05.02c0-.03.01-.06.01-.09-.01 0-.03-.02-.05-.04.03 0 .05-.07.07-.12-.01 0-.02-.01-.03-.04.03.01.07-.08.11-.08-.01-.05-.01-.07.01-.11.03 0 .05.01.07.03 0-.02.03-.02.05-.02 0 0 .04-.01.05-.01.02 0 .05 0 .09.02.04.02.07.05.09.06.01.01.02.05.02.05.01.02.03.03.02.05.03 0 .05.01.07.03 0 .03-.03.06-.06.08.04.05-.05.15-.07.21.39-.12 1.35.01 1.58.01.14 0 .38-.02.38-.09 0-.05-.05-.07-.3-.07s-1.28.17-1.28-.12c0-.16.34-.13.62-.13.01-.01.02-.01.03-.02.15-.1.52.04.65-.04-.01.04-.19.08-.35.08.29.06.47-.12.77-.02-.23-.07-.66.22-1.04.11a.215.215 0 0 1-.07-.04c-.23-.01-.53-.05-.53.05 0 .16.91.06 1.2.06s.4.06.4.15c0 .11-.31.13-.48.15-.02 0-.01.01 0 .01.17.02.25.03.34.02.05-.01.05.03.05.03 0 .05.06.02.08 0 0 .04-.01.07-.03.08l.01-.04zm-2.13.83c.03 0 .02-.02.07-.03-.03-.01-.1-.03-.11-.05 0 .04.01.08.04.08zm-.05.06c.01 0 .01-.02.01-.03 0-.01-.01-.02-.02-.03l-.09-.04c-.01-.01-.02-.01-.03 0-.01.01-.02.01-.02.02s.02-.01.04 0c.01.01 0 .02-.02.02.02.01.04.02.03.05-.01.02-.02.02-.04.02-.01 0-.02.01-.03.03-.01.02-.01.05.02.07.03.02.06-.01.06-.03.01-.02.01-.04.01-.04-.01-.02-.02-.03-.01-.04.01-.02.03-.01.05 0-.01-.02-.01-.04.01-.03.03.01.02.04.03.03zm.86-.15c-.15-.01-.27-.01-.27.06 0 .16.63.05.91.05s.3.06.3.14c0 .1-.33.13-.49.14-.02 0-.01.01 0 .01.16.02.28.03.37.02.05-.01.05.02.05.03-.01.05.06.02.08 0 0 .04-.02.06-.04.07v.01c0 .03-.03.07.02.07-.02.03-.04.02-.06.02.02.01.02.03.02.04-.02.07-.08.05-.09.08-.01.03.05.03.01.1l-.03.03c0 .01.02.02.03.03-.04.02-.07 0-.07-.02-.01 0-.02-.01-.02-.01-.03-.01-.01-.05.01-.08h-.01c-.04.02-.04.08-.07.08h-.02c-.02.03-.02.04-.02.05-.02 0-.03-.03-.02-.06-.01-.01-.02-.01-.02-.01-.03-.02.03-.06.06-.08.01-.01 0-.01-.01-.01-.04.03-.08.02-.07-.03v-.02c-.03 0-.05.02-.07.03.01-.04.05-.07.09-.07 0 0 .02-.02.04-.02.04 0 .09.02.11 0 .02-.03.01-.04.03-.1.01-.02 0-.03-.02-.03s-.08-.02-.16.02c-.06.04-.13.05-.25.05-.07 0-.13-.02-.18-.04.03.04 0 .08.03.09.05.03.06.11.04.14-.01.02-.08.02-.13.01-.01-.01-.03 0-.04 0-.05.01 0 .06-.06.08-.03.01-.06-.01-.07-.03 0 0-.01-.01-.02-.01h-.02s-.01 0-.01.01c0 .02 0 .03-.01.03l-.02.01c0 .02.04.02.05.03-.05.03-.1 0-.09-.04l-.01-.03c0-.01.01-.01.01-.02l-.01-.01s-.01 0-.01.01-.01.02-.01.01h-.02c0 .01.01.03.02.03-.05.02-.07-.01-.07-.04a.144.144 0 0 1-.02-.03c-.02-.09.09-.04.09-.07 0-.01 0-.01-.01-.01s-.02.01-.04.01c-.03 0-.03-.02-.03-.03v-.02c-.03 0-.05.02-.06.03-.01-.04.04-.08.08-.08l.02-.02c.09-.04.09.14.17.09.01-.01.05-.02.08-.02 0 0 .01 0 0-.01a.18.18 0 0 0-.09-.04c-.05-.01-.05-.12-.03-.17-.02.02-.07.05-.1.04-.39-.07-.21.16-.45.14-.03 0-.02.06-.1.06.02-.01.02-.03.01-.04-.01.01-.01.02-.02.03-.02.06-.11.18-.2.12.02-.01.03-.03.03-.04 0-.01 0-.01-.01 0-.08.05-.18.02-.19.14-.03-.03-.02-.08-.03-.08-.01 0-.02.02-.02.03-.01-.01-.01-.03-.01-.05 0 0 0-.01-.01-.01-.05.01-.08.01-.1 0h-.01c0-.01-.01-.02-.02-.03-.01.05-.06.08-.08.08.03-.03.03-.06.02-.09-.01.02-.03.03-.03.04.01-.03-.01-.05-.02-.05h-.01c.01.03-.02.06-.06.07-.05 0-.06-.04-.06-.06 0-.01 0-.01-.01 0-.02.02 0 .06-.04.08 0 0-.02 0-.03-.01 0 .03.02.06.03.07-.03 0-.08-.03-.07-.08 0-.01 0-.01.01-.01-.01-.01-.02-.01-.02-.01-.04-.03.01-.06.03-.1 0 0 0-.01-.01-.01-.08.06-.1.03-.11-.02 0 0 0-.01-.01-.02-.03 0-.04.03-.04.04-.03-.04.03-.09.06-.08h.01c.01-.01.02-.01.03-.01.04-.02.04.01.07.04.02.01.03.01.04.01.01 0 0-.01 0-.01-.08-.03-.09-.06-.08-.07 0 0 .01-.02.01-.03a.055.055 0 0 0-.05-.03c.02-.02.07-.01.09.01h.03c.01 0 .03.01.04.03.02.03.01.05.03.06.04.05.17.01.22-.02.04-.02.15-.01.16-.01.01 0-.01-.08 0-.14l-.07.01c-.02-.01-.03-.02-.03-.04-.1-.05-.09-.02-.11-.02-.01 0-.02.02-.01.03-.03-.01-.04-.03-.04-.05 0-.01 0-.01-.01-.01s-.02.01-.02.02c-.01 0-.02-.02-.03-.03 0 0 0-.01-.01 0-.08.05-.18-.02-.12-.11-.01.08.1.09.11.02 0-.01 0-.01-.01-.02-.06-.01-.06-.05-.02-.09v-.01c-.01-.01-.01-.01-.02-.01h-.02c-.02.01-.03.02-.04.01l-.02-.02s-.01 0-.01.01c-.02 0-.01.03-.01.04-.04-.03-.03-.06-.01-.07v-.03c0-.03.03-.06.09-.03h.01v-.01c0-.01-.01-.01-.01-.01-.04 0-.07-.02-.06-.05 0 0 .01-.03.01-.04-.01-.01-.02-.01-.03-.02.04-.04.08-.01.08.02v.01h.02c.03 0 .05.05.06.09 0 .01.01.01.01 0v-.03c-.02-.02-.01-.03 0-.05 0 0 .01-.01.02-.03 0-.03-.02-.04-.03-.05.03-.01.06.02.08.05.01.01.01.04.01.04 0 .05-.02.09-.02.14 0 .06 0 .08.06.12.07.04.1.04.15.04h.01l.07.05c0-.03.01-.07.02-.11l-.03-.03c.03 0 .04-.06.07-.11-.01 0-.02-.01-.03-.04.03.01.07-.08.1-.08-.01-.04 0-.07.01-.1.02 0 .05.01.06.03 0-.02.03-.02.05-.02.01 0 .04-.01.05-.01.02 0 .04 0 .08.02s.07.04.08.05c.01.01.02.05.02.05.01.01.03.03.02.05.02 0 .05.01.07.03 0 .03-.02.06-.06.07.04.04-.03.12-.06.18.37-.07.99.03 1.19.03.13 0 .4-.02.4-.08 0-.05.03-.07-.21-.07s-.99.16-.99-.12c0-.13.16-.13.36-.12l.02-.02c.15-.09.5.04.62-.04-.01.04-.18.08-.34.08.27.06.45-.12.74-.02-.22-.06-.63.21-.99.1-.02.02-.04 0-.05-.02zm-1.14 1.51c-.01.02-.01.05.02.07.03.02.05-.01.06-.03.01-.02.01-.03.01-.04-.01-.01-.02-.02-.01-.04s.03-.01.05 0c-.01-.02-.01-.03.01-.03s.01.03.02.03.01-.02.01-.03c0-.01-.01-.02-.02-.02l-.08-.04c-.01 0-.02-.01-.03 0-.01.01-.02.01-.02.02s.02-.01.04 0c.01.01 0 .02-.02.03.02.01.04.02.03.04-.01.02-.02.02-.03.02-.02-.01-.03 0-.04.02zm.17-.18c-.01.03.01.07.04.07s.02-.02.07-.03a.433.433 0 0 1-.11-.04zm.67-.03c-.07.02-.13.06-.13.11 0 .15.93-.07.94.13.01.1-.19.19-.51.18h-.09c0 .07.1.08.15.14.03.03.01.07-.05.09-.04.02.03.06.05.05-.02.03-.05.04-.07.03h-.01c-.02.02-.06.04-.02.07-.02.01-.03 0-.05-.02v.01c.01.02 0 .04-.01.05-.05.04-.08-.01-.1.01-.02.02.02.06-.04.09h-.03c-.01.01 0 .03 0 .04-.04-.01-.05-.05-.04-.07 0-.01-.01-.02-.01-.02-.01-.03.02-.05.05-.06v-.01c-.03-.01-.06.04-.08.02 0 0-.01-.01-.01-.02-.03.01-.03.02-.04.03a.062.062 0 0 1 .01-.07c0-.01-.01-.02-.01-.02-.02-.04.04-.03.08-.03.01 0 .01-.01.01-.01h-.01c-.01-.01-.02-.02-.01-.03v-.01c-.02-.01-.05 0-.06 0 .01-.03.06-.04.09-.04 0 0 .02-.01.04 0s.04.04.05.06h.01c.03-.01.02-.03.08-.06.02-.01.01-.02.01-.04a.578.578 0 0 0-.14-.07c-.04.05-.24.02-.3.01.14.08.07.26.1.27.05.03.05.11.04.13-.01.02-.05.01-.09 0h-.03c-.04.01 0 .06-.05.08-.03.01-.06-.01-.07-.02 0-.01-.01-.01-.02-.01h-.02s-.01 0-.01.01 0 .02-.01.03c0 0-.01.01-.02.01 0 .02.03.02.05.02-.05.03-.09 0-.09-.03 0 0-.01-.02-.01-.03 0-.01.01-.02.01-.02s0-.01-.01-.01c0 .01-.01.01-.01.01h-.02c0 .02.01.03.02.03-.05.01-.07-.01-.07-.04 0-.01-.01-.02-.01-.03-.02-.09.09-.04.09-.07 0-.01-.01-.01-.01-.01-.01 0-.02.01-.03.01-.03 0-.03-.01-.03-.03v-.02c-.03 0-.04.02-.05.03-.01-.04.04-.08.07-.07.01 0 .02-.02.02-.02.08-.03.08.14.16.09.01-.01.04-.02.07-.02.01 0 .01 0 0-.01-.02.02-.09-.04-.09-.09 0-.04.01-.11.03-.14-.1.01-.14.08-.24.08h-.03c-.02.14-.07.18-.07.2 0 .04-.08.08-.11.08.02-.01.03-.02.03-.04 0-.01 0-.01-.01-.01-.07.05-.14 0-.15.12-.03-.03-.01-.07-.03-.07-.01 0-.02.02-.02.03-.01-.01-.01-.03 0-.05 0 0 0-.01-.01-.01-.05.01-.08.01-.09 0 0-.01-.01-.02-.02-.03-.01.05-.06.07-.07.08.03-.03.03-.06.02-.08-.01.02-.03.03-.03.03.01-.02-.01-.04-.02-.05 0 0-.01 0 0 0 0 .02-.02.06-.06.06-.05 0-.06-.04-.06-.06 0-.01 0-.01-.01-.01-.02.01-.01.06-.04.08 0 0-.02 0-.03-.01-.01.07.01.09.02.1-.03 0-.08-.03-.07-.08v-.01c-.01-.01-.02-.01-.02-.01-.04-.03.01-.06.03-.09 0 0 0-.01-.01-.01-.08.06-.1.02-.1-.02l-.01-.02c-.02.01-.04.03-.04.04-.03-.04.03-.08.06-.08h.01c.01 0 .02-.01.02-.01.04-.02.04.01.07.04.01.01.03.01.04 0 .01 0 0-.01-.01-.01-.08-.03-.08-.05-.07-.07 0 0 .01-.02.01-.03a.055.055 0 0 0-.05-.03c.02-.01.06-.01.08.01h.03c.01 0 .03.01.04.03.02.03.01.04.02.06.02.02.05.03.09.02 0 0 0 .01-.01.01l.01-.01c.04-.01.09-.03.12-.04.04-.02.16 0 .18 0 .01 0-.02-.04-.04-.09-.06.01-.11-.03-.13-.09-.11-.06-.09-.18-.11-.18-.01 0-.01.01-.01.03-.03 0-.03-.03-.04-.05 0 0 0-.01-.01-.01s-.02.01-.02.02c-.02 0-.02-.01-.02-.03 0-.01 0-.01-.01 0-.07.04-.17-.02-.12-.11-.01.07.09.09.1.01 0-.01 0-.01-.01-.01-.05-.01-.06-.05-.02-.09v-.01c-.01 0-.01-.01-.02-.01h-.01c-.02.01-.03.02-.04.01l-.02-.02h-.01c-.01.01-.01.03-.01.04-.04-.03-.03-.06-.01-.07v-.03c0-.02.03-.05.09-.03 0 0 .01 0 0 0v-.02c0-.01-.01-.01-.01-.01-.04 0-.06-.02-.06-.05 0 0 0-.02.01-.04-.01-.01-.02-.01-.03-.01.04-.04.08-.02.08.02v.01h.02c.03 0 .04.05.06.08 0 .01 0 .01.01 0v-.03c-.02-.02-.01-.03 0-.05 0 0 .01-.02.02-.02 0-.03-.02-.04-.03-.05.02-.01.06.02.07.05.01.01.01.04.01.04 0 .04-.02.08-.02.13s0 .08.05.11c.06.03.14.17.2.23-.01-.06 0-.15.02-.23l-.03-.03c.03 0 .04-.06.07-.11-.01 0-.02-.01-.03-.03.03.01.06-.07.09-.07-.01-.04-.01-.07.01-.1.02 0 .04.01.06.03 0-.02.03-.02.05-.02 0 0 .04-.01.05-.01.02.01.04.01.08.02.04.02.07.04.08.05.01.01.02.04.02.04.01.02.03.03.02.05.02 0 .04.01.06.03 0 .03-.02.05-.06.07.04.04-.05.15-.08.21.4-.1.72.02.9.02.24 0 .42-.06.42-.12 0-.08-.93.11-.93-.13 0-.08.1-.14.21-.17l.03-.03c.15-.09.5.05.62-.04-.01.04-.18.07-.34.07.27.06.45-.11.74-.02-.22-.06-.63.21-.99.11 0 .05-.02.04-.03.02zM15.26 3.82c0-.12-.1-.23-.23-.23-.12 0-.22.1-.22.23s.1.23.22.23c.13-.01.23-.11.23-.23zm-.08-.6c0-.12-.1-.23-.23-.23-.12 0-.22.1-.22.23 0 .12.1.23.22.23.13-.01.23-.11.23-.23zm.13-.27c.13 0 .23-.1.23-.22s-.1-.23-.23-.23c-.12 0-.23.1-.23.23 0 .12.1.22.23.22zm.6-.04c.13 0 .23-.1.23-.22s-.1-.23-.23-.23c-.12 0-.22.1-.22.23s.1.22.22.22zm2.57-.42c.09.09.23.09.32 0s.09-.23 0-.32a.223.223 0 0 0-.32 0c-.09.09-.09.24 0 .32zm-.05-.48c.09-.09.09-.23 0-.32a.223.223 0 0 0-.32 0c-.09.09-.09.23 0 .32s.23.09.32 0zm-.6-.09c.09-.09.09-.23 0-.32a.223.223 0 0 0-.32 0c-.09.09-.09.23 0 .32.09.08.23.08.32 0zm-.51.38c.09-.09.09-.23 0-.32a.223.223 0 0 0-.32 0c-.09.09-.09.23 0 .32.08.08.23.08.32 0zm-1.45-.31l.18.39.23-.27c.01 0 .02.01.03.01.02.13.03.36.03.49a.29.29 0 0 0 .58 0c0-.11-.06-.21-.15-.25-.11-.09-.24-.2-.32-.3.01-.01.01-.02.01-.04l.38.04-.15-.41-.29.24c-.01 0-.01-.01-.02-.01l-.02-.42-.4.15.26.31c-.01.01-.01.02-.02.03l-.33.04zm2.62.7c.09.14.12.2.13.31a.712.712 0 0 1-.24-.21l.05.52a.49.49 0 0 1 .19-.19c-.02.34-.16.48-.27.51a.227.227 0 0 1-.27-.17c-.03-.15.1-.25.24-.11.02-.31-.23-.31-.34-.18.13-.3.08-.5-.19-.67-.17.28-.1.47.12.69-.21-.11-.4.07-.21.3.04-.2.22-.16.26.01.04.14-.1.31-.32.38-.32.1-.43-.11-.51-.28.07-.05.24-.03.42.09l-.16-.51c-.07.18-.18.26-.31.31-.01-.15.1-.45.1-.45l-.62.25s.29.14.39.25c-.13.05-.26.07-.44-.01l.23.47c.05-.21.16-.34.24-.36.07.18.14.4-.16.56-.21.11-.43.07-.5-.05-.08-.14.01-.3.18-.18-.03-.3-.29-.29-.36-.07 0-.3-.08-.49-.4-.57-.08.3.03.49.33.61-.17-.02-.36.15-.12.36 0-.19.16-.21.25-.09.06.09.05.23-.07.31-.1.06-.3.06-.55-.17.08-.03.16-.02.27.01l-.33-.41c.02.14.01.25-.02.32-.07-.08-.09-.15-.13-.31l-.27.22c.24.15.52.37.85.84.36-.22.99-.52 1.38-.68.39-.16 1.06-.38 1.47-.47-.08-.56-.05-.92.02-1.19l-.33.01zm.72 2.97c.25-.2.04-.41.35-.89-.34.21-.84.41-1.28.59.19.32.61.55.93.3zm-.07 3.27c.44-.19.4-.6.29-.83-.11-.23-.21-.42-.34-.42-.25 0-.38-.06-.45-.29-.09-.26.19-.36.44-.51-.26-.08-.39-.19-.24-.3.17-.13.42.12.48 0 .06-.11-.13-.21-.21-.29-.11-.11-.21-.08-.36-.02l-1.18.44c-.15.07-.24.12-.25.27 0 .11-.07.31.05.35.11.05.12-.3.33-.33.18-.02.17.15.04.39.28-.07.55-.19.67.06.11.22.05.35-.13.52-.09.09-.03.29.05.54.08.24.4.6.81.42zm-2.25-2.36c.4-.04.55-.49.47-.85-.44.17-.94.36-1.33.44.56.14.55.44.86.41zm6.57 10.44c-.11.29.14.36.14.59 0 .3-.25.43-.53.5.2-.41.02-.64-.32-.69.07.77-.53.88-.78.76.24-.05.34-.42.21-.75-.11.26-.38.46-.63.46-.24 0-.42-.18-.52-.38.28.18.51-.03.51-.18 0-.14-.28-.22-.28-.44 0-.52.57-.31.57-.77 0-.18-.1-.27-.22-.27s-.31.06-.36.37c-.29-.25 0-.83-.13-1.21.03.61-.39.57-.55.81-.21-.21 0-.63-.2-1.12-.08.56-.29.48-.35.8-.57-.28-1.57-.19-1.91.2.96.74 2.11 1.14 2.11 2.3 0 .89-1.39 1.23-1.39 1.8 0 .57 1.45 1.89 2.18 1.89.24 0 .35-.29.55-.3.2-.01.37 0 .55.01.18.01.33.18.32.34.34.04.76.55.34.98-.06-.24-.3-.57-.73-.33.17.38.02.76-.48.9.16-.25.18-.58-.11-.58s-.05.19-.6.19c-.55 0-.49.03-.72-.29-.23-.31-.38-.44-.51-.39-.12.04-.18.36.03.48-1.17 0-.69-1.2-1.29-1.5.03.38.04.67-.01.85-.44-.33-.7-.8-.78-1.09-.08-.29-.02-.56-.3-.7-.09-.05-.2-.14-.17-.29.02-.12.09-.09.3-.18.25-.11.56-.36.56-.96 0-.47-.09-1.11-.87-1.56.06.99.05 1.83-.41 2.59-.58.98-1.56 1.57-2.11 1.81-.56.24-1.34.42-1.34 1.15 0 1.36.6 2.16 1.22 2.16.39 0 .3-.44.87-.44.25 0 .52.1.58.28.32-.05.65.12.65.41s-.13.47-.37.51c.18-.38-.28-.48-.42-.39-.14.09.04.23.04.45 0 .23-.07.44-.48.55.09-.14.09-.34-.16-.34s-.34.41-.65.41c-.51 0-.65-.22-1.13-.12-.35.07-.34.27-.21.36-.7.05-.56-.71-.4-.87.15-.15.25-.25.04-.39s-.54 0-.61.34c-.53-1.02.21-.97-.03-2.11-.12.48-.42.85-.64.96.09-.26-.14-.73-.14-1.12 0-.87.54-1.15.54-1.43 0-.18-.21-.38.01-.56.12-.1.37.1.52.1.7 0 1.2-.89 1.31-1.88.13-1.18.59-1.98 1.09-2.88.02-.14.05-.28.08-.42-.49.61-.91 1.53-1.58 2.07.08.75-1.39 1.62-2.24.96.28.02.8-.11.96-.53-.13-.01-.24-.03-.36-.07-.52.29-1.33-.07-1.31-.64.21.24.46.29.7.19-.18-.24-.29-.55-.29-.93 0-2.21 3.45-3.73 3.45-5.53 0-.58-.36-.87-.75-.87-.22 0-.45.06-.69.22.16.15.28.34.28.57 0 2.03-3.28 1.83-3.57 3.17-.16-1.71 1.9-1.33 2.08-2.76-.43.61-1.16 1.08-1.58.84 1.07.02.74-2.17 1.97-2.17.12 0 .27.03.41.09.33-.27.73-.44 1.06-.44.49 0 1.27.37 1.27 1.32 0 2.15-3.47 3.53-3.47 5.55 0 .67.4 1 .94 1 1.21 0 1.99-2.16 3.31-3.93.82-1.19 1.38-3.56 1.93-4.67-.64.45-.73 1.69-1.5 1.77.41-.35.12-1.41.38-2.19.1-.29.14-.56.06-.85-.47.5-.27 2.17-1.03 2.38.27-.34-.03-.89-.03-1.4 0-.95.5-1.11.54-1.99-.46.17-.3 1.43-1.21 1.4.64-.63-.02-1.3.71-2.03-.44-.19-.73-.53-.73-.88.28-.22.62-.3.92-.33-.14-.21.05-.42.24-.59.07.08.16.26.27.18.18-.12.8-.51 1.35-.72.55-.21 1.25-.4 1.46-.44.13-.03.08-.2.06-.32.26-.02.56 0 .59.28.23-.19.54-.28.85-.3.18.38.22.69.05 1.2.44.03.69.41 1.1.32-.35.48-.78.28-1.19.23 1.19.36 1.41 1.53 2.06 1.6-.7.55-1.17-.42-1.77-.41 1.58.79 1.59 1.74 2.03 1.75-.49.44-.86-.13-1.5-.29 1.25.82 1.34 1.49 1.23 2.04.27.25.24.57.26.97.21-.14.57-.19.8-.26-.08.09-.17.17-.25.27-.63.71-1.08 1.39-1.44 2.3-.27-.26-.56-.54-.7-.67-.25-.24-.49-.18-.6-.17.41.46 1.76 1.9 2.15 2.35.4.46.36.79.41 1.14.07.32.52.6.43.84zm22.38 5.55c0 .4.33.72.73.72.4 0 .72-.32.72-.72 0-.4-.32-.72-.72-.72-.4 0-.73.32-.73.72zm-.25 0a.98.98 0 0 1 1.96 0 .98.98 0 0 1-1.96 0zm-3.2 1.76c.28.05.54-.08.57-.28v-.05c0-.18-.19-.37-.44-.41-.16-.03-.32 0-.43.08-.05.04-.12.1-.14.2-.04.2.16.41.44.46zm-.44-.87c.17-.12.4-.16.62-.12.41.08.7.41.64.75-.03.17-.14.31-.31.4-.16.08-.35.11-.55.08a.897.897 0 0 1-.49-.26.571.571 0 0 1-.15-.49c.02-.14.11-.27.24-.36zm-5.43-13.06c0 .06.02.12.05.16.11.14.36.13.55-.02a.57.57 0 0 0 .21-.33c.01-.05 0-.13-.05-.2s-.13-.09-.18-.1a.521.521 0 0 0-.37.11c-.14.11-.21.26-.21.38zm.05-.56c.17-.13.37-.19.56-.16.14.02.27.09.35.19.08.1.12.24.1.39-.02.18-.13.36-.3.49-.3.23-.71.22-.9-.03-.2-.25-.11-.65.19-.88zm4.61 13.11c.1 0 .17-.05.22-.09.1-.1.16-.25.16-.41.01-.28-.16-.51-.36-.52-.1 0-.18.05-.22.1a.55.55 0 0 0-.16.41c0 .16.05.32.15.42.03.04.11.09.21.09zm-.38-1.1c.11-.11.26-.17.4-.17.17.01.33.09.45.24.11.14.17.33.16.53-.01.23-.09.44-.24.58-.11.11-.26.17-.4.16-.15 0-.29-.07-.39-.18a.81.81 0 0 1-.22-.57v-.02c.01-.22.09-.43.24-.57zm-4.58-6.9c.15.07.31.08.44.04a.32.32 0 0 0 .18-.15c.04-.09.03-.18.01-.24a.603.603 0 0 0-.31-.32.623.623 0 0 0-.44-.04c-.06.02-.14.06-.18.16-.09.18.04.43.3.55zm-.2-.95c.2-.07.42-.05.63.05.21.1.37.27.43.46.05.15.05.3-.02.43-.06.13-.18.23-.33.28-.19.07-.42.05-.63-.05-.38-.18-.56-.58-.42-.89.08-.12.2-.23.34-.28zm7.08 4.42c.16-.22.15-.51-.03-.63s-.45-.05-.61.18c-.16.22-.15.51.03.63.18.13.45.05.61-.18zm-1.15 1.81c.16-.22.14-.51-.03-.63-.18-.12-.45-.04-.61.18-.16.22-.15.51.03.63.18.13.45.05.61-.18zm.1-7.57c.3-.33.9-.97.9-.97l-.37-.3c.02.14-.01.33-.05.51a.485.485 0 0 1-.18-.36l-.3.37c.08 0 .28.03.37.12-.27.26-.49.13-.65.03-.26-.16-.36-.3-.29-.43.09-.15.36-.1.4.14.21-.1.26-.27.18-.4-.06-.11-.21-.14-.35-.09.34-.18.5-.47.42-.82-.38.07-.54.29-.63.66-.02-.15-.11-.29-.24-.3-.15-.01-.29.11-.28.34.23-.08.39.15.29.3-.09.15-.28.12-.53-.03-.28-.17-.32-.41-.18-.67.08.07.14.22.13.4l.33-.53c-.08.03-.22.05-.37 0 .08-.1.24-.26.45-.28l-.64-.37c.09.19.03.41-.02.53a.651.651 0 0 1-.19-.32l-.3.55c.15-.1.32-.12.42-.08-.16.25-.39.34-.68.18-.25-.14-.37-.28-.29-.44.08-.15.36-.14.41.11.21-.11.24-.28.15-.41-.07-.1-.23-.11-.38-.05.28-.26.38-.51.25-.88-.35.11-.52.4-.5.78-.03-.15-.13-.26-.25-.26-.15 0-.28.12-.26.35.23-.1.41.12.32.27-.08.12-.25.1-.52-.04-.16-.08-.39-.22-.3-.57.13.03.25.19.29.26l.18-.44c-.12.08-.3.07-.4.03.14-.13.29-.25.42-.3l-.41-.17-.39 1.26 4.04 2.32zm.73 3.07c-.01.14.06.29.17.41.11.12.26.19.4.19.06 0 .15-.01.23-.08.07-.07.09-.16.09-.22a.62.62 0 0 0-.17-.41.56.56 0 0 0-.4-.19c-.06 0-.16.01-.23.08s-.09.16-.09.22zm1.75 8c-.01.06-.02.15.04.24.11.17.4.19.64.03.14-.09.23-.22.26-.36.01-.06.02-.15-.04-.24a.324.324 0 0 0-.21-.13.577.577 0 0 0-.43.1c-.13.1-.23.23-.26.36zm-8.32-12.05a.45.45 0 0 0-.11-.35c-.04-.04-.1-.09-.18-.09-.08-.01-.15.04-.19.07a.49.49 0 0 0-.15.34v.03c0 .22.13.41.29.42.08 0 .15-.04.18-.07.1-.08.15-.21.16-.35zm2.58-5.26c.33-.19.74-.29 1.2-.33-.28-.09-.49-.32-.73-.32-.47 0-.34.39-.47.65zm7.49 6.58c.08 1.67 2.18 1.29 1.86 2.53-.04-.82-2.85-.74-2.93-2.45-.02-.35.09-.64.27-.83a.711.711 0 0 0-.45-.14c-.49 0-1.2.52-1.2 1.32 0 2.17 2.91 2.45 2.91 4.84 0 .49-.19.94-.55 1.22.25.03.59-.11.76-.31-.25.92-1.2.95-1.5.58h-.13c-.08 0-.16-.01-.23-.02.19.38.48.75.9.69-.86.68-1.9-.24-1.74-1.18-.26-.28-.42-.63-.54-.88-.09-.21-.24-.09-.23.14.03.75-.56 1.45-.56 2s.56 1.06.75 1.06c.19 0 .33-.22.46-.16s.12.23.09.62c-.02.26.03.91.07 1.6.05-.18.18-.35.36-.47.19-.12.42-.17.62-.13.15.03.28.12.36.24.06.09.09.19.09.3 0 .04-.01.08-.01.12-.04.2-.17.39-.37.51-.17.11-.36.16-.54.14-.19-.02-.35-.1-.44-.25a.3.3 0 0 1-.04-.08c.01.21.02.42.02.61.01.5-.13.72-.35.83-.02-.07-.16-.23-.36-.23-.15 0-.27.11-.27.22 0 .23.27.2.27.55 0 .34-.8.79-1.29.71.07-.17.18-.73.34-1.11-.15.08-.29.33-.41.67-.14.42-.33.4-.51.29.16-.18.53-1.04.93-1.31.39-.27.58-.37.68-1.02.1-.65-.01-1.04-.03-1.61-.02-.76-.33-.59-.56-.59-.52 0-2.44-1.24-2.44-2.5 0-.12.01-.25.03-.39-.88 0-1.37.25-1.37 1.06 0 .28.03.55.23.71.18.15.27.28-.04.42-.34.15-3.03 1.26-3.03 1.26-.34.13-.39-.01-.53-.18-.14-.16-.29-.24-.47-.13-.18.12.13.25.13.43 0 .19-.08.64-1.32.56l.29-.49c.08-.16.13-.28.06-.29-.07-.01-.14.12-.25.27l-.36.46c-.2.01-.4-.04-.4-.04.47-.47.73-.71.99-.97s.57-.38 1.11-.46c.64-.09 2.74-.37 2.74-1.06 0-.78-.88-.72-.88-1.76 0-.92.39-1.89 2.9-1.84-.22-.59-.85-1.03-1.46-1.18-1.25-.31-1.62-1.16-1.72-2.06-.35-.02-.69-.03-.96-.05-.78-.05-1.16-.28-1.35-.13-.08.06-.15.17-.03.35.11.19.36.64.58.96.15.02.4.05.43.24.03.19-.12.23-.15.33-.03.09.04.18.14.18s.16-.09.14-.16c.11-.08.36-.08.62-.01.19.21.52.58.61.92-.3-.12-.73-.27-.88-.27-.15 0-.12.06.01.1.13.05.47.17.57.28l-.02.35c-.07-.08-.68-.43-1.03-.57-.36-.14-.57-.22-.76-.67-.19-.45-.74-1.45-.97-1.83-.16-.26-.1-.36-.03-.45.07-.09.15-.19.2-.28.15-.23.19-.18.41-.16.22.02.71.04.93-.06.05-.02.11-.04.16-.06-.51-.56-1.13-1.37-1.2-1.47-.1-.14-.23-.22-.33-.22s-.2.02-.28.08c-.04.03-.08.06-.13.1l-.14-.17c-.09-.1-.18-.2-.28-.29.2-.15.37-.29.43-.34.13-.11.19-.2.31-.2.11 0 .27.01.34.01.17 0 .25.05.33.14.19.21.5.43.75.63.03.02.05.04.08.06.02-.03.04-.05.07-.07.11-.1.24-.14.37-.14.13.01.26.07.35.17.12.14.18.33.17.54-.01.07-.02.14-.04.21.2.16.37.32.56.5.08-.69.44-1.36.9-1.96l-.07-.04.04-.12c.1-.31.27-.85.35-1.11.03-.1.04-.13.04-.14l.05-.17.76.29.07-.07c.67-.63 2.29-1.06 2.29-1.98 0-.22-.07-.51-.31-.69.11.15.12.34.09.54-.04.24-.4.77-1.05.77-.35 0-.6-.34-.72-.34-.08 0-.18.06-.27.14.03.47-.18.73-.37.77.08-.2.01-.53-.05-.49-.06.04-.13.1-.14.38-.01.27-.25.63-.62.67.08-.11.19-.56.12-.63-.08-.07-.2.13-.3.13-.1 0-.17-.09-.19-.2-.01-.1-.2 0-.24-.09-.04-.09.22-.27.46-.37.24-.09.59-.25.53-.38-.11-.24-.81.14-1.12.33-.47.28-.26-.1-.33-.26-.18-.41-.02-.45.18-.64.27-.24.8-.61 1.41-.91 0-.2.12-.36.28-.42.25-.09.5-.2.74-.28l-3.28-4.09c-.07-.08-.07-.14-.04-.18.03-.04.09-.01.2.09l3.81 3.73c.09-.25.17-.56.08-.9.46.22.87.68.94 1.12 1.17-.02 1.49.71 1.84.46.05.18-.15.37-.48.43 1.35.35 1 1.33 1.77 1.43-.12.14-.3.19-.58.1.84 1.24 0 2.03.65 2.6-.25.07-.59-.13-.83-.53.25 1.02-.13 1.58.06 1.99-.29.08-.49-.17-.59-.58-.06.22-.13.43-.21.61l.31.25-.12.13-.03.03c-.51.54-.75.81-.87.93l-.09.1s-.1-.06-.11-.06c-.33.41-.6.75-.6 1.14 0 .44.59 1.24 1.22 2.06a.751.751 0 0 1-.05-.26v-.02c.01-.15.07-.3.17-.39.1-.1.25-.15.41-.15.21.01.41.1.57.27.15.16.24.37.24.56V16c-.01.16-.07.3-.17.39-.11.1-.25.15-.41.15-.15 0-.3-.06-.43-.15.45.58.88 1.14 1.07 1.55.41.86.81 1.41 1.3 1.41.55 0 1.04-.4 1.04-1.05 0-2.21-2.93-2.44-2.93-4.94 0-1.16 1.01-1.73 1.6-1.73.4 0 .67.1.9.35.07-.01.14-.02.22-.02 1.39 0 .51 1.83 1.59 1.96-.44.25-1.07-.06-1.39-.93zM13.31 48.36h5.16c2.05 0 2.43 1.3 2.65 2.85.31 1.55-.02 3.25.58 3.9h2.36c-.89-1.08-.8-2.81-.93-4.36-.16-1.55-.53-2.9-2.38-3.25v-.04c1.91-.53 2.76-2.1 2.76-4.01 0-2.52-1.85-4.14-4.83-4.14H11.2v15.8h2.11v-6.75zm0-7.29h5.25c1.98 0 2.83 1.15 2.83 2.7 0 2.3-1.69 2.81-3.67 2.81h-4.4v-5.51zm38.3 12.53c0 1.24.62 1.77 1.6 1.77.6 0 1.02-.11 1.36-.31V53.6c-.24.09-.42.11-.58.11-.6 0-.6-.4-.6-1.28v-5.89c0-2.68-2.25-3.14-4.31-3.14-2.56 0-4.76 1-4.87 3.83h1.89c.09-1.68 1.27-2.17 2.87-2.17 1.2 0 2.56.27 2.56 1.9 0 1.42-1.78 1.28-3.87 1.68-1.96.38-3.89.93-3.89 3.52 0 2.28 1.71 3.21 3.8 3.21 1.59 0 2.99-.55 4.04-1.77zm-3.63.11c-1.16 0-2.22-.44-2.22-1.68 0-1.39 1.07-1.84 2.31-2.06 1.27-.22 2.69-.24 3.43-.77v1.93c0 1.03-1.03 2.58-3.52 2.58zm20.98-5.07h4.85c3.16.02 4.87-1.75 4.87-4.67s-1.71-4.67-4.87-4.67h-6.96v15.8h2.11v-6.46zm0-7.57h4.14c2.38 0 3.47 1.02 3.47 2.9s-1.09 2.92-3.47 2.9h-4.14v-5.8zm20.08 11.36v-5.89c0-2.68-2.25-3.14-4.32-3.14-2.56 0-4.76 1-4.87 3.83h1.89c.09-1.68 1.27-2.17 2.87-2.17 1.2 0 2.56.27 2.56 1.9 0 1.42-1.78 1.28-3.87 1.68-1.96.38-3.89.93-3.89 3.52 0 2.28 1.71 3.21 3.8 3.21 1.6 0 3-.55 4.05-1.77 0 1.24.62 1.77 1.6 1.77.6 0 1.02-.11 1.36-.31V53.6c-.25.09-.42.11-.58.11-.6 0-.6-.4-.6-1.28zm-1.89-1.31c0 1.04-1.02 2.59-3.51 2.59-1.16 0-2.22-.44-2.22-1.68 0-1.39 1.07-1.84 2.31-2.06 1.27-.22 2.69-.24 3.43-.77v1.92zm37.83-7.72c-3.14 0-5.41 2.52-5.41 5.95.11 3.5 1.85 6.02 5.52 6.02 2.58 0 4.4-1.37 4.92-3.9h-1.87c-.33 1.48-1.42 2.24-2.98 2.24-2.51 0-3.65-1.77-3.58-3.76h8.61c.11-2.77-1.14-6.55-5.21-6.55zm-3.4 4.89c.13-1.75 1.31-3.23 3.29-3.23 1.87 0 3.23 1.44 3.32 3.23h-6.61zM15.51 62.55L9.3 78.35h2.18l1.78-4.76h6.72l1.74 4.76h2.34l-6.21-15.8h-2.34zm-1.58 9.27l2.69-7.37h.04l2.65 7.37h-5.38zm18.86-3.27h-.02c-.69-1.26-1.98-1.9-3.43-1.9-3.98 0-5.32 3.34-5.32 6.04 0 3.12 1.71 5.8 5.14 5.8 1.45 0 2.96-.69 3.58-2.08h.04v.75c0 2.57-.98 4.34-3.45 4.34-1.25 0-2.89-.49-2.98-1.86h-1.89c.11 2.5 2.6 3.36 4.76 3.36 3.63 0 5.34-1.9 5.34-5.62V66.91h-1.78v1.64zm-3.51 8.28c-2.49 0-3.25-2.3-3.25-4.36 0-2.19.98-4.16 3.4-4.16 2.38 0 3.27 2.08 3.27 4.09 0 2.15-.93 4.43-3.42 4.43zm12.4-10.18c-3.14 0-5.4 2.52-5.4 5.95.11 3.5 1.85 6.02 5.52 6.02 2.58 0 4.4-1.37 4.92-3.9h-1.87c-.33 1.48-1.42 2.24-2.98 2.24-2.51 0-3.65-1.77-3.58-3.76h8.61c.09-2.77-1.15-6.55-5.22-6.55zm-3.41 4.89c.13-1.75 1.31-3.23 3.29-3.23 1.87 0 3.23 1.44 3.32 3.23h-6.61zm5.14-28.14v1.99c-3.05 0-4.16 1.73-4.16 4.63v5.09h-1.89V43.66h1.78v2.41h.04c.92-1.83 2.19-2.74 4.23-2.67zM54 66.65c-1.65 0-2.94.66-3.74 2.08h-.04v-1.81h-1.78v11.44h1.89V71.9c0-2.06 1.11-3.58 3.4-3.58 1.45 0 2.34.91 2.34 2.3v7.75h1.89v-7.52c0-2.48-.94-4.2-3.96-4.2zm11.02 10.31c-2.4 0-3.36-2.08-3.36-4.18 0-2.32.85-4.47 3.58-4.47 1.56 0 2.56.84 2.85 2.28h1.96c-.27-2.72-2.36-3.94-4.96-3.94-3.65 0-5.43 2.7-5.43 6.13 0 3.41 1.87 5.84 5.38 5.84 2.89 0 4.65-1.66 5.07-4.45h-1.94c-.24 1.73-1.33 2.79-3.15 2.79zm90.22-28.45c-1.76-.42-3.76-.64-3.76-1.99 0-1.15 1.31-1.46 2.45-1.46 1.25 0 2.54.47 2.67 1.93h1.89c-.16-2.79-2.18-3.59-4.72-3.59-2 0-4.29.95-4.29 3.25 0 2.19 1.89 2.81 3.76 3.23 1.89.42 3.76.66 3.76 2.12 0 1.44-1.6 1.7-2.78 1.7-1.56 0-3.03-.53-3.09-2.21h-1.89c.11 2.83 2.29 3.87 4.87 3.87 2.33 0 4.89-.89 4.89-3.61 0-2.2-1.87-2.82-3.76-3.24zm-99.27 6.6h1.89V39.3h-1.89v15.81zm-22.76-4.99c0 2.06-1.11 3.59-3.4 3.59-1.45 0-2.34-.91-2.34-2.3v-7.74h-1.89v7.52c0 2.46.93 4.18 3.96 4.18 1.65 0 2.94-.66 3.74-2.08h.04v1.81h1.78V43.66h-1.89v6.46zM137.3 43.4c-1.65 0-2.94.66-3.74 2.08h-.04v-1.81h-1.78v11.44h1.89v-6.46c0-2.06 1.11-3.58 3.4-3.58 1.45 0 2.34.91 2.34 2.3v7.75h1.89V47.6c0-2.48-.93-4.2-3.96-4.2zM75.83 76.27h-.04l-3.36-9.36H70.3l4.56 11.37-.78 1.95c-.36.66-.78 1.04-1.56 1.04-.38 0-.76-.16-1.11-.27v1.73c.42.15.87.2 1.31.2 1.69 0 2.47-.82 3.34-3.05l5.01-12.97h-2l-3.24 9.36zm70.29-36.04h-1.89v3.43h-1.96v1.66h1.96v7.28c0 2.1.78 2.5 2.74 2.5h1.44v-1.66h-.87c-1.18 0-1.42-.15-1.42-1.02v-7.1h2.29v-1.66h-2.29v-3.43zM95.4 53.02h-.04L92 43.66h-2.14l4.56 11.37-.78 1.95c-.36.66-.78 1.04-1.56 1.04-.38 0-.76-.16-1.11-.27v1.73c.42.15.87.2 1.31.2 1.69 0 2.47-.82 3.34-3.05l5.01-12.97h-2l-3.23 9.36zm18.66-9.62c-1.47 0-2.82.73-3.6 1.95-.47-1.39-1.76-1.95-3.16-1.95-1.58 0-2.87.66-3.72 1.95h-.04v-1.68h-1.78v11.44h1.89v-7.13c0-.86.82-2.92 3.07-2.92 1.69 0 2.16 1.06 2.16 2.54v7.5h1.89v-7.13c0-1.77 1.18-2.92 3-2.92 1.85 0 2.23 1.13 2.23 2.54v7.5h1.89V46.7c0-2.35-1.53-3.3-3.83-3.3zM0 78.26h1.87V0H0v78.26z"/></svg>