<svg xmlns="http://www.w3.org/2000/svg" width="51" height="74"><path fill="#0b0c0c" d="M24.75 54.18c.03-.09.04-.18-.01-.23-.03-.04-.09-.04-.15 0-.1.06-.23.22-.31.44-.01.04-.03.07-.04.1-.1.31-.1.55-.1.55s.23-.23.37-.42l.06-.09c.07-.11.14-.24.18-.35zm-1.28-1.51c-.16.12-.59.5-.34 1.1.29.69.95.73 1.12.72.01-.03.02-.07.04-.1.08-.23.21-.38.31-.44-.03-.21-.08-.47-.14-.64-.08-.21-.27-.48-.38-.63-.11.05-.3.07-.61-.01zm1.98-.96c-.07-.1-.12-.32-.14-.64v-.06c-.18-.14-.81-.58-1.42-.09-.62.51-.4 1.16-.29 1.38.12.02.4.07.51.16.14-.11.38-.3.6-.43.24-.14.55-.25.74-.32zm-1.9.59c-.4-.06-.67.04-.67.04s.09.19.58.33h.01c.31.09.5.07.6.01.07-.04.1-.09.09-.14 0-.03-.02-.05-.05-.07-.11-.09-.39-.14-.51-.16-.03-.01-.05-.01-.05-.01zm2.08-1.45c.01.04.02.09.02.15 0-.06-.01-.1-.02-.15zm.89 2.94c-.23-.01-.58 0-.86.06-.32.07-.72.24-.91.33-.04.12-.11.25-.17.35l-.06.09c.1.13.54.6 1.27.51.84-.11 1.05-.68 1.09-.83l-.06-.06c-.13-.16-.24-.32-.3-.45zm.98-1.58c-.08.04-.16.08-.22.1-.22.09-.41.16-.53.17-.05.13-.1.32-.11.53-.01.21.02.44.05.59.1.08.22.21.36.39.01.02.02.03.04.05.03.05.06.09.08.13.25.01.8-.06.92-.84.14-.89-.46-1.09-.59-1.12zm-.09-.21c.02-.11.18-.96-.58-1.35-.54-.27-.98.01-1.2.21.01.04.02.09.02.15.03.27.02.52-.02.66.06.05.29.22.55.34.23.11.51.19.59.21.11-.06.26-.11.41-.16.07-.03.15-.05.23-.06zm-1.76-1c-.01-.06-.01-.1-.02-.15-.06-.29-.2-.33-.2-.33s-.14.08-.12.48v.06c.02.32.07.55.14.64.03.04.06.06.09.05.04 0 .06-.05.08-.11v-.01c.06-.11.07-.36.03-.63zm1.85 1.21c.19-.1.4-.23.39-.25-.01-.01-.24-.01-.49.04-.08.02-.16.03-.23.06-.15.05-.3.1-.41.16-.11.06-.17.12-.15.2.02.05.07.07.14.07.12-.01.31-.08.53-.17l.22-.11zm-.44 1.77c-.14-.18-.26-.31-.36-.39-.04-.03-.08-.05-.11-.07-.05-.02-.08-.02-.11.01-.02.03-.02.07-.01.13.01.04.02.08.05.12.06.13.17.29.3.44.02.02.04.05.06.06.01.02.03.03.04.04.2.18.38.19.38.19s0-.15-.12-.36a.913.913 0 0 0-.08-.13l-.04-.04zm-1.03-1.31c.07.26-.15.55-.48.63-.34.09-.66-.05-.73-.32-.07-.26.15-.55.48-.63.34-.09.67.06.73.32zm16.66 1.51c.03-.09.04-.18-.01-.23-.03-.04-.08-.04-.15 0-.1.06-.23.22-.31.44-.01.04-.03.07-.04.1-.1.31-.1.55-.1.55s.23-.23.37-.42l.06-.09c.07-.11.14-.24.18-.35zm-1.28-1.51c-.16.12-.59.5-.34 1.1.29.69.95.73 1.12.72.01-.03.02-.07.04-.1.08-.23.21-.38.31-.44-.03-.21-.08-.47-.14-.64-.08-.21-.27-.48-.38-.63-.11.05-.3.07-.61-.01zm1.98-.96c-.07-.1-.12-.32-.14-.64v-.06c-.18-.14-.81-.58-1.42-.09-.62.51-.4 1.16-.29 1.38.12.02.4.07.51.16.14-.11.38-.3.6-.43.24-.14.55-.25.74-.32zm-1.9.59c-.4-.06-.67.04-.67.04s.09.19.58.33h.01c.31.09.5.07.6.01.07-.04.1-.09.09-.14 0-.03-.02-.05-.05-.07-.11-.09-.39-.14-.51-.16-.03-.01-.05-.01-.05-.01zm2.08-1.45c.01.04.02.09.02.15 0-.06-.01-.1-.02-.15zm.89 2.94c-.23-.01-.58 0-.86.06-.32.07-.72.24-.91.33-.04.12-.11.25-.17.35l-.06.09c.1.13.54.6 1.27.51.84-.11 1.05-.68 1.09-.83l-.06-.06c-.13-.16-.24-.32-.3-.45zm.98-1.58c-.08.04-.16.08-.22.1-.22.09-.41.16-.53.17-.05.13-.1.32-.11.53-.01.21.02.44.05.59.1.08.22.21.36.39.02.02.03.03.04.05.03.05.06.09.08.13.25.01.8-.06.92-.84.14-.89-.46-1.09-.59-1.12zm-.09-.21c.02-.11.18-.96-.58-1.35-.54-.27-.98.01-1.2.21.01.04.02.09.02.15.03.27.02.52-.02.66.06.05.29.22.55.34.23.11.51.19.59.21.11-.06.26-.11.41-.16.07-.03.15-.05.23-.06zm-1.76-1c-.01-.06-.01-.1-.02-.15-.06-.29-.2-.33-.2-.33s-.14.08-.12.48v.06c.02.32.07.55.14.64.03.04.06.06.1.05.04 0 .06-.05.08-.11v-.01c.05-.11.06-.36.02-.63zm1.85 1.21c.19-.1.4-.23.39-.25-.01-.01-.24-.01-.49.04-.08.02-.16.03-.23.06-.15.05-.3.1-.41.16-.11.06-.17.12-.15.2.02.05.07.07.14.07.12-.01.31-.08.53-.17l.22-.11zM45 53.98c-.14-.18-.26-.31-.36-.39-.04-.03-.08-.05-.11-.07-.05-.02-.08-.02-.11.01-.02.03-.02.07-.01.13.01.04.03.08.05.12.06.13.17.29.3.44.02.02.04.05.06.06.01.02.03.03.04.04.2.18.38.19.38.19s0-.15-.12-.36a.913.913 0 0 0-.08-.13l-.04-.04zm-1.03-1.31c.07.26-.15.55-.48.63-.34.09-.66-.05-.73-.32-.07-.26.15-.55.48-.63.34-.09.67.06.73.32zm-37.3 1.51c.03-.1.04-.18-.01-.24-.03-.04-.09-.04-.15 0-.1.06-.23.22-.31.44-.01.04-.03.07-.04.1-.1.31-.1.55-.1.55s.23-.23.37-.42l.06-.09c.07-.1.15-.23.18-.34zm-1.28-1.51c-.16.12-.59.5-.34 1.1.29.69.95.73 1.12.72.01-.03.02-.07.04-.1.08-.23.21-.38.31-.44-.03-.21-.08-.47-.14-.64-.09-.22-.28-.49-.38-.63-.11.05-.3.07-.61-.01zm1.99-.96c-.07-.1-.12-.32-.14-.64v-.06c-.18-.14-.81-.58-1.42-.09-.62.51-.4 1.16-.29 1.38.12.02.4.07.51.16.14-.11.38-.3.6-.43.23-.14.54-.25.74-.32zm-1.91.59c-.4-.06-.67.04-.67.04s.09.19.58.33h.01c.31.09.5.07.6.01.07-.04.1-.09.09-.14 0-.03-.02-.05-.05-.07-.11-.09-.39-.14-.51-.16-.02-.01-.04-.01-.05-.01zm2.09-1.45c.01.05.01.09.02.15-.01-.06-.01-.1-.02-.15zm.88 2.94c-.23-.01-.58 0-.86.06-.32.07-.72.24-.91.33-.04.12-.11.25-.17.35l-.06.09c.1.13.54.6 1.27.51.84-.11 1.05-.68 1.09-.83l-.06-.06c-.13-.16-.24-.32-.3-.45zm.99-1.58c-.08.04-.16.08-.22.1-.22.09-.41.16-.53.17-.05.13-.1.32-.11.53-.01.21.02.44.05.59.1.08.22.21.36.39.02.01.03.02.04.04.03.05.06.09.08.13.25.01.8-.06.92-.84.14-.88-.47-1.08-.59-1.11zm-.1-.21c.02-.11.18-.96-.58-1.35-.54-.27-.98.01-1.2.21.02.04.02.08.03.14.03.27.02.52-.02.66.06.04.29.22.55.34.23.11.51.19.59.21.11-.06.26-.11.41-.16.07-.02.15-.04.22-.05zm-1.75-1c-.01-.06-.01-.1-.02-.15-.06-.29-.2-.33-.2-.33s-.14.08-.12.48v.06c.02.32.07.55.14.64.03.04.06.06.1.05.04 0 .06-.05.08-.11v-.01c.04-.11.05-.36.02-.63zm1.85 1.21c.19-.1.4-.23.39-.25 0-.02-.24-.01-.49.04-.08.02-.16.03-.23.06-.15.05-.3.1-.41.16-.11.06-.17.12-.15.2.02.05.07.07.14.07.12-.01.31-.08.53-.17l.22-.11zm-.44 1.77c-.14-.18-.26-.31-.36-.39-.04-.03-.08-.05-.11-.07-.05-.02-.08-.02-.11.01-.02.03-.02.07-.01.13.01.04.02.08.05.12.06.13.17.29.3.44.02.02.04.05.06.06.01.02.03.03.04.04.2.18.38.19.38.19s0-.15-.12-.36a.913.913 0 0 0-.08-.13.078.078 0 0 1-.04-.04zm-1.03-1.31c.07.26-.15.55-.48.63-.33.09-.66-.05-.73-.32-.07-.26.15-.55.48-.63.33-.09.66.06.73.32zm16.79-15.25c.03-.09.04-.18-.01-.23-.03-.04-.09-.04-.15 0-.1.06-.23.22-.31.44-.01.04-.03.07-.04.1-.1.31-.1.54-.1.54s.23-.23.37-.42l.06-.09c.07-.1.14-.22.18-.34zm-1.28-1.51c-.16.12-.59.5-.34 1.1.29.69.95.73 1.12.72.01-.03.02-.07.04-.1.08-.23.21-.38.31-.44-.03-.21-.08-.47-.14-.64-.08-.21-.27-.48-.38-.63-.11.05-.3.08-.61-.01zm1.98-.95c-.07-.1-.12-.32-.14-.64v-.06c-.18-.14-.81-.58-1.42-.09-.62.51-.4 1.16-.29 1.38.12.02.4.07.51.16.14-.11.38-.3.6-.43.24-.15.55-.26.74-.32zm-1.9.58c-.4-.06-.67.04-.67.04s.09.19.58.33h.01c.31.09.5.06.6.01.07-.04.1-.09.09-.14 0-.03-.02-.05-.05-.07-.11-.09-.39-.14-.51-.16-.03-.01-.05-.01-.05-.01zm2.08-1.45zm.89 2.94c-.23-.01-.58 0-.86.06-.32.07-.72.24-.91.33-.04.12-.11.25-.17.35l-.06.09c.1.13.54.6 1.27.51.84-.11 1.05-.68 1.09-.83l-.06-.06c-.13-.16-.24-.32-.3-.45zm.98-1.58c-.08.04-.16.08-.22.1-.22.09-.41.16-.53.17-.05.13-.1.32-.11.53-.01.21.02.44.05.59.1.08.22.21.36.39.01.02.02.03.04.05.03.05.06.09.08.14.25.01.8-.06.92-.84.14-.9-.46-1.1-.59-1.13zm-.09-.21c.02-.1.18-.96-.58-1.35-.54-.27-.98.01-1.2.21.01.04.02.09.02.15.03.27.02.52-.02.66.06.05.29.22.55.34.23.11.51.19.59.21.11-.06.26-.11.41-.16.07-.03.15-.05.23-.06zm-1.76-1c-.01-.06-.01-.1-.02-.15-.06-.29-.2-.33-.2-.33s-.14.08-.12.48v.06c.02.32.07.55.14.64.03.04.06.06.09.05.04 0 .06-.05.08-.1v-.01c.06-.12.07-.37.03-.64zm1.85 1.21c.19-.1.4-.23.39-.25-.01-.01-.24-.01-.49.04-.08.02-.16.03-.23.06-.15.05-.3.1-.41.16-.11.06-.17.12-.15.2.02.06.07.07.14.07.12-.01.31-.08.53-.17l.22-.11zm-.44 1.77c-.14-.18-.26-.31-.36-.39-.04-.03-.08-.05-.11-.07-.05-.02-.08-.02-.11.01-.02.03-.02.07-.01.13.01.04.02.08.05.12.06.13.17.29.3.44l.06.06c.01.02.03.03.04.04.2.18.38.19.38.19s0-.15-.12-.36c-.02-.04-.05-.09-.08-.14-.01.01-.02-.01-.04-.03zm-1.03-1.31c.07.26-.15.55-.48.63-.34.09-.66-.06-.73-.32-.07-.26.15-.55.48-.63.34-.08.67.06.73.32zM6.45 37.42c.03-.09.04-.18-.01-.23-.03-.04-.09-.04-.15 0-.1.06-.23.22-.31.44-.01.04-.03.07-.04.1-.1.31-.1.54-.1.54s.23-.23.37-.42l.06-.09c.07-.1.14-.22.18-.34zm-1.29-1.51c-.16.12-.59.5-.34 1.1.29.69.95.73 1.12.72.01-.03.02-.07.04-.1.08-.23.21-.38.31-.44-.03-.21-.08-.47-.14-.64-.08-.21-.27-.48-.38-.63-.1.05-.29.08-.61-.01zm1.99-.95c-.07-.1-.12-.32-.14-.64v-.06c-.18-.14-.81-.58-1.42-.09-.62.51-.4 1.16-.29 1.38.12.02.4.07.51.16.14-.11.38-.3.6-.43.24-.15.54-.26.74-.32zm-1.91.58c-.4-.06-.67.04-.67.04s.09.19.58.33h.01c.31.09.5.06.6.01.07-.04.1-.09.09-.14 0-.03-.02-.05-.05-.07-.11-.09-.39-.14-.51-.16-.02-.01-.04-.01-.05-.01zm2.09-1.45c.01.04.02.09.02.15 0-.05-.01-.1-.02-.15zm.89 2.94c-.23-.01-.58 0-.86.06-.32.07-.72.24-.91.33-.04.12-.11.25-.17.35l-.06.09c.1.13.54.6 1.27.51.84-.11 1.05-.68 1.09-.83l-.06-.06c-.13-.16-.24-.32-.3-.45zm.98-1.58c-.08.04-.16.08-.22.1-.22.09-.41.16-.53.17-.05.13-.1.32-.11.53-.01.21.02.44.05.59.1.08.22.21.36.39.01.02.02.03.04.05.03.05.06.09.08.14.25.01.8-.06.92-.84.14-.9-.46-1.1-.59-1.13zm-.09-.21c.02-.1.18-.96-.58-1.35-.54-.27-.98.01-1.2.21.01.04.02.09.02.15.03.27.02.52-.02.66.06.05.29.22.55.34.23.11.51.19.59.21.11-.06.26-.11.41-.16.07-.03.15-.05.23-.06zm-1.76-1c-.01-.06-.01-.1-.02-.15-.06-.29-.2-.33-.2-.33s-.13.09-.12.49v.06c.02.32.07.55.14.64.03.04.06.06.1.05.04 0 .06-.05.08-.1v-.01c.05-.13.05-.38.02-.65zm1.85 1.21c.19-.1.4-.23.39-.25-.01-.01-.24-.01-.49.04-.08.02-.16.03-.23.06-.15.05-.3.1-.41.16-.11.06-.17.12-.15.2.02.06.07.07.14.07.12-.01.31-.08.53-.17l.22-.11zm-.44 1.77c-.14-.18-.26-.31-.36-.39-.04-.03-.08-.05-.11-.07-.05-.02-.08-.02-.11.01-.02.03-.02.07-.01.13.01.04.02.08.05.12.06.13.17.29.3.44l.06.06c.01.02.03.03.04.04.2.2.38.21.38.21s0-.15-.12-.36c-.02-.04-.05-.09-.08-.14-.02-.01-.03-.03-.04-.05zm-1.03-1.31c.07.26-.15.55-.48.63-.33.09-.66-.06-.73-.32-.07-.26.15-.54.48-.63.34-.08.66.06.73.32zm35.36 1.51c.03-.09.04-.18-.01-.23-.03-.04-.08-.04-.15 0-.1.06-.23.22-.31.44-.01.04-.03.07-.04.1-.1.31-.1.54-.1.54s.23-.23.37-.42l.06-.09c.07-.1.15-.22.18-.34zm-1.28-1.51c-.16.12-.59.5-.34 1.1.29.69.95.73 1.12.72.01-.03.02-.07.04-.1.08-.23.21-.38.31-.44-.03-.21-.08-.47-.14-.64-.08-.21-.27-.48-.38-.63-.1.05-.3.08-.61-.01zm1.99-.95c-.07-.1-.12-.32-.14-.64v-.06c-.18-.14-.81-.58-1.42-.09-.62.51-.4 1.16-.29 1.38.12.02.4.07.52.16.14-.11.38-.3.6-.43.22-.15.53-.26.73-.32zm-1.91.58c-.4-.06-.67.04-.67.04s.09.19.58.33h.01c.31.09.5.06.6.01.07-.04.1-.09.09-.14 0-.03-.02-.05-.05-.07-.11-.09-.4-.14-.52-.16-.01-.01-.03-.01-.04-.01zm2.09-1.45c.01.04.02.09.02.15-.01-.05-.01-.1-.02-.15zm.88 2.94c-.23-.01-.58 0-.86.06-.32.07-.72.24-.91.33-.04.12-.11.25-.17.35l-.06.09c.1.13.54.6 1.27.51.84-.11 1.05-.68 1.09-.83l-.06-.06c-.13-.16-.23-.32-.3-.45zm.99-1.58c-.08.04-.16.08-.22.1-.22.09-.41.16-.53.17-.05.13-.1.32-.11.53-.01.21.02.44.05.59.1.08.22.21.36.39.01.02.03.03.04.05.03.05.06.09.08.14.25.01.8-.06.92-.84.14-.9-.47-1.1-.59-1.13zm-.1-.21c.02-.1.18-.96-.58-1.35-.53-.27-.98.01-1.2.21.01.04.02.09.02.15.03.27.02.52-.02.66.06.05.29.22.55.34.23.11.51.19.59.21.11-.06.26-.11.41-.16.08-.03.16-.05.23-.06zm-1.75-1c-.01-.06-.01-.1-.02-.15-.06-.29-.2-.33-.2-.33s-.14.08-.12.48v.06c.02.32.07.55.14.64.03.04.06.06.1.05.04 0 .06-.05.08-.1v-.01c.04-.12.05-.37.02-.64zm1.85 1.21c.19-.1.4-.23.39-.25-.01-.01-.24-.01-.49.04-.08.02-.16.03-.23.06-.15.05-.3.1-.41.16-.11.06-.18.12-.15.2.02.06.07.07.14.07.12-.01.31-.08.53-.17l.22-.11zm-.44 1.77c-.14-.18-.26-.31-.36-.39-.04-.03-.08-.05-.11-.07-.05-.02-.08-.02-.11.01-.02.03-.02.07-.01.13.01.04.02.08.05.12.06.13.17.29.3.44l.06.06c.01.02.03.03.04.04.2.18.38.19.38.19s0-.15-.12-.36c-.02-.04-.05-.09-.08-.14-.02.01-.03-.01-.04-.03zm-1.03-1.31c.07.26-.15.55-.48.63-.34.09-.66-.06-.73-.32-.07-.26.15-.55.48-.63.34-.08.66.06.73.32zM24.75 20.66c.03-.09.04-.18-.01-.24-.03-.04-.09-.04-.15 0-.1.06-.23.22-.31.44-.01.04-.03.07-.04.11-.1.31-.1.55-.1.55s.23-.23.37-.42l.06-.09c.07-.1.14-.23.18-.35zm-1.28-1.51c-.16.12-.59.5-.34 1.1.29.69.95.73 1.12.72.01-.03.02-.07.04-.11.08-.23.21-.38.31-.44-.03-.21-.08-.47-.14-.64-.08-.21-.27-.48-.38-.63-.11.06-.3.09-.61 0zm1.98-.95c-.07-.09-.12-.32-.14-.64v-.06c-.18-.14-.81-.58-1.42-.09-.62.51-.4 1.16-.29 1.38.12.02.4.07.51.16.14-.11.38-.3.6-.43.24-.15.55-.26.74-.32zm-1.9.58c-.4-.06-.67.04-.67.04s.09.19.58.33h.01c.31.09.5.07.6.01.07-.04.1-.09.09-.14 0-.03-.02-.05-.05-.07-.11-.09-.39-.14-.51-.16-.03-.01-.05-.01-.05-.01zm2.08-1.44zm.89 2.93c-.23-.01-.58 0-.86.06-.32.07-.72.24-.91.33-.04.12-.11.25-.17.35l-.06.09c.1.13.54.6 1.27.51.84-.11 1.05-.68 1.09-.83a.435.435 0 0 1-.06-.07c-.13-.15-.24-.31-.3-.44zm.98-1.58c-.08.04-.16.08-.22.1-.22.08-.41.16-.53.17-.05.13-.1.32-.11.53-.01.21.02.44.05.59.1.08.22.21.36.39.01.02.02.03.04.05.03.05.06.09.08.14.25.01.8-.06.92-.84.14-.89-.46-1.1-.59-1.13zm-.09-.21c.02-.11.18-.96-.58-1.35-.54-.27-.98.01-1.2.21.01.04.02.09.02.14.03.27.02.52-.02.66.06.05.29.22.55.34.23.11.51.19.59.21.11-.06.26-.11.41-.16.07-.02.15-.04.23-.05zm-1.76-1c-.01-.06-.01-.1-.02-.14-.06-.29-.2-.33-.2-.33s-.14.08-.12.49v.06c.02.32.07.55.14.64.03.04.06.06.09.05.04 0 .06-.05.08-.1v-.01c.06-.14.07-.39.03-.66zm1.85 1.21c.19-.1.4-.23.39-.25-.01-.01-.24-.01-.49.04-.08.02-.16.03-.23.06-.15.05-.3.1-.41.16-.11.06-.17.12-.15.2.02.05.07.07.14.07.12-.01.31-.08.53-.17l.22-.11zm-.44 1.77c-.14-.18-.26-.31-.36-.39-.04-.03-.08-.05-.11-.07-.05-.02-.08-.02-.11.01-.02.03-.02.07-.01.13.01.04.02.08.05.12.06.13.17.29.3.44.02.02.04.05.06.07.01.02.03.03.04.04.2.18.38.19.38.19s0-.15-.12-.36c-.02-.04-.05-.09-.08-.14-.01 0-.02-.02-.04-.04zm-1.03-1.31c.07.26-.15.55-.48.63-.34.09-.66-.06-.73-.32-.07-.26.15-.55.48-.63.34-.08.67.06.73.32zM6.45 20.66c.03-.09.04-.18-.01-.24-.03-.04-.09-.04-.15 0-.1.06-.23.22-.31.44-.01.04-.03.07-.04.11-.1.31-.1.55-.1.55s.23-.23.37-.42l.06-.09c.07-.1.14-.23.18-.35zm-1.29-1.51c-.16.12-.59.5-.34 1.1.29.69.95.73 1.12.72.01-.03.02-.07.04-.11.08-.23.21-.38.31-.44-.03-.21-.08-.47-.14-.64-.08-.21-.27-.48-.38-.63-.1.06-.29.09-.61 0zm1.99-.95c-.07-.09-.12-.32-.14-.64v-.06c-.18-.14-.81-.58-1.42-.09-.62.51-.4 1.16-.29 1.38.12.02.4.07.51.16.14-.11.38-.3.6-.43.24-.15.54-.26.74-.32zm-1.91.58c-.4-.06-.67.04-.67.04s.09.19.58.33h.01c.31.09.5.07.6.01.07-.04.1-.09.09-.14 0-.03-.02-.05-.05-.07-.11-.09-.39-.14-.51-.16-.02-.01-.04-.01-.05-.01zm2.09-1.44zm.89 2.93c-.23-.01-.58 0-.86.06-.32.07-.72.24-.91.33-.04.12-.11.25-.17.35l-.06.09c.1.13.54.6 1.27.51.84-.11 1.05-.68 1.09-.83a.435.435 0 0 1-.06-.07c-.13-.15-.24-.31-.3-.44zm.98-1.58c-.08.04-.16.08-.22.1-.22.08-.41.16-.53.17-.05.13-.1.32-.11.53-.01.21.02.44.05.59.1.08.22.21.36.39.01.02.02.03.04.05.03.05.06.09.08.14.25.01.8-.06.92-.84.14-.89-.46-1.1-.59-1.13zm-.09-.21c.02-.11.18-.96-.58-1.35-.54-.27-.98.01-1.2.21.01.04.02.09.02.14.03.27.02.52-.02.66.06.05.29.22.55.34.23.11.51.19.59.21.11-.06.26-.11.41-.16.07-.02.15-.04.23-.05zm-1.76-1c-.01-.06-.01-.1-.02-.14-.06-.29-.2-.33-.2-.33s-.13.08-.12.48v.06c.02.32.07.55.14.64.03.04.06.06.1.05.04 0 .06-.05.08-.1v-.01c.05-.13.05-.38.02-.65zm1.85 1.21c.19-.1.4-.23.39-.25-.01-.01-.24-.01-.49.04-.08.02-.16.03-.23.06-.15.05-.3.1-.41.16-.11.06-.17.12-.15.2.02.05.07.07.14.07.12-.01.31-.08.53-.17l.22-.11zm-.44 1.77c-.14-.18-.26-.31-.36-.39-.04-.03-.08-.05-.11-.07-.05-.02-.08-.02-.11.01-.02.03-.02.07-.01.13.01.04.02.08.05.12.06.13.17.29.3.44.02.02.04.05.06.07.01.02.03.03.04.04.2.2.38.2.38.2s0-.15-.12-.36c-.02-.04-.05-.09-.08-.14-.02-.01-.03-.03-.04-.05zm-1.03-1.31c.07.26-.15.55-.48.63-.33.09-.66-.06-.73-.32-.07-.25.15-.54.48-.63.34-.08.66.06.73.32zm35.36 1.51c.03-.09.04-.18-.01-.24-.03-.04-.08-.04-.15 0-.1.06-.23.22-.31.44-.01.04-.03.07-.04.11-.1.31-.1.55-.1.55s.23-.23.37-.42l.06-.09c.07-.1.15-.23.18-.35zm-1.28-1.51c-.16.12-.59.5-.34 1.1.29.69.95.73 1.12.72.01-.03.02-.07.04-.11.08-.23.21-.38.31-.44-.03-.21-.08-.47-.14-.64-.08-.21-.27-.48-.38-.63-.1.06-.3.09-.61 0zm1.99-.95c-.07-.09-.12-.32-.14-.64v-.06c-.18-.14-.81-.58-1.42-.09-.62.51-.4 1.16-.29 1.38.12.02.4.07.52.16.14-.11.38-.3.6-.43.22-.15.53-.26.73-.32zm-1.91.58c-.4-.06-.67.04-.67.04s.09.19.58.33h.01c.31.09.5.07.6.01.07-.04.1-.09.09-.14 0-.03-.02-.05-.05-.07-.11-.09-.4-.14-.52-.16-.01-.01-.03-.01-.04-.01zm2.09-1.44c.01.04.02.09.02.14-.01-.05-.01-.1-.02-.14zm.88 2.93c-.23-.01-.58 0-.86.06-.32.07-.72.24-.91.33-.04.12-.11.25-.17.35l-.06.09c.1.13.54.6 1.27.51.84-.11 1.05-.68 1.09-.83a.435.435 0 0 1-.06-.07c-.13-.15-.23-.31-.3-.44zm.99-1.58c-.08.04-.16.08-.22.1-.22.08-.41.16-.53.17-.05.13-.1.32-.11.53-.01.21.02.44.05.59.1.08.22.21.36.39.01.02.03.03.04.05.03.05.06.09.08.14.25.01.8-.06.92-.84.14-.89-.47-1.1-.59-1.13zm-.1-.21c.02-.11.18-.96-.58-1.35-.53-.27-.98.01-1.2.21.01.04.02.09.02.14.03.27.02.52-.02.66.06.05.29.22.55.34.23.11.51.19.59.21.11-.06.26-.11.41-.16.08-.02.16-.04.23-.05zm-1.75-1c-.01-.06-.01-.1-.02-.14-.06-.29-.2-.33-.2-.33s-.14.08-.12.49v.06c.02.32.07.55.14.64.03.04.06.06.1.05.04 0 .06-.05.08-.1v-.01c.04-.14.05-.39.02-.66zm1.85 1.21c.19-.1.4-.23.39-.25-.01-.01-.24-.01-.49.04-.08.02-.16.03-.23.06-.15.05-.3.1-.41.16-.11.06-.18.12-.15.2.02.05.07.07.14.07.12-.01.31-.08.53-.17l.22-.11zm-.44 1.77c-.14-.18-.26-.31-.36-.39-.04-.03-.08-.05-.11-.07-.05-.02-.08-.02-.11.01-.02.03-.02.07-.01.13.01.04.02.08.05.12.06.13.17.29.3.44.02.02.04.05.06.07.01.02.03.03.04.04.2.18.38.19.38.19s0-.15-.12-.36c-.02-.04-.05-.09-.08-.14-.02 0-.03-.02-.04-.04zm-1.03-1.31c.07.26-.15.55-.48.63-.34.09-.66-.06-.73-.32-.07-.26.15-.55.48-.63.34-.08.66.06.73.32zM24.75 68.44c.03-.09.04-.18-.01-.24-.03-.04-.09-.04-.15 0-.1.06-.23.22-.31.44-.01.04-.03.07-.04.1-.1.31-.1.55-.1.55s.23-.23.37-.42l.06-.09c.07-.09.14-.22.18-.34zm-1.28-1.51c-.16.12-.59.5-.34 1.1.29.69.95.73 1.12.72.01-.03.02-.07.04-.1.08-.23.21-.38.31-.44-.03-.2-.08-.47-.14-.64-.08-.21-.27-.48-.38-.63-.11.06-.3.08-.61-.01zm1.98-.95c-.07-.09-.12-.32-.14-.64v-.06c-.18-.14-.81-.58-1.42-.09-.62.51-.4 1.16-.29 1.38.12.02.4.07.51.16.14-.11.38-.3.6-.43.24-.14.55-.25.74-.32zm-1.9.58c-.4-.06-.67.04-.67.04s.09.19.58.33h.01c.31.09.5.06.6.01.07-.04.1-.09.09-.14 0-.03-.02-.05-.05-.07-.11-.09-.39-.14-.51-.16-.03 0-.05-.01-.05-.01zm2.08-1.44zm.89 2.93c-.23-.01-.58 0-.86.06-.32.07-.72.24-.91.33-.04.12-.11.25-.17.35l-.06.09c.1.13.54.6 1.27.51.84-.11 1.05-.68 1.09-.83l-.06-.06c-.13-.16-.24-.32-.3-.45zm.98-1.58c-.08.04-.16.08-.22.1-.22.08-.41.16-.53.17-.05.13-.1.32-.11.53-.01.21.02.44.05.59.1.08.22.21.36.39.01.02.02.03.04.05.03.05.06.09.08.13.25.01.8-.06.92-.84.14-.88-.46-1.08-.59-1.12zm-.09-.21c.02-.11.18-.96-.58-1.35-.54-.27-.98.01-1.2.21.01.04.02.09.02.14.03.27.02.52-.02.66.06.05.29.22.55.34.23.11.51.19.59.21.11-.06.26-.11.41-.16.07-.01.15-.03.23-.05zm-1.76-.99c-.01-.05-.01-.1-.02-.14-.06-.29-.2-.33-.2-.33s-.14.08-.12.48v.06c.02.32.07.55.14.64.03.04.06.06.09.05.04 0 .06-.05.08-.1v-.01c.06-.14.07-.39.03-.65zm1.85 1.2c.19-.1.4-.23.39-.25-.01-.02-.24-.01-.49.04-.08.02-.16.03-.23.06-.15.05-.3.1-.41.16-.11.06-.17.12-.15.2.02.06.07.07.14.07.12-.01.31-.08.53-.17.06-.02.14-.06.22-.11zm-.44 1.78c-.14-.18-.26-.31-.36-.39-.04-.03-.08-.05-.11-.07-.05-.02-.08-.02-.11.01-.02.03-.02.07-.01.13.01.04.02.08.05.12.06.13.17.29.3.44.02.02.04.05.06.06.01.02.03.03.04.04.2.18.38.19.38.19s0-.15-.12-.36a.913.913 0 0 0-.08-.13c-.01-.01-.02-.03-.04-.04zm-1.03-1.31c.07.26-.15.55-.48.63-.34.09-.66-.06-.73-.32-.07-.26.15-.55.48-.63.34-.09.67.05.73.32zm14.99-10.6s.71-1.01-1.79-2.02c-1.85-.75-4.4-.59-6.03-.82-1.36-.19-1.51-.5-1.43-.84.16-.75 1.43-.26 2.23.17.86.46 2.39.61 3.5-.42.4-.37.95-.5.95-.5s-.66-.42-1.2-.05c-.22.15-.4.31-.85.35-.8.06-.94-.2-.94-.2s.41.27 1.4-.24c1.3-.67.51-2.12.51-2.12s.09.52-.46.88c-.76.5-1.4.04-1.4.04s.29.15.75-.02c.57-.22.75-.51.56-.9-.08-.16-.35-.36-.35-.36s.62.83-1.84.65c-1.25-.09-1.68 1.17-1.68 1.17s-.57-.15-.97-.01c.03-.19 0-.52-.1-.71-.13.65-.63 1.06-.85 1.34-.23.28-.72 1-.1 1.86.61.72 1.73.82 2.44.88 1.05.08 2.79.17 4.32.39 2.07.29 1.71 1.28 1.46 1.59-.26.32-.76.34-2.2-.17-1.44-.51-2.94-1.4-5.95-1.29-4.15.16-7.1 3.2-8.62 3.04 0 0 .08.36.05.61-.14 1.05-1.09 1.62-1.09 1.62s-.05-.22-.13-.21c-.1.02 0 .23-.35.48-.32.24-.49.51-.61 1.01 0 0-.17-.34-.27-.04-.13.39-.33.4-.44.45 0 0-.01-.19-.1-.19-.13.01-.19.84-1.63.7l-.11.03c-1.06.18-1.25-.87-1.63-1.23-.25-.24-.54.19-.54.19s-.21-.22-.18-.63c.03-.43.11-.57-.07-.87-.13-.22-.68-.69-.48-1.49-.25-.01-.76-.19-.96-1.68-.01-.1.18.02.18.02-.04-.23-.24-.31-.28-.58-.06-.38-.1-1.13.11-1.39.32-.4 1.21-.54.78-1.32-.03.08-.08.16-.14.22-.05.06-.13.09-.21.09a.284.284 0 0 1-.27-.28c0-.1.07-.17.15-.26.01-.01.01-.01.01-.02-.16-.02-.3.04-.38.08.02-.17.31-1.07-.45-1.28.01.12 0 .26-.05.36-.03.07-.09.13-.17.15-.14.05-.3-.03-.35-.18-.03-.1.01-.18.05-.29.02-.04.03-.08.04-.11-.74.09-.59 1.05-.58 1.2-.02-.21-.47-.83-.9-.55l-.04.04c.06.04.11.09.14.14.04.06.06.14.05.22-.03.15-.18.24-.33.21-.1-.02-.16-.1-.22-.19-.01-.01-.01-.02-.02-.02-.16.2-.13.56.28.87.61.46.82 2.35.72 2.59-.13.33-.46-.14-.46-.14s-.06.43.25.87c.55.78.71 1.13.3.99-.13-.04-.26-.16-.26-.16s.02.39.52.8c.2.16.17.25.03.23-.16-.02-.29-.12-.29-.12s.13.36.39.69c.42.57.8.8.8.8s-.47-.04-1.15-.44c-1.02-.6-.59-1.01-.9-1.72-.29-.67-.48-.79-.79-.82h-.03c.02.05.04.1.04.14.01.08-.01.16-.06.22-.1.12-.27.13-.39.04-.08-.06-.09-.16-.11-.27-.29.15-.28.46-.25.6-.16-.21-.53-.51-.79-.55a.826.826 0 0 0-.52.1c-.01 0-.01.01-.02.01.02.01.04.02.05.04.06.05.1.12.11.2.01.15-.11.28-.26.29-.1.01-.18-.05-.27-.12-.01-.01-.03-.02-.04-.03-.18.32-.12.93.93 1.27 0 0-.51.08-.67.45.12-.01.25.01.35.06.07.03.13.09.15.17.05.15-.03.3-.18.35-.1.03-.18-.01-.29-.06-.02-.01-.03-.01-.05-.02.12.53.55.61.91.61 1.57-.02 2.8.74 2.8.74s-.34.02-.53.26c-.2.26-.15.4-.15.4s.14-.13.53-.2c.42-.07.5.08.5.08s-.61.22-.37.86c0 0 .25-.27.62-.4.32-.11.68-.09.82.12.2.28-.64.57-.64.57.59.35 1.87.18 1.87.18s-.9.16-.89.75c0 0 .56-.43 1.65 0 1.66.64 3.69.95 6.34-.13 3.35-1.36 3.44-4.26 8.09-5.8.15.23 1.2 1.21 2.51 1.69 1.05.39 2.54.66 3 .77.65.16 1.82.41 1.12 1.68-.33.59-.63.77-.92.99-.05-.01-.4-.11-.89-.29-.29-.11-.5-.04-.6.16.08 0 .16.01.22.04s.12.08.14.15c.05.13-.02.27-.15.32-.09.03-.17 0-.26-.04-.01 0-.01 0-.02-.01.04.36.33.4.33.4s-.34.13-.34.45c.06-.03.12-.05.18-.05.07-.01.14.01.19.06.1.09.11.25.02.35-.06.07-.15.08-.25.09.01.01.02.01.03.02.2.26.8.06.8.06s-.14.31.05.53c.03-.09.07-.18.13-.24.05-.05.11-.09.18-.09.14 0 .25.11.25.25 0 .09-.06.16-.12.24-.01.01-.02.03-.03.04.04.01.07.01.1.01.28-.04.7-.31.89-.93.23-.72.46-.87.46-.87s.6-.57.37.45c.6-.16.52-.81.52-.81s.48.22.62.1c.2-.16 0-.63.24-.96.25-.37.4.06.31.36 0 0 .37-.11.38-.59.02-.31-.11-.67.18-.93.21-.18.27.08.21.33 0 0 .28.01.33-.48.03-.3-.04-.39.05-.43.11-.05.18.24.18.24s.25-.57-.27-.91c-.88-.57-3.1-.18-4.43-2.28-.48-.76-.13-1.12-.13-1.12s2.37 1.12 3.64.93c1.54-.22 1.55-1.05 1.55-1.05s.25.05.03.55c0 0 .28-.06.4-.45.22-.74-.24-1.2-.24-1.2.4-.05.41.4.41.4zm-32.58 4.1c.14-.05.23-.2.18-.35a.256.256 0 0 0-.15-.17.808.808 0 0 0-.35-.06h-.05c-.48.06-.61.41-.68.6 0 0 .29-.25.71-.11.02.01.03.01.05.02.11.07.2.1.29.07zm-.28-2.14c.15-.01.27-.14.26-.29a.309.309 0 0 0-.11-.2c-.01-.01-.03-.02-.05-.04a.72.72 0 0 0-.32-.11c-.48-.06-.69.25-.81.42 0 0 .35-.17.72.07.01.01.03.02.04.03.1.07.17.12.27.12zm1.84-.4c.12.1.29.08.39-.04.05-.06.07-.14.06-.22-.01-.05-.02-.1-.04-.14-.03-.08-.08-.15-.13-.22-.31-.37-.68-.29-.87-.24 0 0 .4.12.49.59 0 .11.02.2.1.27zm4.02-4.35c0 .15.11.28.27.28.08 0 .16-.03.21-.09.06-.06.1-.14.14-.22.02-.05.03-.09.04-.14.1-.47-.19-.71-.34-.84 0 0 .15.38-.15.73 0 .01-.01.01-.01.02-.09.08-.15.16-.16.26zm-1.24-1.14c.05.15.2.23.35.18.08-.02.14-.08.17-.15.05-.1.06-.24.05-.36v-.04c-.06-.48-.41-.61-.6-.68a.73.73 0 0 0 .09.75c-.05.11-.09.2-.06.3zm-1.57.85c.15.03.3-.06.33-.21.02-.08 0-.16-.05-.22a.466.466 0 0 0-.14-.14.637.637 0 0 0-.18-.1c-.44-.19-.73.05-.89.17 0 0 .39-.07.68.29l.02.02c.07.09.13.17.23.19zM34.09 63.9c.13-.05.2-.19.15-.32a.294.294 0 0 0-.14-.15.509.509 0 0 0-.22-.04c-.05 0-.09 0-.14.01-.43.07-.53.39-.59.56 0 0 .27-.25.66-.11.01 0 .01 0 .02.01.09.04.17.07.26.04zm.09.82a.23.23 0 0 0-.19-.06c-.06 0-.12.02-.18.05-.05.02-.11.05-.15.09-.34.26-.29.6-.26.77 0 0 .12-.35.55-.41.1-.01.19-.02.25-.09.08-.1.08-.26-.02-.35zm1.19.97c0-.14-.11-.25-.25-.25-.07 0-.14.03-.18.09-.06.06-.1.15-.13.24-.01.03-.02.06-.02.09-.07.43.19.63.34.74 0 0-.14-.32.09-.63.01-.01.02-.03.03-.04.07-.08.12-.15.12-.24zm-1.14-4.57c-2.7-.52-3.26-.85-4.35-1.91-.11.05-.54.81.61 1.91.45.43.89.56.89.56s-.79-.14-1.81-.04c-.47-.14-.82-.74-1.46-.99-.21-.08-.39-.08-.53-.01.07.03.14.07.19.12.05.05.08.12.08.19-.01.14-.12.24-.26.24-.09 0-.15-.06-.23-.13-.02-.02-.04-.03-.06-.05-.03.17.02.38.23.59-.29-.01-.58.14-.65.48.09-.04.19-.06.27-.05.07 0 .14.03.18.09.09.11.07.26-.03.35-.07.06-.16.06-.26.05-.05 0-.09 0-.14.01.01.01.01.03.02.04.2.6 1.11.16 1.11.16s-.47.34-.21.75c.03-.06.06-.12.1-.16.04-.05.11-.09.18-.09.14 0 .25.11.25.25 0 .09-.05.16-.12.23-.02.03-.04.06-.06.08.64.25 1.15-.72 1.15-.75-.02.7.53.86.53.86s-.08-.3.21-.5c.32-.22.81-.16.85-.16-.09.35.04.52.24.58.05-.75 1.44-.77 1.44-.77.08.29.39.39.39.39s.02-.42.31-.64c.3-.23.8-.24 1.33-.54.63-.35.5-1.02-.39-1.14zm-5.86 2.35c0-.14-.11-.25-.25-.25-.07 0-.14.03-.18.09-.04.04-.07.1-.1.16-.02.05-.04.11-.05.17-.07.43.19.63.34.74 0 0-.13-.29.06-.59.02-.03.04-.06.06-.08.07-.09.13-.15.12-.24zm-1.06-1.01a.251.251 0 0 0-.15-.44.676.676 0 0 0-.35.09c-.38.21-.37.55-.36.73 0 0 .14-.26.46-.32.04-.01.09-.01.14-.01.11.01.19.01.26-.05zm.28-1.27c.14 0 .25-.1.26-.24 0-.07-.03-.14-.08-.19a.615.615 0 0 0-.19-.12c-.04-.02-.09-.03-.13-.04-.42-.09-.64.17-.76.3 0 0 .31-.12.61.1.02.01.04.03.06.05.08.08.14.14.23.14zm-5-5.32c.11-.97-.56-.9-.56-.9s.27-.19.36-.54c.16-.6-.2-1.39-.2-1.39s-.36.66-.8.19c0 0 .25-.26.2-.85-.05.17-1.4 1.2-1.78-.65-.77.17-.7.92-1.18.86-.25-.03-.5-.23-.31-.72 0 0-.69.04-.8.76-.13.89-.57-.3-1.15-.26-.01 0-.44.48-.42 1.47-.53.02-.77.44-.82 1.11-.15 1.9-.65 1.27-.64 1.31.17 1.17.82.55.82.55-.11.82-.85.37-.85.37.21 1.25.73.84.73.84-.24 1.04.16 1.31.3 1.51.18.26.27.36.2.8-.06.4-.03.54-.03.54s.31-.32.54-.08c.35.37.55 1.47 1.35 1.34 0 0-.09-.48.08-.48.16 0 .22.42.22.42.22.03.82.12 1.15-.31.2-.26.25-.62.46-.6.16.01.17.31.17.31.14-.09.17-.17.23-.51.08-.43.29.02.29.02.06-.31.22-.6.52-.79.37-.24.27-.89.49-1.06.24-.17.29.53.29.53s.82-.63.53-1.71c-.13-.48-.26-.9-.11-.94.15-.04.12.43.44.62.23.13.58-.05.58-.05-.42-.45-.35-1.24-.3-1.71zm-5.71-.71v-.08l.03.02.52.22c-.04.03-.07.06-.09.11-.08.15-.02.34.14.42.15.08.34.02.42-.14a.34.34 0 0 0 .03-.2s.35.13.32.56c-.03.33-.24.72-.24.72s-.17-.08-.08-.36c.1-.36.05-.36.05-.36s-.36.08-.63-.07l-.03-.02c-.43-.23-.44-.76-.44-.82zm2.21 3.64c-.38.33-.31.82-.39 1.16-.1.41-.47.61-.88.53-.36-.06-.69-.27-.72-.65-.03-.43.68-1 .22-1.53-.37-.44-.35-.65-.35-.65s.1.14.34.26c.09.05.81.38.95-.17.04-.14-.07-.22-.16-.29-.05-.04-.13-.07-.17-.12-.11-.13-.02-.28-.02-.28s.2.26.55.32c.36.06.67-.1.67-.1s.08.25-.21.29c-.16.02-.39.03-.42.22-.09.65.84.51 1.12.46.23-.04.33-.07.33-.07-.18.28-.52.33-.86.62zm1.72-2.92l-.02.04c-.02.06-.24.54-.72.59h-.03c-.31.02-.61-.18-.61-.18s-.05-.02-.09.35c-.03.3-.21.3-.21.3s-.04-.44.06-.76c.13-.4.51-.39.51-.39-.04.06-.06.12-.05.19.01.17.17.3.34.29.18-.01.3-.17.29-.34 0-.05-.02-.09-.05-.14h.6l-.02.05zm-3.08 4.37c.8.21.82-.63.83-.78.05-.85.64-.92.74-1.02-.27.05-.82.04-1-.28-.19.1-.5.16-.87 0 .11.11.19.28.21.35.08.21.01.46-.08.66-.08.18-.56.88.17 1.07zm21.19-14.21c-6.47-.22-8.1-2.06-8.1-2.06s-.74 1.23 2.23 2.53c0 0-1-.16-1.56-.19-.66-.03-1.37.1-1.37.1s-.75-.69-1.27-.87c-.17-.06-.45-.14-.69.01.08.03.15.07.2.12.06.05.09.12.09.2 0 .15-.12.27-.27.27-.1 0-.17-.06-.26-.14l-.09-.06c-.13.36.1.6.26.7-.75.16-.97.35-.98.74.08-.04.17-.06.24-.06.08 0 .15.02.21.08.11.11.1.28 0 .38-.07.07-.17.08-.28.08-.02 0-.04.01-.06.01.16.27.49.41.97.25.22-.07.28-.11.28-.11s-.41.47-.24.91c.04-.06.09-.12.14-.16.06-.05.14-.07.22-.06.15.03.24.17.22.32-.02.1-.09.16-.18.23-.02.02-.04.04-.06.05.05.02.12.04.19.07.42.12.76-.23 1.04-.58.57-.69 1.13-.48 1.13-.48-.38.38-.03.84-.03.84s.31-.73.83-.53c-.1.45.34.7.34.7s.27-.72.61-.72c.46 0 .23.69.23.69s.25-.03.64-.42c.26-.26.48-.54 1.01-.5-.01.09.07.58.53.8-.01-1.72 2.4-1.95 2.8-2.02 1.15-.23 1.03-1.12 1.03-1.12zm-10.74.11c.15 0 .27-.12.27-.27 0-.08-.04-.15-.09-.2a.666.666 0 0 0-.2-.12c-.05-.02-.1-.04-.15-.04-.47-.08-.7.21-.82.37 0 0 .32-.14.65.08l.09.06c.07.06.15.12.25.12zm-.62 1.63a.26.26 0 0 0 0-.38.278.278 0 0 0-.21-.08c-.08 0-.16.03-.24.06-.04.02-.09.04-.13.07-.39.27-.35.64-.33.84 0 0 .14-.35.56-.41.02 0 .04-.01.06-.01.13-.01.22-.02.29-.09zm1.25 1.25a.273.273 0 0 0-.22-.32.252.252 0 0 0-.22.06c-.05.04-.1.09-.14.16-.03.05-.06.11-.08.17-.17.45.08.72.21.87 0 0-.08-.36.21-.65.02-.02.04-.04.06-.05.08-.08.16-.14.18-.24zm-12.4-5.21c.89.31.99-.64 1.01-.81.14-.96.81-.99.93-1.09-.32.04-.94-.04-1.11-.42-.22.1-.59.13-.99-.08.11.14.19.33.21.41.07.25-.03.52-.15.74-.11.21-.71.97.1 1.25zm6-5.82c.27-.66-.06-1.87-.06-1.87s-.54.86-1 .4c-.42-.42.03-1.11.03-1.11-.52-.17-.96.55-1.6.19-.45-.25.08-1.06.08-1.06s-.59-.02-1.05.21c-.45.22-.66.41-.97.4-.44-.02-.28-.73-.28-.73s-.51-.01-.82.52c-.3.52-.64.66-.64.66-.14-.23-.45-.23-.68-.29-.26-.07-.43-.2-.43-.2s-.48.92-.26 1.69c-.36.1-.46.5-.52.7-.42 1.52-1.05.84-1.04.89.12 1.34.9 1.3.83 1.62-.09.42-.81-.15-.81-.15.02.95.45 1.01.62 1.57.15.49-.16.82.09 1.57.26.78.07 1.06.07 1.06.53.01.87-.37.87-.37-.1 1 .36 1.46.36 1.46s.29-.61.42-.2c.33 1.08.87 1.47.87 1.47s.49-.02 1.35-.93c.6-.64.33.19.33.19s.42.03 1.3-1.57c.28-.52.75-.82.92.02 1-1.08.65-2.25.65-2.66 0-.37.18-.41.19-.24.1 1 1.15.66 1.15.66s-.42-.43.01-1.96c.22-.76-.21-1.5-.21-1.5s.18-.31.23-.44zm-6.51-.05v-.1l.04.02.57.3c-.05.03-.09.07-.12.11-.1.17-.05.39.12.5.17.1.39.05.49-.12.04-.07.05-.15.05-.22 0 0 .39.18.31.66-.06.38-.33.8-.33.8s-.18-.11-.06-.42c.15-.4.09-.4.09-.4s-.41.05-.71-.13l-.03-.02c-.46-.31-.43-.91-.42-.98zm2.19 4.35c-.46.34-.43.9-.55 1.28-.15.46-.59.65-1.05.52-.4-.1-.76-.37-.76-.8 0-.49.86-1.07.4-1.72-.38-.53-.34-.77-.34-.77s.1.17.36.33c.09.06.89.51 1.1-.11.05-.16-.06-.26-.16-.34-.05-.05-.14-.1-.18-.15-.12-.16 0-.32 0-.32s.2.32.6.41c.41.1.77-.05.77-.05s.07.3-.26.31c-.18.01-.45 0-.49.22-.16.73.91.66 1.24.63.26-.02.38-.05.38-.05-.26.28-.65.31-1.06.61zm2.22-3.17l-.02.04c-.03.06-.32.59-.88.61h-.04c-.35 0-.68-.26-.68-.26s-.05-.03-.14.39c-.06.34-.27.33-.27.33s-.01-.5.14-.85c.19-.45.61-.4.61-.4-.04.06-.08.13-.08.21 0 .2.16.36.36.36.2 0 .36-.16.36-.36a.42.42 0 0 0-.04-.16l.64.05h.04v.04zm26.27 6.2s.06-.92-.61-1.16c-.88-.32-2.01.09-4.26-.12-5.46-.51-4.79-2.49-4.79-2.49s3.43 1.53 4.89.81c.8-.39.75-1.09.75-1.09.23.26-.02.78-.02.78s1.41-1.04-.27-2.65c-.61-.59-1.72-1.02-2.55-1.13-2.4-.31-3.32-.18-5.01-.42-1.42-.2-1.74-.7-1.66-1.1.22-1.17 2.86.5 4.31-.15.39-.17.71-.44 1.05-.52.35-.08.71.03.71.03s-.34-.62-1.46-.38c-.92.2-.99-.12-.99-.12s.43.04.99-.29c.36-.21.46-.67.85-.84.48-.21.97-.01.97-.01s-.63-1.07-1.84-.45c-.82.54-1.12.14-1.12.14s.64 0 .99-.71c.31-.61.7-.71.7-.71s-.62-.3-1.15.22c-.34.33-.84.43-1.68.42-1.08-.02-1.51 1.27-1.51 1.27s-.43.03-.8.21c-.32.16-.69.53-.69.53l.11-.4s-.8.4-.82 1.63c-.04 2.07 2.21 2.24 2.94 2.3 1.09.08 3.17.14 4.77.36 2.16.3 2.22 1.3 1.93 1.76-.31.52-1.21.25-2.7-.27-1.5-.53-2.77-1.4-5.8-1.31-4.79.15-9.86 3.58-11.33 2.7.07.56-.06 1.7-1.32 2.73-.05-.85-.31-.74-.6-.22-.8 1.45-1.64 1.59-1.64 1.59s.15-.49-.38-.02c-.55.48-1.17.56-1.17.56s-.76-.55-.94-1.41c-.02-.11-.16.27-.16.27-.64-.31-.79-1.33-.79-1.33s-.31.2-1.01.09c0 0 .39-.43-.05-1.56-.88 0-4.35-.61-4.79-2.41-.16-.67-.36-.99-.78-1.02.04.04.07.08.09.13.04.07.05.16.02.24-.06.15-.22.23-.38.17-.1-.04-.15-.13-.21-.24a.36.36 0 0 0-.07-.1c-.34.27-.23.83-.23.83-.39-.33-1.2-.87-1.67-.54.09.04.17.08.23.14.07.06.11.14.11.23 0 .17-.14.31-.31.31-.11 0-.2-.07-.29-.16-.05-.04-.09-.07-.14-.1-.41.67.94 1.41.94 1.41-.51-.03-1.24.37-1.23.84.07-.04.15-.07.23-.07.08-.01.16.01.23.07.12.11.13.29.03.41-.07.08-.17.09-.29.11-.02 0-.04.01-.06.01.13.28.37.46 1.03.28 1.6-.45 2.68-.16 2.68-.16s-.05.53-.77.39c-.03-.01.28.41.93.41.85 0 1.31-.34 1.32-.35 0 0 .04.2-.2.33-.51.26-.18.83-.18.83.28-.63.8-.38.8-.38-.09.12-.21.49.09.77 0 0 .03-.36.6-.51.39-.1.73.04.73.04s-.33.47.07.99c0 0 .17-.76.7-.54.22.09.19.33.13.43-.1.15-.34.2-.34.2.82.39 1.03-.26 1.66.33-.81.37-1.83.45-2.77.4-1.97-.17-2.38-.56-2.85-.99-.63-.61-1.13-.67-1.43-.58.04.02.07.05.1.08.07.06.11.14.11.23 0 .17-.14.31-.31.31-.11 0-.2-.07-.29-.16a.304.304 0 0 0-.07-.05c-.17.3.15.57.24.71-.12-.02-.27-.05-.37-.07-.42-.09-.77.06-.87.37.12-.02.24-.01.33.02a.318.318 0 0 1 .05.59c-.1.05-.21.02-.33-.02-.04-.01-.08-.02-.11-.02.12.54.74.6 1.22.63-.23.14-.47.34-.42.66a.79.79 0 0 1 .23-.14c.07-.03.15-.02.23.02.13.07.18.24.11.37-.05.09-.14.12-.25.16a.3.3 0 0 0-.08.04c.38.41 1.32-.13 1.58-.28.75-.42 1.39-.35 1.76-.17.7.34-.24.63-.24.63.23.19.6.1.83 0 .21-.09.41-.26.51-.11.06.09.03.25-.13.39-.12.1-.3.14-.3.14.87.33 1.68-.47 1.68-.47s.07.11-.01.32c-.13.34-.46.47-.46.47.94.28 1.43-.84 1.43-.84s.45.35-.11.84c.78.02.88-.61 1.26-.37.22.14.1.46-.22.53.89.3.82-.5 1.86-.32 1.52.26 3.26.49 5.94-.55 4.1-1.58 4.52-5.2 9.01-5.7 0 0 .38.79 3.45 1.62 3.26.88 8.26.2 8.04 1.76-.11.79-2.34-.35-2.62.44-.01.01-.01.03-.01.04a.71.71 0 0 1 .25-.01c.07.01.14.05.19.12.08.13.04.3-.09.37-.08.05-.18.04-.29.02h-.04c.09.17.27.26.46.3-.27.14-.42.25-.45.6v.1c.05-.04.11-.07.16-.09.07-.03.15-.03.22.01.13.07.18.23.11.37-.05.09-.13.12-.24.16-.01.01-.02.01-.03.02.17.16.4.23.62.16.24-.08.35-.16.39-.21-.07.13-.22.42-.15.66.02.1.07.16.12.21.02-.09.05-.18.1-.25.04-.06.11-.11.19-.12.15-.02.28.08.31.23.01.1-.04.18-.1.27-.01.01-.01.03-.02.04.57.02 1.08-.74 1.18-1.41.13-.85.39-.72.39-.72s.01.17.16.32.34.16.34.16c-.03-.58.4-.76.59-.6.19.16.03.51.03.51s.29.1.64-.48c.19-.31.18-.71.41-.74.31-.01.18.38.18.38.72-.39.27-1.54.55-1.67.22-.06.13.36.13.36s.45-.24.32-.74c-.23-.72.13-.12.13-.12zM5.19 43.01c.11-.12.09-.3-.03-.41a.289.289 0 0 0-.23-.07.75.75 0 0 0-.23.07c-.06.03-.11.06-.16.1-.4.32-.32.71-.28.92 0 0 .13-.39.58-.49.02 0 .04-.01.06-.01.12-.02.22-.03.29-.11zm.24-2.4c.17 0 .31-.14.31-.31 0-.09-.04-.18-.11-.23a.744.744 0 0 0-.23-.14c-.06-.02-.12-.04-.18-.05-.54-.1-.8.24-.94.42 0 0 .35-.15.71.07.05.03.09.06.14.1.1.07.19.14.3.14zm2.15-.64c.15.06.32-.02.38-.17.03-.08.02-.17-.02-.24a.508.508 0 0 0-.09-.13.684.684 0 0 0-.21-.17c-.43-.26-.77-.06-.96.05 0 0 .37-.02.63.32.02.03.05.06.07.1.05.11.1.2.2.24zm-.71 8.58c.07-.13.02-.3-.11-.37a.304.304 0 0 0-.23-.02c-.08.02-.16.07-.23.14-.04.03-.07.06-.1.1-.3.37-.15.72-.07.91 0 0 .04-.36.4-.55.03-.01.05-.03.08-.04.12-.05.21-.08.26-.17zm.07-2.89c.17 0 .31-.14.31-.31 0-.09-.04-.18-.11-.23-.03-.03-.06-.05-.1-.08-.09-.06-.2-.1-.31-.12-.54-.1-.8.24-.94.42 0 0 .39-.16.78.11.02.02.05.04.07.05.1.08.19.16.3.16zm-.98 1.39c.16-.07.22-.26.15-.42a.339.339 0 0 0-.2-.17.73.73 0 0 0-.33-.02c-.04.01-.08.01-.12.02-.53.14-.62.56-.67.78 0 0 .27-.3.72-.24.04.01.07.01.11.02.13.05.24.08.34.03zm34.17.57c.13-.08.17-.25.09-.37a.247.247 0 0 0-.19-.12.538.538 0 0 0-.25.01c-.05.01-.1.02-.14.04-.44.17-.48.54-.51.74 0 0 .23-.32.67-.27h.04c.11 0 .2.02.29-.03zm.18 1.3c.07-.13.02-.3-.11-.37a.244.244 0 0 0-.22-.01.71.71 0 0 0-.31.24c-.29.37-.14.71-.06.9 0 0 .03-.39.44-.58.01-.01.02-.01.03-.02.1-.03.18-.07.23-.16zm1.31.85a.272.272 0 0 0-.31-.23c-.08.01-.15.06-.19.12-.05.07-.08.16-.1.25-.01.04-.01.09-.02.13-.02.47.3.66.47.76 0 0-.2-.33.02-.72.01-.01.01-.03.02-.04.07-.09.12-.17.11-.27zM5.25 23.94c.17.04.34-.06.38-.23.02-.09 0-.18-.05-.25a.55.55 0 0 0-.07-.09c-.08-.08-.18-.15-.28-.2-.5-.22-.83.04-1.01.18 0 0 .47-.08.79.36 0 .01.01.01.01.01.06.11.12.19.23.22zm33.29 6.08c-5.64-.17-7.51-2.22-7.51-2.22s-.95 1.45 1.39 2.4c0 0-.43-.12-.99-.17-.66-.05-.95-.06-.95-.06s-.49-.76-1.37-.91c-.24-.04-.47-.05-.68-.02.01.01.03.02.04.03.05.05.08.13.08.21a.27.27 0 0 1-.29.25c-.1-.01-.17-.07-.24-.16-.03-.03-.07-.06-.11-.09l-.03.03c-.14.17-.21.41-.08.69-.81.11-1.07.36-1.13.69.12-.04.28-.06.39-.03.07.02.14.06.18.13.07.13.02.3-.11.37-.09.05-.18.03-.29 0-.06-.01-.12-.02-.18-.02.08.43.59.73 1.4.39.2-.08-.5.24-.22.96.02-.05.04-.1.06-.13.04-.06.1-.11.18-.13.15-.03.29.07.31.22.02.1-.03.18-.09.28-.04.07-.06.14-.08.2.69.3 1.41-.53 1.5-.92 0 0 .07.5.37.71.01 0 .04-.21.2-.39.3-.33.27.06.27.06 0 .59.37.69.37.69s-.06-.68.47-.79c.21.73 1.02-.39.94-.05-.18.74.14.97.14.97s.07-.89 1.85-.99c-.02.09.05.59.5.82.13-1.71 2.55-1.73 2.96-1.8 1.17-.16.75-1.22.75-1.22zm-10.28-.48c.15.01.28-.1.29-.25a.235.235 0 0 0-.08-.21.138.138 0 0 0-.04-.03.832.832 0 0 0-.31-.16c-.46-.12-.71.15-.84.3 0 0 .31-.11.62.11.04.03.07.05.11.09.08.08.15.15.25.15zm-1.42 1.64c.11.03.2.04.29 0 .13-.07.18-.24.11-.37a.26.26 0 0 0-.18-.13.744.744 0 0 0-.39.03c-.45.15-.51.52-.54.71 0 0 .19-.24.54-.25.05 0 .11 0 .17.01zm1.56 1.29c-.03-.15-.17-.25-.31-.22-.08.01-.15.06-.18.13-.03.04-.05.09-.06.13-.03.08-.04.17-.04.25 0 .48.33.65.5.74 0 0-.16-.24-.07-.55.02-.06.04-.13.08-.2.05-.1.09-.18.08-.28zm-6.41-9.5c.2-.92-.53-.94-.53-.94s.31-.21.43-.6c.2-.69-.17-1.6-.17-1.6s-.24.68-1 .35c0 0 .37-.44.08-1.26-.06.19-.21.38-.43.51-.38.22-.83.18-.99-.11-.14-.25-.03-.59.26-.82-.11-.03-.58-.15-1.02-.02-.46.14-1.17.6-1.17.6s-.48-.38-.24-.92c0 0-.72-.08-.97.76-.11.36-.41.4-.41.4s-.06-.58-.58-.75c-.01 0-.98.69-.96 1.99-.36.11-.5.52-.54.73-.44 2.66-1.13 1.4-1.12 1.44.15 1.34 1.06 1.15 1.06 1.15-.16.93-1.13.44-1.13.44.36 1.36 1.17.79 1.17.79-.58 1-.14 1.76.17 2.53.33.71.32 1.31.32 1.31s.39-.21.6-.2c.3 0 .2.32.21.73.01.57.24.73.24.73s.03-.11.13-.25c.15-.23.24-.2.24-.2s-.08.71.38 1.06c0 0 .65-.95 1.02-.88.24.04.38.62.38.62 1.88-1.2 2.14-3.81 2.49-2.88.09.23.1.45.1.45s1.15-.69 1.03-3.23c0 0 .21.21.56.31.36.1.56-.01.56-.01s-.5-.69-.17-2.23zm-6.37-1.06v-.1l.04.02.57.29c-.05.03-.09.07-.11.12a.356.356 0 1 0 .61.37c.04-.07.05-.15.04-.22 0 0 .39.18.32.66-.05.38-.32.8-.32.8s-.19-.1-.07-.42c.14-.4.08-.4.08-.4s-.41.06-.71-.12l-.03-.02c-.45-.3-.43-.91-.42-.98zm2.26 4.31c-.46.34-.42.91-.53 1.29-.14.46-.58.66-1.04.54-.4-.09-.77-.36-.77-.79-.01-.49.84-1.09.37-1.73-.39-.53-.35-.76-.35-.76s.1.17.37.33c.09.06.89.5 1.1-.13.05-.16-.06-.26-.16-.34-.05-.05-.14-.09-.18-.15-.12-.15 0-.32 0-.32s.21.31.6.4c.41.09.77-.07.77-.07s.08.3-.26.32c-.18.01-.45.01-.49.22-.15.73.92.64 1.25.61.26-.02.38-.05.38-.05-.26.3-.65.33-1.06.63zm2.17-3.2l-.02.04c-.03.06-.31.6-.87.62h-.04c-.35.01-.68-.25-.68-.25s-.06-.02-.13.39c-.05.34-.27.33-.27.33s-.02-.5.12-.86c.18-.45.61-.41.61-.41a.35.35 0 0 0 .29.56c.2 0 .36-.17.35-.37a.42.42 0 0 0-.04-.16l.64.04h.04v.07zm-3.83 4.76c.9.3.98-.65 1-.83.12-.97.79-1 .91-1.1-.31.04-.94-.02-1.12-.4-.22.1-.58.14-.99-.07.11.14.19.33.21.41.07.25-.03.52-.13.75-.1.2-.69.97.12 1.24zm-11.06-1.4c.11-.12.09-.3-.03-.41a.289.289 0 0 0-.23-.07c-.11.01-.23.06-.33.13-.02.01-.04.03-.06.04-.4.32-.33.71-.29.92 0 0 .12-.35.51-.47l.12-.03c.14-.01.24-.03.31-.11zm2.37-3.17c.14.08.32.03.4-.11a.29.29 0 0 0 .02-.24c-.01-.02-.02-.05-.03-.07a.98.98 0 0 0-.21-.28c-.39-.33-.76-.18-.96-.11 0 0 .41.05.59.48.01.02.02.03.02.05.05.13.08.22.17.28zm-.66 5.69c.14.08.32.03.4-.11a.29.29 0 0 0 .02-.24.625.625 0 0 0-.1-.2c-.04-.05-.09-.1-.14-.15-.38-.33-.75-.18-.95-.1 0 0 .44.05.61.53.01.02.01.04.02.05.03.09.07.17.14.22zm-1.25 1.51c.16-.06.25-.24.19-.4a.292.292 0 0 0-.18-.18c-.11-.05-.25-.06-.38-.05-.02 0-.05 0-.07.01-.54.09-.67.5-.74.72 0 0 .28-.26.7-.18.05.01.1.02.16.04.11.04.21.08.32.04zm1.24 1.33c-.07-.06-.17-.07-.25-.06-.1.01-.21.07-.3.13a.7.7 0 0 0-.1.08c-.4.37-.3.78-.24 1 0 0 .12-.46.64-.58h.01c.12-.02.23-.05.29-.14.12-.13.09-.32-.05-.43zm38.83-3.67c-.39-.19-1.02-.11-1.78-.03-.59.06-1.26.13-1.94.06-4.56-.46-4.93-2.14-4.75-2.03 0 0 .98.5 2.48.79 4.07.79 4.1-1.44 4.1-1.44s.13.1.17.35c.05.28-.15.67-.15.67s.51-.38.51-.95c0-.84-.55-1.14-.55-1.14s.11-.01.32.16c.2.18.32.61.32.61s.21-.71-.57-1.36c-2.18-1.83-6.9-1.47-8.72-1.73-1.59-.23-2.01-.89-1.89-1.56.19-1.11 1.68-1.14 1.68-1.14-.08 1.21 1.42 2.01 2.86 1.69.8-.18 1.28-.45 1.84-.91.43-.34.77-.5.77-.5-.74-.14-1.21.15-1.5.27-.32.13-.64.23-.99.26-.89.08-.98-.52-.98-.52s.66.32 1.52.12c2.47-.58 1.66-2.9 1.66-2.9s-.22.88-.99 1.2c-.73.3-1.34-.18-1.34-.18s1.2.12 1.45-.82c.14-.53-.36-.81-.36-.81s.11 1.19-2.75 1.02c-1.25-.08-1.24.99-1.24.99s-.2 0-.71.15c-.47.14-.78.36-.78.36.12-.35.63-.51.63-.51-.66 0-1.21.51-1.21.51-.01-.13.1-.31.1-.31-.02.04-.73.63-.9 1.9-.08.64.11 1.3.53 1.78.68.81 2 .91 2.79.97 1.18.09 3.12.19 4.83.43 2.32.32 2.46 1.1 2.16 1.59-.34.55-1.37.57-2.98 0-1.61-.57-4.85-1.74-7.18-1.73-6.14.03-8.9 2.64-10.73 2.15.05 2.36-1.63 3.31-1.63 3.31-.25-1.3-.08 1.06-2.57 2.29 0 0-.02-.59-.28-.64-.34-.07-.82.85-.82.85-.53-.36-.7-.91-.7-.91l-.13.27s-.42-.26-.51-.71c-.09-.46.05-.79-.16-.8-.23-.01-.72.32-.72.32s.08-.78-.27-1.59c-.2-.52-.49-.99-.53-1.55-1.98-.37-4.39-1.17-4.44-1.93-.05-.72.07-1.44-.72-1.67.01.02.02.05.03.07.03.08.02.16-.02.24-.08.14-.26.19-.4.11-.09-.05-.13-.15-.16-.27-.01-.02-.01-.04-.02-.05-.46.27-.27 1.09-.27 1.09-.36-.37-1.12-1.04-1.57-.61.03.03.05.06.07.09.05.07.07.16.05.25-.04.17-.21.27-.38.23-.11-.03-.17-.11-.24-.21-.48.68.51 1.5.51 1.5-.15.08-.94.24-.94.81.1-.07.22-.12.33-.13.08-.01.16.01.23.07.12.11.13.29.03.41-.07.08-.17.09-.29.11l-.12.03c.28.4.71.39.99.28 1.27-.54 1.59-.24 2.15-.12.39.09.75-.01.75.22.01.19-.18.33-.77.26 0 0 .14.38.79.45.97.11 1.27-.13 1.4.04.24.31-.7.43-.7.43.76.58 1.77.13 1.77.13.05.34-.67.41-.67.41s.29.32.86.18c.21-.05.4-.15.4-.15s-.17.56.33.85c0 0 .28-.96.68-.72.2.12.22.32.13.44-.13.16-.31.14-.31.14.12.29.63.29.63.29s-.62.38-2.35.36c-2.29-.19-2.16-.44-2.72-1.12-.48-.58-.74-.61-.94-.52.05.06.08.13.1.2.03.08.02.16-.02.24-.08.14-.26.19-.4.11-.08-.05-.11-.12-.15-.21-.28.28-.23.54-.1.77-.11-.02-1.2-.17-1.39.32.13-.01.28 0 .38.05.08.03.15.1.18.18.06.16-.03.34-.19.4-.11.04-.21 0-.33-.05-.05-.02-.11-.03-.16-.04-.01.03-.01.05-.01.05-.01.74 1.07.76 1.6.78-.23.14-.47.34-.42.67.09-.07.2-.12.3-.13.08-.02.18 0 .25.06.14.1.16.3.06.44-.07.09-.17.11-.29.14.71.47 1.23-.18 1.49-.33.75-.43 1.89-.38 2.18-.06.21.23-.26.5-.26.5.53.07.92-.26.92-.26s-.1.12-.14.36c-.06.35.18.54.18.54.43-.84.77-.79.94-.63.2.19-.21.48-.21.48.51.26 1.17-.27 1.17-.27s-.05.43.2.67c.33-.61 1.06-.55 1.54-.49 0 0-.69.48-.42 1.07.43-.42.97-.58 1.71-.49 1.53.19 4.42 1.06 9.39-3.56 3.36-3.12 5.6-2.72 5.6-2.72 2.98 2.43 8.71 2.47 10.18 2.58.71.05.72.49.41.87-.19.24-.45.29-.47.3 0 0-1.41-.59-1.93.2.09-.02.19-.02.27 0 .07.01.14.06.18.13.07.13.03.29-.1.36-.08.05-.17.03-.28.01-.04-.01-.08-.01-.12-.01.06.26.26.34.4.37.06.01.05.02.04.04-.29.28-.29.58-.28.68.07-.05.14-.09.21-.1.07-.02.15-.01.22.03.12.08.15.25.07.37-.05.08-.14.11-.25.13-.03.01-.05.02-.08.03.15.24.42.38.83.22.31-.12.4-.19.42-.22-.04.07-.14.3-.03.48.02.02.03.04.05.06.03-.11.09-.23.17-.31.05-.05.12-.09.2-.08.15.01.26.13.25.28 0 .1-.07.16-.14.24-.02.03-.05.05-.06.08.14.02.29.01.36 0 .44-.09.78-.46.88-1.39.04-.32.11-.49.18-.57.15-.17.48-.29.48-.29s.14.37-.1.64c.87.14.98-1.23.98-1.23s.09.27.29.44c.2.18.47.22.47.22-.16-.98.22-1.31.41-1.36.37-.09.36.35.36.35s.32-.21.25-.65c-.04-.25-.17-.49-.17-.49s.31-.15.47.26c0 0 .33-.53.03-.82 0 0 .07-.05.16-.02.09.03.15.12.15.12s.12-.69-.57-1.03zm-6.26 3.51c.13-.07.17-.23.1-.36a.269.269 0 0 0-.18-.13.615.615 0 0 0-.27 0c-.04.01-.08.02-.11.03-.44.15-.49.51-.52.7 0 0 .2-.26.58-.25.04 0 .08 0 .12.01.11.03.2.04.28 0zm.26 1.39a.27.27 0 0 0-.07-.37.282.282 0 0 0-.22-.03.67.67 0 0 0-.21.1c-.04.03-.08.06-.12.1-.32.33-.21.68-.15.86 0 0 .07-.35.44-.5.02-.01.05-.02.08-.03.11-.03.2-.05.25-.13zm1.57.59a.267.267 0 0 0-.25-.28.28.28 0 0 0-.2.08c-.08.07-.14.19-.17.31 0 .01-.01.02-.01.03-.1.45.17.69.32.81 0 0-.12-.32.1-.63.02-.03.04-.05.06-.08.08-.08.14-.14.15-.24zM0 13.18v32.76c0 6.69 2.09 12.47 6.21 17.18C10.53 68.05 17.02 71.71 25.5 74c8.48-2.29 14.97-5.95 19.29-10.88C48.91 58.42 51 52.63 51 45.94V13.18H0zm49.72 32.76c0 13.07-8.43 22.31-24.22 26.69C9.71 68.25 1.34 59.01 1.34 45.94V14.5h48.37v31.44zM25.03 4.92c-.68 0-1.16.47-1.22 1.14h2.44c-.09-.64-.5-1.14-1.22-1.14zm12.72-1.38l-1 2.82h2.03l-.97-2.82h-.06zM0 11.19h51V0H0v11.19zm14.82-7.84h-1.79v5.97h-1.76V3.35H9.3V1.84h6.12l-.6 1.51zm6.64 5.97h-1.63v-2.9c0-.34-.03-.55-.12-.76-.11-.26-.35-.46-.77-.46-.52 0-1.06.38-1.34.63v3.49h-1.63V1.84h1.63v2.58c.49-.38 1.03-.65 1.82-.65.94 0 1.6.44 1.87 1.19.1.28.16.6.16 1.16v3.2zm6.27-2.2h-3.92c.09.71.6 1.17 1.6 1.17.81 0 1.54-.19 1.95-.35l-.44 1.25c-.38.16-.91.29-1.7.29-1.82 0-2.88-1.11-2.88-2.87 0-1.72 1.06-2.85 2.75-2.85 1.78 0 2.83 1.44 2.64 3.36zm3.53-.54v2.74h-1.74V1.84h5.8l-.57 1.51h-3.49v1.66h2.86l-.6 1.57h-2.26zm8.55 2.74l-.49-1.49h-3.08l-.52 1.49h-1.76l2.85-7.48h2.03l2.79 7.48h-1.82z"/></svg>