<svg width="101" height="24" viewBox="0 0 101 24" xmlns="http://www.w3.org/2000/svg">
  <path d="m26.83 22.03v-11.01c0-1.96-2.21-3.54-4.93-3.54-2.24 0-4.14 1.08-4.74 2.55-.6-1.47-2.49-2.55-4.73-2.55-2.04 0-3.79.89-4.54 2.15v-1.76h-6.31-1.19-.39v.39h.39c.65 0 1.18.53 1.18 1.18v12.59c0 .65-.53 1.18-1.18 1.18h-.39v.39h.39 1.18.79 4.34 1.18 1.18v-.39c-.65 0-1.18-.53-1.18-1.18v-11.01c0-.87.71-1.57 1.58-1.57s1.58.71 1.58 1.57v11.02c0 .65-.53 1.18-1.18 1.18v.39h1.18.79 4.73.79 1.18v-.39c-.65 0-1.18-.53-1.18-1.18v-11.02c0-.87.71-1.57 1.58-1.57s1.58.71 1.58 1.57v11.02c0 .65-.53 1.18-1.18 1.18v.39h1.18.79 4.73.79 1.18.39v-.39h-.39c-.64-.01-1.17-.54-1.17-1.19zm37.88 0v-14.16h-6.31-1.18-4.34v-6.3h-.39c0 3.48-2.83 6.3-6.31 6.3h.4-1.97v.39h1.97v12.2c0 1.96 2.21 3.54 4.93 3.54s4.93-1.59 4.93-3.54v-2.76h-.39v2.75c0 .87-.71 1.57-1.58 1.57s-1.58-.7-1.58-1.57v-12.19h4.34c.65 0 1.18.53 1.18 1.18v12.59c0 .65-.53 1.18-1.18 1.18h-.4v.39h.4 1.18.79 4.73.79 1.18.39v-.39h-.39c-.67 0-1.19-.53-1.19-1.18zm10.25 0v-20.46h-6.31-1.18v.39c.65 0 1.18.53 1.18 1.18v18.89c0 .65-.53 1.18-1.18 1.18h-.39v.39h.39 1.18.79 4.73.79 1.18.4v-.39h-.4c-.65 0-1.18-.53-1.18-1.18zm-38.27-14.55c-4.58 0-8.28 3.7-8.28 8.26s3.71 8.26 8.28 8.26c4.58 0 8.29-3.7 8.29-8.26s-3.71-8.26-8.29-8.26zm0 16.13c-1.18 0-1.97-1.18-1.97-7.87s.79-7.87 1.97-7.87 1.97 1.18 1.97 7.87c.01 6.69-.78 7.87-1.97 7.87zm48.14-16.13c-4.58 0-8.29 3.7-8.29 8.26s3.71 8.26 8.29 8.26 8.29-3.7 8.29-8.26c-.01-4.56-3.72-8.26-8.29-8.26zm0 16.13c-1.18 0-1.97-1.18-1.97-7.87s.79-7.87 1.97-7.87 1.97 1.18 1.97 7.87-.79 7.87-1.97 7.87zm11.83-6.69c-1.96 0-3.55 1.59-3.55 3.54 0 1.96 1.59 3.54 3.55 3.54s3.55-1.59 3.55-3.54c0-1.96-1.59-3.54-3.55-3.54zm-35.11-9.84c1.96 0 3.55-1.59 3.55-3.54s-1.59-3.54-3.55-3.54-3.55 1.59-3.55 3.54c0 1.96 1.59 3.54 3.55 3.54z" fill="currentColor"></path>
</svg>