<svg width="161" height="32" viewBox="0 0 161 32" xmlns="http://www.w3.org/2000/svg">
  <path d="m60.39 2.51c.43 0 .78.35.78.77s-.35.75-.78.75-.78-.33-.78-.75c0-.43.35-.77.78-.77zm12.49 3.74c-1.37 0-2.53 1.07-2.51 3.44l4.81-.66c0-1.97-.94-2.78-2.3-2.78zm-29.51-2.27c-2.24 0-3.04 2.45-3.04 4.7 0 2.22.72 4.65 3.04 4.65 2.33 0 3.02-2.44 3.02-4.65.01-2.25-.78-4.7-3.02-4.7zm47.14 2.3c-1.85 0-2.38 1.87-2.38 3.62 0 1.74.58 3.54 2.38 3.54 1.85 0 2.38-1.79 2.38-3.54.01-1.75-.53-3.62-2.38-3.62zm9.28-.82-.32.98c-.78-.2-1.92-.17-2.46.16v7.53h-1.24v-8.1c.9-.38 1.79-.58 3.38-.58.22-.01.51-.01.64.01zm-14.06-3.69c.13 0 .29.02.29.02v.79h-.14c-.85 0-1.62.55-1.62 1.71v1.37h1.76v.75h-1.76v7.72h-1.23v-7.73h-1.26v-.75h1.26v-1.23c0-1.54.91-2.65 2.7-2.65zm-27.65 0c.13 0 .29.02.29.02v.79h-.14c-.85 0-1.62.55-1.62 1.71v1.37h1.76v.75h-1.77v7.72h-1.23v-7.73h-1.26v-.75h1.26v-1.23c0-1.54.91-2.65 2.71-2.65zm-5.08 0c.13 0 .29.02.29.02v.79h-.14c-.85 0-1.62.55-1.62 1.71v1.37h1.76v.75h-1.76v7.72h-1.23v-7.73h-1.26v-.75h1.26v-1.23c0-1.54.91-2.65 2.7-2.65zm8.01 3.88v8.47h-1.24v-8.47zm5.34-.21c1.03 0 1.7.28 2.07.58l-.32.75c-.28-.2-.8-.45-1.48-.45-1.72 0-2.6 1.49-2.6 3.5 0 2.07 1.01 3.55 2.56 3.55.64 0 1.16-.22 1.5-.46l.33.82c-.36.31-1.08.59-2.11.59-2.01 0-3.56-1.73-3.56-4.45.01-2.76 1.55-4.43 3.61-4.43zm-22.98-2.34c3.04 0 4.38 2.55 4.38 5.61 0 3.1-1.34 5.61-4.38 5.61s-4.39-2.51-4.39-5.61c0-3.06 1.36-5.61 4.39-5.61zm47.14 2.34c2.5 0 3.63 1.95 3.63 4.45s-1.13 4.43-3.63 4.43-3.64-1.93-3.64-4.43 1.14-4.45 3.64-4.45zm-17.59 0c2.15 0 3.47 1.32 3.47 4.15l-5.97.8c.16 2 1.26 3 2.98 3 1.04 0 1.84-.27 2.3-.52l.36.86c-.53.3-1.53.58-2.75.58-2.38 0-4.07-1.41-4.07-4.46 0-2.9 1.56-4.41 3.68-4.41zm-44.97-5.12c-8.67 1.24-15.07 4.06-19.81 8.12-2.4 2.05-4.36 4.4-6 6.99-1.16-2.99-1.85-6.23-2.12-9.56 0-.61 0-1.11 0-1.46v-.47c0-3.46 2.65-3.62 2.91-3.63zm-27.95 11.48c.39 1.59.89 3.15 1.51 4.64-.54.94-1.03 1.89-1.51 2.89 0-2.18 0-4.94 0-7.53zm145.37 7.64c.58 0 1.06.43 1.06.94 0 .52-.48.94-1.06.94s-1.06-.42-1.06-.94c.01-.5.48-.94 1.06-.94zm-80.98 0c.58 0 1.06.43 1.06.94 0 .52-.48.94-1.06.94s-1.06-.42-1.06-.94c.01-.5.48-.94 1.06-.94zm64.89 0c.58 0 1.06.43 1.06.94 0 .52-.48.94-1.06.94s-1.05-.42-1.05-.94c0-.5.47-.94 1.05-.94zm-58.54 4.3c-1.56 0-2.02 1.63-2.02 3.28s.49 3.22 2.02 3.22c1.56 0 2.02-1.57 2.02-3.22 0-1.64-.46-3.28-2.02-3.28zm19.05 2.84c-2.1.22-3.5.61-3.5 2.25 0 1.15.81 1.63 2.08 1.63.59 0 1.1-.13 1.42-.28zm-35.34 0c-2.1.22-3.5.61-3.5 2.25 0 1.15.81 1.63 2.08 1.63.59 0 1.1-.13 1.42-.28zm64.89 0c-2.1.22-3.5.61-3.5 2.25 0 1.15.81 1.63 2.08 1.63.59 0 1.1-.13 1.42-.28zm26.94-3.79v8.47h-1.82v-8.47zm-66.83-.21c2.21 0 3.69.75 3.69 2.61v6.08h-1.82v-6.05c0-1.08-.93-1.49-1.97-1.49-.56 0-1.11.11-1.46.25v7.29h-1.81v-8.08c.8-.34 2.04-.61 3.37-.61zm-14.15.21v8.47h-1.82v-8.47zm29.87-3.87v12.34h-1.81v-12.34zm35.02 3.87v8.47h-1.82v-8.47zm-89.23-2.34 4.55 6.96c.4.61.63 1.12.63 1.12h.03s-.06-.61-.06-1.26v-6.82h1.59v10.81h-1.55l-4.8-7.4c-.36-.55-.62-1.1-.62-1.1h-.03s.04.63.04 1.29v7.21h-1.58v-10.81zm84.35-.07v2.4h1.65v1.1h-1.65v5.17c0 .66.39 1.18 1.16 1.18.17 0 .32-.03.49-.08v1.11c-.17.08-.53.17-1 .17-1.78 0-2.46-1.15-2.46-2.29v-5.26h-1.18v-1.1h1.18v-1.9zm16.09 0v2.4h1.65v1.1h-1.65v5.17c0 .66.39 1.18 1.16 1.18.17 0 .32-.03.49-.08v1.11c-.17.08-.53.17-1 .17-1.78 0-2.46-1.15-2.46-2.29v-5.26h-1.18v-1.1h1.18v-1.9zm-80.98 0v2.4h1.65v1.1h-1.65v5.17c0 .66.39 1.18 1.16 1.18.17 0 .32-.03.49-.08v1.11c-.17.08-.53.17-1 .17-1.78 0-2.46-1.15-2.46-2.29v-5.26h-1.19v-1.1h1.19v-1.9zm51.07 0v2.4h1.65v1.1h-1.65v5.17c0 .66.39 1.18 1.15 1.18.18 0 .32-.03.49-.08v1.11c-.17.08-.54.17-1 .17-1.78 0-2.46-1.15-2.46-2.29v-5.26h-1.18v-1.1h1.18v-1.9zm6.23 2.2c1.88 0 3.32.77 3.32 2.94v5.36c-.72.36-1.87.61-3.27.61-2.49 0-3.66-.99-3.66-2.61 0-2.28 2.39-2.89 5.22-3.14v-.49c0-1.16-.79-1.51-1.95-1.51-.82 0-1.76.24-2.3.49l-.42-1.04c.6-.25 1.71-.61 3.06-.61zm-29.55 0c1.88 0 3.32.77 3.32 2.94v5.36c-.72.36-1.86.61-3.26.61-2.49 0-3.66-.99-3.66-2.61 0-2.28 2.38-2.89 5.22-3.14v-.49c0-1.16-.79-1.51-1.95-1.51-.82 0-1.76.24-2.3.49l-.42-1.04c.59-.25 1.71-.61 3.05-.61zm-17.43 0c2.59 0 3.86 1.93 3.86 4.46s-1.27 4.45-3.86 4.45-3.87-1.92-3.87-4.45 1.28-4.46 3.87-4.46zm80.79 0c1.06 0 1.76.3 2.17.61l-.4 1.02c-.26-.19-.72-.41-1.33-.41-1.47 0-2.24 1.27-2.24 3.17 0 1.94.88 3.21 2.21 3.21.58 0 1.01-.21 1.33-.42l.45 1.12c-.37.31-1.11.61-2.19.61-2.08 0-3.67-1.7-3.67-4.46-.02-2.81 1.62-4.45 3.67-4.45zm-46.88-2.34c1.17 0 2.1.31 2.6.61l-.46 1.18c-.39-.24-1.14-.5-1.89-.5-1.17 0-1.94.71-1.94 1.71 0 2.33 4.59 1.32 4.59 4.9 0 1.92-1.57 3.35-3.79 3.35-1.3 0-2.36-.28-2.95-.61l.51-1.32c.43.25 1.24.52 2.08.52 1.26 0 2.15-.74 2.15-1.81 0-2.37-4.5-1.46-4.5-4.83.01-1.72 1.4-3.2 3.6-3.2zm30.17 2.34c1.04 0 1.81.27 2.38.61l-.48 1.05c-.27-.19-.84-.49-1.55-.49-.94 0-1.52.57-1.52 1.21 0 1.89 3.79 1.05 3.79 3.88 0 1.35-1.29 2.64-3.31 2.64-1.05 0-2.05-.3-2.56-.61l.48-1.16c.36.25 1.08.5 1.85.5.92 0 1.66-.6 1.66-1.32 0-2.01-3.71-1.07-3.71-3.83 0-1.27 1.13-2.48 2.97-2.48zm22.94 0c1.04 0 1.81.27 2.38.61l-.48 1.05c-.27-.19-.84-.49-1.55-.49-.94 0-1.52.57-1.52 1.21 0 1.89 3.79 1.05 3.79 3.88 0 1.35-1.29 2.64-3.31 2.64-1.06 0-2.05-.3-2.56-.61l.48-1.16c.36.25 1.08.5 1.85.5.92 0 1.66-.6 1.66-1.32 0-2.01-3.71-1.07-3.71-3.83.01-1.27 1.13-2.48 2.97-2.48zm-104.93 0c1.88 0 3.32.77 3.32 2.94v5.36c-.72.36-1.86.61-3.27.61-2.49 0-3.66-.99-3.66-2.61 0-2.28 2.38-2.89 5.22-3.14v-.49c0-1.16-.79-1.51-1.95-1.51-.82 0-1.76.24-2.3.49l-.42-1.04c.6-.25 1.72-.61 3.06-.61zm-50.06-3.54c.84 1.53 1.81 2.97 2.95 4.31 3.3 3.87 7.93 6.82 14.12 8.3l-19.83-.03v-6.11c.79-2.29 1.69-4.45 2.76-6.47zm28.61-16.77v25.38c0 3.78-3.1 4-3.64 4.01h-.08-1.18c-12.11-.78-19.36-6.22-23.17-13.6 1.69-2.97 3.76-5.6 6.36-7.83 4.85-4.15 11.63-6.98 21.55-7.93.06 0 .11-.02.16-.03z" fill="currentColor"></path>
</svg>