<svg xmlns="http://www.w3.org/2000/svg" width="116" height="37" viewBox="0 0 116 37">
<path fill="#25222c" d="M50.5,17.5c0-3.9-2.5-5.8-7.7-5.8c-1.4,0-3.5,0.2-4.1,0.2v3.5c0,0,2.5-0.2,4-0.2c2.1,0,3.1,0.8,3.1,2.4v1.2h-3
c-5.8,0-8.8,2-8.8,5.9c0,2.6,1.7,5.5,6.3,5.5c3.7,0,5.2-1.2,5.6-1.7l0.7,1.4l5.1,0v-3.4l-1.3,0V17.5z M45.8,22.2
c0,2.2-0.5,4.7-4.1,4.7c-1.8,0-2.9-1-2.9-2.5c0-1.3,0.6-2.5,4.4-2.5l2.6,0V22.2z M0,0h0.6v15.4H0V0z M4.5,0h4.6v15.4H4.5V0z
M16.2,19c0,4.7,2.2,7.6,5.8,7.6c2.2,0,3.8-0.9,4.8-3.1h5.4c-1,3.4-3.6,7-10.3,7c-6.9,0-11-4.2-11-11.3c0-2.4,0.6-4.7,1.7-6.5V0h2.3
v10c1.9-1.5,4.3-2.3,7.1-2.3c8,0,10.2,5.6,10.2,7.7h-5.3c-0.4-2-1.6-3.8-4.9-3.8C18.4,11.6,16.2,14.4,16.2,19z M92.4,12h3.8v3.4
h-3.8v9.2c0,1.4,0.3,2.1,2,2.1c0.6,0,1,0,1.3-0.1v3.3c-0.8,0.3-2,0.4-3.3,0.4c-3.4,0-4.8-1.5-4.8-5v-9.8h-1.4V12h1.4V9h4.8V12z
M114.7,26.5v-9c0-3.9-2.5-5.8-7.7-5.8c-1.4,0-3.5,0.2-4.1,0.2v3.5c0,0,2.5-0.2,4-0.2c2.1,0,3.1,0.8,3.1,2.4v1.2h-3
c-5.8,0-8.8,2-8.8,5.9c0,2.6,1.7,5.5,6.4,5.5c3.7,0,5.2-1.2,5.7-1.7l0.7,1.4l5.1,0v-3.4L114.7,26.5z M110,22.2
c0,2.2-0.5,4.7-4.1,4.7c-1.8,0-2.9-1-2.9-2.5c0-1.3,0.5-2.5,4.4-2.5l2.6,0V22.2z M76.1,12h6.1V30h-4.8V15.4h-1.3V12z M77.4,4.5h4.8
v5h-4.8V4.5z M66,11.7c-3.3,0-4.6,1.4-5.1,1.9L60.2,12h-6.1v3.4h1.4V37h4.8v-8.3c1,0.9,2.5,1.6,4.5,1.6c6.3,0,8.9-4.6,8.9-9.7
C73.7,15.3,70.6,11.7,66,11.7z M64.3,26.6c-2.8,0-4.1-1.8-4.1-5.6c0-3.9,1.3-5.6,4.3-5.6c2.7,0,4.5,2.1,4.5,5.4
C68.9,24.4,67.2,26.6,64.3,26.6z"/>
</svg>