<svg xmlns="http://www.w3.org/2000/svg" width="76" height="40" viewBox="0 0 76 40">
<path fill="#25222C" d="M22.82,5.78c0.18,0.14,0.36,0.3,0.52,0.45l2.73-2.21l0.09-0.11c-0.43-0.43-0.86-0.84-1.36-1.23
C18.52-2.18,9.06-0.13,3.65,7.24S-1.08,24.52,5.2,29.38c5.12,3.96,12.37,3.34,17.8-1.05l-2.59-2.09c-4.02,2.66-9.03,2.84-12.64,0.05
C2.94,22.56,2.42,14.94,6.58,9.28C10.72,3.6,18,2.03,22.82,5.78z M37.53,13.74c-3.07,0.02-5.84,1.73-5.84,1.73l0.36-1.66h-3.66
L25.04,32h3.75l2.27-11.98c1.68-3.39,5.82-2.32,5.82-2.32L37.53,13.74z M46.89,21.49c0,0-5.53-2.93-9.39,0.34
c0,0-2.27,1.57-2.27,4.68s2.77,4.8,2.77,4.8s4.16,2.27,7.41-1.36l-0.36,1.68h3.64l2.3-11.21c1.73-11.07-11.05-7.14-11.05-7.14
l-0.7,3.98c9.41-4.23,7.82,3.14,7.82,3.14L46.89,21.49z M46.28,26.13c-4.18,4.41-6.87,1.52-6.87,1.52
c-1.82-1.82,0.18-3.68,0.18-3.68c2.77-2.59,7,0.25,7,0.25L46.28,26.13z M68.59,16.83h5.78l0.68-3.68h-5.78l0.98-5.39h-0.02
l-4.39,3.57l-0.32,1.8h-4.55l1.32-7.25c0.32-2.73,4.32-1.91,4.91-1.75l0.64-3.5c-7.21-2.89-9.3,5.25-9.3,5.25l-1.32,7.25h-0.02
l-4.5,3.68h3.87L52.31,40h3.75l4.23-23.17h4.55l-1.66,9.07c-1.05,6.59,5.3,5.87,7.32,5.46l0.64-3.46c-4.84,1.14-4.21-2-4.21-2
L68.59,16.83z"/>
</svg>