<svg width="76" height="40" viewBox="0 0 76 40" xmlns="http://www.w3.org/2000/svg">
  <path d="m22.82 5.78c.18.14.36.3.52.45l2.73-2.21.09-.11c-.43-.43-.86-.84-1.36-1.23-6.28-4.86-15.74-2.81-21.15 4.56s-4.73 17.28 1.55 22.14c5.12 3.96 12.37 3.34 17.8-1.05l-2.59-2.09c-4.02 2.66-9.03 2.84-12.64.05-4.83-3.73-5.35-11.35-1.19-17.01 4.14-5.68 11.42-7.25 16.24-3.5zm14.71 7.96c-3.07.02-5.84 1.73-5.84 1.73l.36-1.66h-3.66l-3.35 18.19h3.75l2.27-11.98c1.68-3.39 5.82-2.32 5.82-2.32zm9.36 7.75s-5.53-2.93-9.39.34c0 0-2.27 1.57-2.27 4.68s2.77 4.8 2.77 4.8 4.16 2.27 7.41-1.36l-.36 1.68h3.64l2.3-11.21c1.73-11.07-11.05-7.14-11.05-7.14l-.7 3.98c9.41-4.23 7.82 3.14 7.82 3.14zm-.61 4.64c-4.18 4.41-6.87 1.52-6.87 1.52-1.82-1.82.18-3.68.18-3.68 2.77-2.59 7 .25 7 .25zm22.31-9.3h5.78l.68-3.68h-5.78l.98-5.39h-.02l-4.39 3.57-.32 1.8h-4.55l1.32-7.25c.32-2.73 4.32-1.91 4.91-1.75l.64-3.5c-7.21-2.89-9.3 5.25-9.3 5.25l-1.32 7.25h-.02l-4.5 3.68h3.87l-4.26 23.19h3.75l4.23-23.17h4.55l-1.66 9.07c-1.05 6.59 5.3 5.87 7.32 5.46l.64-3.46c-4.84 1.14-4.21-2-4.21-2z" fill="currentColor"></path>
</svg>