<svg xmlns="http://www.w3.org/2000/svg" width="59" height="40" viewBox="0 0 59 40">
<path fill="#25222C" d="M30.93,10.05c-1.27,0-2.43,0.72-3.48,2.1c-1.49,1.93-2.54,4.64-3.15,8.07l-0.11,0.44l0.44-0.06
c2.76-0.5,4.75-1.33,6.03-2.43c1.71-1.55,2.6-3.37,2.6-5.31c0-0.88-0.22-1.55-0.66-2.05C32.15,10.33,31.6,10.05,30.93,10.05z
M32.76,8.56c1.93,0,3.48,0.44,4.53,1.33c1.05,0.88,1.55,1.99,1.55,3.32c0,1.11-0.44,2.21-1.27,3.37c-0.88,1.11-2.32,2.16-4.26,2.98
c-1.99,0.83-5.09,1.66-9.12,2.32l-0.22,0.06l-0.11,1.66c0,1.66,0.44,2.98,1.33,3.87c0.88,0.94,2.05,1.38,3.48,1.38
c1.22,0,2.38-0.28,3.54-0.83c1.11-0.55,2.43-1.55,3.98-3.04c0.22,0.17,0.77,0.55,0.99,0.94c-1.71,1.77-3.43,3.04-5.09,3.81
c-1.71,0.77-3.59,1.16-5.58,1.16c-2.82,0-5.03-0.72-6.63-2.27c-1.55-1.55-2.38-3.65-2.38-6.25c0-2.38,0.72-4.64,2.05-6.8
c1.38-2.16,3.26-3.87,5.58-5.14C27.51,9.17,30.05,8.56,32.76,8.56z M27.78,0.6c14.76-2.38,27.75,2.49,30.13,11.77
c1.49,5.97-1.66,12.38-7.79,17.58l4.7,2.76l-17.58,4.53c0.17-0.06,0.39-0.17,0.61-0.28l0,0l-0.22,0.1
c-0.07,0.03-0.15,0.06-0.22,0.08l-0.22,0.1c9.4-4.31,14.87-13.76,12.55-22.77C47.41,5.46,38.12-0.18,27.78,0.6z M21.1,2.75
C11.7,7.07,6.23,16.52,8.55,25.53c2.32,9.01,11.61,14.65,21.94,13.87C15.73,41.78,2.74,36.91,0.37,27.63
c-1.49-5.97,1.66-12.38,7.79-17.58l-4.7-2.76l17.58-4.53c-0.17,0.06-0.39,0.17-0.61,0.28l0,0l0.22-0.09
c0.07-0.03,0.15-0.06,0.22-0.08L21.1,2.75z"/>
</svg>