<svg xmlns="http://www.w3.org/2000/svg" width="100px" height="48px" viewBox="0 0 100 48">
  <path d="M90.6,24.2c-0.1-1.3,0.5-2.6,1.7-3.3c1.1-0.7,2.5-0.7,3.7,0c1.1,0.7,1.8,2,1.7,3.3c0.1,1.3-0.5,2.6-1.7,3.3c-1.1,0.7-2.5,0.7-3.7,0C91.2,26.9,90.5,25.6,90.6,24.2z M97.7,19.9c-1-1-2.4-1.6-3.8-1.6c-3.2,0-5.4,2.7-5.4,5.8s2.2,5.8,5.4,5.8c1.4,0,2.8-0.6,3.8-1.6v1.3h2.1V18.5h-2.1V19.9z M75.2,20.5c-1.3,0-2.3,1-2.3,2.3v7.1h-2.1V18.7h2.1v0.9c0.7-0.9,1.7-1.4,2.8-1.4c1.4,0,2.6,0.7,3.3,1.9c0.8-1.2,2-1.9,3.3-1.9c2.4,0,4,2,4,4.4v7.1h-2.1v-7.1c0.1-0.9-0.3-1.8-1-2.3c-0.8-0.5-1.7-0.5-2.5,0c-0.8,0.5-1.2,1.4-1,2.3v7.1h-2.1v-7.1C77.5,21.5,76.4,20.4,75.2,20.5L75.2,20.5z M59.5,23.6c-0.1-1.1,0.4-2.2,1.4-2.8c0.9-0.6,2.1-0.6,3.1,0c0.9,0.6,1.5,1.6,1.4,2.8c0.1,1.1-0.4,2.2-1.4,2.8s-2.1,0.6-3.1,0C60,25.7,59.4,24.7,59.5,23.6z M62.2,18.3c-2.9,0-4.8,2.5-4.8,5.3s2,5.2,4.8,5.2c1.2,0,2.3-0.5,3.2-1.3V29c0,0.9-0.4,1.7-1,2.4c-0.6,0.6-1.5,1-2.4,1c-0.7,0-1.3-0.2-1.9-0.6L59,33.6c1.7,1.1,3.8,1.2,5.6,0.2c1.8-1,2.9-2.8,2.9-4.8V18.6h-2.1v1C64.5,18.8,63.4,18.3,62.2,18.3L62.2,18.3z M52.1,18.6v11.2h2.1V18.6H52.1L52.1,18.6z M53.2,16.5c0.4,0,0.7-0.1,1-0.4s0.4-0.6,0.4-1c0-0.8-0.6-1.3-1.4-1.3c-0.8,0-1.4,0.6-1.4,1.4c0,0.4,0.1,0.7,0.4,1c0.3,0.3,0.6,0.4,1,0.4L53.2,16.5z M40.5,13.2v16.6h2.1v-7.9h5.1v-2.1h-5.1v-4.5h6.7v-2.1H40.5z M32,24c0,4.4-3.6,8-8,8c-4.1,0-7.5-3-8-7l0,7l0,0v8c0,4.4-3.6,8-8,8c-4.4,0-8-3.6-8-8s3.6-8,8-8l-0.1,0l-0.2,0C3.4,31.9,0,28.3,0,24v0c0-4.4,3.6-8,8-8c-4.4,0-8-3.6-8-8v0c0-4.4,3.6-8,8-8h15.9c4.4,0,8,3.6,8,8s-3.6,8-8,8L16,16v7c0.5-3.9,3.9-7,7.9-7C28.3,16,31.9,19.6,32,24L32,24z" fill="currentColor"></path>
</svg>