<svg xmlns="http://www.w3.org/2000/svg" width="142" height="40" viewBox="0 0 142 40">
<path fill="#25222C" d="M56.02,10.04c0.88,0.18,1.51,0.96,1.51,1.86c0.01,0.51-0.19,0.99-0.55,1.34h0c-0.63,0.64-1.62,0.74-2.36,0.24
	c-0.74-0.5-1.03-1.47-0.69-2.31C54.27,10.34,55.14,9.86,56.02,10.04z M134.62,18.82c-0.93-0.02-1.84,0.32-2.54,0.93
	c-0.74,0.66-1.26,1.53-1.48,2.51l8.16-0.02c-0.06-0.82-0.43-1.6-1.11-2.33C136.97,19.16,135.96,18.8,134.62,18.82z M75.74,18.82
	c-0.93-0.02-1.84,0.32-2.54,0.93c-0.74,0.66-1.26,1.53-1.48,2.51l8.17-0.02c-0.06-0.82-0.43-1.6-1.11-2.33
	C78.1,19.16,77.09,18.8,75.74,18.82z M6.59,0.48l4.24,7.95L0.96,26.12L4.9,0.77c0.06-0.39,0.36-0.69,0.74-0.76
	C6.02-0.05,6.41,0.14,6.59,0.48z M107.07,24.03c-1.28,0-2.25,0.28-2.9,0.85c-0.61,0.47-0.97,1.2-0.98,1.98
	c-0.01,0.68,0.33,1.31,0.9,1.66c0.6,0.41,1.3,0.62,2.02,0.61v-0.01c1.11,0,2.18-0.44,2.98-1.23c0.85-0.73,1.34-1.8,1.35-2.93
	C109.69,24.35,108.57,24.03,107.07,24.03z M91.82,18.8c-1.2,0-2.35,0.51-3.17,1.4c-0.87,0.93-1.31,2.19-1.31,3.76
	s0.44,2.83,1.32,3.77c0.81,0.91,1.96,1.42,3.17,1.4l-0.01-0.01c1.2,0.01,2.36-0.51,3.16-1.42c0.88-0.94,1.32-2.19,1.32-3.75
	s-0.44-2.81-1.32-3.75C94.17,19.32,93.02,18.8,91.82,18.8z M14.47,5.62c0.34,0,0.64,0.19,0.8,0.49l3.03,5.8L0.36,29.97L13.67,6.11
	C13.83,5.81,14.14,5.62,14.47,5.62z M68.85,16.83l-1.01,2.51c-0.45-0.15-0.93-0.22-1.41-0.21c-0.97,0.01-1.89,0.42-2.54,1.15
	c-0.74,0.77-1.11,1.78-1.11,3.02l0,7.82h-2.64V16.83h2.53v2.33h0.11c0.31-0.82,0.89-1.51,1.65-1.93c0.73-0.47,1.57-0.74,2.43-0.76
	C67.54,16.46,68.22,16.58,68.85,16.83z M56.98,16.83v14.29h-2.64V16.83H56.98z M52.01,10.24v2.57h-9.37v6.86h8.45v2.51h-8.45v8.96
	H40V10.24H52.01z M134.68,16.36c2.1,0,3.77,0.69,5.01,2.07c1.25,1.38,1.88,3.23,1.88,5.54l-0.03,0.5h-11.13
	c0.08,1.44,0.55,2.58,1.42,3.42c0.82,0.81,1.92,1.26,3.07,1.25c1.9,0,3.18-0.82,3.85-2.45l2.36,0.99c-0.48,1.13-1.27,2.1-2.27,2.78
	c-1.05,0.74-2.35,1.11-3.88,1.11c-2.13,0-3.86-0.72-5.19-2.16c-1.33-1.44-2-3.26-2-5.46c-0.04-1.97,0.65-3.89,1.94-5.37
	C130.96,17.13,132.78,16.31,134.68,16.36z M120.63,16.36c1.17-0.02,2.32,0.28,3.33,0.86c0.96,0.55,1.7,1.42,2.1,2.47l-2.3,0.95
	c-0.52-1.26-1.59-1.9-3.22-1.9c-0.69-0.02-1.38,0.15-1.98,0.5c-0.49,0.26-0.8,0.78-0.8,1.34c0,0.82,0.62,1.37,1.87,1.66l2.79,0.67
	c1.32,0.3,2.3,0.84,2.93,1.6c0.61,0.71,0.95,1.62,0.95,2.57c0.01,1.26-0.56,2.45-1.55,3.21c-1.03,0.86-2.37,1.29-3.99,1.29
	c-1.57,0-2.87-0.39-3.89-1.17c-1-0.75-1.77-1.76-2.24-2.92l2.36-0.99c0.75,1.79,2.02,2.68,3.82,2.68c0.71,0.03,1.42-0.16,2.02-0.55
	c0.5-0.31,0.8-0.87,0.79-1.46c0-0.93-0.64-1.56-1.93-1.9l-2.84-0.7c-0.94-0.25-1.81-0.7-2.56-1.33c-0.8-0.63-1.25-1.61-1.21-2.64
	c0-1.26,0.55-2.29,1.65-3.08C117.86,16.73,119.23,16.32,120.63,16.36z M106.69,16.35c1.8,0,3.29,0.53,4.49,1.6
	c1.2,1.06,1.79,2.57,1.78,4.52v8.65h-2.54v-1.98h-0.11c-1.06,1.63-2.6,2.44-4.63,2.44c-1.5,0-2.75-0.44-3.75-1.31
	c-1-0.88-1.51-2.03-1.51-3.47c0-1.56,0.59-2.78,1.78-3.66c1.19-0.88,2.65-1.33,4.4-1.33c1.55,0,2.82,0.29,3.82,0.88v-0.41
	c0.04-0.96-0.35-1.89-1.06-2.52c-0.72-0.63-1.66-0.97-2.61-0.94c-0.73-0.01-1.45,0.18-2.08,0.55c-0.59,0.33-1.05,0.87-1.28,1.52
	l-2.41-1.05c0.33-0.86,0.97-1.65,1.93-2.39C103.85,16.71,105.12,16.35,106.69,16.35z M87.47,10.24v6.59l-0.11,1.98h0.11
	c0.47-0.75,1.13-1.35,1.91-1.75c0.89-0.47,1.88-0.71,2.88-0.7c1.82,0,3.39,0.73,4.71,2.19c1.32,1.46,1.98,3.27,1.98,5.43
	c0,2.16-0.66,3.97-1.98,5.43c-1.32,1.46-2.89,2.18-4.71,2.18c-1,0.02-1.99-0.21-2.88-0.68c-0.78-0.4-1.44-1-1.91-1.75h-0.11v1.98
	h-2.53V10.24H87.47z M75.81,16.36c2.09,0,3.76,0.69,5.01,2.07c1.26,1.38,1.88,3.23,1.88,5.54l-0.03,0.5H71.55
	c0.08,1.44,0.55,2.58,1.42,3.42c0.82,0.81,1.92,1.26,3.06,1.25c1.9,0,3.18-0.82,3.85-2.45l2.36,0.99c-0.48,1.13-1.27,2.1-2.27,2.78
	c-1.06,0.74-2.35,1.11-3.88,1.11c-2.13,0-3.86-0.72-5.19-2.16c-1.33-1.44-2-3.25-2-5.44c-0.04-1.97,0.65-3.89,1.94-5.37
	C72.08,17.14,73.9,16.31,75.81,16.36z M23.66,8.45c0.24-0.24,0.59-0.33,0.91-0.22c0.32,0.1,0.56,0.38,0.62,0.71l3.75,23.33
	l-13.21,7.38c-0.82,0.46-1.82,0.46-2.65,0L0,32.27L23.66,8.45z"/>
</svg>
