<svg height="48" viewBox="0 0 55 48" width="55" xmlns="http://www.w3.org/2000/svg"><path d="m38.1 3.34c-.73 0-1.33.59-1.33 1.33.01.73.6 1.33 1.33 1.33s1.33-.59 1.33-1.33c0-.73-.6-1.33-1.33-1.33zm-22.14-.1c-.79 0-1.43.64-1.43 1.43s.64 1.43 1.43 1.43 1.43-.64 1.43-1.43-.64-1.43-1.43-1.43zm-11.17 19.3c-.79 0-1.43.64-1.43 1.43s.64 1.43 1.43 1.43 1.43-.64 1.43-1.43c.01-.79-.64-1.43-1.43-1.43zm44.46 0c-.79 0-1.43.64-1.43 1.43s.64 1.43 1.43 1.43 1.43-.64 1.43-1.43-.64-1.43-1.43-1.43zm-22.18-5.99c4.09 0 7.42 3.33 7.42 7.42s-3.33 7.42-7.42 7.42-7.42-3.33-7.42-7.42 3.33-7.42 7.42-7.42zm8.34-7.06h-16.74l-8.29 14.32 8.47 14.48h16.58l-1.89 3.34 10.04-17.74zm-19.45 32.14c-.79 0-1.43.64-1.43 1.43s.64 1.43 1.43 1.43 1.43-.64 1.43-1.43-.64-1.43-1.43-1.43zm22.14 0c-.79 0-1.43.64-1.43 1.43s.64 1.43 1.43 1.43 1.43-.64 1.43-1.43-.64-1.43-1.43-1.43zm.72-41.63c1.11 0 2.45.74 3.08 1.68l.1.16 4.77 8.26 6.97 12.07c.55.95.58 2.46.1 3.48l-.1.2-11.73 20.31c-.55.96-1.87 1.75-3 1.83l-.19.01h-9.5-13.96c-1.11 0-2.45-.74-3.08-1.68l-.1-.16-11.74-20.32c-.55-.95-.58-2.46-.1-3.48l.1-.2 4.88-8.45 6.86-11.88c.55-.96 1.87-1.75 3-1.83h.18z" fill="#25222c"/></svg>