<svg xmlns="http://www.w3.org/2000/svg" width="55" height="48" viewBox="0 0 55 48">
<path d="M38.1,3.34c-0.73,0-1.33,0.59-1.33,1.33C36.78,5.4,37.37,6,38.1,6c0.73,0,1.33-0.59,1.33-1.33
	C39.43,3.94,38.83,3.34,38.1,3.34z M15.96,3.24c-0.79,0-1.43,0.64-1.43,1.43c0,0.79,0.64,1.43,1.43,1.43c0.79,0,1.43-0.64,1.43-1.43
	C17.39,3.88,16.75,3.24,15.96,3.24z M4.79,22.54c-0.79,0-1.43,0.64-1.43,1.43c0,0.79,0.64,1.43,1.43,1.43
	c0.79,0,1.43-0.64,1.43-1.43C6.23,23.18,5.58,22.54,4.79,22.54z M49.25,22.54c-0.79,0-1.43,0.64-1.43,1.43
	c0,0.79,0.64,1.43,1.43,1.43c0.79,0,1.43-0.64,1.43-1.43C50.68,23.18,50.04,22.54,49.25,22.54z M27.07,16.55
	c4.09,0,7.42,3.33,7.42,7.42c0,4.09-3.33,7.42-7.42,7.42c-4.09,0-7.42-3.33-7.42-7.42C19.65,19.88,22.98,16.55,27.07,16.55z
	 M35.41,9.49H18.67l-8.29,14.32l8.47,14.48h16.58l-1.89,3.34l10.04-17.74L35.41,9.49z M15.96,41.63c-0.79,0-1.43,0.64-1.43,1.43
	c0,0.79,0.64,1.43,1.43,1.43c0.79,0,1.43-0.64,1.43-1.43C17.39,42.27,16.75,41.63,15.96,41.63z M38.1,41.63
	c-0.79,0-1.43,0.64-1.43,1.43c0,0.79,0.64,1.43,1.43,1.43c0.79,0,1.43-0.64,1.43-1.43C39.53,42.27,38.89,41.63,38.1,41.63z M38.82,0
	c1.11,0,2.45,0.74,3.08,1.68l0.1,0.16l4.77,8.26l6.97,12.07c0.55,0.95,0.58,2.46,0.1,3.48l-0.1,0.2L42.01,46.16
	c-0.55,0.96-1.87,1.75-3,1.83L38.82,48l-9.5,0l0,0H15.36c-1.11,0-2.45-0.74-3.08-1.68l-0.1-0.16L0.44,25.84
	c-0.55-0.95-0.58-2.46-0.1-3.48l0.1-0.2l4.88-8.45l6.86-11.88c0.55-0.96,1.87-1.75,3-1.83L15.36,0H38.82z"/>
</svg>
