<svg xmlns="http://www.w3.org/2000/svg" width="95" height="40" viewBox="0 0 95 40">
<path d="M73.76,0.26c2.19,0,3.43,1.17,3.43,3.31c0,2.15-1.24,3.39-3.43,3.39c-2.15,0-3.39-1.24-3.39-3.39
	C70.37,1.42,71.62,0.26,73.76,0.26z M56.66,13.7c-2.07,0-3.62,1.02-3.62,3.47c0,1.85,1.02,3.13,3.51,3.13c2.11,0,3.54-1.24,3.54-3.2
	C60.09,14.87,58.81,13.7,56.66,13.7z M77.12,9.98v15.64c0,0.6,0.04,0.68,0.6,0.76l1.92,0.26v2.98H68.9v-2.98l1.92-0.26
	c0.53-0.08,0.6-0.19,0.6-0.76V14.54c0-0.41-0.11-0.68-0.49-0.79l-2.03-0.72l0.41-3.05H77.12z M87.91,3.84v5.35
	c0,0.26,0,0.38,0.3,0.38h5.31v3.77h-5.61v9c0,2.22,0.53,3.09,2.56,3.09c1.06,0,2.15-0.26,3.05-0.6l1.02,3.32
	c-1.62,0.79-3.99,1.51-6.14,1.51c-4.48,0-6.18-1.81-6.18-6.07v-9.87c0-0.23,0-0.38-0.3-0.38h-2.64V9.98
	c3.32-0.38,4.63-2.04,5.05-6.14H87.91z M52.52,30.99c-0.49,0.6-0.98,1.24-0.98,2c0,1.51,1.92,1.96,4.56,1.96
	c2.19,0,5.16-0.15,5.16-2.19c0-1.21-1.43-1.28-3.24-1.4L52.52,30.99z M56.32,9.97c1.62,0,2.6,0.15,3.47,0.38h7.35v3.2l-3.47,0.26
	c0.68,0.87,1.39,2.07,1.39,3.81c0,4.18-3.28,6.63-8.02,6.63c-1.21,0-2.3-0.15-2.98-0.34l-1.24,2l3.69,0.23
	c6.52,0.42,10.36,0.6,10.36,5.61c0,4.33-3.8,6.78-10.36,6.78c-6.82,0-9.42-1.73-9.42-4.71c0-1.7,0.75-2.6,2.07-3.84
	c-1.24-0.53-1.66-1.47-1.66-2.49c0-0.83,0.41-1.58,1.09-2.3c0.68-0.71,1.43-1.43,2.34-2.26c-1.85-0.9-3.24-2.86-3.24-5.65
	C47.69,12.94,50.56,9.97,56.32,9.97z M17.89,1.03c0.99-0.99,2.6-0.99,3.59,0l17.23,17.23c0.99,0.99,0.99,2.6,0,3.6L21.57,39
	c-0.99,0.99-2.6,0.99-3.59,0L0.74,21.77c-0.99-0.99-0.99-2.6,0-3.59L12.56,6.37l4.47,4.47c-0.46,1.1-0.24,2.41,0.65,3.31
	c0.29,0.29,0.63,0.51,0.99,0.66v10.83c-0.36,0.15-0.7,0.37-0.99,0.66c-1.18,1.18-1.18,3.09,0,4.28c1.18,1.18,3.09,1.18,4.28,0
	c1.18-1.18,1.18-3.1,0-4.28c-0.24-0.24-0.51-0.43-0.8-0.57l0-10.73l4.08,4.08c-0.45,1.09-0.23,2.4,0.66,3.29
	c1.18,1.18,3.1,1.18,4.28,0c1.18-1.18,1.18-3.1,0-4.28c-0.85-0.85-2.07-1.08-3.12-0.72l-4.37-4.37c0.36-1.06,0.13-2.28-0.72-3.12
	c-0.84-0.84-2.05-1.08-3.1-0.72l-4.54-4.54L17.89,1.03z"/>
</svg>
