<svg height="40" viewBox="0 0 95 40" width="95" xmlns="http://www.w3.org/2000/svg"><path d="m73.76.26c2.19 0 3.43 1.17 3.43 3.31 0 2.15-1.24 3.39-3.43 3.39-2.15 0-3.39-1.24-3.39-3.39s1.25-3.31 3.39-3.31zm-17.1 13.44c-2.07 0-3.62 1.02-3.62 3.47 0 1.85 1.02 3.13 3.51 3.13 2.11 0 3.54-1.24 3.54-3.2 0-2.23-1.28-3.4-3.43-3.4zm20.46-3.72v15.64c0 .6.04.68.6.76l1.92.26v2.98h-10.74v-2.98l1.92-.26c.53-.08.6-.19.6-.76v-11.08c0-.41-.11-.68-.49-.79l-2.03-.72.41-3.05zm10.79-6.14v5.35c0 .26 0 .38.3.38h5.31v3.77h-5.61v9c0 2.22.53 3.09 2.56 3.09 1.06 0 2.15-.26 3.05-.6l1.02 3.32c-1.62.79-3.99 1.51-6.14 1.51-4.48 0-6.18-1.81-6.18-6.07v-9.87c0-.23 0-.38-.3-.38h-2.64v-3.36c3.32-.38 4.63-2.04 5.05-6.14zm-35.39 27.15c-.49.6-.98 1.24-.98 2 0 1.51 1.92 1.96 4.56 1.96 2.19 0 5.16-.15 5.16-2.19 0-1.21-1.43-1.28-3.24-1.4zm3.8-21.02c1.62 0 2.6.15 3.47.38h7.35v3.2l-3.47.26c.68.87 1.39 2.07 1.39 3.81 0 4.18-3.28 6.63-8.02 6.63-1.21 0-2.3-.15-2.98-.34l-1.24 2 3.69.23c6.52.42 10.36.6 10.36 5.61 0 4.33-3.8 6.78-10.36 6.78-6.82 0-9.42-1.73-9.42-4.71 0-1.7.75-2.6 2.07-3.84-1.24-.53-1.66-1.47-1.66-2.49 0-.83.41-1.58 1.09-2.3.68-.71 1.43-1.43 2.34-2.26-1.85-.9-3.24-2.86-3.24-5.65 0-4.34 2.87-7.31 8.63-7.31zm-38.43-8.94c.99-.99 2.6-.99 3.59 0l17.23 17.23c.99.99.99 2.6 0 3.6l-17.14 17.14c-.99.99-2.6.99-3.59 0l-17.24-17.23c-.99-.99-.99-2.6 0-3.59l11.82-11.81 4.47 4.47c-.46 1.1-.24 2.41.65 3.31.29.29.63.51.99.66v10.83c-.36.15-.7.37-.99.66-1.18 1.18-1.18 3.09 0 4.28 1.18 1.18 3.09 1.18 4.28 0 1.18-1.18 1.18-3.1 0-4.28-.24-.24-.51-.43-.8-.57v-10.73l4.08 4.08c-.45 1.09-.23 2.4.66 3.29 1.18 1.18 3.1 1.18 4.28 0s1.18-3.1 0-4.28c-.85-.85-2.07-1.08-3.12-.72l-4.37-4.37c.36-1.06.13-2.28-.72-3.12-.84-.84-2.05-1.08-3.1-.72l-4.54-4.54z" fill="#25222c"/></svg>