<svg xmlns="http://www.w3.org/2000/svg" width="26" height="56" viewBox="0 0 26 56">
<path fill="#25222C" d="M15.01,14.4c-0.2,0.07-0.32,0.16-0.32,0.25c0,0.23,0.67,0.41,1.5,0.41c0.83,0,1.5-0.18,1.5-0.41c0-0.09-0.1-0.17-0.27-0.23
l-0.02,0.09c0,0.15-0.54,0.26-1.21,0.26c-0.67,0-1.21-0.12-1.21-0.26c0-0.01,0-0.02,0.01-0.04L15.01,14.4z M23.6,0.06
c0.15-0.15,0.63-0.02,1.08,0.38c0.45,0.4,0.72,0.86,0.58,1.02l-0.01,0.01L18.98,8.1l-1.1,4.45c4.37,0.27,7.41,0.88,7.41,1.59
c0,0.96-5.66,1.74-12.64,1.74S0,15.1,0,14.14c0-0.96,5.66-1.74,12.64-1.74c0.99,0,1.95,0.02,2.87,0.05l1.38-5.32L23.6,0.06
C23.6,0.06,23.6,0.06,23.6,0.06z M25.15,15.08l-1.62,14.96c-0.34,0.3-0.64,0.56-0.89,0.78c-0.37,0.32-0.68,0.58-0.92,0.77
c-0.24,0.19-0.43,0.32-0.56,0.4c-0.13,0.08-0.24,0.12-0.31,0.12c-0.09,0-0.15-0.02-0.18-0.05c-0.04-0.04-0.06-0.08-0.06-0.14
c0-0.04,0.06-0.13,0.16-0.25c0.1-0.12,0.23-0.27,0.39-0.45c0.15-0.18,0.32-0.37,0.49-0.59c0.17-0.21,0.34-0.44,0.49-0.66
c0.15-0.23,0.28-0.45,0.38-0.68c0.1-0.22,0.15-0.44,0.15-0.63c0-0.15-0.03-0.28-0.1-0.39c-0.06-0.11-0.15-0.21-0.25-0.28
c-0.1-0.07-0.22-0.13-0.35-0.17c-0.13-0.04-0.27-0.06-0.4-0.06c-0.2,0-0.39,0.04-0.59,0.12c-0.2,0.08-0.39,0.19-0.57,0.32
c-0.19,0.13-0.37,0.28-0.54,0.44c-0.18,0.16-0.34,0.32-0.49,0.49c0.01-0.03,0.03-0.07,0.04-0.14c0.01-0.06,0.03-0.13,0.04-0.2
c0.01-0.07,0.02-0.14,0.03-0.2c0.01-0.06,0.01-0.11,0.01-0.14c0-0.14-0.04-0.25-0.11-0.33C19.3,28.03,19.19,28,19.02,28
c-0.11,0-0.2,0.06-0.3,0.17c-0.09,0.11-0.17,0.25-0.25,0.4c-0.07,0.15-0.14,0.31-0.2,0.47c-0.06,0.16-0.1,0.28-0.13,0.37
c-0.06,0.2-0.12,0.4-0.19,0.6c-0.04,0.01-0.07,0.03-0.09,0.06c-0.11,0.12-0.24,0.24-0.39,0.38c-0.14,0.14-0.3,0.27-0.46,0.41
c-0.16,0.14-0.32,0.27-0.48,0.4c-0.16,0.13-0.32,0.24-0.46,0.34c-0.15,0.1-0.29,0.18-0.42,0.24c-0.13,0.06-0.24,0.09-0.32,0.09
c-0.07,0-0.12-0.02-0.14-0.07c-0.02-0.04-0.04-0.1-0.04-0.17c0-0.12,0.02-0.25,0.06-0.39c0.04-0.15,0.09-0.28,0.13-0.39
c0.1-0.26,0.22-0.57,0.36-0.92c0.14-0.35,0.29-0.73,0.45-1.12c0.16-0.4,0.33-0.8,0.49-1.22c0.17-0.42,0.33-0.82,0.49-1.2
c0.16-0.39,0.31-0.74,0.45-1.07c0.14-0.33,0.26-0.61,0.36-0.83c0.05-0.11,0.1-0.21,0.13-0.31c0.03-0.1,0.05-0.19,0.05-0.27
c0-0.18-0.05-0.32-0.16-0.4c-0.1-0.08-0.22-0.12-0.34-0.12c-0.13,0-0.25,0.04-0.38,0.12c-0.12,0.08-0.22,0.21-0.3,0.4l-1.85,4.67
c-0.12,0.31-0.26,0.65-0.4,1.02c-0.15,0.37-0.29,0.74-0.43,1.12c-0.08,0.2-0.15,0.42-0.2,0.65c-0.05,0.04-0.1,0.08-0.15,0.12
c-0.21,0.16-0.4,0.28-0.59,0.37c-0.19,0.09-0.34,0.13-0.47,0.13c-0.18,0-0.27-0.09-0.27-0.26c0-0.19,0.03-0.39,0.08-0.61
c0.06-0.22,0.12-0.44,0.21-0.67c0.08-0.23,0.17-0.45,0.27-0.68c0.1-0.22,0.19-0.43,0.27-0.63c0.08-0.2,0.15-0.37,0.21-0.52
c0.06-0.15,0.08-0.27,0.08-0.36c0-0.15-0.04-0.29-0.13-0.4c-0.09-0.11-0.2-0.17-0.35-0.17c-0.13,0-0.25,0.05-0.34,0.16
c-0.09,0.11-0.17,0.24-0.24,0.4c-0.07,0.16-0.13,0.33-0.19,0.52c-0.06,0.19-0.13,0.36-0.2,0.53c-0.11,0.25-0.25,0.52-0.41,0.81
c-0.16,0.3-0.35,0.57-0.55,0.83c-0.2,0.26-0.43,0.47-0.67,0.65c-0.24,0.17-0.49,0.26-0.76,0.26c-0.09,0-0.16-0.04-0.2-0.11
c-0.04-0.07-0.06-0.15-0.06-0.24c0.01-0.21,0.04-0.42,0.1-0.64c0.06-0.22,0.13-0.44,0.22-0.65c0.09-0.21,0.18-0.42,0.28-0.61
c0.1-0.2,0.19-0.38,0.28-0.55c0.09-0.17,0.17-0.32,0.24-0.46c0.07-0.13,0.11-0.24,0.13-0.32c0.01-0.04,0.02-0.09,0.02-0.14
c0-0.07-0.02-0.14-0.05-0.19c-0.03-0.06-0.08-0.1-0.13-0.14c-0.05-0.04-0.11-0.06-0.17-0.08c-0.06-0.02-0.12-0.03-0.18-0.03
c-0.13,0-0.25,0.04-0.36,0.12c-0.11,0.08-0.21,0.21-0.3,0.39c-0.33,0.69-0.59,1.29-0.78,1.77c-0.18,0.49-0.32,0.88-0.41,1.19
c-0.09,0.31-0.14,0.53-0.16,0.67c-0.02,0.14-0.02,0.22-0.02,0.22c0,0.21,0.03,0.38,0.09,0.52c0.06,0.14,0.13,0.25,0.23,0.33
c0.09,0.08,0.2,0.14,0.33,0.17c0.12,0.03,0.25,0.05,0.39,0.05c0.3,0,0.57-0.05,0.82-0.15c0.25-0.1,0.48-0.23,0.68-0.39
c0.2-0.16,0.38-0.34,0.54-0.53c0.16-0.19,0.29-0.38,0.4-0.57c-0.06,0.29-0.1,0.55-0.1,0.77c0,0.31,0.06,0.54,0.18,0.67
c0.12,0.13,0.28,0.2,0.48,0.2c0.2,0,0.42-0.05,0.66-0.16c0.24-0.11,0.49-0.25,0.75-0.43c0.07-0.05,0.14-0.11,0.22-0.16
c0.01,0.04,0.01,0.09,0.02,0.13c0.03,0.13,0.08,0.23,0.14,0.33c0.07,0.09,0.16,0.16,0.27,0.22c0.11,0.05,0.25,0.08,0.42,0.08
c0.24,0,0.5-0.06,0.75-0.17c0.26-0.12,0.52-0.27,0.78-0.47c0.26-0.2,0.53-0.42,0.79-0.68l0.04-0.04c-0.04,0.1-0.08,0.2-0.13,0.29
c-0.21,0.48-0.43,0.95-0.66,1.44c-0.23,0.48-0.45,0.97-0.67,1.45c-0.03,0.09-0.07,0.18-0.11,0.27c-0.04,0.09-0.08,0.19-0.11,0.29
c-0.04,0.1-0.07,0.2-0.09,0.3c-0.02,0.1-0.04,0.2-0.04,0.3c0,0.2,0.05,0.33,0.14,0.4c0.1,0.07,0.22,0.1,0.36,0.1
c0.11,0,0.22-0.03,0.31-0.08c0.09-0.05,0.17-0.12,0.24-0.2c0.07-0.08,0.13-0.18,0.19-0.29c0.05-0.11,0.1-0.23,0.14-0.35
c0.01-0.04,0.04-0.13,0.09-0.25c0.04-0.12,0.1-0.26,0.16-0.42c0.06-0.16,0.12-0.33,0.19-0.51c0.07-0.18,0.13-0.35,0.19-0.51
c0.06-0.16,0.11-0.3,0.16-0.42c0.05-0.12,0.08-0.2,0.1-0.25c0.02-0.03,0.04-0.1,0.08-0.18c0.04-0.09,0.08-0.19,0.13-0.3
c0.05-0.11,0.1-0.23,0.16-0.36c0.06-0.13,0.11-0.25,0.17-0.37c0.05-0.12,0.1-0.23,0.15-0.33c0.04-0.1,0.08-0.17,0.1-0.22
c0.08-0.17,0.18-0.35,0.3-0.55c0.12-0.2,0.24-0.4,0.38-0.6c0.14-0.2,0.29-0.39,0.45-0.57c0.16-0.18,0.33-0.35,0.49-0.49
c0.17-0.14,0.34-0.26,0.51-0.34c0.17-0.08,0.34-0.13,0.5-0.13c0.09,0,0.16,0.02,0.2,0.05c0.04,0.03,0.06,0.08,0.06,0.14
c0,0.1-0.05,0.22-0.15,0.38c-0.1,0.15-0.22,0.32-0.37,0.51c-0.15,0.19-0.31,0.38-0.49,0.59c-0.18,0.21-0.34,0.41-0.49,0.62
c-0.15,0.2-0.29,0.4-0.4,0.59c-0.11,0.19-0.17,0.35-0.19,0.5c0,0.02-0.01,0.04-0.01,0.06v0.05c0,0.24,0.08,0.42,0.25,0.56
c0.17,0.14,0.41,0.2,0.72,0.2c0.33,0,0.64-0.06,0.93-0.19c0.29-0.13,0.59-0.3,0.89-0.53c0.3-0.23,0.63-0.5,0.97-0.82
c0.09-0.09,0.19-0.17,0.29-0.26l-1.19,10.35c-0.21,0.54-4.28,1.87-9.65,1.87c-5.36,0-9.43-1.33-9.65-1.87l-0.83-8.7
c0.03,0.03,0.07,0.05,0.11,0.07c0.21,0.13,0.45,0.19,0.74,0.19c0.25,0,0.51-0.06,0.78-0.18c0.27-0.12,0.54-0.28,0.8-0.47
C4.74,32.45,5,32.24,5.25,32c0.25-0.24,0.49-0.48,0.7-0.72c-0.07,0.23-0.16,0.48-0.25,0.77c-0.09,0.29-0.18,0.56-0.26,0.83
c-0.08,0.27-0.15,0.51-0.2,0.72c-0.06,0.21-0.09,0.36-0.09,0.43l0,0.06l0,0.05v0.1c0,0.23,0.03,0.39,0.09,0.48
c0.06,0.09,0.15,0.13,0.28,0.13c0.08,0,0.15-0.03,0.23-0.08c0.07-0.06,0.14-0.13,0.2-0.21c0.06-0.08,0.11-0.17,0.16-0.27
c0.04-0.09,0.08-0.18,0.1-0.26c0.01-0.02,0.03-0.1,0.07-0.23c0.04-0.13,0.08-0.29,0.14-0.48c0.05-0.19,0.12-0.41,0.19-0.65
c0.07-0.24,0.14-0.48,0.22-0.73c0.08-0.25,0.15-0.49,0.22-0.73c0.07-0.24,0.14-0.45,0.2-0.65c0.06-0.19,0.11-0.35,0.16-0.48
c0.04-0.13,0.07-0.2,0.09-0.23c0.07-0.21,0.15-0.42,0.23-0.61c0.08-0.2,0.15-0.39,0.21-0.58c0.06-0.19,0.12-0.39,0.16-0.59
c0.04-0.2,0.06-0.42,0.06-0.65c0-0.09-0.01-0.16-0.04-0.23c-0.03-0.07-0.06-0.12-0.11-0.16c-0.04-0.04-0.1-0.07-0.15-0.09
c-0.06-0.02-0.11-0.03-0.17-0.03c-0.12,0-0.23,0.04-0.35,0.12c-0.11,0.08-0.2,0.21-0.27,0.39l-0.57,1.7
c-0.07,0.14-0.17,0.31-0.31,0.51c-0.14,0.2-0.3,0.4-0.48,0.61c-0.18,0.21-0.37,0.42-0.58,0.63c-0.21,0.21-0.41,0.39-0.62,0.56
c-0.21,0.16-0.4,0.3-0.6,0.4c-0.19,0.1-0.36,0.15-0.51,0.15c-0.13,0-0.25-0.04-0.33-0.11c-0.09-0.07-0.16-0.17-0.21-0.29
c-0.05-0.12-0.09-0.24-0.1-0.39c-0.02-0.14-0.03-0.28-0.03-0.42c0-0.41,0.07-0.86,0.2-1.37c0.13-0.51,0.31-1.02,0.53-1.55
c0.22-0.52,0.48-1.03,0.77-1.53c0.29-0.5,0.6-0.94,0.91-1.33c0.32-0.39,0.64-0.7,0.96-0.94C6.41,23.82,6.71,23.7,7,23.7
c0.18,0,0.35,0.05,0.51,0.16c0.16,0.1,0.3,0.27,0.43,0.5c0.14,0.26,0.26,0.45,0.38,0.59c0.11,0.14,0.23,0.21,0.36,0.21
c0.14,0,0.27-0.06,0.37-0.19c0.1-0.13,0.16-0.3,0.16-0.51c0-0.09-0.01-0.19-0.03-0.29c-0.02-0.1-0.06-0.21-0.13-0.31
c-0.3-0.45-0.62-0.78-0.97-0.98c-0.35-0.2-0.7-0.3-1.08-0.3c-0.32,0-0.65,0.07-0.97,0.21c-0.33,0.14-0.65,0.33-0.97,0.58
c-0.32,0.25-0.64,0.55-0.94,0.89c-0.31,0.34-0.59,0.72-0.86,1.13c-0.27,0.41-0.52,0.85-0.75,1.31c-0.23,0.46-0.43,0.93-0.61,1.41
c-0.09,0.24-0.16,0.47-0.23,0.71L0.16,15.08c0.26,0.14,0.53,0.23,0.69,0.29c0.67,0.22,1.61,0.42,2.8,0.58c2.41,0.34,5.6,0.52,9,0.52
s6.59-0.19,9-0.52c1.19-0.17,2.14-0.36,2.8-0.58C24.62,15.31,24.89,15.22,25.15,15.08z M21.6,42.77l-1.54,2.69l-0.5,8.77
c0,0.97-3.09,1.76-6.9,1.76c-3.81,0-6.9-0.79-6.9-1.76l-0.64-8.68l-1.63-2.78C4,42.99,4.67,43.2,5.5,43.4
c1.22,0.29,3.75,0.79,7.04,0.79c3.28,0,5.82-0.49,7.04-0.79C20.41,43.2,21.09,42.99,21.6,42.77z"/>
</svg>
