<svg height="56" viewBox="0 0 26 56" width="26" xmlns="http://www.w3.org/2000/svg"><path d="m15.01 14.4c-.2.07-.32.16-.32.25 0 .23.67.41 1.5.41s1.5-.18 1.5-.41c0-.09-.1-.17-.27-.23l-.02.09c0 .15-.54.26-1.21.26s-1.21-.12-1.21-.26c0-.01 0-.02.01-.04zm8.59-14.34c.15-.15.63-.02 1.08.38s.72.86.58 1.02l-.01.01-6.27 6.63-1.1 4.45c4.37.27 7.41.88 7.41 1.59 0 .96-5.66 1.74-12.64 1.74s-12.65-.78-12.65-1.74 5.66-1.74 12.64-1.74c.99 0 1.95.02 2.87.05l1.38-5.32zm1.55 15.02-1.62 14.96c-.34.3-.64.56-.89.78-.37.32-.68.58-.92.77s-.43.32-.56.4-.24.12-.31.12c-.09 0-.15-.02-.18-.05-.04-.04-.06-.08-.06-.14 0-.04.06-.13.16-.25s.23-.27.39-.45c.15-.18.32-.37.49-.59.17-.21.34-.44.49-.66.15-.23.28-.45.38-.68.1-.22.15-.44.15-.63 0-.15-.03-.28-.1-.39-.06-.11-.15-.21-.25-.28s-.22-.13-.35-.17-.27-.06-.4-.06c-.2 0-.39.04-.59.12s-.39.19-.57.32c-.19.13-.37.28-.54.44-.18.16-.34.32-.49.49.01-.03.03-.07.04-.14.01-.06.03-.13.04-.2s.02-.14.03-.2.01-.11.01-.14c0-.14-.04-.25-.11-.33-.09-.09-.2-.12-.37-.12-.11 0-.2.06-.3.17-.09.11-.17.25-.25.4-.07.15-.14.31-.2.47s-.1.28-.13.37c-.06.2-.12.4-.19.6-.04.01-.07.03-.09.06-.11.12-.24.24-.39.38-.14.14-.3.27-.46.41s-.32.27-.48.4-.32.24-.46.34c-.15.1-.29.18-.42.24s-.24.09-.32.09c-.07 0-.12-.02-.14-.07-.02-.04-.04-.1-.04-.17 0-.12.02-.25.06-.39.04-.15.09-.28.13-.39.1-.26.22-.57.36-.92s.29-.73.45-1.12c.16-.4.33-.8.49-1.22.17-.42.33-.82.49-1.2.16-.39.31-.74.45-1.07s.26-.61.36-.83c.05-.11.1-.21.13-.31s.05-.19.05-.27c0-.18-.05-.32-.16-.4-.1-.08-.22-.12-.34-.12-.13 0-.25.04-.38.12-.12.08-.22.21-.3.4l-1.85 4.67c-.12.31-.26.65-.4 1.02-.15.37-.29.74-.43 1.12-.08.2-.15.42-.2.65-.05.04-.1.08-.15.12-.21.16-.4.28-.59.37s-.34.13-.47.13c-.18 0-.27-.09-.27-.26 0-.19.03-.39.08-.61.06-.22.12-.44.21-.67.08-.23.17-.45.27-.68.1-.22.19-.43.27-.63s.15-.37.21-.52.08-.27.08-.36c0-.15-.04-.29-.13-.4s-.2-.17-.35-.17c-.13 0-.25.05-.34.16s-.17.24-.24.4-.13.33-.19.52-.13.36-.2.53c-.11.25-.25.52-.41.81-.16.3-.35.57-.55.83s-.43.47-.67.65c-.24.17-.49.26-.76.26-.09 0-.16-.04-.2-.11s-.06-.15-.06-.24c.01-.21.04-.42.1-.64s.13-.44.22-.65.18-.42.28-.61c.1-.2.19-.38.28-.55s.17-.32.24-.46c.07-.13.11-.24.13-.32.01-.04.02-.09.02-.14 0-.07-.02-.14-.05-.19-.03-.06-.08-.1-.13-.14s-.11-.06-.17-.08-.12-.03-.18-.03c-.13 0-.25.04-.36.12s-.21.21-.3.39c-.33.69-.59 1.29-.78 1.77-.18.49-.32.88-.41 1.19s-.14.53-.16.67-.02.22-.02.22c0 .21.03.38.09.52s.13.25.23.33c.09.08.2.14.33.17.12.03.25.05.39.05.3 0 .57-.05.82-.15s.48-.23.68-.39.38-.34.54-.53.29-.38.4-.57c-.06.29-.1.55-.1.77 0 .31.06.54.18.67s.28.2.48.2.42-.05.66-.16.49-.25.75-.43c.07-.05.14-.11.22-.16.01.04.01.09.02.13.03.13.08.23.14.33.07.09.16.16.27.22.11.05.25.08.42.08.24 0 .5-.06.75-.17.26-.12.52-.27.78-.47s.53-.42.79-.68l.04-.04c-.04.1-.08.2-.13.29-.21.48-.43.95-.66 1.44-.23.48-.45.97-.67 1.45-.03.09-.07.18-.11.27s-.08.19-.11.29c-.04.1-.07.2-.09.3s-.04.2-.04.3c0 .2.05.33.14.4.1.07.22.1.36.1.11 0 .22-.03.31-.08s.17-.12.24-.2.13-.18.19-.29c.05-.11.1-.23.14-.35.01-.04.04-.13.09-.25.04-.12.1-.26.16-.42s.12-.33.19-.51.13-.35.19-.51.11-.3.16-.42.08-.2.1-.25c.02-.03.04-.1.08-.18.04-.09.08-.19.13-.3s.1-.23.16-.36.11-.25.17-.37c.05-.12.1-.23.15-.33.04-.1.08-.17.1-.22.08-.17.18-.35.3-.55s.24-.4.38-.6.29-.39.45-.57.33-.35.49-.49c.17-.14.34-.26.51-.34s.34-.13.5-.13c.09 0 .16.02.2.05s.06.08.06.14c0 .1-.05.22-.15.38-.1.15-.22.32-.37.51s-.31.38-.49.59-.34.41-.49.62c-.15.2-.29.4-.4.59s-.17.35-.19.5c0 .02-.01.04-.01.06v.05c0 .24.08.42.25.56s.41.2.72.2c.33 0 .64-.06.93-.19s.59-.3.89-.53.63-.5.97-.82c.09-.09.19-.17.29-.26l-1.19 10.35c-.21.54-4.28 1.87-9.65 1.87-5.36 0-9.43-1.33-9.65-1.87l-.83-8.7c.03.03.07.05.11.07.21.13.45.19.74.19.25 0 .51-.06.78-.18s.54-.28.8-.47c.35-.21.61-.42.86-.66s.49-.48.7-.72c-.07.23-.16.48-.25.77s-.18.56-.26.83-.15.51-.2.72c-.06.21-.09.36-.09.43v.06.05.1c0 .23.03.39.09.48s.15.13.28.13c.08 0 .15-.03.23-.08.07-.06.14-.13.2-.21s.11-.17.16-.27c.04-.09.08-.18.1-.26.01-.02.03-.1.07-.23s.08-.29.14-.48c.05-.19.12-.41.19-.65s.14-.48.22-.73.15-.49.22-.73.14-.45.2-.65c.06-.19.11-.35.16-.48.04-.13.07-.2.09-.23.07-.21.15-.42.23-.61.08-.2.15-.39.21-.58s.12-.39.16-.59.06-.42.06-.65c0-.09-.01-.16-.04-.23s-.06-.12-.11-.16c-.04-.04-.1-.07-.15-.09-.06-.02-.11-.03-.17-.03-.12 0-.23.04-.35.12-.11.08-.2.21-.27.39l-.57 1.7c-.07.14-.17.31-.31.51s-.3.4-.48.61-.37.42-.58.63-.41.39-.62.56c-.21.16-.4.3-.6.4-.19.1-.36.15-.51.15-.13 0-.25-.04-.33-.11-.09-.07-.16-.17-.21-.29s-.09-.24-.1-.39c-.02-.14-.03-.28-.03-.42 0-.41.07-.86.2-1.37s.31-1.02.53-1.55c.22-.52.48-1.03.77-1.53s.6-.94.91-1.33c.32-.39.64-.7.96-.94.31-.23.61-.35.9-.35.18 0 .35.05.51.16.16.1.3.27.43.5.14.26.26.45.38.59.11.14.23.21.36.21.14 0 .27-.06.37-.19s.16-.3.16-.51c0-.09-.01-.19-.03-.29s-.06-.21-.13-.31c-.3-.45-.62-.78-.97-.98s-.7-.3-1.08-.3c-.32 0-.65.07-.97.21-.33.14-.65.33-.97.58s-.64.55-.94.89c-.31.34-.59.72-.86 1.13s-.52.85-.75 1.31-.43.93-.61 1.41c-.09.24-.16.47-.23.71l-1.51-13.74c.26.14.53.23.69.29.67.22 1.61.42 2.8.58 2.41.34 5.6.52 9 .52s6.59-.19 9-.52c1.19-.17 2.14-.36 2.8-.58.17-.06.44-.15.7-.29zm-3.55 27.69-1.54 2.69-.5 8.77c0 .97-3.09 1.76-6.9 1.76s-6.9-.79-6.9-1.76l-.64-8.68-1.63-2.78c.51.22 1.18.43 2.01.63 1.22.29 3.75.79 7.04.79 3.28 0 5.82-.49 7.04-.79.83-.2 1.51-.41 2.02-.63z" fill="#25222c"/></svg>