<svg height="40" viewBox="0 0 143 40" width="143" xmlns="http://www.w3.org/2000/svg"><path d="m45.12 13.12h4.02v5.5h4.9v-5.5h4.02v14.78h-4.02v-6h-4.9v6h-4.02zm18.12 0h10.6v3.31h-6.6v2.38h4.69v3.1h-4.69v2.69h6.88v3.19h-10.9zm21 6.59c1.6 0 2.4-.5 2.4-1.71s-.69-1.71-2.4-1.71h-1.71v3.4zm-5.72-6.59h5.81c3.79 0 6.1 1.31 6.1 4.81 0 2.29-1 3.71-2.9 4.31l3.1 5.71h-4.19l-2.9-5.1h-1.1v5.1h-3.9v-14.83zm26.62 7.28c0-2.71-1.19-4.4-3.31-4.4-2.1 0-3.29 1.71-3.29 4.4s1.19 4.5 3.29 4.5 3.31-1.71 3.31-4.5zm-10.5 0c0-5.4 3.71-7.69 7.31-7.69s7.31 2.29 7.31 7.69-3.71 7.69-7.33 7.69c-3.6.01-7.29-2.19-7.29-7.69zm19-7.28h4.02v5.4l4.1-5.4h4.6l-5 5.81 5.4 9h-4.5l-3.5-5.9-1.1 1.31v4.6h-4.02zm16.79 8.78v-8.79h4.02v8.79c0 2 .69 3 2.29 3s2.19-.9 2.19-3v-8.79h3.93v8.9c0 3.9-1.9 6.21-6.21 6.21-4.32-.12-6.22-2.41-6.22-6.32zm-110.5-9.4h4.02c1.62-1.81 2.67-4.07 2.98-6.5h-4.03c-.45 2.38-1.47 4.62-2.97 6.5zm5.28 5.31c-1.29-1.24-3.02-1.88-4.81-1.81-2.55.07-5.1.52-7.5 1.4v-11.38h-4v17.31l2.81-1.31s4.6-2.1 8.62-2.1c2 0 2.5 1.1 2.5 2.1v12h4.02v-12c.08-1.59-.52-3.12-1.64-4.21zm-16.19 16.19 4.5-4.02-4.5-4.02zm24.91 2.4c.02.88-.69 1.6-1.55 1.6-.02 0-.02 0-.05 0h-28.73c-.89.02-1.6-.69-1.6-1.55 0-.02 0-.02 0-.05v-32.8c-.02-.89.69-1.6 1.55-1.6h.05 28.71c.88-.02 1.6.69 1.6 1.55v.05 32.8zm-1.62-36.4h-28.71c-1.98 0-3.6 1.6-3.6 3.57v.03 32.8c0 1.98 1.6 3.6 3.57 3.6h.03 28.71c1.98 0 3.6-1.6 3.6-3.57v-.03-32.8c0-1.98-1.6-3.6-3.57-3.6-.01 0-.01 0-.03 0z" fill="#25222c"/></svg>