<svg xmlns="http://www.w3.org/2000/svg" width="143" height="40" viewBox="0 0 143 40">
<path fill="#25222C" d="M45.12,13.12h4.02v5.5h4.9v-5.5h4.02V27.9h-4.02v-6h-4.9v6h-4.02V13.12z M63.24,13.12h10.6v3.31h-6.6v2.38h4.69v3.1h-4.69
v2.69h6.88v3.19h-10.9L63.24,13.12z M84.24,19.71c1.6,0,2.4-0.5,2.4-1.71s-0.69-1.71-2.4-1.71h-1.71v3.4L84.24,19.71z M78.52,13.12
h5.81c3.79,0,6.1,1.31,6.1,4.81c0,2.29-1,3.71-2.9,4.31l3.1,5.71h-4.19l-2.9-5.1h-1.1v5.1h-3.9V13.12z M105.14,20.4
c0-2.71-1.19-4.4-3.31-4.4c-2.1,0-3.29,1.71-3.29,4.4c0,2.69,1.19,4.5,3.29,4.5C103.93,24.9,105.14,23.19,105.14,20.4z M94.64,20.4
c0-5.4,3.71-7.69,7.31-7.69c3.6,0,7.31,2.29,7.31,7.69s-3.71,7.69-7.33,7.69C98.33,28.1,94.64,25.9,94.64,20.4z M113.64,13.12h4.02
v5.4l4.1-5.4h4.6l-5,5.81l5.4,9h-4.5l-3.5-5.9l-1.1,1.31v4.6h-4.02V13.12z M130.43,21.9v-8.79h4.02v8.79c0,2,0.69,3,2.29,3
s2.19-0.9,2.19-3v-8.79h3.93v8.9c0,3.9-1.9,6.21-6.21,6.21C132.33,28.1,130.43,25.81,130.43,21.9z M19.93,12.5h4.02
c1.62-1.81,2.67-4.07,2.98-6.5H22.9C22.45,8.38,21.43,10.62,19.93,12.5z M25.21,17.81c-1.29-1.24-3.02-1.88-4.81-1.81
c-2.55,0.07-5.1,0.52-7.5,1.4V6.02h-4v17.31l2.81-1.31c0,0,4.6-2.1,8.62-2.1c2,0,2.5,1.1,2.5,2.1v12h4.02v-12
C26.93,20.43,26.33,18.9,25.21,17.81z M9.02,34l4.5-4.02l-4.5-4.02V34z M33.93,36.4c0.02,0.88-0.69,1.6-1.55,1.6
c-0.02,0-0.02,0-0.05,0H3.6C2.71,38.02,2,37.31,2,36.45c0-0.02,0-0.02,0-0.05V3.6C1.98,2.71,2.69,2,3.55,2C3.57,2,3.57,2,3.6,2
h28.71c0.88-0.02,1.6,0.69,1.6,1.55c0,0.02,0,0.02,0,0.05V36.4H33.93z M32.31,0H3.6C1.62,0,0,1.6,0,3.57V3.6V36.4
C0,38.38,1.6,40,3.57,40H3.6h28.71c1.98,0,3.6-1.6,3.6-3.57V36.4V3.6c0-1.98-1.6-3.6-3.57-3.6C32.33,0,32.33,0,32.31,0z"/>
</svg>
