<svg xmlns="http://www.w3.org/2000/svg" width="121" height="32" viewBox="0 0 121 32">
<path d="M92.3,4.06c0.64,0,1.13,0.18,1.47,0.54c0.35,0.36,0.52,0.81,0.52,1.35c0,0.53-0.17,0.97-0.52,1.32
	c-0.35,0.35-0.84,0.53-1.47,0.53c-0.64,0-1.12-0.18-1.47-0.53c-0.34-0.35-0.51-0.79-0.51-1.32v0c0-0.54,0.17-0.99,0.51-1.35
	C91.17,4.24,91.66,4.06,92.3,4.06z M16.28,0.08c0.35,0.11,0.66,0.4,1.22,0.96l1.2,1.2L15.3,7.51c-0.01,0.02-0.02,0.03-0.03,0.04
	c-0.02,0.01-0.05,0.01-0.07,0c-0.55-0.17-1.14-0.05-1.58,0.3c-0.02,0.02-0.06,0.01-0.08,0c-0.2-0.09-1.04-0.44-1.94-0.82L11.1,6.82
	c-0.9-0.38-1.75-0.74-1.97-0.84l4.79-4.79c0.66-0.66,0.99-0.99,1.38-1.12C15.61-0.03,15.96-0.03,16.28,0.08z M19.42,2.95l3.14,3.14
	l-0.76,4.69v0.01c0,0.01,0,0.02-0.01,0.03c-0.01,0.02-0.02,0.02-0.04,0.02c-0.16,0.05-0.31,0.13-0.45,0.22
	c-0.01,0-0.01,0.01-0.02,0.01c-0.01,0.01-0.02,0.02-0.03,0.02c-0.01,0-0.02,0-0.04-0.01l-4.79-2.04l-0.01,0
	c-0.03-0.01-0.07-0.03-0.07-0.06c-0.03-0.27-0.12-0.52-0.26-0.75c-0.02-0.04-0.05-0.08-0.03-0.12L19.42,2.95z M23.45,6.97l2.99,2.99
	l-3.11,1.32c-0.01,0-0.02,0.01-0.03,0h-0.01c0,0-0.01-0.01-0.02-0.01c-0.12-0.13-0.25-0.24-0.41-0.31l-0.01,0
	c-0.01,0-0.01,0-0.02-0.01c-0.02-0.02-0.03-0.05-0.02-0.08L23.45,6.97z M27.19,10.72l3.19,3.19c0.66,0.66,0.99,0.99,1.12,1.38
	c0.02,0.06,0.03,0.11,0.04,0.17l-7.63-3.23c0,0-0.01,0-0.01,0c-0.03-0.01-0.07-0.03-0.07-0.06c0-0.03,0.04-0.05,0.07-0.06l0.01,0
	L27.19,10.72z M8.38,6.73c0.35,0.15,1.61,0.69,2.75,1.16c0.86,0.36,1.64,0.69,1.88,0.8c0.02,0.01,0.05,0.02,0.06,0.04
	c0.01,0.01,0,0.03,0,0.05c-0.12,0.54,0.04,1.11,0.43,1.51c0.02,0.02,0,0.06-0.02,0.09l-0.01,0.02L9.7,16.22
	c-0.01,0.02-0.02,0.03-0.04,0.04c-0.02,0.01-0.05,0.01-0.07,0c-0.15-0.04-0.3-0.06-0.45-0.06c-0.09,0-0.19,0.01-0.28,0.03
	l-0.15,0.03c-0.02,0-0.03,0.01-0.04,0c-0.01-0.01-0.03-0.03-0.04-0.04l-3.96-5.78h0L8.38,6.73z M63.51,12.54
	c-0.96,0-1.74,0.34-2.33,1.01c-0.59,0.68-0.97,1.62-1.13,2.82h6.69v-0.26c-0.08-1.18-0.39-2.07-0.94-2.67
	C65.24,12.84,64.48,12.54,63.51,12.54z M16.19,10.04l4.49,1.9c0.02,0.01,0.05,0.02,0.06,0.05c0,0.02,0,0.03,0,0.05
	c-0.01,0.07-0.02,0.14-0.02,0.22v0.13c0,0.03-0.03,0.04-0.06,0.06l-0.01,0c-0.71,0.3-9.99,4.26-10,4.26c-0.01,0-0.03,0-0.04-0.01
	c-0.02-0.02,0-0.06,0.02-0.09l0.01-0.02l3.69-5.72l0.01-0.01c0.02-0.03,0.05-0.07,0.09-0.07l0.04,0.01
	c0.08,0.01,0.16,0.02,0.23,0.02c0.56,0,1.08-0.27,1.39-0.74c0.01-0.01,0.02-0.02,0.03-0.03C16.13,10.02,16.16,10.03,16.19,10.04z
	 M3.94,11.16c1.27,1.84,2.54,3.67,3.81,5.51c0.02,0.03,0.05,0.06,0.02,0.09c-0.12,0.13-0.24,0.28-0.33,0.43
	c-0.01,0.02-0.02,0.04-0.04,0.05c-0.01,0.01-0.02,0-0.03,0h0L0,15.7c0.01-0.14,0.03-0.27,0.07-0.41c0.11-0.35,0.4-0.66,0.96-1.22
	L3.94,11.16z M21.16,13.29c0,0,0.01,0,0.03,0.01c0.06,0.06,0.1,0.09,0.15,0.13l0.02,0.01c0.02,0.01,0.04,0.02,0.04,0.05
	c0,0.01,0,0.01,0,0.02l-0.87,5.32l0,0.02c-0.01,0.04-0.01,0.09-0.05,0.09c-0.47,0.03-0.89,0.29-1.13,0.7l0,0.01
	c-0.01,0.02-0.02,0.04-0.04,0.05c-0.02,0.01-0.04,0-0.06,0l-8.07-1.66c-0.01,0-0.13-0.43-0.13-0.43L21.16,13.29z M0.38,16.81
	l6.54,1.36l0.01,0l0.01,0c0.04,0.01,0.08,0.01,0.08,0.05c0,0.04-0.05,0.06-0.09,0.08L6.91,18.3l-3.57,1.51l-2.15-2.15
	C0.83,17.3,0.56,17.03,0.38,16.81z M23.47,13.13l7.95,3.36c-0.16,0.31-0.49,0.63-1.03,1.18l-3.6,3.6l-4.66-0.97l-0.02,0
	c-0.04-0.01-0.08-0.01-0.08-0.05c-0.04-0.39-0.23-0.74-0.54-0.98c-0.02-0.02-0.01-0.05-0.01-0.08c0,0,0-0.01,0-0.01l0.88-5.38
	l0-0.02c0-0.04,0.01-0.09,0.05-0.09c0.38-0.05,0.72-0.24,0.96-0.55c0.01-0.01,0.01-0.02,0.02-0.02
	C23.41,13.1,23.44,13.12,23.47,13.13z M7.48,19.13c0.03,0,0.04,0.03,0.06,0.05c0.03,0.05,0.07,0.1,0.11,0.15l0.01,0.01
	c0.01,0.01,0,0.03-0.01,0.04l-1.85,2.88h0l-1.7-1.7l3.36-1.43C7.46,19.13,7.47,19.13,7.48,19.13z M104.59,3.13
	c0.62,0,1.27,0.09,1.97,0.26l-0.09,2.75c-0.44-0.08-0.89-0.12-1.34-0.12c-1.68,0-2.51,0.86-2.51,2.59v1.39h3.18v2.61h-3.18v13.06
	H99.1V12.61h-2.38v-2.61h2.38V8.57c0-1.74,0.48-3.08,1.44-4.03C101.51,3.6,102.86,3.13,104.59,3.13z M48.5,9.72
	c3.25,0,4.91,1.87,4.97,5.6v10.35h-3.51V15.52c0-0.99-0.21-1.73-0.64-2.21c-0.43-0.48-1.13-0.72-2.1-0.72
	c-1.42,0-2.47,0.64-3.16,1.93v11.15h-3.51V10.01h3.31l0.1,1.81C45.11,10.42,46.63,9.72,48.5,9.72z M94.05,10.01v15.67h-3.51V10.01
	H94.05z M86.49,3.43v22.24h-3.51V3.43H86.49z M77.32,6.2L77.32,6.2l0,3.81h2.76v2.61h-2.76v8.74c0,0.6,0.12,1.03,0.35,1.3
	c0.24,0.27,0.66,0.4,1.26,0.4c0.41,0,0.83-0.05,1.23-0.14v2.72c-0.8,0.22-1.57,0.33-2.31,0.33c-2.7,0-4.04-1.49-4.04-4.47v-8.88
	h-2.57v-2.61h2.57V6.2H77.32z M63.53,9.72c2.13,0,3.77,0.68,4.93,2.04c1.16,1.36,1.74,3.29,1.74,5.78v1.42H59.99
	c0.11,1.29,0.54,2.32,1.29,3.07c0.76,0.75,1.71,1.13,2.85,1.13c1.61,0,2.92-0.65,3.93-1.95l1.89,1.81
	c-0.63,0.94-1.46,1.66-2.51,2.18c-1.05,0.52-2.22,0.77-3.52,0.77h0c-2.22,0-4.03-0.7-5.41-2.11c-1.38-1.4-2.07-3.27-2.07-5.61v-0.43
	c0-1.56,0.3-2.96,0.9-4.19c0.6-1.23,1.45-2.19,2.54-2.87C60.97,10.06,62.19,9.72,63.53,9.72z M21.79,21.24l4.17,0.86l-5.92,5.92
	l1.01-6.23l0-0.01c0-0.01,0-0.02,0-0.02c0.01-0.01,0.02-0.02,0.03-0.03l0.03-0.01c0.22-0.09,0.42-0.24,0.57-0.43
	c0.02-0.02,0.04-0.05,0.07-0.05C21.77,21.23,21.78,21.23,21.79,21.24z M10.92,18.98l8.17,1.69c0.02,0,0.04,0.01,0.06,0.03
	c0.01,0.01,0.01,0.02,0.02,0.04c0.12,0.44,0.43,0.8,0.85,0.97c0.02,0.01,0.01,0.04,0,0.06c-0.01,0.01-0.01,0.02-0.01,0.04
	c-0.06,0.34-0.34,2.1-0.63,3.86l-0.1,0.59c-0.21,1.26-0.4,2.44-0.49,3.02l-0.67,0.67l-7.38-10.66c0,0-0.01-0.01-0.01-0.01
	c-0.01-0.02-0.02-0.03-0.02-0.05c0-0.01,0.01-0.02,0.02-0.03l0.01-0.01c0.02-0.03,0.04-0.07,0.06-0.1l0.02-0.03l0,0
	c0.01-0.02,0.02-0.04,0.04-0.05C10.88,18.97,10.91,18.98,10.92,18.98z M9.96,19.87c0.01,0.01,0.02,0.02,0.02,0.03l7.41,10.75
	l-0.16,0.15c-0.4,0.39-0.66,0.6-0.95,0.69c-0.32,0.1-0.67,0.1-0.99,0c-0.35-0.11-0.66-0.4-1.22-0.96l-7.57-7.57l1.93-3
	c0.01-0.01,0.02-0.03,0.03-0.04c0.02-0.01,0.05-0.01,0.07,0c0.44,0.13,0.92,0.11,1.35-0.07C9.92,19.86,9.94,19.86,9.96,19.87z
	 M110.51,10.01l3.31,10.63L117,10.01h3.74l-6.21,18.04c-0.95,2.63-2.57,3.95-4.85,3.95c-0.51,0-1.07-0.09-1.69-0.26v-2.72l0.66,0.04
	c0.89,0,1.55-0.16,2-0.49c0.45-0.32,0.8-0.87,1.06-1.63l0.5-1.35l-5.49-15.59H110.51z"/>
</svg>
