<svg xmlns="http://www.w3.org/2000/svg" width="92" height="56" viewBox="0 0 92 56">
<path fill="#25222C" d="M55.17,39.96v9.53c0,0.62-0.33,1.19-0.87,1.51l-8.25,4.77c-0.26,0.15-0.56,0.23-0.87,0.23
	c-0.3,0-0.6-0.08-0.87-0.23l-2.76-1.63c-0.41-0.23-0.21-0.31-0.07-0.36c0.55-0.19,0.66-0.23,1.25-0.57c0.06-0.03,0.14-0.02,0.2,0.02
	l2.12,1.26c0.08,0.04,0.18,0.04,0.26,0l8.26-4.76c0.08-0.04,0.13-0.13,0.13-0.22v-9.53c0-0.09-0.05-0.18-0.13-0.23l-8.25-4.76
	c-0.08-0.04-0.18-0.04-0.25,0l-8.25,4.76c-0.08,0.05-0.13,0.14-0.13,0.23v9.53c0,0.09,0.05,0.18,0.13,0.22l2.26,1.31
	c1.23,0.61,1.98-0.11,1.98-0.84v-9.41c0-0.13,0.11-0.24,0.24-0.24h1.05c0.13,0,0.24,0.1,0.24,0.24v9.41c0,1.64-0.89,2.58-2.44,2.58
	c-0.48,0-0.85,0-1.9-0.52l-2.16-1.25c-0.53-0.31-0.87-0.89-0.87-1.51v-9.53c0-0.62,0.33-1.2,0.87-1.5l8.26-4.77
	c0.52-0.3,1.22-0.3,1.73,0l8.25,4.77C54.84,38.77,55.17,39.34,55.17,39.96z M47.73,47.98c-2.18,0-2.67-0.55-2.83-1.64
	c-0.02-0.12-0.12-0.2-0.24-0.2H43.6c-0.13,0-0.24,0.11-0.24,0.24c0,1.39,0.76,3.05,4.37,3.05c2.62,0,4.12-1.03,4.12-2.83
	c0-1.78-1.2-2.26-3.74-2.59c-2.56-0.34-2.82-0.51-2.82-1.11c0-0.5,0.22-1.16,2.12-1.16c1.7,0,2.32,0.37,2.58,1.51
	c0.02,0.11,0.12,0.19,0.23,0.19h1.07c0.07,0,0.13-0.03,0.17-0.08c0.05-0.05,0.07-0.12,0.06-0.18c-0.17-1.97-1.47-2.89-4.12-2.89
	c-2.35,0-3.76,0.99-3.76,2.66c0,1.81,1.4,2.31,3.66,2.53c2.7,0.26,2.91,0.66,2.91,1.19C50.21,47.59,49.47,47.98,47.73,47.98z
	 M19.09,17.8l-8.75-5.04c-0.15-0.09-0.31-0.13-0.48-0.14H9.76c-0.17,0.01-0.33,0.05-0.48,0.14L0.53,17.8C0.2,17.99,0,18.34,0,18.72
	l0.02,13.56c0,0.19,0.1,0.36,0.26,0.46c0.16,0.1,0.36,0.1,0.53,0l5.2-2.98c0.33-0.2,0.53-0.54,0.53-0.92v-6.34
	c0-0.38,0.2-0.73,0.53-0.92l2.21-1.28c0.17-0.1,0.35-0.14,0.53-0.14c0.18,0,0.37,0.05,0.53,0.14l2.21,1.28
	c0.33,0.19,0.53,0.54,0.53,0.92v6.34c0,0.38,0.2,0.72,0.53,0.92l5.2,2.98c0.16,0.1,0.37,0.1,0.53,0c0.16-0.09,0.26-0.27,0.26-0.46
	l0.02-13.56C19.62,18.34,19.42,17.99,19.09,17.8z M67.48,3.91v25.2c0,0.38-0.2,0.73-0.53,0.92l-8.76,5.06
	c-0.33,0.19-0.73,0.19-1.06,0l-8.76-5.06c-0.33-0.19-0.53-0.54-0.53-0.92V18.99c0-0.38,0.2-0.73,0.53-0.92l8.76-5.05
	c0.33-0.19,0.73-0.19,1.06,0l2.19,1.26c0.11,0.07,0.26,0.07,0.37,0c0.11-0.07,0.18-0.19,0.18-0.32V0.54c0-0.19,0.1-0.36,0.26-0.46
	c0.16-0.09,0.36-0.1,0.53-0.01l5.21,2.91C67.28,3.17,67.48,3.52,67.48,3.91z M60.92,22.31c0-0.09-0.05-0.18-0.13-0.23l-3.01-1.74
	c-0.08-0.05-0.18-0.05-0.26,0l-3.01,1.74c-0.08,0.05-0.13,0.13-0.13,0.23v3.47c0,0.09,0.05,0.18,0.13,0.23l3.01,1.73
	c0.08,0.05,0.18,0.05,0.26,0l3.01-1.73c0.08-0.05,0.13-0.13,0.13-0.23V22.31z M90.89,17.94l-8.7-5.05c-0.33-0.19-0.73-0.19-1.06,0
	l-8.75,5.05c-0.33,0.19-0.53,0.54-0.53,0.92v10.11c0,0.38,0.2,0.73,0.53,0.92l8.7,4.96c0.32,0.18,0.71,0.18,1.04,0.01l5.26-2.92
	c0.17-0.09,0.27-0.27,0.27-0.46c0-0.19-0.1-0.37-0.27-0.46l-8.81-5.06c-0.16-0.09-0.27-0.27-0.27-0.46v-3.17
	c0-0.19,0.1-0.36,0.26-0.46l2.74-1.58c0.16-0.09,0.36-0.09,0.53,0l2.74,1.58c0.16,0.09,0.26,0.27,0.26,0.46v2.49
	c0,0.19,0.1,0.36,0.26,0.46c0.16,0.09,0.37,0.09,0.53,0l5.24-3.05c0.33-0.19,0.53-0.54,0.53-0.91v-2.45
	C91.41,18.48,91.21,18.13,90.89,17.94z M81.73,21.75c-0.06-0.04-0.14-0.04-0.2,0l-1.68,0.97c-0.06,0.04-0.1,0.1-0.1,0.18v1.94
	c0,0.07,0.04,0.14,0.1,0.18l1.68,0.97c0.06,0.04,0.14,0.04,0.2,0l1.68-0.97c0.06-0.04,0.1-0.1,0.1-0.18v-1.94
	c0-0.07-0.04-0.14-0.1-0.18L81.73,21.75z M43.27,29.47c0.09-0.16,0.14-0.34,0.14-0.52V18.92v0c0-0.37-0.2-0.72-0.52-0.91L34.21,13
	c-0.14-0.08-0.29-0.12-0.45-0.14c-0.01,0-0.01,0-0.02,0c0,0-0.01,0-0.01,0c0,0-0.01,0-0.01,0c-0.01,0-0.03,0-0.04,0
	c-0.04,0-0.08,0-0.12,0.01c-0.01,0-0.01,0-0.02,0c-0.02,0-0.04,0.01-0.05,0.01c-0.03,0.01-0.06,0.01-0.09,0.02
	c-0.02,0-0.04,0.01-0.05,0.01c-0.02,0.01-0.03,0.02-0.05,0.02c0,0-0.01,0-0.01,0c-0.04,0.02-0.09,0.03-0.13,0.06l-8.59,4.96
	l-0.1,0.06c-0.32,0.19-0.54,0.53-0.54,0.91v10.03c0,0.06,0.01,0.11,0.02,0.16c0,0.01,0.01,0.03,0.01,0.04
	c0.01,0.04,0.02,0.08,0.03,0.12c0,0.01,0.01,0.02,0.01,0.03c0.06,0.16,0.16,0.3,0.3,0.42c0.01,0.01,0.02,0.01,0.02,0.02
	c0.05,0.04,0.09,0.07,0.15,0.1l8.7,5.02c0.06,0.04,0.13,0.06,0.19,0.09c0.02,0.01,0.04,0.01,0.05,0.01
	c0.02,0.01,0.04,0.01,0.06,0.02c0.03,0.01,0.05,0.01,0.08,0.02c0,0,0.01,0,0.01,0c0.01,0,0.02,0,0.03,0c0.04,0,0.07,0.01,0.11,0.01
	c0.18,0,0.36-0.05,0.53-0.14l8.68-5.02C43.05,29.76,43.18,29.63,43.27,29.47z"/>
</svg>
