<svg height="48" viewBox="0 0 65 48" width="65" xmlns="http://www.w3.org/2000/svg"><path d="m45.28 36.28c-.2-.14-.16-.61.5-2.07.26-.57.87-1.53 1.91-2.46.12.37.2.74.19 1.08-.01 2.26-1.63 3.1-2.6 3.45zm-8.56 1.95c-.27.14-.53.23-.64.16-.08-.05.12-.23.12-.23s1.39-1.5 1.94-2.17c.32-.4.69-.87 1.09-1.39v.15c0 1.79-1.73 2.99-2.51 3.48zm-11.09-5.31c-.64 1.57-1.99 5.58-2.81 5.35-.7-.19-1.13-3.23-.14-6.23.5-1.51 1.57-3.31 2.19-4.01 1.01-1.12 2.12-1.5 2.38-1.04.34.6-1.22 4.95-1.62 5.93zm-13.45 9.15c-1.85 2.01-4.42 2.77-5.53 2.13-1.19-.69-.72-3.66 1.54-5.79 1.38-1.3 3.16-2.5 4.34-3.24.27-.16.67-.4 1.15-.69.08-.05.13-.07.13-.07.09-.06.19-.12.28-.18.83 3.04.04 5.72-1.91 7.84zm42.93-14.48c-2.23.01-4.17.55-5.8 1.34-.6-1.18-1.19-2.23-1.3-3-.12-.9-.26-1.45-.12-2.53s.77-2.61.76-2.72c-.01-.12-.14-.67-1.43-.68s-2.4.25-2.53.58c-.13.34-.37 1.11-.54 1.91-.22 1.17-2.57 5.34-3.92 7.53-.43-.85-.81-1.6-.89-2.2-.12-.9-.26-1.45-.12-2.53s.77-2.61.76-2.72c-.01-.12-.14-.67-1.43-.68s-2.4.25-2.53.58c-.13.34-.27 1.13-.54 1.91-.27.77-3.39 7.74-4.21 9.54-.42.92-.78 1.66-1.04 2.16 0 0-.01.04-.05.09-.22.43-.35.67-.35.67s0 0 0 .01c-.18.32-.36.61-.46.61-.07 0-.2-.84.02-1.99.47-2.42 1.58-6.18 1.57-6.31 0-.07.21-.72-.72-1.06-.91-.34-1.24.22-1.32.22s-.14.2-.14.2 1.02-4.23-1.94-4.23c-1.85 0-4.4 2.02-5.66 3.85-.79.43-2.49 1.36-4.3 2.35-.69.39-1.4.77-2.07 1.13-.05-.05-.09-.11-.14-.15-3.58-3.82-10.19-6.52-9.91-11.66.14-1.86.78-6.77 12.74-12.73 9.84-4.85 17.68-3.51 19.03-.53 1.94 4.26-4.2 12.16-14.37 13.3-3.88.43-5.92-1.06-6.43-1.63-.54-.58-.62-.62-.82-.5-.33.18-.12.7 0 1.01.3.79 1.55 2.2 3.67 2.89 1.87.61 6.42.95 11.92-1.18 6.16-2.38 10.98-9.01 9.56-14.57-1.41-5.63-10.77-7.49-19.62-4.35-5.24 1.87-10.94 4.82-15.05 8.65-4.88 4.56-5.65 8.52-5.33 10.18 1.13 5.89 9.26 9.73 12.51 12.57-.16.09-.32.18-.44.25-1.63.81-7.82 4.05-9.36 7.47-1.75 3.88.28 6.66 1.63 7.04 4.17 1.16 8.46-.92 10.77-4.36 2.3-3.44 2.02-7.9.96-9.95-.01-.02-.02-.05-.05-.07.42-.25.85-.5 1.27-.75.83-.49 1.65-.95 2.35-1.32-.4 1.09-.69 2.38-.83 4.26-.18 2.2.72 5.05 1.91 6.17.53.49 1.15.5 1.54.5 1.38 0 2-1.15 2.69-2.5.84-1.66 1.6-3.59 1.6-3.59s-.95 5.21 1.63 5.21c.94 0 1.88-1.22 2.3-1.84v.01s.02-.04.07-.12c.09-.15.15-.25.15-.25s0-.01 0-.02c.37-.65 1.22-2.14 2.47-4.61 1.61-3.18 3.17-7.15 3.17-7.15s.14.97.62 2.58c.28.95.87 1.99 1.33 2.99-.37.53-.61.82-.61.82s0 0 .01.01c-.3.4-.63.83-.99 1.25-1.27 1.52-2.79 3.26-3 3.76-.25.6-.19 1.03.28 1.38.34.26.95.29 1.57.26 1.15-.08 1.95-.36 2.35-.54.62-.22 1.34-.56 2.02-1.06 1.25-.92 2.01-2.24 1.94-3.99-.04-.96-.35-1.92-.74-2.82.12-.16.22-.33.34-.49 1.98-2.89 3.51-6.06 3.51-6.06s.14.97.62 2.58c.23.82.71 1.71 1.13 2.57-1.86 1.51-3 3.26-3.41 4.41-.74 2.13-.16 3.09.92 3.31.49.11 1.19-.13 1.71-.35.65-.21 1.43-.57 2.16-1.11 1.25-.92 2.46-2.21 2.38-3.95-.04-.79-.25-1.58-.54-2.34 1.58-.65 3.61-1.02 6.21-.71 5.56.65 6.66 4.13 6.45 5.59s-1.38 2.26-1.77 2.5c-.39.25-.51.33-.48.5.05.26.23.25.56.2.46-.08 2.92-1.18 3.03-3.87.17-3.41-3.1-7.16-8.89-7.13z" fill="#25222c"/></svg>