<svg xmlns="http://www.w3.org/2000/svg" width="65" height="48" viewBox="0 0 65 48">
<path fill="#25222C" d="M45.28,36.28c-0.2-0.14-0.16-0.61,0.5-2.07c0.26-0.57,0.87-1.53,1.91-2.46c0.12,0.37,0.2,0.74,0.19,1.08
C47.87,35.09,46.25,35.93,45.28,36.28z M36.72,38.23c-0.27,0.14-0.53,0.23-0.64,0.16c-0.08-0.05,0.12-0.23,0.12-0.23
s1.39-1.5,1.94-2.17c0.32-0.4,0.69-0.87,1.09-1.39c0,0.05,0,0.11,0,0.15C39.23,36.54,37.5,37.74,36.72,38.23z M25.63,32.92
c-0.64,1.57-1.99,5.58-2.81,5.35c-0.7-0.19-1.13-3.23-0.14-6.23c0.5-1.51,1.57-3.31,2.19-4.01c1.01-1.12,2.12-1.5,2.38-1.04
C27.59,27.59,26.03,31.94,25.63,32.92z M12.18,42.07c-1.85,2.01-4.42,2.77-5.53,2.13c-1.19-0.69-0.72-3.66,1.54-5.79
c1.38-1.3,3.16-2.5,4.34-3.24c0.27-0.16,0.67-0.4,1.15-0.69c0.08-0.05,0.13-0.07,0.13-0.07c0.09-0.06,0.19-0.12,0.28-0.18
C14.92,37.27,14.13,39.95,12.18,42.07z M55.11,27.59c-2.23,0.01-4.17,0.55-5.8,1.34c-0.6-1.18-1.19-2.23-1.3-3
c-0.12-0.9-0.26-1.45-0.12-2.53c0.14-1.08,0.77-2.61,0.76-2.72c-0.01-0.12-0.14-0.67-1.43-0.68c-1.29-0.01-2.4,0.25-2.53,0.58
c-0.13,0.34-0.37,1.11-0.54,1.91c-0.22,1.17-2.57,5.34-3.92,7.53c-0.43-0.85-0.81-1.6-0.89-2.2c-0.12-0.9-0.26-1.45-0.12-2.53
c0.14-1.08,0.77-2.61,0.76-2.72c-0.01-0.12-0.14-0.67-1.43-0.68c-1.29-0.01-2.4,0.25-2.53,0.58c-0.13,0.34-0.27,1.13-0.54,1.91
c-0.27,0.77-3.39,7.74-4.21,9.54c-0.42,0.92-0.78,1.66-1.04,2.16c0,0-0.01,0.04-0.05,0.09c-0.22,0.43-0.35,0.67-0.35,0.67
s0,0,0,0.01c-0.18,0.32-0.36,0.61-0.46,0.61c-0.07,0-0.2-0.84,0.02-1.99c0.47-2.42,1.58-6.18,1.57-6.31c0-0.07,0.21-0.72-0.72-1.06
c-0.91-0.34-1.24,0.22-1.32,0.22c-0.08,0-0.14,0.2-0.14,0.2s1.02-4.23-1.94-4.23c-1.85,0-4.4,2.02-5.66,3.85
c-0.79,0.43-2.49,1.36-4.3,2.35c-0.69,0.39-1.4,0.77-2.07,1.13c-0.05-0.05-0.09-0.11-0.14-0.15c-3.58-3.82-10.19-6.52-9.91-11.66
C4.9,17.95,5.54,13.04,17.5,7.08c9.84-4.85,17.68-3.51,19.03-0.53c1.94,4.26-4.2,12.16-14.37,13.3c-3.88,0.43-5.92-1.06-6.43-1.63
c-0.54-0.58-0.62-0.62-0.82-0.5c-0.33,0.18-0.12,0.7,0,1.01c0.3,0.79,1.55,2.2,3.67,2.89c1.87,0.61,6.42,0.95,11.92-1.18
c6.16-2.38,10.98-9.01,9.56-14.57c-1.41-5.63-10.77-7.49-19.62-4.35C15.2,3.39,9.5,6.34,5.39,10.17c-4.88,4.56-5.65,8.52-5.33,10.18
c1.13,5.89,9.26,9.73,12.51,12.57c-0.16,0.09-0.32,0.18-0.44,0.25c-1.63,0.81-7.82,4.05-9.36,7.47c-1.75,3.88,0.28,6.66,1.63,7.04
c4.17,1.16,8.46-0.92,10.77-4.36c2.3-3.44,2.02-7.9,0.96-9.95c-0.01-0.02-0.02-0.05-0.05-0.07c0.42-0.25,0.85-0.5,1.27-0.75
c0.83-0.49,1.65-0.95,2.35-1.32c-0.4,1.09-0.69,2.38-0.83,4.26c-0.18,2.2,0.72,5.05,1.91,6.17c0.53,0.49,1.15,0.5,1.54,0.5
c1.38,0,2-1.15,2.69-2.5c0.84-1.66,1.6-3.59,1.6-3.59s-0.95,5.21,1.63,5.21c0.94,0,1.88-1.22,2.3-1.84c0,0.01,0,0.01,0,0.01
s0.02-0.04,0.07-0.12c0.09-0.15,0.15-0.25,0.15-0.25s0-0.01,0-0.02c0.37-0.65,1.22-2.14,2.47-4.61c1.61-3.18,3.17-7.15,3.17-7.15
s0.14,0.97,0.62,2.58c0.28,0.95,0.87,1.99,1.33,2.99c-0.37,0.53-0.61,0.82-0.61,0.82s0,0,0.01,0.01c-0.3,0.4-0.63,0.83-0.99,1.25
c-1.27,1.52-2.79,3.26-3,3.76c-0.25,0.6-0.19,1.03,0.28,1.38c0.34,0.26,0.95,0.29,1.57,0.26c1.15-0.08,1.95-0.36,2.35-0.54
c0.62-0.22,1.34-0.56,2.02-1.06c1.25-0.92,2.01-2.24,1.94-3.99c-0.04-0.96-0.35-1.92-0.74-2.82c0.12-0.16,0.22-0.33,0.34-0.49
c1.98-2.89,3.51-6.06,3.51-6.06s0.14,0.97,0.62,2.58c0.23,0.82,0.71,1.71,1.13,2.57c-1.86,1.51-3,3.26-3.41,4.41
c-0.74,2.13-0.16,3.09,0.92,3.31c0.49,0.11,1.19-0.13,1.71-0.35c0.65-0.21,1.43-0.57,2.16-1.11c1.25-0.92,2.46-2.21,2.38-3.95
c-0.04-0.79-0.25-1.58-0.54-2.34c1.58-0.65,3.61-1.02,6.21-0.71c5.56,0.65,6.66,4.13,6.45,5.59c-0.21,1.46-1.38,2.26-1.77,2.5
c-0.39,0.25-0.51,0.33-0.48,0.5c0.05,0.26,0.23,0.25,0.56,0.2c0.46-0.08,2.92-1.18,3.03-3.87C64.17,31.31,60.9,27.56,55.11,27.59z"/>
</svg>
