<svg xmlns="http://www.w3.org/2000/svg" width="130" height="32" viewBox="0 0 130 32">
<path fill="#25222C" d="M17.86,0L7.81,9.88V1.12L17.86,0z M17.86,0l10.05,1.12v8.76L17.86,0z M17.86,0l9.01,10.42H8.85L17.86,0z M27.91,1.12
	l7.81,10.42l-6.57-1.01L27.91,1.12z M7.81,1.12l-1.24,9.41L0,11.53L7.81,1.12z M82.48,13.46c-2.37,0-4.11,1.58-4.56,3.96h9.06
	C86.61,14.99,84.92,13.46,82.48,13.46z M119.05,4.47v8.14c0.95-0.98,2.44-1.66,4.29-1.66c3.6,0,5.78,2.36,5.78,5.9v9.55h-2.7v-9.15
	c0-2.51-1.14-3.83-3.42-3.83c-2.38,0-3.95,1.52-3.95,4.12v8.87h-2.7V4.47H119.05z M64.13,4.47v14.32l7.3-7.4l0.1-0.1h3.67l-0.6,0.6
	l-5.71,5.72l6.2,8.21l0.43,0.57h-3.36l-0.11-0.14l-5.07-6.78l-2.84,2.78v4.14h-2.7V4.47H64.13z M95.64,7.18v4.1h3.29v2.41h-3.29
	v8.33c0,1.37,0.46,1.91,1.62,1.91l0.07,0c0.23,0,0.49-0.03,0.74-0.07c0.1-0.01,0.19-0.03,0.28-0.05c0.05-0.01,0.08-0.02,0.1-0.02
	l0.43-0.09v2.52l-0.26,0.07c-0.08,0.02-0.22,0.05-0.43,0.08c-0.33,0.05-0.73,0.07-1.19,0.07c-2.63,0-4.06-1.51-4.06-4.29v-8.47
	h-2.73v-2.41h2.73v-4.1H95.64z M106.97,10.94c3.74,0,6.37,2.38,7.03,5.75l0.08,0.42h-2.72l-0.07-0.26
	c-0.57-2.15-2.11-3.39-4.33-3.39c-2.77,0-4.68,2.2-4.68,5.39c0,3.16,1.91,5.36,4.68,5.36c2.22,0,3.76-1.24,4.33-3.39l0.07-0.26h2.72
	L114,20.99c-0.66,3.37-3.3,5.75-7.03,5.75c-4.33,0-7.41-3.5-7.41-7.88C99.56,14.45,102.63,10.94,106.97,10.94z M82.48,10.94
	c4.32,0,7.24,3.27,7.24,7.71c0,0.07,0,0.16,0,0.25c0,0.08-0.01,0.17-0.01,0.27c-0.01,0.12-0.01,0.21-0.01,0.27l-0.02,0.33H77.84
	c0.32,2.66,2.12,4.44,4.7,4.44c1.97,0,3.57-1.11,4.17-2.79l0.08-0.24h2.8l-0.14,0.46c-0.94,3.07-3.56,5.09-6.94,5.09
	c-4.48,0-7.41-3.38-7.41-7.91C75.1,14.43,78.17,10.94,82.48,10.94z M51,5.17c4.41,0,7.14,2.76,7.24,6.85l0.01,0.36h-2.7l-0.01-0.34
	c-0.08-2.63-1.8-4.3-4.51-4.3c-2.79,0-4.46,1.3-4.46,3.35c0,1.98,1.15,2.65,4.78,3.41c-0.02,0,0.34,0.07,0.44,0.09
	c0.17,0.04,0.31,0.07,0.44,0.09c2,0.44,3.2,0.85,4.21,1.6c1.31,0.96,2,2.38,2,4.37c0,3.69-3.17,6.13-7.83,6.13
	c-4.89,0-7.63-2.72-7.8-6.82l-0.01-0.37h2.72l0.02,0.33c0.2,2.75,2.09,4.28,5.13,4.28c3.18,0,4.99-1.24,4.99-3.41
	c0-1.25-0.48-2.06-1.45-2.62c-0.78-0.46-1.63-0.69-3.56-1.08c-0.16-0.03-0.24-0.05-0.31-0.06c-0.12-0.02-0.22-0.04-0.31-0.06
	c-2.04-0.42-3.2-0.79-4.2-1.49c-1.31-0.93-2-2.31-2-4.3C43.82,7.79,46.67,5.17,51,5.17z M27.63,11.53L17.81,31.9L8.09,11.53H27.63z
	 M6.61,11.53l11.2,20.38l-0.01,0.02L0,11.53H6.61z M35.72,11.53L17.86,32l-0.04-0.09l11.2-20.37H35.72z"/>
</svg>
