<svg height="32" viewBox="0 0 130 32" width="130" xmlns="http://www.w3.org/2000/svg"><path d="m17.86 0-10.05 9.88v-8.76zm0 0 10.05 1.12v8.76zm0 0 9.01 10.42h-18.02zm10.05 1.12 7.81 10.42-6.57-1.01zm-20.1 0-1.24 9.41-6.57 1zm74.67 12.34c-2.37 0-4.11 1.58-4.56 3.96h9.06c-.37-2.43-2.06-3.96-4.5-3.96zm36.57-8.99v8.14c.95-.98 2.44-1.66 4.29-1.66 3.6 0 5.78 2.36 5.78 5.9v9.55h-2.7v-9.15c0-2.51-1.14-3.83-3.42-3.83-2.38 0-3.95 1.52-3.95 4.12v8.87h-2.7v-21.94zm-54.92 0v14.32l7.3-7.4.1-.1h3.67l-.6.6-5.71 5.72 6.2 8.21.43.57h-3.36l-.11-.14-5.07-6.78-2.84 2.78v4.14h-2.7v-21.92zm31.51 2.71v4.1h3.29v2.41h-3.29v8.33c0 1.37.46 1.91 1.62 1.91h.07c.23 0 .49-.03.74-.07.1-.01.19-.03.28-.05.05-.01.08-.02.1-.02l.43-.09v2.52l-.26.07c-.08.02-.22.05-.43.08-.33.05-.73.07-1.19.07-2.63 0-4.06-1.51-4.06-4.29v-8.47h-2.73v-2.41h2.73v-4.1h2.7zm11.33 3.76c3.74 0 6.37 2.38 7.03 5.75l.08.42h-2.72l-.07-.26c-.57-2.15-2.11-3.39-4.33-3.39-2.77 0-4.68 2.2-4.68 5.39 0 3.16 1.91 5.36 4.68 5.36 2.22 0 3.76-1.24 4.33-3.39l.07-.26h2.72l-.08.43c-.66 3.37-3.3 5.75-7.03 5.75-4.33 0-7.41-3.5-7.41-7.88 0-4.41 3.07-7.92 7.41-7.92zm-24.49 0c4.32 0 7.24 3.27 7.24 7.71v.25c0 .08-.01.17-.01.27-.01.12-.01.21-.01.27l-.02.33h-11.84c.32 2.66 2.12 4.44 4.7 4.44 1.97 0 3.57-1.11 4.17-2.79l.08-.24h2.8l-.14.46c-.94 3.07-3.56 5.09-6.94 5.09-4.48 0-7.41-3.38-7.41-7.91 0-4.39 3.07-7.88 7.38-7.88zm-31.48-5.77c4.41 0 7.14 2.76 7.24 6.85l.01.36h-2.7l-.01-.34c-.08-2.63-1.8-4.3-4.51-4.3-2.79 0-4.46 1.3-4.46 3.35 0 1.98 1.15 2.65 4.78 3.41-.02 0 .34.07.44.09.17.04.31.07.44.09 2 .44 3.2.85 4.21 1.6 1.31.96 2 2.38 2 4.37 0 3.69-3.17 6.13-7.83 6.13-4.89 0-7.63-2.72-7.8-6.82l-.01-.37h2.72l.02.33c.2 2.75 2.09 4.28 5.13 4.28 3.18 0 4.99-1.24 4.99-3.41 0-1.25-.48-2.06-1.45-2.62-.78-.46-1.63-.69-3.56-1.08-.16-.03-.24-.05-.31-.06-.12-.02-.22-.04-.31-.06-2.04-.42-3.2-.79-4.2-1.49-1.31-.93-2-2.31-2-4.3-.01-3.39 2.84-6.01 7.17-6.01zm-23.37 6.36-9.82 20.37-9.72-20.37zm-21.02 0 11.2 20.38-.01.02-17.8-20.4zm29.11 0-17.86 20.47-.04-.09 11.2-20.37h6.7z" fill="#25222c"/></svg>