<svg xmlns="http://www.w3.org/2000/svg" width="934px" height="822px" viewBox="0 0 934 822">
    <g stroke="none" stroke-width="1" fill="none" fill-rule="evenodd">
        <g transform="translate(-128.000000, -4567.000000)">
            <g transform="translate(128.000000, 4567.000000)">
                <path d="M768.8396,499.0109 C798.8226,523.2899 839.5456,517.7859 862.7616,489.1159 C885.9776,460.4479 882.2436,413.0729 852.9126,395.1899 C823.5806,377.3079 780.3766,370.5079 758.9896,405.0839 C737.6036,439.6599 738.8566,474.7319 768.8396,499.0109" fill="#F2CEE9" style="mix-blend-mode: multiply;"></path>
                <path d="M902.8967,409.7297 C891.5277,413.9837 887.3417,426.1637 891.7527,438.6377 C896.1637,451.1117 910.3677,456.2977 920.6917,449.6997 C931.0177,443.0997 936.1107,432.6177 931.8357,420.7917 C927.5617,408.9637 914.2657,405.4747 902.8967,409.7297" fill="#F2CEE9" style="mix-blend-mode: multiply;"></path>
                <path d="M252.6887,767.1057 C359.3517,853.4797 529.6097,833.5007 638.4487,726.9167 C747.2877,620.3317 732.1797,430.3317 597.5557,341.2297 C462.9327,252.1277 307.0277,263.8167 211.7957,381.4187 C116.5637,499.0217 146.0247,680.7317 252.6887,767.1057" fill="#8DF2E0" style="mix-blend-mode: multiply;"></path>
                <path d="M94.9661,431.1144 C195.8801,523.5304 339.6351,503.2484 442.3521,395.1024 C545.0691,286.9574 524.4721,117.7534 405.3511,47.8214 C286.2301,-22.1106 154.8781,-19.6246 57.9661,83.8334 C-38.9479,187.2904 -5.9469,338.6984 94.9661,431.1144" fill="#EDF24B" style="mix-blend-mode: multiply;"></path>
            </g>
        </g>
    </g>
</svg>
