<svg viewBox="0 0 24 24" xmlns="http://www.w3.org/2000/svg"><path d="m23.16 7.19c1.72 4.16.87 10.25-3.14 13.5-3.99 3.25-11.13 3.64-15.39.46-4.29-3.17-5.68-9.93-3.83-14.31s6.98-6.32 11.67-6.18c4.71.14 8.97 2.37 10.69 6.53z" fill="#edf24b"/><path d="m22.25 10.7c1.04 4.58-.44 8.58-3.41 10.79s-7.42 2.62-11.27.27-7.08-7.41-5.91-12.18 6.8-9.24 11.4-8.91c4.59.33 8.15 5.47 9.19 10.03z" fill="#8df2e0"/><path d="m20.94 7.74c1.21 3.3.32 7.69-3.13 10.69s-9.48 4.6-12.58 2.33c-3.13-2.29-3.34-8.44-1.55-12.53 1.79-4.11 5.61-6.13 9.17-6.06 3.57.09 6.86 2.29 8.09 5.57z" fill="#f24b88"/><path d="m21.02 14.65c-.02-.01-.03-.02-.05-.03-.3-.17-.37-.55-.11-.78.25-.23.68-.17.86.1l.03.04c.28.42-.28.92-.73.67zm-2.63-9.32c-5.25-.6-10.6 1.15-15.59 2.37-.09-.01-.18.01-.27.05l-.13.06c-.47.22-.14.94.36.78 2.35-.75 4.71-1.32 7.1-1.72.05 3.79.37 7.91 1.52 11.56.13.41.81.52 1.04.12.92-1.61 1.84-3.22 2.84-4.8.13-.21.28-.42.44-.65.09.12.19.23.29.34.33.34.79 1.23 1.23 1.89-.57.24-1.04.52-1.2 1.13-.05.2-.01.45.17.58.63.46 1.71.28 2.15-.38.46-.71.29-1.37 0-2.09-.22-.53-1.37-1.58-1.88-2.54.47-.69.88-1.41 1-2.11.06-.38-.24-.7-.69-.61-.83.16-1.76 1.23-1.71 2 .03.54.04.73.14.98-.48.66-.99 1.28-1.28 1.72-.62.96-1.24 1.91-1.83 2.88-.87-3.24-1.19-6.84-1.18-10.13.01-.02.02-.04.03-.07 2.44-.36 4.92-.55 7.44-.61.57 0 .54-.69.01-.75z" fill="#fff"/></svg>