<svg width="125" height="40" viewBox="0 0 125 40" xmlns="http://www.w3.org/2000/svg">
  <path d="m69.38 21.31h11.88v15.61c0 1.72-1.33 3.08-3.06 3.08h-20.58c-1.72 0-3.12-1.36-3.12-3.08v-15.61h11.88v14.11c0 .85.65 1.54 1.5 1.54s1.5-.69 1.5-1.54zm-44.13 18.69h11.75v-6.98h15v-3.61h-15v-4.61h15v-3.37h-26.75zm87.87 0h11.88v-18.69h-11.88zm-14.37-5.12.01.4c0 .86-.68 1.55-1.54 1.55s-1.57-.69-1.57-1.55l-.02-.49v-4.76h-11.88v6.61s-.26 3.36 4.01 3.36h19.14s3.72.01 3.72-4.05v-14.64h-11.87zm10.63-23.26v4.11h4.25v-.75h-3.25v-3.37h-1zm-6.5-1.87h-2v-9.22h1.5l6.5 5.43c.22.18.42.36.59.52s.33.32.47.49c-.03-.52-.05-.88-.06-1.1-.01-.21.01-.38.01-.5v-4.84h1.88v9.22h-1.46l-6.77-5.68c-.16-.15-.3-.28-.43-.39-.12-.12-.23-.23-.33-.36.03.28.06.55.07.8s.04.47.04.66v4.97zm-67.76 3.1v-.48h-3.12v2.62h3.12v-.87h-1.62v-.75h2.62v1.42c0 .37-.1.62-.25.76s-.46.2-.87.2h-2.96c-.42 0-.69-.06-.83-.2-.15-.15-.21-.4-.21-.77v-2.15c0-.37.06-.65.21-.78s.42-.23.83-.23h2.96c.41 0 .72.09.87.22s.25.39.25.74v.11zm2.88 2.88h1v-4.11h-1zm-9.75-13.58h4.78c.37 0 .63.05.76.16.14.1.21.29.21.55v1.11c0 .27-.07.49-.21.6s-.39.19-.76.19h-4.78zm0 4.11h1.98l3.72 3.49h3.08l-4.25-3.49h1.2c.73 0 1.23-.13 1.56-.42.33-.28.46-.73.46-1.35v-2.16c0-.62-.13-1.09-.46-1.37s-.83-.43-1.56-.43h-7.85v9.22h2.12zm87.13 6.11h-2v-.75h4.88v.75h-1.88v3.37h-1zm-20.13 3.36v-2.79l-1.8 2.3h-.19l-1.88-2.24v2.73h-.75v-4.11h.78l2 2.42 1.99-2.42h.85v4.11zm-6.25 0h-4.5v-4.11h4.38v.75h-3.38v.87h2v.75h-2v1h3.5zm-16.88-7.73h7v-5.85h-7zm6.88-7.47c.9 0 1.48.17 1.8.47.31.31.45.89.45 1.73v4.84c0 .84-.14 1.42-.45 1.72-.32.31-.9.46-1.8.46h-6.78c-.9 0-1.53-.15-1.85-.46-.31-.3-.5-.88-.5-1.72v-4.84c0-.84.19-1.42.5-1.73.32-.31.95-.47 1.85-.47zm-12.22 11.09 1.46 1.52 1.48-1.52h1.17l-2.26 2.27v1.84h-1v-1.82l-2.19-2.29zm6.1 2.88v.48h3v-1h-2.69c-.42 0-.69-.04-.84-.17-.15-.14-.22-.36-.22-.73v-.46c0-.37.07-.64.22-.78s.43-.23.84-.23h2.43c.41 0 .73.09.88.22s.26.38.26.71v.1l-.88.18v-.47h-2.88v.87h2.67c.42 0 .71.07.85.21.15.13.22.4.22.77v.56c0 .37-.08.62-.23.76s-.43.2-.85.2h-2.66c-.42 0-.74-.06-.89-.2-.15-.13-.25-.38-.25-.76v-.11zm25.46 1.03c-.15-.13-.22-.38-.22-.76v-.11l.88-.16v.48h3v-1h-2.64c-.42 0-.72-.04-.87-.17-.15-.14-.24-.36-.24-.73v-.46c0-.37.09-.64.24-.78s.45-.23.87-.23h2.43c.41 0 .7.09.85.22s.24.38.24.71v.1l-.88.19v-.47h-2.88v.87h2.72c.42 0 .68.07.83.21.15.13.2.4.2.77v.56c0 .37-.06.62-.21.76s-.41.2-.82.2h-2.66c-.41 0-.69-.06-.84-.2zm-59.42-5.78h1.79l2.03-2.89 2.2-3.13c.06-.09.16-.14.27-.14s.2.05.26.13l2.2 3.13 2.03 2.89h1.79.34.21l-2.9-5.05-2.59-4.51c-.06-.11-.18-.18-.33-.18s-.29.07-.39.19l-.2.25-.07-.1c-.08-.12-.21-.19-.36-.19s-.27.07-.36.19l-.07.1-.2-.25c-.08-.12-.22-.19-.37-.19s-.28.07-.35.19l-2.58 4.51-2.9 5.05h.21zm6.89-9.07c.09-.12.22-.28.36-.28s.25.16.32.28l2.36 4.28 1.01 1.82-1.33-2-2.73-4.09zm-4.24 4.28 2.36-4.28c.07-.12.18-.28.32-.28s.27.16.36.28l.01.01-2.72 4.08-1.33 2zm3.55 6.66h.88v4.11h-.67l-3.45-2.74v2.74h-.88v-4.11h.64l3.48 2.75zm41.14-2.33c-.32-.3-.51-.88-.51-1.72v-7.04h2.25v7.47h6.12v-7.47h2.12v7.05c0 .84-.18 1.42-.49 1.72-.32.31-.94.46-1.84.46h-5.81c-.89-.01-1.53-.16-1.84-.47zm-33.47 2.55c.15.13.21.39.21.74v.11l-1 .16v-.48h-3.12v2.62h3.12v-.87h-1.62v-.75h2.62v1.42c0 .37-.06.62-.21.76s-.42.2-.83.2h-2.96c-.42 0-.73-.06-.87-.2-.15-.13-.25-.38-.25-.76v-2.15c0-.37.1-.65.25-.78s.46-.23.87-.23h2.96c.41-.01.68.08.83.21zm7.46 2.66v.48h3v-1h-2.59c-.42 0-.68-.04-.83-.17-.15-.14-.2-.36-.2-.73v-.46c0-.37.05-.64.2-.78s.41-.23.83-.23h2.43c.41 0 .68.09.83.22s.21.38.21.71v.1l-.88.18v-.47h-2.75v.87h2.65c.42 0 .72.07.86.21.15.13.24.4.24.77v.56c0 .37-.09.62-.24.76s-.45.2-.86.2h-2.66c-.42 0-.73-.06-.88-.2-.15-.13-.24-.38-.24-.76v-.11zm17.87-2.88h5v.75h-2v3.37h-1v-3.37h-2zm-22.87-1.87h-1.62v-9.22h1.68l4.34 5.56 4.25-5.56h1.73v9.22h-2v-5.68c0-.11.01-.25.02-.42s.04-.36.06-.56c-.12.24-.22.43-.3.58-.09.15-.17.28-.24.38l-3.47 4.58h-.43l-3.48-4.6c-.13-.18-.24-.33-.33-.49-.09-.15-.17-.3-.23-.45.02.19.02.37.03.52.01.16-.01.31-.01.45zm69.75-9.22v1.62h-4.25v7.6h-2.12v-7.6h-4.25v-1.62zm-.01 13.16c0-.65-.21-1.17-.64-1.52-.42-.35-1.03-.55-1.82-.55h-2.79v4.11h2.54c.91 0 1.59-.16 2.03-.51.46-.34.68-.85.68-1.53zm-1.44.99c-.28.2-.77.31-1.47.31h-1.32v-2.62h1.8c.48 0 .84.12 1.07.32.23.21.35.53.35.95-.01.48-.15.83-.43 1.04zm-95.32.18.52.87h1.12l-2.47-4.11h-.96l-2.43 4.11h1l.52-.87zm-1.35-2.45.95 1.7h-1.88zm-15.76-2.66h1.79l2.03-2.89 2.2-3.13c.06-.09.15-.13.26-.13s.2.05.26.13l2.2 3.13 2.03 2.89h1.79.34.21l-2.9-5.05-2.59-4.51c-.04-.12-.17-.19-.32-.19s-.29.07-.39.19l-.2.25-.07-.1c-.08-.12-.21-.19-.36-.19s-.27.07-.36.19l-.07.1-.2-.25c-.08-.12-.21-.19-.37-.19-.15 0-.28.07-.35.19l-2.58 4.51-2.9 5.05h.21zm6.89-9.07c.09-.12.22-.28.36-.28s.25.16.32.28l2.36 4.28 1.01 1.82-1.33-2-2.73-4.09zm-4.24 4.28 2.36-4.28c.07-.12.18-.28.32-.28s.27.16.36.28l.01.01-2.72 4.09-1.33 2zm6.86 8.56 3.15 2.21h-1.58l-2.57-1.83v1.83h-1v-4.11h1v1.69l2.39-1.69h1.44zm-18.51-7.39h5.76c.73 0 1.28-.13 1.61-.41s.51-.71.51-1.33v-2.06c0-.62-.18-1.09-.51-1.37s-.87-.43-1.6-.43h-7.89v9.22h2.12zm0-3.98h4.81c.37 0 .61.05.75.16.14.1.2.29.2.55v.99c0 .27-.05.49-.19.6s-.38.19-.75.19h-4.82zm5.45 9.47-2.43 4.11h1l.52-.87h2.71l.52.87h1.11l-2.47-4.11zm-.49 2.49.92-1.7.95 1.7zm8.67-.94v-.8h-2.62v2.62h2.62v-.89l1 .2v.48c0 .37-.05.62-.2.75-.15.14-.41.2-.83.2h-2.56c-.41 0-.68-.06-.83-.2-.15-.13-.21-.38-.21-.76v-2.15c0-.37.06-.65.21-.78s.42-.23.83-.23h2.56c.42 0 .68.09.83.23s.2.41.2.78v.4zm-12-.05c0 .12-.03.22-.1.27-.06.05-.19.09-.36.09h-2.29v-1.12h2.29c.17 0 .29.03.36.08.06.05.1.14.1.25zm-.03-1.5h-3.72v4.11h1v-1.62h2.72c.34 0 .56-.04.71-.17.15-.12.2-.31.2-.59v-.9c0-.28-.05-.51-.2-.63s-.37-.2-.71-.2zm5.17 14.76-3.8 5.64s3.19-5.52 3.28-5.65.37-.3.52.01zm1.67 0c-.09-.14-.37-.3-.52 0l3.8 5.65s-3.2-5.52-3.28-5.65zm-7.86 4.41c0-3.69 3-6.68 6.7-6.68 3.71 0 6.71 2.99 6.71 6.68s-3 6.68-6.71 6.68c-3.7 0-6.7-2.99-6.7-6.68zm.96 3.35h11.53l-4.44-7.95c-.49-.48-.88-.01-.88-.01s-.12-.23-.42-.23c-.24 0-.41.24-.41.24-.5-.56-.92.08-.92.08zm5.72-12.01c-.31 0-.63.02-.88.05v1.45c-.62.08-1.24.24-1.82.47l-.77-1.24c-.6.26-1.16.59-1.67.97l.78 1.22c-.51.39-.97.84-1.36 1.35l-1.25-.74c-.38.51-.7 1.07-.96 1.66l1.23.7h.05c-.24.57-.41 1.18-.49 1.82l-1.46-.01c-.04.32-.05.66-.05.99 0 .32.02.59.05.97h1.46c.08.62.24 1.2.47 1.76l-1.26.69c.26.6.59 1.17.98 1.69l1.25-.72c.38.49.82.93 1.31 1.31l-.71 1.21c.53.39 1.1.72 1.7.99l.69-1.22c.58.24 1.21.4 1.84.48v1.38c.25.03.57.05.89.05.35 0 .74-.02.99-.06v-1.38c.62-.09 1.26-.26 1.83-.5l.7 1.19c.6-.26 1.15-.56 1.67-.94l-.72-1.21c.51-.39.96-.85 1.34-1.36l1.23.72c.38-.51.69-1.01.94-1.59l-1.26-.73c.24-.58.4-1.19.48-1.83h1.46c.03-.29.05-.59.05-.89 0-.34-.02-.63-.06-1.01h-1.46c-.09-.62-.25-1.22-.49-1.78l1.27-.72c-.26-.61-.58-1.12-.97-1.64l-1.26.74c-.38-.48-.81-.91-1.29-1.29l.73-1.26c-.52-.39-1.09-.71-1.65-.96l-.7 1.3c-.6-.25-1.25-.48-1.92-.48h.08v-1.49c-.27-.1-.68-.11-1.01-.11zm9.37-.82v18.69h-18.75v-18.69z" fill="currentColor"></path>
</svg>