<svg width="108" height="56" viewBox="0 0 108 56" xmlns="http://www.w3.org/2000/svg">
  <path d="m17.55 3.48c-.12.23-.23.37-.21.55s.21.31.3.49c.08-.21.22-.37.2-.53-.02-.17-.24-.39-.29-.51zm3.14 0c-.04.12-.27.34-.29.5-.02.17.12.32.2.53.09-.18.28-.31.3-.49.02-.17-.08-.31-.21-.54zm-4.94-.14c.12 0 .21-.09.21-.21s-.09-.21-.21-.21-.21.09-.21.21.09.21.21.21zm.14.31c0-.12-.1-.21-.21-.21s-.21.09-.21.21.09.21.21.21.21-.1.21-.21zm.1.51c0-.12-.09-.21-.21-.21s-.21.09-.21.21.1.21.21.21c.12 0 .21-.09.21-.21zm.93-1.82c.12 0 .21-.09.21-.21s-.1-.21-.21-.21c-.12 0-.21.09-.21.21 0 .11.1.21.21.21zm-.53.16c.12 0 .21-.09.21-.21s-.1-.21-.21-.21c-.12 0-.21.09-.21.21s.1.21.21.21zm-.41.36c.12 0 .21-.09.21-.21s-.09-.21-.21-.21-.21.09-.21.21.09.21.21.21zm1.5-.47c.12 0 .21-.09.21-.21s-.09-.21-.21-.21-.21.09-.21.21c-.01.11.09.21.21.21zm.52.15c.12 0 .21-.1.21-.21 0-.12-.09-.21-.21-.21s-.21.09-.21.21c0 .11.09.21.21.21zm.5.23c.12 0 .21-.09.21-.21s-.09-.21-.21-.21-.21.09-.21.21.09.21.21.21zm3.78.36c0 .12.1.21.21.21.12 0 .21-.09.21-.21s-.09-.21-.21-.21c-.11 0-.21.1-.21.21zm.28.3c-.12 0-.21.09-.21.21s.09.21.21.21.21-.09.21-.21c.01-.11-.09-.21-.21-.21zm-.1.52c-.12 0-.21.1-.21.21 0 .12.09.21.21.21s.21-.09.21-.21-.09-.21-.21-.21zm-1.14-1.61c.12 0 .21-.09.21-.21s-.1-.21-.21-.21c-.12 0-.21.09-.21.21 0 .11.09.21.21.21zm.53.16c.12 0 .21-.09.21-.21s-.1-.21-.21-.21c-.12 0-.21.09-.21.21s.09.21.21.21zm.41.36c.12 0 .21-.09.21-.21s-.09-.21-.21-.21-.21.09-.21.21.09.21.21.21zm-1.49-.47c.12 0 .21-.09.21-.21s-.09-.21-.21-.21-.21.09-.21.21c-.01.11.09.21.21.21zm-.53.15c.12 0 .21-.1.21-.21 0-.12-.09-.21-.21-.21s-.21.09-.21.21c0 .11.09.21.21.21zm-.71.02c0 .12.09.21.21.21s.21-.09.21-.21-.09-.21-.21-.21c-.11 0-.21.09-.21.21zm-.77 1.14h.24v-.9c-.08-.01-.16-.04-.24-.07zm.72-.97c-.07.03-.15.06-.24.07v.9h.24zm-.5-1v-.54c-.27.05-.47.27-.52.54zm.28 0h.52c-.05-.27-.25-.48-.52-.54zm-.79.26c.07.3.33.52.65.52s.58-.22.65-.52zm1.02-.88c-.15-.12-.27-.29-.29-.47.17.03.37.16.48.31v-.73c-.12.15-.31.28-.48.31.02-.18.13-.34.28-.52h-.71c.15.18.26.34.28.52-.17-.03-.37-.15-.48-.31v.73c.11-.15.31-.27.48-.31-.02.18-.14.35-.29.47zm.01 15.15c.14 0 .26-.12.26-.26s-.12-.26-.26-.26-.26.12-.26.26.12.26.26.26zm-1.25-.39c.16 0 .29-.13.29-.28 0-.16-.13-.28-.29-.28s-.29.13-.29.28c.01.16.14.28.29.28zm-.43-1.26c.04.03.08.06.12.09-.01-.09-.05-.18-.12-.25-.09-.1-.21-.16-.33-.16-.26 0-.54.28-.62.37l-.02.03-.03-.01c-.07-.02-.14-.03-.21-.04.02.06.05.12.09.18l.02.03-.02.03c-.13.2-.2.4-.2.56 0 .1.12.31.3.4.12.06.24.05.36-.02-.06-.04-.15-.09-.21-.13l-.03-.02c-.05-.03-.11-.06-.13-.14 0-.02-.01-.03-.01-.05 0-.06.03-.14.09-.24.01-.02.02-.04.04-.05.01-.01.02-.02.03-.04l.03-.05.03.03c.1.06.19.08.26.07.03-.01.05-.03.07-.05.04-.07.02-.19-.12-.3l-.05-.04.07-.08c.05-.06.1-.11.15-.16.12-.1.22-.1.35 0zm2.45 1c.41.1.91.19 1.24.15-.01.01-.03.03-.05.04-.12.11-.28.23-.45.34-.43.26-.85.42-1.18.42-.38 0-.86-.08-1.36-.22-.44-.12-.86-.28-1.18-.46-.17.13-.37.15-.54.06-.22-.1-.37-.35-.37-.51 0-.03 0-.06.01-.09-.15-.13-.29-.27-.43-.43-.41-.46-.73-1-.96-1.6-.1-.28-.19-.57-.24-.86.38.13.54 0 .65-.12.04.01.04.12.04.16.42-.01.66-.29.7-.51.04.26.1.51.19.75.15.42.37.81.65 1.13.1.11.2.22.31.31.07-.02.13-.04.2-.04.15 0 .31.07.42.21.12.13.17.3.15.45v.01c.73.36 1.53.64 2.2.81zm-.19 2.69c.05-.1.08-.2.08-.28 0-.13-.1-.31-.31-.31-.36 0-.28.49-.45.49-.08 0-.13-.05-.13-.12 0-.14.25-.27.25-.48 0-.2-.19-.37-.39-.53-.2.16-.39.33-.39.53s.25.33.25.48c0 .07-.06.12-.13.12-.17 0-.09-.49-.45-.49-.21 0-.31.18-.31.31 0 .08.03.18.09.28.05-.09.12-.14.18-.14.27 0 .17.72.49.72.14 0 .22-.09.22-.19s-.07-.13-.07-.21.06-.11.13-.11.13.03.13.11-.07.11-.07.21.08.19.22.19c.32 0 .22-.72.49-.72.05 0 .12.06.17.14zm-.95 1.01c.1 0 .18-.08.18-.18s-.08-.18-.18-.18-.18.08-.18.18.08.18.18.18zm.72-1.74c.28 0 .45.23.45.45 0 .2-.12.39-.23.51-.06-.13-.1-.22-.17-.22-.14 0-.07.69-.48.71.01.03.02.07.02.11 0 .17-.14.32-.32.32s-.32-.14-.32-.32c0-.04.01-.08.02-.11-.41-.02-.34-.71-.48-.71-.07 0-.12.1-.17.22-.1-.12-.23-.31-.23-.51 0-.22.17-.45.45-.45.05 0 .1.01.14.02v-.97c.41.11.82.16 1.17.17v.8c.06-.01.1-.02.15-.02zm9.38.96c-.02-.04-.06-.06-.1-.05-.94.27-2.1-.5-3.22-1.24-.94-.63-1.84-1.22-2.6-1.22-.28 0-.53.06-.75.18-.27.15-.47.38-.59.69-.13.31-.27.52-.37.69-.13.21-.22.35-.22.54 0 .15.06.29.19.42.11.11.26.21.49.33.05.02.1.05.14.07.19.09.3.15.32.26-.37.16-.85.3-1.39.39-.61.11-1.29.16-2 .16s-1.38-.05-2-.16c-.55-.09-1.02-.23-1.4-.39.02-.16.13-.22.33-.31.05-.02.1-.05.15-.07.19-.1.36-.19.48-.3.13-.12.19-.24.19-.39 0-.18-.09-.33-.22-.54-.11-.17-.24-.38-.37-.69s-.33-.54-.6-.69c-.22-.12-.47-.18-.75-.18-.77 0-1.66.59-2.6 1.22-1.12.74-2.28 1.52-3.22 1.24-.04-.01-.09.01-.1.05-.02.04 0 .09.05.11.28.13.54.32.78.51.34.26.66.51 1.01.51.33 0 .69-.11 1.12-.33.38-.2.77-.46 1.14-.72.74-.5 1.5-1.02 2.23-1.08-.08.08-.15.14-.22.21-.21.19-.4.35-.4.69 0 .26.09.45.22.71.04.07.08.16.12.26.08.18.12.32.16.52.02.09.04.18.07.29.05.17.13.49.66.76.62.31 1.68.47 3.16.47s2.54-.16 3.16-.47c.53-.27.62-.59.66-.76.03-.11.05-.21.08-.29.05-.2.08-.34.16-.52.06-.13.11-.24.17-.33.11-.21.2-.37.2-.61 0-.33-.19-.51-.42-.71-.07-.06-.15-.13-.23-.21.73.06 1.49.58 2.23 1.08.38.26.77.52 1.15.72.43.23.79.33 1.12.33.35 0 .67-.25 1.01-.51.24-.19.49-.38.78-.51.04-.04.06-.09.04-.13zm-7.06-7.23c-.01-.46-.09-.91-.24-1.33s-.38-.81-.65-1.13c-.28-.33-.61-.59-.97-.77-.34-.16-.69-.25-1.06-.27v3.49h2.92zm-3.04-4.95c.99 0 1.68.29 2.08.56.23-.14.33-.27.33-.43 0-.56-1.6-.61-2.41-.61s-2.41.05-2.41.61c0 .16.1.29.33.43.4-.27 1.08-.56 2.08-.56zm-.06 1.45c-.39.01-.77.1-1.13.27-.36.18-.69.43-.97.76s-.5.71-.65 1.13-.23.87-.24 1.33h2.99zm4.54 3.28c.01.12 0 .16 0 .29 0 .68-.12 1.34-.35 1.96-.23.6-.55 1.14-.96 1.6-.2.22-.41.43-.64.6-.06.04-.31.12-1.34-.14-.13-.03-.2-.05-.34-.1.02-.13.03-.2.07-.29.04-.11.09-.21.14-.26.06-.02.06-.07.12-.09.36-.18.69-.43.97-.76s.5-.71.65-1.13c.15-.41.22-.84.24-1.28h-2.92v3.23c.23.01.67.06.67.06-.11.13-.15.26-.18.47-.33-.1-.66-.23-1-.36.1-.12.23-.15.34-.16v-3.23h-2.98c-.01-.13-.07-.34-.12-.4-.15-.18-.2-.29-.21-.56 0-.15-.09-.33-.24-.52-.09-.11-.44-.5-.53-.58.23-.6.55-1.13.96-1.59.27-.3.58-.57.91-.78-.18-.11-.36-.28-.36-.56 0-.16.06-.29.18-.39-.19-.6-.52-1.32-.81-1.64l.6-.25c-.16.24-.17.52-.13.68.16-.11.3-.26.34-.46.03.18.13.47.22.65-.18-.08-.32-.12-.5-.04.1.14.36.34.75.25.21-.05.43-.16.42-.33-.01-.1-.08-.22-.21-.2-.13.01-.14.21-.1.3-.17-.1-.35-.6-.08-.67.21-.06.4.23.47.45.04-.27.15-.52.36-.51.28.02.19.53.09.66-.01-.21-.11-.3-.19-.29-.07 0-.17.06-.15.22s.25.26.52.26c.25 0 .7-.08.74-.56-.17.03-.42.16-.52.32.03-.3.03-.51 0-.81.13.19.36.29.52.32-.05-.21-.23-.43-.44-.56h1.09c-.21.13-.39.35-.44.56.16-.03.39-.13.53-.32-.03.31-.03.52 0 .81-.11-.16-.37-.29-.53-.32.04.49.49.57.74.57.27 0 .5-.1.52-.26s-.08-.21-.15-.22c-.08-.01-.18.09-.2.27-.1-.13-.19-.64.09-.66.21-.01.32.24.36.51.07-.22.26-.51.47-.45.27.07.09.58-.08.67.04-.09.03-.29-.1-.3s-.21.11-.21.2c-.01.16.2.28.42.33.4.09.65-.12.76-.25-.18-.07-.32-.04-.49.05.09-.18.19-.47.22-.65.04.2.18.34.33.45.03-.16.02-.44-.13-.67l.6.25c-.29.32-.62 1.03-.81 1.63.12.1.19.23.19.39 0 .28-.18.44-.36.56.33.22.63.48.91.78.22.25.4.47.56.76-.03.03-.05.06-.08.11-.04.06-.14.16-.18.2-.05.07-.1.15-.1.24 0 .08.03.17.09.27.07.12.54 1.03.65 1.26.08.17.25.33.35.41zm-2.73-1.86c-.17-.21-.37-.39-.58-.53-.18-.12-.37-.21-.56-.27.02.03.03.07.03.12-.04-.01-.08-.02-.11-.04v.85c.05-.01.09.02.1.05s.01.07-.03.1c.04 0 .09.02.13.06-.04.04-.09.06-.13.06.04.03.04.07.03.1s-.05.05-.1.05v1c.03-.03.07-.04.13-.05 0 .05-.02.09-.04.12h.62c-.01-.05.02-.09.05-.1s.07-.01.1.03c0-.04.02-.09.06-.13.04.04.06.09.06.13.03-.04.07-.05.1-.03.03.01.05.05.05.1h.73c-.03-.03-.06-.07-.06-.13.04 0 .08.01.11.03-.06-.42-.22-.82-.44-1.18-.03.01-.06.01-.08 0-.04-.02-.05-.06-.04-.11-.03.02-.08.04-.14.03.01-.05.04-.09.07-.12-.05 0-.08-.03-.09-.06-.01-.02 0-.05.03-.08zm.83 1.51c.09 0 .13.08.11.12-.01.03-.04.05-.09.05.03.03.05.07.05.13-.06 0-.1-.02-.13-.05.01.05-.01.08-.04.09-.04.02-.13-.01-.13-.11.03.05.11.03.1-.03h-.96c.02.05.01.13-.05.19-.06-.06-.07-.13-.05-.19h-.86c0 .06.07.07.11.02 0 .09-.08.13-.13.11-.03-.01-.05-.04-.05-.09-.03.03-.07.05-.13.05 0-.06.02-.1.05-.13-.05 0-.08-.02-.09-.04-.02-.04.02-.13.11-.13-.05.03-.03.11.03.11v-1.23c-.06.02-.13.01-.19-.05.06-.06.13-.07.19-.05v-1.13c-.06 0-.07.07-.03.1-.09-.01-.13-.09-.1-.14.01-.02.04-.04.08-.04-.03-.03-.04-.08-.04-.14.06.01.1.03.13.07.01-.04.03-.06.05-.07.05-.02.13.03.12.12-.03-.05-.1-.04-.11.02.24.06.48.17.7.32.23.16.45.35.63.59.02.03.04.05.06.08.03-.05.1-.09.19-.08-.01.08-.07.13-.12.15 0 0-.01.01-.01.01.3.43.5.95.56 1.47.07.01.09-.07.04-.1zm-.51-.32c.04-.02.07-.04.08-.07-.04.01-.07-.01-.08-.01.03-.02.06 0 .03-.05s-.06-.06-.09-.02c-.04.04-.27-.01-.27-.18.02.03.05.05.08.07.01.01.02.01.03.01s.02 0 .03.01c.02.01.05.01.07.01h.01v-.01c.05-.01.09-.04.09-.09.01-.09-.08-.14-.18-.22-.04-.03-.07-.06-.09-.09-.03-.07-.01-.13-.1-.26 0-.03-.01-.06-.03-.11-.05.08-.07.24.05.37.1.11.3.21.3.3 0 .02-.02.04-.05.05-.01 0-.02 0-.03 0s-.01 0-.02-.01c-.01 0-.03-.01-.04-.02-.02-.01-.05-.03-.07-.06-.09-.08-.16-.2-.21-.26-.1-.12-.05-.24-.04-.34.07-.09-.04-.28-.11-.33 0 0 .01-.04 0-.1-.01.01-.04.01-.06.01-.02-.04-.02-.04-.05-.05-.04-.01-.04-.03-.05-.05-.02.02-.03.04-.06.04s-.05 0-.06.01c-.04.03-.05.04-.08.03-.04 0-.04.02-.03.05 0 .02 0 .05.03.05 0 0 .01 0 .01.01l.03.04.02-.04c.02-.02.07-.02.08.02.01.03.01.03-.02.04-.03 0-.05 0-.08.01-.02 0-.02.03-.02.05s.03.03.07.02c.05-.01.13-.02.13.02 0 .1-.12.1-.14.22-.03-.02-.06-.04-.07-.07-.02-.03-.05-.07-.09-.11-.02-.02-.06-.05-.09-.07-.04-.03-.04-.04-.04-.09 0-.04.02-.07.01-.1 0 0-.01-.02-.01-.03-.01-.02-.04-.04-.06-.04.01.01.02.02.02.04-.01.01-.02.02-.02.02-.01.01-.01.02 0 .04v.01.02c0 .01 0 0-.01 0-.01-.03-.02-.06-.05-.07 0 0-.01 0-.02 0 0 0 0 0 0-.01 0-.03-.03-.05-.06-.02.01 0 .02 0 .03.01 0 .01-.01.03-.01.03 0 .03.02.04.05.04h.01v.01c-.05-.02-.07 0-.07.02v.02c-.02.01-.02.04.01.06 0-.01 0-.02.01-.03h.01c0 .01.01.01.01.01s.01 0 .03-.01h.01s.01.01.01.01v.01c-.03.03-.02.06.01.07-.02.03-.07.02-.07-.03-.04.07.03.11.08.09 0 .02 0 .07.01.07 0 0 0-.01.01-.01v.01c0 .01.01.03.03.04 0-.01 0-.02.01-.02.02 0 .03.01.04.03.03.05.08.17.2.22-.06.04-.11.09-.14.14-.03.03-.09.07-.12.05-.01-.01-.02-.02-.04-.04-.01-.01-.03-.01-.04-.01 0 0-.01 0-.02.01-.02-.01-.05 0-.06.02.01 0 .03-.01.04.01v.02c0 .01.01.03.07.03 0 0 .01 0 .01.01-.01.01-.02.01-.03.01-.03-.01-.04-.03-.06 0 0 0-.01.01-.01.02 0 0 0 0-.01 0-.03.01-.05.06-.02.08 0-.01 0-.03.02-.04 0 .01.01.01.01.01.02.03.04.04.08-.02 0-.01.01 0 .01 0 0 .03-.03.07.01.08h.02v.01c.01.03.06.04.07.03-.01-.01-.03-.02-.04-.04h.02c.02-.02 0-.05.01-.07 0-.01.01 0 .01 0 .01.01.03.04.06.02.02-.01.02-.03.03-.04.04-.02.08-.03.11-.02-.01-.02.02-.05.07-.07.05-.01.07 0 .08.01 0-.02.02-.05.05-.08 0 .18.24.18.3.29-.07-.03-.16-.05-.2-.04-.06.01-.16.07-.18.13-.01.06.05.16.11.19-.07.01-.1-.01-.16.01h-.01c-.06.01-.06-.09-.13-.07 0 0-.01.01-.02.01-.03 0-.06.03-.05.06.01-.01.02-.02.04-.02v.01c0 .01 0 .02.02.02.01 0 .02-.01.03-.01 0 0 .01 0 .01.01 0 .03-.08-.01-.07.06 0 0 .01.01.01.02 0 .02.01.04.05.03-.01 0-.02-.01-.02-.03h.02s.01 0 .01-.01.01 0 .01.01v.02s0 .02.01.02c0 .03.03.05.07.03-.01 0-.03-.01-.04-.02.01 0 .02-.01.02-.01.01 0 .01-.01.01-.02s0-.01.01-.01h.02c.01 0 .01 0 .01.01.01.01.03.03.05.02.02 0 .02-.01.02-.02.01.01.02.01.03.02-.01-.03.01-.05.07-.01l.04-.03s.05.02.08 0c.03-.03.02-.03.02-.06-.02-.05-.04-.05-.05-.1-.02-.09.11-.14.18-.13.01.06.1.21.23.25.08.03.12-.06.15-.05.01 0 .01.01.01.03-.01.04 0 .08-.01.1s-.05 0-.09 0c-.02 0-.03.01-.03.01-.03 0-.06.03-.05.06.01-.01.03-.02.05-.02v.01c0 .04.04.05.07.02h.01c-.02.01-.06.05-.03.06 0 0 .01.01.02.01 0 .02.01.04.03.05-.01-.01-.01-.02 0-.04h.02c.02 0 .01-.04.04-.06 0 0 .01 0 0 0-.01.03-.01.06.01.06h.02c.01.02.03.03.06.02-.01 0-.03-.01-.03-.02.01-.01.02-.02.02-.02.02-.05-.03-.05-.03-.08s.05-.01.05-.06v-.01c.03-.01.05-.03.05-.05-.06 0-.09-.01-.09-.02zm-2.72 1.62c.02-.14 0-.18-.07-.18-.09 0-.26.09-.47.17l.45.63c.03-.17.05-.32.06-.41 0-.01 0-.03.01-.04h-.03c-.06 0-.1-.04-.1-.1s.06-.08.11-.08zm-.17 1.11c.02-.1.03-.21.05-.32l-.53-.75c-.07.03-.15.05-.23.07zm-.07.45c.01-.08.03-.18.05-.29l-.8-1.14c-.05.01-.1.01-.15.01-.03 0-.06 0-.09 0zm-1.13-1.42c-.07.82.51 1.34 1.09 1.56zm1.63-.12c.05 0 .1.03.09.1 0 .06-.05.09-.11.08h-.04l-.04 1.57.05.01-.01.14c-.01.04-.06.05-.11.05.03.24-.18.3-.28.3-.11 0-.2-.07-.2-.2 0-.1.09-.14.16-.14.06 0 .1.02.08.08-.01.04-.12.01-.12.07 0 .04.03.07.09.07.08 0 .13-.04.13-.13 0-.14-.14-.16-.27-.13-.9-.27-1.41-1.14-1.34-1.82-.02-.01-.04-.02-.06-.02l.06-.13c-.02.03-.05.04-.09.04-.06 0-.11-.05-.11-.11s.05-.11.11-.11.11.05.11.11v.01l.06-.13c.14.08.37.18.57.18.45 0 .78-.22.95-.22.19 0 .29.13.29.3v.05zm-.8-3.31c-.01.01-.01.04.01.05s.04-.01.04-.02.01-.02 0-.03-.01-.02 0-.03.02-.01.03 0c-.01-.01-.01-.02 0-.02s.01.02.02.02 0-.01 0-.02 0-.01-.01-.01l-.06-.03c-.01 0-.01-.01-.02 0 0 0-.01.01-.01.01 0 .01.02-.01.02 0 .01.01 0 .01-.01.01.01.01.02.01.02.03 0 .01-.01.01-.02.01 0 .01-.01.02-.01.03zm.11-.12c0 .02 0 .04.02.05.02 0 .01-.01.04-.02-.01-.01-.05-.02-.06-.03zm.5.28c-.02 0-.01 0 0 0 .1.02.13.04.18.04.03-.01.03.02.03.02 0 .03.04.01.05 0 0 .03 0 .04-.01.05v.01c0 .02 0 .05.03.04-.01.02-.02.01-.03.01.01.01.02.02.02.03 0 .04-.04.03-.04.05s.04.02.02.06c0 0-.01.01-.01.02s.02.01.02.02c-.03.01-.04 0-.05-.01-.01 0-.01 0-.01 0-.02-.01-.01-.03-.01-.05-.02.01-.01.05-.03.05h-.01c-.01.02-.01.03 0 .04-.01 0-.03-.02-.03-.04-.01 0-.01-.01-.01-.01-.02-.01.01-.04.02-.05 0 0 0-.01-.01 0-.02.02-.05.01-.05-.02v-.01c-.02 0-.03.01-.04.02 0-.02.02-.04.04-.05 0 0 .01-.01.03-.01s.06.01.07 0c.01-.02 0-.02.01-.07-.02-.04-.03-.04-.04-.04s-.06-.02-.1.01c-.04.02.04.03-.04.03-.05 0-.08-.01-.11-.03.02.03 0 .05.02.06.03.02.04.07.03.09-.01.01-.05.01-.08.01-.01 0-.02 0-.02 0-.03.01 0 .04-.04.05-.02.01-.04 0-.04-.02 0 0 0 0-.01 0h-.01s-.01 0-.01.01 0 .02-.01.02c0 0-.01 0-.01.01s.02.01.03.02c-.03.02-.06 0-.06-.02 0 0-.01-.02-.01-.02 0-.01.01-.01.01-.01s0 0-.01-.01c0 .01-.01.01-.01.01h-.01c0 .01.01.02.01.02-.03.01-.05-.01-.04-.03 0 0-.01-.02-.01-.02-.01-.06.06-.02.06-.05 0 0 0-.01-.01-.01s-.01 0-.02 0c-.02 0-.02-.01-.02-.02v-.01c-.02 0-.03.01-.04.02 0-.02.03-.05.05-.05 0 0 .01-.01.01-.01.06-.02.06.09.11.06.01 0 .03-.01.05-.01 0 0 0 0 0-.01-.01-.01-.04-.02-.06-.02-.04 0-.04-.07-.02-.11-.01.01-.05.03-.07.02-.23-.01-.05.07-.16.09-.02.01-.07.06-.13.06.01-.01 0-.03 0-.04-.01.02-.04.03-.06.03-.02.01-.03.02-.03.03 0 .03-.04.05-.06.05.01-.01.02-.02.02-.03 0 0 0-.01-.01 0-.05.03-.09 0-.1.08-.02-.02-.01-.05-.02-.05 0 0-.01.01-.01.02-.01-.01-.01-.02 0-.03-.03.01-.05.01-.06 0 0-.01-.01-.01-.01-.02-.01.03-.04.05-.05.05.02-.02.02-.04.01-.05 0 .01-.02.02-.02.02 0-.02 0-.03-.02-.03 0 .01-.01.04-.04.04s-.04-.03-.04-.04c0 0 0-.01-.01 0s0 .04-.03.05c0 0-.01 0-.02 0 0 .02.01.04.02.05-.02 0-.05-.02-.05-.05 0 0 0 0 0-.01-.01 0-.01-.01-.01-.01-.03-.02.01-.04.02-.06-.05.04-.07.02-.07-.01 0 0 0-.01-.01-.02-.02 0-.02.02-.03.02-.02-.03.02-.05.04-.05h.01c.01 0 .01-.01.02-.01.03-.02.03.01.05.03.01.01.02.01.03 0v-.01c-.05-.02-.06-.04-.05-.05 0 0 0-.01.01-.02-.01-.01-.02-.01-.03-.01.01-.01.04-.01.06.01h.02c.01 0 .02.01.03.02.01.02.01.03.02.04.02.04.11 0 .14-.01.02-.01.09-.01.1-.01 0 0 .09-.02.13-.04-.03-.03-.05-.07-.05-.07-.01 0-.01.01-.01.02-.02 0-.02-.02-.02-.03v-.01c-.01 0-.01.01-.01.01-.01 0-.01-.01-.01-.02 0 0 0 0-.01 0-.06.03-.12-.02-.07-.07-.01.05.06.06.07.01v-.01c-.04-.01-.04-.03 0-.06v-.01c-.01 0-.01 0-.01-.01h-.01c-.02.01-.02.01-.03.01 0 0-.01-.01-.01-.01s0 0-.01 0-.01.02-.01.02c-.03-.02-.02-.04 0-.04 0-.01 0-.02 0-.02 0-.02.02-.03.07-.02v-.01s0 0-.01 0c-.03 0-.04-.01-.04-.03 0 0 0-.02.01-.02 0-.01-.01-.01-.02-.01.03-.03.06-.01.05.01h.02c.02 0 .03.03.03.05 0-.01 0-.01 0-.01s0 0 0-.01c-.01-.01 0-.02 0-.03 0 0 .01-.01.02-.01 0-.02-.01-.03-.01-.03.02 0 .04.01.05.03v.03c0 .03-.02.05-.03.08s-.01.05.03.07c.02.01.03.02.05.04 0-.03.01-.09.03-.13 0-.01-.01-.01-.02-.02.02 0 .03-.04.04-.07-.01 0-.01-.01-.02-.02.02 0 .04-.05.06-.05-.01-.03 0-.04.01-.06.02 0 .03.01.04.02 0-.02.02-.02.03-.01 0 0 .03-.01.03 0 .01 0 .03 0 .05.01.03.01.04.03.05.03.01.01.01.03.01.03.01.01.02.02.01.03.01 0 .03.01.04.02 0 .02-.02.04-.04.04.03.04-.05.11-.05.15.23-.06.32.03.44.03.16 0 .27-.04.27-.09 0-.16-.59-.01-.59-.23 0-.03.02-.06.06-.09 0-.01 0-.03.01-.04.06-.08.18-.09.23-.15.01.03-.02.09-.07.12.11-.01.14-.21.4-.17-.21.04-.21.24-.51.27h-.01c-.03.02-.04.04-.04.06 0 .14.59 0 .59.23-.02.07-.12.14-.33.14zm-1.14.75c-.01.01-.01.04.01.05s.04-.01.05-.02.01-.03 0-.03c-.01-.01-.01-.02-.01-.03.01-.01.02-.01.04 0-.01-.01-.01-.03 0-.03s.01.03.02.02c.01 0 0-.01.01-.02 0-.01-.01-.01-.01-.02l-.07-.03c-.01 0-.01-.01-.02 0 0 0-.02.01-.01.02 0 .01.02-.01.03 0s0 .01-.02.02c.01.01.03.02.02.03 0 .01-.01.02-.03.01.01.01 0 .02-.01.03zm.08-.17c-.01 0-.05-.03-.07-.04.02.03 0 .04.02.06s.04 0 .05-.02zm.05.03c0 .02.01.05.03.05s.01-.01.05-.02c-.02 0-.07-.02-.08-.03zm1.3.18c0 .08-.2.11-.34.11.12.01.16.02.23.02.04-.01.04.02.04.02.01.03.05.02.06 0 0 .03 0 .05-.02.05v.01c.01.02-.01.05.03.05-.01.02-.02.02-.04.02.02.01.02.02.02.03 0 .05-.05.03-.05.06 0 .02.04.02.03.07 0 0-.01.02-.01.02 0 .01.02.02.02.02-.03.01-.05 0-.06-.02-.01 0-.02 0-.02 0-.02-.01-.02-.04-.01-.06-.02.01-.01.06-.03.05 0 0-.01 0-.02 0-.01.02-.01.03 0 .04-.02 0-.03-.02-.03-.04-.01 0-.02-.01-.02-.01-.03-.01.01-.04.03-.06 0-.01 0-.01-.01-.01-.02.02-.06.01-.06-.02v-.01c-.02 0-.04.02-.04.02 0-.03.03-.05.05-.05 0 0 .01-.01.03-.01.03 0 .07.02.08 0s-.01-.03.01-.08c0-.02-.01-.02-.02-.02s-.07-.02-.12.01c-.04.03-.07.04-.16.04-.05 0-.09-.02-.13-.03.02.03 0 .06.02.07.04.02.04.08.03.1s-.06.02-.1.01c-.01 0-.02 0-.03 0-.03.01 0 .05-.04.06-.02.01-.04-.01-.05-.02 0 0 0-.01-.01 0-.01 0-.01 0-.02 0 0 0-.01 0-.01.01s0 .02-.01.03c0 0-.01.01-.02.01 0 .01.03.02.04.02-.04.03-.07 0-.07-.03 0 0-.01-.02-.01-.02 0-.01 0-.01 0-.01s0-.01-.01-.01c0 .01 0 .01-.01.01 0 0-.01 0-.02 0 0 .01.01.02.02.02-.04.01-.05-.01-.05-.03 0 0-.01-.02-.01-.02-.01-.08.08-.04.08-.07 0-.01 0-.01-.01-.01s-.01.01-.03.01-.03-.01-.02-.02v-.01c-.02 0-.03.01-.04.02-.01-.03.03-.06.06-.06 0 0 .01-.01.02-.01.07-.03.07.11.13.07.01 0 .03-.01.06-.01 0 0 .01 0 0-.01s-.05-.03-.07-.03c-.04-.01-.04-.09-.02-.12-.02.01-.06.03-.08.03-.29-.05-.17.13-.35.11-.01 0-.04 0-.06.01-.01.04-.12.14-.18.12.01-.01.02-.02.02-.03-.06.04-.11 0-.12.09-.02-.02-.01-.06-.02-.06 0 0-.01.01-.01.02-.01-.01-.01-.02 0-.04-.04.01-.06.01-.07 0 0-.01-.01-.01-.01-.02-.01.04-.05.06-.06.06.02-.02.02-.04.01-.06-.01.01-.02.02-.03.03 0-.02-.01-.03-.02-.04 0 .02-.01.05-.05.05-.05 0-.05-.03-.05-.05 0 0 0-.01-.01 0-.02.01 0 .05-.03.06 0 0-.01 0-.02 0 0 .03.01.04.02.05-.02 0-.06-.03-.05-.06 0 0 0 0 0-.01-.01-.01-.01-.01-.01-.01-.03-.02.01-.05.02-.07-.06.04-.08.02-.08-.01 0 0 0-.01-.01-.02-.02 0-.03.02-.03.03-.02-.03.02-.06.05-.06h.01c.01 0 .02-.01.02-.01.03-.02.03.01.06.03.01.01.02.01.03 0 .01 0 0-.01 0-.01-.06-.02-.07-.04-.06-.05 0 0 .01-.01.01-.02-.01-.02-.03-.02-.04-.03.01-.01.05-.01.07.01h.02c.01 0 .02.01.03.03 0 .01-.01.02 0 .04.03.04.12 0 .16-.02.03-.01.13 0 .15 0 .01 0-.03-.05-.02-.09-.03.03-.05-.02-.09-.03-.05-.03-.07-.07-.08-.07s-.01.01-.01.02c-.02 0-.03-.02-.03-.04v-.01c-.01 0-.01.01-.01.01-.01 0-.02-.01-.02-.02 0 0 0 0-.01 0-.06.03-.13-.02-.09-.08-.01.06.07.07.08.01 0-.01 0-.01-.01-.01-.04-.01-.04-.04-.01-.07v-.01s-.01-.01-.01-.01h-.01c-.02.01-.02.01-.03.01 0 0-.01-.01-.01-.01s0 0-.01 0-.01.02-.01.03c-.03-.02-.02-.04-.01-.06v-.02c0-.02.02-.04.07-.02h.01v-.01s0 0-.01 0c-.03 0-.05-.01-.05-.04 0 0 0-.02.01-.03 0-.01-.02-.01-.02-.01.03-.03.06-.01.06.02h.02c.02 0 .03.04.04.06 0 0 0 .01 0 0s0-.01 0-.02c0 0 0 0 0-.01-.01-.01-.01-.03 0-.04 0 0 .01-.01.02-.02 0-.02-.01-.03-.02-.04.02 0 .05.01.05.04 0 .01.01.03.01.03 0 .03-.02.07-.02.1 0 .04 0 .06.04.09.04.02.07.06.09.08l.03.01c-.01 0-.01 0-.02 0 .01 0 .01.01.02.01h.01l.04.02c0-.02 0-.05.01-.08-.01 0-.02-.01-.04-.03.02 0 .03-.04.05-.08-.01 0-.01-.01-.02-.03.02.01.05-.05.07-.06-.01-.03 0-.05.01-.07.02 0 .03.01.05.02 0-.02.02-.02.04-.02 0 0 .03-.01.04-.01s.03 0 .06.02c.03.01.05.03.06.04.01 0 .01.03.01.04.01.01.02.02.01.04.02 0 .04.01.05.02 0 .02-.02.04-.04.05.03.03-.02.09-.05.14.28-.05.74.02.89.02.1 0 .27-.01.27-.06 0-.03-.04-.05-.21-.05-.18 0-.73.12-.73-.09 0-.1.12-.1.27-.09 0 0 .01-.01.02-.01.11-.07.29.02.38-.04-.01.03-.05.07-.17.07.2.04.36-.11.56.04-.16-.05-.48.09-.75.02-.02-.01-.04-.01-.04-.02-.11-.01-.2-.01-.2.05 0 .12.47.04.68.04.19-.01.26.03.26.1zm-1.67.88c-.01.01-.01.04.01.05s.04-.01.04-.02.01-.03 0-.03c-.01-.01-.01-.02 0-.03s.02-.01.04 0c0-.01 0-.03 0-.02.01 0 .01.02.02.02s0-.01 0-.02 0-.01-.01-.02l-.06-.03c-.01 0-.01-.01-.02 0 0 0-.02.01-.01.02 0 .01.02-.01.03 0s0 .01-.01.02c.01.01.03.02.02.03 0 .01-.01.02-.03.02 0-.01-.01 0-.02.01zm.08-.16c-.01 0-.05-.02-.07-.04.02.03 0 .04.02.05.02.02.04.01.05-.01zm.04.03c0 .02 0 .05.03.05.02 0 .02-.01.05-.02-.02-.01-.07-.03-.08-.03zm1.46.16c0 .07-.21.1-.32.11.11.01.16.02.22.02.04-.01.04.02.04.02 0 .03.04.01.05 0 0 .03 0 .04-.02.05v.01c.01.02-.01.05.03.05-.01.02-.02.01-.04.01.02.01.02.02.02.03 0 .05-.05.03-.05.06 0 .02.04.02.03.07 0 0-.01.01-.01.02s.02.02.03.02c-.03.01-.05 0-.06-.02-.01 0-.01 0-.02 0-.02-.01-.02-.03-.01-.06-.02.01-.01.05-.03.05h-.02c-.01.02-.01.03 0 .04-.02 0-.03-.02-.03-.04-.01 0-.01-.01-.02-.01-.03-.01.01-.04.02-.06 0 0 0-.01-.01 0-.02.02-.05.01-.06-.02v-.01c-.02 0-.03.02-.04.02 0-.03.03-.05.05-.05 0 0 .01-.01.03-.01.03 0 .07.02.07 0 .01-.02-.01-.03 0-.07 0-.02-.01-.02-.02-.02s-.06-.02-.11.01c-.04.02-.06.04-.15.04-.05 0-.09-.02-.12-.03.02.03 0 .05.02.07.04.02.04.08.03.1-.01.01-.06.02-.09.01-.01 0-.02 0-.02 0-.03.01 0 .04-.04.06-.02.01-.04 0-.05-.02 0 0 0-.01-.01-.01h-.01s-.01 0-.01.01 0 .02-.01.02c0 0-.01 0-.02.01 0 .01.02.02.03.02-.03.02-.07 0-.07-.02 0 0-.01-.02-.01-.02 0-.01 0-.01 0-.01s0 0-.01-.01c0 .01-.01.01-.01.01h-.02c0 .01.01.02.02.02-.04.01-.05-.01-.05-.03 0-.01-.01-.02-.01-.02-.01-.07.06-.03.06-.05 0 0 0-.01-.01-.01s-.01.01-.03.01-.03-.01-.02-.02v-.01c-.02 0-.03.02-.04.02-.01-.03.03-.05.05-.05 0 0 .01-.01.02-.01.06-.02.06.1.12.06.01 0 .03-.01.05-.01 0 0 .01 0 0-.01s-.05-.03-.07-.03c.01-.04.01-.1.03-.14-.02.01-.02.02-.04.02-.38-.04-.19.15-.52.1-.02 0-.02.04-.07.04-.01 0-.02 0-.03.01 0 .01 0 .02-.01.03l-.09.03s0 0 .01-.01c-.02.02-.05.03-.07.03.01-.01.02-.02.03-.03 0 0 0-.01-.01 0-.06.04-.16-.01-.17.08-.02-.02-.01-.05-.02-.05s-.01.01-.01.02c-.01-.01-.01-.02 0-.04-.05 0-.07 0-.08 0 0-.01-.01-.01-.01-.02-.01.04-.04.05-.06.06.02-.02.02-.04.01-.06-.01.01-.02.02-.03.02 0-.02 0-.03-.02-.04 0 .02-.01.05-.05.05s-.04-.03-.04-.04c0 0 0-.01-.01 0-.02.01 0 .05-.03.06 0 0-.01 0-.02 0 0 .03.01.04.02.05-.02 0-.06-.02-.05-.06-.01 0-.01-.01-.01-.01-.03-.02.01-.05.02-.07-.06.04-.07.02-.08-.01 0 0 0-.01 0-.02-.02 0-.03.02-.03.03-.02-.03.02-.06.05-.06h.01c.01 0 .02-.01.02-.01.03-.01.03.01.05.03.01.01.03.01.03 0v-.01c-.06-.02-.06-.04-.06-.05 0 0 .01-.01.01-.02-.01-.02-.02-.02-.04-.02.01-.01.05-.01.06.01h.02c.01 0 .02.01.03.02.01.02.01.03.02.04.03.04.12.01.16-.01.03-.01.15-.01.16-.01s-.02-.05-.02-.08c-.01-.01-.02-.01-.02-.02-.01.02-.03.02-.05.02-.08-.04-.12-.12-.13-.12s-.01.01-.01.02c-.02 0-.03-.02-.03-.04v-.01c-.01 0-.01.01-.01.01-.01 0-.02-.01-.02-.02 0 0 0 0-.01 0-.05.03-.13-.02-.09-.08 0 .06.07.07.07.01 0 0 0-.01-.01-.01-.04-.01-.05-.04-.02-.07 0 0 0 0 0-.01 0 0-.01-.01-.01-.01h-.01c-.01.01-.02.01-.03.01 0 0-.01-.01-.01-.01s0 0-.01 0-.01.02-.01.03c-.03-.02-.03-.04-.01-.05v-.02c0-.02.02-.04.06-.02 0 0 .01 0 0 0v-.01s0 0-.01 0c-.03 0-.05-.01-.05-.04 0 0 0-.02.01-.03-.01-.01-.02-.01-.02-.01.03-.03.06-.01.06.01v.01h.02c.02 0 .03.04.04.06 0 0 0 .01 0 0s0-.01 0-.02c0 0 0 0 0-.01-.01-.01-.01-.03 0-.03 0 0 .01-.01.01-.02 0-.02-.01-.03-.02-.03.02 0 .05.01.05.03 0 .01.01.03.01.03 0 .03-.01.06-.01.1s0 .06.04.08c.05.03.08.08.11.08h.03.03l.02.01c0-.02 0-.04.01-.06-.01 0-.01-.01-.02-.02.02 0 .03-.04.05-.08-.01 0-.01-.01-.02-.03.02.01.05-.05.07-.05-.01-.03 0-.05.01-.07.02 0 .03.01.04.02 0-.02.02-.02.03-.01 0 0 .03-.01.04 0 .01 0 .03 0 .06.02.03.01.05.03.06.04 0 0 .01.03.01.03.01.01.02.02.01.03.02 0 .03.01.05.02 0 .02-.02.04-.04.05.03.04-.03.1-.05.15.26-.08.91.01 1.06.01.09 0 .26-.01.26-.06 0-.03-.03-.05-.2-.05s-.86.12-.86-.08c0-.11.23-.09.42-.09 0-.01.01-.01.02-.01.1-.07.35.03.44-.03-.01.03-.12.05-.24.05.19.04.38-.11.52.03-.18-.06-.45.11-.71.04-.02-.01-.04-.02-.04-.03-.15 0-.36-.03-.36.04 0 .11.61.04.81.04.24.01.31.05.31.11zm1.27 1.29c-.01.01-.01.04.01.05s.04-.01.04-.02c0-.02.01-.03 0-.03-.01-.01-.01-.02-.01-.03.01-.02.02-.01.04 0-.01-.01-.01-.02 0-.02s.01.02.02.02 0-.01 0-.02-.01-.01-.01-.02l-.06-.03c-.01 0-.01 0-.02 0 0 0-.02.01-.01.02 0 .01.02-.01.02 0 .01.01 0 .01-.01.02.01.01.03.02.02.03s-.01.02-.03.02c.01-.02.01-.01 0 .01zm.12-.14c0 .02.01.05.03.05s.01-.01.05-.02c-.02 0-.07-.02-.08-.03zm1.43.37c0 .02-.01.05.03.05-.01.02-.02.01-.04.01.02.01.02.02.02.03 0 .05-.05.03-.05.06 0 .02.04.02.02.07 0 0-.01.01-.02.02 0 .01.02.02.02.02-.03.01-.05 0-.05-.02-.01 0-.01 0-.02 0-.02-.01-.01-.03 0-.06-.02.01-.02.05-.04.05h-.02c-.01.02-.01.03 0 .04-.02 0-.03-.02-.03-.04-.01 0-.01-.01-.01-.01-.03-.01.01-.04.03-.06 0 0 0-.01-.01 0-.02.02-.06.01-.06-.02v-.01c-.02 0-.03.01-.04.02 0-.03.03-.05.05-.05 0 0 .01-.01.03-.01.03 0 .07.02.08 0s0-.03.01-.07c0-.01-.01-.02-.01-.02-.01 0-.06-.02-.11.01-.04.03-.07.04-.16.04-.05 0-.09-.02-.12-.03.02.03 0 .06.02.07.04.02.04.08.03.1s-.06.02-.09.01c-.01 0-.02 0-.03 0-.03.01 0 .04-.04.06-.02.01-.04 0-.05-.02 0 0 0-.01-.01 0-.01 0-.01 0-.02 0 0 0-.01 0-.01.01s0 .02-.01.02c0 0-.01 0-.02.01 0 .01.03.02.04.02-.04.02-.07 0-.07-.02 0 0-.01-.02-.01-.02 0-.01 0-.01 0-.01s0 0-.01-.01c0 .01 0 .01-.01.01h-.01c0 .01.01.02.02.02-.03.01-.05-.01-.05-.03 0 0-.01-.02-.01-.02-.01-.06.06-.03.06-.05 0 0 0-.01-.01-.01s-.01.01-.02.01c-.02 0-.03-.01-.02-.02v-.01c-.02 0-.03.01-.04.02-.01-.03.03-.06.05-.05 0 0 .01-.01.02-.01.06-.02.06.1.12.07.01 0 .03-.01.05-.01 0 0 .01 0 0-.01s-.05-.02-.07-.03c-.04-.01-.04-.08-.02-.12-.01.01-.02.04-.04.04-.38-.04-.2.15-.52.1-.02 0-.02.04-.07.04-.03.01-.06.01-.06.02 0 .03-.08.08-.1.07.01-.01.02-.02.03-.03 0-.01 0-.01-.01 0-.06.04-.1 0-.11.09-.02-.02-.01-.06-.02-.06s-.01.01-.01.02c-.01-.01-.01-.02 0-.04-.03.01-.06.01-.07 0 0-.01-.01-.01-.01-.02-.01.04-.04.05-.06.06.02-.02.02-.04.01-.06-.01.01-.02.02-.03.03 0-.02-.01-.03-.02-.04 0 .02-.01.05-.04.05-.04 0-.04-.03-.04-.04 0 0 0-.01-.01 0-.02.01 0 .05-.03.06 0 0-.01 0-.02 0 0 .02.01.04.02.05-.02 0-.06-.02-.05-.06 0 0 0 0 0-.01-.01 0-.01-.01-.01-.01-.03-.02.01-.04.02-.07-.06.04-.07.02-.08-.01 0 0 0-.01 0-.02-.02 0-.03.02-.03.03-.02-.03.02-.06.05-.06h.01c.01 0 .02-.01.02-.01.03-.02.03.01.05.03.01.01.02.01.03 0v-.01c-.06-.02-.06-.04-.05-.05 0 0 .01-.01.01-.02-.01-.02-.02-.02-.03-.02.01-.01.05-.01.06.01h.02c.01 0 .02.01.03.02.01.02.01.03.02.05.03.04.12 0 .16-.02.03-.01.1 0 .11 0s-.04-.04-.03-.08l-.01.01c-.01-.01-.02-.02-.03-.04-.02.01-.05.02-.05.03-.08-.04-.12-.13-.13-.13s-.01.01-.01.02c-.02 0-.03-.02-.03-.04v-.01c-.01 0-.01.01-.01.01-.01 0-.02-.01-.02-.02 0 0 0 0-.01 0-.05.03-.13-.02-.09-.08 0 .06.07.07.07.01 0 0 0-.01-.01-.01-.04-.01-.05-.04-.01-.07v-.01c-.01 0-.01-.01-.01-.01-.01 0-.01 0-.01 0-.02.01-.02.01-.03.01 0 0-.01-.01-.01-.01s0 0-.01 0-.01.02-.01.03c-.03-.02-.03-.04-.01-.05v-.02c0-.02.02-.04.07-.02 0 0 .01 0 0 0v-.01s0-.01-.01-.01c-.03 0-.05-.01-.04-.04 0 0 0-.02.01-.03 0-.01-.02-.01-.02-.01.03-.03.06-.01.06.01h.02c.02 0 .03.04.04.06 0 0 0 .01 0 0s0-.01 0-.02c0 0 0 0 0-.01-.01-.01-.01-.03 0-.04 0 0 .01-.01.02-.02 0-.02-.01-.03-.02-.03.02 0 .05.01.05.03 0 .01.01.03.01.03 0 .03-.01.06-.01.1s0 .06.04.08c.05.03.08.08.11.08.01 0 .02 0 .03.01h.03l.03.01c0-.02 0-.04.01-.06-.01 0-.02-.01-.03-.03.02 0 .03-.04.05-.08-.01 0-.01-.01-.02-.03.02.01.05-.05.07-.05-.01-.03 0-.05.01-.07.02 0 .03.01.05.02 0-.02.02-.02.03-.01 0 0 .03-.01.04 0 .01 0 .03 0 .06.02.03.01.05.03.06.04.01 0 .01.03.01.03.01.01.02.02.01.03.02 0 .03.01.05.02 0 .02-.02.04-.04.05.03.03-.03.1-.05.14.26-.08.91.01 1.06.01.09 0 .26-.01.26-.06 0-.03-.04-.05-.2-.05-.17 0-.86.11-.86-.08 0-.11.23-.09.42-.09 0 0 .01-.01.02-.01.1-.07.35.03.44-.03-.01.03-.13.05-.24.05.19.04.32-.08.52-.01-.15-.04-.45.15-.7.07-.02-.01-.04-.02-.04-.03-.15 0-.36-.03-.36.04 0 .11.61.04.81.04s.27.04.27.1c0 .07-.21.09-.32.1-.01 0-.01.01 0 .01.11.01.17.02.23.02.04-.01.04.02.04.02 0 .03.04.01.06 0-.06.03-.07.05-.09.06zm-1.43.56c.02 0 .01-.01.05-.02-.02-.01-.06-.02-.07-.03-.01.02 0 .05.02.05zm-.04.04c.01 0 0-.01 0-.02s0-.01-.01-.02l-.06-.03c-.01 0-.01 0-.02 0 0 0-.01.01-.01.01 0 .01.01-.01.02 0s0 .01-.01.02c.01.01.03.02.02.03 0 .01-.01.02-.02.01-.01 0-.01.01-.02.02s-.01.04.01.05.04-.01.04-.02.01-.02 0-.03-.01-.02-.01-.03c.01-.01.02-.01.03 0-.01-.01-.01-.02 0-.02.04.01.04.03.04.03zm.58-.1c-.1-.01-.18-.01-.18.04 0 .11.43.04.62.04s.2.04.2.09c0 .07-.22.09-.33.09-.01 0-.01.01 0 .01.11.01.19.02.25.02.04-.01.03.01.03.02 0 .03.04.01.05 0 0 .03-.01.04-.03.05v.01c0 .02-.02.05.02.04-.01.02-.02.02-.04.02.01.01.01.02.01.03-.01.05-.06.03-.06.05s.03.02.01.07c0 0-.01.01-.02.02 0 .01.01.01.02.02-.03.01-.05 0-.05-.02-.01 0-.01 0-.01 0-.02-.01-.01-.03.01-.05-.03.01-.03.05-.04.05 0 0-.01 0-.02 0-.01.02-.01.03-.01.04-.01 0-.02-.02-.02-.04-.01 0-.01-.01-.02-.01-.02-.01.02-.04.04-.05.01-.01 0-.01-.01-.01-.02.02-.06.01-.05-.02v-.01c-.02 0-.04.02-.04.02 0-.02.04-.04.06-.05 0 0 .01-.01.03-.01.03 0 .06.02.07 0s0-.02.02-.07c.01-.01 0-.02-.01-.02s-.06-.02-.11.01c-.04.02-.09.04-.17.04-.05 0-.09-.01-.12-.03.02.03 0 .05.02.06.04.02.04.08.03.09s-.06.01-.09.01c-.01 0-.02 0-.02 0-.03.01 0 .04-.04.06-.02.01-.04 0-.05-.02 0 0 0-.01-.01 0h-.01-.01c0 .01 0 .02-.01.02 0 0-.01 0-.02.01 0 .01.02.02.03.02-.03.02-.07 0-.06-.02 0 0-.01-.02-.01-.02 0-.01 0-.01 0-.01s0-.01-.01-.01c0 .01 0 .01-.01.01h-.01c0 .01.01.02.02.02-.03.01-.05-.01-.05-.03 0 0-.01-.02-.01-.02-.01-.06.06-.03.06-.05 0 0 0-.01-.01-.01s-.01.01-.02.01c-.02 0-.02-.01-.02-.02v-.01c-.02 0-.03.01-.04.02-.01-.02.03-.05.05-.05 0 0 .01-.01.02-.01.06-.02.06.1.12.06.01-.01.03-.01.05-.01 0 0 .01 0 0-.01s-.05-.02-.06-.03c-.04-.01-.04-.08-.02-.11-.01.01-.05.03-.06.03-.27-.05-.14.11-.3.09-.02 0-.01.04-.07.04.01-.01.01-.02.01-.03 0 .01-.01.01-.01.02-.02.04-.08.12-.13.08.01-.01.02-.02.02-.03s0-.01-.01 0c-.05.03-.12.01-.13.1-.02-.02-.01-.05-.02-.05 0 0-.01.01-.01.02-.01-.01-.01-.02 0-.03-.03.01-.06.01-.06 0s-.01-.01-.01-.02c-.01.04-.04.05-.05.06.02-.02.02-.04.01-.06-.01.01-.02.02-.02.03 0-.02-.01-.03-.02-.04 0 .02-.01.04-.04.05-.03 0-.04-.03-.04-.04 0 0 0-.01-.01 0-.02.01 0 .04-.03.05 0 0-.01 0-.02 0 0 .02.01.04.02.05-.02 0-.05-.02-.05-.05 0 0 0 0 0-.01-.01 0-.01-.01-.01-.01-.03-.02.01-.04.02-.07-.06.04-.07.02-.08-.01 0 0 0-.01 0-.02-.02 0-.03.02-.03.03-.02-.03.02-.06.04-.06h.01c.01 0 .02-.01.02-.01.03-.01.03.01.05.03.01.01.02.01.03 0v-.01c-.06-.02-.06-.04-.05-.05 0 0 0-.01.01-.02-.01-.02-.02-.02-.03-.02.01-.01.05-.01.06.01h.02c.01 0 .02.01.03.02.01.02.01.03.02.04.03.04.11 0 .15-.01.03-.01.1 0 .11 0s0-.06 0-.09l-.05.01c-.01-.01-.02-.01-.02-.02-.07-.04-.06-.01-.07-.01s-.01.01-.01.02c-.02 0-.03-.02-.03-.03v-.01c-.01 0-.01.01-.01.01-.01 0-.01-.01-.02-.02 0 0 0 0-.01 0-.05.03-.12-.02-.08-.08 0 .05.07.06.07.01 0 0 0-.01-.01-.01-.04-.01-.04-.03-.01-.06 0 0 0 0 0-.01 0 0-.01-.01-.01-.01h-.01c-.01.01-.02.01-.02.01s-.01-.01-.01-.01 0 0-.01 0-.01.02-.01.03c-.03-.02-.02-.04-.01-.05 0-.01 0-.02 0-.02 0-.02.02-.04.06-.02 0 0 .01 0 0 0v-.01s0-.01-.01-.01c-.03 0-.04-.01-.04-.03 0 0 0-.02.01-.02-.01-.01-.02-.01-.02-.01.03-.03.05-.01.05.02h.01c.02 0 .03.03.04.06 0 0 0 .01 0 0s0-.01 0-.01v-.01c-.01-.01-.01-.02 0-.03 0 0 .01-.01.01-.02 0-.02-.01-.03-.02-.03.02-.01.04.01.05.03 0 .01.01.03.01.03 0 .03-.01.06-.01.09 0 .04 0 .06.04.08.05.03.07.03.1.03h.01l.02.01c0-.02.01-.05.01-.07-.01 0-.01-.01-.02-.02.02 0 .03-.04.05-.08-.01 0-.01-.01-.02-.02.02.01.04-.05.07-.05-.01-.03 0-.05.01-.07.02 0 .03.01.04.02 0-.02.02-.02.03-.01 0 0 .03-.01.03 0 .01 0 .03 0 .06.02.03.01.05.03.06.04.01 0 .01.03.01.03.01.01.02.02.01.03.02 0 .03.01.05.02 0 .02-.02.04-.04.05.02.03-.02.08-.04.12.25-.05.67.02.8.02.09 0 .27-.01.27-.06 0-.03.02-.05-.14-.05s-.67.11-.67-.08c0-.09.11-.09.24-.08 0 0 .01-.01.01-.01.1-.06.34.03.42-.03-.01.03-.12.05-.23.05.18.04.31-.08.5-.01-.15-.04-.43.14-.67.07-.05-.06-.06-.07-.07-.08zm-.76 1.01c-.01.01-.01.03.01.04s.04-.01.04-.02.01-.02 0-.03-.01-.02 0-.03.02-.01.03 0c-.01-.01-.01-.02 0-.02s.01.02.01.02c.01 0 0-.01 0-.02s0-.01-.01-.02l-.06-.03c-.01 0-.01-.01-.02 0 0 0-.01.01-.01.02 0 0 .02-.01.02 0 .01.01 0 .01-.01.02.01.01.03.01.02.03 0 .01-.01.01-.02.01.01.01 0 .02 0 .03zm.11-.12c0 .02 0 .04.02.05.02 0 .01-.01.04-.02-.01 0-.06-.02-.06-.03zm.45-.02c-.05.02-.09.04-.09.07 0 .1.63-.05.64.09 0 .07-.13.13-.34.12-.01 0-.03 0-.06 0 0 .05.07.05.1.09.02.02.01.04-.03.06-.03.01.02.04.04.04-.02.02-.03.03-.04.02 0 0 0 0-.01 0-.01.02-.04.03-.01.05-.02.01-.02 0-.03-.01.01.01 0 .03-.01.03-.03.03-.05-.01-.07 0-.01.01.01.04-.03.06 0 0-.01 0-.02 0v.03c-.03-.01-.03-.03-.02-.05 0 0-.01-.01-.01-.01-.01-.02.01-.03.03-.04-.02-.01-.04.02-.06.01 0 0-.01-.01-.01-.01-.02.01-.02.01-.03.02-.01-.01 0-.03.01-.05 0-.01 0-.01 0-.02-.01-.02.03-.02.05-.02 0 0 0 0 0-.01-.01-.01-.01-.01-.01-.02v-.01c-.02-.01-.03 0-.04 0 .01-.02.04-.03.06-.02 0 0 .01-.01.03 0 .01.01.02.03.04.04.02-.01.01-.02.05-.04.01-.01.01-.02 0-.02-.01-.01-.05-.04-.09-.05-.02.03-.16.01-.2 0 .09.05.05.17.06.18.03.02.04.07.03.09s-.03.01-.06 0c-.01 0-.02 0-.02 0-.03.01 0 .04-.04.05-.02.01-.04 0-.04-.02 0 0 0-.01-.01-.01s-.01 0-.01 0-.01 0-.01.01 0 .02-.01.02c0 0-.01 0-.02.01 0 .01.02.01.03.01-.03.02-.06 0-.06-.02 0 0-.01-.02-.01-.02 0-.01 0-.01 0-.01s0 0-.01-.01c0 .01-.01.01-.01.01h-.01c0 .01.01.02.01.02-.03.01-.05-.01-.04-.03 0 0-.01-.02-.01-.02-.01-.06.06-.03.06-.05 0 0 0-.01-.01-.01s-.01.01-.02.01c-.02 0-.02-.01-.02-.02v-.01c-.02 0-.03.01-.04.02-.01-.02.02-.05.05-.05 0 0 .01-.01.02-.01.06-.02.06.09.11.06.01 0 .03-.01.05-.01 0 0 .01 0 0-.01s-.06-.05-.06-.09c0-.03.01-.08.02-.09-.07 0-.1.05-.16.06-.01 0-.01 0-.02 0-.01.09-.05.12-.05.14 0 .03-.06.05-.07.05.01-.01.02-.02.02-.03s0-.01-.01 0c-.05.03-.09 0-.1.08-.02-.02-.01-.05-.02-.05 0 0-.01.01-.01.02-.01-.01-.01-.02 0-.03 0 0 0 0-.01 0-.03.01-.05.01-.06 0 0-.01 0-.01-.01-.02-.01.03-.04.05-.05.05.02-.02.02-.04.01-.05-.01.01-.02.02-.02.02 0-.02-.01-.03-.01-.03 0 .02-.01.04-.04.04s-.04-.03-.04-.04c0 0 0-.01-.01 0s0 .04-.03.05c0 0-.01 0-.02 0 0 .02.01.04.02.05-.02 0-.05-.02-.05-.05 0 0 0 0 0-.01-.01 0-.01-.01-.01-.01-.03-.02.01-.04.02-.06-.05.04-.07.02-.07-.01 0 0 0-.01-.01-.02-.02 0-.03.02-.03.03s.03-.02.05-.02h.01c.01 0 .01-.01.02-.01.03-.01.03.01.05.03.01.01.02.01.03 0v-.01c-.05-.02-.06-.04-.05-.05 0 0 .01-.01.01-.02-.01-.02-.02-.02-.03-.02.01-.01.04-.01.06.01h.02c.01 0 .02.01.03.02.01.02.01.03.02.04s.04.02.06.01v.01-.01c.03 0 .06-.02.08-.03s.11 0 .12 0-.01-.03-.02-.06c-.04 0-.07-.02-.09-.06-.07-.04-.06-.12-.07-.12s-.01.01-.01.02c-.02 0-.02-.02-.02-.03v-.01c-.01 0-.01.01-.01.01-.01 0-.01-.01-.02-.02 0 0 0 0-.01 0-.05.03-.12-.01-.08-.07 0 .05.06.06.07.01 0 0 0-.01-.01-.01-.03-.01-.04-.03-.01-.06 0 0 0 0 0-.01 0 0-.01-.01-.01-.01s0 0-.01 0c-.01.01-.02.01-.02.01s-.01-.01-.01-.01 0 0-.01 0-.01.02-.01.03c-.03-.02-.02-.04-.01-.05v-.02c0-.02.02-.04.06-.02v-.01s0 0-.01 0c-.02 0-.04-.01-.04-.03v-.02c0-.01-.01-.01-.02-.01.03-.03.05-.01.05.01h.01c.02 0 .03.03.04.05 0 0 0 .01 0 0s0-.01 0-.01 0 0 0-.01c-.01-.01-.01-.02 0-.03 0 0 .01-.01.01-.02 0-.02-.01-.03-.02-.03.02 0 .04.01.05.03 0 .01.01.03.01.03 0 .03-.01.06-.01.09 0 .04 0 .05.04.07s.1.11.13.15c-.01-.04 0-.1.01-.15-.01 0-.01-.01-.02-.02.02 0 .03-.04.05-.07-.01 0-.01-.01-.02-.02.02.01.04-.05.06-.05-.01-.03 0-.04.01-.07.01 0 .03.01.04.02 0-.01.02-.01.03-.01 0 0 .03-.01.03-.01.01 0 .03 0 .06.02.03.01.04.03.05.04.01 0 .01.03.01.03.01.01.02.02.01.03.01 0 .03.01.04.02 0 .02-.01.04-.04.04.03.03-.03.1-.05.14.27-.07.48.01.61.01.16 0 .29-.04.29-.08 0-.05-.62.07-.62-.09 0-.05.06-.1.14-.11l.02-.02c.1-.06.34.03.42-.02-.01.03-.12.05-.23.05.18.04.31-.08.5-.01-.15-.04-.43.14-.67.07-.05.03-.06.02-.07 0zm-10.19-10.92c0-.08-.07-.15-.15-.15s-.15.07-.15.15.07.15.15.15c.08.01.15-.06.15-.15zm-.05-.4c0-.08-.07-.15-.15-.15s-.15.07-.15.15.07.15.15.15.15-.07.15-.15zm.08-.18c.08 0 .15-.07.15-.15s-.07-.15-.15-.15-.15.07-.15.15.07.15.15.15zm.41-.03c.08 0 .15-.07.15-.15s-.07-.15-.15-.15-.15.07-.15.15c0 .09.06.15.15.15zm1.73-.28c.06.06.16.06.22 0s.06-.15 0-.21-.16-.06-.22 0-.06.15 0 .21zm-.03-.32c.06-.06.06-.16 0-.21-.06-.06-.16-.06-.22 0s-.06.15 0 .21.16.06.22 0zm-.41-.07c.06-.06.06-.15 0-.21s-.16-.06-.22 0-.06.16 0 .22c.07.05.16.05.22-.01zm-.34.26c.06-.06.06-.15 0-.21s-.16-.06-.22 0-.06.16 0 .22c.06.05.16.05.22-.01zm-.98-.21.12.27.15-.18c.01 0 .01 0 .02.01.01.09.02.24.02.33 0 .11.09.19.19.19.11 0 .19-.09.19-.19 0-.07-.04-.14-.1-.17-.08-.06-.16-.14-.21-.2 0-.01.01-.01.01-.02l.26.02-.1-.27-.19.16s-.01 0-.01-.01l-.01-.28-.27.1.18.21c0 .01-.01.01-.01.02zm1.77.47c.06.09.08.14.09.21-.05-.02-.1-.06-.16-.14l.03.35c.04-.06.08-.11.13-.13-.01.23-.11.33-.18.34-.1.02-.17-.04-.18-.12-.02-.1.07-.17.16-.08.02-.21-.16-.21-.23-.12.09-.2.05-.34-.13-.45-.12.2-.07.33.07.48-.14-.07-.27.05-.14.2.03-.14.15-.11.17 0 .02.09-.07.21-.22.26-.22.07-.29-.07-.34-.19.05-.03.16-.02.28.06l-.11-.35c-.05.12-.12.17-.21.21-.01-.1.07-.3.07-.3l-.42.17s.19.09.26.17c-.09.03-.17.05-.3-.01l.17.32c.03-.14.11-.23.16-.24.04.12.09.27-.11.38-.13.08-.28.05-.33-.03-.06-.1.01-.2.12-.12-.02-.2-.19-.2-.24-.05 0-.21-.05-.33-.27-.39-.05.21.02.33.22.41-.12-.01-.24.1-.08.24 0-.13.11-.14.17-.06.04.07.03.17-.05.22-.07.04-.2.04-.37-.12.05-.02.11-.01.18 0l-.22-.28c.01.1.01.17-.01.21-.05-.05-.06-.1-.09-.21l-.17.15c.16.1.35.25.58.56.24-.15.67-.35.93-.46s.71-.26.99-.32c-.06-.38-.03-.62.02-.8zm.48 2.01c.17-.13.03-.28.24-.6-.23.14-.57.28-.86.4.13.22.41.37.62.2zm-.04 2.21c.29-.13.27-.41.19-.56-.07-.15-.14-.28-.23-.28-.17 0-.26-.04-.31-.19-.06-.18.13-.24.3-.34-.18-.05-.26-.13-.16-.2.12-.09.28.08.32 0s-.09-.14-.14-.19c-.07-.07-.14-.05-.24-.01l-.79.3c-.1.04-.16.08-.17.18 0 .07-.05.21.04.24.08.03.08-.21.23-.22.12-.01.11.1.03.26.19-.05.37-.13.45.04.07.15.03.24-.08.35-.06.06-.02.2.03.36.04.14.25.38.53.26zm-1.52-1.6c.27-.02.37-.33.32-.57-.3.11-.64.24-.9.3.38.09.37.29.58.27zm4.43 7.04c-.07.2.09.24.09.4 0 .2-.17.29-.36.34.13-.27.02-.43-.21-.47.05.52-.36.6-.53.51.16-.03.23-.28.14-.51-.07.18-.25.31-.43.31-.16 0-.29-.12-.35-.26.19.12.34-.02.34-.12s-.19-.15-.19-.3c0-.35.39-.21.39-.52 0-.12-.07-.18-.15-.18s-.21.04-.24.25c-.19-.17 0-.56-.09-.82.02.41-.26.39-.37.54-.14-.14 0-.42-.14-.75-.05.38-.19.32-.24.54-.38-.19-1.06-.13-1.29.13.65.5 1.42.77 1.42 1.55 0 .6-.93.83-.93 1.22s.98 1.28 1.47 1.28c.16 0 .24-.2.37-.2.13-.01.25 0 .37.01s.22.12.21.23c.23.02.52.37.23.66-.04-.16-.2-.38-.49-.23.11.26.01.51-.32.61.11-.17.12-.39-.08-.39s-.03.13-.4.13-.33.02-.48-.19-.26-.3-.34-.26c-.08.03-.12.24.02.33-.79 0-.46-.81-.87-1.01.02.25.03.45 0 .57-.3-.23-.47-.54-.53-.73-.05-.2-.01-.38-.21-.47-.06-.03-.13-.09-.11-.2.02-.08.06-.06.21-.12.17-.08.38-.24.38-.65 0-.32-.06-.75-.59-1.05.04.67.03 1.23-.28 1.75-.39.66-1.05 1.06-1.42 1.22s-.9.28-.9.77c0 .91.41 1.46.83 1.46.26 0 .2-.3.59-.3.17 0 .35.07.39.19.21-.04.44.08.44.28s-.09.31-.25.34c.12-.26-.19-.32-.29-.26s.03.15.03.31c0 .15-.05.3-.32.37.06-.1.06-.23-.11-.23s-.23.28-.44.28c-.34 0-.44-.15-.76-.08-.23.05-.23.18-.14.24-.47.01-.38-.5-.27-.6.1-.1.17-.17.03-.26s-.37 0-.41.23c-.35-.69.14-.65-.02-1.42-.08.32-.28.57-.43.65.06-.17-.1-.49-.1-.75 0-.58.37-.77.37-.96 0-.12-.14-.26.01-.38.08-.07.25.07.35.07.47 0 .81-.6.88-1.27.09-.8.4-1.34.73-1.94.01-.09.03-.19.05-.28-.33.41-.62 1.03-1.07 1.4.05.51-.94 1.09-1.51.65.19.01.54-.07.65-.36-.08-.01-.16-.02-.24-.05-.35.19-.9-.05-.89-.43.14.16.31.2.47.13-.12-.16-.19-.37-.19-.63 0-1.49 2.33-2.51 2.33-3.73 0-.39-.24-.58-.51-.58-.15 0-.3.04-.47.15.11.1.19.23.19.39 0 1.37-2.21 1.24-2.41 2.14-.11-1.15 1.28-.9 1.4-1.86-.28.37-.78.68-1.06.52.72.01.5-1.47 1.33-1.47.08 0 .18.02.28.06.22-.18.49-.29.71-.29.33 0 .86.25.86.89 0 1.45-2.34 2.38-2.34 3.74 0 .45.27.67.63.67.82 0 1.34-1.46 2.23-2.65.55-.8.93-2.4 1.3-3.15-.43.31-.49 1.14-1.01 1.19.28-.23.08-.95.26-1.48.07-.19.1-.38.04-.57-.32.34-.18 1.47-.7 1.61.18-.23-.02-.6-.02-.94 0-.64.33-.75.37-1.35-.31.12-.21.97-.82.95.43-.43-.01-.88.48-1.37-.29-.13-.49-.36-.49-.6.19-.15.42-.2.62-.22-.09-.14.03-.29.16-.4.04.06.11.18.18.12.12-.08.54-.34.91-.49.37-.14.84-.27.99-.3.09-.02.05-.14.04-.22.18-.01.38 0 .4.19.15-.13.37-.19.58-.2.12.26.15.47.03.81.3.02.46.28.74.21-.24.32-.53.19-.8.15.8.24.95 1.03 1.39 1.08-.47.37-.79-.28-1.2-.28 1.08.56 1.08 1.2 1.38 1.21-.33.3-.58-.09-1.01-.19.84.55.9 1.01.83 1.38.18.17.16.39.17.65.14-.09.38-.13.54-.18-.06.06-.11.12-.17.18-.43.48-.73.94-.97 1.55-.18-.18-.38-.36-.47-.45-.17-.16-.33-.12-.4-.12.27.31 1.19 1.28 1.45 1.59.27.31.24.53.27.77.04.23.34.41.28.57zm15.09 3.75c0 .27.22.49.49.49s.49-.22.49-.49-.22-.49-.49-.49-.49.22-.49.49zm-.17 0c0-.36.3-.66.66-.66s.66.29.66.66c0 .36-.3.65-.66.65s-.66-.29-.66-.65zm-2.16 1.19c.19.03.36-.05.39-.19 0-.01 0-.02 0-.03 0-.12-.13-.25-.3-.28-.11-.02-.21 0-.29.05-.04.03-.08.07-.09.14-.03.13.11.27.29.31zm-.29-.59c.11-.08.27-.11.42-.08.28.05.47.28.43.51-.02.11-.09.21-.21.27-.11.06-.24.07-.37.05s-.25-.09-.33-.18c-.09-.1-.12-.21-.1-.33.01-.09.07-.18.16-.24zm-3.66-8.81c0 .04.01.08.03.11.07.09.24.09.37-.01.08-.06.13-.14.14-.22 0-.04 0-.09-.03-.13-.04-.05-.09-.06-.12-.07-.08-.01-.17.02-.25.08-.09.06-.14.16-.14.24zm.03-.38c.11-.09.25-.13.37-.11.1.01.18.06.23.13.06.07.08.16.07.26-.02.12-.09.25-.2.33-.21.16-.48.15-.61-.02-.12-.17-.06-.43.14-.59zm3.11 8.85c.07 0 .12-.03.15-.06.07-.06.11-.17.11-.27 0-.19-.11-.35-.25-.35-.07 0-.12.03-.15.07-.07.06-.11.16-.11.27s.03.21.1.28c.03.02.08.06.15.06zm-.26-.75c.08-.07.17-.11.27-.11.12 0 .22.06.3.16.07.1.11.22.11.36 0 .15-.06.3-.16.39-.08.07-.17.11-.27.11s-.19-.04-.27-.12c-.09-.1-.15-.24-.15-.39v-.01c.02-.15.08-.29.17-.39zm-3.09-4.65c.1.05.21.06.3.03.04-.01.09-.04.12-.1s.02-.12 0-.16c-.03-.09-.11-.17-.21-.21-.1-.05-.21-.06-.3-.03-.04.01-.1.04-.12.11-.05.11.04.28.21.36zm-.13-.64c.13-.05.29-.03.42.03.14.07.25.18.29.31.03.1.03.2-.01.29s-.12.16-.22.19c-.13.05-.29.03-.42-.03-.25-.12-.38-.39-.28-.6.04-.09.12-.15.22-.19zm4.77 2.98c.11-.15.1-.34-.02-.43-.12-.08-.3-.03-.41.12s-.1.34.02.43.31.04.41-.12zm-.77 1.22c.11-.15.1-.34-.02-.43-.12-.08-.3-.03-.41.12s-.1.34.02.43.3.03.41-.12zm.07-5.1c.2-.22.61-.65.61-.65l-.25-.2c.01.09 0 .22-.03.35-.06-.04-.12-.15-.12-.24l-.2.25c.05 0 .19.02.25.08-.18.17-.33.09-.44.02-.17-.11-.25-.21-.2-.29.06-.1.25-.07.27.09.14-.07.17-.18.12-.27-.04-.07-.14-.09-.24-.06.23-.12.34-.32.29-.56-.26.05-.37.19-.43.44-.02-.1-.08-.2-.16-.2-.1-.01-.2.07-.19.23.16-.05.26.1.2.2s-.19.08-.36-.02c-.19-.11-.21-.28-.12-.45.05.05.09.15.09.27l.22-.36c-.05.02-.15.04-.25 0 .06-.07.16-.18.31-.19l-.43-.25c.06.13.02.28-.01.36-.08-.07-.12-.16-.13-.22l-.2.37c.1-.07.21-.08.28-.06-.1.17-.26.23-.46.12-.17-.09-.25-.19-.2-.3.05-.1.24-.09.28.07.14-.07.16-.19.1-.28-.05-.07-.16-.07-.25-.04.19-.18.26-.34.17-.59-.24.07-.35.27-.34.52-.02-.1-.09-.18-.17-.18-.1 0-.19.08-.18.24.15-.06.27.08.22.18-.05.08-.17.07-.35-.03-.11-.06-.26-.15-.2-.39.08.02.17.13.2.17l.12-.3c-.08.06-.2.05-.27.02.09-.09.2-.17.29-.2l-.3-.12s-.17.56-.27.85zm.49 2.07c0 .09.04.19.11.27s.18.13.27.13c.04 0 .1-.01.15-.05.05-.05.06-.11.06-.15 0-.09-.04-.2-.12-.28-.07-.08-.18-.13-.27-.13-.04 0-.11.01-.15.05-.04.06-.05.12-.05.16zm1.18 5.4c-.01.04-.01.1.03.16.08.12.27.13.43.02.09-.06.16-.15.18-.24.01-.04.01-.1-.03-.16s-.1-.08-.14-.09c-.09-.02-.2 0-.29.07-.1.06-.16.15-.18.24zm-5.61-8.14c.01-.09-.02-.18-.07-.24-.02-.03-.06-.06-.12-.06s-.1.02-.13.05c-.06.05-.1.14-.1.23v.02c0 .15.09.27.2.28.05 0 .1-.03.12-.05.06-.05.09-.13.1-.23zm1.74-3.54c.22-.13.5-.2.81-.22-.19-.06-.33-.22-.49-.22-.32 0-.23.26-.32.44zm5.05 4.44c.05 1.13 1.47.87 1.25 1.71-.02-.56-1.92-.5-1.98-1.66-.01-.24.06-.43.18-.56-.08-.06-.18-.1-.31-.1-.33 0-.81.35-.81.89 0 1.47 1.96 1.65 1.96 3.26 0 .33-.13.64-.37.82.17.02.4-.08.51-.21-.17.62-.81.64-1.01.39-.03 0-.06 0-.09 0-.05 0-.11 0-.16-.01.13.25.32.51.61.46-.58.46-1.28-.16-1.17-.79-.17-.19-.29-.42-.36-.6-.06-.14-.16-.06-.16.09.02.51-.38.98-.38 1.35s.38.72.51.72.22-.15.31-.11.08.15.06.42c-.01.18.02.61.05 1.08.03-.12.12-.24.24-.32.13-.08.28-.12.42-.09.1.02.19.08.24.16.04.06.06.13.06.2 0 .03 0 .06-.01.08-.03.13-.12.26-.25.35-.11.07-.24.11-.36.1-.13-.01-.24-.07-.3-.17-.01-.02-.02-.03-.03-.05.01.14.01.28.01.41 0 .34-.09.48-.23.56-.01-.05-.11-.15-.24-.15-.1 0-.19.08-.19.15 0 .16.19.14.19.37s-.54.53-.87.48c.05-.11.12-.49.23-.75-.1.06-.19.22-.28.45-.1.28-.22.27-.34.2.11-.12.36-.7.62-.89.26-.18.39-.25.46-.69s-.01-.7-.02-1.08c-.01-.51-.22-.4-.38-.4-.35 0-1.65-.83-1.65-1.69 0-.08.01-.17.02-.26-.59-.01-.92.16-.92.71 0 .19.02.37.16.48.12.1.18.19-.02.28-.23.1-2.05.85-2.05.85-.23.09-.26-.01-.36-.12s-.2-.16-.32-.09c-.12.08.09.17.09.29 0 .13-.06.43-.89.38l.2-.33c.06-.11.09-.19.04-.2s-.1.08-.17.18l-.24.31c-.13.01-.27-.02-.27-.02.32-.31.49-.48.67-.66.17-.17.38-.25.75-.31.43-.06 1.85-.25 1.85-.71 0-.53-.59-.49-.59-1.19 0-.62.27-1.27 1.95-1.24-.15-.39-.57-.7-.98-.8-.85-.21-1.09-.78-1.16-1.39-.24-.01-.47-.02-.65-.03-.52-.03-.78-.19-.91-.09-.05.04-.1.11-.02.24s.25.43.39.65c.1.01.27.03.29.16s-.08.15-.1.22c-.02.06.02.12.09.12s.11-.06.1-.11c.07-.05.25-.05.42-.01.13.14.35.39.41.62-.2-.08-.49-.19-.59-.19s-.08.04.01.07.32.12.39.19l-.02.23c-.05-.05-.46-.29-.7-.39s-.39-.15-.51-.45c-.13-.3-.5-.98-.65-1.23-.11-.18-.07-.24-.02-.3s.1-.13.14-.19c.1-.16.13-.12.28-.11s.48.02.63-.04c.03-.01.07-.03.11-.04-.34-.38-.76-.92-.81-.99-.07-.1-.16-.15-.22-.15-.07 0-.14.01-.19.05-.02.02-.05.04-.09.07-.03-.04-.06-.08-.1-.12-.06-.07-.12-.13-.19-.2.13-.1.25-.19.29-.23.09-.08.13-.13.21-.13h.23c.12 0 .17.03.22.09.13.14.34.29.51.42.02.01.04.03.05.04.01-.02.03-.03.04-.05.07-.06.16-.1.25-.09.09 0 .17.05.24.12.08.09.12.22.12.36 0 .05-.01.1-.03.14.13.11.25.21.38.34.06-.47.3-.92.61-1.32l-.04.04s.03-.08.03-.08c.07-.21.18-.58.23-.75.02-.07.03-.09.03-.1l.03-.11.51.2c.02-.02.03-.03.05-.05.45-.43 1.54-.72 1.54-1.33 0-.15-.05-.34-.21-.47.07.1.08.23.06.36-.03.16-.27.52-.71.52-.24 0-.4-.23-.49-.23-.05 0-.12.04-.19.09.02.32-.12.49-.25.52.05-.13.01-.36-.03-.33s-.09.07-.1.26c-.01.18-.17.42-.42.45.05-.08.13-.38.08-.42s-.14.09-.2.09-.12-.06-.13-.14c-.01-.07-.14 0-.16-.06-.03-.06.15-.19.31-.25s.4-.17.36-.26c-.07-.16-.55.1-.76.22-.32.19-.18-.07-.22-.17-.12-.28-.01-.31.12-.43.18-.16.54-.41.95-.62 0-.14.08-.25.19-.28.17-.06.33-.13.5-.19l-2.17-2.76c-.05-.05-.05-.1-.03-.12.02-.03.06-.01.14.06l2.57 2.51c.06-.17.11-.38.06-.6.31.15.58.46.63.75.79-.01 1 .48 1.24.31.03.12-.1.25-.33.29.91.23.67.89 1.19.97-.08.09-.2.13-.39.07.57.83 0 1.37.44 1.76-.17.05-.4-.09-.56-.36.17.69-.09 1.06.04 1.34-.19.05-.33-.12-.4-.39-.04.15-.09.29-.14.41l.21.17-.08.09-.02.02c-.34.36-.51.54-.59.63l-.06.07s-.07-.04-.08-.04c-.22.28-.41.51-.41.77 0 .3.4.84.82 1.39-.02-.06-.03-.11-.03-.17v-.03c0-.1.04-.2.12-.27.07-.07.17-.1.27-.1.14 0 .28.07.39.18.1.11.16.25.16.38v.01c0 .11-.04.2-.12.27-.07.07-.17.1-.27.1s-.2-.04-.29-.1c.3.39.59.77.72 1.05.28.58.55.95.88.95.37 0 .7-.27.7-.71 0-1.49-1.97-1.64-1.97-3.33 0-.78.68-1.16 1.08-1.16.27 0 .45.07.61.24.05-.01.1-.02.15-.02.93 0 .35 1.24 1.07 1.32-.32.15-.75-.06-.96-.64zm-22.23 23.86h3.48c1.38 0 1.64.88 1.79 1.93.21 1.05-.01 2.19.39 2.63h1.59c-.6-.73-.54-1.9-.63-2.94-.1-1.05-.36-1.96-1.6-2.2v-.03c1.29-.36 1.86-1.42 1.86-2.7 0-1.7-1.25-2.79-3.26-2.79h-5.05v10.66h1.42v-4.56zm0-4.92h3.54c1.34 0 1.91.78 1.91 1.82 0 1.55-1.14 1.9-2.47 1.9h-2.98zm25.82 8.45c0 .84.42 1.2 1.08 1.2.4 0 .69-.08.92-.21v-.99c-.16.06-.28.08-.39.08-.41 0-.41-.27-.41-.87v-3.97c0-1.81-1.51-2.12-2.91-2.12-1.73 0-3.21.67-3.29 2.58h1.27c.06-1.13.86-1.46 1.93-1.46.81 0 1.73.18 1.73 1.28 0 .96-1.2.87-2.61 1.13-1.32.25-2.63.63-2.63 2.37 0 1.54 1.16 2.17 2.57 2.17 1.09.01 2.04-.37 2.74-1.19zm-2.44.08c-.78 0-1.5-.3-1.5-1.13 0-.94.72-1.24 1.56-1.39.86-.15 1.82-.16 2.31-.52v1.3c0 .69-.69 1.74-2.37 1.74zm14.14-3.42h3.27c2.13.01 3.29-1.18 3.29-3.15s-1.16-3.15-3.29-3.15h-4.7v10.66h1.42v-4.36zm0-5.11h2.79c1.6 0 2.34.69 2.34 1.96s-.74 1.97-2.34 1.96h-2.79zm13.54 7.66v-3.97c0-1.81-1.51-2.12-2.91-2.12-1.72 0-3.21.67-3.28 2.58h1.27c.06-1.13.85-1.46 1.93-1.46.81 0 1.73.18 1.73 1.28 0 .96-1.2.87-2.61 1.13-1.32.25-2.62.63-2.62 2.37 0 1.54 1.16 2.17 2.57 2.17 1.08 0 2.02-.37 2.73-1.2 0 .84.42 1.2 1.08 1.2.4 0 .69-.08.92-.21v-.99c-.17.06-.29.08-.39.08-.42.01-.42-.26-.42-.86zm-1.27-.88c0 .7-.69 1.75-2.37 1.75-.78 0-1.5-.3-1.5-1.13 0-.94.72-1.24 1.56-1.39.85-.15 1.81-.16 2.31-.52zm25.51-5.21c-2.12 0-3.65 1.7-3.65 4.02.07 2.36 1.24 4.06 3.72 4.06 1.74 0 2.97-.93 3.32-2.63h-1.26c-.22 1-.96 1.51-2.01 1.51-1.69 0-2.46-1.19-2.41-2.54h5.81c.07-1.87-.77-4.42-3.52-4.42zm-2.29 3.3c.09-1.18.88-2.18 2.22-2.18 1.26 0 2.18.97 2.24 2.18zm-71.53 9.62-4.18 10.66h1.47l1.2-3.21h4.53l1.17 3.21h1.57l-4.18-10.66zm-1.06 6.26 1.82-4.97h.03l1.78 4.97zm12.71-2.21h-.01c-.47-.85-1.33-1.28-2.31-1.28-2.68 0-3.59 2.25-3.59 4.08 0 2.1 1.16 3.91 3.47 3.91.98 0 2-.46 2.42-1.4h.03v.51c0 1.73-.66 2.93-2.33 2.93-.84 0-1.95-.33-2.01-1.25h-1.28c.07 1.69 1.76 2.27 3.21 2.27 2.45 0 3.6-1.28 3.6-3.79v-7.06h-1.2zm-2.37 5.58c-1.68 0-2.19-1.55-2.19-2.94 0-1.48.66-2.81 2.3-2.81 1.6 0 2.21 1.4 2.21 2.76-.01 1.46-.64 2.99-2.32 2.99zm8.36-6.86c-2.12 0-3.64 1.7-3.64 4.02.07 2.36 1.24 4.06 3.72 4.06 1.74 0 2.97-.93 3.31-2.63h-1.26c-.22 1-.96 1.51-2.01 1.51-1.69 0-2.46-1.19-2.42-2.54h5.81c.08-1.87-.76-4.42-3.51-4.42zm-2.29 3.3c.09-1.18.89-2.18 2.22-2.18 1.26 0 2.18.97 2.24 2.18zm3.47-18.99v1.34c-2.06 0-2.81 1.17-2.81 3.12v3.43h-1.27v-7.72h1.2v1.63h.03c.61-1.23 1.47-1.84 2.85-1.8zm7.13 15.69c-1.11 0-1.98.45-2.52 1.4h-.03v-1.22h-1.2v7.72h1.27v-4.37c0-1.39.75-2.42 2.3-2.42.98 0 1.57.61 1.57 1.55v5.23h1.28v-5.08c0-1.65-.63-2.81-2.67-2.81zm7.44 6.95c-1.62 0-2.27-1.4-2.27-2.82 0-1.57.57-3.02 2.42-3.02 1.05 0 1.73.57 1.92 1.54h1.32c-.18-1.84-1.59-2.66-3.35-2.66-2.46 0-3.66 1.82-3.66 4.14 0 2.3 1.26 3.94 3.63 3.94 1.95 0 3.14-1.12 3.42-3h-1.3c-.17 1.17-.9 1.88-2.13 1.88zm60.84-19.19c-1.19-.28-2.54-.43-2.54-1.34 0-.78.89-.99 1.65-.99.84 0 1.71.31 1.8 1.3h1.28c-.1-1.88-1.47-2.42-3.18-2.42-1.35 0-2.89.64-2.89 2.19 0 1.48 1.27 1.9 2.53 2.18 1.28.28 2.53.45 2.53 1.43 0 .97-1.08 1.15-1.87 1.15-1.05 0-2.04-.36-2.08-1.49h-1.28c.07 1.91 1.54 2.61 3.29 2.61 1.57 0 3.3-.6 3.3-2.43-.01-1.49-1.27-1.91-2.54-2.19zm-66.95 4.45h1.27v-10.66h-1.27zm-15.35-3.36c0 1.39-.75 2.42-2.3 2.42-.98 0-1.58-.61-1.58-1.55v-5.23h-1.27v5.08c0 1.66.63 2.82 2.67 2.82 1.11 0 1.98-.45 2.52-1.4h.03v1.22h1.2v-7.72h-1.27zm70.2-4.54c-1.11 0-1.98.45-2.52 1.4h-.03v-1.22h-1.2v7.72h1.27v-4.36c0-1.39.75-2.42 2.3-2.42.98 0 1.58.61 1.58 1.55v5.23h1.27v-5.08c0-1.65-.63-2.82-2.67-2.82zm-41.45 22.18h-.03l-2.27-6.31h-1.44l3.08 7.67-.52 1.32c-.24.45-.53.7-1.05.7-.25 0-.51-.11-.75-.18v1.17c.28.1.59.13.89.13 1.14 0 1.66-.55 2.25-2.06l3.38-8.75h-1.35zm47.4-24.31h-1.27v2.31h-1.32v1.12h1.32v4.91c0 1.42.52 1.69 1.85 1.69h.97v-1.12h-.59c-.8 0-.96-.1-.96-.69v-4.79h1.54v-1.12h-1.54zm-34.21 8.63h-.03l-2.27-6.32h-1.43l3.07 7.67-.52 1.32c-.24.45-.53.7-1.05.7-.25 0-.51-.11-.75-.18v1.16c.28.1.59.13.89.13 1.14 0 1.67-.55 2.25-2.06l3.38-8.75h-1.35zm12.59-6.5c-.99 0-1.9.49-2.43 1.31-.31-.94-1.19-1.31-2.13-1.31-1.07 0-1.93.45-2.51 1.31h-.03v-1.13h-1.2v7.72h1.27v-4.81c0-.58.56-1.97 2.07-1.97 1.14 0 1.45.72 1.45 1.72v5.06h1.27v-4.81c0-1.19.8-1.97 2.03-1.97 1.25 0 1.5.76 1.5 1.72v5.06h1.27v-5.66c.02-1.6-1.02-2.24-2.56-2.24zm-76.92 23.52h1.26v-52.8h-1.26z" fill="currentColor"></path>
</svg>