<svg height="32" viewBox="0 0 121 32" width="121" xmlns="http://www.w3.org/2000/svg"><path d="m92.3 4.06c.64 0 1.13.18 1.47.54.35.36.52.81.52 1.35 0 .53-.17.97-.52 1.32s-.84.53-1.47.53c-.64 0-1.12-.18-1.47-.53-.34-.35-.51-.79-.51-1.32 0-.54.17-.99.51-1.35s.83-.54 1.47-.54zm-76.02-3.98c.35.11.66.4 1.22.96l1.2 1.2-3.4 5.27c-.01.02-.02.03-.03.04-.02.01-.05.01-.07 0-.55-.17-1.14-.05-1.58.3-.02.02-.06.01-.08 0-.2-.09-1.04-.44-1.94-.82l-.5-.21c-.9-.38-1.75-.74-1.97-.84l4.79-4.79c.66-.66.99-.99 1.38-1.12.31-.1.66-.1.98.01zm3.14 2.87 3.14 3.14-.76 4.69v.01c0 .01 0 .02-.01.03-.01.02-.02.02-.04.02-.16.05-.31.13-.45.22-.01 0-.01.01-.02.01-.01.01-.02.02-.03.02s-.02 0-.04-.01l-4.79-2.04h-.01c-.03-.01-.07-.03-.07-.06-.03-.27-.12-.52-.26-.75-.02-.04-.05-.08-.03-.12zm4.03 4.02 2.99 2.99-3.11 1.32c-.01 0-.02.01-.03 0h-.01s-.01-.01-.02-.01c-.12-.13-.25-.24-.41-.31h-.01c-.01 0-.01 0-.02-.01-.02-.02-.03-.05-.02-.08zm3.74 3.75 3.19 3.19c.66.66.99.99 1.12 1.38.02.06.03.11.04.17l-7.63-3.23h-.01c-.03-.01-.07-.03-.07-.06s.04-.05.07-.06h.01zm-18.81-3.99c.35.15 1.61.69 2.75 1.16.86.36 1.64.69 1.88.8.02.01.05.02.06.04.01.01 0 .03 0 .05-.12.54.04 1.11.43 1.51.02.02 0 .06-.02.09l-.01.02-3.77 5.82c-.01.02-.02.03-.04.04s-.05.01-.07 0c-.15-.04-.3-.06-.45-.06-.09 0-.19.01-.28.03l-.15.03c-.02 0-.03.01-.04 0s-.03-.03-.04-.04l-3.96-5.78zm55.13 5.81c-.96 0-1.74.34-2.33 1.01-.59.68-.97 1.62-1.13 2.82h6.69v-.26c-.08-1.18-.39-2.07-.94-2.67-.56-.6-1.32-.9-2.29-.9zm-47.32-2.5 4.49 1.9c.02.01.05.02.06.05v.05c-.01.07-.02.14-.02.22v.13c0 .03-.03.04-.06.06h-.01c-.71.3-9.99 4.26-10 4.26s-.03 0-.04-.01c-.02-.02 0-.06.02-.09l.01-.02 3.69-5.72.01-.01c.02-.03.05-.07.09-.07l.04.01c.08.01.16.02.23.02.56 0 1.08-.27 1.39-.74.01-.01.02-.02.03-.03.01-.03.04-.02.07-.01zm-12.25 1.12c1.27 1.84 2.54 3.67 3.81 5.51.02.03.05.06.02.09-.12.13-.24.28-.33.43-.01.02-.02.04-.04.05-.01.01-.02 0-.03 0l-7.37-1.54c.01-.14.03-.27.07-.41.11-.35.4-.66.96-1.22zm17.22 2.13s.01 0 .03.01c.06.06.1.09.15.13l.02.01c.02.01.04.02.04.05v.02l-.87 5.32v.02c-.01.04-.01.09-.05.09-.47.03-.89.29-1.13.7v.01c-.01.02-.02.04-.04.05s-.04 0-.06 0l-8.07-1.66c-.01 0-.13-.43-.13-.43zm-20.78 3.52 6.54 1.36h.01.01c.04.01.08.01.08.05s-.05.06-.09.08h-.02l-3.57 1.51-2.15-2.15c-.36-.36-.63-.63-.81-.85zm23.09-3.68 7.95 3.36c-.16.31-.49.63-1.03 1.18l-3.6 3.6-4.66-.97h-.02c-.04-.01-.08-.01-.08-.05-.04-.39-.23-.74-.54-.98-.02-.02-.01-.05-.01-.08v-.01l.88-5.38v-.02c0-.04.01-.09.05-.09.38-.05.72-.24.96-.55.01-.01.01-.02.02-.02.02-.02.05 0 .08.01zm-15.99 6c.03 0 .04.03.06.05.03.05.07.1.11.15l.01.01c.01.01 0 .03-.01.04l-1.85 2.88-1.7-1.7 3.36-1.43zm97.11-16c.62 0 1.27.09 1.97.26l-.09 2.75c-.44-.08-.89-.12-1.34-.12-1.68 0-2.51.86-2.51 2.59v1.39h3.18v2.61h-3.18v13.06h-3.52v-13.06h-2.38v-2.61h2.38v-1.43c0-1.74.48-3.08 1.44-4.03.97-.94 2.32-1.41 4.05-1.41zm-56.09 6.59c3.25 0 4.91 1.87 4.97 5.6v10.35h-3.51v-10.15c0-.99-.21-1.73-.64-2.21s-1.13-.72-2.1-.72c-1.42 0-2.47.64-3.16 1.93v11.15h-3.51v-15.66h3.31l.1 1.81c1.15-1.4 2.67-2.1 4.54-2.1zm45.55.29v15.67h-3.51v-15.67zm-7.56-6.58v22.24h-3.51v-22.24zm-9.17 2.77v3.81h2.76v2.61h-2.76v8.74c0 .6.12 1.03.35 1.3.24.27.66.4 1.26.4.41 0 .83-.05 1.23-.14v2.72c-.8.22-1.57.33-2.31.33-2.7 0-4.04-1.49-4.04-4.47v-8.88h-2.57v-2.61h2.57v-3.81zm-13.79 3.52c2.13 0 3.77.68 4.93 2.04s1.74 3.29 1.74 5.78v1.42h-10.21c.11 1.29.54 2.32 1.29 3.07.76.75 1.71 1.13 2.85 1.13 1.61 0 2.92-.65 3.93-1.95l1.89 1.81c-.63.94-1.46 1.66-2.51 2.18s-2.22.77-3.52.77c-2.22 0-4.03-.7-5.41-2.11-1.38-1.4-2.07-3.27-2.07-5.61v-.43c0-1.56.3-2.96.9-4.19s1.45-2.19 2.54-2.87c1.09-.7 2.31-1.04 3.65-1.04zm-41.74 11.52 4.17.86-5.92 5.92 1.01-6.23v-.01c0-.01 0-.02 0-.02l.03-.03.03-.01c.22-.09.42-.24.57-.43.02-.02.04-.05.07-.05.02-.01.03-.01.04 0zm-10.87-2.26 8.17 1.69c.02 0 .04.01.06.03.01.01.01.02.02.04.12.44.43.8.85.97.02.01.01.04 0 .06-.01.01-.01.02-.01.04-.06.34-.34 2.1-.63 3.86l-.1.59c-.21 1.26-.4 2.44-.49 3.02l-.67.67-7.38-10.66s-.01-.01-.01-.01c-.01-.02-.02-.03-.02-.05 0-.01.01-.02.02-.03l.01-.01c.02-.03.04-.07.06-.1l.02-.03c.01-.02.02-.04.04-.05.02-.04.05-.03.06-.03zm-.96.89c.01.01.02.02.02.03l7.41 10.75-.16.15c-.4.39-.66.6-.95.69-.32.1-.67.1-.99 0-.35-.11-.66-.4-1.22-.96l-7.57-7.57 1.93-3c.01-.01.02-.03.03-.04.02-.01.05-.01.07 0 .44.13.92.11 1.35-.07.04.01.06.01.08.02zm100.55-9.86 3.31 10.63 3.18-10.63h3.74l-6.21 18.04c-.95 2.63-2.57 3.95-4.85 3.95-.51 0-1.07-.09-1.69-.26v-2.72l.66.04c.89 0 1.55-.16 2-.49.45-.32.8-.87 1.06-1.63l.5-1.35-5.49-15.59h3.79z" fill="#25222c"/></svg>