<svg height="56" viewBox="0 0 92 56" width="92" xmlns="http://www.w3.org/2000/svg"><path d="m55.17 39.96v9.53c0 .62-.33 1.19-.87 1.51l-8.25 4.77c-.26.15-.56.23-.87.23-.3 0-.6-.08-.87-.23l-2.76-1.63c-.41-.23-.21-.31-.07-.36.55-.19.66-.23 1.25-.57.06-.03.14-.02.2.02l2.12 1.26c.08.04.18.04.26 0l8.26-4.76c.08-.04.13-.13.13-.22v-9.53c0-.09-.05-.18-.13-.23l-8.25-4.76c-.08-.04-.18-.04-.25 0l-8.25 4.76c-.08.05-.13.14-.13.23v9.53c0 .09.05.18.13.22l2.26 1.31c1.23.61 1.98-.11 1.98-.84v-9.41c0-.13.11-.24.24-.24h1.05c.13 0 .24.1.24.24v9.41c0 1.64-.89 2.58-2.44 2.58-.48 0-.85 0-1.9-.52l-2.16-1.25c-.53-.31-.87-.89-.87-1.51v-9.53c0-.62.33-1.2.87-1.5l8.26-4.77c.52-.3 1.22-.3 1.73 0l8.25 4.77c.51.3.84.87.84 1.49zm-7.44 8.02c-2.18 0-2.67-.55-2.83-1.64-.02-.12-.12-.2-.24-.2h-1.06c-.13 0-.24.11-.24.24 0 1.39.76 3.05 4.37 3.05 2.62 0 4.12-1.03 4.12-2.83 0-1.78-1.2-2.26-3.74-2.59-2.56-.34-2.82-.51-2.82-1.11 0-.5.22-1.16 2.12-1.16 1.7 0 2.32.37 2.58 1.51.02.11.12.19.23.19h1.07c.07 0 .13-.03.17-.08.05-.05.07-.12.06-.18-.17-1.97-1.47-2.89-4.12-2.89-2.35 0-3.76.99-3.76 2.66 0 1.81 1.4 2.31 3.66 2.53 2.7.26 2.91.66 2.91 1.19 0 .92-.74 1.31-2.48 1.31zm-28.64-30.18-8.75-5.04c-.15-.09-.31-.13-.48-.14h-.1c-.17.01-.33.05-.48.14l-8.75 5.04c-.33.19-.53.54-.53.92l.02 13.56c0 .19.1.36.26.46s.36.1.53 0l5.2-2.98c.33-.2.53-.54.53-.92v-6.34c0-.38.2-.73.53-.92l2.21-1.28c.17-.1.35-.14.53-.14s.37.05.53.14l2.21 1.28c.33.19.53.54.53.92v6.34c0 .38.2.72.53.92l5.2 2.98c.16.1.37.1.53 0 .16-.09.26-.27.26-.46l.02-13.56c0-.38-.2-.73-.53-.92zm48.39-13.89v25.2c0 .38-.2.73-.53.92l-8.76 5.06c-.33.19-.73.19-1.06 0l-8.76-5.06c-.33-.19-.53-.54-.53-.92v-10.12c0-.38.2-.73.53-.92l8.76-5.05c.33-.19.73-.19 1.06 0l2.19 1.26c.11.07.26.07.37 0s.18-.19.18-.32v-13.42c0-.19.1-.36.26-.46.16-.09.36-.1.53-.01l5.21 2.91c.35.19.55.54.55.93zm-6.56 18.4c0-.09-.05-.18-.13-.23l-3.01-1.74c-.08-.05-.18-.05-.26 0l-3.01 1.74c-.08.05-.13.13-.13.23v3.47c0 .09.05.18.13.23l3.01 1.73c.08.05.18.05.26 0l3.01-1.73c.08-.05.13-.13.13-.23zm29.97-4.37-8.7-5.05c-.33-.19-.73-.19-1.06 0l-8.75 5.05c-.33.19-.53.54-.53.92v10.11c0 .38.2.73.53.92l8.7 4.96c.32.18.71.18 1.04.01l5.26-2.92c.17-.09.27-.27.27-.46s-.1-.37-.27-.46l-8.81-5.06c-.16-.09-.27-.27-.27-.46v-3.17c0-.19.1-.36.26-.46l2.74-1.58c.16-.09.36-.09.53 0l2.74 1.58c.16.09.26.27.26.46v2.49c0 .19.1.36.26.46.16.09.37.09.53 0l5.24-3.05c.33-.19.53-.54.53-.91v-2.45c.02-.39-.18-.74-.5-.93zm-9.16 3.81c-.06-.04-.14-.04-.2 0l-1.68.97c-.06.04-.1.1-.1.18v1.94c0 .07.04.14.1.18l1.68.97c.06.04.14.04.2 0l1.68-.97c.06-.04.1-.1.1-.18v-1.94c0-.07-.04-.14-.1-.18zm-38.46 7.72c.09-.16.14-.34.14-.52v-10.03c0-.37-.2-.72-.52-.91l-8.68-5.01c-.14-.08-.29-.12-.45-.14-.01 0-.01 0-.02 0h-.01-.01c-.01 0-.03 0-.04 0-.04 0-.08 0-.12.01-.01 0-.01 0-.02 0-.02 0-.04.01-.05.01-.03.01-.06.01-.09.02-.02 0-.04.01-.05.01-.02.01-.03.02-.05.02h-.01c-.04.02-.09.03-.13.06l-8.59 4.96-.1.06c-.32.19-.54.53-.54.91v10.03c0 .06.01.11.02.16 0 .01.01.03.01.04.01.04.02.08.03.12 0 .01.01.02.01.03.06.16.16.3.3.42.01.01.02.01.02.02.05.04.09.07.15.1l8.7 5.02c.06.04.13.06.19.09.02.01.04.01.05.01.02.01.04.01.06.02.03.01.05.01.08.02h.01.03c.04 0 .07.01.11.01.18 0 .36-.05.53-.14l8.68-5.02c.14-.09.27-.22.36-.38z" fill="#25222c"/></svg>